%
M48
METRIC,000.000
T10C0.60
T11C0.80
T12C1.00
T13C3.20
%
T10
X006494Y017598
X008468Y030253
X008468Y025173
X008468Y022633
X016642Y022633
X016642Y020093
X016642Y017553
X016642Y015013
X033843Y017647
X036093Y033598
X037300Y035449
X042243Y027697
X043795Y022648
T11
X003500Y038350
X003500Y035851
X032692Y030247
X032692Y027748
T12
X003373Y032793
X003373Y030253
X003373Y027713
X003373Y025173
X003373Y022633
X003373Y020093
X003373Y017553
X003373Y015013
X012555Y032793
X012555Y030253
X012555Y027713
X012555Y025173
X012555Y022633
X012555Y020093
X012555Y017553
X012555Y015013
X021734Y032793
X021734Y030253
X021734Y027713
X021734Y025173
X021734Y022633
X021734Y020093
X021734Y017553
X021734Y015013
X029373Y032793
X029373Y030253
X029373Y027713
X029373Y025173
X029373Y022633
X029373Y020093
X029373Y017553
X029373Y015013
X037285Y043255
X037285Y040715
X037285Y038175
X039825Y043255
X039825Y040715
X039825Y038175
X047734Y032793
X047734Y030253
X047734Y027713
X047734Y025173
X047734Y022633
X047734Y020093
X047734Y017553
X047734Y015013
T13
X005064Y042935
X005064Y004898
X020043Y042935
X020043Y004898
X031064Y042935
X031064Y004898
X046043Y042935
X046043Y004898
M30