%
M48
METRIC,000.000
T01C0.50
%
T01
X024343Y038745
X024343Y039745
X024343Y040745
X024343Y041745
X024343Y042745
X024343Y043745
X026765Y043501
X026765Y042501
X026765Y041501
X026765Y040501
X026765Y039501
X026765Y038501
X024338Y003745
X024343Y004745
X024343Y005745
X024343Y006745
X024343Y007745
X024343Y008745
X026765Y008501
X026765Y007501
X026765Y006501
X026765Y005501
X026765Y004501
X026784Y003502
X024343Y020745
X024343Y021745
X024343Y022745
X024343Y023745
X024343Y024745
X024343Y025745
X026765Y025501
X026765Y024501
X026765Y023501
X026765Y022501
X026765Y021501
X026765Y020501
M30