%
M48
METRIC,000.000
T01C0.50
%
T01
X024343Y038745
X024343Y039745
X024343Y040745
X024343Y041745
X024343Y042745
X027765Y042505
X027765Y041505
X027765Y040505
X027765Y039505
X024338Y003745
X024343Y004745
X024343Y005745
X024343Y006745
X024343Y007745
X027765Y007505
X027765Y006505
X027765Y005505
X027765Y004505
X024343Y021745
X024343Y022745
X024343Y023745
X024343Y024745
X024343Y025745
X027765Y025505
X027765Y024505
X027765Y023505
X027765Y022505
X027765Y021505
M30