%MOIN*%
%OFA0B0*%
%FSLAX36Y36*%
%IPPOS*%
%LPD*%
%ADD10C,0*%
D10*
X000946910Y000132789D02*
X000946910Y000132789D01*
X000947442Y000135384D01*
X000948147Y000137938D01*
X000949022Y000140439D01*
X000950063Y000142876D01*
X000951266Y000145237D01*
X000952624Y000147511D01*
X000954133Y000149689D01*
X000955785Y000151761D01*
X000957572Y000153717D01*
X000959487Y000155548D01*
X000961521Y000157246D01*
X000963664Y000158804D01*
X000965908Y000160213D01*
X000968241Y000161469D01*
X000970653Y000162565D01*
X000973133Y000163497D01*
X000975671Y000164259D01*
X000978254Y000164849D01*
X000980871Y000165264D01*
X000983510Y000165502D01*
X001023878Y000167776D01*
X001026748Y000167833D01*
X001029615Y000167681D01*
X001032463Y000167320D01*
X001035277Y000166752D01*
X001038043Y000165981D01*
X001040745Y000165010D01*
X001043369Y000163845D01*
X001045901Y000162492D01*
X001048328Y000160958D01*
X001050636Y000159251D01*
X001052814Y000157381D01*
X001054850Y000155357D01*
X001056733Y000153189D01*
X001058453Y000150891D01*
X001060001Y000148473D01*
X001061369Y000145948D01*
X001062549Y000143331D01*
X001063535Y000140635D01*
X001064322Y000137874D01*
X001064906Y000135063D01*
X001064906Y000135063D01*
X001066582Y000125197D01*
X001070249Y000112470D01*
X001075318Y000100233D01*
X001081724Y000088640D01*
X001089389Y000077838D01*
X001098214Y000067962D01*
X001108091Y000059136D01*
X001118893Y000051472D01*
X001130485Y000045065D01*
X001142722Y000039996D01*
X001155449Y000036330D01*
X001168507Y000034111D01*
X001181731Y000033368D01*
X001854093Y000033368D01*
X001867318Y000034111D01*
X001880376Y000036330D01*
X001893103Y000039996D01*
X001905339Y000045065D01*
X001916932Y000051472D01*
X001927734Y000059136D01*
X001937610Y000067962D01*
X001946436Y000077838D01*
X001954100Y000088640D01*
X001960507Y000100233D01*
X001965576Y000112470D01*
X001969242Y000125197D01*
X001971461Y000138255D01*
X001972203Y000151479D01*
X001972203Y001731578D01*
X001971461Y001744802D01*
X001969242Y001757860D01*
X001965576Y001770587D01*
X001960507Y001782824D01*
X001954100Y001794416D01*
X001946436Y001805218D01*
X001937610Y001815094D01*
X001927734Y001823920D01*
X001916932Y001831585D01*
X001905339Y001837992D01*
X001893103Y001843060D01*
X001880376Y001846727D01*
X001867318Y001848946D01*
X001854093Y001849688D01*
X001181731Y001849688D01*
X001168507Y001848946D01*
X001155449Y001846727D01*
X001142722Y001843060D01*
X001130485Y001837992D01*
X001118893Y001831585D01*
X001108091Y001823920D01*
X001098214Y001815094D01*
X001089389Y001805218D01*
X001081724Y001794416D01*
X001075318Y001782824D01*
X001070249Y001770587D01*
X001066582Y001757860D01*
X001064364Y001744802D01*
X001063621Y001731578D01*
X001063621Y001716093D01*
X001063489Y001712874D01*
X001063095Y001709676D01*
X001062440Y001706521D01*
X001061529Y001703431D01*
X001060369Y001700425D01*
X001058967Y001697524D01*
X001057332Y001694748D01*
X001055476Y001692114D01*
X001053411Y001689641D01*
X001051150Y001687345D01*
X001048709Y001685242D01*
X001046105Y001683345D01*
X001043354Y001681668D01*
X001040475Y001680221D01*
X001037487Y001679015D01*
X001034411Y001678057D01*
X001031267Y001677353D01*
X001028076Y001676909D01*
X001024859Y001676728D01*
X001021638Y001676810D01*
X000985338Y001679225D01*
X000982394Y001679532D01*
X000979480Y001680060D01*
X000976615Y001680805D01*
X000973814Y001681764D01*
X000971093Y001682930D01*
X000968467Y001684298D01*
X000965951Y001685859D01*
X000963560Y001687604D01*
X000961306Y001689525D01*
X000959204Y001691609D01*
X000957263Y001693845D01*
X000955497Y001696221D01*
X000953914Y001698723D01*
X000952523Y001701337D01*
X000951333Y001704048D01*
X000950350Y001706840D01*
X000949580Y001709699D01*
X000949026Y001712608D01*
X000948693Y001715549D01*
X000948581Y001718508D01*
X000948581Y001731653D01*
X000947839Y001744877D01*
X000945620Y001757935D01*
X000941953Y001770662D01*
X000936885Y001782899D01*
X000930478Y001794491D01*
X000922814Y001805293D01*
X000913988Y001815169D01*
X000904112Y001823995D01*
X000893310Y001831660D01*
X000881717Y001838066D01*
X000869481Y001843135D01*
X000856753Y001846802D01*
X000843696Y001849020D01*
X000830471Y001849763D01*
X000158109Y001849763D01*
X000144885Y001849020D01*
X000131827Y001846802D01*
X000119100Y001843135D01*
X000106863Y001838066D01*
X000095271Y001831660D01*
X000084469Y001823995D01*
X000074592Y001815169D01*
X000065767Y001805293D01*
X000058102Y001794491D01*
X000051696Y001782899D01*
X000046627Y001770662D01*
X000042960Y001757935D01*
X000040742Y001744877D01*
X000039999Y001731653D01*
X000039999Y000151479D01*
X000039999Y000151479D01*
X000040742Y000138255D01*
X000042960Y000125197D01*
X000046627Y000112470D01*
X000051696Y000100233D01*
X000058102Y000088640D01*
X000065767Y000077838D01*
X000074592Y000067962D01*
X000084469Y000059136D01*
X000095271Y000051472D01*
X000106863Y000045065D01*
X000119100Y000039996D01*
X000131827Y000036330D01*
X000144885Y000034111D01*
X000158109Y000033368D01*
X000830471Y000033368D01*
X000843696Y000034111D01*
X000856753Y000036330D01*
X000869481Y000039996D01*
X000881717Y000045065D01*
X000893310Y000051472D01*
X000904112Y000059136D01*
X000913988Y000067962D01*
X000922814Y000077838D01*
X000930478Y000088640D01*
X000936885Y000100233D01*
X000941953Y000112470D01*
X000945620Y000125197D01*
X000946910Y000132789D01*
X001063621Y000338140D02*
X001063621Y000338140D01*
X001063489Y000334921D01*
X001063095Y000331723D01*
X001062440Y000328569D01*
X001061529Y000325478D01*
X001060369Y000322472D01*
X001058967Y000319571D01*
X001057332Y000316795D01*
X001055476Y000314161D01*
X001053411Y000311688D01*
X001051150Y000309392D01*
X001048709Y000307289D01*
X001046105Y000305393D01*
X001043354Y000303715D01*
X001040475Y000302269D01*
X001037487Y000301062D01*
X001034411Y000300104D01*
X001031267Y000299400D01*
X001028076Y000298957D01*
X001024859Y000298775D01*
X001021638Y000298857D01*
X000985338Y000301272D01*
X000982394Y000301579D01*
X000979480Y000302107D01*
X000976615Y000302853D01*
X000973814Y000303811D01*
X000971093Y000304977D01*
X000968467Y000306345D01*
X000965951Y000307906D01*
X000963560Y000309652D01*
X000961306Y000311572D01*
X000959204Y000313656D01*
X000957263Y000315893D01*
X000955497Y000318268D01*
X000953914Y000320770D01*
X000952523Y000323384D01*
X000951333Y000326095D01*
X000950350Y000328888D01*
X000949580Y000331746D01*
X000949026Y000334655D01*
X000948693Y000337597D01*
X000948581Y000340555D01*
X000948581Y000801176D01*
X000948693Y000804135D01*
X000949026Y000807076D01*
X000949580Y000809985D01*
X000950350Y000812844D01*
X000951333Y000815636D01*
X000952523Y000818347D01*
X000953914Y000820961D01*
X000955497Y000823463D01*
X000957263Y000825839D01*
X000959204Y000828075D01*
X000961306Y000830159D01*
X000963560Y000832080D01*
X000965951Y000833825D01*
X000968467Y000835386D01*
X000971093Y000836754D01*
X000973814Y000837920D01*
X000976615Y000838879D01*
X000979480Y000839624D01*
X000982394Y000840152D01*
X000985338Y000840459D01*
X001021638Y000842874D01*
X001024859Y000842956D01*
X001028076Y000842775D01*
X001031267Y000842331D01*
X001034411Y000841627D01*
X001037487Y000840669D01*
X001040475Y000839463D01*
X001043354Y000838016D01*
X001046105Y000836339D01*
X001048709Y000834442D01*
X001051150Y000832339D01*
X001053411Y000830043D01*
X001055476Y000827570D01*
X001057332Y000824937D01*
X001058967Y000822160D01*
X001060369Y000819259D01*
X001061529Y000816253D01*
X001062440Y000813163D01*
X001063095Y000810008D01*
X001063489Y000806810D01*
X001063621Y000803591D01*
X001063621Y000338140D01*
X000948581Y001509837D02*
X000948581Y001509837D01*
X000948693Y001512796D01*
X000949026Y001515738D01*
X000949580Y001518646D01*
X000950350Y001521505D01*
X000951333Y001524298D01*
X000952523Y001527009D01*
X000953914Y001529622D01*
X000955497Y001532124D01*
X000957263Y001534500D01*
X000959204Y001536737D01*
X000961306Y001538821D01*
X000963560Y001540741D01*
X000965951Y001542487D01*
X000968467Y001544048D01*
X000971093Y001545415D01*
X000973814Y001546582D01*
X000976615Y001547540D01*
X000979480Y001548285D01*
X000982394Y001548813D01*
X000985338Y001549121D01*
X001021638Y001551536D01*
X001024859Y001551618D01*
X001028076Y001551436D01*
X001031267Y001550992D01*
X001034411Y001550289D01*
X001037487Y001549331D01*
X001040475Y001548124D01*
X001043354Y001546677D01*
X001046105Y001545000D01*
X001048709Y001543104D01*
X001051150Y001541000D01*
X001053411Y001538704D01*
X001055476Y001536232D01*
X001057332Y001533598D01*
X001058967Y001530821D01*
X001060369Y001527921D01*
X001061529Y001524915D01*
X001062440Y001521824D01*
X001063095Y001518669D01*
X001063489Y001515472D01*
X001063621Y001512252D01*
X001063621Y001007432D01*
X001063489Y001004212D01*
X001063095Y001001015D01*
X001062440Y000997860D01*
X001061529Y000994769D01*
X001060369Y000991764D01*
X001058967Y000988863D01*
X001057332Y000986086D01*
X001055476Y000983453D01*
X001053411Y000980980D01*
X001051150Y000978684D01*
X001048709Y000976581D01*
X001046105Y000974684D01*
X001043354Y000973007D01*
X001040475Y000971560D01*
X001037487Y000970353D01*
X001034411Y000969395D01*
X001031267Y000968692D01*
X001028076Y000968248D01*
X001024859Y000968066D01*
X001021638Y000968148D01*
X000985338Y000970563D01*
X000982394Y000970871D01*
X000979480Y000971399D01*
X000976615Y000972144D01*
X000973814Y000973102D01*
X000971093Y000974269D01*
X000968467Y000975636D01*
X000965951Y000977197D01*
X000963560Y000978943D01*
X000961306Y000980863D01*
X000959204Y000982948D01*
X000957263Y000985184D01*
X000955497Y000987560D01*
X000953914Y000990062D01*
X000952523Y000992675D01*
X000951333Y000995386D01*
X000950350Y000998179D01*
X000949580Y001001038D01*
X000949026Y001003946D01*
X000948693Y001006888D01*
X000948581Y001009847D01*
X000948581Y001509837D01*
M02*