M48
; DRILL file {KiCad (6.0.0)} date Mon Mar 14 07:52:55 2022
; FORMAT={-:-/ absolute / inch / decimal}
; #@! TF.CreationDate,2022-03-14T07:52:55-04:00
; #@! TF.GenerationSoftware,Kicad,Pcbnew,(6.0.0)
; #@! TF.FileFunction,Plated,1,2,PTH
FMAT,2
INCH
; #@! TA.AperFunction,Plated,PTH,ViaDrill
T1C0.0236
; #@! TA.AperFunction,Plated,PTH,ComponentDrill
T2C0.0315
; #@! TA.AperFunction,Plated,PTH,ComponentDrill
T3C0.0394
; #@! TA.AperFunction,Plated,PTH,ComponentDrill
T4C0.1260
%
G90
G05
T1
X0.3088Y-1.195
X0.3974Y-0.567
X0.4449Y-0.4941
X0.6395Y-0.7993
X0.7006Y-0.9981
T2
X0.2635Y-0.6989
X0.2635Y-0.7973
T3
X0.1328Y-0.5987
X0.1328Y-0.6987
X0.1328Y-0.7987
X0.1328Y-0.8987
X0.1328Y-0.9987
X0.1328Y-1.0987
X0.1328Y-1.1987
X0.1328Y-1.2987
X0.4443Y-0.1868
X0.4443Y-0.2868
X0.4443Y-0.3868
X0.5443Y-0.1868
X0.5443Y-0.2868
X0.5443Y-0.3868
X0.8557Y-0.5987
X0.8557Y-0.6987
X0.8557Y-0.7987
X0.8557Y-0.8987
X0.8557Y-0.9987
X0.8557Y-1.0987
X0.8557Y-1.1987
X0.8557Y-1.2987
T4
X0.1994Y-0.1994
X0.1994Y-1.6969
X0.7891Y-0.1994
X0.7891Y-1.6969
T0
M30
