%TF.GenerationSoftware,KiCad,Pcbnew,(6.0.0)*%
%TF.CreationDate,2022-03-14T07:52:58-04:00*%
%TF.ProjectId,JTAG_ISP-ISP,4a544147-5f49-4535-902d-4953502e6b69,v1.0.0*%
%TF.SameCoordinates,PX8924e3cPY3981160*%
%TF.FileFunction,Copper,L1,Top*%
%TF.FilePolarity,Positive*%
%FSLAX46Y46*%
G04 Gerber Fmt 4.6, Leading zero omitted, Abs format (unit mm)*
G04 Created by KiCad (PCBNEW (6.0.0)) date 2022-03-14 07:52:58*
%MOMM*%
%LPD*%
G01*
G04 APERTURE LIST*
%TA.AperFunction,ComponentPad*%
%ADD10C,3.200001*%
%TD*%
%TA.AperFunction,ComponentPad*%
%ADD11R,1.700000X1.700000*%
%TD*%
%TA.AperFunction,ComponentPad*%
%ADD12O,1.700000X1.700000*%
%TD*%
%TA.AperFunction,ComponentPad*%
%ADD13C,1.600000*%
%TD*%
%TA.AperFunction,ComponentPad*%
%ADD14C,1.700000*%
%TD*%
%TA.AperFunction,ViaPad*%
%ADD15C,1.200000*%
%TD*%
%TA.AperFunction,Conductor*%
%ADD16C,0.508000*%
%TD*%
%TA.AperFunction,Conductor*%
%ADD17C,0.250000*%
%TD*%
G04 APERTURE END LIST*
D10*
%TO.P,REF\u002A\u002A,*%
%TO.N,*%
X20043978Y-43102428D03*
%TD*%
D11*
%TO.P,J2,1,Pin_1*%
%TO.N,unconnected-(J2-Pad1)*%
X3373983Y-15208199D03*
D12*
%TO.P,J2,2,Pin_2*%
%TO.N,+5V*%
X3373983Y-17748199D03*
%TO.P,J2,3,Pin_3*%
%TO.N,unconnected-(J2-Pad3)*%
X3373983Y-20288199D03*
%TO.P,J2,4,Pin_4*%
%TO.N,GND*%
X3373983Y-22828199D03*
%TO.P,J2,5,Pin_5*%
%TO.N,unconnected-(J2-Pad5)*%
X3373983Y-25368199D03*
%TO.P,J2,6,Pin_6*%
%TO.N,MISO*%
X3373983Y-27908199D03*
%TO.P,J2,7,Pin_7*%
%TO.N,unconnected-(J2-Pad7)*%
X3373983Y-30448199D03*
%TO.P,J2,8,Pin_8*%
%TO.N,SCLK*%
X3373983Y-32988199D03*
%TD*%
D13*
%TO.P,C1,1*%
%TO.N,+5V*%
X6693988Y-17752432D03*
%TO.P,C1,2*%
%TO.N,GND*%
X6693988Y-20252432D03*
%TD*%
D10*
%TO.P,REF\u002A\u002A,*%
%TO.N,*%
X20043978Y-5066005D03*
%TD*%
%TO.P,REF\u002A\u002A,*%
%TO.N,*%
X5065979Y-43102428D03*
%TD*%
D14*
%TO.P,J3,1,Pin_1*%
%TO.N,SCLK*%
X21735999Y-15208199D03*
D12*
%TO.P,J3,2,Pin_2*%
%TO.N,unconnected-(J3-Pad2)*%
X21735999Y-17748199D03*
%TO.P,J3,3,Pin_3*%
%TO.N,RESET*%
X21735999Y-20288199D03*
%TO.P,J3,4,Pin_4*%
%TO.N,unconnected-(J3-Pad4)*%
X21735999Y-22828199D03*
%TO.P,J3,5,Pin_5*%
%TO.N,MOSI*%
X21735999Y-25368199D03*
%TO.P,J3,6,Pin_6*%
%TO.N,unconnected-(J3-Pad6)*%
X21735999Y-27908199D03*
%TO.P,J3,7,Pin_7*%
%TO.N,unconnected-(J3-Pad7)*%
X21735999Y-30448199D03*
%TO.P,J3,8,Pin_8*%
%TO.N,unconnected-(J3-Pad8)*%
X21735999Y-32988199D03*
%TD*%
D10*
%TO.P,REF\u002A\u002A,*%
%TO.N,*%
X5065979Y-5066005D03*
%TD*%
D11*
%TO.P,J1,1,Pin_1*%
%TO.N,MISO*%
X13824991Y-9824999D03*
D12*
%TO.P,J1,2,Pin_2*%
%TO.N,SCLK*%
X11284991Y-9824999D03*
%TO.P,J1,3,Pin_3*%
%TO.N,RESET*%
X13824991Y-7284999D03*
%TO.P,J1,4,Pin_4*%
%TO.N,GND*%
X11284991Y-7284999D03*
%TO.P,J1,5,Pin_5*%
%TO.N,MOSI*%
X13824991Y-4744999D03*
%TO.P,J1,6,Pin_6*%
%TO.N,+5V*%
X11284991Y-4744999D03*
%TD*%
D15*
%TO.N,GND*%
X7843988Y-30352432D03*
%TO.N,MISO*%
X10093988Y-14402432D03*
%TO.N,SCLK*%
X11300000Y-12550000D03*
%TO.N,RESET*%
X16243988Y-20302432D03*
%TO.N,MOSI*%
X17793988Y-25352432D03*
%TD*%
D16*
%TO.N,+5V*%
X6693988Y-15602432D02*
X6693988Y-17752432D01*
X8650000Y-13646420D02*
X6693988Y-15602432D01*
X11284991Y-4744999D02*
X9505001Y-4744999D01*
X9505001Y-4744999D02*
X8650000Y-5600000D01*
X8650000Y-5600000D02*
X8650000Y-13646420D01*
D17*
%TO.N,MISO*%
X13843988Y-13752432D02*
X13824991Y-13733435D01*
X10093988Y-14402432D02*
X13193988Y-14402432D01*
X13824991Y-13733435D02*
X13824991Y-9824999D01*
X13193988Y-14402432D02*
X13843988Y-13752432D01*
%TO.N,SCLK*%
X11284991Y-12534991D02*
X11300000Y-12550000D01*
X11284991Y-9824999D02*
X11284991Y-12534991D01*
%TO.N,RESET*%
X16293988Y-20252432D02*
X16293988Y-8002432D01*
X16243988Y-20302432D02*
X16293988Y-20252432D01*
X16293988Y-8002432D02*
X15576555Y-7284999D01*
X15576555Y-7284999D02*
X13824991Y-7284999D01*
%TO.N,MOSI*%
X16843988Y-5452432D02*
X17793988Y-6402432D01*
X16136555Y-4744999D02*
X16843988Y-5452432D01*
X17793988Y-6402432D02*
X17793988Y-25352432D01*
X13824991Y-4744999D02*
X16136555Y-4744999D01*
%TD*%
%TA.AperFunction,Conductor*%
%TO.N,GND*%
G36*
X21064045Y-1527412D02*
G01*
X21078846Y-1529717D01*
X21078849Y-1529717D01*
X21087718Y-1531098D01*
X21104887Y-1528853D01*
X21128827Y-1528020D01*
X21386758Y-1543622D01*
X21401862Y-1545456D01*
X21472636Y-1558426D01*
X21682867Y-1596952D01*
X21697629Y-1600590D01*
X21970396Y-1685587D01*
X21984615Y-1690981D01*
X22245128Y-1808228D01*
X22258597Y-1815297D01*
X22503083Y-1963094D01*
X22515605Y-1971737D01*
X22740495Y-2147928D01*
X22751883Y-2158018D01*
X22953882Y-2360017D01*
X22963972Y-2371405D01*
X23140163Y-2596295D01*
X23148806Y-2608817D01*
X23296603Y-2853303D01*
X23303672Y-2866772D01*
X23420918Y-3127282D01*
X23426313Y-3141504D01*
X23502485Y-3385947D01*
X23511309Y-3414265D01*
X23514948Y-3429033D01*
X23532605Y-3525383D01*
X23566444Y-3710038D01*
X23568278Y-3725142D01*
X23583443Y-3975841D01*
X23582186Y-4002551D01*
X23582183Y-4002771D01*
X23580802Y-4011642D01*
X23581966Y-4020544D01*
X23581966Y-4020547D01*
X23584924Y-4043163D01*
X23585988Y-4059501D01*
X23585988Y-44103104D01*
X23584488Y-44122488D01*
X23580802Y-44146162D01*
X23582442Y-44158702D01*
X23583047Y-44163329D01*
X23583880Y-44187271D01*
X23568278Y-44445202D01*
X23566444Y-44460306D01*
X23514950Y-44741305D01*
X23511310Y-44756073D01*
X23445656Y-44966766D01*
X23426314Y-45028836D01*
X23420919Y-45043059D01*
X23344454Y-45212959D01*
X23303674Y-45303568D01*
X23296603Y-45317041D01*
X23148806Y-45561527D01*
X23140163Y-45574049D01*
X22963972Y-45798939D01*
X22953882Y-45810327D01*
X22751883Y-46012326D01*
X22740495Y-46022416D01*
X22515605Y-46198607D01*
X22503083Y-46207250D01*
X22258597Y-46355047D01*
X22245128Y-46362116D01*
X21984618Y-46479362D01*
X21970396Y-46484757D01*
X21697629Y-46569754D01*
X21682867Y-46573392D01*
X21472636Y-46611918D01*
X21401862Y-46624888D01*
X21386758Y-46626722D01*
X21136059Y-46641887D01*
X21109349Y-46640630D01*
X21109129Y-46640627D01*
X21100258Y-46639246D01*
X21091356Y-46640410D01*
X21091353Y-46640410D01*
X21068737Y-46643368D01*
X21052399Y-46644432D01*
X4065318Y-46644432D01*
X4045933Y-46642932D01*
X4031132Y-46640627D01*
X4031129Y-46640627D01*
X4022260Y-46639246D01*
X4005091Y-46641491D01*
X3981151Y-46642324D01*
X3723220Y-46626722D01*
X3708116Y-46624888D01*
X3637342Y-46611918D01*
X3427111Y-46573392D01*
X3412349Y-46569754D01*
X3139582Y-46484757D01*
X3125360Y-46479362D01*
X2864850Y-46362116D01*
X2851381Y-46355047D01*
X2606895Y-46207250D01*
X2594373Y-46198607D01*
X2369483Y-46022416D01*
X2358095Y-46012326D01*
X2156096Y-45810327D01*
X2146006Y-45798939D01*
X1969815Y-45574049D01*
X1961172Y-45561527D01*
X1813375Y-45317041D01*
X1806304Y-45303568D01*
X1765525Y-45212959D01*
X1689059Y-45043059D01*
X1683664Y-45028836D01*
X1664322Y-44966766D01*
X1598668Y-44756073D01*
X1595028Y-44741305D01*
X1543534Y-44460306D01*
X1541700Y-44445202D01*
X1526535Y-44194503D01*
X1527792Y-44167793D01*
X1527795Y-44167573D01*
X1529176Y-44158702D01*
X1527537Y-44146162D01*
X1525054Y-44127181D01*
X1523990Y-44110843D01*
X1523990Y-43080297D01*
X2952668Y-43080297D01*
X2969217Y-43367311D01*
X2970042Y-43371516D01*
X2970043Y-43371524D01*
X3001989Y-43534349D01*
X3024565Y-43649423D01*
X3025952Y-43653473D01*
X3025953Y-43653478D01*
X3116300Y-43917358D01*
X3117689Y-43921414D01*
X3119616Y-43925245D01*
X3241605Y-44167793D01*
X3246864Y-44178250D01*
X3409700Y-44415178D01*
X3603185Y-44627816D01*
X3606480Y-44630571D01*
X3606481Y-44630572D01*
X3756587Y-44756079D01*
X3823738Y-44812226D01*
X4067277Y-44964999D01*
X4329297Y-45083305D01*
X4333416Y-45084525D01*
X4600836Y-45163739D01*
X4600841Y-45163740D01*
X4604949Y-45164957D01*
X4609183Y-45165605D01*
X4609188Y-45165606D01*
X4857790Y-45203647D01*
X4889132Y-45208443D01*
X5035464Y-45210742D01*
X5172296Y-45212892D01*
X5172302Y-45212892D01*
X5176587Y-45212959D01*
X5180839Y-45212444D01*
X5180847Y-45212444D01*
X5457735Y-45178936D01*
X5457740Y-45178935D01*
X5461996Y-45178420D01*
X5740076Y-45105467D01*
X6005683Y-44995449D01*
X6253901Y-44850402D01*
X6480138Y-44673010D01*
X6521264Y-44630572D01*
X6677223Y-44469634D01*
X6680206Y-44466556D01*
X6682739Y-44463108D01*
X6682743Y-44463103D01*
X6847866Y-44238314D01*
X6850404Y-44234859D01*
X6898563Y-44146162D01*
X6985533Y-43985983D01*
X6985534Y-43985981D01*
X6987583Y-43982207D01*
X7089204Y-43713276D01*
X7153386Y-43433041D01*
X7178942Y-43146688D01*
X7179406Y-43102428D01*
X7177897Y-43080297D01*
X17930667Y-43080297D01*
X17947216Y-43367311D01*
X17948041Y-43371516D01*
X17948042Y-43371524D01*
X17979988Y-43534349D01*
X18002564Y-43649423D01*
X18003951Y-43653473D01*
X18003952Y-43653478D01*
X18094299Y-43917358D01*
X18095688Y-43921414D01*
X18097615Y-43925245D01*
X18219604Y-44167793D01*
X18224863Y-44178250D01*
X18387699Y-44415178D01*
X18581184Y-44627816D01*
X18584479Y-44630571D01*
X18584480Y-44630572D01*
X18734586Y-44756079D01*
X18801737Y-44812226D01*
X19045276Y-44964999D01*
X19307296Y-45083305D01*
X19311415Y-45084525D01*
X19578835Y-45163739D01*
X19578840Y-45163740D01*
X19582948Y-45164957D01*
X19587182Y-45165605D01*
X19587187Y-45165606D01*
X19835789Y-45203647D01*
X19867131Y-45208443D01*
X20013463Y-45210742D01*
X20150295Y-45212892D01*
X20150301Y-45212892D01*
X20154586Y-45212959D01*
X20158838Y-45212444D01*
X20158846Y-45212444D01*
X20435734Y-45178936D01*
X20435739Y-45178935D01*
X20439995Y-45178420D01*
X20718075Y-45105467D01*
X20983682Y-44995449D01*
X21231900Y-44850402D01*
X21458137Y-44673010D01*
X21499263Y-44630572D01*
X21655222Y-44469634D01*
X21658205Y-44466556D01*
X21660738Y-44463108D01*
X21660742Y-44463103D01*
X21825865Y-44238314D01*
X21828403Y-44234859D01*
X21876562Y-44146162D01*
X21963532Y-43985983D01*
X21963533Y-43985981D01*
X21965582Y-43982207D01*
X22067203Y-43713276D01*
X22131385Y-43433041D01*
X22156941Y-43146688D01*
X22157405Y-43102428D01*
X22137851Y-42815603D01*
X22133314Y-42793692D01*
X22080421Y-42538283D01*
X22079552Y-42534086D01*
X21983585Y-42263085D01*
X21851728Y-42007616D01*
X21838466Y-41988745D01*
X21688882Y-41775910D01*
X21686419Y-41772405D01*
X21490718Y-41561806D01*
X21268246Y-41379715D01*
X21023120Y-41229501D01*
X21005026Y-41221558D01*
X20763808Y-41115671D01*
X20759876Y-41113945D01*
X20733941Y-41106557D01*
X20487512Y-41036360D01*
X20487513Y-41036360D01*
X20483384Y-41035184D01*
X20270682Y-41004913D01*
X20203014Y-40995282D01*
X20203012Y-40995282D01*
X20198762Y-40994677D01*
X20194473Y-40994655D01*
X20194466Y-40994654D01*
X19915561Y-40993193D01*
X19915554Y-40993193D01*
X19911275Y-40993171D01*
X19907031Y-40993730D01*
X19907027Y-40993730D01*
X19781638Y-41010238D01*
X19626244Y-41030696D01*
X19622104Y-41031829D01*
X19622102Y-41031829D01*
X19545289Y-41052843D01*
X19348942Y-41106557D01*
X19344994Y-41108241D01*
X19088454Y-41217665D01*
X19088450Y-41217667D01*
X19084502Y-41219351D01*
X18959938Y-41293901D01*
X18841499Y-41364785D01*
X18841495Y-41364788D01*
X18837817Y-41366989D01*
X18613450Y-41546741D01*
X18415555Y-41755279D01*
X18247792Y-41988745D01*
X18113266Y-42242820D01*
X18014467Y-42512801D01*
X17953223Y-42793692D01*
X17930667Y-43080297D01*
X7177897Y-43080297D01*
X7159852Y-42815603D01*
X7155315Y-42793692D01*
X7102422Y-42538283D01*
X7101553Y-42534086D01*
X7005586Y-42263085D01*
X6873729Y-42007616D01*
X6860467Y-41988745D01*
X6710883Y-41775910D01*
X6708420Y-41772405D01*
X6512719Y-41561806D01*
X6290247Y-41379715D01*
X6045121Y-41229501D01*
X6027027Y-41221558D01*
X5785809Y-41115671D01*
X5781877Y-41113945D01*
X5755942Y-41106557D01*
X5509513Y-41036360D01*
X5509514Y-41036360D01*
X5505385Y-41035184D01*
X5292683Y-41004913D01*
X5225015Y-40995282D01*
X5225013Y-40995282D01*
X5220763Y-40994677D01*
X5216474Y-40994655D01*
X5216467Y-40994654D01*
X4937562Y-40993193D01*
X4937555Y-40993193D01*
X4933276Y-40993171D01*
X4929032Y-40993730D01*
X4929028Y-40993730D01*
X4803639Y-41010238D01*
X4648245Y-41030696D01*
X4644105Y-41031829D01*
X4644103Y-41031829D01*
X4567290Y-41052843D01*
X4370943Y-41106557D01*
X4366995Y-41108241D01*
X4110455Y-41217665D01*
X4110451Y-41217667D01*
X4106503Y-41219351D01*
X3981939Y-41293901D01*
X3863500Y-41364785D01*
X3863496Y-41364788D01*
X3859818Y-41366989D01*
X3635451Y-41546741D01*
X3437556Y-41755279D01*
X3269793Y-41988745D01*
X3135267Y-42242820D01*
X3036468Y-42512801D01*
X2975224Y-42793692D01*
X2952668Y-43080297D01*
X1523990Y-43080297D01*
X1523990Y-32954894D01*
X2011234Y-32954894D01*
X2011531Y-32960047D01*
X2011531Y-32960050D01*
X2016994Y-33054789D01*
X2024093Y-33177914D01*
X2025230Y-33182960D01*
X2025231Y-33182966D01*
X2045102Y-33271138D01*
X2073205Y-33395838D01*
X2157249Y-33602815D01*
X2273970Y-33793287D01*
X2420233Y-33962137D01*
X2592109Y-34104831D01*
X2784983Y-34217537D01*
X2993675Y-34297229D01*
X2998743Y-34298260D01*
X2998746Y-34298261D01*
X3106000Y-34320082D01*
X3212580Y-34341766D01*
X3217755Y-34341956D01*
X3217757Y-34341956D01*
X3430656Y-34349763D01*
X3430660Y-34349763D01*
X3435820Y-34349952D01*
X3440940Y-34349296D01*
X3440942Y-34349296D01*
X3652271Y-34322224D01*
X3652272Y-34322224D01*
X3657399Y-34321567D01*
X3662349Y-34320082D01*
X3866412Y-34258860D01*
X3866417Y-34258858D01*
X3871367Y-34257373D01*
X4071977Y-34159095D01*
X4253843Y-34029372D01*
X4412079Y-33871688D01*
X4471577Y-33788888D01*
X4539418Y-33694476D01*
X4542436Y-33690276D01*
X4641413Y-33490010D01*
X4706353Y-33276268D01*
X4735512Y-33054789D01*
X4737139Y-32988199D01*
X4734401Y-32954894D01*
X20373250Y-32954894D01*
X20373547Y-32960047D01*
X20373547Y-32960050D01*
X20379010Y-33054789D01*
X20386109Y-33177914D01*
X20387246Y-33182960D01*
X20387247Y-33182966D01*
X20407118Y-33271138D01*
X20435221Y-33395838D01*
X20519265Y-33602815D01*
X20635986Y-33793287D01*
X20782249Y-33962137D01*
X20954125Y-34104831D01*
X21146999Y-34217537D01*
X21355691Y-34297229D01*
X21360759Y-34298260D01*
X21360762Y-34298261D01*
X21468016Y-34320082D01*
X21574596Y-34341766D01*
X21579771Y-34341956D01*
X21579773Y-34341956D01*
X21792672Y-34349763D01*
X21792676Y-34349763D01*
X21797836Y-34349952D01*
X21802956Y-34349296D01*
X21802958Y-34349296D01*
X22014287Y-34322224D01*
X22014288Y-34322224D01*
X22019415Y-34321567D01*
X22024365Y-34320082D01*
X22228428Y-34258860D01*
X22228433Y-34258858D01*
X22233383Y-34257373D01*
X22433993Y-34159095D01*
X22615859Y-34029372D01*
X22774095Y-33871688D01*
X22833593Y-33788888D01*
X22901434Y-33694476D01*
X22904452Y-33690276D01*
X23003429Y-33490010D01*
X23068369Y-33276268D01*
X23097528Y-33054789D01*
X23099155Y-32988199D01*
X23080851Y-32765560D01*
X23026430Y-32548901D01*
X22937353Y-32344039D01*
X22816013Y-32156476D01*
X22665669Y-31991250D01*
X22661618Y-31988051D01*
X22661614Y-31988047D01*
X22494413Y-31855999D01*
X22494409Y-31855997D01*
X22490358Y-31852797D01*
X22449052Y-31829995D01*
X22399083Y-31779563D01*
X22384311Y-31710120D01*
X22409427Y-31643715D01*
X22436779Y-31617108D01*
X22480602Y-31585849D01*
X22615859Y-31489372D01*
X22774095Y-31331688D01*
X22833593Y-31248888D01*
X22901434Y-31154476D01*
X22904452Y-31150276D01*
X23003429Y-30950010D01*
X23068369Y-30736268D01*
X23097528Y-30514789D01*
X23099155Y-30448199D01*
X23080851Y-30225560D01*
X23026430Y-30008901D01*
X22937353Y-29804039D01*
X22816013Y-29616476D01*
X22665669Y-29451250D01*
X22661618Y-29448051D01*
X22661614Y-29448047D01*
X22494413Y-29315999D01*
X22494409Y-29315997D01*
X22490358Y-29312797D01*
X22449052Y-29289995D01*
X22399083Y-29239563D01*
X22384311Y-29170120D01*
X22409427Y-29103715D01*
X22436779Y-29077108D01*
X22480602Y-29045849D01*
X22615859Y-28949372D01*
X22774095Y-28791688D01*
X22833593Y-28708888D01*
X22901434Y-28614476D01*
X22904452Y-28610276D01*
X23003429Y-28410010D01*
X23068369Y-28196268D01*
X23097528Y-27974789D01*
X23099155Y-27908199D01*
X23080851Y-27685560D01*
X23026430Y-27468901D01*
X22937353Y-27264039D01*
X22816013Y-27076476D01*
X22665669Y-26911250D01*
X22661618Y-26908051D01*
X22661614Y-26908047D01*
X22494413Y-26775999D01*
X22494409Y-26775997D01*
X22490358Y-26772797D01*
X22449052Y-26749995D01*
X22399083Y-26699563D01*
X22384311Y-26630120D01*
X22409427Y-26563715D01*
X22436779Y-26537108D01*
X22480602Y-26505849D01*
X22615859Y-26409372D01*
X22774095Y-26251688D01*
X22798598Y-26217589D01*
X22901434Y-26074476D01*
X22904452Y-26070276D01*
X22945398Y-25987429D01*
X23001135Y-25874652D01*
X23001136Y-25874650D01*
X23003429Y-25870010D01*
X23068369Y-25656268D01*
X23097528Y-25434789D01*
X23099155Y-25368199D01*
X23080851Y-25145560D01*
X23026430Y-24928901D01*
X22937353Y-24724039D01*
X22864967Y-24612147D01*
X22818821Y-24540816D01*
X22818819Y-24540813D01*
X22816013Y-24536476D01*
X22665669Y-24371250D01*
X22661618Y-24368051D01*
X22661614Y-24368047D01*
X22494413Y-24235999D01*
X22494409Y-24235997D01*
X22490358Y-24232797D01*
X22449052Y-24209995D01*
X22399083Y-24159563D01*
X22384311Y-24090120D01*
X22409427Y-24023715D01*
X22436779Y-23997108D01*
X22480602Y-23965849D01*
X22615859Y-23869372D01*
X22774095Y-23711688D01*
X22833593Y-23628888D01*
X22901434Y-23534476D01*
X22904452Y-23530276D01*
X23003429Y-23330010D01*
X23068369Y-23116268D01*
X23097528Y-22894789D01*
X23099155Y-22828199D01*
X23080851Y-22605560D01*
X23026430Y-22388901D01*
X22937353Y-22184039D01*
X22816013Y-21996476D01*
X22665669Y-21831250D01*
X22661618Y-21828051D01*
X22661614Y-21828047D01*
X22494413Y-21695999D01*
X22494409Y-21695997D01*
X22490358Y-21692797D01*
X22449052Y-21669995D01*
X22399083Y-21619563D01*
X22384311Y-21550120D01*
X22409427Y-21483715D01*
X22436779Y-21457108D01*
X22498159Y-21413326D01*
X22615859Y-21329372D01*
X22623966Y-21321294D01*
X22770434Y-21175336D01*
X22774095Y-21171688D01*
X22786899Y-21153870D01*
X22901434Y-20994476D01*
X22904452Y-20990276D01*
X22916061Y-20966788D01*
X23001135Y-20794652D01*
X23001136Y-20794650D01*
X23003429Y-20790010D01*
X23054711Y-20621222D01*
X23066864Y-20581222D01*
X23066864Y-20581220D01*
X23068369Y-20576268D01*
X23097528Y-20354789D01*
X23099155Y-20288199D01*
X23080851Y-20065560D01*
X23026430Y-19848901D01*
X22937353Y-19644039D01*
X22869649Y-19539384D01*
X22818821Y-19460816D01*
X22818819Y-19460813D01*
X22816013Y-19456476D01*
X22665669Y-19291250D01*
X22661618Y-19288051D01*
X22661614Y-19288047D01*
X22494413Y-19155999D01*
X22494409Y-19155997D01*
X22490358Y-19152797D01*
X22449052Y-19129995D01*
X22399083Y-19079563D01*
X22384311Y-19010120D01*
X22409427Y-18943715D01*
X22436779Y-18917108D01*
X22480602Y-18885849D01*
X22615859Y-18789372D01*
X22774095Y-18631688D01*
X22833593Y-18548888D01*
X22901434Y-18454476D01*
X22904452Y-18450276D01*
X22922535Y-18413689D01*
X23001135Y-18254652D01*
X23001136Y-18254650D01*
X23003429Y-18250010D01*
X23068369Y-18036268D01*
X23097528Y-17814789D01*
X23099155Y-17748199D01*
X23080851Y-17525560D01*
X23026430Y-17308901D01*
X22937353Y-17104039D01*
X22816013Y-16916476D01*
X22665669Y-16751250D01*
X22661618Y-16748051D01*
X22661614Y-16748047D01*
X22494413Y-16615999D01*
X22494409Y-16615997D01*
X22490358Y-16612797D01*
X22449052Y-16589995D01*
X22399083Y-16539563D01*
X22384311Y-16470120D01*
X22409427Y-16403715D01*
X22436779Y-16377108D01*
X22480602Y-16345849D01*
X22615859Y-16249372D01*
X22774095Y-16091688D01*
X22833593Y-16008888D01*
X22901434Y-15914476D01*
X22904452Y-15910276D01*
X23003429Y-15710010D01*
X23061535Y-15518762D01*
X23066864Y-15501222D01*
X23066864Y-15501220D01*
X23068369Y-15496268D01*
X23097528Y-15274789D01*
X23099155Y-15208199D01*
X23080851Y-14985560D01*
X23026430Y-14768901D01*
X22937353Y-14564039D01*
X22816013Y-14376476D01*
X22665669Y-14211250D01*
X22661618Y-14208051D01*
X22661614Y-14208047D01*
X22494413Y-14075999D01*
X22494409Y-14075997D01*
X22490358Y-14072797D01*
X22294788Y-13964837D01*
X22289919Y-13963113D01*
X22289915Y-13963111D01*
X22089086Y-13891994D01*
X22089082Y-13891993D01*
X22084211Y-13890268D01*
X22079118Y-13889361D01*
X22079115Y-13889360D01*
X21869372Y-13851999D01*
X21869366Y-13851998D01*
X21864283Y-13851093D01*
X21790451Y-13850191D01*
X21646080Y-13848427D01*
X21646078Y-13848427D01*
X21640910Y-13848364D01*
X21420090Y-13882154D01*
X21207755Y-13951556D01*
X21009606Y-14054706D01*
X21005473Y-14057809D01*
X21005470Y-14057811D01*
X20838072Y-14183497D01*
X20830964Y-14188834D01*
X20676628Y-14350337D01*
X20550742Y-14534879D01*
X20456687Y-14737504D01*
X20396988Y-14952769D01*
X20373250Y-15174894D01*
X20373547Y-15180047D01*
X20373547Y-15180050D01*
X20383226Y-15347913D01*
X20386109Y-15397914D01*
X20387246Y-15402960D01*
X20387247Y-15402966D01*
X20405299Y-15483066D01*
X20435221Y-15615838D01*
X20519265Y-15822815D01*
X20521964Y-15827219D01*
X20609742Y-15970460D01*
X20635986Y-16013287D01*
X20782249Y-16182137D01*
X20954125Y-16324831D01*
X21024594Y-16366010D01*
X21027444Y-16367675D01*
X21076168Y-16419313D01*
X21089239Y-16489096D01*
X21062508Y-16554868D01*
X21022054Y-16588226D01*
X21009606Y-16594706D01*
X21005473Y-16597809D01*
X21005470Y-16597811D01*
X20835099Y-16725729D01*
X20830964Y-16728834D01*
X20676628Y-16890337D01*
X20550742Y-17074879D01*
X20456687Y-17277504D01*
X20396988Y-17492769D01*
X20373250Y-17714894D01*
X20373547Y-17720047D01*
X20373547Y-17720050D01*
X20379010Y-17814789D01*
X20386109Y-17937914D01*
X20387246Y-17942960D01*
X20387247Y-17942966D01*
X20396908Y-17985834D01*
X20435221Y-18155838D01*
X20519265Y-18362815D01*
X20635986Y-18553287D01*
X20782249Y-18722137D01*
X20954125Y-18864831D01*
X20997120Y-18889955D01*
X21027444Y-18907675D01*
X21076168Y-18959313D01*
X21089239Y-19029096D01*
X21062508Y-19094868D01*
X21022054Y-19128226D01*
X21009606Y-19134706D01*
X21005473Y-19137809D01*
X21005470Y-19137811D01*
X20950790Y-19178866D01*
X20830964Y-19268834D01*
X20827392Y-19272572D01*
X20706722Y-19398846D01*
X20676628Y-19430337D01*
X20673714Y-19434609D01*
X20673713Y-19434610D01*
X20607955Y-19531008D01*
X20550742Y-19614879D01*
X20456687Y-19817504D01*
X20396988Y-20032769D01*
X20373250Y-20254894D01*
X20373547Y-20260047D01*
X20373547Y-20260050D01*
X20379010Y-20354789D01*
X20386109Y-20477914D01*
X20387246Y-20482960D01*
X20387247Y-20482966D01*
X20407118Y-20571138D01*
X20435221Y-20695838D01*
X20519265Y-20902815D01*
X20635986Y-21093287D01*
X20782249Y-21262137D01*
X20954125Y-21404831D01*
X21024594Y-21446010D01*
X21027444Y-21447675D01*
X21076168Y-21499313D01*
X21089239Y-21569096D01*
X21062508Y-21634868D01*
X21022054Y-21668226D01*
X21009606Y-21674706D01*
X21005473Y-21677809D01*
X21005470Y-21677811D01*
X20981246Y-21695999D01*
X20830964Y-21808834D01*
X20676628Y-21970337D01*
X20673714Y-21974609D01*
X20673713Y-21974610D01*
X20661403Y-21992656D01*
X20550742Y-22154879D01*
X20456687Y-22357504D01*
X20396988Y-22572769D01*
X20373250Y-22794894D01*
X20373547Y-22800047D01*
X20373547Y-22800050D01*
X20379010Y-22894789D01*
X20386109Y-23017914D01*
X20387246Y-23022960D01*
X20387247Y-23022966D01*
X20400596Y-23082199D01*
X20435221Y-23235838D01*
X20519265Y-23442815D01*
X20635986Y-23633287D01*
X20782249Y-23802137D01*
X20954125Y-23944831D01*
X21024594Y-23986010D01*
X21027444Y-23987675D01*
X21076168Y-24039313D01*
X21089239Y-24109096D01*
X21062508Y-24174868D01*
X21022054Y-24208226D01*
X21009606Y-24214706D01*
X21005473Y-24217809D01*
X21005470Y-24217811D01*
X20981246Y-24235999D01*
X20830964Y-24348834D01*
X20676628Y-24510337D01*
X20673714Y-24514609D01*
X20673713Y-24514610D01*
X20610332Y-24607523D01*
X20550742Y-24694879D01*
X20456687Y-24897504D01*
X20396988Y-25112769D01*
X20373250Y-25334894D01*
X20373547Y-25340047D01*
X20373547Y-25340050D01*
X20385811Y-25552746D01*
X20386109Y-25557914D01*
X20387246Y-25562960D01*
X20387247Y-25562966D01*
X20397081Y-25606601D01*
X20435221Y-25775838D01*
X20519265Y-25982815D01*
X20570018Y-26065637D01*
X20617616Y-26143309D01*
X20635986Y-26173287D01*
X20782249Y-26342137D01*
X20954125Y-26484831D01*
X21024594Y-26526010D01*
X21027444Y-26527675D01*
X21076168Y-26579313D01*
X21089239Y-26649096D01*
X21062508Y-26714868D01*
X21022054Y-26748226D01*
X21009606Y-26754706D01*
X21005473Y-26757809D01*
X21005470Y-26757811D01*
X20981246Y-26775999D01*
X20830964Y-26888834D01*
X20676628Y-27050337D01*
X20550742Y-27234879D01*
X20456687Y-27437504D01*
X20396988Y-27652769D01*
X20373250Y-27874894D01*
X20373547Y-27880047D01*
X20373547Y-27880050D01*
X20379010Y-27974789D01*
X20386109Y-28097914D01*
X20387246Y-28102960D01*
X20387247Y-28102966D01*
X20407118Y-28191138D01*
X20435221Y-28315838D01*
X20519265Y-28522815D01*
X20635986Y-28713287D01*
X20782249Y-28882137D01*
X20954125Y-29024831D01*
X21024594Y-29066010D01*
X21027444Y-29067675D01*
X21076168Y-29119313D01*
X21089239Y-29189096D01*
X21062508Y-29254868D01*
X21022054Y-29288226D01*
X21009606Y-29294706D01*
X21005473Y-29297809D01*
X21005470Y-29297811D01*
X20981246Y-29315999D01*
X20830964Y-29428834D01*
X20676628Y-29590337D01*
X20550742Y-29774879D01*
X20456687Y-29977504D01*
X20396988Y-30192769D01*
X20373250Y-30414894D01*
X20373547Y-30420047D01*
X20373547Y-30420050D01*
X20379010Y-30514789D01*
X20386109Y-30637914D01*
X20387246Y-30642960D01*
X20387247Y-30642966D01*
X20407118Y-30731138D01*
X20435221Y-30855838D01*
X20519265Y-31062815D01*
X20635986Y-31253287D01*
X20782249Y-31422137D01*
X20954125Y-31564831D01*
X21024594Y-31606010D01*
X21027444Y-31607675D01*
X21076168Y-31659313D01*
X21089239Y-31729096D01*
X21062508Y-31794868D01*
X21022054Y-31828226D01*
X21009606Y-31834706D01*
X21005473Y-31837809D01*
X21005470Y-31837811D01*
X20981246Y-31855999D01*
X20830964Y-31968834D01*
X20676628Y-32130337D01*
X20550742Y-32314879D01*
X20456687Y-32517504D01*
X20396988Y-32732769D01*
X20373250Y-32954894D01*
X4734401Y-32954894D01*
X4718835Y-32765560D01*
X4664414Y-32548901D01*
X4575337Y-32344039D01*
X4453997Y-32156476D01*
X4303653Y-31991250D01*
X4299602Y-31988051D01*
X4299598Y-31988047D01*
X4132397Y-31855999D01*
X4132393Y-31855997D01*
X4128342Y-31852797D01*
X4087036Y-31829995D01*
X4037067Y-31779563D01*
X4022295Y-31710120D01*
X4047411Y-31643715D01*
X4074763Y-31617108D01*
X4118586Y-31585849D01*
X4253843Y-31489372D01*
X4412079Y-31331688D01*
X4471577Y-31248888D01*
X4539418Y-31154476D01*
X4542436Y-31150276D01*
X4641413Y-30950010D01*
X4706353Y-30736268D01*
X4735512Y-30514789D01*
X4737139Y-30448199D01*
X4718835Y-30225560D01*
X4664414Y-30008901D01*
X4575337Y-29804039D01*
X4453997Y-29616476D01*
X4303653Y-29451250D01*
X4299602Y-29448051D01*
X4299598Y-29448047D01*
X4132397Y-29315999D01*
X4132393Y-29315997D01*
X4128342Y-29312797D01*
X4087036Y-29289995D01*
X4037067Y-29239563D01*
X4022295Y-29170120D01*
X4047411Y-29103715D01*
X4074763Y-29077108D01*
X4118586Y-29045849D01*
X4253843Y-28949372D01*
X4412079Y-28791688D01*
X4471577Y-28708888D01*
X4539418Y-28614476D01*
X4542436Y-28610276D01*
X4641413Y-28410010D01*
X4706353Y-28196268D01*
X4735512Y-27974789D01*
X4737139Y-27908199D01*
X4718835Y-27685560D01*
X4664414Y-27468901D01*
X4575337Y-27264039D01*
X4453997Y-27076476D01*
X4303653Y-26911250D01*
X4299602Y-26908051D01*
X4299598Y-26908047D01*
X4132397Y-26775999D01*
X4132393Y-26775997D01*
X4128342Y-26772797D01*
X4087036Y-26749995D01*
X4037067Y-26699563D01*
X4022295Y-26630120D01*
X4047411Y-26563715D01*
X4074763Y-26537108D01*
X4118586Y-26505849D01*
X4253843Y-26409372D01*
X4412079Y-26251688D01*
X4436582Y-26217589D01*
X4539418Y-26074476D01*
X4542436Y-26070276D01*
X4583382Y-25987429D01*
X4639119Y-25874652D01*
X4639120Y-25874650D01*
X4641413Y-25870010D01*
X4706353Y-25656268D01*
X4735512Y-25434789D01*
X4737139Y-25368199D01*
X4718835Y-25145560D01*
X4664414Y-24928901D01*
X4575337Y-24724039D01*
X4502951Y-24612147D01*
X4456805Y-24540816D01*
X4456803Y-24540813D01*
X4453997Y-24536476D01*
X4303653Y-24371250D01*
X4299602Y-24368051D01*
X4299598Y-24368047D01*
X4132397Y-24235999D01*
X4132393Y-24235997D01*
X4128342Y-24232797D01*
X4086552Y-24209728D01*
X4036581Y-24159296D01*
X4021809Y-24089853D01*
X4046925Y-24023447D01*
X4074277Y-23996840D01*
X4249311Y-23871991D01*
X4257183Y-23865338D01*
X4408035Y-23715011D01*
X4414713Y-23707164D01*
X4538986Y-23534219D01*
X4544296Y-23525382D01*
X4638653Y-23334466D01*
X4642452Y-23324871D01*
X4704360Y-23121109D01*
X4706538Y-23111036D01*
X4707969Y-23100161D01*
X4705758Y-23085977D01*
X4692600Y-23082199D01*
X2057208Y-23082199D01*
X2043677Y-23086172D01*
X2042240Y-23096165D01*
X2072548Y-23230645D01*
X2075628Y-23240474D01*
X2155753Y-23437802D01*
X2160396Y-23446993D01*
X2271677Y-23628587D01*
X2277760Y-23636898D01*
X2417196Y-23797866D01*
X2424563Y-23805082D01*
X2588417Y-23941115D01*
X2596864Y-23947030D01*
X2665952Y-23987402D01*
X2714676Y-24039041D01*
X2727747Y-24108824D01*
X2701016Y-24174595D01*
X2660567Y-24207951D01*
X2647590Y-24214706D01*
X2643457Y-24217809D01*
X2643454Y-24217811D01*
X2619230Y-24235999D01*
X2468948Y-24348834D01*
X2314612Y-24510337D01*
X2311698Y-24514609D01*
X2311697Y-24514610D01*
X2248316Y-24607523D01*
X2188726Y-24694879D01*
X2094671Y-24897504D01*
X2034972Y-25112769D01*
X2011234Y-25334894D01*
X2011531Y-25340047D01*
X2011531Y-25340050D01*
X2023795Y-25552746D01*
X2024093Y-25557914D01*
X2025230Y-25562960D01*
X2025231Y-25562966D01*
X2035065Y-25606601D01*
X2073205Y-25775838D01*
X2157249Y-25982815D01*
X2208002Y-26065637D01*
X2255600Y-26143309D01*
X2273970Y-26173287D01*
X2420233Y-26342137D01*
X2592109Y-26484831D01*
X2662578Y-26526010D01*
X2665428Y-26527675D01*
X2714152Y-26579313D01*
X2727223Y-26649096D01*
X2700492Y-26714868D01*
X2660038Y-26748226D01*
X2647590Y-26754706D01*
X2643457Y-26757809D01*
X2643454Y-26757811D01*
X2619230Y-26775999D01*
X2468948Y-26888834D01*
X2314612Y-27050337D01*
X2188726Y-27234879D01*
X2094671Y-27437504D01*
X2034972Y-27652769D01*
X2011234Y-27874894D01*
X2011531Y-27880047D01*
X2011531Y-27880050D01*
X2016994Y-27974789D01*
X2024093Y-28097914D01*
X2025230Y-28102960D01*
X2025231Y-28102966D01*
X2045102Y-28191138D01*
X2073205Y-28315838D01*
X2157249Y-28522815D01*
X2273970Y-28713287D01*
X2420233Y-28882137D01*
X2592109Y-29024831D01*
X2662578Y-29066010D01*
X2665428Y-29067675D01*
X2714152Y-29119313D01*
X2727223Y-29189096D01*
X2700492Y-29254868D01*
X2660038Y-29288226D01*
X2647590Y-29294706D01*
X2643457Y-29297809D01*
X2643454Y-29297811D01*
X2619230Y-29315999D01*
X2468948Y-29428834D01*
X2314612Y-29590337D01*
X2188726Y-29774879D01*
X2094671Y-29977504D01*
X2034972Y-30192769D01*
X2011234Y-30414894D01*
X2011531Y-30420047D01*
X2011531Y-30420050D01*
X2016994Y-30514789D01*
X2024093Y-30637914D01*
X2025230Y-30642960D01*
X2025231Y-30642966D01*
X2045102Y-30731138D01*
X2073205Y-30855838D01*
X2157249Y-31062815D01*
X2273970Y-31253287D01*
X2420233Y-31422137D01*
X2592109Y-31564831D01*
X2662578Y-31606010D01*
X2665428Y-31607675D01*
X2714152Y-31659313D01*
X2727223Y-31729096D01*
X2700492Y-31794868D01*
X2660038Y-31828226D01*
X2647590Y-31834706D01*
X2643457Y-31837809D01*
X2643454Y-31837811D01*
X2619230Y-31855999D01*
X2468948Y-31968834D01*
X2314612Y-32130337D01*
X2188726Y-32314879D01*
X2094671Y-32517504D01*
X2034972Y-32732769D01*
X2011234Y-32954894D01*
X1523990Y-32954894D01*
X1523990Y-20254894D01*
X2011234Y-20254894D01*
X2011531Y-20260047D01*
X2011531Y-20260050D01*
X2016994Y-20354789D01*
X2024093Y-20477914D01*
X2025230Y-20482960D01*
X2025231Y-20482966D01*
X2045102Y-20571138D01*
X2073205Y-20695838D01*
X2157249Y-20902815D01*
X2273970Y-21093287D01*
X2420233Y-21262137D01*
X2592109Y-21404831D01*
X2665428Y-21447675D01*
X2665938Y-21447973D01*
X2714662Y-21499611D01*
X2727733Y-21569394D01*
X2701002Y-21635166D01*
X2660545Y-21668526D01*
X2652440Y-21672745D01*
X2643721Y-21678235D01*
X2473416Y-21806104D01*
X2465709Y-21812947D01*
X2318573Y-21966916D01*
X2312087Y-21974926D01*
X2192081Y-22150848D01*
X2186983Y-22159822D01*
X2097321Y-22352982D01*
X2093758Y-22362669D01*
X2038372Y-22562382D01*
X2039895Y-22570806D01*
X2052275Y-22574199D01*
X4692327Y-22574199D01*
X4705858Y-22570226D01*
X4707163Y-22561146D01*
X4665197Y-22394074D01*
X4661877Y-22384323D01*
X4576955Y-22189013D01*
X4572088Y-22179938D01*
X4456409Y-22001125D01*
X4450119Y-21992956D01*
X4306789Y-21835439D01*
X4299256Y-21828414D01*
X4132122Y-21696421D01*
X4123539Y-21690719D01*
X4086585Y-21670319D01*
X4036614Y-21619886D01*
X4021842Y-21550444D01*
X4046958Y-21484038D01*
X4074310Y-21457431D01*
X4136143Y-21413326D01*
X4241054Y-21338494D01*
X5972481Y-21338494D01*
X5981777Y-21350509D01*
X6032982Y-21386363D01*
X6042477Y-21391846D01*
X6239935Y-21483922D01*
X6250227Y-21487668D01*
X6460676Y-21544057D01*
X6471469Y-21545960D01*
X6688513Y-21564949D01*
X6699463Y-21564949D01*
X6916507Y-21545960D01*
X6927300Y-21544057D01*
X7137749Y-21487668D01*
X7148041Y-21483922D01*
X7345499Y-21391846D01*
X7354994Y-21386363D01*
X7407036Y-21349923D01*
X7415412Y-21339444D01*
X7408344Y-21325998D01*
X6706800Y-20624454D01*
X6692856Y-20616840D01*
X6691023Y-20616971D01*
X6684408Y-20621222D01*
X5978911Y-21326719D01*
X5972481Y-21338494D01*
X4241054Y-21338494D01*
X4253843Y-21329372D01*
X4261950Y-21321294D01*
X4408418Y-21175336D01*
X4412079Y-21171688D01*
X4424883Y-21153870D01*
X4539418Y-20994476D01*
X4542436Y-20990276D01*
X4554045Y-20966788D01*
X4639119Y-20794652D01*
X4639120Y-20794650D01*
X4641413Y-20790010D01*
X4692695Y-20621222D01*
X4704848Y-20581222D01*
X4704848Y-20581220D01*
X4706353Y-20576268D01*
X4735512Y-20354789D01*
X4737139Y-20288199D01*
X4734649Y-20257907D01*
X5381471Y-20257907D01*
X5400460Y-20474951D01*
X5402363Y-20485744D01*
X5458752Y-20696193D01*
X5462498Y-20706485D01*
X5554574Y-20903943D01*
X5560057Y-20913438D01*
X5596497Y-20965480D01*
X5606976Y-20973856D01*
X5620422Y-20966788D01*
X6321966Y-20265244D01*
X6328344Y-20253564D01*
X7058396Y-20253564D01*
X7058527Y-20255397D01*
X7062778Y-20262012D01*
X7768275Y-20967509D01*
X7780050Y-20973939D01*
X7792065Y-20964643D01*
X7827919Y-20913438D01*
X7833402Y-20903943D01*
X7925478Y-20706485D01*
X7929224Y-20696193D01*
X7985613Y-20485744D01*
X7987516Y-20474951D01*
X8006505Y-20257907D01*
X8006505Y-20246957D01*
X7987516Y-20029913D01*
X7985613Y-20019120D01*
X7929224Y-19808671D01*
X7925478Y-19798379D01*
X7833402Y-19600921D01*
X7827919Y-19591426D01*
X7791479Y-19539384D01*
X7781000Y-19531008D01*
X7767554Y-19538076D01*
X7066010Y-20239620D01*
X7058396Y-20253564D01*
X6328344Y-20253564D01*
X6329580Y-20251300D01*
X6329449Y-20249467D01*
X6325198Y-20242852D01*
X5619701Y-19537355D01*
X5607926Y-19530925D01*
X5595911Y-19540221D01*
X5560057Y-19591426D01*
X5554574Y-19600921D01*
X5462498Y-19798379D01*
X5458752Y-19808671D01*
X5402363Y-20019120D01*
X5400460Y-20029913D01*
X5381471Y-20246957D01*
X5381471Y-20257907D01*
X4734649Y-20257907D01*
X4718835Y-20065560D01*
X4664414Y-19848901D01*
X4575337Y-19644039D01*
X4507633Y-19539384D01*
X4456805Y-19460816D01*
X4456803Y-19460813D01*
X4453997Y-19456476D01*
X4303653Y-19291250D01*
X4299602Y-19288051D01*
X4299598Y-19288047D01*
X4132397Y-19155999D01*
X4132393Y-19155997D01*
X4128342Y-19152797D01*
X4087036Y-19129995D01*
X4037067Y-19079563D01*
X4022295Y-19010120D01*
X4047411Y-18943715D01*
X4074763Y-18917108D01*
X4118586Y-18885849D01*
X4253843Y-18789372D01*
X4412079Y-18631688D01*
X4471577Y-18548888D01*
X4539418Y-18454476D01*
X4542436Y-18450276D01*
X4560519Y-18413689D01*
X4639119Y-18254652D01*
X4639120Y-18254650D01*
X4641413Y-18250010D01*
X4706353Y-18036268D01*
X4735512Y-17814789D01*
X4737036Y-17752432D01*
X5380490Y-17752432D01*
X5400445Y-17980519D01*
X5401869Y-17985832D01*
X5401869Y-17985834D01*
X5446071Y-18150795D01*
X5459704Y-18201675D01*
X5462027Y-18206656D01*
X5462027Y-18206657D01*
X5554139Y-18404194D01*
X5554142Y-18404199D01*
X5556465Y-18409181D01*
X5559622Y-18413689D01*
X5660102Y-18557189D01*
X5687790Y-18596732D01*
X5849688Y-18758630D01*
X5854196Y-18761787D01*
X5854199Y-18761789D01*
X5957864Y-18834376D01*
X6037239Y-18889955D01*
X6042223Y-18892279D01*
X6044516Y-18893603D01*
X6093509Y-18944985D01*
X6106945Y-19014699D01*
X6080559Y-19080610D01*
X6044516Y-19111841D01*
X6032986Y-19118498D01*
X5980940Y-19154941D01*
X5972564Y-19165420D01*
X5979632Y-19178866D01*
X6681176Y-19880410D01*
X6695120Y-19888024D01*
X6696953Y-19887893D01*
X6703568Y-19883642D01*
X7409065Y-19178145D01*
X7415495Y-19166370D01*
X7406199Y-19154355D01*
X7354990Y-19118498D01*
X7343460Y-19111841D01*
X7294467Y-19060459D01*
X7281030Y-18990745D01*
X7307417Y-18924834D01*
X7343460Y-18893603D01*
X7345753Y-18892279D01*
X7350737Y-18889955D01*
X7430112Y-18834376D01*
X7533777Y-18761789D01*
X7533780Y-18761787D01*
X7538288Y-18758630D01*
X7700186Y-18596732D01*
X7727875Y-18557189D01*
X7828354Y-18413689D01*
X7831511Y-18409181D01*
X7833834Y-18404199D01*
X7833837Y-18404194D01*
X7925949Y-18206657D01*
X7925949Y-18206656D01*
X7928272Y-18201675D01*
X7941906Y-18150795D01*
X7986107Y-17985834D01*
X7986107Y-17985832D01*
X7987531Y-17980519D01*
X8007486Y-17752432D01*
X7987531Y-17524345D01*
X7928272Y-17303189D01*
X7914106Y-17272809D01*
X7833837Y-17100670D01*
X7833834Y-17100665D01*
X7831511Y-17095683D01*
X7758086Y-16990821D01*
X7703345Y-16912643D01*
X7703343Y-16912640D01*
X7700186Y-16908132D01*
X7538288Y-16746234D01*
X7518777Y-16732572D01*
X7510216Y-16726577D01*
X7465888Y-16671120D01*
X7456488Y-16623365D01*
X7456488Y-15970460D01*
X7476490Y-15902339D01*
X7493393Y-15881365D01*
X8798017Y-14576741D01*
X8860329Y-14542715D01*
X8931144Y-14547780D01*
X8987980Y-14590327D01*
X9009235Y-14634820D01*
X9044593Y-14774042D01*
X9129886Y-14959056D01*
X9247467Y-15125429D01*
X9393398Y-15267589D01*
X9398194Y-15270794D01*
X9398197Y-15270796D01*
X9494040Y-15334836D01*
X9562791Y-15380774D01*
X9568094Y-15383052D01*
X9568097Y-15383054D01*
X9744668Y-15458915D01*
X9749975Y-15461195D01*
X9822805Y-15477675D01*
X9943043Y-15504882D01*
X9943048Y-15504883D01*
X9948680Y-15506157D01*
X9954451Y-15506384D01*
X9954453Y-15506384D01*
X10017458Y-15508859D01*
X10152251Y-15514155D01*
X10353871Y-15484922D01*
X10359335Y-15483067D01*
X10359340Y-15483066D01*
X10541315Y-15421294D01*
X10541320Y-15421292D01*
X10546787Y-15419436D01*
X10724539Y-15319890D01*
X10881174Y-15189618D01*
X10931210Y-15129456D01*
X10971209Y-15081363D01*
X11030147Y-15041779D01*
X11068083Y-15035932D01*
X13115221Y-15035932D01*
X13126404Y-15036459D01*
X13133897Y-15038134D01*
X13141823Y-15037885D01*
X13141824Y-15037885D01*
X13201974Y-15035994D01*
X13205933Y-15035932D01*
X13233844Y-15035932D01*
X13237779Y-15035435D01*
X13237844Y-15035427D01*
X13249681Y-15034494D01*
X13281939Y-15033480D01*
X13285958Y-15033354D01*
X13293877Y-15033105D01*
X13313331Y-15027453D01*
X13332688Y-15023445D01*
X13344918Y-15021900D01*
X13344919Y-15021900D01*
X13352785Y-15020906D01*
X13360156Y-15017987D01*
X13360158Y-15017987D01*
X13393900Y-15004628D01*
X13405130Y-15000783D01*
X13439971Y-14990661D01*
X13439972Y-14990661D01*
X13447581Y-14988450D01*
X13454400Y-14984417D01*
X13454405Y-14984415D01*
X13465016Y-14978139D01*
X13482764Y-14969444D01*
X13501605Y-14961984D01*
X13512855Y-14953811D01*
X13537375Y-14935996D01*
X13547295Y-14929480D01*
X13578523Y-14911012D01*
X13578526Y-14911010D01*
X13585350Y-14906974D01*
X13599671Y-14892653D01*
X13614705Y-14879812D01*
X13624681Y-14872564D01*
X13631095Y-14867904D01*
X13659276Y-14833839D01*
X13667266Y-14825058D01*
X14241176Y-14251149D01*
X14259446Y-14236035D01*
X14259701Y-14235862D01*
X14259706Y-14235857D01*
X14266259Y-14231404D01*
X14280661Y-14215069D01*
X14303409Y-14189266D01*
X14308828Y-14183497D01*
X14320123Y-14172202D01*
X14329926Y-14159563D01*
X14334951Y-14153488D01*
X14372109Y-14111342D01*
X14375854Y-14103993D01*
X14388554Y-14083981D01*
X14388746Y-14083734D01*
X14388747Y-14083733D01*
X14393602Y-14077473D01*
X14415911Y-14025920D01*
X14419259Y-14018804D01*
X14444774Y-13968728D01*
X14446573Y-13960680D01*
X14453897Y-13938139D01*
X14457169Y-13930577D01*
X14464584Y-13883761D01*
X14465955Y-13875106D01*
X14467438Y-13867333D01*
X14469870Y-13856454D01*
X14479690Y-13812523D01*
X14479431Y-13804289D01*
X14480921Y-13780618D01*
X14480968Y-13780322D01*
X14480968Y-13780317D01*
X14482208Y-13772489D01*
X14479981Y-13748930D01*
X14476924Y-13716585D01*
X14476427Y-13708687D01*
X14475381Y-13675417D01*
X14474662Y-13652543D01*
X14472364Y-13644634D01*
X14467920Y-13621336D01*
X14467891Y-13621033D01*
X14467145Y-13613140D01*
X14464459Y-13605679D01*
X14462731Y-13597949D01*
X14463830Y-13597703D01*
X14458491Y-13567113D01*
X14458491Y-11309499D01*
X14478493Y-11241378D01*
X14532149Y-11194885D01*
X14584491Y-11183499D01*
X14723125Y-11183499D01*
X14785307Y-11176744D01*
X14921696Y-11125614D01*
X15038252Y-11038260D01*
X15125606Y-10921704D01*
X15176736Y-10785315D01*
X15183491Y-10723133D01*
X15183491Y-8926865D01*
X15176736Y-8864683D01*
X15125606Y-8728294D01*
X15038252Y-8611738D01*
X14921696Y-8524384D01*
X14853862Y-8498954D01*
X14803194Y-8479959D01*
X14746430Y-8437317D01*
X14721730Y-8370755D01*
X14736938Y-8301407D01*
X14758484Y-8272726D01*
X14859426Y-8172136D01*
X14863087Y-8168488D01*
X14993444Y-7987076D01*
X14995737Y-7982436D01*
X14997437Y-7979607D01*
X15049665Y-7931517D01*
X15105442Y-7918499D01*
X15261961Y-7918499D01*
X15330082Y-7938501D01*
X15351056Y-7955404D01*
X15623583Y-8227931D01*
X15657609Y-8290243D01*
X15660488Y-8317026D01*
X15660488Y-19287993D01*
X15640486Y-19356114D01*
X15598910Y-19396278D01*
X15589637Y-19401795D01*
X15436466Y-19536122D01*
X15432899Y-19540647D01*
X15432894Y-19540652D01*
X15354819Y-19639691D01*
X15310339Y-19696113D01*
X15215480Y-19876410D01*
X15155066Y-20070975D01*
X15131120Y-20273291D01*
X15144445Y-20476583D01*
X15194593Y-20674042D01*
X15279886Y-20859056D01*
X15397467Y-21025429D01*
X15401601Y-21029456D01*
X15500387Y-21125689D01*
X15543398Y-21167589D01*
X15548194Y-21170794D01*
X15548197Y-21170796D01*
X15616143Y-21216196D01*
X15712791Y-21280774D01*
X15718094Y-21283052D01*
X15718097Y-21283054D01*
X15818052Y-21325998D01*
X15899975Y-21361195D01*
X15972805Y-21377675D01*
X16093043Y-21404882D01*
X16093048Y-21404883D01*
X16098680Y-21406157D01*
X16104451Y-21406384D01*
X16104453Y-21406384D01*
X16167458Y-21408859D01*
X16302251Y-21414155D01*
X16503871Y-21384922D01*
X16509335Y-21383067D01*
X16509340Y-21383066D01*
X16691315Y-21321294D01*
X16691320Y-21321292D01*
X16696787Y-21319436D01*
X16874539Y-21219890D01*
X16953921Y-21153869D01*
X17019083Y-21125689D01*
X17089138Y-21137212D01*
X17141842Y-21184781D01*
X17160488Y-21250744D01*
X17160488Y-24376420D01*
X17140486Y-24444541D01*
X17117567Y-24471150D01*
X16986466Y-24586122D01*
X16982899Y-24590647D01*
X16982894Y-24590652D01*
X16904102Y-24690600D01*
X16860339Y-24746113D01*
X16765480Y-24926410D01*
X16705066Y-25120975D01*
X16681120Y-25323291D01*
X16694445Y-25526583D01*
X16744593Y-25724042D01*
X16829886Y-25909056D01*
X16947467Y-26075429D01*
X17093398Y-26217589D01*
X17098194Y-26220794D01*
X17098197Y-26220796D01*
X17149890Y-26255336D01*
X17262791Y-26330774D01*
X17268094Y-26333052D01*
X17268097Y-26333054D01*
X17357103Y-26371294D01*
X17449975Y-26411195D01*
X17522805Y-26427675D01*
X17643043Y-26454882D01*
X17643048Y-26454883D01*
X17648680Y-26456157D01*
X17654451Y-26456384D01*
X17654453Y-26456384D01*
X17717458Y-26458859D01*
X17852251Y-26464155D01*
X18053871Y-26434922D01*
X18059335Y-26433067D01*
X18059340Y-26433066D01*
X18241315Y-26371294D01*
X18241320Y-26371292D01*
X18246787Y-26369436D01*
X18424539Y-26269890D01*
X18581174Y-26139618D01*
X18711446Y-25982983D01*
X18810992Y-25805231D01*
X18812848Y-25799764D01*
X18812850Y-25799759D01*
X18874622Y-25617784D01*
X18874623Y-25617779D01*
X18876478Y-25612315D01*
X18905711Y-25410695D01*
X18907237Y-25352432D01*
X18888596Y-25149558D01*
X18833295Y-24953479D01*
X18823650Y-24933919D01*
X18745744Y-24775942D01*
X18743189Y-24770761D01*
X18724784Y-24746113D01*
X18624746Y-24612147D01*
X18624746Y-24612146D01*
X18621293Y-24607523D01*
X18471691Y-24469232D01*
X18472669Y-24468174D01*
X18434914Y-24416461D01*
X18427488Y-24373843D01*
X18427488Y-6732476D01*
X18447490Y-6664355D01*
X18501146Y-6617862D01*
X18571420Y-6607758D01*
X18634310Y-6635813D01*
X18792899Y-6768413D01*
X18801737Y-6775803D01*
X19045276Y-6928576D01*
X19307296Y-7046882D01*
X19376541Y-7067393D01*
X19578835Y-7127316D01*
X19578840Y-7127317D01*
X19582948Y-7128534D01*
X19587182Y-7129182D01*
X19587187Y-7129183D01*
X19835789Y-7167224D01*
X19867131Y-7172020D01*
X20013463Y-7174319D01*
X20150295Y-7176469D01*
X20150301Y-7176469D01*
X20154586Y-7176536D01*
X20158838Y-7176021D01*
X20158846Y-7176021D01*
X20435734Y-7142513D01*
X20435739Y-7142512D01*
X20439995Y-7141997D01*
X20536580Y-7116658D01*
X20713932Y-7070131D01*
X20713933Y-7070131D01*
X20718075Y-7069044D01*
X20983682Y-6959026D01*
X21204458Y-6830015D01*
X21228197Y-6816143D01*
X21228198Y-6816142D01*
X21231900Y-6813979D01*
X21458137Y-6636587D01*
X21464455Y-6630068D01*
X21655222Y-6433211D01*
X21658205Y-6430133D01*
X21660738Y-6426685D01*
X21660742Y-6426680D01*
X21825865Y-6201891D01*
X21828403Y-6198436D01*
X21853182Y-6152799D01*
X21963532Y-5949560D01*
X21963533Y-5949558D01*
X21965582Y-5945784D01*
X22052777Y-5715030D01*
X22065685Y-5680871D01*
X22065686Y-5680867D01*
X22067203Y-5676853D01*
X22098759Y-5539073D01*
X22130427Y-5400802D01*
X22130428Y-5400798D01*
X22131385Y-5396618D01*
X22131841Y-5391517D01*
X22156721Y-5112731D01*
X22156721Y-5112729D01*
X22156941Y-5110265D01*
X22157405Y-5066005D01*
X22154264Y-5019931D01*
X22138143Y-4783457D01*
X22138142Y-4783451D01*
X22137851Y-4779180D01*
X22133314Y-4757269D01*
X22080421Y-4501860D01*
X22079552Y-4497663D01*
X21983585Y-4226662D01*
X21888874Y-4043163D01*
X21853693Y-3975000D01*
X21853693Y-3974999D01*
X21851728Y-3971193D01*
X21838466Y-3952322D01*
X21769074Y-3853588D01*
X21686419Y-3735982D01*
X21555049Y-3594611D01*
X21493639Y-3528526D01*
X21493636Y-3528524D01*
X21490718Y-3525383D01*
X21268246Y-3343292D01*
X21023120Y-3193078D01*
X21005026Y-3185135D01*
X20763808Y-3079248D01*
X20759876Y-3077522D01*
X20733941Y-3070134D01*
X20487512Y-2999937D01*
X20487513Y-2999937D01*
X20483384Y-2998761D01*
X20270682Y-2968490D01*
X20203014Y-2958859D01*
X20203012Y-2958859D01*
X20198762Y-2958254D01*
X20194473Y-2958232D01*
X20194466Y-2958231D01*
X19915561Y-2956770D01*
X19915554Y-2956770D01*
X19911275Y-2956748D01*
X19907031Y-2957307D01*
X19907027Y-2957307D01*
X19781638Y-2973815D01*
X19626244Y-2994273D01*
X19622104Y-2995406D01*
X19622102Y-2995406D01*
X19545289Y-3016420D01*
X19348942Y-3070134D01*
X19344994Y-3071818D01*
X19088454Y-3181242D01*
X19088450Y-3181244D01*
X19084502Y-3182928D01*
X18959938Y-3257478D01*
X18841499Y-3328362D01*
X18841495Y-3328365D01*
X18837817Y-3330566D01*
X18613450Y-3510318D01*
X18415555Y-3718856D01*
X18394577Y-3748050D01*
X18275850Y-3913276D01*
X18247792Y-3952322D01*
X18113266Y-4206397D01*
X18014467Y-4476378D01*
X17953223Y-4757269D01*
X17930667Y-5043874D01*
X17947216Y-5330888D01*
X17948043Y-5335101D01*
X17948580Y-5339356D01*
X17947415Y-5339503D01*
X17941385Y-5405028D01*
X17897690Y-5460985D01*
X17830678Y-5484436D01*
X17761626Y-5467935D01*
X17735156Y-5447695D01*
X16640207Y-4352746D01*
X16632667Y-4344460D01*
X16628555Y-4337981D01*
X16578903Y-4291355D01*
X16576062Y-4288601D01*
X16556325Y-4268864D01*
X16553128Y-4266384D01*
X16544106Y-4258679D01*
X16511876Y-4228413D01*
X16504930Y-4224594D01*
X16504927Y-4224592D01*
X16494121Y-4218651D01*
X16477602Y-4207800D01*
X16470898Y-4202600D01*
X16461596Y-4195385D01*
X16454327Y-4192240D01*
X16454323Y-4192237D01*
X16421018Y-4177825D01*
X16410368Y-4172608D01*
X16371615Y-4151304D01*
X16351992Y-4146266D01*
X16333289Y-4139862D01*
X16321975Y-4134966D01*
X16321974Y-4134966D01*
X16314700Y-4131818D01*
X16306877Y-4130579D01*
X16306867Y-4130576D01*
X16271031Y-4124900D01*
X16259411Y-4122494D01*
X16224266Y-4113471D01*
X16224265Y-4113471D01*
X16216585Y-4111499D01*
X16196331Y-4111499D01*
X16176620Y-4109948D01*
X16164441Y-4108019D01*
X16156612Y-4106779D01*
X16148720Y-4107525D01*
X16112594Y-4110940D01*
X16100736Y-4111499D01*
X15101796Y-4111499D01*
X15033675Y-4091497D01*
X14996004Y-4053939D01*
X14907813Y-3917616D01*
X14907811Y-3917613D01*
X14905005Y-3913276D01*
X14754661Y-3748050D01*
X14750610Y-3744851D01*
X14750606Y-3744847D01*
X14583405Y-3612799D01*
X14583401Y-3612797D01*
X14579350Y-3609597D01*
X14383780Y-3501637D01*
X14378911Y-3499913D01*
X14378907Y-3499911D01*
X14178078Y-3428794D01*
X14178074Y-3428793D01*
X14173203Y-3427068D01*
X14168110Y-3426161D01*
X14168107Y-3426160D01*
X13958364Y-3388799D01*
X13958358Y-3388798D01*
X13953275Y-3387893D01*
X13879443Y-3386991D01*
X13735072Y-3385227D01*
X13735070Y-3385227D01*
X13729902Y-3385164D01*
X13509082Y-3418954D01*
X13296747Y-3488356D01*
X13098598Y-3591506D01*
X13094465Y-3594609D01*
X13094462Y-3594611D01*
X12928983Y-3718856D01*
X12919956Y-3725634D01*
X12765620Y-3887137D01*
X12658192Y-4044620D01*
X12603284Y-4089620D01*
X12532759Y-4097791D01*
X12469012Y-4066537D01*
X12448315Y-4042053D01*
X12367813Y-3917616D01*
X12367811Y-3917613D01*
X12365005Y-3913276D01*
X12214661Y-3748050D01*
X12210610Y-3744851D01*
X12210606Y-3744847D01*
X12043405Y-3612799D01*
X12043401Y-3612797D01*
X12039350Y-3609597D01*
X11843780Y-3501637D01*
X11838911Y-3499913D01*
X11838907Y-3499911D01*
X11638078Y-3428794D01*
X11638074Y-3428793D01*
X11633203Y-3427068D01*
X11628110Y-3426161D01*
X11628107Y-3426160D01*
X11418364Y-3388799D01*
X11418358Y-3388798D01*
X11413275Y-3387893D01*
X11339443Y-3386991D01*
X11195072Y-3385227D01*
X11195070Y-3385227D01*
X11189902Y-3385164D01*
X10969082Y-3418954D01*
X10756747Y-3488356D01*
X10558598Y-3591506D01*
X10554465Y-3594609D01*
X10554462Y-3594611D01*
X10388983Y-3718856D01*
X10379956Y-3725634D01*
X10225620Y-3887137D01*
X10222706Y-3891409D01*
X10198083Y-3927504D01*
X10143171Y-3972506D01*
X10093995Y-3982499D01*
X9572377Y-3982499D01*
X9553427Y-3981066D01*
X9539028Y-3978875D01*
X9539022Y-3978875D01*
X9531793Y-3977775D01*
X9524501Y-3978368D01*
X9524498Y-3978368D01*
X9478818Y-3982084D01*
X9468603Y-3982499D01*
X9460476Y-3982499D01*
X9456840Y-3982923D01*
X9456838Y-3982923D01*
X9455552Y-3983073D01*
X9432077Y-3985810D01*
X9427757Y-3986237D01*
X9354575Y-3992190D01*
X9347613Y-3994446D01*
X9341625Y-3995642D01*
X9335668Y-3997050D01*
X9328394Y-3997898D01*
X9321512Y-4000396D01*
X9321508Y-4000397D01*
X9259394Y-4022944D01*
X9255290Y-4024354D01*
X9185426Y-4046986D01*
X9179163Y-4050786D01*
X9173621Y-4053324D01*
X9168145Y-4056066D01*
X9161260Y-4058565D01*
X9155136Y-4062580D01*
X9099869Y-4098814D01*
X9096201Y-4101129D01*
X9033420Y-4139226D01*
X9029215Y-4142940D01*
X9029212Y-4142942D01*
X9024996Y-4146666D01*
X9024970Y-4146637D01*
X9022039Y-4149237D01*
X9018685Y-4152041D01*
X9012566Y-4156053D01*
X9007534Y-4161365D01*
X8959013Y-4212585D01*
X8956635Y-4215027D01*
X8158472Y-5013190D01*
X8144059Y-5025577D01*
X8126436Y-5038546D01*
X8121692Y-5044129D01*
X8121693Y-5044129D01*
X8092021Y-5079055D01*
X8085091Y-5086571D01*
X8079347Y-5092315D01*
X8077073Y-5095189D01*
X8077067Y-5095196D01*
X8061628Y-5114711D01*
X8058837Y-5118115D01*
X8016055Y-5168472D01*
X8016052Y-5168476D01*
X8011316Y-5174051D01*
X8007988Y-5180568D01*
X8004611Y-5185632D01*
X8001384Y-5190856D01*
X7996840Y-5196600D01*
X7993741Y-5203231D01*
X7965768Y-5263082D01*
X7963837Y-5267033D01*
X7930457Y-5332404D01*
X7928716Y-5339519D01*
X7926579Y-5345265D01*
X7924655Y-5351048D01*
X7921556Y-5357679D01*
X7909550Y-5415404D01*
X7906608Y-5429547D01*
X7905639Y-5433829D01*
X7888196Y-5505112D01*
X7887500Y-5516330D01*
X7887461Y-5516328D01*
X7887228Y-5520229D01*
X7886839Y-5524588D01*
X7885348Y-5531756D01*
X7885546Y-5539073D01*
X7887454Y-5609577D01*
X7887500Y-5612986D01*
X7887500Y-13278392D01*
X7867498Y-13346513D01*
X7850595Y-13367487D01*
X6202460Y-15015622D01*
X6188047Y-15028009D01*
X6170424Y-15040978D01*
X6165680Y-15046561D01*
X6165681Y-15046561D01*
X6136009Y-15081487D01*
X6129079Y-15089003D01*
X6123335Y-15094747D01*
X6121061Y-15097621D01*
X6121055Y-15097628D01*
X6105616Y-15117143D01*
X6102825Y-15120547D01*
X6060043Y-15170904D01*
X6060040Y-15170908D01*
X6055304Y-15176483D01*
X6051976Y-15183000D01*
X6048599Y-15188064D01*
X6045372Y-15193288D01*
X6040828Y-15199032D01*
X6037729Y-15205663D01*
X6009756Y-15265514D01*
X6007825Y-15269465D01*
X6003412Y-15278107D01*
X5974445Y-15334836D01*
X5972704Y-15341951D01*
X5970567Y-15347697D01*
X5968643Y-15353480D01*
X5965544Y-15360111D01*
X5956631Y-15402966D01*
X5950596Y-15431979D01*
X5949627Y-15436261D01*
X5932184Y-15507544D01*
X5931488Y-15518762D01*
X5931449Y-15518760D01*
X5931216Y-15522661D01*
X5930827Y-15527020D01*
X5929336Y-15534188D01*
X5929534Y-15541505D01*
X5931442Y-15612009D01*
X5931488Y-15615418D01*
X5931488Y-16623365D01*
X5911486Y-16691486D01*
X5877760Y-16726577D01*
X5869199Y-16732572D01*
X5849688Y-16746234D01*
X5687790Y-16908132D01*
X5684633Y-16912640D01*
X5684631Y-16912643D01*
X5629890Y-16990821D01*
X5556465Y-17095683D01*
X5554142Y-17100665D01*
X5554139Y-17100670D01*
X5473870Y-17272809D01*
X5459704Y-17303189D01*
X5400445Y-17524345D01*
X5380490Y-17752432D01*
X4737036Y-17752432D01*
X4737139Y-17748199D01*
X4718835Y-17525560D01*
X4664414Y-17308901D01*
X4575337Y-17104039D01*
X4453997Y-16916476D01*
X4450515Y-16912649D01*
X4306781Y-16754687D01*
X4275729Y-16690841D01*
X4284124Y-16620342D01*
X4329300Y-16565574D01*
X4355744Y-16551905D01*
X4462280Y-16511966D01*
X4470688Y-16508814D01*
X4587244Y-16421460D01*
X4674598Y-16304904D01*
X4725728Y-16168515D01*
X4732483Y-16106333D01*
X4732483Y-14310065D01*
X4725728Y-14247883D01*
X4674598Y-14111494D01*
X4587244Y-13994938D01*
X4470688Y-13907584D01*
X4334299Y-13856454D01*
X4272117Y-13849699D01*
X2475849Y-13849699D01*
X2413667Y-13856454D01*
X2277278Y-13907584D01*
X2160722Y-13994938D01*
X2073368Y-14111494D01*
X2022238Y-14247883D01*
X2015483Y-14310065D01*
X2015483Y-16106333D01*
X2022238Y-16168515D01*
X2073368Y-16304904D01*
X2160722Y-16421460D01*
X2277278Y-16508814D01*
X2285687Y-16511966D01*
X2285688Y-16511967D01*
X2394434Y-16552734D01*
X2451199Y-16595375D01*
X2475899Y-16661937D01*
X2460692Y-16731286D01*
X2441299Y-16757767D01*
X2314612Y-16890337D01*
X2188726Y-17074879D01*
X2094671Y-17277504D01*
X2034972Y-17492769D01*
X2011234Y-17714894D01*
X2011531Y-17720047D01*
X2011531Y-17720050D01*
X2016994Y-17814789D01*
X2024093Y-17937914D01*
X2025230Y-17942960D01*
X2025231Y-17942966D01*
X2034892Y-17985834D01*
X2073205Y-18155838D01*
X2157249Y-18362815D01*
X2273970Y-18553287D01*
X2420233Y-18722137D01*
X2592109Y-18864831D01*
X2635104Y-18889955D01*
X2665428Y-18907675D01*
X2714152Y-18959313D01*
X2727223Y-19029096D01*
X2700492Y-19094868D01*
X2660038Y-19128226D01*
X2647590Y-19134706D01*
X2643457Y-19137809D01*
X2643454Y-19137811D01*
X2588774Y-19178866D01*
X2468948Y-19268834D01*
X2465376Y-19272572D01*
X2344706Y-19398846D01*
X2314612Y-19430337D01*
X2311698Y-19434609D01*
X2311697Y-19434610D01*
X2245939Y-19531008D01*
X2188726Y-19614879D01*
X2094671Y-19817504D01*
X2034972Y-20032769D01*
X2011234Y-20254894D01*
X1523990Y-20254894D01*
X1523990Y-5043874D01*
X2952668Y-5043874D01*
X2969217Y-5330888D01*
X2970042Y-5335093D01*
X2970043Y-5335101D01*
X2992199Y-5448027D01*
X3024565Y-5613000D01*
X3025952Y-5617050D01*
X3025953Y-5617055D01*
X3115615Y-5878933D01*
X3117689Y-5884991D01*
X3133232Y-5915895D01*
X3240472Y-6129117D01*
X3246864Y-6141827D01*
X3409700Y-6378755D01*
X3412587Y-6381928D01*
X3412588Y-6381929D01*
X3450611Y-6423716D01*
X3603185Y-6591393D01*
X3606480Y-6594148D01*
X3606481Y-6594149D01*
X3814900Y-6768413D01*
X3823738Y-6775803D01*
X4067277Y-6928576D01*
X4329297Y-7046882D01*
X4398542Y-7067393D01*
X4600836Y-7127316D01*
X4600841Y-7127317D01*
X4604949Y-7128534D01*
X4609183Y-7129182D01*
X4609188Y-7129183D01*
X4857790Y-7167224D01*
X4889132Y-7172020D01*
X5035464Y-7174319D01*
X5172296Y-7176469D01*
X5172302Y-7176469D01*
X5176587Y-7176536D01*
X5180839Y-7176021D01*
X5180847Y-7176021D01*
X5457735Y-7142513D01*
X5457740Y-7142512D01*
X5461996Y-7141997D01*
X5558581Y-7116658D01*
X5735933Y-7070131D01*
X5735934Y-7070131D01*
X5740076Y-7069044D01*
X6005683Y-6959026D01*
X6226459Y-6830015D01*
X6250198Y-6816143D01*
X6250199Y-6816142D01*
X6253901Y-6813979D01*
X6480138Y-6636587D01*
X6486456Y-6630068D01*
X6677223Y-6433211D01*
X6680206Y-6430133D01*
X6682739Y-6426685D01*
X6682743Y-6426680D01*
X6847866Y-6201891D01*
X6850404Y-6198436D01*
X6875183Y-6152799D01*
X6985533Y-5949560D01*
X6985534Y-5949558D01*
X6987583Y-5945784D01*
X7074778Y-5715030D01*
X7087686Y-5680871D01*
X7087687Y-5680867D01*
X7089204Y-5676853D01*
X7120760Y-5539073D01*
X7152428Y-5400802D01*
X7152429Y-5400798D01*
X7153386Y-5396618D01*
X7153842Y-5391517D01*
X7178722Y-5112731D01*
X7178722Y-5112729D01*
X7178942Y-5110265D01*
X7179406Y-5066005D01*
X7176265Y-5019931D01*
X7160144Y-4783457D01*
X7160143Y-4783451D01*
X7159852Y-4779180D01*
X7155315Y-4757269D01*
X7102422Y-4501860D01*
X7101553Y-4497663D01*
X7005586Y-4226662D01*
X6910875Y-4043163D01*
X6875694Y-3975000D01*
X6875694Y-3974999D01*
X6873729Y-3971193D01*
X6860467Y-3952322D01*
X6791075Y-3853588D01*
X6708420Y-3735982D01*
X6577050Y-3594611D01*
X6515640Y-3528526D01*
X6515637Y-3528524D01*
X6512719Y-3525383D01*
X6290247Y-3343292D01*
X6045121Y-3193078D01*
X6027027Y-3185135D01*
X5785809Y-3079248D01*
X5781877Y-3077522D01*
X5755942Y-3070134D01*
X5509513Y-2999937D01*
X5509514Y-2999937D01*
X5505385Y-2998761D01*
X5292683Y-2968490D01*
X5225015Y-2958859D01*
X5225013Y-2958859D01*
X5220763Y-2958254D01*
X5216474Y-2958232D01*
X5216467Y-2958231D01*
X4937562Y-2956770D01*
X4937555Y-2956770D01*
X4933276Y-2956748D01*
X4929032Y-2957307D01*
X4929028Y-2957307D01*
X4803639Y-2973815D01*
X4648245Y-2994273D01*
X4644105Y-2995406D01*
X4644103Y-2995406D01*
X4567290Y-3016420D01*
X4370943Y-3070134D01*
X4366995Y-3071818D01*
X4110455Y-3181242D01*
X4110451Y-3181244D01*
X4106503Y-3182928D01*
X3981939Y-3257478D01*
X3863500Y-3328362D01*
X3863496Y-3328365D01*
X3859818Y-3330566D01*
X3635451Y-3510318D01*
X3437556Y-3718856D01*
X3416578Y-3748050D01*
X3297851Y-3913276D01*
X3269793Y-3952322D01*
X3135267Y-4206397D01*
X3036468Y-4476378D01*
X2975224Y-4757269D01*
X2952668Y-5043874D01*
X1523990Y-5043874D01*
X1523990Y-4067240D01*
X1525490Y-4047855D01*
X1527795Y-4033054D01*
X1527795Y-4033051D01*
X1529176Y-4024182D01*
X1526931Y-4007013D01*
X1526098Y-3983073D01*
X1541700Y-3725142D01*
X1543534Y-3710038D01*
X1577373Y-3525383D01*
X1595030Y-3429033D01*
X1598669Y-3414265D01*
X1607494Y-3385947D01*
X1683665Y-3141504D01*
X1689060Y-3127282D01*
X1806306Y-2866772D01*
X1813375Y-2853303D01*
X1961172Y-2608817D01*
X1969815Y-2596295D01*
X2146006Y-2371405D01*
X2156096Y-2360017D01*
X2358095Y-2158018D01*
X2369483Y-2147928D01*
X2594373Y-1971737D01*
X2606895Y-1963094D01*
X2851381Y-1815297D01*
X2864850Y-1808228D01*
X3125363Y-1690981D01*
X3139582Y-1685587D01*
X3412349Y-1600590D01*
X3427111Y-1596952D01*
X3637342Y-1558426D01*
X3708116Y-1545456D01*
X3723220Y-1543622D01*
X3973919Y-1528457D01*
X4000629Y-1529714D01*
X4000849Y-1529717D01*
X4009720Y-1531098D01*
X4018622Y-1529934D01*
X4018625Y-1529934D01*
X4041241Y-1526976D01*
X4057579Y-1525912D01*
X21044660Y-1525912D01*
X21064045Y-1527412D01*
G37*
%TD.AperFunction*%
%TA.AperFunction,Conductor*%
G36*
X10158654Y-5527501D02*
G01*
X10185770Y-5551002D01*
X10298267Y-5680871D01*
X10331241Y-5718937D01*
X10503117Y-5861631D01*
X10532726Y-5878933D01*
X10576946Y-5904773D01*
X10625670Y-5956411D01*
X10638741Y-6026194D01*
X10612010Y-6091966D01*
X10571553Y-6125326D01*
X10563448Y-6129545D01*
X10554729Y-6135035D01*
X10384424Y-6262904D01*
X10376717Y-6269747D01*
X10229581Y-6423716D01*
X10223095Y-6431726D01*
X10103089Y-6607648D01*
X10097991Y-6616622D01*
X10008329Y-6809782D01*
X10004766Y-6819469D01*
X9949380Y-7019182D01*
X9950903Y-7027606D01*
X9963283Y-7030999D01*
X11412991Y-7030999D01*
X11481112Y-7051001D01*
X11527605Y-7104657D01*
X11538991Y-7156999D01*
X11538991Y-7412999D01*
X11518989Y-7481120D01*
X11465333Y-7527613D01*
X11412991Y-7538999D01*
X9968216Y-7538999D01*
X9954685Y-7542972D01*
X9953248Y-7552965D01*
X9983556Y-7687445D01*
X9986636Y-7697274D01*
X10066761Y-7894602D01*
X10071404Y-7903793D01*
X10182685Y-8085387D01*
X10188768Y-8093698D01*
X10328204Y-8254666D01*
X10335571Y-8261882D01*
X10499425Y-8397915D01*
X10507872Y-8403830D01*
X10576960Y-8444202D01*
X10625684Y-8495841D01*
X10638755Y-8565624D01*
X10612024Y-8631395D01*
X10571575Y-8664751D01*
X10558598Y-8671506D01*
X10554465Y-8674609D01*
X10554462Y-8674611D01*
X10384091Y-8802529D01*
X10379956Y-8805634D01*
X10340516Y-8846906D01*
X10286271Y-8903670D01*
X10225620Y-8967137D01*
X10099734Y-9151679D01*
X10005679Y-9354304D01*
X9945980Y-9569569D01*
X9922242Y-9791694D01*
X9935101Y-10014714D01*
X9936238Y-10019760D01*
X9936239Y-10019766D01*
X9960295Y-10126507D01*
X9984213Y-10232638D01*
X10068257Y-10439615D01*
X10184978Y-10630087D01*
X10331241Y-10798937D01*
X10503117Y-10941631D01*
X10507584Y-10944241D01*
X10589061Y-10991852D01*
X10637785Y-11043490D01*
X10651491Y-11100640D01*
X10651491Y-11587150D01*
X10631489Y-11655271D01*
X10608568Y-11681882D01*
X10492478Y-11783690D01*
X10488911Y-11788215D01*
X10488906Y-11788220D01*
X10402331Y-11898040D01*
X10366351Y-11943681D01*
X10271492Y-12123978D01*
X10211078Y-12318543D01*
X10187132Y-12520859D01*
X10200457Y-12724151D01*
X10250605Y-12921610D01*
X10335898Y-13106624D01*
X10337526Y-13108927D01*
X10354036Y-13176988D01*
X10330815Y-13244080D01*
X10275008Y-13287967D01*
X10215291Y-13296263D01*
X10210354Y-13295281D01*
X10204579Y-13295205D01*
X10204575Y-13295205D01*
X10103106Y-13293877D01*
X10006643Y-13292615D01*
X10000946Y-13293594D01*
X10000945Y-13293594D01*
X9984819Y-13296365D01*
X9805858Y-13327116D01*
X9614722Y-13397630D01*
X9602924Y-13404649D01*
X9534155Y-13422290D01*
X9466765Y-13399951D01*
X9422150Y-13344724D01*
X9412500Y-13296365D01*
X9412500Y-5968028D01*
X9432502Y-5899907D01*
X9449405Y-5878933D01*
X9783934Y-5544404D01*
X9846246Y-5510378D01*
X9873029Y-5507499D01*
X10090533Y-5507499D01*
X10158654Y-5527501D01*
G37*
%TD.AperFunction*%
%TD*%
M02*
