%TF.GenerationSoftware,KiCad,Pcbnew,(6.0.0)*%
%TF.CreationDate,2022-03-14T07:52:58-04:00*%
%TF.ProjectId,JTAG_ISP-ISP,4a544147-5f49-4535-902d-4953502e6b69,v1.0.0*%
%TF.SameCoordinates,PX8924e3cPY3981160*%
%TF.FileFunction,Copper,L2,Bot*%
%TF.FilePolarity,Positive*%
%FSLAX46Y46*%
G04 Gerber Fmt 4.6, Leading zero omitted, Abs format (unit mm)*
G04 Created by KiCad (PCBNEW (6.0.0)) date 2022-03-14 07:52:58*
%MOMM*%
%LPD*%
G01*
G04 APERTURE LIST*
%ADD10C,0.150000*%
%TA.AperFunction,NonConductor*%
%ADD11C,0.150000*%
%TD*%
%TA.AperFunction,EtchedComponent*%
%ADD12C,0.508000*%
%TD*%
%TA.AperFunction,ComponentPad*%
%ADD13C,3.200001*%
%TD*%
%TA.AperFunction,ComponentPad*%
%ADD14R,1.700000X1.700000*%
%TD*%
%TA.AperFunction,ComponentPad*%
%ADD15O,1.700000X1.700000*%
%TD*%
%TA.AperFunction,ComponentPad*%
%ADD16C,1.600000*%
%TD*%
%TA.AperFunction,ComponentPad*%
%ADD17C,1.700000*%
%TD*%
%TA.AperFunction,ViaPad*%
%ADD18C,1.200000*%
%TD*%
%TA.AperFunction,Conductor*%
%ADD19C,0.508000*%
%TD*%
%TA.AperFunction,Conductor*%
%ADD20C,0.250000*%
%TD*%
G04 APERTURE END LIST*
D10*
D11*
X15450000Y-35634500D02*
X14850000Y-35634500D01*
X15150000Y-36684500D02*
X15150000Y-35634500D01*
X14500000Y-36684500D02*
X14500000Y-35634500D01*
X14500000Y-36134500D02*
X13900000Y-36134500D01*
X13900000Y-36684500D02*
X13900000Y-35634500D01*
X13200000Y-35634500D02*
X13000000Y-35634500D01*
X12900000Y-35684500D01*
X12800000Y-35784500D01*
X12750000Y-35984500D01*
X12750000Y-36334500D01*
X12800000Y-36534500D01*
X12900000Y-36634500D01*
X13000000Y-36684500D01*
X13200000Y-36684500D01*
X13300000Y-36634500D01*
X13400000Y-36534500D01*
X13450000Y-36334500D01*
X13450000Y-35984500D01*
X13400000Y-35784500D01*
X13300000Y-35684500D01*
X13200000Y-35634500D01*
X12300000Y-36684500D02*
X12300000Y-35634500D01*
X11950000Y-36384500D01*
X11600000Y-35634500D01*
X11600000Y-36684500D01*
X11150000Y-36384500D02*
X10650000Y-36384500D01*
X11250000Y-36684500D02*
X10900000Y-35634500D01*
X10550000Y-36684500D01*
X10250000Y-36634500D02*
X10100000Y-36684500D01*
X9850000Y-36684500D01*
X9750000Y-36634500D01*
X9700000Y-36584500D01*
X9650000Y-36484500D01*
X9650000Y-36384500D01*
X9700000Y-36284500D01*
X9750000Y-36234500D01*
X9850000Y-36184500D01*
X10050000Y-36134500D01*
X10150000Y-36084500D01*
X10200000Y-36034500D01*
X10250000Y-35934500D01*
X10250000Y-35834500D01*
X10200000Y-35734500D01*
X10150000Y-35684500D01*
X10050000Y-35634500D01*
X9800000Y-35634500D01*
X9650000Y-35684500D01*
X17075000Y-38375000D02*
X17075000Y-37325000D01*
X16825000Y-37325000D01*
X16675000Y-37375000D01*
X16575000Y-37475000D01*
X16525000Y-37575000D01*
X16475000Y-37775000D01*
X16475000Y-37925000D01*
X16525000Y-38125000D01*
X16575000Y-38225000D01*
X16675000Y-38325000D01*
X16825000Y-38375000D01*
X17075000Y-38375000D01*
X16025000Y-37825000D02*
X15675000Y-37825000D01*
X15525000Y-38375000D02*
X16025000Y-38375000D01*
X16025000Y-37325000D01*
X15525000Y-37325000D01*
X15125000Y-38325000D02*
X14975000Y-38375000D01*
X14725000Y-38375000D01*
X14625000Y-38325000D01*
X14575000Y-38275000D01*
X14525000Y-38175000D01*
X14525000Y-38075000D01*
X14575000Y-37975000D01*
X14625000Y-37925000D01*
X14725000Y-37875000D01*
X14925000Y-37825000D01*
X15025000Y-37775000D01*
X15075000Y-37725000D01*
X15125000Y-37625000D01*
X15125000Y-37525000D01*
X15075000Y-37425000D01*
X15025000Y-37375000D01*
X14925000Y-37325000D01*
X14675000Y-37325000D01*
X14525000Y-37375000D01*
X13475000Y-38375000D02*
X13825000Y-37875000D01*
X14075000Y-38375000D02*
X14075000Y-37325000D01*
X13675000Y-37325000D01*
X13575000Y-37375000D01*
X13525000Y-37425000D01*
X13475000Y-37525000D01*
X13475000Y-37675000D01*
X13525000Y-37775000D01*
X13575000Y-37825000D01*
X13675000Y-37875000D01*
X14075000Y-37875000D01*
X12825000Y-37325000D02*
X12625000Y-37325000D01*
X12525000Y-37375000D01*
X12425000Y-37475000D01*
X12375000Y-37675000D01*
X12375000Y-38025000D01*
X12425000Y-38225000D01*
X12525000Y-38325000D01*
X12625000Y-38375000D01*
X12825000Y-38375000D01*
X12925000Y-38325000D01*
X13025000Y-38225000D01*
X13075000Y-38025000D01*
X13075000Y-37675000D01*
X13025000Y-37475000D01*
X12925000Y-37375000D01*
X12825000Y-37325000D01*
X11975000Y-38325000D02*
X11825000Y-38375000D01*
X11575000Y-38375000D01*
X11475000Y-38325000D01*
X11425000Y-38275000D01*
X11375000Y-38175000D01*
X11375000Y-38075000D01*
X11425000Y-37975000D01*
X11475000Y-37925000D01*
X11575000Y-37875000D01*
X11775000Y-37825000D01*
X11875000Y-37775000D01*
X11925000Y-37725000D01*
X11975000Y-37625000D01*
X11975000Y-37525000D01*
X11925000Y-37425000D01*
X11875000Y-37375000D01*
X11775000Y-37325000D01*
X11525000Y-37325000D01*
X11375000Y-37375000D01*
X10925000Y-38375000D02*
X10925000Y-37325000D01*
X10425000Y-37825000D02*
X10075000Y-37825000D01*
X9925000Y-38375000D02*
X10425000Y-38375000D01*
X10425000Y-37325000D01*
X9925000Y-37325000D01*
X8875000Y-38375000D02*
X9225000Y-37875000D01*
X9475000Y-38375000D02*
X9475000Y-37325000D01*
X9075000Y-37325000D01*
X8975000Y-37375000D01*
X8925000Y-37425000D01*
X8875000Y-37525000D01*
X8875000Y-37675000D01*
X8925000Y-37775000D01*
X8975000Y-37825000D01*
X9075000Y-37875000D01*
X9475000Y-37875000D01*
X8475000Y-38325000D02*
X8325000Y-38375000D01*
X8075000Y-38375000D01*
X7975000Y-38325000D01*
X7925000Y-38275000D01*
X7875000Y-38175000D01*
X7875000Y-38075000D01*
X7925000Y-37975000D01*
X7975000Y-37925000D01*
X8075000Y-37875000D01*
X8275000Y-37825000D01*
X8375000Y-37775000D01*
X8425000Y-37725000D01*
X8475000Y-37625000D01*
X8475000Y-37525000D01*
X8425000Y-37425000D01*
X8375000Y-37375000D01*
X8275000Y-37325000D01*
X8025000Y-37325000D01*
X7875000Y-37375000D01*
X17600000Y-39115500D02*
X17550000Y-39065500D01*
X17450000Y-39015500D01*
X17200000Y-39015500D01*
X17100000Y-39065500D01*
X17050000Y-39115500D01*
X17000000Y-39215500D01*
X17000000Y-39315500D01*
X17050000Y-39465500D01*
X17650000Y-40065500D01*
X17000000Y-40065500D01*
X16350000Y-39015500D02*
X16250000Y-39015500D01*
X16150000Y-39065500D01*
X16100000Y-39115500D01*
X16050000Y-39215500D01*
X16000000Y-39415500D01*
X16000000Y-39665500D01*
X16050000Y-39865500D01*
X16100000Y-39965500D01*
X16150000Y-40015500D01*
X16250000Y-40065500D01*
X16350000Y-40065500D01*
X16450000Y-40015500D01*
X16500000Y-39965500D01*
X16550000Y-39865500D01*
X16600000Y-39665500D01*
X16600000Y-39415500D01*
X16550000Y-39215500D01*
X16500000Y-39115500D01*
X16450000Y-39065500D01*
X16350000Y-39015500D01*
X15600000Y-39115500D02*
X15550000Y-39065500D01*
X15450000Y-39015500D01*
X15200000Y-39015500D01*
X15100000Y-39065500D01*
X15050000Y-39115500D01*
X15000000Y-39215500D01*
X15000000Y-39315500D01*
X15050000Y-39465500D01*
X15650000Y-40065500D01*
X15000000Y-40065500D01*
X14600000Y-39115500D02*
X14550000Y-39065500D01*
X14450000Y-39015500D01*
X14200000Y-39015500D01*
X14100000Y-39065500D01*
X14050000Y-39115500D01*
X14000000Y-39215500D01*
X14000000Y-39315500D01*
X14050000Y-39465500D01*
X14650000Y-40065500D01*
X14000000Y-40065500D01*
X13550000Y-39665500D02*
X12750000Y-39665500D01*
X12050000Y-39015500D02*
X11950000Y-39015500D01*
X11850000Y-39065500D01*
X11800000Y-39115500D01*
X11750000Y-39215500D01*
X11700000Y-39415500D01*
X11700000Y-39665500D01*
X11750000Y-39865500D01*
X11800000Y-39965500D01*
X11850000Y-40015500D01*
X11950000Y-40065500D01*
X12050000Y-40065500D01*
X12150000Y-40015500D01*
X12200000Y-39965500D01*
X12250000Y-39865500D01*
X12300000Y-39665500D01*
X12300000Y-39415500D01*
X12250000Y-39215500D01*
X12200000Y-39115500D01*
X12150000Y-39065500D01*
X12050000Y-39015500D01*
X11350000Y-39015500D02*
X10700000Y-39015500D01*
X11050000Y-39415500D01*
X10900000Y-39415500D01*
X10800000Y-39465500D01*
X10750000Y-39515500D01*
X10700000Y-39615500D01*
X10700000Y-39865500D01*
X10750000Y-39965500D01*
X10800000Y-40015500D01*
X10900000Y-40065500D01*
X11200000Y-40065500D01*
X11300000Y-40015500D01*
X11350000Y-39965500D01*
X10250000Y-39665500D02*
X9450000Y-39665500D01*
X8400000Y-40065500D02*
X9000000Y-40065500D01*
X8700000Y-40065500D02*
X8700000Y-39015500D01*
X8800000Y-39165500D01*
X8900000Y-39265500D01*
X9000000Y-39315500D01*
X8050000Y-39015500D02*
X7400000Y-39015500D01*
X7750000Y-39415500D01*
X7600000Y-39415500D01*
X7500000Y-39465500D01*
X7450000Y-39515500D01*
X7400000Y-39615500D01*
X7400000Y-39865500D01*
X7450000Y-39965500D01*
X7500000Y-40015500D01*
X7600000Y-40065500D01*
X7900000Y-40065500D01*
X8000000Y-40015500D01*
X8050000Y-39965500D01*
D12*
%TO.C,REF\u002A\u002A*%
X18075003Y-10702999D02*
X17475003Y-9352999D01*
X17975003Y-10877999D02*
X17975003Y-9027999D01*
X18075003Y-9002999D02*
X16725003Y-9952999D01*
X18225001Y-11328004D02*
X18225001Y-8627994D01*
X17975003Y-10852999D02*
X16725003Y-9952999D01*
X18175003Y-10502999D02*
X16925003Y-9602999D01*
X18075003Y-10702999D02*
X16825003Y-9802999D01*
X16225005Y-9978004D02*
X18225001Y-8627994D01*
X18225001Y-11328004D02*
X16224996Y-9978004D01*
%TD*%
D13*
%TO.P,REF\u002A\u002A,*%
%TO.N,*%
X20043978Y-43102428D03*
%TD*%
D14*
%TO.P,J2,1,Pin_1*%
%TO.N,unconnected-(J2-Pad1)*%
X3373983Y-15208199D03*
D15*
%TO.P,J2,2,Pin_2*%
%TO.N,+5V*%
X3373983Y-17748199D03*
%TO.P,J2,3,Pin_3*%
%TO.N,unconnected-(J2-Pad3)*%
X3373983Y-20288199D03*
%TO.P,J2,4,Pin_4*%
%TO.N,GND*%
X3373983Y-22828199D03*
%TO.P,J2,5,Pin_5*%
%TO.N,unconnected-(J2-Pad5)*%
X3373983Y-25368199D03*
%TO.P,J2,6,Pin_6*%
%TO.N,MISO*%
X3373983Y-27908199D03*
%TO.P,J2,7,Pin_7*%
%TO.N,unconnected-(J2-Pad7)*%
X3373983Y-30448199D03*
%TO.P,J2,8,Pin_8*%
%TO.N,SCLK*%
X3373983Y-32988199D03*
%TD*%
D16*
%TO.P,C1,1*%
%TO.N,+5V*%
X6693988Y-17752432D03*
%TO.P,C1,2*%
%TO.N,GND*%
X6693988Y-20252432D03*
%TD*%
D13*
%TO.P,REF\u002A\u002A,*%
%TO.N,*%
X20043978Y-5066005D03*
%TD*%
%TO.P,REF\u002A\u002A,*%
%TO.N,*%
X5065979Y-43102428D03*
%TD*%
D17*
%TO.P,J3,1,Pin_1*%
%TO.N,SCLK*%
X21735999Y-15208199D03*
D15*
%TO.P,J3,2,Pin_2*%
%TO.N,unconnected-(J3-Pad2)*%
X21735999Y-17748199D03*
%TO.P,J3,3,Pin_3*%
%TO.N,RESET*%
X21735999Y-20288199D03*
%TO.P,J3,4,Pin_4*%
%TO.N,unconnected-(J3-Pad4)*%
X21735999Y-22828199D03*
%TO.P,J3,5,Pin_5*%
%TO.N,MOSI*%
X21735999Y-25368199D03*
%TO.P,J3,6,Pin_6*%
%TO.N,unconnected-(J3-Pad6)*%
X21735999Y-27908199D03*
%TO.P,J3,7,Pin_7*%
%TO.N,unconnected-(J3-Pad7)*%
X21735999Y-30448199D03*
%TO.P,J3,8,Pin_8*%
%TO.N,unconnected-(J3-Pad8)*%
X21735999Y-32988199D03*
%TD*%
D13*
%TO.P,REF\u002A\u002A,*%
%TO.N,*%
X5065979Y-5066005D03*
%TD*%
D14*
%TO.P,J1,1,Pin_1*%
%TO.N,MISO*%
X13824991Y-9824999D03*
D15*
%TO.P,J1,2,Pin_2*%
%TO.N,SCLK*%
X11284991Y-9824999D03*
%TO.P,J1,3,Pin_3*%
%TO.N,RESET*%
X13824991Y-7284999D03*
%TO.P,J1,4,Pin_4*%
%TO.N,GND*%
X11284991Y-7284999D03*
%TO.P,J1,5,Pin_5*%
%TO.N,MOSI*%
X13824991Y-4744999D03*
%TO.P,J1,6,Pin_6*%
%TO.N,+5V*%
X11284991Y-4744999D03*
%TD*%
D18*
%TO.N,GND*%
X7843988Y-30352432D03*
%TO.N,MISO*%
X10093988Y-14402432D03*
%TO.N,SCLK*%
X11300000Y-12550000D03*
%TO.N,RESET*%
X16243988Y-20302432D03*
%TO.N,MOSI*%
X17793988Y-25352432D03*
%TD*%
D19*
%TO.N,+5V*%
X3373983Y-17748199D02*
X6689755Y-17748199D01*
D20*
%TO.N,MISO*%
X9088221Y-27908199D02*
X10093988Y-26902432D01*
X10093988Y-26902432D02*
X10093988Y-14402432D01*
X3373983Y-27908199D02*
X9088221Y-27908199D01*
%TO.N,SCLK*%
X21735999Y-13344443D02*
X21735999Y-15208199D01*
X3373983Y-32988199D02*
X10258221Y-32988199D01*
X11300000Y-12550000D02*
X20941556Y-12550000D01*
X10258221Y-32988199D02*
X11300000Y-31946420D01*
X20941556Y-12550000D02*
X21735999Y-13344443D01*
X11300000Y-31946420D02*
X11300000Y-12550000D01*
%TO.N,RESET*%
X16258221Y-20288199D02*
X21735999Y-20288199D01*
X16243988Y-20302432D02*
X16258221Y-20288199D01*
%TO.N,MOSI*%
X17793988Y-25352432D02*
X17809755Y-25368199D01*
X17809755Y-25368199D02*
X21735999Y-25368199D01*
%TD*%
%TA.AperFunction,Conductor*%
%TO.N,GND*%
G36*
X21064045Y-1527412D02*
G01*
X21078846Y-1529717D01*
X21078849Y-1529717D01*
X21087718Y-1531098D01*
X21104887Y-1528853D01*
X21128827Y-1528020D01*
X21386758Y-1543622D01*
X21401862Y-1545456D01*
X21472636Y-1558426D01*
X21682867Y-1596952D01*
X21697629Y-1600590D01*
X21970396Y-1685587D01*
X21984615Y-1690981D01*
X22245128Y-1808228D01*
X22258597Y-1815297D01*
X22503083Y-1963094D01*
X22515605Y-1971737D01*
X22740495Y-2147928D01*
X22751883Y-2158018D01*
X22953882Y-2360017D01*
X22963972Y-2371405D01*
X23140163Y-2596295D01*
X23148806Y-2608817D01*
X23296603Y-2853303D01*
X23303672Y-2866772D01*
X23420918Y-3127282D01*
X23426313Y-3141504D01*
X23502485Y-3385947D01*
X23511309Y-3414265D01*
X23514948Y-3429033D01*
X23532605Y-3525383D01*
X23566444Y-3710038D01*
X23568278Y-3725142D01*
X23583443Y-3975841D01*
X23582186Y-4002551D01*
X23582183Y-4002771D01*
X23580802Y-4011642D01*
X23581966Y-4020544D01*
X23581966Y-4020547D01*
X23584924Y-4043163D01*
X23585988Y-4059501D01*
X23585988Y-44103104D01*
X23584488Y-44122488D01*
X23580802Y-44146162D01*
X23582442Y-44158702D01*
X23583047Y-44163329D01*
X23583880Y-44187271D01*
X23568278Y-44445202D01*
X23566444Y-44460306D01*
X23514950Y-44741305D01*
X23511310Y-44756073D01*
X23445656Y-44966766D01*
X23426314Y-45028836D01*
X23420919Y-45043059D01*
X23344454Y-45212959D01*
X23303674Y-45303568D01*
X23296603Y-45317041D01*
X23148806Y-45561527D01*
X23140163Y-45574049D01*
X22963972Y-45798939D01*
X22953882Y-45810327D01*
X22751883Y-46012326D01*
X22740495Y-46022416D01*
X22515605Y-46198607D01*
X22503083Y-46207250D01*
X22258597Y-46355047D01*
X22245128Y-46362116D01*
X21984618Y-46479362D01*
X21970396Y-46484757D01*
X21697629Y-46569754D01*
X21682867Y-46573392D01*
X21472636Y-46611918D01*
X21401862Y-46624888D01*
X21386758Y-46626722D01*
X21136059Y-46641887D01*
X21109349Y-46640630D01*
X21109129Y-46640627D01*
X21100258Y-46639246D01*
X21091356Y-46640410D01*
X21091353Y-46640410D01*
X21068737Y-46643368D01*
X21052399Y-46644432D01*
X4065318Y-46644432D01*
X4045933Y-46642932D01*
X4031132Y-46640627D01*
X4031129Y-46640627D01*
X4022260Y-46639246D01*
X4005091Y-46641491D01*
X3981151Y-46642324D01*
X3723220Y-46626722D01*
X3708116Y-46624888D01*
X3637342Y-46611918D01*
X3427111Y-46573392D01*
X3412349Y-46569754D01*
X3139582Y-46484757D01*
X3125360Y-46479362D01*
X2864850Y-46362116D01*
X2851381Y-46355047D01*
X2606895Y-46207250D01*
X2594373Y-46198607D01*
X2369483Y-46022416D01*
X2358095Y-46012326D01*
X2156096Y-45810327D01*
X2146006Y-45798939D01*
X1969815Y-45574049D01*
X1961172Y-45561527D01*
X1813375Y-45317041D01*
X1806304Y-45303568D01*
X1765525Y-45212959D01*
X1689059Y-45043059D01*
X1683664Y-45028836D01*
X1664322Y-44966766D01*
X1598668Y-44756073D01*
X1595028Y-44741305D01*
X1543534Y-44460306D01*
X1541700Y-44445202D01*
X1526535Y-44194503D01*
X1527792Y-44167793D01*
X1527795Y-44167573D01*
X1529176Y-44158702D01*
X1527537Y-44146162D01*
X1525054Y-44127181D01*
X1523990Y-44110843D01*
X1523990Y-43080297D01*
X2952668Y-43080297D01*
X2969217Y-43367311D01*
X2970042Y-43371516D01*
X2970043Y-43371524D01*
X3001989Y-43534349D01*
X3024565Y-43649423D01*
X3025952Y-43653473D01*
X3025953Y-43653478D01*
X3116300Y-43917358D01*
X3117689Y-43921414D01*
X3119616Y-43925245D01*
X3241605Y-44167793D01*
X3246864Y-44178250D01*
X3409700Y-44415178D01*
X3603185Y-44627816D01*
X3606480Y-44630571D01*
X3606481Y-44630572D01*
X3756587Y-44756079D01*
X3823738Y-44812226D01*
X4067277Y-44964999D01*
X4329297Y-45083305D01*
X4333416Y-45084525D01*
X4600836Y-45163739D01*
X4600841Y-45163740D01*
X4604949Y-45164957D01*
X4609183Y-45165605D01*
X4609188Y-45165606D01*
X4857790Y-45203647D01*
X4889132Y-45208443D01*
X5035464Y-45210742D01*
X5172296Y-45212892D01*
X5172302Y-45212892D01*
X5176587Y-45212959D01*
X5180839Y-45212444D01*
X5180847Y-45212444D01*
X5457735Y-45178936D01*
X5457740Y-45178935D01*
X5461996Y-45178420D01*
X5740076Y-45105467D01*
X6005683Y-44995449D01*
X6253901Y-44850402D01*
X6480138Y-44673010D01*
X6521264Y-44630572D01*
X6677223Y-44469634D01*
X6680206Y-44466556D01*
X6682739Y-44463108D01*
X6682743Y-44463103D01*
X6847866Y-44238314D01*
X6850404Y-44234859D01*
X6898563Y-44146162D01*
X6985533Y-43985983D01*
X6985534Y-43985981D01*
X6987583Y-43982207D01*
X7089204Y-43713276D01*
X7153386Y-43433041D01*
X7178942Y-43146688D01*
X7179406Y-43102428D01*
X7177897Y-43080297D01*
X17930667Y-43080297D01*
X17947216Y-43367311D01*
X17948041Y-43371516D01*
X17948042Y-43371524D01*
X17979988Y-43534349D01*
X18002564Y-43649423D01*
X18003951Y-43653473D01*
X18003952Y-43653478D01*
X18094299Y-43917358D01*
X18095688Y-43921414D01*
X18097615Y-43925245D01*
X18219604Y-44167793D01*
X18224863Y-44178250D01*
X18387699Y-44415178D01*
X18581184Y-44627816D01*
X18584479Y-44630571D01*
X18584480Y-44630572D01*
X18734586Y-44756079D01*
X18801737Y-44812226D01*
X19045276Y-44964999D01*
X19307296Y-45083305D01*
X19311415Y-45084525D01*
X19578835Y-45163739D01*
X19578840Y-45163740D01*
X19582948Y-45164957D01*
X19587182Y-45165605D01*
X19587187Y-45165606D01*
X19835789Y-45203647D01*
X19867131Y-45208443D01*
X20013463Y-45210742D01*
X20150295Y-45212892D01*
X20150301Y-45212892D01*
X20154586Y-45212959D01*
X20158838Y-45212444D01*
X20158846Y-45212444D01*
X20435734Y-45178936D01*
X20435739Y-45178935D01*
X20439995Y-45178420D01*
X20718075Y-45105467D01*
X20983682Y-44995449D01*
X21231900Y-44850402D01*
X21458137Y-44673010D01*
X21499263Y-44630572D01*
X21655222Y-44469634D01*
X21658205Y-44466556D01*
X21660738Y-44463108D01*
X21660742Y-44463103D01*
X21825865Y-44238314D01*
X21828403Y-44234859D01*
X21876562Y-44146162D01*
X21963532Y-43985983D01*
X21963533Y-43985981D01*
X21965582Y-43982207D01*
X22067203Y-43713276D01*
X22131385Y-43433041D01*
X22156941Y-43146688D01*
X22157405Y-43102428D01*
X22137851Y-42815603D01*
X22133314Y-42793692D01*
X22080421Y-42538283D01*
X22079552Y-42534086D01*
X21983585Y-42263085D01*
X21851728Y-42007616D01*
X21838466Y-41988745D01*
X21688882Y-41775910D01*
X21686419Y-41772405D01*
X21490718Y-41561806D01*
X21268246Y-41379715D01*
X21023120Y-41229501D01*
X21005026Y-41221558D01*
X20763808Y-41115671D01*
X20759876Y-41113945D01*
X20733941Y-41106557D01*
X20487512Y-41036360D01*
X20487513Y-41036360D01*
X20483384Y-41035184D01*
X20270682Y-41004913D01*
X20203014Y-40995282D01*
X20203012Y-40995282D01*
X20198762Y-40994677D01*
X20194473Y-40994655D01*
X20194466Y-40994654D01*
X19915561Y-40993193D01*
X19915554Y-40993193D01*
X19911275Y-40993171D01*
X19907031Y-40993730D01*
X19907027Y-40993730D01*
X19781638Y-41010238D01*
X19626244Y-41030696D01*
X19622104Y-41031829D01*
X19622102Y-41031829D01*
X19545289Y-41052843D01*
X19348942Y-41106557D01*
X19344994Y-41108241D01*
X19088454Y-41217665D01*
X19088450Y-41217667D01*
X19084502Y-41219351D01*
X19011503Y-41263040D01*
X18841499Y-41364785D01*
X18841495Y-41364788D01*
X18837817Y-41366989D01*
X18834474Y-41369667D01*
X18834470Y-41369670D01*
X18729865Y-41453475D01*
X18664195Y-41480457D01*
X18659552Y-41479606D01*
X18657452Y-41494206D01*
X18621619Y-41540196D01*
X18616796Y-41544060D01*
X18613450Y-41546741D01*
X18415555Y-41755279D01*
X18247792Y-41988745D01*
X18113266Y-42242820D01*
X18014467Y-42512801D01*
X17953223Y-42793692D01*
X17930667Y-43080297D01*
X7177897Y-43080297D01*
X7159852Y-42815603D01*
X7155315Y-42793692D01*
X7102422Y-42538283D01*
X7101553Y-42534086D01*
X7005586Y-42263085D01*
X6873729Y-42007616D01*
X6860467Y-41988745D01*
X6710883Y-41775910D01*
X6708420Y-41772405D01*
X6512719Y-41561806D01*
X6488831Y-41542254D01*
X6448785Y-41483629D01*
X6446792Y-41412661D01*
X6483483Y-41351880D01*
X6547210Y-41320585D01*
X6568637Y-41318750D01*
X18533000Y-41318750D01*
X18533000Y-34481250D01*
X6467000Y-34481250D01*
X6467000Y-41263040D01*
X6446998Y-41331161D01*
X6393342Y-41377654D01*
X6323068Y-41387758D01*
X6275165Y-41370472D01*
X6048789Y-41231748D01*
X6048778Y-41231742D01*
X6045121Y-41229501D01*
X6027027Y-41221558D01*
X5785809Y-41115671D01*
X5781877Y-41113945D01*
X5755942Y-41106557D01*
X5509513Y-41036360D01*
X5509514Y-41036360D01*
X5505385Y-41035184D01*
X5292683Y-41004913D01*
X5225015Y-40995282D01*
X5225013Y-40995282D01*
X5220763Y-40994677D01*
X5216474Y-40994655D01*
X5216467Y-40994654D01*
X4937562Y-40993193D01*
X4937555Y-40993193D01*
X4933276Y-40993171D01*
X4929032Y-40993730D01*
X4929028Y-40993730D01*
X4803639Y-41010238D01*
X4648245Y-41030696D01*
X4644105Y-41031829D01*
X4644103Y-41031829D01*
X4567290Y-41052843D01*
X4370943Y-41106557D01*
X4366995Y-41108241D01*
X4110455Y-41217665D01*
X4110451Y-41217667D01*
X4106503Y-41219351D01*
X4033504Y-41263040D01*
X3863500Y-41364785D01*
X3863496Y-41364788D01*
X3859818Y-41366989D01*
X3635451Y-41546741D01*
X3437556Y-41755279D01*
X3269793Y-41988745D01*
X3135267Y-42242820D01*
X3036468Y-42512801D01*
X2975224Y-42793692D01*
X2952668Y-43080297D01*
X1523990Y-43080297D01*
X1523990Y-32954894D01*
X2011234Y-32954894D01*
X2011531Y-32960047D01*
X2011531Y-32960050D01*
X2016994Y-33054789D01*
X2024093Y-33177914D01*
X2025230Y-33182960D01*
X2025231Y-33182966D01*
X2045102Y-33271138D01*
X2073205Y-33395838D01*
X2132997Y-33543089D01*
X2150645Y-33586550D01*
X2157249Y-33602815D01*
X2273970Y-33793287D01*
X2420233Y-33962137D01*
X2592109Y-34104831D01*
X2784983Y-34217537D01*
X2993675Y-34297229D01*
X2998743Y-34298260D01*
X2998746Y-34298261D01*
X3106000Y-34320082D01*
X3212580Y-34341766D01*
X3217755Y-34341956D01*
X3217757Y-34341956D01*
X3430656Y-34349763D01*
X3430660Y-34349763D01*
X3435820Y-34349952D01*
X3440940Y-34349296D01*
X3440942Y-34349296D01*
X3652271Y-34322224D01*
X3652272Y-34322224D01*
X3657399Y-34321567D01*
X3662349Y-34320082D01*
X3866412Y-34258860D01*
X3866417Y-34258858D01*
X3871367Y-34257373D01*
X4071977Y-34159095D01*
X4253843Y-34029372D01*
X4412079Y-33871688D01*
X4471577Y-33788888D01*
X4539418Y-33694476D01*
X4542436Y-33690276D01*
X4544729Y-33685636D01*
X4546429Y-33682807D01*
X4598657Y-33634717D01*
X4654434Y-33621699D01*
X10179454Y-33621699D01*
X10190637Y-33622226D01*
X10198130Y-33623901D01*
X10206056Y-33623652D01*
X10206057Y-33623652D01*
X10266207Y-33621761D01*
X10270166Y-33621699D01*
X10298077Y-33621699D01*
X10302012Y-33621202D01*
X10302077Y-33621194D01*
X10313914Y-33620261D01*
X10346172Y-33619247D01*
X10350191Y-33619121D01*
X10358110Y-33618872D01*
X10377564Y-33613220D01*
X10396921Y-33609212D01*
X10409151Y-33607667D01*
X10409152Y-33607667D01*
X10417018Y-33606673D01*
X10424389Y-33603754D01*
X10424391Y-33603754D01*
X10458133Y-33590395D01*
X10469363Y-33586550D01*
X10504204Y-33576428D01*
X10504205Y-33576428D01*
X10511814Y-33574217D01*
X10518633Y-33570184D01*
X10518638Y-33570182D01*
X10529249Y-33563906D01*
X10546997Y-33555211D01*
X10565838Y-33547751D01*
X10601608Y-33521763D01*
X10611528Y-33515247D01*
X10642756Y-33496779D01*
X10642759Y-33496777D01*
X10649583Y-33492741D01*
X10663904Y-33478420D01*
X10678938Y-33465579D01*
X10688915Y-33458330D01*
X10695328Y-33453671D01*
X10700378Y-33447567D01*
X10700383Y-33447562D01*
X10723514Y-33419601D01*
X10731504Y-33410820D01*
X11692258Y-32450067D01*
X11700537Y-32442533D01*
X11707018Y-32438420D01*
X11753644Y-32388768D01*
X11756398Y-32385927D01*
X11776135Y-32366190D01*
X11778615Y-32362993D01*
X11786320Y-32353971D01*
X11799730Y-32339691D01*
X11816586Y-32321741D01*
X11820405Y-32314795D01*
X11820407Y-32314792D01*
X11826348Y-32303986D01*
X11837199Y-32287467D01*
X11844758Y-32277721D01*
X11849614Y-32271461D01*
X11852759Y-32264192D01*
X11852762Y-32264188D01*
X11867174Y-32230883D01*
X11872391Y-32220233D01*
X11893695Y-32181480D01*
X11898733Y-32161857D01*
X11905137Y-32143154D01*
X11910033Y-32131840D01*
X11910033Y-32131839D01*
X11913181Y-32124565D01*
X11914420Y-32116742D01*
X11914423Y-32116732D01*
X11920099Y-32080896D01*
X11922505Y-32069276D01*
X11931528Y-32034131D01*
X11931528Y-32034130D01*
X11933500Y-32026450D01*
X11933500Y-32006196D01*
X11935051Y-31986485D01*
X11936980Y-31974306D01*
X11938220Y-31966477D01*
X11934059Y-31922458D01*
X11933500Y-31910601D01*
X11933500Y-13524095D01*
X11953502Y-13455974D01*
X11978931Y-13427221D01*
X12082748Y-13340877D01*
X12087186Y-13337186D01*
X12097113Y-13325249D01*
X12177221Y-13228931D01*
X12236159Y-13189347D01*
X12274095Y-13183500D01*
X20626961Y-13183500D01*
X20695082Y-13203502D01*
X20716057Y-13220405D01*
X21065595Y-13569944D01*
X21099620Y-13632256D01*
X21102499Y-13659039D01*
X21102499Y-13929891D01*
X21082497Y-13998012D01*
X21034682Y-14041652D01*
X21009606Y-14054706D01*
X21005473Y-14057809D01*
X21005470Y-14057811D01*
X20854750Y-14170975D01*
X20830964Y-14188834D01*
X20676628Y-14350337D01*
X20673714Y-14354609D01*
X20673713Y-14354610D01*
X20655837Y-14380816D01*
X20550742Y-14534879D01*
X20456687Y-14737504D01*
X20396988Y-14952769D01*
X20373250Y-15174894D01*
X20373547Y-15180047D01*
X20373547Y-15180050D01*
X20379010Y-15274789D01*
X20386109Y-15397914D01*
X20387246Y-15402960D01*
X20387247Y-15402966D01*
X20407118Y-15491138D01*
X20435221Y-15615838D01*
X20519265Y-15822815D01*
X20635986Y-16013287D01*
X20782249Y-16182137D01*
X20954125Y-16324831D01*
X21024594Y-16366010D01*
X21027444Y-16367675D01*
X21076168Y-16419313D01*
X21089239Y-16489096D01*
X21062508Y-16554868D01*
X21022054Y-16588226D01*
X21009606Y-16594706D01*
X21005473Y-16597809D01*
X21005470Y-16597811D01*
X20881566Y-16690841D01*
X20830964Y-16728834D01*
X20676628Y-16890337D01*
X20550742Y-17074879D01*
X20456687Y-17277504D01*
X20396988Y-17492769D01*
X20373250Y-17714894D01*
X20373547Y-17720047D01*
X20373547Y-17720050D01*
X20379010Y-17814789D01*
X20386109Y-17937914D01*
X20387246Y-17942960D01*
X20387247Y-17942966D01*
X20396908Y-17985834D01*
X20435221Y-18155838D01*
X20519265Y-18362815D01*
X20521964Y-18367219D01*
X20615297Y-18519525D01*
X20635986Y-18553287D01*
X20782249Y-18722137D01*
X20954125Y-18864831D01*
X20997120Y-18889955D01*
X21027444Y-18907675D01*
X21076168Y-18959313D01*
X21089239Y-19029096D01*
X21062508Y-19094868D01*
X21022054Y-19128226D01*
X21009606Y-19134706D01*
X21005473Y-19137809D01*
X21005470Y-19137811D01*
X20835099Y-19265729D01*
X20830964Y-19268834D01*
X20676628Y-19430337D01*
X20673714Y-19434609D01*
X20673713Y-19434610D01*
X20561094Y-19599703D01*
X20506183Y-19644706D01*
X20457006Y-19654699D01*
X17207023Y-19654699D01*
X17138902Y-19634697D01*
X17106065Y-19604088D01*
X17074746Y-19562147D01*
X17074746Y-19562146D01*
X17071293Y-19557523D01*
X16938327Y-19434610D01*
X16925931Y-19423151D01*
X16925928Y-19423149D01*
X16921691Y-19419232D01*
X16875663Y-19390191D01*
X16754276Y-19313601D01*
X16754271Y-19313599D01*
X16749392Y-19310520D01*
X16560168Y-19235027D01*
X16360354Y-19195281D01*
X16354580Y-19195205D01*
X16354576Y-19195205D01*
X16251440Y-19193856D01*
X16156643Y-19192615D01*
X16150946Y-19193594D01*
X16150945Y-19193594D01*
X15961555Y-19226137D01*
X15955858Y-19227116D01*
X15764722Y-19297630D01*
X15589637Y-19401795D01*
X15436466Y-19536122D01*
X15432899Y-19540647D01*
X15432894Y-19540652D01*
X15354819Y-19639691D01*
X15310339Y-19696113D01*
X15215480Y-19876410D01*
X15155066Y-20070975D01*
X15131120Y-20273291D01*
X15144445Y-20476583D01*
X15194593Y-20674042D01*
X15279886Y-20859056D01*
X15397467Y-21025429D01*
X15543398Y-21167589D01*
X15548194Y-21170794D01*
X15548197Y-21170796D01*
X15554992Y-21175336D01*
X15712791Y-21280774D01*
X15718094Y-21283052D01*
X15718097Y-21283054D01*
X15818052Y-21325998D01*
X15899975Y-21361195D01*
X15972805Y-21377675D01*
X16093043Y-21404882D01*
X16093048Y-21404883D01*
X16098680Y-21406157D01*
X16104451Y-21406384D01*
X16104453Y-21406384D01*
X16167458Y-21408859D01*
X16302251Y-21414155D01*
X16503871Y-21384922D01*
X16509335Y-21383067D01*
X16509340Y-21383066D01*
X16691315Y-21321294D01*
X16691320Y-21321292D01*
X16696787Y-21319436D01*
X16874539Y-21219890D01*
X17031174Y-21089618D01*
X17133047Y-20967130D01*
X17191983Y-20927546D01*
X17229920Y-20921699D01*
X20460273Y-20921699D01*
X20528394Y-20941701D01*
X20567706Y-20981864D01*
X20635986Y-21093287D01*
X20782249Y-21262137D01*
X20954125Y-21404831D01*
X21024594Y-21446010D01*
X21027444Y-21447675D01*
X21076168Y-21499313D01*
X21089239Y-21569096D01*
X21062508Y-21634868D01*
X21022054Y-21668226D01*
X21009606Y-21674706D01*
X21005473Y-21677809D01*
X21005470Y-21677811D01*
X20981246Y-21695999D01*
X20830964Y-21808834D01*
X20676628Y-21970337D01*
X20673714Y-21974609D01*
X20673713Y-21974610D01*
X20661403Y-21992656D01*
X20550742Y-22154879D01*
X20456687Y-22357504D01*
X20396988Y-22572769D01*
X20373250Y-22794894D01*
X20373547Y-22800047D01*
X20373547Y-22800050D01*
X20379010Y-22894789D01*
X20386109Y-23017914D01*
X20387246Y-23022960D01*
X20387247Y-23022966D01*
X20400596Y-23082199D01*
X20435221Y-23235838D01*
X20519265Y-23442815D01*
X20635986Y-23633287D01*
X20782249Y-23802137D01*
X20954125Y-23944831D01*
X21024594Y-23986010D01*
X21027444Y-23987675D01*
X21076168Y-24039313D01*
X21089239Y-24109096D01*
X21062508Y-24174868D01*
X21022054Y-24208226D01*
X21009606Y-24214706D01*
X21005473Y-24217809D01*
X21005470Y-24217811D01*
X20835099Y-24345729D01*
X20830964Y-24348834D01*
X20676628Y-24510337D01*
X20673714Y-24514609D01*
X20673713Y-24514610D01*
X20561094Y-24679703D01*
X20506183Y-24724706D01*
X20457006Y-24734699D01*
X18779425Y-24734699D01*
X18711304Y-24714697D01*
X18678467Y-24684088D01*
X18624746Y-24612147D01*
X18624745Y-24612146D01*
X18621293Y-24607523D01*
X18516158Y-24510337D01*
X18475931Y-24473151D01*
X18475928Y-24473149D01*
X18471691Y-24469232D01*
X18425663Y-24440191D01*
X18304276Y-24363601D01*
X18304271Y-24363599D01*
X18299392Y-24360520D01*
X18110168Y-24285027D01*
X17910354Y-24245281D01*
X17904580Y-24245205D01*
X17904576Y-24245205D01*
X17801440Y-24243856D01*
X17706643Y-24242615D01*
X17700946Y-24243594D01*
X17700945Y-24243594D01*
X17511555Y-24276137D01*
X17505858Y-24277116D01*
X17314722Y-24347630D01*
X17139637Y-24451795D01*
X16986466Y-24586122D01*
X16982899Y-24590647D01*
X16982894Y-24590652D01*
X16909236Y-24684088D01*
X16860339Y-24746113D01*
X16765480Y-24926410D01*
X16705066Y-25120975D01*
X16681120Y-25323291D01*
X16694445Y-25526583D01*
X16744593Y-25724042D01*
X16829886Y-25909056D01*
X16947467Y-26075429D01*
X17093398Y-26217589D01*
X17098194Y-26220794D01*
X17098197Y-26220796D01*
X17149890Y-26255336D01*
X17262791Y-26330774D01*
X17268094Y-26333052D01*
X17268097Y-26333054D01*
X17357103Y-26371294D01*
X17449975Y-26411195D01*
X17522805Y-26427675D01*
X17643043Y-26454882D01*
X17643048Y-26454883D01*
X17648680Y-26456157D01*
X17654451Y-26456384D01*
X17654453Y-26456384D01*
X17717458Y-26458859D01*
X17852251Y-26464155D01*
X18053871Y-26434922D01*
X18059335Y-26433067D01*
X18059340Y-26433066D01*
X18241315Y-26371294D01*
X18241320Y-26371292D01*
X18246787Y-26369436D01*
X18424539Y-26269890D01*
X18581174Y-26139618D01*
X18658096Y-26047129D01*
X18717032Y-26007546D01*
X18754969Y-26001699D01*
X20460273Y-26001699D01*
X20528394Y-26021701D01*
X20567706Y-26061864D01*
X20635986Y-26173287D01*
X20782249Y-26342137D01*
X20954125Y-26484831D01*
X21024594Y-26526010D01*
X21027444Y-26527675D01*
X21076168Y-26579313D01*
X21089239Y-26649096D01*
X21062508Y-26714868D01*
X21022054Y-26748226D01*
X21009606Y-26754706D01*
X21005473Y-26757809D01*
X21005470Y-26757811D01*
X20981246Y-26775999D01*
X20830964Y-26888834D01*
X20676628Y-27050337D01*
X20550742Y-27234879D01*
X20535002Y-27268789D01*
X20474170Y-27399841D01*
X20456687Y-27437504D01*
X20396988Y-27652769D01*
X20373250Y-27874894D01*
X20373547Y-27880047D01*
X20373547Y-27880050D01*
X20379010Y-27974789D01*
X20386109Y-28097914D01*
X20387246Y-28102960D01*
X20387247Y-28102966D01*
X20407118Y-28191138D01*
X20435221Y-28315838D01*
X20495013Y-28463089D01*
X20512661Y-28506550D01*
X20519265Y-28522815D01*
X20635986Y-28713287D01*
X20782249Y-28882137D01*
X20954125Y-29024831D01*
X21024594Y-29066010D01*
X21027444Y-29067675D01*
X21076168Y-29119313D01*
X21089239Y-29189096D01*
X21062508Y-29254868D01*
X21022054Y-29288226D01*
X21009606Y-29294706D01*
X21005473Y-29297809D01*
X21005470Y-29297811D01*
X20981246Y-29315999D01*
X20830964Y-29428834D01*
X20676628Y-29590337D01*
X20550742Y-29774879D01*
X20456687Y-29977504D01*
X20396988Y-30192769D01*
X20373250Y-30414894D01*
X20373547Y-30420047D01*
X20373547Y-30420050D01*
X20379010Y-30514789D01*
X20386109Y-30637914D01*
X20387246Y-30642960D01*
X20387247Y-30642966D01*
X20407118Y-30731138D01*
X20435221Y-30855838D01*
X20519265Y-31062815D01*
X20635986Y-31253287D01*
X20782249Y-31422137D01*
X20954125Y-31564831D01*
X21024594Y-31606010D01*
X21027444Y-31607675D01*
X21076168Y-31659313D01*
X21089239Y-31729096D01*
X21062508Y-31794868D01*
X21022054Y-31828226D01*
X21009606Y-31834706D01*
X21005473Y-31837809D01*
X21005470Y-31837811D01*
X20844614Y-31958585D01*
X20830964Y-31968834D01*
X20676628Y-32130337D01*
X20550742Y-32314879D01*
X20516444Y-32388769D01*
X20490887Y-32443827D01*
X20456687Y-32517504D01*
X20396988Y-32732769D01*
X20373250Y-32954894D01*
X20373547Y-32960047D01*
X20373547Y-32960050D01*
X20379010Y-33054789D01*
X20386109Y-33177914D01*
X20387246Y-33182960D01*
X20387247Y-33182966D01*
X20407118Y-33271138D01*
X20435221Y-33395838D01*
X20495013Y-33543089D01*
X20512661Y-33586550D01*
X20519265Y-33602815D01*
X20635986Y-33793287D01*
X20782249Y-33962137D01*
X20954125Y-34104831D01*
X21146999Y-34217537D01*
X21355691Y-34297229D01*
X21360759Y-34298260D01*
X21360762Y-34298261D01*
X21468016Y-34320082D01*
X21574596Y-34341766D01*
X21579771Y-34341956D01*
X21579773Y-34341956D01*
X21792672Y-34349763D01*
X21792676Y-34349763D01*
X21797836Y-34349952D01*
X21802956Y-34349296D01*
X21802958Y-34349296D01*
X22014287Y-34322224D01*
X22014288Y-34322224D01*
X22019415Y-34321567D01*
X22024365Y-34320082D01*
X22228428Y-34258860D01*
X22228433Y-34258858D01*
X22233383Y-34257373D01*
X22433993Y-34159095D01*
X22615859Y-34029372D01*
X22774095Y-33871688D01*
X22833593Y-33788888D01*
X22901434Y-33694476D01*
X22904452Y-33690276D01*
X22908144Y-33682807D01*
X23001135Y-33494652D01*
X23001136Y-33494650D01*
X23003429Y-33490010D01*
X23068369Y-33276268D01*
X23097528Y-33054789D01*
X23099155Y-32988199D01*
X23080851Y-32765560D01*
X23026430Y-32548901D01*
X22937353Y-32344039D01*
X22816013Y-32156476D01*
X22665669Y-31991250D01*
X22661618Y-31988051D01*
X22661614Y-31988047D01*
X22494413Y-31855999D01*
X22494409Y-31855997D01*
X22490358Y-31852797D01*
X22449052Y-31829995D01*
X22399083Y-31779563D01*
X22384311Y-31710120D01*
X22409427Y-31643715D01*
X22436779Y-31617108D01*
X22480602Y-31585849D01*
X22615859Y-31489372D01*
X22774095Y-31331688D01*
X22833593Y-31248888D01*
X22901434Y-31154476D01*
X22904452Y-31150276D01*
X23003429Y-30950010D01*
X23068369Y-30736268D01*
X23097528Y-30514789D01*
X23099155Y-30448199D01*
X23080851Y-30225560D01*
X23026430Y-30008901D01*
X22937353Y-29804039D01*
X22816013Y-29616476D01*
X22665669Y-29451250D01*
X22661618Y-29448051D01*
X22661614Y-29448047D01*
X22494413Y-29315999D01*
X22494409Y-29315997D01*
X22490358Y-29312797D01*
X22449052Y-29289995D01*
X22399083Y-29239563D01*
X22384311Y-29170120D01*
X22409427Y-29103715D01*
X22436779Y-29077108D01*
X22480602Y-29045849D01*
X22615859Y-28949372D01*
X22774095Y-28791688D01*
X22833593Y-28708888D01*
X22901434Y-28614476D01*
X22904452Y-28610276D01*
X22908144Y-28602807D01*
X23001135Y-28414652D01*
X23001136Y-28414650D01*
X23003429Y-28410010D01*
X23068369Y-28196268D01*
X23097528Y-27974789D01*
X23099155Y-27908199D01*
X23080851Y-27685560D01*
X23026430Y-27468901D01*
X22937353Y-27264039D01*
X22816013Y-27076476D01*
X22665669Y-26911250D01*
X22661618Y-26908051D01*
X22661614Y-26908047D01*
X22494413Y-26775999D01*
X22494409Y-26775997D01*
X22490358Y-26772797D01*
X22449052Y-26749995D01*
X22399083Y-26699563D01*
X22384311Y-26630120D01*
X22409427Y-26563715D01*
X22436779Y-26537108D01*
X22480602Y-26505849D01*
X22615859Y-26409372D01*
X22774095Y-26251688D01*
X22798598Y-26217589D01*
X22901434Y-26074476D01*
X22904452Y-26070276D01*
X22908610Y-26061864D01*
X23001135Y-25874652D01*
X23001136Y-25874650D01*
X23003429Y-25870010D01*
X23068369Y-25656268D01*
X23097528Y-25434789D01*
X23099155Y-25368199D01*
X23080851Y-25145560D01*
X23026430Y-24928901D01*
X22937353Y-24724039D01*
X22864967Y-24612147D01*
X22818821Y-24540816D01*
X22818819Y-24540813D01*
X22816013Y-24536476D01*
X22665669Y-24371250D01*
X22661618Y-24368051D01*
X22661614Y-24368047D01*
X22494413Y-24235999D01*
X22494409Y-24235997D01*
X22490358Y-24232797D01*
X22449052Y-24209995D01*
X22399083Y-24159563D01*
X22384311Y-24090120D01*
X22409427Y-24023715D01*
X22436779Y-23997108D01*
X22480602Y-23965849D01*
X22615859Y-23869372D01*
X22774095Y-23711688D01*
X22833593Y-23628888D01*
X22901434Y-23534476D01*
X22904452Y-23530276D01*
X23003429Y-23330010D01*
X23068369Y-23116268D01*
X23097528Y-22894789D01*
X23099155Y-22828199D01*
X23080851Y-22605560D01*
X23026430Y-22388901D01*
X22937353Y-22184039D01*
X22816013Y-21996476D01*
X22665669Y-21831250D01*
X22661618Y-21828051D01*
X22661614Y-21828047D01*
X22494413Y-21695999D01*
X22494409Y-21695997D01*
X22490358Y-21692797D01*
X22449052Y-21669995D01*
X22399083Y-21619563D01*
X22384311Y-21550120D01*
X22409427Y-21483715D01*
X22436779Y-21457108D01*
X22498159Y-21413326D01*
X22615859Y-21329372D01*
X22623966Y-21321294D01*
X22770434Y-21175336D01*
X22774095Y-21171688D01*
X22833593Y-21088888D01*
X22901434Y-20994476D01*
X22904452Y-20990276D01*
X22908610Y-20981864D01*
X23001135Y-20794652D01*
X23001136Y-20794650D01*
X23003429Y-20790010D01*
X23054711Y-20621222D01*
X23066864Y-20581222D01*
X23066864Y-20581220D01*
X23068369Y-20576268D01*
X23097528Y-20354789D01*
X23099155Y-20288199D01*
X23080851Y-20065560D01*
X23026430Y-19848901D01*
X22937353Y-19644039D01*
X22869649Y-19539384D01*
X22818821Y-19460816D01*
X22818819Y-19460813D01*
X22816013Y-19456476D01*
X22665669Y-19291250D01*
X22661618Y-19288051D01*
X22661614Y-19288047D01*
X22494413Y-19155999D01*
X22494409Y-19155997D01*
X22490358Y-19152797D01*
X22449052Y-19129995D01*
X22399083Y-19079563D01*
X22384311Y-19010120D01*
X22409427Y-18943715D01*
X22436779Y-18917108D01*
X22480602Y-18885849D01*
X22615859Y-18789372D01*
X22774095Y-18631688D01*
X22833593Y-18548888D01*
X22901434Y-18454476D01*
X22904452Y-18450276D01*
X22922535Y-18413689D01*
X23001135Y-18254652D01*
X23001136Y-18254650D01*
X23003429Y-18250010D01*
X23068369Y-18036268D01*
X23097528Y-17814789D01*
X23099155Y-17748199D01*
X23080851Y-17525560D01*
X23026430Y-17308901D01*
X22937353Y-17104039D01*
X22897905Y-17043061D01*
X22818821Y-16920816D01*
X22818819Y-16920813D01*
X22816013Y-16916476D01*
X22665669Y-16751250D01*
X22661618Y-16748051D01*
X22661614Y-16748047D01*
X22494413Y-16615999D01*
X22494409Y-16615997D01*
X22490358Y-16612797D01*
X22449052Y-16589995D01*
X22399083Y-16539563D01*
X22384311Y-16470120D01*
X22409427Y-16403715D01*
X22436779Y-16377108D01*
X22480602Y-16345849D01*
X22615859Y-16249372D01*
X22774095Y-16091688D01*
X22833593Y-16008888D01*
X22901434Y-15914476D01*
X22904452Y-15910276D01*
X23003429Y-15710010D01*
X23068369Y-15496268D01*
X23097528Y-15274789D01*
X23099155Y-15208199D01*
X23080851Y-14985560D01*
X23026430Y-14768901D01*
X22937353Y-14564039D01*
X22816013Y-14376476D01*
X22665669Y-14211250D01*
X22661618Y-14208051D01*
X22661614Y-14208047D01*
X22494413Y-14075999D01*
X22494409Y-14075997D01*
X22490358Y-14072797D01*
X22485834Y-14070300D01*
X22485830Y-14070297D01*
X22434607Y-14042021D01*
X22384635Y-13991589D01*
X22369499Y-13931712D01*
X22369499Y-13423210D01*
X22370026Y-13412027D01*
X22371701Y-13404534D01*
X22369561Y-13336457D01*
X22369499Y-13332498D01*
X22369499Y-13304587D01*
X22368994Y-13300587D01*
X22368061Y-13288744D01*
X22366921Y-13252473D01*
X22366672Y-13244554D01*
X22361020Y-13225100D01*
X22357012Y-13205743D01*
X22355467Y-13193513D01*
X22355467Y-13193512D01*
X22354473Y-13185646D01*
X22351045Y-13176988D01*
X22338195Y-13144531D01*
X22334350Y-13133301D01*
X22324228Y-13098460D01*
X22324228Y-13098459D01*
X22322017Y-13090850D01*
X22317984Y-13084031D01*
X22317982Y-13084026D01*
X22311706Y-13073415D01*
X22303011Y-13055667D01*
X22295551Y-13036826D01*
X22269563Y-13001056D01*
X22263047Y-12991136D01*
X22244579Y-12959908D01*
X22244577Y-12959905D01*
X22240541Y-12953081D01*
X22226220Y-12938760D01*
X22213379Y-12923726D01*
X22206130Y-12913749D01*
X22201471Y-12907336D01*
X22195366Y-12902285D01*
X22195361Y-12902280D01*
X22167395Y-12879144D01*
X22158617Y-12871156D01*
X21445208Y-12157747D01*
X21437668Y-12149461D01*
X21433556Y-12142982D01*
X21383904Y-12096356D01*
X21381063Y-12093602D01*
X21361326Y-12073865D01*
X21358129Y-12071385D01*
X21349107Y-12063680D01*
X21322656Y-12038841D01*
X21316877Y-12033414D01*
X21309931Y-12029595D01*
X21309928Y-12029593D01*
X21299122Y-12023652D01*
X21282603Y-12012801D01*
X21282139Y-12012441D01*
X21266597Y-12000386D01*
X21259328Y-11997241D01*
X21259324Y-11997238D01*
X21226019Y-11982826D01*
X21215369Y-11977609D01*
X21176616Y-11956305D01*
X21156993Y-11951267D01*
X21138290Y-11944863D01*
X21126976Y-11939967D01*
X21126975Y-11939967D01*
X21119701Y-11936819D01*
X21111878Y-11935580D01*
X21111868Y-11935577D01*
X21076032Y-11929901D01*
X21064412Y-11927495D01*
X21029267Y-11918472D01*
X21029266Y-11918472D01*
X21021586Y-11916500D01*
X21001332Y-11916500D01*
X20981621Y-11914949D01*
X20969442Y-11913020D01*
X20961613Y-11911780D01*
X20953721Y-11912526D01*
X20917595Y-11915941D01*
X20905737Y-11916500D01*
X18988145Y-11916500D01*
X18920024Y-11896498D01*
X18873531Y-11842842D01*
X18863427Y-11772568D01*
X18879723Y-11726682D01*
X18883165Y-11722207D01*
X18899461Y-11686065D01*
X18910821Y-11660868D01*
X18913469Y-11655356D01*
X18940742Y-11601946D01*
X18940743Y-11601944D01*
X18944072Y-11595424D01*
X18945813Y-11588310D01*
X18946108Y-11587516D01*
X18952923Y-11567735D01*
X18953189Y-11566898D01*
X18956198Y-11560224D01*
X18969002Y-11494164D01*
X18970311Y-11488192D01*
X18981406Y-11442849D01*
X18986305Y-11422829D01*
X18987001Y-11411611D01*
X18987001Y-11409789D01*
X18988067Y-11400241D01*
X18988616Y-11392972D01*
X18990009Y-11385785D01*
X18987105Y-11314435D01*
X18987001Y-11309311D01*
X18987001Y-8701393D01*
X18988704Y-8680747D01*
X18990085Y-8672433D01*
X18991285Y-8665209D01*
X18987288Y-8606115D01*
X18987001Y-8597612D01*
X18987001Y-8583505D01*
X18984395Y-8561155D01*
X18983836Y-8555084D01*
X18979788Y-8495226D01*
X18979787Y-8495223D01*
X18979294Y-8487927D01*
X18977134Y-8480936D01*
X18976984Y-8480129D01*
X18972663Y-8459640D01*
X18972459Y-8458777D01*
X18971611Y-8451503D01*
X18948644Y-8388230D01*
X18946705Y-8382454D01*
X18943091Y-8370755D01*
X18926840Y-8318159D01*
X18923128Y-8311850D01*
X18922768Y-8311034D01*
X18913862Y-8292117D01*
X18913482Y-8291357D01*
X18910985Y-8284479D01*
X18906975Y-8278362D01*
X18906972Y-8278357D01*
X18874074Y-8228180D01*
X18870847Y-8222987D01*
X18840454Y-8171327D01*
X18840453Y-8171326D01*
X18836738Y-8165011D01*
X18831673Y-8159724D01*
X18831129Y-8159005D01*
X18818132Y-8142673D01*
X18817577Y-8142009D01*
X18813560Y-8135882D01*
X18808247Y-8130849D01*
X18808242Y-8130843D01*
X18764703Y-8089598D01*
X18760368Y-8085288D01*
X18718889Y-8041988D01*
X18718887Y-8041986D01*
X18713822Y-8036699D01*
X18707677Y-8032719D01*
X18707001Y-8032160D01*
X18690569Y-8019234D01*
X18689878Y-8018717D01*
X18684564Y-8013683D01*
X18626375Y-7979884D01*
X18621179Y-7976695D01*
X18570832Y-7944085D01*
X18570823Y-7944081D01*
X18564685Y-7940105D01*
X18557790Y-7937646D01*
X18556997Y-7937254D01*
X18538031Y-7928454D01*
X18537239Y-7928110D01*
X18530916Y-7924437D01*
X18523913Y-7922316D01*
X18466514Y-7904932D01*
X18460706Y-7903018D01*
X18428793Y-7891635D01*
X18397325Y-7880411D01*
X18390056Y-7879605D01*
X18389238Y-7879416D01*
X18368718Y-7875207D01*
X18367860Y-7875053D01*
X18360858Y-7872932D01*
X18293706Y-7868766D01*
X18287616Y-7868240D01*
X18220721Y-7860819D01*
X18213454Y-7861707D01*
X18212610Y-7861712D01*
X18191705Y-7862336D01*
X18190825Y-7862384D01*
X18183512Y-7861930D01*
X18176296Y-7863170D01*
X18176294Y-7863170D01*
X18146790Y-7868240D01*
X18117188Y-7873326D01*
X18111158Y-7874213D01*
X18044348Y-7882380D01*
X18037479Y-7884917D01*
X18036629Y-7885123D01*
X18016459Y-7890530D01*
X18015602Y-7890782D01*
X18008392Y-7892021D01*
X18001655Y-7894888D01*
X18001654Y-7894888D01*
X17946466Y-7918371D01*
X17940783Y-7920628D01*
X17919592Y-7928454D01*
X17877665Y-7943938D01*
X17867977Y-7949637D01*
X17866466Y-7950657D01*
X17857957Y-7955114D01*
X17851623Y-7958727D01*
X17844892Y-7961591D01*
X17838999Y-7965927D01*
X17838995Y-7965930D01*
X17787379Y-8003915D01*
X17783191Y-8006868D01*
X15851542Y-9310744D01*
X15835947Y-9319720D01*
X15813004Y-9330826D01*
X15807327Y-9335445D01*
X15807317Y-9335451D01*
X15774562Y-9362100D01*
X15765542Y-9368793D01*
X15764843Y-9369265D01*
X15764834Y-9369272D01*
X15761809Y-9371314D01*
X15759038Y-9373695D01*
X15737615Y-9392102D01*
X15735023Y-9394269D01*
X15675172Y-9442963D01*
X15670707Y-9448767D01*
X15669735Y-9449766D01*
X15669211Y-9450258D01*
X15667956Y-9451583D01*
X15667408Y-9452233D01*
X15666558Y-9453155D01*
X15661010Y-9457922D01*
X15656710Y-9463834D01*
X15656707Y-9463837D01*
X15615922Y-9519910D01*
X15613896Y-9522619D01*
X15566832Y-9583801D01*
X15563825Y-9590470D01*
X15563103Y-9591676D01*
X15562722Y-9592252D01*
X15561798Y-9593843D01*
X15561399Y-9594632D01*
X15560803Y-9595690D01*
X15556492Y-9601617D01*
X15553662Y-9608372D01*
X15553661Y-9608374D01*
X15526884Y-9672291D01*
X15525535Y-9675393D01*
X15496806Y-9739113D01*
X15496804Y-9739118D01*
X15493799Y-9745784D01*
X15492407Y-9752964D01*
X15491980Y-9754310D01*
X15491746Y-9754948D01*
X15491211Y-9756712D01*
X15491005Y-9757570D01*
X15490665Y-9758749D01*
X15487835Y-9765504D01*
X15486635Y-9772729D01*
X15475284Y-9841066D01*
X15474685Y-9844395D01*
X15459988Y-9920223D01*
X15460286Y-9927535D01*
X15460178Y-9928960D01*
X15460097Y-9929632D01*
X15459983Y-9931461D01*
X15459980Y-9932348D01*
X15459921Y-9933565D01*
X15458721Y-9940789D01*
X15463372Y-10009546D01*
X15463890Y-10017210D01*
X15464072Y-10020576D01*
X15467214Y-10097763D01*
X15469186Y-10104812D01*
X15469408Y-10106214D01*
X15469485Y-10106903D01*
X15469795Y-10108706D01*
X15469994Y-10109563D01*
X15470219Y-10110772D01*
X15470712Y-10118071D01*
X15493345Y-10191326D01*
X15494285Y-10194520D01*
X15515090Y-10268879D01*
X15518631Y-10275285D01*
X15519167Y-10276594D01*
X15519403Y-10277251D01*
X15520119Y-10278934D01*
X15520498Y-10279699D01*
X15521007Y-10280852D01*
X15523166Y-10287839D01*
X15526876Y-10294145D01*
X15562013Y-10353868D01*
X15563690Y-10356808D01*
X15601045Y-10424392D01*
X15605966Y-10429814D01*
X15606792Y-10430968D01*
X15607170Y-10431550D01*
X15608249Y-10433015D01*
X15608804Y-10433684D01*
X15609555Y-10434676D01*
X15613268Y-10440987D01*
X15618332Y-10446273D01*
X15666295Y-10496342D01*
X15668602Y-10498816D01*
X15694255Y-10527076D01*
X15720472Y-10555958D01*
X15724918Y-10559378D01*
X15729381Y-10562811D01*
X15729371Y-10562824D01*
X15731717Y-10564636D01*
X15736184Y-10569299D01*
X15742326Y-10573277D01*
X15804614Y-10613620D01*
X15806606Y-10614937D01*
X15834830Y-10633989D01*
X17393464Y-11686065D01*
X17438736Y-11740755D01*
X17447252Y-11811239D01*
X17416311Y-11875139D01*
X17355734Y-11912166D01*
X17322971Y-11916500D01*
X12273663Y-11916500D01*
X12205542Y-11896498D01*
X12172705Y-11865889D01*
X12130758Y-11809715D01*
X12130757Y-11809714D01*
X12127305Y-11805091D01*
X11977703Y-11666800D01*
X11931675Y-11637759D01*
X11810288Y-11561169D01*
X11810283Y-11561167D01*
X11805404Y-11558088D01*
X11616180Y-11482595D01*
X11416366Y-11442849D01*
X11410592Y-11442773D01*
X11410588Y-11442773D01*
X11307452Y-11441424D01*
X11212655Y-11440183D01*
X11206958Y-11441162D01*
X11206957Y-11441162D01*
X11017567Y-11473705D01*
X11011870Y-11474684D01*
X10820734Y-11545198D01*
X10815773Y-11548150D01*
X10815772Y-11548150D01*
X10725350Y-11601946D01*
X10645649Y-11649363D01*
X10492478Y-11783690D01*
X10488911Y-11788215D01*
X10488906Y-11788220D01*
X10445846Y-11842842D01*
X10366351Y-11943681D01*
X10363662Y-11948792D01*
X10363660Y-11948795D01*
X10360746Y-11954334D01*
X10271492Y-12123978D01*
X10211078Y-12318543D01*
X10187132Y-12520859D01*
X10200457Y-12724151D01*
X10250605Y-12921610D01*
X10335898Y-13106624D01*
X10337526Y-13108927D01*
X10354036Y-13176988D01*
X10330815Y-13244080D01*
X10275008Y-13287967D01*
X10215291Y-13296263D01*
X10210354Y-13295281D01*
X10204579Y-13295205D01*
X10204575Y-13295205D01*
X10103106Y-13293877D01*
X10006643Y-13292615D01*
X10000946Y-13293594D01*
X10000945Y-13293594D01*
X9913900Y-13308551D01*
X9805858Y-13327116D01*
X9614722Y-13397630D01*
X9439637Y-13501795D01*
X9286466Y-13636122D01*
X9282899Y-13640647D01*
X9282894Y-13640652D01*
X9196319Y-13750472D01*
X9160339Y-13796113D01*
X9157650Y-13801224D01*
X9157648Y-13801227D01*
X9109697Y-13892367D01*
X9065480Y-13976410D01*
X9005066Y-14170975D01*
X8981120Y-14373291D01*
X8994445Y-14576583D01*
X9044593Y-14774042D01*
X9129886Y-14959056D01*
X9247467Y-15125429D01*
X9393398Y-15267589D01*
X9404488Y-15274999D01*
X9450016Y-15329474D01*
X9460488Y-15379765D01*
X9460488Y-26587837D01*
X9440486Y-26655958D01*
X9423583Y-26676932D01*
X8862721Y-27237794D01*
X8800409Y-27271820D01*
X8773626Y-27274699D01*
X4650788Y-27274699D01*
X4582667Y-27254697D01*
X4544996Y-27217139D01*
X4456805Y-27080816D01*
X4456803Y-27080813D01*
X4453997Y-27076476D01*
X4303653Y-26911250D01*
X4299602Y-26908051D01*
X4299598Y-26908047D01*
X4132397Y-26775999D01*
X4132393Y-26775997D01*
X4128342Y-26772797D01*
X4087036Y-26749995D01*
X4037067Y-26699563D01*
X4022295Y-26630120D01*
X4047411Y-26563715D01*
X4074763Y-26537108D01*
X4118586Y-26505849D01*
X4253843Y-26409372D01*
X4412079Y-26251688D01*
X4436582Y-26217589D01*
X4539418Y-26074476D01*
X4542436Y-26070276D01*
X4546594Y-26061864D01*
X4639119Y-25874652D01*
X4639120Y-25874650D01*
X4641413Y-25870010D01*
X4706353Y-25656268D01*
X4735512Y-25434789D01*
X4737139Y-25368199D01*
X4718835Y-25145560D01*
X4664414Y-24928901D01*
X4575337Y-24724039D01*
X4502951Y-24612147D01*
X4456805Y-24540816D01*
X4456803Y-24540813D01*
X4453997Y-24536476D01*
X4303653Y-24371250D01*
X4299602Y-24368051D01*
X4299598Y-24368047D01*
X4132397Y-24235999D01*
X4132393Y-24235997D01*
X4128342Y-24232797D01*
X4086552Y-24209728D01*
X4036581Y-24159296D01*
X4021809Y-24089853D01*
X4046925Y-24023447D01*
X4074277Y-23996840D01*
X4249311Y-23871991D01*
X4257183Y-23865338D01*
X4408035Y-23715011D01*
X4414713Y-23707164D01*
X4538986Y-23534219D01*
X4544296Y-23525382D01*
X4638653Y-23334466D01*
X4642452Y-23324871D01*
X4704360Y-23121109D01*
X4706538Y-23111036D01*
X4707969Y-23100161D01*
X4705758Y-23085977D01*
X4692600Y-23082199D01*
X2057208Y-23082199D01*
X2043677Y-23086172D01*
X2042240Y-23096165D01*
X2072548Y-23230645D01*
X2075628Y-23240474D01*
X2155753Y-23437802D01*
X2160396Y-23446993D01*
X2271677Y-23628587D01*
X2277760Y-23636898D01*
X2417196Y-23797866D01*
X2424563Y-23805082D01*
X2588417Y-23941115D01*
X2596864Y-23947030D01*
X2665952Y-23987402D01*
X2714676Y-24039041D01*
X2727747Y-24108824D01*
X2701016Y-24174595D01*
X2660567Y-24207951D01*
X2647590Y-24214706D01*
X2643457Y-24217809D01*
X2643454Y-24217811D01*
X2473083Y-24345729D01*
X2468948Y-24348834D01*
X2314612Y-24510337D01*
X2311698Y-24514609D01*
X2311697Y-24514610D01*
X2248316Y-24607523D01*
X2188726Y-24694879D01*
X2094671Y-24897504D01*
X2034972Y-25112769D01*
X2011234Y-25334894D01*
X2011531Y-25340047D01*
X2011531Y-25340050D01*
X2023795Y-25552746D01*
X2024093Y-25557914D01*
X2025230Y-25562960D01*
X2025231Y-25562966D01*
X2045102Y-25651138D01*
X2073205Y-25775838D01*
X2157249Y-25982815D01*
X2159948Y-25987219D01*
X2271274Y-26168887D01*
X2273970Y-26173287D01*
X2420233Y-26342137D01*
X2592109Y-26484831D01*
X2662578Y-26526010D01*
X2665428Y-26527675D01*
X2714152Y-26579313D01*
X2727223Y-26649096D01*
X2700492Y-26714868D01*
X2660038Y-26748226D01*
X2647590Y-26754706D01*
X2643457Y-26757809D01*
X2643454Y-26757811D01*
X2619230Y-26775999D01*
X2468948Y-26888834D01*
X2314612Y-27050337D01*
X2188726Y-27234879D01*
X2172986Y-27268789D01*
X2112154Y-27399841D01*
X2094671Y-27437504D01*
X2034972Y-27652769D01*
X2011234Y-27874894D01*
X2011531Y-27880047D01*
X2011531Y-27880050D01*
X2016994Y-27974789D01*
X2024093Y-28097914D01*
X2025230Y-28102960D01*
X2025231Y-28102966D01*
X2045102Y-28191138D01*
X2073205Y-28315838D01*
X2132997Y-28463089D01*
X2150645Y-28506550D01*
X2157249Y-28522815D01*
X2273970Y-28713287D01*
X2420233Y-28882137D01*
X2592109Y-29024831D01*
X2662578Y-29066010D01*
X2665428Y-29067675D01*
X2714152Y-29119313D01*
X2727223Y-29189096D01*
X2700492Y-29254868D01*
X2660038Y-29288226D01*
X2647590Y-29294706D01*
X2643457Y-29297809D01*
X2643454Y-29297811D01*
X2619230Y-29315999D01*
X2468948Y-29428834D01*
X2314612Y-29590337D01*
X2188726Y-29774879D01*
X2094671Y-29977504D01*
X2034972Y-30192769D01*
X2011234Y-30414894D01*
X2011531Y-30420047D01*
X2011531Y-30420050D01*
X2016994Y-30514789D01*
X2024093Y-30637914D01*
X2025230Y-30642960D01*
X2025231Y-30642966D01*
X2045102Y-30731138D01*
X2073205Y-30855838D01*
X2157249Y-31062815D01*
X2273970Y-31253287D01*
X2420233Y-31422137D01*
X2592109Y-31564831D01*
X2662578Y-31606010D01*
X2665428Y-31607675D01*
X2714152Y-31659313D01*
X2727223Y-31729096D01*
X2700492Y-31794868D01*
X2660038Y-31828226D01*
X2647590Y-31834706D01*
X2643457Y-31837809D01*
X2643454Y-31837811D01*
X2482598Y-31958585D01*
X2468948Y-31968834D01*
X2314612Y-32130337D01*
X2188726Y-32314879D01*
X2154428Y-32388769D01*
X2128871Y-32443827D01*
X2094671Y-32517504D01*
X2034972Y-32732769D01*
X2011234Y-32954894D01*
X1523990Y-32954894D01*
X1523990Y-20254894D01*
X2011234Y-20254894D01*
X2011531Y-20260047D01*
X2011531Y-20260050D01*
X2016994Y-20354789D01*
X2024093Y-20477914D01*
X2025230Y-20482960D01*
X2025231Y-20482966D01*
X2045102Y-20571138D01*
X2073205Y-20695838D01*
X2157249Y-20902815D01*
X2159948Y-20907219D01*
X2271274Y-21088887D01*
X2273970Y-21093287D01*
X2420233Y-21262137D01*
X2592109Y-21404831D01*
X2665428Y-21447675D01*
X2665938Y-21447973D01*
X2714662Y-21499611D01*
X2727733Y-21569394D01*
X2701002Y-21635166D01*
X2660545Y-21668526D01*
X2652440Y-21672745D01*
X2643721Y-21678235D01*
X2473416Y-21806104D01*
X2465709Y-21812947D01*
X2318573Y-21966916D01*
X2312087Y-21974926D01*
X2192081Y-22150848D01*
X2186983Y-22159822D01*
X2097321Y-22352982D01*
X2093758Y-22362669D01*
X2038372Y-22562382D01*
X2039895Y-22570806D01*
X2052275Y-22574199D01*
X4692327Y-22574199D01*
X4705858Y-22570226D01*
X4707163Y-22561146D01*
X4665197Y-22394074D01*
X4661877Y-22384323D01*
X4576955Y-22189013D01*
X4572088Y-22179938D01*
X4456409Y-22001125D01*
X4450119Y-21992956D01*
X4306789Y-21835439D01*
X4299256Y-21828414D01*
X4132122Y-21696421D01*
X4123539Y-21690719D01*
X4086585Y-21670319D01*
X4036614Y-21619886D01*
X4021842Y-21550444D01*
X4046958Y-21484038D01*
X4074310Y-21457431D01*
X4136143Y-21413326D01*
X4241054Y-21338494D01*
X5972481Y-21338494D01*
X5981777Y-21350509D01*
X6032982Y-21386363D01*
X6042477Y-21391846D01*
X6239935Y-21483922D01*
X6250227Y-21487668D01*
X6460676Y-21544057D01*
X6471469Y-21545960D01*
X6688513Y-21564949D01*
X6699463Y-21564949D01*
X6916507Y-21545960D01*
X6927300Y-21544057D01*
X7137749Y-21487668D01*
X7148041Y-21483922D01*
X7345499Y-21391846D01*
X7354994Y-21386363D01*
X7407036Y-21349923D01*
X7415412Y-21339444D01*
X7408344Y-21325998D01*
X6706800Y-20624454D01*
X6692856Y-20616840D01*
X6691023Y-20616971D01*
X6684408Y-20621222D01*
X5978911Y-21326719D01*
X5972481Y-21338494D01*
X4241054Y-21338494D01*
X4253843Y-21329372D01*
X4261950Y-21321294D01*
X4408418Y-21175336D01*
X4412079Y-21171688D01*
X4471577Y-21088888D01*
X4539418Y-20994476D01*
X4542436Y-20990276D01*
X4546594Y-20981864D01*
X4639119Y-20794652D01*
X4639120Y-20794650D01*
X4641413Y-20790010D01*
X4692695Y-20621222D01*
X4704848Y-20581222D01*
X4704848Y-20581220D01*
X4706353Y-20576268D01*
X4735512Y-20354789D01*
X4737139Y-20288199D01*
X4734649Y-20257907D01*
X5381471Y-20257907D01*
X5400460Y-20474951D01*
X5402363Y-20485744D01*
X5458752Y-20696193D01*
X5462498Y-20706485D01*
X5554574Y-20903943D01*
X5560057Y-20913438D01*
X5596497Y-20965480D01*
X5606976Y-20973856D01*
X5620422Y-20966788D01*
X6321966Y-20265244D01*
X6328344Y-20253564D01*
X7058396Y-20253564D01*
X7058527Y-20255397D01*
X7062778Y-20262012D01*
X7768275Y-20967509D01*
X7780050Y-20973939D01*
X7792065Y-20964643D01*
X7827919Y-20913438D01*
X7833402Y-20903943D01*
X7925478Y-20706485D01*
X7929224Y-20696193D01*
X7985613Y-20485744D01*
X7987516Y-20474951D01*
X8006505Y-20257907D01*
X8006505Y-20246957D01*
X7987516Y-20029913D01*
X7985613Y-20019120D01*
X7929224Y-19808671D01*
X7925478Y-19798379D01*
X7833402Y-19600921D01*
X7827919Y-19591426D01*
X7791479Y-19539384D01*
X7781000Y-19531008D01*
X7767554Y-19538076D01*
X7066010Y-20239620D01*
X7058396Y-20253564D01*
X6328344Y-20253564D01*
X6329580Y-20251300D01*
X6329449Y-20249467D01*
X6325198Y-20242852D01*
X5619701Y-19537355D01*
X5607926Y-19530925D01*
X5595911Y-19540221D01*
X5560057Y-19591426D01*
X5554574Y-19600921D01*
X5462498Y-19798379D01*
X5458752Y-19808671D01*
X5402363Y-20019120D01*
X5400460Y-20029913D01*
X5381471Y-20246957D01*
X5381471Y-20257907D01*
X4734649Y-20257907D01*
X4718835Y-20065560D01*
X4664414Y-19848901D01*
X4575337Y-19644039D01*
X4507633Y-19539384D01*
X4456805Y-19460816D01*
X4456803Y-19460813D01*
X4453997Y-19456476D01*
X4303653Y-19291250D01*
X4299602Y-19288051D01*
X4299598Y-19288047D01*
X4132397Y-19155999D01*
X4132393Y-19155997D01*
X4128342Y-19152797D01*
X4087036Y-19129995D01*
X4037067Y-19079563D01*
X4022295Y-19010120D01*
X4047411Y-18943715D01*
X4074763Y-18917108D01*
X4118586Y-18885849D01*
X4253843Y-18789372D01*
X4412079Y-18631688D01*
X4434397Y-18600629D01*
X4461312Y-18563173D01*
X4517307Y-18519525D01*
X4563635Y-18510699D01*
X5561957Y-18510699D01*
X5630078Y-18530701D01*
X5665169Y-18564427D01*
X5684629Y-18592218D01*
X5687790Y-18596732D01*
X5849688Y-18758630D01*
X5854196Y-18761787D01*
X5854199Y-18761789D01*
X5957864Y-18834376D01*
X6037239Y-18889955D01*
X6042223Y-18892279D01*
X6044516Y-18893603D01*
X6093509Y-18944985D01*
X6106945Y-19014699D01*
X6080559Y-19080610D01*
X6044516Y-19111841D01*
X6032986Y-19118498D01*
X5980940Y-19154941D01*
X5972564Y-19165420D01*
X5979632Y-19178866D01*
X6681176Y-19880410D01*
X6695120Y-19888024D01*
X6696953Y-19887893D01*
X6703568Y-19883642D01*
X7409065Y-19178145D01*
X7415495Y-19166370D01*
X7406199Y-19154355D01*
X7354990Y-19118498D01*
X7343460Y-19111841D01*
X7294467Y-19060459D01*
X7281030Y-18990745D01*
X7307417Y-18924834D01*
X7343460Y-18893603D01*
X7345753Y-18892279D01*
X7350737Y-18889955D01*
X7430112Y-18834376D01*
X7533777Y-18761789D01*
X7533780Y-18761787D01*
X7538288Y-18758630D01*
X7700186Y-18596732D01*
X7723685Y-18563173D01*
X7828354Y-18413689D01*
X7831511Y-18409181D01*
X7833834Y-18404199D01*
X7833837Y-18404194D01*
X7925949Y-18206657D01*
X7925949Y-18206656D01*
X7928272Y-18201675D01*
X7941906Y-18150795D01*
X7986107Y-17985834D01*
X7986107Y-17985832D01*
X7987531Y-17980519D01*
X8007486Y-17752432D01*
X7987531Y-17524345D01*
X7928272Y-17303189D01*
X7914106Y-17272809D01*
X7833837Y-17100670D01*
X7833834Y-17100665D01*
X7831511Y-17095683D01*
X7740494Y-16965697D01*
X7703345Y-16912643D01*
X7703343Y-16912640D01*
X7700186Y-16908132D01*
X7538288Y-16746234D01*
X7533780Y-16743077D01*
X7533777Y-16743075D01*
X7417900Y-16661937D01*
X7350737Y-16614909D01*
X7345755Y-16612586D01*
X7345750Y-16612583D01*
X7148213Y-16520471D01*
X7148212Y-16520471D01*
X7143231Y-16518148D01*
X7137923Y-16516726D01*
X7137921Y-16516725D01*
X6927390Y-16460313D01*
X6927388Y-16460313D01*
X6922075Y-16458889D01*
X6693988Y-16438934D01*
X6465901Y-16458889D01*
X6460588Y-16460313D01*
X6460586Y-16460313D01*
X6250055Y-16516725D01*
X6250053Y-16516726D01*
X6244745Y-16518148D01*
X6239764Y-16520471D01*
X6239763Y-16520471D01*
X6042226Y-16612583D01*
X6042221Y-16612586D01*
X6037239Y-16614909D01*
X5970076Y-16661937D01*
X5854199Y-16743075D01*
X5854196Y-16743077D01*
X5849688Y-16746234D01*
X5687790Y-16908132D01*
X5684631Y-16912644D01*
X5684629Y-16912646D01*
X5671097Y-16931971D01*
X5615639Y-16976299D01*
X5567885Y-16985699D01*
X4567334Y-16985699D01*
X4499213Y-16965697D01*
X4461541Y-16928138D01*
X4453997Y-16916476D01*
X4450512Y-16912646D01*
X4306781Y-16754687D01*
X4275729Y-16690841D01*
X4284124Y-16620342D01*
X4329300Y-16565574D01*
X4355744Y-16551905D01*
X4462280Y-16511966D01*
X4470688Y-16508814D01*
X4587244Y-16421460D01*
X4674598Y-16304904D01*
X4725728Y-16168515D01*
X4732483Y-16106333D01*
X4732483Y-14310065D01*
X4725728Y-14247883D01*
X4674598Y-14111494D01*
X4587244Y-13994938D01*
X4470688Y-13907584D01*
X4334299Y-13856454D01*
X4272117Y-13849699D01*
X2475849Y-13849699D01*
X2413667Y-13856454D01*
X2277278Y-13907584D01*
X2160722Y-13994938D01*
X2073368Y-14111494D01*
X2022238Y-14247883D01*
X2015483Y-14310065D01*
X2015483Y-16106333D01*
X2022238Y-16168515D01*
X2073368Y-16304904D01*
X2160722Y-16421460D01*
X2277278Y-16508814D01*
X2285687Y-16511966D01*
X2285688Y-16511967D01*
X2394434Y-16552734D01*
X2451199Y-16595375D01*
X2475899Y-16661937D01*
X2460692Y-16731286D01*
X2441299Y-16757767D01*
X2314612Y-16890337D01*
X2188726Y-17074879D01*
X2094671Y-17277504D01*
X2034972Y-17492769D01*
X2011234Y-17714894D01*
X2011531Y-17720047D01*
X2011531Y-17720050D01*
X2016994Y-17814789D01*
X2024093Y-17937914D01*
X2025230Y-17942960D01*
X2025231Y-17942966D01*
X2034892Y-17985834D01*
X2073205Y-18155838D01*
X2157249Y-18362815D01*
X2159948Y-18367219D01*
X2253281Y-18519525D01*
X2273970Y-18553287D01*
X2420233Y-18722137D01*
X2592109Y-18864831D01*
X2635104Y-18889955D01*
X2665428Y-18907675D01*
X2714152Y-18959313D01*
X2727223Y-19029096D01*
X2700492Y-19094868D01*
X2660038Y-19128226D01*
X2647590Y-19134706D01*
X2643457Y-19137809D01*
X2643454Y-19137811D01*
X2473083Y-19265729D01*
X2468948Y-19268834D01*
X2314612Y-19430337D01*
X2311698Y-19434609D01*
X2311697Y-19434610D01*
X2245939Y-19531008D01*
X2188726Y-19614879D01*
X2094671Y-19817504D01*
X2034972Y-20032769D01*
X2011234Y-20254894D01*
X1523990Y-20254894D01*
X1523990Y-9791694D01*
X9922242Y-9791694D01*
X9922539Y-9796847D01*
X9922539Y-9796850D01*
X9931260Y-9948094D01*
X9935101Y-10014714D01*
X9936238Y-10019760D01*
X9936239Y-10019766D01*
X9952169Y-10090450D01*
X9984213Y-10232638D01*
X10033439Y-10353868D01*
X10065849Y-10433684D01*
X10068257Y-10439615D01*
X10070956Y-10444019D01*
X10175697Y-10614941D01*
X10184978Y-10630087D01*
X10331241Y-10798937D01*
X10503117Y-10941631D01*
X10695991Y-11054337D01*
X10904683Y-11134029D01*
X10909751Y-11135060D01*
X10909754Y-11135061D01*
X11017008Y-11156882D01*
X11123588Y-11178566D01*
X11128763Y-11178756D01*
X11128765Y-11178756D01*
X11341664Y-11186563D01*
X11341668Y-11186563D01*
X11346828Y-11186752D01*
X11351948Y-11186096D01*
X11351950Y-11186096D01*
X11563279Y-11159024D01*
X11563280Y-11159024D01*
X11568407Y-11158367D01*
X11573357Y-11156882D01*
X11777420Y-11095660D01*
X11777425Y-11095658D01*
X11782375Y-11094173D01*
X11982985Y-10995895D01*
X12164851Y-10866172D01*
X12273082Y-10758318D01*
X12335453Y-10724403D01*
X12406259Y-10729591D01*
X12463021Y-10772237D01*
X12480003Y-10803340D01*
X12524376Y-10921704D01*
X12611730Y-11038260D01*
X12728286Y-11125614D01*
X12864675Y-11176744D01*
X12926857Y-11183499D01*
X14723125Y-11183499D01*
X14785307Y-11176744D01*
X14921696Y-11125614D01*
X15038252Y-11038260D01*
X15125606Y-10921704D01*
X15176736Y-10785315D01*
X15183491Y-10723133D01*
X15183491Y-8926865D01*
X15176736Y-8864683D01*
X15125606Y-8728294D01*
X15038252Y-8611738D01*
X14921696Y-8524384D01*
X14853862Y-8498954D01*
X14803194Y-8479959D01*
X14746430Y-8437317D01*
X14721730Y-8370755D01*
X14736938Y-8301407D01*
X14758484Y-8272726D01*
X14859426Y-8172136D01*
X14863087Y-8168488D01*
X14993444Y-7987076D01*
X15006040Y-7961591D01*
X15090127Y-7791452D01*
X15090128Y-7791450D01*
X15092421Y-7786810D01*
X15157361Y-7573068D01*
X15186520Y-7351589D01*
X15188147Y-7284999D01*
X15169843Y-7062360D01*
X15115422Y-6845701D01*
X15026345Y-6640839D01*
X14905005Y-6453276D01*
X14754661Y-6288050D01*
X14750610Y-6284851D01*
X14750606Y-6284847D01*
X14583405Y-6152799D01*
X14583401Y-6152797D01*
X14579350Y-6149597D01*
X14538044Y-6126795D01*
X14488075Y-6076363D01*
X14473303Y-6006920D01*
X14498419Y-5940515D01*
X14525771Y-5913908D01*
X14571997Y-5880935D01*
X14704851Y-5786172D01*
X14863087Y-5628488D01*
X14871303Y-5617055D01*
X14990426Y-5451276D01*
X14993444Y-5447076D01*
X15014311Y-5404856D01*
X15090127Y-5251452D01*
X15090128Y-5251450D01*
X15092421Y-5246810D01*
X15147354Y-5066005D01*
X15154078Y-5043874D01*
X17930667Y-5043874D01*
X17947216Y-5330888D01*
X17948041Y-5335093D01*
X17948042Y-5335101D01*
X17961728Y-5404856D01*
X18002564Y-5613000D01*
X18003951Y-5617050D01*
X18003952Y-5617055D01*
X18094299Y-5880935D01*
X18095688Y-5884991D01*
X18105637Y-5904773D01*
X18218471Y-6129117D01*
X18224863Y-6141827D01*
X18387699Y-6378755D01*
X18581184Y-6591393D01*
X18584479Y-6594148D01*
X18584480Y-6594149D01*
X18635236Y-6636587D01*
X18801737Y-6775803D01*
X19045276Y-6928576D01*
X19307296Y-7046882D01*
X19342605Y-7057341D01*
X19578835Y-7127316D01*
X19578840Y-7127317D01*
X19582948Y-7128534D01*
X19587182Y-7129182D01*
X19587187Y-7129183D01*
X19835789Y-7167224D01*
X19867131Y-7172020D01*
X20013463Y-7174319D01*
X20150295Y-7176469D01*
X20150301Y-7176469D01*
X20154586Y-7176536D01*
X20158838Y-7176021D01*
X20158846Y-7176021D01*
X20435734Y-7142513D01*
X20435739Y-7142512D01*
X20439995Y-7141997D01*
X20536580Y-7116658D01*
X20713932Y-7070131D01*
X20713933Y-7070131D01*
X20718075Y-7069044D01*
X20983682Y-6959026D01*
X21231900Y-6813979D01*
X21458137Y-6636587D01*
X21464455Y-6630068D01*
X21655222Y-6433211D01*
X21658205Y-6430133D01*
X21660738Y-6426685D01*
X21660742Y-6426680D01*
X21825865Y-6201891D01*
X21828403Y-6198436D01*
X21853182Y-6152799D01*
X21963532Y-5949560D01*
X21963533Y-5949558D01*
X21965582Y-5945784D01*
X22067203Y-5676853D01*
X22125997Y-5420143D01*
X22130427Y-5400802D01*
X22130428Y-5400798D01*
X22131385Y-5396618D01*
X22134295Y-5364019D01*
X22156721Y-5112731D01*
X22156721Y-5112729D01*
X22156941Y-5110265D01*
X22157405Y-5066005D01*
X22148799Y-4939766D01*
X22138143Y-4783457D01*
X22138142Y-4783451D01*
X22137851Y-4779180D01*
X22133314Y-4757269D01*
X22080421Y-4501860D01*
X22079552Y-4497663D01*
X21983585Y-4226662D01*
X21888874Y-4043163D01*
X21853693Y-3975000D01*
X21853693Y-3974999D01*
X21851728Y-3971193D01*
X21838466Y-3952322D01*
X21769074Y-3853588D01*
X21686419Y-3735982D01*
X21555049Y-3594611D01*
X21493639Y-3528526D01*
X21493636Y-3528524D01*
X21490718Y-3525383D01*
X21268246Y-3343292D01*
X21023120Y-3193078D01*
X21005026Y-3185135D01*
X20763808Y-3079248D01*
X20759876Y-3077522D01*
X20733941Y-3070134D01*
X20487512Y-2999937D01*
X20487513Y-2999937D01*
X20483384Y-2998761D01*
X20270682Y-2968490D01*
X20203014Y-2958859D01*
X20203012Y-2958859D01*
X20198762Y-2958254D01*
X20194473Y-2958232D01*
X20194466Y-2958231D01*
X19915561Y-2956770D01*
X19915554Y-2956770D01*
X19911275Y-2956748D01*
X19907031Y-2957307D01*
X19907027Y-2957307D01*
X19781638Y-2973815D01*
X19626244Y-2994273D01*
X19622104Y-2995406D01*
X19622102Y-2995406D01*
X19545289Y-3016420D01*
X19348942Y-3070134D01*
X19344994Y-3071818D01*
X19088454Y-3181242D01*
X19088450Y-3181244D01*
X19084502Y-3182928D01*
X18959938Y-3257478D01*
X18841499Y-3328362D01*
X18841495Y-3328365D01*
X18837817Y-3330566D01*
X18613450Y-3510318D01*
X18415555Y-3718856D01*
X18394577Y-3748050D01*
X18275850Y-3913276D01*
X18247792Y-3952322D01*
X18113266Y-4206397D01*
X18014467Y-4476378D01*
X17953223Y-4757269D01*
X17952887Y-4761539D01*
X17931128Y-5038022D01*
X17930667Y-5043874D01*
X15154078Y-5043874D01*
X15155856Y-5038022D01*
X15155856Y-5038020D01*
X15157361Y-5033068D01*
X15186520Y-4811589D01*
X15186602Y-4808239D01*
X15188065Y-4748364D01*
X15188065Y-4748360D01*
X15188147Y-4744999D01*
X15169843Y-4522360D01*
X15115422Y-4305701D01*
X15026345Y-4100839D01*
X14905005Y-3913276D01*
X14754661Y-3748050D01*
X14750610Y-3744851D01*
X14750606Y-3744847D01*
X14583405Y-3612799D01*
X14583401Y-3612797D01*
X14579350Y-3609597D01*
X14383780Y-3501637D01*
X14378911Y-3499913D01*
X14378907Y-3499911D01*
X14178078Y-3428794D01*
X14178074Y-3428793D01*
X14173203Y-3427068D01*
X14168110Y-3426161D01*
X14168107Y-3426160D01*
X13958364Y-3388799D01*
X13958358Y-3388798D01*
X13953275Y-3387893D01*
X13879443Y-3386991D01*
X13735072Y-3385227D01*
X13735070Y-3385227D01*
X13729902Y-3385164D01*
X13509082Y-3418954D01*
X13296747Y-3488356D01*
X13098598Y-3591506D01*
X13094465Y-3594609D01*
X13094462Y-3594611D01*
X12928983Y-3718856D01*
X12919956Y-3725634D01*
X12765620Y-3887137D01*
X12658192Y-4044620D01*
X12603284Y-4089620D01*
X12532759Y-4097791D01*
X12469012Y-4066537D01*
X12448315Y-4042053D01*
X12367813Y-3917616D01*
X12367811Y-3917613D01*
X12365005Y-3913276D01*
X12214661Y-3748050D01*
X12210610Y-3744851D01*
X12210606Y-3744847D01*
X12043405Y-3612799D01*
X12043401Y-3612797D01*
X12039350Y-3609597D01*
X11843780Y-3501637D01*
X11838911Y-3499913D01*
X11838907Y-3499911D01*
X11638078Y-3428794D01*
X11638074Y-3428793D01*
X11633203Y-3427068D01*
X11628110Y-3426161D01*
X11628107Y-3426160D01*
X11418364Y-3388799D01*
X11418358Y-3388798D01*
X11413275Y-3387893D01*
X11339443Y-3386991D01*
X11195072Y-3385227D01*
X11195070Y-3385227D01*
X11189902Y-3385164D01*
X10969082Y-3418954D01*
X10756747Y-3488356D01*
X10558598Y-3591506D01*
X10554465Y-3594609D01*
X10554462Y-3594611D01*
X10388983Y-3718856D01*
X10379956Y-3725634D01*
X10225620Y-3887137D01*
X10222711Y-3891402D01*
X10222705Y-3891410D01*
X10151984Y-3995084D01*
X10099734Y-4071679D01*
X10083994Y-4105589D01*
X10027794Y-4226662D01*
X10005679Y-4274304D01*
X9945980Y-4489569D01*
X9922242Y-4711694D01*
X9922539Y-4716847D01*
X9922539Y-4716850D01*
X9928002Y-4811589D01*
X9935101Y-4934714D01*
X9936238Y-4939760D01*
X9936239Y-4939766D01*
X9956110Y-5027938D01*
X9984213Y-5152638D01*
X10022452Y-5246810D01*
X10054852Y-5326601D01*
X10068257Y-5359615D01*
X10119010Y-5442437D01*
X10182282Y-5545687D01*
X10184978Y-5550087D01*
X10331241Y-5718937D01*
X10503117Y-5861631D01*
X10536152Y-5880935D01*
X10576946Y-5904773D01*
X10625670Y-5956411D01*
X10638741Y-6026194D01*
X10612010Y-6091966D01*
X10571553Y-6125326D01*
X10563448Y-6129545D01*
X10554729Y-6135035D01*
X10384424Y-6262904D01*
X10376717Y-6269747D01*
X10229581Y-6423716D01*
X10223095Y-6431726D01*
X10103089Y-6607648D01*
X10097991Y-6616622D01*
X10008329Y-6809782D01*
X10004766Y-6819469D01*
X9949380Y-7019182D01*
X9950903Y-7027606D01*
X9963283Y-7030999D01*
X11412991Y-7030999D01*
X11481112Y-7051001D01*
X11527605Y-7104657D01*
X11538991Y-7156999D01*
X11538991Y-7412999D01*
X11518989Y-7481120D01*
X11465333Y-7527613D01*
X11412991Y-7538999D01*
X9968216Y-7538999D01*
X9954685Y-7542972D01*
X9953248Y-7552965D01*
X9983556Y-7687445D01*
X9986636Y-7697274D01*
X10066761Y-7894602D01*
X10071404Y-7903793D01*
X10182685Y-8085387D01*
X10188768Y-8093698D01*
X10328204Y-8254666D01*
X10335571Y-8261882D01*
X10499425Y-8397915D01*
X10507872Y-8403830D01*
X10576960Y-8444202D01*
X10625684Y-8495841D01*
X10638755Y-8565624D01*
X10612024Y-8631395D01*
X10571575Y-8664751D01*
X10558598Y-8671506D01*
X10554465Y-8674609D01*
X10554462Y-8674611D01*
X10384091Y-8802529D01*
X10379956Y-8805634D01*
X10340516Y-8846906D01*
X10286271Y-8903670D01*
X10225620Y-8967137D01*
X10099734Y-9151679D01*
X10097555Y-9156374D01*
X10018059Y-9327634D01*
X10005679Y-9354304D01*
X9945980Y-9569569D01*
X9922242Y-9791694D01*
X1523990Y-9791694D01*
X1523990Y-5043874D01*
X2952668Y-5043874D01*
X2969217Y-5330888D01*
X2970042Y-5335093D01*
X2970043Y-5335101D01*
X2983729Y-5404856D01*
X3024565Y-5613000D01*
X3025952Y-5617050D01*
X3025953Y-5617055D01*
X3116300Y-5880935D01*
X3117689Y-5884991D01*
X3127638Y-5904773D01*
X3240472Y-6129117D01*
X3246864Y-6141827D01*
X3409700Y-6378755D01*
X3603185Y-6591393D01*
X3606480Y-6594148D01*
X3606481Y-6594149D01*
X3657237Y-6636587D01*
X3823738Y-6775803D01*
X4067277Y-6928576D01*
X4329297Y-7046882D01*
X4364606Y-7057341D01*
X4600836Y-7127316D01*
X4600841Y-7127317D01*
X4604949Y-7128534D01*
X4609183Y-7129182D01*
X4609188Y-7129183D01*
X4857790Y-7167224D01*
X4889132Y-7172020D01*
X5035464Y-7174319D01*
X5172296Y-7176469D01*
X5172302Y-7176469D01*
X5176587Y-7176536D01*
X5180839Y-7176021D01*
X5180847Y-7176021D01*
X5457735Y-7142513D01*
X5457740Y-7142512D01*
X5461996Y-7141997D01*
X5558581Y-7116658D01*
X5735933Y-7070131D01*
X5735934Y-7070131D01*
X5740076Y-7069044D01*
X6005683Y-6959026D01*
X6253901Y-6813979D01*
X6480138Y-6636587D01*
X6486456Y-6630068D01*
X6677223Y-6433211D01*
X6680206Y-6430133D01*
X6682739Y-6426685D01*
X6682743Y-6426680D01*
X6847866Y-6201891D01*
X6850404Y-6198436D01*
X6875183Y-6152799D01*
X6985533Y-5949560D01*
X6985534Y-5949558D01*
X6987583Y-5945784D01*
X7089204Y-5676853D01*
X7147998Y-5420143D01*
X7152428Y-5400802D01*
X7152429Y-5400798D01*
X7153386Y-5396618D01*
X7156296Y-5364019D01*
X7178722Y-5112731D01*
X7178722Y-5112729D01*
X7178942Y-5110265D01*
X7179406Y-5066005D01*
X7170800Y-4939766D01*
X7160144Y-4783457D01*
X7160143Y-4783451D01*
X7159852Y-4779180D01*
X7155315Y-4757269D01*
X7102422Y-4501860D01*
X7101553Y-4497663D01*
X7005586Y-4226662D01*
X6910875Y-4043163D01*
X6875694Y-3975000D01*
X6875694Y-3974999D01*
X6873729Y-3971193D01*
X6860467Y-3952322D01*
X6791075Y-3853588D01*
X6708420Y-3735982D01*
X6577050Y-3594611D01*
X6515640Y-3528526D01*
X6515637Y-3528524D01*
X6512719Y-3525383D01*
X6290247Y-3343292D01*
X6045121Y-3193078D01*
X6027027Y-3185135D01*
X5785809Y-3079248D01*
X5781877Y-3077522D01*
X5755942Y-3070134D01*
X5509513Y-2999937D01*
X5509514Y-2999937D01*
X5505385Y-2998761D01*
X5292683Y-2968490D01*
X5225015Y-2958859D01*
X5225013Y-2958859D01*
X5220763Y-2958254D01*
X5216474Y-2958232D01*
X5216467Y-2958231D01*
X4937562Y-2956770D01*
X4937555Y-2956770D01*
X4933276Y-2956748D01*
X4929032Y-2957307D01*
X4929028Y-2957307D01*
X4803639Y-2973815D01*
X4648245Y-2994273D01*
X4644105Y-2995406D01*
X4644103Y-2995406D01*
X4567290Y-3016420D01*
X4370943Y-3070134D01*
X4366995Y-3071818D01*
X4110455Y-3181242D01*
X4110451Y-3181244D01*
X4106503Y-3182928D01*
X3981939Y-3257478D01*
X3863500Y-3328362D01*
X3863496Y-3328365D01*
X3859818Y-3330566D01*
X3635451Y-3510318D01*
X3437556Y-3718856D01*
X3416578Y-3748050D01*
X3297851Y-3913276D01*
X3269793Y-3952322D01*
X3135267Y-4206397D01*
X3036468Y-4476378D01*
X2975224Y-4757269D01*
X2974888Y-4761539D01*
X2953129Y-5038022D01*
X2952668Y-5043874D01*
X1523990Y-5043874D01*
X1523990Y-4067240D01*
X1525490Y-4047855D01*
X1527795Y-4033054D01*
X1527795Y-4033051D01*
X1529176Y-4024182D01*
X1526931Y-4007013D01*
X1526098Y-3983073D01*
X1541700Y-3725142D01*
X1543534Y-3710038D01*
X1577373Y-3525383D01*
X1595030Y-3429033D01*
X1598669Y-3414265D01*
X1607494Y-3385947D01*
X1683665Y-3141504D01*
X1689060Y-3127282D01*
X1806306Y-2866772D01*
X1813375Y-2853303D01*
X1961172Y-2608817D01*
X1969815Y-2596295D01*
X2146006Y-2371405D01*
X2156096Y-2360017D01*
X2358095Y-2158018D01*
X2369483Y-2147928D01*
X2594373Y-1971737D01*
X2606895Y-1963094D01*
X2851381Y-1815297D01*
X2864850Y-1808228D01*
X3125363Y-1690981D01*
X3139582Y-1685587D01*
X3412349Y-1600590D01*
X3427111Y-1596952D01*
X3637342Y-1558426D01*
X3708116Y-1545456D01*
X3723220Y-1543622D01*
X3973919Y-1528457D01*
X4000629Y-1529714D01*
X4000849Y-1529717D01*
X4009720Y-1531098D01*
X4018622Y-1529934D01*
X4018625Y-1529934D01*
X4041241Y-1526976D01*
X4057579Y-1525912D01*
X21044660Y-1525912D01*
X21064045Y-1527412D01*
G37*
%TD.AperFunction*%
%TA.AperFunction,Conductor*%
G36*
X10584532Y-27411958D02*
G01*
X10641368Y-27454505D01*
X10666179Y-27521025D01*
X10666500Y-27530014D01*
X10666500Y-31631825D01*
X10646498Y-31699946D01*
X10629595Y-31720921D01*
X10032720Y-32317795D01*
X9970408Y-32351820D01*
X9943625Y-32354699D01*
X4650788Y-32354699D01*
X4582667Y-32334697D01*
X4544996Y-32297139D01*
X4456805Y-32160816D01*
X4456803Y-32160813D01*
X4453997Y-32156476D01*
X4303653Y-31991250D01*
X4299602Y-31988051D01*
X4299598Y-31988047D01*
X4132397Y-31855999D01*
X4132393Y-31855997D01*
X4128342Y-31852797D01*
X4087036Y-31829995D01*
X4037067Y-31779563D01*
X4022295Y-31710120D01*
X4047411Y-31643715D01*
X4074763Y-31617108D01*
X4118586Y-31585849D01*
X4253843Y-31489372D01*
X4412079Y-31331688D01*
X4471577Y-31248888D01*
X4539418Y-31154476D01*
X4542436Y-31150276D01*
X4641413Y-30950010D01*
X4706353Y-30736268D01*
X4735512Y-30514789D01*
X4737139Y-30448199D01*
X4718835Y-30225560D01*
X4664414Y-30008901D01*
X4575337Y-29804039D01*
X4453997Y-29616476D01*
X4303653Y-29451250D01*
X4299602Y-29448051D01*
X4299598Y-29448047D01*
X4132397Y-29315999D01*
X4132393Y-29315997D01*
X4128342Y-29312797D01*
X4087036Y-29289995D01*
X4037067Y-29239563D01*
X4022295Y-29170120D01*
X4047411Y-29103715D01*
X4074763Y-29077108D01*
X4118586Y-29045849D01*
X4253843Y-28949372D01*
X4412079Y-28791688D01*
X4471577Y-28708888D01*
X4539418Y-28614476D01*
X4542436Y-28610276D01*
X4544729Y-28605636D01*
X4546429Y-28602807D01*
X4598657Y-28554717D01*
X4654434Y-28541699D01*
X9009454Y-28541699D01*
X9020637Y-28542226D01*
X9028130Y-28543901D01*
X9036056Y-28543652D01*
X9036057Y-28543652D01*
X9096207Y-28541761D01*
X9100166Y-28541699D01*
X9128077Y-28541699D01*
X9132012Y-28541202D01*
X9132077Y-28541194D01*
X9143914Y-28540261D01*
X9176172Y-28539247D01*
X9180191Y-28539121D01*
X9188110Y-28538872D01*
X9207564Y-28533220D01*
X9226921Y-28529212D01*
X9239151Y-28527667D01*
X9239152Y-28527667D01*
X9247018Y-28526673D01*
X9254389Y-28523754D01*
X9254391Y-28523754D01*
X9288133Y-28510395D01*
X9299363Y-28506550D01*
X9334204Y-28496428D01*
X9334205Y-28496428D01*
X9341814Y-28494217D01*
X9348633Y-28490184D01*
X9348638Y-28490182D01*
X9359249Y-28483906D01*
X9376997Y-28475211D01*
X9395838Y-28467751D01*
X9431608Y-28441763D01*
X9441528Y-28435247D01*
X9472756Y-28416779D01*
X9472759Y-28416777D01*
X9479583Y-28412741D01*
X9493904Y-28398420D01*
X9508938Y-28385579D01*
X9518915Y-28378330D01*
X9525328Y-28373671D01*
X9553519Y-28339594D01*
X9561509Y-28330815D01*
X10451405Y-27440919D01*
X10513717Y-27406893D01*
X10584532Y-27411958D01*
G37*
%TD.AperFunction*%
%TD*%
M02*
