%TF.GenerationSoftware,KiCad,Pcbnew,(6.0.0)*%
%TF.CreationDate,2022-04-03T10:25:10-04:00*%
%TF.ProjectId,JTAG_ISP-ISP,4a544147-5f49-4535-902d-4953502e6b69,v5.3.0*%
%TF.SameCoordinates,Original*%
%TF.FileFunction,Copper,L1,Top*%
%TF.FilePolarity,Positive*%
%FSLAX46Y46*%
G04 Gerber Fmt 4.6, Leading zero omitted, Abs format (unit mm)*
G04 Created by KiCad (PCBNEW (6.0.0)) date 2022-04-03 10:25:10*
%MOMM*%
%LPD*%
G01*
G04 APERTURE LIST*
%ADD10C,0.190500*%
%TA.AperFunction,NonConductor*%
%ADD11C,0.190500*%
%TD*%
%TA.AperFunction,EtchedComponent*%
%ADD12C,0.508000*%
%TD*%
%TA.AperFunction,ComponentPad*%
%ADD13C,5.500000*%
%TD*%
%TA.AperFunction,ComponentPad*%
%ADD14R,1.700000X1.700000*%
%TD*%
%TA.AperFunction,ComponentPad*%
%ADD15O,1.700000X1.700000*%
%TD*%
%TA.AperFunction,ComponentPad*%
%ADD16C,1.600000*%
%TD*%
%TA.AperFunction,ComponentPad*%
%ADD17C,1.700000*%
%TD*%
%TA.AperFunction,ViaPad*%
%ADD18C,1.200000*%
%TD*%
%TA.AperFunction,Conductor*%
%ADD19C,0.635000*%
%TD*%
%TA.AperFunction,Conductor*%
%ADD20C,0.381000*%
%TD*%
%TA.AperFunction,Conductor*%
%ADD21C,0.508000*%
%TD*%
G04 APERTURE END LIST*
D10*
D11*
X106208097Y-81275736D02*
X106861240Y-81275736D01*
X106534668Y-82418736D02*
X106534668Y-81275736D01*
X107242240Y-82309879D02*
X107296668Y-82364307D01*
X107242240Y-82418736D01*
X107187811Y-82364307D01*
X107242240Y-82309879D01*
X107242240Y-82418736D01*
X107786526Y-82418736D02*
X107786526Y-81275736D01*
X108058668Y-81275736D01*
X108221954Y-81330165D01*
X108330811Y-81439022D01*
X108385240Y-81547879D01*
X108439668Y-81765593D01*
X108439668Y-81928879D01*
X108385240Y-82146593D01*
X108330811Y-82255450D01*
X108221954Y-82364307D01*
X108058668Y-82418736D01*
X107786526Y-82418736D01*
X108929526Y-82309879D02*
X108983954Y-82364307D01*
X108929526Y-82418736D01*
X108875097Y-82364307D01*
X108929526Y-82309879D01*
X108929526Y-82418736D01*
X110344668Y-81983307D02*
X111215526Y-81983307D01*
X113174954Y-81275736D02*
X112630668Y-81275736D01*
X112576240Y-81820022D01*
X112630668Y-81765593D01*
X112739526Y-81711165D01*
X113011668Y-81711165D01*
X113120526Y-81765593D01*
X113174954Y-81820022D01*
X113229383Y-81928879D01*
X113229383Y-82201022D01*
X113174954Y-82309879D01*
X113120526Y-82364307D01*
X113011668Y-82418736D01*
X112739526Y-82418736D01*
X112630668Y-82364307D01*
X112576240Y-82309879D01*
X113719240Y-82309879D02*
X113773668Y-82364307D01*
X113719240Y-82418736D01*
X113664811Y-82364307D01*
X113719240Y-82309879D01*
X113719240Y-82418736D01*
X114154668Y-81275736D02*
X114862240Y-81275736D01*
X114481240Y-81711165D01*
X114644526Y-81711165D01*
X114753383Y-81765593D01*
X114807811Y-81820022D01*
X114862240Y-81928879D01*
X114862240Y-82201022D01*
X114807811Y-82309879D01*
X114753383Y-82364307D01*
X114644526Y-82418736D01*
X114317954Y-82418736D01*
X114209097Y-82364307D01*
X114154668Y-82309879D01*
X115352097Y-82309879D02*
X115406526Y-82364307D01*
X115352097Y-82418736D01*
X115297668Y-82364307D01*
X115352097Y-82309879D01*
X115352097Y-82418736D01*
X116114097Y-81275736D02*
X116222954Y-81275736D01*
X116331811Y-81330165D01*
X116386240Y-81384593D01*
X116440668Y-81493450D01*
X116495097Y-81711165D01*
X116495097Y-81983307D01*
X116440668Y-82201022D01*
X116386240Y-82309879D01*
X116331811Y-82364307D01*
X116222954Y-82418736D01*
X116114097Y-82418736D01*
X116005240Y-82364307D01*
X115950811Y-82309879D01*
X115896383Y-82201022D01*
X115841954Y-81983307D01*
X115841954Y-81711165D01*
X115896383Y-81493450D01*
X115950811Y-81384593D01*
X116005240Y-81330165D01*
X116114097Y-81275736D01*
X105854311Y-83224823D02*
X105908740Y-83170395D01*
X106017597Y-83115966D01*
X106289740Y-83115966D01*
X106398597Y-83170395D01*
X106453026Y-83224823D01*
X106507454Y-83333680D01*
X106507454Y-83442537D01*
X106453026Y-83605823D01*
X105799883Y-84258966D01*
X106507454Y-84258966D01*
X107215026Y-83115966D02*
X107323883Y-83115966D01*
X107432740Y-83170395D01*
X107487168Y-83224823D01*
X107541597Y-83333680D01*
X107596026Y-83551395D01*
X107596026Y-83823537D01*
X107541597Y-84041252D01*
X107487168Y-84150109D01*
X107432740Y-84204537D01*
X107323883Y-84258966D01*
X107215026Y-84258966D01*
X107106168Y-84204537D01*
X107051740Y-84150109D01*
X106997311Y-84041252D01*
X106942883Y-83823537D01*
X106942883Y-83551395D01*
X106997311Y-83333680D01*
X107051740Y-83224823D01*
X107106168Y-83170395D01*
X107215026Y-83115966D01*
X108031454Y-83224823D02*
X108085883Y-83170395D01*
X108194740Y-83115966D01*
X108466883Y-83115966D01*
X108575740Y-83170395D01*
X108630168Y-83224823D01*
X108684597Y-83333680D01*
X108684597Y-83442537D01*
X108630168Y-83605823D01*
X107977026Y-84258966D01*
X108684597Y-84258966D01*
X109120026Y-83224823D02*
X109174454Y-83170395D01*
X109283311Y-83115966D01*
X109555454Y-83115966D01*
X109664311Y-83170395D01*
X109718740Y-83224823D01*
X109773168Y-83333680D01*
X109773168Y-83442537D01*
X109718740Y-83605823D01*
X109065597Y-84258966D01*
X109773168Y-84258966D01*
X110263026Y-83823537D02*
X111133883Y-83823537D01*
X111895883Y-83115966D02*
X112004740Y-83115966D01*
X112113597Y-83170395D01*
X112168026Y-83224823D01*
X112222454Y-83333680D01*
X112276883Y-83551395D01*
X112276883Y-83823537D01*
X112222454Y-84041252D01*
X112168026Y-84150109D01*
X112113597Y-84204537D01*
X112004740Y-84258966D01*
X111895883Y-84258966D01*
X111787026Y-84204537D01*
X111732597Y-84150109D01*
X111678168Y-84041252D01*
X111623740Y-83823537D01*
X111623740Y-83551395D01*
X111678168Y-83333680D01*
X111732597Y-83224823D01*
X111787026Y-83170395D01*
X111895883Y-83115966D01*
X112657883Y-83115966D02*
X113365454Y-83115966D01*
X112984454Y-83551395D01*
X113147740Y-83551395D01*
X113256597Y-83605823D01*
X113311026Y-83660252D01*
X113365454Y-83769109D01*
X113365454Y-84041252D01*
X113311026Y-84150109D01*
X113256597Y-84204537D01*
X113147740Y-84258966D01*
X112821168Y-84258966D01*
X112712311Y-84204537D01*
X112657883Y-84150109D01*
X113855311Y-83823537D02*
X114726168Y-83823537D01*
X115216026Y-83224823D02*
X115270454Y-83170395D01*
X115379311Y-83115966D01*
X115651454Y-83115966D01*
X115760311Y-83170395D01*
X115814740Y-83224823D01*
X115869168Y-83333680D01*
X115869168Y-83442537D01*
X115814740Y-83605823D01*
X115161597Y-84258966D01*
X115869168Y-84258966D01*
X116522311Y-83605823D02*
X116413454Y-83551395D01*
X116359026Y-83496966D01*
X116304597Y-83388109D01*
X116304597Y-83333680D01*
X116359026Y-83224823D01*
X116413454Y-83170395D01*
X116522311Y-83115966D01*
X116740026Y-83115966D01*
X116848883Y-83170395D01*
X116903311Y-83224823D01*
X116957740Y-83333680D01*
X116957740Y-83388109D01*
X116903311Y-83496966D01*
X116848883Y-83551395D01*
X116740026Y-83605823D01*
X116522311Y-83605823D01*
X116413454Y-83660252D01*
X116359026Y-83714680D01*
X116304597Y-83823537D01*
X116304597Y-84041252D01*
X116359026Y-84150109D01*
X116413454Y-84204537D01*
X116522311Y-84258966D01*
X116740026Y-84258966D01*
X116848883Y-84204537D01*
X116903311Y-84150109D01*
X116957740Y-84041252D01*
X116957740Y-83823537D01*
X116903311Y-83714680D01*
X116848883Y-83660252D01*
X116740026Y-83605823D01*
D12*
%TO.C,REF\u002A\u002A*%
X114487032Y-59369364D02*
X115725028Y-59957374D01*
X115725028Y-58781364D02*
X114487023Y-59369364D01*
X115642030Y-58894369D02*
X115202030Y-59554369D01*
X115725028Y-58781364D02*
X115725028Y-59957374D01*
%TD*%
D13*
%TO.P,REF\u002A\u002A,1*%
%TO.N,GND*%
X103972004Y-49335385D03*
%TD*%
%TO.P,REF\u002A\u002A,1*%
%TO.N,GND*%
X103972004Y-87371797D03*
%TD*%
%TO.P,REF\u002A\u002A,1*%
%TO.N,GND*%
X118950003Y-49335374D03*
%TD*%
%TO.P,REF\u002A\u002A,1*%
%TO.N,GND*%
X118950003Y-87371797D03*
%TD*%
D14*
%TO.P,J2,1,Pin_1*%
%TO.N,+5V*%
X102280008Y-59477568D03*
D15*
%TO.P,J2,2,Pin_2*%
X102280008Y-62017568D03*
%TO.P,J2,3,Pin_3*%
X102280008Y-64557568D03*
%TO.P,J2,4,Pin_4*%
%TO.N,GND*%
X102280008Y-67097568D03*
%TO.P,J2,5,Pin_5*%
X102280008Y-69637568D03*
%TO.P,J2,6,Pin_6*%
%TO.N,MISO*%
X102280008Y-72177568D03*
%TO.P,J2,7,Pin_7*%
%TO.N,GND*%
X102280008Y-74717568D03*
%TO.P,J2,8,Pin_8*%
%TO.N,SCLK*%
X102280008Y-77257568D03*
%TD*%
D16*
%TO.P,C1,1*%
%TO.N,+5V*%
X104606025Y-56019369D03*
%TO.P,C1,2*%
%TO.N,GND*%
X102106025Y-56019369D03*
%TD*%
D14*
%TO.P,J1,1,Pin_1*%
%TO.N,MISO*%
X112731016Y-54094368D03*
D15*
%TO.P,J1,2,Pin_2*%
%TO.N,+5V*%
X110191016Y-54094368D03*
%TO.P,J1,3,Pin_3*%
%TO.N,SCLK*%
X112731016Y-51554368D03*
%TO.P,J1,4,Pin_4*%
%TO.N,MOSI*%
X110191016Y-51554368D03*
%TO.P,J1,5,Pin_5*%
%TO.N,RESET*%
X112731016Y-49014368D03*
%TO.P,J1,6,Pin_6*%
%TO.N,GND*%
X110191016Y-49014368D03*
%TD*%
D17*
%TO.P,J3,1,Pin_1*%
%TO.N,SCLK*%
X120642024Y-59477568D03*
D15*
%TO.P,J3,2,Pin_2*%
%TO.N,GND*%
X120642024Y-62017568D03*
%TO.P,J3,3,Pin_3*%
%TO.N,RESET*%
X120642024Y-64557568D03*
%TO.P,J3,4,Pin_4*%
%TO.N,GND*%
X120642024Y-67097568D03*
%TO.P,J3,5,Pin_5*%
%TO.N,MOSI*%
X120642024Y-69637568D03*
%TO.P,J3,6,Pin_6*%
%TO.N,GND*%
X120642024Y-72177568D03*
%TO.P,J3,7,Pin_7*%
%TO.N,unconnected-(J3-Pad7)*%
X120642024Y-74717568D03*
%TO.P,J3,8,Pin_8*%
%TO.N,GND*%
X120642024Y-77257568D03*
%TD*%
D18*
%TO.N,GND*%
X104820009Y-69637568D03*
X107905017Y-49014380D03*
X118006037Y-67097568D03*
X117906025Y-62069369D03*
X118950003Y-53355392D03*
X118979239Y-83351802D03*
X103972004Y-83351802D03*
X117906037Y-72177568D03*
%TO.N,RESET*%
X114906025Y-51069369D03*
X116306025Y-64569369D03*
%TO.N,MOSI*%
X107806025Y-54094368D03*
X115967525Y-69637580D03*
%TD*%
D19*
%TO.N,+5V*%
X110055062Y-54094368D02*
X110191016Y-54094368D01*
X102280008Y-59477568D02*
X103847826Y-59477568D01*
X103847826Y-59477568D02*
X104606025Y-58719369D01*
X102280008Y-64557568D02*
X102280008Y-62017568D01*
X102280008Y-62017568D02*
X102280008Y-59477568D01*
X108080061Y-56069369D02*
X110055062Y-54094368D01*
X104706025Y-56069369D02*
X108080061Y-56069369D01*
X104606025Y-58719369D02*
X104606025Y-56019369D01*
D20*
%TO.N,GND*%
X121706025Y-83869369D02*
X121706025Y-84615775D01*
X122306025Y-72291389D02*
X122306025Y-77245767D01*
X122306025Y-72269369D02*
X122306025Y-66869369D01*
X110191016Y-49014368D02*
X110191016Y-46284378D01*
X118918008Y-49313347D02*
X115874030Y-46269369D01*
X122206025Y-67097568D02*
X120642024Y-67097568D01*
X120642024Y-77257568D02*
X120642024Y-81689017D01*
X118979239Y-83351802D02*
X121188458Y-83351802D01*
X122197826Y-72177568D02*
X122206025Y-72169369D01*
X120642024Y-81689017D02*
X118979239Y-83351802D01*
X102280008Y-67097568D02*
X102280008Y-69637568D01*
X122306025Y-77245767D02*
X122294224Y-77257568D01*
X100606025Y-69637568D02*
X102280008Y-69637568D01*
X102280008Y-74717568D02*
X100657826Y-74717568D01*
X117906025Y-62069369D02*
X120590223Y-62069369D01*
X100606025Y-74669369D02*
X100606025Y-69637568D01*
X122306025Y-52691396D02*
X118950003Y-49335374D01*
X102106025Y-56019369D02*
X100906025Y-54819369D01*
X118950003Y-83381038D02*
X118979239Y-83351802D01*
X120642024Y-72177568D02*
X117906037Y-72177568D01*
X121188458Y-83351802D02*
X121706025Y-83869369D01*
X102106025Y-56244369D02*
X102106025Y-56219369D01*
X100606025Y-74769369D02*
X100606025Y-79985823D01*
X118918008Y-49335374D02*
X118918008Y-49313347D01*
X120590223Y-62069369D02*
X120642024Y-62017568D01*
X122306025Y-53669369D02*
X122306025Y-52691396D01*
X100906025Y-54819369D02*
X100906025Y-52401364D01*
X100606025Y-67097568D02*
X100606025Y-57744369D01*
X120642024Y-72177568D02*
X122197826Y-72177568D01*
X100606025Y-57744369D02*
X102106025Y-56244369D01*
X110191016Y-46284378D02*
X110206025Y-46269369D01*
X121706025Y-84615775D02*
X118950003Y-87371797D01*
X107006025Y-46269369D02*
X103940009Y-49335385D01*
X122306025Y-62212971D02*
X122306025Y-67025767D01*
X102280008Y-67097568D02*
X100606025Y-67097568D01*
X122294224Y-77257568D02*
X120642024Y-77257568D01*
X107905017Y-49014380D02*
X110191004Y-49014380D01*
X120642024Y-62017568D02*
X122254224Y-62017568D01*
X115874030Y-46269369D02*
X110206025Y-46269369D01*
X118950003Y-53355392D02*
X122235650Y-53355392D01*
X118006037Y-67097568D02*
X120642024Y-67097568D01*
X110191004Y-49014380D02*
X110191016Y-49014368D01*
X100906025Y-52401364D02*
X103972004Y-49335385D01*
X100606025Y-79985823D02*
X103972004Y-83351802D01*
X110206025Y-46269369D02*
X107006025Y-46269369D01*
X122306025Y-62469369D02*
X122306025Y-53569369D01*
D21*
%TO.N,MISO*%
X112731016Y-54094368D02*
X112731016Y-55644378D01*
X109306025Y-56369369D02*
X108206025Y-57469369D01*
X112006025Y-56369369D02*
X109306025Y-56369369D01*
X112731016Y-55644378D02*
X112006025Y-56369369D01*
X108206025Y-57469369D02*
X108206025Y-71069369D01*
X108206025Y-71069369D02*
X107097826Y-72177568D01*
X107097826Y-72177568D02*
X102280008Y-72177568D01*
%TO.N,SCLK*%
X113091024Y-51554368D02*
X115206025Y-53669369D01*
X103455622Y-80418966D02*
X113556428Y-80418966D01*
X114606025Y-62569369D02*
X117697826Y-59477568D01*
X119706025Y-57069369D02*
X120642024Y-58005368D01*
X117697826Y-59477568D02*
X120642024Y-59477568D01*
X115206025Y-56119369D02*
X116156025Y-57069369D01*
X112731016Y-51554368D02*
X113091024Y-51554368D01*
X113556428Y-80418966D02*
X114606025Y-79369369D01*
X120642024Y-58005368D02*
X120642024Y-59477568D01*
X114606025Y-79369369D02*
X114606025Y-62569369D01*
X102280008Y-79243352D02*
X103455622Y-80418966D01*
X102280008Y-77257568D02*
X102280008Y-79243352D01*
X116156025Y-57069369D02*
X119706025Y-57069369D01*
X115206025Y-53669369D02*
X115206025Y-56119369D01*
%TO.N,RESET*%
X114906025Y-51069369D02*
X114896021Y-51069369D01*
X112751036Y-49014380D02*
X112751032Y-49014380D01*
X114896021Y-51069369D02*
X112841020Y-49014368D01*
X112841020Y-49014368D02*
X112731016Y-49014368D01*
X116306025Y-64569369D02*
X116317826Y-64557568D01*
X116317826Y-64557568D02*
X120642024Y-64557568D01*
%TO.N,MOSI*%
X115967525Y-69637580D02*
X120642012Y-69637580D01*
X107806025Y-54094368D02*
X107806025Y-52469369D01*
X107806025Y-52469369D02*
X108721026Y-51554368D01*
X108721026Y-51554368D02*
X110191016Y-51554368D01*
X120642012Y-69637580D02*
X120642024Y-69637568D01*
%TD*%
%TA.AperFunction,Conductor*%
%TO.N,GND*%
G36*
X119970070Y-45796781D02*
G01*
X119984871Y-45799086D01*
X119984874Y-45799086D01*
X119993743Y-45800467D01*
X120010912Y-45798222D01*
X120034852Y-45797389D01*
X120292783Y-45812991D01*
X120307887Y-45814825D01*
X120378661Y-45827795D01*
X120588892Y-45866321D01*
X120603654Y-45869959D01*
X120876421Y-45954956D01*
X120890640Y-45960350D01*
X121151153Y-46077597D01*
X121164622Y-46084666D01*
X121409108Y-46232463D01*
X121421630Y-46241106D01*
X121646520Y-46417297D01*
X121657908Y-46427387D01*
X121859907Y-46629386D01*
X121869997Y-46640774D01*
X122046188Y-46865664D01*
X122054831Y-46878186D01*
X122202628Y-47122672D01*
X122209697Y-47136141D01*
X122310495Y-47360106D01*
X122326943Y-47396651D01*
X122332338Y-47410873D01*
X122409321Y-47657919D01*
X122417334Y-47683634D01*
X122420973Y-47698402D01*
X122454063Y-47878966D01*
X122472469Y-47979407D01*
X122474303Y-47994511D01*
X122489468Y-48245210D01*
X122488211Y-48271920D01*
X122488208Y-48272140D01*
X122486827Y-48281011D01*
X122487991Y-48289913D01*
X122487991Y-48289916D01*
X122490949Y-48312532D01*
X122492013Y-48328870D01*
X122492013Y-88372473D01*
X122490513Y-88391857D01*
X122486827Y-88415531D01*
X122488467Y-88428071D01*
X122489072Y-88432698D01*
X122489905Y-88456640D01*
X122474303Y-88714571D01*
X122472469Y-88729675D01*
X122420975Y-89010674D01*
X122417335Y-89025442D01*
X122391920Y-89107003D01*
X122332339Y-89298205D01*
X122326944Y-89312428D01*
X122253264Y-89476140D01*
X122209699Y-89572937D01*
X122202628Y-89586410D01*
X122054831Y-89830896D01*
X122046188Y-89843418D01*
X121869997Y-90068308D01*
X121859907Y-90079696D01*
X121657908Y-90281695D01*
X121646520Y-90291785D01*
X121421630Y-90467976D01*
X121409108Y-90476619D01*
X121164622Y-90624416D01*
X121151153Y-90631485D01*
X120890643Y-90748731D01*
X120876421Y-90754126D01*
X120603654Y-90839123D01*
X120588892Y-90842761D01*
X120378661Y-90881287D01*
X120307887Y-90894257D01*
X120292783Y-90896091D01*
X120042084Y-90911256D01*
X120015374Y-90909999D01*
X120015154Y-90909996D01*
X120006283Y-90908615D01*
X119997381Y-90909779D01*
X119997378Y-90909779D01*
X119974762Y-90912737D01*
X119958424Y-90913801D01*
X115160321Y-90913801D01*
X115140937Y-90912301D01*
X115126136Y-90909996D01*
X115126132Y-90909996D01*
X115117263Y-90908615D01*
X115108361Y-90909779D01*
X115108357Y-90909779D01*
X115108261Y-90909792D01*
X115077824Y-90910063D01*
X115015619Y-90903055D01*
X114988112Y-90896777D01*
X114910922Y-90869767D01*
X114885503Y-90857525D01*
X114816256Y-90814014D01*
X114794197Y-90796422D01*
X114736373Y-90738598D01*
X114718781Y-90716539D01*
X114675270Y-90647292D01*
X114663028Y-90621871D01*
X114636019Y-90544684D01*
X114629740Y-90517177D01*
X114623472Y-90461550D01*
X114622689Y-90445904D01*
X114622798Y-90436946D01*
X114624180Y-90428072D01*
X114620058Y-90396550D01*
X114618994Y-90380213D01*
X114618994Y-89851186D01*
X116835544Y-89851186D01*
X116843681Y-89862192D01*
X117103941Y-90061896D01*
X117109540Y-90065730D01*
X117405264Y-90245533D01*
X117411254Y-90248745D01*
X117724660Y-90395555D01*
X117730964Y-90398102D01*
X118058387Y-90510203D01*
X118064938Y-90512057D01*
X118402542Y-90588139D01*
X118409261Y-90589276D01*
X118753116Y-90628454D01*
X118759906Y-90628857D01*
X119105976Y-90630669D01*
X119112777Y-90630337D01*
X119457023Y-90594763D01*
X119463751Y-90593697D01*
X119802147Y-90521150D01*
X119808696Y-90519371D01*
X120137281Y-90410702D01*
X120143623Y-90408216D01*
X120458526Y-90264707D01*
X120464580Y-90261542D01*
X120762131Y-90084870D01*
X120767812Y-90081067D01*
X121044550Y-89873286D01*
X121049774Y-89868902D01*
X121056241Y-89862850D01*
X121064310Y-89849170D01*
X121064283Y-89848446D01*
X121059139Y-89840143D01*
X118962815Y-87743819D01*
X118948871Y-87736205D01*
X118947038Y-87736336D01*
X118940423Y-87740587D01*
X116842425Y-89838585D01*
X116835544Y-89851186D01*
X114618994Y-89851186D01*
X114618994Y-88825019D01*
X114620740Y-88804115D01*
X114623258Y-88789147D01*
X114624065Y-88784351D01*
X114624218Y-88771812D01*
X114623527Y-88766987D01*
X114623469Y-88766101D01*
X114622517Y-88756343D01*
X114606282Y-88446564D01*
X114606004Y-88441258D01*
X114605356Y-88437162D01*
X114554739Y-88117587D01*
X114554223Y-88114326D01*
X114468552Y-87794597D01*
X114446138Y-87736205D01*
X114351114Y-87488660D01*
X114349930Y-87485575D01*
X114199656Y-87190645D01*
X114019376Y-86913039D01*
X113811066Y-86655798D01*
X113577008Y-86421740D01*
X113319767Y-86213430D01*
X113042161Y-86033150D01*
X112747231Y-85882876D01*
X112659999Y-85849391D01*
X112603571Y-85806306D01*
X112579394Y-85739552D01*
X112595145Y-85670325D01*
X112645823Y-85620603D01*
X112705153Y-85605760D01*
X115989506Y-85605760D01*
X116057627Y-85625762D01*
X116104120Y-85679418D01*
X116114224Y-85749692D01*
X116100654Y-85791107D01*
X115994521Y-85989877D01*
X115991645Y-85996046D01*
X115862561Y-86317152D01*
X115860368Y-86323592D01*
X115766717Y-86656765D01*
X115765234Y-86663400D01*
X115708115Y-87004733D01*
X115707356Y-87011505D01*
X115687434Y-87357009D01*
X115687410Y-87363804D01*
X115704920Y-87709456D01*
X115705630Y-87716212D01*
X115760366Y-88057938D01*
X115761805Y-88064593D01*
X115853125Y-88398401D01*
X115855274Y-88404862D01*
X115982113Y-88726864D01*
X115984944Y-88733047D01*
X116145818Y-89039467D01*
X116149301Y-89045310D01*
X116342324Y-89332558D01*
X116346427Y-89338002D01*
X116461914Y-89475148D01*
X116474653Y-89483591D01*
X116485097Y-89477493D01*
X118589661Y-87372929D01*
X119314411Y-87372929D01*
X119314542Y-87374762D01*
X119318793Y-87381377D01*
X121413556Y-89476140D01*
X121427153Y-89483565D01*
X121436764Y-89476865D01*
X121532848Y-89365157D01*
X121537006Y-89359757D01*
X121733026Y-89074548D01*
X121736573Y-89068737D01*
X121900637Y-88764035D01*
X121903544Y-88757857D01*
X122033747Y-88437208D01*
X122035961Y-88430778D01*
X122130772Y-88097940D01*
X122132279Y-88091310D01*
X122190593Y-87750159D01*
X122191373Y-87743419D01*
X122212598Y-87396373D01*
X122212714Y-87392770D01*
X122212782Y-87373616D01*
X122212690Y-87369991D01*
X122193888Y-87022820D01*
X122193153Y-87016054D01*
X122137227Y-86674535D01*
X122135760Y-86667863D01*
X122043281Y-86334394D01*
X122041107Y-86327931D01*
X121913146Y-86006380D01*
X121910293Y-86000206D01*
X121748346Y-85694342D01*
X121744852Y-85688525D01*
X121550816Y-85401937D01*
X121546702Y-85396518D01*
X121438093Y-85268450D01*
X121425268Y-85260014D01*
X121414943Y-85266067D01*
X119322025Y-87358985D01*
X119314411Y-87372929D01*
X118589661Y-87372929D01*
X121057434Y-84905156D01*
X121065048Y-84891212D01*
X121064980Y-84890257D01*
X121061027Y-84884279D01*
X120786670Y-84675276D01*
X120781044Y-84671452D01*
X120484709Y-84492691D01*
X120478697Y-84489494D01*
X120164777Y-84343777D01*
X120158477Y-84341257D01*
X119830667Y-84230300D01*
X119824089Y-84228464D01*
X119486240Y-84153565D01*
X119479502Y-84152449D01*
X119135518Y-84114472D01*
X119128738Y-84114093D01*
X118782639Y-84113490D01*
X118775866Y-84113845D01*
X118431729Y-84150622D01*
X118425019Y-84151709D01*
X118083550Y-84226161D01*
X118083296Y-84224995D01*
X118017194Y-84223892D01*
X117958117Y-84184517D01*
X117929706Y-84119453D01*
X117928705Y-84103605D01*
X117928705Y-80037800D01*
X115311082Y-80037800D01*
X115242961Y-80017798D01*
X115196468Y-79964142D01*
X115186364Y-79893868D01*
X115215058Y-79830220D01*
X115239970Y-79800897D01*
X115239973Y-79800893D01*
X115244709Y-79795318D01*
X115248037Y-79788801D01*
X115251414Y-79783737D01*
X115254641Y-79778513D01*
X115259185Y-79772769D01*
X115271473Y-79746478D01*
X115290257Y-79706287D01*
X115292188Y-79702336D01*
X115322238Y-79643486D01*
X115325568Y-79636965D01*
X115327309Y-79629850D01*
X115329446Y-79624104D01*
X115331370Y-79618321D01*
X115334469Y-79611690D01*
X115349419Y-79539812D01*
X115350388Y-79535531D01*
X115366495Y-79469708D01*
X115367829Y-79464257D01*
X115368525Y-79453039D01*
X115368564Y-79453041D01*
X115368797Y-79449140D01*
X115369186Y-79444781D01*
X115370677Y-79437613D01*
X115368571Y-79359792D01*
X115368525Y-79356383D01*
X115368525Y-77525534D01*
X119310281Y-77525534D01*
X119340589Y-77660014D01*
X119343669Y-77669843D01*
X119423794Y-77867171D01*
X119428437Y-77876362D01*
X119539718Y-78057956D01*
X119545801Y-78066267D01*
X119685237Y-78227235D01*
X119692604Y-78234451D01*
X119856458Y-78370484D01*
X119864905Y-78376399D01*
X120048780Y-78483847D01*
X120058066Y-78488297D01*
X120257025Y-78564271D01*
X120266923Y-78567147D01*
X120370274Y-78588174D01*
X120384323Y-78586978D01*
X120388024Y-78576633D01*
X120388024Y-78576085D01*
X120896024Y-78576085D01*
X120900088Y-78589927D01*
X120913502Y-78591961D01*
X120920208Y-78591102D01*
X120930286Y-78588960D01*
X121134279Y-78527759D01*
X121143866Y-78524001D01*
X121335119Y-78430307D01*
X121343969Y-78425032D01*
X121517352Y-78301360D01*
X121525224Y-78294707D01*
X121676076Y-78144380D01*
X121682754Y-78136533D01*
X121807027Y-77963588D01*
X121812337Y-77954751D01*
X121906694Y-77763835D01*
X121910493Y-77754240D01*
X121972401Y-77550478D01*
X121974579Y-77540405D01*
X121976010Y-77529530D01*
X121973799Y-77515346D01*
X121960641Y-77511568D01*
X120914139Y-77511568D01*
X120898900Y-77516043D01*
X120897695Y-77517433D01*
X120896024Y-77525116D01*
X120896024Y-78576085D01*
X120388024Y-78576085D01*
X120388024Y-77529683D01*
X120383549Y-77514444D01*
X120382159Y-77513239D01*
X120374476Y-77511568D01*
X119325249Y-77511568D01*
X119311718Y-77515541D01*
X119310281Y-77525534D01*
X115368525Y-77525534D01*
X115368525Y-74684263D01*
X119279275Y-74684263D01*
X119279572Y-74689416D01*
X119279572Y-74689419D01*
X119285035Y-74784158D01*
X119292134Y-74907283D01*
X119293271Y-74912329D01*
X119293272Y-74912335D01*
X119306621Y-74971568D01*
X119341246Y-75125207D01*
X119425290Y-75332184D01*
X119542011Y-75522656D01*
X119688274Y-75691506D01*
X119860150Y-75834200D01*
X119933002Y-75876771D01*
X119933979Y-75877342D01*
X119982703Y-75928980D01*
X119995774Y-75998763D01*
X119969043Y-76064535D01*
X119928586Y-76097895D01*
X119920481Y-76102114D01*
X119911762Y-76107604D01*
X119741457Y-76235473D01*
X119733750Y-76242316D01*
X119586614Y-76396285D01*
X119580128Y-76404295D01*
X119460122Y-76580217D01*
X119455024Y-76589191D01*
X119365362Y-76782351D01*
X119361799Y-76792038D01*
X119306413Y-76991751D01*
X119307936Y-77000175D01*
X119320316Y-77003568D01*
X121960368Y-77003568D01*
X121973899Y-76999595D01*
X121975204Y-76990515D01*
X121933238Y-76823443D01*
X121929918Y-76813692D01*
X121844996Y-76618382D01*
X121840129Y-76609307D01*
X121724450Y-76430494D01*
X121718160Y-76422325D01*
X121574830Y-76264808D01*
X121567297Y-76257783D01*
X121400163Y-76125790D01*
X121391580Y-76120088D01*
X121354626Y-76099688D01*
X121304655Y-76049255D01*
X121289883Y-75979813D01*
X121314999Y-75913407D01*
X121342351Y-75886800D01*
X121365821Y-75870059D01*
X121521884Y-75758741D01*
X121680120Y-75601057D01*
X121739618Y-75518257D01*
X121807459Y-75423845D01*
X121810477Y-75419645D01*
X121909454Y-75219379D01*
X121974394Y-75005637D01*
X122003553Y-74784158D01*
X122005180Y-74717568D01*
X121986876Y-74494929D01*
X121932455Y-74278270D01*
X121843378Y-74073408D01*
X121722038Y-73885845D01*
X121571694Y-73720619D01*
X121567643Y-73717420D01*
X121567639Y-73717416D01*
X121400438Y-73585368D01*
X121400434Y-73585366D01*
X121396383Y-73582166D01*
X121354593Y-73559097D01*
X121304622Y-73508665D01*
X121289850Y-73439222D01*
X121314966Y-73372816D01*
X121342318Y-73346209D01*
X121517352Y-73221360D01*
X121525224Y-73214707D01*
X121676076Y-73064380D01*
X121682754Y-73056533D01*
X121807027Y-72883588D01*
X121812337Y-72874751D01*
X121906694Y-72683835D01*
X121910493Y-72674240D01*
X121972401Y-72470478D01*
X121974579Y-72460405D01*
X121976010Y-72449530D01*
X121973799Y-72435346D01*
X121960641Y-72431568D01*
X119325249Y-72431568D01*
X119311718Y-72435541D01*
X119310281Y-72445534D01*
X119340589Y-72580014D01*
X119343669Y-72589843D01*
X119423794Y-72787171D01*
X119428437Y-72796362D01*
X119539718Y-72977956D01*
X119545801Y-72986267D01*
X119685237Y-73147235D01*
X119692604Y-73154451D01*
X119856458Y-73290484D01*
X119864905Y-73296399D01*
X119933993Y-73336771D01*
X119982717Y-73388410D01*
X119995788Y-73458193D01*
X119969057Y-73523964D01*
X119928608Y-73557320D01*
X119915631Y-73564075D01*
X119911498Y-73567178D01*
X119911495Y-73567180D01*
X119887271Y-73585368D01*
X119736989Y-73698203D01*
X119582653Y-73859706D01*
X119579739Y-73863978D01*
X119579738Y-73863979D01*
X119567428Y-73882025D01*
X119456767Y-74044248D01*
X119362712Y-74246873D01*
X119303013Y-74462138D01*
X119279275Y-74684263D01*
X115368525Y-74684263D01*
X115368525Y-70778063D01*
X115388527Y-70709942D01*
X115442183Y-70663449D01*
X115512457Y-70653345D01*
X115544263Y-70662295D01*
X115582542Y-70678741D01*
X115623512Y-70696343D01*
X115696342Y-70712823D01*
X115816580Y-70740030D01*
X115816585Y-70740031D01*
X115822217Y-70741305D01*
X115827988Y-70741532D01*
X115827990Y-70741532D01*
X115890995Y-70744007D01*
X116025788Y-70749303D01*
X116227408Y-70720070D01*
X116232872Y-70718215D01*
X116232877Y-70718214D01*
X116414852Y-70656442D01*
X116414857Y-70656440D01*
X116420324Y-70654584D01*
X116598076Y-70555038D01*
X116749373Y-70429206D01*
X116814536Y-70401025D01*
X116829941Y-70400080D01*
X119447576Y-70400080D01*
X119515697Y-70420082D01*
X119542814Y-70443582D01*
X119688274Y-70611506D01*
X119835634Y-70733847D01*
X119854252Y-70749303D01*
X119860150Y-70754200D01*
X119886268Y-70769462D01*
X119933979Y-70797342D01*
X119982703Y-70848980D01*
X119995774Y-70918763D01*
X119969043Y-70984535D01*
X119928586Y-71017895D01*
X119920481Y-71022114D01*
X119911762Y-71027604D01*
X119741457Y-71155473D01*
X119733750Y-71162316D01*
X119586614Y-71316285D01*
X119580128Y-71324295D01*
X119460122Y-71500217D01*
X119455024Y-71509191D01*
X119365362Y-71702351D01*
X119361799Y-71712038D01*
X119306413Y-71911751D01*
X119307936Y-71920175D01*
X119320316Y-71923568D01*
X121960368Y-71923568D01*
X121973899Y-71919595D01*
X121975204Y-71910515D01*
X121933238Y-71743443D01*
X121929918Y-71733692D01*
X121844996Y-71538382D01*
X121840129Y-71529307D01*
X121724450Y-71350494D01*
X121718160Y-71342325D01*
X121574830Y-71184808D01*
X121567297Y-71177783D01*
X121400163Y-71045790D01*
X121391580Y-71040088D01*
X121354626Y-71019688D01*
X121304655Y-70969255D01*
X121289883Y-70899813D01*
X121314999Y-70833407D01*
X121342351Y-70806800D01*
X121394697Y-70769462D01*
X121521884Y-70678741D01*
X121548960Y-70651760D01*
X121603233Y-70597675D01*
X121680120Y-70521057D01*
X121752678Y-70420082D01*
X121807459Y-70343845D01*
X121810477Y-70339645D01*
X121909454Y-70139379D01*
X121974394Y-69925637D01*
X122003553Y-69704158D01*
X122005180Y-69637568D01*
X121986876Y-69414929D01*
X121932455Y-69198270D01*
X121843378Y-68993408D01*
X121766828Y-68875080D01*
X121724846Y-68810185D01*
X121724844Y-68810182D01*
X121722038Y-68805845D01*
X121571694Y-68640619D01*
X121567643Y-68637420D01*
X121567639Y-68637416D01*
X121400438Y-68505368D01*
X121400434Y-68505366D01*
X121396383Y-68502166D01*
X121354593Y-68479097D01*
X121304622Y-68428665D01*
X121289850Y-68359222D01*
X121314966Y-68292816D01*
X121342318Y-68266209D01*
X121517352Y-68141360D01*
X121525224Y-68134707D01*
X121676076Y-67984380D01*
X121682754Y-67976533D01*
X121807027Y-67803588D01*
X121812337Y-67794751D01*
X121906694Y-67603835D01*
X121910493Y-67594240D01*
X121972401Y-67390478D01*
X121974579Y-67380405D01*
X121976010Y-67369530D01*
X121973799Y-67355346D01*
X121960641Y-67351568D01*
X119325249Y-67351568D01*
X119311718Y-67355541D01*
X119310281Y-67365534D01*
X119340589Y-67500014D01*
X119343669Y-67509843D01*
X119423794Y-67707171D01*
X119428437Y-67716362D01*
X119539718Y-67897956D01*
X119545801Y-67906267D01*
X119685237Y-68067235D01*
X119692604Y-68074451D01*
X119856458Y-68210484D01*
X119864905Y-68216399D01*
X119933993Y-68256771D01*
X119982717Y-68308410D01*
X119995788Y-68378193D01*
X119969057Y-68443964D01*
X119928608Y-68477320D01*
X119915631Y-68484075D01*
X119911498Y-68487178D01*
X119911495Y-68487180D01*
X119741124Y-68615098D01*
X119736989Y-68618203D01*
X119582653Y-68779706D01*
X119579739Y-68783978D01*
X119579738Y-68783979D01*
X119555109Y-68820084D01*
X119500198Y-68865087D01*
X119451021Y-68875080D01*
X116825115Y-68875080D01*
X116756994Y-68855078D01*
X116739586Y-68841604D01*
X116649473Y-68758304D01*
X116645228Y-68754380D01*
X116565399Y-68704012D01*
X116477813Y-68648749D01*
X116477808Y-68648747D01*
X116472929Y-68645668D01*
X116283705Y-68570175D01*
X116083891Y-68530429D01*
X116078117Y-68530353D01*
X116078113Y-68530353D01*
X115974977Y-68529004D01*
X115880180Y-68527763D01*
X115874483Y-68528742D01*
X115874482Y-68528742D01*
X115685092Y-68561285D01*
X115679395Y-68562264D01*
X115617924Y-68584942D01*
X115538136Y-68614377D01*
X115467302Y-68619189D01*
X115405112Y-68584942D01*
X115371310Y-68522508D01*
X115368525Y-68496165D01*
X115368525Y-65502386D01*
X115388527Y-65434265D01*
X115442183Y-65387772D01*
X115512457Y-65377668D01*
X115577037Y-65407162D01*
X115582446Y-65412131D01*
X115605435Y-65434526D01*
X115610231Y-65437731D01*
X115610234Y-65437733D01*
X115678174Y-65483129D01*
X115774828Y-65547711D01*
X115780131Y-65549989D01*
X115780134Y-65549991D01*
X115869140Y-65588231D01*
X115962012Y-65628132D01*
X116034842Y-65644612D01*
X116155080Y-65671819D01*
X116155085Y-65671820D01*
X116160717Y-65673094D01*
X116166488Y-65673321D01*
X116166490Y-65673321D01*
X116229495Y-65675796D01*
X116364288Y-65681092D01*
X116565908Y-65651859D01*
X116571372Y-65650004D01*
X116571377Y-65650003D01*
X116753352Y-65588231D01*
X116753357Y-65588229D01*
X116758824Y-65586373D01*
X116936576Y-65486827D01*
X117093211Y-65356555D01*
X117093543Y-65356155D01*
X117154358Y-65322947D01*
X117181141Y-65320068D01*
X119447566Y-65320068D01*
X119515687Y-65340070D01*
X119542803Y-65363571D01*
X119663049Y-65502386D01*
X119688274Y-65531506D01*
X119860150Y-65674200D01*
X119933979Y-65717342D01*
X119982703Y-65768980D01*
X119995774Y-65838763D01*
X119969043Y-65904535D01*
X119928586Y-65937895D01*
X119920481Y-65942114D01*
X119911762Y-65947604D01*
X119741457Y-66075473D01*
X119733750Y-66082316D01*
X119586614Y-66236285D01*
X119580128Y-66244295D01*
X119460122Y-66420217D01*
X119455024Y-66429191D01*
X119365362Y-66622351D01*
X119361799Y-66632038D01*
X119306413Y-66831751D01*
X119307936Y-66840175D01*
X119320316Y-66843568D01*
X121960368Y-66843568D01*
X121973899Y-66839595D01*
X121975204Y-66830515D01*
X121933238Y-66663443D01*
X121929918Y-66653692D01*
X121844996Y-66458382D01*
X121840129Y-66449307D01*
X121724450Y-66270494D01*
X121718160Y-66262325D01*
X121574830Y-66104808D01*
X121567297Y-66097783D01*
X121400163Y-65965790D01*
X121391580Y-65960088D01*
X121354626Y-65939688D01*
X121304655Y-65889255D01*
X121289883Y-65819813D01*
X121314999Y-65753407D01*
X121342351Y-65726800D01*
X121406431Y-65681092D01*
X121521884Y-65598741D01*
X121534296Y-65586373D01*
X121676459Y-65444705D01*
X121680120Y-65441057D01*
X121739618Y-65358257D01*
X121807459Y-65263845D01*
X121810477Y-65259645D01*
X121857929Y-65163634D01*
X121907160Y-65064021D01*
X121907161Y-65064019D01*
X121909454Y-65059379D01*
X121974394Y-64845637D01*
X122003553Y-64624158D01*
X122005180Y-64557568D01*
X121986876Y-64334929D01*
X121932455Y-64118270D01*
X121843378Y-63913408D01*
X121771990Y-63803059D01*
X121724846Y-63730185D01*
X121724844Y-63730182D01*
X121722038Y-63725845D01*
X121571694Y-63560619D01*
X121567640Y-63557417D01*
X121567639Y-63557416D01*
X121400438Y-63425368D01*
X121400434Y-63425366D01*
X121396383Y-63422166D01*
X121354593Y-63399097D01*
X121304622Y-63348665D01*
X121289850Y-63279222D01*
X121314966Y-63212816D01*
X121342318Y-63186209D01*
X121517352Y-63061360D01*
X121525224Y-63054707D01*
X121676076Y-62904380D01*
X121682754Y-62896533D01*
X121807027Y-62723588D01*
X121812337Y-62714751D01*
X121906694Y-62523835D01*
X121910493Y-62514240D01*
X121972401Y-62310478D01*
X121974579Y-62300405D01*
X121976010Y-62289530D01*
X121973799Y-62275346D01*
X121960641Y-62271568D01*
X119325249Y-62271568D01*
X119311718Y-62275541D01*
X119310281Y-62285534D01*
X119340589Y-62420014D01*
X119343669Y-62429843D01*
X119423794Y-62627171D01*
X119428437Y-62636362D01*
X119539718Y-62817956D01*
X119545801Y-62826267D01*
X119685237Y-62987235D01*
X119692604Y-62994451D01*
X119856458Y-63130484D01*
X119864905Y-63136399D01*
X119933993Y-63176771D01*
X119982717Y-63228410D01*
X119995788Y-63298193D01*
X119969057Y-63363964D01*
X119928608Y-63397320D01*
X119915631Y-63404075D01*
X119911498Y-63407178D01*
X119911495Y-63407180D01*
X119741124Y-63535098D01*
X119736989Y-63538203D01*
X119733417Y-63541941D01*
X119598535Y-63683087D01*
X119582653Y-63699706D01*
X119579739Y-63703978D01*
X119555116Y-63740073D01*
X119500204Y-63785075D01*
X119451028Y-63795068D01*
X117150850Y-63795068D01*
X117082729Y-63775066D01*
X117065321Y-63761593D01*
X116987968Y-63690088D01*
X116987965Y-63690086D01*
X116983728Y-63686169D01*
X116908904Y-63638959D01*
X116816313Y-63580538D01*
X116816308Y-63580536D01*
X116811429Y-63577457D01*
X116622205Y-63501964D01*
X116422391Y-63462218D01*
X116416617Y-63462142D01*
X116416613Y-63462142D01*
X116313477Y-63460793D01*
X116218680Y-63459552D01*
X116212983Y-63460531D01*
X116212982Y-63460531D01*
X116023592Y-63493074D01*
X116017895Y-63494053D01*
X115826759Y-63564567D01*
X115651674Y-63668732D01*
X115620616Y-63695969D01*
X115577602Y-63733691D01*
X115513198Y-63763568D01*
X115442865Y-63753882D01*
X115388934Y-63707709D01*
X115368525Y-63638959D01*
X115368525Y-62937397D01*
X115388527Y-62869276D01*
X115405430Y-62848302D01*
X117976759Y-60276973D01*
X118039071Y-60242947D01*
X118065854Y-60240068D01*
X119447566Y-60240068D01*
X119515687Y-60260070D01*
X119542803Y-60283571D01*
X119657481Y-60415958D01*
X119688274Y-60451506D01*
X119860150Y-60594200D01*
X119924842Y-60632003D01*
X119933979Y-60637342D01*
X119982703Y-60688980D01*
X119995774Y-60758763D01*
X119969043Y-60824535D01*
X119928586Y-60857895D01*
X119920481Y-60862114D01*
X119911762Y-60867604D01*
X119741457Y-60995473D01*
X119733750Y-61002316D01*
X119586614Y-61156285D01*
X119580128Y-61164295D01*
X119460122Y-61340217D01*
X119455024Y-61349191D01*
X119365362Y-61542351D01*
X119361799Y-61552038D01*
X119306413Y-61751751D01*
X119307936Y-61760175D01*
X119320316Y-61763568D01*
X121960368Y-61763568D01*
X121973899Y-61759595D01*
X121975204Y-61750515D01*
X121933238Y-61583443D01*
X121929918Y-61573692D01*
X121844996Y-61378382D01*
X121840129Y-61369307D01*
X121724450Y-61190494D01*
X121718160Y-61182325D01*
X121574830Y-61024808D01*
X121567297Y-61017783D01*
X121400163Y-60885790D01*
X121391580Y-60880088D01*
X121354626Y-60859688D01*
X121304655Y-60809255D01*
X121289883Y-60739813D01*
X121314999Y-60673407D01*
X121342351Y-60646800D01*
X121365821Y-60630059D01*
X121521884Y-60518741D01*
X121680120Y-60361057D01*
X121754348Y-60257758D01*
X121807459Y-60183845D01*
X121810477Y-60179645D01*
X121828642Y-60142892D01*
X121907160Y-59984021D01*
X121907161Y-59984019D01*
X121909454Y-59979379D01*
X121974394Y-59765637D01*
X122003553Y-59544158D01*
X122005180Y-59477568D01*
X121986876Y-59254929D01*
X121932455Y-59038270D01*
X121843378Y-58833408D01*
X121778399Y-58732966D01*
X121724846Y-58650185D01*
X121724844Y-58650182D01*
X121722038Y-58645845D01*
X121571694Y-58480619D01*
X121526249Y-58444728D01*
X121452431Y-58386430D01*
X121411369Y-58328512D01*
X121404524Y-58287548D01*
X121404524Y-58072736D01*
X121405957Y-58053785D01*
X121408147Y-58039392D01*
X121408147Y-58039390D01*
X121409247Y-58032160D01*
X121408394Y-58021663D01*
X121404939Y-57979193D01*
X121404524Y-57968979D01*
X121404524Y-57960843D01*
X121401214Y-57932452D01*
X121400781Y-57928077D01*
X121395427Y-57862240D01*
X121395426Y-57862237D01*
X121394833Y-57854941D01*
X121392578Y-57847979D01*
X121391378Y-57841975D01*
X121389972Y-57836028D01*
X121389125Y-57828761D01*
X121364077Y-57759755D01*
X121362649Y-57755595D01*
X121342292Y-57692755D01*
X121342290Y-57692750D01*
X121340036Y-57685793D01*
X121336242Y-57679541D01*
X121333690Y-57673966D01*
X121330954Y-57668503D01*
X121328458Y-57661627D01*
X121288205Y-57600231D01*
X121285858Y-57596512D01*
X121247796Y-57533787D01*
X121240356Y-57525362D01*
X121240384Y-57525337D01*
X121237790Y-57522412D01*
X121234985Y-57519058D01*
X121230970Y-57512933D01*
X121174437Y-57459379D01*
X121171996Y-57457002D01*
X120292835Y-56577841D01*
X120280448Y-56563428D01*
X120271820Y-56551704D01*
X120267479Y-56545805D01*
X120226970Y-56511390D01*
X120219454Y-56504460D01*
X120213710Y-56498716D01*
X120210836Y-56496442D01*
X120210829Y-56496436D01*
X120191314Y-56480997D01*
X120187910Y-56478206D01*
X120137553Y-56435424D01*
X120137549Y-56435421D01*
X120131974Y-56430685D01*
X120125457Y-56427357D01*
X120120393Y-56423980D01*
X120115169Y-56420753D01*
X120109425Y-56416209D01*
X120056324Y-56391391D01*
X120042943Y-56385137D01*
X120038992Y-56383206D01*
X119980142Y-56353156D01*
X119973621Y-56349826D01*
X119966506Y-56348085D01*
X119960760Y-56345948D01*
X119954977Y-56344024D01*
X119948346Y-56340925D01*
X119876468Y-56325975D01*
X119872196Y-56325008D01*
X119800913Y-56307565D01*
X119795314Y-56307218D01*
X119795310Y-56307217D01*
X119789695Y-56306869D01*
X119789697Y-56306830D01*
X119785796Y-56306597D01*
X119781437Y-56306208D01*
X119774269Y-56304717D01*
X119766952Y-56304915D01*
X119696448Y-56306823D01*
X119693039Y-56306869D01*
X116524053Y-56306869D01*
X116455932Y-56286867D01*
X116434958Y-56269964D01*
X116005430Y-55840436D01*
X115971404Y-55778124D01*
X115968525Y-55751341D01*
X115968525Y-53736745D01*
X115969958Y-53717795D01*
X115972149Y-53703396D01*
X115972149Y-53703390D01*
X115973249Y-53696161D01*
X115971436Y-53673864D01*
X115968940Y-53643186D01*
X115968525Y-53632971D01*
X115968525Y-53624844D01*
X115965214Y-53596445D01*
X115964785Y-53592105D01*
X115961017Y-53545774D01*
X115958834Y-53518943D01*
X115956578Y-53511981D01*
X115955382Y-53505993D01*
X115953974Y-53500036D01*
X115953126Y-53492762D01*
X115950628Y-53485880D01*
X115950627Y-53485876D01*
X115928080Y-53423762D01*
X115926670Y-53419658D01*
X115904038Y-53349794D01*
X115900238Y-53343531D01*
X115897700Y-53337989D01*
X115894958Y-53332513D01*
X115892459Y-53325628D01*
X115888444Y-53319504D01*
X115852210Y-53264237D01*
X115849895Y-53260569D01*
X115811798Y-53197788D01*
X115808082Y-53193581D01*
X115808079Y-53193577D01*
X115804357Y-53189364D01*
X115804387Y-53189338D01*
X115801789Y-53186410D01*
X115798985Y-53183056D01*
X115794971Y-53176934D01*
X115738439Y-53123381D01*
X115735997Y-53121004D01*
X114995111Y-52380117D01*
X114961086Y-52317805D01*
X114966151Y-52246989D01*
X115008698Y-52190154D01*
X115066127Y-52166326D01*
X115094022Y-52162282D01*
X115160193Y-52152688D01*
X115160197Y-52152687D01*
X115165908Y-52151859D01*
X115171372Y-52150004D01*
X115171377Y-52150003D01*
X115353352Y-52088231D01*
X115353357Y-52088229D01*
X115358824Y-52086373D01*
X115383418Y-52072600D01*
X115460703Y-52029318D01*
X115536576Y-51986827D01*
X115693211Y-51856555D01*
X115727969Y-51814763D01*
X116835544Y-51814763D01*
X116843681Y-51825769D01*
X117103941Y-52025473D01*
X117109540Y-52029307D01*
X117405264Y-52209110D01*
X117411254Y-52212322D01*
X117724660Y-52359132D01*
X117730964Y-52361679D01*
X118058387Y-52473780D01*
X118064938Y-52475634D01*
X118402542Y-52551716D01*
X118409261Y-52552853D01*
X118753116Y-52592031D01*
X118759906Y-52592434D01*
X119105976Y-52594246D01*
X119112777Y-52593914D01*
X119457023Y-52558340D01*
X119463751Y-52557274D01*
X119802147Y-52484727D01*
X119808696Y-52482948D01*
X120137281Y-52374279D01*
X120143623Y-52371793D01*
X120458526Y-52228284D01*
X120464580Y-52225119D01*
X120762131Y-52048447D01*
X120767812Y-52044644D01*
X121044550Y-51836863D01*
X121049774Y-51832479D01*
X121056241Y-51826427D01*
X121064310Y-51812747D01*
X121064283Y-51812023D01*
X121059139Y-51803720D01*
X118962815Y-49707396D01*
X118948871Y-49699782D01*
X118947038Y-49699913D01*
X118940423Y-49704164D01*
X116842425Y-51802162D01*
X116835544Y-51814763D01*
X115727969Y-51814763D01*
X115823483Y-51699920D01*
X115923029Y-51522168D01*
X115924885Y-51516701D01*
X115924887Y-51516696D01*
X115986659Y-51334721D01*
X115986660Y-51334716D01*
X115988515Y-51329252D01*
X115989343Y-51323544D01*
X115989344Y-51323538D01*
X116008341Y-51192513D01*
X116037911Y-51127967D01*
X116097682Y-51089655D01*
X116168679Y-51089739D01*
X116228359Y-51128194D01*
X116237619Y-51140317D01*
X116342324Y-51296135D01*
X116346427Y-51301579D01*
X116461914Y-51438725D01*
X116474653Y-51447168D01*
X116485097Y-51441070D01*
X118577981Y-49348186D01*
X118584359Y-49336506D01*
X119314411Y-49336506D01*
X119314542Y-49338339D01*
X119318793Y-49344954D01*
X121413556Y-51439717D01*
X121427153Y-51447142D01*
X121436764Y-51440442D01*
X121532848Y-51328734D01*
X121537006Y-51323334D01*
X121733026Y-51038125D01*
X121736573Y-51032314D01*
X121900637Y-50727612D01*
X121903544Y-50721434D01*
X122033747Y-50400785D01*
X122035961Y-50394355D01*
X122130772Y-50061517D01*
X122132279Y-50054887D01*
X122190593Y-49713736D01*
X122191373Y-49706996D01*
X122212598Y-49359950D01*
X122212714Y-49356347D01*
X122212782Y-49337193D01*
X122212690Y-49333568D01*
X122193888Y-48986397D01*
X122193153Y-48979631D01*
X122137227Y-48638112D01*
X122135760Y-48631440D01*
X122043281Y-48297971D01*
X122041107Y-48291508D01*
X121913146Y-47969957D01*
X121910293Y-47963783D01*
X121748346Y-47657919D01*
X121744852Y-47652102D01*
X121550816Y-47365514D01*
X121546702Y-47360095D01*
X121438093Y-47232027D01*
X121425268Y-47223591D01*
X121414943Y-47229644D01*
X119322025Y-49322562D01*
X119314411Y-49336506D01*
X118584359Y-49336506D01*
X118585595Y-49334242D01*
X118585464Y-49332409D01*
X118581213Y-49325794D01*
X116486460Y-47231041D01*
X116472923Y-47223649D01*
X116463222Y-47230437D01*
X116360223Y-47351033D01*
X116356069Y-47356466D01*
X116161059Y-47642339D01*
X116157524Y-47648176D01*
X115994521Y-47953454D01*
X115991645Y-47959623D01*
X115862561Y-48280729D01*
X115860368Y-48287169D01*
X115766717Y-48620342D01*
X115765234Y-48626977D01*
X115708115Y-48968310D01*
X115707356Y-48975082D01*
X115687434Y-49320586D01*
X115687410Y-49327381D01*
X115704920Y-49673033D01*
X115705630Y-49679789D01*
X115760366Y-50021515D01*
X115761803Y-50028163D01*
X115765589Y-50042002D01*
X115764270Y-50112986D01*
X115724783Y-50171989D01*
X115659666Y-50200277D01*
X115589592Y-50188870D01*
X115576819Y-50181810D01*
X115500427Y-50133610D01*
X115411429Y-50077457D01*
X115222205Y-50001964D01*
X115022391Y-49962218D01*
X115016616Y-49962142D01*
X115016612Y-49962142D01*
X114916372Y-49960830D01*
X114848518Y-49939938D01*
X114828925Y-49923936D01*
X114124080Y-49219090D01*
X114090055Y-49156778D01*
X114088254Y-49113548D01*
X114092108Y-49084276D01*
X114092545Y-49080958D01*
X114094172Y-49014368D01*
X114075868Y-48791729D01*
X114021447Y-48575070D01*
X113932370Y-48370208D01*
X113811030Y-48182645D01*
X113660686Y-48017419D01*
X113656635Y-48014220D01*
X113656631Y-48014216D01*
X113489430Y-47882168D01*
X113489426Y-47882166D01*
X113485375Y-47878966D01*
X113449044Y-47858910D01*
X113433152Y-47850137D01*
X113289805Y-47771006D01*
X113284936Y-47769282D01*
X113284932Y-47769280D01*
X113084103Y-47698163D01*
X113084099Y-47698162D01*
X113079228Y-47696437D01*
X113074135Y-47695530D01*
X113074132Y-47695529D01*
X112864389Y-47658168D01*
X112864383Y-47658167D01*
X112859300Y-47657262D01*
X112785468Y-47656360D01*
X112641097Y-47654596D01*
X112641095Y-47654596D01*
X112635927Y-47654533D01*
X112415107Y-47688323D01*
X112202772Y-47757725D01*
X112004623Y-47860875D01*
X112000490Y-47863978D01*
X112000487Y-47863980D01*
X111830116Y-47991898D01*
X111825981Y-47995003D01*
X111671645Y-48156506D01*
X111668731Y-48160778D01*
X111668730Y-48160779D01*
X111656420Y-48178825D01*
X111579546Y-48291519D01*
X111563914Y-48314434D01*
X111509003Y-48359437D01*
X111438478Y-48367608D01*
X111374731Y-48336354D01*
X111354034Y-48311870D01*
X111273442Y-48187294D01*
X111267152Y-48179125D01*
X111123822Y-48021608D01*
X111116289Y-48014583D01*
X110949155Y-47882590D01*
X110940568Y-47876885D01*
X110754133Y-47773967D01*
X110744721Y-47769737D01*
X110543975Y-47698648D01*
X110534004Y-47696014D01*
X110462853Y-47683340D01*
X110449556Y-47684800D01*
X110445016Y-47699357D01*
X110445016Y-49142368D01*
X110425014Y-49210489D01*
X110371358Y-49256982D01*
X110319016Y-49268368D01*
X108874241Y-49268368D01*
X108860710Y-49272341D01*
X108859273Y-49282334D01*
X108889581Y-49416814D01*
X108892661Y-49426643D01*
X108972786Y-49623971D01*
X108977429Y-49633162D01*
X109088710Y-49814756D01*
X109094793Y-49823067D01*
X109234229Y-49984035D01*
X109241596Y-49991251D01*
X109405450Y-50127284D01*
X109413897Y-50133199D01*
X109482985Y-50173571D01*
X109531709Y-50225210D01*
X109544780Y-50294993D01*
X109518049Y-50360764D01*
X109477600Y-50394120D01*
X109464623Y-50400875D01*
X109460490Y-50403978D01*
X109460487Y-50403980D01*
X109436263Y-50422168D01*
X109285981Y-50535003D01*
X109131645Y-50696506D01*
X109128731Y-50700778D01*
X109104108Y-50736873D01*
X109049196Y-50781875D01*
X109000020Y-50791868D01*
X108788402Y-50791868D01*
X108769452Y-50790435D01*
X108755053Y-50788244D01*
X108755047Y-50788244D01*
X108747818Y-50787144D01*
X108740526Y-50787737D01*
X108740523Y-50787737D01*
X108694843Y-50791453D01*
X108684628Y-50791868D01*
X108676501Y-50791868D01*
X108672865Y-50792292D01*
X108672863Y-50792292D01*
X108669411Y-50792695D01*
X108648102Y-50795179D01*
X108643782Y-50795606D01*
X108570600Y-50801559D01*
X108563638Y-50803815D01*
X108557650Y-50805011D01*
X108551693Y-50806419D01*
X108544419Y-50807267D01*
X108537537Y-50809765D01*
X108537533Y-50809766D01*
X108475419Y-50832313D01*
X108471315Y-50833723D01*
X108401451Y-50856355D01*
X108395188Y-50860155D01*
X108389646Y-50862693D01*
X108384170Y-50865435D01*
X108377285Y-50867934D01*
X108371161Y-50871949D01*
X108315894Y-50908183D01*
X108312226Y-50910498D01*
X108249445Y-50948595D01*
X108245240Y-50952309D01*
X108245237Y-50952311D01*
X108241021Y-50956035D01*
X108240995Y-50956006D01*
X108238064Y-50958606D01*
X108234710Y-50961410D01*
X108228591Y-50965422D01*
X108223559Y-50970734D01*
X108175038Y-51021954D01*
X108172660Y-51024396D01*
X107314497Y-51882559D01*
X107300084Y-51894946D01*
X107282461Y-51907915D01*
X107277717Y-51913498D01*
X107277718Y-51913498D01*
X107248046Y-51948424D01*
X107241116Y-51955940D01*
X107235372Y-51961684D01*
X107233098Y-51964558D01*
X107233092Y-51964565D01*
X107217653Y-51984080D01*
X107214862Y-51987484D01*
X107172080Y-52037841D01*
X107172077Y-52037845D01*
X107167341Y-52043420D01*
X107164013Y-52049937D01*
X107160636Y-52055001D01*
X107157409Y-52060225D01*
X107152865Y-52065969D01*
X107149766Y-52072600D01*
X107121793Y-52132451D01*
X107119862Y-52136402D01*
X107086482Y-52201773D01*
X107084741Y-52208888D01*
X107082604Y-52214634D01*
X107080680Y-52220417D01*
X107077581Y-52227048D01*
X107076091Y-52234212D01*
X107062633Y-52298916D01*
X107061664Y-52303198D01*
X107044221Y-52374481D01*
X107043525Y-52385699D01*
X107043486Y-52385697D01*
X107043253Y-52389598D01*
X107042864Y-52393957D01*
X107041373Y-52401125D01*
X107041571Y-52408442D01*
X107043479Y-52478946D01*
X107043525Y-52482355D01*
X107043525Y-53231485D01*
X107023523Y-53299606D01*
X107006318Y-53319582D01*
X107006821Y-53320060D01*
X107002840Y-53324254D01*
X106998503Y-53328058D01*
X106994936Y-53332583D01*
X106994931Y-53332588D01*
X106923056Y-53423762D01*
X106872376Y-53488049D01*
X106869687Y-53493160D01*
X106869685Y-53493163D01*
X106862935Y-53505993D01*
X106777517Y-53668346D01*
X106717103Y-53862911D01*
X106693157Y-54065227D01*
X106706482Y-54268519D01*
X106756630Y-54465978D01*
X106841923Y-54650992D01*
X106959504Y-54817365D01*
X106963638Y-54821392D01*
X107078522Y-54933307D01*
X107105435Y-54959525D01*
X107110231Y-54962730D01*
X107110234Y-54962732D01*
X107184873Y-55012604D01*
X107230401Y-55067081D01*
X107239249Y-55137524D01*
X107208607Y-55201568D01*
X107148206Y-55238880D01*
X107114871Y-55243369D01*
X105725638Y-55243369D01*
X105657517Y-55223367D01*
X105622427Y-55189642D01*
X105612223Y-55175069D01*
X105450325Y-55013171D01*
X105445817Y-55010014D01*
X105445814Y-55010012D01*
X105319945Y-54921878D01*
X105262774Y-54881846D01*
X105257792Y-54879523D01*
X105257787Y-54879520D01*
X105060250Y-54787408D01*
X105060249Y-54787408D01*
X105055268Y-54785085D01*
X105049960Y-54783663D01*
X105049958Y-54783662D01*
X104839427Y-54727250D01*
X104839425Y-54727250D01*
X104834112Y-54725826D01*
X104606025Y-54705871D01*
X104377938Y-54725826D01*
X104372625Y-54727250D01*
X104372623Y-54727250D01*
X104162092Y-54783662D01*
X104162090Y-54783663D01*
X104156782Y-54785085D01*
X104151801Y-54787408D01*
X104151800Y-54787408D01*
X103954263Y-54879520D01*
X103954258Y-54879523D01*
X103949276Y-54881846D01*
X103892105Y-54921878D01*
X103766236Y-55010012D01*
X103766233Y-55010014D01*
X103761725Y-55013171D01*
X103599827Y-55175069D01*
X103468502Y-55362620D01*
X103466178Y-55367604D01*
X103464854Y-55369897D01*
X103413472Y-55418890D01*
X103343758Y-55432326D01*
X103277847Y-55405940D01*
X103246616Y-55369897D01*
X103239959Y-55358367D01*
X103203516Y-55306321D01*
X103193037Y-55297945D01*
X103179591Y-55305013D01*
X102478047Y-56006557D01*
X102470433Y-56020501D01*
X102470564Y-56022334D01*
X102474815Y-56028949D01*
X103180312Y-56734446D01*
X103192087Y-56740876D01*
X103204102Y-56731580D01*
X103239959Y-56680371D01*
X103246616Y-56668841D01*
X103297998Y-56619848D01*
X103367712Y-56606411D01*
X103433623Y-56632798D01*
X103464854Y-56668841D01*
X103466178Y-56671134D01*
X103468502Y-56676118D01*
X103471656Y-56680622D01*
X103553531Y-56797551D01*
X103599827Y-56863669D01*
X103743120Y-57006962D01*
X103777146Y-57069274D01*
X103780025Y-57096057D01*
X103780025Y-58268706D01*
X103760023Y-58336827D01*
X103706367Y-58383320D01*
X103636093Y-58393424D01*
X103571513Y-58363930D01*
X103553199Y-58344271D01*
X103498651Y-58271488D01*
X103498650Y-58271487D01*
X103493269Y-58264307D01*
X103376713Y-58176953D01*
X103240324Y-58125823D01*
X103178142Y-58119068D01*
X101381874Y-58119068D01*
X101319692Y-58125823D01*
X101183303Y-58176953D01*
X101066747Y-58264307D01*
X100979393Y-58380863D01*
X100928263Y-58517252D01*
X100921508Y-58579434D01*
X100921508Y-60375702D01*
X100928263Y-60437884D01*
X100979393Y-60574273D01*
X101066747Y-60690829D01*
X101183303Y-60778183D01*
X101191712Y-60781335D01*
X101191713Y-60781336D01*
X101300459Y-60822103D01*
X101357224Y-60864744D01*
X101381924Y-60931306D01*
X101366717Y-61000655D01*
X101347324Y-61027136D01*
X101220637Y-61159706D01*
X101217723Y-61163978D01*
X101217722Y-61163979D01*
X101205417Y-61182018D01*
X101094751Y-61344248D01*
X101000696Y-61546873D01*
X100940997Y-61762138D01*
X100917259Y-61984263D01*
X100917556Y-61989416D01*
X100917556Y-61989419D01*
X100923019Y-62084158D01*
X100930118Y-62207283D01*
X100931255Y-62212329D01*
X100931256Y-62212335D01*
X100944605Y-62271568D01*
X100979230Y-62425207D01*
X101063274Y-62632184D01*
X101179995Y-62822656D01*
X101326258Y-62991506D01*
X101330233Y-62994806D01*
X101330236Y-62994809D01*
X101408493Y-63059779D01*
X101448128Y-63118682D01*
X101454008Y-63156723D01*
X101454008Y-63415903D01*
X101434006Y-63484024D01*
X101403663Y-63516662D01*
X101374973Y-63538203D01*
X101371401Y-63541941D01*
X101236519Y-63683087D01*
X101220637Y-63699706D01*
X101217723Y-63703978D01*
X101217722Y-63703979D01*
X101177073Y-63763568D01*
X101094751Y-63884248D01*
X101000696Y-64086873D01*
X100940997Y-64302138D01*
X100917259Y-64524263D01*
X100917556Y-64529416D01*
X100917556Y-64529419D01*
X100923019Y-64624158D01*
X100930118Y-64747283D01*
X100931255Y-64752329D01*
X100931256Y-64752335D01*
X100951127Y-64840507D01*
X100979230Y-64965207D01*
X101063274Y-65172184D01*
X101179995Y-65362656D01*
X101326258Y-65531506D01*
X101498134Y-65674200D01*
X101571963Y-65717342D01*
X101620687Y-65768980D01*
X101633758Y-65838763D01*
X101607027Y-65904535D01*
X101566570Y-65937895D01*
X101558465Y-65942114D01*
X101549746Y-65947604D01*
X101379441Y-66075473D01*
X101371734Y-66082316D01*
X101224598Y-66236285D01*
X101218112Y-66244295D01*
X101098106Y-66420217D01*
X101093008Y-66429191D01*
X101003346Y-66622351D01*
X100999783Y-66632038D01*
X100944397Y-66831751D01*
X100945920Y-66840175D01*
X100958300Y-66843568D01*
X103598352Y-66843568D01*
X103611883Y-66839595D01*
X103613188Y-66830515D01*
X103571222Y-66663443D01*
X103567902Y-66653692D01*
X103482980Y-66458382D01*
X103478113Y-66449307D01*
X103362434Y-66270494D01*
X103356144Y-66262325D01*
X103212814Y-66104808D01*
X103205281Y-66097783D01*
X103038147Y-65965790D01*
X103029564Y-65960088D01*
X102992610Y-65939688D01*
X102942639Y-65889255D01*
X102927867Y-65819813D01*
X102952983Y-65753407D01*
X102980335Y-65726800D01*
X103044415Y-65681092D01*
X103159868Y-65598741D01*
X103172280Y-65586373D01*
X103314443Y-65444705D01*
X103318104Y-65441057D01*
X103377602Y-65358257D01*
X103445443Y-65263845D01*
X103448461Y-65259645D01*
X103495913Y-65163634D01*
X103545144Y-65064021D01*
X103545145Y-65064019D01*
X103547438Y-65059379D01*
X103612378Y-64845637D01*
X103641537Y-64624158D01*
X103643164Y-64557568D01*
X103624860Y-64334929D01*
X103570439Y-64118270D01*
X103481362Y-63913408D01*
X103409974Y-63803059D01*
X103362830Y-63730185D01*
X103362828Y-63730182D01*
X103360022Y-63725845D01*
X103209678Y-63560619D01*
X103153915Y-63516580D01*
X103112853Y-63458664D01*
X103106008Y-63417699D01*
X103106008Y-63162054D01*
X103126010Y-63093933D01*
X103152549Y-63066078D01*
X103151708Y-63065083D01*
X103155665Y-63061739D01*
X103159868Y-63058741D01*
X103318104Y-62901057D01*
X103377602Y-62818257D01*
X103445443Y-62723845D01*
X103448461Y-62719645D01*
X103547438Y-62519379D01*
X103612378Y-62305637D01*
X103641537Y-62084158D01*
X103643164Y-62017568D01*
X103624860Y-61794929D01*
X103570439Y-61578270D01*
X103481362Y-61373408D01*
X103360022Y-61185845D01*
X103340413Y-61164295D01*
X103212806Y-61024056D01*
X103181754Y-60960210D01*
X103190149Y-60889711D01*
X103235325Y-60834943D01*
X103261769Y-60821274D01*
X103368305Y-60781335D01*
X103376713Y-60778183D01*
X103493269Y-60690829D01*
X103580623Y-60574273D01*
X103631753Y-60437884D01*
X103634135Y-60415958D01*
X103661378Y-60350397D01*
X103719742Y-60309971D01*
X103759398Y-60303568D01*
X103807793Y-60303568D01*
X103818338Y-60304010D01*
X103868126Y-60308191D01*
X103945569Y-60297857D01*
X103948569Y-60297495D01*
X103990324Y-60292959D01*
X104019460Y-60289794D01*
X104019462Y-60289794D01*
X104026243Y-60289057D01*
X104032709Y-60286881D01*
X104035059Y-60286364D01*
X104035609Y-60286267D01*
X104036376Y-60286088D01*
X104036911Y-60285933D01*
X104039258Y-60285357D01*
X104046016Y-60284455D01*
X104119368Y-60257757D01*
X104122269Y-60256742D01*
X104189865Y-60233993D01*
X104189872Y-60233990D01*
X104196337Y-60231814D01*
X104202186Y-60228299D01*
X104204379Y-60227286D01*
X104204894Y-60227074D01*
X104205592Y-60226741D01*
X104206093Y-60226468D01*
X104208247Y-60225408D01*
X104214660Y-60223074D01*
X104280628Y-60181209D01*
X104283220Y-60179609D01*
X104344328Y-60142892D01*
X104350170Y-60139382D01*
X104355121Y-60134701D01*
X104357057Y-60133231D01*
X104357988Y-60132583D01*
X104361822Y-60129683D01*
X104366190Y-60126911D01*
X104370290Y-60123245D01*
X104422212Y-60071323D01*
X104424734Y-60068870D01*
X104475608Y-60020761D01*
X104475610Y-60020759D01*
X104480566Y-60016072D01*
X104484400Y-60010430D01*
X104488523Y-60005586D01*
X104495379Y-59998156D01*
X105161786Y-59331748D01*
X105169554Y-59324605D01*
X105202505Y-59296759D01*
X105207718Y-59292354D01*
X105255159Y-59230303D01*
X105257057Y-59227883D01*
X105301718Y-59172337D01*
X105305994Y-59167019D01*
X105309027Y-59160909D01*
X105310329Y-59158873D01*
X105310648Y-59158417D01*
X105311058Y-59157759D01*
X105311327Y-59157269D01*
X105312578Y-59155203D01*
X105316722Y-59149783D01*
X105349721Y-59079015D01*
X105351055Y-59076244D01*
X105385792Y-59006267D01*
X105387444Y-58999642D01*
X105388278Y-58997375D01*
X105388497Y-58996850D01*
X105388746Y-58996146D01*
X105388908Y-58995596D01*
X105389686Y-58993312D01*
X105392568Y-58987130D01*
X105394056Y-58980472D01*
X105394059Y-58980464D01*
X105409605Y-58910916D01*
X105410313Y-58907920D01*
X105427557Y-58838758D01*
X105427557Y-58838757D01*
X105429209Y-58832132D01*
X105429400Y-58825311D01*
X105429730Y-58822900D01*
X105429928Y-58821796D01*
X105430588Y-58817041D01*
X105431718Y-58811985D01*
X105432025Y-58806494D01*
X105432025Y-58733059D01*
X105432074Y-58729542D01*
X105434029Y-58659555D01*
X105434029Y-58659551D01*
X105434219Y-58652734D01*
X105432940Y-58646030D01*
X105432431Y-58639704D01*
X105432025Y-58629597D01*
X105432025Y-57096057D01*
X105452027Y-57027936D01*
X105468930Y-57006962D01*
X105543618Y-56932274D01*
X105605930Y-56898248D01*
X105632713Y-56895369D01*
X107434628Y-56895369D01*
X107502749Y-56915371D01*
X107549242Y-56969027D01*
X107559346Y-57039301D01*
X107548778Y-57074714D01*
X107521793Y-57132452D01*
X107519862Y-57136402D01*
X107486482Y-57201773D01*
X107484741Y-57208888D01*
X107482604Y-57214634D01*
X107480680Y-57220417D01*
X107477581Y-57227048D01*
X107472629Y-57250859D01*
X107462633Y-57298916D01*
X107461664Y-57303198D01*
X107444221Y-57374481D01*
X107443525Y-57385699D01*
X107443486Y-57385697D01*
X107443253Y-57389598D01*
X107442864Y-57393957D01*
X107441373Y-57401125D01*
X107441571Y-57408442D01*
X107443479Y-57478946D01*
X107443525Y-57482355D01*
X107443525Y-70701341D01*
X107423523Y-70769462D01*
X107406620Y-70790436D01*
X106818893Y-71378163D01*
X106756581Y-71412189D01*
X106729798Y-71415068D01*
X103473359Y-71415068D01*
X103405238Y-71395066D01*
X103367566Y-71357507D01*
X103360022Y-71345845D01*
X103209678Y-71180619D01*
X103205627Y-71177420D01*
X103205623Y-71177416D01*
X103038422Y-71045368D01*
X103038418Y-71045366D01*
X103034367Y-71042166D01*
X102992577Y-71019097D01*
X102942606Y-70968665D01*
X102927834Y-70899222D01*
X102952950Y-70832816D01*
X102980302Y-70806209D01*
X103155336Y-70681360D01*
X103163208Y-70674707D01*
X103314060Y-70524380D01*
X103320738Y-70516533D01*
X103445011Y-70343588D01*
X103450321Y-70334751D01*
X103544678Y-70143835D01*
X103548477Y-70134240D01*
X103610385Y-69930478D01*
X103612563Y-69920405D01*
X103613994Y-69909530D01*
X103611783Y-69895346D01*
X103598625Y-69891568D01*
X100963233Y-69891568D01*
X100949702Y-69895541D01*
X100948265Y-69905534D01*
X100978573Y-70040014D01*
X100981653Y-70049843D01*
X101061778Y-70247171D01*
X101066421Y-70256362D01*
X101177702Y-70437956D01*
X101183785Y-70446267D01*
X101323221Y-70607235D01*
X101330588Y-70614451D01*
X101494442Y-70750484D01*
X101502889Y-70756399D01*
X101571977Y-70796771D01*
X101620701Y-70848410D01*
X101633772Y-70918193D01*
X101607041Y-70983964D01*
X101566592Y-71017320D01*
X101553615Y-71024075D01*
X101549482Y-71027178D01*
X101549479Y-71027180D01*
X101525255Y-71045368D01*
X101374973Y-71158203D01*
X101220637Y-71319706D01*
X101217723Y-71323978D01*
X101217722Y-71323979D01*
X101205412Y-71342025D01*
X101094751Y-71504248D01*
X101000696Y-71706873D01*
X100940997Y-71922138D01*
X100917259Y-72144263D01*
X100930118Y-72367283D01*
X100931255Y-72372329D01*
X100931256Y-72372335D01*
X100944605Y-72431568D01*
X100979230Y-72585207D01*
X101040681Y-72736544D01*
X101052851Y-72766514D01*
X101063274Y-72792184D01*
X101104824Y-72859987D01*
X101159306Y-72948894D01*
X101179995Y-72982656D01*
X101326258Y-73151506D01*
X101498134Y-73294200D01*
X101570986Y-73336771D01*
X101571963Y-73337342D01*
X101620687Y-73388980D01*
X101633758Y-73458763D01*
X101607027Y-73524535D01*
X101566570Y-73557895D01*
X101558465Y-73562114D01*
X101549746Y-73567604D01*
X101379441Y-73695473D01*
X101371734Y-73702316D01*
X101224598Y-73856285D01*
X101218112Y-73864295D01*
X101098106Y-74040217D01*
X101093008Y-74049191D01*
X101003346Y-74242351D01*
X100999783Y-74252038D01*
X100944397Y-74451751D01*
X100945920Y-74460175D01*
X100958300Y-74463568D01*
X103598352Y-74463568D01*
X103611883Y-74459595D01*
X103613188Y-74450515D01*
X103571222Y-74283443D01*
X103567902Y-74273692D01*
X103482980Y-74078382D01*
X103478113Y-74069307D01*
X103362434Y-73890494D01*
X103356144Y-73882325D01*
X103212814Y-73724808D01*
X103205281Y-73717783D01*
X103038147Y-73585790D01*
X103029564Y-73580088D01*
X102992610Y-73559688D01*
X102942639Y-73509255D01*
X102927867Y-73439813D01*
X102952983Y-73373407D01*
X102980335Y-73346800D01*
X103003805Y-73330059D01*
X103159868Y-73218741D01*
X103318104Y-73061057D01*
X103367337Y-72992542D01*
X103423332Y-72948894D01*
X103469660Y-72940068D01*
X107030450Y-72940068D01*
X107049400Y-72941501D01*
X107063799Y-72943692D01*
X107063805Y-72943692D01*
X107071034Y-72944792D01*
X107078326Y-72944199D01*
X107078329Y-72944199D01*
X107124009Y-72940483D01*
X107134224Y-72940068D01*
X107142351Y-72940068D01*
X107145987Y-72939644D01*
X107145989Y-72939644D01*
X107149441Y-72939241D01*
X107170750Y-72936757D01*
X107175070Y-72936330D01*
X107248252Y-72930377D01*
X107255214Y-72928121D01*
X107261202Y-72926925D01*
X107267159Y-72925517D01*
X107274433Y-72924669D01*
X107281315Y-72922171D01*
X107281319Y-72922170D01*
X107343433Y-72899623D01*
X107347537Y-72898213D01*
X107417401Y-72875581D01*
X107423664Y-72871781D01*
X107429206Y-72869243D01*
X107434682Y-72866501D01*
X107441567Y-72864002D01*
X107502958Y-72823753D01*
X107506626Y-72821438D01*
X107569407Y-72783341D01*
X107573612Y-72779627D01*
X107573615Y-72779625D01*
X107577831Y-72775901D01*
X107577857Y-72775930D01*
X107580788Y-72773330D01*
X107584142Y-72770526D01*
X107590261Y-72766514D01*
X107643815Y-72709981D01*
X107646192Y-72707540D01*
X108429773Y-71923959D01*
X108492085Y-71889933D01*
X108562900Y-71894998D01*
X108619736Y-71937545D01*
X108644547Y-72004065D01*
X108644868Y-72013054D01*
X108644868Y-78526084D01*
X108643122Y-78546989D01*
X108639797Y-78566752D01*
X108639644Y-78579291D01*
X108641754Y-78594025D01*
X108642703Y-78602872D01*
X108656404Y-78794451D01*
X108702256Y-79005230D01*
X108703823Y-79009432D01*
X108703825Y-79009438D01*
X108725931Y-79068705D01*
X108777639Y-79207338D01*
X108779793Y-79211283D01*
X108779794Y-79211285D01*
X108823603Y-79291515D01*
X108881017Y-79396661D01*
X108923223Y-79453041D01*
X108924657Y-79454957D01*
X108949468Y-79521477D01*
X108934377Y-79590851D01*
X108884175Y-79641053D01*
X108823789Y-79656466D01*
X103823650Y-79656466D01*
X103755529Y-79636464D01*
X103734554Y-79619561D01*
X103079412Y-78964418D01*
X103045387Y-78902106D01*
X103042508Y-78875323D01*
X103042508Y-78447348D01*
X103062510Y-78379227D01*
X103095340Y-78344769D01*
X103155660Y-78301744D01*
X103155671Y-78301735D01*
X103159868Y-78298741D01*
X103318104Y-78141057D01*
X103377602Y-78058257D01*
X103445443Y-77963845D01*
X103448461Y-77959645D01*
X103547438Y-77759379D01*
X103612378Y-77545637D01*
X103641537Y-77324158D01*
X103643164Y-77257568D01*
X103624860Y-77034929D01*
X103570439Y-76818270D01*
X103481362Y-76613408D01*
X103360022Y-76425845D01*
X103209678Y-76260619D01*
X103205627Y-76257420D01*
X103205623Y-76257416D01*
X103038422Y-76125368D01*
X103038418Y-76125366D01*
X103034367Y-76122166D01*
X102992577Y-76099097D01*
X102942606Y-76048665D01*
X102927834Y-75979222D01*
X102952950Y-75912816D01*
X102980302Y-75886209D01*
X103155336Y-75761360D01*
X103163208Y-75754707D01*
X103314060Y-75604380D01*
X103320738Y-75596533D01*
X103445011Y-75423588D01*
X103450321Y-75414751D01*
X103544678Y-75223835D01*
X103548477Y-75214240D01*
X103610385Y-75010478D01*
X103612563Y-75000405D01*
X103613994Y-74989530D01*
X103611783Y-74975346D01*
X103598625Y-74971568D01*
X100963233Y-74971568D01*
X100949702Y-74975541D01*
X100948265Y-74985534D01*
X100978573Y-75120014D01*
X100981653Y-75129843D01*
X101061778Y-75327171D01*
X101066421Y-75336362D01*
X101177702Y-75517956D01*
X101183785Y-75526267D01*
X101323221Y-75687235D01*
X101330588Y-75694451D01*
X101494442Y-75830484D01*
X101502889Y-75836399D01*
X101571977Y-75876771D01*
X101620701Y-75928410D01*
X101633772Y-75998193D01*
X101607041Y-76063964D01*
X101566592Y-76097320D01*
X101553615Y-76104075D01*
X101549482Y-76107178D01*
X101549479Y-76107180D01*
X101525255Y-76125368D01*
X101374973Y-76238203D01*
X101220637Y-76399706D01*
X101217723Y-76403978D01*
X101217722Y-76403979D01*
X101205412Y-76422025D01*
X101094751Y-76584248D01*
X101000696Y-76786873D01*
X100940997Y-77002138D01*
X100917259Y-77224263D01*
X100917556Y-77229416D01*
X100917556Y-77229419D01*
X100923019Y-77324158D01*
X100930118Y-77447283D01*
X100931255Y-77452329D01*
X100931256Y-77452335D01*
X100945457Y-77515346D01*
X100979230Y-77665207D01*
X101063274Y-77872184D01*
X101179995Y-78062656D01*
X101326258Y-78231506D01*
X101471995Y-78352499D01*
X101511628Y-78411399D01*
X101517508Y-78449441D01*
X101517508Y-79175976D01*
X101516075Y-79194926D01*
X101513884Y-79209325D01*
X101513884Y-79209331D01*
X101512784Y-79216560D01*
X101513377Y-79223852D01*
X101513377Y-79223855D01*
X101517093Y-79269535D01*
X101517508Y-79279750D01*
X101517508Y-79287877D01*
X101520819Y-79316276D01*
X101521246Y-79320596D01*
X101527199Y-79393778D01*
X101529455Y-79400740D01*
X101530651Y-79406728D01*
X101532059Y-79412685D01*
X101532907Y-79419959D01*
X101535405Y-79426841D01*
X101535406Y-79426845D01*
X101557953Y-79488959D01*
X101559363Y-79493063D01*
X101581995Y-79562927D01*
X101585795Y-79569190D01*
X101588333Y-79574732D01*
X101591075Y-79580208D01*
X101593574Y-79587093D01*
X101597589Y-79593217D01*
X101633823Y-79648484D01*
X101636138Y-79652152D01*
X101674235Y-79714933D01*
X101677949Y-79719138D01*
X101677951Y-79719141D01*
X101681675Y-79723357D01*
X101681646Y-79723383D01*
X101684246Y-79726314D01*
X101687050Y-79729668D01*
X101691062Y-79735787D01*
X101741679Y-79783737D01*
X101747594Y-79789340D01*
X101750036Y-79791718D01*
X102868812Y-80910494D01*
X102881199Y-80924907D01*
X102894168Y-80942530D01*
X102899751Y-80947273D01*
X102934677Y-80976945D01*
X102942193Y-80983875D01*
X102947937Y-80989619D01*
X102950811Y-80991893D01*
X102950818Y-80991899D01*
X102970333Y-81007338D01*
X102973737Y-81010129D01*
X103024094Y-81052911D01*
X103024098Y-81052914D01*
X103029673Y-81057650D01*
X103036190Y-81060978D01*
X103041254Y-81064355D01*
X103046478Y-81067582D01*
X103052222Y-81072126D01*
X103058853Y-81075225D01*
X103118704Y-81103198D01*
X103122655Y-81105129D01*
X103188026Y-81138509D01*
X103195141Y-81140250D01*
X103200887Y-81142387D01*
X103206670Y-81144311D01*
X103213301Y-81147410D01*
X103285179Y-81162360D01*
X103289451Y-81163327D01*
X103360734Y-81180770D01*
X103366333Y-81181117D01*
X103366337Y-81181118D01*
X103371952Y-81181466D01*
X103371950Y-81181505D01*
X103375851Y-81181738D01*
X103380210Y-81182127D01*
X103387378Y-81183618D01*
X103394695Y-81183420D01*
X103465199Y-81181512D01*
X103468608Y-81181466D01*
X104757348Y-81181466D01*
X104825469Y-81201468D01*
X104871962Y-81255124D01*
X104883348Y-81307466D01*
X104883348Y-84079732D01*
X104863346Y-84147853D01*
X104809690Y-84194346D01*
X104739416Y-84204450D01*
X104730076Y-84202745D01*
X104508237Y-84153564D01*
X104501503Y-84152449D01*
X104157519Y-84114472D01*
X104150739Y-84114093D01*
X103804640Y-84113490D01*
X103797867Y-84113845D01*
X103453730Y-84150622D01*
X103447020Y-84151709D01*
X103108887Y-84225434D01*
X103102312Y-84227245D01*
X102774121Y-84337056D01*
X102767799Y-84339559D01*
X102453392Y-84484170D01*
X102447349Y-84487356D01*
X102150406Y-84665073D01*
X102144760Y-84668882D01*
X101868730Y-84877641D01*
X101865144Y-84880672D01*
X101857326Y-84894031D01*
X101857361Y-84894872D01*
X101862414Y-84902997D01*
X106435557Y-89476140D01*
X106449154Y-89483565D01*
X106458765Y-89476865D01*
X106554849Y-89365157D01*
X106559007Y-89359757D01*
X106755027Y-89074548D01*
X106758574Y-89068737D01*
X106922638Y-88764035D01*
X106925545Y-88757857D01*
X107055748Y-88437208D01*
X107057962Y-88430778D01*
X107152773Y-88097940D01*
X107154280Y-88091310D01*
X107212594Y-87750159D01*
X107213374Y-87743419D01*
X107234599Y-87396373D01*
X107234715Y-87392770D01*
X107234783Y-87373616D01*
X107234691Y-87369991D01*
X107215889Y-87022820D01*
X107215154Y-87016054D01*
X107159228Y-86674535D01*
X107157761Y-86667863D01*
X107065282Y-86334394D01*
X107063108Y-86327931D01*
X106935147Y-86006380D01*
X106932287Y-86000191D01*
X106821377Y-85790719D01*
X106807178Y-85721157D01*
X106832842Y-85654961D01*
X106890219Y-85613148D01*
X106932731Y-85605760D01*
X110216846Y-85605760D01*
X110284967Y-85625762D01*
X110331460Y-85679418D01*
X110341564Y-85749692D01*
X110312070Y-85814272D01*
X110262000Y-85849391D01*
X110174768Y-85882876D01*
X109879838Y-86033150D01*
X109602232Y-86213430D01*
X109344991Y-86421740D01*
X109110933Y-86655798D01*
X108902623Y-86913039D01*
X108722343Y-87190645D01*
X108572069Y-87485575D01*
X108570885Y-87488660D01*
X108475862Y-87736205D01*
X108453447Y-87794597D01*
X108367776Y-88114326D01*
X108367260Y-88117587D01*
X108316644Y-88437162D01*
X108315995Y-88441258D01*
X108315717Y-88446564D01*
X108299936Y-88747682D01*
X108299228Y-88754507D01*
X108299202Y-88756664D01*
X108297819Y-88765542D01*
X108298984Y-88774449D01*
X108301941Y-88797063D01*
X108303005Y-88813401D01*
X108303005Y-90372474D01*
X108301505Y-90391858D01*
X108299200Y-90406659D01*
X108299200Y-90406663D01*
X108297819Y-90415532D01*
X108298983Y-90424434D01*
X108298983Y-90424438D01*
X108298996Y-90424534D01*
X108299267Y-90454971D01*
X108292259Y-90517176D01*
X108285980Y-90544686D01*
X108258971Y-90621872D01*
X108246729Y-90647292D01*
X108203218Y-90716539D01*
X108185626Y-90738598D01*
X108127802Y-90796422D01*
X108105743Y-90814014D01*
X108036496Y-90857525D01*
X108011075Y-90869767D01*
X107933888Y-90896776D01*
X107906381Y-90903055D01*
X107886253Y-90905323D01*
X107850749Y-90909323D01*
X107835108Y-90910106D01*
X107826150Y-90909997D01*
X107817276Y-90908615D01*
X107785755Y-90912737D01*
X107769417Y-90913801D01*
X102971343Y-90913801D01*
X102951958Y-90912301D01*
X102937157Y-90909996D01*
X102937154Y-90909996D01*
X102928285Y-90908615D01*
X102911116Y-90910860D01*
X102887176Y-90911693D01*
X102629245Y-90896091D01*
X102614141Y-90894257D01*
X102543367Y-90881287D01*
X102333136Y-90842761D01*
X102318374Y-90839123D01*
X102045607Y-90754126D01*
X102031385Y-90748731D01*
X101770875Y-90631485D01*
X101757406Y-90624416D01*
X101512920Y-90476619D01*
X101500398Y-90467976D01*
X101275508Y-90291785D01*
X101264120Y-90281695D01*
X101062121Y-90079696D01*
X101052031Y-90068308D01*
X100881926Y-89851186D01*
X101857545Y-89851186D01*
X101865682Y-89862192D01*
X102125942Y-90061896D01*
X102131541Y-90065730D01*
X102427265Y-90245533D01*
X102433255Y-90248745D01*
X102746661Y-90395555D01*
X102752965Y-90398102D01*
X103080388Y-90510203D01*
X103086939Y-90512057D01*
X103424543Y-90588139D01*
X103431262Y-90589276D01*
X103775117Y-90628454D01*
X103781907Y-90628857D01*
X104127977Y-90630669D01*
X104134778Y-90630337D01*
X104479024Y-90594763D01*
X104485752Y-90593697D01*
X104824148Y-90521150D01*
X104830697Y-90519371D01*
X105159282Y-90410702D01*
X105165624Y-90408216D01*
X105480527Y-90264707D01*
X105486581Y-90261542D01*
X105784132Y-90084870D01*
X105789813Y-90081067D01*
X106066551Y-89873286D01*
X106071775Y-89868902D01*
X106078242Y-89862850D01*
X106086311Y-89849170D01*
X106086284Y-89848446D01*
X106081140Y-89840143D01*
X103984816Y-87743819D01*
X103970872Y-87736205D01*
X103969039Y-87736336D01*
X103962424Y-87740587D01*
X101864426Y-89838585D01*
X101857545Y-89851186D01*
X100881926Y-89851186D01*
X100875840Y-89843418D01*
X100867197Y-89830896D01*
X100719400Y-89586410D01*
X100712329Y-89572937D01*
X100668765Y-89476140D01*
X100595084Y-89312428D01*
X100589689Y-89298205D01*
X100530108Y-89107003D01*
X100504693Y-89025442D01*
X100501053Y-89010674D01*
X100449559Y-88729675D01*
X100447725Y-88714571D01*
X100432560Y-88463872D01*
X100433817Y-88437162D01*
X100433820Y-88436942D01*
X100435201Y-88428071D01*
X100433562Y-88415531D01*
X100431079Y-88396550D01*
X100430015Y-88380212D01*
X100430015Y-87363804D01*
X100709411Y-87363804D01*
X100726921Y-87709456D01*
X100727631Y-87716212D01*
X100782367Y-88057938D01*
X100783806Y-88064593D01*
X100875126Y-88398401D01*
X100877275Y-88404862D01*
X101004114Y-88726864D01*
X101006945Y-88733047D01*
X101167819Y-89039467D01*
X101171302Y-89045310D01*
X101364325Y-89332558D01*
X101368428Y-89338002D01*
X101483915Y-89475148D01*
X101496654Y-89483591D01*
X101507098Y-89477493D01*
X103599982Y-87384609D01*
X103607596Y-87370665D01*
X103607465Y-87368832D01*
X103603214Y-87362217D01*
X101508461Y-85267464D01*
X101494924Y-85260072D01*
X101485223Y-85266860D01*
X101382224Y-85387456D01*
X101378070Y-85392889D01*
X101183060Y-85678762D01*
X101179525Y-85684599D01*
X101016522Y-85989877D01*
X101013646Y-85996046D01*
X100884562Y-86317152D01*
X100882369Y-86323592D01*
X100788718Y-86656765D01*
X100787235Y-86663400D01*
X100730116Y-87004733D01*
X100729357Y-87011505D01*
X100709435Y-87357009D01*
X100709411Y-87363804D01*
X100430015Y-87363804D01*
X100430015Y-69371751D01*
X100944397Y-69371751D01*
X100945920Y-69380175D01*
X100958300Y-69383568D01*
X102007893Y-69383568D01*
X102023132Y-69379093D01*
X102024337Y-69377703D01*
X102026008Y-69370020D01*
X102026008Y-69365453D01*
X102534008Y-69365453D01*
X102538483Y-69380692D01*
X102539873Y-69381897D01*
X102547556Y-69383568D01*
X103598352Y-69383568D01*
X103611883Y-69379595D01*
X103613188Y-69370515D01*
X103571222Y-69203443D01*
X103567902Y-69193692D01*
X103482980Y-68998382D01*
X103478113Y-68989307D01*
X103362434Y-68810494D01*
X103356144Y-68802325D01*
X103212814Y-68644808D01*
X103205281Y-68637783D01*
X103038147Y-68505790D01*
X103029560Y-68500085D01*
X102992124Y-68479419D01*
X102942154Y-68428987D01*
X102927382Y-68359544D01*
X102952498Y-68293139D01*
X102979850Y-68266532D01*
X103155335Y-68141360D01*
X103163208Y-68134707D01*
X103314060Y-67984380D01*
X103320738Y-67976533D01*
X103445011Y-67803588D01*
X103450321Y-67794751D01*
X103544678Y-67603835D01*
X103548477Y-67594240D01*
X103610385Y-67390478D01*
X103612563Y-67380405D01*
X103613994Y-67369530D01*
X103611783Y-67355346D01*
X103598625Y-67351568D01*
X102552123Y-67351568D01*
X102536884Y-67356043D01*
X102535679Y-67357433D01*
X102534008Y-67365116D01*
X102534008Y-69365453D01*
X102026008Y-69365453D01*
X102026008Y-67369683D01*
X102021533Y-67354444D01*
X102020143Y-67353239D01*
X102012460Y-67351568D01*
X100963233Y-67351568D01*
X100949702Y-67355541D01*
X100948265Y-67365534D01*
X100978573Y-67500014D01*
X100981653Y-67509843D01*
X101061778Y-67707171D01*
X101066421Y-67716362D01*
X101177702Y-67897956D01*
X101183785Y-67906267D01*
X101323221Y-68067235D01*
X101330588Y-68074451D01*
X101494442Y-68210484D01*
X101502889Y-68216399D01*
X101572487Y-68257069D01*
X101621211Y-68308708D01*
X101634282Y-68378491D01*
X101607551Y-68444262D01*
X101567095Y-68477621D01*
X101558470Y-68482110D01*
X101549746Y-68487604D01*
X101379441Y-68615473D01*
X101371734Y-68622316D01*
X101224598Y-68776285D01*
X101218112Y-68784295D01*
X101098106Y-68960217D01*
X101093008Y-68969191D01*
X101003346Y-69162351D01*
X100999783Y-69172038D01*
X100944397Y-69371751D01*
X100430015Y-69371751D01*
X100430015Y-57105431D01*
X101384518Y-57105431D01*
X101393814Y-57117446D01*
X101445019Y-57153300D01*
X101454514Y-57158783D01*
X101651972Y-57250859D01*
X101662264Y-57254605D01*
X101872713Y-57310994D01*
X101883506Y-57312897D01*
X102100550Y-57331886D01*
X102111500Y-57331886D01*
X102328544Y-57312897D01*
X102339337Y-57310994D01*
X102549786Y-57254605D01*
X102560078Y-57250859D01*
X102757536Y-57158783D01*
X102767031Y-57153300D01*
X102819073Y-57116860D01*
X102827449Y-57106381D01*
X102820381Y-57092935D01*
X102118837Y-56391391D01*
X102104893Y-56383777D01*
X102103060Y-56383908D01*
X102096445Y-56388159D01*
X101390948Y-57093656D01*
X101384518Y-57105431D01*
X100430015Y-57105431D01*
X100430015Y-56024844D01*
X100793508Y-56024844D01*
X100812497Y-56241888D01*
X100814400Y-56252681D01*
X100870789Y-56463130D01*
X100874535Y-56473422D01*
X100966611Y-56670880D01*
X100972094Y-56680375D01*
X101008534Y-56732417D01*
X101019013Y-56740793D01*
X101032459Y-56733725D01*
X101734003Y-56032181D01*
X101741617Y-56018237D01*
X101741486Y-56016404D01*
X101737235Y-56009789D01*
X101031738Y-55304292D01*
X101019963Y-55297862D01*
X101007948Y-55307158D01*
X100972094Y-55358363D01*
X100966611Y-55367858D01*
X100874535Y-55565316D01*
X100870789Y-55575608D01*
X100814400Y-55786057D01*
X100812497Y-55796850D01*
X100793508Y-56013894D01*
X100793508Y-56024844D01*
X100430015Y-56024844D01*
X100430015Y-54932357D01*
X101384601Y-54932357D01*
X101391669Y-54945803D01*
X102093213Y-55647347D01*
X102107157Y-55654961D01*
X102108990Y-55654830D01*
X102115605Y-55650579D01*
X102821102Y-54945082D01*
X102827532Y-54933307D01*
X102818236Y-54921292D01*
X102767031Y-54885438D01*
X102757536Y-54879955D01*
X102560078Y-54787879D01*
X102549786Y-54784133D01*
X102339337Y-54727744D01*
X102328544Y-54725841D01*
X102111500Y-54706852D01*
X102100550Y-54706852D01*
X101883506Y-54725841D01*
X101872713Y-54727744D01*
X101662264Y-54784133D01*
X101651972Y-54787879D01*
X101454514Y-54879955D01*
X101445019Y-54885438D01*
X101392977Y-54921878D01*
X101384601Y-54932357D01*
X100430015Y-54932357D01*
X100430015Y-51814774D01*
X101857545Y-51814774D01*
X101865682Y-51825780D01*
X102125942Y-52025484D01*
X102131541Y-52029318D01*
X102427265Y-52209121D01*
X102433255Y-52212333D01*
X102746661Y-52359143D01*
X102752965Y-52361690D01*
X103080388Y-52473791D01*
X103086939Y-52475645D01*
X103424543Y-52551727D01*
X103431262Y-52552864D01*
X103775117Y-52592042D01*
X103781907Y-52592445D01*
X104127977Y-52594257D01*
X104134778Y-52593925D01*
X104479024Y-52558351D01*
X104485752Y-52557285D01*
X104824148Y-52484738D01*
X104830697Y-52482959D01*
X105159282Y-52374290D01*
X105165624Y-52371804D01*
X105480527Y-52228295D01*
X105486581Y-52225130D01*
X105784132Y-52048458D01*
X105789813Y-52044655D01*
X106066551Y-51836874D01*
X106071775Y-51832490D01*
X106078242Y-51826438D01*
X106086311Y-51812758D01*
X106086284Y-51812034D01*
X106081140Y-51803731D01*
X103984816Y-49707407D01*
X103970872Y-49699793D01*
X103969039Y-49699924D01*
X103962424Y-49704175D01*
X101864426Y-51802173D01*
X101857545Y-51814774D01*
X100430015Y-51814774D01*
X100430015Y-49327392D01*
X100709411Y-49327392D01*
X100726921Y-49673044D01*
X100727631Y-49679800D01*
X100782367Y-50021526D01*
X100783806Y-50028181D01*
X100875126Y-50361989D01*
X100877275Y-50368450D01*
X101004114Y-50690452D01*
X101006945Y-50696635D01*
X101167819Y-51003055D01*
X101171302Y-51008898D01*
X101364325Y-51296146D01*
X101368428Y-51301590D01*
X101483915Y-51438736D01*
X101496654Y-51447179D01*
X101507098Y-51441081D01*
X103599982Y-49348197D01*
X103606360Y-49336517D01*
X104336412Y-49336517D01*
X104336543Y-49338350D01*
X104340794Y-49344965D01*
X106435557Y-51439728D01*
X106449154Y-51447153D01*
X106458765Y-51440453D01*
X106554849Y-51328745D01*
X106559007Y-51323345D01*
X106755027Y-51038136D01*
X106758574Y-51032325D01*
X106922638Y-50727623D01*
X106925545Y-50721445D01*
X107055748Y-50400796D01*
X107057962Y-50394366D01*
X107152773Y-50061528D01*
X107154280Y-50054898D01*
X107212594Y-49713747D01*
X107213374Y-49707007D01*
X107234599Y-49359961D01*
X107234715Y-49356358D01*
X107234783Y-49337204D01*
X107234691Y-49333579D01*
X107215889Y-48986408D01*
X107215154Y-48979642D01*
X107177311Y-48748551D01*
X108855405Y-48748551D01*
X108856928Y-48756975D01*
X108869308Y-48760368D01*
X109918901Y-48760368D01*
X109934140Y-48755893D01*
X109935345Y-48754503D01*
X109937016Y-48746820D01*
X109937016Y-47697470D01*
X109933098Y-47684126D01*
X109918822Y-47682139D01*
X109880340Y-47688028D01*
X109870304Y-47690419D01*
X109667884Y-47756580D01*
X109658375Y-47760577D01*
X109469479Y-47858910D01*
X109460754Y-47864404D01*
X109290449Y-47992273D01*
X109282742Y-47999116D01*
X109135606Y-48153085D01*
X109129120Y-48161095D01*
X109009114Y-48337017D01*
X109004016Y-48345991D01*
X108914354Y-48539151D01*
X108910791Y-48548838D01*
X108855405Y-48748551D01*
X107177311Y-48748551D01*
X107159228Y-48638123D01*
X107157761Y-48631451D01*
X107065282Y-48297982D01*
X107063108Y-48291519D01*
X106935147Y-47969968D01*
X106932294Y-47963794D01*
X106770347Y-47657930D01*
X106766853Y-47652113D01*
X106572817Y-47365525D01*
X106568703Y-47360106D01*
X106460094Y-47232038D01*
X106447269Y-47223602D01*
X106436944Y-47229655D01*
X104344026Y-49322573D01*
X104336412Y-49336517D01*
X103606360Y-49336517D01*
X103607596Y-49334253D01*
X103607465Y-49332420D01*
X103603214Y-49325805D01*
X101508461Y-47231052D01*
X101494924Y-47223660D01*
X101485223Y-47230448D01*
X101382224Y-47351044D01*
X101378070Y-47356477D01*
X101183060Y-47642350D01*
X101179525Y-47648187D01*
X101016522Y-47953465D01*
X101013646Y-47959634D01*
X100884562Y-48280740D01*
X100882369Y-48287180D01*
X100788718Y-48620353D01*
X100787235Y-48626988D01*
X100730116Y-48968321D01*
X100729357Y-48975093D01*
X100709435Y-49320597D01*
X100709411Y-49327392D01*
X100430015Y-49327392D01*
X100430015Y-48336609D01*
X100431515Y-48317224D01*
X100433820Y-48302423D01*
X100433820Y-48302420D01*
X100435201Y-48293551D01*
X100432956Y-48276382D01*
X100432123Y-48252442D01*
X100447725Y-47994511D01*
X100449559Y-47979407D01*
X100467965Y-47878966D01*
X100501055Y-47698402D01*
X100504694Y-47683634D01*
X100512708Y-47657919D01*
X100589690Y-47410873D01*
X100595085Y-47396651D01*
X100611533Y-47360106D01*
X100712331Y-47136141D01*
X100719400Y-47122672D01*
X100867197Y-46878186D01*
X100875840Y-46865664D01*
X100882143Y-46857619D01*
X101857326Y-46857619D01*
X101857361Y-46858460D01*
X101862414Y-46866585D01*
X103959192Y-48963363D01*
X103973136Y-48970977D01*
X103974969Y-48970846D01*
X103981584Y-48966595D01*
X106079435Y-46868744D01*
X106085516Y-46857608D01*
X116835325Y-46857608D01*
X116835360Y-46858449D01*
X116840413Y-46866574D01*
X118937191Y-48963352D01*
X118951135Y-48970966D01*
X118952968Y-48970835D01*
X118959583Y-48966584D01*
X121057434Y-46868733D01*
X121065048Y-46854789D01*
X121064980Y-46853834D01*
X121061027Y-46847856D01*
X120786670Y-46638853D01*
X120781044Y-46635029D01*
X120484709Y-46456268D01*
X120478697Y-46453071D01*
X120164777Y-46307354D01*
X120158477Y-46304834D01*
X119830667Y-46193877D01*
X119824089Y-46192041D01*
X119486240Y-46117142D01*
X119479502Y-46116026D01*
X119135518Y-46078049D01*
X119128738Y-46077670D01*
X118782639Y-46077067D01*
X118775866Y-46077422D01*
X118431729Y-46114199D01*
X118425019Y-46115286D01*
X118086886Y-46189011D01*
X118080311Y-46190822D01*
X117752120Y-46300633D01*
X117745798Y-46303136D01*
X117431391Y-46447747D01*
X117425348Y-46450933D01*
X117128405Y-46628650D01*
X117122759Y-46632459D01*
X116846729Y-46841218D01*
X116843143Y-46844249D01*
X116835325Y-46857608D01*
X106085516Y-46857608D01*
X106087049Y-46854800D01*
X106086981Y-46853845D01*
X106083028Y-46847867D01*
X105808671Y-46638864D01*
X105803045Y-46635040D01*
X105506710Y-46456279D01*
X105500698Y-46453082D01*
X105186778Y-46307365D01*
X105180478Y-46304845D01*
X104852668Y-46193888D01*
X104846090Y-46192052D01*
X104508241Y-46117153D01*
X104501503Y-46116037D01*
X104157519Y-46078060D01*
X104150739Y-46077681D01*
X103804640Y-46077078D01*
X103797867Y-46077433D01*
X103453730Y-46114210D01*
X103447020Y-46115297D01*
X103108887Y-46189022D01*
X103102312Y-46190833D01*
X102774121Y-46300644D01*
X102767799Y-46303147D01*
X102453392Y-46447758D01*
X102447349Y-46450944D01*
X102150406Y-46628661D01*
X102144760Y-46632470D01*
X101868730Y-46841229D01*
X101865144Y-46844260D01*
X101857326Y-46857619D01*
X100882143Y-46857619D01*
X101052031Y-46640774D01*
X101062121Y-46629386D01*
X101264120Y-46427387D01*
X101275508Y-46417297D01*
X101500398Y-46241106D01*
X101512920Y-46232463D01*
X101757406Y-46084666D01*
X101770875Y-46077597D01*
X102031388Y-45960350D01*
X102045607Y-45954956D01*
X102318374Y-45869959D01*
X102333136Y-45866321D01*
X102543367Y-45827795D01*
X102614141Y-45814825D01*
X102629245Y-45812991D01*
X102879944Y-45797826D01*
X102906654Y-45799083D01*
X102906874Y-45799086D01*
X102915745Y-45800467D01*
X102924647Y-45799303D01*
X102924650Y-45799303D01*
X102947266Y-45796345D01*
X102963604Y-45795281D01*
X119950685Y-45795281D01*
X119970070Y-45796781D01*
G37*
%TD.AperFunction*%
%TD*%
M02*
