%TF.GenerationSoftware,KiCad,Pcbnew,(6.0.0)*%
%TF.CreationDate,2022-03-14T07:53:15-04:00*%
%TF.ProjectId,JTAG_ISP-ISP,4a544147-5f49-4535-902d-4953502e6b69,v1.0.0*%
%TF.SameCoordinates,Original*%
%TF.FileFunction,Copper,L1,Top*%
%TF.FilePolarity,Positive*%
%FSLAX46Y46*%
G04 Gerber Fmt 4.6, Leading zero omitted, Abs format (unit mm)*
G04 Created by KiCad (PCBNEW (6.0.0)) date 2022-03-14 07:53:15*
%MOMM*%
%LPD*%
G01*
G04 APERTURE LIST*
%TA.AperFunction,ComponentPad*%
%ADD10C,3.200001*%
%TD*%
%TA.AperFunction,ComponentPad*%
%ADD11R,1.700000X1.700000*%
%TD*%
%TA.AperFunction,ComponentPad*%
%ADD12O,1.700000X1.700000*%
%TD*%
%TA.AperFunction,ComponentPad*%
%ADD13C,1.600000*%
%TD*%
%TA.AperFunction,ComponentPad*%
%ADD14C,1.700000*%
%TD*%
%TA.AperFunction,ViaPad*%
%ADD15C,1.200000*%
%TD*%
%TA.AperFunction,Conductor*%
%ADD16C,0.508000*%
%TD*%
%TA.AperFunction,Conductor*%
%ADD17C,0.250000*%
%TD*%
G04 APERTURE END LIST*
D10*
%TO.P,REF\u002A\u002A,*%
%TO.N,*%
X163849990Y-103399996D03*
%TD*%
D11*
%TO.P,J2,1,Pin_1*%
%TO.N,unconnected-(J2-Pad1)*%
X147179995Y-75505767D03*
D12*
%TO.P,J2,2,Pin_2*%
%TO.N,+5V*%
X147179995Y-78045767D03*
%TO.P,J2,3,Pin_3*%
%TO.N,unconnected-(J2-Pad3)*%
X147179995Y-80585767D03*
%TO.P,J2,4,Pin_4*%
%TO.N,GND*%
X147179995Y-83125767D03*
%TO.P,J2,5,Pin_5*%
%TO.N,unconnected-(J2-Pad5)*%
X147179995Y-85665767D03*
%TO.P,J2,6,Pin_6*%
%TO.N,MISO*%
X147179995Y-88205767D03*
%TO.P,J2,7,Pin_7*%
%TO.N,unconnected-(J2-Pad7)*%
X147179995Y-90745767D03*
%TO.P,J2,8,Pin_8*%
%TO.N,SCLK*%
X147179995Y-93285767D03*
%TD*%
D13*
%TO.P,C1,1*%
%TO.N,+5V*%
X150500000Y-78050000D03*
%TO.P,C1,2*%
%TO.N,GND*%
X150500000Y-80550000D03*
%TD*%
D10*
%TO.P,REF\u002A\u002A,*%
%TO.N,*%
X163849990Y-65363573D03*
%TD*%
%TO.P,REF\u002A\u002A,*%
%TO.N,*%
X148871991Y-103399996D03*
%TD*%
D14*
%TO.P,J3,1,Pin_1*%
%TO.N,SCLK*%
X165542011Y-75505767D03*
D12*
%TO.P,J3,2,Pin_2*%
%TO.N,unconnected-(J3-Pad2)*%
X165542011Y-78045767D03*
%TO.P,J3,3,Pin_3*%
%TO.N,RESET*%
X165542011Y-80585767D03*
%TO.P,J3,4,Pin_4*%
%TO.N,unconnected-(J3-Pad4)*%
X165542011Y-83125767D03*
%TO.P,J3,5,Pin_5*%
%TO.N,MOSI*%
X165542011Y-85665767D03*
%TO.P,J3,6,Pin_6*%
%TO.N,unconnected-(J3-Pad6)*%
X165542011Y-88205767D03*
%TO.P,J3,7,Pin_7*%
%TO.N,unconnected-(J3-Pad7)*%
X165542011Y-90745767D03*
%TO.P,J3,8,Pin_8*%
%TO.N,unconnected-(J3-Pad8)*%
X165542011Y-93285767D03*
%TD*%
D10*
%TO.P,REF\u002A\u002A,*%
%TO.N,*%
X148871991Y-65363573D03*
%TD*%
D11*
%TO.P,J1,1,Pin_1*%
%TO.N,MISO*%
X157631003Y-70122567D03*
D12*
%TO.P,J1,2,Pin_2*%
%TO.N,SCLK*%
X155091003Y-70122567D03*
%TO.P,J1,3,Pin_3*%
%TO.N,RESET*%
X157631003Y-67582567D03*
%TO.P,J1,4,Pin_4*%
%TO.N,GND*%
X155091003Y-67582567D03*
%TO.P,J1,5,Pin_5*%
%TO.N,MOSI*%
X157631003Y-65042567D03*
%TO.P,J1,6,Pin_6*%
%TO.N,+5V*%
X155091003Y-65042567D03*
%TD*%
D15*
%TO.N,GND*%
X151650000Y-90650000D03*
%TO.N,MISO*%
X153900000Y-74700000D03*
%TO.N,SCLK*%
X155106012Y-72847568D03*
%TO.N,RESET*%
X160050000Y-80600000D03*
%TO.N,MOSI*%
X161600000Y-85650000D03*
%TD*%
D16*
%TO.N,+5V*%
X150500000Y-75900000D02*
X150500000Y-78050000D01*
X152456012Y-73943988D02*
X150500000Y-75900000D01*
X155091003Y-65042567D02*
X153311013Y-65042567D01*
X153311013Y-65042567D02*
X152456012Y-65897568D01*
X152456012Y-65897568D02*
X152456012Y-73943988D01*
D17*
%TO.N,MISO*%
X157650000Y-74050000D02*
X157631003Y-74031003D01*
X153900000Y-74700000D02*
X157000000Y-74700000D01*
X157631003Y-74031003D02*
X157631003Y-70122567D01*
X157000000Y-74700000D02*
X157650000Y-74050000D01*
%TO.N,SCLK*%
X155091003Y-72832559D02*
X155106012Y-72847568D01*
X155091003Y-70122567D02*
X155091003Y-72832559D01*
%TO.N,RESET*%
X160100000Y-80550000D02*
X160100000Y-68300000D01*
X160050000Y-80600000D02*
X160100000Y-80550000D01*
X160100000Y-68300000D02*
X159382567Y-67582567D01*
X159382567Y-67582567D02*
X157631003Y-67582567D01*
%TO.N,MOSI*%
X160650000Y-65750000D02*
X161600000Y-66700000D01*
X159942567Y-65042567D02*
X160650000Y-65750000D01*
X161600000Y-66700000D02*
X161600000Y-85650000D01*
X157631003Y-65042567D02*
X159942567Y-65042567D01*
%TD*%
%TA.AperFunction,Conductor*%
%TO.N,GND*%
G36*
X164870057Y-61824980D02*
G01*
X164884858Y-61827285D01*
X164884861Y-61827285D01*
X164893730Y-61828666D01*
X164910899Y-61826421D01*
X164934839Y-61825588D01*
X165192770Y-61841190D01*
X165207874Y-61843024D01*
X165278648Y-61855994D01*
X165488879Y-61894520D01*
X165503641Y-61898158D01*
X165776408Y-61983155D01*
X165790627Y-61988549D01*
X166051140Y-62105796D01*
X166064609Y-62112865D01*
X166309095Y-62260662D01*
X166321617Y-62269305D01*
X166546507Y-62445496D01*
X166557895Y-62455586D01*
X166759894Y-62657585D01*
X166769984Y-62668973D01*
X166946175Y-62893863D01*
X166954818Y-62906385D01*
X167102615Y-63150871D01*
X167109684Y-63164340D01*
X167226930Y-63424850D01*
X167232325Y-63439072D01*
X167308497Y-63683515D01*
X167317321Y-63711833D01*
X167320960Y-63726601D01*
X167338617Y-63822951D01*
X167372456Y-64007606D01*
X167374290Y-64022710D01*
X167389455Y-64273409D01*
X167388198Y-64300119D01*
X167388195Y-64300339D01*
X167386814Y-64309210D01*
X167387978Y-64318112D01*
X167387978Y-64318115D01*
X167390936Y-64340731D01*
X167392000Y-64357069D01*
X167392000Y-104400672D01*
X167390500Y-104420056D01*
X167386814Y-104443730D01*
X167388454Y-104456270D01*
X167389059Y-104460897D01*
X167389892Y-104484839D01*
X167374290Y-104742770D01*
X167372456Y-104757874D01*
X167320962Y-105038873D01*
X167317322Y-105053641D01*
X167251668Y-105264334D01*
X167232326Y-105326404D01*
X167226931Y-105340627D01*
X167150466Y-105510527D01*
X167109686Y-105601136D01*
X167102615Y-105614609D01*
X166954818Y-105859095D01*
X166946175Y-105871617D01*
X166769984Y-106096507D01*
X166759894Y-106107895D01*
X166557895Y-106309894D01*
X166546507Y-106319984D01*
X166321617Y-106496175D01*
X166309095Y-106504818D01*
X166064609Y-106652615D01*
X166051140Y-106659684D01*
X165790630Y-106776930D01*
X165776408Y-106782325D01*
X165503641Y-106867322D01*
X165488879Y-106870960D01*
X165278648Y-106909486D01*
X165207874Y-106922456D01*
X165192770Y-106924290D01*
X164942071Y-106939455D01*
X164915361Y-106938198D01*
X164915141Y-106938195D01*
X164906270Y-106936814D01*
X164897368Y-106937978D01*
X164897365Y-106937978D01*
X164874749Y-106940936D01*
X164858411Y-106942000D01*
X147871330Y-106942000D01*
X147851945Y-106940500D01*
X147837144Y-106938195D01*
X147837141Y-106938195D01*
X147828272Y-106936814D01*
X147811103Y-106939059D01*
X147787163Y-106939892D01*
X147529232Y-106924290D01*
X147514128Y-106922456D01*
X147443354Y-106909486D01*
X147233123Y-106870960D01*
X147218361Y-106867322D01*
X146945594Y-106782325D01*
X146931372Y-106776930D01*
X146670862Y-106659684D01*
X146657393Y-106652615D01*
X146412907Y-106504818D01*
X146400385Y-106496175D01*
X146175495Y-106319984D01*
X146164107Y-106309894D01*
X145962108Y-106107895D01*
X145952018Y-106096507D01*
X145775827Y-105871617D01*
X145767184Y-105859095D01*
X145619387Y-105614609D01*
X145612316Y-105601136D01*
X145571537Y-105510527D01*
X145495071Y-105340627D01*
X145489676Y-105326404D01*
X145470334Y-105264334D01*
X145404680Y-105053641D01*
X145401040Y-105038873D01*
X145349546Y-104757874D01*
X145347712Y-104742770D01*
X145332547Y-104492071D01*
X145333804Y-104465361D01*
X145333807Y-104465141D01*
X145335188Y-104456270D01*
X145333549Y-104443730D01*
X145331066Y-104424749D01*
X145330002Y-104408411D01*
X145330002Y-103377865D01*
X146758680Y-103377865D01*
X146775229Y-103664879D01*
X146776054Y-103669084D01*
X146776055Y-103669092D01*
X146808001Y-103831917D01*
X146830577Y-103946991D01*
X146831964Y-103951041D01*
X146831965Y-103951046D01*
X146922312Y-104214926D01*
X146923701Y-104218982D01*
X146925628Y-104222813D01*
X147047617Y-104465361D01*
X147052876Y-104475818D01*
X147215712Y-104712746D01*
X147409197Y-104925384D01*
X147412492Y-104928139D01*
X147412493Y-104928140D01*
X147562599Y-105053647D01*
X147629750Y-105109794D01*
X147873289Y-105262567D01*
X148135309Y-105380873D01*
X148139428Y-105382093D01*
X148406848Y-105461307D01*
X148406853Y-105461308D01*
X148410961Y-105462525D01*
X148415195Y-105463173D01*
X148415200Y-105463174D01*
X148663802Y-105501215D01*
X148695144Y-105506011D01*
X148841476Y-105508310D01*
X148978308Y-105510460D01*
X148978314Y-105510460D01*
X148982599Y-105510527D01*
X148986851Y-105510012D01*
X148986859Y-105510012D01*
X149263747Y-105476504D01*
X149263752Y-105476503D01*
X149268008Y-105475988D01*
X149546088Y-105403035D01*
X149811695Y-105293017D01*
X150059913Y-105147970D01*
X150286150Y-104970578D01*
X150327276Y-104928140D01*
X150483235Y-104767202D01*
X150486218Y-104764124D01*
X150488751Y-104760676D01*
X150488755Y-104760671D01*
X150653878Y-104535882D01*
X150656416Y-104532427D01*
X150704575Y-104443730D01*
X150791545Y-104283551D01*
X150791546Y-104283549D01*
X150793595Y-104279775D01*
X150895216Y-104010844D01*
X150959398Y-103730609D01*
X150984954Y-103444256D01*
X150985418Y-103399996D01*
X150983909Y-103377865D01*
X161736679Y-103377865D01*
X161753228Y-103664879D01*
X161754053Y-103669084D01*
X161754054Y-103669092D01*
X161786000Y-103831917D01*
X161808576Y-103946991D01*
X161809963Y-103951041D01*
X161809964Y-103951046D01*
X161900311Y-104214926D01*
X161901700Y-104218982D01*
X161903627Y-104222813D01*
X162025616Y-104465361D01*
X162030875Y-104475818D01*
X162193711Y-104712746D01*
X162387196Y-104925384D01*
X162390491Y-104928139D01*
X162390492Y-104928140D01*
X162540598Y-105053647D01*
X162607749Y-105109794D01*
X162851288Y-105262567D01*
X163113308Y-105380873D01*
X163117427Y-105382093D01*
X163384847Y-105461307D01*
X163384852Y-105461308D01*
X163388960Y-105462525D01*
X163393194Y-105463173D01*
X163393199Y-105463174D01*
X163641801Y-105501215D01*
X163673143Y-105506011D01*
X163819475Y-105508310D01*
X163956307Y-105510460D01*
X163956313Y-105510460D01*
X163960598Y-105510527D01*
X163964850Y-105510012D01*
X163964858Y-105510012D01*
X164241746Y-105476504D01*
X164241751Y-105476503D01*
X164246007Y-105475988D01*
X164524087Y-105403035D01*
X164789694Y-105293017D01*
X165037912Y-105147970D01*
X165264149Y-104970578D01*
X165305275Y-104928140D01*
X165461234Y-104767202D01*
X165464217Y-104764124D01*
X165466750Y-104760676D01*
X165466754Y-104760671D01*
X165631877Y-104535882D01*
X165634415Y-104532427D01*
X165682574Y-104443730D01*
X165769544Y-104283551D01*
X165769545Y-104283549D01*
X165771594Y-104279775D01*
X165873215Y-104010844D01*
X165937397Y-103730609D01*
X165962953Y-103444256D01*
X165963417Y-103399996D01*
X165943863Y-103113171D01*
X165939326Y-103091260D01*
X165886433Y-102835851D01*
X165885564Y-102831654D01*
X165789597Y-102560653D01*
X165657740Y-102305184D01*
X165644478Y-102286313D01*
X165494894Y-102073478D01*
X165492431Y-102069973D01*
X165296730Y-101859374D01*
X165074258Y-101677283D01*
X164829132Y-101527069D01*
X164811038Y-101519126D01*
X164569820Y-101413239D01*
X164565888Y-101411513D01*
X164539953Y-101404125D01*
X164293524Y-101333928D01*
X164293525Y-101333928D01*
X164289396Y-101332752D01*
X164076694Y-101302481D01*
X164009026Y-101292850D01*
X164009024Y-101292850D01*
X164004774Y-101292245D01*
X164000485Y-101292223D01*
X164000478Y-101292222D01*
X163721573Y-101290761D01*
X163721566Y-101290761D01*
X163717287Y-101290739D01*
X163713043Y-101291298D01*
X163713039Y-101291298D01*
X163587650Y-101307806D01*
X163432256Y-101328264D01*
X163428116Y-101329397D01*
X163428114Y-101329397D01*
X163351301Y-101350411D01*
X163154954Y-101404125D01*
X163151006Y-101405809D01*
X162894466Y-101515233D01*
X162894462Y-101515235D01*
X162890514Y-101516919D01*
X162765950Y-101591469D01*
X162647511Y-101662353D01*
X162647507Y-101662356D01*
X162643829Y-101664557D01*
X162419462Y-101844309D01*
X162221567Y-102052847D01*
X162053804Y-102286313D01*
X161919278Y-102540388D01*
X161820479Y-102810369D01*
X161759235Y-103091260D01*
X161736679Y-103377865D01*
X150983909Y-103377865D01*
X150965864Y-103113171D01*
X150961327Y-103091260D01*
X150908434Y-102835851D01*
X150907565Y-102831654D01*
X150811598Y-102560653D01*
X150679741Y-102305184D01*
X150666479Y-102286313D01*
X150516895Y-102073478D01*
X150514432Y-102069973D01*
X150318731Y-101859374D01*
X150096259Y-101677283D01*
X149851133Y-101527069D01*
X149833039Y-101519126D01*
X149591821Y-101413239D01*
X149587889Y-101411513D01*
X149561954Y-101404125D01*
X149315525Y-101333928D01*
X149315526Y-101333928D01*
X149311397Y-101332752D01*
X149098695Y-101302481D01*
X149031027Y-101292850D01*
X149031025Y-101292850D01*
X149026775Y-101292245D01*
X149022486Y-101292223D01*
X149022479Y-101292222D01*
X148743574Y-101290761D01*
X148743567Y-101290761D01*
X148739288Y-101290739D01*
X148735044Y-101291298D01*
X148735040Y-101291298D01*
X148609651Y-101307806D01*
X148454257Y-101328264D01*
X148450117Y-101329397D01*
X148450115Y-101329397D01*
X148373302Y-101350411D01*
X148176955Y-101404125D01*
X148173007Y-101405809D01*
X147916467Y-101515233D01*
X147916463Y-101515235D01*
X147912515Y-101516919D01*
X147787951Y-101591469D01*
X147669512Y-101662353D01*
X147669508Y-101662356D01*
X147665830Y-101664557D01*
X147441463Y-101844309D01*
X147243568Y-102052847D01*
X147075805Y-102286313D01*
X146941279Y-102540388D01*
X146842480Y-102810369D01*
X146781236Y-103091260D01*
X146758680Y-103377865D01*
X145330002Y-103377865D01*
X145330002Y-93252462D01*
X145817246Y-93252462D01*
X145817543Y-93257615D01*
X145817543Y-93257618D01*
X145823006Y-93352357D01*
X145830105Y-93475482D01*
X145831242Y-93480528D01*
X145831243Y-93480534D01*
X145851114Y-93568706D01*
X145879217Y-93693406D01*
X145963261Y-93900383D01*
X146079982Y-94090855D01*
X146226245Y-94259705D01*
X146398121Y-94402399D01*
X146590995Y-94515105D01*
X146799687Y-94594797D01*
X146804755Y-94595828D01*
X146804758Y-94595829D01*
X146912012Y-94617650D01*
X147018592Y-94639334D01*
X147023767Y-94639524D01*
X147023769Y-94639524D01*
X147236668Y-94647331D01*
X147236672Y-94647331D01*
X147241832Y-94647520D01*
X147246952Y-94646864D01*
X147246954Y-94646864D01*
X147458283Y-94619792D01*
X147458284Y-94619792D01*
X147463411Y-94619135D01*
X147468361Y-94617650D01*
X147672424Y-94556428D01*
X147672429Y-94556426D01*
X147677379Y-94554941D01*
X147877989Y-94456663D01*
X148059855Y-94326940D01*
X148218091Y-94169256D01*
X148277589Y-94086456D01*
X148345430Y-93992044D01*
X148348448Y-93987844D01*
X148447425Y-93787578D01*
X148512365Y-93573836D01*
X148541524Y-93352357D01*
X148543151Y-93285767D01*
X148540413Y-93252462D01*
X164179262Y-93252462D01*
X164179559Y-93257615D01*
X164179559Y-93257618D01*
X164185022Y-93352357D01*
X164192121Y-93475482D01*
X164193258Y-93480528D01*
X164193259Y-93480534D01*
X164213130Y-93568706D01*
X164241233Y-93693406D01*
X164325277Y-93900383D01*
X164441998Y-94090855D01*
X164588261Y-94259705D01*
X164760137Y-94402399D01*
X164953011Y-94515105D01*
X165161703Y-94594797D01*
X165166771Y-94595828D01*
X165166774Y-94595829D01*
X165274028Y-94617650D01*
X165380608Y-94639334D01*
X165385783Y-94639524D01*
X165385785Y-94639524D01*
X165598684Y-94647331D01*
X165598688Y-94647331D01*
X165603848Y-94647520D01*
X165608968Y-94646864D01*
X165608970Y-94646864D01*
X165820299Y-94619792D01*
X165820300Y-94619792D01*
X165825427Y-94619135D01*
X165830377Y-94617650D01*
X166034440Y-94556428D01*
X166034445Y-94556426D01*
X166039395Y-94554941D01*
X166240005Y-94456663D01*
X166421871Y-94326940D01*
X166580107Y-94169256D01*
X166639605Y-94086456D01*
X166707446Y-93992044D01*
X166710464Y-93987844D01*
X166809441Y-93787578D01*
X166874381Y-93573836D01*
X166903540Y-93352357D01*
X166905167Y-93285767D01*
X166886863Y-93063128D01*
X166832442Y-92846469D01*
X166743365Y-92641607D01*
X166622025Y-92454044D01*
X166471681Y-92288818D01*
X166467630Y-92285619D01*
X166467626Y-92285615D01*
X166300425Y-92153567D01*
X166300421Y-92153565D01*
X166296370Y-92150365D01*
X166255064Y-92127563D01*
X166205095Y-92077131D01*
X166190323Y-92007688D01*
X166215439Y-91941283D01*
X166242791Y-91914676D01*
X166286614Y-91883417D01*
X166421871Y-91786940D01*
X166580107Y-91629256D01*
X166639605Y-91546456D01*
X166707446Y-91452044D01*
X166710464Y-91447844D01*
X166809441Y-91247578D01*
X166874381Y-91033836D01*
X166903540Y-90812357D01*
X166905167Y-90745767D01*
X166886863Y-90523128D01*
X166832442Y-90306469D01*
X166743365Y-90101607D01*
X166622025Y-89914044D01*
X166471681Y-89748818D01*
X166467630Y-89745619D01*
X166467626Y-89745615D01*
X166300425Y-89613567D01*
X166300421Y-89613565D01*
X166296370Y-89610365D01*
X166255064Y-89587563D01*
X166205095Y-89537131D01*
X166190323Y-89467688D01*
X166215439Y-89401283D01*
X166242791Y-89374676D01*
X166286614Y-89343417D01*
X166421871Y-89246940D01*
X166580107Y-89089256D01*
X166639605Y-89006456D01*
X166707446Y-88912044D01*
X166710464Y-88907844D01*
X166809441Y-88707578D01*
X166874381Y-88493836D01*
X166903540Y-88272357D01*
X166905167Y-88205767D01*
X166886863Y-87983128D01*
X166832442Y-87766469D01*
X166743365Y-87561607D01*
X166622025Y-87374044D01*
X166471681Y-87208818D01*
X166467630Y-87205619D01*
X166467626Y-87205615D01*
X166300425Y-87073567D01*
X166300421Y-87073565D01*
X166296370Y-87070365D01*
X166255064Y-87047563D01*
X166205095Y-86997131D01*
X166190323Y-86927688D01*
X166215439Y-86861283D01*
X166242791Y-86834676D01*
X166286614Y-86803417D01*
X166421871Y-86706940D01*
X166580107Y-86549256D01*
X166604610Y-86515157D01*
X166707446Y-86372044D01*
X166710464Y-86367844D01*
X166751410Y-86284997D01*
X166807147Y-86172220D01*
X166807148Y-86172218D01*
X166809441Y-86167578D01*
X166874381Y-85953836D01*
X166903540Y-85732357D01*
X166905167Y-85665767D01*
X166886863Y-85443128D01*
X166832442Y-85226469D01*
X166743365Y-85021607D01*
X166670979Y-84909715D01*
X166624833Y-84838384D01*
X166624831Y-84838381D01*
X166622025Y-84834044D01*
X166471681Y-84668818D01*
X166467630Y-84665619D01*
X166467626Y-84665615D01*
X166300425Y-84533567D01*
X166300421Y-84533565D01*
X166296370Y-84530365D01*
X166255064Y-84507563D01*
X166205095Y-84457131D01*
X166190323Y-84387688D01*
X166215439Y-84321283D01*
X166242791Y-84294676D01*
X166286614Y-84263417D01*
X166421871Y-84166940D01*
X166580107Y-84009256D01*
X166639605Y-83926456D01*
X166707446Y-83832044D01*
X166710464Y-83827844D01*
X166809441Y-83627578D01*
X166874381Y-83413836D01*
X166903540Y-83192357D01*
X166905167Y-83125767D01*
X166886863Y-82903128D01*
X166832442Y-82686469D01*
X166743365Y-82481607D01*
X166622025Y-82294044D01*
X166471681Y-82128818D01*
X166467630Y-82125619D01*
X166467626Y-82125615D01*
X166300425Y-81993567D01*
X166300421Y-81993565D01*
X166296370Y-81990365D01*
X166255064Y-81967563D01*
X166205095Y-81917131D01*
X166190323Y-81847688D01*
X166215439Y-81781283D01*
X166242791Y-81754676D01*
X166304171Y-81710894D01*
X166421871Y-81626940D01*
X166429978Y-81618862D01*
X166576446Y-81472904D01*
X166580107Y-81469256D01*
X166592911Y-81451438D01*
X166707446Y-81292044D01*
X166710464Y-81287844D01*
X166722073Y-81264356D01*
X166807147Y-81092220D01*
X166807148Y-81092218D01*
X166809441Y-81087578D01*
X166860723Y-80918790D01*
X166872876Y-80878790D01*
X166872876Y-80878788D01*
X166874381Y-80873836D01*
X166903540Y-80652357D01*
X166905167Y-80585767D01*
X166886863Y-80363128D01*
X166832442Y-80146469D01*
X166743365Y-79941607D01*
X166675661Y-79836952D01*
X166624833Y-79758384D01*
X166624831Y-79758381D01*
X166622025Y-79754044D01*
X166471681Y-79588818D01*
X166467630Y-79585619D01*
X166467626Y-79585615D01*
X166300425Y-79453567D01*
X166300421Y-79453565D01*
X166296370Y-79450365D01*
X166255064Y-79427563D01*
X166205095Y-79377131D01*
X166190323Y-79307688D01*
X166215439Y-79241283D01*
X166242791Y-79214676D01*
X166286614Y-79183417D01*
X166421871Y-79086940D01*
X166580107Y-78929256D01*
X166639605Y-78846456D01*
X166707446Y-78752044D01*
X166710464Y-78747844D01*
X166728547Y-78711257D01*
X166807147Y-78552220D01*
X166807148Y-78552218D01*
X166809441Y-78547578D01*
X166874381Y-78333836D01*
X166903540Y-78112357D01*
X166905167Y-78045767D01*
X166886863Y-77823128D01*
X166832442Y-77606469D01*
X166743365Y-77401607D01*
X166622025Y-77214044D01*
X166471681Y-77048818D01*
X166467630Y-77045619D01*
X166467626Y-77045615D01*
X166300425Y-76913567D01*
X166300421Y-76913565D01*
X166296370Y-76910365D01*
X166255064Y-76887563D01*
X166205095Y-76837131D01*
X166190323Y-76767688D01*
X166215439Y-76701283D01*
X166242791Y-76674676D01*
X166286614Y-76643417D01*
X166421871Y-76546940D01*
X166580107Y-76389256D01*
X166639605Y-76306456D01*
X166707446Y-76212044D01*
X166710464Y-76207844D01*
X166809441Y-76007578D01*
X166867547Y-75816330D01*
X166872876Y-75798790D01*
X166872876Y-75798788D01*
X166874381Y-75793836D01*
X166903540Y-75572357D01*
X166905167Y-75505767D01*
X166886863Y-75283128D01*
X166832442Y-75066469D01*
X166743365Y-74861607D01*
X166622025Y-74674044D01*
X166471681Y-74508818D01*
X166467630Y-74505619D01*
X166467626Y-74505615D01*
X166300425Y-74373567D01*
X166300421Y-74373565D01*
X166296370Y-74370365D01*
X166100800Y-74262405D01*
X166095931Y-74260681D01*
X166095927Y-74260679D01*
X165895098Y-74189562D01*
X165895094Y-74189561D01*
X165890223Y-74187836D01*
X165885130Y-74186929D01*
X165885127Y-74186928D01*
X165675384Y-74149567D01*
X165675378Y-74149566D01*
X165670295Y-74148661D01*
X165596463Y-74147759D01*
X165452092Y-74145995D01*
X165452090Y-74145995D01*
X165446922Y-74145932D01*
X165226102Y-74179722D01*
X165013767Y-74249124D01*
X164815618Y-74352274D01*
X164811485Y-74355377D01*
X164811482Y-74355379D01*
X164644084Y-74481065D01*
X164636976Y-74486402D01*
X164482640Y-74647905D01*
X164356754Y-74832447D01*
X164262699Y-75035072D01*
X164203000Y-75250337D01*
X164179262Y-75472462D01*
X164179559Y-75477615D01*
X164179559Y-75477618D01*
X164189238Y-75645481D01*
X164192121Y-75695482D01*
X164193258Y-75700528D01*
X164193259Y-75700534D01*
X164211311Y-75780634D01*
X164241233Y-75913406D01*
X164325277Y-76120383D01*
X164327976Y-76124787D01*
X164415754Y-76268028D01*
X164441998Y-76310855D01*
X164588261Y-76479705D01*
X164760137Y-76622399D01*
X164830606Y-76663578D01*
X164833456Y-76665243D01*
X164882180Y-76716881D01*
X164895251Y-76786664D01*
X164868520Y-76852436D01*
X164828066Y-76885794D01*
X164815618Y-76892274D01*
X164811485Y-76895377D01*
X164811482Y-76895379D01*
X164641111Y-77023297D01*
X164636976Y-77026402D01*
X164482640Y-77187905D01*
X164356754Y-77372447D01*
X164262699Y-77575072D01*
X164203000Y-77790337D01*
X164179262Y-78012462D01*
X164179559Y-78017615D01*
X164179559Y-78017618D01*
X164185022Y-78112357D01*
X164192121Y-78235482D01*
X164193258Y-78240528D01*
X164193259Y-78240534D01*
X164202920Y-78283402D01*
X164241233Y-78453406D01*
X164325277Y-78660383D01*
X164441998Y-78850855D01*
X164588261Y-79019705D01*
X164760137Y-79162399D01*
X164803132Y-79187523D01*
X164833456Y-79205243D01*
X164882180Y-79256881D01*
X164895251Y-79326664D01*
X164868520Y-79392436D01*
X164828066Y-79425794D01*
X164815618Y-79432274D01*
X164811485Y-79435377D01*
X164811482Y-79435379D01*
X164756802Y-79476434D01*
X164636976Y-79566402D01*
X164633404Y-79570140D01*
X164512734Y-79696414D01*
X164482640Y-79727905D01*
X164479726Y-79732177D01*
X164479725Y-79732178D01*
X164413967Y-79828576D01*
X164356754Y-79912447D01*
X164262699Y-80115072D01*
X164203000Y-80330337D01*
X164179262Y-80552462D01*
X164179559Y-80557615D01*
X164179559Y-80557618D01*
X164185022Y-80652357D01*
X164192121Y-80775482D01*
X164193258Y-80780528D01*
X164193259Y-80780534D01*
X164213130Y-80868706D01*
X164241233Y-80993406D01*
X164325277Y-81200383D01*
X164441998Y-81390855D01*
X164588261Y-81559705D01*
X164760137Y-81702399D01*
X164830606Y-81743578D01*
X164833456Y-81745243D01*
X164882180Y-81796881D01*
X164895251Y-81866664D01*
X164868520Y-81932436D01*
X164828066Y-81965794D01*
X164815618Y-81972274D01*
X164811485Y-81975377D01*
X164811482Y-81975379D01*
X164787258Y-81993567D01*
X164636976Y-82106402D01*
X164482640Y-82267905D01*
X164479726Y-82272177D01*
X164479725Y-82272178D01*
X164467415Y-82290224D01*
X164356754Y-82452447D01*
X164262699Y-82655072D01*
X164203000Y-82870337D01*
X164179262Y-83092462D01*
X164179559Y-83097615D01*
X164179559Y-83097618D01*
X164185022Y-83192357D01*
X164192121Y-83315482D01*
X164193258Y-83320528D01*
X164193259Y-83320534D01*
X164206608Y-83379767D01*
X164241233Y-83533406D01*
X164325277Y-83740383D01*
X164441998Y-83930855D01*
X164588261Y-84099705D01*
X164760137Y-84242399D01*
X164830606Y-84283578D01*
X164833456Y-84285243D01*
X164882180Y-84336881D01*
X164895251Y-84406664D01*
X164868520Y-84472436D01*
X164828066Y-84505794D01*
X164815618Y-84512274D01*
X164811485Y-84515377D01*
X164811482Y-84515379D01*
X164787258Y-84533567D01*
X164636976Y-84646402D01*
X164482640Y-84807905D01*
X164479726Y-84812177D01*
X164479725Y-84812178D01*
X164416344Y-84905091D01*
X164356754Y-84992447D01*
X164262699Y-85195072D01*
X164203000Y-85410337D01*
X164179262Y-85632462D01*
X164179559Y-85637615D01*
X164179559Y-85637618D01*
X164191823Y-85850314D01*
X164192121Y-85855482D01*
X164193258Y-85860528D01*
X164193259Y-85860534D01*
X164203093Y-85904169D01*
X164241233Y-86073406D01*
X164325277Y-86280383D01*
X164376030Y-86363205D01*
X164423628Y-86440877D01*
X164441998Y-86470855D01*
X164588261Y-86639705D01*
X164760137Y-86782399D01*
X164830606Y-86823578D01*
X164833456Y-86825243D01*
X164882180Y-86876881D01*
X164895251Y-86946664D01*
X164868520Y-87012436D01*
X164828066Y-87045794D01*
X164815618Y-87052274D01*
X164811485Y-87055377D01*
X164811482Y-87055379D01*
X164787258Y-87073567D01*
X164636976Y-87186402D01*
X164482640Y-87347905D01*
X164356754Y-87532447D01*
X164262699Y-87735072D01*
X164203000Y-87950337D01*
X164179262Y-88172462D01*
X164179559Y-88177615D01*
X164179559Y-88177618D01*
X164185022Y-88272357D01*
X164192121Y-88395482D01*
X164193258Y-88400528D01*
X164193259Y-88400534D01*
X164213130Y-88488706D01*
X164241233Y-88613406D01*
X164325277Y-88820383D01*
X164441998Y-89010855D01*
X164588261Y-89179705D01*
X164760137Y-89322399D01*
X164830606Y-89363578D01*
X164833456Y-89365243D01*
X164882180Y-89416881D01*
X164895251Y-89486664D01*
X164868520Y-89552436D01*
X164828066Y-89585794D01*
X164815618Y-89592274D01*
X164811485Y-89595377D01*
X164811482Y-89595379D01*
X164787258Y-89613567D01*
X164636976Y-89726402D01*
X164482640Y-89887905D01*
X164356754Y-90072447D01*
X164262699Y-90275072D01*
X164203000Y-90490337D01*
X164179262Y-90712462D01*
X164179559Y-90717615D01*
X164179559Y-90717618D01*
X164185022Y-90812357D01*
X164192121Y-90935482D01*
X164193258Y-90940528D01*
X164193259Y-90940534D01*
X164213130Y-91028706D01*
X164241233Y-91153406D01*
X164325277Y-91360383D01*
X164441998Y-91550855D01*
X164588261Y-91719705D01*
X164760137Y-91862399D01*
X164830606Y-91903578D01*
X164833456Y-91905243D01*
X164882180Y-91956881D01*
X164895251Y-92026664D01*
X164868520Y-92092436D01*
X164828066Y-92125794D01*
X164815618Y-92132274D01*
X164811485Y-92135377D01*
X164811482Y-92135379D01*
X164787258Y-92153567D01*
X164636976Y-92266402D01*
X164482640Y-92427905D01*
X164356754Y-92612447D01*
X164262699Y-92815072D01*
X164203000Y-93030337D01*
X164179262Y-93252462D01*
X148540413Y-93252462D01*
X148524847Y-93063128D01*
X148470426Y-92846469D01*
X148381349Y-92641607D01*
X148260009Y-92454044D01*
X148109665Y-92288818D01*
X148105614Y-92285619D01*
X148105610Y-92285615D01*
X147938409Y-92153567D01*
X147938405Y-92153565D01*
X147934354Y-92150365D01*
X147893048Y-92127563D01*
X147843079Y-92077131D01*
X147828307Y-92007688D01*
X147853423Y-91941283D01*
X147880775Y-91914676D01*
X147924598Y-91883417D01*
X148059855Y-91786940D01*
X148218091Y-91629256D01*
X148277589Y-91546456D01*
X148345430Y-91452044D01*
X148348448Y-91447844D01*
X148447425Y-91247578D01*
X148512365Y-91033836D01*
X148541524Y-90812357D01*
X148543151Y-90745767D01*
X148524847Y-90523128D01*
X148470426Y-90306469D01*
X148381349Y-90101607D01*
X148260009Y-89914044D01*
X148109665Y-89748818D01*
X148105614Y-89745619D01*
X148105610Y-89745615D01*
X147938409Y-89613567D01*
X147938405Y-89613565D01*
X147934354Y-89610365D01*
X147893048Y-89587563D01*
X147843079Y-89537131D01*
X147828307Y-89467688D01*
X147853423Y-89401283D01*
X147880775Y-89374676D01*
X147924598Y-89343417D01*
X148059855Y-89246940D01*
X148218091Y-89089256D01*
X148277589Y-89006456D01*
X148345430Y-88912044D01*
X148348448Y-88907844D01*
X148447425Y-88707578D01*
X148512365Y-88493836D01*
X148541524Y-88272357D01*
X148543151Y-88205767D01*
X148524847Y-87983128D01*
X148470426Y-87766469D01*
X148381349Y-87561607D01*
X148260009Y-87374044D01*
X148109665Y-87208818D01*
X148105614Y-87205619D01*
X148105610Y-87205615D01*
X147938409Y-87073567D01*
X147938405Y-87073565D01*
X147934354Y-87070365D01*
X147893048Y-87047563D01*
X147843079Y-86997131D01*
X147828307Y-86927688D01*
X147853423Y-86861283D01*
X147880775Y-86834676D01*
X147924598Y-86803417D01*
X148059855Y-86706940D01*
X148218091Y-86549256D01*
X148242594Y-86515157D01*
X148345430Y-86372044D01*
X148348448Y-86367844D01*
X148389394Y-86284997D01*
X148445131Y-86172220D01*
X148445132Y-86172218D01*
X148447425Y-86167578D01*
X148512365Y-85953836D01*
X148541524Y-85732357D01*
X148543151Y-85665767D01*
X148524847Y-85443128D01*
X148470426Y-85226469D01*
X148381349Y-85021607D01*
X148308963Y-84909715D01*
X148262817Y-84838384D01*
X148262815Y-84838381D01*
X148260009Y-84834044D01*
X148109665Y-84668818D01*
X148105614Y-84665619D01*
X148105610Y-84665615D01*
X147938409Y-84533567D01*
X147938405Y-84533565D01*
X147934354Y-84530365D01*
X147892564Y-84507296D01*
X147842593Y-84456864D01*
X147827821Y-84387421D01*
X147852937Y-84321015D01*
X147880289Y-84294408D01*
X148055323Y-84169559D01*
X148063195Y-84162906D01*
X148214047Y-84012579D01*
X148220725Y-84004732D01*
X148344998Y-83831787D01*
X148350308Y-83822950D01*
X148444665Y-83632034D01*
X148448464Y-83622439D01*
X148510372Y-83418677D01*
X148512550Y-83408604D01*
X148513981Y-83397729D01*
X148511770Y-83383545D01*
X148498612Y-83379767D01*
X145863220Y-83379767D01*
X145849689Y-83383740D01*
X145848252Y-83393733D01*
X145878560Y-83528213D01*
X145881640Y-83538042D01*
X145961765Y-83735370D01*
X145966408Y-83744561D01*
X146077689Y-83926155D01*
X146083772Y-83934466D01*
X146223208Y-84095434D01*
X146230575Y-84102650D01*
X146394429Y-84238683D01*
X146402876Y-84244598D01*
X146471964Y-84284970D01*
X146520688Y-84336609D01*
X146533759Y-84406392D01*
X146507028Y-84472163D01*
X146466579Y-84505519D01*
X146453602Y-84512274D01*
X146449469Y-84515377D01*
X146449466Y-84515379D01*
X146425242Y-84533567D01*
X146274960Y-84646402D01*
X146120624Y-84807905D01*
X146117710Y-84812177D01*
X146117709Y-84812178D01*
X146054328Y-84905091D01*
X145994738Y-84992447D01*
X145900683Y-85195072D01*
X145840984Y-85410337D01*
X145817246Y-85632462D01*
X145817543Y-85637615D01*
X145817543Y-85637618D01*
X145829807Y-85850314D01*
X145830105Y-85855482D01*
X145831242Y-85860528D01*
X145831243Y-85860534D01*
X145841077Y-85904169D01*
X145879217Y-86073406D01*
X145963261Y-86280383D01*
X146014014Y-86363205D01*
X146061612Y-86440877D01*
X146079982Y-86470855D01*
X146226245Y-86639705D01*
X146398121Y-86782399D01*
X146468590Y-86823578D01*
X146471440Y-86825243D01*
X146520164Y-86876881D01*
X146533235Y-86946664D01*
X146506504Y-87012436D01*
X146466050Y-87045794D01*
X146453602Y-87052274D01*
X146449469Y-87055377D01*
X146449466Y-87055379D01*
X146425242Y-87073567D01*
X146274960Y-87186402D01*
X146120624Y-87347905D01*
X145994738Y-87532447D01*
X145900683Y-87735072D01*
X145840984Y-87950337D01*
X145817246Y-88172462D01*
X145817543Y-88177615D01*
X145817543Y-88177618D01*
X145823006Y-88272357D01*
X145830105Y-88395482D01*
X145831242Y-88400528D01*
X145831243Y-88400534D01*
X145851114Y-88488706D01*
X145879217Y-88613406D01*
X145963261Y-88820383D01*
X146079982Y-89010855D01*
X146226245Y-89179705D01*
X146398121Y-89322399D01*
X146468590Y-89363578D01*
X146471440Y-89365243D01*
X146520164Y-89416881D01*
X146533235Y-89486664D01*
X146506504Y-89552436D01*
X146466050Y-89585794D01*
X146453602Y-89592274D01*
X146449469Y-89595377D01*
X146449466Y-89595379D01*
X146425242Y-89613567D01*
X146274960Y-89726402D01*
X146120624Y-89887905D01*
X145994738Y-90072447D01*
X145900683Y-90275072D01*
X145840984Y-90490337D01*
X145817246Y-90712462D01*
X145817543Y-90717615D01*
X145817543Y-90717618D01*
X145823006Y-90812357D01*
X145830105Y-90935482D01*
X145831242Y-90940528D01*
X145831243Y-90940534D01*
X145851114Y-91028706D01*
X145879217Y-91153406D01*
X145963261Y-91360383D01*
X146079982Y-91550855D01*
X146226245Y-91719705D01*
X146398121Y-91862399D01*
X146468590Y-91903578D01*
X146471440Y-91905243D01*
X146520164Y-91956881D01*
X146533235Y-92026664D01*
X146506504Y-92092436D01*
X146466050Y-92125794D01*
X146453602Y-92132274D01*
X146449469Y-92135377D01*
X146449466Y-92135379D01*
X146425242Y-92153567D01*
X146274960Y-92266402D01*
X146120624Y-92427905D01*
X145994738Y-92612447D01*
X145900683Y-92815072D01*
X145840984Y-93030337D01*
X145817246Y-93252462D01*
X145330002Y-93252462D01*
X145330002Y-80552462D01*
X145817246Y-80552462D01*
X145817543Y-80557615D01*
X145817543Y-80557618D01*
X145823006Y-80652357D01*
X145830105Y-80775482D01*
X145831242Y-80780528D01*
X145831243Y-80780534D01*
X145851114Y-80868706D01*
X145879217Y-80993406D01*
X145963261Y-81200383D01*
X146079982Y-81390855D01*
X146226245Y-81559705D01*
X146398121Y-81702399D01*
X146471440Y-81745243D01*
X146471950Y-81745541D01*
X146520674Y-81797179D01*
X146533745Y-81866962D01*
X146507014Y-81932734D01*
X146466557Y-81966094D01*
X146458452Y-81970313D01*
X146449733Y-81975803D01*
X146279428Y-82103672D01*
X146271721Y-82110515D01*
X146124585Y-82264484D01*
X146118099Y-82272494D01*
X145998093Y-82448416D01*
X145992995Y-82457390D01*
X145903333Y-82650550D01*
X145899770Y-82660237D01*
X145844384Y-82859950D01*
X145845907Y-82868374D01*
X145858287Y-82871767D01*
X148498339Y-82871767D01*
X148511870Y-82867794D01*
X148513175Y-82858714D01*
X148471209Y-82691642D01*
X148467889Y-82681891D01*
X148382967Y-82486581D01*
X148378100Y-82477506D01*
X148262421Y-82298693D01*
X148256131Y-82290524D01*
X148112801Y-82133007D01*
X148105268Y-82125982D01*
X147938134Y-81993989D01*
X147929551Y-81988287D01*
X147892597Y-81967887D01*
X147842626Y-81917454D01*
X147827854Y-81848012D01*
X147852970Y-81781606D01*
X147880322Y-81754999D01*
X147942155Y-81710894D01*
X148047066Y-81636062D01*
X149778493Y-81636062D01*
X149787789Y-81648077D01*
X149838994Y-81683931D01*
X149848489Y-81689414D01*
X150045947Y-81781490D01*
X150056239Y-81785236D01*
X150266688Y-81841625D01*
X150277481Y-81843528D01*
X150494525Y-81862517D01*
X150505475Y-81862517D01*
X150722519Y-81843528D01*
X150733312Y-81841625D01*
X150943761Y-81785236D01*
X150954053Y-81781490D01*
X151151511Y-81689414D01*
X151161006Y-81683931D01*
X151213048Y-81647491D01*
X151221424Y-81637012D01*
X151214356Y-81623566D01*
X150512812Y-80922022D01*
X150498868Y-80914408D01*
X150497035Y-80914539D01*
X150490420Y-80918790D01*
X149784923Y-81624287D01*
X149778493Y-81636062D01*
X148047066Y-81636062D01*
X148059855Y-81626940D01*
X148067962Y-81618862D01*
X148214430Y-81472904D01*
X148218091Y-81469256D01*
X148230895Y-81451438D01*
X148345430Y-81292044D01*
X148348448Y-81287844D01*
X148360057Y-81264356D01*
X148445131Y-81092220D01*
X148445132Y-81092218D01*
X148447425Y-81087578D01*
X148498707Y-80918790D01*
X148510860Y-80878790D01*
X148510860Y-80878788D01*
X148512365Y-80873836D01*
X148541524Y-80652357D01*
X148543151Y-80585767D01*
X148540661Y-80555475D01*
X149187483Y-80555475D01*
X149206472Y-80772519D01*
X149208375Y-80783312D01*
X149264764Y-80993761D01*
X149268510Y-81004053D01*
X149360586Y-81201511D01*
X149366069Y-81211006D01*
X149402509Y-81263048D01*
X149412988Y-81271424D01*
X149426434Y-81264356D01*
X150127978Y-80562812D01*
X150134356Y-80551132D01*
X150864408Y-80551132D01*
X150864539Y-80552965D01*
X150868790Y-80559580D01*
X151574287Y-81265077D01*
X151586062Y-81271507D01*
X151598077Y-81262211D01*
X151633931Y-81211006D01*
X151639414Y-81201511D01*
X151731490Y-81004053D01*
X151735236Y-80993761D01*
X151791625Y-80783312D01*
X151793528Y-80772519D01*
X151812517Y-80555475D01*
X151812517Y-80544525D01*
X151793528Y-80327481D01*
X151791625Y-80316688D01*
X151735236Y-80106239D01*
X151731490Y-80095947D01*
X151639414Y-79898489D01*
X151633931Y-79888994D01*
X151597491Y-79836952D01*
X151587012Y-79828576D01*
X151573566Y-79835644D01*
X150872022Y-80537188D01*
X150864408Y-80551132D01*
X150134356Y-80551132D01*
X150135592Y-80548868D01*
X150135461Y-80547035D01*
X150131210Y-80540420D01*
X149425713Y-79834923D01*
X149413938Y-79828493D01*
X149401923Y-79837789D01*
X149366069Y-79888994D01*
X149360586Y-79898489D01*
X149268510Y-80095947D01*
X149264764Y-80106239D01*
X149208375Y-80316688D01*
X149206472Y-80327481D01*
X149187483Y-80544525D01*
X149187483Y-80555475D01*
X148540661Y-80555475D01*
X148524847Y-80363128D01*
X148470426Y-80146469D01*
X148381349Y-79941607D01*
X148313645Y-79836952D01*
X148262817Y-79758384D01*
X148262815Y-79758381D01*
X148260009Y-79754044D01*
X148109665Y-79588818D01*
X148105614Y-79585619D01*
X148105610Y-79585615D01*
X147938409Y-79453567D01*
X147938405Y-79453565D01*
X147934354Y-79450365D01*
X147893048Y-79427563D01*
X147843079Y-79377131D01*
X147828307Y-79307688D01*
X147853423Y-79241283D01*
X147880775Y-79214676D01*
X147924598Y-79183417D01*
X148059855Y-79086940D01*
X148218091Y-78929256D01*
X148277589Y-78846456D01*
X148345430Y-78752044D01*
X148348448Y-78747844D01*
X148366531Y-78711257D01*
X148445131Y-78552220D01*
X148445132Y-78552218D01*
X148447425Y-78547578D01*
X148512365Y-78333836D01*
X148541524Y-78112357D01*
X148543048Y-78050000D01*
X149186502Y-78050000D01*
X149206457Y-78278087D01*
X149207881Y-78283400D01*
X149207881Y-78283402D01*
X149252083Y-78448363D01*
X149265716Y-78499243D01*
X149268039Y-78504224D01*
X149268039Y-78504225D01*
X149360151Y-78701762D01*
X149360154Y-78701767D01*
X149362477Y-78706749D01*
X149365634Y-78711257D01*
X149466114Y-78854757D01*
X149493802Y-78894300D01*
X149655700Y-79056198D01*
X149660208Y-79059355D01*
X149660211Y-79059357D01*
X149763876Y-79131944D01*
X149843251Y-79187523D01*
X149848235Y-79189847D01*
X149850528Y-79191171D01*
X149899521Y-79242553D01*
X149912957Y-79312267D01*
X149886571Y-79378178D01*
X149850528Y-79409409D01*
X149838998Y-79416066D01*
X149786952Y-79452509D01*
X149778576Y-79462988D01*
X149785644Y-79476434D01*
X150487188Y-80177978D01*
X150501132Y-80185592D01*
X150502965Y-80185461D01*
X150509580Y-80181210D01*
X151215077Y-79475713D01*
X151221507Y-79463938D01*
X151212211Y-79451923D01*
X151161002Y-79416066D01*
X151149472Y-79409409D01*
X151100479Y-79358027D01*
X151087042Y-79288313D01*
X151113429Y-79222402D01*
X151149472Y-79191171D01*
X151151765Y-79189847D01*
X151156749Y-79187523D01*
X151236124Y-79131944D01*
X151339789Y-79059357D01*
X151339792Y-79059355D01*
X151344300Y-79056198D01*
X151506198Y-78894300D01*
X151533887Y-78854757D01*
X151634366Y-78711257D01*
X151637523Y-78706749D01*
X151639846Y-78701767D01*
X151639849Y-78701762D01*
X151731961Y-78504225D01*
X151731961Y-78504224D01*
X151734284Y-78499243D01*
X151747918Y-78448363D01*
X151792119Y-78283402D01*
X151792119Y-78283400D01*
X151793543Y-78278087D01*
X151813498Y-78050000D01*
X151793543Y-77821913D01*
X151734284Y-77600757D01*
X151720118Y-77570377D01*
X151639849Y-77398238D01*
X151639846Y-77398233D01*
X151637523Y-77393251D01*
X151564098Y-77288389D01*
X151509357Y-77210211D01*
X151509355Y-77210208D01*
X151506198Y-77205700D01*
X151344300Y-77043802D01*
X151324789Y-77030140D01*
X151316228Y-77024145D01*
X151271900Y-76968688D01*
X151262500Y-76920933D01*
X151262500Y-76268028D01*
X151282502Y-76199907D01*
X151299405Y-76178933D01*
X152604029Y-74874309D01*
X152666341Y-74840283D01*
X152737156Y-74845348D01*
X152793992Y-74887895D01*
X152815247Y-74932388D01*
X152850605Y-75071610D01*
X152935898Y-75256624D01*
X153053479Y-75422997D01*
X153199410Y-75565157D01*
X153204206Y-75568362D01*
X153204209Y-75568364D01*
X153300052Y-75632404D01*
X153368803Y-75678342D01*
X153374106Y-75680620D01*
X153374109Y-75680622D01*
X153550680Y-75756483D01*
X153555987Y-75758763D01*
X153628817Y-75775243D01*
X153749055Y-75802450D01*
X153749060Y-75802451D01*
X153754692Y-75803725D01*
X153760463Y-75803952D01*
X153760465Y-75803952D01*
X153823470Y-75806427D01*
X153958263Y-75811723D01*
X154159883Y-75782490D01*
X154165347Y-75780635D01*
X154165352Y-75780634D01*
X154347327Y-75718862D01*
X154347332Y-75718860D01*
X154352799Y-75717004D01*
X154530551Y-75617458D01*
X154687186Y-75487186D01*
X154737222Y-75427024D01*
X154777221Y-75378931D01*
X154836159Y-75339347D01*
X154874095Y-75333500D01*
X156921233Y-75333500D01*
X156932416Y-75334027D01*
X156939909Y-75335702D01*
X156947835Y-75335453D01*
X156947836Y-75335453D01*
X157007986Y-75333562D01*
X157011945Y-75333500D01*
X157039856Y-75333500D01*
X157043791Y-75333003D01*
X157043856Y-75332995D01*
X157055693Y-75332062D01*
X157087951Y-75331048D01*
X157091970Y-75330922D01*
X157099889Y-75330673D01*
X157119343Y-75325021D01*
X157138700Y-75321013D01*
X157150930Y-75319468D01*
X157150931Y-75319468D01*
X157158797Y-75318474D01*
X157166168Y-75315555D01*
X157166170Y-75315555D01*
X157199912Y-75302196D01*
X157211142Y-75298351D01*
X157245983Y-75288229D01*
X157245984Y-75288229D01*
X157253593Y-75286018D01*
X157260412Y-75281985D01*
X157260417Y-75281983D01*
X157271028Y-75275707D01*
X157288776Y-75267012D01*
X157307617Y-75259552D01*
X157318867Y-75251379D01*
X157343387Y-75233564D01*
X157353307Y-75227048D01*
X157384535Y-75208580D01*
X157384538Y-75208578D01*
X157391362Y-75204542D01*
X157405683Y-75190221D01*
X157420717Y-75177380D01*
X157430693Y-75170132D01*
X157437107Y-75165472D01*
X157465288Y-75131407D01*
X157473278Y-75122626D01*
X158047188Y-74548717D01*
X158065458Y-74533603D01*
X158065713Y-74533430D01*
X158065718Y-74533425D01*
X158072271Y-74528972D01*
X158086673Y-74512637D01*
X158109421Y-74486834D01*
X158114840Y-74481065D01*
X158126135Y-74469770D01*
X158135938Y-74457131D01*
X158140963Y-74451056D01*
X158178121Y-74408910D01*
X158181866Y-74401561D01*
X158194566Y-74381549D01*
X158194758Y-74381302D01*
X158194759Y-74381301D01*
X158199614Y-74375041D01*
X158221923Y-74323488D01*
X158225271Y-74316372D01*
X158250786Y-74266296D01*
X158252585Y-74258248D01*
X158259909Y-74235707D01*
X158263181Y-74228145D01*
X158270596Y-74181329D01*
X158271967Y-74172674D01*
X158273450Y-74164901D01*
X158275882Y-74154022D01*
X158285702Y-74110091D01*
X158285443Y-74101857D01*
X158286933Y-74078186D01*
X158286980Y-74077890D01*
X158286980Y-74077885D01*
X158288220Y-74070057D01*
X158285993Y-74046498D01*
X158282936Y-74014153D01*
X158282439Y-74006255D01*
X158281393Y-73972985D01*
X158280674Y-73950111D01*
X158278376Y-73942202D01*
X158273932Y-73918904D01*
X158273903Y-73918601D01*
X158273157Y-73910708D01*
X158270471Y-73903247D01*
X158268743Y-73895517D01*
X158269842Y-73895271D01*
X158264503Y-73864681D01*
X158264503Y-71607067D01*
X158284505Y-71538946D01*
X158338161Y-71492453D01*
X158390503Y-71481067D01*
X158529137Y-71481067D01*
X158591319Y-71474312D01*
X158727708Y-71423182D01*
X158844264Y-71335828D01*
X158931618Y-71219272D01*
X158982748Y-71082883D01*
X158989503Y-71020701D01*
X158989503Y-69224433D01*
X158982748Y-69162251D01*
X158931618Y-69025862D01*
X158844264Y-68909306D01*
X158727708Y-68821952D01*
X158659874Y-68796522D01*
X158609206Y-68777527D01*
X158552442Y-68734885D01*
X158527742Y-68668323D01*
X158542950Y-68598975D01*
X158564496Y-68570294D01*
X158665438Y-68469704D01*
X158669099Y-68466056D01*
X158799456Y-68284644D01*
X158801749Y-68280004D01*
X158803449Y-68277175D01*
X158855677Y-68229085D01*
X158911454Y-68216067D01*
X159067973Y-68216067D01*
X159136094Y-68236069D01*
X159157068Y-68252972D01*
X159429595Y-68525499D01*
X159463621Y-68587811D01*
X159466500Y-68614594D01*
X159466500Y-79585561D01*
X159446498Y-79653682D01*
X159404922Y-79693846D01*
X159395649Y-79699363D01*
X159242478Y-79833690D01*
X159238911Y-79838215D01*
X159238906Y-79838220D01*
X159160831Y-79937259D01*
X159116351Y-79993681D01*
X159021492Y-80173978D01*
X158961078Y-80368543D01*
X158937132Y-80570859D01*
X158950457Y-80774151D01*
X159000605Y-80971610D01*
X159085898Y-81156624D01*
X159203479Y-81322997D01*
X159207613Y-81327024D01*
X159306399Y-81423257D01*
X159349410Y-81465157D01*
X159354206Y-81468362D01*
X159354209Y-81468364D01*
X159422155Y-81513764D01*
X159518803Y-81578342D01*
X159524106Y-81580620D01*
X159524109Y-81580622D01*
X159624064Y-81623566D01*
X159705987Y-81658763D01*
X159778817Y-81675243D01*
X159899055Y-81702450D01*
X159899060Y-81702451D01*
X159904692Y-81703725D01*
X159910463Y-81703952D01*
X159910465Y-81703952D01*
X159973470Y-81706427D01*
X160108263Y-81711723D01*
X160309883Y-81682490D01*
X160315347Y-81680635D01*
X160315352Y-81680634D01*
X160497327Y-81618862D01*
X160497332Y-81618860D01*
X160502799Y-81617004D01*
X160680551Y-81517458D01*
X160759933Y-81451437D01*
X160825095Y-81423257D01*
X160895150Y-81434780D01*
X160947854Y-81482349D01*
X160966500Y-81548312D01*
X160966500Y-84673988D01*
X160946498Y-84742109D01*
X160923579Y-84768718D01*
X160792478Y-84883690D01*
X160788911Y-84888215D01*
X160788906Y-84888220D01*
X160710114Y-84988168D01*
X160666351Y-85043681D01*
X160571492Y-85223978D01*
X160511078Y-85418543D01*
X160487132Y-85620859D01*
X160500457Y-85824151D01*
X160550605Y-86021610D01*
X160635898Y-86206624D01*
X160753479Y-86372997D01*
X160899410Y-86515157D01*
X160904206Y-86518362D01*
X160904209Y-86518364D01*
X160955902Y-86552904D01*
X161068803Y-86628342D01*
X161074106Y-86630620D01*
X161074109Y-86630622D01*
X161163115Y-86668862D01*
X161255987Y-86708763D01*
X161328817Y-86725243D01*
X161449055Y-86752450D01*
X161449060Y-86752451D01*
X161454692Y-86753725D01*
X161460463Y-86753952D01*
X161460465Y-86753952D01*
X161523470Y-86756427D01*
X161658263Y-86761723D01*
X161859883Y-86732490D01*
X161865347Y-86730635D01*
X161865352Y-86730634D01*
X162047327Y-86668862D01*
X162047332Y-86668860D01*
X162052799Y-86667004D01*
X162230551Y-86567458D01*
X162387186Y-86437186D01*
X162517458Y-86280551D01*
X162617004Y-86102799D01*
X162618860Y-86097332D01*
X162618862Y-86097327D01*
X162680634Y-85915352D01*
X162680635Y-85915347D01*
X162682490Y-85909883D01*
X162711723Y-85708263D01*
X162713249Y-85650000D01*
X162694608Y-85447126D01*
X162639307Y-85251047D01*
X162629662Y-85231487D01*
X162551756Y-85073510D01*
X162549201Y-85068329D01*
X162530796Y-85043681D01*
X162430758Y-84909715D01*
X162430758Y-84909714D01*
X162427305Y-84905091D01*
X162277703Y-84766800D01*
X162278681Y-84765742D01*
X162240926Y-84714029D01*
X162233500Y-84671411D01*
X162233500Y-67030044D01*
X162253502Y-66961923D01*
X162307158Y-66915430D01*
X162377432Y-66905326D01*
X162440322Y-66933381D01*
X162598911Y-67065981D01*
X162607749Y-67073371D01*
X162851288Y-67226144D01*
X163113308Y-67344450D01*
X163182553Y-67364961D01*
X163384847Y-67424884D01*
X163384852Y-67424885D01*
X163388960Y-67426102D01*
X163393194Y-67426750D01*
X163393199Y-67426751D01*
X163641801Y-67464792D01*
X163673143Y-67469588D01*
X163819475Y-67471887D01*
X163956307Y-67474037D01*
X163956313Y-67474037D01*
X163960598Y-67474104D01*
X163964850Y-67473589D01*
X163964858Y-67473589D01*
X164241746Y-67440081D01*
X164241751Y-67440080D01*
X164246007Y-67439565D01*
X164342592Y-67414226D01*
X164519944Y-67367699D01*
X164519945Y-67367699D01*
X164524087Y-67366612D01*
X164789694Y-67256594D01*
X165010470Y-67127583D01*
X165034209Y-67113711D01*
X165034210Y-67113710D01*
X165037912Y-67111547D01*
X165264149Y-66934155D01*
X165270467Y-66927636D01*
X165461234Y-66730779D01*
X165464217Y-66727701D01*
X165466750Y-66724253D01*
X165466754Y-66724248D01*
X165631877Y-66499459D01*
X165634415Y-66496004D01*
X165659194Y-66450367D01*
X165769544Y-66247128D01*
X165769545Y-66247126D01*
X165771594Y-66243352D01*
X165858789Y-66012598D01*
X165871697Y-65978439D01*
X165871698Y-65978435D01*
X165873215Y-65974421D01*
X165904771Y-65836641D01*
X165936439Y-65698370D01*
X165936440Y-65698366D01*
X165937397Y-65694186D01*
X165937853Y-65689085D01*
X165962733Y-65410299D01*
X165962733Y-65410297D01*
X165962953Y-65407833D01*
X165963417Y-65363573D01*
X165960276Y-65317499D01*
X165944155Y-65081025D01*
X165944154Y-65081019D01*
X165943863Y-65076748D01*
X165939326Y-65054837D01*
X165886433Y-64799428D01*
X165885564Y-64795231D01*
X165789597Y-64524230D01*
X165694886Y-64340731D01*
X165659705Y-64272568D01*
X165659705Y-64272567D01*
X165657740Y-64268761D01*
X165644478Y-64249890D01*
X165575086Y-64151156D01*
X165492431Y-64033550D01*
X165361061Y-63892179D01*
X165299651Y-63826094D01*
X165299648Y-63826092D01*
X165296730Y-63822951D01*
X165074258Y-63640860D01*
X164829132Y-63490646D01*
X164811038Y-63482703D01*
X164569820Y-63376816D01*
X164565888Y-63375090D01*
X164539953Y-63367702D01*
X164293524Y-63297505D01*
X164293525Y-63297505D01*
X164289396Y-63296329D01*
X164076694Y-63266058D01*
X164009026Y-63256427D01*
X164009024Y-63256427D01*
X164004774Y-63255822D01*
X164000485Y-63255800D01*
X164000478Y-63255799D01*
X163721573Y-63254338D01*
X163721566Y-63254338D01*
X163717287Y-63254316D01*
X163713043Y-63254875D01*
X163713039Y-63254875D01*
X163587650Y-63271383D01*
X163432256Y-63291841D01*
X163428116Y-63292974D01*
X163428114Y-63292974D01*
X163351301Y-63313988D01*
X163154954Y-63367702D01*
X163151006Y-63369386D01*
X162894466Y-63478810D01*
X162894462Y-63478812D01*
X162890514Y-63480496D01*
X162765950Y-63555046D01*
X162647511Y-63625930D01*
X162647507Y-63625933D01*
X162643829Y-63628134D01*
X162419462Y-63807886D01*
X162221567Y-64016424D01*
X162200589Y-64045618D01*
X162081862Y-64210844D01*
X162053804Y-64249890D01*
X161919278Y-64503965D01*
X161820479Y-64773946D01*
X161759235Y-65054837D01*
X161736679Y-65341442D01*
X161753228Y-65628456D01*
X161754055Y-65632669D01*
X161754592Y-65636924D01*
X161753427Y-65637071D01*
X161747397Y-65702596D01*
X161703702Y-65758553D01*
X161636690Y-65782004D01*
X161567638Y-65765503D01*
X161541168Y-65745263D01*
X160446219Y-64650314D01*
X160438679Y-64642028D01*
X160434567Y-64635549D01*
X160384915Y-64588923D01*
X160382074Y-64586169D01*
X160362337Y-64566432D01*
X160359140Y-64563952D01*
X160350118Y-64556247D01*
X160317888Y-64525981D01*
X160310942Y-64522162D01*
X160310939Y-64522160D01*
X160300133Y-64516219D01*
X160283614Y-64505368D01*
X160276910Y-64500168D01*
X160267608Y-64492953D01*
X160260339Y-64489808D01*
X160260335Y-64489805D01*
X160227030Y-64475393D01*
X160216380Y-64470176D01*
X160177627Y-64448872D01*
X160158004Y-64443834D01*
X160139301Y-64437430D01*
X160127987Y-64432534D01*
X160127986Y-64432534D01*
X160120712Y-64429386D01*
X160112889Y-64428147D01*
X160112879Y-64428144D01*
X160077043Y-64422468D01*
X160065423Y-64420062D01*
X160030278Y-64411039D01*
X160030277Y-64411039D01*
X160022597Y-64409067D01*
X160002343Y-64409067D01*
X159982632Y-64407516D01*
X159970453Y-64405587D01*
X159962624Y-64404347D01*
X159954732Y-64405093D01*
X159918606Y-64408508D01*
X159906748Y-64409067D01*
X158907808Y-64409067D01*
X158839687Y-64389065D01*
X158802016Y-64351507D01*
X158713825Y-64215184D01*
X158713823Y-64215181D01*
X158711017Y-64210844D01*
X158560673Y-64045618D01*
X158556622Y-64042419D01*
X158556618Y-64042415D01*
X158389417Y-63910367D01*
X158389413Y-63910365D01*
X158385362Y-63907165D01*
X158189792Y-63799205D01*
X158184923Y-63797481D01*
X158184919Y-63797479D01*
X157984090Y-63726362D01*
X157984086Y-63726361D01*
X157979215Y-63724636D01*
X157974122Y-63723729D01*
X157974119Y-63723728D01*
X157764376Y-63686367D01*
X157764370Y-63686366D01*
X157759287Y-63685461D01*
X157685455Y-63684559D01*
X157541084Y-63682795D01*
X157541082Y-63682795D01*
X157535914Y-63682732D01*
X157315094Y-63716522D01*
X157102759Y-63785924D01*
X156904610Y-63889074D01*
X156900477Y-63892177D01*
X156900474Y-63892179D01*
X156734995Y-64016424D01*
X156725968Y-64023202D01*
X156571632Y-64184705D01*
X156464204Y-64342188D01*
X156409296Y-64387188D01*
X156338771Y-64395359D01*
X156275024Y-64364105D01*
X156254327Y-64339621D01*
X156173825Y-64215184D01*
X156173823Y-64215181D01*
X156171017Y-64210844D01*
X156020673Y-64045618D01*
X156016622Y-64042419D01*
X156016618Y-64042415D01*
X155849417Y-63910367D01*
X155849413Y-63910365D01*
X155845362Y-63907165D01*
X155649792Y-63799205D01*
X155644923Y-63797481D01*
X155644919Y-63797479D01*
X155444090Y-63726362D01*
X155444086Y-63726361D01*
X155439215Y-63724636D01*
X155434122Y-63723729D01*
X155434119Y-63723728D01*
X155224376Y-63686367D01*
X155224370Y-63686366D01*
X155219287Y-63685461D01*
X155145455Y-63684559D01*
X155001084Y-63682795D01*
X155001082Y-63682795D01*
X154995914Y-63682732D01*
X154775094Y-63716522D01*
X154562759Y-63785924D01*
X154364610Y-63889074D01*
X154360477Y-63892177D01*
X154360474Y-63892179D01*
X154194995Y-64016424D01*
X154185968Y-64023202D01*
X154031632Y-64184705D01*
X154028718Y-64188977D01*
X154004095Y-64225072D01*
X153949183Y-64270074D01*
X153900007Y-64280067D01*
X153378389Y-64280067D01*
X153359439Y-64278634D01*
X153345040Y-64276443D01*
X153345034Y-64276443D01*
X153337805Y-64275343D01*
X153330513Y-64275936D01*
X153330510Y-64275936D01*
X153284830Y-64279652D01*
X153274615Y-64280067D01*
X153266488Y-64280067D01*
X153262852Y-64280491D01*
X153262850Y-64280491D01*
X153261564Y-64280641D01*
X153238089Y-64283378D01*
X153233769Y-64283805D01*
X153160587Y-64289758D01*
X153153625Y-64292014D01*
X153147637Y-64293210D01*
X153141680Y-64294618D01*
X153134406Y-64295466D01*
X153127524Y-64297964D01*
X153127520Y-64297965D01*
X153065406Y-64320512D01*
X153061302Y-64321922D01*
X152991438Y-64344554D01*
X152985175Y-64348354D01*
X152979633Y-64350892D01*
X152974157Y-64353634D01*
X152967272Y-64356133D01*
X152961148Y-64360148D01*
X152905881Y-64396382D01*
X152902213Y-64398697D01*
X152839432Y-64436794D01*
X152835227Y-64440508D01*
X152835224Y-64440510D01*
X152831008Y-64444234D01*
X152830982Y-64444205D01*
X152828051Y-64446805D01*
X152824697Y-64449609D01*
X152818578Y-64453621D01*
X152813546Y-64458933D01*
X152765025Y-64510153D01*
X152762647Y-64512595D01*
X151964484Y-65310758D01*
X151950071Y-65323145D01*
X151932448Y-65336114D01*
X151927704Y-65341697D01*
X151927705Y-65341697D01*
X151898033Y-65376623D01*
X151891103Y-65384139D01*
X151885359Y-65389883D01*
X151883085Y-65392757D01*
X151883079Y-65392764D01*
X151867640Y-65412279D01*
X151864849Y-65415683D01*
X151822067Y-65466040D01*
X151822064Y-65466044D01*
X151817328Y-65471619D01*
X151814000Y-65478136D01*
X151810623Y-65483200D01*
X151807396Y-65488424D01*
X151802852Y-65494168D01*
X151799753Y-65500799D01*
X151771780Y-65560650D01*
X151769849Y-65564601D01*
X151736469Y-65629972D01*
X151734728Y-65637087D01*
X151732591Y-65642833D01*
X151730667Y-65648616D01*
X151727568Y-65655247D01*
X151715562Y-65712972D01*
X151712620Y-65727115D01*
X151711651Y-65731397D01*
X151694208Y-65802680D01*
X151693512Y-65813898D01*
X151693473Y-65813896D01*
X151693240Y-65817797D01*
X151692851Y-65822156D01*
X151691360Y-65829324D01*
X151691558Y-65836641D01*
X151693466Y-65907145D01*
X151693512Y-65910554D01*
X151693512Y-73575960D01*
X151673510Y-73644081D01*
X151656607Y-73665055D01*
X150008472Y-75313190D01*
X149994059Y-75325577D01*
X149976436Y-75338546D01*
X149971692Y-75344129D01*
X149971693Y-75344129D01*
X149942021Y-75379055D01*
X149935091Y-75386571D01*
X149929347Y-75392315D01*
X149927073Y-75395189D01*
X149927067Y-75395196D01*
X149911628Y-75414711D01*
X149908837Y-75418115D01*
X149866055Y-75468472D01*
X149866052Y-75468476D01*
X149861316Y-75474051D01*
X149857988Y-75480568D01*
X149854611Y-75485632D01*
X149851384Y-75490856D01*
X149846840Y-75496600D01*
X149843741Y-75503231D01*
X149815768Y-75563082D01*
X149813837Y-75567033D01*
X149809424Y-75575675D01*
X149780457Y-75632404D01*
X149778716Y-75639519D01*
X149776579Y-75645265D01*
X149774655Y-75651048D01*
X149771556Y-75657679D01*
X149762643Y-75700534D01*
X149756608Y-75729547D01*
X149755639Y-75733829D01*
X149738196Y-75805112D01*
X149737500Y-75816330D01*
X149737461Y-75816328D01*
X149737228Y-75820229D01*
X149736839Y-75824588D01*
X149735348Y-75831756D01*
X149735546Y-75839073D01*
X149737454Y-75909577D01*
X149737500Y-75912986D01*
X149737500Y-76920933D01*
X149717498Y-76989054D01*
X149683772Y-77024145D01*
X149675211Y-77030140D01*
X149655700Y-77043802D01*
X149493802Y-77205700D01*
X149490645Y-77210208D01*
X149490643Y-77210211D01*
X149435902Y-77288389D01*
X149362477Y-77393251D01*
X149360154Y-77398233D01*
X149360151Y-77398238D01*
X149279882Y-77570377D01*
X149265716Y-77600757D01*
X149206457Y-77821913D01*
X149186502Y-78050000D01*
X148543048Y-78050000D01*
X148543151Y-78045767D01*
X148524847Y-77823128D01*
X148470426Y-77606469D01*
X148381349Y-77401607D01*
X148260009Y-77214044D01*
X148256527Y-77210217D01*
X148112793Y-77052255D01*
X148081741Y-76988409D01*
X148090136Y-76917910D01*
X148135312Y-76863142D01*
X148161756Y-76849473D01*
X148268292Y-76809534D01*
X148276700Y-76806382D01*
X148393256Y-76719028D01*
X148480610Y-76602472D01*
X148531740Y-76466083D01*
X148538495Y-76403901D01*
X148538495Y-74607633D01*
X148531740Y-74545451D01*
X148480610Y-74409062D01*
X148393256Y-74292506D01*
X148276700Y-74205152D01*
X148140311Y-74154022D01*
X148078129Y-74147267D01*
X146281861Y-74147267D01*
X146219679Y-74154022D01*
X146083290Y-74205152D01*
X145966734Y-74292506D01*
X145879380Y-74409062D01*
X145828250Y-74545451D01*
X145821495Y-74607633D01*
X145821495Y-76403901D01*
X145828250Y-76466083D01*
X145879380Y-76602472D01*
X145966734Y-76719028D01*
X146083290Y-76806382D01*
X146091699Y-76809534D01*
X146091700Y-76809535D01*
X146200446Y-76850302D01*
X146257211Y-76892943D01*
X146281911Y-76959505D01*
X146266704Y-77028854D01*
X146247311Y-77055335D01*
X146120624Y-77187905D01*
X145994738Y-77372447D01*
X145900683Y-77575072D01*
X145840984Y-77790337D01*
X145817246Y-78012462D01*
X145817543Y-78017615D01*
X145817543Y-78017618D01*
X145823006Y-78112357D01*
X145830105Y-78235482D01*
X145831242Y-78240528D01*
X145831243Y-78240534D01*
X145840904Y-78283402D01*
X145879217Y-78453406D01*
X145963261Y-78660383D01*
X146079982Y-78850855D01*
X146226245Y-79019705D01*
X146398121Y-79162399D01*
X146441116Y-79187523D01*
X146471440Y-79205243D01*
X146520164Y-79256881D01*
X146533235Y-79326664D01*
X146506504Y-79392436D01*
X146466050Y-79425794D01*
X146453602Y-79432274D01*
X146449469Y-79435377D01*
X146449466Y-79435379D01*
X146394786Y-79476434D01*
X146274960Y-79566402D01*
X146271388Y-79570140D01*
X146150718Y-79696414D01*
X146120624Y-79727905D01*
X146117710Y-79732177D01*
X146117709Y-79732178D01*
X146051951Y-79828576D01*
X145994738Y-79912447D01*
X145900683Y-80115072D01*
X145840984Y-80330337D01*
X145817246Y-80552462D01*
X145330002Y-80552462D01*
X145330002Y-65341442D01*
X146758680Y-65341442D01*
X146775229Y-65628456D01*
X146776054Y-65632661D01*
X146776055Y-65632669D01*
X146798211Y-65745595D01*
X146830577Y-65910568D01*
X146831964Y-65914618D01*
X146831965Y-65914623D01*
X146921627Y-66176501D01*
X146923701Y-66182559D01*
X146939244Y-66213463D01*
X147046484Y-66426685D01*
X147052876Y-66439395D01*
X147215712Y-66676323D01*
X147218599Y-66679496D01*
X147218600Y-66679497D01*
X147256623Y-66721284D01*
X147409197Y-66888961D01*
X147412492Y-66891716D01*
X147412493Y-66891717D01*
X147620912Y-67065981D01*
X147629750Y-67073371D01*
X147873289Y-67226144D01*
X148135309Y-67344450D01*
X148204554Y-67364961D01*
X148406848Y-67424884D01*
X148406853Y-67424885D01*
X148410961Y-67426102D01*
X148415195Y-67426750D01*
X148415200Y-67426751D01*
X148663802Y-67464792D01*
X148695144Y-67469588D01*
X148841476Y-67471887D01*
X148978308Y-67474037D01*
X148978314Y-67474037D01*
X148982599Y-67474104D01*
X148986851Y-67473589D01*
X148986859Y-67473589D01*
X149263747Y-67440081D01*
X149263752Y-67440080D01*
X149268008Y-67439565D01*
X149364593Y-67414226D01*
X149541945Y-67367699D01*
X149541946Y-67367699D01*
X149546088Y-67366612D01*
X149811695Y-67256594D01*
X150032471Y-67127583D01*
X150056210Y-67113711D01*
X150056211Y-67113710D01*
X150059913Y-67111547D01*
X150286150Y-66934155D01*
X150292468Y-66927636D01*
X150483235Y-66730779D01*
X150486218Y-66727701D01*
X150488751Y-66724253D01*
X150488755Y-66724248D01*
X150653878Y-66499459D01*
X150656416Y-66496004D01*
X150681195Y-66450367D01*
X150791545Y-66247128D01*
X150791546Y-66247126D01*
X150793595Y-66243352D01*
X150880790Y-66012598D01*
X150893698Y-65978439D01*
X150893699Y-65978435D01*
X150895216Y-65974421D01*
X150926772Y-65836641D01*
X150958440Y-65698370D01*
X150958441Y-65698366D01*
X150959398Y-65694186D01*
X150959854Y-65689085D01*
X150984734Y-65410299D01*
X150984734Y-65410297D01*
X150984954Y-65407833D01*
X150985418Y-65363573D01*
X150982277Y-65317499D01*
X150966156Y-65081025D01*
X150966155Y-65081019D01*
X150965864Y-65076748D01*
X150961327Y-65054837D01*
X150908434Y-64799428D01*
X150907565Y-64795231D01*
X150811598Y-64524230D01*
X150716887Y-64340731D01*
X150681706Y-64272568D01*
X150681706Y-64272567D01*
X150679741Y-64268761D01*
X150666479Y-64249890D01*
X150597087Y-64151156D01*
X150514432Y-64033550D01*
X150383062Y-63892179D01*
X150321652Y-63826094D01*
X150321649Y-63826092D01*
X150318731Y-63822951D01*
X150096259Y-63640860D01*
X149851133Y-63490646D01*
X149833039Y-63482703D01*
X149591821Y-63376816D01*
X149587889Y-63375090D01*
X149561954Y-63367702D01*
X149315525Y-63297505D01*
X149315526Y-63297505D01*
X149311397Y-63296329D01*
X149098695Y-63266058D01*
X149031027Y-63256427D01*
X149031025Y-63256427D01*
X149026775Y-63255822D01*
X149022486Y-63255800D01*
X149022479Y-63255799D01*
X148743574Y-63254338D01*
X148743567Y-63254338D01*
X148739288Y-63254316D01*
X148735044Y-63254875D01*
X148735040Y-63254875D01*
X148609651Y-63271383D01*
X148454257Y-63291841D01*
X148450117Y-63292974D01*
X148450115Y-63292974D01*
X148373302Y-63313988D01*
X148176955Y-63367702D01*
X148173007Y-63369386D01*
X147916467Y-63478810D01*
X147916463Y-63478812D01*
X147912515Y-63480496D01*
X147787951Y-63555046D01*
X147669512Y-63625930D01*
X147669508Y-63625933D01*
X147665830Y-63628134D01*
X147441463Y-63807886D01*
X147243568Y-64016424D01*
X147222590Y-64045618D01*
X147103863Y-64210844D01*
X147075805Y-64249890D01*
X146941279Y-64503965D01*
X146842480Y-64773946D01*
X146781236Y-65054837D01*
X146758680Y-65341442D01*
X145330002Y-65341442D01*
X145330002Y-64364808D01*
X145331502Y-64345423D01*
X145333807Y-64330622D01*
X145333807Y-64330619D01*
X145335188Y-64321750D01*
X145332943Y-64304581D01*
X145332110Y-64280641D01*
X145347712Y-64022710D01*
X145349546Y-64007606D01*
X145383385Y-63822951D01*
X145401042Y-63726601D01*
X145404681Y-63711833D01*
X145413506Y-63683515D01*
X145489677Y-63439072D01*
X145495072Y-63424850D01*
X145612318Y-63164340D01*
X145619387Y-63150871D01*
X145767184Y-62906385D01*
X145775827Y-62893863D01*
X145952018Y-62668973D01*
X145962108Y-62657585D01*
X146164107Y-62455586D01*
X146175495Y-62445496D01*
X146400385Y-62269305D01*
X146412907Y-62260662D01*
X146657393Y-62112865D01*
X146670862Y-62105796D01*
X146931375Y-61988549D01*
X146945594Y-61983155D01*
X147218361Y-61898158D01*
X147233123Y-61894520D01*
X147443354Y-61855994D01*
X147514128Y-61843024D01*
X147529232Y-61841190D01*
X147779931Y-61826025D01*
X147806641Y-61827282D01*
X147806861Y-61827285D01*
X147815732Y-61828666D01*
X147824634Y-61827502D01*
X147824637Y-61827502D01*
X147847253Y-61824544D01*
X147863591Y-61823480D01*
X164850672Y-61823480D01*
X164870057Y-61824980D01*
G37*
%TD.AperFunction*%
%TA.AperFunction,Conductor*%
G36*
X153964666Y-65825069D02*
G01*
X153991782Y-65848570D01*
X154104279Y-65978439D01*
X154137253Y-66016505D01*
X154309129Y-66159199D01*
X154338738Y-66176501D01*
X154382958Y-66202341D01*
X154431682Y-66253979D01*
X154444753Y-66323762D01*
X154418022Y-66389534D01*
X154377565Y-66422894D01*
X154369460Y-66427113D01*
X154360741Y-66432603D01*
X154190436Y-66560472D01*
X154182729Y-66567315D01*
X154035593Y-66721284D01*
X154029107Y-66729294D01*
X153909101Y-66905216D01*
X153904003Y-66914190D01*
X153814341Y-67107350D01*
X153810778Y-67117037D01*
X153755392Y-67316750D01*
X153756915Y-67325174D01*
X153769295Y-67328567D01*
X155219003Y-67328567D01*
X155287124Y-67348569D01*
X155333617Y-67402225D01*
X155345003Y-67454567D01*
X155345003Y-67710567D01*
X155325001Y-67778688D01*
X155271345Y-67825181D01*
X155219003Y-67836567D01*
X153774228Y-67836567D01*
X153760697Y-67840540D01*
X153759260Y-67850533D01*
X153789568Y-67985013D01*
X153792648Y-67994842D01*
X153872773Y-68192170D01*
X153877416Y-68201361D01*
X153988697Y-68382955D01*
X153994780Y-68391266D01*
X154134216Y-68552234D01*
X154141583Y-68559450D01*
X154305437Y-68695483D01*
X154313884Y-68701398D01*
X154382972Y-68741770D01*
X154431696Y-68793409D01*
X154444767Y-68863192D01*
X154418036Y-68928963D01*
X154377587Y-68962319D01*
X154364610Y-68969074D01*
X154360477Y-68972177D01*
X154360474Y-68972179D01*
X154190103Y-69100097D01*
X154185968Y-69103202D01*
X154146528Y-69144474D01*
X154092283Y-69201238D01*
X154031632Y-69264705D01*
X153905746Y-69449247D01*
X153811691Y-69651872D01*
X153751992Y-69867137D01*
X153728254Y-70089262D01*
X153741113Y-70312282D01*
X153742250Y-70317328D01*
X153742251Y-70317334D01*
X153766307Y-70424075D01*
X153790225Y-70530206D01*
X153874269Y-70737183D01*
X153990990Y-70927655D01*
X154137253Y-71096505D01*
X154309129Y-71239199D01*
X154313596Y-71241809D01*
X154395073Y-71289420D01*
X154443797Y-71341058D01*
X154457503Y-71398208D01*
X154457503Y-71884718D01*
X154437501Y-71952839D01*
X154414580Y-71979450D01*
X154298490Y-72081258D01*
X154294923Y-72085783D01*
X154294918Y-72085788D01*
X154208343Y-72195608D01*
X154172363Y-72241249D01*
X154077504Y-72421546D01*
X154017090Y-72616111D01*
X153993144Y-72818427D01*
X154006469Y-73021719D01*
X154056617Y-73219178D01*
X154141910Y-73404192D01*
X154143538Y-73406495D01*
X154160048Y-73474556D01*
X154136827Y-73541648D01*
X154081020Y-73585535D01*
X154021303Y-73593831D01*
X154016366Y-73592849D01*
X154010591Y-73592773D01*
X154010587Y-73592773D01*
X153909118Y-73591445D01*
X153812655Y-73590183D01*
X153806958Y-73591162D01*
X153806957Y-73591162D01*
X153790831Y-73593933D01*
X153611870Y-73624684D01*
X153420734Y-73695198D01*
X153408936Y-73702217D01*
X153340167Y-73719858D01*
X153272777Y-73697519D01*
X153228162Y-73642292D01*
X153218512Y-73593933D01*
X153218512Y-66265596D01*
X153238514Y-66197475D01*
X153255417Y-66176501D01*
X153589946Y-65841972D01*
X153652258Y-65807946D01*
X153679041Y-65805067D01*
X153896545Y-65805067D01*
X153964666Y-65825069D01*
G37*
%TD.AperFunction*%
%TD*%
M02*
