M48
; DRILL file {KiCad (6.0.0)} date Sun Mar 13 20:35:38 2022
; FORMAT={-:-/ absolute / inch / decimal}
; #@! TF.CreationDate,2022-03-13T20:35:38-04:00
; #@! TF.GenerationSoftware,Kicad,Pcbnew,(6.0.0)
; #@! TF.FileFunction,Plated,1,2,PTH
FMAT,2
INCH
; #@! TA.AperFunction,Plated,PTH,ViaDrill
T1C0.0236
; #@! TA.AperFunction,Plated,PTH,ComponentDrill
T2C0.0315
; #@! TA.AperFunction,Plated,PTH,ComponentDrill
T3C0.0394
; #@! TA.AperFunction,Plated,PTH,ComponentDrill
T4C0.1260
%
G90
G05
T1
X5.9708Y-3.3221
X5.9708Y-3.2221
X6.3148Y-3.4221
X6.3823Y-3.2221
X6.3823Y-3.2972
X6.3823Y-3.3727
T2
X5.7975Y-2.8031
X5.8959Y-2.8031
T3
X5.7945Y-2.9727
X5.7945Y-3.0727
X5.7945Y-3.1727
X5.7945Y-3.2727
X5.7945Y-3.3727
X5.7945Y-3.4727
X5.7945Y-3.5727
X5.7945Y-3.6727
X6.1059Y-3.2221
X6.1059Y-3.3221
X6.1059Y-3.4221
X6.2059Y-3.2221
X6.2059Y-3.3221
X6.2059Y-3.4221
X6.5174Y-2.9727
X6.5174Y-3.0727
X6.5174Y-3.1727
X6.5174Y-3.2727
X6.5174Y-3.3727
X6.5174Y-3.4727
X6.5174Y-3.5727
X6.5174Y-3.6727
T4
X5.8611Y-2.5734
X5.8611Y-4.0709
X6.4508Y-2.5734
X6.4508Y-4.0709
T0
M30
