M48
; DRILL file {KiCad (6.0.0)} date Fri Apr 15 02:42:47 2022
; FORMAT={-:-/ absolute / inch / decimal}
; #@! TF.CreationDate,2022-04-15T02:42:47-04:00
; #@! TF.GenerationSoftware,Kicad,Pcbnew,(6.0.0)
; #@! TF.FileFunction,Plated,1,2,PTH
FMAT,2
INCH
; #@! TA.AperFunction,Plated,PTH,ComponentDrill
T1C0.0315
; #@! TA.AperFunction,Plated,PTH,ComponentDrill
T2C0.0394
; #@! TA.AperFunction,Plated,PTH,ComponentDrill
T3C0.1260
%
G90
G05
T1
X4.0199Y-2.2055
X4.1183Y-2.2055
T2
X4.0268Y-2.3416
X4.0268Y-2.4416
X4.0268Y-2.5416
X4.0268Y-2.6416
X4.0268Y-2.7416
X4.0268Y-2.8416
X4.0268Y-2.9416
X4.0268Y-3.0416
X4.3382Y-1.9297
X4.3382Y-2.0297
X4.3382Y-2.1297
X4.4382Y-1.9297
X4.4382Y-2.0297
X4.4382Y-2.1297
X4.7497Y-2.3416
X4.7497Y-2.4416
X4.7497Y-2.5416
X4.7497Y-2.6416
X4.7497Y-2.7416
X4.7497Y-2.8416
X4.7497Y-2.9416
X4.7497Y-3.0416
T3
X4.0934Y-1.9423
X4.0934Y-3.4398
X4.6831Y-1.9423
X4.6831Y-3.4398
T0
M30
