%TF.GenerationSoftware,KiCad,Pcbnew,(6.0.0)*%
%TF.CreationDate,2022-05-30T13:25:02-04:00*%
%TF.ProjectId,JTAG_ISP-ISP,4a544147-5f49-4535-902d-4953502e6b69,v6.0.0*%
%TF.SameCoordinates,Original*%
%TF.FileFunction,Profile,NP*%
%FSLAX46Y46*%
G04 Gerber Fmt 4.6, Leading zero omitted, Abs format (unit mm)*
G04 Created by KiCad (PCBNEW (6.0.0)) date 2022-05-30 13:25:02*
%MOMM*%
%LPD*%
G01*
G04 APERTURE LIST*
%TA.AperFunction,Profile*%
%ADD10C,0.150000*%
%TD*%
G04 APERTURE END LIST*
D10*
X114110994Y-88771812D02*
G75*
G03*
X111460994Y-86121812I-2650000J0D01*
G01*
X110152868Y-57170625D02*
G75*
G03*
X109152868Y-58170625I-1J-999999D01*
G01*
X123000013Y-88421801D02*
X123000013Y-48287281D01*
X107811005Y-91421801D02*
G75*
G03*
X108811005Y-90421801I1J999999D01*
G01*
X102922015Y-45287281D02*
G75*
G03*
X99922015Y-48287281I1J-3000001D01*
G01*
X120000010Y-91421801D02*
X115110994Y-91421801D01*
X113768861Y-58170625D02*
G75*
G03*
X112768861Y-57170625I-999999J1D01*
G01*
X120000013Y-45287281D02*
X102922015Y-45287281D01*
X107811005Y-91421801D02*
X102922015Y-91421801D01*
X109152868Y-78579292D02*
X109152868Y-58170625D01*
X99922015Y-48287281D02*
X99922015Y-88421801D01*
X113768861Y-58170625D02*
X113768861Y-78579292D01*
X111461005Y-86121812D02*
G75*
G03*
X108811005Y-88771812I0J-2650000D01*
G01*
X114110994Y-90421801D02*
X114110994Y-88771812D01*
X110152868Y-57170625D02*
X112768861Y-57170625D01*
X99922015Y-88421801D02*
G75*
G03*
X102922015Y-91421801I3000001J1D01*
G01*
X108811005Y-88771812D02*
X108811005Y-90421801D01*
X114110994Y-90421801D02*
G75*
G03*
X115110994Y-91421801I999999J-1D01*
G01*
X112768861Y-79579292D02*
G75*
G03*
X113768861Y-78579292I1J999999D01*
G01*
X112768861Y-79579292D02*
X110152868Y-79579292D01*
X120000013Y-91421801D02*
G75*
G03*
X123000013Y-88421801I-1J3000001D01*
G01*
X109152868Y-78579292D02*
G75*
G03*
X110152868Y-79579292I999999J-1D01*
G01*
X123000013Y-48287281D02*
G75*
G03*
X120000013Y-45287281I-3000001J-1D01*
G01*
M02*
