%TF.GenerationSoftware,KiCad,Pcbnew,(6.0.0)*%
%TF.CreationDate,2022-05-30T13:25:02-04:00*%
%TF.ProjectId,JTAG_ISP-ISP,4a544147-5f49-4535-902d-4953502e6b69,v6.0.0*%
%TF.SameCoordinates,Original*%
%TF.FileFunction,Legend,Top*%
%TF.FilePolarity,Positive*%
%FSLAX46Y46*%
G04 Gerber Fmt 4.6, Leading zero omitted, Abs format (unit mm)*
G04 Created by KiCad (PCBNEW (6.0.0)) date 2022-05-30 13:25:02*
%MOMM*%
%LPD*%
G01*
G04 APERTURE LIST*
%ADD10C,0.150000*%
%ADD11C,0.190500*%
%ADD12C,0.300000*%
%ADD13C,0.508000*%
G04 APERTURE END LIST*
D10*
X108898868Y-78833292D02*
X108898868Y-57916625D01*
X114022861Y-57916625D02*
G75*
G03*
X113022861Y-56916625I-999999J1D01*
G01*
X108898868Y-78833292D02*
G75*
G03*
X109898868Y-79833292I999999J-1D01*
G01*
X113022861Y-79833292D02*
X109898868Y-79833292D01*
X109898868Y-56916625D02*
G75*
G03*
X108898868Y-57916625I-1J-999999D01*
G01*
X114022861Y-57916625D02*
X114022861Y-78833292D01*
X109898868Y-56916625D02*
X113022861Y-56916625D01*
X113022861Y-79833292D02*
G75*
G03*
X114022861Y-78833292I1J999999D01*
G01*
D11*
X106208097Y-81275736D02*
X106861240Y-81275736D01*
X106534668Y-82418736D02*
X106534668Y-81275736D01*
X107242240Y-82309879D02*
X107296668Y-82364307D01*
X107242240Y-82418736D01*
X107187811Y-82364307D01*
X107242240Y-82309879D01*
X107242240Y-82418736D01*
X107786526Y-82418736D02*
X107786526Y-81275736D01*
X108058668Y-81275736D01*
X108221954Y-81330165D01*
X108330811Y-81439022D01*
X108385240Y-81547879D01*
X108439668Y-81765593D01*
X108439668Y-81928879D01*
X108385240Y-82146593D01*
X108330811Y-82255450D01*
X108221954Y-82364307D01*
X108058668Y-82418736D01*
X107786526Y-82418736D01*
X108929526Y-82309879D02*
X108983954Y-82364307D01*
X108929526Y-82418736D01*
X108875097Y-82364307D01*
X108929526Y-82309879D01*
X108929526Y-82418736D01*
X110344668Y-81983307D02*
X111215526Y-81983307D01*
X113120526Y-81275736D02*
X112902811Y-81275736D01*
X112793954Y-81330165D01*
X112739526Y-81384593D01*
X112630668Y-81547879D01*
X112576240Y-81765593D01*
X112576240Y-82201022D01*
X112630668Y-82309879D01*
X112685097Y-82364307D01*
X112793954Y-82418736D01*
X113011668Y-82418736D01*
X113120526Y-82364307D01*
X113174954Y-82309879D01*
X113229383Y-82201022D01*
X113229383Y-81928879D01*
X113174954Y-81820022D01*
X113120526Y-81765593D01*
X113011668Y-81711165D01*
X112793954Y-81711165D01*
X112685097Y-81765593D01*
X112630668Y-81820022D01*
X112576240Y-81928879D01*
X113719240Y-82309879D02*
X113773668Y-82364307D01*
X113719240Y-82418736D01*
X113664811Y-82364307D01*
X113719240Y-82309879D01*
X113719240Y-82418736D01*
X114481240Y-81275736D02*
X114590097Y-81275736D01*
X114698954Y-81330165D01*
X114753383Y-81384593D01*
X114807811Y-81493450D01*
X114862240Y-81711165D01*
X114862240Y-81983307D01*
X114807811Y-82201022D01*
X114753383Y-82309879D01*
X114698954Y-82364307D01*
X114590097Y-82418736D01*
X114481240Y-82418736D01*
X114372383Y-82364307D01*
X114317954Y-82309879D01*
X114263526Y-82201022D01*
X114209097Y-81983307D01*
X114209097Y-81711165D01*
X114263526Y-81493450D01*
X114317954Y-81384593D01*
X114372383Y-81330165D01*
X114481240Y-81275736D01*
X115352097Y-82309879D02*
X115406526Y-82364307D01*
X115352097Y-82418736D01*
X115297668Y-82364307D01*
X115352097Y-82309879D01*
X115352097Y-82418736D01*
X116114097Y-81275736D02*
X116222954Y-81275736D01*
X116331811Y-81330165D01*
X116386240Y-81384593D01*
X116440668Y-81493450D01*
X116495097Y-81711165D01*
X116495097Y-81983307D01*
X116440668Y-82201022D01*
X116386240Y-82309879D01*
X116331811Y-82364307D01*
X116222954Y-82418736D01*
X116114097Y-82418736D01*
X116005240Y-82364307D01*
X115950811Y-82309879D01*
X115896383Y-82201022D01*
X115841954Y-81983307D01*
X115841954Y-81711165D01*
X115896383Y-81493450D01*
X115950811Y-81384593D01*
X116005240Y-81330165D01*
X116114097Y-81275736D01*
X105854311Y-83224823D02*
X105908740Y-83170395D01*
X106017597Y-83115966D01*
X106289740Y-83115966D01*
X106398597Y-83170395D01*
X106453026Y-83224823D01*
X106507454Y-83333680D01*
X106507454Y-83442537D01*
X106453026Y-83605823D01*
X105799883Y-84258966D01*
X106507454Y-84258966D01*
X107215026Y-83115966D02*
X107323883Y-83115966D01*
X107432740Y-83170395D01*
X107487168Y-83224823D01*
X107541597Y-83333680D01*
X107596026Y-83551395D01*
X107596026Y-83823537D01*
X107541597Y-84041252D01*
X107487168Y-84150109D01*
X107432740Y-84204537D01*
X107323883Y-84258966D01*
X107215026Y-84258966D01*
X107106168Y-84204537D01*
X107051740Y-84150109D01*
X106997311Y-84041252D01*
X106942883Y-83823537D01*
X106942883Y-83551395D01*
X106997311Y-83333680D01*
X107051740Y-83224823D01*
X107106168Y-83170395D01*
X107215026Y-83115966D01*
X108031454Y-83224823D02*
X108085883Y-83170395D01*
X108194740Y-83115966D01*
X108466883Y-83115966D01*
X108575740Y-83170395D01*
X108630168Y-83224823D01*
X108684597Y-83333680D01*
X108684597Y-83442537D01*
X108630168Y-83605823D01*
X107977026Y-84258966D01*
X108684597Y-84258966D01*
X109120026Y-83224823D02*
X109174454Y-83170395D01*
X109283311Y-83115966D01*
X109555454Y-83115966D01*
X109664311Y-83170395D01*
X109718740Y-83224823D01*
X109773168Y-83333680D01*
X109773168Y-83442537D01*
X109718740Y-83605823D01*
X109065597Y-84258966D01*
X109773168Y-84258966D01*
X110263026Y-83823537D02*
X111133883Y-83823537D01*
X111895883Y-83115966D02*
X112004740Y-83115966D01*
X112113597Y-83170395D01*
X112168026Y-83224823D01*
X112222454Y-83333680D01*
X112276883Y-83551395D01*
X112276883Y-83823537D01*
X112222454Y-84041252D01*
X112168026Y-84150109D01*
X112113597Y-84204537D01*
X112004740Y-84258966D01*
X111895883Y-84258966D01*
X111787026Y-84204537D01*
X111732597Y-84150109D01*
X111678168Y-84041252D01*
X111623740Y-83823537D01*
X111623740Y-83551395D01*
X111678168Y-83333680D01*
X111732597Y-83224823D01*
X111787026Y-83170395D01*
X111895883Y-83115966D01*
X113256597Y-83496966D02*
X113256597Y-84258966D01*
X112984454Y-83061537D02*
X112712311Y-83877966D01*
X113419883Y-83877966D01*
X113855311Y-83823537D02*
X114726168Y-83823537D01*
X115869168Y-84258966D02*
X115216026Y-84258966D01*
X115542597Y-84258966D02*
X115542597Y-83115966D01*
X115433740Y-83279252D01*
X115324883Y-83388109D01*
X115216026Y-83442537D01*
X116903311Y-83115966D02*
X116359026Y-83115966D01*
X116304597Y-83660252D01*
X116359026Y-83605823D01*
X116467883Y-83551395D01*
X116740026Y-83551395D01*
X116848883Y-83605823D01*
X116903311Y-83660252D01*
X116957740Y-83769109D01*
X116957740Y-84041252D01*
X116903311Y-84150109D01*
X116848883Y-84204537D01*
X116740026Y-84258966D01*
X116467883Y-84258966D01*
X116359026Y-84204537D01*
X116304597Y-84150109D01*
D12*
X114928571Y-70550000D02*
X116000000Y-70550000D01*
X116214285Y-70621428D01*
X116357142Y-70764285D01*
X116428571Y-70978571D01*
X116428571Y-71121428D01*
X114928571Y-70050000D02*
X114928571Y-69192857D01*
X116428571Y-69621428D02*
X114928571Y-69621428D01*
X116000000Y-68764285D02*
X116000000Y-68050000D01*
X116428571Y-68907142D02*
X114928571Y-68407142D01*
X116428571Y-67907142D01*
X115000000Y-66621428D02*
X114928571Y-66764285D01*
X114928571Y-66978571D01*
X115000000Y-67192857D01*
X115142857Y-67335714D01*
X115285714Y-67407142D01*
X115571428Y-67478571D01*
X115785714Y-67478571D01*
X116071428Y-67407142D01*
X116214285Y-67335714D01*
X116357142Y-67192857D01*
X116428571Y-66978571D01*
X116428571Y-66835714D01*
X116357142Y-66621428D01*
X116285714Y-66550000D01*
X115785714Y-66550000D01*
X115785714Y-66835714D01*
X107778571Y-72157142D02*
X106278571Y-72157142D01*
X106278571Y-71585714D01*
X106350000Y-71442857D01*
X106421428Y-71371428D01*
X106564285Y-71300000D01*
X106778571Y-71300000D01*
X106921428Y-71371428D01*
X106992857Y-71442857D01*
X107064285Y-71585714D01*
X107064285Y-72157142D01*
X107778571Y-70657142D02*
X106278571Y-70657142D01*
X107635714Y-69085714D02*
X107707142Y-69157142D01*
X107778571Y-69371428D01*
X107778571Y-69514285D01*
X107707142Y-69728571D01*
X107564285Y-69871428D01*
X107421428Y-69942857D01*
X107135714Y-70014285D01*
X106921428Y-70014285D01*
X106635714Y-69942857D01*
X106492857Y-69871428D01*
X106350000Y-69728571D01*
X106278571Y-69514285D01*
X106278571Y-69371428D01*
X106350000Y-69157142D01*
X106421428Y-69085714D01*
X107778571Y-68442857D02*
X106278571Y-68442857D01*
X107207142Y-68300000D02*
X107778571Y-67871428D01*
X106778571Y-67871428D02*
X107350000Y-68442857D01*
X107778571Y-67228571D02*
X106778571Y-67228571D01*
X106278571Y-67228571D02*
X106350000Y-67300000D01*
X106421428Y-67228571D01*
X106350000Y-67157142D01*
X106278571Y-67228571D01*
X106421428Y-67228571D01*
X106778571Y-66728571D02*
X106778571Y-66157142D01*
X106278571Y-66514285D02*
X107564285Y-66514285D01*
X107707142Y-66442857D01*
X107778571Y-66300000D01*
X107778571Y-66157142D01*
X106778571Y-65014285D02*
X107778571Y-65014285D01*
X106207142Y-65371428D02*
X107278571Y-65728571D01*
X107278571Y-64800000D01*
D13*
%TO.C,REF\u002A\u002A*%
X115830050Y-59365150D02*
X114530052Y-59365176D01*
X114530052Y-59365176D02*
X115830050Y-58715164D01*
X115830050Y-60015162D02*
X114530052Y-59365176D01*
X115830050Y-58715164D02*
X115830050Y-60015162D01*
%TD*%
M02*
