%TF.GenerationSoftware,KiCad,Pcbnew,(6.0.0)*%
%TF.CreationDate,2022-03-13T13:50:54-04:00*%
%TF.ProjectId,JTAG_ISP-ISP,4a544147-5f49-4535-902d-4953502e6b69,v1.0.0*%
%TF.SameCoordinates,Original*%
%TF.FileFunction,Copper,L2,Bot*%
%TF.FilePolarity,Positive*%
%FSLAX46Y46*%
G04 Gerber Fmt 4.6, Leading zero omitted, Abs format (unit mm)*
G04 Created by KiCad (PCBNEW (6.0.0)) date 2022-03-13 13:50:54*
%MOMM*%
%LPD*%
G01*
G04 APERTURE LIST*
%ADD10C,0.190500*%
%TA.AperFunction,NonConductor*%
%ADD11C,0.190500*%
%TD*%
%TA.AperFunction,EtchedComponent*%
%ADD12C,0.508000*%
%TD*%
%TA.AperFunction,ComponentPad*%
%ADD13R,1.700000X1.700000*%
%TD*%
%TA.AperFunction,ComponentPad*%
%ADD14O,1.700000X1.700000*%
%TD*%
%TA.AperFunction,ComponentPad*%
%ADD15C,1.600000*%
%TD*%
%TA.AperFunction,ComponentPad*%
%ADD16C,1.700000*%
%TD*%
%TA.AperFunction,ViaPad*%
%ADD17C,1.200000*%
%TD*%
%TA.AperFunction,Conductor*%
%ADD18C,0.508000*%
%TD*%
%TA.AperFunction,Conductor*%
%ADD19C,0.250000*%
%TD*%
G04 APERTURE END LIST*
D10*
D11*
X160606714Y-97461788D02*
X159735857Y-97461788D01*
X160171285Y-98985788D02*
X160171285Y-97461788D01*
X159227857Y-98985788D02*
X159227857Y-97461788D01*
X159227857Y-98187502D02*
X158357000Y-98187502D01*
X158357000Y-98985788D02*
X158357000Y-97461788D01*
X157341000Y-97461788D02*
X157050714Y-97461788D01*
X156905571Y-97534360D01*
X156760428Y-97679502D01*
X156687857Y-97969788D01*
X156687857Y-98477788D01*
X156760428Y-98768074D01*
X156905571Y-98913217D01*
X157050714Y-98985788D01*
X157341000Y-98985788D01*
X157486142Y-98913217D01*
X157631285Y-98768074D01*
X157703857Y-98477788D01*
X157703857Y-97969788D01*
X157631285Y-97679502D01*
X157486142Y-97534360D01*
X157341000Y-97461788D01*
X156034714Y-98985788D02*
X156034714Y-97461788D01*
X155526714Y-98550360D01*
X155018714Y-97461788D01*
X155018714Y-98985788D01*
X154365571Y-98550360D02*
X153639857Y-98550360D01*
X154510714Y-98985788D02*
X154002714Y-97461788D01*
X153494714Y-98985788D01*
X153059285Y-98913217D02*
X152841571Y-98985788D01*
X152478714Y-98985788D01*
X152333571Y-98913217D01*
X152261000Y-98840645D01*
X152188428Y-98695502D01*
X152188428Y-98550360D01*
X152261000Y-98405217D01*
X152333571Y-98332645D01*
X152478714Y-98260074D01*
X152769000Y-98187502D01*
X152914142Y-98114931D01*
X152986714Y-98042360D01*
X153059285Y-97897217D01*
X153059285Y-97752074D01*
X152986714Y-97606931D01*
X152914142Y-97534360D01*
X152769000Y-97461788D01*
X152406142Y-97461788D01*
X152188428Y-97534360D01*
X162965285Y-101439428D02*
X162965285Y-99915428D01*
X162602428Y-99915428D01*
X162384714Y-99988000D01*
X162239571Y-100133142D01*
X162167000Y-100278285D01*
X162094428Y-100568571D01*
X162094428Y-100786285D01*
X162167000Y-101076571D01*
X162239571Y-101221714D01*
X162384714Y-101366857D01*
X162602428Y-101439428D01*
X162965285Y-101439428D01*
X161441285Y-100641142D02*
X160933285Y-100641142D01*
X160715571Y-101439428D02*
X161441285Y-101439428D01*
X161441285Y-99915428D01*
X160715571Y-99915428D01*
X160135000Y-101366857D02*
X159917285Y-101439428D01*
X159554428Y-101439428D01*
X159409285Y-101366857D01*
X159336714Y-101294285D01*
X159264142Y-101149142D01*
X159264142Y-101004000D01*
X159336714Y-100858857D01*
X159409285Y-100786285D01*
X159554428Y-100713714D01*
X159844714Y-100641142D01*
X159989857Y-100568571D01*
X160062428Y-100496000D01*
X160135000Y-100350857D01*
X160135000Y-100205714D01*
X160062428Y-100060571D01*
X159989857Y-99988000D01*
X159844714Y-99915428D01*
X159481857Y-99915428D01*
X159264142Y-99988000D01*
X157740142Y-101439428D02*
X158248142Y-100713714D01*
X158611000Y-101439428D02*
X158611000Y-99915428D01*
X158030428Y-99915428D01*
X157885285Y-99988000D01*
X157812714Y-100060571D01*
X157740142Y-100205714D01*
X157740142Y-100423428D01*
X157812714Y-100568571D01*
X157885285Y-100641142D01*
X158030428Y-100713714D01*
X158611000Y-100713714D01*
X156796714Y-99915428D02*
X156506428Y-99915428D01*
X156361285Y-99988000D01*
X156216142Y-100133142D01*
X156143571Y-100423428D01*
X156143571Y-100931428D01*
X156216142Y-101221714D01*
X156361285Y-101366857D01*
X156506428Y-101439428D01*
X156796714Y-101439428D01*
X156941857Y-101366857D01*
X157087000Y-101221714D01*
X157159571Y-100931428D01*
X157159571Y-100423428D01*
X157087000Y-100133142D01*
X156941857Y-99988000D01*
X156796714Y-99915428D01*
X155563000Y-101366857D02*
X155345285Y-101439428D01*
X154982428Y-101439428D01*
X154837285Y-101366857D01*
X154764714Y-101294285D01*
X154692142Y-101149142D01*
X154692142Y-101004000D01*
X154764714Y-100858857D01*
X154837285Y-100786285D01*
X154982428Y-100713714D01*
X155272714Y-100641142D01*
X155417857Y-100568571D01*
X155490428Y-100496000D01*
X155563000Y-100350857D01*
X155563000Y-100205714D01*
X155490428Y-100060571D01*
X155417857Y-99988000D01*
X155272714Y-99915428D01*
X154909857Y-99915428D01*
X154692142Y-99988000D01*
X154039000Y-101439428D02*
X154039000Y-99915428D01*
X153313285Y-100641142D02*
X152805285Y-100641142D01*
X152587571Y-101439428D02*
X153313285Y-101439428D01*
X153313285Y-99915428D01*
X152587571Y-99915428D01*
X151063571Y-101439428D02*
X151571571Y-100713714D01*
X151934428Y-101439428D02*
X151934428Y-99915428D01*
X151353857Y-99915428D01*
X151208714Y-99988000D01*
X151136142Y-100060571D01*
X151063571Y-100205714D01*
X151063571Y-100423428D01*
X151136142Y-100568571D01*
X151208714Y-100641142D01*
X151353857Y-100713714D01*
X151934428Y-100713714D01*
X150483000Y-101366857D02*
X150265285Y-101439428D01*
X149902428Y-101439428D01*
X149757285Y-101366857D01*
X149684714Y-101294285D01*
X149612142Y-101149142D01*
X149612142Y-101004000D01*
X149684714Y-100858857D01*
X149757285Y-100786285D01*
X149902428Y-100713714D01*
X150192714Y-100641142D01*
X150337857Y-100568571D01*
X150410428Y-100496000D01*
X150483000Y-100350857D01*
X150483000Y-100205714D01*
X150410428Y-100060571D01*
X150337857Y-99988000D01*
X150192714Y-99915428D01*
X149829857Y-99915428D01*
X149612142Y-99988000D01*
X163727285Y-102514211D02*
X163654714Y-102441640D01*
X163509571Y-102369068D01*
X163146714Y-102369068D01*
X163001571Y-102441640D01*
X162929000Y-102514211D01*
X162856428Y-102659354D01*
X162856428Y-102804497D01*
X162929000Y-103022211D01*
X163799857Y-103893068D01*
X162856428Y-103893068D01*
X161913000Y-102369068D02*
X161767857Y-102369068D01*
X161622714Y-102441640D01*
X161550142Y-102514211D01*
X161477571Y-102659354D01*
X161405000Y-102949640D01*
X161405000Y-103312497D01*
X161477571Y-103602782D01*
X161550142Y-103747925D01*
X161622714Y-103820497D01*
X161767857Y-103893068D01*
X161913000Y-103893068D01*
X162058142Y-103820497D01*
X162130714Y-103747925D01*
X162203285Y-103602782D01*
X162275857Y-103312497D01*
X162275857Y-102949640D01*
X162203285Y-102659354D01*
X162130714Y-102514211D01*
X162058142Y-102441640D01*
X161913000Y-102369068D01*
X160824428Y-102514211D02*
X160751857Y-102441640D01*
X160606714Y-102369068D01*
X160243857Y-102369068D01*
X160098714Y-102441640D01*
X160026142Y-102514211D01*
X159953571Y-102659354D01*
X159953571Y-102804497D01*
X160026142Y-103022211D01*
X160897000Y-103893068D01*
X159953571Y-103893068D01*
X159373000Y-102514211D02*
X159300428Y-102441640D01*
X159155285Y-102369068D01*
X158792428Y-102369068D01*
X158647285Y-102441640D01*
X158574714Y-102514211D01*
X158502142Y-102659354D01*
X158502142Y-102804497D01*
X158574714Y-103022211D01*
X159445571Y-103893068D01*
X158502142Y-103893068D01*
X157849000Y-103312497D02*
X156687857Y-103312497D01*
X155671857Y-102369068D02*
X155526714Y-102369068D01*
X155381571Y-102441640D01*
X155309000Y-102514211D01*
X155236428Y-102659354D01*
X155163857Y-102949640D01*
X155163857Y-103312497D01*
X155236428Y-103602782D01*
X155309000Y-103747925D01*
X155381571Y-103820497D01*
X155526714Y-103893068D01*
X155671857Y-103893068D01*
X155817000Y-103820497D01*
X155889571Y-103747925D01*
X155962142Y-103602782D01*
X156034714Y-103312497D01*
X156034714Y-102949640D01*
X155962142Y-102659354D01*
X155889571Y-102514211D01*
X155817000Y-102441640D01*
X155671857Y-102369068D01*
X154655857Y-102369068D02*
X153712428Y-102369068D01*
X154220428Y-102949640D01*
X154002714Y-102949640D01*
X153857571Y-103022211D01*
X153785000Y-103094782D01*
X153712428Y-103239925D01*
X153712428Y-103602782D01*
X153785000Y-103747925D01*
X153857571Y-103820497D01*
X154002714Y-103893068D01*
X154438142Y-103893068D01*
X154583285Y-103820497D01*
X154655857Y-103747925D01*
X153059285Y-103312497D02*
X151898142Y-103312497D01*
X150374142Y-103893068D02*
X151245000Y-103893068D01*
X150809571Y-103893068D02*
X150809571Y-102369068D01*
X150954714Y-102586782D01*
X151099857Y-102731925D01*
X151245000Y-102804497D01*
X149866142Y-102369068D02*
X148922714Y-102369068D01*
X149430714Y-102949640D01*
X149213000Y-102949640D01*
X149067857Y-103022211D01*
X148995285Y-103094782D01*
X148922714Y-103239925D01*
X148922714Y-103602782D01*
X148995285Y-103747925D01*
X149067857Y-103820497D01*
X149213000Y-103893068D01*
X149648428Y-103893068D01*
X149793571Y-103820497D01*
X149866142Y-103747925D01*
D12*
%TO.C,REF\u002A\u002A*%
X155920000Y-77575000D02*
X154570000Y-78175000D01*
X156095000Y-77675000D02*
X154245000Y-77675000D01*
X154220000Y-77575000D02*
X155170000Y-78925000D01*
X156545005Y-77425002D02*
X153844995Y-77425002D01*
X156070000Y-77675000D02*
X155170000Y-78925000D01*
X155720000Y-77475000D02*
X154820000Y-78725000D01*
X155920000Y-77575000D02*
X155020000Y-78825000D01*
X155195005Y-79424998D02*
X153844995Y-77425002D01*
X156545005Y-77425002D02*
X155195005Y-79425007D01*
%TD*%
D13*
%TO.P,J2,1,Pin_1*%
%TO.N,unconnected-(J2-Pad1)*%
X147179995Y-75505767D03*
D14*
%TO.P,J2,2,Pin_2*%
%TO.N,+5V*%
X147179995Y-78045767D03*
%TO.P,J2,3,Pin_3*%
%TO.N,unconnected-(J2-Pad3)*%
X147179995Y-80585767D03*
%TO.P,J2,4,Pin_4*%
%TO.N,GND*%
X147179995Y-83125767D03*
%TO.P,J2,5,Pin_5*%
%TO.N,unconnected-(J2-Pad5)*%
X147179995Y-85665767D03*
%TO.P,J2,6,Pin_6*%
%TO.N,MISO*%
X147179995Y-88205767D03*
%TO.P,J2,7,Pin_7*%
%TO.N,unconnected-(J2-Pad7)*%
X147179995Y-90745767D03*
%TO.P,J2,8,Pin_8*%
%TO.N,unconnected-(J2-Pad8)*%
X147179995Y-93285767D03*
%TD*%
D15*
%TO.P,C1,1*%
%TO.N,+5V*%
X147300000Y-71250000D03*
%TO.P,C1,2*%
%TO.N,GND*%
X147300000Y-68750000D03*
%TD*%
D16*
%TO.P,J3,1,Pin_1*%
%TO.N,SCLK*%
X165542011Y-75505767D03*
D14*
%TO.P,J3,2,Pin_2*%
%TO.N,unconnected-(J3-Pad2)*%
X165542011Y-78045767D03*
%TO.P,J3,3,Pin_3*%
%TO.N,unconnected-(J3-Pad3)*%
X165542011Y-80585767D03*
%TO.P,J3,4,Pin_4*%
%TO.N,unconnected-(J3-Pad4)*%
X165542011Y-83125767D03*
%TO.P,J3,5,Pin_5*%
%TO.N,MOSI*%
X165542011Y-85665767D03*
%TO.P,J3,6,Pin_6*%
%TO.N,unconnected-(J3-Pad6)*%
X165542011Y-88205767D03*
%TO.P,J3,7,Pin_7*%
%TO.N,RESET*%
X165542011Y-90745767D03*
%TO.P,J3,8,Pin_8*%
%TO.N,unconnected-(J3-Pad8)*%
X165542011Y-93285767D03*
%TD*%
D13*
%TO.P,J1,1,Pin_1*%
%TO.N,MISO*%
X155089962Y-81841797D03*
D14*
%TO.P,J1,2,Pin_2*%
%TO.N,SCLK*%
X157629962Y-81841797D03*
%TO.P,J1,3,Pin_3*%
%TO.N,RESET*%
X155089962Y-84381797D03*
%TO.P,J1,4,Pin_4*%
%TO.N,GND*%
X157629962Y-84381797D03*
%TO.P,J1,5,Pin_5*%
%TO.N,MOSI*%
X155089962Y-86921797D03*
%TO.P,J1,6,Pin_6*%
%TO.N,+5V*%
X157629962Y-86921797D03*
%TD*%
D17*
%TO.N,+5V*%
X160396797Y-86921797D03*
%TO.N,GND*%
X162110242Y-83749998D03*
%TO.N,MISO*%
X151658203Y-81841797D03*
%TO.N,SCLK*%
X162110242Y-81841797D03*
%TO.N,RESET*%
X151658193Y-84381797D03*
%TO.N,MOSI*%
X162110242Y-85665767D03*
%TD*%
D18*
%TO.N,+5V*%
X160450000Y-72625000D02*
X159075000Y-71250000D01*
X148750000Y-71250000D02*
X147300000Y-71250000D01*
X150625000Y-71250000D02*
X148750000Y-71250000D01*
X160450000Y-86868594D02*
X160450000Y-72625000D01*
X149579233Y-78045767D02*
X150475000Y-77150000D01*
X147179995Y-78045767D02*
X149579233Y-78045767D01*
X150475000Y-77150000D02*
X150475000Y-71550000D01*
X159075000Y-71250000D02*
X148750000Y-71250000D01*
X160396797Y-86921797D02*
X160450000Y-86868594D01*
D19*
%TO.N,MISO*%
X148569233Y-88205767D02*
X147179995Y-88205767D01*
X149858203Y-81841797D02*
X149125000Y-82575000D01*
X149125000Y-82575000D02*
X149125000Y-87650000D01*
X149125000Y-87650000D02*
X148569233Y-88205767D01*
X151658203Y-81841797D02*
X149858203Y-81841797D01*
%TO.N,SCLK*%
X165542011Y-75505767D02*
X164244233Y-75505767D01*
X162658203Y-81841797D02*
X162110242Y-81841797D01*
X163425000Y-81075000D02*
X163425000Y-76325000D01*
X163425000Y-81075000D02*
X162658203Y-81841797D01*
X164244233Y-75505767D02*
X163425000Y-76325000D01*
%TO.N,RESET*%
X151658193Y-90208193D02*
X152195767Y-90745767D01*
X152195767Y-90745767D02*
X165542011Y-90745767D01*
X151658193Y-84381797D02*
X151658193Y-90208193D01*
%TO.N,MOSI*%
X162110242Y-85665767D02*
X165542011Y-85665767D01*
%TD*%
%TA.AperFunction,Conductor*%
%TO.N,GND*%
G36*
X164870057Y-62323080D02*
G01*
X164884858Y-62325385D01*
X164884861Y-62325385D01*
X164893730Y-62326766D01*
X164910899Y-62324521D01*
X164934839Y-62323688D01*
X165192770Y-62339290D01*
X165207874Y-62341124D01*
X165278648Y-62354094D01*
X165488879Y-62392620D01*
X165503641Y-62396258D01*
X165776408Y-62481255D01*
X165790627Y-62486649D01*
X166051140Y-62603896D01*
X166064609Y-62610965D01*
X166309095Y-62758762D01*
X166321617Y-62767405D01*
X166546507Y-62943596D01*
X166557895Y-62953686D01*
X166759894Y-63155685D01*
X166769984Y-63167073D01*
X166946175Y-63391963D01*
X166954818Y-63404485D01*
X167102615Y-63648971D01*
X167109686Y-63662444D01*
X167226930Y-63922950D01*
X167232326Y-63937176D01*
X167317321Y-64209933D01*
X167320962Y-64224707D01*
X167372456Y-64505706D01*
X167374290Y-64520810D01*
X167389455Y-64771509D01*
X167388198Y-64798219D01*
X167388195Y-64798439D01*
X167386814Y-64807310D01*
X167387978Y-64816212D01*
X167387978Y-64816215D01*
X167390936Y-64838831D01*
X167392000Y-64855169D01*
X167392000Y-103900672D01*
X167390500Y-103920056D01*
X167386814Y-103943730D01*
X167388454Y-103956270D01*
X167389059Y-103960897D01*
X167389892Y-103984839D01*
X167374290Y-104242770D01*
X167372456Y-104257874D01*
X167320962Y-104538873D01*
X167317321Y-104553647D01*
X167232326Y-104826404D01*
X167226930Y-104840630D01*
X167109686Y-105101136D01*
X167102615Y-105114609D01*
X166954818Y-105359095D01*
X166946175Y-105371617D01*
X166769984Y-105596507D01*
X166759894Y-105607895D01*
X166557895Y-105809894D01*
X166546507Y-105819984D01*
X166321617Y-105996175D01*
X166309095Y-106004818D01*
X166064609Y-106152615D01*
X166051140Y-106159684D01*
X165790630Y-106276930D01*
X165776408Y-106282325D01*
X165503641Y-106367322D01*
X165488879Y-106370960D01*
X165278648Y-106409486D01*
X165207874Y-106422456D01*
X165192770Y-106424290D01*
X164942071Y-106439455D01*
X164915361Y-106438198D01*
X164915141Y-106438195D01*
X164906270Y-106436814D01*
X164897368Y-106437978D01*
X164897365Y-106437978D01*
X164874749Y-106440936D01*
X164858411Y-106442000D01*
X147871330Y-106442000D01*
X147851945Y-106440500D01*
X147837144Y-106438195D01*
X147837141Y-106438195D01*
X147828272Y-106436814D01*
X147811103Y-106439059D01*
X147787163Y-106439892D01*
X147529232Y-106424290D01*
X147514128Y-106422456D01*
X147443354Y-106409486D01*
X147233123Y-106370960D01*
X147218361Y-106367322D01*
X146945594Y-106282325D01*
X146931372Y-106276930D01*
X146670862Y-106159684D01*
X146657393Y-106152615D01*
X146412907Y-106004818D01*
X146400385Y-105996175D01*
X146175495Y-105819984D01*
X146164107Y-105809894D01*
X145962108Y-105607895D01*
X145952018Y-105596507D01*
X145777858Y-105374210D01*
X147879179Y-105374210D01*
X164770822Y-105374210D01*
X164770822Y-96125790D01*
X147879179Y-96125790D01*
X147879179Y-105374210D01*
X145777858Y-105374210D01*
X145775827Y-105371617D01*
X145767184Y-105359095D01*
X145619387Y-105114609D01*
X145612316Y-105101136D01*
X145495072Y-104840630D01*
X145489676Y-104826404D01*
X145404681Y-104553647D01*
X145401040Y-104538873D01*
X145349546Y-104257874D01*
X145347712Y-104242770D01*
X145332547Y-103992071D01*
X145333804Y-103965361D01*
X145333807Y-103965141D01*
X145335188Y-103956270D01*
X145333549Y-103943730D01*
X145331066Y-103924749D01*
X145330002Y-103908411D01*
X145330002Y-93252462D01*
X145817246Y-93252462D01*
X145817543Y-93257615D01*
X145817543Y-93257618D01*
X145823006Y-93352357D01*
X145830105Y-93475482D01*
X145831242Y-93480528D01*
X145831243Y-93480534D01*
X145851114Y-93568706D01*
X145879217Y-93693406D01*
X145963261Y-93900383D01*
X146079982Y-94090855D01*
X146226245Y-94259705D01*
X146398121Y-94402399D01*
X146590995Y-94515105D01*
X146799687Y-94594797D01*
X146804755Y-94595828D01*
X146804758Y-94595829D01*
X146912012Y-94617650D01*
X147018592Y-94639334D01*
X147023767Y-94639524D01*
X147023769Y-94639524D01*
X147236668Y-94647331D01*
X147236672Y-94647331D01*
X147241832Y-94647520D01*
X147246952Y-94646864D01*
X147246954Y-94646864D01*
X147458283Y-94619792D01*
X147458284Y-94619792D01*
X147463411Y-94619135D01*
X147468361Y-94617650D01*
X147672424Y-94556428D01*
X147672429Y-94556426D01*
X147677379Y-94554941D01*
X147877989Y-94456663D01*
X148059855Y-94326940D01*
X148218091Y-94169256D01*
X148277589Y-94086456D01*
X148345430Y-93992044D01*
X148348448Y-93987844D01*
X148447425Y-93787578D01*
X148512365Y-93573836D01*
X148541524Y-93352357D01*
X148543151Y-93285767D01*
X148524847Y-93063128D01*
X148470426Y-92846469D01*
X148381349Y-92641607D01*
X148260009Y-92454044D01*
X148109665Y-92288818D01*
X148105614Y-92285619D01*
X148105610Y-92285615D01*
X147938409Y-92153567D01*
X147938405Y-92153565D01*
X147934354Y-92150365D01*
X147893048Y-92127563D01*
X147843079Y-92077131D01*
X147828307Y-92007688D01*
X147853423Y-91941283D01*
X147880775Y-91914676D01*
X147924598Y-91883417D01*
X148059855Y-91786940D01*
X148218091Y-91629256D01*
X148277589Y-91546456D01*
X148345430Y-91452044D01*
X148348448Y-91447844D01*
X148352606Y-91439432D01*
X148445131Y-91252220D01*
X148445132Y-91252218D01*
X148447425Y-91247578D01*
X148512365Y-91033836D01*
X148541524Y-90812357D01*
X148543151Y-90745767D01*
X148524847Y-90523128D01*
X148470426Y-90306469D01*
X148381349Y-90101607D01*
X148260009Y-89914044D01*
X148109665Y-89748818D01*
X148105614Y-89745619D01*
X148105610Y-89745615D01*
X147938409Y-89613567D01*
X147938405Y-89613565D01*
X147934354Y-89610365D01*
X147893048Y-89587563D01*
X147843079Y-89537131D01*
X147828307Y-89467688D01*
X147853423Y-89401283D01*
X147880775Y-89374676D01*
X147924598Y-89343417D01*
X148059855Y-89246940D01*
X148218091Y-89089256D01*
X148277589Y-89006456D01*
X148345430Y-88912044D01*
X148348448Y-88907844D01*
X148350741Y-88903204D01*
X148352441Y-88900375D01*
X148404669Y-88852285D01*
X148460446Y-88839267D01*
X148490466Y-88839267D01*
X148501649Y-88839794D01*
X148509142Y-88841469D01*
X148517068Y-88841220D01*
X148517069Y-88841220D01*
X148577219Y-88839329D01*
X148581178Y-88839267D01*
X148609089Y-88839267D01*
X148613024Y-88838770D01*
X148613089Y-88838762D01*
X148624926Y-88837829D01*
X148657184Y-88836815D01*
X148661203Y-88836689D01*
X148669122Y-88836440D01*
X148688576Y-88830788D01*
X148707933Y-88826780D01*
X148720163Y-88825235D01*
X148720164Y-88825235D01*
X148728030Y-88824241D01*
X148735401Y-88821322D01*
X148735403Y-88821322D01*
X148769145Y-88807963D01*
X148780375Y-88804118D01*
X148815216Y-88793996D01*
X148815217Y-88793996D01*
X148822826Y-88791785D01*
X148829645Y-88787752D01*
X148829650Y-88787750D01*
X148840261Y-88781474D01*
X148858009Y-88772779D01*
X148876850Y-88765319D01*
X148912620Y-88739331D01*
X148922540Y-88732815D01*
X148953768Y-88714347D01*
X148953771Y-88714345D01*
X148960595Y-88710309D01*
X148974916Y-88695988D01*
X148989950Y-88683147D01*
X148999927Y-88675898D01*
X149006340Y-88671239D01*
X149034531Y-88637162D01*
X149042521Y-88628383D01*
X149517247Y-88153657D01*
X149525537Y-88146113D01*
X149532018Y-88142000D01*
X149578659Y-88092332D01*
X149581413Y-88089491D01*
X149601134Y-88069770D01*
X149603612Y-88066575D01*
X149611318Y-88057553D01*
X149632380Y-88035124D01*
X149641586Y-88025321D01*
X149651346Y-88007568D01*
X149662199Y-87991045D01*
X149669753Y-87981306D01*
X149674613Y-87975041D01*
X149692176Y-87934457D01*
X149697383Y-87923827D01*
X149718695Y-87885060D01*
X149720666Y-87877383D01*
X149720668Y-87877378D01*
X149723732Y-87865442D01*
X149730138Y-87846730D01*
X149735033Y-87835419D01*
X149738181Y-87828145D01*
X149739421Y-87820317D01*
X149739423Y-87820310D01*
X149745099Y-87784476D01*
X149747505Y-87772856D01*
X149756528Y-87737711D01*
X149756528Y-87737710D01*
X149758500Y-87730030D01*
X149758500Y-87709776D01*
X149760051Y-87690065D01*
X149761980Y-87677886D01*
X149763220Y-87670057D01*
X149759059Y-87626038D01*
X149758500Y-87614181D01*
X149758500Y-82889594D01*
X149778502Y-82821473D01*
X149795405Y-82800499D01*
X150083702Y-82512202D01*
X150146014Y-82478176D01*
X150172797Y-82475297D01*
X150683189Y-82475297D01*
X150751310Y-82495299D01*
X150786085Y-82528576D01*
X150804720Y-82554943D01*
X150811682Y-82564794D01*
X150815816Y-82568821D01*
X150936585Y-82686469D01*
X150957613Y-82706954D01*
X150962409Y-82710159D01*
X150962412Y-82710161D01*
X151030352Y-82755557D01*
X151127006Y-82820139D01*
X151132309Y-82822417D01*
X151132312Y-82822419D01*
X151273248Y-82882970D01*
X151314190Y-82900560D01*
X151348348Y-82908289D01*
X151507258Y-82944247D01*
X151507263Y-82944248D01*
X151512895Y-82945522D01*
X151518666Y-82945749D01*
X151518668Y-82945749D01*
X151581673Y-82948224D01*
X151716466Y-82953520D01*
X151918086Y-82924287D01*
X151923550Y-82922432D01*
X151923555Y-82922431D01*
X152105530Y-82860659D01*
X152105535Y-82860657D01*
X152111002Y-82858801D01*
X152288754Y-82759255D01*
X152445389Y-82628983D01*
X152575661Y-82472348D01*
X152675207Y-82294596D01*
X152677063Y-82289129D01*
X152677065Y-82289124D01*
X152738837Y-82107149D01*
X152738838Y-82107144D01*
X152740693Y-82101680D01*
X152769926Y-81900060D01*
X152771452Y-81841797D01*
X152758883Y-81705009D01*
X152753340Y-81644677D01*
X152753339Y-81644674D01*
X152752811Y-81638923D01*
X152729367Y-81555798D01*
X152699078Y-81448403D01*
X152699077Y-81448401D01*
X152697510Y-81442844D01*
X152677615Y-81402499D01*
X152609959Y-81265307D01*
X152607404Y-81260126D01*
X152594946Y-81243442D01*
X152488961Y-81101512D01*
X152488961Y-81101511D01*
X152485508Y-81096888D01*
X152368107Y-80988363D01*
X152340146Y-80962516D01*
X152340143Y-80962514D01*
X152335906Y-80958597D01*
X152253909Y-80906861D01*
X152168491Y-80852966D01*
X152168486Y-80852964D01*
X152163607Y-80849885D01*
X151974383Y-80774392D01*
X151774569Y-80734646D01*
X151768795Y-80734570D01*
X151768791Y-80734570D01*
X151665655Y-80733221D01*
X151570858Y-80731980D01*
X151565161Y-80732959D01*
X151565160Y-80732959D01*
X151494550Y-80745092D01*
X151370073Y-80766481D01*
X151178937Y-80836995D01*
X151173976Y-80839947D01*
X151173975Y-80839947D01*
X151116600Y-80874082D01*
X151003852Y-80941160D01*
X150850681Y-81075487D01*
X150847109Y-81080018D01*
X150783817Y-81160303D01*
X150725935Y-81201416D01*
X150684867Y-81208297D01*
X149936971Y-81208297D01*
X149925788Y-81207770D01*
X149918295Y-81206095D01*
X149910369Y-81206344D01*
X149910368Y-81206344D01*
X149850205Y-81208235D01*
X149846247Y-81208297D01*
X149818347Y-81208297D01*
X149814357Y-81208801D01*
X149802523Y-81209733D01*
X149758314Y-81211123D01*
X149750698Y-81213336D01*
X149750696Y-81213336D01*
X149738855Y-81216776D01*
X149719496Y-81220785D01*
X149718186Y-81220951D01*
X149699406Y-81223323D01*
X149692040Y-81226239D01*
X149692034Y-81226241D01*
X149658301Y-81239597D01*
X149647071Y-81243442D01*
X149613673Y-81253145D01*
X149604610Y-81255778D01*
X149597787Y-81259813D01*
X149587169Y-81266092D01*
X149569416Y-81274789D01*
X149561771Y-81277816D01*
X149550586Y-81282245D01*
X149537099Y-81292044D01*
X149514815Y-81308234D01*
X149504898Y-81314748D01*
X149466841Y-81337255D01*
X149452520Y-81351576D01*
X149437487Y-81364416D01*
X149421096Y-81376325D01*
X149399443Y-81402499D01*
X149392915Y-81410390D01*
X149384925Y-81419171D01*
X148732742Y-82071353D01*
X148724463Y-82078887D01*
X148717982Y-82083000D01*
X148695305Y-82107149D01*
X148671357Y-82132651D01*
X148668602Y-82135493D01*
X148648865Y-82155230D01*
X148646385Y-82158427D01*
X148638682Y-82167447D01*
X148608414Y-82199679D01*
X148604595Y-82206625D01*
X148604593Y-82206628D01*
X148598652Y-82217434D01*
X148587801Y-82233953D01*
X148575386Y-82249959D01*
X148572241Y-82257228D01*
X148572238Y-82257232D01*
X148557826Y-82290537D01*
X148552609Y-82301187D01*
X148531305Y-82339940D01*
X148529687Y-82346243D01*
X148486402Y-82401720D01*
X148419399Y-82425196D01*
X148350340Y-82408722D01*
X148307131Y-82367803D01*
X148262422Y-82298693D01*
X148256131Y-82290524D01*
X148112801Y-82133007D01*
X148105268Y-82125982D01*
X147938134Y-81993989D01*
X147929551Y-81988287D01*
X147892597Y-81967887D01*
X147842626Y-81917454D01*
X147827854Y-81848012D01*
X147852970Y-81781606D01*
X147880322Y-81754999D01*
X147903792Y-81738258D01*
X148059855Y-81626940D01*
X148218091Y-81469256D01*
X148266061Y-81402499D01*
X148345430Y-81292044D01*
X148348448Y-81287844D01*
X148352659Y-81279325D01*
X148445131Y-81092220D01*
X148445132Y-81092218D01*
X148447425Y-81087578D01*
X148502331Y-80906861D01*
X148510860Y-80878790D01*
X148510860Y-80878788D01*
X148512365Y-80873836D01*
X148541524Y-80652357D01*
X148542106Y-80628536D01*
X148543069Y-80589132D01*
X148543069Y-80589128D01*
X148543151Y-80585767D01*
X148524847Y-80363128D01*
X148470426Y-80146469D01*
X148381349Y-79941607D01*
X148260009Y-79754044D01*
X148109665Y-79588818D01*
X148105614Y-79585619D01*
X148105610Y-79585615D01*
X147938409Y-79453567D01*
X147938405Y-79453565D01*
X147934354Y-79450365D01*
X147893048Y-79427563D01*
X147843079Y-79377131D01*
X147828307Y-79307688D01*
X147853423Y-79241283D01*
X147880775Y-79214676D01*
X147924598Y-79183417D01*
X148059855Y-79086940D01*
X148218091Y-78929256D01*
X148267324Y-78860741D01*
X148323319Y-78817093D01*
X148369647Y-78808267D01*
X149511857Y-78808267D01*
X149530807Y-78809700D01*
X149545206Y-78811891D01*
X149545212Y-78811891D01*
X149552441Y-78812991D01*
X149559733Y-78812398D01*
X149559736Y-78812398D01*
X149605416Y-78808682D01*
X149615631Y-78808267D01*
X149623758Y-78808267D01*
X149627394Y-78807843D01*
X149627396Y-78807843D01*
X149630848Y-78807440D01*
X149652157Y-78804956D01*
X149656477Y-78804529D01*
X149729659Y-78798576D01*
X149736621Y-78796320D01*
X149742609Y-78795124D01*
X149748566Y-78793716D01*
X149755840Y-78792868D01*
X149762722Y-78790370D01*
X149762726Y-78790369D01*
X149824840Y-78767822D01*
X149828944Y-78766412D01*
X149898808Y-78743780D01*
X149905071Y-78739980D01*
X149910613Y-78737442D01*
X149916089Y-78734700D01*
X149922974Y-78732201D01*
X149984365Y-78691952D01*
X149988033Y-78689637D01*
X150050814Y-78651540D01*
X150055019Y-78647826D01*
X150055022Y-78647824D01*
X150059238Y-78644100D01*
X150059264Y-78644129D01*
X150062195Y-78641529D01*
X150065549Y-78638725D01*
X150071668Y-78634713D01*
X150125222Y-78578180D01*
X150127599Y-78575739D01*
X150966528Y-77736810D01*
X150980941Y-77724423D01*
X150992665Y-77715795D01*
X150998564Y-77711454D01*
X151032979Y-77670945D01*
X151039909Y-77663429D01*
X151045653Y-77657685D01*
X151047927Y-77654811D01*
X151047933Y-77654804D01*
X151063372Y-77635289D01*
X151066163Y-77631885D01*
X151108945Y-77581528D01*
X151108948Y-77581524D01*
X151113684Y-77575949D01*
X151117012Y-77569432D01*
X151120389Y-77564368D01*
X151123616Y-77559144D01*
X151128160Y-77553400D01*
X151159242Y-77486896D01*
X151161147Y-77482999D01*
X151188576Y-77429282D01*
X153077820Y-77429282D01*
X153078708Y-77436549D01*
X153078713Y-77437393D01*
X153079337Y-77458298D01*
X153079385Y-77459178D01*
X153078931Y-77466491D01*
X153080171Y-77473707D01*
X153080171Y-77473709D01*
X153084229Y-77497325D01*
X153088825Y-77524068D01*
X153090326Y-77532805D01*
X153091214Y-77538845D01*
X153099381Y-77605655D01*
X153101918Y-77612524D01*
X153102124Y-77613374D01*
X153107531Y-77633544D01*
X153107783Y-77634401D01*
X153109022Y-77641611D01*
X153111889Y-77648348D01*
X153111889Y-77648349D01*
X153135372Y-77703537D01*
X153137629Y-77709220D01*
X153160939Y-77772338D01*
X153166638Y-77782026D01*
X153167658Y-77783537D01*
X153172115Y-77792046D01*
X153175728Y-77798380D01*
X153178592Y-77805111D01*
X153182928Y-77811004D01*
X153182931Y-77811008D01*
X153220916Y-77862624D01*
X153223869Y-77866812D01*
X154527745Y-79798461D01*
X154536721Y-79814056D01*
X154547827Y-79836999D01*
X154552446Y-79842676D01*
X154552452Y-79842686D01*
X154579101Y-79875441D01*
X154585794Y-79884461D01*
X154586266Y-79885160D01*
X154586273Y-79885169D01*
X154588315Y-79888194D01*
X154590696Y-79890965D01*
X154609103Y-79912388D01*
X154611270Y-79914980D01*
X154659964Y-79974831D01*
X154665768Y-79979296D01*
X154666767Y-79980268D01*
X154667259Y-79980792D01*
X154668584Y-79982047D01*
X154669234Y-79982595D01*
X154670156Y-79983445D01*
X154674923Y-79988993D01*
X154680835Y-79993293D01*
X154680838Y-79993296D01*
X154736911Y-80034081D01*
X154739620Y-80036107D01*
X154746961Y-80041754D01*
X154800802Y-80083171D01*
X154807471Y-80086178D01*
X154808677Y-80086900D01*
X154809253Y-80087281D01*
X154810844Y-80088205D01*
X154811633Y-80088604D01*
X154812691Y-80089200D01*
X154818618Y-80093511D01*
X154825373Y-80096341D01*
X154825375Y-80096342D01*
X154889292Y-80123119D01*
X154892394Y-80124468D01*
X154956114Y-80153197D01*
X154956119Y-80153199D01*
X154962785Y-80156204D01*
X154969965Y-80157596D01*
X154971311Y-80158023D01*
X154971949Y-80158257D01*
X154973713Y-80158792D01*
X154974571Y-80158998D01*
X154975750Y-80159338D01*
X154982505Y-80162168D01*
X154989731Y-80163368D01*
X154989730Y-80163368D01*
X155058067Y-80174719D01*
X155061396Y-80175318D01*
X155137224Y-80190015D01*
X155144536Y-80189717D01*
X155145961Y-80189825D01*
X155146633Y-80189906D01*
X155148462Y-80190020D01*
X155149349Y-80190023D01*
X155150566Y-80190082D01*
X155157790Y-80191282D01*
X155165094Y-80190788D01*
X155165095Y-80190788D01*
X155197118Y-80188622D01*
X155234224Y-80186112D01*
X155237577Y-80185931D01*
X155260940Y-80184980D01*
X155307451Y-80183087D01*
X155307454Y-80183087D01*
X155314764Y-80182789D01*
X155321813Y-80180817D01*
X155323215Y-80180595D01*
X155323904Y-80180518D01*
X155325707Y-80180208D01*
X155326564Y-80180009D01*
X155327773Y-80179784D01*
X155335072Y-80179291D01*
X155408327Y-80156658D01*
X155411528Y-80155716D01*
X155478830Y-80136886D01*
X155478834Y-80136885D01*
X155485880Y-80134913D01*
X155492286Y-80131372D01*
X155493595Y-80130836D01*
X155494252Y-80130600D01*
X155495935Y-80129884D01*
X155496700Y-80129505D01*
X155497853Y-80128996D01*
X155504840Y-80126837D01*
X155566276Y-80090692D01*
X155570869Y-80087990D01*
X155573809Y-80086313D01*
X155634988Y-80052498D01*
X155641393Y-80048958D01*
X155646815Y-80044037D01*
X155647969Y-80043211D01*
X155648551Y-80042833D01*
X155650016Y-80041754D01*
X155650685Y-80041199D01*
X155651677Y-80040448D01*
X155657988Y-80036735D01*
X155713343Y-79983708D01*
X155715817Y-79981401D01*
X155768806Y-79933301D01*
X155768807Y-79933300D01*
X155772959Y-79929531D01*
X155779812Y-79920622D01*
X155779825Y-79920632D01*
X155781637Y-79918286D01*
X155786300Y-79913819D01*
X155830632Y-79845373D01*
X155831900Y-79843455D01*
X156578457Y-78737442D01*
X157135524Y-77912157D01*
X157148484Y-77896001D01*
X157154278Y-77889885D01*
X157154284Y-77889877D01*
X157159316Y-77884565D01*
X157189057Y-77833362D01*
X157193576Y-77826153D01*
X157199438Y-77817469D01*
X157199440Y-77817466D01*
X157201479Y-77814445D01*
X157206311Y-77805111D01*
X157211828Y-77794454D01*
X157214757Y-77789115D01*
X157248562Y-77730917D01*
X157250683Y-77723915D01*
X157251024Y-77723130D01*
X157258899Y-77703743D01*
X157259207Y-77702930D01*
X157262574Y-77696425D01*
X157278942Y-77631113D01*
X157280555Y-77625283D01*
X157300067Y-77560859D01*
X157300521Y-77553546D01*
X157300677Y-77552676D01*
X157303879Y-77532014D01*
X157303989Y-77531171D01*
X157305769Y-77524068D01*
X157306673Y-77456756D01*
X157306904Y-77450652D01*
X157307300Y-77444275D01*
X157311069Y-77383513D01*
X157309829Y-77376297D01*
X157309781Y-77375408D01*
X157308140Y-77354520D01*
X157308057Y-77353712D01*
X157308155Y-77346397D01*
X157301434Y-77316156D01*
X157293553Y-77280695D01*
X157292372Y-77274698D01*
X157285322Y-77233672D01*
X157280978Y-77208393D01*
X157278112Y-77201658D01*
X157277876Y-77200856D01*
X157271471Y-77180891D01*
X157271190Y-77180082D01*
X157269603Y-77172943D01*
X157240269Y-77112346D01*
X157237762Y-77106829D01*
X157211408Y-77044893D01*
X157207071Y-77038999D01*
X157206631Y-77038228D01*
X157195816Y-77020295D01*
X157195372Y-77019598D01*
X157192183Y-77013010D01*
X157187569Y-77007338D01*
X157187566Y-77007334D01*
X157149702Y-76960794D01*
X157145961Y-76955960D01*
X157106090Y-76901782D01*
X157100513Y-76897044D01*
X157099931Y-76896420D01*
X157085306Y-76881479D01*
X157084668Y-76880858D01*
X157080046Y-76875177D01*
X157074238Y-76870709D01*
X157026700Y-76834140D01*
X157021947Y-76830297D01*
X156976255Y-76791479D01*
X156976253Y-76791478D01*
X156970674Y-76786738D01*
X156964152Y-76783408D01*
X156963431Y-76782927D01*
X156945757Y-76771749D01*
X156945011Y-76771302D01*
X156939208Y-76766838D01*
X156932537Y-76763830D01*
X156932535Y-76763829D01*
X156877869Y-76739182D01*
X156872357Y-76736534D01*
X156818947Y-76709261D01*
X156818945Y-76709260D01*
X156812425Y-76705931D01*
X156805311Y-76704190D01*
X156804517Y-76703895D01*
X156784736Y-76697080D01*
X156783899Y-76696814D01*
X156777225Y-76693805D01*
X156711165Y-76681001D01*
X156705193Y-76679692D01*
X156677922Y-76673019D01*
X156639830Y-76663698D01*
X156634228Y-76663350D01*
X156634225Y-76663350D01*
X156630554Y-76663122D01*
X156630538Y-76663122D01*
X156628612Y-76663002D01*
X156626790Y-76663002D01*
X156617242Y-76661936D01*
X156609973Y-76661387D01*
X156602786Y-76659994D01*
X156532760Y-76662844D01*
X156531436Y-76662898D01*
X156526312Y-76663002D01*
X153918394Y-76663002D01*
X153897750Y-76661299D01*
X153882210Y-76658718D01*
X153874905Y-76659212D01*
X153874904Y-76659212D01*
X153823116Y-76662715D01*
X153814613Y-76663002D01*
X153800506Y-76663002D01*
X153778156Y-76665608D01*
X153772093Y-76666166D01*
X153750520Y-76667625D01*
X153712227Y-76670215D01*
X153712224Y-76670216D01*
X153704928Y-76670709D01*
X153697937Y-76672869D01*
X153697130Y-76673019D01*
X153676641Y-76677340D01*
X153675778Y-76677544D01*
X153668504Y-76678392D01*
X153605231Y-76701359D01*
X153599462Y-76703296D01*
X153535160Y-76723163D01*
X153528851Y-76726875D01*
X153528035Y-76727235D01*
X153509118Y-76736141D01*
X153508358Y-76736521D01*
X153501480Y-76739018D01*
X153495363Y-76743028D01*
X153495358Y-76743031D01*
X153445181Y-76775929D01*
X153439988Y-76779156D01*
X153388354Y-76809534D01*
X153382012Y-76813265D01*
X153376725Y-76818330D01*
X153376006Y-76818874D01*
X153359674Y-76831871D01*
X153359010Y-76832426D01*
X153352883Y-76836443D01*
X153347850Y-76841756D01*
X153347844Y-76841761D01*
X153306599Y-76885300D01*
X153302289Y-76889635D01*
X153277307Y-76913567D01*
X153253700Y-76936181D01*
X153249720Y-76942326D01*
X153249161Y-76943002D01*
X153236235Y-76959434D01*
X153235718Y-76960125D01*
X153230684Y-76965439D01*
X153196885Y-77023628D01*
X153193696Y-77028824D01*
X153161086Y-77079171D01*
X153161082Y-77079180D01*
X153157106Y-77085318D01*
X153154647Y-77092213D01*
X153154255Y-77093006D01*
X153145455Y-77111972D01*
X153145111Y-77112764D01*
X153141438Y-77119087D01*
X153139317Y-77126090D01*
X153121933Y-77183489D01*
X153120019Y-77189297D01*
X153097412Y-77252678D01*
X153096606Y-77259947D01*
X153096417Y-77260765D01*
X153092208Y-77281285D01*
X153092054Y-77282143D01*
X153089933Y-77289145D01*
X153086381Y-77346397D01*
X153085767Y-77356296D01*
X153085241Y-77362386D01*
X153077820Y-77429282D01*
X151188576Y-77429282D01*
X151194543Y-77417596D01*
X151196284Y-77410482D01*
X151198416Y-77404748D01*
X151200344Y-77398952D01*
X151203444Y-77392320D01*
X151218395Y-77320440D01*
X151219365Y-77316156D01*
X151224187Y-77296450D01*
X151236804Y-77244888D01*
X151237500Y-77233670D01*
X151237537Y-77233672D01*
X151237773Y-77229773D01*
X151238163Y-77225402D01*
X151239652Y-77218243D01*
X151237546Y-77140423D01*
X151237500Y-77137014D01*
X151237500Y-72138500D01*
X151257502Y-72070379D01*
X151311158Y-72023886D01*
X151363500Y-72012500D01*
X158706972Y-72012500D01*
X158775093Y-72032502D01*
X158796067Y-72049405D01*
X159650595Y-72903933D01*
X159684621Y-72966245D01*
X159687500Y-72993028D01*
X159687500Y-86012256D01*
X159667498Y-86080377D01*
X159644577Y-86106988D01*
X159593621Y-86151675D01*
X159593617Y-86151679D01*
X159589275Y-86155487D01*
X159463148Y-86315478D01*
X159460459Y-86320589D01*
X159460457Y-86320592D01*
X159435597Y-86367844D01*
X159368289Y-86495775D01*
X159307875Y-86690340D01*
X159283929Y-86892656D01*
X159297254Y-87095948D01*
X159347402Y-87293407D01*
X159432695Y-87478421D01*
X159550276Y-87644794D01*
X159554410Y-87648821D01*
X159675179Y-87766469D01*
X159696207Y-87786954D01*
X159701003Y-87790159D01*
X159701006Y-87790161D01*
X159813672Y-87865442D01*
X159865600Y-87900139D01*
X159870903Y-87902417D01*
X159870906Y-87902419D01*
X160011842Y-87962970D01*
X160052784Y-87980560D01*
X160125614Y-87997040D01*
X160245852Y-88024247D01*
X160245857Y-88024248D01*
X160251489Y-88025522D01*
X160257260Y-88025749D01*
X160257262Y-88025749D01*
X160320267Y-88028224D01*
X160455060Y-88033520D01*
X160656680Y-88004287D01*
X160662144Y-88002432D01*
X160662149Y-88002431D01*
X160844124Y-87940659D01*
X160844129Y-87940657D01*
X160849596Y-87938801D01*
X160857325Y-87934473D01*
X160945557Y-87885060D01*
X161027348Y-87839255D01*
X161183983Y-87708983D01*
X161314255Y-87552348D01*
X161413801Y-87374596D01*
X161415657Y-87369129D01*
X161415659Y-87369124D01*
X161477431Y-87187149D01*
X161477432Y-87187144D01*
X161479287Y-87181680D01*
X161508520Y-86980060D01*
X161510046Y-86921797D01*
X161504486Y-86861283D01*
X161500025Y-86812731D01*
X161513710Y-86743066D01*
X161562887Y-86691859D01*
X161631941Y-86675368D01*
X161675234Y-86685436D01*
X161760913Y-86722247D01*
X161760922Y-86722250D01*
X161766229Y-86724530D01*
X161839059Y-86741010D01*
X161959297Y-86768217D01*
X161959302Y-86768218D01*
X161964934Y-86769492D01*
X161970705Y-86769719D01*
X161970707Y-86769719D01*
X162033712Y-86772194D01*
X162168505Y-86777490D01*
X162370125Y-86748257D01*
X162375589Y-86746402D01*
X162375594Y-86746401D01*
X162557569Y-86684629D01*
X162557574Y-86684627D01*
X162563041Y-86682771D01*
X162592333Y-86666367D01*
X162646917Y-86635798D01*
X162740793Y-86583225D01*
X162897428Y-86452953D01*
X162964719Y-86372044D01*
X162987463Y-86344698D01*
X163046401Y-86305114D01*
X163084337Y-86299267D01*
X164266285Y-86299267D01*
X164334406Y-86319269D01*
X164373718Y-86359432D01*
X164441998Y-86470855D01*
X164588261Y-86639705D01*
X164691969Y-86725805D01*
X164753226Y-86776661D01*
X164760137Y-86782399D01*
X164812044Y-86812731D01*
X164833456Y-86825243D01*
X164882180Y-86876881D01*
X164895251Y-86946664D01*
X164868520Y-87012436D01*
X164828066Y-87045794D01*
X164815618Y-87052274D01*
X164811485Y-87055377D01*
X164811482Y-87055379D01*
X164650875Y-87175966D01*
X164636976Y-87186402D01*
X164633404Y-87190140D01*
X164505109Y-87324393D01*
X164482640Y-87347905D01*
X164479726Y-87352177D01*
X164479725Y-87352178D01*
X164459322Y-87382088D01*
X164356754Y-87532447D01*
X164316469Y-87619235D01*
X164268542Y-87722485D01*
X164262699Y-87735072D01*
X164203000Y-87950337D01*
X164179262Y-88172462D01*
X164179559Y-88177615D01*
X164179559Y-88177618D01*
X164185195Y-88275364D01*
X164192121Y-88395482D01*
X164193258Y-88400528D01*
X164193259Y-88400534D01*
X164213130Y-88488706D01*
X164241233Y-88613406D01*
X164301025Y-88760657D01*
X164318673Y-88804118D01*
X164325277Y-88820383D01*
X164441998Y-89010855D01*
X164588261Y-89179705D01*
X164760137Y-89322399D01*
X164830606Y-89363578D01*
X164833456Y-89365243D01*
X164882180Y-89416881D01*
X164895251Y-89486664D01*
X164868520Y-89552436D01*
X164828066Y-89585794D01*
X164815618Y-89592274D01*
X164811485Y-89595377D01*
X164811482Y-89595379D01*
X164787258Y-89613567D01*
X164636976Y-89726402D01*
X164482640Y-89887905D01*
X164479726Y-89892177D01*
X164479725Y-89892178D01*
X164367106Y-90057271D01*
X164312195Y-90102274D01*
X164263018Y-90112267D01*
X152510362Y-90112267D01*
X152442241Y-90092265D01*
X152421267Y-90075362D01*
X152328598Y-89982693D01*
X152294572Y-89920381D01*
X152291693Y-89893598D01*
X152291693Y-86888492D01*
X153727213Y-86888492D01*
X153727510Y-86893645D01*
X153727510Y-86893648D01*
X153737884Y-87073567D01*
X153740072Y-87111512D01*
X153741209Y-87116558D01*
X153741210Y-87116564D01*
X153756949Y-87186402D01*
X153789184Y-87329436D01*
X153873228Y-87536413D01*
X153920884Y-87614181D01*
X153987253Y-87722485D01*
X153989949Y-87726885D01*
X154136212Y-87895735D01*
X154239283Y-87981306D01*
X154301177Y-88032691D01*
X154308088Y-88038429D01*
X154500962Y-88151135D01*
X154709654Y-88230827D01*
X154714722Y-88231858D01*
X154714725Y-88231859D01*
X154821979Y-88253680D01*
X154928559Y-88275364D01*
X154933734Y-88275554D01*
X154933736Y-88275554D01*
X155146635Y-88283361D01*
X155146639Y-88283361D01*
X155151799Y-88283550D01*
X155156919Y-88282894D01*
X155156921Y-88282894D01*
X155368250Y-88255822D01*
X155368251Y-88255822D01*
X155373378Y-88255165D01*
X155378328Y-88253680D01*
X155582391Y-88192458D01*
X155582396Y-88192456D01*
X155587346Y-88190971D01*
X155787956Y-88092693D01*
X155969822Y-87962970D01*
X155996910Y-87935977D01*
X156097681Y-87835557D01*
X156128058Y-87805286D01*
X156138927Y-87790161D01*
X156258415Y-87623874D01*
X156259738Y-87624825D01*
X156306607Y-87581654D01*
X156376542Y-87569422D01*
X156441988Y-87596941D01*
X156469837Y-87628791D01*
X156529949Y-87726885D01*
X156676212Y-87895735D01*
X156779283Y-87981306D01*
X156841177Y-88032691D01*
X156848088Y-88038429D01*
X157040962Y-88151135D01*
X157249654Y-88230827D01*
X157254722Y-88231858D01*
X157254725Y-88231859D01*
X157361979Y-88253680D01*
X157468559Y-88275364D01*
X157473734Y-88275554D01*
X157473736Y-88275554D01*
X157686635Y-88283361D01*
X157686639Y-88283361D01*
X157691799Y-88283550D01*
X157696919Y-88282894D01*
X157696921Y-88282894D01*
X157908250Y-88255822D01*
X157908251Y-88255822D01*
X157913378Y-88255165D01*
X157918328Y-88253680D01*
X158122391Y-88192458D01*
X158122396Y-88192456D01*
X158127346Y-88190971D01*
X158327956Y-88092693D01*
X158509822Y-87962970D01*
X158536910Y-87935977D01*
X158637681Y-87835557D01*
X158668058Y-87805286D01*
X158678927Y-87790161D01*
X158795397Y-87628074D01*
X158798415Y-87623874D01*
X158819282Y-87581654D01*
X158895098Y-87428250D01*
X158895099Y-87428248D01*
X158897392Y-87423608D01*
X158962332Y-87209866D01*
X158991491Y-86988387D01*
X158991605Y-86983734D01*
X158993036Y-86925162D01*
X158993036Y-86925158D01*
X158993118Y-86921797D01*
X158974814Y-86699158D01*
X158920393Y-86482499D01*
X158831316Y-86277637D01*
X158752294Y-86155487D01*
X158712784Y-86094414D01*
X158712782Y-86094411D01*
X158709976Y-86090074D01*
X158559632Y-85924848D01*
X158555581Y-85921649D01*
X158555577Y-85921645D01*
X158388376Y-85789597D01*
X158388372Y-85789595D01*
X158384321Y-85786395D01*
X158342531Y-85763326D01*
X158292560Y-85712894D01*
X158277788Y-85643451D01*
X158302904Y-85577045D01*
X158330256Y-85550438D01*
X158505290Y-85425589D01*
X158513162Y-85418936D01*
X158664014Y-85268609D01*
X158670692Y-85260762D01*
X158794965Y-85087817D01*
X158800275Y-85078980D01*
X158894632Y-84888064D01*
X158898431Y-84878469D01*
X158960339Y-84674707D01*
X158962517Y-84664634D01*
X158963948Y-84653759D01*
X158961737Y-84639575D01*
X158948579Y-84635797D01*
X157501962Y-84635797D01*
X157433841Y-84615795D01*
X157387348Y-84562139D01*
X157375962Y-84509797D01*
X157375962Y-84253797D01*
X157395964Y-84185676D01*
X157449620Y-84139183D01*
X157501962Y-84127797D01*
X158948306Y-84127797D01*
X158961837Y-84123824D01*
X158963142Y-84114744D01*
X158921176Y-83947672D01*
X158917856Y-83937921D01*
X158832934Y-83742611D01*
X158828067Y-83733536D01*
X158712388Y-83554723D01*
X158706098Y-83546554D01*
X158562768Y-83389037D01*
X158555235Y-83382012D01*
X158388101Y-83250019D01*
X158379518Y-83244317D01*
X158342564Y-83223917D01*
X158292593Y-83173484D01*
X158277821Y-83104042D01*
X158302937Y-83037636D01*
X158330289Y-83011029D01*
X158353759Y-82994288D01*
X158509822Y-82882970D01*
X158536910Y-82855977D01*
X158653578Y-82739715D01*
X158668058Y-82725286D01*
X158678927Y-82710161D01*
X158795397Y-82548074D01*
X158798415Y-82543874D01*
X158823896Y-82492318D01*
X158895098Y-82348250D01*
X158895099Y-82348248D01*
X158897392Y-82343608D01*
X158955478Y-82152426D01*
X158960827Y-82134820D01*
X158960827Y-82134818D01*
X158962332Y-82129866D01*
X158991491Y-81908387D01*
X158991605Y-81903734D01*
X158993036Y-81845162D01*
X158993036Y-81845158D01*
X158993118Y-81841797D01*
X158974814Y-81619158D01*
X158920393Y-81402499D01*
X158831316Y-81197637D01*
X158749832Y-81071682D01*
X158712784Y-81014414D01*
X158712782Y-81014411D01*
X158709976Y-81010074D01*
X158559632Y-80844848D01*
X158555581Y-80841649D01*
X158555577Y-80841645D01*
X158388376Y-80709597D01*
X158388372Y-80709595D01*
X158384321Y-80706395D01*
X158188751Y-80598435D01*
X158183882Y-80596711D01*
X158183878Y-80596709D01*
X157983049Y-80525592D01*
X157983045Y-80525591D01*
X157978174Y-80523866D01*
X157973081Y-80522959D01*
X157973078Y-80522958D01*
X157763335Y-80485597D01*
X157763329Y-80485596D01*
X157758246Y-80484691D01*
X157684414Y-80483789D01*
X157540043Y-80482025D01*
X157540041Y-80482025D01*
X157534873Y-80481962D01*
X157314053Y-80515752D01*
X157101718Y-80585154D01*
X156903569Y-80688304D01*
X156899436Y-80691407D01*
X156899433Y-80691409D01*
X156738027Y-80812596D01*
X156724927Y-80822432D01*
X156668499Y-80881481D01*
X156644245Y-80906861D01*
X156582721Y-80942291D01*
X156511808Y-80938834D01*
X156454022Y-80897588D01*
X156435169Y-80864040D01*
X156393729Y-80753500D01*
X156390577Y-80745092D01*
X156303223Y-80628536D01*
X156186667Y-80541182D01*
X156050278Y-80490052D01*
X155988096Y-80483297D01*
X154191828Y-80483297D01*
X154129646Y-80490052D01*
X153993257Y-80541182D01*
X153876701Y-80628536D01*
X153789347Y-80745092D01*
X153738217Y-80881481D01*
X153731462Y-80943663D01*
X153731462Y-82739931D01*
X153738217Y-82802113D01*
X153789347Y-82938502D01*
X153876701Y-83055058D01*
X153993257Y-83142412D01*
X154001666Y-83145564D01*
X154001667Y-83145565D01*
X154110413Y-83186332D01*
X154167178Y-83228973D01*
X154191878Y-83295535D01*
X154176671Y-83364884D01*
X154157278Y-83391365D01*
X154135804Y-83413836D01*
X154054805Y-83498597D01*
X154030591Y-83523935D01*
X154027677Y-83528207D01*
X154027676Y-83528208D01*
X154015371Y-83546247D01*
X153904705Y-83708477D01*
X153810650Y-83911102D01*
X153750951Y-84126367D01*
X153727213Y-84348492D01*
X153727510Y-84353645D01*
X153727510Y-84353648D01*
X153737884Y-84533567D01*
X153740072Y-84571512D01*
X153741209Y-84576558D01*
X153741210Y-84576564D01*
X153756949Y-84646402D01*
X153789184Y-84789436D01*
X153873228Y-84996413D01*
X153888667Y-85021607D01*
X153981241Y-85172674D01*
X153989949Y-85186885D01*
X154136212Y-85355735D01*
X154308088Y-85498429D01*
X154378557Y-85539608D01*
X154381407Y-85541273D01*
X154430131Y-85592911D01*
X154443202Y-85662694D01*
X154416471Y-85728466D01*
X154376017Y-85761824D01*
X154363569Y-85768304D01*
X154359436Y-85771407D01*
X154359433Y-85771409D01*
X154189062Y-85899327D01*
X154184927Y-85902432D01*
X154030591Y-86063935D01*
X154027682Y-86068200D01*
X154027676Y-86068208D01*
X154019375Y-86080377D01*
X153904705Y-86248477D01*
X153810650Y-86451102D01*
X153750951Y-86666367D01*
X153727213Y-86888492D01*
X152291693Y-86888492D01*
X152291693Y-85355892D01*
X152311695Y-85287771D01*
X152337124Y-85259018D01*
X152440941Y-85172674D01*
X152445379Y-85168983D01*
X152575651Y-85012348D01*
X152675197Y-84834596D01*
X152677053Y-84829129D01*
X152677055Y-84829124D01*
X152738827Y-84647149D01*
X152738828Y-84647144D01*
X152740683Y-84641680D01*
X152769916Y-84440060D01*
X152771442Y-84381797D01*
X152758836Y-84244598D01*
X152753330Y-84184677D01*
X152753329Y-84184674D01*
X152752801Y-84178923D01*
X152738382Y-84127797D01*
X152699068Y-83988403D01*
X152699067Y-83988401D01*
X152697500Y-83982844D01*
X152686873Y-83961293D01*
X152609949Y-83805307D01*
X152607394Y-83800126D01*
X152588989Y-83775478D01*
X152488951Y-83641512D01*
X152488951Y-83641511D01*
X152485498Y-83636888D01*
X152391583Y-83550074D01*
X152340136Y-83502516D01*
X152340133Y-83502514D01*
X152335896Y-83498597D01*
X152209409Y-83418790D01*
X152168481Y-83392966D01*
X152168476Y-83392964D01*
X152163597Y-83389885D01*
X151974373Y-83314392D01*
X151774559Y-83274646D01*
X151768785Y-83274570D01*
X151768781Y-83274570D01*
X151665645Y-83273221D01*
X151570848Y-83271980D01*
X151565151Y-83272959D01*
X151565150Y-83272959D01*
X151433765Y-83295535D01*
X151370063Y-83306481D01*
X151178927Y-83376995D01*
X151003842Y-83481160D01*
X150850671Y-83615487D01*
X150847104Y-83620012D01*
X150847099Y-83620017D01*
X150800360Y-83679306D01*
X150724544Y-83775478D01*
X150721855Y-83780589D01*
X150721853Y-83780592D01*
X150696993Y-83827844D01*
X150629685Y-83955775D01*
X150569271Y-84150340D01*
X150545325Y-84352656D01*
X150558650Y-84555948D01*
X150608798Y-84753407D01*
X150694091Y-84938421D01*
X150811672Y-85104794D01*
X150815806Y-85108821D01*
X150936575Y-85226469D01*
X150957603Y-85246954D01*
X150968693Y-85254364D01*
X151014221Y-85308839D01*
X151024693Y-85359130D01*
X151024693Y-90129426D01*
X151024166Y-90140609D01*
X151022491Y-90148102D01*
X151022740Y-90156028D01*
X151022740Y-90156029D01*
X151024631Y-90216179D01*
X151024693Y-90220138D01*
X151024693Y-90248049D01*
X151025190Y-90251983D01*
X151025190Y-90251984D01*
X151025198Y-90252049D01*
X151026131Y-90263886D01*
X151027520Y-90308082D01*
X151033171Y-90327532D01*
X151037180Y-90346893D01*
X151039719Y-90366990D01*
X151042638Y-90374361D01*
X151042638Y-90374363D01*
X151055997Y-90408105D01*
X151059842Y-90419335D01*
X151072175Y-90461786D01*
X151076208Y-90468605D01*
X151076210Y-90468610D01*
X151082486Y-90479221D01*
X151091181Y-90496969D01*
X151098641Y-90515810D01*
X151103303Y-90522226D01*
X151103303Y-90522227D01*
X151124629Y-90551580D01*
X151131145Y-90561500D01*
X151153651Y-90599555D01*
X151167972Y-90613876D01*
X151180812Y-90628909D01*
X151192721Y-90645300D01*
X151198827Y-90650351D01*
X151226798Y-90673491D01*
X151235577Y-90681481D01*
X151692110Y-91138014D01*
X151699654Y-91146304D01*
X151703767Y-91152785D01*
X151709544Y-91158210D01*
X151753434Y-91199425D01*
X151756276Y-91202180D01*
X151775997Y-91221901D01*
X151779192Y-91224379D01*
X151788214Y-91232085D01*
X151820446Y-91262353D01*
X151827395Y-91266173D01*
X151838199Y-91272113D01*
X151854723Y-91282966D01*
X151870726Y-91295380D01*
X151911310Y-91312943D01*
X151921940Y-91318150D01*
X151960707Y-91339462D01*
X151968384Y-91341433D01*
X151968389Y-91341435D01*
X151980325Y-91344499D01*
X151999033Y-91350904D01*
X152017622Y-91358948D01*
X152025447Y-91360187D01*
X152025449Y-91360188D01*
X152061286Y-91365864D01*
X152072907Y-91368271D01*
X152108056Y-91377295D01*
X152115737Y-91379267D01*
X152135998Y-91379267D01*
X152155707Y-91380818D01*
X152175710Y-91383986D01*
X152183602Y-91383240D01*
X152188829Y-91382746D01*
X152219721Y-91379826D01*
X152231578Y-91379267D01*
X164266285Y-91379267D01*
X164334406Y-91399269D01*
X164373718Y-91439432D01*
X164441998Y-91550855D01*
X164588261Y-91719705D01*
X164760137Y-91862399D01*
X164830606Y-91903578D01*
X164833456Y-91905243D01*
X164882180Y-91956881D01*
X164895251Y-92026664D01*
X164868520Y-92092436D01*
X164828066Y-92125794D01*
X164815618Y-92132274D01*
X164811485Y-92135377D01*
X164811482Y-92135379D01*
X164787258Y-92153567D01*
X164636976Y-92266402D01*
X164482640Y-92427905D01*
X164356754Y-92612447D01*
X164262699Y-92815072D01*
X164203000Y-93030337D01*
X164179262Y-93252462D01*
X164179559Y-93257615D01*
X164179559Y-93257618D01*
X164185022Y-93352357D01*
X164192121Y-93475482D01*
X164193258Y-93480528D01*
X164193259Y-93480534D01*
X164213130Y-93568706D01*
X164241233Y-93693406D01*
X164325277Y-93900383D01*
X164441998Y-94090855D01*
X164588261Y-94259705D01*
X164760137Y-94402399D01*
X164953011Y-94515105D01*
X165161703Y-94594797D01*
X165166771Y-94595828D01*
X165166774Y-94595829D01*
X165274028Y-94617650D01*
X165380608Y-94639334D01*
X165385783Y-94639524D01*
X165385785Y-94639524D01*
X165598684Y-94647331D01*
X165598688Y-94647331D01*
X165603848Y-94647520D01*
X165608968Y-94646864D01*
X165608970Y-94646864D01*
X165820299Y-94619792D01*
X165820300Y-94619792D01*
X165825427Y-94619135D01*
X165830377Y-94617650D01*
X166034440Y-94556428D01*
X166034445Y-94556426D01*
X166039395Y-94554941D01*
X166240005Y-94456663D01*
X166421871Y-94326940D01*
X166580107Y-94169256D01*
X166639605Y-94086456D01*
X166707446Y-93992044D01*
X166710464Y-93987844D01*
X166809441Y-93787578D01*
X166874381Y-93573836D01*
X166903540Y-93352357D01*
X166905167Y-93285767D01*
X166886863Y-93063128D01*
X166832442Y-92846469D01*
X166743365Y-92641607D01*
X166622025Y-92454044D01*
X166471681Y-92288818D01*
X166467630Y-92285619D01*
X166467626Y-92285615D01*
X166300425Y-92153567D01*
X166300421Y-92153565D01*
X166296370Y-92150365D01*
X166255064Y-92127563D01*
X166205095Y-92077131D01*
X166190323Y-92007688D01*
X166215439Y-91941283D01*
X166242791Y-91914676D01*
X166286614Y-91883417D01*
X166421871Y-91786940D01*
X166580107Y-91629256D01*
X166639605Y-91546456D01*
X166707446Y-91452044D01*
X166710464Y-91447844D01*
X166714622Y-91439432D01*
X166807147Y-91252220D01*
X166807148Y-91252218D01*
X166809441Y-91247578D01*
X166874381Y-91033836D01*
X166903540Y-90812357D01*
X166905167Y-90745767D01*
X166886863Y-90523128D01*
X166832442Y-90306469D01*
X166743365Y-90101607D01*
X166622025Y-89914044D01*
X166471681Y-89748818D01*
X166467630Y-89745619D01*
X166467626Y-89745615D01*
X166300425Y-89613567D01*
X166300421Y-89613565D01*
X166296370Y-89610365D01*
X166255064Y-89587563D01*
X166205095Y-89537131D01*
X166190323Y-89467688D01*
X166215439Y-89401283D01*
X166242791Y-89374676D01*
X166286614Y-89343417D01*
X166421871Y-89246940D01*
X166580107Y-89089256D01*
X166639605Y-89006456D01*
X166707446Y-88912044D01*
X166710464Y-88907844D01*
X166714156Y-88900375D01*
X166807147Y-88712220D01*
X166807148Y-88712218D01*
X166809441Y-88707578D01*
X166874381Y-88493836D01*
X166903540Y-88272357D01*
X166903960Y-88255165D01*
X166905085Y-88209132D01*
X166905085Y-88209128D01*
X166905167Y-88205767D01*
X166886863Y-87983128D01*
X166832442Y-87766469D01*
X166743365Y-87561607D01*
X166703917Y-87500629D01*
X166624833Y-87378384D01*
X166624831Y-87378381D01*
X166622025Y-87374044D01*
X166471681Y-87208818D01*
X166467630Y-87205619D01*
X166467626Y-87205615D01*
X166300425Y-87073567D01*
X166300421Y-87073565D01*
X166296370Y-87070365D01*
X166255064Y-87047563D01*
X166205095Y-86997131D01*
X166190323Y-86927688D01*
X166215439Y-86861283D01*
X166242791Y-86834676D01*
X166286614Y-86803417D01*
X166421871Y-86706940D01*
X166444066Y-86684823D01*
X166576446Y-86552904D01*
X166580107Y-86549256D01*
X166628077Y-86482499D01*
X166707446Y-86372044D01*
X166710464Y-86367844D01*
X166714622Y-86359432D01*
X166807147Y-86172220D01*
X166807148Y-86172218D01*
X166809441Y-86167578D01*
X166874381Y-85953836D01*
X166903540Y-85732357D01*
X166904016Y-85712894D01*
X166905085Y-85669132D01*
X166905085Y-85669128D01*
X166905167Y-85665767D01*
X166886863Y-85443128D01*
X166832442Y-85226469D01*
X166743365Y-85021607D01*
X166703917Y-84960629D01*
X166624833Y-84838384D01*
X166624831Y-84838381D01*
X166622025Y-84834044D01*
X166471681Y-84668818D01*
X166467630Y-84665619D01*
X166467626Y-84665615D01*
X166300425Y-84533567D01*
X166300421Y-84533565D01*
X166296370Y-84530365D01*
X166255064Y-84507563D01*
X166205095Y-84457131D01*
X166190323Y-84387688D01*
X166215439Y-84321283D01*
X166242791Y-84294676D01*
X166300101Y-84253797D01*
X166421871Y-84166940D01*
X166444066Y-84144823D01*
X166576446Y-84012904D01*
X166580107Y-84009256D01*
X166628077Y-83942499D01*
X166707446Y-83832044D01*
X166710464Y-83827844D01*
X166721603Y-83805307D01*
X166807147Y-83632220D01*
X166807148Y-83632218D01*
X166809441Y-83627578D01*
X166874381Y-83413836D01*
X166903540Y-83192357D01*
X166903687Y-83186332D01*
X166905085Y-83129132D01*
X166905085Y-83129128D01*
X166905167Y-83125767D01*
X166886863Y-82903128D01*
X166832442Y-82686469D01*
X166743365Y-82481607D01*
X166691684Y-82401720D01*
X166624833Y-82298384D01*
X166624831Y-82298381D01*
X166622025Y-82294044D01*
X166471681Y-82128818D01*
X166467630Y-82125619D01*
X166467626Y-82125615D01*
X166300425Y-81993567D01*
X166300421Y-81993565D01*
X166296370Y-81990365D01*
X166255064Y-81967563D01*
X166205095Y-81917131D01*
X166190323Y-81847688D01*
X166215439Y-81781283D01*
X166242791Y-81754676D01*
X166286614Y-81723417D01*
X166421871Y-81626940D01*
X166580107Y-81469256D01*
X166628077Y-81402499D01*
X166707446Y-81292044D01*
X166710464Y-81287844D01*
X166714675Y-81279325D01*
X166807147Y-81092220D01*
X166807148Y-81092218D01*
X166809441Y-81087578D01*
X166864347Y-80906861D01*
X166872876Y-80878790D01*
X166872876Y-80878788D01*
X166874381Y-80873836D01*
X166903540Y-80652357D01*
X166904122Y-80628536D01*
X166905085Y-80589132D01*
X166905085Y-80589128D01*
X166905167Y-80585767D01*
X166886863Y-80363128D01*
X166832442Y-80146469D01*
X166743365Y-79941607D01*
X166622025Y-79754044D01*
X166471681Y-79588818D01*
X166467630Y-79585619D01*
X166467626Y-79585615D01*
X166300425Y-79453567D01*
X166300421Y-79453565D01*
X166296370Y-79450365D01*
X166255064Y-79427563D01*
X166205095Y-79377131D01*
X166190323Y-79307688D01*
X166215439Y-79241283D01*
X166242791Y-79214676D01*
X166286614Y-79183417D01*
X166421871Y-79086940D01*
X166580107Y-78929256D01*
X166639605Y-78846456D01*
X166707446Y-78752044D01*
X166710464Y-78747844D01*
X166738088Y-78691952D01*
X166807147Y-78552220D01*
X166807148Y-78552218D01*
X166809441Y-78547578D01*
X166874381Y-78333836D01*
X166903540Y-78112357D01*
X166905167Y-78045767D01*
X166886863Y-77823128D01*
X166832442Y-77606469D01*
X166743365Y-77401607D01*
X166670610Y-77289145D01*
X166624833Y-77218384D01*
X166624831Y-77218381D01*
X166622025Y-77214044D01*
X166471681Y-77048818D01*
X166467630Y-77045619D01*
X166467626Y-77045615D01*
X166300425Y-76913567D01*
X166300421Y-76913565D01*
X166296370Y-76910365D01*
X166255064Y-76887563D01*
X166205095Y-76837131D01*
X166190323Y-76767688D01*
X166215439Y-76701283D01*
X166242791Y-76674676D01*
X166291974Y-76639594D01*
X166421871Y-76546940D01*
X166580107Y-76389256D01*
X166710464Y-76207844D01*
X166716126Y-76196389D01*
X166807147Y-76012220D01*
X166807148Y-76012218D01*
X166809441Y-76007578D01*
X166874381Y-75793836D01*
X166903540Y-75572357D01*
X166905167Y-75505767D01*
X166886863Y-75283128D01*
X166832442Y-75066469D01*
X166743365Y-74861607D01*
X166622025Y-74674044D01*
X166471681Y-74508818D01*
X166467630Y-74505619D01*
X166467626Y-74505615D01*
X166300425Y-74373567D01*
X166300421Y-74373565D01*
X166296370Y-74370365D01*
X166100800Y-74262405D01*
X166095931Y-74260681D01*
X166095927Y-74260679D01*
X165895098Y-74189562D01*
X165895094Y-74189561D01*
X165890223Y-74187836D01*
X165885130Y-74186929D01*
X165885127Y-74186928D01*
X165675384Y-74149567D01*
X165675378Y-74149566D01*
X165670295Y-74148661D01*
X165596463Y-74147759D01*
X165452092Y-74145995D01*
X165452090Y-74145995D01*
X165446922Y-74145932D01*
X165226102Y-74179722D01*
X165013767Y-74249124D01*
X164815618Y-74352274D01*
X164811485Y-74355377D01*
X164811482Y-74355379D01*
X164641111Y-74483297D01*
X164636976Y-74486402D01*
X164482640Y-74647905D01*
X164479726Y-74652177D01*
X164479725Y-74652178D01*
X164367779Y-74816285D01*
X164312868Y-74861288D01*
X164267650Y-74871219D01*
X164238342Y-74872140D01*
X164236265Y-74872205D01*
X164232308Y-74872267D01*
X164204377Y-74872267D01*
X164200462Y-74872762D01*
X164200458Y-74872762D01*
X164200400Y-74872770D01*
X164200371Y-74872773D01*
X164188529Y-74873706D01*
X164144343Y-74875094D01*
X164126977Y-74880139D01*
X164124891Y-74880745D01*
X164105539Y-74884753D01*
X164093301Y-74886299D01*
X164093299Y-74886300D01*
X164085436Y-74887293D01*
X164044319Y-74903573D01*
X164033118Y-74907408D01*
X163990639Y-74919749D01*
X163983820Y-74923782D01*
X163983815Y-74923784D01*
X163973204Y-74930060D01*
X163955454Y-74938757D01*
X163936616Y-74946215D01*
X163930200Y-74950876D01*
X163930199Y-74950877D01*
X163900858Y-74972195D01*
X163890934Y-74978714D01*
X163859693Y-74997189D01*
X163859688Y-74997193D01*
X163852870Y-75001225D01*
X163838546Y-75015549D01*
X163823514Y-75028388D01*
X163807126Y-75040295D01*
X163789401Y-75061721D01*
X163778945Y-75074360D01*
X163770955Y-75083140D01*
X163032747Y-75821348D01*
X163024461Y-75828888D01*
X163017982Y-75833000D01*
X163012557Y-75838777D01*
X162971357Y-75882651D01*
X162968602Y-75885493D01*
X162948865Y-75905230D01*
X162946385Y-75908427D01*
X162938682Y-75917447D01*
X162908414Y-75949679D01*
X162904595Y-75956625D01*
X162904593Y-75956628D01*
X162898652Y-75967434D01*
X162887801Y-75983953D01*
X162875386Y-75999959D01*
X162872241Y-76007228D01*
X162872238Y-76007232D01*
X162857826Y-76040537D01*
X162852609Y-76051187D01*
X162831305Y-76089940D01*
X162829334Y-76097615D01*
X162829334Y-76097616D01*
X162826267Y-76109562D01*
X162819863Y-76128266D01*
X162811819Y-76146855D01*
X162810580Y-76154678D01*
X162810577Y-76154688D01*
X162804901Y-76190524D01*
X162802495Y-76202144D01*
X162793472Y-76237289D01*
X162791500Y-76244970D01*
X162791500Y-76265224D01*
X162789949Y-76284934D01*
X162786780Y-76304943D01*
X162787526Y-76312835D01*
X162790941Y-76348961D01*
X162791500Y-76360819D01*
X162791500Y-80734467D01*
X162771498Y-80802588D01*
X162717842Y-80849081D01*
X162647568Y-80859185D01*
X162615937Y-80849157D01*
X162615646Y-80849885D01*
X162431791Y-80776534D01*
X162426422Y-80774392D01*
X162226608Y-80734646D01*
X162220834Y-80734570D01*
X162220830Y-80734570D01*
X162117694Y-80733221D01*
X162022897Y-80731980D01*
X162017200Y-80732959D01*
X162017199Y-80732959D01*
X161946589Y-80745092D01*
X161822112Y-80766481D01*
X161630976Y-80836995D01*
X161626015Y-80839947D01*
X161626014Y-80839947D01*
X161568639Y-80874082D01*
X161455891Y-80941160D01*
X161421576Y-80971254D01*
X161357172Y-81001129D01*
X161286840Y-80991443D01*
X161232909Y-80945269D01*
X161212500Y-80876520D01*
X161212500Y-72692377D01*
X161213933Y-72673427D01*
X161216124Y-72659028D01*
X161216124Y-72659022D01*
X161217224Y-72651793D01*
X161212915Y-72598818D01*
X161212500Y-72588603D01*
X161212500Y-72580475D01*
X161212078Y-72576853D01*
X161212077Y-72576840D01*
X161209191Y-72552086D01*
X161208758Y-72547710D01*
X161208304Y-72542119D01*
X161202809Y-72474574D01*
X161200553Y-72467612D01*
X161199357Y-72461624D01*
X161197949Y-72455667D01*
X161197101Y-72448393D01*
X161194603Y-72441511D01*
X161194602Y-72441507D01*
X161172055Y-72379393D01*
X161170645Y-72375289D01*
X161148013Y-72305425D01*
X161144213Y-72299162D01*
X161141675Y-72293620D01*
X161138933Y-72288144D01*
X161136434Y-72281259D01*
X161096185Y-72219868D01*
X161093870Y-72216200D01*
X161055773Y-72153419D01*
X161048333Y-72144995D01*
X161048362Y-72144969D01*
X161045762Y-72142038D01*
X161042958Y-72138684D01*
X161038946Y-72132565D01*
X160982413Y-72079011D01*
X160979972Y-72076634D01*
X159661810Y-70758472D01*
X159649423Y-70744059D01*
X159640795Y-70732335D01*
X159636454Y-70726436D01*
X159595945Y-70692021D01*
X159588429Y-70685091D01*
X159582685Y-70679347D01*
X159579811Y-70677073D01*
X159579804Y-70677067D01*
X159560289Y-70661628D01*
X159556885Y-70658837D01*
X159506528Y-70616055D01*
X159506524Y-70616052D01*
X159500949Y-70611316D01*
X159494432Y-70607988D01*
X159489368Y-70604611D01*
X159484144Y-70601384D01*
X159478400Y-70596840D01*
X159452109Y-70584552D01*
X159411918Y-70565768D01*
X159407967Y-70563837D01*
X159349117Y-70533787D01*
X159342596Y-70530457D01*
X159335481Y-70528716D01*
X159329735Y-70526579D01*
X159323952Y-70524655D01*
X159317321Y-70521556D01*
X159245443Y-70506606D01*
X159241171Y-70505639D01*
X159169888Y-70488196D01*
X159164289Y-70487849D01*
X159164285Y-70487848D01*
X159158670Y-70487500D01*
X159158672Y-70487461D01*
X159154771Y-70487228D01*
X159150412Y-70486839D01*
X159143244Y-70485348D01*
X159135927Y-70485546D01*
X159065423Y-70487454D01*
X159062014Y-70487500D01*
X148429067Y-70487500D01*
X148360946Y-70467498D01*
X148325855Y-70433772D01*
X148309359Y-70410214D01*
X148309357Y-70410212D01*
X148306198Y-70405700D01*
X148144300Y-70243802D01*
X148139792Y-70240645D01*
X148139789Y-70240643D01*
X147961253Y-70115631D01*
X147956749Y-70112477D01*
X147951765Y-70110153D01*
X147949472Y-70108829D01*
X147900479Y-70057447D01*
X147887043Y-69987733D01*
X147913429Y-69921822D01*
X147949472Y-69890591D01*
X147961002Y-69883934D01*
X148013048Y-69847491D01*
X148021424Y-69837012D01*
X148014356Y-69823566D01*
X147312812Y-69122022D01*
X147298868Y-69114408D01*
X147297035Y-69114539D01*
X147290420Y-69118790D01*
X146584923Y-69824287D01*
X146578493Y-69836062D01*
X146587789Y-69848077D01*
X146638998Y-69883934D01*
X146650528Y-69890591D01*
X146699521Y-69941973D01*
X146712958Y-70011687D01*
X146686571Y-70077598D01*
X146650528Y-70108829D01*
X146648235Y-70110153D01*
X146643251Y-70112477D01*
X146638747Y-70115631D01*
X146460211Y-70240643D01*
X146460208Y-70240645D01*
X146455700Y-70243802D01*
X146293802Y-70405700D01*
X146290645Y-70410208D01*
X146290643Y-70410211D01*
X146250530Y-70467498D01*
X146162477Y-70593251D01*
X146160154Y-70598233D01*
X146160151Y-70598238D01*
X146068039Y-70795775D01*
X146065716Y-70800757D01*
X146006457Y-71021913D01*
X145986502Y-71250000D01*
X146006457Y-71478087D01*
X146065716Y-71699243D01*
X146068039Y-71704224D01*
X146068039Y-71704225D01*
X146160151Y-71901762D01*
X146160154Y-71901767D01*
X146162477Y-71906749D01*
X146165634Y-71911257D01*
X146274146Y-72066228D01*
X146293802Y-72094300D01*
X146455700Y-72256198D01*
X146460208Y-72259355D01*
X146460211Y-72259357D01*
X146509144Y-72293620D01*
X146643251Y-72387523D01*
X146648233Y-72389846D01*
X146648238Y-72389849D01*
X146845775Y-72481961D01*
X146850757Y-72484284D01*
X146856065Y-72485706D01*
X146856067Y-72485707D01*
X147066598Y-72542119D01*
X147066600Y-72542119D01*
X147071913Y-72543543D01*
X147300000Y-72563498D01*
X147528087Y-72543543D01*
X147533400Y-72542119D01*
X147533402Y-72542119D01*
X147743933Y-72485707D01*
X147743935Y-72485706D01*
X147749243Y-72484284D01*
X147754225Y-72481961D01*
X147951762Y-72389849D01*
X147951767Y-72389846D01*
X147956749Y-72387523D01*
X148090856Y-72293620D01*
X148139789Y-72259357D01*
X148139792Y-72259355D01*
X148144300Y-72256198D01*
X148306198Y-72094300D01*
X148322948Y-72070379D01*
X148325855Y-72066228D01*
X148381312Y-72021900D01*
X148429067Y-72012500D01*
X149586500Y-72012500D01*
X149654621Y-72032502D01*
X149701114Y-72086158D01*
X149712500Y-72138500D01*
X149712500Y-76781972D01*
X149692498Y-76850093D01*
X149675595Y-76871067D01*
X149300300Y-77246362D01*
X149237988Y-77280388D01*
X149211205Y-77283267D01*
X148373346Y-77283267D01*
X148305225Y-77263265D01*
X148267553Y-77225706D01*
X148260009Y-77214044D01*
X148248009Y-77200856D01*
X148112793Y-77052255D01*
X148081741Y-76988409D01*
X148090136Y-76917910D01*
X148135312Y-76863142D01*
X148161756Y-76849473D01*
X148268292Y-76809534D01*
X148276700Y-76806382D01*
X148393256Y-76719028D01*
X148480610Y-76602472D01*
X148531740Y-76466083D01*
X148538495Y-76403901D01*
X148538495Y-74607633D01*
X148531740Y-74545451D01*
X148480610Y-74409062D01*
X148393256Y-74292506D01*
X148276700Y-74205152D01*
X148140311Y-74154022D01*
X148078129Y-74147267D01*
X146281861Y-74147267D01*
X146219679Y-74154022D01*
X146083290Y-74205152D01*
X145966734Y-74292506D01*
X145879380Y-74409062D01*
X145828250Y-74545451D01*
X145821495Y-74607633D01*
X145821495Y-76403901D01*
X145828250Y-76466083D01*
X145879380Y-76602472D01*
X145966734Y-76719028D01*
X146083290Y-76806382D01*
X146091699Y-76809534D01*
X146091700Y-76809535D01*
X146200446Y-76850302D01*
X146257211Y-76892943D01*
X146281911Y-76959505D01*
X146266704Y-77028854D01*
X146247311Y-77055335D01*
X146120624Y-77187905D01*
X146117710Y-77192177D01*
X146117709Y-77192178D01*
X146080747Y-77246362D01*
X145994738Y-77372447D01*
X145951084Y-77466491D01*
X145902911Y-77570273D01*
X145900683Y-77575072D01*
X145840984Y-77790337D01*
X145817246Y-78012462D01*
X145817543Y-78017615D01*
X145817543Y-78017618D01*
X145823006Y-78112357D01*
X145830105Y-78235482D01*
X145831242Y-78240528D01*
X145831243Y-78240534D01*
X145851114Y-78328706D01*
X145879217Y-78453406D01*
X145930815Y-78580477D01*
X145958476Y-78648598D01*
X145963261Y-78660383D01*
X146004811Y-78728186D01*
X146059293Y-78817093D01*
X146079982Y-78850855D01*
X146226245Y-79019705D01*
X146398121Y-79162399D01*
X146468590Y-79203578D01*
X146471440Y-79205243D01*
X146520164Y-79256881D01*
X146533235Y-79326664D01*
X146506504Y-79392436D01*
X146466050Y-79425794D01*
X146453602Y-79432274D01*
X146449469Y-79435377D01*
X146449466Y-79435379D01*
X146425242Y-79453567D01*
X146274960Y-79566402D01*
X146120624Y-79727905D01*
X146117710Y-79732177D01*
X146117709Y-79732178D01*
X146061856Y-79814056D01*
X145994738Y-79912447D01*
X145962177Y-79982595D01*
X145902911Y-80110273D01*
X145900683Y-80115072D01*
X145840984Y-80330337D01*
X145817246Y-80552462D01*
X145817543Y-80557615D01*
X145817543Y-80557618D01*
X145826306Y-80709597D01*
X145830105Y-80775482D01*
X145831242Y-80780528D01*
X145831243Y-80780534D01*
X145850063Y-80864040D01*
X145879217Y-80993406D01*
X145922404Y-81099764D01*
X145959017Y-81189930D01*
X145963261Y-81200383D01*
X146000052Y-81260420D01*
X146074822Y-81382434D01*
X146079982Y-81390855D01*
X146226245Y-81559705D01*
X146398121Y-81702399D01*
X146471440Y-81745243D01*
X146471950Y-81745541D01*
X146520674Y-81797179D01*
X146533745Y-81866962D01*
X146507014Y-81932734D01*
X146466557Y-81966094D01*
X146458452Y-81970313D01*
X146449733Y-81975803D01*
X146279428Y-82103672D01*
X146271721Y-82110515D01*
X146124585Y-82264484D01*
X146118099Y-82272494D01*
X145998093Y-82448416D01*
X145992995Y-82457390D01*
X145903333Y-82650550D01*
X145899770Y-82660237D01*
X145844384Y-82859950D01*
X145845907Y-82868374D01*
X145858287Y-82871767D01*
X147307995Y-82871767D01*
X147376116Y-82891769D01*
X147422609Y-82945425D01*
X147433995Y-82997767D01*
X147433995Y-83253767D01*
X147413993Y-83321888D01*
X147360337Y-83368381D01*
X147307995Y-83379767D01*
X145863220Y-83379767D01*
X145849689Y-83383740D01*
X145848252Y-83393733D01*
X145878560Y-83528213D01*
X145881640Y-83538042D01*
X145961765Y-83735370D01*
X145966408Y-83744561D01*
X146077689Y-83926155D01*
X146083772Y-83934466D01*
X146223208Y-84095434D01*
X146230575Y-84102650D01*
X146394429Y-84238683D01*
X146402876Y-84244598D01*
X146471964Y-84284970D01*
X146520688Y-84336609D01*
X146533759Y-84406392D01*
X146507028Y-84472163D01*
X146466579Y-84505519D01*
X146453602Y-84512274D01*
X146449469Y-84515377D01*
X146449466Y-84515379D01*
X146281249Y-84641680D01*
X146274960Y-84646402D01*
X146262953Y-84658967D01*
X146143093Y-84784393D01*
X146120624Y-84807905D01*
X146117710Y-84812177D01*
X146117709Y-84812178D01*
X146071562Y-84879827D01*
X145994738Y-84992447D01*
X145980893Y-85022274D01*
X145911080Y-85172674D01*
X145900683Y-85195072D01*
X145840984Y-85410337D01*
X145817246Y-85632462D01*
X145817543Y-85637615D01*
X145817543Y-85637618D01*
X145826306Y-85789597D01*
X145830105Y-85855482D01*
X145831242Y-85860528D01*
X145831243Y-85860534D01*
X145846598Y-85928667D01*
X145879217Y-86073406D01*
X145963261Y-86280383D01*
X145965960Y-86284787D01*
X146077286Y-86466455D01*
X146079982Y-86470855D01*
X146226245Y-86639705D01*
X146329953Y-86725805D01*
X146391210Y-86776661D01*
X146398121Y-86782399D01*
X146450028Y-86812731D01*
X146471440Y-86825243D01*
X146520164Y-86876881D01*
X146533235Y-86946664D01*
X146506504Y-87012436D01*
X146466050Y-87045794D01*
X146453602Y-87052274D01*
X146449469Y-87055377D01*
X146449466Y-87055379D01*
X146288859Y-87175966D01*
X146274960Y-87186402D01*
X146271388Y-87190140D01*
X146143093Y-87324393D01*
X146120624Y-87347905D01*
X146117710Y-87352177D01*
X146117709Y-87352178D01*
X146097306Y-87382088D01*
X145994738Y-87532447D01*
X145954453Y-87619235D01*
X145906526Y-87722485D01*
X145900683Y-87735072D01*
X145840984Y-87950337D01*
X145817246Y-88172462D01*
X145817543Y-88177615D01*
X145817543Y-88177618D01*
X145823179Y-88275364D01*
X145830105Y-88395482D01*
X145831242Y-88400528D01*
X145831243Y-88400534D01*
X145851114Y-88488706D01*
X145879217Y-88613406D01*
X145939009Y-88760657D01*
X145956657Y-88804118D01*
X145963261Y-88820383D01*
X146079982Y-89010855D01*
X146226245Y-89179705D01*
X146398121Y-89322399D01*
X146468590Y-89363578D01*
X146471440Y-89365243D01*
X146520164Y-89416881D01*
X146533235Y-89486664D01*
X146506504Y-89552436D01*
X146466050Y-89585794D01*
X146453602Y-89592274D01*
X146449469Y-89595377D01*
X146449466Y-89595379D01*
X146425242Y-89613567D01*
X146274960Y-89726402D01*
X146120624Y-89887905D01*
X145994738Y-90072447D01*
X145980893Y-90102274D01*
X145905873Y-90263892D01*
X145900683Y-90275072D01*
X145840984Y-90490337D01*
X145817246Y-90712462D01*
X145817543Y-90717615D01*
X145817543Y-90717618D01*
X145823006Y-90812357D01*
X145830105Y-90935482D01*
X145831242Y-90940528D01*
X145831243Y-90940534D01*
X145851114Y-91028706D01*
X145879217Y-91153406D01*
X145940668Y-91304743D01*
X145943995Y-91312935D01*
X145963261Y-91360383D01*
X145965960Y-91364787D01*
X146077286Y-91546455D01*
X146079982Y-91550855D01*
X146226245Y-91719705D01*
X146398121Y-91862399D01*
X146468590Y-91903578D01*
X146471440Y-91905243D01*
X146520164Y-91956881D01*
X146533235Y-92026664D01*
X146506504Y-92092436D01*
X146466050Y-92125794D01*
X146453602Y-92132274D01*
X146449469Y-92135377D01*
X146449466Y-92135379D01*
X146425242Y-92153567D01*
X146274960Y-92266402D01*
X146120624Y-92427905D01*
X145994738Y-92612447D01*
X145900683Y-92815072D01*
X145840984Y-93030337D01*
X145817246Y-93252462D01*
X145330002Y-93252462D01*
X145330002Y-68755475D01*
X145987483Y-68755475D01*
X146006472Y-68972519D01*
X146008375Y-68983312D01*
X146064764Y-69193761D01*
X146068510Y-69204053D01*
X146160586Y-69401511D01*
X146166069Y-69411006D01*
X146202509Y-69463048D01*
X146212988Y-69471424D01*
X146226434Y-69464356D01*
X146927978Y-68762812D01*
X146934356Y-68751132D01*
X147664408Y-68751132D01*
X147664539Y-68752965D01*
X147668790Y-68759580D01*
X148374287Y-69465077D01*
X148386062Y-69471507D01*
X148398077Y-69462211D01*
X148433931Y-69411006D01*
X148439414Y-69401511D01*
X148531490Y-69204053D01*
X148535236Y-69193761D01*
X148591625Y-68983312D01*
X148593528Y-68972519D01*
X148612517Y-68755475D01*
X148612517Y-68744525D01*
X148593528Y-68527481D01*
X148591625Y-68516688D01*
X148535236Y-68306239D01*
X148531490Y-68295947D01*
X148439414Y-68098489D01*
X148433931Y-68088994D01*
X148397491Y-68036952D01*
X148387012Y-68028576D01*
X148373566Y-68035644D01*
X147672022Y-68737188D01*
X147664408Y-68751132D01*
X146934356Y-68751132D01*
X146935592Y-68748868D01*
X146935461Y-68747035D01*
X146931210Y-68740420D01*
X146225713Y-68034923D01*
X146213938Y-68028493D01*
X146201923Y-68037789D01*
X146166069Y-68088994D01*
X146160586Y-68098489D01*
X146068510Y-68295947D01*
X146064764Y-68306239D01*
X146008375Y-68516688D01*
X146006472Y-68527481D01*
X145987483Y-68744525D01*
X145987483Y-68755475D01*
X145330002Y-68755475D01*
X145330002Y-67662988D01*
X146578576Y-67662988D01*
X146585644Y-67676434D01*
X147287188Y-68377978D01*
X147301132Y-68385592D01*
X147302965Y-68385461D01*
X147309580Y-68381210D01*
X148015077Y-67675713D01*
X148021507Y-67663938D01*
X148012211Y-67651923D01*
X147961006Y-67616069D01*
X147951511Y-67610586D01*
X147754053Y-67518510D01*
X147743761Y-67514764D01*
X147533312Y-67458375D01*
X147522519Y-67456472D01*
X147305475Y-67437483D01*
X147294525Y-67437483D01*
X147077481Y-67456472D01*
X147066688Y-67458375D01*
X146856239Y-67514764D01*
X146845947Y-67518510D01*
X146648489Y-67610586D01*
X146638994Y-67616069D01*
X146586952Y-67652509D01*
X146578576Y-67662988D01*
X145330002Y-67662988D01*
X145330002Y-64862908D01*
X145331502Y-64843523D01*
X145333807Y-64828722D01*
X145333807Y-64828719D01*
X145335188Y-64819850D01*
X145332943Y-64802681D01*
X145332110Y-64778741D01*
X145347712Y-64520810D01*
X145349546Y-64505706D01*
X145401040Y-64224707D01*
X145404681Y-64209933D01*
X145489676Y-63937176D01*
X145495072Y-63922950D01*
X145612316Y-63662444D01*
X145619387Y-63648971D01*
X145767184Y-63404485D01*
X145775827Y-63391963D01*
X145952018Y-63167073D01*
X145962108Y-63155685D01*
X146164107Y-62953686D01*
X146175495Y-62943596D01*
X146400385Y-62767405D01*
X146412907Y-62758762D01*
X146657393Y-62610965D01*
X146670862Y-62603896D01*
X146931375Y-62486649D01*
X146945594Y-62481255D01*
X147218361Y-62396258D01*
X147233123Y-62392620D01*
X147443354Y-62354094D01*
X147514128Y-62341124D01*
X147529232Y-62339290D01*
X147779931Y-62324125D01*
X147806641Y-62325382D01*
X147806861Y-62325385D01*
X147815732Y-62326766D01*
X147824634Y-62325602D01*
X147824637Y-62325602D01*
X147847253Y-62322644D01*
X147863591Y-62321580D01*
X164850672Y-62321580D01*
X164870057Y-62323080D01*
G37*
%TD.AperFunction*%
%TA.AperFunction,Conductor*%
G36*
X164275063Y-81096501D02*
G01*
X164298009Y-81133229D01*
X164321033Y-81189930D01*
X164325277Y-81200383D01*
X164362068Y-81260420D01*
X164436838Y-81382434D01*
X164441998Y-81390855D01*
X164588261Y-81559705D01*
X164760137Y-81702399D01*
X164830606Y-81743578D01*
X164833456Y-81745243D01*
X164882180Y-81796881D01*
X164895251Y-81866664D01*
X164868520Y-81932436D01*
X164828066Y-81965794D01*
X164815618Y-81972274D01*
X164811485Y-81975377D01*
X164811482Y-81975379D01*
X164660445Y-82088781D01*
X164636976Y-82106402D01*
X164633404Y-82110140D01*
X164499790Y-82249959D01*
X164482640Y-82267905D01*
X164479726Y-82272177D01*
X164479725Y-82272178D01*
X164460991Y-82299641D01*
X164356754Y-82452447D01*
X164341014Y-82486357D01*
X164273096Y-82632674D01*
X164262699Y-82655072D01*
X164203000Y-82870337D01*
X164179262Y-83092462D01*
X164179559Y-83097615D01*
X164179559Y-83097618D01*
X164189613Y-83271980D01*
X164192121Y-83315482D01*
X164193258Y-83320528D01*
X164193259Y-83320534D01*
X164209222Y-83391365D01*
X164241233Y-83533406D01*
X164325277Y-83740383D01*
X164441998Y-83930855D01*
X164588261Y-84099705D01*
X164760137Y-84242399D01*
X164830606Y-84283578D01*
X164833456Y-84285243D01*
X164882180Y-84336881D01*
X164895251Y-84406664D01*
X164868520Y-84472436D01*
X164828066Y-84505794D01*
X164815618Y-84512274D01*
X164811485Y-84515377D01*
X164811482Y-84515379D01*
X164643265Y-84641680D01*
X164636976Y-84646402D01*
X164624969Y-84658967D01*
X164505109Y-84784393D01*
X164482640Y-84807905D01*
X164479726Y-84812177D01*
X164479725Y-84812178D01*
X164367106Y-84977271D01*
X164312195Y-85022274D01*
X164263018Y-85032267D01*
X163083905Y-85032267D01*
X163015784Y-85012265D01*
X162982947Y-84981656D01*
X162941000Y-84925482D01*
X162940999Y-84925481D01*
X162937547Y-84920858D01*
X162819978Y-84812178D01*
X162792185Y-84786486D01*
X162792182Y-84786484D01*
X162787945Y-84782567D01*
X162741729Y-84753407D01*
X162620530Y-84676936D01*
X162620525Y-84676934D01*
X162615646Y-84673855D01*
X162426422Y-84598362D01*
X162226608Y-84558616D01*
X162220834Y-84558540D01*
X162220830Y-84558540D01*
X162117694Y-84557191D01*
X162022897Y-84555950D01*
X162017200Y-84556929D01*
X162017199Y-84556929D01*
X161827809Y-84589472D01*
X161822112Y-84590451D01*
X161630976Y-84660965D01*
X161626015Y-84663917D01*
X161626014Y-84663917D01*
X161475596Y-84753407D01*
X161455891Y-84765130D01*
X161421576Y-84795224D01*
X161357172Y-84825099D01*
X161286840Y-84815413D01*
X161232909Y-84769239D01*
X161212500Y-84700490D01*
X161212500Y-82810788D01*
X161232502Y-82742667D01*
X161286158Y-82696174D01*
X161356432Y-82686070D01*
X161408435Y-82708776D01*
X161409652Y-82706954D01*
X161579045Y-82820139D01*
X161584348Y-82822417D01*
X161584351Y-82822419D01*
X161725287Y-82882970D01*
X161766229Y-82900560D01*
X161800387Y-82908289D01*
X161959297Y-82944247D01*
X161959302Y-82944248D01*
X161964934Y-82945522D01*
X161970705Y-82945749D01*
X161970707Y-82945749D01*
X162033712Y-82948224D01*
X162168505Y-82953520D01*
X162370125Y-82924287D01*
X162375589Y-82922432D01*
X162375594Y-82922431D01*
X162557569Y-82860659D01*
X162557574Y-82860657D01*
X162563041Y-82858801D01*
X162740793Y-82759255D01*
X162897428Y-82628983D01*
X163027700Y-82472348D01*
X163127246Y-82294596D01*
X163129102Y-82289127D01*
X163129106Y-82289119D01*
X163131133Y-82283147D01*
X163161351Y-82234553D01*
X163817247Y-81578657D01*
X163825537Y-81571113D01*
X163832018Y-81567000D01*
X163878659Y-81517332D01*
X163881413Y-81514491D01*
X163901135Y-81494769D01*
X163903619Y-81491567D01*
X163911317Y-81482555D01*
X163936161Y-81456098D01*
X163941586Y-81450321D01*
X163951347Y-81432566D01*
X163962198Y-81416047D01*
X163974614Y-81400041D01*
X163984877Y-81376325D01*
X163992174Y-81359463D01*
X163997391Y-81348813D01*
X164018695Y-81310060D01*
X164023733Y-81290437D01*
X164030137Y-81271734D01*
X164035033Y-81260420D01*
X164035033Y-81260419D01*
X164038181Y-81253145D01*
X164039420Y-81245322D01*
X164039423Y-81245312D01*
X164045099Y-81209476D01*
X164047505Y-81197856D01*
X164058500Y-81155031D01*
X164060333Y-81155502D01*
X164084642Y-81099764D01*
X164143701Y-81060363D01*
X164214688Y-81059146D01*
X164275063Y-81096501D01*
G37*
%TD.AperFunction*%
%TD*%
M02*
