%TF.GenerationSoftware,KiCad,Pcbnew,(6.0.0)*%
%TF.CreationDate,2022-04-15T07:38:05-04:00*%
%TF.ProjectId,JTAG_ISP-ISP,4a544147-5f49-4535-902d-4953502e6b69,v6.0.0*%
%TF.SameCoordinates,Original*%
%TF.FileFunction,Copper,L1,Top*%
%TF.FilePolarity,Positive*%
%FSLAX46Y46*%
G04 Gerber Fmt 4.6, Leading zero omitted, Abs format (unit mm)*
G04 Created by KiCad (PCBNEW (6.0.0)) date 2022-04-15 07:38:05*
%MOMM*%
%LPD*%
G01*
G04 APERTURE LIST*
%TA.AperFunction,ComponentPad*%
%ADD10C,1.700000*%
%TD*%
%TA.AperFunction,ComponentPad*%
%ADD11O,1.700000X1.700000*%
%TD*%
%TA.AperFunction,ComponentPad*%
%ADD12R,1.700000X1.700000*%
%TD*%
%TA.AperFunction,ComponentPad*%
%ADD13C,5.500000*%
%TD*%
%TA.AperFunction,ViaPad*%
%ADD14C,1.200000*%
%TD*%
%TA.AperFunction,Conductor*%
%ADD15C,0.508000*%
%TD*%
%TA.AperFunction,Conductor*%
%ADD16C,0.254000*%
%TD*%
%TA.AperFunction,Conductor*%
%ADD17C,0.635000*%
%TD*%
G04 APERTURE END LIST*
D10*
%TO.P,J3,1,Pin_1*%
%TO.N,SCLK*%
X120642024Y-59477568D03*
D11*
%TO.P,J3,2,Pin_2*%
%TO.N,GND*%
X120642024Y-62017568D03*
%TO.P,J3,3,Pin_3*%
%TO.N,RESET*%
X120642024Y-64557568D03*
%TO.P,J3,4,Pin_4*%
%TO.N,GND*%
X120642024Y-67097568D03*
%TO.P,J3,5,Pin_5*%
%TO.N,MOSI*%
X120642024Y-69637568D03*
%TO.P,J3,6,Pin_6*%
%TO.N,GND*%
X120642024Y-72177568D03*
%TO.P,J3,7,Pin_7*%
%TO.N,unconnected-(J3-Pad7)*%
X120642024Y-74717568D03*
%TO.P,J3,8,Pin_8*%
%TO.N,GND*%
X120642024Y-77257568D03*
%TD*%
D12*
%TO.P,J1,1,Pin_1*%
%TO.N,MISO*%
X112731016Y-54094368D03*
D11*
%TO.P,J1,2,Pin_2*%
%TO.N,+5V*%
X110191016Y-54094368D03*
%TO.P,J1,3,Pin_3*%
%TO.N,SCLK*%
X112731016Y-51554368D03*
%TO.P,J1,4,Pin_4*%
%TO.N,MOSI*%
X110191016Y-51554368D03*
%TO.P,J1,5,Pin_5*%
%TO.N,RESET*%
X112731016Y-49014368D03*
%TO.P,J1,6,Pin_6*%
%TO.N,GND*%
X110191016Y-49014368D03*
%TD*%
D12*
%TO.P,J2,1,Pin_1*%
%TO.N,+5V*%
X102280008Y-59477568D03*
D11*
%TO.P,J2,2,Pin_2*%
X102280008Y-62017568D03*
%TO.P,J2,3,Pin_3*%
X102280008Y-64557568D03*
%TO.P,J2,4,Pin_4*%
%TO.N,GND*%
X102280008Y-67097568D03*
%TO.P,J2,5,Pin_5*%
X102280008Y-69637568D03*
%TO.P,J2,6,Pin_6*%
%TO.N,MISO*%
X102280008Y-72177568D03*
%TO.P,J2,7,Pin_7*%
%TO.N,GND*%
X102280008Y-74717568D03*
%TO.P,J2,8,Pin_8*%
%TO.N,SCLK*%
X102280008Y-77257568D03*
%TD*%
D13*
%TO.P,REF\u002A\u002A,1*%
%TO.N,GND*%
X103972004Y-49335385D03*
%TD*%
D14*
%TO.N,+5V*%
X106156025Y-54119369D03*
%TD*%
D15*
%TO.N,MISO*%
X112731016Y-54094368D02*
X112731016Y-55644378D01*
%TO.N,SCLK*%
X119706025Y-57069369D02*
X120642024Y-58005368D01*
%TO.N,MISO*%
X108206025Y-57469369D02*
X108206025Y-71069369D01*
%TO.N,SCLK*%
X115206025Y-53669369D02*
X115206025Y-56119369D01*
X102280008Y-77257568D02*
X102280008Y-79243352D01*
%TO.N,MISO*%
X109306025Y-56369369D02*
X108206025Y-57469369D01*
%TO.N,SCLK*%
X115206025Y-56119369D02*
X116156025Y-57069369D01*
X117697826Y-59477568D02*
X120642024Y-59477568D01*
%TO.N,MISO*%
X112006025Y-56369369D02*
X109306025Y-56369369D01*
%TO.N,SCLK*%
X113091024Y-51554368D02*
X115206025Y-53669369D01*
X114606025Y-62569369D02*
X117697826Y-59477568D01*
X113556428Y-80418966D02*
X114606025Y-79369369D01*
X116156025Y-57069369D02*
X119706025Y-57069369D01*
%TO.N,MISO*%
X112731016Y-55644378D02*
X112006025Y-56369369D01*
%TO.N,SCLK*%
X102280008Y-79243352D02*
X103455622Y-80418966D01*
X114606025Y-79369369D02*
X114606025Y-62569369D01*
X120642024Y-58005368D02*
X120642024Y-59477568D01*
X112731016Y-51554368D02*
X113091024Y-51554368D01*
X103455622Y-80418966D02*
X113556428Y-80418966D01*
%TO.N,MISO*%
X107097826Y-72177568D02*
X102280008Y-72177568D01*
X108206025Y-71069369D02*
X107097826Y-72177568D01*
D16*
%TO.N,GND*%
X100750000Y-69650000D02*
X100750000Y-67100000D01*
X122256025Y-77195767D02*
X122194224Y-77257568D01*
X106650000Y-46600000D02*
X110100000Y-46600000D01*
X110550000Y-46650000D02*
X120850000Y-46650000D01*
X122254224Y-62017568D02*
X120642024Y-62017568D01*
X102280008Y-74717568D02*
X100767568Y-74717568D01*
X120850000Y-46650000D02*
X122256025Y-48056025D01*
X100750000Y-52557389D02*
X103972004Y-49335385D01*
X103972004Y-49335385D02*
X103972004Y-49277996D01*
X110350000Y-46850000D02*
X110550000Y-46650000D01*
X100752432Y-67097568D02*
X102280008Y-67097568D01*
X110350000Y-46850000D02*
X110191016Y-47008984D01*
X120642024Y-81407976D02*
X119800000Y-82250000D01*
X122256025Y-48056025D02*
X122256025Y-62019369D01*
X122256025Y-72169369D02*
X122256025Y-77195767D01*
D17*
%TO.N,+5V*%
X106181024Y-54094368D02*
X106156025Y-54069369D01*
D16*
%TO.N,GND*%
X100767568Y-74717568D02*
X100750000Y-74700000D01*
X100750000Y-67100000D02*
X100750000Y-52557389D01*
X122256025Y-62019369D02*
X122254224Y-62017568D01*
X119800000Y-82250000D02*
X102600000Y-82250000D01*
X100750000Y-80400000D02*
X100750000Y-74700000D01*
X103972004Y-49277996D02*
X106650000Y-46600000D01*
X110100000Y-46600000D02*
X110350000Y-46850000D01*
X100762432Y-69637568D02*
X102280008Y-69637568D01*
X122194224Y-77257568D02*
X120642024Y-77257568D01*
X100750000Y-69650000D02*
X100762432Y-69637568D01*
X122256025Y-72169369D02*
X122256025Y-67119369D01*
X100750000Y-74700000D02*
X100750000Y-69650000D01*
X100750000Y-67100000D02*
X100752432Y-67097568D01*
X120642024Y-67097568D02*
X122234224Y-67097568D01*
D17*
%TO.N,+5V*%
X106156025Y-54069369D02*
X106156025Y-54119369D01*
X102280008Y-64557568D02*
X102280008Y-62017568D01*
D16*
%TO.N,GND*%
X120642024Y-72177568D02*
X122247826Y-72177568D01*
X110191016Y-47008984D02*
X110191016Y-49014368D01*
X122247826Y-72177568D02*
X122256025Y-72169369D01*
X120642024Y-77257568D02*
X120642024Y-81407976D01*
X122234224Y-67097568D02*
X122256025Y-67119369D01*
D17*
%TO.N,+5V*%
X106181024Y-54094368D02*
X110191016Y-54094368D01*
D16*
%TO.N,GND*%
X122256025Y-67119369D02*
X122256025Y-62019369D01*
X102600000Y-82250000D02*
X100750000Y-80400000D01*
D17*
%TO.N,+5V*%
X102280008Y-62017568D02*
X102280008Y-59477568D01*
%TD*%
%TA.AperFunction,Conductor*%
%TO.N,GND*%
G36*
X119970070Y-45796781D02*
G01*
X119984871Y-45799086D01*
X119984874Y-45799086D01*
X119993743Y-45800467D01*
X120010912Y-45798222D01*
X120034852Y-45797389D01*
X120292783Y-45812991D01*
X120307887Y-45814825D01*
X120378661Y-45827795D01*
X120588892Y-45866321D01*
X120603654Y-45869959D01*
X120876421Y-45954956D01*
X120890640Y-45960350D01*
X121151153Y-46077597D01*
X121164622Y-46084666D01*
X121409108Y-46232463D01*
X121421630Y-46241106D01*
X121646520Y-46417297D01*
X121657908Y-46427387D01*
X121859907Y-46629386D01*
X121869997Y-46640774D01*
X122046188Y-46865664D01*
X122054831Y-46878186D01*
X122202628Y-47122672D01*
X122209699Y-47136145D01*
X122326943Y-47396651D01*
X122332338Y-47410873D01*
X122408510Y-47655316D01*
X122417334Y-47683634D01*
X122420973Y-47698402D01*
X122454063Y-47878966D01*
X122472469Y-47979407D01*
X122474303Y-47994511D01*
X122489468Y-48245210D01*
X122488211Y-48271920D01*
X122488208Y-48272140D01*
X122486827Y-48281011D01*
X122487991Y-48289913D01*
X122487991Y-48289916D01*
X122490949Y-48312532D01*
X122492013Y-48328870D01*
X122492013Y-88372473D01*
X122490513Y-88391857D01*
X122486827Y-88415531D01*
X122488467Y-88428071D01*
X122489072Y-88432698D01*
X122489905Y-88456640D01*
X122474303Y-88714571D01*
X122472469Y-88729675D01*
X122420975Y-89010674D01*
X122417334Y-89025448D01*
X122332339Y-89298205D01*
X122326943Y-89312431D01*
X122209699Y-89572937D01*
X122202628Y-89586410D01*
X122054831Y-89830896D01*
X122046188Y-89843418D01*
X121869997Y-90068308D01*
X121859907Y-90079696D01*
X121657908Y-90281695D01*
X121646520Y-90291785D01*
X121421630Y-90467976D01*
X121409108Y-90476619D01*
X121164622Y-90624416D01*
X121151153Y-90631485D01*
X120890643Y-90748731D01*
X120876421Y-90754126D01*
X120603654Y-90839123D01*
X120588892Y-90842761D01*
X120378661Y-90881287D01*
X120307887Y-90894257D01*
X120292783Y-90896091D01*
X120042084Y-90911256D01*
X120015374Y-90909999D01*
X120015154Y-90909996D01*
X120006283Y-90908615D01*
X119997381Y-90909779D01*
X119997378Y-90909779D01*
X119974762Y-90912737D01*
X119958424Y-90913801D01*
X115160321Y-90913801D01*
X115140937Y-90912301D01*
X115126136Y-90909996D01*
X115126132Y-90909996D01*
X115117263Y-90908615D01*
X115108361Y-90909779D01*
X115108357Y-90909779D01*
X115108261Y-90909792D01*
X115077824Y-90910063D01*
X115015619Y-90903055D01*
X114988112Y-90896777D01*
X114910922Y-90869767D01*
X114885503Y-90857525D01*
X114816256Y-90814014D01*
X114794197Y-90796422D01*
X114736373Y-90738598D01*
X114718781Y-90716539D01*
X114675270Y-90647292D01*
X114663028Y-90621871D01*
X114636019Y-90544684D01*
X114629740Y-90517177D01*
X114623472Y-90461550D01*
X114622689Y-90445904D01*
X114622798Y-90436946D01*
X114624180Y-90428072D01*
X114620058Y-90396550D01*
X114618994Y-90380213D01*
X114618994Y-88825019D01*
X114620740Y-88804115D01*
X114623258Y-88789147D01*
X114624065Y-88784351D01*
X114624218Y-88771812D01*
X114623527Y-88766987D01*
X114623469Y-88766101D01*
X114622517Y-88756343D01*
X114606282Y-88446564D01*
X114606004Y-88441258D01*
X114605356Y-88437162D01*
X114554739Y-88117587D01*
X114554223Y-88114326D01*
X114468552Y-87794597D01*
X114349930Y-87485575D01*
X114199656Y-87190645D01*
X114019376Y-86913039D01*
X113811066Y-86655798D01*
X113577008Y-86421740D01*
X113319767Y-86213430D01*
X113042161Y-86033150D01*
X112747231Y-85882876D01*
X112438209Y-85764254D01*
X112118480Y-85678583D01*
X111944794Y-85651074D01*
X111794796Y-85627316D01*
X111794788Y-85627315D01*
X111791548Y-85626802D01*
X111492786Y-85611144D01*
X111478472Y-85609570D01*
X111478434Y-85609564D01*
X111473544Y-85608741D01*
X111461005Y-85608588D01*
X111460994Y-85608588D01*
X111456553Y-85609224D01*
X111456145Y-85609253D01*
X111445522Y-85610290D01*
X111130451Y-85626802D01*
X111127211Y-85627315D01*
X111127203Y-85627316D01*
X110977205Y-85651074D01*
X110803519Y-85678583D01*
X110483790Y-85764254D01*
X110174768Y-85882876D01*
X109879838Y-86033150D01*
X109602232Y-86213430D01*
X109344991Y-86421740D01*
X109110933Y-86655798D01*
X108902623Y-86913039D01*
X108722343Y-87190645D01*
X108572069Y-87485575D01*
X108453447Y-87794597D01*
X108367776Y-88114326D01*
X108367260Y-88117587D01*
X108316644Y-88437162D01*
X108315995Y-88441258D01*
X108315717Y-88446564D01*
X108299936Y-88747682D01*
X108299228Y-88754507D01*
X108299202Y-88756664D01*
X108297819Y-88765542D01*
X108298984Y-88774449D01*
X108301941Y-88797063D01*
X108303005Y-88813401D01*
X108303005Y-90372474D01*
X108301505Y-90391858D01*
X108299200Y-90406659D01*
X108299200Y-90406663D01*
X108297819Y-90415532D01*
X108298983Y-90424434D01*
X108298983Y-90424438D01*
X108298996Y-90424534D01*
X108299267Y-90454971D01*
X108292259Y-90517176D01*
X108285980Y-90544686D01*
X108258971Y-90621872D01*
X108246729Y-90647292D01*
X108203218Y-90716539D01*
X108185626Y-90738598D01*
X108127802Y-90796422D01*
X108105743Y-90814014D01*
X108036496Y-90857525D01*
X108011075Y-90869767D01*
X107933888Y-90896776D01*
X107906381Y-90903055D01*
X107886253Y-90905323D01*
X107850749Y-90909323D01*
X107835108Y-90910106D01*
X107826150Y-90909997D01*
X107817276Y-90908615D01*
X107785755Y-90912737D01*
X107769417Y-90913801D01*
X102971343Y-90913801D01*
X102951958Y-90912301D01*
X102937157Y-90909996D01*
X102937154Y-90909996D01*
X102928285Y-90908615D01*
X102911116Y-90910860D01*
X102887176Y-90911693D01*
X102629245Y-90896091D01*
X102614141Y-90894257D01*
X102543367Y-90881287D01*
X102333136Y-90842761D01*
X102318374Y-90839123D01*
X102045607Y-90754126D01*
X102031385Y-90748731D01*
X101770875Y-90631485D01*
X101757406Y-90624416D01*
X101512920Y-90476619D01*
X101500398Y-90467976D01*
X101275508Y-90291785D01*
X101264120Y-90281695D01*
X101062121Y-90079696D01*
X101052031Y-90068308D01*
X100875840Y-89843418D01*
X100867197Y-89830896D01*
X100719400Y-89586410D01*
X100712329Y-89572937D01*
X100595085Y-89312431D01*
X100589689Y-89298205D01*
X100504694Y-89025448D01*
X100501053Y-89010674D01*
X100449559Y-88729675D01*
X100447725Y-88714571D01*
X100432560Y-88463872D01*
X100433817Y-88437162D01*
X100433820Y-88436942D01*
X100435201Y-88428071D01*
X100433562Y-88415531D01*
X100431079Y-88396550D01*
X100430015Y-88380212D01*
X100430015Y-77224263D01*
X100917259Y-77224263D01*
X100917556Y-77229416D01*
X100917556Y-77229419D01*
X100923019Y-77324158D01*
X100930118Y-77447283D01*
X100931255Y-77452329D01*
X100931256Y-77452335D01*
X100945457Y-77515346D01*
X100979230Y-77665207D01*
X101063274Y-77872184D01*
X101179995Y-78062656D01*
X101326258Y-78231506D01*
X101471995Y-78352499D01*
X101511628Y-78411399D01*
X101517508Y-78449441D01*
X101517508Y-79175976D01*
X101516075Y-79194926D01*
X101513884Y-79209325D01*
X101513884Y-79209331D01*
X101512784Y-79216560D01*
X101513377Y-79223852D01*
X101513377Y-79223855D01*
X101517093Y-79269535D01*
X101517508Y-79279750D01*
X101517508Y-79287877D01*
X101520819Y-79316276D01*
X101521246Y-79320596D01*
X101527199Y-79393778D01*
X101529455Y-79400740D01*
X101530651Y-79406728D01*
X101532059Y-79412685D01*
X101532907Y-79419959D01*
X101535405Y-79426841D01*
X101535406Y-79426845D01*
X101557953Y-79488959D01*
X101559363Y-79493063D01*
X101581995Y-79562927D01*
X101585795Y-79569190D01*
X101588333Y-79574732D01*
X101591075Y-79580208D01*
X101593574Y-79587093D01*
X101597589Y-79593217D01*
X101633823Y-79648484D01*
X101636138Y-79652152D01*
X101674235Y-79714933D01*
X101677949Y-79719138D01*
X101677951Y-79719141D01*
X101681675Y-79723357D01*
X101681646Y-79723383D01*
X101684246Y-79726314D01*
X101687050Y-79729668D01*
X101691062Y-79735787D01*
X101741679Y-79783737D01*
X101747594Y-79789340D01*
X101750036Y-79791718D01*
X102868812Y-80910494D01*
X102881199Y-80924907D01*
X102894168Y-80942530D01*
X102899751Y-80947273D01*
X102934677Y-80976945D01*
X102942193Y-80983875D01*
X102947937Y-80989619D01*
X102950811Y-80991893D01*
X102950818Y-80991899D01*
X102970333Y-81007338D01*
X102973737Y-81010129D01*
X103024094Y-81052911D01*
X103024098Y-81052914D01*
X103029673Y-81057650D01*
X103036190Y-81060978D01*
X103041254Y-81064355D01*
X103046478Y-81067582D01*
X103052222Y-81072126D01*
X103058853Y-81075225D01*
X103118704Y-81103198D01*
X103122655Y-81105129D01*
X103188026Y-81138509D01*
X103195141Y-81140250D01*
X103200887Y-81142387D01*
X103206670Y-81144311D01*
X103213301Y-81147410D01*
X103285179Y-81162360D01*
X103289451Y-81163327D01*
X103360734Y-81180770D01*
X103366333Y-81181117D01*
X103366337Y-81181118D01*
X103371952Y-81181466D01*
X103371950Y-81181505D01*
X103375851Y-81181738D01*
X103380210Y-81182127D01*
X103387378Y-81183618D01*
X103394695Y-81183420D01*
X103465199Y-81181512D01*
X103468608Y-81181466D01*
X113489052Y-81181466D01*
X113508002Y-81182899D01*
X113522401Y-81185090D01*
X113522407Y-81185090D01*
X113529636Y-81186190D01*
X113536928Y-81185597D01*
X113536931Y-81185597D01*
X113582611Y-81181881D01*
X113592826Y-81181466D01*
X113600953Y-81181466D01*
X113604589Y-81181042D01*
X113604591Y-81181042D01*
X113608043Y-81180639D01*
X113629352Y-81178155D01*
X113633672Y-81177728D01*
X113706854Y-81171775D01*
X113713816Y-81169519D01*
X113719804Y-81168323D01*
X113725761Y-81166915D01*
X113733035Y-81166067D01*
X113739917Y-81163569D01*
X113739921Y-81163568D01*
X113802035Y-81141021D01*
X113806139Y-81139611D01*
X113876003Y-81116979D01*
X113882266Y-81113179D01*
X113887808Y-81110641D01*
X113893284Y-81107899D01*
X113900169Y-81105400D01*
X113961560Y-81065151D01*
X113965228Y-81062836D01*
X114028009Y-81024739D01*
X114032214Y-81021025D01*
X114032217Y-81021023D01*
X114036433Y-81017299D01*
X114036459Y-81017328D01*
X114039390Y-81014728D01*
X114042744Y-81011924D01*
X114048863Y-81007912D01*
X114102417Y-80951379D01*
X114104794Y-80948938D01*
X115097553Y-79956179D01*
X115111966Y-79943792D01*
X115123690Y-79935164D01*
X115129589Y-79930823D01*
X115164004Y-79890314D01*
X115170934Y-79882798D01*
X115176678Y-79877054D01*
X115178952Y-79874180D01*
X115178958Y-79874173D01*
X115194397Y-79854658D01*
X115197188Y-79851254D01*
X115239970Y-79800897D01*
X115239973Y-79800893D01*
X115244709Y-79795318D01*
X115248037Y-79788801D01*
X115251414Y-79783737D01*
X115254641Y-79778513D01*
X115259185Y-79772769D01*
X115271473Y-79746478D01*
X115290257Y-79706287D01*
X115292188Y-79702336D01*
X115322238Y-79643486D01*
X115325568Y-79636965D01*
X115327309Y-79629850D01*
X115329446Y-79624104D01*
X115331370Y-79618321D01*
X115334469Y-79611690D01*
X115349419Y-79539812D01*
X115350388Y-79535531D01*
X115366495Y-79469708D01*
X115367829Y-79464257D01*
X115368525Y-79453039D01*
X115368564Y-79453041D01*
X115368797Y-79449140D01*
X115369186Y-79444781D01*
X115370677Y-79437613D01*
X115368571Y-79359792D01*
X115368525Y-79356383D01*
X115368525Y-77525534D01*
X119310281Y-77525534D01*
X119340589Y-77660014D01*
X119343669Y-77669843D01*
X119423794Y-77867171D01*
X119428437Y-77876362D01*
X119539718Y-78057956D01*
X119545801Y-78066267D01*
X119685237Y-78227235D01*
X119692604Y-78234451D01*
X119856458Y-78370484D01*
X119864905Y-78376399D01*
X120048780Y-78483847D01*
X120058066Y-78488297D01*
X120257025Y-78564271D01*
X120266923Y-78567147D01*
X120370274Y-78588174D01*
X120384323Y-78586978D01*
X120388024Y-78576633D01*
X120388024Y-78576085D01*
X120896024Y-78576085D01*
X120900088Y-78589927D01*
X120913502Y-78591961D01*
X120920208Y-78591102D01*
X120930286Y-78588960D01*
X121134279Y-78527759D01*
X121143866Y-78524001D01*
X121335119Y-78430307D01*
X121343969Y-78425032D01*
X121517352Y-78301360D01*
X121525224Y-78294707D01*
X121676076Y-78144380D01*
X121682754Y-78136533D01*
X121807027Y-77963588D01*
X121812337Y-77954751D01*
X121906694Y-77763835D01*
X121910493Y-77754240D01*
X121972401Y-77550478D01*
X121974579Y-77540405D01*
X121976010Y-77529530D01*
X121973799Y-77515346D01*
X121960641Y-77511568D01*
X120914139Y-77511568D01*
X120898900Y-77516043D01*
X120897695Y-77517433D01*
X120896024Y-77525116D01*
X120896024Y-78576085D01*
X120388024Y-78576085D01*
X120388024Y-77529683D01*
X120383549Y-77514444D01*
X120382159Y-77513239D01*
X120374476Y-77511568D01*
X119325249Y-77511568D01*
X119311718Y-77515541D01*
X119310281Y-77525534D01*
X115368525Y-77525534D01*
X115368525Y-74684263D01*
X119279275Y-74684263D01*
X119279572Y-74689416D01*
X119279572Y-74689419D01*
X119285035Y-74784158D01*
X119292134Y-74907283D01*
X119293271Y-74912329D01*
X119293272Y-74912335D01*
X119306621Y-74971568D01*
X119341246Y-75125207D01*
X119425290Y-75332184D01*
X119542011Y-75522656D01*
X119688274Y-75691506D01*
X119860150Y-75834200D01*
X119933002Y-75876771D01*
X119933979Y-75877342D01*
X119982703Y-75928980D01*
X119995774Y-75998763D01*
X119969043Y-76064535D01*
X119928586Y-76097895D01*
X119920481Y-76102114D01*
X119911762Y-76107604D01*
X119741457Y-76235473D01*
X119733750Y-76242316D01*
X119586614Y-76396285D01*
X119580128Y-76404295D01*
X119460122Y-76580217D01*
X119455024Y-76589191D01*
X119365362Y-76782351D01*
X119361799Y-76792038D01*
X119306413Y-76991751D01*
X119307936Y-77000175D01*
X119320316Y-77003568D01*
X121960368Y-77003568D01*
X121973899Y-76999595D01*
X121975204Y-76990515D01*
X121933238Y-76823443D01*
X121929918Y-76813692D01*
X121844996Y-76618382D01*
X121840129Y-76609307D01*
X121724450Y-76430494D01*
X121718160Y-76422325D01*
X121574830Y-76264808D01*
X121567297Y-76257783D01*
X121400163Y-76125790D01*
X121391580Y-76120088D01*
X121354626Y-76099688D01*
X121304655Y-76049255D01*
X121289883Y-75979813D01*
X121314999Y-75913407D01*
X121342351Y-75886800D01*
X121365821Y-75870059D01*
X121521884Y-75758741D01*
X121680120Y-75601057D01*
X121739618Y-75518257D01*
X121807459Y-75423845D01*
X121810477Y-75419645D01*
X121909454Y-75219379D01*
X121974394Y-75005637D01*
X122003553Y-74784158D01*
X122005180Y-74717568D01*
X121986876Y-74494929D01*
X121932455Y-74278270D01*
X121843378Y-74073408D01*
X121722038Y-73885845D01*
X121571694Y-73720619D01*
X121567643Y-73717420D01*
X121567639Y-73717416D01*
X121400438Y-73585368D01*
X121400434Y-73585366D01*
X121396383Y-73582166D01*
X121354593Y-73559097D01*
X121304622Y-73508665D01*
X121289850Y-73439222D01*
X121314966Y-73372816D01*
X121342318Y-73346209D01*
X121517352Y-73221360D01*
X121525224Y-73214707D01*
X121676076Y-73064380D01*
X121682754Y-73056533D01*
X121807027Y-72883588D01*
X121812337Y-72874751D01*
X121906694Y-72683835D01*
X121910493Y-72674240D01*
X121972401Y-72470478D01*
X121974579Y-72460405D01*
X121976010Y-72449530D01*
X121973799Y-72435346D01*
X121960641Y-72431568D01*
X119325249Y-72431568D01*
X119311718Y-72435541D01*
X119310281Y-72445534D01*
X119340589Y-72580014D01*
X119343669Y-72589843D01*
X119423794Y-72787171D01*
X119428437Y-72796362D01*
X119539718Y-72977956D01*
X119545801Y-72986267D01*
X119685237Y-73147235D01*
X119692604Y-73154451D01*
X119856458Y-73290484D01*
X119864905Y-73296399D01*
X119933993Y-73336771D01*
X119982717Y-73388410D01*
X119995788Y-73458193D01*
X119969057Y-73523964D01*
X119928608Y-73557320D01*
X119915631Y-73564075D01*
X119911498Y-73567178D01*
X119911495Y-73567180D01*
X119887271Y-73585368D01*
X119736989Y-73698203D01*
X119582653Y-73859706D01*
X119579739Y-73863978D01*
X119579738Y-73863979D01*
X119567428Y-73882025D01*
X119456767Y-74044248D01*
X119362712Y-74246873D01*
X119303013Y-74462138D01*
X119279275Y-74684263D01*
X115368525Y-74684263D01*
X115368525Y-69604263D01*
X119279275Y-69604263D01*
X119279572Y-69609416D01*
X119279572Y-69609419D01*
X119285035Y-69704158D01*
X119292134Y-69827283D01*
X119293271Y-69832329D01*
X119293272Y-69832335D01*
X119306621Y-69891568D01*
X119341246Y-70045207D01*
X119425290Y-70252184D01*
X119542011Y-70442656D01*
X119688274Y-70611506D01*
X119860150Y-70754200D01*
X119886268Y-70769462D01*
X119933979Y-70797342D01*
X119982703Y-70848980D01*
X119995774Y-70918763D01*
X119969043Y-70984535D01*
X119928586Y-71017895D01*
X119920481Y-71022114D01*
X119911762Y-71027604D01*
X119741457Y-71155473D01*
X119733750Y-71162316D01*
X119586614Y-71316285D01*
X119580128Y-71324295D01*
X119460122Y-71500217D01*
X119455024Y-71509191D01*
X119365362Y-71702351D01*
X119361799Y-71712038D01*
X119306413Y-71911751D01*
X119307936Y-71920175D01*
X119320316Y-71923568D01*
X121960368Y-71923568D01*
X121973899Y-71919595D01*
X121975204Y-71910515D01*
X121933238Y-71743443D01*
X121929918Y-71733692D01*
X121844996Y-71538382D01*
X121840129Y-71529307D01*
X121724450Y-71350494D01*
X121718160Y-71342325D01*
X121574830Y-71184808D01*
X121567297Y-71177783D01*
X121400163Y-71045790D01*
X121391580Y-71040088D01*
X121354626Y-71019688D01*
X121304655Y-70969255D01*
X121289883Y-70899813D01*
X121314999Y-70833407D01*
X121342351Y-70806800D01*
X121394697Y-70769462D01*
X121521884Y-70678741D01*
X121680120Y-70521057D01*
X121739618Y-70438257D01*
X121807459Y-70343845D01*
X121810477Y-70339645D01*
X121909454Y-70139379D01*
X121974394Y-69925637D01*
X122003553Y-69704158D01*
X122005180Y-69637568D01*
X121986876Y-69414929D01*
X121932455Y-69198270D01*
X121843378Y-68993408D01*
X121722038Y-68805845D01*
X121571694Y-68640619D01*
X121567643Y-68637420D01*
X121567639Y-68637416D01*
X121400438Y-68505368D01*
X121400434Y-68505366D01*
X121396383Y-68502166D01*
X121354593Y-68479097D01*
X121304622Y-68428665D01*
X121289850Y-68359222D01*
X121314966Y-68292816D01*
X121342318Y-68266209D01*
X121517352Y-68141360D01*
X121525224Y-68134707D01*
X121676076Y-67984380D01*
X121682754Y-67976533D01*
X121807027Y-67803588D01*
X121812337Y-67794751D01*
X121906694Y-67603835D01*
X121910493Y-67594240D01*
X121972401Y-67390478D01*
X121974579Y-67380405D01*
X121976010Y-67369530D01*
X121973799Y-67355346D01*
X121960641Y-67351568D01*
X119325249Y-67351568D01*
X119311718Y-67355541D01*
X119310281Y-67365534D01*
X119340589Y-67500014D01*
X119343669Y-67509843D01*
X119423794Y-67707171D01*
X119428437Y-67716362D01*
X119539718Y-67897956D01*
X119545801Y-67906267D01*
X119685237Y-68067235D01*
X119692604Y-68074451D01*
X119856458Y-68210484D01*
X119864905Y-68216399D01*
X119933993Y-68256771D01*
X119982717Y-68308410D01*
X119995788Y-68378193D01*
X119969057Y-68443964D01*
X119928608Y-68477320D01*
X119915631Y-68484075D01*
X119911498Y-68487178D01*
X119911495Y-68487180D01*
X119887271Y-68505368D01*
X119736989Y-68618203D01*
X119582653Y-68779706D01*
X119579739Y-68783978D01*
X119579738Y-68783979D01*
X119567428Y-68802025D01*
X119456767Y-68964248D01*
X119362712Y-69166873D01*
X119303013Y-69382138D01*
X119279275Y-69604263D01*
X115368525Y-69604263D01*
X115368525Y-64524263D01*
X119279275Y-64524263D01*
X119279572Y-64529416D01*
X119279572Y-64529419D01*
X119285035Y-64624158D01*
X119292134Y-64747283D01*
X119293271Y-64752329D01*
X119293272Y-64752335D01*
X119313143Y-64840507D01*
X119341246Y-64965207D01*
X119425290Y-65172184D01*
X119542011Y-65362656D01*
X119688274Y-65531506D01*
X119860150Y-65674200D01*
X119933979Y-65717342D01*
X119982703Y-65768980D01*
X119995774Y-65838763D01*
X119969043Y-65904535D01*
X119928586Y-65937895D01*
X119920481Y-65942114D01*
X119911762Y-65947604D01*
X119741457Y-66075473D01*
X119733750Y-66082316D01*
X119586614Y-66236285D01*
X119580128Y-66244295D01*
X119460122Y-66420217D01*
X119455024Y-66429191D01*
X119365362Y-66622351D01*
X119361799Y-66632038D01*
X119306413Y-66831751D01*
X119307936Y-66840175D01*
X119320316Y-66843568D01*
X121960368Y-66843568D01*
X121973899Y-66839595D01*
X121975204Y-66830515D01*
X121933238Y-66663443D01*
X121929918Y-66653692D01*
X121844996Y-66458382D01*
X121840129Y-66449307D01*
X121724450Y-66270494D01*
X121718160Y-66262325D01*
X121574830Y-66104808D01*
X121567297Y-66097783D01*
X121400163Y-65965790D01*
X121391580Y-65960088D01*
X121354626Y-65939688D01*
X121304655Y-65889255D01*
X121289883Y-65819813D01*
X121314999Y-65753407D01*
X121342351Y-65726800D01*
X121365821Y-65710059D01*
X121521884Y-65598741D01*
X121680120Y-65441057D01*
X121739618Y-65358257D01*
X121807459Y-65263845D01*
X121810477Y-65259645D01*
X121909454Y-65059379D01*
X121974394Y-64845637D01*
X122003553Y-64624158D01*
X122005180Y-64557568D01*
X121986876Y-64334929D01*
X121932455Y-64118270D01*
X121843378Y-63913408D01*
X121722038Y-63725845D01*
X121571694Y-63560619D01*
X121567640Y-63557417D01*
X121567639Y-63557416D01*
X121400438Y-63425368D01*
X121400434Y-63425366D01*
X121396383Y-63422166D01*
X121354593Y-63399097D01*
X121304622Y-63348665D01*
X121289850Y-63279222D01*
X121314966Y-63212816D01*
X121342318Y-63186209D01*
X121517352Y-63061360D01*
X121525224Y-63054707D01*
X121676076Y-62904380D01*
X121682754Y-62896533D01*
X121807027Y-62723588D01*
X121812337Y-62714751D01*
X121906694Y-62523835D01*
X121910493Y-62514240D01*
X121972401Y-62310478D01*
X121974579Y-62300405D01*
X121976010Y-62289530D01*
X121973799Y-62275346D01*
X121960641Y-62271568D01*
X119325249Y-62271568D01*
X119311718Y-62275541D01*
X119310281Y-62285534D01*
X119340589Y-62420014D01*
X119343669Y-62429843D01*
X119423794Y-62627171D01*
X119428437Y-62636362D01*
X119539718Y-62817956D01*
X119545801Y-62826267D01*
X119685237Y-62987235D01*
X119692604Y-62994451D01*
X119856458Y-63130484D01*
X119864905Y-63136399D01*
X119933993Y-63176771D01*
X119982717Y-63228410D01*
X119995788Y-63298193D01*
X119969057Y-63363964D01*
X119928608Y-63397320D01*
X119915631Y-63404075D01*
X119911498Y-63407178D01*
X119911495Y-63407180D01*
X119741124Y-63535098D01*
X119736989Y-63538203D01*
X119582653Y-63699706D01*
X119456767Y-63884248D01*
X119362712Y-64086873D01*
X119303013Y-64302138D01*
X119279275Y-64524263D01*
X115368525Y-64524263D01*
X115368525Y-62937397D01*
X115388527Y-62869276D01*
X115405430Y-62848302D01*
X117976759Y-60276973D01*
X118039071Y-60242947D01*
X118065854Y-60240068D01*
X119447566Y-60240068D01*
X119515687Y-60260070D01*
X119542803Y-60283571D01*
X119669669Y-60430028D01*
X119688274Y-60451506D01*
X119860150Y-60594200D01*
X119933979Y-60637342D01*
X119982703Y-60688980D01*
X119995774Y-60758763D01*
X119969043Y-60824535D01*
X119928586Y-60857895D01*
X119920481Y-60862114D01*
X119911762Y-60867604D01*
X119741457Y-60995473D01*
X119733750Y-61002316D01*
X119586614Y-61156285D01*
X119580128Y-61164295D01*
X119460122Y-61340217D01*
X119455024Y-61349191D01*
X119365362Y-61542351D01*
X119361799Y-61552038D01*
X119306413Y-61751751D01*
X119307936Y-61760175D01*
X119320316Y-61763568D01*
X121960368Y-61763568D01*
X121973899Y-61759595D01*
X121975204Y-61750515D01*
X121933238Y-61583443D01*
X121929918Y-61573692D01*
X121844996Y-61378382D01*
X121840129Y-61369307D01*
X121724450Y-61190494D01*
X121718160Y-61182325D01*
X121574830Y-61024808D01*
X121567297Y-61017783D01*
X121400163Y-60885790D01*
X121391580Y-60880088D01*
X121354626Y-60859688D01*
X121304655Y-60809255D01*
X121289883Y-60739813D01*
X121314999Y-60673407D01*
X121342351Y-60646800D01*
X121365821Y-60630059D01*
X121521884Y-60518741D01*
X121680120Y-60361057D01*
X121810477Y-60179645D01*
X121909454Y-59979379D01*
X121974394Y-59765637D01*
X122003553Y-59544158D01*
X122005180Y-59477568D01*
X121986876Y-59254929D01*
X121932455Y-59038270D01*
X121843378Y-58833408D01*
X121778399Y-58732966D01*
X121724846Y-58650185D01*
X121724844Y-58650182D01*
X121722038Y-58645845D01*
X121571694Y-58480619D01*
X121452431Y-58386430D01*
X121411369Y-58328512D01*
X121404524Y-58287548D01*
X121404524Y-58072736D01*
X121405957Y-58053785D01*
X121408147Y-58039392D01*
X121408147Y-58039390D01*
X121409247Y-58032160D01*
X121404939Y-57979193D01*
X121404524Y-57968979D01*
X121404524Y-57960843D01*
X121401214Y-57932452D01*
X121400781Y-57928077D01*
X121395427Y-57862240D01*
X121395426Y-57862237D01*
X121394833Y-57854941D01*
X121392578Y-57847979D01*
X121391378Y-57841975D01*
X121389972Y-57836028D01*
X121389125Y-57828761D01*
X121364077Y-57759755D01*
X121362649Y-57755595D01*
X121342292Y-57692755D01*
X121342290Y-57692750D01*
X121340036Y-57685793D01*
X121336242Y-57679541D01*
X121333690Y-57673966D01*
X121330954Y-57668503D01*
X121328458Y-57661627D01*
X121288205Y-57600231D01*
X121285858Y-57596512D01*
X121247796Y-57533787D01*
X121240356Y-57525362D01*
X121240384Y-57525337D01*
X121237790Y-57522412D01*
X121234985Y-57519058D01*
X121230970Y-57512933D01*
X121174437Y-57459379D01*
X121171996Y-57457002D01*
X120292835Y-56577841D01*
X120280448Y-56563428D01*
X120271820Y-56551704D01*
X120267479Y-56545805D01*
X120226970Y-56511390D01*
X120219454Y-56504460D01*
X120213710Y-56498716D01*
X120210836Y-56496442D01*
X120210829Y-56496436D01*
X120191314Y-56480997D01*
X120187910Y-56478206D01*
X120137553Y-56435424D01*
X120137549Y-56435421D01*
X120131974Y-56430685D01*
X120125457Y-56427357D01*
X120120393Y-56423980D01*
X120115169Y-56420753D01*
X120109425Y-56416209D01*
X120083134Y-56403921D01*
X120042943Y-56385137D01*
X120038992Y-56383206D01*
X119980142Y-56353156D01*
X119973621Y-56349826D01*
X119966506Y-56348085D01*
X119960760Y-56345948D01*
X119954977Y-56344024D01*
X119948346Y-56340925D01*
X119876468Y-56325975D01*
X119872196Y-56325008D01*
X119800913Y-56307565D01*
X119795314Y-56307218D01*
X119795310Y-56307217D01*
X119789695Y-56306869D01*
X119789697Y-56306830D01*
X119785796Y-56306597D01*
X119781437Y-56306208D01*
X119774269Y-56304717D01*
X119766952Y-56304915D01*
X119696448Y-56306823D01*
X119693039Y-56306869D01*
X116524053Y-56306869D01*
X116455932Y-56286867D01*
X116434958Y-56269964D01*
X116005430Y-55840436D01*
X115971404Y-55778124D01*
X115968525Y-55751341D01*
X115968525Y-53736745D01*
X115969958Y-53717795D01*
X115972149Y-53703396D01*
X115972149Y-53703390D01*
X115973249Y-53696161D01*
X115968940Y-53643186D01*
X115968525Y-53632971D01*
X115968525Y-53624844D01*
X115965214Y-53596445D01*
X115964785Y-53592105D01*
X115959427Y-53526236D01*
X115958834Y-53518943D01*
X115956578Y-53511981D01*
X115955382Y-53505993D01*
X115953974Y-53500036D01*
X115953126Y-53492762D01*
X115950628Y-53485880D01*
X115950627Y-53485876D01*
X115928080Y-53423762D01*
X115926670Y-53419658D01*
X115904038Y-53349794D01*
X115900238Y-53343531D01*
X115897700Y-53337989D01*
X115894958Y-53332513D01*
X115892459Y-53325628D01*
X115852210Y-53264237D01*
X115849895Y-53260569D01*
X115811798Y-53197788D01*
X115808082Y-53193581D01*
X115808079Y-53193577D01*
X115804357Y-53189364D01*
X115804387Y-53189338D01*
X115801789Y-53186410D01*
X115798985Y-53183056D01*
X115794971Y-53176934D01*
X115738420Y-53123363D01*
X115735979Y-53120986D01*
X114120130Y-51505136D01*
X114086104Y-51442824D01*
X114083649Y-51426366D01*
X114076292Y-51336889D01*
X114075868Y-51331729D01*
X114021447Y-51115070D01*
X113932370Y-50910208D01*
X113892922Y-50849230D01*
X113813838Y-50726985D01*
X113813836Y-50726982D01*
X113811030Y-50722645D01*
X113660686Y-50557419D01*
X113656635Y-50554220D01*
X113656631Y-50554216D01*
X113489430Y-50422168D01*
X113489426Y-50422166D01*
X113485375Y-50418966D01*
X113444069Y-50396164D01*
X113394100Y-50345732D01*
X113379328Y-50276289D01*
X113404444Y-50209884D01*
X113431796Y-50183277D01*
X113475619Y-50152018D01*
X113610876Y-50055541D01*
X113769112Y-49897857D01*
X113899469Y-49716445D01*
X113913011Y-49689046D01*
X113996152Y-49520821D01*
X113996153Y-49520819D01*
X113998446Y-49516179D01*
X114045909Y-49359961D01*
X114061881Y-49307391D01*
X114061881Y-49307389D01*
X114063386Y-49302437D01*
X114092545Y-49080958D01*
X114094172Y-49014368D01*
X114075868Y-48791729D01*
X114021447Y-48575070D01*
X113932370Y-48370208D01*
X113811030Y-48182645D01*
X113660686Y-48017419D01*
X113656635Y-48014220D01*
X113656631Y-48014216D01*
X113489430Y-47882168D01*
X113489426Y-47882166D01*
X113485375Y-47878966D01*
X113449044Y-47858910D01*
X113433152Y-47850137D01*
X113289805Y-47771006D01*
X113284936Y-47769282D01*
X113284932Y-47769280D01*
X113084103Y-47698163D01*
X113084099Y-47698162D01*
X113079228Y-47696437D01*
X113074135Y-47695530D01*
X113074132Y-47695529D01*
X112864389Y-47658168D01*
X112864383Y-47658167D01*
X112859300Y-47657262D01*
X112785468Y-47656360D01*
X112641097Y-47654596D01*
X112641095Y-47654596D01*
X112635927Y-47654533D01*
X112415107Y-47688323D01*
X112202772Y-47757725D01*
X112004623Y-47860875D01*
X112000490Y-47863978D01*
X112000487Y-47863980D01*
X111830116Y-47991898D01*
X111825981Y-47995003D01*
X111671645Y-48156506D01*
X111668731Y-48160778D01*
X111668730Y-48160779D01*
X111656420Y-48178825D01*
X111579546Y-48291519D01*
X111563914Y-48314434D01*
X111509003Y-48359437D01*
X111438478Y-48367608D01*
X111374731Y-48336354D01*
X111354034Y-48311870D01*
X111273442Y-48187294D01*
X111267152Y-48179125D01*
X111123822Y-48021608D01*
X111116289Y-48014583D01*
X110949155Y-47882590D01*
X110940568Y-47876885D01*
X110754133Y-47773967D01*
X110744721Y-47769737D01*
X110543975Y-47698648D01*
X110534004Y-47696014D01*
X110462853Y-47683340D01*
X110449556Y-47684800D01*
X110445016Y-47699357D01*
X110445016Y-49142368D01*
X110425014Y-49210489D01*
X110371358Y-49256982D01*
X110319016Y-49268368D01*
X108874241Y-49268368D01*
X108860710Y-49272341D01*
X108859273Y-49282334D01*
X108889581Y-49416814D01*
X108892661Y-49426643D01*
X108972786Y-49623971D01*
X108977429Y-49633162D01*
X109088710Y-49814756D01*
X109094793Y-49823067D01*
X109234229Y-49984035D01*
X109241596Y-49991251D01*
X109405450Y-50127284D01*
X109413897Y-50133199D01*
X109482985Y-50173571D01*
X109531709Y-50225210D01*
X109544780Y-50294993D01*
X109518049Y-50360764D01*
X109477600Y-50394120D01*
X109464623Y-50400875D01*
X109460490Y-50403978D01*
X109460487Y-50403980D01*
X109436263Y-50422168D01*
X109285981Y-50535003D01*
X109131645Y-50696506D01*
X109005759Y-50881048D01*
X108911704Y-51083673D01*
X108852005Y-51298938D01*
X108828267Y-51521063D01*
X108841126Y-51744083D01*
X108842263Y-51749129D01*
X108842264Y-51749135D01*
X108856603Y-51812758D01*
X108890238Y-51962007D01*
X108974282Y-52168984D01*
X109025958Y-52253312D01*
X109088307Y-52355056D01*
X109091003Y-52359456D01*
X109237266Y-52528306D01*
X109409142Y-52671000D01*
X109479611Y-52712179D01*
X109482461Y-52713844D01*
X109531185Y-52765482D01*
X109544256Y-52835265D01*
X109517525Y-52901037D01*
X109477071Y-52934395D01*
X109464623Y-52940875D01*
X109460490Y-52943978D01*
X109460487Y-52943980D01*
X109318167Y-53050837D01*
X109285981Y-53075003D01*
X109144990Y-53222542D01*
X109138418Y-53229419D01*
X109076894Y-53264849D01*
X109047324Y-53268368D01*
X106917593Y-53268368D01*
X106849472Y-53248366D01*
X106840888Y-53242329D01*
X106837967Y-53240088D01*
X106833728Y-53236169D01*
X106828849Y-53233091D01*
X106828847Y-53233089D01*
X106666313Y-53130538D01*
X106666308Y-53130536D01*
X106661429Y-53127457D01*
X106539322Y-53078741D01*
X106477574Y-53054106D01*
X106472205Y-53051964D01*
X106272391Y-53012218D01*
X106266617Y-53012142D01*
X106266613Y-53012142D01*
X106163477Y-53010793D01*
X106068680Y-53009552D01*
X106062983Y-53010531D01*
X106062982Y-53010531D01*
X105873592Y-53043074D01*
X105867895Y-53044053D01*
X105676759Y-53114567D01*
X105671798Y-53117519D01*
X105671797Y-53117519D01*
X105536878Y-53197788D01*
X105501674Y-53218732D01*
X105348503Y-53353059D01*
X105344936Y-53357584D01*
X105344931Y-53357589D01*
X105292765Y-53423762D01*
X105222376Y-53513050D01*
X105219687Y-53518161D01*
X105219685Y-53518164D01*
X105215438Y-53526236D01*
X105127517Y-53693347D01*
X105067103Y-53887912D01*
X105043157Y-54090228D01*
X105056482Y-54293520D01*
X105106630Y-54490979D01*
X105191923Y-54675993D01*
X105309504Y-54842366D01*
X105455435Y-54984526D01*
X105460231Y-54987731D01*
X105460234Y-54987733D01*
X105520031Y-55027688D01*
X105624828Y-55097711D01*
X105630131Y-55099989D01*
X105630134Y-55099991D01*
X105719140Y-55138231D01*
X105812012Y-55178132D01*
X105884842Y-55194612D01*
X106005080Y-55221819D01*
X106005085Y-55221820D01*
X106010717Y-55223094D01*
X106016488Y-55223321D01*
X106016490Y-55223321D01*
X106079495Y-55225796D01*
X106214288Y-55231092D01*
X106415908Y-55201859D01*
X106421372Y-55200004D01*
X106421377Y-55200003D01*
X106603352Y-55138231D01*
X106603357Y-55138229D01*
X106608824Y-55136373D01*
X106616817Y-55131897D01*
X106730366Y-55068306D01*
X106786576Y-55036827D01*
X106891582Y-54949494D01*
X106956747Y-54921313D01*
X106972152Y-54920368D01*
X109051564Y-54920368D01*
X109119685Y-54940370D01*
X109146800Y-54963869D01*
X109237266Y-55068306D01*
X109409142Y-55211000D01*
X109602016Y-55323706D01*
X109606841Y-55325548D01*
X109606842Y-55325549D01*
X109705333Y-55363159D01*
X109761836Y-55406147D01*
X109786129Y-55472858D01*
X109770499Y-55542112D01*
X109719908Y-55591923D01*
X109660384Y-55606869D01*
X109373401Y-55606869D01*
X109354451Y-55605436D01*
X109340052Y-55603245D01*
X109340046Y-55603245D01*
X109332817Y-55602145D01*
X109325525Y-55602738D01*
X109325522Y-55602738D01*
X109279842Y-55606454D01*
X109269627Y-55606869D01*
X109261500Y-55606869D01*
X109257864Y-55607293D01*
X109257862Y-55607293D01*
X109254410Y-55607696D01*
X109233101Y-55610180D01*
X109228781Y-55610607D01*
X109155599Y-55616560D01*
X109148637Y-55618816D01*
X109142649Y-55620012D01*
X109136692Y-55621420D01*
X109129418Y-55622268D01*
X109122536Y-55624766D01*
X109122532Y-55624767D01*
X109060418Y-55647314D01*
X109056314Y-55648724D01*
X108986450Y-55671356D01*
X108980187Y-55675156D01*
X108974645Y-55677694D01*
X108969169Y-55680436D01*
X108962284Y-55682935D01*
X108956160Y-55686950D01*
X108900893Y-55723184D01*
X108897225Y-55725499D01*
X108834444Y-55763596D01*
X108830239Y-55767310D01*
X108830236Y-55767312D01*
X108826020Y-55771036D01*
X108825994Y-55771007D01*
X108823063Y-55773607D01*
X108819709Y-55776411D01*
X108813590Y-55780423D01*
X108808558Y-55785735D01*
X108760037Y-55836955D01*
X108757659Y-55839397D01*
X107714497Y-56882559D01*
X107700084Y-56894946D01*
X107682461Y-56907915D01*
X107677717Y-56913498D01*
X107677718Y-56913498D01*
X107648046Y-56948424D01*
X107641116Y-56955940D01*
X107635372Y-56961684D01*
X107633098Y-56964558D01*
X107633092Y-56964565D01*
X107617653Y-56984080D01*
X107614862Y-56987484D01*
X107572080Y-57037841D01*
X107572077Y-57037845D01*
X107567341Y-57043420D01*
X107564013Y-57049937D01*
X107560636Y-57055001D01*
X107557409Y-57060225D01*
X107552865Y-57065969D01*
X107549766Y-57072600D01*
X107521793Y-57132451D01*
X107519862Y-57136402D01*
X107486482Y-57201773D01*
X107484741Y-57208888D01*
X107482604Y-57214634D01*
X107480680Y-57220417D01*
X107477581Y-57227048D01*
X107476091Y-57234212D01*
X107462633Y-57298916D01*
X107461664Y-57303198D01*
X107444221Y-57374481D01*
X107443525Y-57385699D01*
X107443486Y-57385697D01*
X107443253Y-57389598D01*
X107442864Y-57393957D01*
X107441373Y-57401125D01*
X107441571Y-57408442D01*
X107443479Y-57478946D01*
X107443525Y-57482355D01*
X107443525Y-70701341D01*
X107423523Y-70769462D01*
X107406620Y-70790436D01*
X106818893Y-71378163D01*
X106756581Y-71412189D01*
X106729798Y-71415068D01*
X103473359Y-71415068D01*
X103405238Y-71395066D01*
X103367566Y-71357507D01*
X103360022Y-71345845D01*
X103209678Y-71180619D01*
X103205627Y-71177420D01*
X103205623Y-71177416D01*
X103038422Y-71045368D01*
X103038418Y-71045366D01*
X103034367Y-71042166D01*
X102992577Y-71019097D01*
X102942606Y-70968665D01*
X102927834Y-70899222D01*
X102952950Y-70832816D01*
X102980302Y-70806209D01*
X103155336Y-70681360D01*
X103163208Y-70674707D01*
X103314060Y-70524380D01*
X103320738Y-70516533D01*
X103445011Y-70343588D01*
X103450321Y-70334751D01*
X103544678Y-70143835D01*
X103548477Y-70134240D01*
X103610385Y-69930478D01*
X103612563Y-69920405D01*
X103613994Y-69909530D01*
X103611783Y-69895346D01*
X103598625Y-69891568D01*
X100963233Y-69891568D01*
X100949702Y-69895541D01*
X100948265Y-69905534D01*
X100978573Y-70040014D01*
X100981653Y-70049843D01*
X101061778Y-70247171D01*
X101066421Y-70256362D01*
X101177702Y-70437956D01*
X101183785Y-70446267D01*
X101323221Y-70607235D01*
X101330588Y-70614451D01*
X101494442Y-70750484D01*
X101502889Y-70756399D01*
X101571977Y-70796771D01*
X101620701Y-70848410D01*
X101633772Y-70918193D01*
X101607041Y-70983964D01*
X101566592Y-71017320D01*
X101553615Y-71024075D01*
X101549482Y-71027178D01*
X101549479Y-71027180D01*
X101525255Y-71045368D01*
X101374973Y-71158203D01*
X101220637Y-71319706D01*
X101217723Y-71323978D01*
X101217722Y-71323979D01*
X101205412Y-71342025D01*
X101094751Y-71504248D01*
X101000696Y-71706873D01*
X100940997Y-71922138D01*
X100917259Y-72144263D01*
X100930118Y-72367283D01*
X100931255Y-72372329D01*
X100931256Y-72372335D01*
X100944605Y-72431568D01*
X100979230Y-72585207D01*
X101040681Y-72736544D01*
X101052851Y-72766514D01*
X101063274Y-72792184D01*
X101104824Y-72859987D01*
X101159306Y-72948894D01*
X101179995Y-72982656D01*
X101326258Y-73151506D01*
X101498134Y-73294200D01*
X101570986Y-73336771D01*
X101571963Y-73337342D01*
X101620687Y-73388980D01*
X101633758Y-73458763D01*
X101607027Y-73524535D01*
X101566570Y-73557895D01*
X101558465Y-73562114D01*
X101549746Y-73567604D01*
X101379441Y-73695473D01*
X101371734Y-73702316D01*
X101224598Y-73856285D01*
X101218112Y-73864295D01*
X101098106Y-74040217D01*
X101093008Y-74049191D01*
X101003346Y-74242351D01*
X100999783Y-74252038D01*
X100944397Y-74451751D01*
X100945920Y-74460175D01*
X100958300Y-74463568D01*
X103598352Y-74463568D01*
X103611883Y-74459595D01*
X103613188Y-74450515D01*
X103571222Y-74283443D01*
X103567902Y-74273692D01*
X103482980Y-74078382D01*
X103478113Y-74069307D01*
X103362434Y-73890494D01*
X103356144Y-73882325D01*
X103212814Y-73724808D01*
X103205281Y-73717783D01*
X103038147Y-73585790D01*
X103029564Y-73580088D01*
X102992610Y-73559688D01*
X102942639Y-73509255D01*
X102927867Y-73439813D01*
X102952983Y-73373407D01*
X102980335Y-73346800D01*
X103003805Y-73330059D01*
X103159868Y-73218741D01*
X103318104Y-73061057D01*
X103367337Y-72992542D01*
X103423332Y-72948894D01*
X103469660Y-72940068D01*
X107030450Y-72940068D01*
X107049400Y-72941501D01*
X107063799Y-72943692D01*
X107063805Y-72943692D01*
X107071034Y-72944792D01*
X107078326Y-72944199D01*
X107078329Y-72944199D01*
X107124009Y-72940483D01*
X107134224Y-72940068D01*
X107142351Y-72940068D01*
X107145987Y-72939644D01*
X107145989Y-72939644D01*
X107149441Y-72939241D01*
X107170750Y-72936757D01*
X107175070Y-72936330D01*
X107248252Y-72930377D01*
X107255214Y-72928121D01*
X107261202Y-72926925D01*
X107267159Y-72925517D01*
X107274433Y-72924669D01*
X107281315Y-72922171D01*
X107281319Y-72922170D01*
X107343433Y-72899623D01*
X107347537Y-72898213D01*
X107417401Y-72875581D01*
X107423664Y-72871781D01*
X107429206Y-72869243D01*
X107434682Y-72866501D01*
X107441567Y-72864002D01*
X107502958Y-72823753D01*
X107506626Y-72821438D01*
X107569407Y-72783341D01*
X107573612Y-72779627D01*
X107573615Y-72779625D01*
X107577831Y-72775901D01*
X107577857Y-72775930D01*
X107580788Y-72773330D01*
X107584142Y-72770526D01*
X107590261Y-72766514D01*
X107643815Y-72709981D01*
X107646192Y-72707540D01*
X108429773Y-71923959D01*
X108492085Y-71889933D01*
X108562900Y-71894998D01*
X108619736Y-71937545D01*
X108644547Y-72004065D01*
X108644868Y-72013054D01*
X108644868Y-78526084D01*
X108643122Y-78546989D01*
X108639797Y-78566752D01*
X108639644Y-78579291D01*
X108641754Y-78594025D01*
X108642703Y-78602872D01*
X108656404Y-78794451D01*
X108702256Y-79005230D01*
X108703823Y-79009432D01*
X108703825Y-79009438D01*
X108725931Y-79068705D01*
X108777639Y-79207338D01*
X108779793Y-79211283D01*
X108779794Y-79211285D01*
X108823603Y-79291515D01*
X108881017Y-79396661D01*
X108923223Y-79453041D01*
X108924657Y-79454957D01*
X108949468Y-79521477D01*
X108934377Y-79590851D01*
X108884175Y-79641053D01*
X108823789Y-79656466D01*
X103823650Y-79656466D01*
X103755529Y-79636464D01*
X103734554Y-79619561D01*
X103079412Y-78964418D01*
X103045387Y-78902106D01*
X103042508Y-78875323D01*
X103042508Y-78447348D01*
X103062510Y-78379227D01*
X103095340Y-78344769D01*
X103155660Y-78301744D01*
X103155671Y-78301735D01*
X103159868Y-78298741D01*
X103318104Y-78141057D01*
X103377602Y-78058257D01*
X103445443Y-77963845D01*
X103448461Y-77959645D01*
X103547438Y-77759379D01*
X103612378Y-77545637D01*
X103641537Y-77324158D01*
X103643164Y-77257568D01*
X103624860Y-77034929D01*
X103570439Y-76818270D01*
X103481362Y-76613408D01*
X103360022Y-76425845D01*
X103209678Y-76260619D01*
X103205627Y-76257420D01*
X103205623Y-76257416D01*
X103038422Y-76125368D01*
X103038418Y-76125366D01*
X103034367Y-76122166D01*
X102992577Y-76099097D01*
X102942606Y-76048665D01*
X102927834Y-75979222D01*
X102952950Y-75912816D01*
X102980302Y-75886209D01*
X103155336Y-75761360D01*
X103163208Y-75754707D01*
X103314060Y-75604380D01*
X103320738Y-75596533D01*
X103445011Y-75423588D01*
X103450321Y-75414751D01*
X103544678Y-75223835D01*
X103548477Y-75214240D01*
X103610385Y-75010478D01*
X103612563Y-75000405D01*
X103613994Y-74989530D01*
X103611783Y-74975346D01*
X103598625Y-74971568D01*
X100963233Y-74971568D01*
X100949702Y-74975541D01*
X100948265Y-74985534D01*
X100978573Y-75120014D01*
X100981653Y-75129843D01*
X101061778Y-75327171D01*
X101066421Y-75336362D01*
X101177702Y-75517956D01*
X101183785Y-75526267D01*
X101323221Y-75687235D01*
X101330588Y-75694451D01*
X101494442Y-75830484D01*
X101502889Y-75836399D01*
X101571977Y-75876771D01*
X101620701Y-75928410D01*
X101633772Y-75998193D01*
X101607041Y-76063964D01*
X101566592Y-76097320D01*
X101553615Y-76104075D01*
X101549482Y-76107178D01*
X101549479Y-76107180D01*
X101525255Y-76125368D01*
X101374973Y-76238203D01*
X101220637Y-76399706D01*
X101217723Y-76403978D01*
X101217722Y-76403979D01*
X101205412Y-76422025D01*
X101094751Y-76584248D01*
X101000696Y-76786873D01*
X100940997Y-77002138D01*
X100917259Y-77224263D01*
X100430015Y-77224263D01*
X100430015Y-69371751D01*
X100944397Y-69371751D01*
X100945920Y-69380175D01*
X100958300Y-69383568D01*
X102007893Y-69383568D01*
X102023132Y-69379093D01*
X102024337Y-69377703D01*
X102026008Y-69370020D01*
X102026008Y-69365453D01*
X102534008Y-69365453D01*
X102538483Y-69380692D01*
X102539873Y-69381897D01*
X102547556Y-69383568D01*
X103598352Y-69383568D01*
X103611883Y-69379595D01*
X103613188Y-69370515D01*
X103571222Y-69203443D01*
X103567902Y-69193692D01*
X103482980Y-68998382D01*
X103478113Y-68989307D01*
X103362434Y-68810494D01*
X103356144Y-68802325D01*
X103212814Y-68644808D01*
X103205281Y-68637783D01*
X103038147Y-68505790D01*
X103029560Y-68500085D01*
X102992124Y-68479419D01*
X102942154Y-68428987D01*
X102927382Y-68359544D01*
X102952498Y-68293139D01*
X102979850Y-68266532D01*
X103155335Y-68141360D01*
X103163208Y-68134707D01*
X103314060Y-67984380D01*
X103320738Y-67976533D01*
X103445011Y-67803588D01*
X103450321Y-67794751D01*
X103544678Y-67603835D01*
X103548477Y-67594240D01*
X103610385Y-67390478D01*
X103612563Y-67380405D01*
X103613994Y-67369530D01*
X103611783Y-67355346D01*
X103598625Y-67351568D01*
X102552123Y-67351568D01*
X102536884Y-67356043D01*
X102535679Y-67357433D01*
X102534008Y-67365116D01*
X102534008Y-69365453D01*
X102026008Y-69365453D01*
X102026008Y-67369683D01*
X102021533Y-67354444D01*
X102020143Y-67353239D01*
X102012460Y-67351568D01*
X100963233Y-67351568D01*
X100949702Y-67355541D01*
X100948265Y-67365534D01*
X100978573Y-67500014D01*
X100981653Y-67509843D01*
X101061778Y-67707171D01*
X101066421Y-67716362D01*
X101177702Y-67897956D01*
X101183785Y-67906267D01*
X101323221Y-68067235D01*
X101330588Y-68074451D01*
X101494442Y-68210484D01*
X101502889Y-68216399D01*
X101572487Y-68257069D01*
X101621211Y-68308708D01*
X101634282Y-68378491D01*
X101607551Y-68444262D01*
X101567095Y-68477621D01*
X101558470Y-68482110D01*
X101549746Y-68487604D01*
X101379441Y-68615473D01*
X101371734Y-68622316D01*
X101224598Y-68776285D01*
X101218112Y-68784295D01*
X101098106Y-68960217D01*
X101093008Y-68969191D01*
X101003346Y-69162351D01*
X100999783Y-69172038D01*
X100944397Y-69371751D01*
X100430015Y-69371751D01*
X100430015Y-64524263D01*
X100917259Y-64524263D01*
X100917556Y-64529416D01*
X100917556Y-64529419D01*
X100923019Y-64624158D01*
X100930118Y-64747283D01*
X100931255Y-64752329D01*
X100931256Y-64752335D01*
X100951127Y-64840507D01*
X100979230Y-64965207D01*
X101063274Y-65172184D01*
X101179995Y-65362656D01*
X101326258Y-65531506D01*
X101498134Y-65674200D01*
X101571963Y-65717342D01*
X101620687Y-65768980D01*
X101633758Y-65838763D01*
X101607027Y-65904535D01*
X101566570Y-65937895D01*
X101558465Y-65942114D01*
X101549746Y-65947604D01*
X101379441Y-66075473D01*
X101371734Y-66082316D01*
X101224598Y-66236285D01*
X101218112Y-66244295D01*
X101098106Y-66420217D01*
X101093008Y-66429191D01*
X101003346Y-66622351D01*
X100999783Y-66632038D01*
X100944397Y-66831751D01*
X100945920Y-66840175D01*
X100958300Y-66843568D01*
X103598352Y-66843568D01*
X103611883Y-66839595D01*
X103613188Y-66830515D01*
X103571222Y-66663443D01*
X103567902Y-66653692D01*
X103482980Y-66458382D01*
X103478113Y-66449307D01*
X103362434Y-66270494D01*
X103356144Y-66262325D01*
X103212814Y-66104808D01*
X103205281Y-66097783D01*
X103038147Y-65965790D01*
X103029564Y-65960088D01*
X102992610Y-65939688D01*
X102942639Y-65889255D01*
X102927867Y-65819813D01*
X102952983Y-65753407D01*
X102980335Y-65726800D01*
X103003805Y-65710059D01*
X103159868Y-65598741D01*
X103318104Y-65441057D01*
X103377602Y-65358257D01*
X103445443Y-65263845D01*
X103448461Y-65259645D01*
X103547438Y-65059379D01*
X103612378Y-64845637D01*
X103641537Y-64624158D01*
X103643164Y-64557568D01*
X103624860Y-64334929D01*
X103570439Y-64118270D01*
X103481362Y-63913408D01*
X103360022Y-63725845D01*
X103209678Y-63560619D01*
X103153915Y-63516580D01*
X103112853Y-63458664D01*
X103106008Y-63417699D01*
X103106008Y-63162054D01*
X103126010Y-63093933D01*
X103152549Y-63066078D01*
X103151708Y-63065083D01*
X103155665Y-63061739D01*
X103159868Y-63058741D01*
X103318104Y-62901057D01*
X103377602Y-62818257D01*
X103445443Y-62723845D01*
X103448461Y-62719645D01*
X103547438Y-62519379D01*
X103612378Y-62305637D01*
X103641537Y-62084158D01*
X103643164Y-62017568D01*
X103624860Y-61794929D01*
X103570439Y-61578270D01*
X103481362Y-61373408D01*
X103360022Y-61185845D01*
X103340413Y-61164295D01*
X103212806Y-61024056D01*
X103181754Y-60960210D01*
X103190149Y-60889711D01*
X103235325Y-60834943D01*
X103261769Y-60821274D01*
X103368305Y-60781335D01*
X103376713Y-60778183D01*
X103493269Y-60690829D01*
X103580623Y-60574273D01*
X103631753Y-60437884D01*
X103638508Y-60375702D01*
X103638508Y-58579434D01*
X103631753Y-58517252D01*
X103580623Y-58380863D01*
X103493269Y-58264307D01*
X103376713Y-58176953D01*
X103240324Y-58125823D01*
X103178142Y-58119068D01*
X101381874Y-58119068D01*
X101319692Y-58125823D01*
X101183303Y-58176953D01*
X101066747Y-58264307D01*
X100979393Y-58380863D01*
X100928263Y-58517252D01*
X100921508Y-58579434D01*
X100921508Y-60375702D01*
X100928263Y-60437884D01*
X100979393Y-60574273D01*
X101066747Y-60690829D01*
X101183303Y-60778183D01*
X101191712Y-60781335D01*
X101191713Y-60781336D01*
X101300459Y-60822103D01*
X101357224Y-60864744D01*
X101381924Y-60931306D01*
X101366717Y-61000655D01*
X101347324Y-61027136D01*
X101220637Y-61159706D01*
X101217723Y-61163978D01*
X101217722Y-61163979D01*
X101205417Y-61182018D01*
X101094751Y-61344248D01*
X101000696Y-61546873D01*
X100940997Y-61762138D01*
X100917259Y-61984263D01*
X100917556Y-61989416D01*
X100917556Y-61989419D01*
X100923019Y-62084158D01*
X100930118Y-62207283D01*
X100931255Y-62212329D01*
X100931256Y-62212335D01*
X100944605Y-62271568D01*
X100979230Y-62425207D01*
X101063274Y-62632184D01*
X101179995Y-62822656D01*
X101326258Y-62991506D01*
X101330233Y-62994806D01*
X101330236Y-62994809D01*
X101408493Y-63059779D01*
X101448128Y-63118682D01*
X101454008Y-63156723D01*
X101454008Y-63415903D01*
X101434006Y-63484024D01*
X101403663Y-63516662D01*
X101374973Y-63538203D01*
X101220637Y-63699706D01*
X101094751Y-63884248D01*
X101000696Y-64086873D01*
X100940997Y-64302138D01*
X100917259Y-64524263D01*
X100430015Y-64524263D01*
X100430015Y-51814774D01*
X101857545Y-51814774D01*
X101865682Y-51825780D01*
X102125942Y-52025484D01*
X102131541Y-52029318D01*
X102427265Y-52209121D01*
X102433255Y-52212333D01*
X102746661Y-52359143D01*
X102752965Y-52361690D01*
X103080388Y-52473791D01*
X103086939Y-52475645D01*
X103424543Y-52551727D01*
X103431262Y-52552864D01*
X103775117Y-52592042D01*
X103781907Y-52592445D01*
X104127977Y-52594257D01*
X104134778Y-52593925D01*
X104479024Y-52558351D01*
X104485752Y-52557285D01*
X104824148Y-52484738D01*
X104830697Y-52482959D01*
X105159282Y-52374290D01*
X105165624Y-52371804D01*
X105480527Y-52228295D01*
X105486581Y-52225130D01*
X105784132Y-52048458D01*
X105789813Y-52044655D01*
X106066551Y-51836874D01*
X106071775Y-51832490D01*
X106078242Y-51826438D01*
X106086311Y-51812758D01*
X106086284Y-51812034D01*
X106081140Y-51803731D01*
X103984816Y-49707407D01*
X103970872Y-49699793D01*
X103969039Y-49699924D01*
X103962424Y-49704175D01*
X101864426Y-51802173D01*
X101857545Y-51814774D01*
X100430015Y-51814774D01*
X100430015Y-49327392D01*
X100709411Y-49327392D01*
X100726921Y-49673044D01*
X100727631Y-49679800D01*
X100782367Y-50021526D01*
X100783806Y-50028181D01*
X100875126Y-50361989D01*
X100877275Y-50368450D01*
X101004114Y-50690452D01*
X101006945Y-50696635D01*
X101167819Y-51003055D01*
X101171302Y-51008898D01*
X101364325Y-51296146D01*
X101368428Y-51301590D01*
X101483915Y-51438736D01*
X101496654Y-51447179D01*
X101507098Y-51441081D01*
X103599982Y-49348197D01*
X103606360Y-49336517D01*
X104336412Y-49336517D01*
X104336543Y-49338350D01*
X104340794Y-49344965D01*
X106435557Y-51439728D01*
X106449154Y-51447153D01*
X106458765Y-51440453D01*
X106554849Y-51328745D01*
X106559007Y-51323345D01*
X106755027Y-51038136D01*
X106758574Y-51032325D01*
X106922638Y-50727623D01*
X106925545Y-50721445D01*
X107055748Y-50400796D01*
X107057962Y-50394366D01*
X107152773Y-50061528D01*
X107154280Y-50054898D01*
X107212594Y-49713747D01*
X107213374Y-49707007D01*
X107234599Y-49359961D01*
X107234715Y-49356358D01*
X107234783Y-49337204D01*
X107234691Y-49333579D01*
X107215889Y-48986408D01*
X107215154Y-48979642D01*
X107177311Y-48748551D01*
X108855405Y-48748551D01*
X108856928Y-48756975D01*
X108869308Y-48760368D01*
X109918901Y-48760368D01*
X109934140Y-48755893D01*
X109935345Y-48754503D01*
X109937016Y-48746820D01*
X109937016Y-47697470D01*
X109933098Y-47684126D01*
X109918822Y-47682139D01*
X109880340Y-47688028D01*
X109870304Y-47690419D01*
X109667884Y-47756580D01*
X109658375Y-47760577D01*
X109469479Y-47858910D01*
X109460754Y-47864404D01*
X109290449Y-47992273D01*
X109282742Y-47999116D01*
X109135606Y-48153085D01*
X109129120Y-48161095D01*
X109009114Y-48337017D01*
X109004016Y-48345991D01*
X108914354Y-48539151D01*
X108910791Y-48548838D01*
X108855405Y-48748551D01*
X107177311Y-48748551D01*
X107159228Y-48638123D01*
X107157761Y-48631451D01*
X107065282Y-48297982D01*
X107063108Y-48291519D01*
X106935147Y-47969968D01*
X106932294Y-47963794D01*
X106770347Y-47657930D01*
X106766853Y-47652113D01*
X106572817Y-47365525D01*
X106568703Y-47360106D01*
X106460094Y-47232038D01*
X106447269Y-47223602D01*
X106436944Y-47229655D01*
X104344026Y-49322573D01*
X104336412Y-49336517D01*
X103606360Y-49336517D01*
X103607596Y-49334253D01*
X103607465Y-49332420D01*
X103603214Y-49325805D01*
X101508461Y-47231052D01*
X101494924Y-47223660D01*
X101485223Y-47230448D01*
X101382224Y-47351044D01*
X101378070Y-47356477D01*
X101183060Y-47642350D01*
X101179525Y-47648187D01*
X101016522Y-47953465D01*
X101013646Y-47959634D01*
X100884562Y-48280740D01*
X100882369Y-48287180D01*
X100788718Y-48620353D01*
X100787235Y-48626988D01*
X100730116Y-48968321D01*
X100729357Y-48975093D01*
X100709435Y-49320597D01*
X100709411Y-49327392D01*
X100430015Y-49327392D01*
X100430015Y-48336609D01*
X100431515Y-48317224D01*
X100433820Y-48302423D01*
X100433820Y-48302420D01*
X100435201Y-48293551D01*
X100432956Y-48276382D01*
X100432123Y-48252442D01*
X100447725Y-47994511D01*
X100449559Y-47979407D01*
X100467965Y-47878966D01*
X100501055Y-47698402D01*
X100504694Y-47683634D01*
X100513519Y-47655316D01*
X100589690Y-47410873D01*
X100595085Y-47396651D01*
X100712329Y-47136145D01*
X100719400Y-47122672D01*
X100867197Y-46878186D01*
X100875840Y-46865664D01*
X100882143Y-46857619D01*
X101857326Y-46857619D01*
X101857361Y-46858460D01*
X101862414Y-46866585D01*
X103959192Y-48963363D01*
X103973136Y-48970977D01*
X103974969Y-48970846D01*
X103981584Y-48966595D01*
X106079435Y-46868744D01*
X106087049Y-46854800D01*
X106086981Y-46853845D01*
X106083028Y-46847867D01*
X105808671Y-46638864D01*
X105803045Y-46635040D01*
X105506710Y-46456279D01*
X105500698Y-46453082D01*
X105186778Y-46307365D01*
X105180478Y-46304845D01*
X104852668Y-46193888D01*
X104846090Y-46192052D01*
X104508241Y-46117153D01*
X104501503Y-46116037D01*
X104157519Y-46078060D01*
X104150739Y-46077681D01*
X103804640Y-46077078D01*
X103797867Y-46077433D01*
X103453730Y-46114210D01*
X103447020Y-46115297D01*
X103108887Y-46189022D01*
X103102312Y-46190833D01*
X102774121Y-46300644D01*
X102767799Y-46303147D01*
X102453392Y-46447758D01*
X102447349Y-46450944D01*
X102150406Y-46628661D01*
X102144760Y-46632470D01*
X101868730Y-46841229D01*
X101865144Y-46844260D01*
X101857326Y-46857619D01*
X100882143Y-46857619D01*
X101052031Y-46640774D01*
X101062121Y-46629386D01*
X101264120Y-46427387D01*
X101275508Y-46417297D01*
X101500398Y-46241106D01*
X101512920Y-46232463D01*
X101757406Y-46084666D01*
X101770875Y-46077597D01*
X102031388Y-45960350D01*
X102045607Y-45954956D01*
X102318374Y-45869959D01*
X102333136Y-45866321D01*
X102543367Y-45827795D01*
X102614141Y-45814825D01*
X102629245Y-45812991D01*
X102879944Y-45797826D01*
X102906654Y-45799083D01*
X102906874Y-45799086D01*
X102915745Y-45800467D01*
X102924647Y-45799303D01*
X102924650Y-45799303D01*
X102947266Y-45796345D01*
X102963604Y-45795281D01*
X119950685Y-45795281D01*
X119970070Y-45796781D01*
G37*
%TD.AperFunction*%
%TD*%
M02*
