%TF.GenerationSoftware,KiCad,Pcbnew,(6.0.0)*%
%TF.CreationDate,2022-03-13T16:03:09-04:00*%
%TF.ProjectId,JTAG_ISP-ISP,4a544147-5f49-4535-902d-4953502e6b69,v1.0.0*%
%TF.SameCoordinates,Original*%
%TF.FileFunction,Copper,L1,Top*%
%TF.FilePolarity,Positive*%
%FSLAX46Y46*%
G04 Gerber Fmt 4.6, Leading zero omitted, Abs format (unit mm)*
G04 Created by KiCad (PCBNEW (6.0.0)) date 2022-03-13 16:03:09*
%MOMM*%
%LPD*%
G01*
G04 APERTURE LIST*
%TA.AperFunction,ComponentPad*%
%ADD10C,3.200001*%
%TD*%
%TA.AperFunction,ComponentPad*%
%ADD11R,1.700000X1.700000*%
%TD*%
%TA.AperFunction,ComponentPad*%
%ADD12O,1.700000X1.700000*%
%TD*%
%TA.AperFunction,ComponentPad*%
%ADD13C,1.600000*%
%TD*%
%TA.AperFunction,ComponentPad*%
%ADD14C,1.700000*%
%TD*%
%TA.AperFunction,ViaPad*%
%ADD15C,1.200000*%
%TD*%
%TA.AperFunction,Conductor*%
%ADD16C,0.508000*%
%TD*%
%TA.AperFunction,Conductor*%
%ADD17C,0.250000*%
%TD*%
G04 APERTURE END LIST*
D10*
%TO.P,REF\u002A\u002A,*%
%TO.N,*%
X163850000Y-65863580D03*
%TD*%
D11*
%TO.P,J2,1,Pin_1*%
%TO.N,unconnected-(J2-Pad1)*%
X147179995Y-75505767D03*
D12*
%TO.P,J2,2,Pin_2*%
%TO.N,+5V*%
X147179995Y-78045767D03*
%TO.P,J2,3,Pin_3*%
%TO.N,unconnected-(J2-Pad3)*%
X147179995Y-80585767D03*
%TO.P,J2,4,Pin_4*%
%TO.N,GND*%
X147179995Y-83125767D03*
%TO.P,J2,5,Pin_5*%
%TO.N,unconnected-(J2-Pad5)*%
X147179995Y-85665767D03*
%TO.P,J2,6,Pin_6*%
%TO.N,MISO*%
X147179995Y-88205767D03*
%TO.P,J2,7,Pin_7*%
%TO.N,unconnected-(J2-Pad7)*%
X147179995Y-90745767D03*
%TO.P,J2,8,Pin_8*%
%TO.N,unconnected-(J2-Pad8)*%
X147179995Y-93285767D03*
%TD*%
D13*
%TO.P,C1,1*%
%TO.N,+5V*%
X147300000Y-71250000D03*
%TO.P,C1,2*%
%TO.N,GND*%
X147300000Y-68750000D03*
%TD*%
D14*
%TO.P,J3,1,Pin_1*%
%TO.N,SCLK*%
X165542011Y-75505767D03*
D12*
%TO.P,J3,2,Pin_2*%
%TO.N,unconnected-(J3-Pad2)*%
X165542011Y-78045767D03*
%TO.P,J3,3,Pin_3*%
%TO.N,unconnected-(J3-Pad3)*%
X165542011Y-80585767D03*
%TO.P,J3,4,Pin_4*%
%TO.N,unconnected-(J3-Pad4)*%
X165542011Y-83125767D03*
%TO.P,J3,5,Pin_5*%
%TO.N,MOSI*%
X165542011Y-85665767D03*
%TO.P,J3,6,Pin_6*%
%TO.N,unconnected-(J3-Pad6)*%
X165542011Y-88205767D03*
%TO.P,J3,7,Pin_7*%
%TO.N,RESET*%
X165542011Y-90745767D03*
%TO.P,J3,8,Pin_8*%
%TO.N,unconnected-(J3-Pad8)*%
X165542011Y-93285767D03*
%TD*%
D11*
%TO.P,J1,1,Pin_1*%
%TO.N,MISO*%
X155089962Y-81841797D03*
D12*
%TO.P,J1,2,Pin_2*%
%TO.N,SCLK*%
X157629962Y-81841797D03*
%TO.P,J1,3,Pin_3*%
%TO.N,RESET*%
X155089962Y-84381797D03*
%TO.P,J1,4,Pin_4*%
%TO.N,GND*%
X157629962Y-84381797D03*
%TO.P,J1,5,Pin_5*%
%TO.N,MOSI*%
X155089962Y-86921797D03*
%TO.P,J1,6,Pin_6*%
%TO.N,+5V*%
X157629962Y-86921797D03*
%TD*%
D15*
%TO.N,+5V*%
X160396797Y-86921797D03*
%TO.N,GND*%
X162110242Y-83749998D03*
%TO.N,MISO*%
X151658203Y-81841797D03*
%TO.N,SCLK*%
X162110242Y-81841797D03*
%TO.N,RESET*%
X151658193Y-84381797D03*
%TO.N,MOSI*%
X162110242Y-85665767D03*
%TD*%
D16*
%TO.N,+5V*%
X157629962Y-86921797D02*
X160396797Y-86921797D01*
D17*
%TO.N,MISO*%
X155089962Y-81841797D02*
X151658203Y-81841797D01*
%TO.N,SCLK*%
X157629962Y-81841797D02*
X162110242Y-81841797D01*
%TO.N,RESET*%
X155089962Y-84381797D02*
X151658193Y-84381797D01*
%TO.N,MOSI*%
X155500000Y-88500000D02*
X161800000Y-88500000D01*
X155089962Y-86921797D02*
X155089962Y-88089962D01*
X155089962Y-88089962D02*
X155500000Y-88500000D01*
X162110242Y-88189758D02*
X162110242Y-85665767D01*
X161800000Y-88500000D02*
X162110242Y-88189758D01*
%TD*%
%TA.AperFunction,Conductor*%
%TO.N,GND*%
G36*
X164870057Y-62323080D02*
G01*
X164884858Y-62325385D01*
X164884861Y-62325385D01*
X164893730Y-62326766D01*
X164910899Y-62324521D01*
X164934839Y-62323688D01*
X165192770Y-62339290D01*
X165207874Y-62341124D01*
X165278648Y-62354094D01*
X165488879Y-62392620D01*
X165503641Y-62396258D01*
X165776408Y-62481255D01*
X165790627Y-62486649D01*
X166051140Y-62603896D01*
X166064609Y-62610965D01*
X166309095Y-62758762D01*
X166321617Y-62767405D01*
X166546507Y-62943596D01*
X166557895Y-62953686D01*
X166759894Y-63155685D01*
X166769984Y-63167073D01*
X166946175Y-63391963D01*
X166954818Y-63404485D01*
X167102615Y-63648971D01*
X167109684Y-63662440D01*
X167202068Y-63867709D01*
X167226930Y-63922950D01*
X167232325Y-63937172D01*
X167291147Y-64125937D01*
X167317321Y-64209933D01*
X167320960Y-64224701D01*
X167336206Y-64307893D01*
X167372456Y-64505706D01*
X167374290Y-64520810D01*
X167389455Y-64771509D01*
X167388198Y-64798219D01*
X167388195Y-64798439D01*
X167386814Y-64807310D01*
X167387978Y-64816212D01*
X167387978Y-64816215D01*
X167390936Y-64838831D01*
X167392000Y-64855169D01*
X167392000Y-103900672D01*
X167390500Y-103920056D01*
X167386814Y-103943730D01*
X167388454Y-103956270D01*
X167389059Y-103960897D01*
X167389892Y-103984839D01*
X167374290Y-104242770D01*
X167372456Y-104257874D01*
X167320962Y-104538873D01*
X167317321Y-104553647D01*
X167232326Y-104826404D01*
X167226930Y-104840630D01*
X167109686Y-105101136D01*
X167102615Y-105114609D01*
X166954818Y-105359095D01*
X166946175Y-105371617D01*
X166769984Y-105596507D01*
X166759894Y-105607895D01*
X166557895Y-105809894D01*
X166546507Y-105819984D01*
X166321617Y-105996175D01*
X166309095Y-106004818D01*
X166064609Y-106152615D01*
X166051140Y-106159684D01*
X165790630Y-106276930D01*
X165776408Y-106282325D01*
X165503641Y-106367322D01*
X165488879Y-106370960D01*
X165278648Y-106409486D01*
X165207874Y-106422456D01*
X165192770Y-106424290D01*
X164942071Y-106439455D01*
X164915361Y-106438198D01*
X164915141Y-106438195D01*
X164906270Y-106436814D01*
X164897368Y-106437978D01*
X164897365Y-106437978D01*
X164874749Y-106440936D01*
X164858411Y-106442000D01*
X147871330Y-106442000D01*
X147851945Y-106440500D01*
X147837144Y-106438195D01*
X147837141Y-106438195D01*
X147828272Y-106436814D01*
X147811103Y-106439059D01*
X147787163Y-106439892D01*
X147529232Y-106424290D01*
X147514128Y-106422456D01*
X147443354Y-106409486D01*
X147233123Y-106370960D01*
X147218361Y-106367322D01*
X146945594Y-106282325D01*
X146931372Y-106276930D01*
X146670862Y-106159684D01*
X146657393Y-106152615D01*
X146412907Y-106004818D01*
X146400385Y-105996175D01*
X146175495Y-105819984D01*
X146164107Y-105809894D01*
X145962108Y-105607895D01*
X145952018Y-105596507D01*
X145775827Y-105371617D01*
X145767184Y-105359095D01*
X145619387Y-105114609D01*
X145612316Y-105101136D01*
X145495072Y-104840630D01*
X145489676Y-104826404D01*
X145404681Y-104553647D01*
X145401040Y-104538873D01*
X145349546Y-104257874D01*
X145347712Y-104242770D01*
X145332547Y-103992071D01*
X145333804Y-103965361D01*
X145333807Y-103965141D01*
X145335188Y-103956270D01*
X145333549Y-103943730D01*
X145331066Y-103924749D01*
X145330002Y-103908411D01*
X145330002Y-93252462D01*
X145817246Y-93252462D01*
X145817543Y-93257615D01*
X145817543Y-93257618D01*
X145823006Y-93352357D01*
X145830105Y-93475482D01*
X145831242Y-93480528D01*
X145831243Y-93480534D01*
X145851114Y-93568706D01*
X145879217Y-93693406D01*
X145963261Y-93900383D01*
X146079982Y-94090855D01*
X146226245Y-94259705D01*
X146398121Y-94402399D01*
X146590995Y-94515105D01*
X146799687Y-94594797D01*
X146804755Y-94595828D01*
X146804758Y-94595829D01*
X146912012Y-94617650D01*
X147018592Y-94639334D01*
X147023767Y-94639524D01*
X147023769Y-94639524D01*
X147236668Y-94647331D01*
X147236672Y-94647331D01*
X147241832Y-94647520D01*
X147246952Y-94646864D01*
X147246954Y-94646864D01*
X147458283Y-94619792D01*
X147458284Y-94619792D01*
X147463411Y-94619135D01*
X147468361Y-94617650D01*
X147672424Y-94556428D01*
X147672429Y-94556426D01*
X147677379Y-94554941D01*
X147877989Y-94456663D01*
X148059855Y-94326940D01*
X148218091Y-94169256D01*
X148277589Y-94086456D01*
X148345430Y-93992044D01*
X148348448Y-93987844D01*
X148447425Y-93787578D01*
X148512365Y-93573836D01*
X148541524Y-93352357D01*
X148543151Y-93285767D01*
X148540413Y-93252462D01*
X164179262Y-93252462D01*
X164179559Y-93257615D01*
X164179559Y-93257618D01*
X164185022Y-93352357D01*
X164192121Y-93475482D01*
X164193258Y-93480528D01*
X164193259Y-93480534D01*
X164213130Y-93568706D01*
X164241233Y-93693406D01*
X164325277Y-93900383D01*
X164441998Y-94090855D01*
X164588261Y-94259705D01*
X164760137Y-94402399D01*
X164953011Y-94515105D01*
X165161703Y-94594797D01*
X165166771Y-94595828D01*
X165166774Y-94595829D01*
X165274028Y-94617650D01*
X165380608Y-94639334D01*
X165385783Y-94639524D01*
X165385785Y-94639524D01*
X165598684Y-94647331D01*
X165598688Y-94647331D01*
X165603848Y-94647520D01*
X165608968Y-94646864D01*
X165608970Y-94646864D01*
X165820299Y-94619792D01*
X165820300Y-94619792D01*
X165825427Y-94619135D01*
X165830377Y-94617650D01*
X166034440Y-94556428D01*
X166034445Y-94556426D01*
X166039395Y-94554941D01*
X166240005Y-94456663D01*
X166421871Y-94326940D01*
X166580107Y-94169256D01*
X166639605Y-94086456D01*
X166707446Y-93992044D01*
X166710464Y-93987844D01*
X166809441Y-93787578D01*
X166874381Y-93573836D01*
X166903540Y-93352357D01*
X166905167Y-93285767D01*
X166886863Y-93063128D01*
X166832442Y-92846469D01*
X166743365Y-92641607D01*
X166622025Y-92454044D01*
X166471681Y-92288818D01*
X166467630Y-92285619D01*
X166467626Y-92285615D01*
X166300425Y-92153567D01*
X166300421Y-92153565D01*
X166296370Y-92150365D01*
X166255064Y-92127563D01*
X166205095Y-92077131D01*
X166190323Y-92007688D01*
X166215439Y-91941283D01*
X166242791Y-91914676D01*
X166286614Y-91883417D01*
X166421871Y-91786940D01*
X166580107Y-91629256D01*
X166639605Y-91546456D01*
X166707446Y-91452044D01*
X166710464Y-91447844D01*
X166809441Y-91247578D01*
X166874381Y-91033836D01*
X166903540Y-90812357D01*
X166905167Y-90745767D01*
X166886863Y-90523128D01*
X166832442Y-90306469D01*
X166743365Y-90101607D01*
X166622025Y-89914044D01*
X166471681Y-89748818D01*
X166467630Y-89745619D01*
X166467626Y-89745615D01*
X166300425Y-89613567D01*
X166300421Y-89613565D01*
X166296370Y-89610365D01*
X166255064Y-89587563D01*
X166205095Y-89537131D01*
X166190323Y-89467688D01*
X166215439Y-89401283D01*
X166242791Y-89374676D01*
X166286614Y-89343417D01*
X166421871Y-89246940D01*
X166580107Y-89089256D01*
X166592227Y-89072390D01*
X166707446Y-88912044D01*
X166710464Y-88907844D01*
X166718173Y-88892247D01*
X166807147Y-88712220D01*
X166807148Y-88712218D01*
X166809441Y-88707578D01*
X166855719Y-88555260D01*
X166872876Y-88498790D01*
X166872876Y-88498788D01*
X166874381Y-88493836D01*
X166903540Y-88272357D01*
X166903622Y-88269007D01*
X166905085Y-88209132D01*
X166905085Y-88209128D01*
X166905167Y-88205767D01*
X166886863Y-87983128D01*
X166832442Y-87766469D01*
X166743365Y-87561607D01*
X166703917Y-87500629D01*
X166624833Y-87378384D01*
X166624831Y-87378381D01*
X166622025Y-87374044D01*
X166471681Y-87208818D01*
X166467630Y-87205619D01*
X166467626Y-87205615D01*
X166300425Y-87073567D01*
X166300421Y-87073565D01*
X166296370Y-87070365D01*
X166255064Y-87047563D01*
X166205095Y-86997131D01*
X166190323Y-86927688D01*
X166215439Y-86861283D01*
X166242791Y-86834676D01*
X166286614Y-86803417D01*
X166421871Y-86706940D01*
X166467586Y-86661385D01*
X166576446Y-86552904D01*
X166580107Y-86549256D01*
X166639605Y-86466456D01*
X166707446Y-86372044D01*
X166710464Y-86367844D01*
X166748309Y-86291271D01*
X166807147Y-86172220D01*
X166807148Y-86172218D01*
X166809441Y-86167578D01*
X166874381Y-85953836D01*
X166903540Y-85732357D01*
X166903654Y-85727704D01*
X166905085Y-85669132D01*
X166905085Y-85669128D01*
X166905167Y-85665767D01*
X166886863Y-85443128D01*
X166832442Y-85226469D01*
X166743365Y-85021607D01*
X166703917Y-84960629D01*
X166624833Y-84838384D01*
X166624831Y-84838381D01*
X166622025Y-84834044D01*
X166471681Y-84668818D01*
X166467630Y-84665619D01*
X166467626Y-84665615D01*
X166300425Y-84533567D01*
X166300421Y-84533565D01*
X166296370Y-84530365D01*
X166255064Y-84507563D01*
X166205095Y-84457131D01*
X166190323Y-84387688D01*
X166215439Y-84321283D01*
X166242791Y-84294676D01*
X166300101Y-84253797D01*
X166421871Y-84166940D01*
X166444066Y-84144823D01*
X166576446Y-84012904D01*
X166580107Y-84009256D01*
X166628077Y-83942499D01*
X166707446Y-83832044D01*
X166710464Y-83827844D01*
X166733818Y-83780592D01*
X166807147Y-83632220D01*
X166807148Y-83632218D01*
X166809441Y-83627578D01*
X166874381Y-83413836D01*
X166903540Y-83192357D01*
X166903687Y-83186332D01*
X166905085Y-83129132D01*
X166905085Y-83129128D01*
X166905167Y-83125767D01*
X166886863Y-82903128D01*
X166832442Y-82686469D01*
X166743365Y-82481607D01*
X166703917Y-82420629D01*
X166624833Y-82298384D01*
X166624831Y-82298381D01*
X166622025Y-82294044D01*
X166471681Y-82128818D01*
X166467630Y-82125619D01*
X166467626Y-82125615D01*
X166300425Y-81993567D01*
X166300421Y-81993565D01*
X166296370Y-81990365D01*
X166255064Y-81967563D01*
X166205095Y-81917131D01*
X166190323Y-81847688D01*
X166215439Y-81781283D01*
X166242791Y-81754676D01*
X166286614Y-81723417D01*
X166421871Y-81626940D01*
X166444066Y-81604823D01*
X166576446Y-81472904D01*
X166580107Y-81469256D01*
X166639605Y-81386456D01*
X166707446Y-81292044D01*
X166710464Y-81287844D01*
X166721603Y-81265307D01*
X166807147Y-81092220D01*
X166807148Y-81092218D01*
X166809441Y-81087578D01*
X166867165Y-80897588D01*
X166872876Y-80878790D01*
X166872876Y-80878788D01*
X166874381Y-80873836D01*
X166903540Y-80652357D01*
X166904122Y-80628536D01*
X166905085Y-80589132D01*
X166905085Y-80589128D01*
X166905167Y-80585767D01*
X166886863Y-80363128D01*
X166832442Y-80146469D01*
X166743365Y-79941607D01*
X166622025Y-79754044D01*
X166471681Y-79588818D01*
X166467630Y-79585619D01*
X166467626Y-79585615D01*
X166300425Y-79453567D01*
X166300421Y-79453565D01*
X166296370Y-79450365D01*
X166255064Y-79427563D01*
X166205095Y-79377131D01*
X166190323Y-79307688D01*
X166215439Y-79241283D01*
X166242791Y-79214676D01*
X166286614Y-79183417D01*
X166421871Y-79086940D01*
X166580107Y-78929256D01*
X166639605Y-78846456D01*
X166707446Y-78752044D01*
X166710464Y-78747844D01*
X166809441Y-78547578D01*
X166874381Y-78333836D01*
X166903540Y-78112357D01*
X166905167Y-78045767D01*
X166886863Y-77823128D01*
X166832442Y-77606469D01*
X166743365Y-77401607D01*
X166622025Y-77214044D01*
X166471681Y-77048818D01*
X166467630Y-77045619D01*
X166467626Y-77045615D01*
X166300425Y-76913567D01*
X166300421Y-76913565D01*
X166296370Y-76910365D01*
X166255064Y-76887563D01*
X166205095Y-76837131D01*
X166190323Y-76767688D01*
X166215439Y-76701283D01*
X166242791Y-76674676D01*
X166286614Y-76643417D01*
X166421871Y-76546940D01*
X166580107Y-76389256D01*
X166639605Y-76306456D01*
X166707446Y-76212044D01*
X166710464Y-76207844D01*
X166809441Y-76007578D01*
X166874381Y-75793836D01*
X166903540Y-75572357D01*
X166905167Y-75505767D01*
X166886863Y-75283128D01*
X166832442Y-75066469D01*
X166743365Y-74861607D01*
X166622025Y-74674044D01*
X166471681Y-74508818D01*
X166467630Y-74505619D01*
X166467626Y-74505615D01*
X166300425Y-74373567D01*
X166300421Y-74373565D01*
X166296370Y-74370365D01*
X166100800Y-74262405D01*
X166095931Y-74260681D01*
X166095927Y-74260679D01*
X165895098Y-74189562D01*
X165895094Y-74189561D01*
X165890223Y-74187836D01*
X165885130Y-74186929D01*
X165885127Y-74186928D01*
X165675384Y-74149567D01*
X165675378Y-74149566D01*
X165670295Y-74148661D01*
X165596463Y-74147759D01*
X165452092Y-74145995D01*
X165452090Y-74145995D01*
X165446922Y-74145932D01*
X165226102Y-74179722D01*
X165013767Y-74249124D01*
X164815618Y-74352274D01*
X164811485Y-74355377D01*
X164811482Y-74355379D01*
X164641111Y-74483297D01*
X164636976Y-74486402D01*
X164482640Y-74647905D01*
X164356754Y-74832447D01*
X164262699Y-75035072D01*
X164203000Y-75250337D01*
X164179262Y-75472462D01*
X164179559Y-75477615D01*
X164179559Y-75477618D01*
X164185022Y-75572357D01*
X164192121Y-75695482D01*
X164193258Y-75700528D01*
X164193259Y-75700534D01*
X164213130Y-75788706D01*
X164241233Y-75913406D01*
X164325277Y-76120383D01*
X164441998Y-76310855D01*
X164588261Y-76479705D01*
X164760137Y-76622399D01*
X164830606Y-76663578D01*
X164833456Y-76665243D01*
X164882180Y-76716881D01*
X164895251Y-76786664D01*
X164868520Y-76852436D01*
X164828066Y-76885794D01*
X164815618Y-76892274D01*
X164811485Y-76895377D01*
X164811482Y-76895379D01*
X164687578Y-76988409D01*
X164636976Y-77026402D01*
X164482640Y-77187905D01*
X164356754Y-77372447D01*
X164262699Y-77575072D01*
X164203000Y-77790337D01*
X164179262Y-78012462D01*
X164179559Y-78017615D01*
X164179559Y-78017618D01*
X164185022Y-78112357D01*
X164192121Y-78235482D01*
X164193258Y-78240528D01*
X164193259Y-78240534D01*
X164213130Y-78328706D01*
X164241233Y-78453406D01*
X164325277Y-78660383D01*
X164441998Y-78850855D01*
X164588261Y-79019705D01*
X164760137Y-79162399D01*
X164830606Y-79203578D01*
X164833456Y-79205243D01*
X164882180Y-79256881D01*
X164895251Y-79326664D01*
X164868520Y-79392436D01*
X164828066Y-79425794D01*
X164815618Y-79432274D01*
X164811485Y-79435377D01*
X164811482Y-79435379D01*
X164787258Y-79453567D01*
X164636976Y-79566402D01*
X164482640Y-79727905D01*
X164356754Y-79912447D01*
X164262699Y-80115072D01*
X164203000Y-80330337D01*
X164179262Y-80552462D01*
X164179559Y-80557615D01*
X164179559Y-80557618D01*
X164188322Y-80709597D01*
X164192121Y-80775482D01*
X164193258Y-80780528D01*
X164193259Y-80780534D01*
X164209583Y-80852966D01*
X164241233Y-80993406D01*
X164285130Y-81101512D01*
X164320369Y-81188295D01*
X164325277Y-81200383D01*
X164441998Y-81390855D01*
X164588261Y-81559705D01*
X164760137Y-81702399D01*
X164830606Y-81743578D01*
X164833456Y-81745243D01*
X164882180Y-81796881D01*
X164895251Y-81866664D01*
X164868520Y-81932436D01*
X164828066Y-81965794D01*
X164815618Y-81972274D01*
X164811485Y-81975377D01*
X164811482Y-81975379D01*
X164749988Y-82021550D01*
X164636976Y-82106402D01*
X164633404Y-82110140D01*
X164534720Y-82213407D01*
X164482640Y-82267905D01*
X164479726Y-82272177D01*
X164479725Y-82272178D01*
X164397186Y-82393176D01*
X164356754Y-82452447D01*
X164341014Y-82486357D01*
X164273096Y-82632674D01*
X164262699Y-82655072D01*
X164203000Y-82870337D01*
X164179262Y-83092462D01*
X164179559Y-83097615D01*
X164179559Y-83097618D01*
X164189613Y-83271980D01*
X164192121Y-83315482D01*
X164193258Y-83320528D01*
X164193259Y-83320534D01*
X164209222Y-83391365D01*
X164241233Y-83533406D01*
X164285130Y-83641512D01*
X164320369Y-83728295D01*
X164325277Y-83740383D01*
X164441998Y-83930855D01*
X164588261Y-84099705D01*
X164760137Y-84242399D01*
X164830606Y-84283578D01*
X164833456Y-84285243D01*
X164882180Y-84336881D01*
X164895251Y-84406664D01*
X164868520Y-84472436D01*
X164828066Y-84505794D01*
X164815618Y-84512274D01*
X164811485Y-84515377D01*
X164811482Y-84515379D01*
X164641111Y-84643297D01*
X164636976Y-84646402D01*
X164624969Y-84658967D01*
X164506854Y-84782567D01*
X164482640Y-84807905D01*
X164479726Y-84812177D01*
X164479725Y-84812178D01*
X164430999Y-84883608D01*
X164356754Y-84992447D01*
X164318220Y-85075462D01*
X164268542Y-85182485D01*
X164262699Y-85195072D01*
X164203000Y-85410337D01*
X164179262Y-85632462D01*
X164179559Y-85637615D01*
X164179559Y-85637618D01*
X164188322Y-85789597D01*
X164192121Y-85855482D01*
X164193258Y-85860528D01*
X164193259Y-85860534D01*
X164209167Y-85931119D01*
X164241233Y-86073406D01*
X164325277Y-86280383D01*
X164376030Y-86363205D01*
X164433290Y-86456644D01*
X164441998Y-86470855D01*
X164588261Y-86639705D01*
X164760137Y-86782399D01*
X164830606Y-86823578D01*
X164833456Y-86825243D01*
X164882180Y-86876881D01*
X164895251Y-86946664D01*
X164868520Y-87012436D01*
X164828066Y-87045794D01*
X164815618Y-87052274D01*
X164811485Y-87055377D01*
X164811482Y-87055379D01*
X164641111Y-87183297D01*
X164636976Y-87186402D01*
X164633404Y-87190140D01*
X164505109Y-87324393D01*
X164482640Y-87347905D01*
X164356754Y-87532447D01*
X164341014Y-87566357D01*
X164276415Y-87705524D01*
X164262699Y-87735072D01*
X164203000Y-87950337D01*
X164179262Y-88172462D01*
X164179559Y-88177615D01*
X164179559Y-88177618D01*
X164190132Y-88360990D01*
X164192121Y-88395482D01*
X164193258Y-88400528D01*
X164193259Y-88400534D01*
X164212731Y-88486935D01*
X164241233Y-88613406D01*
X164325277Y-88820383D01*
X164327976Y-88824787D01*
X164429354Y-88990221D01*
X164441998Y-89010855D01*
X164588261Y-89179705D01*
X164760137Y-89322399D01*
X164830606Y-89363578D01*
X164833456Y-89365243D01*
X164882180Y-89416881D01*
X164895251Y-89486664D01*
X164868520Y-89552436D01*
X164828066Y-89585794D01*
X164815618Y-89592274D01*
X164811485Y-89595377D01*
X164811482Y-89595379D01*
X164787258Y-89613567D01*
X164636976Y-89726402D01*
X164482640Y-89887905D01*
X164356754Y-90072447D01*
X164262699Y-90275072D01*
X164203000Y-90490337D01*
X164179262Y-90712462D01*
X164179559Y-90717615D01*
X164179559Y-90717618D01*
X164185022Y-90812357D01*
X164192121Y-90935482D01*
X164193258Y-90940528D01*
X164193259Y-90940534D01*
X164213130Y-91028706D01*
X164241233Y-91153406D01*
X164325277Y-91360383D01*
X164441998Y-91550855D01*
X164588261Y-91719705D01*
X164760137Y-91862399D01*
X164830606Y-91903578D01*
X164833456Y-91905243D01*
X164882180Y-91956881D01*
X164895251Y-92026664D01*
X164868520Y-92092436D01*
X164828066Y-92125794D01*
X164815618Y-92132274D01*
X164811485Y-92135377D01*
X164811482Y-92135379D01*
X164787258Y-92153567D01*
X164636976Y-92266402D01*
X164482640Y-92427905D01*
X164356754Y-92612447D01*
X164262699Y-92815072D01*
X164203000Y-93030337D01*
X164179262Y-93252462D01*
X148540413Y-93252462D01*
X148524847Y-93063128D01*
X148470426Y-92846469D01*
X148381349Y-92641607D01*
X148260009Y-92454044D01*
X148109665Y-92288818D01*
X148105614Y-92285619D01*
X148105610Y-92285615D01*
X147938409Y-92153567D01*
X147938405Y-92153565D01*
X147934354Y-92150365D01*
X147893048Y-92127563D01*
X147843079Y-92077131D01*
X147828307Y-92007688D01*
X147853423Y-91941283D01*
X147880775Y-91914676D01*
X147924598Y-91883417D01*
X148059855Y-91786940D01*
X148218091Y-91629256D01*
X148277589Y-91546456D01*
X148345430Y-91452044D01*
X148348448Y-91447844D01*
X148447425Y-91247578D01*
X148512365Y-91033836D01*
X148541524Y-90812357D01*
X148543151Y-90745767D01*
X148524847Y-90523128D01*
X148470426Y-90306469D01*
X148381349Y-90101607D01*
X148260009Y-89914044D01*
X148109665Y-89748818D01*
X148105614Y-89745619D01*
X148105610Y-89745615D01*
X147938409Y-89613567D01*
X147938405Y-89613565D01*
X147934354Y-89610365D01*
X147893048Y-89587563D01*
X147843079Y-89537131D01*
X147828307Y-89467688D01*
X147853423Y-89401283D01*
X147880775Y-89374676D01*
X147924598Y-89343417D01*
X148059855Y-89246940D01*
X148218091Y-89089256D01*
X148230211Y-89072390D01*
X148345430Y-88912044D01*
X148348448Y-88907844D01*
X148356157Y-88892247D01*
X148445131Y-88712220D01*
X148445132Y-88712218D01*
X148447425Y-88707578D01*
X148493703Y-88555260D01*
X148510860Y-88498790D01*
X148510860Y-88498788D01*
X148512365Y-88493836D01*
X148541524Y-88272357D01*
X148541606Y-88269007D01*
X148543069Y-88209132D01*
X148543069Y-88209128D01*
X148543151Y-88205767D01*
X148524847Y-87983128D01*
X148470426Y-87766469D01*
X148381349Y-87561607D01*
X148341901Y-87500629D01*
X148262817Y-87378384D01*
X148262815Y-87378381D01*
X148260009Y-87374044D01*
X148109665Y-87208818D01*
X148105614Y-87205619D01*
X148105610Y-87205615D01*
X147938409Y-87073567D01*
X147938405Y-87073565D01*
X147934354Y-87070365D01*
X147893048Y-87047563D01*
X147843079Y-86997131D01*
X147828307Y-86927688D01*
X147853423Y-86861283D01*
X147880775Y-86834676D01*
X147924598Y-86803417D01*
X148059855Y-86706940D01*
X148105570Y-86661385D01*
X148214430Y-86552904D01*
X148218091Y-86549256D01*
X148277589Y-86466456D01*
X148345430Y-86372044D01*
X148348448Y-86367844D01*
X148386293Y-86291271D01*
X148445131Y-86172220D01*
X148445132Y-86172218D01*
X148447425Y-86167578D01*
X148512365Y-85953836D01*
X148541524Y-85732357D01*
X148541638Y-85727704D01*
X148543069Y-85669132D01*
X148543069Y-85669128D01*
X148543151Y-85665767D01*
X148524847Y-85443128D01*
X148470426Y-85226469D01*
X148381349Y-85021607D01*
X148341901Y-84960629D01*
X148262817Y-84838384D01*
X148262815Y-84838381D01*
X148260009Y-84834044D01*
X148109665Y-84668818D01*
X148105614Y-84665619D01*
X148105610Y-84665615D01*
X147938409Y-84533567D01*
X147938405Y-84533565D01*
X147934354Y-84530365D01*
X147892564Y-84507296D01*
X147842593Y-84456864D01*
X147827821Y-84387421D01*
X147840970Y-84352656D01*
X150545325Y-84352656D01*
X150558650Y-84555948D01*
X150608798Y-84753407D01*
X150694091Y-84938421D01*
X150811672Y-85104794D01*
X150815806Y-85108821D01*
X150936575Y-85226469D01*
X150957603Y-85246954D01*
X150962399Y-85250159D01*
X150962402Y-85250161D01*
X150990498Y-85268934D01*
X151126996Y-85360139D01*
X151132299Y-85362417D01*
X151132302Y-85362419D01*
X151299633Y-85434310D01*
X151314180Y-85440560D01*
X151348338Y-85448289D01*
X151507248Y-85484247D01*
X151507253Y-85484248D01*
X151512885Y-85485522D01*
X151518656Y-85485749D01*
X151518658Y-85485749D01*
X151581663Y-85488224D01*
X151716456Y-85493520D01*
X151918076Y-85464287D01*
X151923540Y-85462432D01*
X151923545Y-85462431D01*
X152105520Y-85400659D01*
X152105525Y-85400657D01*
X152110992Y-85398801D01*
X152288744Y-85299255D01*
X152445379Y-85168983D01*
X152495415Y-85108821D01*
X152535414Y-85060728D01*
X152594352Y-85021144D01*
X152632288Y-85015297D01*
X153814236Y-85015297D01*
X153882357Y-85035299D01*
X153921669Y-85075462D01*
X153989949Y-85186885D01*
X154136212Y-85355735D01*
X154239920Y-85441835D01*
X154301177Y-85492691D01*
X154308088Y-85498429D01*
X154378557Y-85539608D01*
X154381407Y-85541273D01*
X154430131Y-85592911D01*
X154443202Y-85662694D01*
X154416471Y-85728466D01*
X154376017Y-85761824D01*
X154363569Y-85768304D01*
X154359436Y-85771407D01*
X154359433Y-85771409D01*
X154189062Y-85899327D01*
X154184927Y-85902432D01*
X154030591Y-86063935D01*
X154027682Y-86068200D01*
X154027676Y-86068208D01*
X154015366Y-86086254D01*
X153904705Y-86248477D01*
X153810650Y-86451102D01*
X153750951Y-86666367D01*
X153727213Y-86888492D01*
X153727510Y-86893645D01*
X153727510Y-86893648D01*
X153737884Y-87073567D01*
X153740072Y-87111512D01*
X153741209Y-87116558D01*
X153741210Y-87116564D01*
X153756949Y-87186402D01*
X153789184Y-87329436D01*
X153873228Y-87536413D01*
X153924904Y-87620741D01*
X153978979Y-87708983D01*
X153989949Y-87726885D01*
X154136212Y-87895735D01*
X154308088Y-88038429D01*
X154312555Y-88041039D01*
X154397849Y-88090881D01*
X154446573Y-88142520D01*
X154458727Y-88179956D01*
X154459040Y-88181933D01*
X154459289Y-88189851D01*
X154461499Y-88197457D01*
X154461499Y-88197459D01*
X154464940Y-88209301D01*
X154468949Y-88228662D01*
X154471488Y-88248759D01*
X154474407Y-88256130D01*
X154474407Y-88256132D01*
X154487766Y-88289874D01*
X154491611Y-88301104D01*
X154503944Y-88343555D01*
X154507977Y-88350374D01*
X154507979Y-88350379D01*
X154514255Y-88360990D01*
X154522950Y-88378738D01*
X154530410Y-88397579D01*
X154535072Y-88403995D01*
X154535072Y-88403996D01*
X154556398Y-88433349D01*
X154562914Y-88443269D01*
X154574921Y-88463571D01*
X154585420Y-88481324D01*
X154599741Y-88495645D01*
X154612581Y-88510678D01*
X154624490Y-88527069D01*
X154658567Y-88555260D01*
X154667346Y-88563250D01*
X154996343Y-88892247D01*
X155003887Y-88900537D01*
X155008000Y-88907018D01*
X155013777Y-88912443D01*
X155057667Y-88953658D01*
X155060509Y-88956413D01*
X155080230Y-88976134D01*
X155083425Y-88978612D01*
X155092447Y-88986318D01*
X155124679Y-89016586D01*
X155131628Y-89020406D01*
X155142432Y-89026346D01*
X155158956Y-89037199D01*
X155174959Y-89049613D01*
X155215543Y-89067176D01*
X155226173Y-89072383D01*
X155264940Y-89093695D01*
X155272617Y-89095666D01*
X155272622Y-89095668D01*
X155284558Y-89098732D01*
X155303266Y-89105137D01*
X155321855Y-89113181D01*
X155329683Y-89114421D01*
X155329690Y-89114423D01*
X155365524Y-89120099D01*
X155377144Y-89122505D01*
X155408959Y-89130673D01*
X155419970Y-89133500D01*
X155440224Y-89133500D01*
X155459934Y-89135051D01*
X155479943Y-89138220D01*
X155487835Y-89137474D01*
X155506580Y-89135702D01*
X155523962Y-89134059D01*
X155535819Y-89133500D01*
X161721233Y-89133500D01*
X161732416Y-89134027D01*
X161739909Y-89135702D01*
X161747835Y-89135453D01*
X161747836Y-89135453D01*
X161807986Y-89133562D01*
X161811945Y-89133500D01*
X161839856Y-89133500D01*
X161843791Y-89133003D01*
X161843856Y-89132995D01*
X161855693Y-89132062D01*
X161887951Y-89131048D01*
X161891970Y-89130922D01*
X161899889Y-89130673D01*
X161919343Y-89125021D01*
X161938700Y-89121013D01*
X161950930Y-89119468D01*
X161950931Y-89119468D01*
X161958797Y-89118474D01*
X161966168Y-89115555D01*
X161966170Y-89115555D01*
X161999912Y-89102196D01*
X162011142Y-89098351D01*
X162045983Y-89088229D01*
X162045984Y-89088229D01*
X162053593Y-89086018D01*
X162060412Y-89081985D01*
X162060417Y-89081983D01*
X162071028Y-89075707D01*
X162088776Y-89067012D01*
X162107617Y-89059552D01*
X162127987Y-89044753D01*
X162143387Y-89033564D01*
X162153307Y-89027048D01*
X162184535Y-89008580D01*
X162184538Y-89008578D01*
X162191362Y-89004542D01*
X162205683Y-88990221D01*
X162220717Y-88977380D01*
X162222432Y-88976134D01*
X162237107Y-88965472D01*
X162265298Y-88931395D01*
X162273288Y-88922616D01*
X162502489Y-88693415D01*
X162510779Y-88685871D01*
X162517260Y-88681758D01*
X162563901Y-88632090D01*
X162566655Y-88629249D01*
X162586376Y-88609528D01*
X162588854Y-88606333D01*
X162596560Y-88597311D01*
X162621400Y-88570859D01*
X162626828Y-88565079D01*
X162636588Y-88547326D01*
X162647441Y-88530803D01*
X162654995Y-88521064D01*
X162659855Y-88514799D01*
X162677418Y-88474215D01*
X162682625Y-88463585D01*
X162703937Y-88424818D01*
X162705908Y-88417141D01*
X162705910Y-88417136D01*
X162708974Y-88405200D01*
X162715380Y-88386488D01*
X162720276Y-88375175D01*
X162723423Y-88367903D01*
X162727280Y-88343555D01*
X162730339Y-88324239D01*
X162732746Y-88312618D01*
X162741770Y-88277469D01*
X162741770Y-88277468D01*
X162743742Y-88269788D01*
X162743742Y-88249527D01*
X162745293Y-88229816D01*
X162747221Y-88217643D01*
X162748461Y-88209815D01*
X162744301Y-88165804D01*
X162743742Y-88153947D01*
X162743742Y-86639862D01*
X162763744Y-86571741D01*
X162789173Y-86542988D01*
X162892990Y-86456644D01*
X162897428Y-86452953D01*
X163027700Y-86296318D01*
X163115637Y-86139295D01*
X163124422Y-86123609D01*
X163124423Y-86123607D01*
X163127246Y-86118566D01*
X163129102Y-86113099D01*
X163129104Y-86113094D01*
X163190876Y-85931119D01*
X163190877Y-85931114D01*
X163192732Y-85925650D01*
X163221965Y-85724030D01*
X163223491Y-85665767D01*
X163204850Y-85462893D01*
X163191476Y-85415474D01*
X163151117Y-85272373D01*
X163151116Y-85272371D01*
X163149549Y-85266814D01*
X163139756Y-85246954D01*
X163061998Y-85089277D01*
X163059443Y-85084096D01*
X163041038Y-85059448D01*
X162941000Y-84925482D01*
X162941000Y-84925481D01*
X162937547Y-84920858D01*
X162819978Y-84812178D01*
X162792185Y-84786486D01*
X162792182Y-84786484D01*
X162787945Y-84782567D01*
X162741729Y-84753407D01*
X162620530Y-84676936D01*
X162620525Y-84676934D01*
X162615646Y-84673855D01*
X162426422Y-84598362D01*
X162226608Y-84558616D01*
X162220834Y-84558540D01*
X162220830Y-84558540D01*
X162117694Y-84557191D01*
X162022897Y-84555950D01*
X162017200Y-84556929D01*
X162017199Y-84556929D01*
X161827809Y-84589472D01*
X161822112Y-84590451D01*
X161630976Y-84660965D01*
X161626015Y-84663917D01*
X161626014Y-84663917D01*
X161475596Y-84753407D01*
X161455891Y-84765130D01*
X161302720Y-84899457D01*
X161299153Y-84903982D01*
X161299148Y-84903987D01*
X161272003Y-84938421D01*
X161176593Y-85059448D01*
X161173904Y-85064559D01*
X161173902Y-85064562D01*
X161125951Y-85155702D01*
X161081734Y-85239745D01*
X161021320Y-85434310D01*
X160997374Y-85636626D01*
X160997752Y-85642392D01*
X161006606Y-85777479D01*
X160991102Y-85846762D01*
X160940602Y-85896665D01*
X160871140Y-85911343D01*
X160834189Y-85902751D01*
X160712977Y-85854392D01*
X160513163Y-85814646D01*
X160507389Y-85814570D01*
X160507385Y-85814570D01*
X160404249Y-85813221D01*
X160309452Y-85811980D01*
X160303755Y-85812959D01*
X160303754Y-85812959D01*
X160114364Y-85845502D01*
X160108667Y-85846481D01*
X159917531Y-85916995D01*
X159742446Y-86021160D01*
X159625625Y-86123609D01*
X159620585Y-86128029D01*
X159556181Y-86157906D01*
X159537508Y-86159297D01*
X158823313Y-86159297D01*
X158755192Y-86139295D01*
X158717520Y-86101736D01*
X158709976Y-86090074D01*
X158559632Y-85924848D01*
X158555581Y-85921649D01*
X158555577Y-85921645D01*
X158388376Y-85789597D01*
X158388372Y-85789595D01*
X158384321Y-85786395D01*
X158342531Y-85763326D01*
X158292560Y-85712894D01*
X158277788Y-85643451D01*
X158302904Y-85577045D01*
X158330256Y-85550438D01*
X158505290Y-85425589D01*
X158513162Y-85418936D01*
X158664014Y-85268609D01*
X158670692Y-85260762D01*
X158794965Y-85087817D01*
X158800275Y-85078980D01*
X158894632Y-84888064D01*
X158898431Y-84878469D01*
X158960339Y-84674707D01*
X158962517Y-84664634D01*
X158963948Y-84653759D01*
X158961737Y-84639575D01*
X158948579Y-84635797D01*
X157501962Y-84635797D01*
X157433841Y-84615795D01*
X157387348Y-84562139D01*
X157375962Y-84509797D01*
X157375962Y-84253797D01*
X157395964Y-84185676D01*
X157449620Y-84139183D01*
X157501962Y-84127797D01*
X158948306Y-84127797D01*
X158961837Y-84123824D01*
X158963142Y-84114744D01*
X158921176Y-83947672D01*
X158917856Y-83937921D01*
X158832934Y-83742611D01*
X158828067Y-83733536D01*
X158712388Y-83554723D01*
X158706098Y-83546554D01*
X158562768Y-83389037D01*
X158555235Y-83382012D01*
X158388101Y-83250019D01*
X158379518Y-83244317D01*
X158342564Y-83223917D01*
X158292593Y-83173484D01*
X158277821Y-83104042D01*
X158302937Y-83037636D01*
X158330289Y-83011029D01*
X158353759Y-82994288D01*
X158509822Y-82882970D01*
X158536910Y-82855977D01*
X158653578Y-82739715D01*
X158668058Y-82725286D01*
X158678927Y-82710161D01*
X158795397Y-82548074D01*
X158798415Y-82543874D01*
X158800708Y-82539234D01*
X158802408Y-82536405D01*
X158854636Y-82488315D01*
X158910413Y-82475297D01*
X161135228Y-82475297D01*
X161203349Y-82495299D01*
X161238124Y-82528576D01*
X161252527Y-82548955D01*
X161263721Y-82564794D01*
X161267855Y-82568821D01*
X161388624Y-82686469D01*
X161409652Y-82706954D01*
X161414448Y-82710159D01*
X161414451Y-82710161D01*
X161482391Y-82755557D01*
X161579045Y-82820139D01*
X161584348Y-82822417D01*
X161584351Y-82822419D01*
X161725287Y-82882970D01*
X161766229Y-82900560D01*
X161800387Y-82908289D01*
X161959297Y-82944247D01*
X161959302Y-82944248D01*
X161964934Y-82945522D01*
X161970705Y-82945749D01*
X161970707Y-82945749D01*
X162033712Y-82948224D01*
X162168505Y-82953520D01*
X162370125Y-82924287D01*
X162375589Y-82922432D01*
X162375594Y-82922431D01*
X162557569Y-82860659D01*
X162557574Y-82860657D01*
X162563041Y-82858801D01*
X162740793Y-82759255D01*
X162897428Y-82628983D01*
X163027700Y-82472348D01*
X163127246Y-82294596D01*
X163129102Y-82289129D01*
X163129104Y-82289124D01*
X163190876Y-82107149D01*
X163190877Y-82107144D01*
X163192732Y-82101680D01*
X163221965Y-81900060D01*
X163223491Y-81841797D01*
X163210922Y-81705009D01*
X163205379Y-81644677D01*
X163205378Y-81644674D01*
X163204850Y-81638923D01*
X163156998Y-81469256D01*
X163151117Y-81448403D01*
X163151116Y-81448401D01*
X163149549Y-81442844D01*
X163138922Y-81421293D01*
X163061998Y-81265307D01*
X163059443Y-81260126D01*
X163041038Y-81235478D01*
X162941000Y-81101512D01*
X162941000Y-81101511D01*
X162937547Y-81096888D01*
X162820146Y-80988363D01*
X162792185Y-80962516D01*
X162792182Y-80962514D01*
X162787945Y-80958597D01*
X162661458Y-80878790D01*
X162620530Y-80852966D01*
X162620525Y-80852964D01*
X162615646Y-80849885D01*
X162426422Y-80774392D01*
X162226608Y-80734646D01*
X162220834Y-80734570D01*
X162220830Y-80734570D01*
X162117694Y-80733221D01*
X162022897Y-80731980D01*
X162017200Y-80732959D01*
X162017199Y-80732959D01*
X161946589Y-80745092D01*
X161822112Y-80766481D01*
X161630976Y-80836995D01*
X161626015Y-80839947D01*
X161626014Y-80839947D01*
X161568639Y-80874082D01*
X161455891Y-80941160D01*
X161302720Y-81075487D01*
X161299149Y-81080017D01*
X161299148Y-81080018D01*
X161235856Y-81160303D01*
X161177974Y-81201416D01*
X161136906Y-81208297D01*
X158906767Y-81208297D01*
X158838646Y-81188295D01*
X158800975Y-81150737D01*
X158712784Y-81014414D01*
X158712782Y-81014411D01*
X158709976Y-81010074D01*
X158559632Y-80844848D01*
X158555581Y-80841649D01*
X158555577Y-80841645D01*
X158388376Y-80709597D01*
X158388372Y-80709595D01*
X158384321Y-80706395D01*
X158188751Y-80598435D01*
X158183882Y-80596711D01*
X158183878Y-80596709D01*
X157983049Y-80525592D01*
X157983045Y-80525591D01*
X157978174Y-80523866D01*
X157973081Y-80522959D01*
X157973078Y-80522958D01*
X157763335Y-80485597D01*
X157763329Y-80485596D01*
X157758246Y-80484691D01*
X157684414Y-80483789D01*
X157540043Y-80482025D01*
X157540041Y-80482025D01*
X157534873Y-80481962D01*
X157314053Y-80515752D01*
X157101718Y-80585154D01*
X156903569Y-80688304D01*
X156899436Y-80691407D01*
X156899433Y-80691409D01*
X156729062Y-80819327D01*
X156724927Y-80822432D01*
X156668499Y-80881481D01*
X156644245Y-80906861D01*
X156582721Y-80942291D01*
X156511808Y-80938834D01*
X156454022Y-80897588D01*
X156435169Y-80864040D01*
X156393729Y-80753500D01*
X156390577Y-80745092D01*
X156303223Y-80628536D01*
X156186667Y-80541182D01*
X156050278Y-80490052D01*
X155988096Y-80483297D01*
X154191828Y-80483297D01*
X154129646Y-80490052D01*
X153993257Y-80541182D01*
X153876701Y-80628536D01*
X153789347Y-80745092D01*
X153738217Y-80881481D01*
X153731462Y-80943663D01*
X153731462Y-81082297D01*
X153711460Y-81150418D01*
X153657804Y-81196911D01*
X153605462Y-81208297D01*
X152631866Y-81208297D01*
X152563745Y-81188295D01*
X152530908Y-81157686D01*
X152488961Y-81101512D01*
X152488960Y-81101511D01*
X152485508Y-81096888D01*
X152368107Y-80988363D01*
X152340146Y-80962516D01*
X152340143Y-80962514D01*
X152335906Y-80958597D01*
X152209419Y-80878790D01*
X152168491Y-80852966D01*
X152168486Y-80852964D01*
X152163607Y-80849885D01*
X151974383Y-80774392D01*
X151774569Y-80734646D01*
X151768795Y-80734570D01*
X151768791Y-80734570D01*
X151665655Y-80733221D01*
X151570858Y-80731980D01*
X151565161Y-80732959D01*
X151565160Y-80732959D01*
X151494550Y-80745092D01*
X151370073Y-80766481D01*
X151178937Y-80836995D01*
X151173976Y-80839947D01*
X151173975Y-80839947D01*
X151116600Y-80874082D01*
X151003852Y-80941160D01*
X150850681Y-81075487D01*
X150847114Y-81080012D01*
X150847109Y-81080017D01*
X150761750Y-81188295D01*
X150724554Y-81235478D01*
X150721865Y-81240589D01*
X150721863Y-81240592D01*
X150697003Y-81287844D01*
X150629695Y-81415775D01*
X150569281Y-81610340D01*
X150545335Y-81812656D01*
X150558660Y-82015948D01*
X150608808Y-82213407D01*
X150694101Y-82398421D01*
X150811682Y-82564794D01*
X150815816Y-82568821D01*
X150936585Y-82686469D01*
X150957613Y-82706954D01*
X150962409Y-82710159D01*
X150962412Y-82710161D01*
X151030352Y-82755557D01*
X151127006Y-82820139D01*
X151132309Y-82822417D01*
X151132312Y-82822419D01*
X151273248Y-82882970D01*
X151314190Y-82900560D01*
X151348348Y-82908289D01*
X151507258Y-82944247D01*
X151507263Y-82944248D01*
X151512895Y-82945522D01*
X151518666Y-82945749D01*
X151518668Y-82945749D01*
X151581673Y-82948224D01*
X151716466Y-82953520D01*
X151918086Y-82924287D01*
X151923550Y-82922432D01*
X151923555Y-82922431D01*
X152105530Y-82860659D01*
X152105535Y-82860657D01*
X152111002Y-82858801D01*
X152288754Y-82759255D01*
X152445389Y-82628983D01*
X152495425Y-82568821D01*
X152535424Y-82520728D01*
X152594362Y-82481144D01*
X152632298Y-82475297D01*
X153605462Y-82475297D01*
X153673583Y-82495299D01*
X153720076Y-82548955D01*
X153731462Y-82601297D01*
X153731462Y-82739931D01*
X153738217Y-82802113D01*
X153789347Y-82938502D01*
X153876701Y-83055058D01*
X153993257Y-83142412D01*
X154001666Y-83145564D01*
X154001667Y-83145565D01*
X154110413Y-83186332D01*
X154167178Y-83228973D01*
X154191878Y-83295535D01*
X154176671Y-83364884D01*
X154157278Y-83391365D01*
X154135804Y-83413836D01*
X154054805Y-83498597D01*
X154030591Y-83523935D01*
X154027677Y-83528207D01*
X154027676Y-83528208D01*
X153915057Y-83693301D01*
X153860146Y-83738304D01*
X153810969Y-83748297D01*
X152631856Y-83748297D01*
X152563735Y-83728295D01*
X152530898Y-83697686D01*
X152488951Y-83641512D01*
X152488950Y-83641511D01*
X152485498Y-83636888D01*
X152391583Y-83550074D01*
X152340136Y-83502516D01*
X152340133Y-83502514D01*
X152335896Y-83498597D01*
X152209230Y-83418677D01*
X152168481Y-83392966D01*
X152168476Y-83392964D01*
X152163597Y-83389885D01*
X151974373Y-83314392D01*
X151774559Y-83274646D01*
X151768785Y-83274570D01*
X151768781Y-83274570D01*
X151665645Y-83273221D01*
X151570848Y-83271980D01*
X151565151Y-83272959D01*
X151565150Y-83272959D01*
X151433765Y-83295535D01*
X151370063Y-83306481D01*
X151178927Y-83376995D01*
X151003842Y-83481160D01*
X150850671Y-83615487D01*
X150847104Y-83620012D01*
X150847099Y-83620017D01*
X150800360Y-83679306D01*
X150724544Y-83775478D01*
X150721855Y-83780589D01*
X150721853Y-83780592D01*
X150696993Y-83827844D01*
X150629685Y-83955775D01*
X150569271Y-84150340D01*
X150545325Y-84352656D01*
X147840970Y-84352656D01*
X147852937Y-84321015D01*
X147880289Y-84294408D01*
X148055323Y-84169559D01*
X148063195Y-84162906D01*
X148214047Y-84012579D01*
X148220725Y-84004732D01*
X148344998Y-83831787D01*
X148350308Y-83822950D01*
X148444665Y-83632034D01*
X148448464Y-83622439D01*
X148510372Y-83418677D01*
X148512550Y-83408604D01*
X148513981Y-83397729D01*
X148511770Y-83383545D01*
X148498612Y-83379767D01*
X145863220Y-83379767D01*
X145849689Y-83383740D01*
X145848252Y-83393733D01*
X145878560Y-83528213D01*
X145881640Y-83538042D01*
X145961765Y-83735370D01*
X145966408Y-83744561D01*
X146077689Y-83926155D01*
X146083772Y-83934466D01*
X146223208Y-84095434D01*
X146230575Y-84102650D01*
X146394429Y-84238683D01*
X146402876Y-84244598D01*
X146471964Y-84284970D01*
X146520688Y-84336609D01*
X146533759Y-84406392D01*
X146507028Y-84472163D01*
X146466579Y-84505519D01*
X146453602Y-84512274D01*
X146449469Y-84515377D01*
X146449466Y-84515379D01*
X146279095Y-84643297D01*
X146274960Y-84646402D01*
X146262953Y-84658967D01*
X146144838Y-84782567D01*
X146120624Y-84807905D01*
X146117710Y-84812177D01*
X146117709Y-84812178D01*
X146068983Y-84883608D01*
X145994738Y-84992447D01*
X145956204Y-85075462D01*
X145906526Y-85182485D01*
X145900683Y-85195072D01*
X145840984Y-85410337D01*
X145817246Y-85632462D01*
X145817543Y-85637615D01*
X145817543Y-85637618D01*
X145826306Y-85789597D01*
X145830105Y-85855482D01*
X145831242Y-85860528D01*
X145831243Y-85860534D01*
X145847151Y-85931119D01*
X145879217Y-86073406D01*
X145963261Y-86280383D01*
X146014014Y-86363205D01*
X146071274Y-86456644D01*
X146079982Y-86470855D01*
X146226245Y-86639705D01*
X146398121Y-86782399D01*
X146468590Y-86823578D01*
X146471440Y-86825243D01*
X146520164Y-86876881D01*
X146533235Y-86946664D01*
X146506504Y-87012436D01*
X146466050Y-87045794D01*
X146453602Y-87052274D01*
X146449469Y-87055377D01*
X146449466Y-87055379D01*
X146279095Y-87183297D01*
X146274960Y-87186402D01*
X146271388Y-87190140D01*
X146143093Y-87324393D01*
X146120624Y-87347905D01*
X145994738Y-87532447D01*
X145978998Y-87566357D01*
X145914399Y-87705524D01*
X145900683Y-87735072D01*
X145840984Y-87950337D01*
X145817246Y-88172462D01*
X145817543Y-88177615D01*
X145817543Y-88177618D01*
X145828116Y-88360990D01*
X145830105Y-88395482D01*
X145831242Y-88400528D01*
X145831243Y-88400534D01*
X145850715Y-88486935D01*
X145879217Y-88613406D01*
X145963261Y-88820383D01*
X145965960Y-88824787D01*
X146067338Y-88990221D01*
X146079982Y-89010855D01*
X146226245Y-89179705D01*
X146398121Y-89322399D01*
X146468590Y-89363578D01*
X146471440Y-89365243D01*
X146520164Y-89416881D01*
X146533235Y-89486664D01*
X146506504Y-89552436D01*
X146466050Y-89585794D01*
X146453602Y-89592274D01*
X146449469Y-89595377D01*
X146449466Y-89595379D01*
X146425242Y-89613567D01*
X146274960Y-89726402D01*
X146120624Y-89887905D01*
X145994738Y-90072447D01*
X145900683Y-90275072D01*
X145840984Y-90490337D01*
X145817246Y-90712462D01*
X145817543Y-90717615D01*
X145817543Y-90717618D01*
X145823006Y-90812357D01*
X145830105Y-90935482D01*
X145831242Y-90940528D01*
X145831243Y-90940534D01*
X145851114Y-91028706D01*
X145879217Y-91153406D01*
X145963261Y-91360383D01*
X146079982Y-91550855D01*
X146226245Y-91719705D01*
X146398121Y-91862399D01*
X146468590Y-91903578D01*
X146471440Y-91905243D01*
X146520164Y-91956881D01*
X146533235Y-92026664D01*
X146506504Y-92092436D01*
X146466050Y-92125794D01*
X146453602Y-92132274D01*
X146449469Y-92135377D01*
X146449466Y-92135379D01*
X146425242Y-92153567D01*
X146274960Y-92266402D01*
X146120624Y-92427905D01*
X145994738Y-92612447D01*
X145900683Y-92815072D01*
X145840984Y-93030337D01*
X145817246Y-93252462D01*
X145330002Y-93252462D01*
X145330002Y-80552462D01*
X145817246Y-80552462D01*
X145817543Y-80557615D01*
X145817543Y-80557618D01*
X145826306Y-80709597D01*
X145830105Y-80775482D01*
X145831242Y-80780528D01*
X145831243Y-80780534D01*
X145847567Y-80852966D01*
X145879217Y-80993406D01*
X145923114Y-81101512D01*
X145958353Y-81188295D01*
X145963261Y-81200383D01*
X146079982Y-81390855D01*
X146226245Y-81559705D01*
X146398121Y-81702399D01*
X146471440Y-81745243D01*
X146471950Y-81745541D01*
X146520674Y-81797179D01*
X146533745Y-81866962D01*
X146507014Y-81932734D01*
X146466557Y-81966094D01*
X146458452Y-81970313D01*
X146449733Y-81975803D01*
X146279428Y-82103672D01*
X146271721Y-82110515D01*
X146124585Y-82264484D01*
X146118099Y-82272494D01*
X145998093Y-82448416D01*
X145992995Y-82457390D01*
X145903333Y-82650550D01*
X145899770Y-82660237D01*
X145844384Y-82859950D01*
X145845907Y-82868374D01*
X145858287Y-82871767D01*
X148498339Y-82871767D01*
X148511870Y-82867794D01*
X148513175Y-82858714D01*
X148471209Y-82691642D01*
X148467889Y-82681891D01*
X148382967Y-82486581D01*
X148378100Y-82477506D01*
X148262421Y-82298693D01*
X148256131Y-82290524D01*
X148112801Y-82133007D01*
X148105268Y-82125982D01*
X147938134Y-81993989D01*
X147929551Y-81988287D01*
X147892597Y-81967887D01*
X147842626Y-81917454D01*
X147827854Y-81848012D01*
X147852970Y-81781606D01*
X147880322Y-81754999D01*
X147903792Y-81738258D01*
X148059855Y-81626940D01*
X148082050Y-81604823D01*
X148214430Y-81472904D01*
X148218091Y-81469256D01*
X148277589Y-81386456D01*
X148345430Y-81292044D01*
X148348448Y-81287844D01*
X148359587Y-81265307D01*
X148445131Y-81092220D01*
X148445132Y-81092218D01*
X148447425Y-81087578D01*
X148505149Y-80897588D01*
X148510860Y-80878790D01*
X148510860Y-80878788D01*
X148512365Y-80873836D01*
X148541524Y-80652357D01*
X148542106Y-80628536D01*
X148543069Y-80589132D01*
X148543069Y-80589128D01*
X148543151Y-80585767D01*
X148524847Y-80363128D01*
X148470426Y-80146469D01*
X148381349Y-79941607D01*
X148260009Y-79754044D01*
X148109665Y-79588818D01*
X148105614Y-79585619D01*
X148105610Y-79585615D01*
X147938409Y-79453567D01*
X147938405Y-79453565D01*
X147934354Y-79450365D01*
X147893048Y-79427563D01*
X147843079Y-79377131D01*
X147828307Y-79307688D01*
X147853423Y-79241283D01*
X147880775Y-79214676D01*
X147924598Y-79183417D01*
X148059855Y-79086940D01*
X148218091Y-78929256D01*
X148277589Y-78846456D01*
X148345430Y-78752044D01*
X148348448Y-78747844D01*
X148447425Y-78547578D01*
X148512365Y-78333836D01*
X148541524Y-78112357D01*
X148543151Y-78045767D01*
X148524847Y-77823128D01*
X148470426Y-77606469D01*
X148381349Y-77401607D01*
X148260009Y-77214044D01*
X148256527Y-77210217D01*
X148112793Y-77052255D01*
X148081741Y-76988409D01*
X148090136Y-76917910D01*
X148135312Y-76863142D01*
X148161756Y-76849473D01*
X148268292Y-76809534D01*
X148276700Y-76806382D01*
X148393256Y-76719028D01*
X148480610Y-76602472D01*
X148531740Y-76466083D01*
X148538495Y-76403901D01*
X148538495Y-74607633D01*
X148531740Y-74545451D01*
X148480610Y-74409062D01*
X148393256Y-74292506D01*
X148276700Y-74205152D01*
X148140311Y-74154022D01*
X148078129Y-74147267D01*
X146281861Y-74147267D01*
X146219679Y-74154022D01*
X146083290Y-74205152D01*
X145966734Y-74292506D01*
X145879380Y-74409062D01*
X145828250Y-74545451D01*
X145821495Y-74607633D01*
X145821495Y-76403901D01*
X145828250Y-76466083D01*
X145879380Y-76602472D01*
X145966734Y-76719028D01*
X146083290Y-76806382D01*
X146091699Y-76809534D01*
X146091700Y-76809535D01*
X146200446Y-76850302D01*
X146257211Y-76892943D01*
X146281911Y-76959505D01*
X146266704Y-77028854D01*
X146247311Y-77055335D01*
X146120624Y-77187905D01*
X145994738Y-77372447D01*
X145900683Y-77575072D01*
X145840984Y-77790337D01*
X145817246Y-78012462D01*
X145817543Y-78017615D01*
X145817543Y-78017618D01*
X145823006Y-78112357D01*
X145830105Y-78235482D01*
X145831242Y-78240528D01*
X145831243Y-78240534D01*
X145851114Y-78328706D01*
X145879217Y-78453406D01*
X145963261Y-78660383D01*
X146079982Y-78850855D01*
X146226245Y-79019705D01*
X146398121Y-79162399D01*
X146468590Y-79203578D01*
X146471440Y-79205243D01*
X146520164Y-79256881D01*
X146533235Y-79326664D01*
X146506504Y-79392436D01*
X146466050Y-79425794D01*
X146453602Y-79432274D01*
X146449469Y-79435377D01*
X146449466Y-79435379D01*
X146425242Y-79453567D01*
X146274960Y-79566402D01*
X146120624Y-79727905D01*
X145994738Y-79912447D01*
X145900683Y-80115072D01*
X145840984Y-80330337D01*
X145817246Y-80552462D01*
X145330002Y-80552462D01*
X145330002Y-71250000D01*
X145986502Y-71250000D01*
X146006457Y-71478087D01*
X146065716Y-71699243D01*
X146068039Y-71704224D01*
X146068039Y-71704225D01*
X146160151Y-71901762D01*
X146160154Y-71901767D01*
X146162477Y-71906749D01*
X146293802Y-72094300D01*
X146455700Y-72256198D01*
X146460208Y-72259355D01*
X146460211Y-72259357D01*
X146538389Y-72314098D01*
X146643251Y-72387523D01*
X146648233Y-72389846D01*
X146648238Y-72389849D01*
X146845775Y-72481961D01*
X146850757Y-72484284D01*
X146856065Y-72485706D01*
X146856067Y-72485707D01*
X147066598Y-72542119D01*
X147066600Y-72542119D01*
X147071913Y-72543543D01*
X147300000Y-72563498D01*
X147528087Y-72543543D01*
X147533400Y-72542119D01*
X147533402Y-72542119D01*
X147743933Y-72485707D01*
X147743935Y-72485706D01*
X147749243Y-72484284D01*
X147754225Y-72481961D01*
X147951762Y-72389849D01*
X147951767Y-72389846D01*
X147956749Y-72387523D01*
X148061611Y-72314098D01*
X148139789Y-72259357D01*
X148139792Y-72259355D01*
X148144300Y-72256198D01*
X148306198Y-72094300D01*
X148437523Y-71906749D01*
X148439846Y-71901767D01*
X148439849Y-71901762D01*
X148531961Y-71704225D01*
X148531961Y-71704224D01*
X148534284Y-71699243D01*
X148593543Y-71478087D01*
X148613498Y-71250000D01*
X148593543Y-71021913D01*
X148534284Y-70800757D01*
X148531961Y-70795775D01*
X148439849Y-70598238D01*
X148439846Y-70598233D01*
X148437523Y-70593251D01*
X148306198Y-70405700D01*
X148144300Y-70243802D01*
X148139792Y-70240645D01*
X148139789Y-70240643D01*
X147961253Y-70115631D01*
X147956749Y-70112477D01*
X147951765Y-70110153D01*
X147949472Y-70108829D01*
X147900479Y-70057447D01*
X147887043Y-69987733D01*
X147913429Y-69921822D01*
X147949472Y-69890591D01*
X147961002Y-69883934D01*
X148013048Y-69847491D01*
X148021424Y-69837012D01*
X148014356Y-69823566D01*
X147312812Y-69122022D01*
X147298868Y-69114408D01*
X147297035Y-69114539D01*
X147290420Y-69118790D01*
X146584923Y-69824287D01*
X146578493Y-69836062D01*
X146587789Y-69848077D01*
X146638998Y-69883934D01*
X146650528Y-69890591D01*
X146699521Y-69941973D01*
X146712958Y-70011687D01*
X146686571Y-70077598D01*
X146650528Y-70108829D01*
X146648235Y-70110153D01*
X146643251Y-70112477D01*
X146638747Y-70115631D01*
X146460211Y-70240643D01*
X146460208Y-70240645D01*
X146455700Y-70243802D01*
X146293802Y-70405700D01*
X146162477Y-70593251D01*
X146160154Y-70598233D01*
X146160151Y-70598238D01*
X146068039Y-70795775D01*
X146065716Y-70800757D01*
X146006457Y-71021913D01*
X145986502Y-71250000D01*
X145330002Y-71250000D01*
X145330002Y-68755475D01*
X145987483Y-68755475D01*
X146006472Y-68972519D01*
X146008375Y-68983312D01*
X146064764Y-69193761D01*
X146068510Y-69204053D01*
X146160586Y-69401511D01*
X146166069Y-69411006D01*
X146202509Y-69463048D01*
X146212988Y-69471424D01*
X146226434Y-69464356D01*
X146927978Y-68762812D01*
X146934356Y-68751132D01*
X147664408Y-68751132D01*
X147664539Y-68752965D01*
X147668790Y-68759580D01*
X148374287Y-69465077D01*
X148386062Y-69471507D01*
X148398077Y-69462211D01*
X148433931Y-69411006D01*
X148439414Y-69401511D01*
X148531490Y-69204053D01*
X148535236Y-69193761D01*
X148591625Y-68983312D01*
X148593528Y-68972519D01*
X148612517Y-68755475D01*
X148612517Y-68744525D01*
X148593528Y-68527481D01*
X148591625Y-68516688D01*
X148535236Y-68306239D01*
X148531490Y-68295947D01*
X148439414Y-68098489D01*
X148433931Y-68088994D01*
X148397491Y-68036952D01*
X148387012Y-68028576D01*
X148373566Y-68035644D01*
X147672022Y-68737188D01*
X147664408Y-68751132D01*
X146934356Y-68751132D01*
X146935592Y-68748868D01*
X146935461Y-68747035D01*
X146931210Y-68740420D01*
X146225713Y-68034923D01*
X146213938Y-68028493D01*
X146201923Y-68037789D01*
X146166069Y-68088994D01*
X146160586Y-68098489D01*
X146068510Y-68295947D01*
X146064764Y-68306239D01*
X146008375Y-68516688D01*
X146006472Y-68527481D01*
X145987483Y-68744525D01*
X145987483Y-68755475D01*
X145330002Y-68755475D01*
X145330002Y-67662988D01*
X146578576Y-67662988D01*
X146585644Y-67676434D01*
X147287188Y-68377978D01*
X147301132Y-68385592D01*
X147302965Y-68385461D01*
X147309580Y-68381210D01*
X148015077Y-67675713D01*
X148021507Y-67663938D01*
X148012211Y-67651923D01*
X147961006Y-67616069D01*
X147951511Y-67610586D01*
X147754053Y-67518510D01*
X147743761Y-67514764D01*
X147533312Y-67458375D01*
X147522519Y-67456472D01*
X147305475Y-67437483D01*
X147294525Y-67437483D01*
X147077481Y-67456472D01*
X147066688Y-67458375D01*
X146856239Y-67514764D01*
X146845947Y-67518510D01*
X146648489Y-67610586D01*
X146638994Y-67616069D01*
X146586952Y-67652509D01*
X146578576Y-67662988D01*
X145330002Y-67662988D01*
X145330002Y-65841449D01*
X161736689Y-65841449D01*
X161753238Y-66128463D01*
X161754063Y-66132668D01*
X161754064Y-66132676D01*
X161786010Y-66295501D01*
X161808586Y-66410575D01*
X161809973Y-66414625D01*
X161809974Y-66414630D01*
X161900321Y-66678510D01*
X161901710Y-66682566D01*
X162030885Y-66939402D01*
X162193721Y-67176330D01*
X162387206Y-67388968D01*
X162390501Y-67391723D01*
X162390502Y-67391724D01*
X162445230Y-67437483D01*
X162607759Y-67573378D01*
X162851298Y-67726151D01*
X163113318Y-67844457D01*
X163117437Y-67845677D01*
X163384857Y-67924891D01*
X163384862Y-67924892D01*
X163388970Y-67926109D01*
X163393204Y-67926757D01*
X163393209Y-67926758D01*
X163641811Y-67964799D01*
X163673153Y-67969595D01*
X163819485Y-67971894D01*
X163956317Y-67974044D01*
X163956323Y-67974044D01*
X163960608Y-67974111D01*
X163964860Y-67973596D01*
X163964868Y-67973596D01*
X164241756Y-67940088D01*
X164241761Y-67940087D01*
X164246017Y-67939572D01*
X164524097Y-67866619D01*
X164789704Y-67756601D01*
X165037922Y-67611554D01*
X165264159Y-67434162D01*
X165305285Y-67391724D01*
X165461244Y-67230786D01*
X165464227Y-67227708D01*
X165466760Y-67224260D01*
X165466764Y-67224255D01*
X165631887Y-66999466D01*
X165634425Y-66996011D01*
X165771604Y-66743359D01*
X165873225Y-66474428D01*
X165937407Y-66194193D01*
X165962963Y-65907840D01*
X165963427Y-65863580D01*
X165943873Y-65576755D01*
X165939336Y-65554844D01*
X165886443Y-65299435D01*
X165885574Y-65295238D01*
X165789607Y-65024237D01*
X165693912Y-64838831D01*
X165659715Y-64772575D01*
X165659715Y-64772574D01*
X165657750Y-64768768D01*
X165644488Y-64749897D01*
X165494904Y-64537062D01*
X165492441Y-64533557D01*
X165296740Y-64322958D01*
X165074268Y-64140867D01*
X164829142Y-63990653D01*
X164811048Y-63982710D01*
X164569830Y-63876823D01*
X164565898Y-63875097D01*
X164539963Y-63867709D01*
X164293534Y-63797512D01*
X164293535Y-63797512D01*
X164289406Y-63796336D01*
X164076704Y-63766065D01*
X164009036Y-63756434D01*
X164009034Y-63756434D01*
X164004784Y-63755829D01*
X164000495Y-63755807D01*
X164000488Y-63755806D01*
X163721583Y-63754345D01*
X163721576Y-63754345D01*
X163717297Y-63754323D01*
X163713053Y-63754882D01*
X163713049Y-63754882D01*
X163587660Y-63771390D01*
X163432266Y-63791848D01*
X163428126Y-63792981D01*
X163428124Y-63792981D01*
X163351311Y-63813995D01*
X163154964Y-63867709D01*
X163151016Y-63869393D01*
X162894476Y-63978817D01*
X162894472Y-63978819D01*
X162890524Y-63980503D01*
X162765960Y-64055053D01*
X162647521Y-64125937D01*
X162647517Y-64125940D01*
X162643839Y-64128141D01*
X162419472Y-64307893D01*
X162302372Y-64431291D01*
X162231755Y-64505706D01*
X162221577Y-64516431D01*
X162053814Y-64749897D01*
X161919288Y-65003972D01*
X161820489Y-65273953D01*
X161759245Y-65554844D01*
X161736689Y-65841449D01*
X145330002Y-65841449D01*
X145330002Y-64862908D01*
X145331502Y-64843523D01*
X145333807Y-64828722D01*
X145333807Y-64828719D01*
X145335188Y-64819850D01*
X145332943Y-64802681D01*
X145332110Y-64778741D01*
X145347712Y-64520810D01*
X145349546Y-64505706D01*
X145385796Y-64307893D01*
X145401042Y-64224701D01*
X145404681Y-64209933D01*
X145430856Y-64125937D01*
X145489677Y-63937172D01*
X145495072Y-63922950D01*
X145519934Y-63867709D01*
X145612318Y-63662440D01*
X145619387Y-63648971D01*
X145767184Y-63404485D01*
X145775827Y-63391963D01*
X145952018Y-63167073D01*
X145962108Y-63155685D01*
X146164107Y-62953686D01*
X146175495Y-62943596D01*
X146400385Y-62767405D01*
X146412907Y-62758762D01*
X146657393Y-62610965D01*
X146670862Y-62603896D01*
X146931375Y-62486649D01*
X146945594Y-62481255D01*
X147218361Y-62396258D01*
X147233123Y-62392620D01*
X147443354Y-62354094D01*
X147514128Y-62341124D01*
X147529232Y-62339290D01*
X147779931Y-62324125D01*
X147806641Y-62325382D01*
X147806861Y-62325385D01*
X147815732Y-62326766D01*
X147824634Y-62325602D01*
X147824637Y-62325602D01*
X147847253Y-62322644D01*
X147863591Y-62321580D01*
X164850672Y-62321580D01*
X164870057Y-62323080D01*
G37*
%TD.AperFunction*%
%TD*%
M02*
