%TF.GenerationSoftware,KiCad,Pcbnew,(6.0.0)*%
%TF.CreationDate,2022-03-13T20:33:56-04:00*%
%TF.ProjectId,JTAG_ISP-ISP,4a544147-5f49-4535-902d-4953502e6b69,v1.0.0*%
%TF.SameCoordinates,PX8924e3cPY3981160*%
%TF.FileFunction,Copper,L2,Bot*%
%TF.FilePolarity,Positive*%
%FSLAX46Y46*%
G04 Gerber Fmt 4.6, Leading zero omitted, Abs format (unit mm)*
G04 Created by KiCad (PCBNEW (6.0.0)) date 2022-03-13 20:33:56*
%MOMM*%
%LPD*%
G01*
G04 APERTURE LIST*
%ADD10C,0.150000*%
%TA.AperFunction,NonConductor*%
%ADD11C,0.150000*%
%TD*%
%TA.AperFunction,EtchedComponent*%
%ADD12C,0.508000*%
%TD*%
%TA.AperFunction,ComponentPad*%
%ADD13C,3.200001*%
%TD*%
%TA.AperFunction,ComponentPad*%
%ADD14R,1.700000X1.700000*%
%TD*%
%TA.AperFunction,ComponentPad*%
%ADD15O,1.700000X1.700000*%
%TD*%
%TA.AperFunction,ComponentPad*%
%ADD16C,1.600000*%
%TD*%
%TA.AperFunction,ComponentPad*%
%ADD17C,1.700000*%
%TD*%
%TA.AperFunction,ViaPad*%
%ADD18C,1.200000*%
%TD*%
%TA.AperFunction,Conductor*%
%ADD19C,0.508000*%
%TD*%
%TA.AperFunction,Conductor*%
%ADD20C,0.250000*%
%TD*%
G04 APERTURE END LIST*
D10*
D11*
X15450000Y-35634500D02*
X14850000Y-35634500D01*
X15150000Y-36684500D02*
X15150000Y-35634500D01*
X14500000Y-36684500D02*
X14500000Y-35634500D01*
X14500000Y-36134500D02*
X13900000Y-36134500D01*
X13900000Y-36684500D02*
X13900000Y-35634500D01*
X13200000Y-35634500D02*
X13000000Y-35634500D01*
X12900000Y-35684500D01*
X12800000Y-35784500D01*
X12750000Y-35984500D01*
X12750000Y-36334500D01*
X12800000Y-36534500D01*
X12900000Y-36634500D01*
X13000000Y-36684500D01*
X13200000Y-36684500D01*
X13300000Y-36634500D01*
X13400000Y-36534500D01*
X13450000Y-36334500D01*
X13450000Y-35984500D01*
X13400000Y-35784500D01*
X13300000Y-35684500D01*
X13200000Y-35634500D01*
X12300000Y-36684500D02*
X12300000Y-35634500D01*
X11950000Y-36384500D01*
X11600000Y-35634500D01*
X11600000Y-36684500D01*
X11150000Y-36384500D02*
X10650000Y-36384500D01*
X11250000Y-36684500D02*
X10900000Y-35634500D01*
X10550000Y-36684500D01*
X10250000Y-36634500D02*
X10100000Y-36684500D01*
X9850000Y-36684500D01*
X9750000Y-36634500D01*
X9700000Y-36584500D01*
X9650000Y-36484500D01*
X9650000Y-36384500D01*
X9700000Y-36284500D01*
X9750000Y-36234500D01*
X9850000Y-36184500D01*
X10050000Y-36134500D01*
X10150000Y-36084500D01*
X10200000Y-36034500D01*
X10250000Y-35934500D01*
X10250000Y-35834500D01*
X10200000Y-35734500D01*
X10150000Y-35684500D01*
X10050000Y-35634500D01*
X9800000Y-35634500D01*
X9650000Y-35684500D01*
X17075000Y-38375000D02*
X17075000Y-37325000D01*
X16825000Y-37325000D01*
X16675000Y-37375000D01*
X16575000Y-37475000D01*
X16525000Y-37575000D01*
X16475000Y-37775000D01*
X16475000Y-37925000D01*
X16525000Y-38125000D01*
X16575000Y-38225000D01*
X16675000Y-38325000D01*
X16825000Y-38375000D01*
X17075000Y-38375000D01*
X16025000Y-37825000D02*
X15675000Y-37825000D01*
X15525000Y-38375000D02*
X16025000Y-38375000D01*
X16025000Y-37325000D01*
X15525000Y-37325000D01*
X15125000Y-38325000D02*
X14975000Y-38375000D01*
X14725000Y-38375000D01*
X14625000Y-38325000D01*
X14575000Y-38275000D01*
X14525000Y-38175000D01*
X14525000Y-38075000D01*
X14575000Y-37975000D01*
X14625000Y-37925000D01*
X14725000Y-37875000D01*
X14925000Y-37825000D01*
X15025000Y-37775000D01*
X15075000Y-37725000D01*
X15125000Y-37625000D01*
X15125000Y-37525000D01*
X15075000Y-37425000D01*
X15025000Y-37375000D01*
X14925000Y-37325000D01*
X14675000Y-37325000D01*
X14525000Y-37375000D01*
X13475000Y-38375000D02*
X13825000Y-37875000D01*
X14075000Y-38375000D02*
X14075000Y-37325000D01*
X13675000Y-37325000D01*
X13575000Y-37375000D01*
X13525000Y-37425000D01*
X13475000Y-37525000D01*
X13475000Y-37675000D01*
X13525000Y-37775000D01*
X13575000Y-37825000D01*
X13675000Y-37875000D01*
X14075000Y-37875000D01*
X12825000Y-37325000D02*
X12625000Y-37325000D01*
X12525000Y-37375000D01*
X12425000Y-37475000D01*
X12375000Y-37675000D01*
X12375000Y-38025000D01*
X12425000Y-38225000D01*
X12525000Y-38325000D01*
X12625000Y-38375000D01*
X12825000Y-38375000D01*
X12925000Y-38325000D01*
X13025000Y-38225000D01*
X13075000Y-38025000D01*
X13075000Y-37675000D01*
X13025000Y-37475000D01*
X12925000Y-37375000D01*
X12825000Y-37325000D01*
X11975000Y-38325000D02*
X11825000Y-38375000D01*
X11575000Y-38375000D01*
X11475000Y-38325000D01*
X11425000Y-38275000D01*
X11375000Y-38175000D01*
X11375000Y-38075000D01*
X11425000Y-37975000D01*
X11475000Y-37925000D01*
X11575000Y-37875000D01*
X11775000Y-37825000D01*
X11875000Y-37775000D01*
X11925000Y-37725000D01*
X11975000Y-37625000D01*
X11975000Y-37525000D01*
X11925000Y-37425000D01*
X11875000Y-37375000D01*
X11775000Y-37325000D01*
X11525000Y-37325000D01*
X11375000Y-37375000D01*
X10925000Y-38375000D02*
X10925000Y-37325000D01*
X10425000Y-37825000D02*
X10075000Y-37825000D01*
X9925000Y-38375000D02*
X10425000Y-38375000D01*
X10425000Y-37325000D01*
X9925000Y-37325000D01*
X8875000Y-38375000D02*
X9225000Y-37875000D01*
X9475000Y-38375000D02*
X9475000Y-37325000D01*
X9075000Y-37325000D01*
X8975000Y-37375000D01*
X8925000Y-37425000D01*
X8875000Y-37525000D01*
X8875000Y-37675000D01*
X8925000Y-37775000D01*
X8975000Y-37825000D01*
X9075000Y-37875000D01*
X9475000Y-37875000D01*
X8475000Y-38325000D02*
X8325000Y-38375000D01*
X8075000Y-38375000D01*
X7975000Y-38325000D01*
X7925000Y-38275000D01*
X7875000Y-38175000D01*
X7875000Y-38075000D01*
X7925000Y-37975000D01*
X7975000Y-37925000D01*
X8075000Y-37875000D01*
X8275000Y-37825000D01*
X8375000Y-37775000D01*
X8425000Y-37725000D01*
X8475000Y-37625000D01*
X8475000Y-37525000D01*
X8425000Y-37425000D01*
X8375000Y-37375000D01*
X8275000Y-37325000D01*
X8025000Y-37325000D01*
X7875000Y-37375000D01*
X17600000Y-39115500D02*
X17550000Y-39065500D01*
X17450000Y-39015500D01*
X17200000Y-39015500D01*
X17100000Y-39065500D01*
X17050000Y-39115500D01*
X17000000Y-39215500D01*
X17000000Y-39315500D01*
X17050000Y-39465500D01*
X17650000Y-40065500D01*
X17000000Y-40065500D01*
X16350000Y-39015500D02*
X16250000Y-39015500D01*
X16150000Y-39065500D01*
X16100000Y-39115500D01*
X16050000Y-39215500D01*
X16000000Y-39415500D01*
X16000000Y-39665500D01*
X16050000Y-39865500D01*
X16100000Y-39965500D01*
X16150000Y-40015500D01*
X16250000Y-40065500D01*
X16350000Y-40065500D01*
X16450000Y-40015500D01*
X16500000Y-39965500D01*
X16550000Y-39865500D01*
X16600000Y-39665500D01*
X16600000Y-39415500D01*
X16550000Y-39215500D01*
X16500000Y-39115500D01*
X16450000Y-39065500D01*
X16350000Y-39015500D01*
X15600000Y-39115500D02*
X15550000Y-39065500D01*
X15450000Y-39015500D01*
X15200000Y-39015500D01*
X15100000Y-39065500D01*
X15050000Y-39115500D01*
X15000000Y-39215500D01*
X15000000Y-39315500D01*
X15050000Y-39465500D01*
X15650000Y-40065500D01*
X15000000Y-40065500D01*
X14600000Y-39115500D02*
X14550000Y-39065500D01*
X14450000Y-39015500D01*
X14200000Y-39015500D01*
X14100000Y-39065500D01*
X14050000Y-39115500D01*
X14000000Y-39215500D01*
X14000000Y-39315500D01*
X14050000Y-39465500D01*
X14650000Y-40065500D01*
X14000000Y-40065500D01*
X13550000Y-39665500D02*
X12750000Y-39665500D01*
X12050000Y-39015500D02*
X11950000Y-39015500D01*
X11850000Y-39065500D01*
X11800000Y-39115500D01*
X11750000Y-39215500D01*
X11700000Y-39415500D01*
X11700000Y-39665500D01*
X11750000Y-39865500D01*
X11800000Y-39965500D01*
X11850000Y-40015500D01*
X11950000Y-40065500D01*
X12050000Y-40065500D01*
X12150000Y-40015500D01*
X12200000Y-39965500D01*
X12250000Y-39865500D01*
X12300000Y-39665500D01*
X12300000Y-39415500D01*
X12250000Y-39215500D01*
X12200000Y-39115500D01*
X12150000Y-39065500D01*
X12050000Y-39015500D01*
X11350000Y-39015500D02*
X10700000Y-39015500D01*
X11050000Y-39415500D01*
X10900000Y-39415500D01*
X10800000Y-39465500D01*
X10750000Y-39515500D01*
X10700000Y-39615500D01*
X10700000Y-39865500D01*
X10750000Y-39965500D01*
X10800000Y-40015500D01*
X10900000Y-40065500D01*
X11200000Y-40065500D01*
X11300000Y-40015500D01*
X11350000Y-39965500D01*
X10250000Y-39665500D02*
X9450000Y-39665500D01*
X8400000Y-40065500D02*
X9000000Y-40065500D01*
X8700000Y-40065500D02*
X8700000Y-39015500D01*
X8800000Y-39165500D01*
X8900000Y-39265500D01*
X9000000Y-39315500D01*
X8050000Y-39015500D02*
X7400000Y-39015500D01*
X7750000Y-39415500D01*
X7600000Y-39415500D01*
X7500000Y-39465500D01*
X7450000Y-39515500D01*
X7400000Y-39615500D01*
X7400000Y-39865500D01*
X7450000Y-39965500D01*
X7500000Y-40015500D01*
X7600000Y-40065500D01*
X7900000Y-40065500D01*
X8000000Y-40015500D01*
X8050000Y-39965500D01*
D12*
%TO.C,REF\u002A\u002A*%
X12113988Y-17277432D02*
X10763988Y-17877432D01*
X12288988Y-17377432D02*
X10438988Y-17377432D01*
X10413988Y-17277432D02*
X11363988Y-18627432D01*
X12738993Y-17127434D02*
X10038983Y-17127434D01*
X12263988Y-17377432D02*
X11363988Y-18627432D01*
X11913988Y-17177432D02*
X11013988Y-18427432D01*
X12113988Y-17277432D02*
X11213988Y-18527432D01*
X11388993Y-19127430D02*
X10038983Y-17127434D01*
X12738993Y-17127434D02*
X11388993Y-19127439D01*
%TD*%
D13*
%TO.P,REF\u002A\u002A,*%
%TO.N,*%
X20043978Y-43102428D03*
%TD*%
D14*
%TO.P,J2,1,Pin_1*%
%TO.N,unconnected-(J2-Pad1)*%
X3373983Y-15208199D03*
D15*
%TO.P,J2,2,Pin_2*%
%TO.N,+5V*%
X3373983Y-17748199D03*
%TO.P,J2,3,Pin_3*%
%TO.N,unconnected-(J2-Pad3)*%
X3373983Y-20288199D03*
%TO.P,J2,4,Pin_4*%
%TO.N,GND*%
X3373983Y-22828199D03*
%TO.P,J2,5,Pin_5*%
%TO.N,unconnected-(J2-Pad5)*%
X3373983Y-25368199D03*
%TO.P,J2,6,Pin_6*%
%TO.N,MISO*%
X3373983Y-27908199D03*
%TO.P,J2,7,Pin_7*%
%TO.N,unconnected-(J2-Pad7)*%
X3373983Y-30448199D03*
%TO.P,J2,8,Pin_8*%
%TO.N,unconnected-(J2-Pad8)*%
X3373983Y-32988199D03*
%TD*%
D16*
%TO.P,C1,1*%
%TO.N,+5V*%
X5950000Y-10900024D03*
%TO.P,C1,2*%
%TO.N,GND*%
X3450000Y-10900024D03*
%TD*%
D13*
%TO.P,REF\u002A\u002A,*%
%TO.N,*%
X20043978Y-5066005D03*
%TD*%
%TO.P,REF\u002A\u002A,*%
%TO.N,*%
X5065979Y-43102428D03*
%TD*%
D17*
%TO.P,J3,1,Pin_1*%
%TO.N,SCLK*%
X21735999Y-15208199D03*
D15*
%TO.P,J3,2,Pin_2*%
%TO.N,unconnected-(J3-Pad2)*%
X21735999Y-17748199D03*
%TO.P,J3,3,Pin_3*%
%TO.N,unconnected-(J3-Pad3)*%
X21735999Y-20288199D03*
%TO.P,J3,4,Pin_4*%
%TO.N,unconnected-(J3-Pad4)*%
X21735999Y-22828199D03*
%TO.P,J3,5,Pin_5*%
%TO.N,MOSI*%
X21735999Y-25368199D03*
%TO.P,J3,6,Pin_6*%
%TO.N,unconnected-(J3-Pad6)*%
X21735999Y-27908199D03*
%TO.P,J3,7,Pin_7*%
%TO.N,RESET*%
X21735999Y-30448199D03*
%TO.P,J3,8,Pin_8*%
%TO.N,unconnected-(J3-Pad8)*%
X21735999Y-32988199D03*
%TD*%
D13*
%TO.P,REF\u002A\u002A,*%
%TO.N,*%
X5065979Y-5066005D03*
%TD*%
D14*
%TO.P,J1,1,Pin_1*%
%TO.N,MISO*%
X11283950Y-21544229D03*
D15*
%TO.P,J1,2,Pin_2*%
%TO.N,SCLK*%
X13823950Y-21544229D03*
%TO.P,J1,3,Pin_3*%
%TO.N,RESET*%
X11283950Y-24084229D03*
%TO.P,J1,4,Pin_4*%
%TO.N,GND*%
X13823950Y-24084229D03*
%TO.P,J1,5,Pin_5*%
%TO.N,MOSI*%
X11283950Y-26624229D03*
%TO.P,J1,6,Pin_6*%
%TO.N,+5V*%
X13823950Y-26624229D03*
%TD*%
D18*
%TO.N,+5V*%
X16590785Y-26624229D03*
%TO.N,GND*%
X18304230Y-23452430D03*
%TO.N,MISO*%
X7852191Y-21544229D03*
%TO.N,SCLK*%
X18304230Y-21544229D03*
%TO.N,RESET*%
X7852181Y-24084229D03*
%TO.N,MOSI*%
X18304230Y-25368199D03*
%TD*%
D19*
%TO.N,+5V*%
X3373983Y-17748199D02*
X5773221Y-17748199D01*
X16643988Y-26571026D02*
X16643988Y-12327432D01*
X16643988Y-12327432D02*
X15216580Y-10900024D01*
X5773221Y-17748199D02*
X5950000Y-17571420D01*
X5950000Y-17571420D02*
X5950000Y-10900024D01*
X16590785Y-26624229D02*
X16643988Y-26571026D01*
X15216580Y-10900024D02*
X5950000Y-10900024D01*
D20*
%TO.N,MISO*%
X4763221Y-27908199D02*
X3373983Y-27908199D01*
X6052191Y-21544229D02*
X5318988Y-22277432D01*
X5318988Y-22277432D02*
X5318988Y-27352432D01*
X5318988Y-27352432D02*
X4763221Y-27908199D01*
X7852191Y-21544229D02*
X6052191Y-21544229D01*
%TO.N,SCLK*%
X21735999Y-15208199D02*
X20438221Y-15208199D01*
X18852191Y-21544229D02*
X18304230Y-21544229D01*
X19618988Y-20777432D02*
X19618988Y-16027432D01*
X19618988Y-20777432D02*
X18852191Y-21544229D01*
X20438221Y-15208199D02*
X19618988Y-16027432D01*
%TO.N,RESET*%
X7852181Y-29910625D02*
X8389755Y-30448199D01*
X8389755Y-30448199D02*
X21735999Y-30448199D01*
X7852181Y-24084229D02*
X7852181Y-29910625D01*
%TO.N,MOSI*%
X18304230Y-25368199D02*
X21735999Y-25368199D01*
%TD*%
%TA.AperFunction,Conductor*%
%TO.N,GND*%
G36*
X21064045Y-1527412D02*
G01*
X21078846Y-1529717D01*
X21078849Y-1529717D01*
X21087718Y-1531098D01*
X21104887Y-1528853D01*
X21128827Y-1528020D01*
X21386758Y-1543622D01*
X21401862Y-1545456D01*
X21472636Y-1558426D01*
X21682867Y-1596952D01*
X21697629Y-1600590D01*
X21970396Y-1685587D01*
X21984615Y-1690981D01*
X22245128Y-1808228D01*
X22258597Y-1815297D01*
X22503083Y-1963094D01*
X22515605Y-1971737D01*
X22740495Y-2147928D01*
X22751883Y-2158018D01*
X22953882Y-2360017D01*
X22963972Y-2371405D01*
X23140163Y-2596295D01*
X23148806Y-2608817D01*
X23296603Y-2853303D01*
X23303672Y-2866772D01*
X23420918Y-3127282D01*
X23426313Y-3141504D01*
X23489193Y-3343292D01*
X23511309Y-3414265D01*
X23514948Y-3429033D01*
X23532605Y-3525383D01*
X23566444Y-3710038D01*
X23568278Y-3725142D01*
X23583443Y-3975841D01*
X23582186Y-4002551D01*
X23582183Y-4002771D01*
X23580802Y-4011642D01*
X23581966Y-4020544D01*
X23581966Y-4020547D01*
X23584924Y-4043163D01*
X23585988Y-4059501D01*
X23585988Y-44103104D01*
X23584488Y-44122488D01*
X23580802Y-44146162D01*
X23582442Y-44158702D01*
X23583047Y-44163329D01*
X23583880Y-44187271D01*
X23568278Y-44445202D01*
X23566444Y-44460306D01*
X23514950Y-44741305D01*
X23511310Y-44756073D01*
X23445656Y-44966766D01*
X23426314Y-45028836D01*
X23420919Y-45043059D01*
X23344454Y-45212959D01*
X23303674Y-45303568D01*
X23296603Y-45317041D01*
X23148806Y-45561527D01*
X23140163Y-45574049D01*
X22963972Y-45798939D01*
X22953882Y-45810327D01*
X22751883Y-46012326D01*
X22740495Y-46022416D01*
X22515605Y-46198607D01*
X22503083Y-46207250D01*
X22258597Y-46355047D01*
X22245128Y-46362116D01*
X21984618Y-46479362D01*
X21970396Y-46484757D01*
X21697629Y-46569754D01*
X21682867Y-46573392D01*
X21472636Y-46611918D01*
X21401862Y-46624888D01*
X21386758Y-46626722D01*
X21136059Y-46641887D01*
X21109349Y-46640630D01*
X21109129Y-46640627D01*
X21100258Y-46639246D01*
X21091356Y-46640410D01*
X21091353Y-46640410D01*
X21068737Y-46643368D01*
X21052399Y-46644432D01*
X4065318Y-46644432D01*
X4045933Y-46642932D01*
X4031132Y-46640627D01*
X4031129Y-46640627D01*
X4022260Y-46639246D01*
X4005091Y-46641491D01*
X3981151Y-46642324D01*
X3723220Y-46626722D01*
X3708116Y-46624888D01*
X3637342Y-46611918D01*
X3427111Y-46573392D01*
X3412349Y-46569754D01*
X3139582Y-46484757D01*
X3125360Y-46479362D01*
X2864850Y-46362116D01*
X2851381Y-46355047D01*
X2606895Y-46207250D01*
X2594373Y-46198607D01*
X2369483Y-46022416D01*
X2358095Y-46012326D01*
X2156096Y-45810327D01*
X2146006Y-45798939D01*
X1969815Y-45574049D01*
X1961172Y-45561527D01*
X1813375Y-45317041D01*
X1806304Y-45303568D01*
X1765525Y-45212959D01*
X1689059Y-45043059D01*
X1683664Y-45028836D01*
X1664322Y-44966766D01*
X1598668Y-44756073D01*
X1595028Y-44741305D01*
X1543534Y-44460306D01*
X1541700Y-44445202D01*
X1526535Y-44194503D01*
X1527792Y-44167793D01*
X1527795Y-44167573D01*
X1529176Y-44158702D01*
X1527537Y-44146162D01*
X1525054Y-44127181D01*
X1523990Y-44110843D01*
X1523990Y-43080297D01*
X2952668Y-43080297D01*
X2969217Y-43367311D01*
X2970042Y-43371516D01*
X2970043Y-43371524D01*
X3001989Y-43534349D01*
X3024565Y-43649423D01*
X3025952Y-43653473D01*
X3025953Y-43653478D01*
X3116300Y-43917358D01*
X3117689Y-43921414D01*
X3119616Y-43925245D01*
X3241605Y-44167793D01*
X3246864Y-44178250D01*
X3409700Y-44415178D01*
X3603185Y-44627816D01*
X3606480Y-44630571D01*
X3606481Y-44630572D01*
X3756587Y-44756079D01*
X3823738Y-44812226D01*
X4067277Y-44964999D01*
X4329297Y-45083305D01*
X4333416Y-45084525D01*
X4600836Y-45163739D01*
X4600841Y-45163740D01*
X4604949Y-45164957D01*
X4609183Y-45165605D01*
X4609188Y-45165606D01*
X4857790Y-45203647D01*
X4889132Y-45208443D01*
X5035464Y-45210742D01*
X5172296Y-45212892D01*
X5172302Y-45212892D01*
X5176587Y-45212959D01*
X5180839Y-45212444D01*
X5180847Y-45212444D01*
X5457735Y-45178936D01*
X5457740Y-45178935D01*
X5461996Y-45178420D01*
X5740076Y-45105467D01*
X6005683Y-44995449D01*
X6253901Y-44850402D01*
X6480138Y-44673010D01*
X6521264Y-44630572D01*
X6677223Y-44469634D01*
X6680206Y-44466556D01*
X6682739Y-44463108D01*
X6682743Y-44463103D01*
X6847866Y-44238314D01*
X6850404Y-44234859D01*
X6898563Y-44146162D01*
X6985533Y-43985983D01*
X6985534Y-43985981D01*
X6987583Y-43982207D01*
X7089204Y-43713276D01*
X7153386Y-43433041D01*
X7178942Y-43146688D01*
X7179406Y-43102428D01*
X7177897Y-43080297D01*
X17930667Y-43080297D01*
X17947216Y-43367311D01*
X17948041Y-43371516D01*
X17948042Y-43371524D01*
X17979988Y-43534349D01*
X18002564Y-43649423D01*
X18003951Y-43653473D01*
X18003952Y-43653478D01*
X18094299Y-43917358D01*
X18095688Y-43921414D01*
X18097615Y-43925245D01*
X18219604Y-44167793D01*
X18224863Y-44178250D01*
X18387699Y-44415178D01*
X18581184Y-44627816D01*
X18584479Y-44630571D01*
X18584480Y-44630572D01*
X18734586Y-44756079D01*
X18801737Y-44812226D01*
X19045276Y-44964999D01*
X19307296Y-45083305D01*
X19311415Y-45084525D01*
X19578835Y-45163739D01*
X19578840Y-45163740D01*
X19582948Y-45164957D01*
X19587182Y-45165605D01*
X19587187Y-45165606D01*
X19835789Y-45203647D01*
X19867131Y-45208443D01*
X20013463Y-45210742D01*
X20150295Y-45212892D01*
X20150301Y-45212892D01*
X20154586Y-45212959D01*
X20158838Y-45212444D01*
X20158846Y-45212444D01*
X20435734Y-45178936D01*
X20435739Y-45178935D01*
X20439995Y-45178420D01*
X20718075Y-45105467D01*
X20983682Y-44995449D01*
X21231900Y-44850402D01*
X21458137Y-44673010D01*
X21499263Y-44630572D01*
X21655222Y-44469634D01*
X21658205Y-44466556D01*
X21660738Y-44463108D01*
X21660742Y-44463103D01*
X21825865Y-44238314D01*
X21828403Y-44234859D01*
X21876562Y-44146162D01*
X21963532Y-43985983D01*
X21963533Y-43985981D01*
X21965582Y-43982207D01*
X22067203Y-43713276D01*
X22131385Y-43433041D01*
X22156941Y-43146688D01*
X22157405Y-43102428D01*
X22137851Y-42815603D01*
X22133314Y-42793692D01*
X22080421Y-42538283D01*
X22079552Y-42534086D01*
X21983585Y-42263085D01*
X21851728Y-42007616D01*
X21838466Y-41988745D01*
X21688882Y-41775910D01*
X21686419Y-41772405D01*
X21490718Y-41561806D01*
X21268246Y-41379715D01*
X21023120Y-41229501D01*
X21005026Y-41221558D01*
X20763808Y-41115671D01*
X20759876Y-41113945D01*
X20733941Y-41106557D01*
X20487512Y-41036360D01*
X20487513Y-41036360D01*
X20483384Y-41035184D01*
X20270682Y-41004913D01*
X20203014Y-40995282D01*
X20203012Y-40995282D01*
X20198762Y-40994677D01*
X20194473Y-40994655D01*
X20194466Y-40994654D01*
X19915561Y-40993193D01*
X19915554Y-40993193D01*
X19911275Y-40993171D01*
X19907031Y-40993730D01*
X19907027Y-40993730D01*
X19781638Y-41010238D01*
X19626244Y-41030696D01*
X19622104Y-41031829D01*
X19622102Y-41031829D01*
X19545289Y-41052843D01*
X19348942Y-41106557D01*
X19344994Y-41108241D01*
X19088454Y-41217665D01*
X19088450Y-41217667D01*
X19084502Y-41219351D01*
X19011503Y-41263040D01*
X18841499Y-41364785D01*
X18841495Y-41364788D01*
X18837817Y-41366989D01*
X18834474Y-41369667D01*
X18834470Y-41369670D01*
X18729865Y-41453475D01*
X18664195Y-41480457D01*
X18659552Y-41479606D01*
X18657452Y-41494206D01*
X18621619Y-41540196D01*
X18616796Y-41544060D01*
X18613450Y-41546741D01*
X18415555Y-41755279D01*
X18247792Y-41988745D01*
X18113266Y-42242820D01*
X18014467Y-42512801D01*
X17953223Y-42793692D01*
X17930667Y-43080297D01*
X7177897Y-43080297D01*
X7159852Y-42815603D01*
X7155315Y-42793692D01*
X7102422Y-42538283D01*
X7101553Y-42534086D01*
X7005586Y-42263085D01*
X6873729Y-42007616D01*
X6860467Y-41988745D01*
X6710883Y-41775910D01*
X6708420Y-41772405D01*
X6512719Y-41561806D01*
X6488831Y-41542254D01*
X6448785Y-41483629D01*
X6446792Y-41412661D01*
X6483483Y-41351880D01*
X6547210Y-41320585D01*
X6568637Y-41318750D01*
X18533000Y-41318750D01*
X18533000Y-34481250D01*
X6467000Y-34481250D01*
X6467000Y-41263040D01*
X6446998Y-41331161D01*
X6393342Y-41377654D01*
X6323068Y-41387758D01*
X6275165Y-41370472D01*
X6048789Y-41231748D01*
X6048778Y-41231742D01*
X6045121Y-41229501D01*
X6027027Y-41221558D01*
X5785809Y-41115671D01*
X5781877Y-41113945D01*
X5755942Y-41106557D01*
X5509513Y-41036360D01*
X5509514Y-41036360D01*
X5505385Y-41035184D01*
X5292683Y-41004913D01*
X5225015Y-40995282D01*
X5225013Y-40995282D01*
X5220763Y-40994677D01*
X5216474Y-40994655D01*
X5216467Y-40994654D01*
X4937562Y-40993193D01*
X4937555Y-40993193D01*
X4933276Y-40993171D01*
X4929032Y-40993730D01*
X4929028Y-40993730D01*
X4803639Y-41010238D01*
X4648245Y-41030696D01*
X4644105Y-41031829D01*
X4644103Y-41031829D01*
X4567290Y-41052843D01*
X4370943Y-41106557D01*
X4366995Y-41108241D01*
X4110455Y-41217665D01*
X4110451Y-41217667D01*
X4106503Y-41219351D01*
X4033504Y-41263040D01*
X3863500Y-41364785D01*
X3863496Y-41364788D01*
X3859818Y-41366989D01*
X3635451Y-41546741D01*
X3437556Y-41755279D01*
X3269793Y-41988745D01*
X3135267Y-42242820D01*
X3036468Y-42512801D01*
X2975224Y-42793692D01*
X2952668Y-43080297D01*
X1523990Y-43080297D01*
X1523990Y-32954894D01*
X2011234Y-32954894D01*
X2011531Y-32960047D01*
X2011531Y-32960050D01*
X2016994Y-33054789D01*
X2024093Y-33177914D01*
X2025230Y-33182960D01*
X2025231Y-33182966D01*
X2045102Y-33271138D01*
X2073205Y-33395838D01*
X2157249Y-33602815D01*
X2273970Y-33793287D01*
X2420233Y-33962137D01*
X2592109Y-34104831D01*
X2784983Y-34217537D01*
X2993675Y-34297229D01*
X2998743Y-34298260D01*
X2998746Y-34298261D01*
X3106000Y-34320082D01*
X3212580Y-34341766D01*
X3217755Y-34341956D01*
X3217757Y-34341956D01*
X3430656Y-34349763D01*
X3430660Y-34349763D01*
X3435820Y-34349952D01*
X3440940Y-34349296D01*
X3440942Y-34349296D01*
X3652271Y-34322224D01*
X3652272Y-34322224D01*
X3657399Y-34321567D01*
X3662349Y-34320082D01*
X3866412Y-34258860D01*
X3866417Y-34258858D01*
X3871367Y-34257373D01*
X4071977Y-34159095D01*
X4253843Y-34029372D01*
X4412079Y-33871688D01*
X4471577Y-33788888D01*
X4539418Y-33694476D01*
X4542436Y-33690276D01*
X4641413Y-33490010D01*
X4706353Y-33276268D01*
X4735512Y-33054789D01*
X4737139Y-32988199D01*
X4718835Y-32765560D01*
X4664414Y-32548901D01*
X4575337Y-32344039D01*
X4453997Y-32156476D01*
X4303653Y-31991250D01*
X4299602Y-31988051D01*
X4299598Y-31988047D01*
X4132397Y-31855999D01*
X4132393Y-31855997D01*
X4128342Y-31852797D01*
X4087036Y-31829995D01*
X4037067Y-31779563D01*
X4022295Y-31710120D01*
X4047411Y-31643715D01*
X4074763Y-31617108D01*
X4118586Y-31585849D01*
X4253843Y-31489372D01*
X4412079Y-31331688D01*
X4471577Y-31248888D01*
X4539418Y-31154476D01*
X4542436Y-31150276D01*
X4546594Y-31141864D01*
X4639119Y-30954652D01*
X4639120Y-30954650D01*
X4641413Y-30950010D01*
X4706353Y-30736268D01*
X4735512Y-30514789D01*
X4737139Y-30448199D01*
X4718835Y-30225560D01*
X4664414Y-30008901D01*
X4575337Y-29804039D01*
X4453997Y-29616476D01*
X4303653Y-29451250D01*
X4299602Y-29448051D01*
X4299598Y-29448047D01*
X4132397Y-29315999D01*
X4132393Y-29315997D01*
X4128342Y-29312797D01*
X4087036Y-29289995D01*
X4037067Y-29239563D01*
X4022295Y-29170120D01*
X4047411Y-29103715D01*
X4074763Y-29077108D01*
X4118586Y-29045849D01*
X4253843Y-28949372D01*
X4412079Y-28791688D01*
X4471577Y-28708888D01*
X4539418Y-28614476D01*
X4542436Y-28610276D01*
X4544729Y-28605636D01*
X4546429Y-28602807D01*
X4598657Y-28554717D01*
X4654434Y-28541699D01*
X4684454Y-28541699D01*
X4695637Y-28542226D01*
X4703130Y-28543901D01*
X4711056Y-28543652D01*
X4711057Y-28543652D01*
X4771207Y-28541761D01*
X4775166Y-28541699D01*
X4803077Y-28541699D01*
X4807012Y-28541202D01*
X4807077Y-28541194D01*
X4818914Y-28540261D01*
X4851172Y-28539247D01*
X4855191Y-28539121D01*
X4863110Y-28538872D01*
X4882564Y-28533220D01*
X4901921Y-28529212D01*
X4914151Y-28527667D01*
X4914152Y-28527667D01*
X4922018Y-28526673D01*
X4929389Y-28523754D01*
X4929391Y-28523754D01*
X4963133Y-28510395D01*
X4974363Y-28506550D01*
X5009204Y-28496428D01*
X5009205Y-28496428D01*
X5016814Y-28494217D01*
X5023633Y-28490184D01*
X5023638Y-28490182D01*
X5034249Y-28483906D01*
X5051997Y-28475211D01*
X5070838Y-28467751D01*
X5106608Y-28441763D01*
X5116528Y-28435247D01*
X5147756Y-28416779D01*
X5147759Y-28416777D01*
X5154583Y-28412741D01*
X5168904Y-28398420D01*
X5183938Y-28385579D01*
X5193915Y-28378330D01*
X5200328Y-28373671D01*
X5228519Y-28339594D01*
X5236509Y-28330815D01*
X5711235Y-27856089D01*
X5719525Y-27848545D01*
X5726006Y-27844432D01*
X5772647Y-27794764D01*
X5775401Y-27791923D01*
X5795122Y-27772202D01*
X5797600Y-27769007D01*
X5805306Y-27759985D01*
X5826368Y-27737556D01*
X5835574Y-27727753D01*
X5845334Y-27710000D01*
X5856187Y-27693477D01*
X5863741Y-27683738D01*
X5868601Y-27677473D01*
X5886164Y-27636889D01*
X5891371Y-27626259D01*
X5912683Y-27587492D01*
X5914654Y-27579815D01*
X5914656Y-27579810D01*
X5917720Y-27567874D01*
X5924126Y-27549162D01*
X5929021Y-27537851D01*
X5932169Y-27530577D01*
X5933409Y-27522749D01*
X5933411Y-27522742D01*
X5939087Y-27486908D01*
X5941493Y-27475288D01*
X5950516Y-27440143D01*
X5950516Y-27440142D01*
X5952488Y-27432462D01*
X5952488Y-27412208D01*
X5954039Y-27392497D01*
X5955968Y-27380318D01*
X5957208Y-27372489D01*
X5953047Y-27328470D01*
X5952488Y-27316613D01*
X5952488Y-22592026D01*
X5972490Y-22523905D01*
X5989393Y-22502931D01*
X6277690Y-22214634D01*
X6340002Y-22180608D01*
X6366785Y-22177729D01*
X6877177Y-22177729D01*
X6945298Y-22197731D01*
X6980073Y-22231008D01*
X6998708Y-22257375D01*
X7005670Y-22267226D01*
X7009804Y-22271253D01*
X7130573Y-22388901D01*
X7151601Y-22409386D01*
X7156397Y-22412591D01*
X7156400Y-22412593D01*
X7224340Y-22457989D01*
X7320994Y-22522571D01*
X7326297Y-22524849D01*
X7326300Y-22524851D01*
X7467236Y-22585402D01*
X7508178Y-22602992D01*
X7542336Y-22610721D01*
X7701246Y-22646679D01*
X7701251Y-22646680D01*
X7706883Y-22647954D01*
X7712654Y-22648181D01*
X7712656Y-22648181D01*
X7775661Y-22650656D01*
X7910454Y-22655952D01*
X8112074Y-22626719D01*
X8117538Y-22624864D01*
X8117543Y-22624863D01*
X8299518Y-22563091D01*
X8299523Y-22563089D01*
X8304990Y-22561233D01*
X8482742Y-22461687D01*
X8639377Y-22331415D01*
X8769649Y-22174780D01*
X8869195Y-21997028D01*
X8871051Y-21991561D01*
X8871053Y-21991556D01*
X8932825Y-21809581D01*
X8932826Y-21809576D01*
X8934681Y-21804112D01*
X8963914Y-21602492D01*
X8965440Y-21544229D01*
X8952871Y-21407441D01*
X8947328Y-21347109D01*
X8947327Y-21347106D01*
X8946799Y-21341355D01*
X8923355Y-21258230D01*
X8893066Y-21150835D01*
X8893065Y-21150833D01*
X8891498Y-21145276D01*
X8871603Y-21104931D01*
X8803947Y-20967739D01*
X8801392Y-20962558D01*
X8788934Y-20945874D01*
X8682949Y-20803944D01*
X8682949Y-20803943D01*
X8679496Y-20799320D01*
X8562095Y-20690795D01*
X8534134Y-20664948D01*
X8534131Y-20664946D01*
X8529894Y-20661029D01*
X8447897Y-20609293D01*
X8362479Y-20555398D01*
X8362474Y-20555396D01*
X8357595Y-20552317D01*
X8168371Y-20476824D01*
X7968557Y-20437078D01*
X7962783Y-20437002D01*
X7962779Y-20437002D01*
X7859643Y-20435653D01*
X7764846Y-20434412D01*
X7759149Y-20435391D01*
X7759148Y-20435391D01*
X7688538Y-20447524D01*
X7564061Y-20468913D01*
X7372925Y-20539427D01*
X7367964Y-20542379D01*
X7367963Y-20542379D01*
X7310588Y-20576514D01*
X7197840Y-20643592D01*
X7044669Y-20777919D01*
X7041097Y-20782450D01*
X6977805Y-20862735D01*
X6919923Y-20903848D01*
X6878855Y-20910729D01*
X6130959Y-20910729D01*
X6119776Y-20910202D01*
X6112283Y-20908527D01*
X6104357Y-20908776D01*
X6104356Y-20908776D01*
X6044193Y-20910667D01*
X6040235Y-20910729D01*
X6012335Y-20910729D01*
X6008345Y-20911233D01*
X5996511Y-20912165D01*
X5952302Y-20913555D01*
X5944686Y-20915768D01*
X5944684Y-20915768D01*
X5932843Y-20919208D01*
X5913484Y-20923217D01*
X5912174Y-20923383D01*
X5893394Y-20925755D01*
X5886028Y-20928671D01*
X5886022Y-20928673D01*
X5852289Y-20942029D01*
X5841059Y-20945874D01*
X5807661Y-20955577D01*
X5798598Y-20958210D01*
X5791775Y-20962245D01*
X5781157Y-20968524D01*
X5763404Y-20977221D01*
X5755759Y-20980248D01*
X5744574Y-20984677D01*
X5731087Y-20994476D01*
X5708803Y-21010666D01*
X5698886Y-21017180D01*
X5660829Y-21039687D01*
X5646508Y-21054008D01*
X5631475Y-21066848D01*
X5615084Y-21078757D01*
X5593431Y-21104931D01*
X5586903Y-21112822D01*
X5578913Y-21121603D01*
X4926730Y-21773785D01*
X4918451Y-21781319D01*
X4911970Y-21785432D01*
X4889293Y-21809581D01*
X4865345Y-21835083D01*
X4862590Y-21837925D01*
X4842853Y-21857662D01*
X4840373Y-21860859D01*
X4832670Y-21869879D01*
X4802402Y-21902111D01*
X4798583Y-21909057D01*
X4798581Y-21909060D01*
X4792640Y-21919866D01*
X4781789Y-21936385D01*
X4769374Y-21952391D01*
X4766229Y-21959660D01*
X4766226Y-21959664D01*
X4751814Y-21992969D01*
X4746597Y-22003619D01*
X4725293Y-22042372D01*
X4723675Y-22048675D01*
X4680390Y-22104152D01*
X4613387Y-22127628D01*
X4544328Y-22111154D01*
X4501119Y-22070235D01*
X4456410Y-22001125D01*
X4450119Y-21992956D01*
X4306789Y-21835439D01*
X4299256Y-21828414D01*
X4132122Y-21696421D01*
X4123539Y-21690719D01*
X4086585Y-21670319D01*
X4036614Y-21619886D01*
X4021842Y-21550444D01*
X4046958Y-21484038D01*
X4074310Y-21457431D01*
X4097780Y-21440690D01*
X4253843Y-21329372D01*
X4412079Y-21171688D01*
X4460049Y-21104931D01*
X4539418Y-20994476D01*
X4542436Y-20990276D01*
X4546647Y-20981757D01*
X4639119Y-20794652D01*
X4639120Y-20794650D01*
X4641413Y-20790010D01*
X4696319Y-20609293D01*
X4704848Y-20581222D01*
X4704848Y-20581220D01*
X4706353Y-20576268D01*
X4735512Y-20354789D01*
X4736094Y-20330968D01*
X4737057Y-20291564D01*
X4737057Y-20291560D01*
X4737139Y-20288199D01*
X4718835Y-20065560D01*
X4664414Y-19848901D01*
X4575337Y-19644039D01*
X4453997Y-19456476D01*
X4303653Y-19291250D01*
X4299602Y-19288051D01*
X4299598Y-19288047D01*
X4132397Y-19155999D01*
X4132393Y-19155997D01*
X4128342Y-19152797D01*
X4087036Y-19129995D01*
X4037067Y-19079563D01*
X4022295Y-19010120D01*
X4047411Y-18943715D01*
X4074763Y-18917108D01*
X4118586Y-18885849D01*
X4253843Y-18789372D01*
X4412079Y-18631688D01*
X4461312Y-18563173D01*
X4517307Y-18519525D01*
X4563635Y-18510699D01*
X5705845Y-18510699D01*
X5724795Y-18512132D01*
X5739194Y-18514323D01*
X5739200Y-18514323D01*
X5746429Y-18515423D01*
X5753721Y-18514830D01*
X5753724Y-18514830D01*
X5799404Y-18511114D01*
X5809619Y-18510699D01*
X5817746Y-18510699D01*
X5821382Y-18510275D01*
X5821384Y-18510275D01*
X5824836Y-18509872D01*
X5846145Y-18507388D01*
X5850465Y-18506961D01*
X5923647Y-18501008D01*
X5930609Y-18498752D01*
X5936597Y-18497556D01*
X5942554Y-18496148D01*
X5949828Y-18495300D01*
X5956710Y-18492802D01*
X5956714Y-18492801D01*
X6018828Y-18470254D01*
X6022932Y-18468844D01*
X6092796Y-18446212D01*
X6099059Y-18442412D01*
X6104601Y-18439874D01*
X6110077Y-18437132D01*
X6116962Y-18434633D01*
X6178353Y-18394384D01*
X6182021Y-18392069D01*
X6244802Y-18353972D01*
X6249007Y-18350258D01*
X6249010Y-18350256D01*
X6253226Y-18346532D01*
X6253252Y-18346561D01*
X6256183Y-18343961D01*
X6259537Y-18341157D01*
X6265656Y-18337145D01*
X6319210Y-18280612D01*
X6321587Y-18278171D01*
X6441528Y-18158230D01*
X6455941Y-18145843D01*
X6467665Y-18137215D01*
X6473564Y-18132874D01*
X6507979Y-18092365D01*
X6514909Y-18084849D01*
X6520653Y-18079105D01*
X6522927Y-18076231D01*
X6522933Y-18076224D01*
X6538372Y-18056709D01*
X6541163Y-18053305D01*
X6583945Y-18002948D01*
X6583948Y-18002944D01*
X6588684Y-17997369D01*
X6592012Y-17990852D01*
X6595389Y-17985788D01*
X6598616Y-17980564D01*
X6603160Y-17974820D01*
X6634232Y-17908338D01*
X6636163Y-17904387D01*
X6666213Y-17845537D01*
X6669543Y-17839016D01*
X6671284Y-17831901D01*
X6673421Y-17826155D01*
X6675345Y-17820372D01*
X6678444Y-17813741D01*
X6693394Y-17741863D01*
X6694363Y-17737582D01*
X6710470Y-17671759D01*
X6711804Y-17666308D01*
X6712500Y-17655090D01*
X6712539Y-17655092D01*
X6712772Y-17651191D01*
X6713161Y-17646832D01*
X6714652Y-17639664D01*
X6712546Y-17561843D01*
X6712500Y-17558434D01*
X6712500Y-17131714D01*
X9271808Y-17131714D01*
X9272696Y-17138981D01*
X9272701Y-17139825D01*
X9273325Y-17160730D01*
X9273373Y-17161610D01*
X9272919Y-17168923D01*
X9274159Y-17176139D01*
X9274159Y-17176141D01*
X9278217Y-17199757D01*
X9282813Y-17226500D01*
X9284314Y-17235237D01*
X9285202Y-17241277D01*
X9293369Y-17308087D01*
X9295906Y-17314956D01*
X9296112Y-17315806D01*
X9301519Y-17335976D01*
X9301771Y-17336833D01*
X9303010Y-17344043D01*
X9305877Y-17350780D01*
X9305877Y-17350781D01*
X9329360Y-17405969D01*
X9331617Y-17411652D01*
X9354927Y-17474770D01*
X9360626Y-17484458D01*
X9361646Y-17485969D01*
X9366103Y-17494478D01*
X9369716Y-17500812D01*
X9372580Y-17507543D01*
X9376916Y-17513436D01*
X9376919Y-17513440D01*
X9414904Y-17565056D01*
X9417857Y-17569244D01*
X10721733Y-19500893D01*
X10730709Y-19516488D01*
X10741815Y-19539431D01*
X10746434Y-19545108D01*
X10746440Y-19545118D01*
X10773089Y-19577873D01*
X10779782Y-19586893D01*
X10780254Y-19587592D01*
X10780261Y-19587601D01*
X10782303Y-19590626D01*
X10784684Y-19593397D01*
X10803091Y-19614820D01*
X10805258Y-19617412D01*
X10853952Y-19677263D01*
X10859756Y-19681728D01*
X10860755Y-19682700D01*
X10861247Y-19683224D01*
X10862572Y-19684479D01*
X10863222Y-19685027D01*
X10864144Y-19685877D01*
X10868911Y-19691425D01*
X10874823Y-19695725D01*
X10874826Y-19695728D01*
X10930899Y-19736513D01*
X10933608Y-19738539D01*
X10940949Y-19744186D01*
X10994790Y-19785603D01*
X11001459Y-19788610D01*
X11002665Y-19789332D01*
X11003241Y-19789713D01*
X11004832Y-19790637D01*
X11005621Y-19791036D01*
X11006679Y-19791632D01*
X11012606Y-19795943D01*
X11019361Y-19798773D01*
X11019363Y-19798774D01*
X11083280Y-19825551D01*
X11086382Y-19826900D01*
X11150102Y-19855629D01*
X11150107Y-19855631D01*
X11156773Y-19858636D01*
X11163953Y-19860028D01*
X11165299Y-19860455D01*
X11165937Y-19860689D01*
X11167701Y-19861224D01*
X11168559Y-19861430D01*
X11169738Y-19861770D01*
X11176493Y-19864600D01*
X11183719Y-19865800D01*
X11183718Y-19865800D01*
X11252055Y-19877151D01*
X11255384Y-19877750D01*
X11331212Y-19892447D01*
X11338524Y-19892149D01*
X11339949Y-19892257D01*
X11340621Y-19892338D01*
X11342450Y-19892452D01*
X11343337Y-19892455D01*
X11344554Y-19892514D01*
X11351778Y-19893714D01*
X11359082Y-19893220D01*
X11359083Y-19893220D01*
X11391106Y-19891054D01*
X11428212Y-19888544D01*
X11431565Y-19888363D01*
X11454928Y-19887412D01*
X11501439Y-19885519D01*
X11501442Y-19885519D01*
X11508752Y-19885221D01*
X11515801Y-19883249D01*
X11517203Y-19883027D01*
X11517892Y-19882950D01*
X11519695Y-19882640D01*
X11520552Y-19882441D01*
X11521761Y-19882216D01*
X11529060Y-19881723D01*
X11602315Y-19859090D01*
X11605516Y-19858148D01*
X11672818Y-19839318D01*
X11672822Y-19839317D01*
X11679868Y-19837345D01*
X11686274Y-19833804D01*
X11687583Y-19833268D01*
X11688240Y-19833032D01*
X11689923Y-19832316D01*
X11690688Y-19831937D01*
X11691841Y-19831428D01*
X11698828Y-19829269D01*
X11760264Y-19793124D01*
X11764857Y-19790422D01*
X11767797Y-19788745D01*
X11828976Y-19754930D01*
X11835381Y-19751390D01*
X11840803Y-19746469D01*
X11841957Y-19745643D01*
X11842539Y-19745265D01*
X11844004Y-19744186D01*
X11844673Y-19743631D01*
X11845665Y-19742880D01*
X11851976Y-19739167D01*
X11907331Y-19686140D01*
X11909805Y-19683833D01*
X11962794Y-19635733D01*
X11962795Y-19635732D01*
X11966947Y-19631963D01*
X11973800Y-19623054D01*
X11973813Y-19623064D01*
X11975625Y-19620718D01*
X11980288Y-19616251D01*
X12024620Y-19547805D01*
X12025888Y-19545887D01*
X12772445Y-18439874D01*
X13329512Y-17614589D01*
X13342472Y-17598433D01*
X13348266Y-17592317D01*
X13348272Y-17592309D01*
X13353304Y-17586997D01*
X13383045Y-17535794D01*
X13387564Y-17528585D01*
X13393426Y-17519901D01*
X13393428Y-17519898D01*
X13395467Y-17516877D01*
X13400299Y-17507543D01*
X13405816Y-17496886D01*
X13408745Y-17491547D01*
X13442550Y-17433349D01*
X13444671Y-17426347D01*
X13445012Y-17425562D01*
X13452887Y-17406175D01*
X13453195Y-17405362D01*
X13456562Y-17398857D01*
X13472930Y-17333545D01*
X13474543Y-17327715D01*
X13494055Y-17263291D01*
X13494509Y-17255978D01*
X13494665Y-17255108D01*
X13497867Y-17234446D01*
X13497977Y-17233603D01*
X13499757Y-17226500D01*
X13500661Y-17159188D01*
X13500892Y-17153084D01*
X13501288Y-17146707D01*
X13505057Y-17085945D01*
X13503817Y-17078729D01*
X13503769Y-17077840D01*
X13502128Y-17056952D01*
X13502045Y-17056144D01*
X13502143Y-17048829D01*
X13500555Y-17041683D01*
X13487541Y-16983127D01*
X13486360Y-16977130D01*
X13476205Y-16918037D01*
X13474966Y-16910825D01*
X13472100Y-16904090D01*
X13471864Y-16903288D01*
X13465459Y-16883323D01*
X13465178Y-16882514D01*
X13463591Y-16875375D01*
X13434257Y-16814778D01*
X13431750Y-16809261D01*
X13405396Y-16747325D01*
X13401059Y-16741431D01*
X13400619Y-16740660D01*
X13389804Y-16722727D01*
X13389360Y-16722030D01*
X13386171Y-16715442D01*
X13381557Y-16709770D01*
X13381554Y-16709766D01*
X13343690Y-16663226D01*
X13339949Y-16658392D01*
X13300078Y-16604214D01*
X13294501Y-16599476D01*
X13293919Y-16598852D01*
X13279294Y-16583911D01*
X13278656Y-16583290D01*
X13274034Y-16577609D01*
X13268226Y-16573141D01*
X13220688Y-16536572D01*
X13215935Y-16532729D01*
X13170243Y-16493911D01*
X13170241Y-16493910D01*
X13164662Y-16489170D01*
X13158140Y-16485840D01*
X13157419Y-16485359D01*
X13139745Y-16474181D01*
X13138999Y-16473734D01*
X13133196Y-16469270D01*
X13126525Y-16466262D01*
X13126523Y-16466261D01*
X13071857Y-16441614D01*
X13066345Y-16438966D01*
X13012935Y-16411693D01*
X13012933Y-16411692D01*
X13006413Y-16408363D01*
X12999299Y-16406622D01*
X12998505Y-16406327D01*
X12978724Y-16399512D01*
X12977887Y-16399246D01*
X12971213Y-16396237D01*
X12905153Y-16383433D01*
X12899181Y-16382124D01*
X12871910Y-16375451D01*
X12833818Y-16366130D01*
X12828216Y-16365782D01*
X12828213Y-16365782D01*
X12824542Y-16365554D01*
X12824526Y-16365554D01*
X12822600Y-16365434D01*
X12820778Y-16365434D01*
X12811230Y-16364368D01*
X12803961Y-16363819D01*
X12796774Y-16362426D01*
X12726748Y-16365276D01*
X12725424Y-16365330D01*
X12720300Y-16365434D01*
X10112382Y-16365434D01*
X10091738Y-16363731D01*
X10076198Y-16361150D01*
X10068893Y-16361644D01*
X10068892Y-16361644D01*
X10017104Y-16365147D01*
X10008601Y-16365434D01*
X9994494Y-16365434D01*
X9972144Y-16368040D01*
X9966081Y-16368598D01*
X9944508Y-16370057D01*
X9906215Y-16372647D01*
X9906212Y-16372648D01*
X9898916Y-16373141D01*
X9891925Y-16375301D01*
X9891118Y-16375451D01*
X9870629Y-16379772D01*
X9869766Y-16379976D01*
X9862492Y-16380824D01*
X9799219Y-16403791D01*
X9793450Y-16405728D01*
X9729148Y-16425595D01*
X9722839Y-16429307D01*
X9722023Y-16429667D01*
X9703106Y-16438573D01*
X9702346Y-16438953D01*
X9695468Y-16441450D01*
X9689351Y-16445460D01*
X9689346Y-16445463D01*
X9639169Y-16478361D01*
X9633976Y-16481588D01*
X9582342Y-16511966D01*
X9576000Y-16515697D01*
X9570713Y-16520762D01*
X9569994Y-16521306D01*
X9553662Y-16534303D01*
X9552998Y-16534858D01*
X9546871Y-16538875D01*
X9541838Y-16544188D01*
X9541832Y-16544193D01*
X9500587Y-16587732D01*
X9496277Y-16592067D01*
X9471295Y-16615999D01*
X9447688Y-16638613D01*
X9443708Y-16644758D01*
X9443149Y-16645434D01*
X9430223Y-16661866D01*
X9429706Y-16662557D01*
X9424672Y-16667871D01*
X9390873Y-16726060D01*
X9387684Y-16731256D01*
X9355074Y-16781603D01*
X9355070Y-16781612D01*
X9351094Y-16787750D01*
X9348635Y-16794645D01*
X9348243Y-16795438D01*
X9339443Y-16814404D01*
X9339099Y-16815196D01*
X9335426Y-16821519D01*
X9333305Y-16828522D01*
X9315921Y-16885921D01*
X9314007Y-16891729D01*
X9291400Y-16955110D01*
X9290594Y-16962379D01*
X9290405Y-16963197D01*
X9286196Y-16983717D01*
X9286042Y-16984575D01*
X9283921Y-16991577D01*
X9280369Y-17048829D01*
X9279755Y-17058728D01*
X9279229Y-17064818D01*
X9271808Y-17131714D01*
X6712500Y-17131714D01*
X6712500Y-12029091D01*
X6732502Y-11960970D01*
X6766228Y-11925879D01*
X6789786Y-11909383D01*
X6789788Y-11909381D01*
X6794300Y-11906222D01*
X6956198Y-11744324D01*
X6959359Y-11739810D01*
X6975855Y-11716252D01*
X7031312Y-11671924D01*
X7079067Y-11662524D01*
X14848552Y-11662524D01*
X14916673Y-11682526D01*
X14937647Y-11699429D01*
X15844583Y-12606365D01*
X15878609Y-12668677D01*
X15881488Y-12695460D01*
X15881488Y-25714688D01*
X15861486Y-25782809D01*
X15838565Y-25809420D01*
X15787609Y-25854107D01*
X15787605Y-25854111D01*
X15783263Y-25857919D01*
X15657136Y-26017910D01*
X15654447Y-26023021D01*
X15654445Y-26023024D01*
X15629585Y-26070276D01*
X15562277Y-26198207D01*
X15501863Y-26392772D01*
X15477917Y-26595088D01*
X15491242Y-26798380D01*
X15541390Y-26995839D01*
X15626683Y-27180853D01*
X15744264Y-27347226D01*
X15748398Y-27351253D01*
X15869167Y-27468901D01*
X15890195Y-27489386D01*
X15894991Y-27492591D01*
X15894994Y-27492593D01*
X16007660Y-27567874D01*
X16059588Y-27602571D01*
X16064891Y-27604849D01*
X16064894Y-27604851D01*
X16205830Y-27665402D01*
X16246772Y-27682992D01*
X16319602Y-27699472D01*
X16439840Y-27726679D01*
X16439845Y-27726680D01*
X16445477Y-27727954D01*
X16451248Y-27728181D01*
X16451250Y-27728181D01*
X16514255Y-27730656D01*
X16649048Y-27735952D01*
X16850668Y-27706719D01*
X16856132Y-27704864D01*
X16856137Y-27704863D01*
X17038112Y-27643091D01*
X17038117Y-27643089D01*
X17043584Y-27641233D01*
X17051313Y-27636905D01*
X17139545Y-27587492D01*
X17221336Y-27541687D01*
X17377971Y-27411415D01*
X17508243Y-27254780D01*
X17607789Y-27077028D01*
X17609645Y-27071561D01*
X17609647Y-27071556D01*
X17671419Y-26889581D01*
X17671420Y-26889576D01*
X17673275Y-26884112D01*
X17702508Y-26682492D01*
X17704034Y-26624229D01*
X17698474Y-26563715D01*
X17694013Y-26515163D01*
X17707698Y-26445498D01*
X17756875Y-26394291D01*
X17825929Y-26377800D01*
X17869222Y-26387868D01*
X17954901Y-26424679D01*
X17954910Y-26424682D01*
X17960217Y-26426962D01*
X18033047Y-26443442D01*
X18153285Y-26470649D01*
X18153290Y-26470650D01*
X18158922Y-26471924D01*
X18164693Y-26472151D01*
X18164695Y-26472151D01*
X18227700Y-26474626D01*
X18362493Y-26479922D01*
X18564113Y-26450689D01*
X18569577Y-26448834D01*
X18569582Y-26448833D01*
X18751557Y-26387061D01*
X18751562Y-26387059D01*
X18757029Y-26385203D01*
X18786321Y-26368799D01*
X18840905Y-26338230D01*
X18934781Y-26285657D01*
X19091416Y-26155385D01*
X19158707Y-26074476D01*
X19181451Y-26047130D01*
X19240389Y-26007546D01*
X19278325Y-26001699D01*
X20460273Y-26001699D01*
X20528394Y-26021701D01*
X20567706Y-26061864D01*
X20635986Y-26173287D01*
X20782249Y-26342137D01*
X20885957Y-26428237D01*
X20947214Y-26479093D01*
X20954125Y-26484831D01*
X21006032Y-26515163D01*
X21027444Y-26527675D01*
X21076168Y-26579313D01*
X21089239Y-26649096D01*
X21062508Y-26714868D01*
X21022054Y-26748226D01*
X21009606Y-26754706D01*
X21005473Y-26757809D01*
X21005470Y-26757811D01*
X20844863Y-26878398D01*
X20830964Y-26888834D01*
X20827392Y-26892572D01*
X20699097Y-27026825D01*
X20676628Y-27050337D01*
X20673714Y-27054609D01*
X20673713Y-27054610D01*
X20653310Y-27084520D01*
X20550742Y-27234879D01*
X20510457Y-27321667D01*
X20462530Y-27424917D01*
X20456687Y-27437504D01*
X20396988Y-27652769D01*
X20373250Y-27874894D01*
X20373547Y-27880047D01*
X20373547Y-27880050D01*
X20379183Y-27977796D01*
X20386109Y-28097914D01*
X20387246Y-28102960D01*
X20387247Y-28102966D01*
X20407118Y-28191138D01*
X20435221Y-28315838D01*
X20495013Y-28463089D01*
X20512661Y-28506550D01*
X20519265Y-28522815D01*
X20635986Y-28713287D01*
X20782249Y-28882137D01*
X20954125Y-29024831D01*
X21024594Y-29066010D01*
X21027444Y-29067675D01*
X21076168Y-29119313D01*
X21089239Y-29189096D01*
X21062508Y-29254868D01*
X21022054Y-29288226D01*
X21009606Y-29294706D01*
X21005473Y-29297809D01*
X21005470Y-29297811D01*
X20981246Y-29315999D01*
X20830964Y-29428834D01*
X20676628Y-29590337D01*
X20673714Y-29594609D01*
X20673713Y-29594610D01*
X20561094Y-29759703D01*
X20506183Y-29804706D01*
X20457006Y-29814699D01*
X8704350Y-29814699D01*
X8636229Y-29794697D01*
X8615255Y-29777794D01*
X8522586Y-29685125D01*
X8488560Y-29622813D01*
X8485681Y-29596030D01*
X8485681Y-26590924D01*
X9921201Y-26590924D01*
X9921498Y-26596077D01*
X9921498Y-26596080D01*
X9931872Y-26775999D01*
X9934060Y-26813944D01*
X9935197Y-26818990D01*
X9935198Y-26818996D01*
X9950937Y-26888834D01*
X9983172Y-27031868D01*
X10067216Y-27238845D01*
X10114872Y-27316613D01*
X10181241Y-27424917D01*
X10183937Y-27429317D01*
X10330200Y-27598167D01*
X10433271Y-27683738D01*
X10495165Y-27735123D01*
X10502076Y-27740861D01*
X10694950Y-27853567D01*
X10903642Y-27933259D01*
X10908710Y-27934290D01*
X10908713Y-27934291D01*
X11015967Y-27956112D01*
X11122547Y-27977796D01*
X11127722Y-27977986D01*
X11127724Y-27977986D01*
X11340623Y-27985793D01*
X11340627Y-27985793D01*
X11345787Y-27985982D01*
X11350907Y-27985326D01*
X11350909Y-27985326D01*
X11562238Y-27958254D01*
X11562239Y-27958254D01*
X11567366Y-27957597D01*
X11572316Y-27956112D01*
X11776379Y-27894890D01*
X11776384Y-27894888D01*
X11781334Y-27893403D01*
X11981944Y-27795125D01*
X12163810Y-27665402D01*
X12190898Y-27638409D01*
X12291669Y-27537989D01*
X12322046Y-27507718D01*
X12332915Y-27492593D01*
X12452403Y-27326306D01*
X12453726Y-27327257D01*
X12500595Y-27284086D01*
X12570530Y-27271854D01*
X12635976Y-27299373D01*
X12663825Y-27331223D01*
X12723937Y-27429317D01*
X12870200Y-27598167D01*
X12973271Y-27683738D01*
X13035165Y-27735123D01*
X13042076Y-27740861D01*
X13234950Y-27853567D01*
X13443642Y-27933259D01*
X13448710Y-27934290D01*
X13448713Y-27934291D01*
X13555967Y-27956112D01*
X13662547Y-27977796D01*
X13667722Y-27977986D01*
X13667724Y-27977986D01*
X13880623Y-27985793D01*
X13880627Y-27985793D01*
X13885787Y-27985982D01*
X13890907Y-27985326D01*
X13890909Y-27985326D01*
X14102238Y-27958254D01*
X14102239Y-27958254D01*
X14107366Y-27957597D01*
X14112316Y-27956112D01*
X14316379Y-27894890D01*
X14316384Y-27894888D01*
X14321334Y-27893403D01*
X14521944Y-27795125D01*
X14703810Y-27665402D01*
X14730898Y-27638409D01*
X14831669Y-27537989D01*
X14862046Y-27507718D01*
X14872915Y-27492593D01*
X14989385Y-27330506D01*
X14992403Y-27326306D01*
X15013270Y-27284086D01*
X15089086Y-27130682D01*
X15089087Y-27130680D01*
X15091380Y-27126040D01*
X15156320Y-26912298D01*
X15185479Y-26690819D01*
X15185593Y-26686166D01*
X15187024Y-26627594D01*
X15187024Y-26627590D01*
X15187106Y-26624229D01*
X15168802Y-26401590D01*
X15114381Y-26184931D01*
X15025304Y-25980069D01*
X14946282Y-25857919D01*
X14906772Y-25796846D01*
X14906770Y-25796843D01*
X14903964Y-25792506D01*
X14753620Y-25627280D01*
X14749569Y-25624081D01*
X14749565Y-25624077D01*
X14582364Y-25492029D01*
X14582360Y-25492027D01*
X14578309Y-25488827D01*
X14536519Y-25465758D01*
X14486548Y-25415326D01*
X14471776Y-25345883D01*
X14496892Y-25279477D01*
X14524244Y-25252870D01*
X14699278Y-25128021D01*
X14707150Y-25121368D01*
X14858002Y-24971041D01*
X14864680Y-24963194D01*
X14988953Y-24790249D01*
X14994263Y-24781412D01*
X15088620Y-24590496D01*
X15092419Y-24580901D01*
X15154327Y-24377139D01*
X15156505Y-24367066D01*
X15157936Y-24356191D01*
X15155725Y-24342007D01*
X15142567Y-24338229D01*
X13695950Y-24338229D01*
X13627829Y-24318227D01*
X13581336Y-24264571D01*
X13569950Y-24212229D01*
X13569950Y-23956229D01*
X13589952Y-23888108D01*
X13643608Y-23841615D01*
X13695950Y-23830229D01*
X15142294Y-23830229D01*
X15155825Y-23826256D01*
X15157130Y-23817176D01*
X15115164Y-23650104D01*
X15111844Y-23640353D01*
X15026922Y-23445043D01*
X15022055Y-23435968D01*
X14906376Y-23257155D01*
X14900086Y-23248986D01*
X14756756Y-23091469D01*
X14749223Y-23084444D01*
X14582089Y-22952451D01*
X14573506Y-22946749D01*
X14536552Y-22926349D01*
X14486581Y-22875916D01*
X14471809Y-22806474D01*
X14496925Y-22740068D01*
X14524277Y-22713461D01*
X14547747Y-22696720D01*
X14703810Y-22585402D01*
X14730898Y-22558409D01*
X14847566Y-22442147D01*
X14862046Y-22427718D01*
X14872915Y-22412593D01*
X14989385Y-22250506D01*
X14992403Y-22246306D01*
X15017884Y-22194750D01*
X15089086Y-22050682D01*
X15089087Y-22050680D01*
X15091380Y-22046040D01*
X15149466Y-21854858D01*
X15154815Y-21837252D01*
X15154815Y-21837250D01*
X15156320Y-21832298D01*
X15185479Y-21610819D01*
X15185593Y-21606166D01*
X15187024Y-21547594D01*
X15187024Y-21547590D01*
X15187106Y-21544229D01*
X15168802Y-21321590D01*
X15114381Y-21104931D01*
X15025304Y-20900069D01*
X14943820Y-20774114D01*
X14906772Y-20716846D01*
X14906770Y-20716843D01*
X14903964Y-20712506D01*
X14753620Y-20547280D01*
X14749569Y-20544081D01*
X14749565Y-20544077D01*
X14582364Y-20412029D01*
X14582360Y-20412027D01*
X14578309Y-20408827D01*
X14382739Y-20300867D01*
X14377870Y-20299143D01*
X14377866Y-20299141D01*
X14177037Y-20228024D01*
X14177033Y-20228023D01*
X14172162Y-20226298D01*
X14167069Y-20225391D01*
X14167066Y-20225390D01*
X13957323Y-20188029D01*
X13957317Y-20188028D01*
X13952234Y-20187123D01*
X13878402Y-20186221D01*
X13734031Y-20184457D01*
X13734029Y-20184457D01*
X13728861Y-20184394D01*
X13508041Y-20218184D01*
X13295706Y-20287586D01*
X13097557Y-20390736D01*
X13093424Y-20393839D01*
X13093421Y-20393841D01*
X12932015Y-20515028D01*
X12918915Y-20524864D01*
X12862487Y-20583913D01*
X12838233Y-20609293D01*
X12776709Y-20644723D01*
X12705796Y-20641266D01*
X12648010Y-20600020D01*
X12629157Y-20566472D01*
X12587717Y-20455932D01*
X12584565Y-20447524D01*
X12497211Y-20330968D01*
X12380655Y-20243614D01*
X12244266Y-20192484D01*
X12182084Y-20185729D01*
X10385816Y-20185729D01*
X10323634Y-20192484D01*
X10187245Y-20243614D01*
X10070689Y-20330968D01*
X9983335Y-20447524D01*
X9932205Y-20583913D01*
X9925450Y-20646095D01*
X9925450Y-22442363D01*
X9932205Y-22504545D01*
X9983335Y-22640934D01*
X10070689Y-22757490D01*
X10187245Y-22844844D01*
X10195654Y-22847996D01*
X10195655Y-22847997D01*
X10304401Y-22888764D01*
X10361166Y-22931405D01*
X10385866Y-22997967D01*
X10370659Y-23067316D01*
X10351266Y-23093797D01*
X10329792Y-23116268D01*
X10248793Y-23201029D01*
X10224579Y-23226367D01*
X10221665Y-23230639D01*
X10221664Y-23230640D01*
X10209359Y-23248679D01*
X10098693Y-23410909D01*
X10004638Y-23613534D01*
X9944939Y-23828799D01*
X9921201Y-24050924D01*
X9921498Y-24056077D01*
X9921498Y-24056080D01*
X9931872Y-24235999D01*
X9934060Y-24273944D01*
X9935197Y-24278990D01*
X9935198Y-24278996D01*
X9950937Y-24348834D01*
X9983172Y-24491868D01*
X10067216Y-24698845D01*
X10082655Y-24724039D01*
X10175229Y-24875106D01*
X10183937Y-24889317D01*
X10330200Y-25058167D01*
X10502076Y-25200861D01*
X10572545Y-25242040D01*
X10575395Y-25243705D01*
X10624119Y-25295343D01*
X10637190Y-25365126D01*
X10610459Y-25430898D01*
X10570005Y-25464256D01*
X10557557Y-25470736D01*
X10553424Y-25473839D01*
X10553421Y-25473841D01*
X10383050Y-25601759D01*
X10378915Y-25604864D01*
X10224579Y-25766367D01*
X10221670Y-25770632D01*
X10221664Y-25770640D01*
X10213363Y-25782809D01*
X10098693Y-25950909D01*
X10004638Y-26153534D01*
X9944939Y-26368799D01*
X9921201Y-26590924D01*
X8485681Y-26590924D01*
X8485681Y-25058324D01*
X8505683Y-24990203D01*
X8531112Y-24961450D01*
X8634929Y-24875106D01*
X8639367Y-24871415D01*
X8769639Y-24714780D01*
X8869185Y-24537028D01*
X8871041Y-24531561D01*
X8871043Y-24531556D01*
X8932815Y-24349581D01*
X8932816Y-24349576D01*
X8934671Y-24344112D01*
X8963904Y-24142492D01*
X8965430Y-24084229D01*
X8952824Y-23947030D01*
X8947318Y-23887109D01*
X8947317Y-23887106D01*
X8946789Y-23881355D01*
X8932370Y-23830229D01*
X8893056Y-23690835D01*
X8893055Y-23690833D01*
X8891488Y-23685276D01*
X8880861Y-23663725D01*
X8803937Y-23507739D01*
X8801382Y-23502558D01*
X8782977Y-23477910D01*
X8682939Y-23343944D01*
X8682939Y-23343943D01*
X8679486Y-23339320D01*
X8585571Y-23252506D01*
X8534124Y-23204948D01*
X8534121Y-23204946D01*
X8529884Y-23201029D01*
X8403397Y-23121222D01*
X8362469Y-23095398D01*
X8362464Y-23095396D01*
X8357585Y-23092317D01*
X8168361Y-23016824D01*
X7968547Y-22977078D01*
X7962773Y-22977002D01*
X7962769Y-22977002D01*
X7859633Y-22975653D01*
X7764836Y-22974412D01*
X7759139Y-22975391D01*
X7759138Y-22975391D01*
X7627753Y-22997967D01*
X7564051Y-23008913D01*
X7372915Y-23079427D01*
X7197830Y-23183592D01*
X7044659Y-23317919D01*
X7041092Y-23322444D01*
X7041087Y-23322449D01*
X6994348Y-23381738D01*
X6918532Y-23477910D01*
X6915843Y-23483021D01*
X6915841Y-23483024D01*
X6890981Y-23530276D01*
X6823673Y-23658207D01*
X6763259Y-23852772D01*
X6739313Y-24055088D01*
X6752638Y-24258380D01*
X6802786Y-24455839D01*
X6888079Y-24640853D01*
X7005660Y-24807226D01*
X7009794Y-24811253D01*
X7130563Y-24928901D01*
X7151591Y-24949386D01*
X7162681Y-24956796D01*
X7208209Y-25011271D01*
X7218681Y-25061562D01*
X7218681Y-29831858D01*
X7218154Y-29843041D01*
X7216479Y-29850534D01*
X7216728Y-29858460D01*
X7216728Y-29858461D01*
X7218619Y-29918611D01*
X7218681Y-29922570D01*
X7218681Y-29950481D01*
X7219178Y-29954415D01*
X7219178Y-29954416D01*
X7219186Y-29954481D01*
X7220119Y-29966318D01*
X7221508Y-30010514D01*
X7227159Y-30029964D01*
X7231168Y-30049325D01*
X7233707Y-30069422D01*
X7236626Y-30076793D01*
X7236626Y-30076795D01*
X7249985Y-30110537D01*
X7253830Y-30121767D01*
X7266163Y-30164218D01*
X7270196Y-30171037D01*
X7270198Y-30171042D01*
X7276474Y-30181653D01*
X7285169Y-30199401D01*
X7292629Y-30218242D01*
X7297291Y-30224658D01*
X7297291Y-30224659D01*
X7318617Y-30254012D01*
X7325133Y-30263932D01*
X7347639Y-30301987D01*
X7361960Y-30316308D01*
X7374800Y-30331341D01*
X7386709Y-30347732D01*
X7392815Y-30352783D01*
X7420786Y-30375923D01*
X7429565Y-30383913D01*
X7886098Y-30840446D01*
X7893642Y-30848736D01*
X7897755Y-30855217D01*
X7903532Y-30860642D01*
X7947422Y-30901857D01*
X7950264Y-30904612D01*
X7969985Y-30924333D01*
X7973180Y-30926811D01*
X7982202Y-30934517D01*
X8014434Y-30964785D01*
X8021383Y-30968605D01*
X8032187Y-30974545D01*
X8048711Y-30985398D01*
X8064714Y-30997812D01*
X8105298Y-31015375D01*
X8115928Y-31020582D01*
X8154695Y-31041894D01*
X8162372Y-31043865D01*
X8162377Y-31043867D01*
X8174313Y-31046931D01*
X8193021Y-31053336D01*
X8211610Y-31061380D01*
X8219435Y-31062619D01*
X8219437Y-31062620D01*
X8255274Y-31068296D01*
X8266895Y-31070703D01*
X8302044Y-31079727D01*
X8309725Y-31081699D01*
X8329986Y-31081699D01*
X8349695Y-31083250D01*
X8369698Y-31086418D01*
X8377590Y-31085672D01*
X8382817Y-31085178D01*
X8413709Y-31082258D01*
X8425566Y-31081699D01*
X20460273Y-31081699D01*
X20528394Y-31101701D01*
X20567706Y-31141864D01*
X20635986Y-31253287D01*
X20782249Y-31422137D01*
X20954125Y-31564831D01*
X21024594Y-31606010D01*
X21027444Y-31607675D01*
X21076168Y-31659313D01*
X21089239Y-31729096D01*
X21062508Y-31794868D01*
X21022054Y-31828226D01*
X21009606Y-31834706D01*
X21005473Y-31837809D01*
X21005470Y-31837811D01*
X20981246Y-31855999D01*
X20830964Y-31968834D01*
X20676628Y-32130337D01*
X20550742Y-32314879D01*
X20456687Y-32517504D01*
X20396988Y-32732769D01*
X20373250Y-32954894D01*
X20373547Y-32960047D01*
X20373547Y-32960050D01*
X20379010Y-33054789D01*
X20386109Y-33177914D01*
X20387246Y-33182960D01*
X20387247Y-33182966D01*
X20407118Y-33271138D01*
X20435221Y-33395838D01*
X20519265Y-33602815D01*
X20635986Y-33793287D01*
X20782249Y-33962137D01*
X20954125Y-34104831D01*
X21146999Y-34217537D01*
X21355691Y-34297229D01*
X21360759Y-34298260D01*
X21360762Y-34298261D01*
X21468016Y-34320082D01*
X21574596Y-34341766D01*
X21579771Y-34341956D01*
X21579773Y-34341956D01*
X21792672Y-34349763D01*
X21792676Y-34349763D01*
X21797836Y-34349952D01*
X21802956Y-34349296D01*
X21802958Y-34349296D01*
X22014287Y-34322224D01*
X22014288Y-34322224D01*
X22019415Y-34321567D01*
X22024365Y-34320082D01*
X22228428Y-34258860D01*
X22228433Y-34258858D01*
X22233383Y-34257373D01*
X22433993Y-34159095D01*
X22615859Y-34029372D01*
X22774095Y-33871688D01*
X22833593Y-33788888D01*
X22901434Y-33694476D01*
X22904452Y-33690276D01*
X23003429Y-33490010D01*
X23068369Y-33276268D01*
X23097528Y-33054789D01*
X23099155Y-32988199D01*
X23080851Y-32765560D01*
X23026430Y-32548901D01*
X22937353Y-32344039D01*
X22816013Y-32156476D01*
X22665669Y-31991250D01*
X22661618Y-31988051D01*
X22661614Y-31988047D01*
X22494413Y-31855999D01*
X22494409Y-31855997D01*
X22490358Y-31852797D01*
X22449052Y-31829995D01*
X22399083Y-31779563D01*
X22384311Y-31710120D01*
X22409427Y-31643715D01*
X22436779Y-31617108D01*
X22480602Y-31585849D01*
X22615859Y-31489372D01*
X22774095Y-31331688D01*
X22833593Y-31248888D01*
X22901434Y-31154476D01*
X22904452Y-31150276D01*
X22908610Y-31141864D01*
X23001135Y-30954652D01*
X23001136Y-30954650D01*
X23003429Y-30950010D01*
X23068369Y-30736268D01*
X23097528Y-30514789D01*
X23099155Y-30448199D01*
X23080851Y-30225560D01*
X23026430Y-30008901D01*
X22937353Y-29804039D01*
X22816013Y-29616476D01*
X22665669Y-29451250D01*
X22661618Y-29448051D01*
X22661614Y-29448047D01*
X22494413Y-29315999D01*
X22494409Y-29315997D01*
X22490358Y-29312797D01*
X22449052Y-29289995D01*
X22399083Y-29239563D01*
X22384311Y-29170120D01*
X22409427Y-29103715D01*
X22436779Y-29077108D01*
X22480602Y-29045849D01*
X22615859Y-28949372D01*
X22774095Y-28791688D01*
X22833593Y-28708888D01*
X22901434Y-28614476D01*
X22904452Y-28610276D01*
X22908144Y-28602807D01*
X23001135Y-28414652D01*
X23001136Y-28414650D01*
X23003429Y-28410010D01*
X23068369Y-28196268D01*
X23097528Y-27974789D01*
X23097948Y-27957597D01*
X23099073Y-27911564D01*
X23099073Y-27911560D01*
X23099155Y-27908199D01*
X23080851Y-27685560D01*
X23026430Y-27468901D01*
X22937353Y-27264039D01*
X22897905Y-27203061D01*
X22818821Y-27080816D01*
X22818819Y-27080813D01*
X22816013Y-27076476D01*
X22665669Y-26911250D01*
X22661618Y-26908051D01*
X22661614Y-26908047D01*
X22494413Y-26775999D01*
X22494409Y-26775997D01*
X22490358Y-26772797D01*
X22449052Y-26749995D01*
X22399083Y-26699563D01*
X22384311Y-26630120D01*
X22409427Y-26563715D01*
X22436779Y-26537108D01*
X22480602Y-26505849D01*
X22615859Y-26409372D01*
X22638054Y-26387255D01*
X22770434Y-26255336D01*
X22774095Y-26251688D01*
X22822065Y-26184931D01*
X22901434Y-26074476D01*
X22904452Y-26070276D01*
X22908610Y-26061864D01*
X23001135Y-25874652D01*
X23001136Y-25874650D01*
X23003429Y-25870010D01*
X23068369Y-25656268D01*
X23097528Y-25434789D01*
X23098004Y-25415326D01*
X23099073Y-25371564D01*
X23099073Y-25371560D01*
X23099155Y-25368199D01*
X23080851Y-25145560D01*
X23026430Y-24928901D01*
X22937353Y-24724039D01*
X22897905Y-24663061D01*
X22818821Y-24540816D01*
X22818819Y-24540813D01*
X22816013Y-24536476D01*
X22665669Y-24371250D01*
X22661618Y-24368051D01*
X22661614Y-24368047D01*
X22494413Y-24235999D01*
X22494409Y-24235997D01*
X22490358Y-24232797D01*
X22449052Y-24209995D01*
X22399083Y-24159563D01*
X22384311Y-24090120D01*
X22409427Y-24023715D01*
X22436779Y-23997108D01*
X22494089Y-23956229D01*
X22615859Y-23869372D01*
X22638054Y-23847255D01*
X22770434Y-23715336D01*
X22774095Y-23711688D01*
X22822065Y-23644931D01*
X22901434Y-23534476D01*
X22904452Y-23530276D01*
X22915591Y-23507739D01*
X23001135Y-23334652D01*
X23001136Y-23334650D01*
X23003429Y-23330010D01*
X23068369Y-23116268D01*
X23097528Y-22894789D01*
X23097675Y-22888764D01*
X23099073Y-22831564D01*
X23099073Y-22831560D01*
X23099155Y-22828199D01*
X23080851Y-22605560D01*
X23026430Y-22388901D01*
X22937353Y-22184039D01*
X22885672Y-22104152D01*
X22818821Y-22000816D01*
X22818819Y-22000813D01*
X22816013Y-21996476D01*
X22665669Y-21831250D01*
X22661618Y-21828051D01*
X22661614Y-21828047D01*
X22494413Y-21695999D01*
X22494409Y-21695997D01*
X22490358Y-21692797D01*
X22449052Y-21669995D01*
X22399083Y-21619563D01*
X22384311Y-21550120D01*
X22409427Y-21483715D01*
X22436779Y-21457108D01*
X22480602Y-21425849D01*
X22615859Y-21329372D01*
X22774095Y-21171688D01*
X22822065Y-21104931D01*
X22901434Y-20994476D01*
X22904452Y-20990276D01*
X22908663Y-20981757D01*
X23001135Y-20794652D01*
X23001136Y-20794650D01*
X23003429Y-20790010D01*
X23058335Y-20609293D01*
X23066864Y-20581222D01*
X23066864Y-20581220D01*
X23068369Y-20576268D01*
X23097528Y-20354789D01*
X23098110Y-20330968D01*
X23099073Y-20291564D01*
X23099073Y-20291560D01*
X23099155Y-20288199D01*
X23080851Y-20065560D01*
X23026430Y-19848901D01*
X22937353Y-19644039D01*
X22816013Y-19456476D01*
X22665669Y-19291250D01*
X22661618Y-19288051D01*
X22661614Y-19288047D01*
X22494413Y-19155999D01*
X22494409Y-19155997D01*
X22490358Y-19152797D01*
X22449052Y-19129995D01*
X22399083Y-19079563D01*
X22384311Y-19010120D01*
X22409427Y-18943715D01*
X22436779Y-18917108D01*
X22480602Y-18885849D01*
X22615859Y-18789372D01*
X22774095Y-18631688D01*
X22833593Y-18548888D01*
X22901434Y-18454476D01*
X22904452Y-18450276D01*
X22932076Y-18394384D01*
X23001135Y-18254652D01*
X23001136Y-18254650D01*
X23003429Y-18250010D01*
X23062159Y-18056709D01*
X23066864Y-18041222D01*
X23066864Y-18041220D01*
X23068369Y-18036268D01*
X23097528Y-17814789D01*
X23099155Y-17748199D01*
X23080851Y-17525560D01*
X23026430Y-17308901D01*
X22937353Y-17104039D01*
X22864598Y-16991577D01*
X22818821Y-16920816D01*
X22818819Y-16920813D01*
X22816013Y-16916476D01*
X22665669Y-16751250D01*
X22661618Y-16748051D01*
X22661614Y-16748047D01*
X22494413Y-16615999D01*
X22494409Y-16615997D01*
X22490358Y-16612797D01*
X22449052Y-16589995D01*
X22399083Y-16539563D01*
X22384311Y-16470120D01*
X22409427Y-16403715D01*
X22436779Y-16377108D01*
X22485962Y-16342026D01*
X22615859Y-16249372D01*
X22774095Y-16091688D01*
X22904452Y-15910276D01*
X22910114Y-15898821D01*
X23001135Y-15714652D01*
X23001136Y-15714650D01*
X23003429Y-15710010D01*
X23068369Y-15496268D01*
X23097528Y-15274789D01*
X23099155Y-15208199D01*
X23080851Y-14985560D01*
X23026430Y-14768901D01*
X22937353Y-14564039D01*
X22816013Y-14376476D01*
X22665669Y-14211250D01*
X22661618Y-14208051D01*
X22661614Y-14208047D01*
X22494413Y-14075999D01*
X22494409Y-14075997D01*
X22490358Y-14072797D01*
X22294788Y-13964837D01*
X22289919Y-13963113D01*
X22289915Y-13963111D01*
X22089086Y-13891994D01*
X22089082Y-13891993D01*
X22084211Y-13890268D01*
X22079118Y-13889361D01*
X22079115Y-13889360D01*
X21869372Y-13851999D01*
X21869366Y-13851998D01*
X21864283Y-13851093D01*
X21790451Y-13850191D01*
X21646080Y-13848427D01*
X21646078Y-13848427D01*
X21640910Y-13848364D01*
X21420090Y-13882154D01*
X21207755Y-13951556D01*
X21009606Y-14054706D01*
X21005473Y-14057809D01*
X21005470Y-14057811D01*
X20835099Y-14185729D01*
X20830964Y-14188834D01*
X20676628Y-14350337D01*
X20673714Y-14354609D01*
X20673713Y-14354610D01*
X20561767Y-14518717D01*
X20506856Y-14563720D01*
X20461638Y-14573651D01*
X20432330Y-14574572D01*
X20430253Y-14574637D01*
X20426296Y-14574699D01*
X20398365Y-14574699D01*
X20394450Y-14575194D01*
X20394446Y-14575194D01*
X20394388Y-14575202D01*
X20394359Y-14575205D01*
X20382517Y-14576138D01*
X20338331Y-14577526D01*
X20320965Y-14582571D01*
X20318879Y-14583177D01*
X20299527Y-14587185D01*
X20287289Y-14588731D01*
X20287287Y-14588732D01*
X20279424Y-14589725D01*
X20238307Y-14606005D01*
X20227106Y-14609840D01*
X20184627Y-14622181D01*
X20177808Y-14626214D01*
X20177803Y-14626216D01*
X20167192Y-14632492D01*
X20149442Y-14641189D01*
X20130604Y-14648647D01*
X20124188Y-14653308D01*
X20124187Y-14653309D01*
X20094846Y-14674627D01*
X20084922Y-14681146D01*
X20053681Y-14699621D01*
X20053676Y-14699625D01*
X20046858Y-14703657D01*
X20032534Y-14717981D01*
X20017502Y-14730820D01*
X20001114Y-14742727D01*
X19983389Y-14764153D01*
X19972933Y-14776792D01*
X19964943Y-14785572D01*
X19226735Y-15523780D01*
X19218449Y-15531320D01*
X19211970Y-15535432D01*
X19206545Y-15541209D01*
X19165345Y-15585083D01*
X19162590Y-15587925D01*
X19142853Y-15607662D01*
X19140373Y-15610859D01*
X19132670Y-15619879D01*
X19102402Y-15652111D01*
X19098583Y-15659057D01*
X19098581Y-15659060D01*
X19092640Y-15669866D01*
X19081789Y-15686385D01*
X19069374Y-15702391D01*
X19066229Y-15709660D01*
X19066226Y-15709664D01*
X19051814Y-15742969D01*
X19046597Y-15753619D01*
X19025293Y-15792372D01*
X19023322Y-15800047D01*
X19023322Y-15800048D01*
X19020255Y-15811994D01*
X19013851Y-15830698D01*
X19005807Y-15849287D01*
X19004568Y-15857110D01*
X19004565Y-15857120D01*
X18998889Y-15892956D01*
X18996483Y-15904576D01*
X18987460Y-15939721D01*
X18985488Y-15947402D01*
X18985488Y-15967656D01*
X18983937Y-15987366D01*
X18980768Y-16007375D01*
X18981514Y-16015267D01*
X18984929Y-16051393D01*
X18985488Y-16063251D01*
X18985488Y-20436899D01*
X18965486Y-20505020D01*
X18911830Y-20551513D01*
X18841556Y-20561617D01*
X18809925Y-20551589D01*
X18809634Y-20552317D01*
X18625779Y-20478966D01*
X18620410Y-20476824D01*
X18420596Y-20437078D01*
X18414822Y-20437002D01*
X18414818Y-20437002D01*
X18311682Y-20435653D01*
X18216885Y-20434412D01*
X18211188Y-20435391D01*
X18211187Y-20435391D01*
X18140577Y-20447524D01*
X18016100Y-20468913D01*
X17824964Y-20539427D01*
X17820003Y-20542379D01*
X17820002Y-20542379D01*
X17762627Y-20576514D01*
X17649879Y-20643592D01*
X17615564Y-20673686D01*
X17551160Y-20703561D01*
X17480828Y-20693875D01*
X17426897Y-20647701D01*
X17406488Y-20578952D01*
X17406488Y-12394808D01*
X17407921Y-12375858D01*
X17410112Y-12361459D01*
X17410112Y-12361453D01*
X17411212Y-12354224D01*
X17406903Y-12301249D01*
X17406488Y-12291034D01*
X17406488Y-12282907D01*
X17403177Y-12254508D01*
X17402748Y-12250168D01*
X17399688Y-12212541D01*
X17396797Y-12177006D01*
X17394541Y-12170044D01*
X17393345Y-12164056D01*
X17391937Y-12158099D01*
X17391089Y-12150825D01*
X17388591Y-12143943D01*
X17388590Y-12143939D01*
X17366043Y-12081825D01*
X17364633Y-12077721D01*
X17342001Y-12007857D01*
X17338201Y-12001594D01*
X17335663Y-11996052D01*
X17332921Y-11990576D01*
X17330422Y-11983691D01*
X17290173Y-11922300D01*
X17287858Y-11918632D01*
X17249761Y-11855851D01*
X17242321Y-11847427D01*
X17242350Y-11847401D01*
X17239750Y-11844470D01*
X17236946Y-11841116D01*
X17232934Y-11834997D01*
X17176401Y-11781443D01*
X17173960Y-11779066D01*
X15803390Y-10408496D01*
X15791003Y-10394083D01*
X15782375Y-10382359D01*
X15778034Y-10376460D01*
X15737525Y-10342045D01*
X15730009Y-10335115D01*
X15724265Y-10329371D01*
X15721391Y-10327097D01*
X15721384Y-10327091D01*
X15701869Y-10311652D01*
X15698465Y-10308861D01*
X15648108Y-10266079D01*
X15648104Y-10266076D01*
X15642529Y-10261340D01*
X15636012Y-10258012D01*
X15630948Y-10254635D01*
X15625724Y-10251408D01*
X15619980Y-10246864D01*
X15593689Y-10234576D01*
X15553498Y-10215792D01*
X15549547Y-10213861D01*
X15498535Y-10187813D01*
X15484176Y-10180481D01*
X15477061Y-10178740D01*
X15471315Y-10176603D01*
X15465532Y-10174679D01*
X15458901Y-10171580D01*
X15387023Y-10156630D01*
X15382751Y-10155663D01*
X15311468Y-10138220D01*
X15305869Y-10137873D01*
X15305865Y-10137872D01*
X15300250Y-10137524D01*
X15300252Y-10137485D01*
X15296351Y-10137252D01*
X15291992Y-10136863D01*
X15284824Y-10135372D01*
X15277507Y-10135570D01*
X15207003Y-10137478D01*
X15203594Y-10137524D01*
X7079067Y-10137524D01*
X7010946Y-10117522D01*
X6975855Y-10083796D01*
X6959359Y-10060238D01*
X6959357Y-10060236D01*
X6956198Y-10055724D01*
X6794300Y-9893826D01*
X6789792Y-9890669D01*
X6789789Y-9890667D01*
X6663920Y-9802533D01*
X6606749Y-9762501D01*
X6601767Y-9760178D01*
X6601762Y-9760175D01*
X6404225Y-9668063D01*
X6404224Y-9668063D01*
X6399243Y-9665740D01*
X6393935Y-9664318D01*
X6393933Y-9664317D01*
X6183402Y-9607905D01*
X6183400Y-9607905D01*
X6178087Y-9606481D01*
X5950000Y-9586526D01*
X5721913Y-9606481D01*
X5716600Y-9607905D01*
X5716598Y-9607905D01*
X5506067Y-9664317D01*
X5506065Y-9664318D01*
X5500757Y-9665740D01*
X5495776Y-9668063D01*
X5495775Y-9668063D01*
X5298238Y-9760175D01*
X5298233Y-9760178D01*
X5293251Y-9762501D01*
X5236080Y-9802533D01*
X5110211Y-9890667D01*
X5110208Y-9890669D01*
X5105700Y-9893826D01*
X4943802Y-10055724D01*
X4940645Y-10060232D01*
X4940643Y-10060235D01*
X4885103Y-10139554D01*
X4812477Y-10243275D01*
X4810153Y-10248259D01*
X4808829Y-10250552D01*
X4757447Y-10299545D01*
X4687733Y-10312981D01*
X4621822Y-10286595D01*
X4590591Y-10250552D01*
X4583934Y-10239022D01*
X4547491Y-10186976D01*
X4537012Y-10178600D01*
X4523566Y-10185668D01*
X3822022Y-10887212D01*
X3814408Y-10901156D01*
X3814539Y-10902989D01*
X3818790Y-10909604D01*
X4524287Y-11615101D01*
X4536062Y-11621531D01*
X4548077Y-11612235D01*
X4583934Y-11561026D01*
X4590591Y-11549496D01*
X4641973Y-11500503D01*
X4711687Y-11487066D01*
X4777598Y-11513453D01*
X4808829Y-11549496D01*
X4810153Y-11551789D01*
X4812477Y-11556773D01*
X4815631Y-11561277D01*
X4924146Y-11716252D01*
X4943802Y-11744324D01*
X5105700Y-11906222D01*
X5110212Y-11909381D01*
X5110214Y-11909383D01*
X5133772Y-11925879D01*
X5178100Y-11981336D01*
X5187500Y-12029091D01*
X5187500Y-16859699D01*
X5167498Y-16927820D01*
X5113842Y-16974313D01*
X5061500Y-16985699D01*
X4567334Y-16985699D01*
X4499213Y-16965697D01*
X4461541Y-16928138D01*
X4453997Y-16916476D01*
X4441997Y-16903288D01*
X4306781Y-16754687D01*
X4275729Y-16690841D01*
X4284124Y-16620342D01*
X4329300Y-16565574D01*
X4355744Y-16551905D01*
X4462280Y-16511966D01*
X4470688Y-16508814D01*
X4587244Y-16421460D01*
X4674598Y-16304904D01*
X4725728Y-16168515D01*
X4732483Y-16106333D01*
X4732483Y-14310065D01*
X4725728Y-14247883D01*
X4674598Y-14111494D01*
X4587244Y-13994938D01*
X4470688Y-13907584D01*
X4334299Y-13856454D01*
X4272117Y-13849699D01*
X2475849Y-13849699D01*
X2413667Y-13856454D01*
X2277278Y-13907584D01*
X2160722Y-13994938D01*
X2073368Y-14111494D01*
X2022238Y-14247883D01*
X2015483Y-14310065D01*
X2015483Y-16106333D01*
X2022238Y-16168515D01*
X2073368Y-16304904D01*
X2160722Y-16421460D01*
X2277278Y-16508814D01*
X2285687Y-16511966D01*
X2285688Y-16511967D01*
X2394434Y-16552734D01*
X2451199Y-16595375D01*
X2475899Y-16661937D01*
X2460692Y-16731286D01*
X2441299Y-16757767D01*
X2314612Y-16890337D01*
X2311698Y-16894609D01*
X2311697Y-16894610D01*
X2270427Y-16955110D01*
X2188726Y-17074879D01*
X2145072Y-17168923D01*
X2096899Y-17272705D01*
X2094671Y-17277504D01*
X2034972Y-17492769D01*
X2011234Y-17714894D01*
X2011531Y-17720047D01*
X2011531Y-17720050D01*
X2016933Y-17813741D01*
X2024093Y-17937914D01*
X2025230Y-17942960D01*
X2025231Y-17942966D01*
X2034882Y-17985788D01*
X2073205Y-18155838D01*
X2124803Y-18282909D01*
X2152464Y-18351030D01*
X2157249Y-18362815D01*
X2198799Y-18430618D01*
X2253281Y-18519525D01*
X2273970Y-18553287D01*
X2420233Y-18722137D01*
X2592109Y-18864831D01*
X2662578Y-18906010D01*
X2665428Y-18907675D01*
X2714152Y-18959313D01*
X2727223Y-19029096D01*
X2700492Y-19094868D01*
X2660038Y-19128226D01*
X2647590Y-19134706D01*
X2643457Y-19137809D01*
X2643454Y-19137811D01*
X2619230Y-19155999D01*
X2468948Y-19268834D01*
X2314612Y-19430337D01*
X2311698Y-19434609D01*
X2311697Y-19434610D01*
X2255844Y-19516488D01*
X2188726Y-19614879D01*
X2156165Y-19685027D01*
X2096899Y-19812705D01*
X2094671Y-19817504D01*
X2034972Y-20032769D01*
X2011234Y-20254894D01*
X2011531Y-20260047D01*
X2011531Y-20260050D01*
X2020294Y-20412029D01*
X2024093Y-20477914D01*
X2025230Y-20482960D01*
X2025231Y-20482966D01*
X2044051Y-20566472D01*
X2073205Y-20695838D01*
X2116392Y-20802196D01*
X2153005Y-20892362D01*
X2157249Y-20902815D01*
X2194040Y-20962852D01*
X2268810Y-21084866D01*
X2273970Y-21093287D01*
X2420233Y-21262137D01*
X2592109Y-21404831D01*
X2665428Y-21447675D01*
X2665938Y-21447973D01*
X2714662Y-21499611D01*
X2727733Y-21569394D01*
X2701002Y-21635166D01*
X2660545Y-21668526D01*
X2652440Y-21672745D01*
X2643721Y-21678235D01*
X2473416Y-21806104D01*
X2465709Y-21812947D01*
X2318573Y-21966916D01*
X2312087Y-21974926D01*
X2192081Y-22150848D01*
X2186983Y-22159822D01*
X2097321Y-22352982D01*
X2093758Y-22362669D01*
X2038372Y-22562382D01*
X2039895Y-22570806D01*
X2052275Y-22574199D01*
X3501983Y-22574199D01*
X3570104Y-22594201D01*
X3616597Y-22647857D01*
X3627983Y-22700199D01*
X3627983Y-22956199D01*
X3607981Y-23024320D01*
X3554325Y-23070813D01*
X3501983Y-23082199D01*
X2057208Y-23082199D01*
X2043677Y-23086172D01*
X2042240Y-23096165D01*
X2072548Y-23230645D01*
X2075628Y-23240474D01*
X2155753Y-23437802D01*
X2160396Y-23446993D01*
X2271677Y-23628587D01*
X2277760Y-23636898D01*
X2417196Y-23797866D01*
X2424563Y-23805082D01*
X2588417Y-23941115D01*
X2596864Y-23947030D01*
X2665952Y-23987402D01*
X2714676Y-24039041D01*
X2727747Y-24108824D01*
X2701016Y-24174595D01*
X2660567Y-24207951D01*
X2647590Y-24214706D01*
X2643457Y-24217809D01*
X2643454Y-24217811D01*
X2475237Y-24344112D01*
X2468948Y-24348834D01*
X2456941Y-24361399D01*
X2337081Y-24486825D01*
X2314612Y-24510337D01*
X2311698Y-24514609D01*
X2311697Y-24514610D01*
X2265550Y-24582259D01*
X2188726Y-24694879D01*
X2174881Y-24724706D01*
X2105068Y-24875106D01*
X2094671Y-24897504D01*
X2034972Y-25112769D01*
X2011234Y-25334894D01*
X2011531Y-25340047D01*
X2011531Y-25340050D01*
X2020294Y-25492029D01*
X2024093Y-25557914D01*
X2025230Y-25562960D01*
X2025231Y-25562966D01*
X2040586Y-25631099D01*
X2073205Y-25775838D01*
X2157249Y-25982815D01*
X2159948Y-25987219D01*
X2271274Y-26168887D01*
X2273970Y-26173287D01*
X2420233Y-26342137D01*
X2523941Y-26428237D01*
X2585198Y-26479093D01*
X2592109Y-26484831D01*
X2644016Y-26515163D01*
X2665428Y-26527675D01*
X2714152Y-26579313D01*
X2727223Y-26649096D01*
X2700492Y-26714868D01*
X2660038Y-26748226D01*
X2647590Y-26754706D01*
X2643457Y-26757809D01*
X2643454Y-26757811D01*
X2482847Y-26878398D01*
X2468948Y-26888834D01*
X2465376Y-26892572D01*
X2337081Y-27026825D01*
X2314612Y-27050337D01*
X2311698Y-27054609D01*
X2311697Y-27054610D01*
X2291294Y-27084520D01*
X2188726Y-27234879D01*
X2148441Y-27321667D01*
X2100514Y-27424917D01*
X2094671Y-27437504D01*
X2034972Y-27652769D01*
X2011234Y-27874894D01*
X2011531Y-27880047D01*
X2011531Y-27880050D01*
X2017167Y-27977796D01*
X2024093Y-28097914D01*
X2025230Y-28102960D01*
X2025231Y-28102966D01*
X2045102Y-28191138D01*
X2073205Y-28315838D01*
X2132997Y-28463089D01*
X2150645Y-28506550D01*
X2157249Y-28522815D01*
X2273970Y-28713287D01*
X2420233Y-28882137D01*
X2592109Y-29024831D01*
X2662578Y-29066010D01*
X2665428Y-29067675D01*
X2714152Y-29119313D01*
X2727223Y-29189096D01*
X2700492Y-29254868D01*
X2660038Y-29288226D01*
X2647590Y-29294706D01*
X2643457Y-29297809D01*
X2643454Y-29297811D01*
X2619230Y-29315999D01*
X2468948Y-29428834D01*
X2314612Y-29590337D01*
X2188726Y-29774879D01*
X2174881Y-29804706D01*
X2099861Y-29966324D01*
X2094671Y-29977504D01*
X2034972Y-30192769D01*
X2011234Y-30414894D01*
X2011531Y-30420047D01*
X2011531Y-30420050D01*
X2016994Y-30514789D01*
X2024093Y-30637914D01*
X2025230Y-30642960D01*
X2025231Y-30642966D01*
X2045102Y-30731138D01*
X2073205Y-30855838D01*
X2134656Y-31007175D01*
X2137983Y-31015367D01*
X2157249Y-31062815D01*
X2159948Y-31067219D01*
X2271274Y-31248887D01*
X2273970Y-31253287D01*
X2420233Y-31422137D01*
X2592109Y-31564831D01*
X2662578Y-31606010D01*
X2665428Y-31607675D01*
X2714152Y-31659313D01*
X2727223Y-31729096D01*
X2700492Y-31794868D01*
X2660038Y-31828226D01*
X2647590Y-31834706D01*
X2643457Y-31837809D01*
X2643454Y-31837811D01*
X2619230Y-31855999D01*
X2468948Y-31968834D01*
X2314612Y-32130337D01*
X2188726Y-32314879D01*
X2094671Y-32517504D01*
X2034972Y-32732769D01*
X2011234Y-32954894D01*
X1523990Y-32954894D01*
X1523990Y-11986086D01*
X2728493Y-11986086D01*
X2737789Y-11998101D01*
X2788994Y-12033955D01*
X2798489Y-12039438D01*
X2995947Y-12131514D01*
X3006239Y-12135260D01*
X3216688Y-12191649D01*
X3227481Y-12193552D01*
X3444525Y-12212541D01*
X3455475Y-12212541D01*
X3672519Y-12193552D01*
X3683312Y-12191649D01*
X3893761Y-12135260D01*
X3904053Y-12131514D01*
X4101511Y-12039438D01*
X4111006Y-12033955D01*
X4163048Y-11997515D01*
X4171424Y-11987036D01*
X4164356Y-11973590D01*
X3462812Y-11272046D01*
X3448868Y-11264432D01*
X3447035Y-11264563D01*
X3440420Y-11268814D01*
X2734923Y-11974311D01*
X2728493Y-11986086D01*
X1523990Y-11986086D01*
X1523990Y-10905499D01*
X2137483Y-10905499D01*
X2156472Y-11122543D01*
X2158375Y-11133336D01*
X2214764Y-11343785D01*
X2218510Y-11354077D01*
X2310586Y-11551535D01*
X2316069Y-11561030D01*
X2352509Y-11613072D01*
X2362988Y-11621448D01*
X2376434Y-11614380D01*
X3077978Y-10912836D01*
X3085592Y-10898892D01*
X3085461Y-10897059D01*
X3081210Y-10890444D01*
X2375713Y-10184947D01*
X2363938Y-10178517D01*
X2351923Y-10187813D01*
X2316069Y-10239018D01*
X2310586Y-10248513D01*
X2218510Y-10445971D01*
X2214764Y-10456263D01*
X2158375Y-10666712D01*
X2156472Y-10677505D01*
X2137483Y-10894549D01*
X2137483Y-10905499D01*
X1523990Y-10905499D01*
X1523990Y-9813012D01*
X2728576Y-9813012D01*
X2735644Y-9826458D01*
X3437188Y-10528002D01*
X3451132Y-10535616D01*
X3452965Y-10535485D01*
X3459580Y-10531234D01*
X4165077Y-9825737D01*
X4171507Y-9813962D01*
X4162211Y-9801947D01*
X4111006Y-9766093D01*
X4101511Y-9760610D01*
X3904053Y-9668534D01*
X3893761Y-9664788D01*
X3683312Y-9608399D01*
X3672519Y-9606496D01*
X3455475Y-9587507D01*
X3444525Y-9587507D01*
X3227481Y-9606496D01*
X3216688Y-9608399D01*
X3006239Y-9664788D01*
X2995947Y-9668534D01*
X2798489Y-9760610D01*
X2788994Y-9766093D01*
X2736952Y-9802533D01*
X2728576Y-9813012D01*
X1523990Y-9813012D01*
X1523990Y-5043874D01*
X2952668Y-5043874D01*
X2969217Y-5330888D01*
X2970042Y-5335093D01*
X2970043Y-5335101D01*
X3001989Y-5497926D01*
X3024565Y-5613000D01*
X3025952Y-5617050D01*
X3025953Y-5617055D01*
X3116300Y-5880935D01*
X3117689Y-5884991D01*
X3246864Y-6141827D01*
X3409700Y-6378755D01*
X3603185Y-6591393D01*
X3606480Y-6594148D01*
X3606481Y-6594149D01*
X3657237Y-6636587D01*
X3823738Y-6775803D01*
X4067277Y-6928576D01*
X4329297Y-7046882D01*
X4333416Y-7048102D01*
X4600836Y-7127316D01*
X4600841Y-7127317D01*
X4604949Y-7128534D01*
X4609183Y-7129182D01*
X4609188Y-7129183D01*
X4857790Y-7167224D01*
X4889132Y-7172020D01*
X5035464Y-7174319D01*
X5172296Y-7176469D01*
X5172302Y-7176469D01*
X5176587Y-7176536D01*
X5180839Y-7176021D01*
X5180847Y-7176021D01*
X5457735Y-7142513D01*
X5457740Y-7142512D01*
X5461996Y-7141997D01*
X5740076Y-7069044D01*
X6005683Y-6959026D01*
X6253901Y-6813979D01*
X6480138Y-6636587D01*
X6521264Y-6594149D01*
X6677223Y-6433211D01*
X6680206Y-6430133D01*
X6682739Y-6426685D01*
X6682743Y-6426680D01*
X6847866Y-6201891D01*
X6850404Y-6198436D01*
X6987583Y-5945784D01*
X7089204Y-5676853D01*
X7153386Y-5396618D01*
X7178942Y-5110265D01*
X7179406Y-5066005D01*
X7177897Y-5043874D01*
X17930667Y-5043874D01*
X17947216Y-5330888D01*
X17948041Y-5335093D01*
X17948042Y-5335101D01*
X17979988Y-5497926D01*
X18002564Y-5613000D01*
X18003951Y-5617050D01*
X18003952Y-5617055D01*
X18094299Y-5880935D01*
X18095688Y-5884991D01*
X18224863Y-6141827D01*
X18387699Y-6378755D01*
X18581184Y-6591393D01*
X18584479Y-6594148D01*
X18584480Y-6594149D01*
X18635236Y-6636587D01*
X18801737Y-6775803D01*
X19045276Y-6928576D01*
X19307296Y-7046882D01*
X19311415Y-7048102D01*
X19578835Y-7127316D01*
X19578840Y-7127317D01*
X19582948Y-7128534D01*
X19587182Y-7129182D01*
X19587187Y-7129183D01*
X19835789Y-7167224D01*
X19867131Y-7172020D01*
X20013463Y-7174319D01*
X20150295Y-7176469D01*
X20150301Y-7176469D01*
X20154586Y-7176536D01*
X20158838Y-7176021D01*
X20158846Y-7176021D01*
X20435734Y-7142513D01*
X20435739Y-7142512D01*
X20439995Y-7141997D01*
X20718075Y-7069044D01*
X20983682Y-6959026D01*
X21231900Y-6813979D01*
X21458137Y-6636587D01*
X21499263Y-6594149D01*
X21655222Y-6433211D01*
X21658205Y-6430133D01*
X21660738Y-6426685D01*
X21660742Y-6426680D01*
X21825865Y-6201891D01*
X21828403Y-6198436D01*
X21965582Y-5945784D01*
X22067203Y-5676853D01*
X22131385Y-5396618D01*
X22156941Y-5110265D01*
X22157405Y-5066005D01*
X22137851Y-4779180D01*
X22133314Y-4757269D01*
X22080421Y-4501860D01*
X22079552Y-4497663D01*
X21983585Y-4226662D01*
X21851728Y-3971193D01*
X21838466Y-3952322D01*
X21688882Y-3739487D01*
X21686419Y-3735982D01*
X21490718Y-3525383D01*
X21268246Y-3343292D01*
X21023120Y-3193078D01*
X21005026Y-3185135D01*
X20763808Y-3079248D01*
X20759876Y-3077522D01*
X20733941Y-3070134D01*
X20487512Y-2999937D01*
X20487513Y-2999937D01*
X20483384Y-2998761D01*
X20270682Y-2968490D01*
X20203014Y-2958859D01*
X20203012Y-2958859D01*
X20198762Y-2958254D01*
X20194473Y-2958232D01*
X20194466Y-2958231D01*
X19915561Y-2956770D01*
X19915554Y-2956770D01*
X19911275Y-2956748D01*
X19907031Y-2957307D01*
X19907027Y-2957307D01*
X19781638Y-2973815D01*
X19626244Y-2994273D01*
X19622104Y-2995406D01*
X19622102Y-2995406D01*
X19545289Y-3016420D01*
X19348942Y-3070134D01*
X19344994Y-3071818D01*
X19088454Y-3181242D01*
X19088450Y-3181244D01*
X19084502Y-3182928D01*
X18959938Y-3257478D01*
X18841499Y-3328362D01*
X18841495Y-3328365D01*
X18837817Y-3330566D01*
X18613450Y-3510318D01*
X18415555Y-3718856D01*
X18247792Y-3952322D01*
X18113266Y-4206397D01*
X18014467Y-4476378D01*
X17953223Y-4757269D01*
X17930667Y-5043874D01*
X7177897Y-5043874D01*
X7159852Y-4779180D01*
X7155315Y-4757269D01*
X7102422Y-4501860D01*
X7101553Y-4497663D01*
X7005586Y-4226662D01*
X6873729Y-3971193D01*
X6860467Y-3952322D01*
X6710883Y-3739487D01*
X6708420Y-3735982D01*
X6512719Y-3525383D01*
X6290247Y-3343292D01*
X6045121Y-3193078D01*
X6027027Y-3185135D01*
X5785809Y-3079248D01*
X5781877Y-3077522D01*
X5755942Y-3070134D01*
X5509513Y-2999937D01*
X5509514Y-2999937D01*
X5505385Y-2998761D01*
X5292683Y-2968490D01*
X5225015Y-2958859D01*
X5225013Y-2958859D01*
X5220763Y-2958254D01*
X5216474Y-2958232D01*
X5216467Y-2958231D01*
X4937562Y-2956770D01*
X4937555Y-2956770D01*
X4933276Y-2956748D01*
X4929032Y-2957307D01*
X4929028Y-2957307D01*
X4803639Y-2973815D01*
X4648245Y-2994273D01*
X4644105Y-2995406D01*
X4644103Y-2995406D01*
X4567290Y-3016420D01*
X4370943Y-3070134D01*
X4366995Y-3071818D01*
X4110455Y-3181242D01*
X4110451Y-3181244D01*
X4106503Y-3182928D01*
X3981939Y-3257478D01*
X3863500Y-3328362D01*
X3863496Y-3328365D01*
X3859818Y-3330566D01*
X3635451Y-3510318D01*
X3437556Y-3718856D01*
X3269793Y-3952322D01*
X3135267Y-4206397D01*
X3036468Y-4476378D01*
X2975224Y-4757269D01*
X2952668Y-5043874D01*
X1523990Y-5043874D01*
X1523990Y-4067240D01*
X1525490Y-4047855D01*
X1527795Y-4033054D01*
X1527795Y-4033051D01*
X1529176Y-4024182D01*
X1526931Y-4007013D01*
X1526098Y-3983073D01*
X1541700Y-3725142D01*
X1543534Y-3710038D01*
X1577373Y-3525383D01*
X1595030Y-3429033D01*
X1598669Y-3414265D01*
X1620786Y-3343292D01*
X1683665Y-3141504D01*
X1689060Y-3127282D01*
X1806306Y-2866772D01*
X1813375Y-2853303D01*
X1961172Y-2608817D01*
X1969815Y-2596295D01*
X2146006Y-2371405D01*
X2156096Y-2360017D01*
X2358095Y-2158018D01*
X2369483Y-2147928D01*
X2594373Y-1971737D01*
X2606895Y-1963094D01*
X2851381Y-1815297D01*
X2864850Y-1808228D01*
X3125363Y-1690981D01*
X3139582Y-1685587D01*
X3412349Y-1600590D01*
X3427111Y-1596952D01*
X3637342Y-1558426D01*
X3708116Y-1545456D01*
X3723220Y-1543622D01*
X3973919Y-1528457D01*
X4000629Y-1529714D01*
X4000849Y-1529717D01*
X4009720Y-1531098D01*
X4018622Y-1529934D01*
X4018625Y-1529934D01*
X4041241Y-1526976D01*
X4057579Y-1525912D01*
X21044660Y-1525912D01*
X21064045Y-1527412D01*
G37*
%TD.AperFunction*%
%TA.AperFunction,Conductor*%
G36*
X20469051Y-20798933D02*
G01*
X20491997Y-20835661D01*
X20515021Y-20892362D01*
X20519265Y-20902815D01*
X20556056Y-20962852D01*
X20630826Y-21084866D01*
X20635986Y-21093287D01*
X20782249Y-21262137D01*
X20954125Y-21404831D01*
X21024594Y-21446010D01*
X21027444Y-21447675D01*
X21076168Y-21499313D01*
X21089239Y-21569096D01*
X21062508Y-21634868D01*
X21022054Y-21668226D01*
X21009606Y-21674706D01*
X21005473Y-21677809D01*
X21005470Y-21677811D01*
X20854433Y-21791213D01*
X20830964Y-21808834D01*
X20827392Y-21812572D01*
X20693778Y-21952391D01*
X20676628Y-21970337D01*
X20673714Y-21974609D01*
X20673713Y-21974610D01*
X20654979Y-22002073D01*
X20550742Y-22154879D01*
X20535002Y-22188789D01*
X20467084Y-22335106D01*
X20456687Y-22357504D01*
X20396988Y-22572769D01*
X20373250Y-22794894D01*
X20373547Y-22800047D01*
X20373547Y-22800050D01*
X20383601Y-22974412D01*
X20386109Y-23017914D01*
X20387246Y-23022960D01*
X20387247Y-23022966D01*
X20403210Y-23093797D01*
X20435221Y-23235838D01*
X20519265Y-23442815D01*
X20635986Y-23633287D01*
X20782249Y-23802137D01*
X20954125Y-23944831D01*
X21024594Y-23986010D01*
X21027444Y-23987675D01*
X21076168Y-24039313D01*
X21089239Y-24109096D01*
X21062508Y-24174868D01*
X21022054Y-24208226D01*
X21009606Y-24214706D01*
X21005473Y-24217809D01*
X21005470Y-24217811D01*
X20837253Y-24344112D01*
X20830964Y-24348834D01*
X20818957Y-24361399D01*
X20699097Y-24486825D01*
X20676628Y-24510337D01*
X20673714Y-24514609D01*
X20673713Y-24514610D01*
X20561094Y-24679703D01*
X20506183Y-24724706D01*
X20457006Y-24734699D01*
X19277893Y-24734699D01*
X19209772Y-24714697D01*
X19176935Y-24684088D01*
X19134988Y-24627914D01*
X19134987Y-24627913D01*
X19131535Y-24623290D01*
X19013966Y-24514610D01*
X18986173Y-24488918D01*
X18986170Y-24488916D01*
X18981933Y-24484999D01*
X18935717Y-24455839D01*
X18814518Y-24379368D01*
X18814513Y-24379366D01*
X18809634Y-24376287D01*
X18620410Y-24300794D01*
X18420596Y-24261048D01*
X18414822Y-24260972D01*
X18414818Y-24260972D01*
X18311682Y-24259623D01*
X18216885Y-24258382D01*
X18211188Y-24259361D01*
X18211187Y-24259361D01*
X18021797Y-24291904D01*
X18016100Y-24292883D01*
X17824964Y-24363397D01*
X17820003Y-24366349D01*
X17820002Y-24366349D01*
X17669584Y-24455839D01*
X17649879Y-24467562D01*
X17615564Y-24497656D01*
X17551160Y-24527531D01*
X17480828Y-24517845D01*
X17426897Y-24471671D01*
X17406488Y-24402922D01*
X17406488Y-22513220D01*
X17426490Y-22445099D01*
X17480146Y-22398606D01*
X17550420Y-22388502D01*
X17602423Y-22411208D01*
X17603640Y-22409386D01*
X17773033Y-22522571D01*
X17778336Y-22524849D01*
X17778339Y-22524851D01*
X17919275Y-22585402D01*
X17960217Y-22602992D01*
X17994375Y-22610721D01*
X18153285Y-22646679D01*
X18153290Y-22646680D01*
X18158922Y-22647954D01*
X18164693Y-22648181D01*
X18164695Y-22648181D01*
X18227700Y-22650656D01*
X18362493Y-22655952D01*
X18564113Y-22626719D01*
X18569577Y-22624864D01*
X18569582Y-22624863D01*
X18751557Y-22563091D01*
X18751562Y-22563089D01*
X18757029Y-22561233D01*
X18934781Y-22461687D01*
X19091416Y-22331415D01*
X19221688Y-22174780D01*
X19321234Y-21997028D01*
X19323090Y-21991559D01*
X19323094Y-21991551D01*
X19325121Y-21985579D01*
X19355339Y-21936985D01*
X20011235Y-21281089D01*
X20019525Y-21273545D01*
X20026006Y-21269432D01*
X20072647Y-21219764D01*
X20075401Y-21216923D01*
X20095123Y-21197201D01*
X20097607Y-21193999D01*
X20105305Y-21184987D01*
X20130149Y-21158530D01*
X20135574Y-21152753D01*
X20145335Y-21134998D01*
X20156186Y-21118479D01*
X20168602Y-21102473D01*
X20178865Y-21078757D01*
X20186162Y-21061895D01*
X20191379Y-21051245D01*
X20212683Y-21012492D01*
X20217721Y-20992869D01*
X20224125Y-20974166D01*
X20229021Y-20962852D01*
X20229021Y-20962851D01*
X20232169Y-20955577D01*
X20233408Y-20947754D01*
X20233411Y-20947744D01*
X20239087Y-20911908D01*
X20241493Y-20900288D01*
X20252488Y-20857463D01*
X20254321Y-20857934D01*
X20278630Y-20802196D01*
X20337689Y-20762795D01*
X20408676Y-20761578D01*
X20469051Y-20798933D01*
G37*
%TD.AperFunction*%
%TD*%
M02*
