%TF.GenerationSoftware,KiCad,Pcbnew,(6.0.0)*%
%TF.CreationDate,2022-04-15T02:41:16-04:00*%
%TF.ProjectId,JTAG_ISP-HDR,4a544147-5f49-4535-902d-4844522e6b69,v5.4.0*%
%TF.SameCoordinates,Original*%
%TF.FileFunction,Legend,Top*%
%TF.FilePolarity,Positive*%
%FSLAX46Y46*%
G04 Gerber Fmt 4.6, Leading zero omitted, Abs format (unit mm)*
G04 Created by KiCad (PCBNEW (6.0.0)) date 2022-04-15 02:41:16*
%MOMM*%
%LPD*%
G01*
G04 APERTURE LIST*
%ADD10C,0.150000*%
%ADD11C,0.120000*%
G04 APERTURE END LIST*
D10*
%TO.C,J2*%
X120567687Y-82141749D02*
X120567687Y-82856035D01*
X120520068Y-82998892D01*
X120424830Y-83094130D01*
X120281973Y-83141749D01*
X120186735Y-83141749D01*
X120996259Y-82236988D02*
X121043878Y-82189369D01*
X121139116Y-82141749D01*
X121377211Y-82141749D01*
X121472449Y-82189369D01*
X121520068Y-82236988D01*
X121567687Y-82332226D01*
X121567687Y-82427464D01*
X121520068Y-82570321D01*
X120948640Y-83141749D01*
X121567687Y-83141749D01*
%TO.C,J1*%
X102167687Y-82141749D02*
X102167687Y-82856035D01*
X102120068Y-82998892D01*
X102024830Y-83094130D01*
X101881973Y-83141749D01*
X101786735Y-83141749D01*
X103167687Y-83141749D02*
X102596259Y-83141749D01*
X102881973Y-83141749D02*
X102881973Y-82141749D01*
X102786735Y-82284607D01*
X102691497Y-82379845D01*
X102596259Y-82427464D01*
%TO.C,D1*%
X114612925Y-92291749D02*
X114612925Y-91291749D01*
X114851021Y-91291749D01*
X114993878Y-91339369D01*
X115089116Y-91434607D01*
X115136735Y-91529845D01*
X115184354Y-91720321D01*
X115184354Y-91863178D01*
X115136735Y-92053654D01*
X115089116Y-92148892D01*
X114993878Y-92244130D01*
X114851021Y-92291749D01*
X114612925Y-92291749D01*
X116136735Y-92291749D02*
X115565306Y-92291749D01*
X115851021Y-92291749D02*
X115851021Y-91291749D01*
X115755782Y-91434607D01*
X115660544Y-91529845D01*
X115565306Y-91577464D01*
%TO.C,JTAG1*%
X114058163Y-80841749D02*
X114058163Y-81556035D01*
X114010544Y-81698892D01*
X113915306Y-81794130D01*
X113772449Y-81841749D01*
X113677211Y-81841749D01*
X114391497Y-80841749D02*
X114962925Y-80841749D01*
X114677211Y-81841749D02*
X114677211Y-80841749D01*
X115248640Y-81556035D02*
X115724830Y-81556035D01*
X115153401Y-81841749D02*
X115486735Y-80841749D01*
X115820068Y-81841749D01*
X116677211Y-80889369D02*
X116581973Y-80841749D01*
X116439116Y-80841749D01*
X116296259Y-80889369D01*
X116201021Y-80984607D01*
X116153401Y-81079845D01*
X116105782Y-81270321D01*
X116105782Y-81413178D01*
X116153401Y-81603654D01*
X116201021Y-81698892D01*
X116296259Y-81794130D01*
X116439116Y-81841749D01*
X116534354Y-81841749D01*
X116677211Y-81794130D01*
X116724830Y-81746511D01*
X116724830Y-81413178D01*
X116534354Y-81413178D01*
X117677211Y-81841749D02*
X117105782Y-81841749D01*
X117391497Y-81841749D02*
X117391497Y-80841749D01*
X117296259Y-80984607D01*
X117201021Y-81079845D01*
X117105782Y-81127464D01*
D11*
%TO.C,J2*%
X122217020Y-63667568D02*
X122217020Y-81507568D01*
X119557020Y-63667568D02*
X122217020Y-63667568D01*
X119557020Y-81507568D02*
X122217020Y-81507568D01*
X119557020Y-63667568D02*
X119557020Y-81507568D01*
X119557020Y-61067568D02*
X120887020Y-61067568D01*
X119557020Y-62397568D02*
X119557020Y-61067568D01*
%TO.C,J1*%
X101195004Y-61067568D02*
X102525004Y-61067568D01*
X103855004Y-63667568D02*
X103855004Y-81507568D01*
X101195004Y-63667568D02*
X103855004Y-63667568D01*
X101195004Y-63667568D02*
X101195004Y-81507568D01*
X101195004Y-81507568D02*
X103855004Y-81507568D01*
X101195004Y-62397568D02*
X101195004Y-61067568D01*
%TO.C,D1*%
X113266000Y-90709377D02*
X113266000Y-90553377D01*
X113266000Y-93025377D02*
X113266000Y-92869377D01*
X113266000Y-90553861D02*
G75*
G03*
X110033665Y-90710769I-1560000J-1235517D01*
G01*
X112746961Y-90709377D02*
G75*
G03*
X110664870Y-90709540I-1040961J-1080000D01*
G01*
X110033665Y-92867985D02*
G75*
G03*
X113266000Y-93024893I1672335J1078609D01*
G01*
X110664870Y-92869214D02*
G75*
G03*
X112746961Y-92869377I1041130J1079837D01*
G01*
%TO.C,JTAG1*%
X108384947Y-49272568D02*
X106611011Y-49272568D01*
X110376012Y-61067568D02*
X111706012Y-61067568D01*
X116801013Y-93272563D02*
X115027077Y-93272563D01*
X116801013Y-49272568D02*
X115027077Y-49272568D01*
X104701947Y-55876568D02*
X104701947Y-86668563D01*
X110376012Y-81507568D02*
X113036012Y-81507568D01*
X113036012Y-63667568D02*
X113036012Y-81507568D01*
X110376012Y-63667568D02*
X110376012Y-81507568D01*
X108384947Y-93272563D02*
X106611011Y-93272563D01*
X110376012Y-62397568D02*
X110376012Y-61067568D01*
X118706013Y-55876568D02*
X118706013Y-86668563D01*
X110376012Y-63667568D02*
X113036012Y-63667568D01*
%TD*%
M02*
