M48
; DRILL file {KiCad (6.0.0)} date Mon May 30 13:25:31 2022
; FORMAT={-:-/ absolute / inch / decimal}
; #@! TF.CreationDate,2022-05-30T13:25:31-04:00
; #@! TF.GenerationSoftware,Kicad,Pcbnew,(6.0.0)
; #@! TF.FileFunction,Plated,1,2,PTH
FMAT,2
INCH
; #@! TA.AperFunction,Plated,PTH,ViaDrill
T1C0.0236
; #@! TA.AperFunction,Plated,PTH,ComponentDrill
T2C0.0394
; #@! TA.AperFunction,Plated,PTH,ComponentDrill
T3C0.1260
%
G90
G05
T1
X4.6927Y-2.2319
T2
X4.0364Y-2.4566
X4.0364Y-2.5566
X4.0364Y-2.6566
X4.0364Y-2.7566
X4.0364Y-2.8566
X4.0364Y-2.9566
X4.0364Y-3.0566
X4.0364Y-3.1566
X4.3979Y-2.4566
X4.3979Y-2.5566
X4.3979Y-2.6566
X4.3979Y-2.7566
X4.3979Y-2.8566
X4.3979Y-2.9566
X4.3979Y-3.0566
X4.3979Y-3.1566
X4.7593Y-2.4566
X4.7593Y-2.5566
X4.7593Y-2.6566
X4.7593Y-2.7566
X4.7593Y-2.8566
X4.7593Y-2.9566
X4.7593Y-3.0566
X4.7593Y-3.1566
T3
X4.103Y-2.0573
T0
M30
