%TF.GenerationSoftware,KiCad,Pcbnew,(6.0.0)*%
%TF.CreationDate,2022-03-14T07:54:18-04:00*%
%TF.ProjectId,JTAG_ISP-HDR,4a544147-5f49-4535-902d-4844522e6b69,v1.0.0*%
%TF.SameCoordinates,Original*%
%TF.FileFunction,Copper,L2,Bot*%
%TF.FilePolarity,Positive*%
%FSLAX46Y46*%
G04 Gerber Fmt 4.6, Leading zero omitted, Abs format (unit mm)*
G04 Created by KiCad (PCBNEW (6.0.0)) date 2022-03-14 07:54:18*
%MOMM*%
%LPD*%
G01*
G04 APERTURE LIST*
%TA.AperFunction,ComponentPad*%
%ADD10C,3.200001*%
%TD*%
%TA.AperFunction,ComponentPad*%
%ADD11C,1.600000*%
%TD*%
%TA.AperFunction,ComponentPad*%
%ADD12R,1.700000X1.700000*%
%TD*%
%TA.AperFunction,ComponentPad*%
%ADD13O,1.700000X1.700000*%
%TD*%
%TA.AperFunction,ComponentPad*%
%ADD14C,1.700000*%
%TD*%
%TA.AperFunction,ViaPad*%
%ADD15C,1.200000*%
%TD*%
%TA.AperFunction,Conductor*%
%ADD16C,0.508000*%
%TD*%
%TA.AperFunction,Conductor*%
%ADD17C,0.250000*%
%TD*%
G04 APERTURE END LIST*
D10*
%TO.P,REF\u002A\u002A,*%
%TO.N,*%
X148872002Y-65363580D03*
%TD*%
%TO.P,REF\u002A\u002A,*%
%TO.N,*%
X163850000Y-103400000D03*
%TD*%
D11*
%TO.P,C1,1*%
%TO.N,+5V*%
X147306012Y-72447568D03*
%TO.P,C1,2*%
%TO.N,GND*%
X147306012Y-69947568D03*
%TD*%
D10*
%TO.P,REF\u002A\u002A,*%
%TO.N,*%
X148872002Y-103400000D03*
%TD*%
D12*
%TO.P,JTAG1,1,#MCLR*%
%TO.N,unconnected-(JTAG1-Pad1)*%
X156361001Y-75505760D03*
D13*
%TO.P,JTAG1,2,VDD*%
%TO.N,+5V*%
X156361001Y-78045760D03*
%TO.P,JTAG1,3,GND*%
%TO.N,GND*%
X156361001Y-80585760D03*
%TO.P,JTAG1,4,TDO*%
%TO.N,Net-(J1-Pad6)*%
X156361001Y-83125760D03*
%TO.P,JTAG1,5,TCK*%
%TO.N,Net-(J1-Pad8)*%
X156361001Y-85665760D03*
%TO.P,JTAG1,6,#RESET*%
%TO.N,Net-(J2-Pad3)*%
X156361001Y-88205760D03*
%TO.P,JTAG1,7,TDI*%
%TO.N,Net-(J2-Pad5)*%
X156361001Y-90745760D03*
%TO.P,JTAG1,8,TMS*%
%TO.N,Net-(J2-Pad7)*%
X156361001Y-93285760D03*
%TD*%
D10*
%TO.P,REF\u002A\u002A,*%
%TO.N,*%
X163850000Y-65363580D03*
%TD*%
D14*
%TO.P,J2,1,Pin_1*%
%TO.N,Net-(J1-Pad8)*%
X165542001Y-75505760D03*
D13*
%TO.P,J2,2,Pin_2*%
%TO.N,unconnected-(J2-Pad2)*%
X165542001Y-78045760D03*
%TO.P,J2,3,Pin_3*%
%TO.N,Net-(J2-Pad3)*%
X165542001Y-80585760D03*
%TO.P,J2,4,Pin_4*%
%TO.N,unconnected-(J2-Pad4)*%
X165542001Y-83125760D03*
%TO.P,J2,5,Pin_5*%
%TO.N,Net-(J2-Pad5)*%
X165542001Y-85665760D03*
%TO.P,J2,6,Pin_6*%
%TO.N,unconnected-(J2-Pad6)*%
X165542001Y-88205760D03*
%TO.P,J2,7,Pin_7*%
%TO.N,Net-(J2-Pad7)*%
X165542001Y-90745760D03*
%TO.P,J2,8,Pin_8*%
%TO.N,unconnected-(J2-Pad8)*%
X165542001Y-93285760D03*
%TD*%
D12*
%TO.P,J1,1,Pin_1*%
%TO.N,unconnected-(J1-Pad1)*%
X147180001Y-75505760D03*
D13*
%TO.P,J1,2,Pin_2*%
%TO.N,+5V*%
X147180001Y-78045760D03*
%TO.P,J1,3,Pin_3*%
%TO.N,unconnected-(J1-Pad3)*%
X147180001Y-80585760D03*
%TO.P,J1,4,Pin_4*%
%TO.N,GND*%
X147180001Y-83125760D03*
%TO.P,J1,5,Pin_5*%
%TO.N,unconnected-(J1-Pad5)*%
X147180001Y-85665760D03*
%TO.P,J1,6,Pin_6*%
%TO.N,Net-(J1-Pad6)*%
X147180001Y-88205760D03*
%TO.P,J1,7,Pin_7*%
%TO.N,unconnected-(J1-Pad7)*%
X147180001Y-90745760D03*
%TO.P,J1,8,Pin_8*%
%TO.N,Net-(J1-Pad8)*%
X147180001Y-93285760D03*
%TD*%
D15*
%TO.N,+5V*%
X152274240Y-78045760D03*
%TO.N,GND*%
X150300000Y-90700000D03*
%TO.N,Net-(J1-Pad6)*%
X152274240Y-83125760D03*
%TO.N,Net-(J1-Pad8)*%
X152274240Y-85665760D03*
X160447762Y-85665760D03*
%TO.N,Net-(J2-Pad3)*%
X160447762Y-88205760D03*
%TO.N,Net-(J2-Pad5)*%
X160447762Y-90745760D03*
%TO.N,Net-(J2-Pad7)*%
X160447762Y-93285760D03*
%TD*%
D16*
%TO.N,+5V*%
X156361001Y-78045760D02*
X152274240Y-78045760D01*
X151356012Y-72447568D02*
X152274240Y-73365796D01*
X147306012Y-72447568D02*
X151356012Y-72447568D01*
X152274240Y-73365796D02*
X152274240Y-78045760D01*
D17*
%TO.N,Net-(J1-Pad6)*%
X156361001Y-83125760D02*
X152274240Y-83125760D01*
%TO.N,Net-(J1-Pad8)*%
X156361001Y-85665760D02*
X160447762Y-85665760D01*
X156361001Y-85665760D02*
X152274240Y-85665760D01*
%TO.N,Net-(J2-Pad3)*%
X160394240Y-88205760D02*
X160447762Y-88205760D01*
X156361001Y-88205760D02*
X160394240Y-88205760D01*
%TO.N,Net-(J2-Pad5)*%
X156361001Y-90745760D02*
X160447762Y-90745760D01*
%TO.N,Net-(J2-Pad7)*%
X156361001Y-93285760D02*
X160447762Y-93285760D01*
%TD*%
%TA.AperFunction,Conductor*%
%TO.N,GND*%
G36*
X164870057Y-61823080D02*
G01*
X164884858Y-61825385D01*
X164884861Y-61825385D01*
X164893730Y-61826766D01*
X164910899Y-61824521D01*
X164934839Y-61823688D01*
X165192770Y-61839290D01*
X165207874Y-61841124D01*
X165278648Y-61854094D01*
X165488879Y-61892620D01*
X165503641Y-61896258D01*
X165776408Y-61981255D01*
X165790627Y-61986649D01*
X166051140Y-62103896D01*
X166064609Y-62110965D01*
X166309095Y-62258762D01*
X166321617Y-62267405D01*
X166546507Y-62443596D01*
X166557895Y-62453686D01*
X166759894Y-62655685D01*
X166769984Y-62667073D01*
X166946175Y-62891963D01*
X166954818Y-62904485D01*
X167102615Y-63148971D01*
X167109684Y-63162440D01*
X167202068Y-63367709D01*
X167226930Y-63422950D01*
X167232325Y-63437172D01*
X167291147Y-63625937D01*
X167317321Y-63709933D01*
X167320960Y-63724701D01*
X167336206Y-63807893D01*
X167372456Y-64005706D01*
X167374290Y-64020810D01*
X167389455Y-64271509D01*
X167388198Y-64298219D01*
X167388195Y-64298439D01*
X167386814Y-64307310D01*
X167387978Y-64316212D01*
X167387978Y-64316215D01*
X167390936Y-64338831D01*
X167392000Y-64355169D01*
X167392000Y-104400672D01*
X167390500Y-104420056D01*
X167386814Y-104443730D01*
X167388454Y-104456270D01*
X167389059Y-104460897D01*
X167389892Y-104484839D01*
X167374290Y-104742770D01*
X167372456Y-104757874D01*
X167332991Y-104973233D01*
X167320962Y-105038873D01*
X167317322Y-105053641D01*
X167242217Y-105294663D01*
X167232326Y-105326404D01*
X167226931Y-105340627D01*
X167150696Y-105510016D01*
X167109686Y-105601136D01*
X167102615Y-105614609D01*
X166954818Y-105859095D01*
X166946175Y-105871617D01*
X166769984Y-106096507D01*
X166759894Y-106107895D01*
X166557895Y-106309894D01*
X166546507Y-106319984D01*
X166321617Y-106496175D01*
X166309095Y-106504818D01*
X166064609Y-106652615D01*
X166051140Y-106659684D01*
X165790630Y-106776930D01*
X165776408Y-106782325D01*
X165503641Y-106867322D01*
X165488879Y-106870960D01*
X165278648Y-106909486D01*
X165207874Y-106922456D01*
X165192770Y-106924290D01*
X164942071Y-106939455D01*
X164915361Y-106938198D01*
X164915141Y-106938195D01*
X164906270Y-106936814D01*
X164897368Y-106937978D01*
X164897365Y-106937978D01*
X164874749Y-106940936D01*
X164858411Y-106942000D01*
X147871330Y-106942000D01*
X147851945Y-106940500D01*
X147837144Y-106938195D01*
X147837141Y-106938195D01*
X147828272Y-106936814D01*
X147811103Y-106939059D01*
X147787163Y-106939892D01*
X147529232Y-106924290D01*
X147514128Y-106922456D01*
X147443354Y-106909486D01*
X147233123Y-106870960D01*
X147218361Y-106867322D01*
X146945594Y-106782325D01*
X146931372Y-106776930D01*
X146670862Y-106659684D01*
X146657393Y-106652615D01*
X146412907Y-106504818D01*
X146400385Y-106496175D01*
X146175495Y-106319984D01*
X146164107Y-106309894D01*
X145962108Y-106107895D01*
X145952018Y-106096507D01*
X145775827Y-105871617D01*
X145767184Y-105859095D01*
X145619387Y-105614609D01*
X145612316Y-105601136D01*
X145571307Y-105510016D01*
X145495071Y-105340627D01*
X145489676Y-105326404D01*
X145479785Y-105294663D01*
X145404680Y-105053641D01*
X145401040Y-105038873D01*
X145389012Y-104973233D01*
X145349546Y-104757874D01*
X145347712Y-104742770D01*
X145332547Y-104492071D01*
X145333804Y-104465361D01*
X145333807Y-104465141D01*
X145335188Y-104456270D01*
X145333549Y-104443730D01*
X145331066Y-104424749D01*
X145330002Y-104408411D01*
X145330002Y-103377869D01*
X146758691Y-103377869D01*
X146775240Y-103664883D01*
X146776065Y-103669088D01*
X146776066Y-103669096D01*
X146808012Y-103831921D01*
X146830588Y-103946995D01*
X146831975Y-103951045D01*
X146831976Y-103951050D01*
X146922323Y-104214930D01*
X146923712Y-104218986D01*
X146925639Y-104222817D01*
X147047626Y-104465361D01*
X147052887Y-104475822D01*
X147215723Y-104712750D01*
X147218610Y-104715923D01*
X147218611Y-104715924D01*
X147259331Y-104760675D01*
X147409208Y-104925388D01*
X147412503Y-104928143D01*
X147412504Y-104928144D01*
X147562605Y-105053647D01*
X147629761Y-105109798D01*
X147873300Y-105262571D01*
X148135320Y-105380877D01*
X148139439Y-105382097D01*
X148406859Y-105461311D01*
X148406864Y-105461312D01*
X148410972Y-105462529D01*
X148415206Y-105463177D01*
X148415211Y-105463178D01*
X148663813Y-105501219D01*
X148695155Y-105506015D01*
X148841487Y-105508314D01*
X148978319Y-105510464D01*
X148978325Y-105510464D01*
X148982610Y-105510531D01*
X148986862Y-105510016D01*
X148986870Y-105510016D01*
X149263758Y-105476508D01*
X149263763Y-105476507D01*
X149268019Y-105475992D01*
X149546099Y-105403039D01*
X149811706Y-105293021D01*
X150059924Y-105147974D01*
X150286161Y-104970582D01*
X150327287Y-104928144D01*
X150483246Y-104767206D01*
X150486229Y-104764128D01*
X150488762Y-104760680D01*
X150488766Y-104760675D01*
X150653889Y-104535886D01*
X150656427Y-104532431D01*
X150678341Y-104492071D01*
X150791556Y-104283555D01*
X150791557Y-104283553D01*
X150793606Y-104279779D01*
X150895227Y-104010848D01*
X150959409Y-103730613D01*
X150984965Y-103444260D01*
X150985429Y-103400000D01*
X150983920Y-103377869D01*
X161736689Y-103377869D01*
X161753238Y-103664883D01*
X161754063Y-103669088D01*
X161754064Y-103669096D01*
X161786010Y-103831921D01*
X161808586Y-103946995D01*
X161809973Y-103951045D01*
X161809974Y-103951050D01*
X161900321Y-104214930D01*
X161901710Y-104218986D01*
X161903637Y-104222817D01*
X162025624Y-104465361D01*
X162030885Y-104475822D01*
X162193721Y-104712750D01*
X162196608Y-104715923D01*
X162196609Y-104715924D01*
X162237329Y-104760675D01*
X162387206Y-104925388D01*
X162390501Y-104928143D01*
X162390502Y-104928144D01*
X162540603Y-105053647D01*
X162607759Y-105109798D01*
X162851298Y-105262571D01*
X163113318Y-105380877D01*
X163117437Y-105382097D01*
X163384857Y-105461311D01*
X163384862Y-105461312D01*
X163388970Y-105462529D01*
X163393204Y-105463177D01*
X163393209Y-105463178D01*
X163641811Y-105501219D01*
X163673153Y-105506015D01*
X163819485Y-105508314D01*
X163956317Y-105510464D01*
X163956323Y-105510464D01*
X163960608Y-105510531D01*
X163964860Y-105510016D01*
X163964868Y-105510016D01*
X164241756Y-105476508D01*
X164241761Y-105476507D01*
X164246017Y-105475992D01*
X164524097Y-105403039D01*
X164789704Y-105293021D01*
X165037922Y-105147974D01*
X165264159Y-104970582D01*
X165305285Y-104928144D01*
X165461244Y-104767206D01*
X165464227Y-104764128D01*
X165466760Y-104760680D01*
X165466764Y-104760675D01*
X165631887Y-104535886D01*
X165634425Y-104532431D01*
X165656339Y-104492071D01*
X165769554Y-104283555D01*
X165769555Y-104283553D01*
X165771604Y-104279779D01*
X165873225Y-104010848D01*
X165937407Y-103730613D01*
X165962963Y-103444260D01*
X165963427Y-103400000D01*
X165943873Y-103113175D01*
X165939336Y-103091264D01*
X165886443Y-102835855D01*
X165885574Y-102831658D01*
X165789607Y-102560657D01*
X165657750Y-102305188D01*
X165644488Y-102286317D01*
X165494904Y-102073482D01*
X165492441Y-102069977D01*
X165296740Y-101859378D01*
X165074268Y-101677287D01*
X164829142Y-101527073D01*
X164811048Y-101519130D01*
X164569830Y-101413243D01*
X164565898Y-101411517D01*
X164539963Y-101404129D01*
X164293534Y-101333932D01*
X164293535Y-101333932D01*
X164289406Y-101332756D01*
X164076704Y-101302485D01*
X164009036Y-101292854D01*
X164009034Y-101292854D01*
X164004784Y-101292249D01*
X164000495Y-101292227D01*
X164000488Y-101292226D01*
X163721583Y-101290765D01*
X163721576Y-101290765D01*
X163717297Y-101290743D01*
X163713053Y-101291302D01*
X163713049Y-101291302D01*
X163587660Y-101307810D01*
X163432266Y-101328268D01*
X163428126Y-101329401D01*
X163428124Y-101329401D01*
X163351311Y-101350415D01*
X163154964Y-101404129D01*
X163151016Y-101405813D01*
X162894476Y-101515237D01*
X162894472Y-101515239D01*
X162890524Y-101516923D01*
X162765960Y-101591473D01*
X162647521Y-101662357D01*
X162647517Y-101662360D01*
X162643839Y-101664561D01*
X162419472Y-101844313D01*
X162221577Y-102052851D01*
X162053814Y-102286317D01*
X161919288Y-102540392D01*
X161820489Y-102810373D01*
X161759245Y-103091264D01*
X161736689Y-103377869D01*
X150983920Y-103377869D01*
X150965875Y-103113175D01*
X150961338Y-103091264D01*
X150908445Y-102835855D01*
X150907576Y-102831658D01*
X150811609Y-102560657D01*
X150679752Y-102305188D01*
X150666490Y-102286317D01*
X150516906Y-102073482D01*
X150514443Y-102069977D01*
X150318742Y-101859378D01*
X150096270Y-101677287D01*
X149851144Y-101527073D01*
X149833050Y-101519130D01*
X149591832Y-101413243D01*
X149587900Y-101411517D01*
X149561965Y-101404129D01*
X149315536Y-101333932D01*
X149315537Y-101333932D01*
X149311408Y-101332756D01*
X149098706Y-101302485D01*
X149031038Y-101292854D01*
X149031036Y-101292854D01*
X149026786Y-101292249D01*
X149022497Y-101292227D01*
X149022490Y-101292226D01*
X148743585Y-101290765D01*
X148743578Y-101290765D01*
X148739299Y-101290743D01*
X148735055Y-101291302D01*
X148735051Y-101291302D01*
X148609662Y-101307810D01*
X148454268Y-101328268D01*
X148450128Y-101329401D01*
X148450126Y-101329401D01*
X148373313Y-101350415D01*
X148176966Y-101404129D01*
X148173018Y-101405813D01*
X147916478Y-101515237D01*
X147916474Y-101515239D01*
X147912526Y-101516923D01*
X147787962Y-101591473D01*
X147669523Y-101662357D01*
X147669519Y-101662360D01*
X147665841Y-101664561D01*
X147441474Y-101844313D01*
X147243579Y-102052851D01*
X147075816Y-102286317D01*
X146941290Y-102540392D01*
X146842491Y-102810373D01*
X146781247Y-103091264D01*
X146758691Y-103377869D01*
X145330002Y-103377869D01*
X145330002Y-93252455D01*
X145817252Y-93252455D01*
X145817549Y-93257608D01*
X145817549Y-93257611D01*
X145823012Y-93352350D01*
X145830111Y-93475475D01*
X145831248Y-93480521D01*
X145831249Y-93480527D01*
X145845924Y-93545643D01*
X145879223Y-93693399D01*
X145963267Y-93900376D01*
X145982817Y-93932278D01*
X146071280Y-94076637D01*
X146079988Y-94090848D01*
X146226251Y-94259698D01*
X146329959Y-94345798D01*
X146391216Y-94396654D01*
X146398127Y-94402392D01*
X146591001Y-94515098D01*
X146799693Y-94594790D01*
X146804761Y-94595821D01*
X146804764Y-94595822D01*
X146912018Y-94617643D01*
X147018598Y-94639327D01*
X147023773Y-94639517D01*
X147023775Y-94639517D01*
X147236674Y-94647324D01*
X147236678Y-94647324D01*
X147241838Y-94647513D01*
X147246958Y-94646857D01*
X147246960Y-94646857D01*
X147458289Y-94619785D01*
X147458290Y-94619785D01*
X147463417Y-94619128D01*
X147468367Y-94617643D01*
X147672430Y-94556421D01*
X147672435Y-94556419D01*
X147677385Y-94554934D01*
X147877995Y-94456656D01*
X148059861Y-94326933D01*
X148086949Y-94299940D01*
X148214436Y-94172897D01*
X148218097Y-94169249D01*
X148228966Y-94154124D01*
X148345436Y-93992037D01*
X148348454Y-93987837D01*
X148352146Y-93980368D01*
X148445137Y-93792213D01*
X148445138Y-93792211D01*
X148447431Y-93787571D01*
X148512371Y-93573829D01*
X148541530Y-93352350D01*
X148541644Y-93347697D01*
X148543075Y-93289125D01*
X148543075Y-93289121D01*
X148543157Y-93285760D01*
X148524853Y-93063121D01*
X148470432Y-92846462D01*
X148381355Y-92641600D01*
X148260015Y-92454037D01*
X148109671Y-92288811D01*
X148105620Y-92285612D01*
X148105616Y-92285608D01*
X147938415Y-92153560D01*
X147938411Y-92153558D01*
X147934360Y-92150358D01*
X147893054Y-92127556D01*
X147843085Y-92077124D01*
X147828313Y-92007681D01*
X147853429Y-91941276D01*
X147880781Y-91914669D01*
X147924604Y-91883410D01*
X148059861Y-91786933D01*
X148086949Y-91759940D01*
X148214436Y-91632897D01*
X148218097Y-91629249D01*
X148228966Y-91614124D01*
X148345436Y-91452037D01*
X148348454Y-91447837D01*
X148352146Y-91440368D01*
X148445137Y-91252213D01*
X148445138Y-91252211D01*
X148447431Y-91247571D01*
X148512371Y-91033829D01*
X148541530Y-90812350D01*
X148541644Y-90807697D01*
X148543075Y-90749125D01*
X148543075Y-90749121D01*
X148543157Y-90745760D01*
X148524853Y-90523121D01*
X148470432Y-90306462D01*
X148381355Y-90101600D01*
X148260015Y-89914037D01*
X148109671Y-89748811D01*
X148105620Y-89745612D01*
X148105616Y-89745608D01*
X147938415Y-89613560D01*
X147938411Y-89613558D01*
X147934360Y-89610358D01*
X147893054Y-89587556D01*
X147843085Y-89537124D01*
X147828313Y-89467681D01*
X147853429Y-89401276D01*
X147880781Y-89374669D01*
X147924604Y-89343410D01*
X148059861Y-89246933D01*
X148086949Y-89219940D01*
X148214436Y-89092897D01*
X148218097Y-89089249D01*
X148228966Y-89074124D01*
X148345436Y-88912037D01*
X148348454Y-88907837D01*
X148352146Y-88900368D01*
X148445137Y-88712213D01*
X148445138Y-88712211D01*
X148447431Y-88707571D01*
X148512371Y-88493829D01*
X148541530Y-88272350D01*
X148541644Y-88267697D01*
X148543075Y-88209125D01*
X148543075Y-88209121D01*
X148543157Y-88205760D01*
X148524853Y-87983121D01*
X148470432Y-87766462D01*
X148381355Y-87561600D01*
X148260015Y-87374037D01*
X148109671Y-87208811D01*
X148105620Y-87205612D01*
X148105616Y-87205608D01*
X147938415Y-87073560D01*
X147938411Y-87073558D01*
X147934360Y-87070358D01*
X147893054Y-87047556D01*
X147843085Y-86997124D01*
X147828313Y-86927681D01*
X147853429Y-86861276D01*
X147880781Y-86834669D01*
X147924604Y-86803410D01*
X148059861Y-86706933D01*
X148086949Y-86679940D01*
X148214436Y-86552897D01*
X148218097Y-86549249D01*
X148228966Y-86534124D01*
X148345436Y-86372037D01*
X148348454Y-86367837D01*
X148352146Y-86360368D01*
X148445137Y-86172213D01*
X148445138Y-86172211D01*
X148447431Y-86167571D01*
X148512371Y-85953829D01*
X148541530Y-85732350D01*
X148541644Y-85727697D01*
X148543075Y-85669125D01*
X148543075Y-85669121D01*
X148543157Y-85665760D01*
X148540761Y-85636619D01*
X151161372Y-85636619D01*
X151174697Y-85839911D01*
X151224845Y-86037370D01*
X151310138Y-86222384D01*
X151427719Y-86388757D01*
X151573650Y-86530917D01*
X151578446Y-86534122D01*
X151578449Y-86534124D01*
X151606545Y-86552897D01*
X151743043Y-86644102D01*
X151748346Y-86646380D01*
X151748349Y-86646382D01*
X151889285Y-86706933D01*
X151930227Y-86724523D01*
X152003057Y-86741003D01*
X152123295Y-86768210D01*
X152123300Y-86768211D01*
X152128932Y-86769485D01*
X152134703Y-86769712D01*
X152134705Y-86769712D01*
X152197710Y-86772187D01*
X152332503Y-86777483D01*
X152534123Y-86748250D01*
X152539587Y-86746395D01*
X152539592Y-86746394D01*
X152721567Y-86684622D01*
X152721572Y-86684620D01*
X152727039Y-86682764D01*
X152904791Y-86583218D01*
X153061426Y-86452946D01*
X153111462Y-86392784D01*
X153151461Y-86344691D01*
X153210399Y-86305107D01*
X153248335Y-86299260D01*
X155085275Y-86299260D01*
X155153396Y-86319262D01*
X155192708Y-86359425D01*
X155260988Y-86470848D01*
X155407251Y-86639698D01*
X155510959Y-86725798D01*
X155572216Y-86776654D01*
X155579127Y-86782392D01*
X155649596Y-86823571D01*
X155652446Y-86825236D01*
X155701170Y-86876874D01*
X155714241Y-86946657D01*
X155687510Y-87012429D01*
X155647056Y-87045787D01*
X155634608Y-87052267D01*
X155630475Y-87055370D01*
X155630472Y-87055372D01*
X155521450Y-87137228D01*
X155455966Y-87186395D01*
X155452394Y-87190133D01*
X155325844Y-87322560D01*
X155301630Y-87347898D01*
X155175744Y-87532440D01*
X155081689Y-87735065D01*
X155021990Y-87950330D01*
X154998252Y-88172455D01*
X154998549Y-88177608D01*
X154998549Y-88177611D01*
X155004012Y-88272350D01*
X155011111Y-88395475D01*
X155012248Y-88400521D01*
X155012249Y-88400527D01*
X155026924Y-88465643D01*
X155060223Y-88613399D01*
X155144267Y-88820376D01*
X155163817Y-88852278D01*
X155252280Y-88996637D01*
X155260988Y-89010848D01*
X155407251Y-89179698D01*
X155510959Y-89265798D01*
X155572216Y-89316654D01*
X155579127Y-89322392D01*
X155649596Y-89363571D01*
X155652446Y-89365236D01*
X155701170Y-89416874D01*
X155714241Y-89486657D01*
X155687510Y-89552429D01*
X155647056Y-89585787D01*
X155634608Y-89592267D01*
X155630475Y-89595370D01*
X155630472Y-89595372D01*
X155521450Y-89677228D01*
X155455966Y-89726395D01*
X155452394Y-89730133D01*
X155325844Y-89862560D01*
X155301630Y-89887898D01*
X155175744Y-90072440D01*
X155081689Y-90275065D01*
X155021990Y-90490330D01*
X154998252Y-90712455D01*
X154998549Y-90717608D01*
X154998549Y-90717611D01*
X155004012Y-90812350D01*
X155011111Y-90935475D01*
X155012248Y-90940521D01*
X155012249Y-90940527D01*
X155026924Y-91005643D01*
X155060223Y-91153399D01*
X155144267Y-91360376D01*
X155163817Y-91392278D01*
X155252280Y-91536637D01*
X155260988Y-91550848D01*
X155407251Y-91719698D01*
X155510959Y-91805798D01*
X155572216Y-91856654D01*
X155579127Y-91862392D01*
X155649596Y-91903571D01*
X155652446Y-91905236D01*
X155701170Y-91956874D01*
X155714241Y-92026657D01*
X155687510Y-92092429D01*
X155647056Y-92125787D01*
X155634608Y-92132267D01*
X155630475Y-92135370D01*
X155630472Y-92135372D01*
X155521450Y-92217228D01*
X155455966Y-92266395D01*
X155452394Y-92270133D01*
X155325844Y-92402560D01*
X155301630Y-92427898D01*
X155175744Y-92612440D01*
X155081689Y-92815065D01*
X155021990Y-93030330D01*
X154998252Y-93252455D01*
X154998549Y-93257608D01*
X154998549Y-93257611D01*
X155004012Y-93352350D01*
X155011111Y-93475475D01*
X155012248Y-93480521D01*
X155012249Y-93480527D01*
X155026924Y-93545643D01*
X155060223Y-93693399D01*
X155144267Y-93900376D01*
X155163817Y-93932278D01*
X155252280Y-94076637D01*
X155260988Y-94090848D01*
X155407251Y-94259698D01*
X155510959Y-94345798D01*
X155572216Y-94396654D01*
X155579127Y-94402392D01*
X155772001Y-94515098D01*
X155980693Y-94594790D01*
X155985761Y-94595821D01*
X155985764Y-94595822D01*
X156093018Y-94617643D01*
X156199598Y-94639327D01*
X156204773Y-94639517D01*
X156204775Y-94639517D01*
X156417674Y-94647324D01*
X156417678Y-94647324D01*
X156422838Y-94647513D01*
X156427958Y-94646857D01*
X156427960Y-94646857D01*
X156639289Y-94619785D01*
X156639290Y-94619785D01*
X156644417Y-94619128D01*
X156649367Y-94617643D01*
X156853430Y-94556421D01*
X156853435Y-94556419D01*
X156858385Y-94554934D01*
X157058995Y-94456656D01*
X157240861Y-94326933D01*
X157267949Y-94299940D01*
X157395436Y-94172897D01*
X157399097Y-94169249D01*
X157409966Y-94154124D01*
X157526436Y-93992037D01*
X157529454Y-93987837D01*
X157531747Y-93983197D01*
X157533447Y-93980368D01*
X157585675Y-93932278D01*
X157641452Y-93919260D01*
X159472748Y-93919260D01*
X159540869Y-93939262D01*
X159575644Y-93972539D01*
X159597907Y-94004040D01*
X159601241Y-94008757D01*
X159747172Y-94150917D01*
X159751968Y-94154122D01*
X159751971Y-94154124D01*
X159780067Y-94172897D01*
X159916565Y-94264102D01*
X159921868Y-94266380D01*
X159921871Y-94266382D01*
X160062807Y-94326933D01*
X160103749Y-94344523D01*
X160176579Y-94361003D01*
X160296817Y-94388210D01*
X160296822Y-94388211D01*
X160302454Y-94389485D01*
X160308225Y-94389712D01*
X160308227Y-94389712D01*
X160371232Y-94392187D01*
X160506025Y-94397483D01*
X160707645Y-94368250D01*
X160713109Y-94366395D01*
X160713114Y-94366394D01*
X160895089Y-94304622D01*
X160895094Y-94304620D01*
X160900561Y-94302764D01*
X161078313Y-94203218D01*
X161234948Y-94072946D01*
X161365220Y-93916311D01*
X161464766Y-93738559D01*
X161466622Y-93733092D01*
X161466624Y-93733087D01*
X161528396Y-93551112D01*
X161528397Y-93551107D01*
X161530252Y-93545643D01*
X161559485Y-93344023D01*
X161561011Y-93285760D01*
X161557951Y-93252455D01*
X164179252Y-93252455D01*
X164179549Y-93257608D01*
X164179549Y-93257611D01*
X164185012Y-93352350D01*
X164192111Y-93475475D01*
X164193248Y-93480521D01*
X164193249Y-93480527D01*
X164207924Y-93545643D01*
X164241223Y-93693399D01*
X164325267Y-93900376D01*
X164344817Y-93932278D01*
X164433280Y-94076637D01*
X164441988Y-94090848D01*
X164588251Y-94259698D01*
X164691959Y-94345798D01*
X164753216Y-94396654D01*
X164760127Y-94402392D01*
X164953001Y-94515098D01*
X165161693Y-94594790D01*
X165166761Y-94595821D01*
X165166764Y-94595822D01*
X165274018Y-94617643D01*
X165380598Y-94639327D01*
X165385773Y-94639517D01*
X165385775Y-94639517D01*
X165598674Y-94647324D01*
X165598678Y-94647324D01*
X165603838Y-94647513D01*
X165608958Y-94646857D01*
X165608960Y-94646857D01*
X165820289Y-94619785D01*
X165820290Y-94619785D01*
X165825417Y-94619128D01*
X165830367Y-94617643D01*
X166034430Y-94556421D01*
X166034435Y-94556419D01*
X166039385Y-94554934D01*
X166239995Y-94456656D01*
X166421861Y-94326933D01*
X166448949Y-94299940D01*
X166576436Y-94172897D01*
X166580097Y-94169249D01*
X166590966Y-94154124D01*
X166707436Y-93992037D01*
X166710454Y-93987837D01*
X166714146Y-93980368D01*
X166807137Y-93792213D01*
X166807138Y-93792211D01*
X166809431Y-93787571D01*
X166874371Y-93573829D01*
X166903530Y-93352350D01*
X166903644Y-93347697D01*
X166905075Y-93289125D01*
X166905075Y-93289121D01*
X166905157Y-93285760D01*
X166886853Y-93063121D01*
X166832432Y-92846462D01*
X166743355Y-92641600D01*
X166622015Y-92454037D01*
X166471671Y-92288811D01*
X166467620Y-92285612D01*
X166467616Y-92285608D01*
X166300415Y-92153560D01*
X166300411Y-92153558D01*
X166296360Y-92150358D01*
X166255054Y-92127556D01*
X166205085Y-92077124D01*
X166190313Y-92007681D01*
X166215429Y-91941276D01*
X166242781Y-91914669D01*
X166286604Y-91883410D01*
X166421861Y-91786933D01*
X166448949Y-91759940D01*
X166576436Y-91632897D01*
X166580097Y-91629249D01*
X166590966Y-91614124D01*
X166707436Y-91452037D01*
X166710454Y-91447837D01*
X166714146Y-91440368D01*
X166807137Y-91252213D01*
X166807138Y-91252211D01*
X166809431Y-91247571D01*
X166874371Y-91033829D01*
X166903530Y-90812350D01*
X166903644Y-90807697D01*
X166905075Y-90749125D01*
X166905075Y-90749121D01*
X166905157Y-90745760D01*
X166886853Y-90523121D01*
X166832432Y-90306462D01*
X166743355Y-90101600D01*
X166622015Y-89914037D01*
X166471671Y-89748811D01*
X166467620Y-89745612D01*
X166467616Y-89745608D01*
X166300415Y-89613560D01*
X166300411Y-89613558D01*
X166296360Y-89610358D01*
X166255054Y-89587556D01*
X166205085Y-89537124D01*
X166190313Y-89467681D01*
X166215429Y-89401276D01*
X166242781Y-89374669D01*
X166286604Y-89343410D01*
X166421861Y-89246933D01*
X166448949Y-89219940D01*
X166576436Y-89092897D01*
X166580097Y-89089249D01*
X166590966Y-89074124D01*
X166707436Y-88912037D01*
X166710454Y-88907837D01*
X166714146Y-88900368D01*
X166807137Y-88712213D01*
X166807138Y-88712211D01*
X166809431Y-88707571D01*
X166874371Y-88493829D01*
X166903530Y-88272350D01*
X166903644Y-88267697D01*
X166905075Y-88209125D01*
X166905075Y-88209121D01*
X166905157Y-88205760D01*
X166886853Y-87983121D01*
X166832432Y-87766462D01*
X166743355Y-87561600D01*
X166622015Y-87374037D01*
X166471671Y-87208811D01*
X166467620Y-87205612D01*
X166467616Y-87205608D01*
X166300415Y-87073560D01*
X166300411Y-87073558D01*
X166296360Y-87070358D01*
X166255054Y-87047556D01*
X166205085Y-86997124D01*
X166190313Y-86927681D01*
X166215429Y-86861276D01*
X166242781Y-86834669D01*
X166286604Y-86803410D01*
X166421861Y-86706933D01*
X166448949Y-86679940D01*
X166576436Y-86552897D01*
X166580097Y-86549249D01*
X166590966Y-86534124D01*
X166707436Y-86372037D01*
X166710454Y-86367837D01*
X166714146Y-86360368D01*
X166807137Y-86172213D01*
X166807138Y-86172211D01*
X166809431Y-86167571D01*
X166874371Y-85953829D01*
X166903530Y-85732350D01*
X166903644Y-85727697D01*
X166905075Y-85669125D01*
X166905075Y-85669121D01*
X166905157Y-85665760D01*
X166886853Y-85443121D01*
X166832432Y-85226462D01*
X166743355Y-85021600D01*
X166622015Y-84834037D01*
X166471671Y-84668811D01*
X166467620Y-84665612D01*
X166467616Y-84665608D01*
X166300415Y-84533560D01*
X166300411Y-84533558D01*
X166296360Y-84530358D01*
X166255054Y-84507556D01*
X166205085Y-84457124D01*
X166190313Y-84387681D01*
X166215429Y-84321276D01*
X166242781Y-84294669D01*
X166286604Y-84263410D01*
X166421861Y-84166933D01*
X166448949Y-84139940D01*
X166576436Y-84012897D01*
X166580097Y-84009249D01*
X166590966Y-83994124D01*
X166707436Y-83832037D01*
X166710454Y-83827837D01*
X166714612Y-83819425D01*
X166807137Y-83632213D01*
X166807138Y-83632211D01*
X166809431Y-83627571D01*
X166874371Y-83413829D01*
X166903530Y-83192350D01*
X166905157Y-83125760D01*
X166886853Y-82903121D01*
X166832432Y-82686462D01*
X166743355Y-82481600D01*
X166622015Y-82294037D01*
X166471671Y-82128811D01*
X166467620Y-82125612D01*
X166467616Y-82125608D01*
X166300415Y-81993560D01*
X166300411Y-81993558D01*
X166296360Y-81990358D01*
X166255054Y-81967556D01*
X166205085Y-81917124D01*
X166190313Y-81847681D01*
X166215429Y-81781276D01*
X166242781Y-81754669D01*
X166286604Y-81723410D01*
X166421861Y-81626933D01*
X166580097Y-81469249D01*
X166639595Y-81386449D01*
X166707436Y-81292037D01*
X166710454Y-81287837D01*
X166809431Y-81087571D01*
X166874371Y-80873829D01*
X166903530Y-80652350D01*
X166905157Y-80585760D01*
X166886853Y-80363121D01*
X166832432Y-80146462D01*
X166743355Y-79941600D01*
X166622015Y-79754037D01*
X166471671Y-79588811D01*
X166467620Y-79585612D01*
X166467616Y-79585608D01*
X166300415Y-79453560D01*
X166300411Y-79453558D01*
X166296360Y-79450358D01*
X166255054Y-79427556D01*
X166205085Y-79377124D01*
X166190313Y-79307681D01*
X166215429Y-79241276D01*
X166242781Y-79214669D01*
X166286604Y-79183410D01*
X166421861Y-79086933D01*
X166448949Y-79059940D01*
X166576436Y-78932897D01*
X166580097Y-78929249D01*
X166590966Y-78914124D01*
X166707436Y-78752037D01*
X166710454Y-78747837D01*
X166809431Y-78547571D01*
X166874371Y-78333829D01*
X166903530Y-78112350D01*
X166905157Y-78045760D01*
X166886853Y-77823121D01*
X166832432Y-77606462D01*
X166743355Y-77401600D01*
X166667263Y-77283980D01*
X166624823Y-77218377D01*
X166624821Y-77218374D01*
X166622015Y-77214037D01*
X166471671Y-77048811D01*
X166467620Y-77045612D01*
X166467616Y-77045608D01*
X166300415Y-76913560D01*
X166300411Y-76913558D01*
X166296360Y-76910358D01*
X166255054Y-76887556D01*
X166205085Y-76837124D01*
X166190313Y-76767681D01*
X166215429Y-76701276D01*
X166242781Y-76674669D01*
X166286604Y-76643410D01*
X166421861Y-76546933D01*
X166580097Y-76389249D01*
X166639595Y-76306449D01*
X166707436Y-76212037D01*
X166710454Y-76207837D01*
X166809431Y-76007571D01*
X166874371Y-75793829D01*
X166903530Y-75572350D01*
X166905157Y-75505760D01*
X166886853Y-75283121D01*
X166832432Y-75066462D01*
X166743355Y-74861600D01*
X166622015Y-74674037D01*
X166471671Y-74508811D01*
X166467620Y-74505612D01*
X166467616Y-74505608D01*
X166300415Y-74373560D01*
X166300411Y-74373558D01*
X166296360Y-74370358D01*
X166100790Y-74262398D01*
X166095921Y-74260674D01*
X166095917Y-74260672D01*
X165895088Y-74189555D01*
X165895084Y-74189554D01*
X165890213Y-74187829D01*
X165885120Y-74186922D01*
X165885117Y-74186921D01*
X165675374Y-74149560D01*
X165675368Y-74149559D01*
X165670285Y-74148654D01*
X165596453Y-74147752D01*
X165452082Y-74145988D01*
X165452080Y-74145988D01*
X165446912Y-74145925D01*
X165226092Y-74179715D01*
X165013757Y-74249117D01*
X164815608Y-74352267D01*
X164811475Y-74355370D01*
X164811472Y-74355372D01*
X164641101Y-74483290D01*
X164636966Y-74486395D01*
X164482630Y-74647898D01*
X164356744Y-74832440D01*
X164262689Y-75035065D01*
X164202990Y-75250330D01*
X164179252Y-75472455D01*
X164179549Y-75477608D01*
X164179549Y-75477611D01*
X164185012Y-75572350D01*
X164192111Y-75695475D01*
X164193248Y-75700521D01*
X164193249Y-75700527D01*
X164213120Y-75788699D01*
X164241223Y-75913399D01*
X164325267Y-76120376D01*
X164441988Y-76310848D01*
X164588251Y-76479698D01*
X164760127Y-76622392D01*
X164830596Y-76663571D01*
X164833446Y-76665236D01*
X164882170Y-76716874D01*
X164895241Y-76786657D01*
X164868510Y-76852429D01*
X164828056Y-76885787D01*
X164815608Y-76892267D01*
X164811475Y-76895370D01*
X164811472Y-76895372D01*
X164687568Y-76988402D01*
X164636966Y-77026395D01*
X164482630Y-77187898D01*
X164479716Y-77192170D01*
X164479715Y-77192171D01*
X164447111Y-77239967D01*
X164356744Y-77372440D01*
X164262689Y-77575065D01*
X164202990Y-77790330D01*
X164179252Y-78012455D01*
X164179549Y-78017608D01*
X164179549Y-78017611D01*
X164185012Y-78112350D01*
X164192111Y-78235475D01*
X164193248Y-78240521D01*
X164193249Y-78240527D01*
X164213120Y-78328699D01*
X164241223Y-78453399D01*
X164325267Y-78660376D01*
X164327966Y-78664780D01*
X164433739Y-78837386D01*
X164441988Y-78850848D01*
X164588251Y-79019698D01*
X164691959Y-79105798D01*
X164753216Y-79156654D01*
X164760127Y-79162392D01*
X164830596Y-79203571D01*
X164833446Y-79205236D01*
X164882170Y-79256874D01*
X164895241Y-79326657D01*
X164868510Y-79392429D01*
X164828056Y-79425787D01*
X164815608Y-79432267D01*
X164811475Y-79435370D01*
X164811472Y-79435372D01*
X164787248Y-79453560D01*
X164636966Y-79566395D01*
X164482630Y-79727898D01*
X164479716Y-79732170D01*
X164479715Y-79732171D01*
X164467405Y-79750217D01*
X164356744Y-79912440D01*
X164262689Y-80115065D01*
X164202990Y-80330330D01*
X164179252Y-80552455D01*
X164179549Y-80557608D01*
X164179549Y-80557611D01*
X164185012Y-80652350D01*
X164192111Y-80775475D01*
X164193248Y-80780521D01*
X164193249Y-80780527D01*
X164206598Y-80839760D01*
X164241223Y-80993399D01*
X164325267Y-81200376D01*
X164441988Y-81390848D01*
X164588251Y-81559698D01*
X164760127Y-81702392D01*
X164830596Y-81743571D01*
X164833446Y-81745236D01*
X164882170Y-81796874D01*
X164895241Y-81866657D01*
X164868510Y-81932429D01*
X164828056Y-81965787D01*
X164815608Y-81972267D01*
X164811475Y-81975370D01*
X164811472Y-81975372D01*
X164702450Y-82057228D01*
X164636966Y-82106395D01*
X164633394Y-82110133D01*
X164506844Y-82242560D01*
X164482630Y-82267898D01*
X164479716Y-82272170D01*
X164479715Y-82272171D01*
X164467405Y-82290217D01*
X164356744Y-82452440D01*
X164262689Y-82655065D01*
X164202990Y-82870330D01*
X164179252Y-83092455D01*
X164179549Y-83097608D01*
X164179549Y-83097611D01*
X164185012Y-83192350D01*
X164192111Y-83315475D01*
X164193248Y-83320521D01*
X164193249Y-83320527D01*
X164206598Y-83379760D01*
X164241223Y-83533399D01*
X164325267Y-83740376D01*
X164327966Y-83744780D01*
X164439292Y-83926448D01*
X164441988Y-83930848D01*
X164588251Y-84099698D01*
X164691959Y-84185798D01*
X164753216Y-84236654D01*
X164760127Y-84242392D01*
X164830596Y-84283571D01*
X164833446Y-84285236D01*
X164882170Y-84336874D01*
X164895241Y-84406657D01*
X164868510Y-84472429D01*
X164828056Y-84505787D01*
X164815608Y-84512267D01*
X164811475Y-84515370D01*
X164811472Y-84515372D01*
X164702450Y-84597228D01*
X164636966Y-84646395D01*
X164633394Y-84650133D01*
X164506844Y-84782560D01*
X164482630Y-84807898D01*
X164356744Y-84992440D01*
X164262689Y-85195065D01*
X164202990Y-85410330D01*
X164179252Y-85632455D01*
X164179549Y-85637608D01*
X164179549Y-85637611D01*
X164185012Y-85732350D01*
X164192111Y-85855475D01*
X164193248Y-85860521D01*
X164193249Y-85860527D01*
X164207924Y-85925643D01*
X164241223Y-86073399D01*
X164325267Y-86280376D01*
X164340422Y-86305107D01*
X164439292Y-86466448D01*
X164441988Y-86470848D01*
X164588251Y-86639698D01*
X164691959Y-86725798D01*
X164753216Y-86776654D01*
X164760127Y-86782392D01*
X164830596Y-86823571D01*
X164833446Y-86825236D01*
X164882170Y-86876874D01*
X164895241Y-86946657D01*
X164868510Y-87012429D01*
X164828056Y-87045787D01*
X164815608Y-87052267D01*
X164811475Y-87055370D01*
X164811472Y-87055372D01*
X164702450Y-87137228D01*
X164636966Y-87186395D01*
X164633394Y-87190133D01*
X164506844Y-87322560D01*
X164482630Y-87347898D01*
X164356744Y-87532440D01*
X164262689Y-87735065D01*
X164202990Y-87950330D01*
X164179252Y-88172455D01*
X164179549Y-88177608D01*
X164179549Y-88177611D01*
X164185012Y-88272350D01*
X164192111Y-88395475D01*
X164193248Y-88400521D01*
X164193249Y-88400527D01*
X164207924Y-88465643D01*
X164241223Y-88613399D01*
X164325267Y-88820376D01*
X164344817Y-88852278D01*
X164433280Y-88996637D01*
X164441988Y-89010848D01*
X164588251Y-89179698D01*
X164691959Y-89265798D01*
X164753216Y-89316654D01*
X164760127Y-89322392D01*
X164830596Y-89363571D01*
X164833446Y-89365236D01*
X164882170Y-89416874D01*
X164895241Y-89486657D01*
X164868510Y-89552429D01*
X164828056Y-89585787D01*
X164815608Y-89592267D01*
X164811475Y-89595370D01*
X164811472Y-89595372D01*
X164702450Y-89677228D01*
X164636966Y-89726395D01*
X164633394Y-89730133D01*
X164506844Y-89862560D01*
X164482630Y-89887898D01*
X164356744Y-90072440D01*
X164262689Y-90275065D01*
X164202990Y-90490330D01*
X164179252Y-90712455D01*
X164179549Y-90717608D01*
X164179549Y-90717611D01*
X164185012Y-90812350D01*
X164192111Y-90935475D01*
X164193248Y-90940521D01*
X164193249Y-90940527D01*
X164207924Y-91005643D01*
X164241223Y-91153399D01*
X164325267Y-91360376D01*
X164344817Y-91392278D01*
X164433280Y-91536637D01*
X164441988Y-91550848D01*
X164588251Y-91719698D01*
X164691959Y-91805798D01*
X164753216Y-91856654D01*
X164760127Y-91862392D01*
X164830596Y-91903571D01*
X164833446Y-91905236D01*
X164882170Y-91956874D01*
X164895241Y-92026657D01*
X164868510Y-92092429D01*
X164828056Y-92125787D01*
X164815608Y-92132267D01*
X164811475Y-92135370D01*
X164811472Y-92135372D01*
X164702450Y-92217228D01*
X164636966Y-92266395D01*
X164633394Y-92270133D01*
X164506844Y-92402560D01*
X164482630Y-92427898D01*
X164356744Y-92612440D01*
X164262689Y-92815065D01*
X164202990Y-93030330D01*
X164179252Y-93252455D01*
X161557951Y-93252455D01*
X161542370Y-93082886D01*
X161528996Y-93035467D01*
X161488637Y-92892366D01*
X161488636Y-92892364D01*
X161487069Y-92886807D01*
X161467174Y-92846462D01*
X161399518Y-92709270D01*
X161396963Y-92704089D01*
X161275067Y-92540851D01*
X161157498Y-92432171D01*
X161129705Y-92406479D01*
X161129702Y-92406477D01*
X161125465Y-92402560D01*
X161079437Y-92373519D01*
X160958050Y-92296929D01*
X160958045Y-92296927D01*
X160953166Y-92293848D01*
X160763942Y-92218355D01*
X160564128Y-92178609D01*
X160558354Y-92178533D01*
X160558350Y-92178533D01*
X160455214Y-92177184D01*
X160360417Y-92175943D01*
X160354720Y-92176922D01*
X160354719Y-92176922D01*
X160165329Y-92209465D01*
X160159632Y-92210444D01*
X159968496Y-92280958D01*
X159793411Y-92385123D01*
X159640240Y-92519450D01*
X159636668Y-92523981D01*
X159573376Y-92604266D01*
X159515494Y-92645379D01*
X159474426Y-92652260D01*
X157637806Y-92652260D01*
X157569685Y-92632258D01*
X157532014Y-92594700D01*
X157443823Y-92458377D01*
X157443821Y-92458374D01*
X157441015Y-92454037D01*
X157290671Y-92288811D01*
X157286620Y-92285612D01*
X157286616Y-92285608D01*
X157119415Y-92153560D01*
X157119411Y-92153558D01*
X157115360Y-92150358D01*
X157074054Y-92127556D01*
X157024085Y-92077124D01*
X157009313Y-92007681D01*
X157034429Y-91941276D01*
X157061781Y-91914669D01*
X157105604Y-91883410D01*
X157240861Y-91786933D01*
X157267949Y-91759940D01*
X157395436Y-91632897D01*
X157399097Y-91629249D01*
X157409966Y-91614124D01*
X157526436Y-91452037D01*
X157529454Y-91447837D01*
X157531747Y-91443197D01*
X157533447Y-91440368D01*
X157585675Y-91392278D01*
X157641452Y-91379260D01*
X159472748Y-91379260D01*
X159540869Y-91399262D01*
X159575644Y-91432539D01*
X159597907Y-91464040D01*
X159601241Y-91468757D01*
X159747172Y-91610917D01*
X159751968Y-91614122D01*
X159751971Y-91614124D01*
X159780067Y-91632897D01*
X159916565Y-91724102D01*
X159921868Y-91726380D01*
X159921871Y-91726382D01*
X160062807Y-91786933D01*
X160103749Y-91804523D01*
X160176579Y-91821003D01*
X160296817Y-91848210D01*
X160296822Y-91848211D01*
X160302454Y-91849485D01*
X160308225Y-91849712D01*
X160308227Y-91849712D01*
X160371232Y-91852187D01*
X160506025Y-91857483D01*
X160707645Y-91828250D01*
X160713109Y-91826395D01*
X160713114Y-91826394D01*
X160895089Y-91764622D01*
X160895094Y-91764620D01*
X160900561Y-91762764D01*
X161078313Y-91663218D01*
X161234948Y-91532946D01*
X161365220Y-91376311D01*
X161464766Y-91198559D01*
X161466622Y-91193092D01*
X161466624Y-91193087D01*
X161528396Y-91011112D01*
X161528397Y-91011107D01*
X161530252Y-91005643D01*
X161559485Y-90804023D01*
X161561011Y-90745760D01*
X161542370Y-90542886D01*
X161528996Y-90495467D01*
X161488637Y-90352366D01*
X161488636Y-90352364D01*
X161487069Y-90346807D01*
X161467174Y-90306462D01*
X161399518Y-90169270D01*
X161396963Y-90164089D01*
X161275067Y-90000851D01*
X161157498Y-89892171D01*
X161129705Y-89866479D01*
X161129702Y-89866477D01*
X161125465Y-89862560D01*
X161079437Y-89833519D01*
X160958050Y-89756929D01*
X160958045Y-89756927D01*
X160953166Y-89753848D01*
X160763942Y-89678355D01*
X160564128Y-89638609D01*
X160558354Y-89638533D01*
X160558350Y-89638533D01*
X160455214Y-89637184D01*
X160360417Y-89635943D01*
X160354720Y-89636922D01*
X160354719Y-89636922D01*
X160165329Y-89669465D01*
X160159632Y-89670444D01*
X159968496Y-89740958D01*
X159793411Y-89845123D01*
X159640240Y-89979450D01*
X159636668Y-89983981D01*
X159573376Y-90064266D01*
X159515494Y-90105379D01*
X159474426Y-90112260D01*
X157637806Y-90112260D01*
X157569685Y-90092258D01*
X157532014Y-90054700D01*
X157443823Y-89918377D01*
X157443821Y-89918374D01*
X157441015Y-89914037D01*
X157290671Y-89748811D01*
X157286620Y-89745612D01*
X157286616Y-89745608D01*
X157119415Y-89613560D01*
X157119411Y-89613558D01*
X157115360Y-89610358D01*
X157074054Y-89587556D01*
X157024085Y-89537124D01*
X157009313Y-89467681D01*
X157034429Y-89401276D01*
X157061781Y-89374669D01*
X157105604Y-89343410D01*
X157240861Y-89246933D01*
X157267949Y-89219940D01*
X157395436Y-89092897D01*
X157399097Y-89089249D01*
X157409966Y-89074124D01*
X157526436Y-88912037D01*
X157529454Y-88907837D01*
X157531747Y-88903197D01*
X157533447Y-88900368D01*
X157585675Y-88852278D01*
X157641452Y-88839260D01*
X159472748Y-88839260D01*
X159540869Y-88859262D01*
X159575644Y-88892539D01*
X159597907Y-88924040D01*
X159601241Y-88928757D01*
X159747172Y-89070917D01*
X159751968Y-89074122D01*
X159751971Y-89074124D01*
X159780067Y-89092897D01*
X159916565Y-89184102D01*
X159921868Y-89186380D01*
X159921871Y-89186382D01*
X160062807Y-89246933D01*
X160103749Y-89264523D01*
X160176579Y-89281003D01*
X160296817Y-89308210D01*
X160296822Y-89308211D01*
X160302454Y-89309485D01*
X160308225Y-89309712D01*
X160308227Y-89309712D01*
X160371232Y-89312187D01*
X160506025Y-89317483D01*
X160707645Y-89288250D01*
X160713109Y-89286395D01*
X160713114Y-89286394D01*
X160895089Y-89224622D01*
X160895094Y-89224620D01*
X160900561Y-89222764D01*
X161078313Y-89123218D01*
X161234948Y-88992946D01*
X161365220Y-88836311D01*
X161464766Y-88658559D01*
X161466622Y-88653092D01*
X161466624Y-88653087D01*
X161528396Y-88471112D01*
X161528397Y-88471107D01*
X161530252Y-88465643D01*
X161559485Y-88264023D01*
X161561011Y-88205760D01*
X161542370Y-88002886D01*
X161528996Y-87955467D01*
X161488637Y-87812366D01*
X161488636Y-87812364D01*
X161487069Y-87806807D01*
X161467174Y-87766462D01*
X161399518Y-87629270D01*
X161396963Y-87624089D01*
X161275067Y-87460851D01*
X161157498Y-87352171D01*
X161129705Y-87326479D01*
X161129702Y-87326477D01*
X161125465Y-87322560D01*
X161079437Y-87293519D01*
X160958050Y-87216929D01*
X160958045Y-87216927D01*
X160953166Y-87213848D01*
X160763942Y-87138355D01*
X160564128Y-87098609D01*
X160558354Y-87098533D01*
X160558350Y-87098533D01*
X160455214Y-87097184D01*
X160360417Y-87095943D01*
X160354720Y-87096922D01*
X160354719Y-87096922D01*
X160165329Y-87129465D01*
X160159632Y-87130444D01*
X159968496Y-87200958D01*
X159793411Y-87305123D01*
X159640240Y-87439450D01*
X159636668Y-87443981D01*
X159573376Y-87524266D01*
X159515494Y-87565379D01*
X159474426Y-87572260D01*
X157637806Y-87572260D01*
X157569685Y-87552258D01*
X157532014Y-87514700D01*
X157443823Y-87378377D01*
X157443821Y-87378374D01*
X157441015Y-87374037D01*
X157290671Y-87208811D01*
X157286620Y-87205612D01*
X157286616Y-87205608D01*
X157119415Y-87073560D01*
X157119411Y-87073558D01*
X157115360Y-87070358D01*
X157074054Y-87047556D01*
X157024085Y-86997124D01*
X157009313Y-86927681D01*
X157034429Y-86861276D01*
X157061781Y-86834669D01*
X157105604Y-86803410D01*
X157240861Y-86706933D01*
X157267949Y-86679940D01*
X157395436Y-86552897D01*
X157399097Y-86549249D01*
X157409966Y-86534124D01*
X157526436Y-86372037D01*
X157529454Y-86367837D01*
X157531747Y-86363197D01*
X157533447Y-86360368D01*
X157585675Y-86312278D01*
X157641452Y-86299260D01*
X159472748Y-86299260D01*
X159540869Y-86319262D01*
X159575644Y-86352539D01*
X159597907Y-86384040D01*
X159601241Y-86388757D01*
X159747172Y-86530917D01*
X159751968Y-86534122D01*
X159751971Y-86534124D01*
X159780067Y-86552897D01*
X159916565Y-86644102D01*
X159921868Y-86646380D01*
X159921871Y-86646382D01*
X160062807Y-86706933D01*
X160103749Y-86724523D01*
X160176579Y-86741003D01*
X160296817Y-86768210D01*
X160296822Y-86768211D01*
X160302454Y-86769485D01*
X160308225Y-86769712D01*
X160308227Y-86769712D01*
X160371232Y-86772187D01*
X160506025Y-86777483D01*
X160707645Y-86748250D01*
X160713109Y-86746395D01*
X160713114Y-86746394D01*
X160895089Y-86684622D01*
X160895094Y-86684620D01*
X160900561Y-86682764D01*
X161078313Y-86583218D01*
X161234948Y-86452946D01*
X161365220Y-86296311D01*
X161464766Y-86118559D01*
X161466622Y-86113092D01*
X161466624Y-86113087D01*
X161528396Y-85931112D01*
X161528397Y-85931107D01*
X161530252Y-85925643D01*
X161559485Y-85724023D01*
X161561011Y-85665760D01*
X161542370Y-85462886D01*
X161528996Y-85415467D01*
X161488637Y-85272366D01*
X161488636Y-85272364D01*
X161487069Y-85266807D01*
X161476442Y-85245256D01*
X161399518Y-85089270D01*
X161396963Y-85084089D01*
X161378558Y-85059441D01*
X161278520Y-84925475D01*
X161278520Y-84925474D01*
X161275067Y-84920851D01*
X161157498Y-84812171D01*
X161129705Y-84786479D01*
X161129702Y-84786477D01*
X161125465Y-84782560D01*
X161079437Y-84753519D01*
X160958050Y-84676929D01*
X160958045Y-84676927D01*
X160953166Y-84673848D01*
X160763942Y-84598355D01*
X160564128Y-84558609D01*
X160558354Y-84558533D01*
X160558350Y-84558533D01*
X160455214Y-84557184D01*
X160360417Y-84555943D01*
X160354720Y-84556922D01*
X160354719Y-84556922D01*
X160165329Y-84589465D01*
X160159632Y-84590444D01*
X159968496Y-84660958D01*
X159793411Y-84765123D01*
X159640240Y-84899450D01*
X159636669Y-84903980D01*
X159636668Y-84903981D01*
X159573376Y-84984266D01*
X159515494Y-85025379D01*
X159474426Y-85032260D01*
X157637806Y-85032260D01*
X157569685Y-85012258D01*
X157532014Y-84974700D01*
X157443823Y-84838377D01*
X157443821Y-84838374D01*
X157441015Y-84834037D01*
X157290671Y-84668811D01*
X157286620Y-84665612D01*
X157286616Y-84665608D01*
X157119415Y-84533560D01*
X157119411Y-84533558D01*
X157115360Y-84530358D01*
X157074054Y-84507556D01*
X157024085Y-84457124D01*
X157009313Y-84387681D01*
X157034429Y-84321276D01*
X157061781Y-84294669D01*
X157105604Y-84263410D01*
X157240861Y-84166933D01*
X157267949Y-84139940D01*
X157395436Y-84012897D01*
X157399097Y-84009249D01*
X157409966Y-83994124D01*
X157526436Y-83832037D01*
X157529454Y-83827837D01*
X157533612Y-83819425D01*
X157626137Y-83632213D01*
X157626138Y-83632211D01*
X157628431Y-83627571D01*
X157693371Y-83413829D01*
X157722530Y-83192350D01*
X157724157Y-83125760D01*
X157705853Y-82903121D01*
X157651432Y-82686462D01*
X157562355Y-82481600D01*
X157441015Y-82294037D01*
X157290671Y-82128811D01*
X157286620Y-82125612D01*
X157286616Y-82125608D01*
X157119415Y-81993560D01*
X157119411Y-81993558D01*
X157115360Y-81990358D01*
X157073570Y-81967289D01*
X157023599Y-81916857D01*
X157008827Y-81847414D01*
X157033943Y-81781008D01*
X157061295Y-81754401D01*
X157236329Y-81629552D01*
X157244201Y-81622899D01*
X157395053Y-81472572D01*
X157401731Y-81464725D01*
X157526004Y-81291780D01*
X157531314Y-81282943D01*
X157625671Y-81092027D01*
X157629470Y-81082432D01*
X157691378Y-80878670D01*
X157693556Y-80868597D01*
X157694987Y-80857722D01*
X157692776Y-80843538D01*
X157679618Y-80839760D01*
X155044226Y-80839760D01*
X155030695Y-80843733D01*
X155029258Y-80853726D01*
X155059566Y-80988206D01*
X155062646Y-80998035D01*
X155142771Y-81195363D01*
X155147414Y-81204554D01*
X155258695Y-81386148D01*
X155264778Y-81394459D01*
X155404214Y-81555427D01*
X155411581Y-81562643D01*
X155575435Y-81698676D01*
X155583882Y-81704591D01*
X155652970Y-81744963D01*
X155701694Y-81796602D01*
X155714765Y-81866385D01*
X155688034Y-81932156D01*
X155647585Y-81965512D01*
X155634608Y-81972267D01*
X155630475Y-81975370D01*
X155630472Y-81975372D01*
X155521450Y-82057228D01*
X155455966Y-82106395D01*
X155452394Y-82110133D01*
X155325844Y-82242560D01*
X155301630Y-82267898D01*
X155298716Y-82272170D01*
X155298715Y-82272171D01*
X155186096Y-82437264D01*
X155131185Y-82482267D01*
X155082008Y-82492260D01*
X153247903Y-82492260D01*
X153179782Y-82472258D01*
X153146945Y-82441649D01*
X153104998Y-82385475D01*
X153104997Y-82385474D01*
X153101545Y-82380851D01*
X153007630Y-82294037D01*
X152956183Y-82246479D01*
X152956180Y-82246477D01*
X152951943Y-82242560D01*
X152905915Y-82213519D01*
X152784528Y-82136929D01*
X152784523Y-82136927D01*
X152779644Y-82133848D01*
X152590420Y-82058355D01*
X152390606Y-82018609D01*
X152384832Y-82018533D01*
X152384828Y-82018533D01*
X152281692Y-82017184D01*
X152186895Y-82015943D01*
X152181198Y-82016922D01*
X152181197Y-82016922D01*
X151991807Y-82049465D01*
X151986110Y-82050444D01*
X151794974Y-82120958D01*
X151619889Y-82225123D01*
X151466718Y-82359450D01*
X151463151Y-82363975D01*
X151463146Y-82363980D01*
X151405374Y-82437264D01*
X151340591Y-82519441D01*
X151245732Y-82699738D01*
X151185318Y-82894303D01*
X151161372Y-83096619D01*
X151174697Y-83299911D01*
X151224845Y-83497370D01*
X151310138Y-83682384D01*
X151427719Y-83848757D01*
X151573650Y-83990917D01*
X151578446Y-83994122D01*
X151578449Y-83994124D01*
X151606545Y-84012897D01*
X151743043Y-84104102D01*
X151748346Y-84106380D01*
X151748349Y-84106382D01*
X151889285Y-84166933D01*
X151930227Y-84184523D01*
X152003057Y-84201003D01*
X152123295Y-84228210D01*
X152123300Y-84228211D01*
X152128932Y-84229485D01*
X152134703Y-84229712D01*
X152134705Y-84229712D01*
X152197710Y-84232187D01*
X152332503Y-84237483D01*
X152534123Y-84208250D01*
X152539587Y-84206395D01*
X152539592Y-84206394D01*
X152721567Y-84144622D01*
X152721572Y-84144620D01*
X152727039Y-84142764D01*
X152904791Y-84043218D01*
X153061426Y-83912946D01*
X153111462Y-83852784D01*
X153151461Y-83804691D01*
X153210399Y-83765107D01*
X153248335Y-83759260D01*
X155085275Y-83759260D01*
X155153396Y-83779262D01*
X155192708Y-83819425D01*
X155260988Y-83930848D01*
X155407251Y-84099698D01*
X155510959Y-84185798D01*
X155572216Y-84236654D01*
X155579127Y-84242392D01*
X155649596Y-84283571D01*
X155652446Y-84285236D01*
X155701170Y-84336874D01*
X155714241Y-84406657D01*
X155687510Y-84472429D01*
X155647056Y-84505787D01*
X155634608Y-84512267D01*
X155630475Y-84515370D01*
X155630472Y-84515372D01*
X155521450Y-84597228D01*
X155455966Y-84646395D01*
X155452394Y-84650133D01*
X155325844Y-84782560D01*
X155301630Y-84807898D01*
X155298716Y-84812170D01*
X155298715Y-84812171D01*
X155186096Y-84977264D01*
X155131185Y-85022267D01*
X155082008Y-85032260D01*
X153247903Y-85032260D01*
X153179782Y-85012258D01*
X153146945Y-84981649D01*
X153104998Y-84925475D01*
X153104997Y-84925474D01*
X153101545Y-84920851D01*
X152983976Y-84812171D01*
X152956183Y-84786479D01*
X152956180Y-84786477D01*
X152951943Y-84782560D01*
X152905915Y-84753519D01*
X152784528Y-84676929D01*
X152784523Y-84676927D01*
X152779644Y-84673848D01*
X152590420Y-84598355D01*
X152390606Y-84558609D01*
X152384832Y-84558533D01*
X152384828Y-84558533D01*
X152281692Y-84557184D01*
X152186895Y-84555943D01*
X152181198Y-84556922D01*
X152181197Y-84556922D01*
X151991807Y-84589465D01*
X151986110Y-84590444D01*
X151794974Y-84660958D01*
X151619889Y-84765123D01*
X151466718Y-84899450D01*
X151463151Y-84903975D01*
X151463146Y-84903980D01*
X151405374Y-84977264D01*
X151340591Y-85059441D01*
X151245732Y-85239738D01*
X151185318Y-85434303D01*
X151161372Y-85636619D01*
X148540761Y-85636619D01*
X148524853Y-85443121D01*
X148470432Y-85226462D01*
X148381355Y-85021600D01*
X148260015Y-84834037D01*
X148109671Y-84668811D01*
X148105620Y-84665612D01*
X148105616Y-84665608D01*
X147938415Y-84533560D01*
X147938411Y-84533558D01*
X147934360Y-84530358D01*
X147892570Y-84507289D01*
X147842599Y-84456857D01*
X147827827Y-84387414D01*
X147852943Y-84321008D01*
X147880295Y-84294401D01*
X148055329Y-84169552D01*
X148063201Y-84162899D01*
X148214053Y-84012572D01*
X148220731Y-84004725D01*
X148345004Y-83831780D01*
X148350314Y-83822943D01*
X148444671Y-83632027D01*
X148448470Y-83622432D01*
X148510378Y-83418670D01*
X148512556Y-83408597D01*
X148513987Y-83397722D01*
X148511776Y-83383538D01*
X148498618Y-83379760D01*
X145863226Y-83379760D01*
X145849695Y-83383733D01*
X145848258Y-83393726D01*
X145878566Y-83528206D01*
X145881646Y-83538035D01*
X145961771Y-83735363D01*
X145966414Y-83744554D01*
X146077695Y-83926148D01*
X146083778Y-83934459D01*
X146223214Y-84095427D01*
X146230581Y-84102643D01*
X146394435Y-84238676D01*
X146402882Y-84244591D01*
X146471970Y-84284963D01*
X146520694Y-84336602D01*
X146533765Y-84406385D01*
X146507034Y-84472156D01*
X146466585Y-84505512D01*
X146453608Y-84512267D01*
X146449475Y-84515370D01*
X146449472Y-84515372D01*
X146340450Y-84597228D01*
X146274966Y-84646395D01*
X146271394Y-84650133D01*
X146144844Y-84782560D01*
X146120630Y-84807898D01*
X145994744Y-84992440D01*
X145900689Y-85195065D01*
X145840990Y-85410330D01*
X145817252Y-85632455D01*
X145817549Y-85637608D01*
X145817549Y-85637611D01*
X145823012Y-85732350D01*
X145830111Y-85855475D01*
X145831248Y-85860521D01*
X145831249Y-85860527D01*
X145845924Y-85925643D01*
X145879223Y-86073399D01*
X145963267Y-86280376D01*
X145978422Y-86305107D01*
X146077292Y-86466448D01*
X146079988Y-86470848D01*
X146226251Y-86639698D01*
X146329959Y-86725798D01*
X146391216Y-86776654D01*
X146398127Y-86782392D01*
X146468596Y-86823571D01*
X146471446Y-86825236D01*
X146520170Y-86876874D01*
X146533241Y-86946657D01*
X146506510Y-87012429D01*
X146466056Y-87045787D01*
X146453608Y-87052267D01*
X146449475Y-87055370D01*
X146449472Y-87055372D01*
X146340450Y-87137228D01*
X146274966Y-87186395D01*
X146271394Y-87190133D01*
X146144844Y-87322560D01*
X146120630Y-87347898D01*
X145994744Y-87532440D01*
X145900689Y-87735065D01*
X145840990Y-87950330D01*
X145817252Y-88172455D01*
X145817549Y-88177608D01*
X145817549Y-88177611D01*
X145823012Y-88272350D01*
X145830111Y-88395475D01*
X145831248Y-88400521D01*
X145831249Y-88400527D01*
X145845924Y-88465643D01*
X145879223Y-88613399D01*
X145963267Y-88820376D01*
X145982817Y-88852278D01*
X146071280Y-88996637D01*
X146079988Y-89010848D01*
X146226251Y-89179698D01*
X146329959Y-89265798D01*
X146391216Y-89316654D01*
X146398127Y-89322392D01*
X146468596Y-89363571D01*
X146471446Y-89365236D01*
X146520170Y-89416874D01*
X146533241Y-89486657D01*
X146506510Y-89552429D01*
X146466056Y-89585787D01*
X146453608Y-89592267D01*
X146449475Y-89595370D01*
X146449472Y-89595372D01*
X146340450Y-89677228D01*
X146274966Y-89726395D01*
X146271394Y-89730133D01*
X146144844Y-89862560D01*
X146120630Y-89887898D01*
X145994744Y-90072440D01*
X145900689Y-90275065D01*
X145840990Y-90490330D01*
X145817252Y-90712455D01*
X145817549Y-90717608D01*
X145817549Y-90717611D01*
X145823012Y-90812350D01*
X145830111Y-90935475D01*
X145831248Y-90940521D01*
X145831249Y-90940527D01*
X145845924Y-91005643D01*
X145879223Y-91153399D01*
X145963267Y-91360376D01*
X145982817Y-91392278D01*
X146071280Y-91536637D01*
X146079988Y-91550848D01*
X146226251Y-91719698D01*
X146329959Y-91805798D01*
X146391216Y-91856654D01*
X146398127Y-91862392D01*
X146468596Y-91903571D01*
X146471446Y-91905236D01*
X146520170Y-91956874D01*
X146533241Y-92026657D01*
X146506510Y-92092429D01*
X146466056Y-92125787D01*
X146453608Y-92132267D01*
X146449475Y-92135370D01*
X146449472Y-92135372D01*
X146340450Y-92217228D01*
X146274966Y-92266395D01*
X146271394Y-92270133D01*
X146144844Y-92402560D01*
X146120630Y-92427898D01*
X145994744Y-92612440D01*
X145900689Y-92815065D01*
X145840990Y-93030330D01*
X145817252Y-93252455D01*
X145330002Y-93252455D01*
X145330002Y-80552455D01*
X145817252Y-80552455D01*
X145817549Y-80557608D01*
X145817549Y-80557611D01*
X145823012Y-80652350D01*
X145830111Y-80775475D01*
X145831248Y-80780521D01*
X145831249Y-80780527D01*
X145844598Y-80839760D01*
X145879223Y-80993399D01*
X145963267Y-81200376D01*
X146079988Y-81390848D01*
X146226251Y-81559698D01*
X146398127Y-81702392D01*
X146470979Y-81744963D01*
X146471956Y-81745534D01*
X146520680Y-81797172D01*
X146533751Y-81866955D01*
X146507020Y-81932727D01*
X146466563Y-81966087D01*
X146458458Y-81970306D01*
X146449739Y-81975796D01*
X146279434Y-82103665D01*
X146271727Y-82110508D01*
X146124591Y-82264477D01*
X146118105Y-82272487D01*
X145998099Y-82448409D01*
X145993001Y-82457383D01*
X145903339Y-82650543D01*
X145899776Y-82660230D01*
X145844390Y-82859943D01*
X145845913Y-82868367D01*
X145858293Y-82871760D01*
X148498345Y-82871760D01*
X148511876Y-82867787D01*
X148513181Y-82858707D01*
X148471215Y-82691635D01*
X148467895Y-82681884D01*
X148382973Y-82486574D01*
X148378106Y-82477499D01*
X148262427Y-82298686D01*
X148256137Y-82290517D01*
X148112807Y-82133000D01*
X148105274Y-82125975D01*
X147938140Y-81993982D01*
X147929557Y-81988280D01*
X147892603Y-81967880D01*
X147842632Y-81917447D01*
X147827860Y-81848005D01*
X147852976Y-81781599D01*
X147880328Y-81754992D01*
X147903798Y-81738251D01*
X148059861Y-81626933D01*
X148218097Y-81469249D01*
X148277595Y-81386449D01*
X148345436Y-81292037D01*
X148348454Y-81287837D01*
X148447431Y-81087571D01*
X148512371Y-80873829D01*
X148541530Y-80652350D01*
X148543157Y-80585760D01*
X148524853Y-80363121D01*
X148470432Y-80146462D01*
X148381355Y-79941600D01*
X148260015Y-79754037D01*
X148109671Y-79588811D01*
X148105620Y-79585612D01*
X148105616Y-79585608D01*
X147938415Y-79453560D01*
X147938411Y-79453558D01*
X147934360Y-79450358D01*
X147893054Y-79427556D01*
X147843085Y-79377124D01*
X147828313Y-79307681D01*
X147853429Y-79241276D01*
X147880781Y-79214669D01*
X147924604Y-79183410D01*
X148059861Y-79086933D01*
X148086949Y-79059940D01*
X148214436Y-78932897D01*
X148218097Y-78929249D01*
X148228966Y-78914124D01*
X148345436Y-78752037D01*
X148348454Y-78747837D01*
X148447431Y-78547571D01*
X148512371Y-78333829D01*
X148541530Y-78112350D01*
X148543157Y-78045760D01*
X148524853Y-77823121D01*
X148470432Y-77606462D01*
X148381355Y-77401600D01*
X148305263Y-77283980D01*
X148262823Y-77218377D01*
X148262821Y-77218374D01*
X148260015Y-77214037D01*
X148256533Y-77210210D01*
X148112799Y-77052248D01*
X148081747Y-76988402D01*
X148090142Y-76917903D01*
X148135318Y-76863135D01*
X148161762Y-76849466D01*
X148268298Y-76809527D01*
X148276706Y-76806375D01*
X148393262Y-76719021D01*
X148480616Y-76602465D01*
X148531746Y-76466076D01*
X148538501Y-76403894D01*
X148538501Y-74607626D01*
X148531746Y-74545444D01*
X148480616Y-74409055D01*
X148393262Y-74292499D01*
X148276706Y-74205145D01*
X148140317Y-74154015D01*
X148078135Y-74147260D01*
X146281867Y-74147260D01*
X146219685Y-74154015D01*
X146083296Y-74205145D01*
X145966740Y-74292499D01*
X145879386Y-74409055D01*
X145828256Y-74545444D01*
X145821501Y-74607626D01*
X145821501Y-76403894D01*
X145828256Y-76466076D01*
X145879386Y-76602465D01*
X145966740Y-76719021D01*
X146083296Y-76806375D01*
X146091705Y-76809527D01*
X146091706Y-76809528D01*
X146200452Y-76850295D01*
X146257217Y-76892936D01*
X146281917Y-76959498D01*
X146266710Y-77028847D01*
X146247317Y-77055328D01*
X146120630Y-77187898D01*
X146117716Y-77192170D01*
X146117715Y-77192171D01*
X146085111Y-77239967D01*
X145994744Y-77372440D01*
X145900689Y-77575065D01*
X145840990Y-77790330D01*
X145817252Y-78012455D01*
X145817549Y-78017608D01*
X145817549Y-78017611D01*
X145823012Y-78112350D01*
X145830111Y-78235475D01*
X145831248Y-78240521D01*
X145831249Y-78240527D01*
X145851120Y-78328699D01*
X145879223Y-78453399D01*
X145963267Y-78660376D01*
X145965966Y-78664780D01*
X146071739Y-78837386D01*
X146079988Y-78850848D01*
X146226251Y-79019698D01*
X146329959Y-79105798D01*
X146391216Y-79156654D01*
X146398127Y-79162392D01*
X146468596Y-79203571D01*
X146471446Y-79205236D01*
X146520170Y-79256874D01*
X146533241Y-79326657D01*
X146506510Y-79392429D01*
X146466056Y-79425787D01*
X146453608Y-79432267D01*
X146449475Y-79435370D01*
X146449472Y-79435372D01*
X146425248Y-79453560D01*
X146274966Y-79566395D01*
X146120630Y-79727898D01*
X146117716Y-79732170D01*
X146117715Y-79732171D01*
X146105405Y-79750217D01*
X145994744Y-79912440D01*
X145900689Y-80115065D01*
X145840990Y-80330330D01*
X145817252Y-80552455D01*
X145330002Y-80552455D01*
X145330002Y-72447568D01*
X145992514Y-72447568D01*
X146012469Y-72675655D01*
X146013893Y-72680968D01*
X146013893Y-72680970D01*
X146069905Y-72890006D01*
X146071728Y-72896811D01*
X146074051Y-72901792D01*
X146074051Y-72901793D01*
X146166163Y-73099330D01*
X146166166Y-73099335D01*
X146168489Y-73104317D01*
X146223103Y-73182314D01*
X146280158Y-73263796D01*
X146299814Y-73291868D01*
X146461712Y-73453766D01*
X146466220Y-73456923D01*
X146466223Y-73456925D01*
X146544401Y-73511666D01*
X146649263Y-73585091D01*
X146654245Y-73587414D01*
X146654250Y-73587417D01*
X146851787Y-73679529D01*
X146856769Y-73681852D01*
X146862077Y-73683274D01*
X146862079Y-73683275D01*
X147072610Y-73739687D01*
X147072612Y-73739687D01*
X147077925Y-73741111D01*
X147306012Y-73761066D01*
X147534099Y-73741111D01*
X147539412Y-73739687D01*
X147539414Y-73739687D01*
X147749945Y-73683275D01*
X147749947Y-73683274D01*
X147755255Y-73681852D01*
X147760237Y-73679529D01*
X147957774Y-73587417D01*
X147957779Y-73587414D01*
X147962761Y-73585091D01*
X148067623Y-73511666D01*
X148145801Y-73456925D01*
X148145804Y-73456923D01*
X148150312Y-73453766D01*
X148312210Y-73291868D01*
X148315371Y-73287354D01*
X148331867Y-73263796D01*
X148387324Y-73219468D01*
X148435079Y-73210068D01*
X150987984Y-73210068D01*
X151056105Y-73230070D01*
X151077079Y-73246973D01*
X151474835Y-73644729D01*
X151508861Y-73707041D01*
X151511740Y-73733824D01*
X151511740Y-77182877D01*
X151491738Y-77250998D01*
X151474533Y-77270974D01*
X151475036Y-77271452D01*
X151471055Y-77275646D01*
X151466718Y-77279450D01*
X151463151Y-77283975D01*
X151463146Y-77283980D01*
X151396784Y-77368161D01*
X151340591Y-77439441D01*
X151245732Y-77619738D01*
X151185318Y-77814303D01*
X151161372Y-78016619D01*
X151174697Y-78219911D01*
X151224845Y-78417370D01*
X151310138Y-78602384D01*
X151427719Y-78768757D01*
X151573650Y-78910917D01*
X151578446Y-78914122D01*
X151578449Y-78914124D01*
X151606545Y-78932897D01*
X151743043Y-79024102D01*
X151748346Y-79026380D01*
X151748349Y-79026382D01*
X151889285Y-79086933D01*
X151930227Y-79104523D01*
X152003057Y-79121003D01*
X152123295Y-79148210D01*
X152123300Y-79148211D01*
X152128932Y-79149485D01*
X152134703Y-79149712D01*
X152134705Y-79149712D01*
X152197710Y-79152187D01*
X152332503Y-79157483D01*
X152534123Y-79128250D01*
X152539587Y-79126395D01*
X152539592Y-79126394D01*
X152721567Y-79064622D01*
X152721572Y-79064620D01*
X152727039Y-79062764D01*
X152904791Y-78963218D01*
X153056088Y-78837386D01*
X153121251Y-78809205D01*
X153136656Y-78808260D01*
X155166543Y-78808260D01*
X155234664Y-78828262D01*
X155261780Y-78851763D01*
X155358326Y-78963218D01*
X155407251Y-79019698D01*
X155510959Y-79105798D01*
X155572216Y-79156654D01*
X155579127Y-79162392D01*
X155652446Y-79205236D01*
X155652956Y-79205534D01*
X155701680Y-79257172D01*
X155714751Y-79326955D01*
X155688020Y-79392727D01*
X155647563Y-79426087D01*
X155639458Y-79430306D01*
X155630739Y-79435796D01*
X155460434Y-79563665D01*
X155452727Y-79570508D01*
X155305591Y-79724477D01*
X155299105Y-79732487D01*
X155179099Y-79908409D01*
X155174001Y-79917383D01*
X155084339Y-80110543D01*
X155080776Y-80120230D01*
X155025390Y-80319943D01*
X155026913Y-80328367D01*
X155039293Y-80331760D01*
X157679345Y-80331760D01*
X157692876Y-80327787D01*
X157694181Y-80318707D01*
X157652215Y-80151635D01*
X157648895Y-80141884D01*
X157563973Y-79946574D01*
X157559106Y-79937499D01*
X157443427Y-79758686D01*
X157437137Y-79750517D01*
X157293807Y-79593000D01*
X157286274Y-79585975D01*
X157119140Y-79453982D01*
X157110557Y-79448280D01*
X157073603Y-79427880D01*
X157023632Y-79377447D01*
X157008860Y-79308005D01*
X157033976Y-79241599D01*
X157061328Y-79214992D01*
X157084798Y-79198251D01*
X157240861Y-79086933D01*
X157267949Y-79059940D01*
X157395436Y-78932897D01*
X157399097Y-78929249D01*
X157409966Y-78914124D01*
X157526436Y-78752037D01*
X157529454Y-78747837D01*
X157628431Y-78547571D01*
X157693371Y-78333829D01*
X157722530Y-78112350D01*
X157724157Y-78045760D01*
X157705853Y-77823121D01*
X157651432Y-77606462D01*
X157562355Y-77401600D01*
X157486263Y-77283980D01*
X157443823Y-77218377D01*
X157443821Y-77218374D01*
X157441015Y-77214037D01*
X157437533Y-77210210D01*
X157293799Y-77052248D01*
X157262747Y-76988402D01*
X157271142Y-76917903D01*
X157316318Y-76863135D01*
X157342762Y-76849466D01*
X157449298Y-76809527D01*
X157457706Y-76806375D01*
X157574262Y-76719021D01*
X157661616Y-76602465D01*
X157712746Y-76466076D01*
X157719501Y-76403894D01*
X157719501Y-74607626D01*
X157712746Y-74545444D01*
X157661616Y-74409055D01*
X157574262Y-74292499D01*
X157457706Y-74205145D01*
X157321317Y-74154015D01*
X157259135Y-74147260D01*
X155462867Y-74147260D01*
X155400685Y-74154015D01*
X155264296Y-74205145D01*
X155147740Y-74292499D01*
X155060386Y-74409055D01*
X155009256Y-74545444D01*
X155002501Y-74607626D01*
X155002501Y-76403894D01*
X155009256Y-76466076D01*
X155060386Y-76602465D01*
X155147740Y-76719021D01*
X155264296Y-76806375D01*
X155272705Y-76809527D01*
X155272706Y-76809528D01*
X155381452Y-76850295D01*
X155438217Y-76892936D01*
X155462917Y-76959498D01*
X155447710Y-77028847D01*
X155428317Y-77055328D01*
X155301630Y-77187898D01*
X155298716Y-77192170D01*
X155274093Y-77228265D01*
X155219181Y-77273267D01*
X155170005Y-77283260D01*
X153162740Y-77283260D01*
X153094619Y-77263258D01*
X153048126Y-77209602D01*
X153036740Y-77157260D01*
X153036740Y-73433164D01*
X153038173Y-73414213D01*
X153040363Y-73399820D01*
X153040363Y-73399818D01*
X153041463Y-73392588D01*
X153037155Y-73339621D01*
X153036740Y-73329407D01*
X153036740Y-73321271D01*
X153033430Y-73292880D01*
X153032997Y-73288505D01*
X153027643Y-73222668D01*
X153027642Y-73222665D01*
X153027049Y-73215369D01*
X153024794Y-73208407D01*
X153023594Y-73202403D01*
X153022188Y-73196456D01*
X153021341Y-73189189D01*
X152996293Y-73120183D01*
X152994865Y-73116023D01*
X152974508Y-73053183D01*
X152974506Y-73053178D01*
X152972252Y-73046221D01*
X152968458Y-73039969D01*
X152965906Y-73034394D01*
X152963170Y-73028931D01*
X152960674Y-73022055D01*
X152920421Y-72960659D01*
X152918074Y-72956940D01*
X152884610Y-72901793D01*
X152880012Y-72894215D01*
X152872572Y-72885790D01*
X152872600Y-72885765D01*
X152870006Y-72882840D01*
X152867201Y-72879486D01*
X152863186Y-72873361D01*
X152806653Y-72819807D01*
X152804212Y-72817430D01*
X151942822Y-71956040D01*
X151930435Y-71941627D01*
X151921807Y-71929903D01*
X151917466Y-71924004D01*
X151876957Y-71889589D01*
X151869441Y-71882659D01*
X151863697Y-71876915D01*
X151860823Y-71874641D01*
X151860816Y-71874635D01*
X151841301Y-71859196D01*
X151837897Y-71856405D01*
X151787540Y-71813623D01*
X151787536Y-71813620D01*
X151781961Y-71808884D01*
X151775444Y-71805556D01*
X151770380Y-71802179D01*
X151765156Y-71798952D01*
X151759412Y-71794408D01*
X151733121Y-71782120D01*
X151692930Y-71763336D01*
X151688979Y-71761405D01*
X151630129Y-71731355D01*
X151623608Y-71728025D01*
X151616493Y-71726284D01*
X151610747Y-71724147D01*
X151604964Y-71722223D01*
X151598333Y-71719124D01*
X151526455Y-71704174D01*
X151522183Y-71703207D01*
X151450900Y-71685764D01*
X151445301Y-71685417D01*
X151445297Y-71685416D01*
X151439682Y-71685068D01*
X151439684Y-71685029D01*
X151435783Y-71684796D01*
X151431424Y-71684407D01*
X151424256Y-71682916D01*
X151416939Y-71683114D01*
X151346435Y-71685022D01*
X151343026Y-71685068D01*
X148435079Y-71685068D01*
X148366958Y-71665066D01*
X148331867Y-71631340D01*
X148315371Y-71607782D01*
X148315369Y-71607780D01*
X148312210Y-71603268D01*
X148150312Y-71441370D01*
X148145804Y-71438213D01*
X148145801Y-71438211D01*
X147967265Y-71313199D01*
X147962761Y-71310045D01*
X147957777Y-71307721D01*
X147955484Y-71306397D01*
X147906491Y-71255015D01*
X147893055Y-71185301D01*
X147919441Y-71119390D01*
X147955484Y-71088159D01*
X147967014Y-71081502D01*
X148019060Y-71045059D01*
X148027436Y-71034580D01*
X148020368Y-71021134D01*
X147318824Y-70319590D01*
X147304880Y-70311976D01*
X147303047Y-70312107D01*
X147296432Y-70316358D01*
X146590935Y-71021855D01*
X146584505Y-71033630D01*
X146593801Y-71045645D01*
X146645010Y-71081502D01*
X146656540Y-71088159D01*
X146705533Y-71139541D01*
X146718970Y-71209255D01*
X146692583Y-71275166D01*
X146656540Y-71306397D01*
X146654247Y-71307721D01*
X146649263Y-71310045D01*
X146644759Y-71313199D01*
X146466223Y-71438211D01*
X146466220Y-71438213D01*
X146461712Y-71441370D01*
X146299814Y-71603268D01*
X146296657Y-71607776D01*
X146296655Y-71607779D01*
X146256542Y-71665066D01*
X146168489Y-71790819D01*
X146166166Y-71795801D01*
X146166163Y-71795806D01*
X146074051Y-71993343D01*
X146071728Y-71998325D01*
X146012469Y-72219481D01*
X145992514Y-72447568D01*
X145330002Y-72447568D01*
X145330002Y-69953043D01*
X145993495Y-69953043D01*
X146012484Y-70170087D01*
X146014387Y-70180880D01*
X146070776Y-70391329D01*
X146074522Y-70401621D01*
X146166598Y-70599079D01*
X146172081Y-70608574D01*
X146208521Y-70660616D01*
X146219000Y-70668992D01*
X146232446Y-70661924D01*
X146933990Y-69960380D01*
X146940368Y-69948700D01*
X147670420Y-69948700D01*
X147670551Y-69950533D01*
X147674802Y-69957148D01*
X148380299Y-70662645D01*
X148392074Y-70669075D01*
X148404089Y-70659779D01*
X148439943Y-70608574D01*
X148445426Y-70599079D01*
X148537502Y-70401621D01*
X148541248Y-70391329D01*
X148597637Y-70180880D01*
X148599540Y-70170087D01*
X148618529Y-69953043D01*
X148618529Y-69942093D01*
X148599540Y-69725049D01*
X148597637Y-69714256D01*
X148541248Y-69503807D01*
X148537502Y-69493515D01*
X148445426Y-69296057D01*
X148439943Y-69286562D01*
X148403503Y-69234520D01*
X148393024Y-69226144D01*
X148379578Y-69233212D01*
X147678034Y-69934756D01*
X147670420Y-69948700D01*
X146940368Y-69948700D01*
X146941604Y-69946436D01*
X146941473Y-69944603D01*
X146937222Y-69937988D01*
X146231725Y-69232491D01*
X146219950Y-69226061D01*
X146207935Y-69235357D01*
X146172081Y-69286562D01*
X146166598Y-69296057D01*
X146074522Y-69493515D01*
X146070776Y-69503807D01*
X146014387Y-69714256D01*
X146012484Y-69725049D01*
X145993495Y-69942093D01*
X145993495Y-69953043D01*
X145330002Y-69953043D01*
X145330002Y-68860556D01*
X146584588Y-68860556D01*
X146591656Y-68874002D01*
X147293200Y-69575546D01*
X147307144Y-69583160D01*
X147308977Y-69583029D01*
X147315592Y-69578778D01*
X148021089Y-68873281D01*
X148027519Y-68861506D01*
X148018223Y-68849491D01*
X147967018Y-68813637D01*
X147957523Y-68808154D01*
X147760065Y-68716078D01*
X147749773Y-68712332D01*
X147539324Y-68655943D01*
X147528531Y-68654040D01*
X147311487Y-68635051D01*
X147300537Y-68635051D01*
X147083493Y-68654040D01*
X147072700Y-68655943D01*
X146862251Y-68712332D01*
X146851959Y-68716078D01*
X146654501Y-68808154D01*
X146645006Y-68813637D01*
X146592964Y-68850077D01*
X146584588Y-68860556D01*
X145330002Y-68860556D01*
X145330002Y-65341449D01*
X146758691Y-65341449D01*
X146775240Y-65628463D01*
X146776065Y-65632668D01*
X146776066Y-65632676D01*
X146808012Y-65795501D01*
X146830588Y-65910575D01*
X146831975Y-65914625D01*
X146831976Y-65914630D01*
X146922323Y-66178510D01*
X146923712Y-66182566D01*
X147052887Y-66439402D01*
X147215723Y-66676330D01*
X147409208Y-66888968D01*
X147412503Y-66891723D01*
X147412504Y-66891724D01*
X147463260Y-66934162D01*
X147629761Y-67073378D01*
X147873300Y-67226151D01*
X148135320Y-67344457D01*
X148139439Y-67345677D01*
X148406859Y-67424891D01*
X148406864Y-67424892D01*
X148410972Y-67426109D01*
X148415206Y-67426757D01*
X148415211Y-67426758D01*
X148663813Y-67464799D01*
X148695155Y-67469595D01*
X148841487Y-67471894D01*
X148978319Y-67474044D01*
X148978325Y-67474044D01*
X148982610Y-67474111D01*
X148986862Y-67473596D01*
X148986870Y-67473596D01*
X149263758Y-67440088D01*
X149263763Y-67440087D01*
X149268019Y-67439572D01*
X149546099Y-67366619D01*
X149811706Y-67256601D01*
X150059924Y-67111554D01*
X150286161Y-66934162D01*
X150327287Y-66891724D01*
X150483246Y-66730786D01*
X150486229Y-66727708D01*
X150488762Y-66724260D01*
X150488766Y-66724255D01*
X150653889Y-66499466D01*
X150656427Y-66496011D01*
X150793606Y-66243359D01*
X150895227Y-65974428D01*
X150959409Y-65694193D01*
X150984965Y-65407840D01*
X150985429Y-65363580D01*
X150983920Y-65341449D01*
X161736689Y-65341449D01*
X161753238Y-65628463D01*
X161754063Y-65632668D01*
X161754064Y-65632676D01*
X161786010Y-65795501D01*
X161808586Y-65910575D01*
X161809973Y-65914625D01*
X161809974Y-65914630D01*
X161900321Y-66178510D01*
X161901710Y-66182566D01*
X162030885Y-66439402D01*
X162193721Y-66676330D01*
X162387206Y-66888968D01*
X162390501Y-66891723D01*
X162390502Y-66891724D01*
X162441258Y-66934162D01*
X162607759Y-67073378D01*
X162851298Y-67226151D01*
X163113318Y-67344457D01*
X163117437Y-67345677D01*
X163384857Y-67424891D01*
X163384862Y-67424892D01*
X163388970Y-67426109D01*
X163393204Y-67426757D01*
X163393209Y-67426758D01*
X163641811Y-67464799D01*
X163673153Y-67469595D01*
X163819485Y-67471894D01*
X163956317Y-67474044D01*
X163956323Y-67474044D01*
X163960608Y-67474111D01*
X163964860Y-67473596D01*
X163964868Y-67473596D01*
X164241756Y-67440088D01*
X164241761Y-67440087D01*
X164246017Y-67439572D01*
X164524097Y-67366619D01*
X164789704Y-67256601D01*
X165037922Y-67111554D01*
X165264159Y-66934162D01*
X165305285Y-66891724D01*
X165461244Y-66730786D01*
X165464227Y-66727708D01*
X165466760Y-66724260D01*
X165466764Y-66724255D01*
X165631887Y-66499466D01*
X165634425Y-66496011D01*
X165771604Y-66243359D01*
X165873225Y-65974428D01*
X165937407Y-65694193D01*
X165962963Y-65407840D01*
X165963427Y-65363580D01*
X165943873Y-65076755D01*
X165939336Y-65054844D01*
X165886443Y-64799435D01*
X165885574Y-64795238D01*
X165789607Y-64524237D01*
X165693912Y-64338831D01*
X165659715Y-64272575D01*
X165659715Y-64272574D01*
X165657750Y-64268768D01*
X165644488Y-64249897D01*
X165494904Y-64037062D01*
X165492441Y-64033557D01*
X165296740Y-63822958D01*
X165074268Y-63640867D01*
X164829142Y-63490653D01*
X164811048Y-63482710D01*
X164569830Y-63376823D01*
X164565898Y-63375097D01*
X164539963Y-63367709D01*
X164293534Y-63297512D01*
X164293535Y-63297512D01*
X164289406Y-63296336D01*
X164076704Y-63266065D01*
X164009036Y-63256434D01*
X164009034Y-63256434D01*
X164004784Y-63255829D01*
X164000495Y-63255807D01*
X164000488Y-63255806D01*
X163721583Y-63254345D01*
X163721576Y-63254345D01*
X163717297Y-63254323D01*
X163713053Y-63254882D01*
X163713049Y-63254882D01*
X163587660Y-63271390D01*
X163432266Y-63291848D01*
X163428126Y-63292981D01*
X163428124Y-63292981D01*
X163351311Y-63313995D01*
X163154964Y-63367709D01*
X163151016Y-63369393D01*
X162894476Y-63478817D01*
X162894472Y-63478819D01*
X162890524Y-63480503D01*
X162765960Y-63555053D01*
X162647521Y-63625937D01*
X162647517Y-63625940D01*
X162643839Y-63628141D01*
X162419472Y-63807893D01*
X162302372Y-63931291D01*
X162231755Y-64005706D01*
X162221577Y-64016431D01*
X162053814Y-64249897D01*
X161919288Y-64503972D01*
X161820489Y-64773953D01*
X161759245Y-65054844D01*
X161736689Y-65341449D01*
X150983920Y-65341449D01*
X150965875Y-65076755D01*
X150961338Y-65054844D01*
X150908445Y-64799435D01*
X150907576Y-64795238D01*
X150811609Y-64524237D01*
X150715914Y-64338831D01*
X150681717Y-64272575D01*
X150681717Y-64272574D01*
X150679752Y-64268768D01*
X150666490Y-64249897D01*
X150516906Y-64037062D01*
X150514443Y-64033557D01*
X150318742Y-63822958D01*
X150096270Y-63640867D01*
X149851144Y-63490653D01*
X149833050Y-63482710D01*
X149591832Y-63376823D01*
X149587900Y-63375097D01*
X149561965Y-63367709D01*
X149315536Y-63297512D01*
X149315537Y-63297512D01*
X149311408Y-63296336D01*
X149098706Y-63266065D01*
X149031038Y-63256434D01*
X149031036Y-63256434D01*
X149026786Y-63255829D01*
X149022497Y-63255807D01*
X149022490Y-63255806D01*
X148743585Y-63254345D01*
X148743578Y-63254345D01*
X148739299Y-63254323D01*
X148735055Y-63254882D01*
X148735051Y-63254882D01*
X148609662Y-63271390D01*
X148454268Y-63291848D01*
X148450128Y-63292981D01*
X148450126Y-63292981D01*
X148373313Y-63313995D01*
X148176966Y-63367709D01*
X148173018Y-63369393D01*
X147916478Y-63478817D01*
X147916474Y-63478819D01*
X147912526Y-63480503D01*
X147787962Y-63555053D01*
X147669523Y-63625937D01*
X147669519Y-63625940D01*
X147665841Y-63628141D01*
X147441474Y-63807893D01*
X147324374Y-63931291D01*
X147253757Y-64005706D01*
X147243579Y-64016431D01*
X147075816Y-64249897D01*
X146941290Y-64503972D01*
X146842491Y-64773953D01*
X146781247Y-65054844D01*
X146758691Y-65341449D01*
X145330002Y-65341449D01*
X145330002Y-64362908D01*
X145331502Y-64343523D01*
X145333807Y-64328722D01*
X145333807Y-64328719D01*
X145335188Y-64319850D01*
X145332943Y-64302681D01*
X145332110Y-64278741D01*
X145347712Y-64020810D01*
X145349546Y-64005706D01*
X145385796Y-63807893D01*
X145401042Y-63724701D01*
X145404681Y-63709933D01*
X145430856Y-63625937D01*
X145489677Y-63437172D01*
X145495072Y-63422950D01*
X145519934Y-63367709D01*
X145612318Y-63162440D01*
X145619387Y-63148971D01*
X145767184Y-62904485D01*
X145775827Y-62891963D01*
X145952018Y-62667073D01*
X145962108Y-62655685D01*
X146164107Y-62453686D01*
X146175495Y-62443596D01*
X146400385Y-62267405D01*
X146412907Y-62258762D01*
X146657393Y-62110965D01*
X146670862Y-62103896D01*
X146931375Y-61986649D01*
X146945594Y-61981255D01*
X147218361Y-61896258D01*
X147233123Y-61892620D01*
X147443354Y-61854094D01*
X147514128Y-61841124D01*
X147529232Y-61839290D01*
X147779931Y-61824125D01*
X147806641Y-61825382D01*
X147806861Y-61825385D01*
X147815732Y-61826766D01*
X147824634Y-61825602D01*
X147824637Y-61825602D01*
X147847253Y-61822644D01*
X147863591Y-61821580D01*
X164850672Y-61821580D01*
X164870057Y-61823080D01*
G37*
%TD.AperFunction*%
%TD*%
M02*
