M48
; DRILL file {KiCad (6.0.0)} date Sun Apr  3 10:23:04 2022
; FORMAT={-:-/ absolute / inch / decimal}
; #@! TF.CreationDate,2022-04-03T10:23:04-04:00
; #@! TF.GenerationSoftware,Kicad,Pcbnew,(6.0.0)
; #@! TF.FileFunction,Plated,1,2,PTH
FMAT,2
INCH
; #@! TA.AperFunction,Plated,PTH,ViaDrill
T1C0.0236
; #@! TA.AperFunction,Plated,PTH,ComponentDrill
T2C0.0315
; #@! TA.AperFunction,Plated,PTH,ComponentDrill
T3C0.0354
; #@! TA.AperFunction,Plated,PTH,ComponentDrill
T4C0.0394
; #@! TA.AperFunction,Plated,PTH,ComponentDrill
T5C0.1260
%
G90
G05
T1
X4.1004Y-3.3421
X4.128Y-2.2319
X4.1359Y-2.4566
X4.1359Y-3.0566
X4.1364Y-2.7566
X4.1914Y-2.3362
X4.2422Y-3.224
X4.2437Y-2.9566
X4.4479Y-3.4553
X4.6556Y-2.5547
X4.6556Y-3.1571
X4.6927Y-2.2319
T2
X4.0414Y-2.2378
X4.0414Y-2.3362
X4.2004Y-3.3421
X4.6004Y-3.3421
T3
X4.3479Y-3.6138
X4.4479Y-3.6138
T4
X4.0364Y-2.4566
X4.0364Y-2.5566
X4.0364Y-2.6566
X4.0364Y-2.7566
X4.0364Y-2.8566
X4.0364Y-2.9566
X4.0364Y-3.0566
X4.0364Y-3.1566
X4.3979Y-2.4566
X4.3979Y-2.5566
X4.3979Y-2.6566
X4.3979Y-2.7566
X4.3979Y-2.8566
X4.3979Y-2.9566
X4.3979Y-3.0566
X4.3979Y-3.1566
X4.7593Y-2.4566
X4.7593Y-2.5566
X4.7593Y-2.6566
X4.7593Y-2.7566
X4.7593Y-2.8566
X4.7593Y-2.9566
X4.7593Y-3.0566
X4.7593Y-3.1566
T5
X4.103Y-2.0573
X4.103Y-3.5548
X4.6927Y-2.0573
X4.6927Y-3.5548
T0
M30
