%TF.GenerationSoftware,KiCad,Pcbnew,(6.0.0)*%
%TF.CreationDate,2022-03-13T20:35:09-04:00*%
%TF.ProjectId,JTAG_ISP-HDR,4a544147-5f49-4535-902d-4844522e6b69,v1.0.0*%
%TF.SameCoordinates,Original*%
%TF.FileFunction,Copper,L1,Top*%
%TF.FilePolarity,Positive*%
%FSLAX46Y46*%
G04 Gerber Fmt 4.6, Leading zero omitted, Abs format (unit mm)*
G04 Created by KiCad (PCBNEW (6.0.0)) date 2022-03-13 20:35:09*
%MOMM*%
%LPD*%
G01*
G04 APERTURE LIST*
%TA.AperFunction,NonConductor*%
%ADD10C,0.508000*%
%TD*%
%ADD11C,0.150000*%
%TA.AperFunction,NonConductor*%
%ADD12C,0.150000*%
%TD*%
%TA.AperFunction,ComponentPad*%
%ADD13C,3.200001*%
%TD*%
%TA.AperFunction,ComponentPad*%
%ADD14C,1.600000*%
%TD*%
%TA.AperFunction,ComponentPad*%
%ADD15R,1.700000X1.700000*%
%TD*%
%TA.AperFunction,ComponentPad*%
%ADD16O,1.700000X1.700000*%
%TD*%
%TA.AperFunction,ComponentPad*%
%ADD17C,1.700000*%
%TD*%
%TA.AperFunction,ViaPad*%
%ADD18C,1.200000*%
%TD*%
%TA.AperFunction,Conductor*%
%ADD19C,0.508000*%
%TD*%
%TA.AperFunction,Conductor*%
%ADD20C,0.250000*%
%TD*%
G04 APERTURE END LIST*
D10*
X160475000Y-76450000D02*
X159125000Y-75500000D01*
X160575000Y-74950000D02*
X159325000Y-75850000D01*
X160475000Y-74750000D02*
X159875000Y-76100000D01*
X160624998Y-74124995D02*
X160624998Y-76825005D01*
X158625002Y-75474995D02*
X160624998Y-76825005D01*
X160375000Y-74575000D02*
X160375000Y-76425000D01*
X160375000Y-74600000D02*
X159125000Y-75500000D01*
X160624998Y-74124995D02*
X158624993Y-75474995D01*
X160475000Y-74750000D02*
X159225000Y-75650000D01*
D11*
D12*
X153356012Y-95932068D02*
X153956012Y-95932068D01*
X153656012Y-96982068D02*
X153656012Y-95932068D01*
X154306012Y-96982068D02*
X154306012Y-95932068D01*
X154306012Y-96432068D02*
X154906012Y-96432068D01*
X154906012Y-96982068D02*
X154906012Y-95932068D01*
X155606012Y-95932068D02*
X155806012Y-95932068D01*
X155906012Y-95982068D01*
X156006012Y-96082068D01*
X156056012Y-96282068D01*
X156056012Y-96632068D01*
X156006012Y-96832068D01*
X155906012Y-96932068D01*
X155806012Y-96982068D01*
X155606012Y-96982068D01*
X155506012Y-96932068D01*
X155406012Y-96832068D01*
X155356012Y-96632068D01*
X155356012Y-96282068D01*
X155406012Y-96082068D01*
X155506012Y-95982068D01*
X155606012Y-95932068D01*
X156506012Y-96982068D02*
X156506012Y-95932068D01*
X156856012Y-96682068D01*
X157206012Y-95932068D01*
X157206012Y-96982068D01*
X157656012Y-96682068D02*
X158156012Y-96682068D01*
X157556012Y-96982068D02*
X157906012Y-95932068D01*
X158256012Y-96982068D01*
X158556012Y-96932068D02*
X158706012Y-96982068D01*
X158956012Y-96982068D01*
X159056012Y-96932068D01*
X159106012Y-96882068D01*
X159156012Y-96782068D01*
X159156012Y-96682068D01*
X159106012Y-96582068D01*
X159056012Y-96532068D01*
X158956012Y-96482068D01*
X158756012Y-96432068D01*
X158656012Y-96382068D01*
X158606012Y-96332068D01*
X158556012Y-96232068D01*
X158556012Y-96132068D01*
X158606012Y-96032068D01*
X158656012Y-95982068D01*
X158756012Y-95932068D01*
X159006012Y-95932068D01*
X159156012Y-95982068D01*
X151731012Y-98672568D02*
X151731012Y-97622568D01*
X151981012Y-97622568D01*
X152131012Y-97672568D01*
X152231012Y-97772568D01*
X152281012Y-97872568D01*
X152331012Y-98072568D01*
X152331012Y-98222568D01*
X152281012Y-98422568D01*
X152231012Y-98522568D01*
X152131012Y-98622568D01*
X151981012Y-98672568D01*
X151731012Y-98672568D01*
X152781012Y-98122568D02*
X153131012Y-98122568D01*
X153281012Y-98672568D02*
X152781012Y-98672568D01*
X152781012Y-97622568D01*
X153281012Y-97622568D01*
X153681012Y-98622568D02*
X153831012Y-98672568D01*
X154081012Y-98672568D01*
X154181012Y-98622568D01*
X154231012Y-98572568D01*
X154281012Y-98472568D01*
X154281012Y-98372568D01*
X154231012Y-98272568D01*
X154181012Y-98222568D01*
X154081012Y-98172568D01*
X153881012Y-98122568D01*
X153781012Y-98072568D01*
X153731012Y-98022568D01*
X153681012Y-97922568D01*
X153681012Y-97822568D01*
X153731012Y-97722568D01*
X153781012Y-97672568D01*
X153881012Y-97622568D01*
X154131012Y-97622568D01*
X154281012Y-97672568D01*
X155331012Y-98672568D02*
X154981012Y-98172568D01*
X154731012Y-98672568D02*
X154731012Y-97622568D01*
X155131012Y-97622568D01*
X155231012Y-97672568D01*
X155281012Y-97722568D01*
X155331012Y-97822568D01*
X155331012Y-97972568D01*
X155281012Y-98072568D01*
X155231012Y-98122568D01*
X155131012Y-98172568D01*
X154731012Y-98172568D01*
X155981012Y-97622568D02*
X156181012Y-97622568D01*
X156281012Y-97672568D01*
X156381012Y-97772568D01*
X156431012Y-97972568D01*
X156431012Y-98322568D01*
X156381012Y-98522568D01*
X156281012Y-98622568D01*
X156181012Y-98672568D01*
X155981012Y-98672568D01*
X155881012Y-98622568D01*
X155781012Y-98522568D01*
X155731012Y-98322568D01*
X155731012Y-97972568D01*
X155781012Y-97772568D01*
X155881012Y-97672568D01*
X155981012Y-97622568D01*
X156831012Y-98622568D02*
X156981012Y-98672568D01*
X157231012Y-98672568D01*
X157331012Y-98622568D01*
X157381012Y-98572568D01*
X157431012Y-98472568D01*
X157431012Y-98372568D01*
X157381012Y-98272568D01*
X157331012Y-98222568D01*
X157231012Y-98172568D01*
X157031012Y-98122568D01*
X156931012Y-98072568D01*
X156881012Y-98022568D01*
X156831012Y-97922568D01*
X156831012Y-97822568D01*
X156881012Y-97722568D01*
X156931012Y-97672568D01*
X157031012Y-97622568D01*
X157281012Y-97622568D01*
X157431012Y-97672568D01*
X157881012Y-98672568D02*
X157881012Y-97622568D01*
X158381012Y-98122568D02*
X158731012Y-98122568D01*
X158881012Y-98672568D02*
X158381012Y-98672568D01*
X158381012Y-97622568D01*
X158881012Y-97622568D01*
X159931012Y-98672568D02*
X159581012Y-98172568D01*
X159331012Y-98672568D02*
X159331012Y-97622568D01*
X159731012Y-97622568D01*
X159831012Y-97672568D01*
X159881012Y-97722568D01*
X159931012Y-97822568D01*
X159931012Y-97972568D01*
X159881012Y-98072568D01*
X159831012Y-98122568D01*
X159731012Y-98172568D01*
X159331012Y-98172568D01*
X160331012Y-98622568D02*
X160481012Y-98672568D01*
X160731012Y-98672568D01*
X160831012Y-98622568D01*
X160881012Y-98572568D01*
X160931012Y-98472568D01*
X160931012Y-98372568D01*
X160881012Y-98272568D01*
X160831012Y-98222568D01*
X160731012Y-98172568D01*
X160531012Y-98122568D01*
X160431012Y-98072568D01*
X160381012Y-98022568D01*
X160331012Y-97922568D01*
X160331012Y-97822568D01*
X160381012Y-97722568D01*
X160431012Y-97672568D01*
X160531012Y-97622568D01*
X160781012Y-97622568D01*
X160931012Y-97672568D01*
X151206012Y-99413068D02*
X151256012Y-99363068D01*
X151356012Y-99313068D01*
X151606012Y-99313068D01*
X151706012Y-99363068D01*
X151756012Y-99413068D01*
X151806012Y-99513068D01*
X151806012Y-99613068D01*
X151756012Y-99763068D01*
X151156012Y-100363068D01*
X151806012Y-100363068D01*
X152456012Y-99313068D02*
X152556012Y-99313068D01*
X152656012Y-99363068D01*
X152706012Y-99413068D01*
X152756012Y-99513068D01*
X152806012Y-99713068D01*
X152806012Y-99963068D01*
X152756012Y-100163068D01*
X152706012Y-100263068D01*
X152656012Y-100313068D01*
X152556012Y-100363068D01*
X152456012Y-100363068D01*
X152356012Y-100313068D01*
X152306012Y-100263068D01*
X152256012Y-100163068D01*
X152206012Y-99963068D01*
X152206012Y-99713068D01*
X152256012Y-99513068D01*
X152306012Y-99413068D01*
X152356012Y-99363068D01*
X152456012Y-99313068D01*
X153206012Y-99413068D02*
X153256012Y-99363068D01*
X153356012Y-99313068D01*
X153606012Y-99313068D01*
X153706012Y-99363068D01*
X153756012Y-99413068D01*
X153806012Y-99513068D01*
X153806012Y-99613068D01*
X153756012Y-99763068D01*
X153156012Y-100363068D01*
X153806012Y-100363068D01*
X154206012Y-99413068D02*
X154256012Y-99363068D01*
X154356012Y-99313068D01*
X154606012Y-99313068D01*
X154706012Y-99363068D01*
X154756012Y-99413068D01*
X154806012Y-99513068D01*
X154806012Y-99613068D01*
X154756012Y-99763068D01*
X154156012Y-100363068D01*
X154806012Y-100363068D01*
X155256012Y-99963068D02*
X156056012Y-99963068D01*
X156756012Y-99313068D02*
X156856012Y-99313068D01*
X156956012Y-99363068D01*
X157006012Y-99413068D01*
X157056012Y-99513068D01*
X157106012Y-99713068D01*
X157106012Y-99963068D01*
X157056012Y-100163068D01*
X157006012Y-100263068D01*
X156956012Y-100313068D01*
X156856012Y-100363068D01*
X156756012Y-100363068D01*
X156656012Y-100313068D01*
X156606012Y-100263068D01*
X156556012Y-100163068D01*
X156506012Y-99963068D01*
X156506012Y-99713068D01*
X156556012Y-99513068D01*
X156606012Y-99413068D01*
X156656012Y-99363068D01*
X156756012Y-99313068D01*
X157456012Y-99313068D02*
X158106012Y-99313068D01*
X157756012Y-99713068D01*
X157906012Y-99713068D01*
X158006012Y-99763068D01*
X158056012Y-99813068D01*
X158106012Y-99913068D01*
X158106012Y-100163068D01*
X158056012Y-100263068D01*
X158006012Y-100313068D01*
X157906012Y-100363068D01*
X157606012Y-100363068D01*
X157506012Y-100313068D01*
X157456012Y-100263068D01*
X158556012Y-99963068D02*
X159356012Y-99963068D01*
X160406012Y-100363068D02*
X159806012Y-100363068D01*
X160106012Y-100363068D02*
X160106012Y-99313068D01*
X160006012Y-99463068D01*
X159906012Y-99563068D01*
X159806012Y-99613068D01*
X160756012Y-99313068D02*
X161406012Y-99313068D01*
X161056012Y-99713068D01*
X161206012Y-99713068D01*
X161306012Y-99763068D01*
X161356012Y-99813068D01*
X161406012Y-99913068D01*
X161406012Y-100163068D01*
X161356012Y-100263068D01*
X161306012Y-100313068D01*
X161206012Y-100363068D01*
X160906012Y-100363068D01*
X160806012Y-100313068D01*
X160756012Y-100263068D01*
D13*
%TO.P,REF\u002A\u002A,*%
%TO.N,*%
X148872002Y-65363580D03*
%TD*%
%TO.P,REF\u002A\u002A,*%
%TO.N,*%
X163850000Y-103400000D03*
%TD*%
D14*
%TO.P,C1,1*%
%TO.N,+5V*%
X147306012Y-72447568D03*
%TO.P,C1,2*%
%TO.N,GND*%
X147306012Y-69947568D03*
%TD*%
D13*
%TO.P,REF\u002A\u002A,*%
%TO.N,*%
X148872002Y-103400000D03*
%TD*%
D15*
%TO.P,JTAG1,1,#MCLR*%
%TO.N,unconnected-(JTAG1-Pad1)*%
X156361001Y-75505760D03*
D16*
%TO.P,JTAG1,2,VDD*%
%TO.N,+5V*%
X156361001Y-78045760D03*
%TO.P,JTAG1,3,GND*%
%TO.N,GND*%
X156361001Y-80585760D03*
%TO.P,JTAG1,4,TDO*%
%TO.N,Net-(J1-Pad6)*%
X156361001Y-83125760D03*
%TO.P,JTAG1,5,TCK*%
%TO.N,Net-(J1-Pad8)*%
X156361001Y-85665760D03*
%TO.P,JTAG1,6,#RESET*%
%TO.N,Net-(J2-Pad3)*%
X156361001Y-88205760D03*
%TO.P,JTAG1,7,TDI*%
%TO.N,Net-(J2-Pad5)*%
X156361001Y-90745760D03*
%TO.P,JTAG1,8,TMS*%
%TO.N,Net-(J2-Pad7)*%
X156361001Y-93285760D03*
%TD*%
D13*
%TO.P,REF\u002A\u002A,*%
%TO.N,*%
X163850000Y-65363580D03*
%TD*%
D17*
%TO.P,J2,1,Pin_1*%
%TO.N,Net-(J1-Pad8)*%
X165542001Y-75505760D03*
D16*
%TO.P,J2,2,Pin_2*%
%TO.N,unconnected-(J2-Pad2)*%
X165542001Y-78045760D03*
%TO.P,J2,3,Pin_3*%
%TO.N,Net-(J2-Pad3)*%
X165542001Y-80585760D03*
%TO.P,J2,4,Pin_4*%
%TO.N,unconnected-(J2-Pad4)*%
X165542001Y-83125760D03*
%TO.P,J2,5,Pin_5*%
%TO.N,Net-(J2-Pad5)*%
X165542001Y-85665760D03*
%TO.P,J2,6,Pin_6*%
%TO.N,unconnected-(J2-Pad6)*%
X165542001Y-88205760D03*
%TO.P,J2,7,Pin_7*%
%TO.N,Net-(J2-Pad7)*%
X165542001Y-90745760D03*
%TO.P,J2,8,Pin_8*%
%TO.N,unconnected-(J2-Pad8)*%
X165542001Y-93285760D03*
%TD*%
D15*
%TO.P,J1,1,Pin_1*%
%TO.N,unconnected-(J1-Pad1)*%
X147180001Y-75505760D03*
D16*
%TO.P,J1,2,Pin_2*%
%TO.N,+5V*%
X147180001Y-78045760D03*
%TO.P,J1,3,Pin_3*%
%TO.N,unconnected-(J1-Pad3)*%
X147180001Y-80585760D03*
%TO.P,J1,4,Pin_4*%
%TO.N,GND*%
X147180001Y-83125760D03*
%TO.P,J1,5,Pin_5*%
%TO.N,unconnected-(J1-Pad5)*%
X147180001Y-85665760D03*
%TO.P,J1,6,Pin_6*%
%TO.N,Net-(J1-Pad6)*%
X147180001Y-88205760D03*
%TO.P,J1,7,Pin_7*%
%TO.N,unconnected-(J1-Pad7)*%
X147180001Y-90745760D03*
%TO.P,J1,8,Pin_8*%
%TO.N,Net-(J1-Pad8)*%
X147180001Y-93285760D03*
%TD*%
D18*
%TO.N,+5V*%
X152274240Y-78045760D03*
%TO.N,GND*%
X150300000Y-90700000D03*
%TO.N,Net-(J1-Pad6)*%
X152274240Y-83125760D03*
%TO.N,Net-(J1-Pad8)*%
X152274240Y-85665760D03*
X160447762Y-85665760D03*
%TO.N,Net-(J2-Pad3)*%
X160447762Y-88205760D03*
%TO.N,Net-(J2-Pad5)*%
X160447762Y-90745760D03*
%TO.N,Net-(J2-Pad7)*%
X160447762Y-93285760D03*
%TD*%
D19*
%TO.N,+5V*%
X147180001Y-78045760D02*
X152274240Y-78045760D01*
D20*
%TO.N,Net-(J1-Pad6)*%
X150700000Y-87450000D02*
X150700000Y-83650000D01*
X150700000Y-83650000D02*
X151224240Y-83125760D01*
X151224240Y-83125760D02*
X152274240Y-83125760D01*
X147180001Y-88205760D02*
X149944240Y-88205760D01*
X149944240Y-88205760D02*
X150700000Y-87450000D01*
%TO.N,Net-(J1-Pad8)*%
X147180001Y-93285760D02*
X151514240Y-93285760D01*
X160447762Y-85665760D02*
X160563522Y-85550000D01*
X160563522Y-85550000D02*
X161550000Y-85550000D01*
X162000000Y-76050000D02*
X162550000Y-75500000D01*
X151514240Y-93285760D02*
X152274240Y-92525760D01*
X161550000Y-85550000D02*
X162000000Y-85100000D01*
X152274240Y-92525760D02*
X152274240Y-85665760D01*
X162550000Y-75500000D02*
X162555760Y-75505760D01*
X162555760Y-75505760D02*
X165542001Y-75505760D01*
X162000000Y-85100000D02*
X162000000Y-76050000D01*
%TO.N,Net-(J2-Pad3)*%
X160447762Y-88205760D02*
X160503522Y-88150000D01*
X163264240Y-80585760D02*
X165542001Y-80585760D01*
X162550000Y-81300000D02*
X163264240Y-80585760D01*
X162000000Y-88150000D02*
X162550000Y-87600000D01*
X160503522Y-88150000D02*
X162000000Y-88150000D01*
X162550000Y-87600000D02*
X162550000Y-81300000D01*
%TO.N,Net-(J2-Pad5)*%
X163250000Y-86200000D02*
X163784240Y-85665760D01*
X163784240Y-85665760D02*
X165542001Y-85665760D01*
X160447762Y-90745760D02*
X162354240Y-90745760D01*
X162354240Y-90745760D02*
X163250000Y-89850000D01*
X163250000Y-89850000D02*
X163250000Y-86200000D01*
%TO.N,Net-(J2-Pad7)*%
X160447762Y-93285760D02*
X162464240Y-93285760D01*
X162464240Y-93285760D02*
X163200000Y-92550000D01*
X164004240Y-90745760D02*
X165542001Y-90745760D01*
X163200000Y-92550000D02*
X163200000Y-91550000D01*
X163200000Y-91550000D02*
X164004240Y-90745760D01*
%TD*%
%TA.AperFunction,Conductor*%
%TO.N,GND*%
G36*
X164870057Y-61823080D02*
G01*
X164884858Y-61825385D01*
X164884861Y-61825385D01*
X164893730Y-61826766D01*
X164910899Y-61824521D01*
X164934839Y-61823688D01*
X165192770Y-61839290D01*
X165207874Y-61841124D01*
X165278648Y-61854094D01*
X165488879Y-61892620D01*
X165503641Y-61896258D01*
X165776408Y-61981255D01*
X165790627Y-61986649D01*
X166051140Y-62103896D01*
X166064609Y-62110965D01*
X166309095Y-62258762D01*
X166321617Y-62267405D01*
X166546507Y-62443596D01*
X166557895Y-62453686D01*
X166759894Y-62655685D01*
X166769984Y-62667073D01*
X166946175Y-62891963D01*
X166954818Y-62904485D01*
X167102615Y-63148971D01*
X167109684Y-63162440D01*
X167202068Y-63367709D01*
X167226930Y-63422950D01*
X167232325Y-63437172D01*
X167291147Y-63625937D01*
X167317321Y-63709933D01*
X167320960Y-63724701D01*
X167336206Y-63807893D01*
X167372456Y-64005706D01*
X167374290Y-64020810D01*
X167389455Y-64271509D01*
X167388198Y-64298219D01*
X167388195Y-64298439D01*
X167386814Y-64307310D01*
X167387978Y-64316212D01*
X167387978Y-64316215D01*
X167390936Y-64338831D01*
X167392000Y-64355169D01*
X167392000Y-104400672D01*
X167390500Y-104420056D01*
X167386814Y-104443730D01*
X167388454Y-104456270D01*
X167389059Y-104460897D01*
X167389892Y-104484839D01*
X167374290Y-104742770D01*
X167372456Y-104757874D01*
X167332991Y-104973233D01*
X167320962Y-105038873D01*
X167317322Y-105053641D01*
X167242217Y-105294663D01*
X167232326Y-105326404D01*
X167226931Y-105340627D01*
X167150696Y-105510016D01*
X167109686Y-105601136D01*
X167102615Y-105614609D01*
X166954818Y-105859095D01*
X166946175Y-105871617D01*
X166769984Y-106096507D01*
X166759894Y-106107895D01*
X166557895Y-106309894D01*
X166546507Y-106319984D01*
X166321617Y-106496175D01*
X166309095Y-106504818D01*
X166064609Y-106652615D01*
X166051140Y-106659684D01*
X165790630Y-106776930D01*
X165776408Y-106782325D01*
X165503641Y-106867322D01*
X165488879Y-106870960D01*
X165278648Y-106909486D01*
X165207874Y-106922456D01*
X165192770Y-106924290D01*
X164942071Y-106939455D01*
X164915361Y-106938198D01*
X164915141Y-106938195D01*
X164906270Y-106936814D01*
X164897368Y-106937978D01*
X164897365Y-106937978D01*
X164874749Y-106940936D01*
X164858411Y-106942000D01*
X147871330Y-106942000D01*
X147851945Y-106940500D01*
X147837144Y-106938195D01*
X147837141Y-106938195D01*
X147828272Y-106936814D01*
X147811103Y-106939059D01*
X147787163Y-106939892D01*
X147529232Y-106924290D01*
X147514128Y-106922456D01*
X147443354Y-106909486D01*
X147233123Y-106870960D01*
X147218361Y-106867322D01*
X146945594Y-106782325D01*
X146931372Y-106776930D01*
X146670862Y-106659684D01*
X146657393Y-106652615D01*
X146412907Y-106504818D01*
X146400385Y-106496175D01*
X146175495Y-106319984D01*
X146164107Y-106309894D01*
X145962108Y-106107895D01*
X145952018Y-106096507D01*
X145775827Y-105871617D01*
X145767184Y-105859095D01*
X145619387Y-105614609D01*
X145612316Y-105601136D01*
X145571307Y-105510016D01*
X145495071Y-105340627D01*
X145489676Y-105326404D01*
X145479785Y-105294663D01*
X145404680Y-105053641D01*
X145401040Y-105038873D01*
X145389012Y-104973233D01*
X145349546Y-104757874D01*
X145347712Y-104742770D01*
X145332547Y-104492071D01*
X145333804Y-104465361D01*
X145333807Y-104465141D01*
X145335188Y-104456270D01*
X145333549Y-104443730D01*
X145331066Y-104424749D01*
X145330002Y-104408411D01*
X145330002Y-103377869D01*
X146758691Y-103377869D01*
X146775240Y-103664883D01*
X146776065Y-103669088D01*
X146776066Y-103669096D01*
X146808012Y-103831921D01*
X146830588Y-103946995D01*
X146831975Y-103951045D01*
X146831976Y-103951050D01*
X146922323Y-104214930D01*
X146923712Y-104218986D01*
X146925639Y-104222817D01*
X147047626Y-104465361D01*
X147052887Y-104475822D01*
X147215723Y-104712750D01*
X147218610Y-104715923D01*
X147218611Y-104715924D01*
X147259331Y-104760675D01*
X147409208Y-104925388D01*
X147412503Y-104928143D01*
X147412504Y-104928144D01*
X147562605Y-105053647D01*
X147629761Y-105109798D01*
X147873300Y-105262571D01*
X148135320Y-105380877D01*
X148139439Y-105382097D01*
X148406859Y-105461311D01*
X148406864Y-105461312D01*
X148410972Y-105462529D01*
X148415206Y-105463177D01*
X148415211Y-105463178D01*
X148663813Y-105501219D01*
X148695155Y-105506015D01*
X148841487Y-105508314D01*
X148978319Y-105510464D01*
X148978325Y-105510464D01*
X148982610Y-105510531D01*
X148986862Y-105510016D01*
X148986870Y-105510016D01*
X149263758Y-105476508D01*
X149263763Y-105476507D01*
X149268019Y-105475992D01*
X149546099Y-105403039D01*
X149811706Y-105293021D01*
X150059924Y-105147974D01*
X150286161Y-104970582D01*
X150327287Y-104928144D01*
X150483246Y-104767206D01*
X150486229Y-104764128D01*
X150488762Y-104760680D01*
X150488766Y-104760675D01*
X150653889Y-104535886D01*
X150656427Y-104532431D01*
X150678341Y-104492071D01*
X150791556Y-104283555D01*
X150791557Y-104283553D01*
X150793606Y-104279779D01*
X150895227Y-104010848D01*
X150959409Y-103730613D01*
X150984965Y-103444260D01*
X150985429Y-103400000D01*
X150983920Y-103377869D01*
X161736689Y-103377869D01*
X161753238Y-103664883D01*
X161754063Y-103669088D01*
X161754064Y-103669096D01*
X161786010Y-103831921D01*
X161808586Y-103946995D01*
X161809973Y-103951045D01*
X161809974Y-103951050D01*
X161900321Y-104214930D01*
X161901710Y-104218986D01*
X161903637Y-104222817D01*
X162025624Y-104465361D01*
X162030885Y-104475822D01*
X162193721Y-104712750D01*
X162196608Y-104715923D01*
X162196609Y-104715924D01*
X162237329Y-104760675D01*
X162387206Y-104925388D01*
X162390501Y-104928143D01*
X162390502Y-104928144D01*
X162540603Y-105053647D01*
X162607759Y-105109798D01*
X162851298Y-105262571D01*
X163113318Y-105380877D01*
X163117437Y-105382097D01*
X163384857Y-105461311D01*
X163384862Y-105461312D01*
X163388970Y-105462529D01*
X163393204Y-105463177D01*
X163393209Y-105463178D01*
X163641811Y-105501219D01*
X163673153Y-105506015D01*
X163819485Y-105508314D01*
X163956317Y-105510464D01*
X163956323Y-105510464D01*
X163960608Y-105510531D01*
X163964860Y-105510016D01*
X163964868Y-105510016D01*
X164241756Y-105476508D01*
X164241761Y-105476507D01*
X164246017Y-105475992D01*
X164524097Y-105403039D01*
X164789704Y-105293021D01*
X165037922Y-105147974D01*
X165264159Y-104970582D01*
X165305285Y-104928144D01*
X165461244Y-104767206D01*
X165464227Y-104764128D01*
X165466760Y-104760680D01*
X165466764Y-104760675D01*
X165631887Y-104535886D01*
X165634425Y-104532431D01*
X165656339Y-104492071D01*
X165769554Y-104283555D01*
X165769555Y-104283553D01*
X165771604Y-104279779D01*
X165873225Y-104010848D01*
X165937407Y-103730613D01*
X165962963Y-103444260D01*
X165963427Y-103400000D01*
X165943873Y-103113175D01*
X165939336Y-103091264D01*
X165886443Y-102835855D01*
X165885574Y-102831658D01*
X165789607Y-102560657D01*
X165657750Y-102305188D01*
X165644488Y-102286317D01*
X165494904Y-102073482D01*
X165492441Y-102069977D01*
X165296740Y-101859378D01*
X165074268Y-101677287D01*
X164829142Y-101527073D01*
X164811048Y-101519130D01*
X164569830Y-101413243D01*
X164565898Y-101411517D01*
X164539963Y-101404129D01*
X164293534Y-101333932D01*
X164293535Y-101333932D01*
X164289406Y-101332756D01*
X164076704Y-101302485D01*
X164009036Y-101292854D01*
X164009034Y-101292854D01*
X164004784Y-101292249D01*
X164000495Y-101292227D01*
X164000488Y-101292226D01*
X163721583Y-101290765D01*
X163721576Y-101290765D01*
X163717297Y-101290743D01*
X163713053Y-101291302D01*
X163713049Y-101291302D01*
X163587660Y-101307810D01*
X163432266Y-101328268D01*
X163428126Y-101329401D01*
X163428124Y-101329401D01*
X163351311Y-101350415D01*
X163154964Y-101404129D01*
X163151016Y-101405813D01*
X162894476Y-101515237D01*
X162894472Y-101515239D01*
X162890524Y-101516923D01*
X162817537Y-101560605D01*
X162647521Y-101662357D01*
X162647517Y-101662360D01*
X162643839Y-101664561D01*
X162640496Y-101667239D01*
X162640492Y-101667242D01*
X162627954Y-101677287D01*
X162535872Y-101751059D01*
X162470204Y-101778040D01*
X162465584Y-101777193D01*
X162463488Y-101791768D01*
X162427653Y-101837759D01*
X162422814Y-101841635D01*
X162422813Y-101841636D01*
X162419472Y-101844313D01*
X162221577Y-102052851D01*
X162053814Y-102286317D01*
X161919288Y-102540392D01*
X161820489Y-102810373D01*
X161759245Y-103091264D01*
X161736689Y-103377869D01*
X150983920Y-103377869D01*
X150965875Y-103113175D01*
X150961338Y-103091264D01*
X150908445Y-102835855D01*
X150907576Y-102831658D01*
X150811609Y-102560657D01*
X150679752Y-102305188D01*
X150666490Y-102286317D01*
X150516906Y-102073482D01*
X150514443Y-102069977D01*
X150318742Y-101859378D01*
X150294849Y-101839822D01*
X150254804Y-101781198D01*
X150252810Y-101710229D01*
X150289501Y-101649448D01*
X150353228Y-101618153D01*
X150374655Y-101616318D01*
X162339012Y-101616318D01*
X162339012Y-94778818D01*
X156944981Y-94778818D01*
X156876860Y-94758816D01*
X156830367Y-94705160D01*
X156820263Y-94634886D01*
X156849757Y-94570306D01*
X156889549Y-94539667D01*
X157054347Y-94458933D01*
X157058995Y-94456656D01*
X157240861Y-94326933D01*
X157267949Y-94299940D01*
X157395436Y-94172897D01*
X157399097Y-94169249D01*
X157409966Y-94154124D01*
X157526436Y-93992037D01*
X157529454Y-93987837D01*
X157533146Y-93980368D01*
X157626137Y-93792213D01*
X157626138Y-93792211D01*
X157628431Y-93787571D01*
X157693371Y-93573829D01*
X157722530Y-93352350D01*
X157724157Y-93285760D01*
X157705853Y-93063121D01*
X157651432Y-92846462D01*
X157562355Y-92641600D01*
X157468088Y-92495885D01*
X157443823Y-92458377D01*
X157443821Y-92458374D01*
X157441015Y-92454037D01*
X157290671Y-92288811D01*
X157286620Y-92285612D01*
X157286616Y-92285608D01*
X157119415Y-92153560D01*
X157119411Y-92153558D01*
X157115360Y-92150358D01*
X157074054Y-92127556D01*
X157024085Y-92077124D01*
X157009313Y-92007681D01*
X157034429Y-91941276D01*
X157061781Y-91914669D01*
X157105604Y-91883410D01*
X157240861Y-91786933D01*
X157267949Y-91759940D01*
X157395436Y-91632897D01*
X157399097Y-91629249D01*
X157409966Y-91614124D01*
X157526436Y-91452037D01*
X157529454Y-91447837D01*
X157540894Y-91424691D01*
X157626137Y-91252213D01*
X157626138Y-91252211D01*
X157628431Y-91247571D01*
X157693371Y-91033829D01*
X157722530Y-90812350D01*
X157724157Y-90745760D01*
X157705853Y-90523121D01*
X157651432Y-90306462D01*
X157562355Y-90101600D01*
X157467328Y-89954710D01*
X157443823Y-89918377D01*
X157443821Y-89918374D01*
X157441015Y-89914037D01*
X157290671Y-89748811D01*
X157286620Y-89745612D01*
X157286616Y-89745608D01*
X157119415Y-89613560D01*
X157119411Y-89613558D01*
X157115360Y-89610358D01*
X157074054Y-89587556D01*
X157024085Y-89537124D01*
X157009313Y-89467681D01*
X157034429Y-89401276D01*
X157061781Y-89374669D01*
X157105604Y-89343410D01*
X157240861Y-89246933D01*
X157267949Y-89219940D01*
X157395436Y-89092897D01*
X157399097Y-89089249D01*
X157409966Y-89074124D01*
X157526436Y-88912037D01*
X157529454Y-88907837D01*
X157533146Y-88900368D01*
X157626137Y-88712213D01*
X157626138Y-88712211D01*
X157628431Y-88707571D01*
X157693371Y-88493829D01*
X157722530Y-88272350D01*
X157724157Y-88205760D01*
X157705853Y-87983121D01*
X157651432Y-87766462D01*
X157562355Y-87561600D01*
X157470831Y-87420125D01*
X157443823Y-87378377D01*
X157443821Y-87378374D01*
X157441015Y-87374037D01*
X157290671Y-87208811D01*
X157286620Y-87205612D01*
X157286616Y-87205608D01*
X157119415Y-87073560D01*
X157119411Y-87073558D01*
X157115360Y-87070358D01*
X157074054Y-87047556D01*
X157024085Y-86997124D01*
X157009313Y-86927681D01*
X157034429Y-86861276D01*
X157061781Y-86834669D01*
X157105604Y-86803410D01*
X157240861Y-86706933D01*
X157267949Y-86679940D01*
X157352563Y-86595621D01*
X157399097Y-86549249D01*
X157409966Y-86534124D01*
X157526436Y-86372037D01*
X157529454Y-86367837D01*
X157533612Y-86359425D01*
X157626137Y-86172213D01*
X157626138Y-86172211D01*
X157628431Y-86167571D01*
X157693371Y-85953829D01*
X157722530Y-85732350D01*
X157722644Y-85727697D01*
X157724075Y-85669125D01*
X157724075Y-85669121D01*
X157724157Y-85665760D01*
X157705853Y-85443121D01*
X157651432Y-85226462D01*
X157562355Y-85021600D01*
X157480871Y-84895645D01*
X157443823Y-84838377D01*
X157443821Y-84838374D01*
X157441015Y-84834037D01*
X157290671Y-84668811D01*
X157286620Y-84665612D01*
X157286616Y-84665608D01*
X157119415Y-84533560D01*
X157119411Y-84533558D01*
X157115360Y-84530358D01*
X157074054Y-84507556D01*
X157024085Y-84457124D01*
X157009313Y-84387681D01*
X157034429Y-84321276D01*
X157061781Y-84294669D01*
X157105604Y-84263410D01*
X157240861Y-84166933D01*
X157267949Y-84139940D01*
X157395436Y-84012897D01*
X157399097Y-84009249D01*
X157409966Y-83994124D01*
X157526436Y-83832037D01*
X157529454Y-83827837D01*
X157567299Y-83751264D01*
X157626137Y-83632213D01*
X157626138Y-83632211D01*
X157628431Y-83627571D01*
X157693371Y-83413829D01*
X157722530Y-83192350D01*
X157722644Y-83187697D01*
X157724075Y-83129125D01*
X157724075Y-83129121D01*
X157724157Y-83125760D01*
X157705853Y-82903121D01*
X157651432Y-82686462D01*
X157562355Y-82481600D01*
X157441015Y-82294037D01*
X157290671Y-82128811D01*
X157286620Y-82125612D01*
X157286616Y-82125608D01*
X157119415Y-81993560D01*
X157119411Y-81993558D01*
X157115360Y-81990358D01*
X157073570Y-81967289D01*
X157023599Y-81916857D01*
X157008827Y-81847414D01*
X157033943Y-81781008D01*
X157061295Y-81754401D01*
X157236329Y-81629552D01*
X157244201Y-81622899D01*
X157395053Y-81472572D01*
X157401731Y-81464725D01*
X157526004Y-81291780D01*
X157531314Y-81282943D01*
X157625671Y-81092027D01*
X157629470Y-81082432D01*
X157691378Y-80878670D01*
X157693556Y-80868597D01*
X157694987Y-80857722D01*
X157692776Y-80843538D01*
X157679618Y-80839760D01*
X155044226Y-80839760D01*
X155030695Y-80843733D01*
X155029258Y-80853726D01*
X155059566Y-80988206D01*
X155062646Y-80998035D01*
X155142771Y-81195363D01*
X155147414Y-81204554D01*
X155258695Y-81386148D01*
X155264778Y-81394459D01*
X155404214Y-81555427D01*
X155411581Y-81562643D01*
X155575435Y-81698676D01*
X155583882Y-81704591D01*
X155652970Y-81744963D01*
X155701694Y-81796602D01*
X155714765Y-81866385D01*
X155688034Y-81932156D01*
X155647585Y-81965512D01*
X155634608Y-81972267D01*
X155630475Y-81975370D01*
X155630472Y-81975372D01*
X155521450Y-82057228D01*
X155455966Y-82106395D01*
X155452394Y-82110133D01*
X155325844Y-82242560D01*
X155301630Y-82267898D01*
X155298716Y-82272170D01*
X155298715Y-82272171D01*
X155286405Y-82290217D01*
X155175744Y-82452440D01*
X155081689Y-82655065D01*
X155021990Y-82870330D01*
X154998252Y-83092455D01*
X154998549Y-83097608D01*
X154998549Y-83097611D01*
X155008759Y-83274679D01*
X155011111Y-83315475D01*
X155012248Y-83320521D01*
X155012249Y-83320527D01*
X155026450Y-83383538D01*
X155060223Y-83533399D01*
X155144267Y-83740376D01*
X155194864Y-83822943D01*
X155252280Y-83916637D01*
X155260988Y-83930848D01*
X155407251Y-84099698D01*
X155510959Y-84185798D01*
X155572216Y-84236654D01*
X155579127Y-84242392D01*
X155649596Y-84283571D01*
X155652446Y-84285236D01*
X155701170Y-84336874D01*
X155714241Y-84406657D01*
X155687510Y-84472429D01*
X155647056Y-84505787D01*
X155634608Y-84512267D01*
X155630475Y-84515370D01*
X155630472Y-84515372D01*
X155521450Y-84597228D01*
X155455966Y-84646395D01*
X155452394Y-84650133D01*
X155325844Y-84782560D01*
X155301630Y-84807898D01*
X155175744Y-84992440D01*
X155141715Y-85065749D01*
X155089010Y-85179294D01*
X155081689Y-85195065D01*
X155021990Y-85410330D01*
X154998252Y-85632455D01*
X154998549Y-85637608D01*
X154998549Y-85637611D01*
X155004012Y-85732350D01*
X155011111Y-85855475D01*
X155012248Y-85860521D01*
X155012249Y-85860527D01*
X155026924Y-85925643D01*
X155060223Y-86073399D01*
X155103782Y-86180673D01*
X155140721Y-86271642D01*
X155144267Y-86280376D01*
X155192708Y-86359425D01*
X155258292Y-86466448D01*
X155260988Y-86470848D01*
X155407251Y-86639698D01*
X155510959Y-86725798D01*
X155572216Y-86776654D01*
X155579127Y-86782392D01*
X155649596Y-86823571D01*
X155652446Y-86825236D01*
X155701170Y-86876874D01*
X155714241Y-86946657D01*
X155687510Y-87012429D01*
X155647056Y-87045787D01*
X155634608Y-87052267D01*
X155630475Y-87055370D01*
X155630472Y-87055372D01*
X155523878Y-87135405D01*
X155455966Y-87186395D01*
X155452394Y-87190133D01*
X155325844Y-87322560D01*
X155301630Y-87347898D01*
X155175744Y-87532440D01*
X155134955Y-87620312D01*
X155101679Y-87692001D01*
X155081689Y-87735065D01*
X155021990Y-87950330D01*
X154998252Y-88172455D01*
X154998549Y-88177608D01*
X154998549Y-88177611D01*
X155004012Y-88272350D01*
X155011111Y-88395475D01*
X155012248Y-88400521D01*
X155012249Y-88400527D01*
X155018757Y-88429404D01*
X155060223Y-88613399D01*
X155115021Y-88748351D01*
X155137663Y-88804111D01*
X155144267Y-88820376D01*
X155163817Y-88852278D01*
X155252280Y-88996637D01*
X155260988Y-89010848D01*
X155407251Y-89179698D01*
X155510959Y-89265798D01*
X155572216Y-89316654D01*
X155579127Y-89322392D01*
X155649596Y-89363571D01*
X155652446Y-89365236D01*
X155701170Y-89416874D01*
X155714241Y-89486657D01*
X155687510Y-89552429D01*
X155647056Y-89585787D01*
X155634608Y-89592267D01*
X155630475Y-89595370D01*
X155630472Y-89595372D01*
X155521450Y-89677228D01*
X155455966Y-89726395D01*
X155452394Y-89730133D01*
X155325844Y-89862560D01*
X155301630Y-89887898D01*
X155298716Y-89892170D01*
X155298715Y-89892171D01*
X155267650Y-89937711D01*
X155175744Y-90072440D01*
X155081689Y-90275065D01*
X155021990Y-90490330D01*
X154998252Y-90712455D01*
X154998549Y-90717608D01*
X154998549Y-90717611D01*
X155004012Y-90812350D01*
X155011111Y-90935475D01*
X155012248Y-90940521D01*
X155012249Y-90940527D01*
X155032120Y-91028699D01*
X155060223Y-91153399D01*
X155098462Y-91247571D01*
X155133401Y-91333615D01*
X155144267Y-91360376D01*
X155180678Y-91419794D01*
X155258292Y-91546448D01*
X155260988Y-91550848D01*
X155407251Y-91719698D01*
X155510959Y-91805798D01*
X155572216Y-91856654D01*
X155579127Y-91862392D01*
X155649596Y-91903571D01*
X155652446Y-91905236D01*
X155701170Y-91956874D01*
X155714241Y-92026657D01*
X155687510Y-92092429D01*
X155647056Y-92125787D01*
X155634608Y-92132267D01*
X155630475Y-92135370D01*
X155630472Y-92135372D01*
X155460101Y-92263290D01*
X155455966Y-92266395D01*
X155452394Y-92270133D01*
X155325844Y-92402560D01*
X155301630Y-92427898D01*
X155175744Y-92612440D01*
X155136924Y-92696070D01*
X155086465Y-92804777D01*
X155081689Y-92815065D01*
X155021990Y-93030330D01*
X154998252Y-93252455D01*
X154998549Y-93257608D01*
X154998549Y-93257611D01*
X155004012Y-93352350D01*
X155011111Y-93475475D01*
X155012248Y-93480521D01*
X155012249Y-93480527D01*
X155032120Y-93568699D01*
X155060223Y-93693399D01*
X155118589Y-93837139D01*
X155137663Y-93884111D01*
X155144267Y-93900376D01*
X155159422Y-93925107D01*
X155252280Y-94076637D01*
X155260988Y-94090848D01*
X155407251Y-94259698D01*
X155510959Y-94345798D01*
X155572216Y-94396654D01*
X155579127Y-94402392D01*
X155772001Y-94515098D01*
X155776826Y-94516940D01*
X155776827Y-94516941D01*
X155824402Y-94535108D01*
X155880905Y-94578096D01*
X155905198Y-94644807D01*
X155889568Y-94714061D01*
X155838977Y-94763872D01*
X155779453Y-94778818D01*
X150273012Y-94778818D01*
X150273012Y-101560605D01*
X150253010Y-101628726D01*
X150199354Y-101675219D01*
X150129080Y-101685323D01*
X150081177Y-101668038D01*
X150071907Y-101662357D01*
X149851144Y-101527073D01*
X149833050Y-101519130D01*
X149591832Y-101413243D01*
X149587900Y-101411517D01*
X149561965Y-101404129D01*
X149315536Y-101333932D01*
X149315537Y-101333932D01*
X149311408Y-101332756D01*
X149098706Y-101302485D01*
X149031038Y-101292854D01*
X149031036Y-101292854D01*
X149026786Y-101292249D01*
X149022497Y-101292227D01*
X149022490Y-101292226D01*
X148743585Y-101290765D01*
X148743578Y-101290765D01*
X148739299Y-101290743D01*
X148735055Y-101291302D01*
X148735051Y-101291302D01*
X148609662Y-101307810D01*
X148454268Y-101328268D01*
X148450128Y-101329401D01*
X148450126Y-101329401D01*
X148373313Y-101350415D01*
X148176966Y-101404129D01*
X148173018Y-101405813D01*
X147916478Y-101515237D01*
X147916474Y-101515239D01*
X147912526Y-101516923D01*
X147839539Y-101560605D01*
X147669523Y-101662357D01*
X147669519Y-101662360D01*
X147665841Y-101664561D01*
X147441474Y-101844313D01*
X147243579Y-102052851D01*
X147075816Y-102286317D01*
X146941290Y-102540392D01*
X146842491Y-102810373D01*
X146781247Y-103091264D01*
X146758691Y-103377869D01*
X145330002Y-103377869D01*
X145330002Y-93252455D01*
X145817252Y-93252455D01*
X145817549Y-93257608D01*
X145817549Y-93257611D01*
X145823012Y-93352350D01*
X145830111Y-93475475D01*
X145831248Y-93480521D01*
X145831249Y-93480527D01*
X145851120Y-93568699D01*
X145879223Y-93693399D01*
X145937589Y-93837139D01*
X145956663Y-93884111D01*
X145963267Y-93900376D01*
X145978422Y-93925107D01*
X146071280Y-94076637D01*
X146079988Y-94090848D01*
X146226251Y-94259698D01*
X146329959Y-94345798D01*
X146391216Y-94396654D01*
X146398127Y-94402392D01*
X146591001Y-94515098D01*
X146799693Y-94594790D01*
X146804761Y-94595821D01*
X146804764Y-94595822D01*
X146912018Y-94617643D01*
X147018598Y-94639327D01*
X147023773Y-94639517D01*
X147023775Y-94639517D01*
X147236674Y-94647324D01*
X147236678Y-94647324D01*
X147241838Y-94647513D01*
X147246958Y-94646857D01*
X147246960Y-94646857D01*
X147458289Y-94619785D01*
X147458290Y-94619785D01*
X147463417Y-94619128D01*
X147468367Y-94617643D01*
X147672430Y-94556421D01*
X147672435Y-94556419D01*
X147677385Y-94554934D01*
X147877995Y-94456656D01*
X148059861Y-94326933D01*
X148086949Y-94299940D01*
X148214436Y-94172897D01*
X148218097Y-94169249D01*
X148228966Y-94154124D01*
X148345436Y-93992037D01*
X148348454Y-93987837D01*
X148350747Y-93983197D01*
X148352447Y-93980368D01*
X148404675Y-93932278D01*
X148460452Y-93919260D01*
X151435473Y-93919260D01*
X151446656Y-93919787D01*
X151454149Y-93921462D01*
X151462075Y-93921213D01*
X151462076Y-93921213D01*
X151522226Y-93919322D01*
X151526185Y-93919260D01*
X151554096Y-93919260D01*
X151558031Y-93918763D01*
X151558096Y-93918755D01*
X151569933Y-93917822D01*
X151602191Y-93916808D01*
X151606210Y-93916682D01*
X151614129Y-93916433D01*
X151633583Y-93910781D01*
X151652940Y-93906773D01*
X151665170Y-93905228D01*
X151665171Y-93905228D01*
X151673037Y-93904234D01*
X151680408Y-93901315D01*
X151680410Y-93901315D01*
X151714152Y-93887956D01*
X151725382Y-93884111D01*
X151760223Y-93873989D01*
X151760224Y-93873989D01*
X151767833Y-93871778D01*
X151774652Y-93867745D01*
X151774657Y-93867743D01*
X151785268Y-93861467D01*
X151803016Y-93852772D01*
X151821857Y-93845312D01*
X151833107Y-93837139D01*
X151857627Y-93819324D01*
X151867547Y-93812808D01*
X151898775Y-93794340D01*
X151898778Y-93794338D01*
X151905602Y-93790302D01*
X151919923Y-93775981D01*
X151934957Y-93763140D01*
X151944934Y-93755891D01*
X151951347Y-93751232D01*
X151979538Y-93717155D01*
X151987528Y-93708376D01*
X152666487Y-93029417D01*
X152674777Y-93021873D01*
X152681258Y-93017760D01*
X152727899Y-92968092D01*
X152730653Y-92965251D01*
X152750374Y-92945530D01*
X152752852Y-92942335D01*
X152760558Y-92933313D01*
X152768063Y-92925321D01*
X152790826Y-92901081D01*
X152800586Y-92883328D01*
X152811439Y-92866805D01*
X152812640Y-92865256D01*
X152823853Y-92850801D01*
X152841416Y-92810217D01*
X152846623Y-92799587D01*
X152867935Y-92760820D01*
X152869906Y-92753143D01*
X152869908Y-92753138D01*
X152872972Y-92741202D01*
X152879378Y-92722490D01*
X152884273Y-92711179D01*
X152887421Y-92703905D01*
X152888661Y-92696077D01*
X152888663Y-92696070D01*
X152894339Y-92660236D01*
X152896745Y-92648616D01*
X152905768Y-92613471D01*
X152905768Y-92613470D01*
X152907740Y-92605790D01*
X152907740Y-92585536D01*
X152909291Y-92565825D01*
X152911220Y-92553646D01*
X152912460Y-92545817D01*
X152908299Y-92501798D01*
X152907740Y-92489941D01*
X152907740Y-86639855D01*
X152927742Y-86571734D01*
X152953171Y-86542981D01*
X153056988Y-86456637D01*
X153061426Y-86452946D01*
X153191698Y-86296311D01*
X153274750Y-86148011D01*
X153288420Y-86123602D01*
X153288421Y-86123600D01*
X153291244Y-86118559D01*
X153293100Y-86113092D01*
X153293102Y-86113087D01*
X153354874Y-85931112D01*
X153354875Y-85931107D01*
X153356730Y-85925643D01*
X153385963Y-85724023D01*
X153387489Y-85665760D01*
X153368848Y-85462886D01*
X153355474Y-85415467D01*
X153315115Y-85272366D01*
X153315114Y-85272364D01*
X153313547Y-85266807D01*
X153302920Y-85245256D01*
X153225996Y-85089270D01*
X153223441Y-85084089D01*
X153218546Y-85077533D01*
X153104998Y-84925475D01*
X153104998Y-84925474D01*
X153101545Y-84920851D01*
X152981450Y-84809836D01*
X152956183Y-84786479D01*
X152956180Y-84786477D01*
X152951943Y-84782560D01*
X152848529Y-84717311D01*
X152784528Y-84676929D01*
X152784523Y-84676927D01*
X152779644Y-84673848D01*
X152590420Y-84598355D01*
X152390606Y-84558609D01*
X152384832Y-84558533D01*
X152384828Y-84558533D01*
X152281692Y-84557184D01*
X152186895Y-84555943D01*
X152181198Y-84556922D01*
X152181197Y-84556922D01*
X151991807Y-84589465D01*
X151986110Y-84590444D01*
X151794974Y-84660958D01*
X151619889Y-84765123D01*
X151542575Y-84832925D01*
X151478174Y-84862801D01*
X151407841Y-84853115D01*
X151353909Y-84806942D01*
X151333500Y-84738192D01*
X151333500Y-84055621D01*
X151353502Y-83987500D01*
X151407158Y-83941007D01*
X151477432Y-83930903D01*
X151542012Y-83960397D01*
X151547421Y-83965367D01*
X151569510Y-83986885D01*
X151569516Y-83986890D01*
X151573650Y-83990917D01*
X151578446Y-83994122D01*
X151578449Y-83994124D01*
X151606545Y-84012897D01*
X151743043Y-84104102D01*
X151748346Y-84106380D01*
X151748349Y-84106382D01*
X151889285Y-84166933D01*
X151930227Y-84184523D01*
X152003057Y-84201003D01*
X152123295Y-84228210D01*
X152123300Y-84228211D01*
X152128932Y-84229485D01*
X152134703Y-84229712D01*
X152134705Y-84229712D01*
X152197710Y-84232187D01*
X152332503Y-84237483D01*
X152534123Y-84208250D01*
X152539587Y-84206395D01*
X152539592Y-84206394D01*
X152721567Y-84144622D01*
X152721572Y-84144620D01*
X152727039Y-84142764D01*
X152904791Y-84043218D01*
X153061426Y-83912946D01*
X153191698Y-83756311D01*
X153291244Y-83578559D01*
X153293100Y-83573092D01*
X153293102Y-83573087D01*
X153354874Y-83391112D01*
X153354875Y-83391107D01*
X153356730Y-83385643D01*
X153385963Y-83184023D01*
X153387489Y-83125760D01*
X153368848Y-82922886D01*
X153354429Y-82871760D01*
X153315115Y-82732366D01*
X153315114Y-82732364D01*
X153313547Y-82726807D01*
X153301873Y-82703133D01*
X153225996Y-82549270D01*
X153223441Y-82544089D01*
X153210983Y-82527405D01*
X153104998Y-82385475D01*
X153104998Y-82385474D01*
X153101545Y-82380851D01*
X153007630Y-82294037D01*
X152956183Y-82246479D01*
X152956180Y-82246477D01*
X152951943Y-82242560D01*
X152905915Y-82213519D01*
X152784528Y-82136929D01*
X152784523Y-82136927D01*
X152779644Y-82133848D01*
X152590420Y-82058355D01*
X152390606Y-82018609D01*
X152384832Y-82018533D01*
X152384828Y-82018533D01*
X152281692Y-82017184D01*
X152186895Y-82015943D01*
X152181198Y-82016922D01*
X152181197Y-82016922D01*
X151991807Y-82049465D01*
X151986110Y-82050444D01*
X151794974Y-82120958D01*
X151619889Y-82225123D01*
X151466718Y-82359450D01*
X151463146Y-82363981D01*
X151400000Y-82444081D01*
X151342119Y-82485194D01*
X151290274Y-82491387D01*
X151284331Y-82490059D01*
X151216273Y-82492198D01*
X151212315Y-82492260D01*
X151184384Y-82492260D01*
X151180469Y-82492755D01*
X151180465Y-82492755D01*
X151180407Y-82492763D01*
X151180378Y-82492766D01*
X151168536Y-82493699D01*
X151124350Y-82495087D01*
X151106984Y-82500132D01*
X151104898Y-82500738D01*
X151085546Y-82504746D01*
X151078475Y-82505640D01*
X151065443Y-82507286D01*
X151058074Y-82510203D01*
X151058072Y-82510204D01*
X151024337Y-82523560D01*
X151013109Y-82527405D01*
X150970647Y-82539742D01*
X150963825Y-82543776D01*
X150963819Y-82543779D01*
X150953208Y-82550054D01*
X150935458Y-82558750D01*
X150923996Y-82563288D01*
X150923991Y-82563291D01*
X150916623Y-82566208D01*
X150910208Y-82570869D01*
X150880865Y-82592187D01*
X150870947Y-82598703D01*
X150852259Y-82609755D01*
X150832877Y-82621218D01*
X150818553Y-82635542D01*
X150803521Y-82648381D01*
X150787133Y-82660288D01*
X150758952Y-82694353D01*
X150750962Y-82703133D01*
X150307747Y-83146348D01*
X150299461Y-83153888D01*
X150292982Y-83158000D01*
X150287557Y-83163777D01*
X150246357Y-83207651D01*
X150243602Y-83210493D01*
X150223865Y-83230230D01*
X150221385Y-83233427D01*
X150213682Y-83242447D01*
X150183414Y-83274679D01*
X150179595Y-83281625D01*
X150179593Y-83281628D01*
X150173652Y-83292434D01*
X150162801Y-83308953D01*
X150150386Y-83324959D01*
X150147241Y-83332228D01*
X150147238Y-83332232D01*
X150132826Y-83365537D01*
X150127609Y-83376187D01*
X150106305Y-83414940D01*
X150104334Y-83422615D01*
X150104334Y-83422616D01*
X150101267Y-83434562D01*
X150094863Y-83453266D01*
X150086819Y-83471855D01*
X150085580Y-83479678D01*
X150085577Y-83479688D01*
X150079901Y-83515524D01*
X150077495Y-83527144D01*
X150068472Y-83562289D01*
X150066500Y-83569970D01*
X150066500Y-83590224D01*
X150064949Y-83609934D01*
X150061780Y-83629943D01*
X150062526Y-83637835D01*
X150065941Y-83673961D01*
X150066500Y-83685819D01*
X150066500Y-87135405D01*
X150046498Y-87203526D01*
X150029595Y-87224501D01*
X149718739Y-87535356D01*
X149656427Y-87569381D01*
X149629644Y-87572260D01*
X148456806Y-87572260D01*
X148388685Y-87552258D01*
X148351014Y-87514700D01*
X148262823Y-87378377D01*
X148262821Y-87378374D01*
X148260015Y-87374037D01*
X148109671Y-87208811D01*
X148105620Y-87205612D01*
X148105616Y-87205608D01*
X147938415Y-87073560D01*
X147938411Y-87073558D01*
X147934360Y-87070358D01*
X147893054Y-87047556D01*
X147843085Y-86997124D01*
X147828313Y-86927681D01*
X147853429Y-86861276D01*
X147880781Y-86834669D01*
X147924604Y-86803410D01*
X148059861Y-86706933D01*
X148086949Y-86679940D01*
X148171563Y-86595621D01*
X148218097Y-86549249D01*
X148228966Y-86534124D01*
X148345436Y-86372037D01*
X148348454Y-86367837D01*
X148352612Y-86359425D01*
X148445137Y-86172213D01*
X148445138Y-86172211D01*
X148447431Y-86167571D01*
X148512371Y-85953829D01*
X148541530Y-85732350D01*
X148541644Y-85727697D01*
X148543075Y-85669125D01*
X148543075Y-85669121D01*
X148543157Y-85665760D01*
X148524853Y-85443121D01*
X148470432Y-85226462D01*
X148381355Y-85021600D01*
X148299871Y-84895645D01*
X148262823Y-84838377D01*
X148262821Y-84838374D01*
X148260015Y-84834037D01*
X148109671Y-84668811D01*
X148105620Y-84665612D01*
X148105616Y-84665608D01*
X147938415Y-84533560D01*
X147938411Y-84533558D01*
X147934360Y-84530358D01*
X147892570Y-84507289D01*
X147842599Y-84456857D01*
X147827827Y-84387414D01*
X147852943Y-84321008D01*
X147880295Y-84294401D01*
X148055329Y-84169552D01*
X148063201Y-84162899D01*
X148214053Y-84012572D01*
X148220731Y-84004725D01*
X148345004Y-83831780D01*
X148350314Y-83822943D01*
X148444671Y-83632027D01*
X148448470Y-83622432D01*
X148510378Y-83418670D01*
X148512556Y-83408597D01*
X148513987Y-83397722D01*
X148511776Y-83383538D01*
X148498618Y-83379760D01*
X145863226Y-83379760D01*
X145849695Y-83383733D01*
X145848258Y-83393726D01*
X145878566Y-83528206D01*
X145881646Y-83538035D01*
X145961771Y-83735363D01*
X145966414Y-83744554D01*
X146077695Y-83926148D01*
X146083778Y-83934459D01*
X146223214Y-84095427D01*
X146230581Y-84102643D01*
X146394435Y-84238676D01*
X146402882Y-84244591D01*
X146471970Y-84284963D01*
X146520694Y-84336602D01*
X146533765Y-84406385D01*
X146507034Y-84472156D01*
X146466585Y-84505512D01*
X146453608Y-84512267D01*
X146449475Y-84515370D01*
X146449472Y-84515372D01*
X146340450Y-84597228D01*
X146274966Y-84646395D01*
X146271394Y-84650133D01*
X146144844Y-84782560D01*
X146120630Y-84807898D01*
X145994744Y-84992440D01*
X145960715Y-85065749D01*
X145908010Y-85179294D01*
X145900689Y-85195065D01*
X145840990Y-85410330D01*
X145817252Y-85632455D01*
X145817549Y-85637608D01*
X145817549Y-85637611D01*
X145823012Y-85732350D01*
X145830111Y-85855475D01*
X145831248Y-85860521D01*
X145831249Y-85860527D01*
X145845924Y-85925643D01*
X145879223Y-86073399D01*
X145922782Y-86180673D01*
X145959721Y-86271642D01*
X145963267Y-86280376D01*
X146011708Y-86359425D01*
X146077292Y-86466448D01*
X146079988Y-86470848D01*
X146226251Y-86639698D01*
X146329959Y-86725798D01*
X146391216Y-86776654D01*
X146398127Y-86782392D01*
X146468596Y-86823571D01*
X146471446Y-86825236D01*
X146520170Y-86876874D01*
X146533241Y-86946657D01*
X146506510Y-87012429D01*
X146466056Y-87045787D01*
X146453608Y-87052267D01*
X146449475Y-87055370D01*
X146449472Y-87055372D01*
X146342878Y-87135405D01*
X146274966Y-87186395D01*
X146271394Y-87190133D01*
X146144844Y-87322560D01*
X146120630Y-87347898D01*
X145994744Y-87532440D01*
X145953955Y-87620312D01*
X145920679Y-87692001D01*
X145900689Y-87735065D01*
X145840990Y-87950330D01*
X145817252Y-88172455D01*
X145817549Y-88177608D01*
X145817549Y-88177611D01*
X145823012Y-88272350D01*
X145830111Y-88395475D01*
X145831248Y-88400521D01*
X145831249Y-88400527D01*
X145837757Y-88429404D01*
X145879223Y-88613399D01*
X145934021Y-88748351D01*
X145956663Y-88804111D01*
X145963267Y-88820376D01*
X145982817Y-88852278D01*
X146071280Y-88996637D01*
X146079988Y-89010848D01*
X146226251Y-89179698D01*
X146329959Y-89265798D01*
X146391216Y-89316654D01*
X146398127Y-89322392D01*
X146468596Y-89363571D01*
X146471446Y-89365236D01*
X146520170Y-89416874D01*
X146533241Y-89486657D01*
X146506510Y-89552429D01*
X146466056Y-89585787D01*
X146453608Y-89592267D01*
X146449475Y-89595370D01*
X146449472Y-89595372D01*
X146340450Y-89677228D01*
X146274966Y-89726395D01*
X146271394Y-89730133D01*
X146144844Y-89862560D01*
X146120630Y-89887898D01*
X146117716Y-89892170D01*
X146117715Y-89892171D01*
X146086650Y-89937711D01*
X145994744Y-90072440D01*
X145900689Y-90275065D01*
X145840990Y-90490330D01*
X145817252Y-90712455D01*
X145817549Y-90717608D01*
X145817549Y-90717611D01*
X145823012Y-90812350D01*
X145830111Y-90935475D01*
X145831248Y-90940521D01*
X145831249Y-90940527D01*
X145851120Y-91028699D01*
X145879223Y-91153399D01*
X145917462Y-91247571D01*
X145952401Y-91333615D01*
X145963267Y-91360376D01*
X145999678Y-91419794D01*
X146077292Y-91546448D01*
X146079988Y-91550848D01*
X146226251Y-91719698D01*
X146329959Y-91805798D01*
X146391216Y-91856654D01*
X146398127Y-91862392D01*
X146468596Y-91903571D01*
X146471446Y-91905236D01*
X146520170Y-91956874D01*
X146533241Y-92026657D01*
X146506510Y-92092429D01*
X146466056Y-92125787D01*
X146453608Y-92132267D01*
X146449475Y-92135370D01*
X146449472Y-92135372D01*
X146279101Y-92263290D01*
X146274966Y-92266395D01*
X146271394Y-92270133D01*
X146144844Y-92402560D01*
X146120630Y-92427898D01*
X145994744Y-92612440D01*
X145955924Y-92696070D01*
X145905465Y-92804777D01*
X145900689Y-92815065D01*
X145840990Y-93030330D01*
X145817252Y-93252455D01*
X145330002Y-93252455D01*
X145330002Y-80552455D01*
X145817252Y-80552455D01*
X145817549Y-80557608D01*
X145817549Y-80557611D01*
X145823012Y-80652350D01*
X145830111Y-80775475D01*
X145831248Y-80780521D01*
X145831249Y-80780527D01*
X145844598Y-80839760D01*
X145879223Y-80993399D01*
X145963267Y-81200376D01*
X145987096Y-81239262D01*
X146077292Y-81386448D01*
X146079988Y-81390848D01*
X146226251Y-81559698D01*
X146398127Y-81702392D01*
X146470979Y-81744963D01*
X146471956Y-81745534D01*
X146520680Y-81797172D01*
X146533751Y-81866955D01*
X146507020Y-81932727D01*
X146466563Y-81966087D01*
X146458458Y-81970306D01*
X146449739Y-81975796D01*
X146279434Y-82103665D01*
X146271727Y-82110508D01*
X146124591Y-82264477D01*
X146118105Y-82272487D01*
X145998099Y-82448409D01*
X145993001Y-82457383D01*
X145903339Y-82650543D01*
X145899776Y-82660230D01*
X145844390Y-82859943D01*
X145845913Y-82868367D01*
X145858293Y-82871760D01*
X148498345Y-82871760D01*
X148511876Y-82867787D01*
X148513181Y-82858707D01*
X148471215Y-82691635D01*
X148467895Y-82681884D01*
X148382973Y-82486574D01*
X148378106Y-82477499D01*
X148262427Y-82298686D01*
X148256137Y-82290517D01*
X148112807Y-82133000D01*
X148105274Y-82125975D01*
X147938140Y-81993982D01*
X147929557Y-81988280D01*
X147892603Y-81967880D01*
X147842632Y-81917447D01*
X147827860Y-81848005D01*
X147852976Y-81781599D01*
X147880328Y-81754992D01*
X147903798Y-81738251D01*
X148059861Y-81626933D01*
X148218097Y-81469249D01*
X148277595Y-81386449D01*
X148345436Y-81292037D01*
X148348454Y-81287837D01*
X148352612Y-81279425D01*
X148445137Y-81092213D01*
X148445138Y-81092211D01*
X148447431Y-81087571D01*
X148512371Y-80873829D01*
X148541530Y-80652350D01*
X148543157Y-80585760D01*
X148524853Y-80363121D01*
X148470432Y-80146462D01*
X148381355Y-79941600D01*
X148260015Y-79754037D01*
X148109671Y-79588811D01*
X148105620Y-79585612D01*
X148105616Y-79585608D01*
X147938415Y-79453560D01*
X147938411Y-79453558D01*
X147934360Y-79450358D01*
X147893054Y-79427556D01*
X147843085Y-79377124D01*
X147828313Y-79307681D01*
X147853429Y-79241276D01*
X147880781Y-79214669D01*
X147924604Y-79183410D01*
X148059861Y-79086933D01*
X148086949Y-79059940D01*
X148214436Y-78932897D01*
X148218097Y-78929249D01*
X148221113Y-78925052D01*
X148267330Y-78860734D01*
X148323325Y-78817086D01*
X148369653Y-78808260D01*
X151417042Y-78808260D01*
X151485163Y-78828262D01*
X151504964Y-78844006D01*
X151511988Y-78850848D01*
X151573650Y-78910917D01*
X151578446Y-78914122D01*
X151578449Y-78914124D01*
X151606545Y-78932897D01*
X151743043Y-79024102D01*
X151748346Y-79026380D01*
X151748349Y-79026382D01*
X151889285Y-79086933D01*
X151930227Y-79104523D01*
X152003057Y-79121003D01*
X152123295Y-79148210D01*
X152123300Y-79148211D01*
X152128932Y-79149485D01*
X152134703Y-79149712D01*
X152134705Y-79149712D01*
X152197710Y-79152187D01*
X152332503Y-79157483D01*
X152534123Y-79128250D01*
X152539587Y-79126395D01*
X152539592Y-79126394D01*
X152721567Y-79064622D01*
X152721572Y-79064620D01*
X152727039Y-79062764D01*
X152904791Y-78963218D01*
X153061426Y-78832946D01*
X153191698Y-78676311D01*
X153291244Y-78498559D01*
X153293100Y-78493092D01*
X153293102Y-78493087D01*
X153354874Y-78311112D01*
X153354875Y-78311107D01*
X153356730Y-78305643D01*
X153385963Y-78104023D01*
X153387489Y-78045760D01*
X153384429Y-78012455D01*
X154998252Y-78012455D01*
X154998549Y-78017608D01*
X154998549Y-78017611D01*
X155004012Y-78112350D01*
X155011111Y-78235475D01*
X155012248Y-78240521D01*
X155012249Y-78240527D01*
X155026924Y-78305643D01*
X155060223Y-78453399D01*
X155144267Y-78660376D01*
X155195020Y-78743198D01*
X155252280Y-78836637D01*
X155260988Y-78850848D01*
X155407251Y-79019698D01*
X155510959Y-79105798D01*
X155572216Y-79156654D01*
X155579127Y-79162392D01*
X155652446Y-79205236D01*
X155652956Y-79205534D01*
X155701680Y-79257172D01*
X155714751Y-79326955D01*
X155688020Y-79392727D01*
X155647563Y-79426087D01*
X155639458Y-79430306D01*
X155630739Y-79435796D01*
X155460434Y-79563665D01*
X155452727Y-79570508D01*
X155305591Y-79724477D01*
X155299105Y-79732487D01*
X155179099Y-79908409D01*
X155174001Y-79917383D01*
X155084339Y-80110543D01*
X155080776Y-80120230D01*
X155025390Y-80319943D01*
X155026913Y-80328367D01*
X155039293Y-80331760D01*
X157679345Y-80331760D01*
X157692876Y-80327787D01*
X157694181Y-80318707D01*
X157652215Y-80151635D01*
X157648895Y-80141884D01*
X157563973Y-79946574D01*
X157559106Y-79937499D01*
X157443427Y-79758686D01*
X157437137Y-79750517D01*
X157293807Y-79593000D01*
X157286274Y-79585975D01*
X157119140Y-79453982D01*
X157110557Y-79448280D01*
X157073603Y-79427880D01*
X157023632Y-79377447D01*
X157008860Y-79308005D01*
X157033976Y-79241599D01*
X157061328Y-79214992D01*
X157084798Y-79198251D01*
X157240861Y-79086933D01*
X157267949Y-79059940D01*
X157395436Y-78932897D01*
X157399097Y-78929249D01*
X157409966Y-78914124D01*
X157526436Y-78752037D01*
X157529454Y-78747837D01*
X157567299Y-78671264D01*
X157626137Y-78552213D01*
X157626138Y-78552211D01*
X157628431Y-78547571D01*
X157693371Y-78333829D01*
X157722530Y-78112350D01*
X157722644Y-78107697D01*
X157724075Y-78049125D01*
X157724075Y-78049121D01*
X157724157Y-78045760D01*
X157705853Y-77823121D01*
X157651432Y-77606462D01*
X157562355Y-77401600D01*
X157494644Y-77296935D01*
X157443823Y-77218377D01*
X157443821Y-77218374D01*
X157441015Y-77214037D01*
X157437533Y-77210210D01*
X157293799Y-77052248D01*
X157262747Y-76988402D01*
X157271142Y-76917903D01*
X157316318Y-76863135D01*
X157342762Y-76849466D01*
X157449298Y-76809527D01*
X157457706Y-76806375D01*
X157574262Y-76719021D01*
X157661616Y-76602465D01*
X157712746Y-76466076D01*
X157719501Y-76403894D01*
X157719501Y-75901324D01*
X157739503Y-75833203D01*
X157793159Y-75786710D01*
X157863433Y-75776606D01*
X157928013Y-75806100D01*
X157954102Y-75837434D01*
X157962320Y-75851403D01*
X157963994Y-75854337D01*
X158001049Y-75921379D01*
X158005968Y-75926798D01*
X158006690Y-75927807D01*
X158007160Y-75928530D01*
X158008247Y-75930007D01*
X158008703Y-75930557D01*
X158009541Y-75931664D01*
X158013253Y-75937974D01*
X158066643Y-75993708D01*
X158068903Y-75996132D01*
X158120475Y-76052947D01*
X158124921Y-76056367D01*
X158129384Y-76059800D01*
X158129371Y-76059816D01*
X158131678Y-76061599D01*
X158136169Y-76066287D01*
X158142317Y-76070269D01*
X158204967Y-76110847D01*
X158206956Y-76112162D01*
X160113682Y-77399214D01*
X160137840Y-77415521D01*
X160153997Y-77428481D01*
X160165435Y-77439316D01*
X160216662Y-77469071D01*
X160223858Y-77473583D01*
X160235551Y-77481476D01*
X160238792Y-77483154D01*
X160238799Y-77483158D01*
X160255530Y-77491819D01*
X160260888Y-77494760D01*
X160300469Y-77517750D01*
X160319083Y-77528562D01*
X160326084Y-77530682D01*
X160326863Y-77531021D01*
X160346246Y-77538895D01*
X160347071Y-77539207D01*
X160353571Y-77542572D01*
X160397815Y-77553661D01*
X160418842Y-77558931D01*
X160424732Y-77560560D01*
X160482137Y-77577946D01*
X160482139Y-77577946D01*
X160489141Y-77580067D01*
X160496449Y-77580520D01*
X160497298Y-77580673D01*
X160517982Y-77583879D01*
X160518823Y-77583989D01*
X160525927Y-77585769D01*
X160593246Y-77586673D01*
X160599343Y-77586904D01*
X160666487Y-77591069D01*
X160673708Y-77589828D01*
X160674579Y-77589781D01*
X160695450Y-77588142D01*
X160696278Y-77588057D01*
X160703598Y-77588155D01*
X160769314Y-77573549D01*
X160775297Y-77572372D01*
X160841607Y-77560978D01*
X160848339Y-77558113D01*
X160849156Y-77557873D01*
X160869084Y-77551479D01*
X160869904Y-77551194D01*
X160877053Y-77549605D01*
X160883642Y-77546416D01*
X160883649Y-77546413D01*
X160937631Y-77520281D01*
X160943199Y-77517750D01*
X160998369Y-77494276D01*
X160998376Y-77494272D01*
X161005107Y-77491408D01*
X161011006Y-77487067D01*
X161011772Y-77486630D01*
X161029688Y-77475826D01*
X161030396Y-77475375D01*
X161036986Y-77472185D01*
X161089218Y-77429692D01*
X161093987Y-77426000D01*
X161148218Y-77386090D01*
X161152962Y-77380506D01*
X161154566Y-77379010D01*
X161218027Y-77347179D01*
X161288623Y-77354711D01*
X161343941Y-77399214D01*
X161366500Y-77471159D01*
X161366500Y-84717311D01*
X161346498Y-84785432D01*
X161292842Y-84831925D01*
X161222568Y-84842029D01*
X161154973Y-84809837D01*
X161125465Y-84782560D01*
X161022051Y-84717311D01*
X160958050Y-84676929D01*
X160958045Y-84676927D01*
X160953166Y-84673848D01*
X160763942Y-84598355D01*
X160564128Y-84558609D01*
X160558354Y-84558533D01*
X160558350Y-84558533D01*
X160455214Y-84557184D01*
X160360417Y-84555943D01*
X160354720Y-84556922D01*
X160354719Y-84556922D01*
X160165329Y-84589465D01*
X160159632Y-84590444D01*
X159968496Y-84660958D01*
X159793411Y-84765123D01*
X159640240Y-84899450D01*
X159636673Y-84903975D01*
X159636668Y-84903980D01*
X159578896Y-84977264D01*
X159514113Y-85059441D01*
X159511424Y-85064552D01*
X159511422Y-85064555D01*
X159472409Y-85138707D01*
X159419254Y-85239738D01*
X159358840Y-85434303D01*
X159334894Y-85636619D01*
X159348219Y-85839911D01*
X159398367Y-86037370D01*
X159483660Y-86222384D01*
X159601241Y-86388757D01*
X159747172Y-86530917D01*
X159751968Y-86534122D01*
X159751971Y-86534124D01*
X159825446Y-86583218D01*
X159916565Y-86644102D01*
X159921868Y-86646380D01*
X159921871Y-86646382D01*
X160062807Y-86706933D01*
X160103749Y-86724523D01*
X160176579Y-86741003D01*
X160296817Y-86768210D01*
X160296822Y-86768211D01*
X160302454Y-86769485D01*
X160308225Y-86769712D01*
X160308227Y-86769712D01*
X160371232Y-86772187D01*
X160506025Y-86777483D01*
X160707645Y-86748250D01*
X160713109Y-86746395D01*
X160713114Y-86746394D01*
X160895089Y-86684622D01*
X160895094Y-86684620D01*
X160900561Y-86682764D01*
X161078313Y-86583218D01*
X161234948Y-86452946D01*
X161365220Y-86296311D01*
X161368036Y-86291283D01*
X161368042Y-86291274D01*
X161391244Y-86249843D01*
X161441981Y-86200182D01*
X161497219Y-86185472D01*
X161546518Y-86183922D01*
X161557987Y-86183562D01*
X161561945Y-86183500D01*
X161589856Y-86183500D01*
X161593791Y-86183003D01*
X161593856Y-86182995D01*
X161605693Y-86182062D01*
X161637951Y-86181048D01*
X161641970Y-86180922D01*
X161649889Y-86180673D01*
X161669343Y-86175021D01*
X161688700Y-86171013D01*
X161700930Y-86169468D01*
X161700931Y-86169468D01*
X161708797Y-86168474D01*
X161744116Y-86154490D01*
X161814816Y-86148011D01*
X161877796Y-86180783D01*
X161913060Y-86242402D01*
X161916500Y-86271642D01*
X161916500Y-87285405D01*
X161896498Y-87353526D01*
X161879595Y-87374500D01*
X161774500Y-87479595D01*
X161712188Y-87513621D01*
X161685405Y-87516500D01*
X161379787Y-87516500D01*
X161311666Y-87496498D01*
X161282697Y-87469493D01*
X161282388Y-87469771D01*
X161279220Y-87466252D01*
X161278829Y-87465888D01*
X161278524Y-87465479D01*
X161278517Y-87465472D01*
X161275067Y-87460851D01*
X161157498Y-87352171D01*
X161129705Y-87326479D01*
X161129702Y-87326477D01*
X161125465Y-87322560D01*
X161066578Y-87285405D01*
X160958050Y-87216929D01*
X160958045Y-87216927D01*
X160953166Y-87213848D01*
X160763942Y-87138355D01*
X160564128Y-87098609D01*
X160558354Y-87098533D01*
X160558350Y-87098533D01*
X160455214Y-87097184D01*
X160360417Y-87095943D01*
X160354720Y-87096922D01*
X160354719Y-87096922D01*
X160165329Y-87129465D01*
X160159632Y-87130444D01*
X159968496Y-87200958D01*
X159793411Y-87305123D01*
X159640240Y-87439450D01*
X159636673Y-87443975D01*
X159636668Y-87443980D01*
X159575083Y-87522101D01*
X159514113Y-87599441D01*
X159511424Y-87604552D01*
X159511422Y-87604555D01*
X159489231Y-87646734D01*
X159419254Y-87779738D01*
X159358840Y-87974303D01*
X159334894Y-88176619D01*
X159348219Y-88379911D01*
X159398367Y-88577370D01*
X159483660Y-88762384D01*
X159601241Y-88928757D01*
X159747172Y-89070917D01*
X159751968Y-89074122D01*
X159751971Y-89074124D01*
X159780067Y-89092897D01*
X159916565Y-89184102D01*
X159921868Y-89186380D01*
X159921871Y-89186382D01*
X160062807Y-89246933D01*
X160103749Y-89264523D01*
X160176579Y-89281003D01*
X160296817Y-89308210D01*
X160296822Y-89308211D01*
X160302454Y-89309485D01*
X160308225Y-89309712D01*
X160308227Y-89309712D01*
X160371232Y-89312187D01*
X160506025Y-89317483D01*
X160707645Y-89288250D01*
X160713109Y-89286395D01*
X160713114Y-89286394D01*
X160895089Y-89224622D01*
X160895094Y-89224620D01*
X160900561Y-89222764D01*
X161078313Y-89123218D01*
X161234948Y-88992946D01*
X161365220Y-88836311D01*
X161365391Y-88836453D01*
X161418393Y-88793323D01*
X161467166Y-88783500D01*
X161921233Y-88783500D01*
X161932416Y-88784027D01*
X161939909Y-88785702D01*
X161947835Y-88785453D01*
X161947836Y-88785453D01*
X162007986Y-88783562D01*
X162011945Y-88783500D01*
X162039856Y-88783500D01*
X162043791Y-88783003D01*
X162043856Y-88782995D01*
X162055693Y-88782062D01*
X162087951Y-88781048D01*
X162091970Y-88780922D01*
X162099889Y-88780673D01*
X162119343Y-88775021D01*
X162138700Y-88771013D01*
X162150930Y-88769468D01*
X162150931Y-88769468D01*
X162158797Y-88768474D01*
X162166168Y-88765555D01*
X162166170Y-88765555D01*
X162199912Y-88752196D01*
X162211142Y-88748351D01*
X162245983Y-88738229D01*
X162245984Y-88738229D01*
X162253593Y-88736018D01*
X162260412Y-88731985D01*
X162260417Y-88731983D01*
X162271028Y-88725707D01*
X162288776Y-88717012D01*
X162307617Y-88709552D01*
X162317163Y-88702617D01*
X162343387Y-88683564D01*
X162353307Y-88677048D01*
X162384535Y-88658580D01*
X162384538Y-88658578D01*
X162391362Y-88654542D01*
X162401405Y-88644499D01*
X162463717Y-88610473D01*
X162534532Y-88615538D01*
X162591368Y-88658085D01*
X162616179Y-88724605D01*
X162616500Y-88733594D01*
X162616500Y-89535405D01*
X162596498Y-89603526D01*
X162579595Y-89624501D01*
X162128739Y-90075356D01*
X162066427Y-90109381D01*
X162039644Y-90112260D01*
X161421425Y-90112260D01*
X161353304Y-90092258D01*
X161320467Y-90061649D01*
X161278520Y-90005475D01*
X161278519Y-90005474D01*
X161275067Y-90000851D01*
X161155220Y-89890065D01*
X161129705Y-89866479D01*
X161129702Y-89866477D01*
X161125465Y-89862560D01*
X161048789Y-89814181D01*
X160958050Y-89756929D01*
X160958045Y-89756927D01*
X160953166Y-89753848D01*
X160763942Y-89678355D01*
X160564128Y-89638609D01*
X160558354Y-89638533D01*
X160558350Y-89638533D01*
X160455214Y-89637184D01*
X160360417Y-89635943D01*
X160354720Y-89636922D01*
X160354719Y-89636922D01*
X160165329Y-89669465D01*
X160159632Y-89670444D01*
X159968496Y-89740958D01*
X159963535Y-89743910D01*
X159963534Y-89743910D01*
X159845420Y-89814181D01*
X159793411Y-89845123D01*
X159640240Y-89979450D01*
X159636673Y-89983975D01*
X159636668Y-89983980D01*
X159578896Y-90057264D01*
X159514113Y-90139441D01*
X159419254Y-90319738D01*
X159358840Y-90514303D01*
X159334894Y-90716619D01*
X159348219Y-90919911D01*
X159398367Y-91117370D01*
X159483660Y-91302384D01*
X159601241Y-91468757D01*
X159605375Y-91472784D01*
X159715307Y-91579875D01*
X159747172Y-91610917D01*
X159751968Y-91614122D01*
X159751971Y-91614124D01*
X159780067Y-91632897D01*
X159916565Y-91724102D01*
X159921868Y-91726380D01*
X159921871Y-91726382D01*
X160098442Y-91802243D01*
X160103749Y-91804523D01*
X160176579Y-91821003D01*
X160296817Y-91848210D01*
X160296822Y-91848211D01*
X160302454Y-91849485D01*
X160308225Y-91849712D01*
X160308227Y-91849712D01*
X160371232Y-91852187D01*
X160506025Y-91857483D01*
X160707645Y-91828250D01*
X160713109Y-91826395D01*
X160713114Y-91826394D01*
X160895089Y-91764622D01*
X160895094Y-91764620D01*
X160900561Y-91762764D01*
X161078313Y-91663218D01*
X161234948Y-91532946D01*
X161285624Y-91472015D01*
X161324983Y-91424691D01*
X161383921Y-91385107D01*
X161421857Y-91379260D01*
X162275473Y-91379260D01*
X162286656Y-91379787D01*
X162294149Y-91381462D01*
X162302075Y-91381213D01*
X162302076Y-91381213D01*
X162362226Y-91379322D01*
X162366185Y-91379260D01*
X162394096Y-91379260D01*
X162398031Y-91378763D01*
X162398096Y-91378755D01*
X162409938Y-91377822D01*
X162415789Y-91377638D01*
X162434523Y-91377050D01*
X162503238Y-91394904D01*
X162551392Y-91447074D01*
X162561623Y-91514137D01*
X162563269Y-91514189D01*
X162563020Y-91522114D01*
X162561780Y-91529943D01*
X162562526Y-91537835D01*
X162565941Y-91573961D01*
X162566500Y-91585819D01*
X162566500Y-92235405D01*
X162546498Y-92303526D01*
X162529595Y-92324501D01*
X162238739Y-92615356D01*
X162176427Y-92649381D01*
X162149644Y-92652260D01*
X161421425Y-92652260D01*
X161353304Y-92632258D01*
X161320467Y-92601649D01*
X161278520Y-92545475D01*
X161278519Y-92545474D01*
X161275067Y-92540851D01*
X161157498Y-92432171D01*
X161129705Y-92406479D01*
X161129702Y-92406477D01*
X161125465Y-92402560D01*
X161079437Y-92373519D01*
X160958050Y-92296929D01*
X160958045Y-92296927D01*
X160953166Y-92293848D01*
X160763942Y-92218355D01*
X160564128Y-92178609D01*
X160558354Y-92178533D01*
X160558350Y-92178533D01*
X160455214Y-92177184D01*
X160360417Y-92175943D01*
X160354720Y-92176922D01*
X160354719Y-92176922D01*
X160165329Y-92209465D01*
X160159632Y-92210444D01*
X159968496Y-92280958D01*
X159963535Y-92283910D01*
X159963534Y-92283910D01*
X159957339Y-92287596D01*
X159793411Y-92385123D01*
X159640240Y-92519450D01*
X159636673Y-92523975D01*
X159636668Y-92523980D01*
X159566932Y-92612440D01*
X159514113Y-92679441D01*
X159511424Y-92684552D01*
X159511422Y-92684555D01*
X159486674Y-92731593D01*
X159419254Y-92859738D01*
X159358840Y-93054303D01*
X159334894Y-93256619D01*
X159348219Y-93459911D01*
X159398367Y-93657370D01*
X159483660Y-93842384D01*
X159601241Y-94008757D01*
X159747172Y-94150917D01*
X159751968Y-94154122D01*
X159751971Y-94154124D01*
X159780067Y-94172897D01*
X159916565Y-94264102D01*
X159921868Y-94266380D01*
X159921871Y-94266382D01*
X160062807Y-94326933D01*
X160103749Y-94344523D01*
X160176579Y-94361003D01*
X160296817Y-94388210D01*
X160296822Y-94388211D01*
X160302454Y-94389485D01*
X160308225Y-94389712D01*
X160308227Y-94389712D01*
X160371232Y-94392187D01*
X160506025Y-94397483D01*
X160707645Y-94368250D01*
X160713109Y-94366395D01*
X160713114Y-94366394D01*
X160895089Y-94304622D01*
X160895094Y-94304620D01*
X160900561Y-94302764D01*
X161078313Y-94203218D01*
X161234948Y-94072946D01*
X161284984Y-94012784D01*
X161324983Y-93964691D01*
X161383921Y-93925107D01*
X161421857Y-93919260D01*
X162385473Y-93919260D01*
X162396656Y-93919787D01*
X162404149Y-93921462D01*
X162412075Y-93921213D01*
X162412076Y-93921213D01*
X162472226Y-93919322D01*
X162476185Y-93919260D01*
X162504096Y-93919260D01*
X162508031Y-93918763D01*
X162508096Y-93918755D01*
X162519933Y-93917822D01*
X162552191Y-93916808D01*
X162556210Y-93916682D01*
X162564129Y-93916433D01*
X162583583Y-93910781D01*
X162602940Y-93906773D01*
X162615170Y-93905228D01*
X162615171Y-93905228D01*
X162623037Y-93904234D01*
X162630408Y-93901315D01*
X162630410Y-93901315D01*
X162664152Y-93887956D01*
X162675382Y-93884111D01*
X162710223Y-93873989D01*
X162710224Y-93873989D01*
X162717833Y-93871778D01*
X162724652Y-93867745D01*
X162724657Y-93867743D01*
X162735268Y-93861467D01*
X162753016Y-93852772D01*
X162771857Y-93845312D01*
X162783107Y-93837139D01*
X162807627Y-93819324D01*
X162817547Y-93812808D01*
X162848775Y-93794340D01*
X162848778Y-93794338D01*
X162855602Y-93790302D01*
X162869923Y-93775981D01*
X162884957Y-93763140D01*
X162894933Y-93755892D01*
X162894934Y-93755891D01*
X162901347Y-93751232D01*
X162929528Y-93717167D01*
X162937518Y-93708386D01*
X163592258Y-93053647D01*
X163600537Y-93046113D01*
X163607018Y-93042000D01*
X163653644Y-92992348D01*
X163656398Y-92989507D01*
X163676135Y-92969770D01*
X163678615Y-92966573D01*
X163686320Y-92957551D01*
X163694977Y-92948332D01*
X163716586Y-92925321D01*
X163720405Y-92918375D01*
X163720407Y-92918372D01*
X163726348Y-92907566D01*
X163737199Y-92891047D01*
X163744758Y-92881301D01*
X163749614Y-92875041D01*
X163752759Y-92867772D01*
X163752762Y-92867768D01*
X163767174Y-92834463D01*
X163772391Y-92823813D01*
X163793695Y-92785060D01*
X163798733Y-92765437D01*
X163805137Y-92746734D01*
X163810033Y-92735420D01*
X163810033Y-92735419D01*
X163813181Y-92728145D01*
X163814420Y-92720322D01*
X163814423Y-92720312D01*
X163820099Y-92684476D01*
X163822505Y-92672856D01*
X163831528Y-92637711D01*
X163831528Y-92637710D01*
X163833500Y-92630030D01*
X163833500Y-92609776D01*
X163835051Y-92590065D01*
X163836980Y-92577886D01*
X163838220Y-92570057D01*
X163834059Y-92526038D01*
X163833500Y-92514181D01*
X163833500Y-91864595D01*
X163853502Y-91796474D01*
X163870405Y-91775499D01*
X164197151Y-91448754D01*
X164259463Y-91414729D01*
X164330279Y-91419794D01*
X164387114Y-91462341D01*
X164393679Y-91472015D01*
X164441988Y-91550848D01*
X164588251Y-91719698D01*
X164691959Y-91805798D01*
X164753216Y-91856654D01*
X164760127Y-91862392D01*
X164830596Y-91903571D01*
X164833446Y-91905236D01*
X164882170Y-91956874D01*
X164895241Y-92026657D01*
X164868510Y-92092429D01*
X164828056Y-92125787D01*
X164815608Y-92132267D01*
X164811475Y-92135370D01*
X164811472Y-92135372D01*
X164641101Y-92263290D01*
X164636966Y-92266395D01*
X164633394Y-92270133D01*
X164506844Y-92402560D01*
X164482630Y-92427898D01*
X164356744Y-92612440D01*
X164317924Y-92696070D01*
X164267465Y-92804777D01*
X164262689Y-92815065D01*
X164202990Y-93030330D01*
X164179252Y-93252455D01*
X164179549Y-93257608D01*
X164179549Y-93257611D01*
X164185012Y-93352350D01*
X164192111Y-93475475D01*
X164193248Y-93480521D01*
X164193249Y-93480527D01*
X164213120Y-93568699D01*
X164241223Y-93693399D01*
X164299589Y-93837139D01*
X164318663Y-93884111D01*
X164325267Y-93900376D01*
X164340422Y-93925107D01*
X164433280Y-94076637D01*
X164441988Y-94090848D01*
X164588251Y-94259698D01*
X164691959Y-94345798D01*
X164753216Y-94396654D01*
X164760127Y-94402392D01*
X164953001Y-94515098D01*
X165161693Y-94594790D01*
X165166761Y-94595821D01*
X165166764Y-94595822D01*
X165274018Y-94617643D01*
X165380598Y-94639327D01*
X165385773Y-94639517D01*
X165385775Y-94639517D01*
X165598674Y-94647324D01*
X165598678Y-94647324D01*
X165603838Y-94647513D01*
X165608958Y-94646857D01*
X165608960Y-94646857D01*
X165820289Y-94619785D01*
X165820290Y-94619785D01*
X165825417Y-94619128D01*
X165830367Y-94617643D01*
X166034430Y-94556421D01*
X166034435Y-94556419D01*
X166039385Y-94554934D01*
X166239995Y-94456656D01*
X166421861Y-94326933D01*
X166448949Y-94299940D01*
X166576436Y-94172897D01*
X166580097Y-94169249D01*
X166590966Y-94154124D01*
X166707436Y-93992037D01*
X166710454Y-93987837D01*
X166714146Y-93980368D01*
X166807137Y-93792213D01*
X166807138Y-93792211D01*
X166809431Y-93787571D01*
X166874371Y-93573829D01*
X166903530Y-93352350D01*
X166905157Y-93285760D01*
X166886853Y-93063121D01*
X166832432Y-92846462D01*
X166743355Y-92641600D01*
X166649088Y-92495885D01*
X166624823Y-92458377D01*
X166624821Y-92458374D01*
X166622015Y-92454037D01*
X166471671Y-92288811D01*
X166467620Y-92285612D01*
X166467616Y-92285608D01*
X166300415Y-92153560D01*
X166300411Y-92153558D01*
X166296360Y-92150358D01*
X166255054Y-92127556D01*
X166205085Y-92077124D01*
X166190313Y-92007681D01*
X166215429Y-91941276D01*
X166242781Y-91914669D01*
X166286604Y-91883410D01*
X166421861Y-91786933D01*
X166448949Y-91759940D01*
X166576436Y-91632897D01*
X166580097Y-91629249D01*
X166590966Y-91614124D01*
X166707436Y-91452037D01*
X166710454Y-91447837D01*
X166721894Y-91424691D01*
X166807137Y-91252213D01*
X166807138Y-91252211D01*
X166809431Y-91247571D01*
X166874371Y-91033829D01*
X166903530Y-90812350D01*
X166905157Y-90745760D01*
X166886853Y-90523121D01*
X166832432Y-90306462D01*
X166743355Y-90101600D01*
X166648328Y-89954710D01*
X166624823Y-89918377D01*
X166624821Y-89918374D01*
X166622015Y-89914037D01*
X166471671Y-89748811D01*
X166467620Y-89745612D01*
X166467616Y-89745608D01*
X166300415Y-89613560D01*
X166300411Y-89613558D01*
X166296360Y-89610358D01*
X166255054Y-89587556D01*
X166205085Y-89537124D01*
X166190313Y-89467681D01*
X166215429Y-89401276D01*
X166242781Y-89374669D01*
X166286604Y-89343410D01*
X166421861Y-89246933D01*
X166448949Y-89219940D01*
X166576436Y-89092897D01*
X166580097Y-89089249D01*
X166590966Y-89074124D01*
X166707436Y-88912037D01*
X166710454Y-88907837D01*
X166714146Y-88900368D01*
X166807137Y-88712213D01*
X166807138Y-88712211D01*
X166809431Y-88707571D01*
X166874371Y-88493829D01*
X166903530Y-88272350D01*
X166905157Y-88205760D01*
X166886853Y-87983121D01*
X166832432Y-87766462D01*
X166743355Y-87561600D01*
X166651831Y-87420125D01*
X166624823Y-87378377D01*
X166624821Y-87378374D01*
X166622015Y-87374037D01*
X166471671Y-87208811D01*
X166467620Y-87205612D01*
X166467616Y-87205608D01*
X166300415Y-87073560D01*
X166300411Y-87073558D01*
X166296360Y-87070358D01*
X166255054Y-87047556D01*
X166205085Y-86997124D01*
X166190313Y-86927681D01*
X166215429Y-86861276D01*
X166242781Y-86834669D01*
X166286604Y-86803410D01*
X166421861Y-86706933D01*
X166448949Y-86679940D01*
X166533563Y-86595621D01*
X166580097Y-86549249D01*
X166590966Y-86534124D01*
X166707436Y-86372037D01*
X166710454Y-86367837D01*
X166714612Y-86359425D01*
X166807137Y-86172213D01*
X166807138Y-86172211D01*
X166809431Y-86167571D01*
X166874371Y-85953829D01*
X166903530Y-85732350D01*
X166903644Y-85727697D01*
X166905075Y-85669125D01*
X166905075Y-85669121D01*
X166905157Y-85665760D01*
X166886853Y-85443121D01*
X166832432Y-85226462D01*
X166743355Y-85021600D01*
X166661871Y-84895645D01*
X166624823Y-84838377D01*
X166624821Y-84838374D01*
X166622015Y-84834037D01*
X166471671Y-84668811D01*
X166467620Y-84665612D01*
X166467616Y-84665608D01*
X166300415Y-84533560D01*
X166300411Y-84533558D01*
X166296360Y-84530358D01*
X166255054Y-84507556D01*
X166205085Y-84457124D01*
X166190313Y-84387681D01*
X166215429Y-84321276D01*
X166242781Y-84294669D01*
X166286604Y-84263410D01*
X166421861Y-84166933D01*
X166448949Y-84139940D01*
X166576436Y-84012897D01*
X166580097Y-84009249D01*
X166590966Y-83994124D01*
X166707436Y-83832037D01*
X166710454Y-83827837D01*
X166748299Y-83751264D01*
X166807137Y-83632213D01*
X166807138Y-83632211D01*
X166809431Y-83627571D01*
X166874371Y-83413829D01*
X166903530Y-83192350D01*
X166903644Y-83187697D01*
X166905075Y-83129125D01*
X166905075Y-83129121D01*
X166905157Y-83125760D01*
X166886853Y-82903121D01*
X166832432Y-82686462D01*
X166743355Y-82481600D01*
X166622015Y-82294037D01*
X166471671Y-82128811D01*
X166467620Y-82125612D01*
X166467616Y-82125608D01*
X166300415Y-81993560D01*
X166300411Y-81993558D01*
X166296360Y-81990358D01*
X166255054Y-81967556D01*
X166205085Y-81917124D01*
X166190313Y-81847681D01*
X166215429Y-81781276D01*
X166242781Y-81754669D01*
X166286604Y-81723410D01*
X166421861Y-81626933D01*
X166580097Y-81469249D01*
X166639595Y-81386449D01*
X166707436Y-81292037D01*
X166710454Y-81287837D01*
X166714612Y-81279425D01*
X166807137Y-81092213D01*
X166807138Y-81092211D01*
X166809431Y-81087571D01*
X166874371Y-80873829D01*
X166903530Y-80652350D01*
X166905157Y-80585760D01*
X166886853Y-80363121D01*
X166832432Y-80146462D01*
X166743355Y-79941600D01*
X166622015Y-79754037D01*
X166471671Y-79588811D01*
X166467620Y-79585612D01*
X166467616Y-79585608D01*
X166300415Y-79453560D01*
X166300411Y-79453558D01*
X166296360Y-79450358D01*
X166255054Y-79427556D01*
X166205085Y-79377124D01*
X166190313Y-79307681D01*
X166215429Y-79241276D01*
X166242781Y-79214669D01*
X166286604Y-79183410D01*
X166421861Y-79086933D01*
X166448949Y-79059940D01*
X166576436Y-78932897D01*
X166580097Y-78929249D01*
X166590966Y-78914124D01*
X166707436Y-78752037D01*
X166710454Y-78747837D01*
X166748299Y-78671264D01*
X166807137Y-78552213D01*
X166807138Y-78552211D01*
X166809431Y-78547571D01*
X166874371Y-78333829D01*
X166903530Y-78112350D01*
X166903644Y-78107697D01*
X166905075Y-78049125D01*
X166905075Y-78049121D01*
X166905157Y-78045760D01*
X166886853Y-77823121D01*
X166832432Y-77606462D01*
X166743355Y-77401600D01*
X166675644Y-77296935D01*
X166624823Y-77218377D01*
X166624821Y-77218374D01*
X166622015Y-77214037D01*
X166471671Y-77048811D01*
X166467620Y-77045612D01*
X166467616Y-77045608D01*
X166300415Y-76913560D01*
X166300411Y-76913558D01*
X166296360Y-76910358D01*
X166255054Y-76887556D01*
X166205085Y-76837124D01*
X166190313Y-76767681D01*
X166215429Y-76701276D01*
X166242781Y-76674669D01*
X166286604Y-76643410D01*
X166421861Y-76546933D01*
X166580097Y-76389249D01*
X166635316Y-76312404D01*
X166707436Y-76212037D01*
X166710454Y-76207837D01*
X166714612Y-76199425D01*
X166807137Y-76012213D01*
X166807138Y-76012211D01*
X166809431Y-76007571D01*
X166874371Y-75793829D01*
X166903530Y-75572350D01*
X166905157Y-75505760D01*
X166886853Y-75283121D01*
X166832432Y-75066462D01*
X166743355Y-74861600D01*
X166622015Y-74674037D01*
X166471671Y-74508811D01*
X166467620Y-74505612D01*
X166467616Y-74505608D01*
X166300415Y-74373560D01*
X166300411Y-74373558D01*
X166296360Y-74370358D01*
X166100790Y-74262398D01*
X166095921Y-74260674D01*
X166095917Y-74260672D01*
X165895088Y-74189555D01*
X165895084Y-74189554D01*
X165890213Y-74187829D01*
X165885120Y-74186922D01*
X165885117Y-74186921D01*
X165675374Y-74149560D01*
X165675368Y-74149559D01*
X165670285Y-74148654D01*
X165596453Y-74147752D01*
X165452082Y-74145988D01*
X165452080Y-74145988D01*
X165446912Y-74145925D01*
X165226092Y-74179715D01*
X165013757Y-74249117D01*
X164815608Y-74352267D01*
X164811475Y-74355370D01*
X164811472Y-74355372D01*
X164641101Y-74483290D01*
X164636966Y-74486395D01*
X164482630Y-74647898D01*
X164479716Y-74652170D01*
X164479715Y-74652171D01*
X164367096Y-74817264D01*
X164312185Y-74862267D01*
X164263008Y-74872260D01*
X162659614Y-74872260D01*
X162632130Y-74869225D01*
X162618855Y-74866258D01*
X162617831Y-74866029D01*
X162617830Y-74866029D01*
X162610091Y-74864299D01*
X162602168Y-74864548D01*
X162602167Y-74864548D01*
X162602083Y-74864551D01*
X162601859Y-74864558D01*
X162578191Y-74863068D01*
X162570057Y-74861780D01*
X162562165Y-74862526D01*
X162562162Y-74862526D01*
X162514136Y-74867066D01*
X162506236Y-74867563D01*
X162459808Y-74869022D01*
X162450110Y-74869327D01*
X162442201Y-74871625D01*
X162418907Y-74876068D01*
X162418598Y-74876097D01*
X162418597Y-74876097D01*
X162410708Y-74876843D01*
X162403250Y-74879528D01*
X162357868Y-74895866D01*
X162350346Y-74898311D01*
X162296406Y-74913982D01*
X162289580Y-74918019D01*
X162289319Y-74918173D01*
X162267858Y-74928272D01*
X162260111Y-74931061D01*
X162233562Y-74949104D01*
X162213661Y-74962629D01*
X162206976Y-74966871D01*
X162158637Y-74995458D01*
X162152815Y-75001280D01*
X162134547Y-75016395D01*
X162127729Y-75021028D01*
X162122485Y-75026976D01*
X162122484Y-75026977D01*
X162090589Y-75063155D01*
X162085170Y-75068925D01*
X161607747Y-75546348D01*
X161599459Y-75553889D01*
X161592982Y-75558000D01*
X161591159Y-75559941D01*
X161528071Y-75587025D01*
X161458046Y-75575316D01*
X161405469Y-75527607D01*
X161386998Y-75461930D01*
X161386998Y-74198398D01*
X161388701Y-74177752D01*
X161390082Y-74169438D01*
X161391282Y-74162214D01*
X161390728Y-74154015D01*
X161387285Y-74103116D01*
X161386998Y-74094614D01*
X161386998Y-74080506D01*
X161384393Y-74058164D01*
X161383834Y-74052093D01*
X161379786Y-73992237D01*
X161379292Y-73984932D01*
X161377129Y-73977931D01*
X161376973Y-73977092D01*
X161372654Y-73956615D01*
X161372456Y-73955776D01*
X161371608Y-73948504D01*
X161348653Y-73885262D01*
X161346709Y-73879474D01*
X161328999Y-73822154D01*
X161328998Y-73822152D01*
X161326839Y-73815164D01*
X161323128Y-73808856D01*
X161322776Y-73808059D01*
X161313848Y-73789095D01*
X161313478Y-73788356D01*
X161310982Y-73781480D01*
X161274080Y-73725195D01*
X161270853Y-73720002D01*
X161240450Y-73668326D01*
X161236738Y-73662016D01*
X161231673Y-73656729D01*
X161231158Y-73656048D01*
X161218096Y-73639634D01*
X161217574Y-73639009D01*
X161213557Y-73632883D01*
X161164684Y-73586585D01*
X161160387Y-73582312D01*
X161113822Y-73533702D01*
X161107680Y-73529724D01*
X161107010Y-73529170D01*
X161090567Y-73516236D01*
X161089877Y-73515720D01*
X161084561Y-73510684D01*
X161026370Y-73476884D01*
X161021166Y-73473690D01*
X160988301Y-73452403D01*
X160964686Y-73437108D01*
X160957793Y-73434650D01*
X160956988Y-73434252D01*
X160938020Y-73425452D01*
X160937237Y-73425112D01*
X160930913Y-73421438D01*
X160866504Y-73401931D01*
X160860698Y-73400017D01*
X160837905Y-73391887D01*
X160797326Y-73377413D01*
X160790050Y-73376606D01*
X160789213Y-73376413D01*
X160768717Y-73372209D01*
X160767860Y-73372055D01*
X160760855Y-73369933D01*
X160753549Y-73369480D01*
X160753545Y-73369479D01*
X160693707Y-73365767D01*
X160687616Y-73365241D01*
X160634424Y-73359340D01*
X160620723Y-73357820D01*
X160613453Y-73358708D01*
X160612645Y-73358713D01*
X160591648Y-73359340D01*
X160590823Y-73359385D01*
X160583509Y-73358931D01*
X160517176Y-73370329D01*
X160511169Y-73371212D01*
X160444349Y-73379379D01*
X160437481Y-73381915D01*
X160436661Y-73382114D01*
X160416438Y-73387536D01*
X160415598Y-73387783D01*
X160408389Y-73389022D01*
X160346458Y-73415374D01*
X160340789Y-73417625D01*
X160319596Y-73425452D01*
X160277666Y-73440937D01*
X160267978Y-73446636D01*
X160266470Y-73447654D01*
X160257964Y-73452110D01*
X160251623Y-73455727D01*
X160244889Y-73458592D01*
X160220026Y-73476889D01*
X160187377Y-73500916D01*
X160183196Y-73503863D01*
X159862990Y-73720002D01*
X158251491Y-74807761D01*
X158235899Y-74816736D01*
X158219604Y-74824624D01*
X158219598Y-74824628D01*
X158213014Y-74827815D01*
X158207341Y-74832430D01*
X158207332Y-74832436D01*
X158174663Y-74859015D01*
X158165646Y-74865707D01*
X158161801Y-74868302D01*
X158147873Y-74880269D01*
X158137259Y-74889388D01*
X158134666Y-74891556D01*
X158075181Y-74939951D01*
X158070718Y-74945753D01*
X158069843Y-74946652D01*
X158069215Y-74947242D01*
X158067966Y-74948560D01*
X158067508Y-74949104D01*
X158066552Y-74950140D01*
X158061001Y-74954910D01*
X158056695Y-74960830D01*
X158056694Y-74960831D01*
X158015583Y-75017351D01*
X158013574Y-75020037D01*
X157966841Y-75080788D01*
X157963830Y-75087467D01*
X157963203Y-75088513D01*
X157962709Y-75089259D01*
X157961801Y-75090822D01*
X157961490Y-75091438D01*
X157960787Y-75092686D01*
X157956482Y-75098605D01*
X157954585Y-75103133D01*
X157904445Y-75151987D01*
X157834880Y-75166176D01*
X157768688Y-75140503D01*
X157726883Y-75083119D01*
X157719501Y-75040624D01*
X157719501Y-74607626D01*
X157712746Y-74545444D01*
X157661616Y-74409055D01*
X157574262Y-74292499D01*
X157457706Y-74205145D01*
X157321317Y-74154015D01*
X157259135Y-74147260D01*
X155462867Y-74147260D01*
X155400685Y-74154015D01*
X155264296Y-74205145D01*
X155147740Y-74292499D01*
X155060386Y-74409055D01*
X155009256Y-74545444D01*
X155002501Y-74607626D01*
X155002501Y-76403894D01*
X155009256Y-76466076D01*
X155060386Y-76602465D01*
X155147740Y-76719021D01*
X155264296Y-76806375D01*
X155272705Y-76809527D01*
X155272706Y-76809528D01*
X155381452Y-76850295D01*
X155438217Y-76892936D01*
X155462917Y-76959498D01*
X155447710Y-77028847D01*
X155428317Y-77055328D01*
X155325844Y-77162560D01*
X155301630Y-77187898D01*
X155175744Y-77372440D01*
X155160004Y-77406350D01*
X155096772Y-77542572D01*
X155081689Y-77575065D01*
X155021990Y-77790330D01*
X154998252Y-78012455D01*
X153384429Y-78012455D01*
X153368848Y-77842886D01*
X153355474Y-77795467D01*
X153315115Y-77652366D01*
X153315114Y-77652364D01*
X153313547Y-77646807D01*
X153293652Y-77606462D01*
X153225996Y-77469270D01*
X153223441Y-77464089D01*
X153187174Y-77415521D01*
X153104998Y-77305475D01*
X153104998Y-77305474D01*
X153101545Y-77300851D01*
X152983976Y-77192171D01*
X152956183Y-77166479D01*
X152956180Y-77166477D01*
X152951943Y-77162560D01*
X152905915Y-77133519D01*
X152784528Y-77056929D01*
X152784523Y-77056927D01*
X152779644Y-77053848D01*
X152590420Y-76978355D01*
X152390606Y-76938609D01*
X152384832Y-76938533D01*
X152384828Y-76938533D01*
X152281692Y-76937184D01*
X152186895Y-76935943D01*
X152181198Y-76936922D01*
X152181197Y-76936922D01*
X152049812Y-76959498D01*
X151986110Y-76970444D01*
X151794974Y-77040958D01*
X151619889Y-77145123D01*
X151518513Y-77234027D01*
X151498028Y-77251992D01*
X151433624Y-77281869D01*
X151414951Y-77283260D01*
X148373352Y-77283260D01*
X148305231Y-77263258D01*
X148267559Y-77225699D01*
X148260015Y-77214037D01*
X148256533Y-77210210D01*
X148112799Y-77052248D01*
X148081747Y-76988402D01*
X148090142Y-76917903D01*
X148135318Y-76863135D01*
X148161762Y-76849466D01*
X148268298Y-76809527D01*
X148276706Y-76806375D01*
X148393262Y-76719021D01*
X148480616Y-76602465D01*
X148531746Y-76466076D01*
X148538501Y-76403894D01*
X148538501Y-74607626D01*
X148531746Y-74545444D01*
X148480616Y-74409055D01*
X148393262Y-74292499D01*
X148276706Y-74205145D01*
X148140317Y-74154015D01*
X148078135Y-74147260D01*
X146281867Y-74147260D01*
X146219685Y-74154015D01*
X146083296Y-74205145D01*
X145966740Y-74292499D01*
X145879386Y-74409055D01*
X145828256Y-74545444D01*
X145821501Y-74607626D01*
X145821501Y-76403894D01*
X145828256Y-76466076D01*
X145879386Y-76602465D01*
X145966740Y-76719021D01*
X146083296Y-76806375D01*
X146091705Y-76809527D01*
X146091706Y-76809528D01*
X146200452Y-76850295D01*
X146257217Y-76892936D01*
X146281917Y-76959498D01*
X146266710Y-77028847D01*
X146247317Y-77055328D01*
X146144844Y-77162560D01*
X146120630Y-77187898D01*
X145994744Y-77372440D01*
X145979004Y-77406350D01*
X145915772Y-77542572D01*
X145900689Y-77575065D01*
X145840990Y-77790330D01*
X145817252Y-78012455D01*
X145817549Y-78017608D01*
X145817549Y-78017611D01*
X145823012Y-78112350D01*
X145830111Y-78235475D01*
X145831248Y-78240521D01*
X145831249Y-78240527D01*
X145845924Y-78305643D01*
X145879223Y-78453399D01*
X145963267Y-78660376D01*
X146014020Y-78743198D01*
X146071280Y-78836637D01*
X146079988Y-78850848D01*
X146226251Y-79019698D01*
X146329959Y-79105798D01*
X146391216Y-79156654D01*
X146398127Y-79162392D01*
X146468596Y-79203571D01*
X146471446Y-79205236D01*
X146520170Y-79256874D01*
X146533241Y-79326657D01*
X146506510Y-79392429D01*
X146466056Y-79425787D01*
X146453608Y-79432267D01*
X146449475Y-79435370D01*
X146449472Y-79435372D01*
X146425248Y-79453560D01*
X146274966Y-79566395D01*
X146120630Y-79727898D01*
X146117716Y-79732170D01*
X146117715Y-79732171D01*
X146105405Y-79750217D01*
X145994744Y-79912440D01*
X145960716Y-79985748D01*
X145903793Y-80108379D01*
X145900689Y-80115065D01*
X145840990Y-80330330D01*
X145817252Y-80552455D01*
X145330002Y-80552455D01*
X145330002Y-72447568D01*
X145992514Y-72447568D01*
X146012469Y-72675655D01*
X146071728Y-72896811D01*
X146074051Y-72901792D01*
X146074051Y-72901793D01*
X146166163Y-73099330D01*
X146166166Y-73099335D01*
X146168489Y-73104317D01*
X146299814Y-73291868D01*
X146461712Y-73453766D01*
X146466220Y-73456923D01*
X146466223Y-73456925D01*
X146468604Y-73458592D01*
X146649263Y-73585091D01*
X146654245Y-73587414D01*
X146654250Y-73587417D01*
X146814230Y-73662016D01*
X146856769Y-73681852D01*
X146862077Y-73683274D01*
X146862079Y-73683275D01*
X147072610Y-73739687D01*
X147072612Y-73739687D01*
X147077925Y-73741111D01*
X147306012Y-73761066D01*
X147534099Y-73741111D01*
X147539412Y-73739687D01*
X147539414Y-73739687D01*
X147749945Y-73683275D01*
X147749947Y-73683274D01*
X147755255Y-73681852D01*
X147797794Y-73662016D01*
X147957774Y-73587417D01*
X147957779Y-73587414D01*
X147962761Y-73585091D01*
X148143420Y-73458592D01*
X148145801Y-73456925D01*
X148145804Y-73456923D01*
X148150312Y-73453766D01*
X148312210Y-73291868D01*
X148443535Y-73104317D01*
X148445858Y-73099335D01*
X148445861Y-73099330D01*
X148537973Y-72901793D01*
X148537973Y-72901792D01*
X148540296Y-72896811D01*
X148599555Y-72675655D01*
X148619510Y-72447568D01*
X148599555Y-72219481D01*
X148540296Y-71998325D01*
X148537973Y-71993343D01*
X148445861Y-71795806D01*
X148445858Y-71795801D01*
X148443535Y-71790819D01*
X148312210Y-71603268D01*
X148150312Y-71441370D01*
X148145804Y-71438213D01*
X148145801Y-71438211D01*
X147967265Y-71313199D01*
X147962761Y-71310045D01*
X147957777Y-71307721D01*
X147955484Y-71306397D01*
X147906491Y-71255015D01*
X147893055Y-71185301D01*
X147919441Y-71119390D01*
X147955484Y-71088159D01*
X147967014Y-71081502D01*
X148019060Y-71045059D01*
X148027436Y-71034580D01*
X148020368Y-71021134D01*
X147318824Y-70319590D01*
X147304880Y-70311976D01*
X147303047Y-70312107D01*
X147296432Y-70316358D01*
X146590935Y-71021855D01*
X146584505Y-71033630D01*
X146593801Y-71045645D01*
X146645010Y-71081502D01*
X146656540Y-71088159D01*
X146705533Y-71139541D01*
X146718970Y-71209255D01*
X146692583Y-71275166D01*
X146656540Y-71306397D01*
X146654247Y-71307721D01*
X146649263Y-71310045D01*
X146644759Y-71313199D01*
X146466223Y-71438211D01*
X146466220Y-71438213D01*
X146461712Y-71441370D01*
X146299814Y-71603268D01*
X146168489Y-71790819D01*
X146166166Y-71795801D01*
X146166163Y-71795806D01*
X146074051Y-71993343D01*
X146071728Y-71998325D01*
X146012469Y-72219481D01*
X145992514Y-72447568D01*
X145330002Y-72447568D01*
X145330002Y-69953043D01*
X145993495Y-69953043D01*
X146012484Y-70170087D01*
X146014387Y-70180880D01*
X146070776Y-70391329D01*
X146074522Y-70401621D01*
X146166598Y-70599079D01*
X146172081Y-70608574D01*
X146208521Y-70660616D01*
X146219000Y-70668992D01*
X146232446Y-70661924D01*
X146933990Y-69960380D01*
X146940368Y-69948700D01*
X147670420Y-69948700D01*
X147670551Y-69950533D01*
X147674802Y-69957148D01*
X148380299Y-70662645D01*
X148392074Y-70669075D01*
X148404089Y-70659779D01*
X148439943Y-70608574D01*
X148445426Y-70599079D01*
X148537502Y-70401621D01*
X148541248Y-70391329D01*
X148597637Y-70180880D01*
X148599540Y-70170087D01*
X148618529Y-69953043D01*
X148618529Y-69942093D01*
X148599540Y-69725049D01*
X148597637Y-69714256D01*
X148541248Y-69503807D01*
X148537502Y-69493515D01*
X148445426Y-69296057D01*
X148439943Y-69286562D01*
X148403503Y-69234520D01*
X148393024Y-69226144D01*
X148379578Y-69233212D01*
X147678034Y-69934756D01*
X147670420Y-69948700D01*
X146940368Y-69948700D01*
X146941604Y-69946436D01*
X146941473Y-69944603D01*
X146937222Y-69937988D01*
X146231725Y-69232491D01*
X146219950Y-69226061D01*
X146207935Y-69235357D01*
X146172081Y-69286562D01*
X146166598Y-69296057D01*
X146074522Y-69493515D01*
X146070776Y-69503807D01*
X146014387Y-69714256D01*
X146012484Y-69725049D01*
X145993495Y-69942093D01*
X145993495Y-69953043D01*
X145330002Y-69953043D01*
X145330002Y-68860556D01*
X146584588Y-68860556D01*
X146591656Y-68874002D01*
X147293200Y-69575546D01*
X147307144Y-69583160D01*
X147308977Y-69583029D01*
X147315592Y-69578778D01*
X148021089Y-68873281D01*
X148027519Y-68861506D01*
X148018223Y-68849491D01*
X147967018Y-68813637D01*
X147957523Y-68808154D01*
X147760065Y-68716078D01*
X147749773Y-68712332D01*
X147539324Y-68655943D01*
X147528531Y-68654040D01*
X147311487Y-68635051D01*
X147300537Y-68635051D01*
X147083493Y-68654040D01*
X147072700Y-68655943D01*
X146862251Y-68712332D01*
X146851959Y-68716078D01*
X146654501Y-68808154D01*
X146645006Y-68813637D01*
X146592964Y-68850077D01*
X146584588Y-68860556D01*
X145330002Y-68860556D01*
X145330002Y-65341449D01*
X146758691Y-65341449D01*
X146775240Y-65628463D01*
X146776065Y-65632668D01*
X146776066Y-65632676D01*
X146808012Y-65795501D01*
X146830588Y-65910575D01*
X146831975Y-65914625D01*
X146831976Y-65914630D01*
X146922323Y-66178510D01*
X146923712Y-66182566D01*
X147052887Y-66439402D01*
X147215723Y-66676330D01*
X147409208Y-66888968D01*
X147412503Y-66891723D01*
X147412504Y-66891724D01*
X147463260Y-66934162D01*
X147629761Y-67073378D01*
X147873300Y-67226151D01*
X148135320Y-67344457D01*
X148139439Y-67345677D01*
X148406859Y-67424891D01*
X148406864Y-67424892D01*
X148410972Y-67426109D01*
X148415206Y-67426757D01*
X148415211Y-67426758D01*
X148663813Y-67464799D01*
X148695155Y-67469595D01*
X148841487Y-67471894D01*
X148978319Y-67474044D01*
X148978325Y-67474044D01*
X148982610Y-67474111D01*
X148986862Y-67473596D01*
X148986870Y-67473596D01*
X149263758Y-67440088D01*
X149263763Y-67440087D01*
X149268019Y-67439572D01*
X149546099Y-67366619D01*
X149811706Y-67256601D01*
X150059924Y-67111554D01*
X150286161Y-66934162D01*
X150327287Y-66891724D01*
X150483246Y-66730786D01*
X150486229Y-66727708D01*
X150488762Y-66724260D01*
X150488766Y-66724255D01*
X150653889Y-66499466D01*
X150656427Y-66496011D01*
X150793606Y-66243359D01*
X150895227Y-65974428D01*
X150959409Y-65694193D01*
X150984965Y-65407840D01*
X150985429Y-65363580D01*
X150983920Y-65341449D01*
X161736689Y-65341449D01*
X161753238Y-65628463D01*
X161754063Y-65632668D01*
X161754064Y-65632676D01*
X161786010Y-65795501D01*
X161808586Y-65910575D01*
X161809973Y-65914625D01*
X161809974Y-65914630D01*
X161900321Y-66178510D01*
X161901710Y-66182566D01*
X162030885Y-66439402D01*
X162193721Y-66676330D01*
X162387206Y-66888968D01*
X162390501Y-66891723D01*
X162390502Y-66891724D01*
X162441258Y-66934162D01*
X162607759Y-67073378D01*
X162851298Y-67226151D01*
X163113318Y-67344457D01*
X163117437Y-67345677D01*
X163384857Y-67424891D01*
X163384862Y-67424892D01*
X163388970Y-67426109D01*
X163393204Y-67426757D01*
X163393209Y-67426758D01*
X163641811Y-67464799D01*
X163673153Y-67469595D01*
X163819485Y-67471894D01*
X163956317Y-67474044D01*
X163956323Y-67474044D01*
X163960608Y-67474111D01*
X163964860Y-67473596D01*
X163964868Y-67473596D01*
X164241756Y-67440088D01*
X164241761Y-67440087D01*
X164246017Y-67439572D01*
X164524097Y-67366619D01*
X164789704Y-67256601D01*
X165037922Y-67111554D01*
X165264159Y-66934162D01*
X165305285Y-66891724D01*
X165461244Y-66730786D01*
X165464227Y-66727708D01*
X165466760Y-66724260D01*
X165466764Y-66724255D01*
X165631887Y-66499466D01*
X165634425Y-66496011D01*
X165771604Y-66243359D01*
X165873225Y-65974428D01*
X165937407Y-65694193D01*
X165962963Y-65407840D01*
X165963427Y-65363580D01*
X165943873Y-65076755D01*
X165939336Y-65054844D01*
X165886443Y-64799435D01*
X165885574Y-64795238D01*
X165789607Y-64524237D01*
X165693912Y-64338831D01*
X165659715Y-64272575D01*
X165659715Y-64272574D01*
X165657750Y-64268768D01*
X165644488Y-64249897D01*
X165494904Y-64037062D01*
X165492441Y-64033557D01*
X165296740Y-63822958D01*
X165074268Y-63640867D01*
X164829142Y-63490653D01*
X164811048Y-63482710D01*
X164569830Y-63376823D01*
X164565898Y-63375097D01*
X164539963Y-63367709D01*
X164293534Y-63297512D01*
X164293535Y-63297512D01*
X164289406Y-63296336D01*
X164076704Y-63266065D01*
X164009036Y-63256434D01*
X164009034Y-63256434D01*
X164004784Y-63255829D01*
X164000495Y-63255807D01*
X164000488Y-63255806D01*
X163721583Y-63254345D01*
X163721576Y-63254345D01*
X163717297Y-63254323D01*
X163713053Y-63254882D01*
X163713049Y-63254882D01*
X163587660Y-63271390D01*
X163432266Y-63291848D01*
X163428126Y-63292981D01*
X163428124Y-63292981D01*
X163351311Y-63313995D01*
X163154964Y-63367709D01*
X163151016Y-63369393D01*
X162894476Y-63478817D01*
X162894472Y-63478819D01*
X162890524Y-63480503D01*
X162765960Y-63555053D01*
X162647521Y-63625937D01*
X162647517Y-63625940D01*
X162643839Y-63628141D01*
X162419472Y-63807893D01*
X162302372Y-63931291D01*
X162231755Y-64005706D01*
X162221577Y-64016431D01*
X162053814Y-64249897D01*
X161919288Y-64503972D01*
X161820489Y-64773953D01*
X161759245Y-65054844D01*
X161736689Y-65341449D01*
X150983920Y-65341449D01*
X150965875Y-65076755D01*
X150961338Y-65054844D01*
X150908445Y-64799435D01*
X150907576Y-64795238D01*
X150811609Y-64524237D01*
X150715914Y-64338831D01*
X150681717Y-64272575D01*
X150681717Y-64272574D01*
X150679752Y-64268768D01*
X150666490Y-64249897D01*
X150516906Y-64037062D01*
X150514443Y-64033557D01*
X150318742Y-63822958D01*
X150096270Y-63640867D01*
X149851144Y-63490653D01*
X149833050Y-63482710D01*
X149591832Y-63376823D01*
X149587900Y-63375097D01*
X149561965Y-63367709D01*
X149315536Y-63297512D01*
X149315537Y-63297512D01*
X149311408Y-63296336D01*
X149098706Y-63266065D01*
X149031038Y-63256434D01*
X149031036Y-63256434D01*
X149026786Y-63255829D01*
X149022497Y-63255807D01*
X149022490Y-63255806D01*
X148743585Y-63254345D01*
X148743578Y-63254345D01*
X148739299Y-63254323D01*
X148735055Y-63254882D01*
X148735051Y-63254882D01*
X148609662Y-63271390D01*
X148454268Y-63291848D01*
X148450128Y-63292981D01*
X148450126Y-63292981D01*
X148373313Y-63313995D01*
X148176966Y-63367709D01*
X148173018Y-63369393D01*
X147916478Y-63478817D01*
X147916474Y-63478819D01*
X147912526Y-63480503D01*
X147787962Y-63555053D01*
X147669523Y-63625937D01*
X147669519Y-63625940D01*
X147665841Y-63628141D01*
X147441474Y-63807893D01*
X147324374Y-63931291D01*
X147253757Y-64005706D01*
X147243579Y-64016431D01*
X147075816Y-64249897D01*
X146941290Y-64503972D01*
X146842491Y-64773953D01*
X146781247Y-65054844D01*
X146758691Y-65341449D01*
X145330002Y-65341449D01*
X145330002Y-64362908D01*
X145331502Y-64343523D01*
X145333807Y-64328722D01*
X145333807Y-64328719D01*
X145335188Y-64319850D01*
X145332943Y-64302681D01*
X145332110Y-64278741D01*
X145347712Y-64020810D01*
X145349546Y-64005706D01*
X145385796Y-63807893D01*
X145401042Y-63724701D01*
X145404681Y-63709933D01*
X145430856Y-63625937D01*
X145489677Y-63437172D01*
X145495072Y-63422950D01*
X145519934Y-63367709D01*
X145612318Y-63162440D01*
X145619387Y-63148971D01*
X145767184Y-62904485D01*
X145775827Y-62891963D01*
X145952018Y-62667073D01*
X145962108Y-62655685D01*
X146164107Y-62453686D01*
X146175495Y-62443596D01*
X146400385Y-62267405D01*
X146412907Y-62258762D01*
X146657393Y-62110965D01*
X146670862Y-62103896D01*
X146931375Y-61986649D01*
X146945594Y-61981255D01*
X147218361Y-61896258D01*
X147233123Y-61892620D01*
X147443354Y-61854094D01*
X147514128Y-61841124D01*
X147529232Y-61839290D01*
X147779931Y-61824125D01*
X147806641Y-61825382D01*
X147806861Y-61825385D01*
X147815732Y-61826766D01*
X147824634Y-61825602D01*
X147824637Y-61825602D01*
X147847253Y-61822644D01*
X147863591Y-61821580D01*
X164850672Y-61821580D01*
X164870057Y-61823080D01*
G37*
%TD.AperFunction*%
%TA.AperFunction,Conductor*%
G36*
X151542012Y-86500397D02*
G01*
X151547421Y-86505367D01*
X151569510Y-86526885D01*
X151569516Y-86526890D01*
X151573650Y-86530917D01*
X151578447Y-86534123D01*
X151578448Y-86534123D01*
X151579531Y-86534846D01*
X151584740Y-86538327D01*
X151630268Y-86592802D01*
X151640740Y-86643093D01*
X151640740Y-92211165D01*
X151620738Y-92279286D01*
X151603835Y-92300260D01*
X151288740Y-92615355D01*
X151226428Y-92649381D01*
X151199645Y-92652260D01*
X148456806Y-92652260D01*
X148388685Y-92632258D01*
X148351014Y-92594700D01*
X148262823Y-92458377D01*
X148262821Y-92458374D01*
X148260015Y-92454037D01*
X148109671Y-92288811D01*
X148105620Y-92285612D01*
X148105616Y-92285608D01*
X147938415Y-92153560D01*
X147938411Y-92153558D01*
X147934360Y-92150358D01*
X147893054Y-92127556D01*
X147843085Y-92077124D01*
X147828313Y-92007681D01*
X147853429Y-91941276D01*
X147880781Y-91914669D01*
X147924604Y-91883410D01*
X148059861Y-91786933D01*
X148086949Y-91759940D01*
X148214436Y-91632897D01*
X148218097Y-91629249D01*
X148228966Y-91614124D01*
X148345436Y-91452037D01*
X148348454Y-91447837D01*
X148359894Y-91424691D01*
X148445137Y-91252213D01*
X148445138Y-91252211D01*
X148447431Y-91247571D01*
X148512371Y-91033829D01*
X148541530Y-90812350D01*
X148543157Y-90745760D01*
X148524853Y-90523121D01*
X148470432Y-90306462D01*
X148381355Y-90101600D01*
X148286328Y-89954710D01*
X148262823Y-89918377D01*
X148262821Y-89918374D01*
X148260015Y-89914037D01*
X148109671Y-89748811D01*
X148105620Y-89745612D01*
X148105616Y-89745608D01*
X147938415Y-89613560D01*
X147938411Y-89613558D01*
X147934360Y-89610358D01*
X147893054Y-89587556D01*
X147843085Y-89537124D01*
X147828313Y-89467681D01*
X147853429Y-89401276D01*
X147880781Y-89374669D01*
X147924604Y-89343410D01*
X148059861Y-89246933D01*
X148086949Y-89219940D01*
X148214436Y-89092897D01*
X148218097Y-89089249D01*
X148228966Y-89074124D01*
X148345436Y-88912037D01*
X148348454Y-88907837D01*
X148350747Y-88903197D01*
X148352447Y-88900368D01*
X148404675Y-88852278D01*
X148460452Y-88839260D01*
X149865473Y-88839260D01*
X149876656Y-88839787D01*
X149884149Y-88841462D01*
X149892075Y-88841213D01*
X149892076Y-88841213D01*
X149952226Y-88839322D01*
X149956185Y-88839260D01*
X149984096Y-88839260D01*
X149988031Y-88838763D01*
X149988096Y-88838755D01*
X149999933Y-88837822D01*
X150032191Y-88836808D01*
X150036210Y-88836682D01*
X150044129Y-88836433D01*
X150063583Y-88830781D01*
X150082940Y-88826773D01*
X150095170Y-88825228D01*
X150095171Y-88825228D01*
X150103037Y-88824234D01*
X150110408Y-88821315D01*
X150110410Y-88821315D01*
X150144152Y-88807956D01*
X150155382Y-88804111D01*
X150190223Y-88793989D01*
X150190224Y-88793989D01*
X150197833Y-88791778D01*
X150204652Y-88787745D01*
X150204657Y-88787743D01*
X150215268Y-88781467D01*
X150233016Y-88772772D01*
X150251857Y-88765312D01*
X150263107Y-88757139D01*
X150287627Y-88739324D01*
X150297547Y-88732808D01*
X150328775Y-88714340D01*
X150328778Y-88714338D01*
X150335602Y-88710302D01*
X150349923Y-88695981D01*
X150364957Y-88683140D01*
X150374933Y-88675892D01*
X150381347Y-88671232D01*
X150409528Y-88637167D01*
X150417518Y-88628386D01*
X151092258Y-87953647D01*
X151100537Y-87946113D01*
X151107018Y-87942000D01*
X151153644Y-87892348D01*
X151156398Y-87889507D01*
X151176135Y-87869770D01*
X151178615Y-87866573D01*
X151186320Y-87857551D01*
X151211159Y-87831100D01*
X151216586Y-87825321D01*
X151220405Y-87818375D01*
X151220407Y-87818372D01*
X151226348Y-87807566D01*
X151237199Y-87791047D01*
X151244758Y-87781301D01*
X151249614Y-87775041D01*
X151252759Y-87767772D01*
X151252762Y-87767768D01*
X151267174Y-87734463D01*
X151272391Y-87723813D01*
X151293695Y-87685060D01*
X151298733Y-87665437D01*
X151305137Y-87646734D01*
X151310033Y-87635420D01*
X151310033Y-87635419D01*
X151313181Y-87628145D01*
X151314420Y-87620322D01*
X151314423Y-87620312D01*
X151320099Y-87584476D01*
X151322505Y-87572856D01*
X151331528Y-87537711D01*
X151331528Y-87537710D01*
X151333500Y-87530030D01*
X151333500Y-87509776D01*
X151335051Y-87490065D01*
X151336980Y-87477886D01*
X151338220Y-87470057D01*
X151334059Y-87426038D01*
X151333500Y-87414181D01*
X151333500Y-86595621D01*
X151353502Y-86527500D01*
X151407158Y-86481007D01*
X151477432Y-86470903D01*
X151542012Y-86500397D01*
G37*
%TD.AperFunction*%
%TD*%
M02*
