M48
; DRILL file {KiCad (6.0.0)} date Sun Mar 13 13:52:20 2022
; FORMAT={-:-/ absolute / inch / decimal}
; #@! TF.CreationDate,2022-03-13T13:52:20-04:00
; #@! TF.GenerationSoftware,Kicad,Pcbnew,(6.0.0)
; #@! TF.FileFunction,Plated,1,2,PTH
FMAT,2
INCH
; #@! TA.AperFunction,Plated,PTH,ViaDrill
T1C0.0236
; #@! TA.AperFunction,Plated,PTH,ComponentDrill
T2C0.0315
; #@! TA.AperFunction,Plated,PTH,ComponentDrill
T3C0.0394
%
G90
G05
T1
X5.9173Y-3.5709
X5.995Y-3.0727
X5.995Y-3.2727
X5.995Y-3.3727
X6.3168Y-3.3727
X6.3168Y-3.4727
X6.3168Y-3.5727
X6.3168Y-3.6727
T2
X5.7992Y-2.7067
X5.7992Y-2.8051
T3
X5.7945Y-2.9727
X5.7945Y-3.0727
X5.7945Y-3.1727
X5.7945Y-3.2727
X5.7945Y-3.3727
X5.7945Y-3.4727
X5.7945Y-3.5727
X5.7945Y-3.6727
X6.1559Y-2.9727
X6.1559Y-3.0727
X6.1559Y-3.1727
X6.1559Y-3.2727
X6.1559Y-3.3727
X6.1559Y-3.4727
X6.1559Y-3.5727
X6.1559Y-3.6727
X6.5174Y-2.9727
X6.5174Y-3.0727
X6.5174Y-3.1727
X6.5174Y-3.2727
X6.5174Y-3.3727
X6.5174Y-3.4727
X6.5174Y-3.5727
X6.5174Y-3.6727
T0
M30
