M48
; DRILL file {KiCad (6.0.0)} date Mon Mar 14 07:54:16 2022
; FORMAT={-:-/ absolute / inch / decimal}
; #@! TF.CreationDate,2022-03-14T07:54:16-04:00
; #@! TF.GenerationSoftware,Kicad,Pcbnew,(6.0.0)
; #@! TF.FileFunction,Plated,1,2,PTH
FMAT,2
INCH
; #@! TA.AperFunction,Plated,PTH,ViaDrill
T1C0.0236
; #@! TA.AperFunction,Plated,PTH,ComponentDrill
T2C0.0315
; #@! TA.AperFunction,Plated,PTH,ComponentDrill
T3C0.0394
; #@! TA.AperFunction,Plated,PTH,ComponentDrill
T4C0.1260
%
G90
G05
T1
X5.9173Y-3.5709
X5.995Y-3.0727
X5.995Y-3.2727
X5.995Y-3.3727
X6.3168Y-3.3727
X6.3168Y-3.4727
X6.3168Y-3.5727
X6.3168Y-3.6727
T2
X5.7994Y-2.7538
X5.7994Y-2.8523
T3
X5.7945Y-2.9727
X5.7945Y-3.0727
X5.7945Y-3.1727
X5.7945Y-3.2727
X5.7945Y-3.3727
X5.7945Y-3.4727
X5.7945Y-3.5727
X5.7945Y-3.6727
X6.1559Y-2.9727
X6.1559Y-3.0727
X6.1559Y-3.1727
X6.1559Y-3.2727
X6.1559Y-3.3727
X6.1559Y-3.4727
X6.1559Y-3.5727
X6.1559Y-3.6727
X6.5174Y-2.9727
X6.5174Y-3.0727
X6.5174Y-3.1727
X6.5174Y-3.2727
X6.5174Y-3.3727
X6.5174Y-3.4727
X6.5174Y-3.5727
X6.5174Y-3.6727
T4
X5.8611Y-2.5734
X5.8611Y-4.0709
X6.4508Y-2.5734
X6.4508Y-4.0709
T0
M30
