%TF.GenerationSoftware,KiCad,Pcbnew,(6.0.0)*%
%TF.CreationDate,2022-04-03T10:23:08-04:00*%
%TF.ProjectId,JTAG_ISP-HDR,4a544147-5f49-4535-902d-4844522e6b69,v5.3.0*%
%TF.SameCoordinates,Original*%
%TF.FileFunction,Copper,L2,Bot*%
%TF.FilePolarity,Positive*%
%FSLAX46Y46*%
G04 Gerber Fmt 4.6, Leading zero omitted, Abs format (unit mm)*
G04 Created by KiCad (PCBNEW (6.0.0)) date 2022-04-03 10:23:08*
%MOMM*%
%LPD*%
G01*
G04 APERTURE LIST*
%TA.AperFunction,EtchedComponent*%
%ADD10C,0.508000*%
%TD*%
%TA.AperFunction,ComponentPad*%
%ADD11C,1.700000*%
%TD*%
%TA.AperFunction,ComponentPad*%
%ADD12O,1.700000X1.700000*%
%TD*%
%TA.AperFunction,ComponentPad*%
%ADD13C,5.499999*%
%TD*%
%TA.AperFunction,ComponentPad*%
%ADD14R,1.700000X1.700000*%
%TD*%
%TA.AperFunction,ComponentPad*%
%ADD15R,1.800000X1.800000*%
%TD*%
%TA.AperFunction,ComponentPad*%
%ADD16C,1.800000*%
%TD*%
%TA.AperFunction,ComponentPad*%
%ADD17C,1.600000*%
%TD*%
%TA.AperFunction,ComponentPad*%
%ADD18O,1.600000X1.600000*%
%TD*%
%TA.AperFunction,ViaPad*%
%ADD19C,1.200000*%
%TD*%
%TA.AperFunction,Conductor*%
%ADD20C,0.635000*%
%TD*%
%TA.AperFunction,Conductor*%
%ADD21C,0.381000*%
%TD*%
%TA.AperFunction,Conductor*%
%ADD22C,0.508000*%
%TD*%
G04 APERTURE END LIST*
D10*
%TO.C,REF\u002A\u002A*%
X116032028Y-57014374D02*
X117270024Y-56426364D01*
X117270024Y-57602374D02*
X116032019Y-57014374D01*
X117187026Y-57489369D02*
X116747026Y-56829369D01*
X117270024Y-57602374D02*
X117270024Y-56426364D01*
%TD*%
D11*
%TO.P,J2,1,Pin_1*%
%TO.N,TCK*%
X120887020Y-62397568D03*
D12*
%TO.P,J2,2,Pin_2*%
%TO.N,GND*%
X120887020Y-64937568D03*
%TO.P,J2,3,Pin_3*%
%TO.N,RESET*%
X120887020Y-67477568D03*
%TO.P,J2,4,Pin_4*%
%TO.N,GND*%
X120887020Y-70017568D03*
%TO.P,J2,5,Pin_5*%
%TO.N,TDI*%
X120887020Y-72557568D03*
%TO.P,J2,6,Pin_6*%
%TO.N,GND*%
X120887020Y-75097568D03*
%TO.P,J2,7,Pin_7*%
%TO.N,TMS*%
X120887020Y-77637568D03*
%TO.P,J2,8,Pin_8*%
%TO.N,GND*%
X120887020Y-80177568D03*
%TD*%
D13*
%TO.P,REF\u002A\u002A,1*%
%TO.N,GND*%
X119195009Y-90291801D03*
%TD*%
D14*
%TO.P,J1,1,Pin_1*%
%TO.N,+5V*%
X102525004Y-62397568D03*
D12*
%TO.P,J1,2,Pin_2*%
X102525004Y-64937568D03*
%TO.P,J1,3,Pin_3*%
X102525004Y-67477568D03*
%TO.P,J1,4,Pin_4*%
%TO.N,GND*%
X102525004Y-70017568D03*
%TO.P,J1,5,Pin_5*%
X102525004Y-72557568D03*
%TO.P,J1,6,Pin_6*%
%TO.N,TDO*%
X102525004Y-75097568D03*
%TO.P,J1,7,Pin_7*%
%TO.N,GND*%
X102525004Y-77637568D03*
%TO.P,J1,8,Pin_8*%
%TO.N,TCK*%
X102525004Y-80177568D03*
%TD*%
D13*
%TO.P,REF\u002A\u002A,1*%
%TO.N,GND*%
X104217011Y-90291801D03*
%TD*%
D15*
%TO.P,D1,1,K*%
%TO.N,Net-(D1-Pad1)*%
X112976012Y-91789381D03*
D16*
%TO.P,D1,2,A*%
%TO.N,TDO*%
X110436012Y-91789381D03*
%TD*%
D14*
%TO.P,JTAG1,1,#MCLR*%
%TO.N,unconnected-(JTAG1-Pad1)*%
X111706012Y-62397568D03*
D12*
%TO.P,JTAG1,2,VDD*%
%TO.N,+5V*%
X111706012Y-64937568D03*
%TO.P,JTAG1,3,GND*%
%TO.N,GND*%
X111706012Y-67477568D03*
%TO.P,JTAG1,4,TDO*%
%TO.N,TDO*%
X111706012Y-70017568D03*
%TO.P,JTAG1,5,TCK*%
%TO.N,TCK*%
X111706012Y-72557568D03*
%TO.P,JTAG1,6,#RESET*%
%TO.N,RESET*%
X111706012Y-75097568D03*
%TO.P,JTAG1,7,TDI*%
%TO.N,TDI*%
X111706012Y-77637568D03*
%TO.P,JTAG1,8,TMS*%
%TO.N,TMS*%
X111706012Y-80177568D03*
%TD*%
D13*
%TO.P,REF\u002A\u002A,1*%
%TO.N,GND*%
X104217011Y-52255381D03*
%TD*%
%TO.P,REF\u002A\u002A,1*%
%TO.N,GND*%
X119195009Y-52255381D03*
%TD*%
D17*
%TO.P,C1,1*%
%TO.N,+5V*%
X102651027Y-59339378D03*
%TO.P,C1,2*%
%TO.N,GND*%
X102651027Y-56839378D03*
%TD*%
%TO.P,R1,1*%
%TO.N,Net-(D1-Pad1)*%
X116851024Y-84889365D03*
D18*
%TO.P,R1,2*%
%TO.N,GND*%
X106691024Y-84889365D03*
%TD*%
D19*
%TO.N,+5V*%
X105051022Y-62397564D03*
X106461027Y-59339378D03*
%TO.N,GND*%
X105064992Y-70017564D03*
X104851021Y-56689369D03*
X104151021Y-84889369D03*
X119195009Y-56689369D03*
X105051022Y-77637564D03*
X118251021Y-64889369D03*
X118251021Y-80189369D03*
%TO.N,Net-(D1-Pad1)*%
X112976012Y-87764378D03*
%TO.N,TDO*%
X107751021Y-81889371D03*
X107789521Y-75097561D03*
%TD*%
D20*
%TO.N,+5V*%
X104262822Y-67477568D02*
X105051022Y-66689368D01*
X102525004Y-64937568D02*
X104902824Y-64937568D01*
X107351021Y-60189369D02*
X107351021Y-64089369D01*
X102525010Y-62397561D02*
X105051019Y-62397561D01*
X107351021Y-64089369D02*
X108199220Y-64937568D01*
X105051022Y-64789370D02*
X105051022Y-62397564D01*
X107351021Y-60189369D02*
X106501030Y-59339378D01*
X108199220Y-64937568D02*
X111706012Y-64937568D01*
X104902824Y-64937568D02*
X105051022Y-64789370D01*
X102525004Y-67477568D02*
X104262822Y-67477568D01*
X104299222Y-64937568D02*
X105051022Y-65689368D01*
X105051022Y-65689368D02*
X105051022Y-64789370D01*
X105051022Y-66689368D02*
X105051022Y-65689368D01*
X104202822Y-64937568D02*
X105051022Y-64089368D01*
D21*
%TO.N,GND*%
X100951021Y-77689369D02*
X101002822Y-77637568D01*
X119290009Y-52350381D02*
X119195009Y-52255381D01*
X122339220Y-80177568D02*
X120887020Y-80177568D01*
X120887020Y-64937568D02*
X122521240Y-64937568D01*
X107262822Y-67477568D02*
X111706012Y-67477568D01*
X120887020Y-64937568D02*
X118299220Y-64937568D01*
X107483023Y-48989369D02*
X115928997Y-48989369D01*
X104851021Y-56689369D02*
X105751021Y-57589369D01*
X100951021Y-72557568D02*
X102525004Y-72557568D01*
X122551021Y-64967349D02*
X122551021Y-60489369D01*
X122551021Y-55611393D02*
X119290009Y-52350381D01*
X115854445Y-93632365D02*
X107557575Y-93632365D01*
X115928997Y-48989369D02*
X119195009Y-52255381D01*
X104217011Y-52255381D02*
X107351021Y-55389391D01*
X118299220Y-64937568D02*
X118251021Y-64889369D01*
X120887020Y-75097568D02*
X122553832Y-75097568D01*
X122551021Y-86889369D02*
X119195009Y-90245381D01*
X107557575Y-93632365D02*
X104217011Y-90291801D01*
X122551021Y-75089369D02*
X122542822Y-75097568D01*
X114151021Y-62789369D02*
X116451021Y-60489369D01*
X104217011Y-52255381D02*
X107483023Y-48989369D01*
X102525004Y-77637568D02*
X100951021Y-77637568D01*
X105251021Y-58289369D02*
X104101018Y-58289369D01*
X102525004Y-70017568D02*
X104722822Y-70017568D01*
X116451021Y-60489369D02*
X122551021Y-60489369D01*
X104217011Y-90255359D02*
X100951021Y-86989369D01*
X122551021Y-75100379D02*
X122551021Y-86889369D01*
X107351021Y-55389391D02*
X107351021Y-56189369D01*
X119195009Y-90291801D02*
X115854445Y-93632365D01*
X120887020Y-70017568D02*
X122551021Y-70017568D01*
X104722822Y-70017568D02*
X107262822Y-67477568D01*
X100951021Y-86989369D02*
X100951021Y-84789369D01*
X111706012Y-67477568D02*
X113562822Y-67477568D01*
X119195009Y-90245381D02*
X119195009Y-90291801D01*
X100951021Y-85389369D02*
X100951021Y-77689369D01*
X114151021Y-66889369D02*
X114151021Y-62789369D01*
X100951021Y-77637568D02*
X100951021Y-72557568D01*
X104101018Y-58289369D02*
X102651027Y-56839378D01*
X122551021Y-60489369D02*
X122551021Y-55611393D01*
X122551021Y-70039588D02*
X122551021Y-75089369D01*
X101051021Y-84889369D02*
X104151021Y-84889369D01*
X107351021Y-56189369D02*
X105251021Y-58289369D01*
X101002822Y-77637568D02*
X102525004Y-77637568D01*
X122553832Y-75097568D02*
X122551021Y-75100379D01*
X122551021Y-64989369D02*
X122551021Y-69989369D01*
X104217011Y-90291801D02*
X104217011Y-90255359D01*
X102525004Y-72557568D02*
X102525004Y-70017568D01*
X113562822Y-67477568D02*
X114151021Y-66889369D01*
D22*
%TO.N,Net-(D1-Pad1)*%
X112976012Y-91789381D02*
X112976012Y-87764378D01*
%TO.N,TDO*%
X107751021Y-75059061D02*
X107751021Y-70989369D01*
X108722829Y-70017561D02*
X111706010Y-70017561D01*
X109251023Y-81889371D02*
X110436012Y-83074360D01*
X110436012Y-83074360D02*
X110436012Y-91789381D01*
X107751021Y-81889371D02*
X109251023Y-81889371D01*
X107751021Y-70989369D02*
X108722829Y-70017561D01*
X107789521Y-75097561D02*
X107751021Y-75059061D01*
X102525010Y-75097561D02*
X107789521Y-75097561D01*
%TO.N,TCK*%
X108262829Y-80177561D02*
X109151021Y-79289369D01*
X114268770Y-72557568D02*
X115382822Y-72557568D01*
X114268756Y-72557568D02*
X114268763Y-72557561D01*
X110132822Y-72557568D02*
X111706012Y-72557568D01*
X115835501Y-63204889D02*
X116642829Y-62397561D01*
X102525010Y-80177561D02*
X108262829Y-80177561D01*
X115835501Y-72104889D02*
X115835501Y-63204889D01*
X109151021Y-73539369D02*
X110132822Y-72557568D01*
X116642829Y-62397561D02*
X120887010Y-62397561D01*
X111706012Y-72557568D02*
X114268756Y-72557568D01*
X109151021Y-79289369D02*
X109151021Y-73539369D01*
X114268763Y-72557561D02*
X114268770Y-72557568D01*
X115382822Y-72557568D02*
X115835501Y-72104889D01*
%TO.N,RESET*%
X116851021Y-74189369D02*
X115942822Y-75097568D01*
X114776770Y-75097568D02*
X114776763Y-75097561D01*
X115942822Y-75097568D02*
X114776770Y-75097568D01*
X116851021Y-68289369D02*
X116851021Y-74189369D01*
X120887010Y-67477561D02*
X117662829Y-67477561D01*
X114776763Y-75097561D02*
X111706010Y-75097561D01*
X117662829Y-67477561D02*
X116851021Y-68289369D01*
%TO.N,TDI*%
X117951021Y-76789369D02*
X117102829Y-77637561D01*
X117102829Y-77637561D02*
X111706010Y-77637561D01*
X120887010Y-72557561D02*
X119082829Y-72557561D01*
X117951021Y-73689369D02*
X117951021Y-76789369D01*
X119082829Y-72557561D02*
X117951021Y-73689369D01*
%TO.N,TMS*%
X118802829Y-77637561D02*
X120887010Y-77637561D01*
X111706010Y-80177561D02*
X116262829Y-80177561D01*
X116262829Y-80177561D02*
X118802829Y-77637561D01*
%TD*%
%TA.AperFunction,Conductor*%
%TO.N,GND*%
G36*
X120214988Y-48714869D02*
G01*
X120229866Y-48717186D01*
X120229870Y-48717186D01*
X120238739Y-48718567D01*
X120255908Y-48716322D01*
X120279848Y-48715489D01*
X120537779Y-48731091D01*
X120552883Y-48732925D01*
X120623657Y-48745895D01*
X120833888Y-48784421D01*
X120848650Y-48788059D01*
X121121417Y-48873056D01*
X121135636Y-48878450D01*
X121396149Y-48995697D01*
X121409618Y-49002766D01*
X121654104Y-49150563D01*
X121666626Y-49159206D01*
X121891516Y-49335397D01*
X121902904Y-49345487D01*
X122104903Y-49547486D01*
X122114993Y-49558874D01*
X122291184Y-49783764D01*
X122299827Y-49796286D01*
X122447624Y-50040772D01*
X122454693Y-50054241D01*
X122571939Y-50314751D01*
X122577334Y-50328973D01*
X122653099Y-50572110D01*
X122662330Y-50601734D01*
X122665969Y-50616502D01*
X122704495Y-50826733D01*
X122717465Y-50897507D01*
X122719299Y-50912611D01*
X122734464Y-51163310D01*
X122733207Y-51190020D01*
X122733204Y-51190240D01*
X122731823Y-51199111D01*
X122732987Y-51208013D01*
X122732987Y-51208016D01*
X122735945Y-51230632D01*
X122737009Y-51246970D01*
X122737009Y-91292473D01*
X122735509Y-91311858D01*
X122733484Y-91324866D01*
X122731823Y-91335531D01*
X122734023Y-91352355D01*
X122734068Y-91352698D01*
X122734901Y-91376640D01*
X122719299Y-91634571D01*
X122717465Y-91649675D01*
X122665971Y-91930674D01*
X122662331Y-91945442D01*
X122579261Y-92212023D01*
X122577335Y-92218205D01*
X122571940Y-92232428D01*
X122482561Y-92431022D01*
X122454695Y-92492937D01*
X122447624Y-92506410D01*
X122299827Y-92750896D01*
X122291184Y-92763418D01*
X122114993Y-92988308D01*
X122104903Y-92999696D01*
X121902904Y-93201695D01*
X121891516Y-93211785D01*
X121666626Y-93387976D01*
X121654104Y-93396619D01*
X121409618Y-93544416D01*
X121396149Y-93551485D01*
X121135639Y-93668731D01*
X121121417Y-93674126D01*
X120848650Y-93759123D01*
X120833888Y-93762761D01*
X120623657Y-93801287D01*
X120552883Y-93814257D01*
X120537779Y-93816091D01*
X120287080Y-93831256D01*
X120260370Y-93829999D01*
X120260150Y-93829996D01*
X120251279Y-93828615D01*
X120242377Y-93829779D01*
X120242374Y-93829779D01*
X120219758Y-93832737D01*
X120203420Y-93833801D01*
X103216339Y-93833801D01*
X103196954Y-93832301D01*
X103182153Y-93829996D01*
X103182150Y-93829996D01*
X103173281Y-93828615D01*
X103156112Y-93830860D01*
X103132172Y-93831693D01*
X102874241Y-93816091D01*
X102859137Y-93814257D01*
X102788363Y-93801287D01*
X102578132Y-93762761D01*
X102563370Y-93759123D01*
X102290603Y-93674126D01*
X102276381Y-93668731D01*
X102015871Y-93551485D01*
X102002402Y-93544416D01*
X101757916Y-93396619D01*
X101745394Y-93387976D01*
X101520504Y-93211785D01*
X101509116Y-93201695D01*
X101307117Y-92999696D01*
X101297027Y-92988308D01*
X101126925Y-92771190D01*
X102102553Y-92771190D01*
X102110689Y-92782195D01*
X102370950Y-92981899D01*
X102376549Y-92985733D01*
X102672273Y-93165536D01*
X102678263Y-93168748D01*
X102991669Y-93315558D01*
X102997973Y-93318105D01*
X103325395Y-93430206D01*
X103331946Y-93432060D01*
X103669551Y-93508142D01*
X103676270Y-93509279D01*
X104020124Y-93548457D01*
X104026914Y-93548860D01*
X104372984Y-93550672D01*
X104379785Y-93550340D01*
X104724031Y-93514766D01*
X104730759Y-93513700D01*
X105069155Y-93441153D01*
X105075704Y-93439374D01*
X105404289Y-93330705D01*
X105410631Y-93328219D01*
X105725534Y-93184710D01*
X105731588Y-93181545D01*
X106029138Y-93004873D01*
X106034819Y-93001070D01*
X106311557Y-92793290D01*
X106316781Y-92788906D01*
X106323248Y-92782854D01*
X106331317Y-92769174D01*
X106331290Y-92768450D01*
X106326146Y-92760147D01*
X104229821Y-90663821D01*
X104215880Y-90656209D01*
X104214045Y-90656340D01*
X104207431Y-90660591D01*
X102109434Y-92758589D01*
X102102553Y-92771190D01*
X101126925Y-92771190D01*
X101120836Y-92763418D01*
X101112193Y-92750896D01*
X100964396Y-92506410D01*
X100957325Y-92492937D01*
X100929460Y-92431022D01*
X100840080Y-92232428D01*
X100834685Y-92218205D01*
X100832759Y-92212023D01*
X100749689Y-91945442D01*
X100746049Y-91930674D01*
X100694555Y-91649675D01*
X100692721Y-91634571D01*
X100677556Y-91383872D01*
X100678813Y-91357162D01*
X100678816Y-91356942D01*
X100680197Y-91348071D01*
X100678558Y-91335531D01*
X100676075Y-91316550D01*
X100675011Y-91300212D01*
X100675011Y-90283808D01*
X100954419Y-90283808D01*
X100971929Y-90629460D01*
X100972639Y-90636216D01*
X101027375Y-90977942D01*
X101028814Y-90984597D01*
X101120134Y-91318405D01*
X101122283Y-91324866D01*
X101249122Y-91646867D01*
X101251953Y-91653050D01*
X101412823Y-91959464D01*
X101416317Y-91965325D01*
X101609329Y-92252555D01*
X101613439Y-92258009D01*
X101728922Y-92395150D01*
X101741661Y-92403594D01*
X101752104Y-92397497D01*
X103844991Y-90304611D01*
X103851368Y-90292932D01*
X104581419Y-90292932D01*
X104581550Y-90294767D01*
X104585801Y-90301381D01*
X106680564Y-92396143D01*
X106694160Y-92403568D01*
X106703773Y-92396867D01*
X106799855Y-92285161D01*
X106804013Y-92279761D01*
X107000033Y-91994552D01*
X107003580Y-91988741D01*
X107167644Y-91684039D01*
X107170551Y-91677861D01*
X107300754Y-91357212D01*
X107302968Y-91350782D01*
X107397779Y-91017944D01*
X107399286Y-91011314D01*
X107457600Y-90670163D01*
X107458380Y-90663423D01*
X107479605Y-90316377D01*
X107479721Y-90312774D01*
X107479789Y-90293620D01*
X107479697Y-90289995D01*
X107460895Y-89942824D01*
X107460160Y-89936058D01*
X107404234Y-89594539D01*
X107402767Y-89587867D01*
X107310288Y-89254399D01*
X107308114Y-89247936D01*
X107180152Y-88926383D01*
X107177296Y-88920203D01*
X107015358Y-88614355D01*
X107011858Y-88608530D01*
X106817822Y-88321940D01*
X106813715Y-88316530D01*
X106705100Y-88188456D01*
X106692275Y-88180020D01*
X106681951Y-88186072D01*
X104589031Y-90278991D01*
X104581419Y-90292932D01*
X103851368Y-90292932D01*
X103852603Y-90290670D01*
X103852472Y-90288835D01*
X103848221Y-90282221D01*
X101753469Y-88187470D01*
X101739932Y-88180078D01*
X101730230Y-88186866D01*
X101627219Y-88307477D01*
X101623086Y-88312882D01*
X101428062Y-88598777D01*
X101424541Y-88604590D01*
X101261533Y-88909875D01*
X101258647Y-88916065D01*
X101129569Y-89237158D01*
X101127378Y-89243593D01*
X101033726Y-89576769D01*
X101032243Y-89583404D01*
X100975124Y-89924737D01*
X100974365Y-89931509D01*
X100954443Y-90277013D01*
X100954419Y-90283808D01*
X100675011Y-90283808D01*
X100675011Y-87814036D01*
X102102334Y-87814036D01*
X102102368Y-87814875D01*
X102107423Y-87823002D01*
X104204201Y-89919781D01*
X104218142Y-89927393D01*
X104219977Y-89927262D01*
X104226591Y-89923011D01*
X106324441Y-87825160D01*
X106332055Y-87811216D01*
X106331987Y-87810262D01*
X106328033Y-87804283D01*
X106053675Y-87595278D01*
X106048051Y-87591456D01*
X105751710Y-87412692D01*
X105745703Y-87409499D01*
X105431800Y-87263789D01*
X105425477Y-87261260D01*
X105097665Y-87150302D01*
X105091107Y-87148472D01*
X104753243Y-87073568D01*
X104746514Y-87072454D01*
X104402526Y-87034477D01*
X104395746Y-87034098D01*
X104049647Y-87033495D01*
X104042874Y-87033850D01*
X103698737Y-87070627D01*
X103692027Y-87071714D01*
X103353895Y-87145439D01*
X103347320Y-87147250D01*
X103019128Y-87257061D01*
X103012806Y-87259564D01*
X102698399Y-87404175D01*
X102692356Y-87407361D01*
X102395417Y-87585075D01*
X102389757Y-87588893D01*
X102113744Y-87797642D01*
X102110152Y-87800676D01*
X102102334Y-87814036D01*
X100675011Y-87814036D01*
X100675011Y-85155887D01*
X105408297Y-85155887D01*
X105455788Y-85333126D01*
X105459534Y-85343418D01*
X105551610Y-85540876D01*
X105557093Y-85550372D01*
X105682052Y-85728832D01*
X105689108Y-85737240D01*
X105843149Y-85891281D01*
X105851557Y-85898337D01*
X106030017Y-86023296D01*
X106039513Y-86028779D01*
X106236971Y-86120855D01*
X106247263Y-86124601D01*
X106419527Y-86170759D01*
X106433623Y-86170423D01*
X106437024Y-86162481D01*
X106437024Y-86157332D01*
X106945024Y-86157332D01*
X106948997Y-86170863D01*
X106957546Y-86172092D01*
X107134785Y-86124601D01*
X107145077Y-86120855D01*
X107342535Y-86028779D01*
X107352031Y-86023296D01*
X107530491Y-85898337D01*
X107538899Y-85891281D01*
X107692940Y-85737240D01*
X107699996Y-85728832D01*
X107824955Y-85550372D01*
X107830438Y-85540876D01*
X107922514Y-85343418D01*
X107926260Y-85333126D01*
X107972418Y-85160862D01*
X107972082Y-85146766D01*
X107964140Y-85143365D01*
X106963139Y-85143365D01*
X106947900Y-85147840D01*
X106946695Y-85149230D01*
X106945024Y-85156913D01*
X106945024Y-86157332D01*
X106437024Y-86157332D01*
X106437024Y-85161480D01*
X106432549Y-85146241D01*
X106431159Y-85145036D01*
X106423476Y-85143365D01*
X105423057Y-85143365D01*
X105409526Y-85147338D01*
X105408297Y-85155887D01*
X100675011Y-85155887D01*
X100675011Y-84617868D01*
X105409630Y-84617868D01*
X105409966Y-84631964D01*
X105417908Y-84635365D01*
X106418909Y-84635365D01*
X106434148Y-84630890D01*
X106435353Y-84629500D01*
X106437024Y-84621817D01*
X106437024Y-84617250D01*
X106945024Y-84617250D01*
X106949499Y-84632489D01*
X106950889Y-84633694D01*
X106958572Y-84635365D01*
X107958991Y-84635365D01*
X107972522Y-84631392D01*
X107973751Y-84622843D01*
X107926260Y-84445604D01*
X107922514Y-84435312D01*
X107830438Y-84237854D01*
X107824955Y-84228358D01*
X107699996Y-84049898D01*
X107692940Y-84041490D01*
X107538899Y-83887449D01*
X107530491Y-83880393D01*
X107352031Y-83755434D01*
X107342535Y-83749951D01*
X107145077Y-83657875D01*
X107134785Y-83654129D01*
X106962521Y-83607971D01*
X106948425Y-83608307D01*
X106945024Y-83616249D01*
X106945024Y-84617250D01*
X106437024Y-84617250D01*
X106437024Y-83621398D01*
X106433051Y-83607867D01*
X106424502Y-83606638D01*
X106247263Y-83654129D01*
X106236971Y-83657875D01*
X106039513Y-83749951D01*
X106030017Y-83755434D01*
X105851557Y-83880393D01*
X105843149Y-83887449D01*
X105689108Y-84041490D01*
X105682052Y-84049898D01*
X105557093Y-84228358D01*
X105551610Y-84237854D01*
X105459534Y-84435312D01*
X105455788Y-84445604D01*
X105409630Y-84617868D01*
X100675011Y-84617868D01*
X100675011Y-80144263D01*
X101162255Y-80144263D01*
X101175114Y-80367283D01*
X101176251Y-80372329D01*
X101176252Y-80372335D01*
X101190453Y-80435346D01*
X101224226Y-80585207D01*
X101273897Y-80707533D01*
X101303168Y-80779618D01*
X101308270Y-80792184D01*
X101327611Y-80823746D01*
X101401784Y-80944785D01*
X101424991Y-80982656D01*
X101571254Y-81151506D01*
X101743130Y-81294200D01*
X101936004Y-81406906D01*
X102144696Y-81486598D01*
X102149764Y-81487629D01*
X102149767Y-81487630D01*
X102244866Y-81506978D01*
X102363601Y-81531135D01*
X102368776Y-81531325D01*
X102368778Y-81531325D01*
X102581677Y-81539132D01*
X102581681Y-81539132D01*
X102586841Y-81539321D01*
X102591961Y-81538665D01*
X102591963Y-81538665D01*
X102803292Y-81511593D01*
X102803293Y-81511593D01*
X102808420Y-81510936D01*
X102813370Y-81509451D01*
X103017433Y-81448229D01*
X103017438Y-81448227D01*
X103022388Y-81446742D01*
X103222998Y-81348464D01*
X103404864Y-81218741D01*
X103420452Y-81203208D01*
X103486213Y-81137675D01*
X103563100Y-81061057D01*
X103597116Y-81013719D01*
X103612338Y-80992535D01*
X103668333Y-80948887D01*
X103714661Y-80940061D01*
X106827989Y-80940061D01*
X106896110Y-80960063D01*
X106942603Y-81013719D01*
X106952707Y-81083993D01*
X106926939Y-81144067D01*
X106914822Y-81159437D01*
X106817372Y-81283052D01*
X106814683Y-81288163D01*
X106814681Y-81288166D01*
X106782957Y-81348464D01*
X106722513Y-81463349D01*
X106662099Y-81657914D01*
X106638153Y-81860230D01*
X106651478Y-82063522D01*
X106701626Y-82260981D01*
X106786919Y-82445995D01*
X106904500Y-82612368D01*
X107050431Y-82754528D01*
X107055227Y-82757733D01*
X107055230Y-82757735D01*
X107061233Y-82761746D01*
X107219824Y-82867713D01*
X107225127Y-82869991D01*
X107225130Y-82869993D01*
X107314136Y-82908233D01*
X107407008Y-82948134D01*
X107479838Y-82964614D01*
X107600076Y-82991821D01*
X107600081Y-82991822D01*
X107605713Y-82993096D01*
X107611484Y-82993323D01*
X107611486Y-82993323D01*
X107674491Y-82995798D01*
X107809284Y-83001094D01*
X108010904Y-82971861D01*
X108016368Y-82970006D01*
X108016373Y-82970005D01*
X108198348Y-82908233D01*
X108198353Y-82908231D01*
X108203820Y-82906375D01*
X108381572Y-82806829D01*
X108532869Y-82680997D01*
X108598032Y-82652816D01*
X108613437Y-82651871D01*
X108882995Y-82651871D01*
X108951116Y-82671873D01*
X108972090Y-82688776D01*
X109636607Y-83353293D01*
X109670633Y-83415605D01*
X109673512Y-83442388D01*
X109673512Y-90537512D01*
X109653510Y-90605633D01*
X109623166Y-90638271D01*
X109497667Y-90732498D01*
X109337651Y-90899945D01*
X109207131Y-91091280D01*
X109109614Y-91301362D01*
X109047719Y-91524550D01*
X109023107Y-91754850D01*
X109023404Y-91760003D01*
X109023404Y-91760006D01*
X109035242Y-91965325D01*
X109036439Y-91986078D01*
X109037576Y-91991124D01*
X109037577Y-91991130D01*
X109069753Y-92133904D01*
X109087358Y-92212023D01*
X109089300Y-92216805D01*
X109089301Y-92216809D01*
X109161718Y-92395150D01*
X109174496Y-92426618D01*
X109295513Y-92624100D01*
X109447159Y-92799165D01*
X109625361Y-92947111D01*
X109825334Y-93063965D01*
X110041706Y-93146590D01*
X110046772Y-93147621D01*
X110046773Y-93147621D01*
X110099858Y-93158421D01*
X110268668Y-93192766D01*
X110398101Y-93197512D01*
X110494961Y-93201064D01*
X110494965Y-93201064D01*
X110500125Y-93201253D01*
X110505245Y-93200597D01*
X110505247Y-93200597D01*
X110579178Y-93191126D01*
X110729859Y-93171823D01*
X110734807Y-93170338D01*
X110734814Y-93170337D01*
X110946759Y-93106750D01*
X110951702Y-93105267D01*
X111032248Y-93065808D01*
X111155061Y-93005643D01*
X111155064Y-93005641D01*
X111159696Y-93003372D01*
X111348255Y-92868875D01*
X111393321Y-92823966D01*
X111455693Y-92790050D01*
X111526499Y-92795238D01*
X111583261Y-92837884D01*
X111600243Y-92868988D01*
X111625397Y-92936086D01*
X111712751Y-93052642D01*
X111829307Y-93139996D01*
X111965696Y-93191126D01*
X112027878Y-93197881D01*
X113924146Y-93197881D01*
X113986328Y-93191126D01*
X114122717Y-93139996D01*
X114239273Y-93052642D01*
X114326627Y-92936086D01*
X114377757Y-92799697D01*
X114380854Y-92771190D01*
X117080551Y-92771190D01*
X117088687Y-92782195D01*
X117348948Y-92981899D01*
X117354547Y-92985733D01*
X117650271Y-93165536D01*
X117656261Y-93168748D01*
X117969667Y-93315558D01*
X117975971Y-93318105D01*
X118303393Y-93430206D01*
X118309944Y-93432060D01*
X118647549Y-93508142D01*
X118654268Y-93509279D01*
X118998122Y-93548457D01*
X119004912Y-93548860D01*
X119350982Y-93550672D01*
X119357783Y-93550340D01*
X119702029Y-93514766D01*
X119708757Y-93513700D01*
X120047153Y-93441153D01*
X120053702Y-93439374D01*
X120382287Y-93330705D01*
X120388629Y-93328219D01*
X120703532Y-93184710D01*
X120709586Y-93181545D01*
X121007136Y-93004873D01*
X121012817Y-93001070D01*
X121289555Y-92793290D01*
X121294779Y-92788906D01*
X121301246Y-92782854D01*
X121309315Y-92769174D01*
X121309288Y-92768450D01*
X121304144Y-92760147D01*
X119207819Y-90663821D01*
X119193878Y-90656209D01*
X119192043Y-90656340D01*
X119185429Y-90660591D01*
X117087432Y-92758589D01*
X117080551Y-92771190D01*
X114380854Y-92771190D01*
X114384512Y-92737515D01*
X114384512Y-90841247D01*
X114377757Y-90779065D01*
X114326627Y-90642676D01*
X114239273Y-90526120D01*
X114122717Y-90438766D01*
X113986328Y-90387636D01*
X113924146Y-90380881D01*
X113864512Y-90380881D01*
X113796391Y-90360879D01*
X113749898Y-90307223D01*
X113744805Y-90283808D01*
X115932417Y-90283808D01*
X115949927Y-90629460D01*
X115950637Y-90636216D01*
X116005373Y-90977942D01*
X116006812Y-90984597D01*
X116098132Y-91318405D01*
X116100281Y-91324866D01*
X116227120Y-91646867D01*
X116229951Y-91653050D01*
X116390821Y-91959464D01*
X116394315Y-91965325D01*
X116587327Y-92252555D01*
X116591437Y-92258009D01*
X116706920Y-92395150D01*
X116719659Y-92403594D01*
X116730102Y-92397497D01*
X118822989Y-90304611D01*
X118829366Y-90292932D01*
X119559417Y-90292932D01*
X119559548Y-90294767D01*
X119563799Y-90301381D01*
X121658562Y-92396143D01*
X121672158Y-92403568D01*
X121681771Y-92396867D01*
X121777853Y-92285161D01*
X121782011Y-92279761D01*
X121978031Y-91994552D01*
X121981578Y-91988741D01*
X122145642Y-91684039D01*
X122148549Y-91677861D01*
X122278752Y-91357212D01*
X122280966Y-91350782D01*
X122375777Y-91017944D01*
X122377284Y-91011314D01*
X122435598Y-90670163D01*
X122436378Y-90663423D01*
X122457603Y-90316377D01*
X122457719Y-90312774D01*
X122457787Y-90293620D01*
X122457695Y-90289995D01*
X122438893Y-89942824D01*
X122438158Y-89936058D01*
X122382232Y-89594539D01*
X122380765Y-89587867D01*
X122288286Y-89254399D01*
X122286112Y-89247936D01*
X122158150Y-88926383D01*
X122155294Y-88920203D01*
X121993356Y-88614355D01*
X121989856Y-88608530D01*
X121795820Y-88321940D01*
X121791713Y-88316530D01*
X121683098Y-88188456D01*
X121670273Y-88180020D01*
X121659949Y-88186072D01*
X119567029Y-90278991D01*
X119559417Y-90292932D01*
X118829366Y-90292932D01*
X118830601Y-90290670D01*
X118830470Y-90288835D01*
X118826219Y-90282221D01*
X116731467Y-88187470D01*
X116717930Y-88180078D01*
X116708228Y-88186866D01*
X116605217Y-88307477D01*
X116601084Y-88312882D01*
X116406060Y-88598777D01*
X116402539Y-88604590D01*
X116239531Y-88909875D01*
X116236645Y-88916065D01*
X116107567Y-89237158D01*
X116105376Y-89243593D01*
X116011724Y-89576769D01*
X116010241Y-89583404D01*
X115953122Y-89924737D01*
X115952363Y-89931509D01*
X115932441Y-90277013D01*
X115932417Y-90283808D01*
X113744805Y-90283808D01*
X113738512Y-90254881D01*
X113738512Y-88626794D01*
X113758514Y-88558673D01*
X113767638Y-88546225D01*
X113889772Y-88399375D01*
X113893470Y-88394929D01*
X113993016Y-88217177D01*
X113994872Y-88211710D01*
X113994874Y-88211705D01*
X114056646Y-88029730D01*
X114056647Y-88029725D01*
X114058502Y-88024261D01*
X114087735Y-87822641D01*
X114087960Y-87814036D01*
X117080332Y-87814036D01*
X117080366Y-87814875D01*
X117085421Y-87823002D01*
X119182199Y-89919781D01*
X119196140Y-89927393D01*
X119197975Y-89927262D01*
X119204589Y-89923011D01*
X121302439Y-87825160D01*
X121310053Y-87811216D01*
X121309985Y-87810262D01*
X121306031Y-87804283D01*
X121031673Y-87595278D01*
X121026049Y-87591456D01*
X120729708Y-87412692D01*
X120723701Y-87409499D01*
X120409798Y-87263789D01*
X120403475Y-87261260D01*
X120075663Y-87150302D01*
X120069105Y-87148472D01*
X119731241Y-87073568D01*
X119724512Y-87072454D01*
X119380524Y-87034477D01*
X119373744Y-87034098D01*
X119027645Y-87033495D01*
X119020872Y-87033850D01*
X118676735Y-87070627D01*
X118670025Y-87071714D01*
X118331893Y-87145439D01*
X118325318Y-87147250D01*
X117997126Y-87257061D01*
X117990804Y-87259564D01*
X117676397Y-87404175D01*
X117670354Y-87407361D01*
X117373415Y-87585075D01*
X117367755Y-87588893D01*
X117091742Y-87797642D01*
X117088150Y-87800676D01*
X117080332Y-87814036D01*
X114087960Y-87814036D01*
X114089261Y-87764378D01*
X114070620Y-87561504D01*
X114028650Y-87412692D01*
X114016887Y-87370984D01*
X114016886Y-87370982D01*
X114015319Y-87365425D01*
X114004692Y-87343874D01*
X113927768Y-87187888D01*
X113925213Y-87182707D01*
X113906808Y-87158059D01*
X113806770Y-87024093D01*
X113806770Y-87024092D01*
X113803317Y-87019469D01*
X113653715Y-86881178D01*
X113607687Y-86852137D01*
X113486300Y-86775547D01*
X113486295Y-86775545D01*
X113481416Y-86772466D01*
X113292192Y-86696973D01*
X113092378Y-86657227D01*
X113086604Y-86657151D01*
X113086600Y-86657151D01*
X112983464Y-86655802D01*
X112888667Y-86654561D01*
X112882970Y-86655540D01*
X112882969Y-86655540D01*
X112693579Y-86688083D01*
X112687882Y-86689062D01*
X112496746Y-86759576D01*
X112321661Y-86863741D01*
X112168490Y-86998068D01*
X112164923Y-87002593D01*
X112164918Y-87002598D01*
X112108970Y-87073568D01*
X112042363Y-87158059D01*
X111947504Y-87338356D01*
X111887090Y-87532921D01*
X111863144Y-87735237D01*
X111876469Y-87938529D01*
X111926617Y-88135988D01*
X112011910Y-88321002D01*
X112129491Y-88487375D01*
X112133625Y-88491402D01*
X112175434Y-88532131D01*
X112210271Y-88593993D01*
X112213512Y-88622385D01*
X112213512Y-90254881D01*
X112193510Y-90323002D01*
X112139854Y-90369495D01*
X112087512Y-90380881D01*
X112027878Y-90380881D01*
X111965696Y-90387636D01*
X111829307Y-90438766D01*
X111712751Y-90526120D01*
X111625397Y-90642676D01*
X111622245Y-90651084D01*
X111622244Y-90651086D01*
X111601550Y-90706287D01*
X111558909Y-90763052D01*
X111492347Y-90787752D01*
X111422998Y-90772545D01*
X111400179Y-90756047D01*
X111399899Y-90755739D01*
X111246420Y-90634529D01*
X111205357Y-90576612D01*
X111198512Y-90535647D01*
X111198512Y-84889365D01*
X115537526Y-84889365D01*
X115557481Y-85117452D01*
X115558905Y-85122765D01*
X115558905Y-85122767D01*
X115568055Y-85156913D01*
X115616740Y-85338608D01*
X115619063Y-85343589D01*
X115619063Y-85343590D01*
X115711175Y-85541127D01*
X115711178Y-85541132D01*
X115713501Y-85546114D01*
X115844826Y-85733665D01*
X116006724Y-85895563D01*
X116011232Y-85898720D01*
X116011235Y-85898722D01*
X116089413Y-85953463D01*
X116194275Y-86026888D01*
X116199257Y-86029211D01*
X116199262Y-86029214D01*
X116395789Y-86120855D01*
X116401781Y-86123649D01*
X116407089Y-86125071D01*
X116407091Y-86125072D01*
X116617622Y-86181484D01*
X116617624Y-86181484D01*
X116622937Y-86182908D01*
X116851024Y-86202863D01*
X117079111Y-86182908D01*
X117084424Y-86181484D01*
X117084426Y-86181484D01*
X117294957Y-86125072D01*
X117294959Y-86125071D01*
X117300267Y-86123649D01*
X117306259Y-86120855D01*
X117502786Y-86029214D01*
X117502791Y-86029211D01*
X117507773Y-86026888D01*
X117612635Y-85953463D01*
X117690813Y-85898722D01*
X117690816Y-85898720D01*
X117695324Y-85895563D01*
X117857222Y-85733665D01*
X117988547Y-85546114D01*
X117990870Y-85541132D01*
X117990873Y-85541127D01*
X118082985Y-85343590D01*
X118082985Y-85343589D01*
X118085308Y-85338608D01*
X118133994Y-85156913D01*
X118143143Y-85122767D01*
X118143143Y-85122765D01*
X118144567Y-85117452D01*
X118164522Y-84889365D01*
X118144567Y-84661278D01*
X118134268Y-84622843D01*
X118086731Y-84445432D01*
X118086730Y-84445430D01*
X118085308Y-84440122D01*
X117990990Y-84237854D01*
X117990873Y-84237603D01*
X117990870Y-84237598D01*
X117988547Y-84232616D01*
X117857222Y-84045065D01*
X117695324Y-83883167D01*
X117690816Y-83880010D01*
X117690813Y-83880008D01*
X117612635Y-83825267D01*
X117507773Y-83751842D01*
X117502791Y-83749519D01*
X117502786Y-83749516D01*
X117305249Y-83657404D01*
X117305248Y-83657404D01*
X117300267Y-83655081D01*
X117294959Y-83653659D01*
X117294957Y-83653658D01*
X117084426Y-83597246D01*
X117084424Y-83597246D01*
X117079111Y-83595822D01*
X116851024Y-83575867D01*
X116622937Y-83595822D01*
X116617624Y-83597246D01*
X116617622Y-83597246D01*
X116407091Y-83653658D01*
X116407089Y-83653659D01*
X116401781Y-83655081D01*
X116396800Y-83657404D01*
X116396799Y-83657404D01*
X116199262Y-83749516D01*
X116199257Y-83749519D01*
X116194275Y-83751842D01*
X116089413Y-83825267D01*
X116011235Y-83880008D01*
X116011232Y-83880010D01*
X116006724Y-83883167D01*
X115844826Y-84045065D01*
X115713501Y-84232616D01*
X115711178Y-84237598D01*
X115711175Y-84237603D01*
X115711058Y-84237854D01*
X115616740Y-84440122D01*
X115615318Y-84445430D01*
X115615317Y-84445432D01*
X115567780Y-84622843D01*
X115557481Y-84661278D01*
X115537526Y-84889365D01*
X111198512Y-84889365D01*
X111198512Y-83141736D01*
X111199945Y-83122786D01*
X111202136Y-83108387D01*
X111202136Y-83108383D01*
X111203236Y-83101153D01*
X111198927Y-83048174D01*
X111198512Y-83037960D01*
X111198512Y-83029835D01*
X111195205Y-83001470D01*
X111194772Y-82997095D01*
X111189415Y-82931228D01*
X111188822Y-82923934D01*
X111186568Y-82916977D01*
X111185379Y-82911023D01*
X111183961Y-82905025D01*
X111183113Y-82897753D01*
X111158064Y-82828743D01*
X111156647Y-82824616D01*
X111136280Y-82761746D01*
X111136279Y-82761744D01*
X111134025Y-82754786D01*
X111130230Y-82748533D01*
X111127685Y-82742973D01*
X111124943Y-82737499D01*
X111122446Y-82730619D01*
X111082202Y-82669236D01*
X111079856Y-82665518D01*
X111044700Y-82607584D01*
X111041785Y-82602780D01*
X111034345Y-82594355D01*
X111034374Y-82594330D01*
X111031778Y-82591404D01*
X111028973Y-82588050D01*
X111024958Y-82581925D01*
X110968425Y-82528371D01*
X110965984Y-82525994D01*
X109837833Y-81397843D01*
X109825446Y-81383430D01*
X109816818Y-81371706D01*
X109812477Y-81365807D01*
X109771968Y-81331392D01*
X109764452Y-81324462D01*
X109758708Y-81318718D01*
X109755834Y-81316444D01*
X109755827Y-81316438D01*
X109736312Y-81300999D01*
X109732908Y-81298208D01*
X109682551Y-81255426D01*
X109682547Y-81255423D01*
X109676972Y-81250687D01*
X109670455Y-81247359D01*
X109665391Y-81243982D01*
X109660167Y-81240755D01*
X109654423Y-81236211D01*
X109609247Y-81215097D01*
X109587941Y-81205139D01*
X109583990Y-81203208D01*
X109525140Y-81173158D01*
X109518619Y-81169828D01*
X109511504Y-81168087D01*
X109505758Y-81165950D01*
X109499975Y-81164026D01*
X109493344Y-81160927D01*
X109421466Y-81145977D01*
X109417194Y-81145010D01*
X109345911Y-81127567D01*
X109340312Y-81127220D01*
X109340308Y-81127219D01*
X109334693Y-81126871D01*
X109334695Y-81126832D01*
X109330794Y-81126599D01*
X109326435Y-81126210D01*
X109319267Y-81124719D01*
X109311950Y-81124917D01*
X109241446Y-81126825D01*
X109238037Y-81126871D01*
X108608611Y-81126871D01*
X108540490Y-81106869D01*
X108523073Y-81093387D01*
X108521999Y-81092394D01*
X108485560Y-81031462D01*
X108487848Y-80960502D01*
X108528136Y-80902044D01*
X108568710Y-80880010D01*
X108575437Y-80877831D01*
X108582404Y-80875574D01*
X108588666Y-80871774D01*
X108594209Y-80869236D01*
X108599685Y-80866494D01*
X108606570Y-80863995D01*
X108667961Y-80823746D01*
X108671629Y-80821431D01*
X108734410Y-80783334D01*
X108738615Y-80779620D01*
X108738618Y-80779618D01*
X108742834Y-80775894D01*
X108742860Y-80775923D01*
X108745791Y-80773323D01*
X108749145Y-80770519D01*
X108755264Y-80766507D01*
X108808818Y-80709974D01*
X108811195Y-80707533D01*
X109642549Y-79876179D01*
X109656962Y-79863792D01*
X109668686Y-79855164D01*
X109674585Y-79850823D01*
X109709000Y-79810314D01*
X109715930Y-79802798D01*
X109721674Y-79797054D01*
X109723948Y-79794180D01*
X109723954Y-79794173D01*
X109739393Y-79774658D01*
X109742184Y-79771254D01*
X109784966Y-79720897D01*
X109784969Y-79720893D01*
X109789705Y-79715318D01*
X109793033Y-79708801D01*
X109796410Y-79703737D01*
X109799637Y-79698513D01*
X109804181Y-79692769D01*
X109835253Y-79626287D01*
X109837184Y-79622336D01*
X109867234Y-79563486D01*
X109870564Y-79556965D01*
X109872305Y-79549850D01*
X109874442Y-79544104D01*
X109876366Y-79538321D01*
X109879465Y-79531690D01*
X109894415Y-79459812D01*
X109895384Y-79455531D01*
X109911491Y-79389708D01*
X109912825Y-79384257D01*
X109913204Y-79378157D01*
X109913521Y-79373039D01*
X109913560Y-79373041D01*
X109913793Y-79369140D01*
X109914182Y-79364781D01*
X109915673Y-79357613D01*
X109913567Y-79279792D01*
X109913521Y-79276383D01*
X109913521Y-73907397D01*
X109933523Y-73839276D01*
X109950426Y-73818302D01*
X110411755Y-73356973D01*
X110474067Y-73322947D01*
X110500850Y-73320068D01*
X110511554Y-73320068D01*
X110579675Y-73340070D01*
X110606791Y-73363571D01*
X110677072Y-73444705D01*
X110752262Y-73531506D01*
X110924138Y-73674200D01*
X110994607Y-73715379D01*
X110997457Y-73717044D01*
X111046181Y-73768682D01*
X111059252Y-73838465D01*
X111032521Y-73904237D01*
X110992067Y-73937595D01*
X110979619Y-73944075D01*
X110975486Y-73947178D01*
X110975483Y-73947180D01*
X110828688Y-74057397D01*
X110800977Y-74078203D01*
X110646641Y-74239706D01*
X110643727Y-74243978D01*
X110643726Y-74243979D01*
X110620857Y-74277504D01*
X110520755Y-74424248D01*
X110426700Y-74626873D01*
X110367001Y-74842138D01*
X110343263Y-75064263D01*
X110343560Y-75069416D01*
X110343560Y-75069419D01*
X110348719Y-75158888D01*
X110356122Y-75287283D01*
X110357259Y-75292329D01*
X110357260Y-75292335D01*
X110370609Y-75351568D01*
X110405234Y-75505207D01*
X110466685Y-75656544D01*
X110478855Y-75686514D01*
X110489278Y-75712184D01*
X110530828Y-75779987D01*
X110582433Y-75864199D01*
X110605999Y-75902656D01*
X110752262Y-76071506D01*
X110924138Y-76214200D01*
X110969606Y-76240769D01*
X110997457Y-76257044D01*
X111046181Y-76308682D01*
X111059252Y-76378465D01*
X111032521Y-76444237D01*
X110992067Y-76477595D01*
X110979619Y-76484075D01*
X110975486Y-76487178D01*
X110975483Y-76487180D01*
X110951259Y-76505368D01*
X110800977Y-76618203D01*
X110646641Y-76779706D01*
X110643727Y-76783978D01*
X110643726Y-76783979D01*
X110637050Y-76793766D01*
X110520755Y-76964248D01*
X110426700Y-77166873D01*
X110367001Y-77382138D01*
X110343263Y-77604263D01*
X110343560Y-77609416D01*
X110343560Y-77609419D01*
X110349023Y-77704158D01*
X110356122Y-77827283D01*
X110357259Y-77832329D01*
X110357260Y-77832335D01*
X110370609Y-77891568D01*
X110405234Y-78045207D01*
X110489278Y-78252184D01*
X110605999Y-78442656D01*
X110752262Y-78611506D01*
X110924138Y-78754200D01*
X110994607Y-78795379D01*
X110997457Y-78797044D01*
X111046181Y-78848682D01*
X111059252Y-78918465D01*
X111032521Y-78984237D01*
X110992067Y-79017595D01*
X110979619Y-79024075D01*
X110975486Y-79027178D01*
X110975483Y-79027180D01*
X110951259Y-79045368D01*
X110800977Y-79158203D01*
X110646641Y-79319706D01*
X110643727Y-79323978D01*
X110643726Y-79323979D01*
X110613725Y-79367959D01*
X110520755Y-79504248D01*
X110509123Y-79529307D01*
X110465035Y-79624288D01*
X110426700Y-79706873D01*
X110367001Y-79922138D01*
X110343263Y-80144263D01*
X110356122Y-80367283D01*
X110357259Y-80372329D01*
X110357260Y-80372335D01*
X110371461Y-80435346D01*
X110405234Y-80585207D01*
X110454905Y-80707533D01*
X110484176Y-80779618D01*
X110489278Y-80792184D01*
X110508619Y-80823746D01*
X110582792Y-80944785D01*
X110605999Y-80982656D01*
X110752262Y-81151506D01*
X110924138Y-81294200D01*
X111117012Y-81406906D01*
X111325704Y-81486598D01*
X111330772Y-81487629D01*
X111330775Y-81487630D01*
X111425874Y-81506978D01*
X111544609Y-81531135D01*
X111549784Y-81531325D01*
X111549786Y-81531325D01*
X111762685Y-81539132D01*
X111762689Y-81539132D01*
X111767849Y-81539321D01*
X111772969Y-81538665D01*
X111772971Y-81538665D01*
X111984300Y-81511593D01*
X111984301Y-81511593D01*
X111989428Y-81510936D01*
X111994378Y-81509451D01*
X112198441Y-81448229D01*
X112198446Y-81448227D01*
X112203396Y-81446742D01*
X112404006Y-81348464D01*
X112585872Y-81218741D01*
X112601460Y-81203208D01*
X112667221Y-81137675D01*
X112744108Y-81061057D01*
X112778124Y-81013719D01*
X112793346Y-80992535D01*
X112849341Y-80948887D01*
X112895669Y-80940061D01*
X116195453Y-80940061D01*
X116214403Y-80941494D01*
X116228802Y-80943685D01*
X116228808Y-80943685D01*
X116236037Y-80944785D01*
X116243329Y-80944192D01*
X116243332Y-80944192D01*
X116289012Y-80940476D01*
X116299227Y-80940061D01*
X116307354Y-80940061D01*
X116310990Y-80939637D01*
X116310992Y-80939637D01*
X116314444Y-80939234D01*
X116335753Y-80936750D01*
X116340073Y-80936323D01*
X116413255Y-80930370D01*
X116420217Y-80928114D01*
X116426205Y-80926918D01*
X116432162Y-80925510D01*
X116439436Y-80924662D01*
X116446318Y-80922164D01*
X116446322Y-80922163D01*
X116508436Y-80899616D01*
X116512540Y-80898206D01*
X116582404Y-80875574D01*
X116588667Y-80871774D01*
X116594209Y-80869236D01*
X116599685Y-80866494D01*
X116606570Y-80863995D01*
X116667961Y-80823746D01*
X116671629Y-80821431D01*
X116734410Y-80783334D01*
X116738615Y-80779620D01*
X116738618Y-80779618D01*
X116742834Y-80775894D01*
X116742860Y-80775923D01*
X116745791Y-80773323D01*
X116749145Y-80770519D01*
X116755264Y-80766507D01*
X116808818Y-80709974D01*
X116811195Y-80707533D01*
X117073194Y-80445534D01*
X119555277Y-80445534D01*
X119585585Y-80580014D01*
X119588665Y-80589843D01*
X119668790Y-80787171D01*
X119673433Y-80796362D01*
X119784714Y-80977956D01*
X119790797Y-80986267D01*
X119930233Y-81147235D01*
X119937600Y-81154451D01*
X120101454Y-81290484D01*
X120109901Y-81296399D01*
X120293776Y-81403847D01*
X120303062Y-81408297D01*
X120502021Y-81484271D01*
X120511919Y-81487147D01*
X120615270Y-81508174D01*
X120629319Y-81506978D01*
X120633020Y-81496633D01*
X120633020Y-81496085D01*
X121141020Y-81496085D01*
X121145084Y-81509927D01*
X121158498Y-81511961D01*
X121165204Y-81511102D01*
X121175282Y-81508960D01*
X121379275Y-81447759D01*
X121388862Y-81444001D01*
X121580115Y-81350307D01*
X121588965Y-81345032D01*
X121762348Y-81221360D01*
X121770220Y-81214707D01*
X121921072Y-81064380D01*
X121927750Y-81056533D01*
X122052023Y-80883588D01*
X122057333Y-80874751D01*
X122151690Y-80683835D01*
X122155489Y-80674240D01*
X122217397Y-80470478D01*
X122219575Y-80460405D01*
X122221006Y-80449530D01*
X122218795Y-80435346D01*
X122205637Y-80431568D01*
X121159135Y-80431568D01*
X121143896Y-80436043D01*
X121142691Y-80437433D01*
X121141020Y-80445116D01*
X121141020Y-81496085D01*
X120633020Y-81496085D01*
X120633020Y-80449683D01*
X120628545Y-80434444D01*
X120627155Y-80433239D01*
X120619472Y-80431568D01*
X119570245Y-80431568D01*
X119556714Y-80435541D01*
X119555277Y-80445534D01*
X117073194Y-80445534D01*
X119081762Y-78436966D01*
X119144074Y-78402940D01*
X119170857Y-78400061D01*
X119692556Y-78400061D01*
X119760677Y-78420063D01*
X119787793Y-78443564D01*
X119858080Y-78524705D01*
X119933270Y-78611506D01*
X120105146Y-78754200D01*
X120177998Y-78796771D01*
X120178975Y-78797342D01*
X120227699Y-78848980D01*
X120240770Y-78918763D01*
X120214039Y-78984535D01*
X120173582Y-79017895D01*
X120165477Y-79022114D01*
X120156758Y-79027604D01*
X119986453Y-79155473D01*
X119978746Y-79162316D01*
X119831610Y-79316285D01*
X119825124Y-79324295D01*
X119705118Y-79500217D01*
X119700020Y-79509191D01*
X119610358Y-79702351D01*
X119606795Y-79712038D01*
X119551409Y-79911751D01*
X119552932Y-79920175D01*
X119565312Y-79923568D01*
X122205364Y-79923568D01*
X122218895Y-79919595D01*
X122220200Y-79910515D01*
X122178234Y-79743443D01*
X122174914Y-79733692D01*
X122089992Y-79538382D01*
X122085125Y-79529307D01*
X121969446Y-79350494D01*
X121963156Y-79342325D01*
X121819826Y-79184808D01*
X121812293Y-79177783D01*
X121645159Y-79045790D01*
X121636576Y-79040088D01*
X121599622Y-79019688D01*
X121549651Y-78969255D01*
X121534879Y-78899813D01*
X121559995Y-78833407D01*
X121587347Y-78806800D01*
X121610817Y-78790059D01*
X121766880Y-78678741D01*
X121925116Y-78521057D01*
X121984614Y-78438257D01*
X122052455Y-78343845D01*
X122055473Y-78339645D01*
X122154450Y-78139379D01*
X122219390Y-77925637D01*
X122248549Y-77704158D01*
X122250176Y-77637568D01*
X122231872Y-77414929D01*
X122177451Y-77198270D01*
X122088374Y-76993408D01*
X122048926Y-76932430D01*
X121969842Y-76810185D01*
X121969840Y-76810182D01*
X121967034Y-76805845D01*
X121816690Y-76640619D01*
X121812639Y-76637420D01*
X121812635Y-76637416D01*
X121645434Y-76505368D01*
X121645430Y-76505366D01*
X121641379Y-76502166D01*
X121599589Y-76479097D01*
X121549618Y-76428665D01*
X121534846Y-76359222D01*
X121559962Y-76292816D01*
X121587314Y-76266209D01*
X121762348Y-76141360D01*
X121770220Y-76134707D01*
X121921072Y-75984380D01*
X121927750Y-75976533D01*
X122052023Y-75803588D01*
X122057333Y-75794751D01*
X122151690Y-75603835D01*
X122155489Y-75594240D01*
X122217397Y-75390478D01*
X122219575Y-75380405D01*
X122221006Y-75369530D01*
X122218795Y-75355346D01*
X122205637Y-75351568D01*
X119570245Y-75351568D01*
X119556714Y-75355541D01*
X119555277Y-75365534D01*
X119585585Y-75500014D01*
X119588665Y-75509843D01*
X119668790Y-75707171D01*
X119673433Y-75716362D01*
X119784714Y-75897956D01*
X119790797Y-75906267D01*
X119930233Y-76067235D01*
X119937600Y-76074451D01*
X120101454Y-76210484D01*
X120109901Y-76216399D01*
X120178989Y-76256771D01*
X120227713Y-76308410D01*
X120240784Y-76378193D01*
X120214053Y-76443964D01*
X120173604Y-76477320D01*
X120160627Y-76484075D01*
X120156494Y-76487178D01*
X120156491Y-76487180D01*
X120132267Y-76505368D01*
X119981985Y-76618203D01*
X119827649Y-76779706D01*
X119824735Y-76783978D01*
X119824734Y-76783979D01*
X119800118Y-76820065D01*
X119745207Y-76865068D01*
X119696030Y-76875061D01*
X118870197Y-76875061D01*
X118851249Y-76873628D01*
X118843862Y-76872504D01*
X118836853Y-76871438D01*
X118836851Y-76871438D01*
X118829621Y-76870338D01*
X118829620Y-76870338D01*
X118829734Y-76869589D01*
X118767743Y-76849011D01*
X118723151Y-76793766D01*
X118713521Y-76745455D01*
X118713521Y-74057397D01*
X118733523Y-73989276D01*
X118750426Y-73968302D01*
X119361762Y-73356966D01*
X119424074Y-73322940D01*
X119450857Y-73320061D01*
X119692556Y-73320061D01*
X119760677Y-73340063D01*
X119787793Y-73363564D01*
X119858080Y-73444705D01*
X119933270Y-73531506D01*
X120105146Y-73674200D01*
X120177998Y-73716771D01*
X120178975Y-73717342D01*
X120227699Y-73768980D01*
X120240770Y-73838763D01*
X120214039Y-73904535D01*
X120173582Y-73937895D01*
X120165477Y-73942114D01*
X120156758Y-73947604D01*
X119986453Y-74075473D01*
X119978746Y-74082316D01*
X119831610Y-74236285D01*
X119825124Y-74244295D01*
X119705118Y-74420217D01*
X119700020Y-74429191D01*
X119610358Y-74622351D01*
X119606795Y-74632038D01*
X119551409Y-74831751D01*
X119552932Y-74840175D01*
X119565312Y-74843568D01*
X122205364Y-74843568D01*
X122218895Y-74839595D01*
X122220200Y-74830515D01*
X122178234Y-74663443D01*
X122174914Y-74653692D01*
X122089992Y-74458382D01*
X122085125Y-74449307D01*
X121969446Y-74270494D01*
X121963156Y-74262325D01*
X121819826Y-74104808D01*
X121812293Y-74097783D01*
X121645159Y-73965790D01*
X121636576Y-73960088D01*
X121599622Y-73939688D01*
X121549651Y-73889255D01*
X121534879Y-73819813D01*
X121559995Y-73753407D01*
X121587347Y-73726800D01*
X121610817Y-73710059D01*
X121766880Y-73598741D01*
X121925116Y-73441057D01*
X122014615Y-73316506D01*
X122052455Y-73263845D01*
X122055473Y-73259645D01*
X122083097Y-73203753D01*
X122152156Y-73064021D01*
X122152157Y-73064019D01*
X122154450Y-73059379D01*
X122219390Y-72845637D01*
X122248549Y-72624158D01*
X122250176Y-72557568D01*
X122231872Y-72334929D01*
X122177451Y-72118270D01*
X122088374Y-71913408D01*
X122023389Y-71812957D01*
X121969842Y-71730185D01*
X121969840Y-71730182D01*
X121967034Y-71725845D01*
X121816690Y-71560619D01*
X121812639Y-71557420D01*
X121812635Y-71557416D01*
X121645434Y-71425368D01*
X121645430Y-71425366D01*
X121641379Y-71422166D01*
X121599589Y-71399097D01*
X121549618Y-71348665D01*
X121534846Y-71279222D01*
X121559962Y-71212816D01*
X121587314Y-71186209D01*
X121762348Y-71061360D01*
X121770220Y-71054707D01*
X121921072Y-70904380D01*
X121927750Y-70896533D01*
X122052023Y-70723588D01*
X122057333Y-70714751D01*
X122151690Y-70523835D01*
X122155489Y-70514240D01*
X122217397Y-70310478D01*
X122219575Y-70300405D01*
X122221006Y-70289530D01*
X122218795Y-70275346D01*
X122205637Y-70271568D01*
X119570245Y-70271568D01*
X119556714Y-70275541D01*
X119555277Y-70285534D01*
X119585585Y-70420014D01*
X119588665Y-70429843D01*
X119668790Y-70627171D01*
X119673433Y-70636362D01*
X119784714Y-70817956D01*
X119790797Y-70826267D01*
X119930233Y-70987235D01*
X119937600Y-70994451D01*
X120101454Y-71130484D01*
X120109901Y-71136399D01*
X120178989Y-71176771D01*
X120227713Y-71228410D01*
X120240784Y-71298193D01*
X120214053Y-71363964D01*
X120173604Y-71397320D01*
X120160627Y-71404075D01*
X120156494Y-71407178D01*
X120156491Y-71407180D01*
X120132267Y-71425368D01*
X119981985Y-71538203D01*
X119827649Y-71699706D01*
X119824735Y-71703978D01*
X119824734Y-71703979D01*
X119800118Y-71740065D01*
X119745207Y-71785068D01*
X119696030Y-71795061D01*
X119150197Y-71795061D01*
X119131249Y-71793628D01*
X119123862Y-71792504D01*
X119116853Y-71791438D01*
X119116851Y-71791438D01*
X119109621Y-71790338D01*
X119102329Y-71790931D01*
X119102326Y-71790931D01*
X119056654Y-71794646D01*
X119046440Y-71795061D01*
X119038304Y-71795061D01*
X119034669Y-71795485D01*
X119034666Y-71795485D01*
X119016664Y-71797584D01*
X119009913Y-71798371D01*
X119005542Y-71798804D01*
X118994530Y-71799699D01*
X118939701Y-71804158D01*
X118939698Y-71804159D01*
X118932402Y-71804752D01*
X118925438Y-71807008D01*
X118919443Y-71808206D01*
X118913493Y-71809612D01*
X118906222Y-71810460D01*
X118837227Y-71835504D01*
X118833081Y-71836927D01*
X118770217Y-71857292D01*
X118770215Y-71857293D01*
X118763254Y-71859548D01*
X118756999Y-71863344D01*
X118751462Y-71865879D01*
X118745971Y-71868629D01*
X118739088Y-71871127D01*
X118732964Y-71875142D01*
X118677697Y-71911376D01*
X118674029Y-71913691D01*
X118611248Y-71951788D01*
X118607041Y-71955504D01*
X118607037Y-71955507D01*
X118602824Y-71959229D01*
X118602798Y-71959199D01*
X118599870Y-71961797D01*
X118596516Y-71964601D01*
X118590394Y-71968615D01*
X118585361Y-71973928D01*
X118536842Y-72025146D01*
X118534464Y-72027589D01*
X117828616Y-72733436D01*
X117766304Y-72767461D01*
X117695488Y-72762396D01*
X117638653Y-72719849D01*
X117613842Y-72653329D01*
X117613521Y-72644340D01*
X117613521Y-68657397D01*
X117633523Y-68589276D01*
X117650426Y-68568302D01*
X117941762Y-68276966D01*
X118004074Y-68242940D01*
X118030857Y-68240061D01*
X119692556Y-68240061D01*
X119760677Y-68260063D01*
X119787793Y-68283564D01*
X119858080Y-68364705D01*
X119933270Y-68451506D01*
X120105146Y-68594200D01*
X120177998Y-68636771D01*
X120178975Y-68637342D01*
X120227699Y-68688980D01*
X120240770Y-68758763D01*
X120214039Y-68824535D01*
X120173582Y-68857895D01*
X120165477Y-68862114D01*
X120156758Y-68867604D01*
X119986453Y-68995473D01*
X119978746Y-69002316D01*
X119831610Y-69156285D01*
X119825124Y-69164295D01*
X119705118Y-69340217D01*
X119700020Y-69349191D01*
X119610358Y-69542351D01*
X119606795Y-69552038D01*
X119551409Y-69751751D01*
X119552932Y-69760175D01*
X119565312Y-69763568D01*
X122205364Y-69763568D01*
X122218895Y-69759595D01*
X122220200Y-69750515D01*
X122178234Y-69583443D01*
X122174914Y-69573692D01*
X122089992Y-69378382D01*
X122085125Y-69369307D01*
X121969446Y-69190494D01*
X121963156Y-69182325D01*
X121819826Y-69024808D01*
X121812293Y-69017783D01*
X121645159Y-68885790D01*
X121636576Y-68880088D01*
X121599622Y-68859688D01*
X121549651Y-68809255D01*
X121534879Y-68739813D01*
X121559995Y-68673407D01*
X121587347Y-68646800D01*
X121645658Y-68605207D01*
X121766880Y-68518741D01*
X121925116Y-68361057D01*
X121984614Y-68278257D01*
X122052455Y-68183845D01*
X122055473Y-68179645D01*
X122073638Y-68142892D01*
X122152156Y-67984021D01*
X122152157Y-67984019D01*
X122154450Y-67979379D01*
X122219390Y-67765637D01*
X122248549Y-67544158D01*
X122250176Y-67477568D01*
X122231872Y-67254929D01*
X122177451Y-67038270D01*
X122088374Y-66833408D01*
X122020765Y-66728901D01*
X121969842Y-66650185D01*
X121969840Y-66650182D01*
X121967034Y-66645845D01*
X121816690Y-66480619D01*
X121812639Y-66477420D01*
X121812635Y-66477416D01*
X121645434Y-66345368D01*
X121645430Y-66345366D01*
X121641379Y-66342166D01*
X121599589Y-66319097D01*
X121549618Y-66268665D01*
X121534846Y-66199222D01*
X121559962Y-66132816D01*
X121587314Y-66106209D01*
X121762348Y-65981360D01*
X121770220Y-65974707D01*
X121921072Y-65824380D01*
X121927750Y-65816533D01*
X122052023Y-65643588D01*
X122057333Y-65634751D01*
X122151690Y-65443835D01*
X122155489Y-65434240D01*
X122217397Y-65230478D01*
X122219575Y-65220405D01*
X122221006Y-65209530D01*
X122218795Y-65195346D01*
X122205637Y-65191568D01*
X119570245Y-65191568D01*
X119556714Y-65195541D01*
X119555277Y-65205534D01*
X119585585Y-65340014D01*
X119588665Y-65349843D01*
X119668790Y-65547171D01*
X119673433Y-65556362D01*
X119784714Y-65737956D01*
X119790797Y-65746267D01*
X119930233Y-65907235D01*
X119937600Y-65914451D01*
X120101454Y-66050484D01*
X120109901Y-66056399D01*
X120178989Y-66096771D01*
X120227713Y-66148410D01*
X120240784Y-66218193D01*
X120214053Y-66283964D01*
X120173604Y-66317320D01*
X120160627Y-66324075D01*
X120156494Y-66327178D01*
X120156491Y-66327180D01*
X119986120Y-66455098D01*
X119981985Y-66458203D01*
X119956561Y-66484808D01*
X119836574Y-66610367D01*
X119827649Y-66619706D01*
X119824735Y-66623978D01*
X119824734Y-66623979D01*
X119800118Y-66660065D01*
X119745207Y-66705068D01*
X119696030Y-66715061D01*
X117730205Y-66715061D01*
X117711255Y-66713628D01*
X117696856Y-66711437D01*
X117696850Y-66711437D01*
X117689621Y-66710337D01*
X117682329Y-66710930D01*
X117682326Y-66710930D01*
X117636646Y-66714646D01*
X117626431Y-66715061D01*
X117618304Y-66715061D01*
X117614668Y-66715485D01*
X117614666Y-66715485D01*
X117611214Y-66715888D01*
X117589905Y-66718372D01*
X117585585Y-66718799D01*
X117512403Y-66724752D01*
X117505441Y-66727008D01*
X117499453Y-66728204D01*
X117493496Y-66729612D01*
X117486222Y-66730460D01*
X117479340Y-66732958D01*
X117479336Y-66732959D01*
X117417222Y-66755506D01*
X117413118Y-66756916D01*
X117343254Y-66779548D01*
X117336991Y-66783348D01*
X117331449Y-66785886D01*
X117325973Y-66788628D01*
X117319088Y-66791127D01*
X117312964Y-66795142D01*
X117257697Y-66831376D01*
X117254029Y-66833691D01*
X117191248Y-66871788D01*
X117187043Y-66875502D01*
X117187040Y-66875504D01*
X117182824Y-66879228D01*
X117182798Y-66879199D01*
X117179867Y-66881799D01*
X117176513Y-66884603D01*
X117170394Y-66888615D01*
X117165362Y-66893927D01*
X117116841Y-66945147D01*
X117114463Y-66947589D01*
X116813096Y-67248956D01*
X116750784Y-67282982D01*
X116679969Y-67277917D01*
X116623133Y-67235370D01*
X116598322Y-67168850D01*
X116598001Y-67159861D01*
X116598001Y-63572917D01*
X116618003Y-63504796D01*
X116634906Y-63483822D01*
X116921762Y-63196966D01*
X116984074Y-63162940D01*
X117010857Y-63160061D01*
X119692556Y-63160061D01*
X119760677Y-63180063D01*
X119787793Y-63203564D01*
X119914664Y-63350027D01*
X119933270Y-63371506D01*
X120105146Y-63514200D01*
X120116316Y-63520727D01*
X120178975Y-63557342D01*
X120227699Y-63608980D01*
X120240770Y-63678763D01*
X120214039Y-63744535D01*
X120173582Y-63777895D01*
X120165477Y-63782114D01*
X120156758Y-63787604D01*
X119986453Y-63915473D01*
X119978746Y-63922316D01*
X119831610Y-64076285D01*
X119825124Y-64084295D01*
X119705118Y-64260217D01*
X119700020Y-64269191D01*
X119610358Y-64462351D01*
X119606795Y-64472038D01*
X119551409Y-64671751D01*
X119552932Y-64680175D01*
X119565312Y-64683568D01*
X122205364Y-64683568D01*
X122218895Y-64679595D01*
X122220200Y-64670515D01*
X122178234Y-64503443D01*
X122174914Y-64493692D01*
X122089992Y-64298382D01*
X122085125Y-64289307D01*
X121969446Y-64110494D01*
X121963156Y-64102325D01*
X121819826Y-63944808D01*
X121812293Y-63937783D01*
X121645159Y-63805790D01*
X121636576Y-63800088D01*
X121599622Y-63779688D01*
X121549651Y-63729255D01*
X121534879Y-63659813D01*
X121559995Y-63593407D01*
X121587347Y-63566800D01*
X121651939Y-63520727D01*
X121766880Y-63438741D01*
X121925116Y-63281057D01*
X121961829Y-63229966D01*
X122044690Y-63114651D01*
X122055473Y-63099645D01*
X122085581Y-63038727D01*
X122152156Y-62904021D01*
X122152157Y-62904019D01*
X122154450Y-62899379D01*
X122215876Y-62697204D01*
X122217885Y-62690591D01*
X122217885Y-62690589D01*
X122219390Y-62685637D01*
X122248549Y-62464158D01*
X122250176Y-62397568D01*
X122231872Y-62174929D01*
X122177451Y-61958270D01*
X122088374Y-61753408D01*
X122011812Y-61635061D01*
X121969842Y-61570185D01*
X121969840Y-61570182D01*
X121967034Y-61565845D01*
X121816690Y-61400619D01*
X121812639Y-61397420D01*
X121812635Y-61397416D01*
X121645434Y-61265368D01*
X121645430Y-61265366D01*
X121641379Y-61262166D01*
X121445809Y-61154206D01*
X121440940Y-61152482D01*
X121440936Y-61152480D01*
X121240107Y-61081363D01*
X121240103Y-61081362D01*
X121235232Y-61079637D01*
X121230139Y-61078730D01*
X121230136Y-61078729D01*
X121020393Y-61041368D01*
X121020387Y-61041367D01*
X121015304Y-61040462D01*
X120941472Y-61039560D01*
X120797101Y-61037796D01*
X120797099Y-61037796D01*
X120791931Y-61037733D01*
X120571111Y-61071523D01*
X120358776Y-61140925D01*
X120160627Y-61244075D01*
X120156494Y-61247178D01*
X120156491Y-61247180D01*
X119986120Y-61375098D01*
X119981985Y-61378203D01*
X119968072Y-61392762D01*
X119871353Y-61493973D01*
X119827649Y-61539706D01*
X119824735Y-61543978D01*
X119824734Y-61543979D01*
X119800118Y-61580065D01*
X119745207Y-61625068D01*
X119696030Y-61635061D01*
X116710197Y-61635061D01*
X116691249Y-61633628D01*
X116683862Y-61632504D01*
X116676853Y-61631438D01*
X116676851Y-61631438D01*
X116669621Y-61630338D01*
X116662329Y-61630931D01*
X116662326Y-61630931D01*
X116616654Y-61634646D01*
X116606440Y-61635061D01*
X116598304Y-61635061D01*
X116594669Y-61635485D01*
X116594666Y-61635485D01*
X116576664Y-61637584D01*
X116569913Y-61638371D01*
X116565542Y-61638804D01*
X116554530Y-61639699D01*
X116499701Y-61644158D01*
X116499698Y-61644159D01*
X116492402Y-61644752D01*
X116485438Y-61647008D01*
X116479443Y-61648206D01*
X116473493Y-61649612D01*
X116466222Y-61650460D01*
X116397227Y-61675504D01*
X116393081Y-61676927D01*
X116330217Y-61697292D01*
X116330215Y-61697293D01*
X116323254Y-61699548D01*
X116316999Y-61703344D01*
X116311462Y-61705879D01*
X116305971Y-61708629D01*
X116299088Y-61711127D01*
X116292964Y-61715142D01*
X116237697Y-61751376D01*
X116234029Y-61753691D01*
X116171248Y-61791788D01*
X116167041Y-61795504D01*
X116167037Y-61795507D01*
X116162824Y-61799229D01*
X116162798Y-61799199D01*
X116159870Y-61801797D01*
X116156516Y-61804601D01*
X116150394Y-61808615D01*
X116145361Y-61813928D01*
X116096842Y-61865146D01*
X116094464Y-61867589D01*
X115343969Y-62618083D01*
X115329557Y-62630468D01*
X115311937Y-62643435D01*
X115307193Y-62649018D01*
X115307194Y-62649018D01*
X115277522Y-62683944D01*
X115270592Y-62691460D01*
X115264848Y-62697204D01*
X115262574Y-62700078D01*
X115262568Y-62700085D01*
X115247129Y-62719600D01*
X115244338Y-62723004D01*
X115201556Y-62773361D01*
X115201553Y-62773365D01*
X115196817Y-62778940D01*
X115193489Y-62785457D01*
X115190112Y-62790521D01*
X115186885Y-62795745D01*
X115182341Y-62801489D01*
X115179242Y-62808120D01*
X115151269Y-62867971D01*
X115149338Y-62871922D01*
X115115958Y-62937293D01*
X115114217Y-62944408D01*
X115112080Y-62950154D01*
X115110156Y-62955937D01*
X115107057Y-62962568D01*
X115105567Y-62969732D01*
X115092109Y-63034436D01*
X115091140Y-63038718D01*
X115073697Y-63110001D01*
X115073001Y-63121219D01*
X115072962Y-63121217D01*
X115072729Y-63125118D01*
X115072340Y-63129477D01*
X115070849Y-63136645D01*
X115071047Y-63143962D01*
X115072955Y-63214466D01*
X115073001Y-63217875D01*
X115073001Y-71669068D01*
X115052999Y-71737189D01*
X114999343Y-71783682D01*
X114947001Y-71795068D01*
X114357275Y-71795068D01*
X114346075Y-71794569D01*
X114344171Y-71794399D01*
X114337007Y-71792909D01*
X114327411Y-71793169D01*
X114305047Y-71791781D01*
X114302789Y-71791437D01*
X114302784Y-71791437D01*
X114295555Y-71790337D01*
X114288263Y-71790930D01*
X114288260Y-71790930D01*
X114242494Y-71794653D01*
X114232279Y-71795068D01*
X112899363Y-71795068D01*
X112831242Y-71775066D01*
X112793570Y-71737507D01*
X112786026Y-71725845D01*
X112635682Y-71560619D01*
X112631631Y-71557420D01*
X112631627Y-71557416D01*
X112464426Y-71425368D01*
X112464422Y-71425366D01*
X112460371Y-71422166D01*
X112419065Y-71399364D01*
X112369096Y-71348932D01*
X112354324Y-71279489D01*
X112379440Y-71213084D01*
X112406792Y-71186477D01*
X112450615Y-71155218D01*
X112585872Y-71058741D01*
X112744108Y-70901057D01*
X112874465Y-70719645D01*
X112905722Y-70656402D01*
X112971148Y-70524021D01*
X112971149Y-70524019D01*
X112973442Y-70519379D01*
X113038382Y-70305637D01*
X113067541Y-70084158D01*
X113069168Y-70017568D01*
X113050864Y-69794929D01*
X112996443Y-69578270D01*
X112907366Y-69373408D01*
X112839757Y-69268901D01*
X112788834Y-69190185D01*
X112788832Y-69190182D01*
X112786026Y-69185845D01*
X112635682Y-69020619D01*
X112631631Y-69017420D01*
X112631627Y-69017416D01*
X112464426Y-68885368D01*
X112464422Y-68885366D01*
X112460371Y-68882166D01*
X112418581Y-68859097D01*
X112368610Y-68808665D01*
X112353838Y-68739222D01*
X112378954Y-68672816D01*
X112406306Y-68646209D01*
X112581340Y-68521360D01*
X112589212Y-68514707D01*
X112740064Y-68364380D01*
X112746742Y-68356533D01*
X112871015Y-68183588D01*
X112876325Y-68174751D01*
X112970682Y-67983835D01*
X112974481Y-67974240D01*
X113036389Y-67770478D01*
X113038567Y-67760405D01*
X113039998Y-67749530D01*
X113037787Y-67735346D01*
X113024629Y-67731568D01*
X110389237Y-67731568D01*
X110375706Y-67735541D01*
X110374269Y-67745534D01*
X110404577Y-67880014D01*
X110407657Y-67889843D01*
X110487782Y-68087171D01*
X110492425Y-68096362D01*
X110603706Y-68277956D01*
X110609789Y-68286267D01*
X110749225Y-68447235D01*
X110756592Y-68454451D01*
X110920446Y-68590484D01*
X110928893Y-68596399D01*
X110997981Y-68636771D01*
X111046705Y-68688410D01*
X111059776Y-68758193D01*
X111033045Y-68823964D01*
X110992596Y-68857320D01*
X110979619Y-68864075D01*
X110975486Y-68867178D01*
X110975483Y-68867180D01*
X110951259Y-68885368D01*
X110800977Y-68998203D01*
X110646641Y-69159706D01*
X110643727Y-69163978D01*
X110643726Y-69163979D01*
X110619110Y-69200065D01*
X110564199Y-69245068D01*
X110515022Y-69255061D01*
X108790205Y-69255061D01*
X108771255Y-69253628D01*
X108756856Y-69251437D01*
X108756850Y-69251437D01*
X108749621Y-69250337D01*
X108742329Y-69250930D01*
X108742326Y-69250930D01*
X108696646Y-69254646D01*
X108686431Y-69255061D01*
X108678304Y-69255061D01*
X108674668Y-69255485D01*
X108674666Y-69255485D01*
X108671214Y-69255888D01*
X108649905Y-69258372D01*
X108645585Y-69258799D01*
X108572403Y-69264752D01*
X108565441Y-69267008D01*
X108559453Y-69268204D01*
X108553496Y-69269612D01*
X108546222Y-69270460D01*
X108539340Y-69272958D01*
X108539336Y-69272959D01*
X108477222Y-69295506D01*
X108473118Y-69296916D01*
X108403254Y-69319548D01*
X108396991Y-69323348D01*
X108391449Y-69325886D01*
X108385973Y-69328628D01*
X108379088Y-69331127D01*
X108372964Y-69335142D01*
X108317697Y-69371376D01*
X108314029Y-69373691D01*
X108251248Y-69411788D01*
X108247043Y-69415502D01*
X108247040Y-69415504D01*
X108242824Y-69419228D01*
X108242798Y-69419199D01*
X108239867Y-69421799D01*
X108236513Y-69424603D01*
X108230394Y-69428615D01*
X108225362Y-69433927D01*
X108176841Y-69485147D01*
X108174463Y-69487589D01*
X107259493Y-70402559D01*
X107245080Y-70414946D01*
X107227457Y-70427915D01*
X107222713Y-70433498D01*
X107222714Y-70433498D01*
X107193042Y-70468424D01*
X107186112Y-70475940D01*
X107180368Y-70481684D01*
X107178094Y-70484558D01*
X107178088Y-70484565D01*
X107162649Y-70504080D01*
X107159858Y-70507484D01*
X107117076Y-70557841D01*
X107117073Y-70557845D01*
X107112337Y-70563420D01*
X107109009Y-70569937D01*
X107105632Y-70575001D01*
X107102405Y-70580225D01*
X107097861Y-70585969D01*
X107094762Y-70592600D01*
X107066789Y-70652451D01*
X107064858Y-70656402D01*
X107031478Y-70721773D01*
X107029737Y-70728888D01*
X107027600Y-70734634D01*
X107025676Y-70740417D01*
X107022577Y-70747048D01*
X107007829Y-70817956D01*
X107007629Y-70818916D01*
X107006660Y-70823198D01*
X106989217Y-70894481D01*
X106988521Y-70905699D01*
X106988482Y-70905697D01*
X106988249Y-70909598D01*
X106987860Y-70913957D01*
X106986369Y-70921125D01*
X106986567Y-70928442D01*
X106988475Y-70998946D01*
X106988521Y-71002355D01*
X106988521Y-74209061D01*
X106968519Y-74277182D01*
X106914863Y-74323675D01*
X106862521Y-74335061D01*
X103718351Y-74335061D01*
X103650230Y-74315059D01*
X103612561Y-74277504D01*
X103607827Y-74270187D01*
X103605018Y-74265845D01*
X103454674Y-74100619D01*
X103450623Y-74097420D01*
X103450619Y-74097416D01*
X103283418Y-73965368D01*
X103283414Y-73965366D01*
X103279363Y-73962166D01*
X103237573Y-73939097D01*
X103187602Y-73888665D01*
X103172830Y-73819222D01*
X103197946Y-73752816D01*
X103225298Y-73726209D01*
X103400332Y-73601360D01*
X103408204Y-73594707D01*
X103559056Y-73444380D01*
X103565734Y-73436533D01*
X103690007Y-73263588D01*
X103695317Y-73254751D01*
X103789674Y-73063835D01*
X103793473Y-73054240D01*
X103855381Y-72850478D01*
X103857559Y-72840405D01*
X103858990Y-72829530D01*
X103856779Y-72815346D01*
X103843621Y-72811568D01*
X101208229Y-72811568D01*
X101194698Y-72815541D01*
X101193261Y-72825534D01*
X101223569Y-72960014D01*
X101226649Y-72969843D01*
X101306774Y-73167171D01*
X101311417Y-73176362D01*
X101422698Y-73357956D01*
X101428781Y-73366267D01*
X101568217Y-73527235D01*
X101575584Y-73534451D01*
X101739438Y-73670484D01*
X101747885Y-73676399D01*
X101816973Y-73716771D01*
X101865697Y-73768410D01*
X101878768Y-73838193D01*
X101852037Y-73903964D01*
X101811588Y-73937320D01*
X101798611Y-73944075D01*
X101794478Y-73947178D01*
X101794475Y-73947180D01*
X101647680Y-74057397D01*
X101619969Y-74078203D01*
X101465633Y-74239706D01*
X101462719Y-74243978D01*
X101462718Y-74243979D01*
X101439849Y-74277504D01*
X101339747Y-74424248D01*
X101245692Y-74626873D01*
X101185993Y-74842138D01*
X101162255Y-75064263D01*
X101162552Y-75069416D01*
X101162552Y-75069419D01*
X101167711Y-75158888D01*
X101175114Y-75287283D01*
X101176251Y-75292329D01*
X101176252Y-75292335D01*
X101189601Y-75351568D01*
X101224226Y-75505207D01*
X101285677Y-75656544D01*
X101297847Y-75686514D01*
X101308270Y-75712184D01*
X101349820Y-75779987D01*
X101401425Y-75864199D01*
X101424991Y-75902656D01*
X101571254Y-76071506D01*
X101743130Y-76214200D01*
X101788598Y-76240769D01*
X101816959Y-76257342D01*
X101865683Y-76308980D01*
X101878754Y-76378763D01*
X101852023Y-76444535D01*
X101811566Y-76477895D01*
X101803461Y-76482114D01*
X101794742Y-76487604D01*
X101624437Y-76615473D01*
X101616730Y-76622316D01*
X101469594Y-76776285D01*
X101463108Y-76784295D01*
X101343102Y-76960217D01*
X101338004Y-76969191D01*
X101248342Y-77162351D01*
X101244779Y-77172038D01*
X101189393Y-77371751D01*
X101190916Y-77380175D01*
X101203296Y-77383568D01*
X103843348Y-77383568D01*
X103856879Y-77379595D01*
X103858184Y-77370515D01*
X103816218Y-77203443D01*
X103812898Y-77193692D01*
X103727976Y-76998382D01*
X103723109Y-76989307D01*
X103607430Y-76810494D01*
X103601140Y-76802325D01*
X103457810Y-76644808D01*
X103450277Y-76637783D01*
X103283143Y-76505790D01*
X103274560Y-76500088D01*
X103237606Y-76479688D01*
X103187635Y-76429255D01*
X103172863Y-76359813D01*
X103197979Y-76293407D01*
X103225331Y-76266800D01*
X103294223Y-76217660D01*
X103404864Y-76138741D01*
X103563100Y-75981057D01*
X103566351Y-75976533D01*
X103612338Y-75912535D01*
X103668333Y-75868887D01*
X103714661Y-75860061D01*
X106932323Y-75860061D01*
X107000444Y-75880063D01*
X107020245Y-75895807D01*
X107030983Y-75906267D01*
X107088931Y-75962718D01*
X107093727Y-75965923D01*
X107093730Y-75965925D01*
X107193648Y-76032688D01*
X107258324Y-76075903D01*
X107263627Y-76078181D01*
X107263630Y-76078183D01*
X107440201Y-76154044D01*
X107445508Y-76156324D01*
X107518338Y-76172804D01*
X107638576Y-76200011D01*
X107638581Y-76200012D01*
X107644213Y-76201286D01*
X107649984Y-76201513D01*
X107649986Y-76201513D01*
X107712991Y-76203988D01*
X107847784Y-76209284D01*
X108049404Y-76180051D01*
X108054868Y-76178196D01*
X108054873Y-76178195D01*
X108222020Y-76121456D01*
X108292955Y-76118500D01*
X108354227Y-76154363D01*
X108386384Y-76217660D01*
X108388521Y-76240769D01*
X108388521Y-78921341D01*
X108368519Y-78989462D01*
X108351616Y-79010437D01*
X107983895Y-79378157D01*
X107921583Y-79412182D01*
X107894800Y-79415061D01*
X103718351Y-79415061D01*
X103650230Y-79395059D01*
X103612561Y-79357504D01*
X103607827Y-79350187D01*
X103605018Y-79345845D01*
X103454674Y-79180619D01*
X103450623Y-79177420D01*
X103450619Y-79177416D01*
X103283418Y-79045368D01*
X103283414Y-79045366D01*
X103279363Y-79042166D01*
X103237573Y-79019097D01*
X103187602Y-78968665D01*
X103172830Y-78899222D01*
X103197946Y-78832816D01*
X103225298Y-78806209D01*
X103400332Y-78681360D01*
X103408204Y-78674707D01*
X103559056Y-78524380D01*
X103565734Y-78516533D01*
X103690007Y-78343588D01*
X103695317Y-78334751D01*
X103789674Y-78143835D01*
X103793473Y-78134240D01*
X103855381Y-77930478D01*
X103857559Y-77920405D01*
X103858990Y-77909530D01*
X103856779Y-77895346D01*
X103843621Y-77891568D01*
X101208229Y-77891568D01*
X101194698Y-77895541D01*
X101193261Y-77905534D01*
X101223569Y-78040014D01*
X101226649Y-78049843D01*
X101306774Y-78247171D01*
X101311417Y-78256362D01*
X101422698Y-78437956D01*
X101428781Y-78446267D01*
X101568217Y-78607235D01*
X101575584Y-78614451D01*
X101739438Y-78750484D01*
X101747885Y-78756399D01*
X101816973Y-78796771D01*
X101865697Y-78848410D01*
X101878768Y-78918193D01*
X101852037Y-78983964D01*
X101811588Y-79017320D01*
X101798611Y-79024075D01*
X101794478Y-79027178D01*
X101794475Y-79027180D01*
X101770251Y-79045368D01*
X101619969Y-79158203D01*
X101465633Y-79319706D01*
X101462719Y-79323978D01*
X101462718Y-79323979D01*
X101432717Y-79367959D01*
X101339747Y-79504248D01*
X101328115Y-79529307D01*
X101284027Y-79624288D01*
X101245692Y-79706873D01*
X101185993Y-79922138D01*
X101162255Y-80144263D01*
X100675011Y-80144263D01*
X100675011Y-72291751D01*
X101189393Y-72291751D01*
X101190916Y-72300175D01*
X101203296Y-72303568D01*
X102252889Y-72303568D01*
X102268128Y-72299093D01*
X102269333Y-72297703D01*
X102271004Y-72290020D01*
X102271004Y-72285453D01*
X102779004Y-72285453D01*
X102783479Y-72300692D01*
X102784869Y-72301897D01*
X102792552Y-72303568D01*
X103843348Y-72303568D01*
X103856879Y-72299595D01*
X103858184Y-72290515D01*
X103816218Y-72123443D01*
X103812898Y-72113692D01*
X103727976Y-71918382D01*
X103723109Y-71909307D01*
X103607430Y-71730494D01*
X103601140Y-71722325D01*
X103457810Y-71564808D01*
X103450277Y-71557783D01*
X103283143Y-71425790D01*
X103274556Y-71420085D01*
X103237120Y-71399419D01*
X103187150Y-71348987D01*
X103172378Y-71279544D01*
X103197494Y-71213139D01*
X103224846Y-71186532D01*
X103400331Y-71061360D01*
X103408204Y-71054707D01*
X103559056Y-70904380D01*
X103565734Y-70896533D01*
X103690007Y-70723588D01*
X103695317Y-70714751D01*
X103789674Y-70523835D01*
X103793473Y-70514240D01*
X103855381Y-70310478D01*
X103857559Y-70300405D01*
X103858990Y-70289530D01*
X103856779Y-70275346D01*
X103843621Y-70271568D01*
X102797119Y-70271568D01*
X102781880Y-70276043D01*
X102780675Y-70277433D01*
X102779004Y-70285116D01*
X102779004Y-72285453D01*
X102271004Y-72285453D01*
X102271004Y-70289683D01*
X102266529Y-70274444D01*
X102265139Y-70273239D01*
X102257456Y-70271568D01*
X101208229Y-70271568D01*
X101194698Y-70275541D01*
X101193261Y-70285534D01*
X101223569Y-70420014D01*
X101226649Y-70429843D01*
X101306774Y-70627171D01*
X101311417Y-70636362D01*
X101422698Y-70817956D01*
X101428781Y-70826267D01*
X101568217Y-70987235D01*
X101575584Y-70994451D01*
X101739438Y-71130484D01*
X101747885Y-71136399D01*
X101817483Y-71177069D01*
X101866207Y-71228708D01*
X101879278Y-71298491D01*
X101852547Y-71364262D01*
X101812091Y-71397621D01*
X101803466Y-71402110D01*
X101794742Y-71407604D01*
X101624437Y-71535473D01*
X101616730Y-71542316D01*
X101469594Y-71696285D01*
X101463108Y-71704295D01*
X101343102Y-71880217D01*
X101338004Y-71889191D01*
X101248342Y-72082351D01*
X101244779Y-72092038D01*
X101189393Y-72291751D01*
X100675011Y-72291751D01*
X100675011Y-67444263D01*
X101162255Y-67444263D01*
X101162552Y-67449416D01*
X101162552Y-67449419D01*
X101168015Y-67544158D01*
X101175114Y-67667283D01*
X101176251Y-67672329D01*
X101176252Y-67672335D01*
X101189601Y-67731568D01*
X101224226Y-67885207D01*
X101308270Y-68092184D01*
X101333424Y-68133231D01*
X101409734Y-68257758D01*
X101424991Y-68282656D01*
X101571254Y-68451506D01*
X101743130Y-68594200D01*
X101815982Y-68636771D01*
X101816959Y-68637342D01*
X101865683Y-68688980D01*
X101878754Y-68758763D01*
X101852023Y-68824535D01*
X101811566Y-68857895D01*
X101803461Y-68862114D01*
X101794742Y-68867604D01*
X101624437Y-68995473D01*
X101616730Y-69002316D01*
X101469594Y-69156285D01*
X101463108Y-69164295D01*
X101343102Y-69340217D01*
X101338004Y-69349191D01*
X101248342Y-69542351D01*
X101244779Y-69552038D01*
X101189393Y-69751751D01*
X101190916Y-69760175D01*
X101203296Y-69763568D01*
X103843348Y-69763568D01*
X103856879Y-69759595D01*
X103858184Y-69750515D01*
X103816218Y-69583443D01*
X103812898Y-69573692D01*
X103727976Y-69378382D01*
X103723109Y-69369307D01*
X103607430Y-69190494D01*
X103601140Y-69182325D01*
X103457810Y-69024808D01*
X103450277Y-69017783D01*
X103283143Y-68885790D01*
X103274560Y-68880088D01*
X103237606Y-68859688D01*
X103187635Y-68809255D01*
X103172863Y-68739813D01*
X103197979Y-68673407D01*
X103225331Y-68646800D01*
X103283642Y-68605207D01*
X103404864Y-68518741D01*
X103563100Y-68361057D01*
X103566116Y-68356860D01*
X103566121Y-68356854D01*
X103566708Y-68356037D01*
X103567029Y-68355786D01*
X103569469Y-68352920D01*
X103570061Y-68353424D01*
X103622705Y-68312392D01*
X103669027Y-68303568D01*
X104222789Y-68303568D01*
X104233334Y-68304010D01*
X104283122Y-68308191D01*
X104360565Y-68297857D01*
X104363565Y-68297495D01*
X104405320Y-68292959D01*
X104434456Y-68289794D01*
X104434458Y-68289794D01*
X104441239Y-68289057D01*
X104447705Y-68286881D01*
X104450055Y-68286364D01*
X104450605Y-68286267D01*
X104451372Y-68286088D01*
X104451907Y-68285933D01*
X104454254Y-68285357D01*
X104461012Y-68284455D01*
X104534364Y-68257757D01*
X104537265Y-68256742D01*
X104604861Y-68233993D01*
X104604868Y-68233990D01*
X104611333Y-68231814D01*
X104617182Y-68228299D01*
X104619375Y-68227286D01*
X104619890Y-68227074D01*
X104620588Y-68226741D01*
X104621089Y-68226468D01*
X104623243Y-68225408D01*
X104629656Y-68223074D01*
X104695624Y-68181209D01*
X104698216Y-68179609D01*
X104759324Y-68142892D01*
X104765166Y-68139382D01*
X104770117Y-68134701D01*
X104772053Y-68133231D01*
X104772984Y-68132583D01*
X104776818Y-68129683D01*
X104781186Y-68126911D01*
X104785286Y-68123245D01*
X104837208Y-68071323D01*
X104839730Y-68068870D01*
X104890604Y-68020761D01*
X104890606Y-68020759D01*
X104895562Y-68016072D01*
X104899396Y-68010430D01*
X104903519Y-68005586D01*
X104910375Y-67998156D01*
X105606783Y-67301747D01*
X105614551Y-67294604D01*
X105647502Y-67266758D01*
X105652715Y-67262353D01*
X105700156Y-67200302D01*
X105702054Y-67197882D01*
X105746715Y-67142336D01*
X105750991Y-67137018D01*
X105754024Y-67130908D01*
X105755326Y-67128872D01*
X105755645Y-67128416D01*
X105756055Y-67127758D01*
X105756324Y-67127268D01*
X105757575Y-67125202D01*
X105761719Y-67119782D01*
X105794718Y-67049014D01*
X105796052Y-67046243D01*
X105802367Y-67033522D01*
X105830789Y-66976266D01*
X105832441Y-66969641D01*
X105833275Y-66967374D01*
X105833494Y-66966849D01*
X105833743Y-66966145D01*
X105833905Y-66965595D01*
X105834683Y-66963311D01*
X105837565Y-66957129D01*
X105839053Y-66950471D01*
X105839056Y-66950463D01*
X105854603Y-66880910D01*
X105855311Y-66877914D01*
X105872555Y-66808753D01*
X105872555Y-66808750D01*
X105874206Y-66802130D01*
X105874397Y-66795309D01*
X105874726Y-66792905D01*
X105874923Y-66791809D01*
X105875585Y-66787040D01*
X105876715Y-66781984D01*
X105877022Y-66776493D01*
X105877022Y-66703057D01*
X105877071Y-66699540D01*
X105879026Y-66629554D01*
X105879026Y-66629549D01*
X105879216Y-66622733D01*
X105877937Y-66616029D01*
X105877428Y-66609703D01*
X105877022Y-66599596D01*
X105877022Y-65729402D01*
X105877464Y-65718858D01*
X105880509Y-65682595D01*
X105881645Y-65669069D01*
X105879254Y-65651145D01*
X105878129Y-65642717D01*
X105877022Y-65626053D01*
X105877022Y-64803081D01*
X105877071Y-64799563D01*
X105877096Y-64798653D01*
X105879217Y-64722735D01*
X105877938Y-64716028D01*
X105877428Y-64709693D01*
X105877022Y-64699586D01*
X105877022Y-64103079D01*
X105877071Y-64099561D01*
X105877506Y-64083979D01*
X105879217Y-64022733D01*
X105877938Y-64016026D01*
X105877428Y-64009691D01*
X105877022Y-63999584D01*
X105877022Y-63183630D01*
X105897024Y-63115509D01*
X105906148Y-63103061D01*
X105964782Y-63032561D01*
X105968480Y-63028115D01*
X106043350Y-62894425D01*
X106065202Y-62855406D01*
X106065203Y-62855404D01*
X106068026Y-62850363D01*
X106069882Y-62844896D01*
X106069884Y-62844891D01*
X106131656Y-62662916D01*
X106131657Y-62662911D01*
X106133512Y-62657447D01*
X106162745Y-62455827D01*
X106164271Y-62397564D01*
X106145630Y-62194690D01*
X106090329Y-61998611D01*
X106070436Y-61958270D01*
X106002778Y-61821074D01*
X106000223Y-61815893D01*
X105987780Y-61799229D01*
X105881780Y-61657279D01*
X105881780Y-61657278D01*
X105878327Y-61652655D01*
X105728725Y-61514364D01*
X105641246Y-61459169D01*
X105561310Y-61408733D01*
X105561305Y-61408731D01*
X105556426Y-61405652D01*
X105367202Y-61330159D01*
X105167388Y-61290413D01*
X105161614Y-61290337D01*
X105161610Y-61290337D01*
X105058474Y-61288988D01*
X104963677Y-61287747D01*
X104957980Y-61288726D01*
X104957979Y-61288726D01*
X104838414Y-61309271D01*
X104762892Y-61322248D01*
X104571756Y-61392762D01*
X104566795Y-61395714D01*
X104566794Y-61395714D01*
X104483771Y-61445108D01*
X104396671Y-61496927D01*
X104392327Y-61500737D01*
X104347221Y-61540293D01*
X104282817Y-61570170D01*
X104264144Y-61571561D01*
X104004393Y-61571561D01*
X103936272Y-61551559D01*
X103889779Y-61497903D01*
X103879130Y-61459169D01*
X103877602Y-61445108D01*
X103876749Y-61437252D01*
X103825619Y-61300863D01*
X103738265Y-61184307D01*
X103621709Y-61096953D01*
X103485320Y-61045823D01*
X103423138Y-61039068D01*
X101626870Y-61039068D01*
X101564688Y-61045823D01*
X101428299Y-61096953D01*
X101311743Y-61184307D01*
X101224389Y-61300863D01*
X101173259Y-61437252D01*
X101166504Y-61499434D01*
X101166504Y-63295702D01*
X101173259Y-63357884D01*
X101224389Y-63494273D01*
X101311743Y-63610829D01*
X101428299Y-63698183D01*
X101436708Y-63701335D01*
X101436709Y-63701336D01*
X101545455Y-63742103D01*
X101602220Y-63784744D01*
X101626920Y-63851306D01*
X101611713Y-63920655D01*
X101592320Y-63947136D01*
X101472406Y-64072619D01*
X101465633Y-64079706D01*
X101462719Y-64083978D01*
X101462718Y-64083979D01*
X101457543Y-64091566D01*
X101339747Y-64264248D01*
X101325953Y-64293965D01*
X101247973Y-64461960D01*
X101245692Y-64466873D01*
X101185993Y-64682138D01*
X101162255Y-64904263D01*
X101162552Y-64909416D01*
X101162552Y-64909419D01*
X101168015Y-65004158D01*
X101175114Y-65127283D01*
X101176251Y-65132329D01*
X101176252Y-65132335D01*
X101189601Y-65191568D01*
X101224226Y-65345207D01*
X101264350Y-65444021D01*
X101303023Y-65539261D01*
X101308270Y-65552184D01*
X101358665Y-65634422D01*
X101413627Y-65724111D01*
X101424991Y-65742656D01*
X101571254Y-65911506D01*
X101743130Y-66054200D01*
X101793612Y-66083699D01*
X101816449Y-66097044D01*
X101865173Y-66148682D01*
X101878244Y-66218465D01*
X101851513Y-66284237D01*
X101811059Y-66317595D01*
X101798611Y-66324075D01*
X101794478Y-66327178D01*
X101794475Y-66327180D01*
X101624104Y-66455098D01*
X101619969Y-66458203D01*
X101594545Y-66484808D01*
X101474558Y-66610367D01*
X101465633Y-66619706D01*
X101462719Y-66623978D01*
X101462718Y-66623979D01*
X101458915Y-66629554D01*
X101339747Y-66804248D01*
X101326065Y-66833723D01*
X101257062Y-66982379D01*
X101245692Y-67006873D01*
X101185993Y-67222138D01*
X101162255Y-67444263D01*
X100675011Y-67444263D01*
X100675011Y-59339378D01*
X101337529Y-59339378D01*
X101357484Y-59567465D01*
X101358908Y-59572778D01*
X101358908Y-59572780D01*
X101407460Y-59753975D01*
X101416743Y-59788621D01*
X101419066Y-59793602D01*
X101419066Y-59793603D01*
X101511178Y-59991140D01*
X101511181Y-59991145D01*
X101513504Y-59996127D01*
X101644829Y-60183678D01*
X101806727Y-60345576D01*
X101811235Y-60348733D01*
X101811238Y-60348735D01*
X101878541Y-60395861D01*
X101994278Y-60476901D01*
X101999260Y-60479224D01*
X101999265Y-60479227D01*
X102196802Y-60571339D01*
X102201784Y-60573662D01*
X102207092Y-60575084D01*
X102207094Y-60575085D01*
X102417625Y-60631497D01*
X102417627Y-60631497D01*
X102422940Y-60632921D01*
X102651027Y-60652876D01*
X102879114Y-60632921D01*
X102884427Y-60631497D01*
X102884429Y-60631497D01*
X103094960Y-60575085D01*
X103094962Y-60575084D01*
X103100270Y-60573662D01*
X103105252Y-60571339D01*
X103302789Y-60479227D01*
X103302794Y-60479224D01*
X103307776Y-60476901D01*
X103423513Y-60395861D01*
X103490816Y-60348735D01*
X103490819Y-60348733D01*
X103495327Y-60345576D01*
X103657225Y-60183678D01*
X103788550Y-59996127D01*
X103790873Y-59991145D01*
X103790876Y-59991140D01*
X103882988Y-59793603D01*
X103882988Y-59793602D01*
X103885311Y-59788621D01*
X103894595Y-59753975D01*
X103943146Y-59572780D01*
X103943146Y-59572778D01*
X103944570Y-59567465D01*
X103964525Y-59339378D01*
X103961975Y-59310237D01*
X105348159Y-59310237D01*
X105361484Y-59513529D01*
X105411632Y-59710988D01*
X105496925Y-59896002D01*
X105614506Y-60062375D01*
X105618640Y-60066402D01*
X105731010Y-60175868D01*
X105760437Y-60204535D01*
X105765233Y-60207740D01*
X105765236Y-60207742D01*
X105903291Y-60299987D01*
X105929830Y-60317720D01*
X105935133Y-60319998D01*
X105935136Y-60320000D01*
X106111707Y-60395861D01*
X106117014Y-60398141D01*
X106216366Y-60420622D01*
X106310083Y-60441828D01*
X106310086Y-60441828D01*
X106315719Y-60443103D01*
X106321490Y-60443330D01*
X106321492Y-60443330D01*
X106392282Y-60446111D01*
X106459565Y-60468772D01*
X106476431Y-60482919D01*
X106488116Y-60494604D01*
X106522142Y-60556916D01*
X106525021Y-60583699D01*
X106525021Y-64049336D01*
X106524579Y-64059880D01*
X106520398Y-64109669D01*
X106521300Y-64116429D01*
X106530727Y-64187073D01*
X106531094Y-64190112D01*
X106539532Y-64267786D01*
X106541708Y-64274252D01*
X106542225Y-64276602D01*
X106542322Y-64277152D01*
X106542501Y-64277919D01*
X106542656Y-64278454D01*
X106543232Y-64280801D01*
X106544134Y-64287559D01*
X106570831Y-64360909D01*
X106571847Y-64363812D01*
X106594596Y-64431408D01*
X106594599Y-64431415D01*
X106596775Y-64437880D01*
X106600290Y-64443729D01*
X106601303Y-64445922D01*
X106601515Y-64446437D01*
X106601848Y-64447135D01*
X106602121Y-64447636D01*
X106603181Y-64449790D01*
X106605515Y-64456203D01*
X106647363Y-64522144D01*
X106648977Y-64524759D01*
X106689207Y-64591713D01*
X106693888Y-64596664D01*
X106695358Y-64598600D01*
X106696006Y-64599531D01*
X106698906Y-64603365D01*
X106701678Y-64607733D01*
X106705344Y-64611833D01*
X106757266Y-64663755D01*
X106759719Y-64666277D01*
X106800776Y-64709693D01*
X106812517Y-64722109D01*
X106818159Y-64725943D01*
X106823003Y-64730066D01*
X106830433Y-64736922D01*
X107586841Y-65493329D01*
X107593984Y-65501097D01*
X107626235Y-65539261D01*
X107631659Y-65543408D01*
X107631660Y-65543409D01*
X107688254Y-65586678D01*
X107690670Y-65588571D01*
X107751571Y-65637538D01*
X107757684Y-65640573D01*
X107759728Y-65641880D01*
X107760182Y-65642198D01*
X107760835Y-65642604D01*
X107761325Y-65642874D01*
X107763391Y-65644125D01*
X107768806Y-65648265D01*
X107827999Y-65675867D01*
X107839564Y-65681260D01*
X107842336Y-65682594D01*
X107912322Y-65717335D01*
X107918947Y-65718987D01*
X107921214Y-65719821D01*
X107921739Y-65720040D01*
X107922443Y-65720289D01*
X107922993Y-65720451D01*
X107925277Y-65721229D01*
X107931459Y-65724111D01*
X107938117Y-65725599D01*
X107938125Y-65725602D01*
X108007678Y-65741149D01*
X108010674Y-65741857D01*
X108079835Y-65759101D01*
X108079838Y-65759101D01*
X108086458Y-65760752D01*
X108093279Y-65760943D01*
X108095676Y-65761271D01*
X108096790Y-65761472D01*
X108101564Y-65762134D01*
X108106604Y-65763261D01*
X108112095Y-65763568D01*
X108185509Y-65763568D01*
X108189027Y-65763617D01*
X108265855Y-65765763D01*
X108272562Y-65764484D01*
X108278897Y-65763974D01*
X108289004Y-65763568D01*
X110566560Y-65763568D01*
X110634681Y-65783570D01*
X110661796Y-65807069D01*
X110752262Y-65911506D01*
X110924138Y-66054200D01*
X110974620Y-66083699D01*
X110997967Y-66097342D01*
X111046691Y-66148980D01*
X111059762Y-66218763D01*
X111033031Y-66284535D01*
X110992574Y-66317895D01*
X110984469Y-66322114D01*
X110975750Y-66327604D01*
X110805445Y-66455473D01*
X110797738Y-66462316D01*
X110650602Y-66616285D01*
X110644116Y-66624295D01*
X110524110Y-66800217D01*
X110519012Y-66809191D01*
X110429350Y-67002351D01*
X110425787Y-67012038D01*
X110370401Y-67211751D01*
X110371924Y-67220175D01*
X110384304Y-67223568D01*
X113024356Y-67223568D01*
X113037887Y-67219595D01*
X113039192Y-67210515D01*
X112997226Y-67043443D01*
X112993906Y-67033692D01*
X112908984Y-66838382D01*
X112904117Y-66829307D01*
X112788438Y-66650494D01*
X112782148Y-66642325D01*
X112638818Y-66484808D01*
X112631285Y-66477783D01*
X112464151Y-66345790D01*
X112455568Y-66340088D01*
X112418614Y-66319688D01*
X112368643Y-66269255D01*
X112353871Y-66199813D01*
X112378987Y-66133407D01*
X112406339Y-66106800D01*
X112476275Y-66056915D01*
X112585872Y-65978741D01*
X112744108Y-65821057D01*
X112785639Y-65763261D01*
X112871447Y-65643845D01*
X112874465Y-65639645D01*
X112877047Y-65634422D01*
X112971148Y-65444021D01*
X112971149Y-65444019D01*
X112973442Y-65439379D01*
X113038382Y-65225637D01*
X113067541Y-65004158D01*
X113069168Y-64937568D01*
X113050864Y-64714929D01*
X112996443Y-64498270D01*
X112907366Y-64293408D01*
X112792873Y-64116429D01*
X112788834Y-64110185D01*
X112788832Y-64110182D01*
X112786026Y-64105845D01*
X112766417Y-64084295D01*
X112638810Y-63944056D01*
X112607758Y-63880210D01*
X112616153Y-63809711D01*
X112661329Y-63754943D01*
X112687773Y-63741274D01*
X112794309Y-63701335D01*
X112802717Y-63698183D01*
X112919273Y-63610829D01*
X113006627Y-63494273D01*
X113057757Y-63357884D01*
X113064512Y-63295702D01*
X113064512Y-61499434D01*
X113057757Y-61437252D01*
X113006627Y-61300863D01*
X112919273Y-61184307D01*
X112802717Y-61096953D01*
X112666328Y-61045823D01*
X112604146Y-61039068D01*
X110807878Y-61039068D01*
X110745696Y-61045823D01*
X110609307Y-61096953D01*
X110492751Y-61184307D01*
X110405397Y-61300863D01*
X110354267Y-61437252D01*
X110347512Y-61499434D01*
X110347512Y-63295702D01*
X110354267Y-63357884D01*
X110405397Y-63494273D01*
X110492751Y-63610829D01*
X110609307Y-63698183D01*
X110617716Y-63701335D01*
X110617717Y-63701336D01*
X110726463Y-63742103D01*
X110783228Y-63784744D01*
X110807928Y-63851306D01*
X110792721Y-63920655D01*
X110773328Y-63947136D01*
X110665588Y-64059880D01*
X110653414Y-64072619D01*
X110591890Y-64108049D01*
X110562320Y-64111568D01*
X108593550Y-64111568D01*
X108525429Y-64091566D01*
X108504455Y-64074663D01*
X108213926Y-63784134D01*
X108179900Y-63721822D01*
X108177021Y-63695039D01*
X108177021Y-60229403D01*
X108177463Y-60218859D01*
X108181073Y-60175868D01*
X108181644Y-60169070D01*
X108180742Y-60162311D01*
X108180742Y-60162306D01*
X108171318Y-60091675D01*
X108170948Y-60088621D01*
X108163247Y-60017735D01*
X108163247Y-60017734D01*
X108162510Y-60010952D01*
X108160333Y-60004485D01*
X108159817Y-60002137D01*
X108159719Y-60001579D01*
X108159542Y-60000821D01*
X108159386Y-60000284D01*
X108158810Y-59997937D01*
X108157908Y-59991179D01*
X108131210Y-59917827D01*
X108130195Y-59914926D01*
X108107446Y-59847330D01*
X108107443Y-59847323D01*
X108105267Y-59840858D01*
X108101752Y-59835009D01*
X108100739Y-59832816D01*
X108100527Y-59832301D01*
X108100194Y-59831603D01*
X108099921Y-59831102D01*
X108098861Y-59828948D01*
X108096527Y-59822535D01*
X108054662Y-59756567D01*
X108053062Y-59753975D01*
X108023868Y-59705388D01*
X108012835Y-59687025D01*
X108008154Y-59682074D01*
X108006684Y-59680138D01*
X108006037Y-59679207D01*
X108003134Y-59675369D01*
X108000364Y-59671005D01*
X107996698Y-59666906D01*
X107944793Y-59615001D01*
X107942340Y-59612479D01*
X107894219Y-59561592D01*
X107894215Y-59561589D01*
X107889525Y-59556629D01*
X107883878Y-59552791D01*
X107879026Y-59548662D01*
X107871596Y-59541804D01*
X107596882Y-59267090D01*
X107562856Y-59204778D01*
X107560508Y-59189543D01*
X107555635Y-59136504D01*
X107504975Y-58956879D01*
X107505090Y-58946113D01*
X107495153Y-58929919D01*
X107412783Y-58762888D01*
X107410228Y-58757707D01*
X107391823Y-58733059D01*
X107291785Y-58599093D01*
X107291785Y-58599092D01*
X107288332Y-58594469D01*
X107138730Y-58456178D01*
X107001187Y-58369395D01*
X106971315Y-58350547D01*
X106971310Y-58350545D01*
X106966431Y-58347466D01*
X106777207Y-58271973D01*
X106577393Y-58232227D01*
X106571619Y-58232151D01*
X106571615Y-58232151D01*
X106468479Y-58230802D01*
X106373682Y-58229561D01*
X106367985Y-58230540D01*
X106367984Y-58230540D01*
X106178594Y-58263083D01*
X106172897Y-58264062D01*
X105981761Y-58334576D01*
X105976800Y-58337528D01*
X105976799Y-58337528D01*
X105924406Y-58368699D01*
X105806676Y-58438741D01*
X105653505Y-58573068D01*
X105649938Y-58577593D01*
X105649933Y-58577598D01*
X105610240Y-58627949D01*
X105527378Y-58733059D01*
X105432519Y-58913356D01*
X105372105Y-59107921D01*
X105348159Y-59310237D01*
X103961975Y-59310237D01*
X103944570Y-59111291D01*
X103901148Y-58949238D01*
X103886734Y-58895445D01*
X103886733Y-58895443D01*
X103885311Y-58890135D01*
X103879953Y-58878645D01*
X103790876Y-58687616D01*
X103790873Y-58687611D01*
X103788550Y-58682629D01*
X103709170Y-58569263D01*
X103660384Y-58499589D01*
X103660382Y-58499586D01*
X103657225Y-58495078D01*
X103495327Y-58333180D01*
X103490819Y-58330023D01*
X103490816Y-58330021D01*
X103352761Y-58233354D01*
X103307776Y-58201855D01*
X103302792Y-58199531D01*
X103300499Y-58198207D01*
X103251506Y-58146825D01*
X103238070Y-58077111D01*
X103264456Y-58011200D01*
X103300499Y-57979969D01*
X103312029Y-57973312D01*
X103364075Y-57936869D01*
X103372451Y-57926390D01*
X103365383Y-57912944D01*
X102663839Y-57211400D01*
X102649895Y-57203786D01*
X102648062Y-57203917D01*
X102641447Y-57208168D01*
X101935950Y-57913665D01*
X101929520Y-57925440D01*
X101938816Y-57937455D01*
X101990025Y-57973312D01*
X102001555Y-57979969D01*
X102050548Y-58031351D01*
X102063985Y-58101065D01*
X102037598Y-58166976D01*
X102001555Y-58198207D01*
X101999262Y-58199531D01*
X101994278Y-58201855D01*
X101949293Y-58233354D01*
X101811238Y-58330021D01*
X101811235Y-58330023D01*
X101806727Y-58333180D01*
X101644829Y-58495078D01*
X101641672Y-58499586D01*
X101641670Y-58499589D01*
X101592884Y-58569263D01*
X101513504Y-58682629D01*
X101511181Y-58687611D01*
X101511178Y-58687616D01*
X101422101Y-58878645D01*
X101416743Y-58890135D01*
X101415321Y-58895443D01*
X101415320Y-58895445D01*
X101400906Y-58949238D01*
X101357484Y-59111291D01*
X101337529Y-59339378D01*
X100675011Y-59339378D01*
X100675011Y-56844853D01*
X101338510Y-56844853D01*
X101357499Y-57061897D01*
X101359402Y-57072690D01*
X101415791Y-57283139D01*
X101419537Y-57293431D01*
X101511613Y-57490889D01*
X101517096Y-57500384D01*
X101553536Y-57552426D01*
X101564015Y-57560802D01*
X101577461Y-57553734D01*
X102279005Y-56852190D01*
X102285383Y-56840510D01*
X103015435Y-56840510D01*
X103015566Y-56842343D01*
X103019817Y-56848958D01*
X103725314Y-57554455D01*
X103737089Y-57560885D01*
X103749104Y-57551589D01*
X103784958Y-57500384D01*
X103790441Y-57490889D01*
X103882517Y-57293431D01*
X103886263Y-57283139D01*
X103942652Y-57072690D01*
X103944555Y-57061897D01*
X103963544Y-56844853D01*
X103963544Y-56833903D01*
X103944555Y-56616859D01*
X103942652Y-56606066D01*
X103886263Y-56395617D01*
X103882517Y-56385325D01*
X103790441Y-56187867D01*
X103784958Y-56178372D01*
X103748518Y-56126330D01*
X103738039Y-56117954D01*
X103724593Y-56125022D01*
X103023049Y-56826566D01*
X103015435Y-56840510D01*
X102285383Y-56840510D01*
X102286619Y-56838246D01*
X102286488Y-56836413D01*
X102282237Y-56829798D01*
X101576740Y-56124301D01*
X101564965Y-56117871D01*
X101552950Y-56127167D01*
X101517096Y-56178372D01*
X101511613Y-56187867D01*
X101419537Y-56385325D01*
X101415791Y-56395617D01*
X101359402Y-56606066D01*
X101357499Y-56616859D01*
X101338510Y-56833903D01*
X101338510Y-56844853D01*
X100675011Y-56844853D01*
X100675011Y-55752366D01*
X101929603Y-55752366D01*
X101936671Y-55765812D01*
X102638215Y-56467356D01*
X102652159Y-56474970D01*
X102653992Y-56474839D01*
X102660607Y-56470588D01*
X103366104Y-55765091D01*
X103372534Y-55753316D01*
X103363238Y-55741301D01*
X103312033Y-55705447D01*
X103302538Y-55699964D01*
X103105080Y-55607888D01*
X103094788Y-55604142D01*
X102884339Y-55547753D01*
X102873546Y-55545850D01*
X102656502Y-55526861D01*
X102645552Y-55526861D01*
X102428508Y-55545850D01*
X102417715Y-55547753D01*
X102207266Y-55604142D01*
X102196974Y-55607888D01*
X101999516Y-55699964D01*
X101990021Y-55705447D01*
X101937979Y-55741887D01*
X101929603Y-55752366D01*
X100675011Y-55752366D01*
X100675011Y-54734770D01*
X102102553Y-54734770D01*
X102110689Y-54745775D01*
X102370950Y-54945479D01*
X102376549Y-54949313D01*
X102672273Y-55129116D01*
X102678263Y-55132328D01*
X102991669Y-55279138D01*
X102997973Y-55281685D01*
X103325395Y-55393786D01*
X103331946Y-55395640D01*
X103669551Y-55471722D01*
X103676270Y-55472859D01*
X104020124Y-55512037D01*
X104026914Y-55512440D01*
X104372984Y-55514252D01*
X104379785Y-55513920D01*
X104724031Y-55478346D01*
X104730759Y-55477280D01*
X105069155Y-55404733D01*
X105075704Y-55402954D01*
X105404289Y-55294285D01*
X105410631Y-55291799D01*
X105725534Y-55148290D01*
X105731588Y-55145125D01*
X106029138Y-54968453D01*
X106034819Y-54964650D01*
X106311557Y-54756870D01*
X106316781Y-54752486D01*
X106323248Y-54746434D01*
X106331317Y-54732754D01*
X106331290Y-54732030D01*
X106326146Y-54723727D01*
X104229821Y-52627401D01*
X104215880Y-52619789D01*
X104214045Y-52619920D01*
X104207431Y-52624171D01*
X102109434Y-54722169D01*
X102102553Y-54734770D01*
X100675011Y-54734770D01*
X100675011Y-52247388D01*
X100954419Y-52247388D01*
X100971929Y-52593040D01*
X100972639Y-52599796D01*
X101027375Y-52941522D01*
X101028814Y-52948177D01*
X101120134Y-53281985D01*
X101122283Y-53288446D01*
X101249122Y-53610447D01*
X101251953Y-53616630D01*
X101412823Y-53923044D01*
X101416317Y-53928905D01*
X101609329Y-54216135D01*
X101613439Y-54221589D01*
X101728922Y-54358730D01*
X101741661Y-54367174D01*
X101752104Y-54361077D01*
X103844991Y-52268191D01*
X103851368Y-52256512D01*
X104581419Y-52256512D01*
X104581550Y-52258347D01*
X104585801Y-52264961D01*
X106680564Y-54359723D01*
X106694160Y-54367148D01*
X106703773Y-54360447D01*
X106799855Y-54248741D01*
X106804013Y-54243341D01*
X107000033Y-53958132D01*
X107003580Y-53952321D01*
X107167644Y-53647619D01*
X107170551Y-53641441D01*
X107300754Y-53320792D01*
X107302968Y-53314362D01*
X107390680Y-53006446D01*
X107428579Y-52946411D01*
X107492919Y-52916397D01*
X107563272Y-52925932D01*
X107617302Y-52971989D01*
X107637859Y-53040965D01*
X107637859Y-58267984D01*
X107636113Y-58288889D01*
X107632788Y-58308652D01*
X107632635Y-58321191D01*
X107634745Y-58335925D01*
X107635694Y-58344772D01*
X107649395Y-58536351D01*
X107658368Y-58577598D01*
X107693299Y-58738173D01*
X107695247Y-58747130D01*
X107696814Y-58751332D01*
X107696816Y-58751338D01*
X107726215Y-58830158D01*
X107727709Y-58851041D01*
X107732965Y-58855695D01*
X107744300Y-58878645D01*
X107770630Y-58949238D01*
X107874008Y-59138561D01*
X108003277Y-59311245D01*
X108155806Y-59463774D01*
X108328490Y-59593043D01*
X108332444Y-59595202D01*
X108461453Y-59665646D01*
X108517813Y-59696421D01*
X108522025Y-59697992D01*
X108715713Y-59770235D01*
X108715719Y-59770237D01*
X108719921Y-59771804D01*
X108724307Y-59772758D01*
X108724310Y-59772759D01*
X108848480Y-59799770D01*
X108930700Y-59817656D01*
X108935188Y-59817977D01*
X109105456Y-59830155D01*
X109117365Y-59831579D01*
X109133321Y-59834263D01*
X109139676Y-59834341D01*
X109141001Y-59834357D01*
X109141005Y-59834357D01*
X109145860Y-59834416D01*
X109173448Y-59830465D01*
X109191311Y-59829192D01*
X114212957Y-59829192D01*
X114233862Y-59830938D01*
X114248832Y-59833457D01*
X114248837Y-59833457D01*
X114253625Y-59834263D01*
X114259955Y-59834340D01*
X114261306Y-59834357D01*
X114261310Y-59834357D01*
X114266164Y-59834416D01*
X114280898Y-59832306D01*
X114289745Y-59831357D01*
X114437941Y-59820759D01*
X114476837Y-59817977D01*
X114476838Y-59817977D01*
X114481324Y-59817656D01*
X114639206Y-59783311D01*
X114687714Y-59772759D01*
X114687717Y-59772758D01*
X114692103Y-59771804D01*
X114696305Y-59770237D01*
X114696311Y-59770235D01*
X114889999Y-59697992D01*
X114894211Y-59696421D01*
X114950572Y-59665646D01*
X115079580Y-59595202D01*
X115083534Y-59593043D01*
X115256218Y-59463774D01*
X115408747Y-59311245D01*
X115538016Y-59138561D01*
X115641394Y-58949238D01*
X115661458Y-58895445D01*
X115715208Y-58751338D01*
X115715210Y-58751332D01*
X115716777Y-58747130D01*
X115718726Y-58738173D01*
X115761673Y-58540745D01*
X115762629Y-58536351D01*
X115768363Y-58456178D01*
X115775128Y-58361595D01*
X115776552Y-58349684D01*
X115777316Y-58345143D01*
X115779236Y-58333730D01*
X115779389Y-58321191D01*
X115775438Y-58293603D01*
X115774165Y-58275740D01*
X115774165Y-57934819D01*
X115794167Y-57866698D01*
X115847823Y-57820205D01*
X115918097Y-57810101D01*
X115954220Y-57821003D01*
X116251166Y-57962040D01*
X116909587Y-58274762D01*
X116918815Y-58279623D01*
X116957779Y-58302255D01*
X116957784Y-58302257D01*
X116964109Y-58305931D01*
X116971106Y-58308050D01*
X116971117Y-58308055D01*
X117035034Y-58327413D01*
X117039024Y-58328694D01*
X117084557Y-58344155D01*
X117109132Y-58352500D01*
X117116422Y-58353196D01*
X117121796Y-58354349D01*
X117127161Y-58355314D01*
X117134167Y-58357436D01*
X117178993Y-58360217D01*
X117208078Y-58362021D01*
X117212258Y-58362350D01*
X117278722Y-58368699D01*
X117278726Y-58368699D01*
X117286013Y-58369395D01*
X117293267Y-58368395D01*
X117298698Y-58368282D01*
X117304202Y-58367984D01*
X117311513Y-58368438D01*
X117318728Y-58367198D01*
X117318732Y-58367198D01*
X117384500Y-58355897D01*
X117388639Y-58355256D01*
X117429080Y-58349684D01*
X117462038Y-58345143D01*
X117468855Y-58342507D01*
X117474135Y-58341142D01*
X117479418Y-58339587D01*
X117486633Y-58338347D01*
X117554819Y-58309334D01*
X117558676Y-58307768D01*
X117627762Y-58281049D01*
X117633800Y-58276908D01*
X117638634Y-58274360D01*
X117643396Y-58271644D01*
X117650133Y-58268777D01*
X117656030Y-58264437D01*
X117656034Y-58264435D01*
X117709787Y-58224878D01*
X117713201Y-58222452D01*
X117768256Y-58184692D01*
X117768264Y-58184685D01*
X117774296Y-58180548D01*
X117779215Y-58175133D01*
X117783341Y-58171535D01*
X117787349Y-58167798D01*
X117793244Y-58163459D01*
X117841232Y-58106973D01*
X117843962Y-58103866D01*
X117888860Y-58054448D01*
X117888862Y-58054445D01*
X117893779Y-58049033D01*
X117897319Y-58042635D01*
X117900509Y-58038181D01*
X117903551Y-58033620D01*
X117908288Y-58028043D01*
X117941998Y-57962027D01*
X117943959Y-57958340D01*
X117976260Y-57899962D01*
X117976261Y-57899960D01*
X117979803Y-57893558D01*
X117981778Y-57886511D01*
X117983866Y-57881421D01*
X117985764Y-57876317D01*
X117989095Y-57869794D01*
X118006703Y-57797836D01*
X118007766Y-57793784D01*
X118025779Y-57729509D01*
X118025779Y-57729506D01*
X118027753Y-57722464D01*
X118028054Y-57715150D01*
X118029155Y-57708200D01*
X118029151Y-57708199D01*
X118029996Y-57702643D01*
X118031328Y-57697199D01*
X118032024Y-57685981D01*
X118032024Y-57621252D01*
X118032130Y-57616073D01*
X118035057Y-57544928D01*
X118033667Y-57537738D01*
X118033119Y-57530446D01*
X118033294Y-57530433D01*
X118032024Y-57517175D01*
X118032024Y-56463452D01*
X118032456Y-56453031D01*
X118036182Y-56408136D01*
X118036182Y-56408134D01*
X118036787Y-56400843D01*
X118035699Y-56393613D01*
X118035699Y-56393607D01*
X118025763Y-56327567D01*
X118025209Y-56323415D01*
X118017482Y-56257142D01*
X118017481Y-56257138D01*
X118016634Y-56249873D01*
X118014138Y-56242996D01*
X118012875Y-56237655D01*
X118011438Y-56232370D01*
X118010350Y-56225135D01*
X117982776Y-56156389D01*
X117981281Y-56152475D01*
X117958504Y-56089725D01*
X117958504Y-56089724D01*
X117956008Y-56082849D01*
X117951997Y-56076731D01*
X117949553Y-56071851D01*
X117946927Y-56067015D01*
X117944201Y-56060220D01*
X117901553Y-55999664D01*
X117899198Y-55996199D01*
X117862597Y-55940374D01*
X117862596Y-55940373D01*
X117858583Y-55934252D01*
X117853269Y-55929217D01*
X117849750Y-55925009D01*
X117846100Y-55920927D01*
X117841887Y-55914946D01*
X117836414Y-55910097D01*
X117836412Y-55910094D01*
X117786434Y-55865809D01*
X117783381Y-55863012D01*
X117729587Y-55812053D01*
X117723257Y-55808377D01*
X117718864Y-55805090D01*
X117714379Y-55801962D01*
X117708899Y-55797106D01*
X117643656Y-55762059D01*
X117640004Y-55760019D01*
X117582264Y-55726481D01*
X117582265Y-55726481D01*
X117575939Y-55722807D01*
X117568938Y-55720687D01*
X117563923Y-55718506D01*
X117558811Y-55716483D01*
X117552367Y-55713021D01*
X117480799Y-55693920D01*
X117476781Y-55692775D01*
X117412886Y-55673423D01*
X117412881Y-55673422D01*
X117405881Y-55671302D01*
X117398575Y-55670849D01*
X117393205Y-55669883D01*
X117387766Y-55669090D01*
X117380689Y-55667201D01*
X117306633Y-55665075D01*
X117302450Y-55664885D01*
X117228535Y-55660300D01*
X117221314Y-55661541D01*
X117215805Y-55661839D01*
X117210394Y-55662313D01*
X117203076Y-55662103D01*
X117130513Y-55677073D01*
X117126430Y-55677845D01*
X117053415Y-55690391D01*
X117046674Y-55693260D01*
X117039924Y-55695246D01*
X117039926Y-55695251D01*
X117034547Y-55696871D01*
X117029053Y-55698004D01*
X117018622Y-55702188D01*
X116960174Y-55729949D01*
X116955451Y-55732074D01*
X116896651Y-55757094D01*
X116896646Y-55757097D01*
X116889915Y-55759961D01*
X116884024Y-55764296D01*
X116877659Y-55767927D01*
X116877573Y-55767776D01*
X116866140Y-55774613D01*
X116066430Y-56154450D01*
X115954223Y-56207745D01*
X115884109Y-56218904D01*
X115819092Y-56190384D01*
X115779816Y-56131242D01*
X115774165Y-56093931D01*
X115774165Y-54734770D01*
X117080551Y-54734770D01*
X117088687Y-54745775D01*
X117348948Y-54945479D01*
X117354547Y-54949313D01*
X117650271Y-55129116D01*
X117656261Y-55132328D01*
X117969667Y-55279138D01*
X117975971Y-55281685D01*
X118303393Y-55393786D01*
X118309944Y-55395640D01*
X118647549Y-55471722D01*
X118654268Y-55472859D01*
X118998122Y-55512037D01*
X119004912Y-55512440D01*
X119350982Y-55514252D01*
X119357783Y-55513920D01*
X119702029Y-55478346D01*
X119708757Y-55477280D01*
X120047153Y-55404733D01*
X120053702Y-55402954D01*
X120382287Y-55294285D01*
X120388629Y-55291799D01*
X120703532Y-55148290D01*
X120709586Y-55145125D01*
X121007136Y-54968453D01*
X121012817Y-54964650D01*
X121289555Y-54756870D01*
X121294779Y-54752486D01*
X121301246Y-54746434D01*
X121309315Y-54732754D01*
X121309288Y-54732030D01*
X121304144Y-54723727D01*
X119207819Y-52627401D01*
X119193878Y-52619789D01*
X119192043Y-52619920D01*
X119185429Y-52624171D01*
X117087432Y-54722169D01*
X117080551Y-54734770D01*
X115774165Y-54734770D01*
X115774165Y-53035843D01*
X115794167Y-52967722D01*
X115847823Y-52921229D01*
X115918097Y-52911125D01*
X115982677Y-52940619D01*
X116021699Y-53002595D01*
X116098132Y-53281985D01*
X116100281Y-53288446D01*
X116227120Y-53610447D01*
X116229951Y-53616630D01*
X116390821Y-53923044D01*
X116394315Y-53928905D01*
X116587327Y-54216135D01*
X116591437Y-54221589D01*
X116706920Y-54358730D01*
X116719659Y-54367174D01*
X116730102Y-54361077D01*
X118822989Y-52268191D01*
X118829366Y-52256512D01*
X119559417Y-52256512D01*
X119559548Y-52258347D01*
X119563799Y-52264961D01*
X121658562Y-54359723D01*
X121672158Y-54367148D01*
X121681771Y-54360447D01*
X121777853Y-54248741D01*
X121782011Y-54243341D01*
X121978031Y-53958132D01*
X121981578Y-53952321D01*
X122145642Y-53647619D01*
X122148549Y-53641441D01*
X122278752Y-53320792D01*
X122280966Y-53314362D01*
X122375777Y-52981524D01*
X122377284Y-52974894D01*
X122435598Y-52633743D01*
X122436378Y-52627003D01*
X122457603Y-52279957D01*
X122457719Y-52276354D01*
X122457787Y-52257200D01*
X122457695Y-52253575D01*
X122438893Y-51906404D01*
X122438158Y-51899638D01*
X122382232Y-51558119D01*
X122380765Y-51551447D01*
X122288286Y-51217979D01*
X122286112Y-51211516D01*
X122158150Y-50889963D01*
X122155294Y-50883783D01*
X121993356Y-50577935D01*
X121989856Y-50572110D01*
X121795820Y-50285520D01*
X121791713Y-50280110D01*
X121683098Y-50152036D01*
X121670273Y-50143600D01*
X121659949Y-50149652D01*
X119567029Y-52242571D01*
X119559417Y-52256512D01*
X118829366Y-52256512D01*
X118830601Y-52254250D01*
X118830470Y-52252415D01*
X118826219Y-52245801D01*
X116731467Y-50151050D01*
X116717930Y-50143658D01*
X116708228Y-50150446D01*
X116605217Y-50271057D01*
X116601084Y-50276462D01*
X116406060Y-50562357D01*
X116402539Y-50568170D01*
X116239531Y-50873455D01*
X116236645Y-50879645D01*
X116107567Y-51200738D01*
X116105376Y-51207173D01*
X116021464Y-51505699D01*
X115983775Y-51565866D01*
X115919540Y-51596104D01*
X115849154Y-51586815D01*
X115794963Y-51540947D01*
X115774165Y-51471603D01*
X115774165Y-50732662D01*
X115775911Y-50711757D01*
X115778430Y-50696787D01*
X115778430Y-50696782D01*
X115779236Y-50691994D01*
X115779389Y-50679455D01*
X115777279Y-50664721D01*
X115776329Y-50655863D01*
X115770340Y-50572110D01*
X115762629Y-50464295D01*
X115716777Y-50253516D01*
X115715210Y-50249314D01*
X115715208Y-50249308D01*
X115642965Y-50055620D01*
X115641394Y-50051408D01*
X115635587Y-50040772D01*
X115540175Y-49866039D01*
X115538016Y-49862085D01*
X115474784Y-49777616D01*
X117080332Y-49777616D01*
X117080366Y-49778455D01*
X117085421Y-49786582D01*
X119182199Y-51883361D01*
X119196140Y-51890973D01*
X119197975Y-51890842D01*
X119204589Y-51886591D01*
X121302439Y-49788740D01*
X121310053Y-49774796D01*
X121309985Y-49773842D01*
X121306031Y-49767863D01*
X121031673Y-49558858D01*
X121026049Y-49555036D01*
X120729708Y-49376272D01*
X120723701Y-49373079D01*
X120409798Y-49227369D01*
X120403475Y-49224840D01*
X120075663Y-49113882D01*
X120069105Y-49112052D01*
X119731241Y-49037148D01*
X119724512Y-49036034D01*
X119380524Y-48998057D01*
X119373744Y-48997678D01*
X119027645Y-48997075D01*
X119020872Y-48997430D01*
X118676735Y-49034207D01*
X118670025Y-49035294D01*
X118331893Y-49109019D01*
X118325318Y-49110830D01*
X117997126Y-49220641D01*
X117990804Y-49223144D01*
X117676397Y-49367755D01*
X117670354Y-49370941D01*
X117373415Y-49548655D01*
X117367755Y-49552473D01*
X117091742Y-49761222D01*
X117088150Y-49764256D01*
X117080332Y-49777616D01*
X115474784Y-49777616D01*
X115408747Y-49689401D01*
X115256218Y-49536872D01*
X115083534Y-49407603D01*
X115049720Y-49389139D01*
X114898158Y-49306380D01*
X114898156Y-49306379D01*
X114894211Y-49304225D01*
X114887200Y-49301610D01*
X114696311Y-49230411D01*
X114696305Y-49230409D01*
X114692103Y-49228842D01*
X114687717Y-49227888D01*
X114687714Y-49227887D01*
X114563544Y-49200876D01*
X114481324Y-49182990D01*
X114476836Y-49182669D01*
X114306568Y-49170491D01*
X114294657Y-49169067D01*
X114278703Y-49166383D01*
X114272348Y-49166305D01*
X114271023Y-49166289D01*
X114271019Y-49166289D01*
X114266164Y-49166230D01*
X114241879Y-49169708D01*
X114238576Y-49170181D01*
X114220713Y-49171454D01*
X109199067Y-49171454D01*
X109178162Y-49169708D01*
X109163192Y-49167189D01*
X109163187Y-49167189D01*
X109158399Y-49166383D01*
X109152069Y-49166306D01*
X109150718Y-49166289D01*
X109150714Y-49166289D01*
X109145860Y-49166230D01*
X109131126Y-49168340D01*
X109122279Y-49169289D01*
X108974083Y-49179887D01*
X108935187Y-49182669D01*
X108935186Y-49182669D01*
X108930700Y-49182990D01*
X108782376Y-49215256D01*
X108724310Y-49227887D01*
X108724307Y-49227888D01*
X108719921Y-49228842D01*
X108715719Y-49230409D01*
X108715713Y-49230411D01*
X108524824Y-49301610D01*
X108517813Y-49304225D01*
X108513868Y-49306379D01*
X108513866Y-49306380D01*
X108362304Y-49389139D01*
X108328490Y-49407603D01*
X108155806Y-49536872D01*
X108003277Y-49689401D01*
X107874008Y-49862085D01*
X107871849Y-49866039D01*
X107776438Y-50040772D01*
X107770630Y-50051408D01*
X107769059Y-50055620D01*
X107696816Y-50249308D01*
X107696814Y-50249314D01*
X107695247Y-50253516D01*
X107694293Y-50257902D01*
X107694292Y-50257905D01*
X107669321Y-50372697D01*
X107649395Y-50464295D01*
X107649074Y-50468782D01*
X107649074Y-50468783D01*
X107636896Y-50639051D01*
X107635472Y-50650960D01*
X107632788Y-50666916D01*
X107632635Y-50679455D01*
X107633325Y-50684270D01*
X107636586Y-50707043D01*
X107637859Y-50724906D01*
X107637859Y-51473332D01*
X107617857Y-51541453D01*
X107564201Y-51587946D01*
X107493927Y-51598050D01*
X107429347Y-51568556D01*
X107390442Y-51507004D01*
X107310288Y-51217979D01*
X107308114Y-51211516D01*
X107180152Y-50889963D01*
X107177296Y-50883783D01*
X107015358Y-50577935D01*
X107011858Y-50572110D01*
X106817822Y-50285520D01*
X106813715Y-50280110D01*
X106705100Y-50152036D01*
X106692275Y-50143600D01*
X106681951Y-50149652D01*
X104589031Y-52242571D01*
X104581419Y-52256512D01*
X103851368Y-52256512D01*
X103852603Y-52254250D01*
X103852472Y-52252415D01*
X103848221Y-52245801D01*
X101753469Y-50151050D01*
X101739932Y-50143658D01*
X101730230Y-50150446D01*
X101627219Y-50271057D01*
X101623086Y-50276462D01*
X101428062Y-50562357D01*
X101424541Y-50568170D01*
X101261533Y-50873455D01*
X101258647Y-50879645D01*
X101129569Y-51200738D01*
X101127378Y-51207173D01*
X101033726Y-51540349D01*
X101032243Y-51546984D01*
X100975124Y-51888317D01*
X100974365Y-51895089D01*
X100954443Y-52240593D01*
X100954419Y-52247388D01*
X100675011Y-52247388D01*
X100675011Y-51254709D01*
X100676511Y-51235324D01*
X100678816Y-51220523D01*
X100678816Y-51220520D01*
X100680197Y-51211651D01*
X100677952Y-51194482D01*
X100677119Y-51170542D01*
X100692721Y-50912611D01*
X100694555Y-50897507D01*
X100707525Y-50826733D01*
X100746051Y-50616502D01*
X100749690Y-50601734D01*
X100758922Y-50572110D01*
X100834686Y-50328973D01*
X100840081Y-50314751D01*
X100957327Y-50054241D01*
X100964396Y-50040772D01*
X101112193Y-49796286D01*
X101120836Y-49783764D01*
X101125653Y-49777616D01*
X102102334Y-49777616D01*
X102102368Y-49778455D01*
X102107423Y-49786582D01*
X104204201Y-51883361D01*
X104218142Y-51890973D01*
X104219977Y-51890842D01*
X104226591Y-51886591D01*
X106324441Y-49788740D01*
X106332055Y-49774796D01*
X106331987Y-49773842D01*
X106328033Y-49767863D01*
X106053675Y-49558858D01*
X106048051Y-49555036D01*
X105751710Y-49376272D01*
X105745703Y-49373079D01*
X105431800Y-49227369D01*
X105425477Y-49224840D01*
X105097665Y-49113882D01*
X105091107Y-49112052D01*
X104753243Y-49037148D01*
X104746514Y-49036034D01*
X104402526Y-48998057D01*
X104395746Y-48997678D01*
X104049647Y-48997075D01*
X104042874Y-48997430D01*
X103698737Y-49034207D01*
X103692027Y-49035294D01*
X103353895Y-49109019D01*
X103347320Y-49110830D01*
X103019128Y-49220641D01*
X103012806Y-49223144D01*
X102698399Y-49367755D01*
X102692356Y-49370941D01*
X102395417Y-49548655D01*
X102389757Y-49552473D01*
X102113744Y-49761222D01*
X102110152Y-49764256D01*
X102102334Y-49777616D01*
X101125653Y-49777616D01*
X101297027Y-49558874D01*
X101307117Y-49547486D01*
X101509116Y-49345487D01*
X101520504Y-49335397D01*
X101745394Y-49159206D01*
X101757916Y-49150563D01*
X102002402Y-49002766D01*
X102015871Y-48995697D01*
X102276384Y-48878450D01*
X102290603Y-48873056D01*
X102563370Y-48788059D01*
X102578132Y-48784421D01*
X102788363Y-48745895D01*
X102859137Y-48732925D01*
X102874241Y-48731091D01*
X103124940Y-48715926D01*
X103151650Y-48717183D01*
X103151870Y-48717186D01*
X103160741Y-48718567D01*
X103169643Y-48717403D01*
X103169646Y-48717403D01*
X103192354Y-48714433D01*
X103208692Y-48713369D01*
X120195604Y-48713369D01*
X120214988Y-48714869D01*
G37*
%TD.AperFunction*%
%TD*%
M02*
