%TF.GenerationSoftware,KiCad,Pcbnew,(6.0.0)*%
%TF.CreationDate,2022-04-15T07:45:15-04:00*%
%TF.ProjectId,JTAG_ISP-HDR,4a544147-5f49-4535-902d-4844522e6b69,v6.0.0*%
%TF.SameCoordinates,Original*%
%TF.FileFunction,Legend,Top*%
%TF.FilePolarity,Positive*%
%FSLAX46Y46*%
G04 Gerber Fmt 4.6, Leading zero omitted, Abs format (unit mm)*
G04 Created by KiCad (PCBNEW (6.0.0)) date 2022-04-15 07:45:15*
%MOMM*%
%LPD*%
G01*
G04 APERTURE LIST*
%ADD10C,0.150000*%
%ADD11C,0.120000*%
G04 APERTURE END LIST*
D10*
%TO.C,J2*%
X119417687Y-82041749D02*
X119417687Y-82756035D01*
X119370068Y-82898892D01*
X119274830Y-82994130D01*
X119131973Y-83041749D01*
X119036735Y-83041749D01*
X119846259Y-82136988D02*
X119893878Y-82089369D01*
X119989116Y-82041749D01*
X120227211Y-82041749D01*
X120322449Y-82089369D01*
X120370068Y-82136988D01*
X120417687Y-82232226D01*
X120417687Y-82327464D01*
X120370068Y-82470321D01*
X119798640Y-83041749D01*
X120417687Y-83041749D01*
%TO.C,C1*%
X107834354Y-66346511D02*
X107786735Y-66394130D01*
X107643878Y-66441749D01*
X107548640Y-66441749D01*
X107405782Y-66394130D01*
X107310544Y-66298892D01*
X107262925Y-66203654D01*
X107215306Y-66013178D01*
X107215306Y-65870321D01*
X107262925Y-65679845D01*
X107310544Y-65584607D01*
X107405782Y-65489369D01*
X107548640Y-65441749D01*
X107643878Y-65441749D01*
X107786735Y-65489369D01*
X107834354Y-65536988D01*
X108786735Y-66441749D02*
X108215306Y-66441749D01*
X108501021Y-66441749D02*
X108501021Y-65441749D01*
X108405782Y-65584607D01*
X108310544Y-65679845D01*
X108215306Y-65727464D01*
%TO.C,R1*%
X120084354Y-87191749D02*
X119751021Y-86715559D01*
X119512925Y-87191749D02*
X119512925Y-86191749D01*
X119893878Y-86191749D01*
X119989116Y-86239369D01*
X120036735Y-86286988D01*
X120084354Y-86382226D01*
X120084354Y-86525083D01*
X120036735Y-86620321D01*
X119989116Y-86667940D01*
X119893878Y-86715559D01*
X119512925Y-86715559D01*
X121036735Y-87191749D02*
X120465306Y-87191749D01*
X120751021Y-87191749D02*
X120751021Y-86191749D01*
X120655782Y-86334607D01*
X120560544Y-86429845D01*
X120465306Y-86477464D01*
%TO.C,J1*%
X103317687Y-82141749D02*
X103317687Y-82856035D01*
X103270068Y-82998892D01*
X103174830Y-83094130D01*
X103031973Y-83141749D01*
X102936735Y-83141749D01*
X104317687Y-83141749D02*
X103746259Y-83141749D01*
X104031973Y-83141749D02*
X104031973Y-82141749D01*
X103936735Y-82284607D01*
X103841497Y-82379845D01*
X103746259Y-82427464D01*
%TO.C,JTAG1*%
X110008163Y-82091749D02*
X110008163Y-82806035D01*
X109960544Y-82948892D01*
X109865306Y-83044130D01*
X109722449Y-83091749D01*
X109627211Y-83091749D01*
X110341497Y-82091749D02*
X110912925Y-82091749D01*
X110627211Y-83091749D02*
X110627211Y-82091749D01*
X111198640Y-82806035D02*
X111674830Y-82806035D01*
X111103401Y-83091749D02*
X111436735Y-82091749D01*
X111770068Y-83091749D01*
X112627211Y-82139369D02*
X112531973Y-82091749D01*
X112389116Y-82091749D01*
X112246259Y-82139369D01*
X112151021Y-82234607D01*
X112103401Y-82329845D01*
X112055782Y-82520321D01*
X112055782Y-82663178D01*
X112103401Y-82853654D01*
X112151021Y-82948892D01*
X112246259Y-83044130D01*
X112389116Y-83091749D01*
X112484354Y-83091749D01*
X112627211Y-83044130D01*
X112674830Y-82996511D01*
X112674830Y-82663178D01*
X112484354Y-82663178D01*
X113627211Y-83091749D02*
X113055782Y-83091749D01*
X113341497Y-83091749D02*
X113341497Y-82091749D01*
X113246259Y-82234607D01*
X113151021Y-82329845D01*
X113055782Y-82377464D01*
%TO.C,D1*%
X114612925Y-93041749D02*
X114612925Y-92041749D01*
X114851021Y-92041749D01*
X114993878Y-92089369D01*
X115089116Y-92184607D01*
X115136735Y-92279845D01*
X115184354Y-92470321D01*
X115184354Y-92613178D01*
X115136735Y-92803654D01*
X115089116Y-92898892D01*
X114993878Y-92994130D01*
X114851021Y-93041749D01*
X114612925Y-93041749D01*
X116136735Y-93041749D02*
X115565306Y-93041749D01*
X115851021Y-93041749D02*
X115851021Y-92041749D01*
X115755782Y-92184607D01*
X115660544Y-92279845D01*
X115565306Y-92327464D01*
D11*
%TO.C,J2*%
X122217020Y-63667568D02*
X122217020Y-81507568D01*
X119557020Y-63667568D02*
X122217020Y-63667568D01*
X119557020Y-81507568D02*
X122217020Y-81507568D01*
X119557020Y-63667568D02*
X119557020Y-81507568D01*
X119557020Y-61067568D02*
X120887020Y-61067568D01*
X119557020Y-62397568D02*
X119557020Y-61067568D01*
%TO.C,C1*%
X106561021Y-63228117D02*
X106561021Y-64650621D01*
X104741021Y-63228117D02*
X104741021Y-64650621D01*
%TO.C,R1*%
X116123960Y-85799365D02*
X117578088Y-85799365D01*
X116123960Y-83979365D02*
X117578088Y-83979365D01*
%TO.C,J1*%
X101195004Y-61067568D02*
X102525004Y-61067568D01*
X103855004Y-63667568D02*
X103855004Y-81507568D01*
X101195004Y-63667568D02*
X103855004Y-63667568D01*
X101195004Y-63667568D02*
X101195004Y-81507568D01*
X101195004Y-81507568D02*
X103855004Y-81507568D01*
X101195004Y-62397568D02*
X101195004Y-61067568D01*
%TO.C,JTAG1*%
X113036012Y-63667568D02*
X113036012Y-81507568D01*
X110376012Y-62397568D02*
X110376012Y-61067568D01*
X110376012Y-81507568D02*
X113036012Y-81507568D01*
X110376012Y-61067568D02*
X111706012Y-61067568D01*
X110376012Y-63667568D02*
X113036012Y-63667568D01*
X110376012Y-63667568D02*
X110376012Y-81507568D01*
%TO.C,D1*%
X114161021Y-93224369D02*
X114161021Y-90054369D01*
X110101021Y-93224369D02*
X114161021Y-93224369D01*
X114161021Y-90054369D02*
X110101021Y-90054369D01*
%TD*%
M02*
