M48
; DRILL file {KiCad (6.0.0)} date Wed Mar 16 01:45:37 2022
; FORMAT={-:-/ absolute / inch / decimal}
; #@! TF.CreationDate,2022-03-16T01:45:37-04:00
; #@! TF.GenerationSoftware,Kicad,Pcbnew,(6.0.0)
; #@! TF.FileFunction,Plated,1,2,PTH
FMAT,2
INCH
; #@! TA.AperFunction,Plated,PTH,ViaDrill
T1C0.0236
; #@! TA.AperFunction,Plated,PTH,ComponentDrill
T2C0.0315
; #@! TA.AperFunction,Plated,PTH,ComponentDrill
T3C0.0354
; #@! TA.AperFunction,Plated,PTH,ComponentDrill
T4C0.0394
; #@! TA.AperFunction,Plated,PTH,ComponentDrill
T5C0.1260
%
G90
G05
T1
X5.9742Y-3.5663
X6.0431Y-2.9817
X6.0431Y-3.4226
X6.1102Y-2.8654
X6.1966Y-3.1706
X6.2832Y-3.1706
X6.2992Y-3.9383
X6.3383Y-3.2237
X6.4094Y-3.2729
X7.012Y-3.567
X7.0897Y-3.0688
X7.0897Y-3.2688
X7.0897Y-3.3688
X7.3515Y-3.3688
X7.3715Y-3.4688
X7.3915Y-3.5688
X7.4115Y-3.6688
X7.5083Y-3.0709
X7.5201Y-3.2717
T2
X5.9289Y-3.0702
X5.9289Y-3.1687
X6.2992Y-3.4272
X6.2992Y-3.8272
X6.8941Y-2.75
X6.8941Y-2.8484
T3
X6.1096Y-4.1272
X6.2096Y-4.1272
T4
X5.7982Y-2.9701
X5.7982Y-3.0701
X5.7982Y-3.1701
X5.7982Y-3.2701
X5.7982Y-3.3701
X5.7982Y-3.4701
X5.7982Y-3.5701
X5.7982Y-3.6701
X6.1096Y-2.5581
X6.1096Y-2.6581
X6.1096Y-2.7581
X6.2096Y-2.5581
X6.2096Y-2.6581
X6.2096Y-2.7581
X6.5211Y-2.9701
X6.5211Y-3.0701
X6.5211Y-3.1701
X6.5211Y-3.2701
X6.5211Y-3.3701
X6.5211Y-3.4701
X6.5211Y-3.5701
X6.5211Y-3.6701
X6.8891Y-2.9688
X6.8891Y-3.0688
X6.8891Y-3.1688
X6.8891Y-3.2688
X6.8891Y-3.3688
X6.8891Y-3.4688
X6.8891Y-3.5688
X6.8891Y-3.6688
X7.2506Y-2.9688
X7.2506Y-3.0688
X7.2506Y-3.1688
X7.2506Y-3.2688
X7.2506Y-3.3688
X7.2506Y-3.4688
X7.2506Y-3.5688
X7.2506Y-3.6688
X7.612Y-2.9688
X7.612Y-3.0688
X7.612Y-3.1688
X7.612Y-3.2688
X7.612Y-3.3688
X7.612Y-3.4688
X7.612Y-3.5688
X7.612Y-3.6688
T5
X5.8648Y-2.5708
X5.8648Y-4.0683
X6.4545Y-2.5708
X6.4545Y-4.0683
X6.9557Y-2.5695
X6.9557Y-4.067
X7.5454Y-2.5695
X7.5454Y-4.067
T0
M30
