%TF.GenerationSoftware,KiCad,Pcbnew,(6.0.0)*%
%TF.CreationDate,2022-03-14T16:51:29-04:00*%
%TF.ProjectId,JTAG_ISP-BOTH,4a544147-5f49-4535-902d-424f54482e6b,v1.0.0*%
%TF.SameCoordinates,Original*%
%TF.FileFunction,Copper,L1,Top*%
%TF.FilePolarity,Positive*%
%FSLAX46Y46*%
G04 Gerber Fmt 4.6, Leading zero omitted, Abs format (unit mm)*
G04 Created by KiCad (PCBNEW (6.0.0)) date 2022-03-14 16:51:29*
%MOMM*%
%LPD*%
G01*
G04 APERTURE LIST*
%TA.AperFunction,NonConductor*%
%ADD10C,0.508000*%
%TD*%
%ADD11C,0.150000*%
%TA.AperFunction,NonConductor*%
%ADD12C,0.150000*%
%TD*%
%TA.AperFunction,ComponentPad*%
%ADD13C,1.700000*%
%TD*%
%TA.AperFunction,ComponentPad*%
%ADD14O,1.700000X1.700000*%
%TD*%
%TA.AperFunction,ComponentPad*%
%ADD15C,3.200001*%
%TD*%
%TA.AperFunction,ComponentPad*%
%ADD16R,1.700000X1.700000*%
%TD*%
%TA.AperFunction,ComponentPad*%
%ADD17C,1.600000*%
%TD*%
%TA.AperFunction,ComponentPad*%
%ADD18R,1.800000X1.800000*%
%TD*%
%TA.AperFunction,ComponentPad*%
%ADD19C,1.800000*%
%TD*%
%TA.AperFunction,ComponentPad*%
%ADD20O,1.600000X1.600000*%
%TD*%
%TA.AperFunction,ViaPad*%
%ADD21C,1.200000*%
%TD*%
%TA.AperFunction,Conductor*%
%ADD22C,0.250000*%
%TD*%
%TA.AperFunction,Conductor*%
%ADD23C,0.508000*%
%TD*%
G04 APERTURE END LIST*
D10*
X186209006Y-74752432D02*
X184959006Y-75652432D01*
X186109006Y-74602432D02*
X184859006Y-75502432D01*
X186109006Y-74577432D02*
X186109006Y-76427432D01*
X184359008Y-75477427D02*
X186359004Y-76827437D01*
X186209006Y-74752432D02*
X185609006Y-76102432D01*
X186309006Y-74952432D02*
X185059006Y-75852432D01*
X186359004Y-74127427D02*
X184358999Y-75477427D01*
X186209006Y-76452432D02*
X184859006Y-75502432D01*
X186359004Y-74127427D02*
X186359004Y-76827437D01*
D11*
D12*
X179090018Y-95934500D02*
X179690018Y-95934500D01*
X179390018Y-96984500D02*
X179390018Y-95934500D01*
X180040018Y-96984500D02*
X180040018Y-95934500D01*
X180040018Y-96434500D02*
X180640018Y-96434500D01*
X180640018Y-96984500D02*
X180640018Y-95934500D01*
X181340018Y-95934500D02*
X181540018Y-95934500D01*
X181640018Y-95984500D01*
X181740018Y-96084500D01*
X181790018Y-96284500D01*
X181790018Y-96634500D01*
X181740018Y-96834500D01*
X181640018Y-96934500D01*
X181540018Y-96984500D01*
X181340018Y-96984500D01*
X181240018Y-96934500D01*
X181140018Y-96834500D01*
X181090018Y-96634500D01*
X181090018Y-96284500D01*
X181140018Y-96084500D01*
X181240018Y-95984500D01*
X181340018Y-95934500D01*
X182240018Y-96984500D02*
X182240018Y-95934500D01*
X182590018Y-96684500D01*
X182940018Y-95934500D01*
X182940018Y-96984500D01*
X183390018Y-96684500D02*
X183890018Y-96684500D01*
X183290018Y-96984500D02*
X183640018Y-95934500D01*
X183990018Y-96984500D01*
X184290018Y-96934500D02*
X184440018Y-96984500D01*
X184690018Y-96984500D01*
X184790018Y-96934500D01*
X184840018Y-96884500D01*
X184890018Y-96784500D01*
X184890018Y-96684500D01*
X184840018Y-96584500D01*
X184790018Y-96534500D01*
X184690018Y-96484500D01*
X184490018Y-96434500D01*
X184390018Y-96384500D01*
X184340018Y-96334500D01*
X184290018Y-96234500D01*
X184290018Y-96134500D01*
X184340018Y-96034500D01*
X184390018Y-95984500D01*
X184490018Y-95934500D01*
X184740018Y-95934500D01*
X184890018Y-95984500D01*
X177465018Y-98675000D02*
X177465018Y-97625000D01*
X177715018Y-97625000D01*
X177865018Y-97675000D01*
X177965018Y-97775000D01*
X178015018Y-97875000D01*
X178065018Y-98075000D01*
X178065018Y-98225000D01*
X178015018Y-98425000D01*
X177965018Y-98525000D01*
X177865018Y-98625000D01*
X177715018Y-98675000D01*
X177465018Y-98675000D01*
X178515018Y-98125000D02*
X178865018Y-98125000D01*
X179015018Y-98675000D02*
X178515018Y-98675000D01*
X178515018Y-97625000D01*
X179015018Y-97625000D01*
X179415018Y-98625000D02*
X179565018Y-98675000D01*
X179815018Y-98675000D01*
X179915018Y-98625000D01*
X179965018Y-98575000D01*
X180015018Y-98475000D01*
X180015018Y-98375000D01*
X179965018Y-98275000D01*
X179915018Y-98225000D01*
X179815018Y-98175000D01*
X179615018Y-98125000D01*
X179515018Y-98075000D01*
X179465018Y-98025000D01*
X179415018Y-97925000D01*
X179415018Y-97825000D01*
X179465018Y-97725000D01*
X179515018Y-97675000D01*
X179615018Y-97625000D01*
X179865018Y-97625000D01*
X180015018Y-97675000D01*
X181065018Y-98675000D02*
X180715018Y-98175000D01*
X180465018Y-98675000D02*
X180465018Y-97625000D01*
X180865018Y-97625000D01*
X180965018Y-97675000D01*
X181015018Y-97725000D01*
X181065018Y-97825000D01*
X181065018Y-97975000D01*
X181015018Y-98075000D01*
X180965018Y-98125000D01*
X180865018Y-98175000D01*
X180465018Y-98175000D01*
X181715018Y-97625000D02*
X181915018Y-97625000D01*
X182015018Y-97675000D01*
X182115018Y-97775000D01*
X182165018Y-97975000D01*
X182165018Y-98325000D01*
X182115018Y-98525000D01*
X182015018Y-98625000D01*
X181915018Y-98675000D01*
X181715018Y-98675000D01*
X181615018Y-98625000D01*
X181515018Y-98525000D01*
X181465018Y-98325000D01*
X181465018Y-97975000D01*
X181515018Y-97775000D01*
X181615018Y-97675000D01*
X181715018Y-97625000D01*
X182565018Y-98625000D02*
X182715018Y-98675000D01*
X182965018Y-98675000D01*
X183065018Y-98625000D01*
X183115018Y-98575000D01*
X183165018Y-98475000D01*
X183165018Y-98375000D01*
X183115018Y-98275000D01*
X183065018Y-98225000D01*
X182965018Y-98175000D01*
X182765018Y-98125000D01*
X182665018Y-98075000D01*
X182615018Y-98025000D01*
X182565018Y-97925000D01*
X182565018Y-97825000D01*
X182615018Y-97725000D01*
X182665018Y-97675000D01*
X182765018Y-97625000D01*
X183015018Y-97625000D01*
X183165018Y-97675000D01*
X183615018Y-98675000D02*
X183615018Y-97625000D01*
X184115018Y-98125000D02*
X184465018Y-98125000D01*
X184615018Y-98675000D02*
X184115018Y-98675000D01*
X184115018Y-97625000D01*
X184615018Y-97625000D01*
X185665018Y-98675000D02*
X185315018Y-98175000D01*
X185065018Y-98675000D02*
X185065018Y-97625000D01*
X185465018Y-97625000D01*
X185565018Y-97675000D01*
X185615018Y-97725000D01*
X185665018Y-97825000D01*
X185665018Y-97975000D01*
X185615018Y-98075000D01*
X185565018Y-98125000D01*
X185465018Y-98175000D01*
X185065018Y-98175000D01*
X186065018Y-98625000D02*
X186215018Y-98675000D01*
X186465018Y-98675000D01*
X186565018Y-98625000D01*
X186615018Y-98575000D01*
X186665018Y-98475000D01*
X186665018Y-98375000D01*
X186615018Y-98275000D01*
X186565018Y-98225000D01*
X186465018Y-98175000D01*
X186265018Y-98125000D01*
X186165018Y-98075000D01*
X186115018Y-98025000D01*
X186065018Y-97925000D01*
X186065018Y-97825000D01*
X186115018Y-97725000D01*
X186165018Y-97675000D01*
X186265018Y-97625000D01*
X186515018Y-97625000D01*
X186665018Y-97675000D01*
X176940018Y-99415500D02*
X176990018Y-99365500D01*
X177090018Y-99315500D01*
X177340018Y-99315500D01*
X177440018Y-99365500D01*
X177490018Y-99415500D01*
X177540018Y-99515500D01*
X177540018Y-99615500D01*
X177490018Y-99765500D01*
X176890018Y-100365500D01*
X177540018Y-100365500D01*
X178190018Y-99315500D02*
X178290018Y-99315500D01*
X178390018Y-99365500D01*
X178440018Y-99415500D01*
X178490018Y-99515500D01*
X178540018Y-99715500D01*
X178540018Y-99965500D01*
X178490018Y-100165500D01*
X178440018Y-100265500D01*
X178390018Y-100315500D01*
X178290018Y-100365500D01*
X178190018Y-100365500D01*
X178090018Y-100315500D01*
X178040018Y-100265500D01*
X177990018Y-100165500D01*
X177940018Y-99965500D01*
X177940018Y-99715500D01*
X177990018Y-99515500D01*
X178040018Y-99415500D01*
X178090018Y-99365500D01*
X178190018Y-99315500D01*
X178940018Y-99415500D02*
X178990018Y-99365500D01*
X179090018Y-99315500D01*
X179340018Y-99315500D01*
X179440018Y-99365500D01*
X179490018Y-99415500D01*
X179540018Y-99515500D01*
X179540018Y-99615500D01*
X179490018Y-99765500D01*
X178890018Y-100365500D01*
X179540018Y-100365500D01*
X179940018Y-99415500D02*
X179990018Y-99365500D01*
X180090018Y-99315500D01*
X180340018Y-99315500D01*
X180440018Y-99365500D01*
X180490018Y-99415500D01*
X180540018Y-99515500D01*
X180540018Y-99615500D01*
X180490018Y-99765500D01*
X179890018Y-100365500D01*
X180540018Y-100365500D01*
X180990018Y-99965500D02*
X181790018Y-99965500D01*
X182490018Y-99315500D02*
X182590018Y-99315500D01*
X182690018Y-99365500D01*
X182740018Y-99415500D01*
X182790018Y-99515500D01*
X182840018Y-99715500D01*
X182840018Y-99965500D01*
X182790018Y-100165500D01*
X182740018Y-100265500D01*
X182690018Y-100315500D01*
X182590018Y-100365500D01*
X182490018Y-100365500D01*
X182390018Y-100315500D01*
X182340018Y-100265500D01*
X182290018Y-100165500D01*
X182240018Y-99965500D01*
X182240018Y-99715500D01*
X182290018Y-99515500D01*
X182340018Y-99415500D01*
X182390018Y-99365500D01*
X182490018Y-99315500D01*
X183190018Y-99315500D02*
X183840018Y-99315500D01*
X183490018Y-99715500D01*
X183640018Y-99715500D01*
X183740018Y-99765500D01*
X183790018Y-99815500D01*
X183840018Y-99915500D01*
X183840018Y-100165500D01*
X183790018Y-100265500D01*
X183740018Y-100315500D01*
X183640018Y-100365500D01*
X183340018Y-100365500D01*
X183240018Y-100315500D01*
X183190018Y-100265500D01*
X184290018Y-99965500D02*
X185090018Y-99965500D01*
X186140018Y-100365500D02*
X185540018Y-100365500D01*
X185840018Y-100365500D02*
X185840018Y-99315500D01*
X185740018Y-99465500D01*
X185640018Y-99565500D01*
X185540018Y-99615500D01*
X186490018Y-99315500D02*
X187140018Y-99315500D01*
X186790018Y-99715500D01*
X186940018Y-99715500D01*
X187040018Y-99765500D01*
X187090018Y-99815500D01*
X187140018Y-99915500D01*
X187140018Y-100165500D01*
X187090018Y-100265500D01*
X187040018Y-100315500D01*
X186940018Y-100365500D01*
X186640018Y-100365500D01*
X186540018Y-100315500D01*
X186490018Y-100265500D01*
D13*
%TO.P,J2,1,Pin_1*%
%TO.N,N/C*%
X191276007Y-75508192D03*
D14*
%TO.P,J2,2,Pin_2*%
X191276007Y-78048192D03*
%TO.P,J2,3,Pin_3*%
X191276007Y-80588192D03*
%TO.P,J2,4,Pin_4*%
X191276007Y-83128192D03*
%TO.P,J2,5,Pin_5*%
X191276007Y-85668192D03*
%TO.P,J2,6,Pin_6*%
X191276007Y-88208192D03*
%TO.P,J2,7,Pin_7*%
X191276007Y-90748192D03*
%TO.P,J2,8,Pin_8*%
X191276007Y-93288192D03*
%TD*%
D15*
%TO.P,REF\u002A\u002A,*%
%TO.N,*%
X189584006Y-65366012D03*
%TD*%
D16*
%TO.P,J1,1,Pin_1*%
%TO.N,N/C*%
X172914007Y-75508192D03*
D14*
%TO.P,J1,2,Pin_2*%
%TO.N,+5V*%
X172914007Y-78048192D03*
%TO.P,J1,3,Pin_3*%
%TO.N,N/C*%
X172914007Y-80588192D03*
%TO.P,J1,4,Pin_4*%
%TO.N,GND*%
X172914007Y-83128192D03*
%TO.P,J1,5,Pin_5*%
%TO.N,N/C*%
X172914007Y-85668192D03*
%TO.P,J1,6,Pin_6*%
X172914007Y-88208192D03*
%TO.P,J1,7,Pin_7*%
X172914007Y-90748192D03*
%TO.P,J1,8,Pin_8*%
X172914007Y-93288192D03*
%TD*%
D15*
%TO.P,REF\u002A\u002A,*%
%TO.N,*%
X189584006Y-103402432D03*
%TD*%
%TO.P,REF\u002A\u002A,*%
%TO.N,*%
X174606008Y-103402432D03*
%TD*%
D17*
%TO.P,C1,1*%
%TO.N,+5V*%
X173040018Y-72450000D03*
%TO.P,C1,2*%
%TO.N,GND*%
X173040018Y-69950000D03*
%TD*%
D16*
%TO.P,JTAG1,1,#MCLR*%
%TO.N,N/C*%
X182095007Y-75508192D03*
D14*
%TO.P,JTAG1,2,VDD*%
%TO.N,+5V*%
X182095007Y-78048192D03*
%TO.P,JTAG1,3,GND*%
%TO.N,GND*%
X182095007Y-80588192D03*
%TO.P,JTAG1,4,TDO*%
%TO.N,N/C*%
X182095007Y-83128192D03*
%TO.P,JTAG1,5,TCK*%
X182095007Y-85668192D03*
%TO.P,JTAG1,6,#RESET*%
X182095007Y-88208192D03*
%TO.P,JTAG1,7,TDI*%
X182095007Y-90748192D03*
%TO.P,JTAG1,8,TMS*%
X182095007Y-93288192D03*
%TD*%
D15*
%TO.P,REF\u002A\u002A,*%
%TO.N,*%
X174606008Y-65366012D03*
%TD*%
%TO.P,REF\u002A\u002A,*%
%TO.N,*%
X163849990Y-103399996D03*
%TD*%
D16*
%TO.P,J2,1,Pin_1*%
%TO.N,unconnected-(J2-Pad1)*%
X147179995Y-75505767D03*
D14*
%TO.P,J2,2,Pin_2*%
%TO.N,+5V*%
X147179995Y-78045767D03*
%TO.P,J2,3,Pin_3*%
%TO.N,unconnected-(J2-Pad3)*%
X147179995Y-80585767D03*
%TO.P,J2,4,Pin_4*%
%TO.N,GND*%
X147179995Y-83125767D03*
%TO.P,J2,5,Pin_5*%
%TO.N,unconnected-(J2-Pad5)*%
X147179995Y-85665767D03*
%TO.P,J2,6,Pin_6*%
%TO.N,MISO*%
X147179995Y-88205767D03*
%TO.P,J2,7,Pin_7*%
%TO.N,unconnected-(J2-Pad7)*%
X147179995Y-90745767D03*
%TO.P,J2,8,Pin_8*%
%TO.N,SCLK*%
X147179995Y-93285767D03*
%TD*%
D17*
%TO.P,C1,1*%
%TO.N,+5V*%
X150500000Y-78050000D03*
%TO.P,C1,2*%
%TO.N,GND*%
X150500000Y-80550000D03*
%TD*%
D15*
%TO.P,REF\u002A\u002A,*%
%TO.N,*%
X163849990Y-65363573D03*
%TD*%
%TO.P,REF\u002A\u002A,*%
%TO.N,*%
X148871991Y-103399996D03*
%TD*%
D13*
%TO.P,J3,1,Pin_1*%
%TO.N,SCLK*%
X165542011Y-75505767D03*
D14*
%TO.P,J3,2,Pin_2*%
%TO.N,unconnected-(J3-Pad2)*%
X165542011Y-78045767D03*
%TO.P,J3,3,Pin_3*%
%TO.N,RESET*%
X165542011Y-80585767D03*
%TO.P,J3,4,Pin_4*%
%TO.N,unconnected-(J3-Pad4)*%
X165542011Y-83125767D03*
%TO.P,J3,5,Pin_5*%
%TO.N,MOSI*%
X165542011Y-85665767D03*
%TO.P,J3,6,Pin_6*%
%TO.N,unconnected-(J3-Pad6)*%
X165542011Y-88205767D03*
%TO.P,J3,7,Pin_7*%
%TO.N,unconnected-(J3-Pad7)*%
X165542011Y-90745767D03*
%TO.P,J3,8,Pin_8*%
%TO.N,unconnected-(J3-Pad8)*%
X165542011Y-93285767D03*
%TD*%
D15*
%TO.P,REF\u002A\u002A,*%
%TO.N,*%
X148871991Y-65363573D03*
%TD*%
D18*
%TO.P,D1,1,K*%
%TO.N,Net-(D1-Pad1)*%
X157400000Y-87000000D03*
D19*
%TO.P,D1,2,A*%
%TO.N,MISO*%
X159940000Y-87000000D03*
%TD*%
D17*
%TO.P,R1,1*%
%TO.N,Net-(D1-Pad1)*%
X157400000Y-92450000D03*
D20*
%TO.P,R1,2*%
%TO.N,GND*%
X157400000Y-102610000D03*
%TD*%
D16*
%TO.P,J1,1,Pin_1*%
%TO.N,MISO*%
X157631003Y-70122567D03*
D14*
%TO.P,J1,2,Pin_2*%
%TO.N,SCLK*%
X155091003Y-70122567D03*
%TO.P,J1,3,Pin_3*%
%TO.N,RESET*%
X157631003Y-67582567D03*
%TO.P,J1,4,Pin_4*%
%TO.N,GND*%
X155091003Y-67582567D03*
%TO.P,J1,5,Pin_5*%
%TO.N,MOSI*%
X157631003Y-65042567D03*
%TO.P,J1,6,Pin_6*%
%TO.N,+5V*%
X155091003Y-65042567D03*
%TD*%
D21*
%TO.N,*%
X178008246Y-85668192D03*
%TO.N,GND*%
X176034006Y-90702432D03*
%TO.N,*%
X186181768Y-93288192D03*
X186181768Y-85668192D03*
X186181768Y-88208192D03*
%TO.N,+5V*%
X178008246Y-78048192D03*
%TO.N,*%
X186181768Y-90748192D03*
X178008246Y-83128192D03*
%TO.N,GND*%
X151650000Y-90650000D03*
X157300000Y-80600000D03*
%TO.N,MISO*%
X156250000Y-84750000D03*
X153900000Y-74700000D03*
X153900000Y-87200000D03*
%TO.N,SCLK*%
X155106012Y-72847568D03*
%TO.N,RESET*%
X160050000Y-80600000D03*
%TO.N,MOSI*%
X161600000Y-85650000D03*
%TO.N,Net-(D1-Pad1)*%
X157400000Y-90400000D03*
%TD*%
D22*
%TO.N,*%
X188984006Y-89852432D02*
X188984006Y-86202432D01*
X186237528Y-88152432D02*
X187734006Y-88152432D01*
X188284006Y-75502432D02*
X188289766Y-75508192D01*
X188934006Y-92552432D02*
X188934006Y-91552432D01*
X188088246Y-90748192D02*
X188984006Y-89852432D01*
X186181768Y-90748192D02*
X188088246Y-90748192D01*
X188198246Y-93288192D02*
X188934006Y-92552432D01*
X177248246Y-93288192D02*
X178008246Y-92528192D01*
X188284006Y-81302432D02*
X188998246Y-80588192D01*
X186181768Y-85668192D02*
X186297528Y-85552432D01*
X188934006Y-91552432D02*
X189738246Y-90748192D01*
X186181768Y-88208192D02*
X186237528Y-88152432D01*
X172914007Y-93288192D02*
X177248246Y-93288192D01*
X176434006Y-83652432D02*
X176958246Y-83128192D01*
X187734006Y-88152432D02*
X188284006Y-87602432D01*
X187284006Y-85552432D02*
X187734006Y-85102432D01*
X187734006Y-85102432D02*
X187734006Y-76052432D01*
X188284006Y-87602432D02*
X188284006Y-81302432D01*
X186181768Y-93288192D02*
X188198246Y-93288192D01*
X188289766Y-75508192D02*
X191276007Y-75508192D01*
X178008246Y-92528192D02*
X178008246Y-85668192D01*
X175678246Y-88208192D02*
X176434006Y-87452432D01*
X187734006Y-76052432D02*
X188284006Y-75502432D01*
X172914007Y-88208192D02*
X175678246Y-88208192D01*
X189518246Y-85668192D02*
X191276007Y-85668192D01*
X176434006Y-87452432D02*
X176434006Y-83652432D01*
X188998246Y-80588192D02*
X191276007Y-80588192D01*
X176958246Y-83128192D02*
X178008246Y-83128192D01*
X188984006Y-86202432D02*
X189518246Y-85668192D01*
X189738246Y-90748192D02*
X191276007Y-90748192D01*
X186297528Y-85552432D02*
X187284006Y-85552432D01*
D23*
%TO.N,+5V*%
X172914007Y-78048192D02*
X178008246Y-78048192D01*
X150500000Y-75900000D02*
X150500000Y-78050000D01*
X152456012Y-73943988D02*
X150500000Y-75900000D01*
X155091003Y-65042567D02*
X153311013Y-65042567D01*
X153311013Y-65042567D02*
X152456012Y-65897568D01*
X152456012Y-65897568D02*
X152456012Y-73943988D01*
D22*
%TO.N,MISO*%
X157650000Y-74050000D02*
X157631003Y-74031003D01*
X154550000Y-84750000D02*
X153900000Y-85400000D01*
X153900000Y-74700000D02*
X157000000Y-74700000D01*
X156250000Y-84750000D02*
X154550000Y-84750000D01*
X153900000Y-85400000D02*
X153900000Y-87200000D01*
X157631003Y-74031003D02*
X157631003Y-70122567D01*
X157000000Y-74700000D02*
X157650000Y-74050000D01*
%TO.N,SCLK*%
X155091003Y-72832559D02*
X155106012Y-72847568D01*
X155091003Y-70122567D02*
X155091003Y-72832559D01*
%TO.N,RESET*%
X160100000Y-80550000D02*
X160100000Y-68300000D01*
X160050000Y-80600000D02*
X160100000Y-80550000D01*
X160100000Y-68300000D02*
X159382567Y-67582567D01*
X159382567Y-67582567D02*
X157631003Y-67582567D01*
%TO.N,MOSI*%
X160650000Y-65750000D02*
X161600000Y-66700000D01*
X159942567Y-65042567D02*
X160650000Y-65750000D01*
X161600000Y-66700000D02*
X161600000Y-85650000D01*
X157631003Y-65042567D02*
X159942567Y-65042567D01*
%TO.N,Net-(D1-Pad1)*%
X157399990Y-92450006D02*
X157399990Y-90399997D01*
%TD*%
%TA.AperFunction,Conductor*%
%TO.N,GND*%
G36*
X164870057Y-61824980D02*
G01*
X164884858Y-61827285D01*
X164884861Y-61827285D01*
X164893730Y-61828666D01*
X164910899Y-61826421D01*
X164934839Y-61825588D01*
X165192770Y-61841190D01*
X165207874Y-61843024D01*
X165278648Y-61855994D01*
X165488879Y-61894520D01*
X165503641Y-61898158D01*
X165776408Y-61983155D01*
X165790627Y-61988549D01*
X166051140Y-62105796D01*
X166064609Y-62112865D01*
X166309095Y-62260662D01*
X166321617Y-62269305D01*
X166546507Y-62445496D01*
X166557895Y-62455586D01*
X166759894Y-62657585D01*
X166769984Y-62668973D01*
X166946175Y-62893863D01*
X166954818Y-62906385D01*
X167102615Y-63150871D01*
X167109684Y-63164340D01*
X167226930Y-63424850D01*
X167232325Y-63439072D01*
X167308497Y-63683515D01*
X167317321Y-63711833D01*
X167320960Y-63726601D01*
X167338617Y-63822951D01*
X167372456Y-64007606D01*
X167374290Y-64022710D01*
X167389455Y-64273409D01*
X167388198Y-64300119D01*
X167388195Y-64300339D01*
X167386814Y-64309210D01*
X167387978Y-64318112D01*
X167387978Y-64318115D01*
X167390936Y-64340731D01*
X167392000Y-64357069D01*
X167392000Y-104400672D01*
X167390500Y-104420056D01*
X167386814Y-104443730D01*
X167388454Y-104456270D01*
X167389059Y-104460897D01*
X167389892Y-104484839D01*
X167374290Y-104742770D01*
X167372456Y-104757874D01*
X167320962Y-105038873D01*
X167317322Y-105053641D01*
X167251668Y-105264334D01*
X167232326Y-105326404D01*
X167226931Y-105340627D01*
X167150466Y-105510527D01*
X167109686Y-105601136D01*
X167102615Y-105614609D01*
X166954818Y-105859095D01*
X166946175Y-105871617D01*
X166769984Y-106096507D01*
X166759894Y-106107895D01*
X166557895Y-106309894D01*
X166546507Y-106319984D01*
X166321617Y-106496175D01*
X166309095Y-106504818D01*
X166064609Y-106652615D01*
X166051140Y-106659684D01*
X165790630Y-106776930D01*
X165776408Y-106782325D01*
X165503641Y-106867322D01*
X165488879Y-106870960D01*
X165278648Y-106909486D01*
X165207874Y-106922456D01*
X165192770Y-106924290D01*
X164942071Y-106939455D01*
X164915361Y-106938198D01*
X164915141Y-106938195D01*
X164906270Y-106936814D01*
X164897368Y-106937978D01*
X164897365Y-106937978D01*
X164874749Y-106940936D01*
X164858411Y-106942000D01*
X147871330Y-106942000D01*
X147851945Y-106940500D01*
X147837144Y-106938195D01*
X147837141Y-106938195D01*
X147828272Y-106936814D01*
X147811103Y-106939059D01*
X147787163Y-106939892D01*
X147529232Y-106924290D01*
X147514128Y-106922456D01*
X147443354Y-106909486D01*
X147233123Y-106870960D01*
X147218361Y-106867322D01*
X146945594Y-106782325D01*
X146931372Y-106776930D01*
X146670862Y-106659684D01*
X146657393Y-106652615D01*
X146412907Y-106504818D01*
X146400385Y-106496175D01*
X146175495Y-106319984D01*
X146164107Y-106309894D01*
X145962108Y-106107895D01*
X145952018Y-106096507D01*
X145775827Y-105871617D01*
X145767184Y-105859095D01*
X145619387Y-105614609D01*
X145612316Y-105601136D01*
X145571537Y-105510527D01*
X145495071Y-105340627D01*
X145489676Y-105326404D01*
X145470334Y-105264334D01*
X145404680Y-105053641D01*
X145401040Y-105038873D01*
X145349546Y-104757874D01*
X145347712Y-104742770D01*
X145332547Y-104492071D01*
X145333804Y-104465361D01*
X145333807Y-104465141D01*
X145335188Y-104456270D01*
X145333549Y-104443730D01*
X145331066Y-104424749D01*
X145330002Y-104408411D01*
X145330002Y-103377865D01*
X146758680Y-103377865D01*
X146775229Y-103664879D01*
X146776054Y-103669084D01*
X146776055Y-103669092D01*
X146790738Y-103743931D01*
X146830577Y-103946991D01*
X146831964Y-103951041D01*
X146831965Y-103951046D01*
X146922312Y-104214926D01*
X146923701Y-104218982D01*
X146925628Y-104222813D01*
X147047617Y-104465361D01*
X147052876Y-104475818D01*
X147215712Y-104712746D01*
X147409197Y-104925384D01*
X147412492Y-104928139D01*
X147412493Y-104928140D01*
X147562599Y-105053647D01*
X147629750Y-105109794D01*
X147873289Y-105262567D01*
X148135309Y-105380873D01*
X148139428Y-105382093D01*
X148406848Y-105461307D01*
X148406853Y-105461308D01*
X148410961Y-105462525D01*
X148415195Y-105463173D01*
X148415200Y-105463174D01*
X148663802Y-105501215D01*
X148695144Y-105506011D01*
X148841476Y-105508310D01*
X148978308Y-105510460D01*
X148978314Y-105510460D01*
X148982599Y-105510527D01*
X148986851Y-105510012D01*
X148986859Y-105510012D01*
X149263747Y-105476504D01*
X149263752Y-105476503D01*
X149268008Y-105475988D01*
X149546088Y-105403035D01*
X149811695Y-105293017D01*
X150059913Y-105147970D01*
X150286150Y-104970578D01*
X150327276Y-104928140D01*
X150483235Y-104767202D01*
X150486218Y-104764124D01*
X150488751Y-104760676D01*
X150488755Y-104760671D01*
X150653878Y-104535882D01*
X150656416Y-104532427D01*
X150704575Y-104443730D01*
X150791545Y-104283551D01*
X150791546Y-104283549D01*
X150793595Y-104279775D01*
X150895216Y-104010844D01*
X150922574Y-103891394D01*
X150958440Y-103734793D01*
X150958441Y-103734789D01*
X150959398Y-103730609D01*
X150984954Y-103444256D01*
X150985418Y-103399996D01*
X150983618Y-103373594D01*
X150966156Y-103117448D01*
X150966155Y-103117442D01*
X150965864Y-103113171D01*
X150961327Y-103091260D01*
X150916857Y-102876522D01*
X156117273Y-102876522D01*
X156164764Y-103053761D01*
X156168510Y-103064053D01*
X156260586Y-103261511D01*
X156266069Y-103271007D01*
X156391028Y-103449467D01*
X156398084Y-103457875D01*
X156552125Y-103611916D01*
X156560533Y-103618972D01*
X156738993Y-103743931D01*
X156748489Y-103749414D01*
X156945947Y-103841490D01*
X156956239Y-103845236D01*
X157128503Y-103891394D01*
X157142599Y-103891058D01*
X157146000Y-103883116D01*
X157146000Y-103877967D01*
X157654000Y-103877967D01*
X157657973Y-103891498D01*
X157666522Y-103892727D01*
X157843761Y-103845236D01*
X157854053Y-103841490D01*
X158051511Y-103749414D01*
X158061007Y-103743931D01*
X158239467Y-103618972D01*
X158247875Y-103611916D01*
X158401916Y-103457875D01*
X158408972Y-103449467D01*
X158459108Y-103377865D01*
X161736679Y-103377865D01*
X161753228Y-103664879D01*
X161754053Y-103669084D01*
X161754054Y-103669092D01*
X161768737Y-103743931D01*
X161808576Y-103946991D01*
X161809963Y-103951041D01*
X161809964Y-103951046D01*
X161900311Y-104214926D01*
X161901700Y-104218982D01*
X161903627Y-104222813D01*
X162025616Y-104465361D01*
X162030875Y-104475818D01*
X162193711Y-104712746D01*
X162387196Y-104925384D01*
X162390491Y-104928139D01*
X162390492Y-104928140D01*
X162540598Y-105053647D01*
X162607749Y-105109794D01*
X162851288Y-105262567D01*
X163113308Y-105380873D01*
X163117427Y-105382093D01*
X163384847Y-105461307D01*
X163384852Y-105461308D01*
X163388960Y-105462525D01*
X163393194Y-105463173D01*
X163393199Y-105463174D01*
X163641801Y-105501215D01*
X163673143Y-105506011D01*
X163819475Y-105508310D01*
X163956307Y-105510460D01*
X163956313Y-105510460D01*
X163960598Y-105510527D01*
X163964850Y-105510012D01*
X163964858Y-105510012D01*
X164241746Y-105476504D01*
X164241751Y-105476503D01*
X164246007Y-105475988D01*
X164524087Y-105403035D01*
X164789694Y-105293017D01*
X165037912Y-105147970D01*
X165264149Y-104970578D01*
X165305275Y-104928140D01*
X165461234Y-104767202D01*
X165464217Y-104764124D01*
X165466750Y-104760676D01*
X165466754Y-104760671D01*
X165631877Y-104535882D01*
X165634415Y-104532427D01*
X165682574Y-104443730D01*
X165769544Y-104283551D01*
X165769545Y-104283549D01*
X165771594Y-104279775D01*
X165873215Y-104010844D01*
X165900573Y-103891394D01*
X165936439Y-103734793D01*
X165936440Y-103734789D01*
X165937397Y-103730609D01*
X165962953Y-103444256D01*
X165963417Y-103399996D01*
X165961617Y-103373594D01*
X165944155Y-103117448D01*
X165944154Y-103117442D01*
X165943863Y-103113171D01*
X165939326Y-103091260D01*
X165892858Y-102866876D01*
X165885564Y-102831654D01*
X165789597Y-102560653D01*
X165657740Y-102305184D01*
X165644478Y-102286313D01*
X165560088Y-102166239D01*
X165492431Y-102069973D01*
X165419596Y-101991593D01*
X165299651Y-101862517D01*
X165299648Y-101862515D01*
X165296730Y-101859374D01*
X165074258Y-101677283D01*
X164829132Y-101527069D01*
X164811038Y-101519126D01*
X164569820Y-101413239D01*
X164565888Y-101411513D01*
X164539953Y-101404125D01*
X164293524Y-101333928D01*
X164293525Y-101333928D01*
X164289396Y-101332752D01*
X164076694Y-101302481D01*
X164009026Y-101292850D01*
X164009024Y-101292850D01*
X164004774Y-101292245D01*
X164000485Y-101292223D01*
X164000478Y-101292222D01*
X163721573Y-101290761D01*
X163721566Y-101290761D01*
X163717287Y-101290739D01*
X163713043Y-101291298D01*
X163713039Y-101291298D01*
X163587650Y-101307806D01*
X163432256Y-101328264D01*
X163428116Y-101329397D01*
X163428114Y-101329397D01*
X163400746Y-101336884D01*
X163154954Y-101404125D01*
X163151006Y-101405809D01*
X162894466Y-101515233D01*
X162894462Y-101515235D01*
X162890514Y-101516919D01*
X162765950Y-101591469D01*
X162647511Y-101662353D01*
X162647507Y-101662356D01*
X162643829Y-101664557D01*
X162419462Y-101844309D01*
X162221567Y-102052847D01*
X162053804Y-102286313D01*
X161919278Y-102540388D01*
X161820479Y-102810369D01*
X161759235Y-103091260D01*
X161736679Y-103377865D01*
X158459108Y-103377865D01*
X158533931Y-103271007D01*
X158539414Y-103261511D01*
X158631490Y-103064053D01*
X158635236Y-103053761D01*
X158681394Y-102881497D01*
X158681058Y-102867401D01*
X158673116Y-102864000D01*
X157672115Y-102864000D01*
X157656876Y-102868475D01*
X157655671Y-102869865D01*
X157654000Y-102877548D01*
X157654000Y-103877967D01*
X157146000Y-103877967D01*
X157146000Y-102882115D01*
X157141525Y-102866876D01*
X157140135Y-102865671D01*
X157132452Y-102864000D01*
X156132033Y-102864000D01*
X156118502Y-102867973D01*
X156117273Y-102876522D01*
X150916857Y-102876522D01*
X150914859Y-102866876D01*
X150907565Y-102831654D01*
X150811598Y-102560653D01*
X150696938Y-102338503D01*
X156118606Y-102338503D01*
X156118942Y-102352599D01*
X156126884Y-102356000D01*
X157127885Y-102356000D01*
X157143124Y-102351525D01*
X157144329Y-102350135D01*
X157146000Y-102342452D01*
X157146000Y-102337885D01*
X157654000Y-102337885D01*
X157658475Y-102353124D01*
X157659865Y-102354329D01*
X157667548Y-102356000D01*
X158667967Y-102356000D01*
X158681498Y-102352027D01*
X158682727Y-102343478D01*
X158635236Y-102166239D01*
X158631490Y-102155947D01*
X158539414Y-101958489D01*
X158533931Y-101948993D01*
X158408972Y-101770533D01*
X158401916Y-101762125D01*
X158247875Y-101608084D01*
X158239467Y-101601028D01*
X158061007Y-101476069D01*
X158051511Y-101470586D01*
X157854053Y-101378510D01*
X157843761Y-101374764D01*
X157671497Y-101328606D01*
X157657401Y-101328942D01*
X157654000Y-101336884D01*
X157654000Y-102337885D01*
X157146000Y-102337885D01*
X157146000Y-101342033D01*
X157142027Y-101328502D01*
X157133478Y-101327273D01*
X156956239Y-101374764D01*
X156945947Y-101378510D01*
X156748489Y-101470586D01*
X156738993Y-101476069D01*
X156560533Y-101601028D01*
X156552125Y-101608084D01*
X156398084Y-101762125D01*
X156391028Y-101770533D01*
X156266069Y-101948993D01*
X156260586Y-101958489D01*
X156168510Y-102155947D01*
X156164764Y-102166239D01*
X156118606Y-102338503D01*
X150696938Y-102338503D01*
X150679741Y-102305184D01*
X150666479Y-102286313D01*
X150582089Y-102166239D01*
X150514432Y-102069973D01*
X150441597Y-101991593D01*
X150321652Y-101862517D01*
X150321649Y-101862515D01*
X150318731Y-101859374D01*
X150096259Y-101677283D01*
X149851133Y-101527069D01*
X149833039Y-101519126D01*
X149591821Y-101413239D01*
X149587889Y-101411513D01*
X149561954Y-101404125D01*
X149315525Y-101333928D01*
X149315526Y-101333928D01*
X149311397Y-101332752D01*
X149098695Y-101302481D01*
X149031027Y-101292850D01*
X149031025Y-101292850D01*
X149026775Y-101292245D01*
X149022486Y-101292223D01*
X149022479Y-101292222D01*
X148743574Y-101290761D01*
X148743567Y-101290761D01*
X148739288Y-101290739D01*
X148735044Y-101291298D01*
X148735040Y-101291298D01*
X148609651Y-101307806D01*
X148454257Y-101328264D01*
X148450117Y-101329397D01*
X148450115Y-101329397D01*
X148422747Y-101336884D01*
X148176955Y-101404125D01*
X148173007Y-101405809D01*
X147916467Y-101515233D01*
X147916463Y-101515235D01*
X147912515Y-101516919D01*
X147787951Y-101591469D01*
X147669512Y-101662353D01*
X147669508Y-101662356D01*
X147665830Y-101664557D01*
X147441463Y-101844309D01*
X147243568Y-102052847D01*
X147075805Y-102286313D01*
X146941279Y-102540388D01*
X146842480Y-102810369D01*
X146781236Y-103091260D01*
X146758680Y-103377865D01*
X145330002Y-103377865D01*
X145330002Y-93252462D01*
X145817246Y-93252462D01*
X145817543Y-93257615D01*
X145817543Y-93257618D01*
X145823006Y-93352357D01*
X145830105Y-93475482D01*
X145831242Y-93480528D01*
X145831243Y-93480534D01*
X145851114Y-93568706D01*
X145879217Y-93693406D01*
X145963261Y-93900383D01*
X146079982Y-94090855D01*
X146226245Y-94259705D01*
X146398121Y-94402399D01*
X146590995Y-94515105D01*
X146799687Y-94594797D01*
X146804755Y-94595828D01*
X146804758Y-94595829D01*
X146912012Y-94617650D01*
X147018592Y-94639334D01*
X147023767Y-94639524D01*
X147023769Y-94639524D01*
X147236668Y-94647331D01*
X147236672Y-94647331D01*
X147241832Y-94647520D01*
X147246952Y-94646864D01*
X147246954Y-94646864D01*
X147458283Y-94619792D01*
X147458284Y-94619792D01*
X147463411Y-94619135D01*
X147468361Y-94617650D01*
X147672424Y-94556428D01*
X147672429Y-94556426D01*
X147677379Y-94554941D01*
X147877989Y-94456663D01*
X148059855Y-94326940D01*
X148218091Y-94169256D01*
X148277589Y-94086456D01*
X148345430Y-93992044D01*
X148348448Y-93987844D01*
X148447425Y-93787578D01*
X148512365Y-93573836D01*
X148541524Y-93352357D01*
X148541606Y-93349007D01*
X148543069Y-93289132D01*
X148543069Y-93289128D01*
X148543151Y-93285767D01*
X148524847Y-93063128D01*
X148470426Y-92846469D01*
X148381349Y-92641607D01*
X148260009Y-92454044D01*
X148256329Y-92450000D01*
X156086502Y-92450000D01*
X156106457Y-92678087D01*
X156165716Y-92899243D01*
X156168039Y-92904224D01*
X156168039Y-92904225D01*
X156260151Y-93101762D01*
X156260154Y-93101767D01*
X156262477Y-93106749D01*
X156265634Y-93111257D01*
X156385479Y-93282413D01*
X156393802Y-93294300D01*
X156555700Y-93456198D01*
X156560208Y-93459355D01*
X156560211Y-93459357D01*
X156583240Y-93475482D01*
X156743251Y-93587523D01*
X156748233Y-93589846D01*
X156748238Y-93589849D01*
X156945775Y-93681961D01*
X156950757Y-93684284D01*
X156956065Y-93685706D01*
X156956067Y-93685707D01*
X157166598Y-93742119D01*
X157166600Y-93742119D01*
X157171913Y-93743543D01*
X157400000Y-93763498D01*
X157628087Y-93743543D01*
X157633400Y-93742119D01*
X157633402Y-93742119D01*
X157843933Y-93685707D01*
X157843935Y-93685706D01*
X157849243Y-93684284D01*
X157854225Y-93681961D01*
X158051762Y-93589849D01*
X158051767Y-93589846D01*
X158056749Y-93587523D01*
X158216760Y-93475482D01*
X158239789Y-93459357D01*
X158239792Y-93459355D01*
X158244300Y-93456198D01*
X158406198Y-93294300D01*
X158414522Y-93282413D01*
X158435494Y-93252462D01*
X164179262Y-93252462D01*
X164179559Y-93257615D01*
X164179559Y-93257618D01*
X164185022Y-93352357D01*
X164192121Y-93475482D01*
X164193258Y-93480528D01*
X164193259Y-93480534D01*
X164213130Y-93568706D01*
X164241233Y-93693406D01*
X164325277Y-93900383D01*
X164441998Y-94090855D01*
X164588261Y-94259705D01*
X164760137Y-94402399D01*
X164953011Y-94515105D01*
X165161703Y-94594797D01*
X165166771Y-94595828D01*
X165166774Y-94595829D01*
X165274028Y-94617650D01*
X165380608Y-94639334D01*
X165385783Y-94639524D01*
X165385785Y-94639524D01*
X165598684Y-94647331D01*
X165598688Y-94647331D01*
X165603848Y-94647520D01*
X165608968Y-94646864D01*
X165608970Y-94646864D01*
X165820299Y-94619792D01*
X165820300Y-94619792D01*
X165825427Y-94619135D01*
X165830377Y-94617650D01*
X166034440Y-94556428D01*
X166034445Y-94556426D01*
X166039395Y-94554941D01*
X166240005Y-94456663D01*
X166421871Y-94326940D01*
X166580107Y-94169256D01*
X166639605Y-94086456D01*
X166707446Y-93992044D01*
X166710464Y-93987844D01*
X166809441Y-93787578D01*
X166874381Y-93573836D01*
X166903540Y-93352357D01*
X166903622Y-93349007D01*
X166905085Y-93289132D01*
X166905085Y-93289128D01*
X166905167Y-93285767D01*
X166886863Y-93063128D01*
X166832442Y-92846469D01*
X166743365Y-92641607D01*
X166622025Y-92454044D01*
X166471681Y-92288818D01*
X166467630Y-92285619D01*
X166467626Y-92285615D01*
X166300425Y-92153567D01*
X166300421Y-92153565D01*
X166296370Y-92150365D01*
X166255064Y-92127563D01*
X166205095Y-92077131D01*
X166190323Y-92007688D01*
X166215439Y-91941283D01*
X166242791Y-91914676D01*
X166286614Y-91883417D01*
X166421871Y-91786940D01*
X166580107Y-91629256D01*
X166639605Y-91546456D01*
X166707446Y-91452044D01*
X166710464Y-91447844D01*
X166734404Y-91399406D01*
X166807147Y-91252220D01*
X166807148Y-91252218D01*
X166809441Y-91247578D01*
X166874381Y-91033836D01*
X166903540Y-90812357D01*
X166903622Y-90809007D01*
X166905085Y-90749132D01*
X166905085Y-90749128D01*
X166905167Y-90745767D01*
X166886863Y-90523128D01*
X166832442Y-90306469D01*
X166743365Y-90101607D01*
X166660798Y-89973978D01*
X166624833Y-89918384D01*
X166624831Y-89918381D01*
X166622025Y-89914044D01*
X166471681Y-89748818D01*
X166467630Y-89745619D01*
X166467626Y-89745615D01*
X166300425Y-89613567D01*
X166300421Y-89613565D01*
X166296370Y-89610365D01*
X166255064Y-89587563D01*
X166205095Y-89537131D01*
X166190323Y-89467688D01*
X166215439Y-89401283D01*
X166242791Y-89374676D01*
X166310072Y-89326685D01*
X166421871Y-89246940D01*
X166580107Y-89089256D01*
X166639605Y-89006456D01*
X166707446Y-88912044D01*
X166710464Y-88907844D01*
X166809441Y-88707578D01*
X166874381Y-88493836D01*
X166903540Y-88272357D01*
X166904847Y-88218862D01*
X166905085Y-88209132D01*
X166905085Y-88209128D01*
X166905167Y-88205767D01*
X166886863Y-87983128D01*
X166832442Y-87766469D01*
X166743365Y-87561607D01*
X166673860Y-87454169D01*
X166624833Y-87378384D01*
X166624831Y-87378381D01*
X166622025Y-87374044D01*
X166471681Y-87208818D01*
X166467630Y-87205619D01*
X166467626Y-87205615D01*
X166300425Y-87073567D01*
X166300421Y-87073565D01*
X166296370Y-87070365D01*
X166255064Y-87047563D01*
X166205095Y-86997131D01*
X166190323Y-86927688D01*
X166215439Y-86861283D01*
X166242791Y-86834676D01*
X166297199Y-86795867D01*
X166421871Y-86706940D01*
X166580107Y-86549256D01*
X166639605Y-86466456D01*
X166707446Y-86372044D01*
X166710464Y-86367844D01*
X166734743Y-86318720D01*
X166807147Y-86172220D01*
X166807148Y-86172218D01*
X166809441Y-86167578D01*
X166861314Y-85996844D01*
X166872876Y-85958790D01*
X166872876Y-85958788D01*
X166874381Y-85953836D01*
X166903540Y-85732357D01*
X166905167Y-85665767D01*
X166886863Y-85443128D01*
X166832442Y-85226469D01*
X166743365Y-85021607D01*
X166669869Y-84908000D01*
X166624833Y-84838384D01*
X166624831Y-84838381D01*
X166622025Y-84834044D01*
X166471681Y-84668818D01*
X166467630Y-84665619D01*
X166467626Y-84665615D01*
X166300425Y-84533567D01*
X166300421Y-84533565D01*
X166296370Y-84530365D01*
X166255064Y-84507563D01*
X166205095Y-84457131D01*
X166190323Y-84387688D01*
X166215439Y-84321283D01*
X166242791Y-84294676D01*
X166311792Y-84245458D01*
X166421871Y-84166940D01*
X166438883Y-84149988D01*
X166576446Y-84012904D01*
X166580107Y-84009256D01*
X166639605Y-83926456D01*
X166707446Y-83832044D01*
X166710464Y-83827844D01*
X166744940Y-83758088D01*
X166807147Y-83632220D01*
X166807148Y-83632218D01*
X166809441Y-83627578D01*
X166874381Y-83413836D01*
X166903540Y-83192357D01*
X166905167Y-83125767D01*
X166886863Y-82903128D01*
X166832442Y-82686469D01*
X166743365Y-82481607D01*
X166622025Y-82294044D01*
X166471681Y-82128818D01*
X166467630Y-82125619D01*
X166467626Y-82125615D01*
X166300425Y-81993567D01*
X166300421Y-81993565D01*
X166296370Y-81990365D01*
X166255064Y-81967563D01*
X166205095Y-81917131D01*
X166190323Y-81847688D01*
X166215439Y-81781283D01*
X166242791Y-81754676D01*
X166304171Y-81710894D01*
X166421871Y-81626940D01*
X166429978Y-81618862D01*
X166576446Y-81472904D01*
X166580107Y-81469256D01*
X166592911Y-81451438D01*
X166707446Y-81292044D01*
X166710464Y-81287844D01*
X166722073Y-81264356D01*
X166807147Y-81092220D01*
X166807148Y-81092218D01*
X166809441Y-81087578D01*
X166860723Y-80918790D01*
X166872876Y-80878790D01*
X166872876Y-80878788D01*
X166874381Y-80873836D01*
X166903540Y-80652357D01*
X166905167Y-80585767D01*
X166886863Y-80363128D01*
X166832442Y-80146469D01*
X166743365Y-79941607D01*
X166675661Y-79836952D01*
X166624833Y-79758384D01*
X166624831Y-79758381D01*
X166622025Y-79754044D01*
X166471681Y-79588818D01*
X166467630Y-79585619D01*
X166467626Y-79585615D01*
X166300425Y-79453567D01*
X166300421Y-79453565D01*
X166296370Y-79450365D01*
X166255064Y-79427563D01*
X166205095Y-79377131D01*
X166190323Y-79307688D01*
X166215439Y-79241283D01*
X166242791Y-79214676D01*
X166286614Y-79183417D01*
X166421871Y-79086940D01*
X166580107Y-78929256D01*
X166639605Y-78846456D01*
X166707446Y-78752044D01*
X166710464Y-78747844D01*
X166728547Y-78711257D01*
X166807147Y-78552220D01*
X166807148Y-78552218D01*
X166809441Y-78547578D01*
X166874381Y-78333836D01*
X166903540Y-78112357D01*
X166905167Y-78045767D01*
X166886863Y-77823128D01*
X166832442Y-77606469D01*
X166743365Y-77401607D01*
X166622025Y-77214044D01*
X166471681Y-77048818D01*
X166467630Y-77045619D01*
X166467626Y-77045615D01*
X166300425Y-76913567D01*
X166300421Y-76913565D01*
X166296370Y-76910365D01*
X166255064Y-76887563D01*
X166205095Y-76837131D01*
X166190323Y-76767688D01*
X166215439Y-76701283D01*
X166242791Y-76674676D01*
X166286614Y-76643417D01*
X166421871Y-76546940D01*
X166580107Y-76389256D01*
X166639605Y-76306456D01*
X166707446Y-76212044D01*
X166710464Y-76207844D01*
X166809441Y-76007578D01*
X166867547Y-75816330D01*
X166872876Y-75798790D01*
X166872876Y-75798788D01*
X166874381Y-75793836D01*
X166903540Y-75572357D01*
X166905167Y-75505767D01*
X166886863Y-75283128D01*
X166832442Y-75066469D01*
X166743365Y-74861607D01*
X166622025Y-74674044D01*
X166471681Y-74508818D01*
X166467630Y-74505619D01*
X166467626Y-74505615D01*
X166300425Y-74373567D01*
X166300421Y-74373565D01*
X166296370Y-74370365D01*
X166100800Y-74262405D01*
X166095931Y-74260681D01*
X166095927Y-74260679D01*
X165895098Y-74189562D01*
X165895094Y-74189561D01*
X165890223Y-74187836D01*
X165885130Y-74186929D01*
X165885127Y-74186928D01*
X165675384Y-74149567D01*
X165675378Y-74149566D01*
X165670295Y-74148661D01*
X165596463Y-74147759D01*
X165452092Y-74145995D01*
X165452090Y-74145995D01*
X165446922Y-74145932D01*
X165226102Y-74179722D01*
X165013767Y-74249124D01*
X164815618Y-74352274D01*
X164811485Y-74355377D01*
X164811482Y-74355379D01*
X164644084Y-74481065D01*
X164636976Y-74486402D01*
X164482640Y-74647905D01*
X164356754Y-74832447D01*
X164262699Y-75035072D01*
X164203000Y-75250337D01*
X164179262Y-75472462D01*
X164179559Y-75477615D01*
X164179559Y-75477618D01*
X164189238Y-75645481D01*
X164192121Y-75695482D01*
X164193258Y-75700528D01*
X164193259Y-75700534D01*
X164211311Y-75780634D01*
X164241233Y-75913406D01*
X164325277Y-76120383D01*
X164327976Y-76124787D01*
X164415754Y-76268028D01*
X164441998Y-76310855D01*
X164588261Y-76479705D01*
X164760137Y-76622399D01*
X164830606Y-76663578D01*
X164833456Y-76665243D01*
X164882180Y-76716881D01*
X164895251Y-76786664D01*
X164868520Y-76852436D01*
X164828066Y-76885794D01*
X164815618Y-76892274D01*
X164811485Y-76895377D01*
X164811482Y-76895379D01*
X164641111Y-77023297D01*
X164636976Y-77026402D01*
X164482640Y-77187905D01*
X164356754Y-77372447D01*
X164262699Y-77575072D01*
X164203000Y-77790337D01*
X164179262Y-78012462D01*
X164179559Y-78017615D01*
X164179559Y-78017618D01*
X164185022Y-78112357D01*
X164192121Y-78235482D01*
X164193258Y-78240528D01*
X164193259Y-78240534D01*
X164202920Y-78283402D01*
X164241233Y-78453406D01*
X164325277Y-78660383D01*
X164441998Y-78850855D01*
X164588261Y-79019705D01*
X164760137Y-79162399D01*
X164803132Y-79187523D01*
X164833456Y-79205243D01*
X164882180Y-79256881D01*
X164895251Y-79326664D01*
X164868520Y-79392436D01*
X164828066Y-79425794D01*
X164815618Y-79432274D01*
X164811485Y-79435377D01*
X164811482Y-79435379D01*
X164756802Y-79476434D01*
X164636976Y-79566402D01*
X164633404Y-79570140D01*
X164512734Y-79696414D01*
X164482640Y-79727905D01*
X164479726Y-79732177D01*
X164479725Y-79732178D01*
X164413967Y-79828576D01*
X164356754Y-79912447D01*
X164262699Y-80115072D01*
X164203000Y-80330337D01*
X164179262Y-80552462D01*
X164179559Y-80557615D01*
X164179559Y-80557618D01*
X164185022Y-80652357D01*
X164192121Y-80775482D01*
X164193258Y-80780528D01*
X164193259Y-80780534D01*
X164213130Y-80868706D01*
X164241233Y-80993406D01*
X164325277Y-81200383D01*
X164441998Y-81390855D01*
X164588261Y-81559705D01*
X164760137Y-81702399D01*
X164830606Y-81743578D01*
X164833456Y-81745243D01*
X164882180Y-81796881D01*
X164895251Y-81866664D01*
X164868520Y-81932436D01*
X164828066Y-81965794D01*
X164815618Y-81972274D01*
X164811485Y-81975377D01*
X164811482Y-81975379D01*
X164787258Y-81993567D01*
X164636976Y-82106402D01*
X164482640Y-82267905D01*
X164479726Y-82272177D01*
X164479725Y-82272178D01*
X164467415Y-82290224D01*
X164356754Y-82452447D01*
X164262699Y-82655072D01*
X164203000Y-82870337D01*
X164179262Y-83092462D01*
X164179559Y-83097615D01*
X164179559Y-83097618D01*
X164185022Y-83192357D01*
X164192121Y-83315482D01*
X164193258Y-83320528D01*
X164193259Y-83320534D01*
X164206608Y-83379767D01*
X164241233Y-83533406D01*
X164325277Y-83740383D01*
X164327976Y-83744787D01*
X164400857Y-83863718D01*
X164441998Y-83930855D01*
X164588261Y-84099705D01*
X164760137Y-84242399D01*
X164801883Y-84266793D01*
X164833456Y-84285243D01*
X164882180Y-84336881D01*
X164895251Y-84406664D01*
X164868520Y-84472436D01*
X164828066Y-84505794D01*
X164815618Y-84512274D01*
X164811485Y-84515377D01*
X164811482Y-84515379D01*
X164641111Y-84643297D01*
X164636976Y-84646402D01*
X164482640Y-84807905D01*
X164479726Y-84812177D01*
X164479725Y-84812178D01*
X164418048Y-84902593D01*
X164356754Y-84992447D01*
X164325883Y-85058953D01*
X164267578Y-85184562D01*
X164262699Y-85195072D01*
X164203000Y-85410337D01*
X164179262Y-85632462D01*
X164179559Y-85637615D01*
X164179559Y-85637618D01*
X164191399Y-85842963D01*
X164192121Y-85855482D01*
X164193258Y-85860528D01*
X164193259Y-85860534D01*
X164211171Y-85940012D01*
X164241233Y-86073406D01*
X164325277Y-86280383D01*
X164332463Y-86292109D01*
X164423628Y-86440877D01*
X164441998Y-86470855D01*
X164588261Y-86639705D01*
X164760137Y-86782399D01*
X164826561Y-86821214D01*
X164833456Y-86825243D01*
X164882180Y-86876881D01*
X164895251Y-86946664D01*
X164868520Y-87012436D01*
X164828066Y-87045794D01*
X164815618Y-87052274D01*
X164811485Y-87055377D01*
X164811482Y-87055379D01*
X164641111Y-87183297D01*
X164636976Y-87186402D01*
X164482640Y-87347905D01*
X164356754Y-87532447D01*
X164341175Y-87566010D01*
X164268174Y-87723278D01*
X164262699Y-87735072D01*
X164203000Y-87950337D01*
X164179262Y-88172462D01*
X164179559Y-88177615D01*
X164179559Y-88177618D01*
X164187617Y-88317369D01*
X164192121Y-88395482D01*
X164193258Y-88400528D01*
X164193259Y-88400534D01*
X164213130Y-88488706D01*
X164241233Y-88613406D01*
X164325277Y-88820383D01*
X164441998Y-89010855D01*
X164588261Y-89179705D01*
X164760137Y-89322399D01*
X164781251Y-89334737D01*
X164833456Y-89365243D01*
X164882180Y-89416881D01*
X164895251Y-89486664D01*
X164868520Y-89552436D01*
X164828066Y-89585794D01*
X164815618Y-89592274D01*
X164811485Y-89595377D01*
X164811482Y-89595379D01*
X164641111Y-89723297D01*
X164636976Y-89726402D01*
X164482640Y-89887905D01*
X164356754Y-90072447D01*
X164262699Y-90275072D01*
X164203000Y-90490337D01*
X164179262Y-90712462D01*
X164179559Y-90717615D01*
X164179559Y-90717618D01*
X164185022Y-90812357D01*
X164192121Y-90935482D01*
X164193258Y-90940528D01*
X164193259Y-90940534D01*
X164197948Y-90961340D01*
X164241233Y-91153406D01*
X164325277Y-91360383D01*
X164441998Y-91550855D01*
X164588261Y-91719705D01*
X164760137Y-91862399D01*
X164830606Y-91903578D01*
X164833456Y-91905243D01*
X164882180Y-91956881D01*
X164895251Y-92026664D01*
X164868520Y-92092436D01*
X164828066Y-92125794D01*
X164815618Y-92132274D01*
X164811485Y-92135377D01*
X164811482Y-92135379D01*
X164688931Y-92227393D01*
X164636976Y-92266402D01*
X164482640Y-92427905D01*
X164479726Y-92432177D01*
X164479725Y-92432178D01*
X164467568Y-92450000D01*
X164356754Y-92612447D01*
X164262699Y-92815072D01*
X164203000Y-93030337D01*
X164179262Y-93252462D01*
X158435494Y-93252462D01*
X158534366Y-93111257D01*
X158537523Y-93106749D01*
X158539846Y-93101767D01*
X158539849Y-93101762D01*
X158631961Y-92904225D01*
X158631961Y-92904224D01*
X158634284Y-92899243D01*
X158693543Y-92678087D01*
X158713498Y-92450000D01*
X158693543Y-92221913D01*
X158674372Y-92150365D01*
X158635707Y-92006067D01*
X158635706Y-92006065D01*
X158634284Y-92000757D01*
X158631961Y-91995775D01*
X158539849Y-91798238D01*
X158539846Y-91798233D01*
X158537523Y-91793251D01*
X158422692Y-91629256D01*
X158409357Y-91610211D01*
X158409355Y-91610208D01*
X158406198Y-91605700D01*
X158244300Y-91443802D01*
X158239792Y-91440645D01*
X158239789Y-91440643D01*
X158180896Y-91399406D01*
X158136568Y-91343949D01*
X158129259Y-91273330D01*
X158161290Y-91209969D01*
X158172597Y-91199320D01*
X158182746Y-91190879D01*
X158182748Y-91190877D01*
X158187186Y-91187186D01*
X158317458Y-91030551D01*
X158417004Y-90852799D01*
X158418860Y-90847332D01*
X158418862Y-90847327D01*
X158480634Y-90665352D01*
X158480635Y-90665347D01*
X158482490Y-90659883D01*
X158511723Y-90458263D01*
X158513249Y-90400000D01*
X158494608Y-90197126D01*
X158469008Y-90106357D01*
X158440875Y-90006606D01*
X158440874Y-90006604D01*
X158439307Y-90001047D01*
X158428680Y-89979496D01*
X158351756Y-89823510D01*
X158349201Y-89818329D01*
X158330796Y-89793681D01*
X158230758Y-89659715D01*
X158230758Y-89659714D01*
X158227305Y-89655091D01*
X158077703Y-89516800D01*
X157948224Y-89435105D01*
X157910288Y-89411169D01*
X157910283Y-89411167D01*
X157905404Y-89408088D01*
X157716180Y-89332595D01*
X157516366Y-89292849D01*
X157510592Y-89292773D01*
X157510588Y-89292773D01*
X157407452Y-89291424D01*
X157312655Y-89290183D01*
X157306958Y-89291162D01*
X157306957Y-89291162D01*
X157144402Y-89319094D01*
X157111870Y-89324684D01*
X156920734Y-89395198D01*
X156915773Y-89398150D01*
X156915772Y-89398150D01*
X156782290Y-89477564D01*
X156745649Y-89499363D01*
X156592478Y-89633690D01*
X156588911Y-89638215D01*
X156588906Y-89638220D01*
X156516443Y-89730140D01*
X156466351Y-89793681D01*
X156371492Y-89973978D01*
X156311078Y-90168543D01*
X156287132Y-90370859D01*
X156300457Y-90574151D01*
X156350605Y-90771610D01*
X156435898Y-90956624D01*
X156553479Y-91122997D01*
X156557613Y-91127024D01*
X156637004Y-91204364D01*
X156671841Y-91266226D01*
X156667704Y-91337102D01*
X156621353Y-91397831D01*
X156560211Y-91440643D01*
X156560208Y-91440645D01*
X156555700Y-91443802D01*
X156393802Y-91605700D01*
X156390645Y-91610208D01*
X156390643Y-91610211D01*
X156377308Y-91629256D01*
X156262477Y-91793251D01*
X156260154Y-91798233D01*
X156260151Y-91798238D01*
X156168039Y-91995775D01*
X156165716Y-92000757D01*
X156164294Y-92006065D01*
X156164293Y-92006067D01*
X156125628Y-92150365D01*
X156106457Y-92221913D01*
X156086502Y-92450000D01*
X148256329Y-92450000D01*
X148109665Y-92288818D01*
X148105614Y-92285619D01*
X148105610Y-92285615D01*
X147938409Y-92153567D01*
X147938405Y-92153565D01*
X147934354Y-92150365D01*
X147893048Y-92127563D01*
X147843079Y-92077131D01*
X147828307Y-92007688D01*
X147853423Y-91941283D01*
X147880775Y-91914676D01*
X147924598Y-91883417D01*
X148059855Y-91786940D01*
X148218091Y-91629256D01*
X148277589Y-91546456D01*
X148345430Y-91452044D01*
X148348448Y-91447844D01*
X148372388Y-91399406D01*
X148445131Y-91252220D01*
X148445132Y-91252218D01*
X148447425Y-91247578D01*
X148512365Y-91033836D01*
X148541524Y-90812357D01*
X148541606Y-90809007D01*
X148543069Y-90749132D01*
X148543069Y-90749128D01*
X148543151Y-90745767D01*
X148524847Y-90523128D01*
X148470426Y-90306469D01*
X148381349Y-90101607D01*
X148298782Y-89973978D01*
X148262817Y-89918384D01*
X148262815Y-89918381D01*
X148260009Y-89914044D01*
X148109665Y-89748818D01*
X148105614Y-89745619D01*
X148105610Y-89745615D01*
X147938409Y-89613567D01*
X147938405Y-89613565D01*
X147934354Y-89610365D01*
X147893048Y-89587563D01*
X147843079Y-89537131D01*
X147828307Y-89467688D01*
X147853423Y-89401283D01*
X147880775Y-89374676D01*
X147948056Y-89326685D01*
X148059855Y-89246940D01*
X148218091Y-89089256D01*
X148277589Y-89006456D01*
X148345430Y-88912044D01*
X148348448Y-88907844D01*
X148447425Y-88707578D01*
X148512365Y-88493836D01*
X148541524Y-88272357D01*
X148542831Y-88218862D01*
X148543069Y-88209132D01*
X148543069Y-88209128D01*
X148543151Y-88205767D01*
X148524847Y-87983128D01*
X148470426Y-87766469D01*
X148381349Y-87561607D01*
X148311844Y-87454169D01*
X148262817Y-87378384D01*
X148262815Y-87378381D01*
X148260009Y-87374044D01*
X148109665Y-87208818D01*
X148105614Y-87205619D01*
X148105610Y-87205615D01*
X147938409Y-87073567D01*
X147938405Y-87073565D01*
X147934354Y-87070365D01*
X147893048Y-87047563D01*
X147843079Y-86997131D01*
X147828307Y-86927688D01*
X147853423Y-86861283D01*
X147880775Y-86834676D01*
X147935183Y-86795867D01*
X148059855Y-86706940D01*
X148218091Y-86549256D01*
X148277589Y-86466456D01*
X148345430Y-86372044D01*
X148348448Y-86367844D01*
X148372727Y-86318720D01*
X148445131Y-86172220D01*
X148445132Y-86172218D01*
X148447425Y-86167578D01*
X148499298Y-85996844D01*
X148510860Y-85958790D01*
X148510860Y-85958788D01*
X148512365Y-85953836D01*
X148541524Y-85732357D01*
X148543151Y-85665767D01*
X148524847Y-85443128D01*
X148470426Y-85226469D01*
X148381349Y-85021607D01*
X148307853Y-84908000D01*
X148262817Y-84838384D01*
X148262815Y-84838381D01*
X148260009Y-84834044D01*
X148109665Y-84668818D01*
X148105614Y-84665619D01*
X148105610Y-84665615D01*
X147938409Y-84533567D01*
X147938405Y-84533565D01*
X147934354Y-84530365D01*
X147892564Y-84507296D01*
X147842593Y-84456864D01*
X147827821Y-84387421D01*
X147852937Y-84321015D01*
X147880289Y-84294408D01*
X148055323Y-84169559D01*
X148063195Y-84162906D01*
X148214047Y-84012579D01*
X148220725Y-84004732D01*
X148344998Y-83831787D01*
X148350308Y-83822950D01*
X148444665Y-83632034D01*
X148448464Y-83622439D01*
X148510372Y-83418677D01*
X148512550Y-83408604D01*
X148513981Y-83397729D01*
X148511770Y-83383545D01*
X148498612Y-83379767D01*
X145863220Y-83379767D01*
X145849689Y-83383740D01*
X145848252Y-83393733D01*
X145878560Y-83528213D01*
X145881640Y-83538042D01*
X145961765Y-83735370D01*
X145966408Y-83744561D01*
X146077689Y-83926155D01*
X146083772Y-83934466D01*
X146223208Y-84095434D01*
X146230575Y-84102650D01*
X146394429Y-84238683D01*
X146402876Y-84244598D01*
X146471964Y-84284970D01*
X146520688Y-84336609D01*
X146533759Y-84406392D01*
X146507028Y-84472163D01*
X146466579Y-84505519D01*
X146453602Y-84512274D01*
X146449469Y-84515377D01*
X146449466Y-84515379D01*
X146279095Y-84643297D01*
X146274960Y-84646402D01*
X146120624Y-84807905D01*
X146117710Y-84812177D01*
X146117709Y-84812178D01*
X146056032Y-84902593D01*
X145994738Y-84992447D01*
X145963867Y-85058953D01*
X145905562Y-85184562D01*
X145900683Y-85195072D01*
X145840984Y-85410337D01*
X145817246Y-85632462D01*
X145817543Y-85637615D01*
X145817543Y-85637618D01*
X145829383Y-85842963D01*
X145830105Y-85855482D01*
X145831242Y-85860528D01*
X145831243Y-85860534D01*
X145849155Y-85940012D01*
X145879217Y-86073406D01*
X145963261Y-86280383D01*
X145970447Y-86292109D01*
X146061612Y-86440877D01*
X146079982Y-86470855D01*
X146226245Y-86639705D01*
X146398121Y-86782399D01*
X146464545Y-86821214D01*
X146471440Y-86825243D01*
X146520164Y-86876881D01*
X146533235Y-86946664D01*
X146506504Y-87012436D01*
X146466050Y-87045794D01*
X146453602Y-87052274D01*
X146449469Y-87055377D01*
X146449466Y-87055379D01*
X146279095Y-87183297D01*
X146274960Y-87186402D01*
X146120624Y-87347905D01*
X145994738Y-87532447D01*
X145979159Y-87566010D01*
X145906158Y-87723278D01*
X145900683Y-87735072D01*
X145840984Y-87950337D01*
X145817246Y-88172462D01*
X145817543Y-88177615D01*
X145817543Y-88177618D01*
X145825601Y-88317369D01*
X145830105Y-88395482D01*
X145831242Y-88400528D01*
X145831243Y-88400534D01*
X145851114Y-88488706D01*
X145879217Y-88613406D01*
X145963261Y-88820383D01*
X146079982Y-89010855D01*
X146226245Y-89179705D01*
X146398121Y-89322399D01*
X146419235Y-89334737D01*
X146471440Y-89365243D01*
X146520164Y-89416881D01*
X146533235Y-89486664D01*
X146506504Y-89552436D01*
X146466050Y-89585794D01*
X146453602Y-89592274D01*
X146449469Y-89595377D01*
X146449466Y-89595379D01*
X146279095Y-89723297D01*
X146274960Y-89726402D01*
X146120624Y-89887905D01*
X145994738Y-90072447D01*
X145900683Y-90275072D01*
X145840984Y-90490337D01*
X145817246Y-90712462D01*
X145817543Y-90717615D01*
X145817543Y-90717618D01*
X145823006Y-90812357D01*
X145830105Y-90935482D01*
X145831242Y-90940528D01*
X145831243Y-90940534D01*
X145835932Y-90961340D01*
X145879217Y-91153406D01*
X145963261Y-91360383D01*
X146079982Y-91550855D01*
X146226245Y-91719705D01*
X146398121Y-91862399D01*
X146468590Y-91903578D01*
X146471440Y-91905243D01*
X146520164Y-91956881D01*
X146533235Y-92026664D01*
X146506504Y-92092436D01*
X146466050Y-92125794D01*
X146453602Y-92132274D01*
X146449469Y-92135377D01*
X146449466Y-92135379D01*
X146326915Y-92227393D01*
X146274960Y-92266402D01*
X146120624Y-92427905D01*
X146117710Y-92432177D01*
X146117709Y-92432178D01*
X146105552Y-92450000D01*
X145994738Y-92612447D01*
X145900683Y-92815072D01*
X145840984Y-93030337D01*
X145817246Y-93252462D01*
X145330002Y-93252462D01*
X145330002Y-80552462D01*
X145817246Y-80552462D01*
X145817543Y-80557615D01*
X145817543Y-80557618D01*
X145823006Y-80652357D01*
X145830105Y-80775482D01*
X145831242Y-80780528D01*
X145831243Y-80780534D01*
X145851114Y-80868706D01*
X145879217Y-80993406D01*
X145963261Y-81200383D01*
X146079982Y-81390855D01*
X146226245Y-81559705D01*
X146398121Y-81702399D01*
X146471440Y-81745243D01*
X146471950Y-81745541D01*
X146520674Y-81797179D01*
X146533745Y-81866962D01*
X146507014Y-81932734D01*
X146466557Y-81966094D01*
X146458452Y-81970313D01*
X146449733Y-81975803D01*
X146279428Y-82103672D01*
X146271721Y-82110515D01*
X146124585Y-82264484D01*
X146118099Y-82272494D01*
X145998093Y-82448416D01*
X145992995Y-82457390D01*
X145903333Y-82650550D01*
X145899770Y-82660237D01*
X145844384Y-82859950D01*
X145845907Y-82868374D01*
X145858287Y-82871767D01*
X148498339Y-82871767D01*
X148511870Y-82867794D01*
X148513175Y-82858714D01*
X148471209Y-82691642D01*
X148467889Y-82681891D01*
X148382967Y-82486581D01*
X148378100Y-82477506D01*
X148262421Y-82298693D01*
X148256131Y-82290524D01*
X148112801Y-82133007D01*
X148105268Y-82125982D01*
X147938134Y-81993989D01*
X147929551Y-81988287D01*
X147892597Y-81967887D01*
X147842626Y-81917454D01*
X147827854Y-81848012D01*
X147852970Y-81781606D01*
X147880322Y-81754999D01*
X147942155Y-81710894D01*
X148047066Y-81636062D01*
X149778493Y-81636062D01*
X149787789Y-81648077D01*
X149838994Y-81683931D01*
X149848489Y-81689414D01*
X150045947Y-81781490D01*
X150056239Y-81785236D01*
X150266688Y-81841625D01*
X150277481Y-81843528D01*
X150494525Y-81862517D01*
X150505475Y-81862517D01*
X150722519Y-81843528D01*
X150733312Y-81841625D01*
X150943761Y-81785236D01*
X150954053Y-81781490D01*
X151151511Y-81689414D01*
X151161006Y-81683931D01*
X151213048Y-81647491D01*
X151221424Y-81637012D01*
X151214356Y-81623566D01*
X150512812Y-80922022D01*
X150498868Y-80914408D01*
X150497035Y-80914539D01*
X150490420Y-80918790D01*
X149784923Y-81624287D01*
X149778493Y-81636062D01*
X148047066Y-81636062D01*
X148059855Y-81626940D01*
X148067962Y-81618862D01*
X148214430Y-81472904D01*
X148218091Y-81469256D01*
X148230895Y-81451438D01*
X148345430Y-81292044D01*
X148348448Y-81287844D01*
X148360057Y-81264356D01*
X148445131Y-81092220D01*
X148445132Y-81092218D01*
X148447425Y-81087578D01*
X148498707Y-80918790D01*
X148510860Y-80878790D01*
X148510860Y-80878788D01*
X148512365Y-80873836D01*
X148541524Y-80652357D01*
X148543151Y-80585767D01*
X148540661Y-80555475D01*
X149187483Y-80555475D01*
X149206472Y-80772519D01*
X149208375Y-80783312D01*
X149264764Y-80993761D01*
X149268510Y-81004053D01*
X149360586Y-81201511D01*
X149366069Y-81211006D01*
X149402509Y-81263048D01*
X149412988Y-81271424D01*
X149426434Y-81264356D01*
X150127978Y-80562812D01*
X150134356Y-80551132D01*
X150864408Y-80551132D01*
X150864539Y-80552965D01*
X150868790Y-80559580D01*
X151574287Y-81265077D01*
X151586062Y-81271507D01*
X151598077Y-81262211D01*
X151633931Y-81211006D01*
X151639414Y-81201511D01*
X151731490Y-81004053D01*
X151735236Y-80993761D01*
X151791625Y-80783312D01*
X151793528Y-80772519D01*
X151812517Y-80555475D01*
X151812517Y-80544525D01*
X151793528Y-80327481D01*
X151791625Y-80316688D01*
X151735236Y-80106239D01*
X151731490Y-80095947D01*
X151639414Y-79898489D01*
X151633931Y-79888994D01*
X151597491Y-79836952D01*
X151587012Y-79828576D01*
X151573566Y-79835644D01*
X150872022Y-80537188D01*
X150864408Y-80551132D01*
X150134356Y-80551132D01*
X150135592Y-80548868D01*
X150135461Y-80547035D01*
X150131210Y-80540420D01*
X149425713Y-79834923D01*
X149413938Y-79828493D01*
X149401923Y-79837789D01*
X149366069Y-79888994D01*
X149360586Y-79898489D01*
X149268510Y-80095947D01*
X149264764Y-80106239D01*
X149208375Y-80316688D01*
X149206472Y-80327481D01*
X149187483Y-80544525D01*
X149187483Y-80555475D01*
X148540661Y-80555475D01*
X148524847Y-80363128D01*
X148470426Y-80146469D01*
X148381349Y-79941607D01*
X148313645Y-79836952D01*
X148262817Y-79758384D01*
X148262815Y-79758381D01*
X148260009Y-79754044D01*
X148109665Y-79588818D01*
X148105614Y-79585619D01*
X148105610Y-79585615D01*
X147938409Y-79453567D01*
X147938405Y-79453565D01*
X147934354Y-79450365D01*
X147893048Y-79427563D01*
X147843079Y-79377131D01*
X147828307Y-79307688D01*
X147853423Y-79241283D01*
X147880775Y-79214676D01*
X147924598Y-79183417D01*
X148059855Y-79086940D01*
X148218091Y-78929256D01*
X148277589Y-78846456D01*
X148345430Y-78752044D01*
X148348448Y-78747844D01*
X148366531Y-78711257D01*
X148445131Y-78552220D01*
X148445132Y-78552218D01*
X148447425Y-78547578D01*
X148512365Y-78333836D01*
X148541524Y-78112357D01*
X148543048Y-78050000D01*
X149186502Y-78050000D01*
X149206457Y-78278087D01*
X149207881Y-78283400D01*
X149207881Y-78283402D01*
X149252083Y-78448363D01*
X149265716Y-78499243D01*
X149268039Y-78504224D01*
X149268039Y-78504225D01*
X149360151Y-78701762D01*
X149360154Y-78701767D01*
X149362477Y-78706749D01*
X149365634Y-78711257D01*
X149466114Y-78854757D01*
X149493802Y-78894300D01*
X149655700Y-79056198D01*
X149660208Y-79059355D01*
X149660211Y-79059357D01*
X149763876Y-79131944D01*
X149843251Y-79187523D01*
X149848235Y-79189847D01*
X149850528Y-79191171D01*
X149899521Y-79242553D01*
X149912957Y-79312267D01*
X149886571Y-79378178D01*
X149850528Y-79409409D01*
X149838998Y-79416066D01*
X149786952Y-79452509D01*
X149778576Y-79462988D01*
X149785644Y-79476434D01*
X150487188Y-80177978D01*
X150501132Y-80185592D01*
X150502965Y-80185461D01*
X150509580Y-80181210D01*
X151215077Y-79475713D01*
X151221507Y-79463938D01*
X151212211Y-79451923D01*
X151161002Y-79416066D01*
X151149472Y-79409409D01*
X151100479Y-79358027D01*
X151087042Y-79288313D01*
X151113429Y-79222402D01*
X151149472Y-79191171D01*
X151151765Y-79189847D01*
X151156749Y-79187523D01*
X151236124Y-79131944D01*
X151339789Y-79059357D01*
X151339792Y-79059355D01*
X151344300Y-79056198D01*
X151506198Y-78894300D01*
X151533887Y-78854757D01*
X151634366Y-78711257D01*
X151637523Y-78706749D01*
X151639846Y-78701767D01*
X151639849Y-78701762D01*
X151731961Y-78504225D01*
X151731961Y-78504224D01*
X151734284Y-78499243D01*
X151747918Y-78448363D01*
X151792119Y-78283402D01*
X151792119Y-78283400D01*
X151793543Y-78278087D01*
X151813498Y-78050000D01*
X151793543Y-77821913D01*
X151734284Y-77600757D01*
X151720118Y-77570377D01*
X151639849Y-77398238D01*
X151639846Y-77398233D01*
X151637523Y-77393251D01*
X151564098Y-77288389D01*
X151509357Y-77210211D01*
X151509355Y-77210208D01*
X151506198Y-77205700D01*
X151344300Y-77043802D01*
X151324789Y-77030140D01*
X151316228Y-77024145D01*
X151271900Y-76968688D01*
X151262500Y-76920933D01*
X151262500Y-76268028D01*
X151282502Y-76199907D01*
X151299405Y-76178933D01*
X152604029Y-74874309D01*
X152666341Y-74840283D01*
X152737156Y-74845348D01*
X152793992Y-74887895D01*
X152815247Y-74932388D01*
X152850605Y-75071610D01*
X152935898Y-75256624D01*
X153053479Y-75422997D01*
X153199410Y-75565157D01*
X153204206Y-75568362D01*
X153204209Y-75568364D01*
X153300052Y-75632404D01*
X153368803Y-75678342D01*
X153374106Y-75680620D01*
X153374109Y-75680622D01*
X153550680Y-75756483D01*
X153555987Y-75758763D01*
X153628817Y-75775243D01*
X153749055Y-75802450D01*
X153749060Y-75802451D01*
X153754692Y-75803725D01*
X153760463Y-75803952D01*
X153760465Y-75803952D01*
X153823470Y-75806427D01*
X153958263Y-75811723D01*
X154159883Y-75782490D01*
X154165347Y-75780635D01*
X154165352Y-75780634D01*
X154347327Y-75718862D01*
X154347332Y-75718860D01*
X154352799Y-75717004D01*
X154530551Y-75617458D01*
X154687186Y-75487186D01*
X154737222Y-75427024D01*
X154777221Y-75378931D01*
X154836159Y-75339347D01*
X154874095Y-75333500D01*
X156921233Y-75333500D01*
X156932416Y-75334027D01*
X156939909Y-75335702D01*
X156947835Y-75335453D01*
X156947836Y-75335453D01*
X157007986Y-75333562D01*
X157011945Y-75333500D01*
X157039856Y-75333500D01*
X157043791Y-75333003D01*
X157043856Y-75332995D01*
X157055693Y-75332062D01*
X157087951Y-75331048D01*
X157091970Y-75330922D01*
X157099889Y-75330673D01*
X157119343Y-75325021D01*
X157138700Y-75321013D01*
X157150930Y-75319468D01*
X157150931Y-75319468D01*
X157158797Y-75318474D01*
X157166168Y-75315555D01*
X157166170Y-75315555D01*
X157199912Y-75302196D01*
X157211142Y-75298351D01*
X157245983Y-75288229D01*
X157245984Y-75288229D01*
X157253593Y-75286018D01*
X157260412Y-75281985D01*
X157260417Y-75281983D01*
X157271028Y-75275707D01*
X157288776Y-75267012D01*
X157307617Y-75259552D01*
X157318867Y-75251379D01*
X157343387Y-75233564D01*
X157353307Y-75227048D01*
X157384535Y-75208580D01*
X157384538Y-75208578D01*
X157391362Y-75204542D01*
X157405683Y-75190221D01*
X157420717Y-75177380D01*
X157430693Y-75170132D01*
X157437107Y-75165472D01*
X157465288Y-75131407D01*
X157473278Y-75122626D01*
X158047188Y-74548717D01*
X158065458Y-74533603D01*
X158065713Y-74533430D01*
X158065718Y-74533425D01*
X158072271Y-74528972D01*
X158086673Y-74512637D01*
X158109421Y-74486834D01*
X158114840Y-74481065D01*
X158126135Y-74469770D01*
X158135938Y-74457131D01*
X158140963Y-74451056D01*
X158178121Y-74408910D01*
X158181866Y-74401561D01*
X158194566Y-74381549D01*
X158194758Y-74381302D01*
X158194759Y-74381301D01*
X158199614Y-74375041D01*
X158221923Y-74323488D01*
X158225271Y-74316372D01*
X158250786Y-74266296D01*
X158252585Y-74258248D01*
X158259909Y-74235707D01*
X158263181Y-74228145D01*
X158270596Y-74181329D01*
X158271967Y-74172674D01*
X158273450Y-74164901D01*
X158275882Y-74154022D01*
X158285702Y-74110091D01*
X158285443Y-74101857D01*
X158286933Y-74078186D01*
X158286980Y-74077890D01*
X158286980Y-74077885D01*
X158288220Y-74070057D01*
X158285993Y-74046498D01*
X158282936Y-74014153D01*
X158282439Y-74006255D01*
X158281393Y-73972985D01*
X158280674Y-73950111D01*
X158278376Y-73942202D01*
X158273932Y-73918904D01*
X158273903Y-73918601D01*
X158273157Y-73910708D01*
X158270471Y-73903247D01*
X158268743Y-73895517D01*
X158269842Y-73895271D01*
X158264503Y-73864681D01*
X158264503Y-71607067D01*
X158284505Y-71538946D01*
X158338161Y-71492453D01*
X158390503Y-71481067D01*
X158529137Y-71481067D01*
X158591319Y-71474312D01*
X158727708Y-71423182D01*
X158844264Y-71335828D01*
X158931618Y-71219272D01*
X158982748Y-71082883D01*
X158989503Y-71020701D01*
X158989503Y-69224433D01*
X158982748Y-69162251D01*
X158931618Y-69025862D01*
X158844264Y-68909306D01*
X158727708Y-68821952D01*
X158659874Y-68796522D01*
X158609206Y-68777527D01*
X158552442Y-68734885D01*
X158527742Y-68668323D01*
X158542950Y-68598975D01*
X158564496Y-68570294D01*
X158665438Y-68469704D01*
X158669099Y-68466056D01*
X158799456Y-68284644D01*
X158801749Y-68280004D01*
X158803449Y-68277175D01*
X158855677Y-68229085D01*
X158911454Y-68216067D01*
X159067973Y-68216067D01*
X159136094Y-68236069D01*
X159157068Y-68252972D01*
X159429595Y-68525499D01*
X159463621Y-68587811D01*
X159466500Y-68614594D01*
X159466500Y-79585561D01*
X159446498Y-79653682D01*
X159404922Y-79693846D01*
X159395649Y-79699363D01*
X159242478Y-79833690D01*
X159238911Y-79838215D01*
X159238906Y-79838220D01*
X159160831Y-79937259D01*
X159116351Y-79993681D01*
X159021492Y-80173978D01*
X158961078Y-80368543D01*
X158937132Y-80570859D01*
X158950457Y-80774151D01*
X159000605Y-80971610D01*
X159085898Y-81156624D01*
X159203479Y-81322997D01*
X159207613Y-81327024D01*
X159306399Y-81423257D01*
X159349410Y-81465157D01*
X159354206Y-81468362D01*
X159354209Y-81468364D01*
X159422155Y-81513764D01*
X159518803Y-81578342D01*
X159524106Y-81580620D01*
X159524109Y-81580622D01*
X159624064Y-81623566D01*
X159705987Y-81658763D01*
X159778817Y-81675243D01*
X159899055Y-81702450D01*
X159899060Y-81702451D01*
X159904692Y-81703725D01*
X159910463Y-81703952D01*
X159910465Y-81703952D01*
X159973470Y-81706427D01*
X160108263Y-81711723D01*
X160309883Y-81682490D01*
X160315347Y-81680635D01*
X160315352Y-81680634D01*
X160497327Y-81618862D01*
X160497332Y-81618860D01*
X160502799Y-81617004D01*
X160680551Y-81517458D01*
X160759933Y-81451437D01*
X160825095Y-81423257D01*
X160895150Y-81434780D01*
X160947854Y-81482349D01*
X160966500Y-81548312D01*
X160966500Y-84673988D01*
X160946498Y-84742109D01*
X160923579Y-84768718D01*
X160792478Y-84883690D01*
X160788911Y-84888215D01*
X160788906Y-84888220D01*
X160733046Y-84959079D01*
X160666351Y-85043681D01*
X160663662Y-85048792D01*
X160663660Y-85048795D01*
X160658316Y-85058953D01*
X160571492Y-85223978D01*
X160511078Y-85418543D01*
X160497036Y-85537186D01*
X160496738Y-85539700D01*
X160468867Y-85604997D01*
X160410119Y-85644861D01*
X160339145Y-85646635D01*
X160329550Y-85643662D01*
X160305909Y-85635290D01*
X160305904Y-85635289D01*
X160301028Y-85633562D01*
X160295935Y-85632655D01*
X160295932Y-85632654D01*
X160078095Y-85593851D01*
X160078089Y-85593850D01*
X160073006Y-85592945D01*
X160000096Y-85592054D01*
X159846581Y-85590179D01*
X159846579Y-85590179D01*
X159841411Y-85590116D01*
X159612464Y-85625150D01*
X159392314Y-85697106D01*
X159387726Y-85699494D01*
X159387722Y-85699496D01*
X159191461Y-85801663D01*
X159186872Y-85804052D01*
X159182739Y-85807155D01*
X159182736Y-85807157D01*
X159049196Y-85907422D01*
X159001655Y-85943117D01*
X158991412Y-85953836D01*
X158984170Y-85961414D01*
X158922646Y-85996844D01*
X158851733Y-85993387D01*
X158793947Y-85952141D01*
X158775094Y-85918592D01*
X158753768Y-85861705D01*
X158753767Y-85861704D01*
X158750615Y-85853295D01*
X158663261Y-85736739D01*
X158546705Y-85649385D01*
X158410316Y-85598255D01*
X158348134Y-85591500D01*
X157260689Y-85591500D01*
X157192568Y-85571498D01*
X157146075Y-85517842D01*
X157135971Y-85447568D01*
X157161395Y-85390376D01*
X157160491Y-85389754D01*
X157163759Y-85384998D01*
X157167458Y-85380551D01*
X157250938Y-85231487D01*
X157264180Y-85207842D01*
X157264181Y-85207840D01*
X157267004Y-85202799D01*
X157268860Y-85197332D01*
X157268862Y-85197327D01*
X157330634Y-85015352D01*
X157330635Y-85015347D01*
X157332490Y-85009883D01*
X157361723Y-84808263D01*
X157363249Y-84750000D01*
X157344608Y-84547126D01*
X157339881Y-84530365D01*
X157290875Y-84356606D01*
X157290874Y-84356604D01*
X157289307Y-84351047D01*
X157283723Y-84339722D01*
X157201756Y-84173510D01*
X157199201Y-84168329D01*
X157195152Y-84162906D01*
X157080758Y-84009715D01*
X157080758Y-84009714D01*
X157077305Y-84005091D01*
X156927703Y-83866800D01*
X156872618Y-83832044D01*
X156760288Y-83761169D01*
X156760283Y-83761167D01*
X156755404Y-83758088D01*
X156566180Y-83682595D01*
X156366366Y-83642849D01*
X156360592Y-83642773D01*
X156360588Y-83642773D01*
X156257452Y-83641424D01*
X156162655Y-83640183D01*
X156156958Y-83641162D01*
X156156957Y-83641162D01*
X155967567Y-83673705D01*
X155961870Y-83674684D01*
X155770734Y-83745198D01*
X155765773Y-83748150D01*
X155765772Y-83748150D01*
X155624760Y-83832044D01*
X155595649Y-83849363D01*
X155442478Y-83983690D01*
X155438906Y-83988221D01*
X155375614Y-84068506D01*
X155317732Y-84109619D01*
X155276664Y-84116500D01*
X154628767Y-84116500D01*
X154617584Y-84115973D01*
X154610091Y-84114298D01*
X154602165Y-84114547D01*
X154602164Y-84114547D01*
X154542001Y-84116438D01*
X154538043Y-84116500D01*
X154510144Y-84116500D01*
X154506154Y-84117004D01*
X154494320Y-84117936D01*
X154450111Y-84119326D01*
X154442497Y-84121538D01*
X154442492Y-84121539D01*
X154430659Y-84124977D01*
X154411296Y-84128988D01*
X154391203Y-84131526D01*
X154383836Y-84134443D01*
X154383831Y-84134444D01*
X154350092Y-84147802D01*
X154338865Y-84151646D01*
X154296407Y-84163982D01*
X154289581Y-84168019D01*
X154278972Y-84174293D01*
X154261224Y-84182988D01*
X154242383Y-84190448D01*
X154235967Y-84195110D01*
X154235966Y-84195110D01*
X154206613Y-84216436D01*
X154196693Y-84222952D01*
X154165465Y-84241420D01*
X154165462Y-84241422D01*
X154158638Y-84245458D01*
X154144317Y-84259779D01*
X154129284Y-84272619D01*
X154112893Y-84284528D01*
X154095186Y-84305932D01*
X154084712Y-84318593D01*
X154076722Y-84327374D01*
X153507742Y-84896353D01*
X153499463Y-84903887D01*
X153492982Y-84908000D01*
X153446357Y-84957651D01*
X153443602Y-84960493D01*
X153423865Y-84980230D01*
X153421385Y-84983427D01*
X153413682Y-84992447D01*
X153383414Y-85024679D01*
X153379595Y-85031625D01*
X153379593Y-85031628D01*
X153373652Y-85042434D01*
X153362801Y-85058953D01*
X153350386Y-85074959D01*
X153347241Y-85082228D01*
X153347238Y-85082232D01*
X153332826Y-85115537D01*
X153327609Y-85126187D01*
X153306305Y-85164940D01*
X153304334Y-85172615D01*
X153304334Y-85172616D01*
X153301267Y-85184562D01*
X153294863Y-85203266D01*
X153286819Y-85221855D01*
X153285580Y-85229678D01*
X153285577Y-85229688D01*
X153279901Y-85265524D01*
X153277495Y-85277144D01*
X153266500Y-85319970D01*
X153266500Y-85340224D01*
X153264949Y-85359934D01*
X153261780Y-85379943D01*
X153262526Y-85387835D01*
X153265941Y-85423961D01*
X153266500Y-85435819D01*
X153266500Y-86223988D01*
X153246498Y-86292109D01*
X153223579Y-86318718D01*
X153092478Y-86433690D01*
X153088911Y-86438215D01*
X153088906Y-86438220D01*
X153066647Y-86466456D01*
X152966351Y-86593681D01*
X152963662Y-86598792D01*
X152963660Y-86598795D01*
X152940399Y-86643007D01*
X152871492Y-86773978D01*
X152811078Y-86968543D01*
X152787132Y-87170859D01*
X152800457Y-87374151D01*
X152850605Y-87571610D01*
X152935898Y-87756624D01*
X153053479Y-87922997D01*
X153110053Y-87978109D01*
X153150710Y-88017715D01*
X153199410Y-88065157D01*
X153204206Y-88068362D01*
X153204209Y-88068364D01*
X153321455Y-88146705D01*
X153368803Y-88178342D01*
X153374106Y-88180620D01*
X153374109Y-88180622D01*
X153550680Y-88256483D01*
X153555987Y-88258763D01*
X153625906Y-88274584D01*
X153749055Y-88302450D01*
X153749060Y-88302451D01*
X153754692Y-88303725D01*
X153760463Y-88303952D01*
X153760465Y-88303952D01*
X153823470Y-88306427D01*
X153958263Y-88311723D01*
X154159883Y-88282490D01*
X154165347Y-88280635D01*
X154165352Y-88280634D01*
X154347327Y-88218862D01*
X154347332Y-88218860D01*
X154352799Y-88217004D01*
X154363533Y-88210993D01*
X154441500Y-88167329D01*
X154530551Y-88117458D01*
X154687186Y-87987186D01*
X154817458Y-87830551D01*
X154917004Y-87652799D01*
X154918860Y-87647332D01*
X154918862Y-87647327D01*
X154980634Y-87465352D01*
X154980635Y-87465347D01*
X154982490Y-87459883D01*
X155011723Y-87258263D01*
X155013249Y-87200000D01*
X154999456Y-87049885D01*
X154995137Y-87002880D01*
X154995136Y-87002877D01*
X154994608Y-86997126D01*
X154984991Y-86963026D01*
X154940875Y-86806606D01*
X154940874Y-86806604D01*
X154939307Y-86801047D01*
X154928680Y-86779496D01*
X154851756Y-86623510D01*
X154849201Y-86618329D01*
X154830796Y-86593681D01*
X154730758Y-86459715D01*
X154730758Y-86459714D01*
X154727305Y-86455091D01*
X154577703Y-86316800D01*
X154578681Y-86315742D01*
X154540926Y-86264029D01*
X154533500Y-86221411D01*
X154533500Y-85714595D01*
X154553502Y-85646474D01*
X154570405Y-85625499D01*
X154775501Y-85420404D01*
X154837813Y-85386379D01*
X154864596Y-85383500D01*
X155274986Y-85383500D01*
X155343107Y-85403502D01*
X155377882Y-85436779D01*
X155400145Y-85468280D01*
X155403479Y-85472997D01*
X155407613Y-85477024D01*
X155524509Y-85590899D01*
X155549410Y-85615157D01*
X155554206Y-85618362D01*
X155554209Y-85618364D01*
X155608696Y-85654771D01*
X155718803Y-85728342D01*
X155724106Y-85730620D01*
X155724109Y-85730622D01*
X155738347Y-85736739D01*
X155905987Y-85808763D01*
X155912693Y-85810280D01*
X155913147Y-85810533D01*
X155917113Y-85811822D01*
X155916860Y-85812601D01*
X155974717Y-85844827D01*
X156008218Y-85907422D01*
X156002860Y-85977399D01*
X156001029Y-85982283D01*
X156001028Y-85982287D01*
X155998255Y-85989684D01*
X155991500Y-86051866D01*
X155991500Y-87948134D01*
X155998255Y-88010316D01*
X156049385Y-88146705D01*
X156136739Y-88263261D01*
X156253295Y-88350615D01*
X156389684Y-88401745D01*
X156451866Y-88408500D01*
X158348134Y-88408500D01*
X158410316Y-88401745D01*
X158546705Y-88350615D01*
X158663261Y-88263261D01*
X158750615Y-88146705D01*
X158775180Y-88081178D01*
X158817822Y-88024414D01*
X158884383Y-87999714D01*
X158953732Y-88014921D01*
X158973647Y-88028464D01*
X159038724Y-88082492D01*
X159129349Y-88157730D01*
X159329322Y-88274584D01*
X159334147Y-88276426D01*
X159334148Y-88276427D01*
X159352194Y-88283318D01*
X159545694Y-88357209D01*
X159550760Y-88358240D01*
X159550761Y-88358240D01*
X159603846Y-88369040D01*
X159772656Y-88403385D01*
X159902089Y-88408131D01*
X159998949Y-88411683D01*
X159998953Y-88411683D01*
X160004113Y-88411872D01*
X160009233Y-88411216D01*
X160009235Y-88411216D01*
X160092619Y-88400534D01*
X160233847Y-88382442D01*
X160238795Y-88380957D01*
X160238802Y-88380956D01*
X160450747Y-88317369D01*
X160455690Y-88315886D01*
X160465880Y-88310894D01*
X160659049Y-88216262D01*
X160659052Y-88216260D01*
X160663684Y-88213991D01*
X160852243Y-88079494D01*
X161016303Y-87916005D01*
X161151458Y-87727917D01*
X161188584Y-87652799D01*
X161251784Y-87524922D01*
X161251785Y-87524920D01*
X161254078Y-87520280D01*
X161321408Y-87298671D01*
X161351640Y-87069041D01*
X161353327Y-87000000D01*
X161344345Y-86890745D01*
X161358698Y-86821214D01*
X161408364Y-86770481D01*
X161474867Y-86754518D01*
X161564927Y-86758056D01*
X161658263Y-86761723D01*
X161859883Y-86732490D01*
X161865347Y-86730635D01*
X161865352Y-86730634D01*
X162047327Y-86668862D01*
X162047332Y-86668860D01*
X162052799Y-86667004D01*
X162230551Y-86567458D01*
X162387186Y-86437186D01*
X162517458Y-86280551D01*
X162585449Y-86159144D01*
X162614180Y-86107842D01*
X162614181Y-86107840D01*
X162617004Y-86102799D01*
X162618860Y-86097332D01*
X162618862Y-86097327D01*
X162680634Y-85915352D01*
X162680635Y-85915347D01*
X162682490Y-85909883D01*
X162711723Y-85708263D01*
X162713249Y-85650000D01*
X162694608Y-85447126D01*
X162688075Y-85423961D01*
X162640875Y-85256606D01*
X162640874Y-85256604D01*
X162639307Y-85251047D01*
X162629662Y-85231487D01*
X162551756Y-85073510D01*
X162549201Y-85068329D01*
X162530796Y-85043681D01*
X162430758Y-84909715D01*
X162430758Y-84909714D01*
X162427305Y-84905091D01*
X162277703Y-84766800D01*
X162278681Y-84765742D01*
X162240926Y-84714029D01*
X162233500Y-84671411D01*
X162233500Y-67030044D01*
X162253502Y-66961923D01*
X162307158Y-66915430D01*
X162377432Y-66905326D01*
X162440322Y-66933381D01*
X162598911Y-67065981D01*
X162607749Y-67073371D01*
X162851288Y-67226144D01*
X163113308Y-67344450D01*
X163182553Y-67364961D01*
X163384847Y-67424884D01*
X163384852Y-67424885D01*
X163388960Y-67426102D01*
X163393194Y-67426750D01*
X163393199Y-67426751D01*
X163641801Y-67464792D01*
X163673143Y-67469588D01*
X163819475Y-67471887D01*
X163956307Y-67474037D01*
X163956313Y-67474037D01*
X163960598Y-67474104D01*
X163964850Y-67473589D01*
X163964858Y-67473589D01*
X164241746Y-67440081D01*
X164241751Y-67440080D01*
X164246007Y-67439565D01*
X164342592Y-67414226D01*
X164519944Y-67367699D01*
X164519945Y-67367699D01*
X164524087Y-67366612D01*
X164789694Y-67256594D01*
X165010470Y-67127583D01*
X165034209Y-67113711D01*
X165034210Y-67113710D01*
X165037912Y-67111547D01*
X165264149Y-66934155D01*
X165270467Y-66927636D01*
X165461234Y-66730779D01*
X165464217Y-66727701D01*
X165466750Y-66724253D01*
X165466754Y-66724248D01*
X165631877Y-66499459D01*
X165634415Y-66496004D01*
X165659194Y-66450367D01*
X165769544Y-66247128D01*
X165769545Y-66247126D01*
X165771594Y-66243352D01*
X165858789Y-66012598D01*
X165871697Y-65978439D01*
X165871698Y-65978435D01*
X165873215Y-65974421D01*
X165904771Y-65836641D01*
X165936439Y-65698370D01*
X165936440Y-65698366D01*
X165937397Y-65694186D01*
X165937853Y-65689085D01*
X165962733Y-65410299D01*
X165962733Y-65410297D01*
X165962953Y-65407833D01*
X165963417Y-65363573D01*
X165960276Y-65317499D01*
X165944155Y-65081025D01*
X165944154Y-65081019D01*
X165943863Y-65076748D01*
X165939326Y-65054837D01*
X165886433Y-64799428D01*
X165885564Y-64795231D01*
X165789597Y-64524230D01*
X165694886Y-64340731D01*
X165659705Y-64272568D01*
X165659705Y-64272567D01*
X165657740Y-64268761D01*
X165644478Y-64249890D01*
X165575086Y-64151156D01*
X165492431Y-64033550D01*
X165361061Y-63892179D01*
X165299651Y-63826094D01*
X165299648Y-63826092D01*
X165296730Y-63822951D01*
X165074258Y-63640860D01*
X164829132Y-63490646D01*
X164811038Y-63482703D01*
X164569820Y-63376816D01*
X164565888Y-63375090D01*
X164539953Y-63367702D01*
X164293524Y-63297505D01*
X164293525Y-63297505D01*
X164289396Y-63296329D01*
X164076694Y-63266058D01*
X164009026Y-63256427D01*
X164009024Y-63256427D01*
X164004774Y-63255822D01*
X164000485Y-63255800D01*
X164000478Y-63255799D01*
X163721573Y-63254338D01*
X163721566Y-63254338D01*
X163717287Y-63254316D01*
X163713043Y-63254875D01*
X163713039Y-63254875D01*
X163587650Y-63271383D01*
X163432256Y-63291841D01*
X163428116Y-63292974D01*
X163428114Y-63292974D01*
X163351301Y-63313988D01*
X163154954Y-63367702D01*
X163151006Y-63369386D01*
X162894466Y-63478810D01*
X162894462Y-63478812D01*
X162890514Y-63480496D01*
X162765950Y-63555046D01*
X162647511Y-63625930D01*
X162647507Y-63625933D01*
X162643829Y-63628134D01*
X162419462Y-63807886D01*
X162221567Y-64016424D01*
X162200589Y-64045618D01*
X162081862Y-64210844D01*
X162053804Y-64249890D01*
X161919278Y-64503965D01*
X161820479Y-64773946D01*
X161759235Y-65054837D01*
X161736679Y-65341442D01*
X161753228Y-65628456D01*
X161754055Y-65632669D01*
X161754592Y-65636924D01*
X161753427Y-65637071D01*
X161747397Y-65702596D01*
X161703702Y-65758553D01*
X161636690Y-65782004D01*
X161567638Y-65765503D01*
X161541168Y-65745263D01*
X160446219Y-64650314D01*
X160438679Y-64642028D01*
X160434567Y-64635549D01*
X160384915Y-64588923D01*
X160382074Y-64586169D01*
X160362337Y-64566432D01*
X160359140Y-64563952D01*
X160350118Y-64556247D01*
X160317888Y-64525981D01*
X160310942Y-64522162D01*
X160310939Y-64522160D01*
X160300133Y-64516219D01*
X160283614Y-64505368D01*
X160276910Y-64500168D01*
X160267608Y-64492953D01*
X160260339Y-64489808D01*
X160260335Y-64489805D01*
X160227030Y-64475393D01*
X160216380Y-64470176D01*
X160177627Y-64448872D01*
X160158004Y-64443834D01*
X160139301Y-64437430D01*
X160127987Y-64432534D01*
X160127986Y-64432534D01*
X160120712Y-64429386D01*
X160112889Y-64428147D01*
X160112879Y-64428144D01*
X160077043Y-64422468D01*
X160065423Y-64420062D01*
X160030278Y-64411039D01*
X160030277Y-64411039D01*
X160022597Y-64409067D01*
X160002343Y-64409067D01*
X159982632Y-64407516D01*
X159970453Y-64405587D01*
X159962624Y-64404347D01*
X159954732Y-64405093D01*
X159918606Y-64408508D01*
X159906748Y-64409067D01*
X158907808Y-64409067D01*
X158839687Y-64389065D01*
X158802016Y-64351507D01*
X158713825Y-64215184D01*
X158713823Y-64215181D01*
X158711017Y-64210844D01*
X158560673Y-64045618D01*
X158556622Y-64042419D01*
X158556618Y-64042415D01*
X158389417Y-63910367D01*
X158389413Y-63910365D01*
X158385362Y-63907165D01*
X158189792Y-63799205D01*
X158184923Y-63797481D01*
X158184919Y-63797479D01*
X157984090Y-63726362D01*
X157984086Y-63726361D01*
X157979215Y-63724636D01*
X157974122Y-63723729D01*
X157974119Y-63723728D01*
X157764376Y-63686367D01*
X157764370Y-63686366D01*
X157759287Y-63685461D01*
X157685455Y-63684559D01*
X157541084Y-63682795D01*
X157541082Y-63682795D01*
X157535914Y-63682732D01*
X157315094Y-63716522D01*
X157102759Y-63785924D01*
X156904610Y-63889074D01*
X156900477Y-63892177D01*
X156900474Y-63892179D01*
X156734995Y-64016424D01*
X156725968Y-64023202D01*
X156571632Y-64184705D01*
X156464204Y-64342188D01*
X156409296Y-64387188D01*
X156338771Y-64395359D01*
X156275024Y-64364105D01*
X156254327Y-64339621D01*
X156173825Y-64215184D01*
X156173823Y-64215181D01*
X156171017Y-64210844D01*
X156020673Y-64045618D01*
X156016622Y-64042419D01*
X156016618Y-64042415D01*
X155849417Y-63910367D01*
X155849413Y-63910365D01*
X155845362Y-63907165D01*
X155649792Y-63799205D01*
X155644923Y-63797481D01*
X155644919Y-63797479D01*
X155444090Y-63726362D01*
X155444086Y-63726361D01*
X155439215Y-63724636D01*
X155434122Y-63723729D01*
X155434119Y-63723728D01*
X155224376Y-63686367D01*
X155224370Y-63686366D01*
X155219287Y-63685461D01*
X155145455Y-63684559D01*
X155001084Y-63682795D01*
X155001082Y-63682795D01*
X154995914Y-63682732D01*
X154775094Y-63716522D01*
X154562759Y-63785924D01*
X154364610Y-63889074D01*
X154360477Y-63892177D01*
X154360474Y-63892179D01*
X154194995Y-64016424D01*
X154185968Y-64023202D01*
X154031632Y-64184705D01*
X154028718Y-64188977D01*
X154004095Y-64225072D01*
X153949183Y-64270074D01*
X153900007Y-64280067D01*
X153378389Y-64280067D01*
X153359439Y-64278634D01*
X153345040Y-64276443D01*
X153345034Y-64276443D01*
X153337805Y-64275343D01*
X153330513Y-64275936D01*
X153330510Y-64275936D01*
X153284830Y-64279652D01*
X153274615Y-64280067D01*
X153266488Y-64280067D01*
X153262852Y-64280491D01*
X153262850Y-64280491D01*
X153261564Y-64280641D01*
X153238089Y-64283378D01*
X153233769Y-64283805D01*
X153160587Y-64289758D01*
X153153625Y-64292014D01*
X153147637Y-64293210D01*
X153141680Y-64294618D01*
X153134406Y-64295466D01*
X153127524Y-64297964D01*
X153127520Y-64297965D01*
X153065406Y-64320512D01*
X153061302Y-64321922D01*
X152991438Y-64344554D01*
X152985175Y-64348354D01*
X152979633Y-64350892D01*
X152974157Y-64353634D01*
X152967272Y-64356133D01*
X152961148Y-64360148D01*
X152905881Y-64396382D01*
X152902213Y-64398697D01*
X152839432Y-64436794D01*
X152835227Y-64440508D01*
X152835224Y-64440510D01*
X152831008Y-64444234D01*
X152830982Y-64444205D01*
X152828051Y-64446805D01*
X152824697Y-64449609D01*
X152818578Y-64453621D01*
X152813546Y-64458933D01*
X152765025Y-64510153D01*
X152762647Y-64512595D01*
X151964484Y-65310758D01*
X151950071Y-65323145D01*
X151932448Y-65336114D01*
X151927704Y-65341697D01*
X151927705Y-65341697D01*
X151898033Y-65376623D01*
X151891103Y-65384139D01*
X151885359Y-65389883D01*
X151883085Y-65392757D01*
X151883079Y-65392764D01*
X151867640Y-65412279D01*
X151864849Y-65415683D01*
X151822067Y-65466040D01*
X151822064Y-65466044D01*
X151817328Y-65471619D01*
X151814000Y-65478136D01*
X151810623Y-65483200D01*
X151807396Y-65488424D01*
X151802852Y-65494168D01*
X151799753Y-65500799D01*
X151771780Y-65560650D01*
X151769849Y-65564601D01*
X151736469Y-65629972D01*
X151734728Y-65637087D01*
X151732591Y-65642833D01*
X151730667Y-65648616D01*
X151727568Y-65655247D01*
X151715562Y-65712972D01*
X151712620Y-65727115D01*
X151711651Y-65731397D01*
X151694208Y-65802680D01*
X151693512Y-65813898D01*
X151693473Y-65813896D01*
X151693240Y-65817797D01*
X151692851Y-65822156D01*
X151691360Y-65829324D01*
X151691558Y-65836641D01*
X151693466Y-65907145D01*
X151693512Y-65910554D01*
X151693512Y-73575960D01*
X151673510Y-73644081D01*
X151656607Y-73665055D01*
X150008472Y-75313190D01*
X149994059Y-75325577D01*
X149976436Y-75338546D01*
X149971692Y-75344129D01*
X149971693Y-75344129D01*
X149942021Y-75379055D01*
X149935091Y-75386571D01*
X149929347Y-75392315D01*
X149927073Y-75395189D01*
X149927067Y-75395196D01*
X149911628Y-75414711D01*
X149908837Y-75418115D01*
X149866055Y-75468472D01*
X149866052Y-75468476D01*
X149861316Y-75474051D01*
X149857988Y-75480568D01*
X149854611Y-75485632D01*
X149851384Y-75490856D01*
X149846840Y-75496600D01*
X149843741Y-75503231D01*
X149815768Y-75563082D01*
X149813837Y-75567033D01*
X149809424Y-75575675D01*
X149780457Y-75632404D01*
X149778716Y-75639519D01*
X149776579Y-75645265D01*
X149774655Y-75651048D01*
X149771556Y-75657679D01*
X149762643Y-75700534D01*
X149756608Y-75729547D01*
X149755639Y-75733829D01*
X149738196Y-75805112D01*
X149737500Y-75816330D01*
X149737461Y-75816328D01*
X149737228Y-75820229D01*
X149736839Y-75824588D01*
X149735348Y-75831756D01*
X149735546Y-75839073D01*
X149737454Y-75909577D01*
X149737500Y-75912986D01*
X149737500Y-76920933D01*
X149717498Y-76989054D01*
X149683772Y-77024145D01*
X149675211Y-77030140D01*
X149655700Y-77043802D01*
X149493802Y-77205700D01*
X149490645Y-77210208D01*
X149490643Y-77210211D01*
X149435902Y-77288389D01*
X149362477Y-77393251D01*
X149360154Y-77398233D01*
X149360151Y-77398238D01*
X149279882Y-77570377D01*
X149265716Y-77600757D01*
X149206457Y-77821913D01*
X149186502Y-78050000D01*
X148543048Y-78050000D01*
X148543151Y-78045767D01*
X148524847Y-77823128D01*
X148470426Y-77606469D01*
X148381349Y-77401607D01*
X148260009Y-77214044D01*
X148256527Y-77210217D01*
X148112793Y-77052255D01*
X148081741Y-76988409D01*
X148090136Y-76917910D01*
X148135312Y-76863142D01*
X148161756Y-76849473D01*
X148268292Y-76809534D01*
X148276700Y-76806382D01*
X148393256Y-76719028D01*
X148480610Y-76602472D01*
X148531740Y-76466083D01*
X148538495Y-76403901D01*
X148538495Y-74607633D01*
X148531740Y-74545451D01*
X148480610Y-74409062D01*
X148393256Y-74292506D01*
X148276700Y-74205152D01*
X148140311Y-74154022D01*
X148078129Y-74147267D01*
X146281861Y-74147267D01*
X146219679Y-74154022D01*
X146083290Y-74205152D01*
X145966734Y-74292506D01*
X145879380Y-74409062D01*
X145828250Y-74545451D01*
X145821495Y-74607633D01*
X145821495Y-76403901D01*
X145828250Y-76466083D01*
X145879380Y-76602472D01*
X145966734Y-76719028D01*
X146083290Y-76806382D01*
X146091699Y-76809534D01*
X146091700Y-76809535D01*
X146200446Y-76850302D01*
X146257211Y-76892943D01*
X146281911Y-76959505D01*
X146266704Y-77028854D01*
X146247311Y-77055335D01*
X146120624Y-77187905D01*
X145994738Y-77372447D01*
X145900683Y-77575072D01*
X145840984Y-77790337D01*
X145817246Y-78012462D01*
X145817543Y-78017615D01*
X145817543Y-78017618D01*
X145823006Y-78112357D01*
X145830105Y-78235482D01*
X145831242Y-78240528D01*
X145831243Y-78240534D01*
X145840904Y-78283402D01*
X145879217Y-78453406D01*
X145963261Y-78660383D01*
X146079982Y-78850855D01*
X146226245Y-79019705D01*
X146398121Y-79162399D01*
X146441116Y-79187523D01*
X146471440Y-79205243D01*
X146520164Y-79256881D01*
X146533235Y-79326664D01*
X146506504Y-79392436D01*
X146466050Y-79425794D01*
X146453602Y-79432274D01*
X146449469Y-79435377D01*
X146449466Y-79435379D01*
X146394786Y-79476434D01*
X146274960Y-79566402D01*
X146271388Y-79570140D01*
X146150718Y-79696414D01*
X146120624Y-79727905D01*
X146117710Y-79732177D01*
X146117709Y-79732178D01*
X146051951Y-79828576D01*
X145994738Y-79912447D01*
X145900683Y-80115072D01*
X145840984Y-80330337D01*
X145817246Y-80552462D01*
X145330002Y-80552462D01*
X145330002Y-65341442D01*
X146758680Y-65341442D01*
X146775229Y-65628456D01*
X146776054Y-65632661D01*
X146776055Y-65632669D01*
X146798211Y-65745595D01*
X146830577Y-65910568D01*
X146831964Y-65914618D01*
X146831965Y-65914623D01*
X146921627Y-66176501D01*
X146923701Y-66182559D01*
X146939244Y-66213463D01*
X147046484Y-66426685D01*
X147052876Y-66439395D01*
X147215712Y-66676323D01*
X147218599Y-66679496D01*
X147218600Y-66679497D01*
X147256623Y-66721284D01*
X147409197Y-66888961D01*
X147412492Y-66891716D01*
X147412493Y-66891717D01*
X147620912Y-67065981D01*
X147629750Y-67073371D01*
X147873289Y-67226144D01*
X148135309Y-67344450D01*
X148204554Y-67364961D01*
X148406848Y-67424884D01*
X148406853Y-67424885D01*
X148410961Y-67426102D01*
X148415195Y-67426750D01*
X148415200Y-67426751D01*
X148663802Y-67464792D01*
X148695144Y-67469588D01*
X148841476Y-67471887D01*
X148978308Y-67474037D01*
X148978314Y-67474037D01*
X148982599Y-67474104D01*
X148986851Y-67473589D01*
X148986859Y-67473589D01*
X149263747Y-67440081D01*
X149263752Y-67440080D01*
X149268008Y-67439565D01*
X149364593Y-67414226D01*
X149541945Y-67367699D01*
X149541946Y-67367699D01*
X149546088Y-67366612D01*
X149811695Y-67256594D01*
X150032471Y-67127583D01*
X150056210Y-67113711D01*
X150056211Y-67113710D01*
X150059913Y-67111547D01*
X150286150Y-66934155D01*
X150292468Y-66927636D01*
X150483235Y-66730779D01*
X150486218Y-66727701D01*
X150488751Y-66724253D01*
X150488755Y-66724248D01*
X150653878Y-66499459D01*
X150656416Y-66496004D01*
X150681195Y-66450367D01*
X150791545Y-66247128D01*
X150791546Y-66247126D01*
X150793595Y-66243352D01*
X150880790Y-66012598D01*
X150893698Y-65978439D01*
X150893699Y-65978435D01*
X150895216Y-65974421D01*
X150926772Y-65836641D01*
X150958440Y-65698370D01*
X150958441Y-65698366D01*
X150959398Y-65694186D01*
X150959854Y-65689085D01*
X150984734Y-65410299D01*
X150984734Y-65410297D01*
X150984954Y-65407833D01*
X150985418Y-65363573D01*
X150982277Y-65317499D01*
X150966156Y-65081025D01*
X150966155Y-65081019D01*
X150965864Y-65076748D01*
X150961327Y-65054837D01*
X150908434Y-64799428D01*
X150907565Y-64795231D01*
X150811598Y-64524230D01*
X150716887Y-64340731D01*
X150681706Y-64272568D01*
X150681706Y-64272567D01*
X150679741Y-64268761D01*
X150666479Y-64249890D01*
X150597087Y-64151156D01*
X150514432Y-64033550D01*
X150383062Y-63892179D01*
X150321652Y-63826094D01*
X150321649Y-63826092D01*
X150318731Y-63822951D01*
X150096259Y-63640860D01*
X149851133Y-63490646D01*
X149833039Y-63482703D01*
X149591821Y-63376816D01*
X149587889Y-63375090D01*
X149561954Y-63367702D01*
X149315525Y-63297505D01*
X149315526Y-63297505D01*
X149311397Y-63296329D01*
X149098695Y-63266058D01*
X149031027Y-63256427D01*
X149031025Y-63256427D01*
X149026775Y-63255822D01*
X149022486Y-63255800D01*
X149022479Y-63255799D01*
X148743574Y-63254338D01*
X148743567Y-63254338D01*
X148739288Y-63254316D01*
X148735044Y-63254875D01*
X148735040Y-63254875D01*
X148609651Y-63271383D01*
X148454257Y-63291841D01*
X148450117Y-63292974D01*
X148450115Y-63292974D01*
X148373302Y-63313988D01*
X148176955Y-63367702D01*
X148173007Y-63369386D01*
X147916467Y-63478810D01*
X147916463Y-63478812D01*
X147912515Y-63480496D01*
X147787951Y-63555046D01*
X147669512Y-63625930D01*
X147669508Y-63625933D01*
X147665830Y-63628134D01*
X147441463Y-63807886D01*
X147243568Y-64016424D01*
X147222590Y-64045618D01*
X147103863Y-64210844D01*
X147075805Y-64249890D01*
X146941279Y-64503965D01*
X146842480Y-64773946D01*
X146781236Y-65054837D01*
X146758680Y-65341442D01*
X145330002Y-65341442D01*
X145330002Y-64364808D01*
X145331502Y-64345423D01*
X145333807Y-64330622D01*
X145333807Y-64330619D01*
X145335188Y-64321750D01*
X145332943Y-64304581D01*
X145332110Y-64280641D01*
X145347712Y-64022710D01*
X145349546Y-64007606D01*
X145383385Y-63822951D01*
X145401042Y-63726601D01*
X145404681Y-63711833D01*
X145413506Y-63683515D01*
X145489677Y-63439072D01*
X145495072Y-63424850D01*
X145612318Y-63164340D01*
X145619387Y-63150871D01*
X145767184Y-62906385D01*
X145775827Y-62893863D01*
X145952018Y-62668973D01*
X145962108Y-62657585D01*
X146164107Y-62455586D01*
X146175495Y-62445496D01*
X146400385Y-62269305D01*
X146412907Y-62260662D01*
X146657393Y-62112865D01*
X146670862Y-62105796D01*
X146931375Y-61988549D01*
X146945594Y-61983155D01*
X147218361Y-61898158D01*
X147233123Y-61894520D01*
X147443354Y-61855994D01*
X147514128Y-61843024D01*
X147529232Y-61841190D01*
X147779931Y-61826025D01*
X147806641Y-61827282D01*
X147806861Y-61827285D01*
X147815732Y-61828666D01*
X147824634Y-61827502D01*
X147824637Y-61827502D01*
X147847253Y-61824544D01*
X147863591Y-61823480D01*
X164850672Y-61823480D01*
X164870057Y-61824980D01*
G37*
%TD.AperFunction*%
%TA.AperFunction,Conductor*%
G36*
X153964666Y-65825069D02*
G01*
X153991782Y-65848570D01*
X154104279Y-65978439D01*
X154137253Y-66016505D01*
X154309129Y-66159199D01*
X154338738Y-66176501D01*
X154382958Y-66202341D01*
X154431682Y-66253979D01*
X154444753Y-66323762D01*
X154418022Y-66389534D01*
X154377565Y-66422894D01*
X154369460Y-66427113D01*
X154360741Y-66432603D01*
X154190436Y-66560472D01*
X154182729Y-66567315D01*
X154035593Y-66721284D01*
X154029107Y-66729294D01*
X153909101Y-66905216D01*
X153904003Y-66914190D01*
X153814341Y-67107350D01*
X153810778Y-67117037D01*
X153755392Y-67316750D01*
X153756915Y-67325174D01*
X153769295Y-67328567D01*
X155219003Y-67328567D01*
X155287124Y-67348569D01*
X155333617Y-67402225D01*
X155345003Y-67454567D01*
X155345003Y-67710567D01*
X155325001Y-67778688D01*
X155271345Y-67825181D01*
X155219003Y-67836567D01*
X153774228Y-67836567D01*
X153760697Y-67840540D01*
X153759260Y-67850533D01*
X153789568Y-67985013D01*
X153792648Y-67994842D01*
X153872773Y-68192170D01*
X153877416Y-68201361D01*
X153988697Y-68382955D01*
X153994780Y-68391266D01*
X154134216Y-68552234D01*
X154141583Y-68559450D01*
X154305437Y-68695483D01*
X154313884Y-68701398D01*
X154382972Y-68741770D01*
X154431696Y-68793409D01*
X154444767Y-68863192D01*
X154418036Y-68928963D01*
X154377587Y-68962319D01*
X154364610Y-68969074D01*
X154360477Y-68972177D01*
X154360474Y-68972179D01*
X154190103Y-69100097D01*
X154185968Y-69103202D01*
X154146528Y-69144474D01*
X154092283Y-69201238D01*
X154031632Y-69264705D01*
X153905746Y-69449247D01*
X153811691Y-69651872D01*
X153751992Y-69867137D01*
X153728254Y-70089262D01*
X153741113Y-70312282D01*
X153742250Y-70317328D01*
X153742251Y-70317334D01*
X153766307Y-70424075D01*
X153790225Y-70530206D01*
X153874269Y-70737183D01*
X153990990Y-70927655D01*
X154137253Y-71096505D01*
X154309129Y-71239199D01*
X154313596Y-71241809D01*
X154395073Y-71289420D01*
X154443797Y-71341058D01*
X154457503Y-71398208D01*
X154457503Y-71884718D01*
X154437501Y-71952839D01*
X154414580Y-71979450D01*
X154298490Y-72081258D01*
X154294923Y-72085783D01*
X154294918Y-72085788D01*
X154208343Y-72195608D01*
X154172363Y-72241249D01*
X154077504Y-72421546D01*
X154017090Y-72616111D01*
X153993144Y-72818427D01*
X154006469Y-73021719D01*
X154056617Y-73219178D01*
X154141910Y-73404192D01*
X154143538Y-73406495D01*
X154160048Y-73474556D01*
X154136827Y-73541648D01*
X154081020Y-73585535D01*
X154021303Y-73593831D01*
X154016366Y-73592849D01*
X154010591Y-73592773D01*
X154010587Y-73592773D01*
X153909118Y-73591445D01*
X153812655Y-73590183D01*
X153806958Y-73591162D01*
X153806957Y-73591162D01*
X153790831Y-73593933D01*
X153611870Y-73624684D01*
X153420734Y-73695198D01*
X153408936Y-73702217D01*
X153340167Y-73719858D01*
X153272777Y-73697519D01*
X153228162Y-73642292D01*
X153218512Y-73593933D01*
X153218512Y-66265596D01*
X153238514Y-66197475D01*
X153255417Y-66176501D01*
X153589946Y-65841972D01*
X153652258Y-65807946D01*
X153679041Y-65805067D01*
X153896545Y-65805067D01*
X153964666Y-65825069D01*
G37*
%TD.AperFunction*%
%TD*%
%TA.AperFunction,Conductor*%
%TO.N,GND*%
G36*
X190604063Y-61825512D02*
G01*
X190618864Y-61827817D01*
X190618867Y-61827817D01*
X190627736Y-61829198D01*
X190644905Y-61826953D01*
X190668845Y-61826120D01*
X190926776Y-61841722D01*
X190941880Y-61843556D01*
X191012654Y-61856526D01*
X191222885Y-61895052D01*
X191237647Y-61898690D01*
X191510414Y-61983687D01*
X191524633Y-61989081D01*
X191785146Y-62106328D01*
X191798615Y-62113397D01*
X192043101Y-62261194D01*
X192055623Y-62269837D01*
X192280513Y-62446028D01*
X192291901Y-62456118D01*
X192493900Y-62658117D01*
X192503990Y-62669505D01*
X192680181Y-62894395D01*
X192688824Y-62906917D01*
X192836621Y-63151403D01*
X192843690Y-63164872D01*
X192936074Y-63370141D01*
X192960936Y-63425382D01*
X192966331Y-63439604D01*
X193025153Y-63628369D01*
X193051327Y-63712365D01*
X193054966Y-63727133D01*
X193070212Y-63810325D01*
X193106462Y-64008138D01*
X193108296Y-64023242D01*
X193123461Y-64273941D01*
X193122204Y-64300651D01*
X193122201Y-64300871D01*
X193120820Y-64309742D01*
X193121984Y-64318644D01*
X193121984Y-64318647D01*
X193124942Y-64341263D01*
X193126006Y-64357601D01*
X193126006Y-104403104D01*
X193124506Y-104422488D01*
X193120820Y-104446162D01*
X193122460Y-104458702D01*
X193123065Y-104463329D01*
X193123898Y-104487271D01*
X193108296Y-104745202D01*
X193106462Y-104760306D01*
X193066997Y-104975665D01*
X193054968Y-105041305D01*
X193051328Y-105056073D01*
X192976223Y-105297095D01*
X192966332Y-105328836D01*
X192960937Y-105343059D01*
X192884702Y-105512448D01*
X192843692Y-105603568D01*
X192836621Y-105617041D01*
X192688824Y-105861527D01*
X192680181Y-105874049D01*
X192503990Y-106098939D01*
X192493900Y-106110327D01*
X192291901Y-106312326D01*
X192280513Y-106322416D01*
X192055623Y-106498607D01*
X192043101Y-106507250D01*
X191798615Y-106655047D01*
X191785146Y-106662116D01*
X191524636Y-106779362D01*
X191510414Y-106784757D01*
X191237647Y-106869754D01*
X191222885Y-106873392D01*
X191012654Y-106911918D01*
X190941880Y-106924888D01*
X190926776Y-106926722D01*
X190676077Y-106941887D01*
X190649367Y-106940630D01*
X190649147Y-106940627D01*
X190640276Y-106939246D01*
X190631374Y-106940410D01*
X190631371Y-106940410D01*
X190608755Y-106943368D01*
X190592417Y-106944432D01*
X173605336Y-106944432D01*
X173585951Y-106942932D01*
X173571150Y-106940627D01*
X173571147Y-106940627D01*
X173562278Y-106939246D01*
X173545109Y-106941491D01*
X173521169Y-106942324D01*
X173263238Y-106926722D01*
X173248134Y-106924888D01*
X173177360Y-106911918D01*
X172967129Y-106873392D01*
X172952367Y-106869754D01*
X172679600Y-106784757D01*
X172665378Y-106779362D01*
X172404868Y-106662116D01*
X172391399Y-106655047D01*
X172146913Y-106507250D01*
X172134391Y-106498607D01*
X171909501Y-106322416D01*
X171898113Y-106312326D01*
X171696114Y-106110327D01*
X171686024Y-106098939D01*
X171509833Y-105874049D01*
X171501190Y-105861527D01*
X171353393Y-105617041D01*
X171346322Y-105603568D01*
X171305313Y-105512448D01*
X171229077Y-105343059D01*
X171223682Y-105328836D01*
X171213791Y-105297095D01*
X171138686Y-105056073D01*
X171135046Y-105041305D01*
X171123018Y-104975665D01*
X171083552Y-104760306D01*
X171081718Y-104745202D01*
X171066553Y-104494503D01*
X171067810Y-104467793D01*
X171067813Y-104467573D01*
X171069194Y-104458702D01*
X171067555Y-104446162D01*
X171065072Y-104427181D01*
X171064008Y-104410843D01*
X171064008Y-103380301D01*
X172492697Y-103380301D01*
X172509246Y-103667315D01*
X172510071Y-103671520D01*
X172510072Y-103671528D01*
X172542018Y-103834353D01*
X172564594Y-103949427D01*
X172565981Y-103953477D01*
X172565982Y-103953482D01*
X172656329Y-104217362D01*
X172657718Y-104221418D01*
X172659645Y-104225249D01*
X172781632Y-104467793D01*
X172786893Y-104478254D01*
X172949729Y-104715182D01*
X172952616Y-104718355D01*
X172952617Y-104718356D01*
X172993337Y-104763107D01*
X173143214Y-104927820D01*
X173146509Y-104930575D01*
X173146510Y-104930576D01*
X173296611Y-105056079D01*
X173363767Y-105112230D01*
X173607306Y-105265003D01*
X173869326Y-105383309D01*
X173873445Y-105384529D01*
X174140865Y-105463743D01*
X174140870Y-105463744D01*
X174144978Y-105464961D01*
X174149212Y-105465609D01*
X174149217Y-105465610D01*
X174397819Y-105503651D01*
X174429161Y-105508447D01*
X174575493Y-105510746D01*
X174712325Y-105512896D01*
X174712331Y-105512896D01*
X174716616Y-105512963D01*
X174720868Y-105512448D01*
X174720876Y-105512448D01*
X174997764Y-105478940D01*
X174997769Y-105478939D01*
X175002025Y-105478424D01*
X175280105Y-105405471D01*
X175545712Y-105295453D01*
X175793930Y-105150406D01*
X176020167Y-104973014D01*
X176061293Y-104930576D01*
X176217252Y-104769638D01*
X176220235Y-104766560D01*
X176222768Y-104763112D01*
X176222772Y-104763107D01*
X176387895Y-104538318D01*
X176390433Y-104534863D01*
X176412347Y-104494503D01*
X176525562Y-104285987D01*
X176525563Y-104285985D01*
X176527612Y-104282211D01*
X176629233Y-104013280D01*
X176693415Y-103733045D01*
X176718971Y-103446692D01*
X176719435Y-103402432D01*
X176717926Y-103380301D01*
X187470695Y-103380301D01*
X187487244Y-103667315D01*
X187488069Y-103671520D01*
X187488070Y-103671528D01*
X187520016Y-103834353D01*
X187542592Y-103949427D01*
X187543979Y-103953477D01*
X187543980Y-103953482D01*
X187634327Y-104217362D01*
X187635716Y-104221418D01*
X187637643Y-104225249D01*
X187759630Y-104467793D01*
X187764891Y-104478254D01*
X187927727Y-104715182D01*
X187930614Y-104718355D01*
X187930615Y-104718356D01*
X187971335Y-104763107D01*
X188121212Y-104927820D01*
X188124507Y-104930575D01*
X188124508Y-104930576D01*
X188274609Y-105056079D01*
X188341765Y-105112230D01*
X188585304Y-105265003D01*
X188847324Y-105383309D01*
X188851443Y-105384529D01*
X189118863Y-105463743D01*
X189118868Y-105463744D01*
X189122976Y-105464961D01*
X189127210Y-105465609D01*
X189127215Y-105465610D01*
X189375817Y-105503651D01*
X189407159Y-105508447D01*
X189553491Y-105510746D01*
X189690323Y-105512896D01*
X189690329Y-105512896D01*
X189694614Y-105512963D01*
X189698866Y-105512448D01*
X189698874Y-105512448D01*
X189975762Y-105478940D01*
X189975767Y-105478939D01*
X189980023Y-105478424D01*
X190258103Y-105405471D01*
X190523710Y-105295453D01*
X190771928Y-105150406D01*
X190998165Y-104973014D01*
X191039291Y-104930576D01*
X191195250Y-104769638D01*
X191198233Y-104766560D01*
X191200766Y-104763112D01*
X191200770Y-104763107D01*
X191365893Y-104538318D01*
X191368431Y-104534863D01*
X191390345Y-104494503D01*
X191503560Y-104285987D01*
X191503561Y-104285985D01*
X191505610Y-104282211D01*
X191607231Y-104013280D01*
X191671413Y-103733045D01*
X191696969Y-103446692D01*
X191697433Y-103402432D01*
X191677879Y-103115607D01*
X191673342Y-103093696D01*
X191620449Y-102838287D01*
X191619580Y-102834090D01*
X191523613Y-102563089D01*
X191391756Y-102307620D01*
X191378494Y-102288749D01*
X191228910Y-102075914D01*
X191226447Y-102072409D01*
X191030746Y-101861810D01*
X190808274Y-101679719D01*
X190563148Y-101529505D01*
X190545054Y-101521562D01*
X190303836Y-101415675D01*
X190299904Y-101413949D01*
X190273969Y-101406561D01*
X190027540Y-101336364D01*
X190027541Y-101336364D01*
X190023412Y-101335188D01*
X189810710Y-101304917D01*
X189743042Y-101295286D01*
X189743040Y-101295286D01*
X189738790Y-101294681D01*
X189734501Y-101294659D01*
X189734494Y-101294658D01*
X189455589Y-101293197D01*
X189455582Y-101293197D01*
X189451303Y-101293175D01*
X189447059Y-101293734D01*
X189447055Y-101293734D01*
X189321666Y-101310242D01*
X189166272Y-101330700D01*
X189162132Y-101331833D01*
X189162130Y-101331833D01*
X189085317Y-101352847D01*
X188888970Y-101406561D01*
X188885022Y-101408245D01*
X188628482Y-101517669D01*
X188628478Y-101517671D01*
X188624530Y-101519355D01*
X188551543Y-101563037D01*
X188381527Y-101664789D01*
X188381523Y-101664792D01*
X188377845Y-101666993D01*
X188374502Y-101669671D01*
X188374498Y-101669674D01*
X188361960Y-101679719D01*
X188269878Y-101753491D01*
X188204210Y-101780472D01*
X188199590Y-101779625D01*
X188197494Y-101794200D01*
X188161659Y-101840191D01*
X188156820Y-101844067D01*
X188156819Y-101844068D01*
X188153478Y-101846745D01*
X187955583Y-102055283D01*
X187787820Y-102288749D01*
X187653294Y-102542824D01*
X187554495Y-102812805D01*
X187493251Y-103093696D01*
X187470695Y-103380301D01*
X176717926Y-103380301D01*
X176699881Y-103115607D01*
X176695344Y-103093696D01*
X176642451Y-102838287D01*
X176641582Y-102834090D01*
X176545615Y-102563089D01*
X176413758Y-102307620D01*
X176400496Y-102288749D01*
X176250912Y-102075914D01*
X176248449Y-102072409D01*
X176052748Y-101861810D01*
X176028855Y-101842254D01*
X175988810Y-101783630D01*
X175986816Y-101712661D01*
X176023507Y-101651880D01*
X176087234Y-101620585D01*
X176108661Y-101618750D01*
X188073018Y-101618750D01*
X188073018Y-94781250D01*
X182678987Y-94781250D01*
X182610866Y-94761248D01*
X182564373Y-94707592D01*
X182554269Y-94637318D01*
X182583763Y-94572738D01*
X182623555Y-94542099D01*
X182788353Y-94461365D01*
X182793001Y-94459088D01*
X182974867Y-94329365D01*
X183001955Y-94302372D01*
X183129442Y-94175329D01*
X183133103Y-94171681D01*
X183143972Y-94156556D01*
X183260442Y-93994469D01*
X183263460Y-93990269D01*
X183267152Y-93982800D01*
X183360143Y-93794645D01*
X183360144Y-93794643D01*
X183362437Y-93790003D01*
X183427377Y-93576261D01*
X183456536Y-93354782D01*
X183458163Y-93288192D01*
X183439859Y-93065553D01*
X183385438Y-92848894D01*
X183296361Y-92644032D01*
X183202094Y-92498317D01*
X183177829Y-92460809D01*
X183177827Y-92460806D01*
X183175021Y-92456469D01*
X183024677Y-92291243D01*
X183020626Y-92288044D01*
X183020622Y-92288040D01*
X182853421Y-92155992D01*
X182853417Y-92155990D01*
X182849366Y-92152790D01*
X182808060Y-92129988D01*
X182758091Y-92079556D01*
X182743319Y-92010113D01*
X182768435Y-91943708D01*
X182795787Y-91917101D01*
X182839610Y-91885842D01*
X182974867Y-91789365D01*
X183001955Y-91762372D01*
X183129442Y-91635329D01*
X183133103Y-91631681D01*
X183143972Y-91616556D01*
X183260442Y-91454469D01*
X183263460Y-91450269D01*
X183274900Y-91427123D01*
X183360143Y-91254645D01*
X183360144Y-91254643D01*
X183362437Y-91250003D01*
X183427377Y-91036261D01*
X183456536Y-90814782D01*
X183458163Y-90748192D01*
X183439859Y-90525553D01*
X183385438Y-90308894D01*
X183296361Y-90104032D01*
X183201334Y-89957142D01*
X183177829Y-89920809D01*
X183177827Y-89920806D01*
X183175021Y-89916469D01*
X183024677Y-89751243D01*
X183020626Y-89748044D01*
X183020622Y-89748040D01*
X182853421Y-89615992D01*
X182853417Y-89615990D01*
X182849366Y-89612790D01*
X182808060Y-89589988D01*
X182758091Y-89539556D01*
X182743319Y-89470113D01*
X182768435Y-89403708D01*
X182795787Y-89377101D01*
X182839610Y-89345842D01*
X182974867Y-89249365D01*
X183001955Y-89222372D01*
X183129442Y-89095329D01*
X183133103Y-89091681D01*
X183143972Y-89076556D01*
X183260442Y-88914469D01*
X183263460Y-88910269D01*
X183267152Y-88902800D01*
X183360143Y-88714645D01*
X183360144Y-88714643D01*
X183362437Y-88710003D01*
X183427377Y-88496261D01*
X183456536Y-88274782D01*
X183458163Y-88208192D01*
X183439859Y-87985553D01*
X183385438Y-87768894D01*
X183296361Y-87564032D01*
X183204837Y-87422557D01*
X183177829Y-87380809D01*
X183177827Y-87380806D01*
X183175021Y-87376469D01*
X183024677Y-87211243D01*
X183020626Y-87208044D01*
X183020622Y-87208040D01*
X182853421Y-87075992D01*
X182853417Y-87075990D01*
X182849366Y-87072790D01*
X182808060Y-87049988D01*
X182758091Y-86999556D01*
X182743319Y-86930113D01*
X182768435Y-86863708D01*
X182795787Y-86837101D01*
X182839610Y-86805842D01*
X182974867Y-86709365D01*
X183001955Y-86682372D01*
X183086569Y-86598053D01*
X183133103Y-86551681D01*
X183143972Y-86536556D01*
X183260442Y-86374469D01*
X183263460Y-86370269D01*
X183267618Y-86361857D01*
X183360143Y-86174645D01*
X183360144Y-86174643D01*
X183362437Y-86170003D01*
X183427377Y-85956261D01*
X183456536Y-85734782D01*
X183456650Y-85730129D01*
X183458081Y-85671557D01*
X183458081Y-85671553D01*
X183458163Y-85668192D01*
X183439859Y-85445553D01*
X183385438Y-85228894D01*
X183296361Y-85024032D01*
X183214877Y-84898077D01*
X183177829Y-84840809D01*
X183177827Y-84840806D01*
X183175021Y-84836469D01*
X183024677Y-84671243D01*
X183020626Y-84668044D01*
X183020622Y-84668040D01*
X182853421Y-84535992D01*
X182853417Y-84535990D01*
X182849366Y-84532790D01*
X182808060Y-84509988D01*
X182758091Y-84459556D01*
X182743319Y-84390113D01*
X182768435Y-84323708D01*
X182795787Y-84297101D01*
X182839610Y-84265842D01*
X182974867Y-84169365D01*
X183001955Y-84142372D01*
X183129442Y-84015329D01*
X183133103Y-84011681D01*
X183143972Y-83996556D01*
X183260442Y-83834469D01*
X183263460Y-83830269D01*
X183301305Y-83753696D01*
X183360143Y-83634645D01*
X183360144Y-83634643D01*
X183362437Y-83630003D01*
X183427377Y-83416261D01*
X183456536Y-83194782D01*
X183456650Y-83190129D01*
X183458081Y-83131557D01*
X183458081Y-83131553D01*
X183458163Y-83128192D01*
X183439859Y-82905553D01*
X183385438Y-82688894D01*
X183296361Y-82484032D01*
X183175021Y-82296469D01*
X183024677Y-82131243D01*
X183020626Y-82128044D01*
X183020622Y-82128040D01*
X182853421Y-81995992D01*
X182853417Y-81995990D01*
X182849366Y-81992790D01*
X182807576Y-81969721D01*
X182757605Y-81919289D01*
X182742833Y-81849846D01*
X182767949Y-81783440D01*
X182795301Y-81756833D01*
X182970335Y-81631984D01*
X182978207Y-81625331D01*
X183129059Y-81475004D01*
X183135737Y-81467157D01*
X183260010Y-81294212D01*
X183265320Y-81285375D01*
X183359677Y-81094459D01*
X183363476Y-81084864D01*
X183425384Y-80881102D01*
X183427562Y-80871029D01*
X183428993Y-80860154D01*
X183426782Y-80845970D01*
X183413624Y-80842192D01*
X180778232Y-80842192D01*
X180764701Y-80846165D01*
X180763264Y-80856158D01*
X180793572Y-80990638D01*
X180796652Y-81000467D01*
X180876777Y-81197795D01*
X180881420Y-81206986D01*
X180992701Y-81388580D01*
X180998784Y-81396891D01*
X181138220Y-81557859D01*
X181145587Y-81565075D01*
X181309441Y-81701108D01*
X181317888Y-81707023D01*
X181386976Y-81747395D01*
X181435700Y-81799034D01*
X181448771Y-81868817D01*
X181422040Y-81934588D01*
X181381591Y-81967944D01*
X181368614Y-81974699D01*
X181364481Y-81977802D01*
X181364478Y-81977804D01*
X181255456Y-82059660D01*
X181189972Y-82108827D01*
X181186400Y-82112565D01*
X181059850Y-82244992D01*
X181035636Y-82270330D01*
X181032722Y-82274602D01*
X181032721Y-82274603D01*
X181020411Y-82292649D01*
X180909750Y-82454872D01*
X180815695Y-82657497D01*
X180755996Y-82872762D01*
X180732258Y-83094887D01*
X180732555Y-83100040D01*
X180732555Y-83100043D01*
X180742765Y-83277111D01*
X180745117Y-83317907D01*
X180746254Y-83322953D01*
X180746255Y-83322959D01*
X180760456Y-83385970D01*
X180794229Y-83535831D01*
X180878273Y-83742808D01*
X180928870Y-83825375D01*
X180986286Y-83919069D01*
X180994994Y-83933280D01*
X181141257Y-84102130D01*
X181244965Y-84188230D01*
X181306222Y-84239086D01*
X181313133Y-84244824D01*
X181383602Y-84286003D01*
X181386452Y-84287668D01*
X181435176Y-84339306D01*
X181448247Y-84409089D01*
X181421516Y-84474861D01*
X181381062Y-84508219D01*
X181368614Y-84514699D01*
X181364481Y-84517802D01*
X181364478Y-84517804D01*
X181255456Y-84599660D01*
X181189972Y-84648827D01*
X181186400Y-84652565D01*
X181059850Y-84784992D01*
X181035636Y-84810330D01*
X180909750Y-84994872D01*
X180875721Y-85068181D01*
X180823016Y-85181726D01*
X180815695Y-85197497D01*
X180755996Y-85412762D01*
X180732258Y-85634887D01*
X180732555Y-85640040D01*
X180732555Y-85640043D01*
X180738018Y-85734782D01*
X180745117Y-85857907D01*
X180746254Y-85862953D01*
X180746255Y-85862959D01*
X180760930Y-85928075D01*
X180794229Y-86075831D01*
X180837788Y-86183105D01*
X180874727Y-86274074D01*
X180878273Y-86282808D01*
X180926714Y-86361857D01*
X180992298Y-86468880D01*
X180994994Y-86473280D01*
X181141257Y-86642130D01*
X181244965Y-86728230D01*
X181306222Y-86779086D01*
X181313133Y-86784824D01*
X181383602Y-86826003D01*
X181386452Y-86827668D01*
X181435176Y-86879306D01*
X181448247Y-86949089D01*
X181421516Y-87014861D01*
X181381062Y-87048219D01*
X181368614Y-87054699D01*
X181364481Y-87057802D01*
X181364478Y-87057804D01*
X181257884Y-87137837D01*
X181189972Y-87188827D01*
X181186400Y-87192565D01*
X181059850Y-87324992D01*
X181035636Y-87350330D01*
X180909750Y-87534872D01*
X180868961Y-87622744D01*
X180835685Y-87694433D01*
X180815695Y-87737497D01*
X180755996Y-87952762D01*
X180732258Y-88174887D01*
X180732555Y-88180040D01*
X180732555Y-88180043D01*
X180738018Y-88274782D01*
X180745117Y-88397907D01*
X180746254Y-88402953D01*
X180746255Y-88402959D01*
X180752763Y-88431836D01*
X180794229Y-88615831D01*
X180849027Y-88750783D01*
X180871669Y-88806543D01*
X180878273Y-88822808D01*
X180897823Y-88854710D01*
X180986286Y-88999069D01*
X180994994Y-89013280D01*
X181141257Y-89182130D01*
X181244965Y-89268230D01*
X181306222Y-89319086D01*
X181313133Y-89324824D01*
X181383602Y-89366003D01*
X181386452Y-89367668D01*
X181435176Y-89419306D01*
X181448247Y-89489089D01*
X181421516Y-89554861D01*
X181381062Y-89588219D01*
X181368614Y-89594699D01*
X181364481Y-89597802D01*
X181364478Y-89597804D01*
X181255456Y-89679660D01*
X181189972Y-89728827D01*
X181186400Y-89732565D01*
X181059850Y-89864992D01*
X181035636Y-89890330D01*
X181032722Y-89894602D01*
X181032721Y-89894603D01*
X181001656Y-89940143D01*
X180909750Y-90074872D01*
X180815695Y-90277497D01*
X180755996Y-90492762D01*
X180732258Y-90714887D01*
X180732555Y-90720040D01*
X180732555Y-90720043D01*
X180738018Y-90814782D01*
X180745117Y-90937907D01*
X180746254Y-90942953D01*
X180746255Y-90942959D01*
X180766126Y-91031131D01*
X180794229Y-91155831D01*
X180832468Y-91250003D01*
X180867407Y-91336047D01*
X180878273Y-91362808D01*
X180914684Y-91422226D01*
X180992298Y-91548880D01*
X180994994Y-91553280D01*
X181141257Y-91722130D01*
X181244965Y-91808230D01*
X181306222Y-91859086D01*
X181313133Y-91864824D01*
X181383602Y-91906003D01*
X181386452Y-91907668D01*
X181435176Y-91959306D01*
X181448247Y-92029089D01*
X181421516Y-92094861D01*
X181381062Y-92128219D01*
X181368614Y-92134699D01*
X181364481Y-92137802D01*
X181364478Y-92137804D01*
X181194107Y-92265722D01*
X181189972Y-92268827D01*
X181186400Y-92272565D01*
X181059850Y-92404992D01*
X181035636Y-92430330D01*
X180909750Y-92614872D01*
X180870930Y-92698502D01*
X180820471Y-92807209D01*
X180815695Y-92817497D01*
X180755996Y-93032762D01*
X180732258Y-93254887D01*
X180732555Y-93260040D01*
X180732555Y-93260043D01*
X180738018Y-93354782D01*
X180745117Y-93477907D01*
X180746254Y-93482953D01*
X180746255Y-93482959D01*
X180766126Y-93571131D01*
X180794229Y-93695831D01*
X180852595Y-93839571D01*
X180871669Y-93886543D01*
X180878273Y-93902808D01*
X180893428Y-93927539D01*
X180986286Y-94079069D01*
X180994994Y-94093280D01*
X181141257Y-94262130D01*
X181244965Y-94348230D01*
X181306222Y-94399086D01*
X181313133Y-94404824D01*
X181506007Y-94517530D01*
X181510832Y-94519372D01*
X181510833Y-94519373D01*
X181558408Y-94537540D01*
X181614911Y-94580528D01*
X181639204Y-94647239D01*
X181623574Y-94716493D01*
X181572983Y-94766304D01*
X181513459Y-94781250D01*
X176007018Y-94781250D01*
X176007018Y-101563037D01*
X175987016Y-101631158D01*
X175933360Y-101677651D01*
X175863086Y-101687755D01*
X175815183Y-101670470D01*
X175805913Y-101664789D01*
X175585150Y-101529505D01*
X175567056Y-101521562D01*
X175325838Y-101415675D01*
X175321906Y-101413949D01*
X175295971Y-101406561D01*
X175049542Y-101336364D01*
X175049543Y-101336364D01*
X175045414Y-101335188D01*
X174832712Y-101304917D01*
X174765044Y-101295286D01*
X174765042Y-101295286D01*
X174760792Y-101294681D01*
X174756503Y-101294659D01*
X174756496Y-101294658D01*
X174477591Y-101293197D01*
X174477584Y-101293197D01*
X174473305Y-101293175D01*
X174469061Y-101293734D01*
X174469057Y-101293734D01*
X174343668Y-101310242D01*
X174188274Y-101330700D01*
X174184134Y-101331833D01*
X174184132Y-101331833D01*
X174107319Y-101352847D01*
X173910972Y-101406561D01*
X173907024Y-101408245D01*
X173650484Y-101517669D01*
X173650480Y-101517671D01*
X173646532Y-101519355D01*
X173573545Y-101563037D01*
X173403529Y-101664789D01*
X173403525Y-101664792D01*
X173399847Y-101666993D01*
X173175480Y-101846745D01*
X172977585Y-102055283D01*
X172809822Y-102288749D01*
X172675296Y-102542824D01*
X172576497Y-102812805D01*
X172515253Y-103093696D01*
X172492697Y-103380301D01*
X171064008Y-103380301D01*
X171064008Y-93254887D01*
X171551258Y-93254887D01*
X171551555Y-93260040D01*
X171551555Y-93260043D01*
X171557018Y-93354782D01*
X171564117Y-93477907D01*
X171565254Y-93482953D01*
X171565255Y-93482959D01*
X171585126Y-93571131D01*
X171613229Y-93695831D01*
X171671595Y-93839571D01*
X171690669Y-93886543D01*
X171697273Y-93902808D01*
X171712428Y-93927539D01*
X171805286Y-94079069D01*
X171813994Y-94093280D01*
X171960257Y-94262130D01*
X172063965Y-94348230D01*
X172125222Y-94399086D01*
X172132133Y-94404824D01*
X172325007Y-94517530D01*
X172533699Y-94597222D01*
X172538767Y-94598253D01*
X172538770Y-94598254D01*
X172646024Y-94620075D01*
X172752604Y-94641759D01*
X172757779Y-94641949D01*
X172757781Y-94641949D01*
X172970680Y-94649756D01*
X172970684Y-94649756D01*
X172975844Y-94649945D01*
X172980964Y-94649289D01*
X172980966Y-94649289D01*
X173192295Y-94622217D01*
X173192296Y-94622217D01*
X173197423Y-94621560D01*
X173202373Y-94620075D01*
X173406436Y-94558853D01*
X173406441Y-94558851D01*
X173411391Y-94557366D01*
X173612001Y-94459088D01*
X173793867Y-94329365D01*
X173820955Y-94302372D01*
X173948442Y-94175329D01*
X173952103Y-94171681D01*
X173962972Y-94156556D01*
X174079442Y-93994469D01*
X174082460Y-93990269D01*
X174084753Y-93985629D01*
X174086453Y-93982800D01*
X174138681Y-93934710D01*
X174194458Y-93921692D01*
X177169479Y-93921692D01*
X177180662Y-93922219D01*
X177188155Y-93923894D01*
X177196081Y-93923645D01*
X177196082Y-93923645D01*
X177256232Y-93921754D01*
X177260191Y-93921692D01*
X177288102Y-93921692D01*
X177292037Y-93921195D01*
X177292102Y-93921187D01*
X177303939Y-93920254D01*
X177336197Y-93919240D01*
X177340216Y-93919114D01*
X177348135Y-93918865D01*
X177367589Y-93913213D01*
X177386946Y-93909205D01*
X177399176Y-93907660D01*
X177399177Y-93907660D01*
X177407043Y-93906666D01*
X177414414Y-93903747D01*
X177414416Y-93903747D01*
X177448158Y-93890388D01*
X177459388Y-93886543D01*
X177494229Y-93876421D01*
X177494230Y-93876421D01*
X177501839Y-93874210D01*
X177508658Y-93870177D01*
X177508663Y-93870175D01*
X177519274Y-93863899D01*
X177537022Y-93855204D01*
X177555863Y-93847744D01*
X177567113Y-93839571D01*
X177591633Y-93821756D01*
X177601553Y-93815240D01*
X177632781Y-93796772D01*
X177632784Y-93796770D01*
X177639608Y-93792734D01*
X177653929Y-93778413D01*
X177668963Y-93765572D01*
X177678940Y-93758323D01*
X177685353Y-93753664D01*
X177713544Y-93719587D01*
X177721534Y-93710808D01*
X178400493Y-93031849D01*
X178408783Y-93024305D01*
X178415264Y-93020192D01*
X178461905Y-92970524D01*
X178464659Y-92967683D01*
X178484380Y-92947962D01*
X178486858Y-92944767D01*
X178494564Y-92935745D01*
X178502069Y-92927753D01*
X178524832Y-92903513D01*
X178534592Y-92885760D01*
X178545445Y-92869237D01*
X178546646Y-92867688D01*
X178557859Y-92853233D01*
X178575422Y-92812649D01*
X178580629Y-92802019D01*
X178601941Y-92763252D01*
X178603912Y-92755575D01*
X178603914Y-92755570D01*
X178606978Y-92743634D01*
X178613384Y-92724922D01*
X178618279Y-92713611D01*
X178621427Y-92706337D01*
X178622667Y-92698509D01*
X178622669Y-92698502D01*
X178628345Y-92662668D01*
X178630751Y-92651048D01*
X178639774Y-92615903D01*
X178639774Y-92615902D01*
X178641746Y-92608222D01*
X178641746Y-92587968D01*
X178643297Y-92568257D01*
X178645226Y-92556078D01*
X178646466Y-92548249D01*
X178642305Y-92504230D01*
X178641746Y-92492373D01*
X178641746Y-86642287D01*
X178661748Y-86574166D01*
X178687177Y-86545413D01*
X178790994Y-86459069D01*
X178795432Y-86455378D01*
X178925704Y-86298743D01*
X179008756Y-86150443D01*
X179022426Y-86126034D01*
X179022427Y-86126032D01*
X179025250Y-86120991D01*
X179027106Y-86115524D01*
X179027108Y-86115519D01*
X179088880Y-85933544D01*
X179088881Y-85933539D01*
X179090736Y-85928075D01*
X179119969Y-85726455D01*
X179121495Y-85668192D01*
X179102854Y-85465318D01*
X179089480Y-85417899D01*
X179049121Y-85274798D01*
X179049120Y-85274796D01*
X179047553Y-85269239D01*
X179036926Y-85247688D01*
X178960002Y-85091702D01*
X178957447Y-85086521D01*
X178952552Y-85079965D01*
X178839004Y-84927907D01*
X178839004Y-84927906D01*
X178835551Y-84923283D01*
X178715456Y-84812268D01*
X178690189Y-84788911D01*
X178690186Y-84788909D01*
X178685949Y-84784992D01*
X178582535Y-84719743D01*
X178518534Y-84679361D01*
X178518529Y-84679359D01*
X178513650Y-84676280D01*
X178324426Y-84600787D01*
X178124612Y-84561041D01*
X178118838Y-84560965D01*
X178118834Y-84560965D01*
X178015698Y-84559616D01*
X177920901Y-84558375D01*
X177915204Y-84559354D01*
X177915203Y-84559354D01*
X177725813Y-84591897D01*
X177720116Y-84592876D01*
X177528980Y-84663390D01*
X177353895Y-84767555D01*
X177276581Y-84835357D01*
X177212180Y-84865233D01*
X177141847Y-84855547D01*
X177087915Y-84809374D01*
X177067506Y-84740624D01*
X177067506Y-84058053D01*
X177087508Y-83989932D01*
X177141164Y-83943439D01*
X177211438Y-83933335D01*
X177276018Y-83962829D01*
X177281427Y-83967799D01*
X177303516Y-83989317D01*
X177303522Y-83989322D01*
X177307656Y-83993349D01*
X177312452Y-83996554D01*
X177312455Y-83996556D01*
X177340551Y-84015329D01*
X177477049Y-84106534D01*
X177482352Y-84108812D01*
X177482355Y-84108814D01*
X177623291Y-84169365D01*
X177664233Y-84186955D01*
X177737063Y-84203435D01*
X177857301Y-84230642D01*
X177857306Y-84230643D01*
X177862938Y-84231917D01*
X177868709Y-84232144D01*
X177868711Y-84232144D01*
X177931716Y-84234619D01*
X178066509Y-84239915D01*
X178268129Y-84210682D01*
X178273593Y-84208827D01*
X178273598Y-84208826D01*
X178455573Y-84147054D01*
X178455578Y-84147052D01*
X178461045Y-84145196D01*
X178638797Y-84045650D01*
X178795432Y-83915378D01*
X178925704Y-83758743D01*
X179025250Y-83580991D01*
X179027106Y-83575524D01*
X179027108Y-83575519D01*
X179088880Y-83393544D01*
X179088881Y-83393539D01*
X179090736Y-83388075D01*
X179119969Y-83186455D01*
X179121495Y-83128192D01*
X179102854Y-82925318D01*
X179088435Y-82874192D01*
X179049121Y-82734798D01*
X179049120Y-82734796D01*
X179047553Y-82729239D01*
X179035879Y-82705565D01*
X178960002Y-82551702D01*
X178957447Y-82546521D01*
X178944989Y-82529837D01*
X178839004Y-82387907D01*
X178839004Y-82387906D01*
X178835551Y-82383283D01*
X178741636Y-82296469D01*
X178690189Y-82248911D01*
X178690186Y-82248909D01*
X178685949Y-82244992D01*
X178639921Y-82215951D01*
X178518534Y-82139361D01*
X178518529Y-82139359D01*
X178513650Y-82136280D01*
X178324426Y-82060787D01*
X178124612Y-82021041D01*
X178118838Y-82020965D01*
X178118834Y-82020965D01*
X178015698Y-82019616D01*
X177920901Y-82018375D01*
X177915204Y-82019354D01*
X177915203Y-82019354D01*
X177725813Y-82051897D01*
X177720116Y-82052876D01*
X177528980Y-82123390D01*
X177353895Y-82227555D01*
X177200724Y-82361882D01*
X177197152Y-82366413D01*
X177134006Y-82446513D01*
X177076125Y-82487626D01*
X177024280Y-82493819D01*
X177018337Y-82492491D01*
X176950279Y-82494630D01*
X176946321Y-82494692D01*
X176918390Y-82494692D01*
X176914475Y-82495187D01*
X176914471Y-82495187D01*
X176914413Y-82495195D01*
X176914384Y-82495198D01*
X176902542Y-82496131D01*
X176858356Y-82497519D01*
X176840990Y-82502564D01*
X176838904Y-82503170D01*
X176819552Y-82507178D01*
X176812481Y-82508072D01*
X176799449Y-82509718D01*
X176792080Y-82512635D01*
X176792078Y-82512636D01*
X176758343Y-82525992D01*
X176747115Y-82529837D01*
X176704653Y-82542174D01*
X176697831Y-82546208D01*
X176697825Y-82546211D01*
X176687214Y-82552486D01*
X176669464Y-82561182D01*
X176658002Y-82565720D01*
X176657997Y-82565723D01*
X176650629Y-82568640D01*
X176644214Y-82573301D01*
X176614871Y-82594619D01*
X176604953Y-82601135D01*
X176586265Y-82612187D01*
X176566883Y-82623650D01*
X176552559Y-82637974D01*
X176537527Y-82650813D01*
X176521139Y-82662720D01*
X176492958Y-82696785D01*
X176484968Y-82705565D01*
X176041753Y-83148780D01*
X176033467Y-83156320D01*
X176026988Y-83160432D01*
X176021563Y-83166209D01*
X175980363Y-83210083D01*
X175977608Y-83212925D01*
X175957871Y-83232662D01*
X175955391Y-83235859D01*
X175947688Y-83244879D01*
X175917420Y-83277111D01*
X175913601Y-83284057D01*
X175913599Y-83284060D01*
X175907658Y-83294866D01*
X175896807Y-83311385D01*
X175884392Y-83327391D01*
X175881247Y-83334660D01*
X175881244Y-83334664D01*
X175866832Y-83367969D01*
X175861615Y-83378619D01*
X175840311Y-83417372D01*
X175838340Y-83425047D01*
X175838340Y-83425048D01*
X175835273Y-83436994D01*
X175828869Y-83455698D01*
X175820825Y-83474287D01*
X175819586Y-83482110D01*
X175819583Y-83482120D01*
X175813907Y-83517956D01*
X175811501Y-83529576D01*
X175802478Y-83564721D01*
X175800506Y-83572402D01*
X175800506Y-83592656D01*
X175798955Y-83612366D01*
X175795786Y-83632375D01*
X175796532Y-83640267D01*
X175799947Y-83676393D01*
X175800506Y-83688251D01*
X175800506Y-87137837D01*
X175780504Y-87205958D01*
X175763601Y-87226933D01*
X175452745Y-87537788D01*
X175390433Y-87571813D01*
X175363650Y-87574692D01*
X174190812Y-87574692D01*
X174122691Y-87554690D01*
X174085020Y-87517132D01*
X173996829Y-87380809D01*
X173996827Y-87380806D01*
X173994021Y-87376469D01*
X173843677Y-87211243D01*
X173839626Y-87208044D01*
X173839622Y-87208040D01*
X173672421Y-87075992D01*
X173672417Y-87075990D01*
X173668366Y-87072790D01*
X173627060Y-87049988D01*
X173577091Y-86999556D01*
X173562319Y-86930113D01*
X173587435Y-86863708D01*
X173614787Y-86837101D01*
X173658610Y-86805842D01*
X173793867Y-86709365D01*
X173820955Y-86682372D01*
X173905569Y-86598053D01*
X173952103Y-86551681D01*
X173962972Y-86536556D01*
X174079442Y-86374469D01*
X174082460Y-86370269D01*
X174086618Y-86361857D01*
X174179143Y-86174645D01*
X174179144Y-86174643D01*
X174181437Y-86170003D01*
X174246377Y-85956261D01*
X174275536Y-85734782D01*
X174275650Y-85730129D01*
X174277081Y-85671557D01*
X174277081Y-85671553D01*
X174277163Y-85668192D01*
X174258859Y-85445553D01*
X174204438Y-85228894D01*
X174115361Y-85024032D01*
X174033877Y-84898077D01*
X173996829Y-84840809D01*
X173996827Y-84840806D01*
X173994021Y-84836469D01*
X173843677Y-84671243D01*
X173839626Y-84668044D01*
X173839622Y-84668040D01*
X173672421Y-84535992D01*
X173672417Y-84535990D01*
X173668366Y-84532790D01*
X173626576Y-84509721D01*
X173576605Y-84459289D01*
X173561833Y-84389846D01*
X173586949Y-84323440D01*
X173614301Y-84296833D01*
X173789335Y-84171984D01*
X173797207Y-84165331D01*
X173948059Y-84015004D01*
X173954737Y-84007157D01*
X174079010Y-83834212D01*
X174084320Y-83825375D01*
X174178677Y-83634459D01*
X174182476Y-83624864D01*
X174244384Y-83421102D01*
X174246562Y-83411029D01*
X174247993Y-83400154D01*
X174245782Y-83385970D01*
X174232624Y-83382192D01*
X171597232Y-83382192D01*
X171583701Y-83386165D01*
X171582264Y-83396158D01*
X171612572Y-83530638D01*
X171615652Y-83540467D01*
X171695777Y-83737795D01*
X171700420Y-83746986D01*
X171811701Y-83928580D01*
X171817784Y-83936891D01*
X171957220Y-84097859D01*
X171964587Y-84105075D01*
X172128441Y-84241108D01*
X172136888Y-84247023D01*
X172205976Y-84287395D01*
X172254700Y-84339034D01*
X172267771Y-84408817D01*
X172241040Y-84474588D01*
X172200591Y-84507944D01*
X172187614Y-84514699D01*
X172183481Y-84517802D01*
X172183478Y-84517804D01*
X172074456Y-84599660D01*
X172008972Y-84648827D01*
X172005400Y-84652565D01*
X171878850Y-84784992D01*
X171854636Y-84810330D01*
X171728750Y-84994872D01*
X171694721Y-85068181D01*
X171642016Y-85181726D01*
X171634695Y-85197497D01*
X171574996Y-85412762D01*
X171551258Y-85634887D01*
X171551555Y-85640040D01*
X171551555Y-85640043D01*
X171557018Y-85734782D01*
X171564117Y-85857907D01*
X171565254Y-85862953D01*
X171565255Y-85862959D01*
X171579930Y-85928075D01*
X171613229Y-86075831D01*
X171656788Y-86183105D01*
X171693727Y-86274074D01*
X171697273Y-86282808D01*
X171745714Y-86361857D01*
X171811298Y-86468880D01*
X171813994Y-86473280D01*
X171960257Y-86642130D01*
X172063965Y-86728230D01*
X172125222Y-86779086D01*
X172132133Y-86784824D01*
X172202602Y-86826003D01*
X172205452Y-86827668D01*
X172254176Y-86879306D01*
X172267247Y-86949089D01*
X172240516Y-87014861D01*
X172200062Y-87048219D01*
X172187614Y-87054699D01*
X172183481Y-87057802D01*
X172183478Y-87057804D01*
X172076884Y-87137837D01*
X172008972Y-87188827D01*
X172005400Y-87192565D01*
X171878850Y-87324992D01*
X171854636Y-87350330D01*
X171728750Y-87534872D01*
X171687961Y-87622744D01*
X171654685Y-87694433D01*
X171634695Y-87737497D01*
X171574996Y-87952762D01*
X171551258Y-88174887D01*
X171551555Y-88180040D01*
X171551555Y-88180043D01*
X171557018Y-88274782D01*
X171564117Y-88397907D01*
X171565254Y-88402953D01*
X171565255Y-88402959D01*
X171571763Y-88431836D01*
X171613229Y-88615831D01*
X171668027Y-88750783D01*
X171690669Y-88806543D01*
X171697273Y-88822808D01*
X171716823Y-88854710D01*
X171805286Y-88999069D01*
X171813994Y-89013280D01*
X171960257Y-89182130D01*
X172063965Y-89268230D01*
X172125222Y-89319086D01*
X172132133Y-89324824D01*
X172202602Y-89366003D01*
X172205452Y-89367668D01*
X172254176Y-89419306D01*
X172267247Y-89489089D01*
X172240516Y-89554861D01*
X172200062Y-89588219D01*
X172187614Y-89594699D01*
X172183481Y-89597802D01*
X172183478Y-89597804D01*
X172074456Y-89679660D01*
X172008972Y-89728827D01*
X172005400Y-89732565D01*
X171878850Y-89864992D01*
X171854636Y-89890330D01*
X171851722Y-89894602D01*
X171851721Y-89894603D01*
X171820656Y-89940143D01*
X171728750Y-90074872D01*
X171634695Y-90277497D01*
X171574996Y-90492762D01*
X171551258Y-90714887D01*
X171551555Y-90720040D01*
X171551555Y-90720043D01*
X171557018Y-90814782D01*
X171564117Y-90937907D01*
X171565254Y-90942953D01*
X171565255Y-90942959D01*
X171585126Y-91031131D01*
X171613229Y-91155831D01*
X171651468Y-91250003D01*
X171686407Y-91336047D01*
X171697273Y-91362808D01*
X171733684Y-91422226D01*
X171811298Y-91548880D01*
X171813994Y-91553280D01*
X171960257Y-91722130D01*
X172063965Y-91808230D01*
X172125222Y-91859086D01*
X172132133Y-91864824D01*
X172202602Y-91906003D01*
X172205452Y-91907668D01*
X172254176Y-91959306D01*
X172267247Y-92029089D01*
X172240516Y-92094861D01*
X172200062Y-92128219D01*
X172187614Y-92134699D01*
X172183481Y-92137802D01*
X172183478Y-92137804D01*
X172013107Y-92265722D01*
X172008972Y-92268827D01*
X172005400Y-92272565D01*
X171878850Y-92404992D01*
X171854636Y-92430330D01*
X171728750Y-92614872D01*
X171689930Y-92698502D01*
X171639471Y-92807209D01*
X171634695Y-92817497D01*
X171574996Y-93032762D01*
X171551258Y-93254887D01*
X171064008Y-93254887D01*
X171064008Y-80554887D01*
X171551258Y-80554887D01*
X171551555Y-80560040D01*
X171551555Y-80560043D01*
X171557018Y-80654782D01*
X171564117Y-80777907D01*
X171565254Y-80782953D01*
X171565255Y-80782959D01*
X171578604Y-80842192D01*
X171613229Y-80995831D01*
X171697273Y-81202808D01*
X171721102Y-81241694D01*
X171811298Y-81388880D01*
X171813994Y-81393280D01*
X171960257Y-81562130D01*
X172132133Y-81704824D01*
X172204985Y-81747395D01*
X172205962Y-81747966D01*
X172254686Y-81799604D01*
X172267757Y-81869387D01*
X172241026Y-81935159D01*
X172200569Y-81968519D01*
X172192464Y-81972738D01*
X172183745Y-81978228D01*
X172013440Y-82106097D01*
X172005733Y-82112940D01*
X171858597Y-82266909D01*
X171852111Y-82274919D01*
X171732105Y-82450841D01*
X171727007Y-82459815D01*
X171637345Y-82652975D01*
X171633782Y-82662662D01*
X171578396Y-82862375D01*
X171579919Y-82870799D01*
X171592299Y-82874192D01*
X174232351Y-82874192D01*
X174245882Y-82870219D01*
X174247187Y-82861139D01*
X174205221Y-82694067D01*
X174201901Y-82684316D01*
X174116979Y-82489006D01*
X174112112Y-82479931D01*
X173996433Y-82301118D01*
X173990143Y-82292949D01*
X173846813Y-82135432D01*
X173839280Y-82128407D01*
X173672146Y-81996414D01*
X173663563Y-81990712D01*
X173626609Y-81970312D01*
X173576638Y-81919879D01*
X173561866Y-81850437D01*
X173586982Y-81784031D01*
X173614334Y-81757424D01*
X173637804Y-81740683D01*
X173793867Y-81629365D01*
X173952103Y-81471681D01*
X174011601Y-81388881D01*
X174079442Y-81294469D01*
X174082460Y-81290269D01*
X174086618Y-81281857D01*
X174179143Y-81094645D01*
X174179144Y-81094643D01*
X174181437Y-81090003D01*
X174246377Y-80876261D01*
X174275536Y-80654782D01*
X174277163Y-80588192D01*
X174258859Y-80365553D01*
X174204438Y-80148894D01*
X174115361Y-79944032D01*
X173994021Y-79756469D01*
X173843677Y-79591243D01*
X173839626Y-79588044D01*
X173839622Y-79588040D01*
X173672421Y-79455992D01*
X173672417Y-79455990D01*
X173668366Y-79452790D01*
X173627060Y-79429988D01*
X173577091Y-79379556D01*
X173562319Y-79310113D01*
X173587435Y-79243708D01*
X173614787Y-79217101D01*
X173658610Y-79185842D01*
X173793867Y-79089365D01*
X173820955Y-79062372D01*
X173948442Y-78935329D01*
X173952103Y-78931681D01*
X173955119Y-78927484D01*
X174001336Y-78863166D01*
X174057331Y-78819518D01*
X174103659Y-78810692D01*
X177151048Y-78810692D01*
X177219169Y-78830694D01*
X177238970Y-78846438D01*
X177245994Y-78853280D01*
X177307656Y-78913349D01*
X177312452Y-78916554D01*
X177312455Y-78916556D01*
X177340551Y-78935329D01*
X177477049Y-79026534D01*
X177482352Y-79028812D01*
X177482355Y-79028814D01*
X177623291Y-79089365D01*
X177664233Y-79106955D01*
X177737063Y-79123435D01*
X177857301Y-79150642D01*
X177857306Y-79150643D01*
X177862938Y-79151917D01*
X177868709Y-79152144D01*
X177868711Y-79152144D01*
X177931716Y-79154619D01*
X178066509Y-79159915D01*
X178268129Y-79130682D01*
X178273593Y-79128827D01*
X178273598Y-79128826D01*
X178455573Y-79067054D01*
X178455578Y-79067052D01*
X178461045Y-79065196D01*
X178638797Y-78965650D01*
X178795432Y-78835378D01*
X178925704Y-78678743D01*
X179025250Y-78500991D01*
X179027106Y-78495524D01*
X179027108Y-78495519D01*
X179088880Y-78313544D01*
X179088881Y-78313539D01*
X179090736Y-78308075D01*
X179119969Y-78106455D01*
X179121495Y-78048192D01*
X179118435Y-78014887D01*
X180732258Y-78014887D01*
X180732555Y-78020040D01*
X180732555Y-78020043D01*
X180738018Y-78114782D01*
X180745117Y-78237907D01*
X180746254Y-78242953D01*
X180746255Y-78242959D01*
X180760930Y-78308075D01*
X180794229Y-78455831D01*
X180878273Y-78662808D01*
X180929026Y-78745630D01*
X180986286Y-78839069D01*
X180994994Y-78853280D01*
X181141257Y-79022130D01*
X181244965Y-79108230D01*
X181306222Y-79159086D01*
X181313133Y-79164824D01*
X181386452Y-79207668D01*
X181386962Y-79207966D01*
X181435686Y-79259604D01*
X181448757Y-79329387D01*
X181422026Y-79395159D01*
X181381569Y-79428519D01*
X181373464Y-79432738D01*
X181364745Y-79438228D01*
X181194440Y-79566097D01*
X181186733Y-79572940D01*
X181039597Y-79726909D01*
X181033111Y-79734919D01*
X180913105Y-79910841D01*
X180908007Y-79919815D01*
X180818345Y-80112975D01*
X180814782Y-80122662D01*
X180759396Y-80322375D01*
X180760919Y-80330799D01*
X180773299Y-80334192D01*
X183413351Y-80334192D01*
X183426882Y-80330219D01*
X183428187Y-80321139D01*
X183386221Y-80154067D01*
X183382901Y-80144316D01*
X183297979Y-79949006D01*
X183293112Y-79939931D01*
X183177433Y-79761118D01*
X183171143Y-79752949D01*
X183027813Y-79595432D01*
X183020280Y-79588407D01*
X182853146Y-79456414D01*
X182844563Y-79450712D01*
X182807609Y-79430312D01*
X182757638Y-79379879D01*
X182742866Y-79310437D01*
X182767982Y-79244031D01*
X182795334Y-79217424D01*
X182818804Y-79200683D01*
X182974867Y-79089365D01*
X183001955Y-79062372D01*
X183129442Y-78935329D01*
X183133103Y-78931681D01*
X183143972Y-78916556D01*
X183260442Y-78754469D01*
X183263460Y-78750269D01*
X183301305Y-78673696D01*
X183360143Y-78554645D01*
X183360144Y-78554643D01*
X183362437Y-78550003D01*
X183427377Y-78336261D01*
X183456536Y-78114782D01*
X183456650Y-78110129D01*
X183458081Y-78051557D01*
X183458081Y-78051553D01*
X183458163Y-78048192D01*
X183439859Y-77825553D01*
X183385438Y-77608894D01*
X183296361Y-77404032D01*
X183228650Y-77299367D01*
X183177829Y-77220809D01*
X183177827Y-77220806D01*
X183175021Y-77216469D01*
X183171539Y-77212642D01*
X183027805Y-77054680D01*
X182996753Y-76990834D01*
X183005148Y-76920335D01*
X183050324Y-76865567D01*
X183076768Y-76851898D01*
X183183304Y-76811959D01*
X183191712Y-76808807D01*
X183308268Y-76721453D01*
X183395622Y-76604897D01*
X183446752Y-76468508D01*
X183453507Y-76406326D01*
X183453507Y-75903756D01*
X183473509Y-75835635D01*
X183527165Y-75789142D01*
X183597439Y-75779038D01*
X183662019Y-75808532D01*
X183688108Y-75839866D01*
X183696326Y-75853835D01*
X183698000Y-75856769D01*
X183735055Y-75923811D01*
X183739974Y-75929230D01*
X183740696Y-75930239D01*
X183741166Y-75930962D01*
X183742253Y-75932439D01*
X183742709Y-75932989D01*
X183743547Y-75934096D01*
X183747259Y-75940406D01*
X183800649Y-75996140D01*
X183802909Y-75998564D01*
X183854481Y-76055379D01*
X183858927Y-76058799D01*
X183863390Y-76062232D01*
X183863377Y-76062248D01*
X183865684Y-76064031D01*
X183870175Y-76068719D01*
X183876323Y-76072701D01*
X183938973Y-76113279D01*
X183940962Y-76114594D01*
X185847688Y-77401646D01*
X185871846Y-77417953D01*
X185888003Y-77430913D01*
X185899441Y-77441748D01*
X185950668Y-77471503D01*
X185957864Y-77476015D01*
X185969557Y-77483908D01*
X185972798Y-77485586D01*
X185972805Y-77485590D01*
X185989536Y-77494251D01*
X185994894Y-77497192D01*
X186034475Y-77520182D01*
X186053089Y-77530994D01*
X186060090Y-77533114D01*
X186060869Y-77533453D01*
X186080252Y-77541327D01*
X186081077Y-77541639D01*
X186087577Y-77545004D01*
X186131821Y-77556093D01*
X186152848Y-77561363D01*
X186158738Y-77562992D01*
X186216143Y-77580378D01*
X186216145Y-77580378D01*
X186223147Y-77582499D01*
X186230455Y-77582952D01*
X186231304Y-77583105D01*
X186251988Y-77586311D01*
X186252829Y-77586421D01*
X186259933Y-77588201D01*
X186327252Y-77589105D01*
X186333349Y-77589336D01*
X186400493Y-77593501D01*
X186407714Y-77592260D01*
X186408585Y-77592213D01*
X186429456Y-77590574D01*
X186430284Y-77590489D01*
X186437604Y-77590587D01*
X186503320Y-77575981D01*
X186509303Y-77574804D01*
X186575613Y-77563410D01*
X186582345Y-77560545D01*
X186583162Y-77560305D01*
X186603090Y-77553911D01*
X186603910Y-77553626D01*
X186611059Y-77552037D01*
X186617648Y-77548848D01*
X186617655Y-77548845D01*
X186671637Y-77522713D01*
X186677205Y-77520182D01*
X186732375Y-77496708D01*
X186732382Y-77496704D01*
X186739113Y-77493840D01*
X186745012Y-77489499D01*
X186745778Y-77489062D01*
X186763694Y-77478258D01*
X186764402Y-77477807D01*
X186770992Y-77474617D01*
X186823224Y-77432124D01*
X186827993Y-77428432D01*
X186882224Y-77388522D01*
X186886968Y-77382938D01*
X186888572Y-77381442D01*
X186952033Y-77349611D01*
X187022629Y-77357143D01*
X187077947Y-77401646D01*
X187100506Y-77473591D01*
X187100506Y-84719743D01*
X187080504Y-84787864D01*
X187026848Y-84834357D01*
X186956574Y-84844461D01*
X186888979Y-84812269D01*
X186859471Y-84784992D01*
X186756057Y-84719743D01*
X186692056Y-84679361D01*
X186692051Y-84679359D01*
X186687172Y-84676280D01*
X186497948Y-84600787D01*
X186298134Y-84561041D01*
X186292360Y-84560965D01*
X186292356Y-84560965D01*
X186189220Y-84559616D01*
X186094423Y-84558375D01*
X186088726Y-84559354D01*
X186088725Y-84559354D01*
X185899335Y-84591897D01*
X185893638Y-84592876D01*
X185702502Y-84663390D01*
X185527417Y-84767555D01*
X185374246Y-84901882D01*
X185370679Y-84906407D01*
X185370674Y-84906412D01*
X185312902Y-84979696D01*
X185248119Y-85061873D01*
X185245430Y-85066984D01*
X185245428Y-85066987D01*
X185206415Y-85141139D01*
X185153260Y-85242170D01*
X185092846Y-85436735D01*
X185068900Y-85639051D01*
X185082225Y-85842343D01*
X185132373Y-86039802D01*
X185217666Y-86224816D01*
X185335247Y-86391189D01*
X185481178Y-86533349D01*
X185485974Y-86536554D01*
X185485977Y-86536556D01*
X185559452Y-86585650D01*
X185650571Y-86646534D01*
X185655874Y-86648812D01*
X185655877Y-86648814D01*
X185796813Y-86709365D01*
X185837755Y-86726955D01*
X185910585Y-86743435D01*
X186030823Y-86770642D01*
X186030828Y-86770643D01*
X186036460Y-86771917D01*
X186042231Y-86772144D01*
X186042233Y-86772144D01*
X186105238Y-86774619D01*
X186240031Y-86779915D01*
X186441651Y-86750682D01*
X186447115Y-86748827D01*
X186447120Y-86748826D01*
X186629095Y-86687054D01*
X186629100Y-86687052D01*
X186634567Y-86685196D01*
X186812319Y-86585650D01*
X186968954Y-86455378D01*
X187099226Y-86298743D01*
X187102042Y-86293715D01*
X187102048Y-86293706D01*
X187125250Y-86252275D01*
X187175987Y-86202614D01*
X187231225Y-86187904D01*
X187280524Y-86186354D01*
X187291993Y-86185994D01*
X187295951Y-86185932D01*
X187323862Y-86185932D01*
X187327797Y-86185435D01*
X187327862Y-86185427D01*
X187339699Y-86184494D01*
X187371957Y-86183480D01*
X187375976Y-86183354D01*
X187383895Y-86183105D01*
X187403349Y-86177453D01*
X187422706Y-86173445D01*
X187434936Y-86171900D01*
X187434937Y-86171900D01*
X187442803Y-86170906D01*
X187478122Y-86156922D01*
X187548822Y-86150443D01*
X187611802Y-86183215D01*
X187647066Y-86244834D01*
X187650506Y-86274074D01*
X187650506Y-87287837D01*
X187630504Y-87355958D01*
X187613601Y-87376932D01*
X187508506Y-87482027D01*
X187446194Y-87516053D01*
X187419411Y-87518932D01*
X187113793Y-87518932D01*
X187045672Y-87498930D01*
X187016703Y-87471925D01*
X187016394Y-87472203D01*
X187013226Y-87468684D01*
X187012835Y-87468320D01*
X187012530Y-87467911D01*
X187012523Y-87467904D01*
X187009073Y-87463283D01*
X186891504Y-87354603D01*
X186863711Y-87328911D01*
X186863708Y-87328909D01*
X186859471Y-87324992D01*
X186800584Y-87287837D01*
X186692056Y-87219361D01*
X186692051Y-87219359D01*
X186687172Y-87216280D01*
X186497948Y-87140787D01*
X186298134Y-87101041D01*
X186292360Y-87100965D01*
X186292356Y-87100965D01*
X186189220Y-87099616D01*
X186094423Y-87098375D01*
X186088726Y-87099354D01*
X186088725Y-87099354D01*
X185899335Y-87131897D01*
X185893638Y-87132876D01*
X185702502Y-87203390D01*
X185527417Y-87307555D01*
X185374246Y-87441882D01*
X185370679Y-87446407D01*
X185370674Y-87446412D01*
X185309089Y-87524533D01*
X185248119Y-87601873D01*
X185245430Y-87606984D01*
X185245428Y-87606987D01*
X185223237Y-87649166D01*
X185153260Y-87782170D01*
X185092846Y-87976735D01*
X185068900Y-88179051D01*
X185082225Y-88382343D01*
X185132373Y-88579802D01*
X185217666Y-88764816D01*
X185335247Y-88931189D01*
X185481178Y-89073349D01*
X185485974Y-89076554D01*
X185485977Y-89076556D01*
X185514073Y-89095329D01*
X185650571Y-89186534D01*
X185655874Y-89188812D01*
X185655877Y-89188814D01*
X185796813Y-89249365D01*
X185837755Y-89266955D01*
X185910585Y-89283435D01*
X186030823Y-89310642D01*
X186030828Y-89310643D01*
X186036460Y-89311917D01*
X186042231Y-89312144D01*
X186042233Y-89312144D01*
X186105238Y-89314619D01*
X186240031Y-89319915D01*
X186441651Y-89290682D01*
X186447115Y-89288827D01*
X186447120Y-89288826D01*
X186629095Y-89227054D01*
X186629100Y-89227052D01*
X186634567Y-89225196D01*
X186812319Y-89125650D01*
X186968954Y-88995378D01*
X187099226Y-88838743D01*
X187099397Y-88838885D01*
X187152399Y-88795755D01*
X187201172Y-88785932D01*
X187655239Y-88785932D01*
X187666422Y-88786459D01*
X187673915Y-88788134D01*
X187681841Y-88787885D01*
X187681842Y-88787885D01*
X187741992Y-88785994D01*
X187745951Y-88785932D01*
X187773862Y-88785932D01*
X187777797Y-88785435D01*
X187777862Y-88785427D01*
X187789699Y-88784494D01*
X187821957Y-88783480D01*
X187825976Y-88783354D01*
X187833895Y-88783105D01*
X187853349Y-88777453D01*
X187872706Y-88773445D01*
X187884936Y-88771900D01*
X187884937Y-88771900D01*
X187892803Y-88770906D01*
X187900174Y-88767987D01*
X187900176Y-88767987D01*
X187933918Y-88754628D01*
X187945148Y-88750783D01*
X187979989Y-88740661D01*
X187979990Y-88740661D01*
X187987599Y-88738450D01*
X187994418Y-88734417D01*
X187994423Y-88734415D01*
X188005034Y-88728139D01*
X188022782Y-88719444D01*
X188041623Y-88711984D01*
X188051169Y-88705049D01*
X188077393Y-88685996D01*
X188087313Y-88679480D01*
X188118541Y-88661012D01*
X188118544Y-88661010D01*
X188125368Y-88656974D01*
X188135411Y-88646931D01*
X188197723Y-88612905D01*
X188268538Y-88617970D01*
X188325374Y-88660517D01*
X188350185Y-88727037D01*
X188350506Y-88736026D01*
X188350506Y-89537837D01*
X188330504Y-89605958D01*
X188313601Y-89626933D01*
X187862745Y-90077788D01*
X187800433Y-90111813D01*
X187773650Y-90114692D01*
X187155431Y-90114692D01*
X187087310Y-90094690D01*
X187054473Y-90064081D01*
X187012526Y-90007907D01*
X187012525Y-90007906D01*
X187009073Y-90003283D01*
X186889226Y-89892497D01*
X186863711Y-89868911D01*
X186863708Y-89868909D01*
X186859471Y-89864992D01*
X186782795Y-89816613D01*
X186692056Y-89759361D01*
X186692051Y-89759359D01*
X186687172Y-89756280D01*
X186497948Y-89680787D01*
X186298134Y-89641041D01*
X186292360Y-89640965D01*
X186292356Y-89640965D01*
X186189220Y-89639616D01*
X186094423Y-89638375D01*
X186088726Y-89639354D01*
X186088725Y-89639354D01*
X185899335Y-89671897D01*
X185893638Y-89672876D01*
X185702502Y-89743390D01*
X185697541Y-89746342D01*
X185697540Y-89746342D01*
X185579426Y-89816613D01*
X185527417Y-89847555D01*
X185374246Y-89981882D01*
X185370679Y-89986407D01*
X185370674Y-89986412D01*
X185312902Y-90059696D01*
X185248119Y-90141873D01*
X185153260Y-90322170D01*
X185092846Y-90516735D01*
X185068900Y-90719051D01*
X185082225Y-90922343D01*
X185132373Y-91119802D01*
X185217666Y-91304816D01*
X185335247Y-91471189D01*
X185339381Y-91475216D01*
X185449313Y-91582307D01*
X185481178Y-91613349D01*
X185485974Y-91616554D01*
X185485977Y-91616556D01*
X185514073Y-91635329D01*
X185650571Y-91726534D01*
X185655874Y-91728812D01*
X185655877Y-91728814D01*
X185832448Y-91804675D01*
X185837755Y-91806955D01*
X185910585Y-91823435D01*
X186030823Y-91850642D01*
X186030828Y-91850643D01*
X186036460Y-91851917D01*
X186042231Y-91852144D01*
X186042233Y-91852144D01*
X186105238Y-91854619D01*
X186240031Y-91859915D01*
X186441651Y-91830682D01*
X186447115Y-91828827D01*
X186447120Y-91828826D01*
X186629095Y-91767054D01*
X186629100Y-91767052D01*
X186634567Y-91765196D01*
X186812319Y-91665650D01*
X186968954Y-91535378D01*
X187019630Y-91474447D01*
X187058989Y-91427123D01*
X187117927Y-91387539D01*
X187155863Y-91381692D01*
X188009479Y-91381692D01*
X188020662Y-91382219D01*
X188028155Y-91383894D01*
X188036081Y-91383645D01*
X188036082Y-91383645D01*
X188096232Y-91381754D01*
X188100191Y-91381692D01*
X188128102Y-91381692D01*
X188132037Y-91381195D01*
X188132102Y-91381187D01*
X188143944Y-91380254D01*
X188149795Y-91380070D01*
X188168529Y-91379482D01*
X188237244Y-91397336D01*
X188285398Y-91449506D01*
X188295629Y-91516569D01*
X188297275Y-91516621D01*
X188297026Y-91524546D01*
X188295786Y-91532375D01*
X188296532Y-91540267D01*
X188299947Y-91576393D01*
X188300506Y-91588251D01*
X188300506Y-92237837D01*
X188280504Y-92305958D01*
X188263601Y-92326933D01*
X187972745Y-92617788D01*
X187910433Y-92651813D01*
X187883650Y-92654692D01*
X187155431Y-92654692D01*
X187087310Y-92634690D01*
X187054473Y-92604081D01*
X187012526Y-92547907D01*
X187012525Y-92547906D01*
X187009073Y-92543283D01*
X186891504Y-92434603D01*
X186863711Y-92408911D01*
X186863708Y-92408909D01*
X186859471Y-92404992D01*
X186813443Y-92375951D01*
X186692056Y-92299361D01*
X186692051Y-92299359D01*
X186687172Y-92296280D01*
X186497948Y-92220787D01*
X186298134Y-92181041D01*
X186292360Y-92180965D01*
X186292356Y-92180965D01*
X186189220Y-92179616D01*
X186094423Y-92178375D01*
X186088726Y-92179354D01*
X186088725Y-92179354D01*
X185899335Y-92211897D01*
X185893638Y-92212876D01*
X185702502Y-92283390D01*
X185697541Y-92286342D01*
X185697540Y-92286342D01*
X185691345Y-92290028D01*
X185527417Y-92387555D01*
X185374246Y-92521882D01*
X185370679Y-92526407D01*
X185370674Y-92526412D01*
X185300938Y-92614872D01*
X185248119Y-92681873D01*
X185245430Y-92686984D01*
X185245428Y-92686987D01*
X185220680Y-92734025D01*
X185153260Y-92862170D01*
X185092846Y-93056735D01*
X185068900Y-93259051D01*
X185082225Y-93462343D01*
X185132373Y-93659802D01*
X185217666Y-93844816D01*
X185335247Y-94011189D01*
X185481178Y-94153349D01*
X185485974Y-94156554D01*
X185485977Y-94156556D01*
X185514073Y-94175329D01*
X185650571Y-94266534D01*
X185655874Y-94268812D01*
X185655877Y-94268814D01*
X185796813Y-94329365D01*
X185837755Y-94346955D01*
X185910585Y-94363435D01*
X186030823Y-94390642D01*
X186030828Y-94390643D01*
X186036460Y-94391917D01*
X186042231Y-94392144D01*
X186042233Y-94392144D01*
X186105238Y-94394619D01*
X186240031Y-94399915D01*
X186441651Y-94370682D01*
X186447115Y-94368827D01*
X186447120Y-94368826D01*
X186629095Y-94307054D01*
X186629100Y-94307052D01*
X186634567Y-94305196D01*
X186812319Y-94205650D01*
X186968954Y-94075378D01*
X187018990Y-94015216D01*
X187058989Y-93967123D01*
X187117927Y-93927539D01*
X187155863Y-93921692D01*
X188119479Y-93921692D01*
X188130662Y-93922219D01*
X188138155Y-93923894D01*
X188146081Y-93923645D01*
X188146082Y-93923645D01*
X188206232Y-93921754D01*
X188210191Y-93921692D01*
X188238102Y-93921692D01*
X188242037Y-93921195D01*
X188242102Y-93921187D01*
X188253939Y-93920254D01*
X188286197Y-93919240D01*
X188290216Y-93919114D01*
X188298135Y-93918865D01*
X188317589Y-93913213D01*
X188336946Y-93909205D01*
X188349176Y-93907660D01*
X188349177Y-93907660D01*
X188357043Y-93906666D01*
X188364414Y-93903747D01*
X188364416Y-93903747D01*
X188398158Y-93890388D01*
X188409388Y-93886543D01*
X188444229Y-93876421D01*
X188444230Y-93876421D01*
X188451839Y-93874210D01*
X188458658Y-93870177D01*
X188458663Y-93870175D01*
X188469274Y-93863899D01*
X188487022Y-93855204D01*
X188505863Y-93847744D01*
X188517113Y-93839571D01*
X188541633Y-93821756D01*
X188551553Y-93815240D01*
X188582781Y-93796772D01*
X188582784Y-93796770D01*
X188589608Y-93792734D01*
X188603929Y-93778413D01*
X188618963Y-93765572D01*
X188628939Y-93758324D01*
X188628940Y-93758323D01*
X188635353Y-93753664D01*
X188663534Y-93719599D01*
X188671524Y-93710818D01*
X189326264Y-93056079D01*
X189334543Y-93048545D01*
X189341024Y-93044432D01*
X189387650Y-92994780D01*
X189390404Y-92991939D01*
X189410141Y-92972202D01*
X189412621Y-92969005D01*
X189420326Y-92959983D01*
X189428983Y-92950764D01*
X189450592Y-92927753D01*
X189454411Y-92920807D01*
X189454413Y-92920804D01*
X189460354Y-92909998D01*
X189471205Y-92893479D01*
X189478764Y-92883733D01*
X189483620Y-92877473D01*
X189486765Y-92870204D01*
X189486768Y-92870200D01*
X189501180Y-92836895D01*
X189506397Y-92826245D01*
X189527701Y-92787492D01*
X189532739Y-92767869D01*
X189539143Y-92749166D01*
X189544039Y-92737852D01*
X189544039Y-92737851D01*
X189547187Y-92730577D01*
X189548426Y-92722754D01*
X189548429Y-92722744D01*
X189554105Y-92686908D01*
X189556511Y-92675288D01*
X189565534Y-92640143D01*
X189565534Y-92640142D01*
X189567506Y-92632462D01*
X189567506Y-92612208D01*
X189569057Y-92592497D01*
X189570986Y-92580318D01*
X189572226Y-92572489D01*
X189568065Y-92528470D01*
X189567506Y-92516613D01*
X189567506Y-91867027D01*
X189587508Y-91798906D01*
X189604411Y-91777931D01*
X189931157Y-91451186D01*
X189993469Y-91417161D01*
X190064285Y-91422226D01*
X190121120Y-91464773D01*
X190127685Y-91474447D01*
X190175994Y-91553280D01*
X190322257Y-91722130D01*
X190425965Y-91808230D01*
X190487222Y-91859086D01*
X190494133Y-91864824D01*
X190564602Y-91906003D01*
X190567452Y-91907668D01*
X190616176Y-91959306D01*
X190629247Y-92029089D01*
X190602516Y-92094861D01*
X190562062Y-92128219D01*
X190549614Y-92134699D01*
X190545481Y-92137802D01*
X190545478Y-92137804D01*
X190375107Y-92265722D01*
X190370972Y-92268827D01*
X190367400Y-92272565D01*
X190240850Y-92404992D01*
X190216636Y-92430330D01*
X190090750Y-92614872D01*
X190051930Y-92698502D01*
X190001471Y-92807209D01*
X189996695Y-92817497D01*
X189936996Y-93032762D01*
X189913258Y-93254887D01*
X189913555Y-93260040D01*
X189913555Y-93260043D01*
X189919018Y-93354782D01*
X189926117Y-93477907D01*
X189927254Y-93482953D01*
X189927255Y-93482959D01*
X189947126Y-93571131D01*
X189975229Y-93695831D01*
X190033595Y-93839571D01*
X190052669Y-93886543D01*
X190059273Y-93902808D01*
X190074428Y-93927539D01*
X190167286Y-94079069D01*
X190175994Y-94093280D01*
X190322257Y-94262130D01*
X190425965Y-94348230D01*
X190487222Y-94399086D01*
X190494133Y-94404824D01*
X190687007Y-94517530D01*
X190895699Y-94597222D01*
X190900767Y-94598253D01*
X190900770Y-94598254D01*
X191008024Y-94620075D01*
X191114604Y-94641759D01*
X191119779Y-94641949D01*
X191119781Y-94641949D01*
X191332680Y-94649756D01*
X191332684Y-94649756D01*
X191337844Y-94649945D01*
X191342964Y-94649289D01*
X191342966Y-94649289D01*
X191554295Y-94622217D01*
X191554296Y-94622217D01*
X191559423Y-94621560D01*
X191564373Y-94620075D01*
X191768436Y-94558853D01*
X191768441Y-94558851D01*
X191773391Y-94557366D01*
X191974001Y-94459088D01*
X192155867Y-94329365D01*
X192182955Y-94302372D01*
X192310442Y-94175329D01*
X192314103Y-94171681D01*
X192324972Y-94156556D01*
X192441442Y-93994469D01*
X192444460Y-93990269D01*
X192448152Y-93982800D01*
X192541143Y-93794645D01*
X192541144Y-93794643D01*
X192543437Y-93790003D01*
X192608377Y-93576261D01*
X192637536Y-93354782D01*
X192639163Y-93288192D01*
X192620859Y-93065553D01*
X192566438Y-92848894D01*
X192477361Y-92644032D01*
X192383094Y-92498317D01*
X192358829Y-92460809D01*
X192358827Y-92460806D01*
X192356021Y-92456469D01*
X192205677Y-92291243D01*
X192201626Y-92288044D01*
X192201622Y-92288040D01*
X192034421Y-92155992D01*
X192034417Y-92155990D01*
X192030366Y-92152790D01*
X191989060Y-92129988D01*
X191939091Y-92079556D01*
X191924319Y-92010113D01*
X191949435Y-91943708D01*
X191976787Y-91917101D01*
X192020610Y-91885842D01*
X192155867Y-91789365D01*
X192182955Y-91762372D01*
X192310442Y-91635329D01*
X192314103Y-91631681D01*
X192324972Y-91616556D01*
X192441442Y-91454469D01*
X192444460Y-91450269D01*
X192455900Y-91427123D01*
X192541143Y-91254645D01*
X192541144Y-91254643D01*
X192543437Y-91250003D01*
X192608377Y-91036261D01*
X192637536Y-90814782D01*
X192639163Y-90748192D01*
X192620859Y-90525553D01*
X192566438Y-90308894D01*
X192477361Y-90104032D01*
X192382334Y-89957142D01*
X192358829Y-89920809D01*
X192358827Y-89920806D01*
X192356021Y-89916469D01*
X192205677Y-89751243D01*
X192201626Y-89748044D01*
X192201622Y-89748040D01*
X192034421Y-89615992D01*
X192034417Y-89615990D01*
X192030366Y-89612790D01*
X191989060Y-89589988D01*
X191939091Y-89539556D01*
X191924319Y-89470113D01*
X191949435Y-89403708D01*
X191976787Y-89377101D01*
X192020610Y-89345842D01*
X192155867Y-89249365D01*
X192182955Y-89222372D01*
X192310442Y-89095329D01*
X192314103Y-89091681D01*
X192324972Y-89076556D01*
X192441442Y-88914469D01*
X192444460Y-88910269D01*
X192448152Y-88902800D01*
X192541143Y-88714645D01*
X192541144Y-88714643D01*
X192543437Y-88710003D01*
X192608377Y-88496261D01*
X192637536Y-88274782D01*
X192639163Y-88208192D01*
X192620859Y-87985553D01*
X192566438Y-87768894D01*
X192477361Y-87564032D01*
X192385837Y-87422557D01*
X192358829Y-87380809D01*
X192358827Y-87380806D01*
X192356021Y-87376469D01*
X192205677Y-87211243D01*
X192201626Y-87208044D01*
X192201622Y-87208040D01*
X192034421Y-87075992D01*
X192034417Y-87075990D01*
X192030366Y-87072790D01*
X191989060Y-87049988D01*
X191939091Y-86999556D01*
X191924319Y-86930113D01*
X191949435Y-86863708D01*
X191976787Y-86837101D01*
X192020610Y-86805842D01*
X192155867Y-86709365D01*
X192182955Y-86682372D01*
X192267569Y-86598053D01*
X192314103Y-86551681D01*
X192324972Y-86536556D01*
X192441442Y-86374469D01*
X192444460Y-86370269D01*
X192448618Y-86361857D01*
X192541143Y-86174645D01*
X192541144Y-86174643D01*
X192543437Y-86170003D01*
X192608377Y-85956261D01*
X192637536Y-85734782D01*
X192637650Y-85730129D01*
X192639081Y-85671557D01*
X192639081Y-85671553D01*
X192639163Y-85668192D01*
X192620859Y-85445553D01*
X192566438Y-85228894D01*
X192477361Y-85024032D01*
X192395877Y-84898077D01*
X192358829Y-84840809D01*
X192358827Y-84840806D01*
X192356021Y-84836469D01*
X192205677Y-84671243D01*
X192201626Y-84668044D01*
X192201622Y-84668040D01*
X192034421Y-84535992D01*
X192034417Y-84535990D01*
X192030366Y-84532790D01*
X191989060Y-84509988D01*
X191939091Y-84459556D01*
X191924319Y-84390113D01*
X191949435Y-84323708D01*
X191976787Y-84297101D01*
X192020610Y-84265842D01*
X192155867Y-84169365D01*
X192182955Y-84142372D01*
X192310442Y-84015329D01*
X192314103Y-84011681D01*
X192324972Y-83996556D01*
X192441442Y-83834469D01*
X192444460Y-83830269D01*
X192482305Y-83753696D01*
X192541143Y-83634645D01*
X192541144Y-83634643D01*
X192543437Y-83630003D01*
X192608377Y-83416261D01*
X192637536Y-83194782D01*
X192637650Y-83190129D01*
X192639081Y-83131557D01*
X192639081Y-83131553D01*
X192639163Y-83128192D01*
X192620859Y-82905553D01*
X192566438Y-82688894D01*
X192477361Y-82484032D01*
X192356021Y-82296469D01*
X192205677Y-82131243D01*
X192201626Y-82128044D01*
X192201622Y-82128040D01*
X192034421Y-81995992D01*
X192034417Y-81995990D01*
X192030366Y-81992790D01*
X191989060Y-81969988D01*
X191939091Y-81919556D01*
X191924319Y-81850113D01*
X191949435Y-81783708D01*
X191976787Y-81757101D01*
X192020610Y-81725842D01*
X192155867Y-81629365D01*
X192314103Y-81471681D01*
X192373601Y-81388881D01*
X192441442Y-81294469D01*
X192444460Y-81290269D01*
X192448618Y-81281857D01*
X192541143Y-81094645D01*
X192541144Y-81094643D01*
X192543437Y-81090003D01*
X192608377Y-80876261D01*
X192637536Y-80654782D01*
X192639163Y-80588192D01*
X192620859Y-80365553D01*
X192566438Y-80148894D01*
X192477361Y-79944032D01*
X192356021Y-79756469D01*
X192205677Y-79591243D01*
X192201626Y-79588044D01*
X192201622Y-79588040D01*
X192034421Y-79455992D01*
X192034417Y-79455990D01*
X192030366Y-79452790D01*
X191989060Y-79429988D01*
X191939091Y-79379556D01*
X191924319Y-79310113D01*
X191949435Y-79243708D01*
X191976787Y-79217101D01*
X192020610Y-79185842D01*
X192155867Y-79089365D01*
X192182955Y-79062372D01*
X192310442Y-78935329D01*
X192314103Y-78931681D01*
X192324972Y-78916556D01*
X192441442Y-78754469D01*
X192444460Y-78750269D01*
X192482305Y-78673696D01*
X192541143Y-78554645D01*
X192541144Y-78554643D01*
X192543437Y-78550003D01*
X192608377Y-78336261D01*
X192637536Y-78114782D01*
X192637650Y-78110129D01*
X192639081Y-78051557D01*
X192639081Y-78051553D01*
X192639163Y-78048192D01*
X192620859Y-77825553D01*
X192566438Y-77608894D01*
X192477361Y-77404032D01*
X192409650Y-77299367D01*
X192358829Y-77220809D01*
X192358827Y-77220806D01*
X192356021Y-77216469D01*
X192205677Y-77051243D01*
X192201626Y-77048044D01*
X192201622Y-77048040D01*
X192034421Y-76915992D01*
X192034417Y-76915990D01*
X192030366Y-76912790D01*
X191989060Y-76889988D01*
X191939091Y-76839556D01*
X191924319Y-76770113D01*
X191949435Y-76703708D01*
X191976787Y-76677101D01*
X192020610Y-76645842D01*
X192155867Y-76549365D01*
X192314103Y-76391681D01*
X192369322Y-76314836D01*
X192441442Y-76214469D01*
X192444460Y-76210269D01*
X192448618Y-76201857D01*
X192541143Y-76014645D01*
X192541144Y-76014643D01*
X192543437Y-76010003D01*
X192608377Y-75796261D01*
X192637536Y-75574782D01*
X192639163Y-75508192D01*
X192620859Y-75285553D01*
X192566438Y-75068894D01*
X192477361Y-74864032D01*
X192356021Y-74676469D01*
X192205677Y-74511243D01*
X192201626Y-74508044D01*
X192201622Y-74508040D01*
X192034421Y-74375992D01*
X192034417Y-74375990D01*
X192030366Y-74372790D01*
X191834796Y-74264830D01*
X191829927Y-74263106D01*
X191829923Y-74263104D01*
X191629094Y-74191987D01*
X191629090Y-74191986D01*
X191624219Y-74190261D01*
X191619126Y-74189354D01*
X191619123Y-74189353D01*
X191409380Y-74151992D01*
X191409374Y-74151991D01*
X191404291Y-74151086D01*
X191330459Y-74150184D01*
X191186088Y-74148420D01*
X191186086Y-74148420D01*
X191180918Y-74148357D01*
X190960098Y-74182147D01*
X190747763Y-74251549D01*
X190549614Y-74354699D01*
X190545481Y-74357802D01*
X190545478Y-74357804D01*
X190375107Y-74485722D01*
X190370972Y-74488827D01*
X190216636Y-74650330D01*
X190213722Y-74654602D01*
X190213721Y-74654603D01*
X190101102Y-74819696D01*
X190046191Y-74864699D01*
X189997014Y-74874692D01*
X188393620Y-74874692D01*
X188366136Y-74871657D01*
X188352861Y-74868690D01*
X188351837Y-74868461D01*
X188351836Y-74868461D01*
X188344097Y-74866731D01*
X188336174Y-74866980D01*
X188336173Y-74866980D01*
X188336089Y-74866983D01*
X188335865Y-74866990D01*
X188312197Y-74865500D01*
X188304063Y-74864212D01*
X188296171Y-74864958D01*
X188296168Y-74864958D01*
X188248142Y-74869498D01*
X188240242Y-74869995D01*
X188193814Y-74871454D01*
X188184116Y-74871759D01*
X188176207Y-74874057D01*
X188152913Y-74878500D01*
X188152604Y-74878529D01*
X188152603Y-74878529D01*
X188144714Y-74879275D01*
X188137256Y-74881960D01*
X188091874Y-74898298D01*
X188084352Y-74900743D01*
X188030412Y-74916414D01*
X188023586Y-74920451D01*
X188023325Y-74920605D01*
X188001864Y-74930704D01*
X187994117Y-74933493D01*
X187967568Y-74951536D01*
X187947667Y-74965061D01*
X187940982Y-74969303D01*
X187892643Y-74997890D01*
X187886821Y-75003712D01*
X187868553Y-75018827D01*
X187861735Y-75023460D01*
X187856491Y-75029408D01*
X187856490Y-75029409D01*
X187824595Y-75065587D01*
X187819176Y-75071357D01*
X187341753Y-75548780D01*
X187333465Y-75556321D01*
X187326988Y-75560432D01*
X187325165Y-75562373D01*
X187262077Y-75589457D01*
X187192052Y-75577748D01*
X187139475Y-75530039D01*
X187121004Y-75464362D01*
X187121004Y-74200830D01*
X187122707Y-74180184D01*
X187124088Y-74171870D01*
X187125288Y-74164646D01*
X187124734Y-74156447D01*
X187121291Y-74105548D01*
X187121004Y-74097046D01*
X187121004Y-74082938D01*
X187118399Y-74060596D01*
X187117840Y-74054525D01*
X187113792Y-73994669D01*
X187113298Y-73987364D01*
X187111135Y-73980363D01*
X187110979Y-73979524D01*
X187106660Y-73959047D01*
X187106462Y-73958208D01*
X187105614Y-73950936D01*
X187082659Y-73887694D01*
X187080715Y-73881906D01*
X187063005Y-73824586D01*
X187063004Y-73824584D01*
X187060845Y-73817596D01*
X187057134Y-73811288D01*
X187056782Y-73810491D01*
X187047854Y-73791527D01*
X187047484Y-73790788D01*
X187044988Y-73783912D01*
X187008086Y-73727627D01*
X187004859Y-73722434D01*
X186974456Y-73670758D01*
X186970744Y-73664448D01*
X186965679Y-73659161D01*
X186965164Y-73658480D01*
X186952102Y-73642066D01*
X186951580Y-73641441D01*
X186947563Y-73635315D01*
X186898690Y-73589017D01*
X186894393Y-73584744D01*
X186847828Y-73536134D01*
X186841686Y-73532156D01*
X186841016Y-73531602D01*
X186824573Y-73518668D01*
X186823883Y-73518152D01*
X186818567Y-73513116D01*
X186760376Y-73479316D01*
X186755172Y-73476122D01*
X186722307Y-73454835D01*
X186698692Y-73439540D01*
X186691799Y-73437082D01*
X186690994Y-73436684D01*
X186672026Y-73427884D01*
X186671243Y-73427544D01*
X186664919Y-73423870D01*
X186600510Y-73404363D01*
X186594704Y-73402449D01*
X186571911Y-73394319D01*
X186531332Y-73379845D01*
X186524056Y-73379038D01*
X186523219Y-73378845D01*
X186502723Y-73374641D01*
X186501866Y-73374487D01*
X186494861Y-73372365D01*
X186487555Y-73371912D01*
X186487551Y-73371911D01*
X186427713Y-73368199D01*
X186421622Y-73367673D01*
X186368430Y-73361772D01*
X186354729Y-73360252D01*
X186347459Y-73361140D01*
X186346651Y-73361145D01*
X186325654Y-73361772D01*
X186324829Y-73361817D01*
X186317515Y-73361363D01*
X186251182Y-73372761D01*
X186245175Y-73373644D01*
X186178355Y-73381811D01*
X186171487Y-73384347D01*
X186170667Y-73384546D01*
X186150444Y-73389968D01*
X186149604Y-73390215D01*
X186142395Y-73391454D01*
X186080464Y-73417806D01*
X186074795Y-73420057D01*
X186053602Y-73427884D01*
X186011672Y-73443369D01*
X186001984Y-73449068D01*
X186000476Y-73450086D01*
X185991970Y-73454542D01*
X185985629Y-73458159D01*
X185978895Y-73461024D01*
X185954032Y-73479321D01*
X185921383Y-73503348D01*
X185917202Y-73506295D01*
X185596996Y-73722434D01*
X183985497Y-74810193D01*
X183969905Y-74819168D01*
X183953610Y-74827056D01*
X183953604Y-74827060D01*
X183947020Y-74830247D01*
X183941347Y-74834862D01*
X183941338Y-74834868D01*
X183908669Y-74861447D01*
X183899652Y-74868139D01*
X183895807Y-74870734D01*
X183881879Y-74882701D01*
X183871265Y-74891820D01*
X183868672Y-74893988D01*
X183809187Y-74942383D01*
X183804724Y-74948185D01*
X183803849Y-74949084D01*
X183803221Y-74949674D01*
X183801972Y-74950992D01*
X183801514Y-74951536D01*
X183800558Y-74952572D01*
X183795007Y-74957342D01*
X183790701Y-74963262D01*
X183790700Y-74963263D01*
X183749589Y-75019783D01*
X183747580Y-75022469D01*
X183700847Y-75083220D01*
X183697836Y-75089899D01*
X183697209Y-75090945D01*
X183696715Y-75091691D01*
X183695807Y-75093254D01*
X183695496Y-75093870D01*
X183694793Y-75095118D01*
X183690488Y-75101037D01*
X183688591Y-75105565D01*
X183638451Y-75154419D01*
X183568886Y-75168608D01*
X183502694Y-75142935D01*
X183460889Y-75085551D01*
X183453507Y-75043056D01*
X183453507Y-74610058D01*
X183446752Y-74547876D01*
X183395622Y-74411487D01*
X183308268Y-74294931D01*
X183191712Y-74207577D01*
X183055323Y-74156447D01*
X182993141Y-74149692D01*
X181196873Y-74149692D01*
X181134691Y-74156447D01*
X180998302Y-74207577D01*
X180881746Y-74294931D01*
X180794392Y-74411487D01*
X180743262Y-74547876D01*
X180736507Y-74610058D01*
X180736507Y-76406326D01*
X180743262Y-76468508D01*
X180794392Y-76604897D01*
X180881746Y-76721453D01*
X180998302Y-76808807D01*
X181006711Y-76811959D01*
X181006712Y-76811960D01*
X181115458Y-76852727D01*
X181172223Y-76895368D01*
X181196923Y-76961930D01*
X181181716Y-77031279D01*
X181162323Y-77057760D01*
X181059850Y-77164992D01*
X181035636Y-77190330D01*
X180909750Y-77374872D01*
X180894010Y-77408782D01*
X180830778Y-77545004D01*
X180815695Y-77577497D01*
X180755996Y-77792762D01*
X180732258Y-78014887D01*
X179118435Y-78014887D01*
X179102854Y-77845318D01*
X179089480Y-77797899D01*
X179049121Y-77654798D01*
X179049120Y-77654796D01*
X179047553Y-77649239D01*
X179027658Y-77608894D01*
X178960002Y-77471702D01*
X178957447Y-77466521D01*
X178921180Y-77417953D01*
X178839004Y-77307907D01*
X178839004Y-77307906D01*
X178835551Y-77303283D01*
X178717982Y-77194603D01*
X178690189Y-77168911D01*
X178690186Y-77168909D01*
X178685949Y-77164992D01*
X178639921Y-77135951D01*
X178518534Y-77059361D01*
X178518529Y-77059359D01*
X178513650Y-77056280D01*
X178324426Y-76980787D01*
X178124612Y-76941041D01*
X178118838Y-76940965D01*
X178118834Y-76940965D01*
X178015698Y-76939616D01*
X177920901Y-76938375D01*
X177915204Y-76939354D01*
X177915203Y-76939354D01*
X177783818Y-76961930D01*
X177720116Y-76972876D01*
X177528980Y-77043390D01*
X177353895Y-77147555D01*
X177252519Y-77236459D01*
X177232034Y-77254424D01*
X177167630Y-77284301D01*
X177148957Y-77285692D01*
X174107358Y-77285692D01*
X174039237Y-77265690D01*
X174001565Y-77228131D01*
X173994021Y-77216469D01*
X173990539Y-77212642D01*
X173846805Y-77054680D01*
X173815753Y-76990834D01*
X173824148Y-76920335D01*
X173869324Y-76865567D01*
X173895768Y-76851898D01*
X174002304Y-76811959D01*
X174010712Y-76808807D01*
X174127268Y-76721453D01*
X174214622Y-76604897D01*
X174265752Y-76468508D01*
X174272507Y-76406326D01*
X174272507Y-74610058D01*
X174265752Y-74547876D01*
X174214622Y-74411487D01*
X174127268Y-74294931D01*
X174010712Y-74207577D01*
X173874323Y-74156447D01*
X173812141Y-74149692D01*
X172015873Y-74149692D01*
X171953691Y-74156447D01*
X171817302Y-74207577D01*
X171700746Y-74294931D01*
X171613392Y-74411487D01*
X171562262Y-74547876D01*
X171555507Y-74610058D01*
X171555507Y-76406326D01*
X171562262Y-76468508D01*
X171613392Y-76604897D01*
X171700746Y-76721453D01*
X171817302Y-76808807D01*
X171825711Y-76811959D01*
X171825712Y-76811960D01*
X171934458Y-76852727D01*
X171991223Y-76895368D01*
X172015923Y-76961930D01*
X172000716Y-77031279D01*
X171981323Y-77057760D01*
X171878850Y-77164992D01*
X171854636Y-77190330D01*
X171728750Y-77374872D01*
X171713010Y-77408782D01*
X171649778Y-77545004D01*
X171634695Y-77577497D01*
X171574996Y-77792762D01*
X171551258Y-78014887D01*
X171551555Y-78020040D01*
X171551555Y-78020043D01*
X171557018Y-78114782D01*
X171564117Y-78237907D01*
X171565254Y-78242953D01*
X171565255Y-78242959D01*
X171579930Y-78308075D01*
X171613229Y-78455831D01*
X171697273Y-78662808D01*
X171748026Y-78745630D01*
X171805286Y-78839069D01*
X171813994Y-78853280D01*
X171960257Y-79022130D01*
X172063965Y-79108230D01*
X172125222Y-79159086D01*
X172132133Y-79164824D01*
X172202602Y-79206003D01*
X172205452Y-79207668D01*
X172254176Y-79259306D01*
X172267247Y-79329089D01*
X172240516Y-79394861D01*
X172200062Y-79428219D01*
X172187614Y-79434699D01*
X172183481Y-79437802D01*
X172183478Y-79437804D01*
X172159254Y-79455992D01*
X172008972Y-79568827D01*
X171854636Y-79730330D01*
X171851722Y-79734602D01*
X171851721Y-79734603D01*
X171839411Y-79752649D01*
X171728750Y-79914872D01*
X171694722Y-79988180D01*
X171637799Y-80110811D01*
X171634695Y-80117497D01*
X171574996Y-80332762D01*
X171551258Y-80554887D01*
X171064008Y-80554887D01*
X171064008Y-72450000D01*
X171726520Y-72450000D01*
X171746475Y-72678087D01*
X171805734Y-72899243D01*
X171808057Y-72904224D01*
X171808057Y-72904225D01*
X171900169Y-73101762D01*
X171900172Y-73101767D01*
X171902495Y-73106749D01*
X172033820Y-73294300D01*
X172195718Y-73456198D01*
X172200226Y-73459355D01*
X172200229Y-73459357D01*
X172202610Y-73461024D01*
X172383269Y-73587523D01*
X172388251Y-73589846D01*
X172388256Y-73589849D01*
X172548236Y-73664448D01*
X172590775Y-73684284D01*
X172596083Y-73685706D01*
X172596085Y-73685707D01*
X172806616Y-73742119D01*
X172806618Y-73742119D01*
X172811931Y-73743543D01*
X173040018Y-73763498D01*
X173268105Y-73743543D01*
X173273418Y-73742119D01*
X173273420Y-73742119D01*
X173483951Y-73685707D01*
X173483953Y-73685706D01*
X173489261Y-73684284D01*
X173531800Y-73664448D01*
X173691780Y-73589849D01*
X173691785Y-73589846D01*
X173696767Y-73587523D01*
X173877426Y-73461024D01*
X173879807Y-73459357D01*
X173879810Y-73459355D01*
X173884318Y-73456198D01*
X174046216Y-73294300D01*
X174177541Y-73106749D01*
X174179864Y-73101767D01*
X174179867Y-73101762D01*
X174271979Y-72904225D01*
X174271979Y-72904224D01*
X174274302Y-72899243D01*
X174333561Y-72678087D01*
X174353516Y-72450000D01*
X174333561Y-72221913D01*
X174274302Y-72000757D01*
X174271979Y-71995775D01*
X174179867Y-71798238D01*
X174179864Y-71798233D01*
X174177541Y-71793251D01*
X174046216Y-71605700D01*
X173884318Y-71443802D01*
X173879810Y-71440645D01*
X173879807Y-71440643D01*
X173701271Y-71315631D01*
X173696767Y-71312477D01*
X173691783Y-71310153D01*
X173689490Y-71308829D01*
X173640497Y-71257447D01*
X173627061Y-71187733D01*
X173653447Y-71121822D01*
X173689490Y-71090591D01*
X173701020Y-71083934D01*
X173753066Y-71047491D01*
X173761442Y-71037012D01*
X173754374Y-71023566D01*
X173052830Y-70322022D01*
X173038886Y-70314408D01*
X173037053Y-70314539D01*
X173030438Y-70318790D01*
X172324941Y-71024287D01*
X172318511Y-71036062D01*
X172327807Y-71048077D01*
X172379016Y-71083934D01*
X172390546Y-71090591D01*
X172439539Y-71141973D01*
X172452976Y-71211687D01*
X172426589Y-71277598D01*
X172390546Y-71308829D01*
X172388253Y-71310153D01*
X172383269Y-71312477D01*
X172378765Y-71315631D01*
X172200229Y-71440643D01*
X172200226Y-71440645D01*
X172195718Y-71443802D01*
X172033820Y-71605700D01*
X171902495Y-71793251D01*
X171900172Y-71798233D01*
X171900169Y-71798238D01*
X171808057Y-71995775D01*
X171805734Y-72000757D01*
X171746475Y-72221913D01*
X171726520Y-72450000D01*
X171064008Y-72450000D01*
X171064008Y-69955475D01*
X171727501Y-69955475D01*
X171746490Y-70172519D01*
X171748393Y-70183312D01*
X171804782Y-70393761D01*
X171808528Y-70404053D01*
X171900604Y-70601511D01*
X171906087Y-70611006D01*
X171942527Y-70663048D01*
X171953006Y-70671424D01*
X171966452Y-70664356D01*
X172667996Y-69962812D01*
X172674374Y-69951132D01*
X173404426Y-69951132D01*
X173404557Y-69952965D01*
X173408808Y-69959580D01*
X174114305Y-70665077D01*
X174126080Y-70671507D01*
X174138095Y-70662211D01*
X174173949Y-70611006D01*
X174179432Y-70601511D01*
X174271508Y-70404053D01*
X174275254Y-70393761D01*
X174331643Y-70183312D01*
X174333546Y-70172519D01*
X174352535Y-69955475D01*
X174352535Y-69944525D01*
X174333546Y-69727481D01*
X174331643Y-69716688D01*
X174275254Y-69506239D01*
X174271508Y-69495947D01*
X174179432Y-69298489D01*
X174173949Y-69288994D01*
X174137509Y-69236952D01*
X174127030Y-69228576D01*
X174113584Y-69235644D01*
X173412040Y-69937188D01*
X173404426Y-69951132D01*
X172674374Y-69951132D01*
X172675610Y-69948868D01*
X172675479Y-69947035D01*
X172671228Y-69940420D01*
X171965731Y-69234923D01*
X171953956Y-69228493D01*
X171941941Y-69237789D01*
X171906087Y-69288994D01*
X171900604Y-69298489D01*
X171808528Y-69495947D01*
X171804782Y-69506239D01*
X171748393Y-69716688D01*
X171746490Y-69727481D01*
X171727501Y-69944525D01*
X171727501Y-69955475D01*
X171064008Y-69955475D01*
X171064008Y-68862988D01*
X172318594Y-68862988D01*
X172325662Y-68876434D01*
X173027206Y-69577978D01*
X173041150Y-69585592D01*
X173042983Y-69585461D01*
X173049598Y-69581210D01*
X173755095Y-68875713D01*
X173761525Y-68863938D01*
X173752229Y-68851923D01*
X173701024Y-68816069D01*
X173691529Y-68810586D01*
X173494071Y-68718510D01*
X173483779Y-68714764D01*
X173273330Y-68658375D01*
X173262537Y-68656472D01*
X173045493Y-68637483D01*
X173034543Y-68637483D01*
X172817499Y-68656472D01*
X172806706Y-68658375D01*
X172596257Y-68714764D01*
X172585965Y-68718510D01*
X172388507Y-68810586D01*
X172379012Y-68816069D01*
X172326970Y-68852509D01*
X172318594Y-68862988D01*
X171064008Y-68862988D01*
X171064008Y-65343881D01*
X172492697Y-65343881D01*
X172509246Y-65630895D01*
X172510071Y-65635100D01*
X172510072Y-65635108D01*
X172542018Y-65797933D01*
X172564594Y-65913007D01*
X172565981Y-65917057D01*
X172565982Y-65917062D01*
X172656329Y-66180942D01*
X172657718Y-66184998D01*
X172786893Y-66441834D01*
X172949729Y-66678762D01*
X173143214Y-66891400D01*
X173146509Y-66894155D01*
X173146510Y-66894156D01*
X173197266Y-66936594D01*
X173363767Y-67075810D01*
X173607306Y-67228583D01*
X173869326Y-67346889D01*
X173873445Y-67348109D01*
X174140865Y-67427323D01*
X174140870Y-67427324D01*
X174144978Y-67428541D01*
X174149212Y-67429189D01*
X174149217Y-67429190D01*
X174397819Y-67467231D01*
X174429161Y-67472027D01*
X174575493Y-67474326D01*
X174712325Y-67476476D01*
X174712331Y-67476476D01*
X174716616Y-67476543D01*
X174720868Y-67476028D01*
X174720876Y-67476028D01*
X174997764Y-67442520D01*
X174997769Y-67442519D01*
X175002025Y-67442004D01*
X175280105Y-67369051D01*
X175545712Y-67259033D01*
X175793930Y-67113986D01*
X176020167Y-66936594D01*
X176061293Y-66894156D01*
X176217252Y-66733218D01*
X176220235Y-66730140D01*
X176222768Y-66726692D01*
X176222772Y-66726687D01*
X176387895Y-66501898D01*
X176390433Y-66498443D01*
X176527612Y-66245791D01*
X176629233Y-65976860D01*
X176693415Y-65696625D01*
X176718971Y-65410272D01*
X176719435Y-65366012D01*
X176717926Y-65343881D01*
X187470695Y-65343881D01*
X187487244Y-65630895D01*
X187488069Y-65635100D01*
X187488070Y-65635108D01*
X187520016Y-65797933D01*
X187542592Y-65913007D01*
X187543979Y-65917057D01*
X187543980Y-65917062D01*
X187634327Y-66180942D01*
X187635716Y-66184998D01*
X187764891Y-66441834D01*
X187927727Y-66678762D01*
X188121212Y-66891400D01*
X188124507Y-66894155D01*
X188124508Y-66894156D01*
X188175264Y-66936594D01*
X188341765Y-67075810D01*
X188585304Y-67228583D01*
X188847324Y-67346889D01*
X188851443Y-67348109D01*
X189118863Y-67427323D01*
X189118868Y-67427324D01*
X189122976Y-67428541D01*
X189127210Y-67429189D01*
X189127215Y-67429190D01*
X189375817Y-67467231D01*
X189407159Y-67472027D01*
X189553491Y-67474326D01*
X189690323Y-67476476D01*
X189690329Y-67476476D01*
X189694614Y-67476543D01*
X189698866Y-67476028D01*
X189698874Y-67476028D01*
X189975762Y-67442520D01*
X189975767Y-67442519D01*
X189980023Y-67442004D01*
X190258103Y-67369051D01*
X190523710Y-67259033D01*
X190771928Y-67113986D01*
X190998165Y-66936594D01*
X191039291Y-66894156D01*
X191195250Y-66733218D01*
X191198233Y-66730140D01*
X191200766Y-66726692D01*
X191200770Y-66726687D01*
X191365893Y-66501898D01*
X191368431Y-66498443D01*
X191505610Y-66245791D01*
X191607231Y-65976860D01*
X191671413Y-65696625D01*
X191696969Y-65410272D01*
X191697433Y-65366012D01*
X191677879Y-65079187D01*
X191673342Y-65057276D01*
X191620449Y-64801867D01*
X191619580Y-64797670D01*
X191523613Y-64526669D01*
X191427918Y-64341263D01*
X191393721Y-64275007D01*
X191393721Y-64275006D01*
X191391756Y-64271200D01*
X191378494Y-64252329D01*
X191228910Y-64039494D01*
X191226447Y-64035989D01*
X191030746Y-63825390D01*
X190808274Y-63643299D01*
X190563148Y-63493085D01*
X190545054Y-63485142D01*
X190303836Y-63379255D01*
X190299904Y-63377529D01*
X190273969Y-63370141D01*
X190027540Y-63299944D01*
X190027541Y-63299944D01*
X190023412Y-63298768D01*
X189810710Y-63268497D01*
X189743042Y-63258866D01*
X189743040Y-63258866D01*
X189738790Y-63258261D01*
X189734501Y-63258239D01*
X189734494Y-63258238D01*
X189455589Y-63256777D01*
X189455582Y-63256777D01*
X189451303Y-63256755D01*
X189447059Y-63257314D01*
X189447055Y-63257314D01*
X189321666Y-63273822D01*
X189166272Y-63294280D01*
X189162132Y-63295413D01*
X189162130Y-63295413D01*
X189085317Y-63316427D01*
X188888970Y-63370141D01*
X188885022Y-63371825D01*
X188628482Y-63481249D01*
X188628478Y-63481251D01*
X188624530Y-63482935D01*
X188499966Y-63557485D01*
X188381527Y-63628369D01*
X188381523Y-63628372D01*
X188377845Y-63630573D01*
X188153478Y-63810325D01*
X188036378Y-63933723D01*
X187965761Y-64008138D01*
X187955583Y-64018863D01*
X187787820Y-64252329D01*
X187653294Y-64506404D01*
X187554495Y-64776385D01*
X187493251Y-65057276D01*
X187470695Y-65343881D01*
X176717926Y-65343881D01*
X176699881Y-65079187D01*
X176695344Y-65057276D01*
X176642451Y-64801867D01*
X176641582Y-64797670D01*
X176545615Y-64526669D01*
X176449920Y-64341263D01*
X176415723Y-64275007D01*
X176415723Y-64275006D01*
X176413758Y-64271200D01*
X176400496Y-64252329D01*
X176250912Y-64039494D01*
X176248449Y-64035989D01*
X176052748Y-63825390D01*
X175830276Y-63643299D01*
X175585150Y-63493085D01*
X175567056Y-63485142D01*
X175325838Y-63379255D01*
X175321906Y-63377529D01*
X175295971Y-63370141D01*
X175049542Y-63299944D01*
X175049543Y-63299944D01*
X175045414Y-63298768D01*
X174832712Y-63268497D01*
X174765044Y-63258866D01*
X174765042Y-63258866D01*
X174760792Y-63258261D01*
X174756503Y-63258239D01*
X174756496Y-63258238D01*
X174477591Y-63256777D01*
X174477584Y-63256777D01*
X174473305Y-63256755D01*
X174469061Y-63257314D01*
X174469057Y-63257314D01*
X174343668Y-63273822D01*
X174188274Y-63294280D01*
X174184134Y-63295413D01*
X174184132Y-63295413D01*
X174107319Y-63316427D01*
X173910972Y-63370141D01*
X173907024Y-63371825D01*
X173650484Y-63481249D01*
X173650480Y-63481251D01*
X173646532Y-63482935D01*
X173521968Y-63557485D01*
X173403529Y-63628369D01*
X173403525Y-63628372D01*
X173399847Y-63630573D01*
X173175480Y-63810325D01*
X173058380Y-63933723D01*
X172987763Y-64008138D01*
X172977585Y-64018863D01*
X172809822Y-64252329D01*
X172675296Y-64506404D01*
X172576497Y-64776385D01*
X172515253Y-65057276D01*
X172492697Y-65343881D01*
X171064008Y-65343881D01*
X171064008Y-64365340D01*
X171065508Y-64345955D01*
X171067813Y-64331154D01*
X171067813Y-64331151D01*
X171069194Y-64322282D01*
X171066949Y-64305113D01*
X171066116Y-64281173D01*
X171081718Y-64023242D01*
X171083552Y-64008138D01*
X171119802Y-63810325D01*
X171135048Y-63727133D01*
X171138687Y-63712365D01*
X171164862Y-63628369D01*
X171223683Y-63439604D01*
X171229078Y-63425382D01*
X171253940Y-63370141D01*
X171346324Y-63164872D01*
X171353393Y-63151403D01*
X171501190Y-62906917D01*
X171509833Y-62894395D01*
X171686024Y-62669505D01*
X171696114Y-62658117D01*
X171898113Y-62456118D01*
X171909501Y-62446028D01*
X172134391Y-62269837D01*
X172146913Y-62261194D01*
X172391399Y-62113397D01*
X172404868Y-62106328D01*
X172665381Y-61989081D01*
X172679600Y-61983687D01*
X172952367Y-61898690D01*
X172967129Y-61895052D01*
X173177360Y-61856526D01*
X173248134Y-61843556D01*
X173263238Y-61841722D01*
X173513937Y-61826557D01*
X173540647Y-61827814D01*
X173540867Y-61827817D01*
X173549738Y-61829198D01*
X173558640Y-61828034D01*
X173558643Y-61828034D01*
X173581259Y-61825076D01*
X173597597Y-61824012D01*
X190584678Y-61824012D01*
X190604063Y-61825512D01*
G37*
%TD.AperFunction*%
%TA.AperFunction,Conductor*%
G36*
X177276018Y-86502829D02*
G01*
X177281427Y-86507799D01*
X177303516Y-86529317D01*
X177303522Y-86529322D01*
X177307656Y-86533349D01*
X177312453Y-86536555D01*
X177312454Y-86536555D01*
X177313537Y-86537278D01*
X177318746Y-86540759D01*
X177364274Y-86595234D01*
X177374746Y-86645525D01*
X177374746Y-92213597D01*
X177354744Y-92281718D01*
X177337841Y-92302692D01*
X177022746Y-92617787D01*
X176960434Y-92651813D01*
X176933651Y-92654692D01*
X174190812Y-92654692D01*
X174122691Y-92634690D01*
X174085020Y-92597132D01*
X173996829Y-92460809D01*
X173996827Y-92460806D01*
X173994021Y-92456469D01*
X173843677Y-92291243D01*
X173839626Y-92288044D01*
X173839622Y-92288040D01*
X173672421Y-92155992D01*
X173672417Y-92155990D01*
X173668366Y-92152790D01*
X173627060Y-92129988D01*
X173577091Y-92079556D01*
X173562319Y-92010113D01*
X173587435Y-91943708D01*
X173614787Y-91917101D01*
X173658610Y-91885842D01*
X173793867Y-91789365D01*
X173820955Y-91762372D01*
X173948442Y-91635329D01*
X173952103Y-91631681D01*
X173962972Y-91616556D01*
X174079442Y-91454469D01*
X174082460Y-91450269D01*
X174093900Y-91427123D01*
X174179143Y-91254645D01*
X174179144Y-91254643D01*
X174181437Y-91250003D01*
X174246377Y-91036261D01*
X174275536Y-90814782D01*
X174277163Y-90748192D01*
X174258859Y-90525553D01*
X174204438Y-90308894D01*
X174115361Y-90104032D01*
X174020334Y-89957142D01*
X173996829Y-89920809D01*
X173996827Y-89920806D01*
X173994021Y-89916469D01*
X173843677Y-89751243D01*
X173839626Y-89748044D01*
X173839622Y-89748040D01*
X173672421Y-89615992D01*
X173672417Y-89615990D01*
X173668366Y-89612790D01*
X173627060Y-89589988D01*
X173577091Y-89539556D01*
X173562319Y-89470113D01*
X173587435Y-89403708D01*
X173614787Y-89377101D01*
X173658610Y-89345842D01*
X173793867Y-89249365D01*
X173820955Y-89222372D01*
X173948442Y-89095329D01*
X173952103Y-89091681D01*
X173962972Y-89076556D01*
X174079442Y-88914469D01*
X174082460Y-88910269D01*
X174084753Y-88905629D01*
X174086453Y-88902800D01*
X174138681Y-88854710D01*
X174194458Y-88841692D01*
X175599479Y-88841692D01*
X175610662Y-88842219D01*
X175618155Y-88843894D01*
X175626081Y-88843645D01*
X175626082Y-88843645D01*
X175686232Y-88841754D01*
X175690191Y-88841692D01*
X175718102Y-88841692D01*
X175722037Y-88841195D01*
X175722102Y-88841187D01*
X175733939Y-88840254D01*
X175766197Y-88839240D01*
X175770216Y-88839114D01*
X175778135Y-88838865D01*
X175797589Y-88833213D01*
X175816946Y-88829205D01*
X175829176Y-88827660D01*
X175829177Y-88827660D01*
X175837043Y-88826666D01*
X175844414Y-88823747D01*
X175844416Y-88823747D01*
X175878158Y-88810388D01*
X175889388Y-88806543D01*
X175924229Y-88796421D01*
X175924230Y-88796421D01*
X175931839Y-88794210D01*
X175938658Y-88790177D01*
X175938663Y-88790175D01*
X175949274Y-88783899D01*
X175967022Y-88775204D01*
X175985863Y-88767744D01*
X175997113Y-88759571D01*
X176021633Y-88741756D01*
X176031553Y-88735240D01*
X176062781Y-88716772D01*
X176062784Y-88716770D01*
X176069608Y-88712734D01*
X176083929Y-88698413D01*
X176098963Y-88685572D01*
X176108939Y-88678324D01*
X176115353Y-88673664D01*
X176143534Y-88639599D01*
X176151524Y-88630818D01*
X176826264Y-87956079D01*
X176834543Y-87948545D01*
X176841024Y-87944432D01*
X176887650Y-87894780D01*
X176890404Y-87891939D01*
X176910141Y-87872202D01*
X176912621Y-87869005D01*
X176920326Y-87859983D01*
X176945165Y-87833532D01*
X176950592Y-87827753D01*
X176954411Y-87820807D01*
X176954413Y-87820804D01*
X176960354Y-87809998D01*
X176971205Y-87793479D01*
X176978764Y-87783733D01*
X176983620Y-87777473D01*
X176986765Y-87770204D01*
X176986768Y-87770200D01*
X177001180Y-87736895D01*
X177006397Y-87726245D01*
X177027701Y-87687492D01*
X177032739Y-87667869D01*
X177039143Y-87649166D01*
X177044039Y-87637852D01*
X177044039Y-87637851D01*
X177047187Y-87630577D01*
X177048426Y-87622754D01*
X177048429Y-87622744D01*
X177054105Y-87586908D01*
X177056511Y-87575288D01*
X177065534Y-87540143D01*
X177065534Y-87540142D01*
X177067506Y-87532462D01*
X177067506Y-87512208D01*
X177069057Y-87492497D01*
X177070986Y-87480318D01*
X177072226Y-87472489D01*
X177068065Y-87428470D01*
X177067506Y-87416613D01*
X177067506Y-86598053D01*
X177087508Y-86529932D01*
X177141164Y-86483439D01*
X177211438Y-86473335D01*
X177276018Y-86502829D01*
G37*
%TD.AperFunction*%
%TD*%
M02*
