M48
; DRILL file {KiCad (6.0.0)} date Thu Mar 17 10:54:15 2022
; FORMAT={-:-/ absolute / inch / decimal}
; #@! TF.CreationDate,2022-03-17T10:54:15-04:00
; #@! TF.GenerationSoftware,Kicad,Pcbnew,(6.0.0)
; #@! TF.FileFunction,Plated,1,2,PTH
FMAT,2
INCH
; #@! TA.AperFunction,Plated,PTH,ViaDrill
T1C0.0236
; #@! TA.AperFunction,Plated,PTH,ComponentDrill
T2C0.0315
; #@! TA.AperFunction,Plated,PTH,ComponentDrill
T3C0.0354
; #@! TA.AperFunction,Plated,PTH,ComponentDrill
T4C0.0394
; #@! TA.AperFunction,Plated,PTH,ComponentDrill
T5C0.1260
%
G90
G05
T1
X5.9197Y-3.5693
X5.9974Y-3.0711
X5.9974Y-3.2711
X5.9974Y-3.3711
X6.2592Y-3.3711
X6.2792Y-3.4711
X6.2992Y-3.5711
X6.3192Y-3.6711
X6.416Y-3.0731
X6.4278Y-3.2739
X6.9958Y-3.5673
X7.0647Y-2.9827
X7.0647Y-3.4236
X7.1319Y-2.8664
X7.2183Y-3.1716
X7.3049Y-3.1716
X7.3209Y-3.9393
X7.36Y-3.2247
X7.4311Y-3.2739
T2
X5.8018Y-2.7522
X5.8018Y-2.8507
X6.9506Y-3.0712
X6.9506Y-3.1697
X7.3209Y-3.4282
X7.3209Y-3.8282
T3
X7.1313Y-4.1282
X7.2313Y-4.1282
T4
X5.7969Y-2.9711
X5.7969Y-3.0711
X5.7969Y-3.1711
X5.7969Y-3.2711
X5.7969Y-3.3711
X5.7969Y-3.4711
X5.7969Y-3.5711
X5.7969Y-3.6711
X6.1583Y-2.9711
X6.1583Y-3.0711
X6.1583Y-3.1711
X6.1583Y-3.2711
X6.1583Y-3.3711
X6.1583Y-3.4711
X6.1583Y-3.5711
X6.1583Y-3.6711
X6.5198Y-2.9711
X6.5198Y-3.0711
X6.5198Y-3.1711
X6.5198Y-3.2711
X6.5198Y-3.3711
X6.5198Y-3.4711
X6.5198Y-3.5711
X6.5198Y-3.6711
X6.8198Y-2.9711
X6.8198Y-3.0711
X6.8198Y-3.1711
X6.8198Y-3.2711
X6.8198Y-3.3711
X6.8198Y-3.4711
X6.8198Y-3.5711
X6.8198Y-3.6711
X7.1313Y-2.5591
X7.1313Y-2.6591
X7.1313Y-2.7591
X7.2313Y-2.5591
X7.2313Y-2.6591
X7.2313Y-2.7591
X7.5428Y-2.9711
X7.5428Y-3.0711
X7.5428Y-3.1711
X7.5428Y-3.2711
X7.5428Y-3.3711
X7.5428Y-3.4711
X7.5428Y-3.5711
X7.5428Y-3.6711
T5
X5.8635Y-2.5718
X5.8635Y-4.0693
X6.1583Y-2.5718
X6.4532Y-2.5718
X6.4532Y-4.0693
X6.8865Y-2.5718
X6.8865Y-4.0693
X7.4761Y-2.5718
X7.4761Y-4.0693
T0
M30
