%TF.GenerationSoftware,KiCad,Pcbnew,(6.0.0)*%
%TF.CreationDate,2022-03-16T01:45:40-04:00*%
%TF.ProjectId,JTAG_ISP-BOTH,4a544147-5f49-4535-902d-424f54482e6b,v1.0.0*%
%TF.SameCoordinates,Original*%
%TF.FileFunction,Profile,NP*%
%FSLAX46Y46*%
G04 Gerber Fmt 4.6, Leading zero omitted, Abs format (unit mm)*
G04 Created by KiCad (PCBNEW (6.0.0)) date 2022-03-16 01:45:40*
%MOMM*%
%LPD*%
G01*
G04 APERTURE LIST*
%TA.AperFunction,Profile*%
%ADD10C,0.150000*%
%TD*%
G04 APERTURE END LIST*
D10*
X144915990Y-104383999D02*
G75*
G03*
X147915990Y-107383999I3000001J1D01*
G01*
X147915990Y-107383999D02*
X164993988Y-107383999D01*
X167993988Y-104383999D02*
X167993988Y-64249479D01*
X164993988Y-61249479D02*
X147915990Y-61249479D01*
X144915990Y-64249479D02*
X144915990Y-104383999D01*
X164993988Y-107383999D02*
G75*
G03*
X167993988Y-104383999I-1J3000001D01*
G01*
X147915990Y-61249479D02*
G75*
G03*
X144915990Y-64249479I1J-3000001D01*
G01*
X167993988Y-64249479D02*
G75*
G03*
X164993988Y-61249479I-3000001J-1D01*
G01*
X186814951Y-106352432D02*
G75*
G03*
X187814951Y-107352432I999999J-1D01*
G01*
X184164962Y-102052443D02*
G75*
G03*
X181514962Y-104702443I0J-2650000D01*
G01*
X186814951Y-104702443D02*
G75*
G03*
X184164951Y-102052443I-2650000J0D01*
G01*
X180514962Y-107352432D02*
G75*
G03*
X181514962Y-106352432I1J999999D01*
G01*
X181514962Y-104702443D02*
X181514962Y-106352432D01*
X192703967Y-107352432D02*
X187814951Y-107352432D01*
X180514962Y-107352432D02*
X175625972Y-107352432D01*
X186814951Y-106352432D02*
X186814951Y-104702443D01*
X195703970Y-104352432D02*
X195703970Y-64216012D01*
X192703970Y-61216012D02*
X175625972Y-61216012D01*
X172625972Y-104352432D02*
G75*
G03*
X175625972Y-107352432I3000001J1D01*
G01*
X172625972Y-64216012D02*
X172625972Y-104352432D01*
X195703970Y-64216012D02*
G75*
G03*
X192703970Y-61216012I-3000001J-1D01*
G01*
X175625972Y-61216012D02*
G75*
G03*
X172625972Y-64216012I1J-3000001D01*
G01*
X192703970Y-107352432D02*
G75*
G03*
X195703970Y-104352432I-1J3000001D01*
G01*
M02*
