%TF.GenerationSoftware,KiCad,Pcbnew,(6.0.0)*%
%TF.CreationDate,2022-03-14T16:51:29-04:00*%
%TF.ProjectId,JTAG_ISP-BOTH,4a544147-5f49-4535-902d-424f54482e6b,v1.0.0*%
%TF.SameCoordinates,Original*%
%TF.FileFunction,Copper,L2,Bot*%
%TF.FilePolarity,Positive*%
%FSLAX46Y46*%
G04 Gerber Fmt 4.6, Leading zero omitted, Abs format (unit mm)*
G04 Created by KiCad (PCBNEW (6.0.0)) date 2022-03-14 16:51:29*
%MOMM*%
%LPD*%
G01*
G04 APERTURE LIST*
%ADD10C,0.150000*%
%TA.AperFunction,NonConductor*%
%ADD11C,0.150000*%
%TD*%
%TA.AperFunction,EtchedComponent*%
%ADD12C,0.508000*%
%TD*%
%TA.AperFunction,ComponentPad*%
%ADD13C,1.700000*%
%TD*%
%TA.AperFunction,ComponentPad*%
%ADD14O,1.700000X1.700000*%
%TD*%
%TA.AperFunction,ComponentPad*%
%ADD15C,3.200001*%
%TD*%
%TA.AperFunction,ComponentPad*%
%ADD16R,1.700000X1.700000*%
%TD*%
%TA.AperFunction,ComponentPad*%
%ADD17C,1.600000*%
%TD*%
%TA.AperFunction,ComponentPad*%
%ADD18R,1.800000X1.800000*%
%TD*%
%TA.AperFunction,ComponentPad*%
%ADD19C,1.800000*%
%TD*%
%TA.AperFunction,ComponentPad*%
%ADD20O,1.600000X1.600000*%
%TD*%
%TA.AperFunction,ViaPad*%
%ADD21C,1.200000*%
%TD*%
%TA.AperFunction,Conductor*%
%ADD22C,0.250000*%
%TD*%
%TA.AperFunction,Conductor*%
%ADD23C,0.508000*%
%TD*%
G04 APERTURE END LIST*
D10*
D11*
X159256012Y-95932068D02*
X158656012Y-95932068D01*
X158956012Y-96982068D02*
X158956012Y-95932068D01*
X158306012Y-96982068D02*
X158306012Y-95932068D01*
X158306012Y-96432068D02*
X157706012Y-96432068D01*
X157706012Y-96982068D02*
X157706012Y-95932068D01*
X157006012Y-95932068D02*
X156806012Y-95932068D01*
X156706012Y-95982068D01*
X156606012Y-96082068D01*
X156556012Y-96282068D01*
X156556012Y-96632068D01*
X156606012Y-96832068D01*
X156706012Y-96932068D01*
X156806012Y-96982068D01*
X157006012Y-96982068D01*
X157106012Y-96932068D01*
X157206012Y-96832068D01*
X157256012Y-96632068D01*
X157256012Y-96282068D01*
X157206012Y-96082068D01*
X157106012Y-95982068D01*
X157006012Y-95932068D01*
X156106012Y-96982068D02*
X156106012Y-95932068D01*
X155756012Y-96682068D01*
X155406012Y-95932068D01*
X155406012Y-96982068D01*
X154956012Y-96682068D02*
X154456012Y-96682068D01*
X155056012Y-96982068D02*
X154706012Y-95932068D01*
X154356012Y-96982068D01*
X154056012Y-96932068D02*
X153906012Y-96982068D01*
X153656012Y-96982068D01*
X153556012Y-96932068D01*
X153506012Y-96882068D01*
X153456012Y-96782068D01*
X153456012Y-96682068D01*
X153506012Y-96582068D01*
X153556012Y-96532068D01*
X153656012Y-96482068D01*
X153856012Y-96432068D01*
X153956012Y-96382068D01*
X154006012Y-96332068D01*
X154056012Y-96232068D01*
X154056012Y-96132068D01*
X154006012Y-96032068D01*
X153956012Y-95982068D01*
X153856012Y-95932068D01*
X153606012Y-95932068D01*
X153456012Y-95982068D01*
X160881012Y-98672568D02*
X160881012Y-97622568D01*
X160631012Y-97622568D01*
X160481012Y-97672568D01*
X160381012Y-97772568D01*
X160331012Y-97872568D01*
X160281012Y-98072568D01*
X160281012Y-98222568D01*
X160331012Y-98422568D01*
X160381012Y-98522568D01*
X160481012Y-98622568D01*
X160631012Y-98672568D01*
X160881012Y-98672568D01*
X159831012Y-98122568D02*
X159481012Y-98122568D01*
X159331012Y-98672568D02*
X159831012Y-98672568D01*
X159831012Y-97622568D01*
X159331012Y-97622568D01*
X158931012Y-98622568D02*
X158781012Y-98672568D01*
X158531012Y-98672568D01*
X158431012Y-98622568D01*
X158381012Y-98572568D01*
X158331012Y-98472568D01*
X158331012Y-98372568D01*
X158381012Y-98272568D01*
X158431012Y-98222568D01*
X158531012Y-98172568D01*
X158731012Y-98122568D01*
X158831012Y-98072568D01*
X158881012Y-98022568D01*
X158931012Y-97922568D01*
X158931012Y-97822568D01*
X158881012Y-97722568D01*
X158831012Y-97672568D01*
X158731012Y-97622568D01*
X158481012Y-97622568D01*
X158331012Y-97672568D01*
X157281012Y-98672568D02*
X157631012Y-98172568D01*
X157881012Y-98672568D02*
X157881012Y-97622568D01*
X157481012Y-97622568D01*
X157381012Y-97672568D01*
X157331012Y-97722568D01*
X157281012Y-97822568D01*
X157281012Y-97972568D01*
X157331012Y-98072568D01*
X157381012Y-98122568D01*
X157481012Y-98172568D01*
X157881012Y-98172568D01*
X156631012Y-97622568D02*
X156431012Y-97622568D01*
X156331012Y-97672568D01*
X156231012Y-97772568D01*
X156181012Y-97972568D01*
X156181012Y-98322568D01*
X156231012Y-98522568D01*
X156331012Y-98622568D01*
X156431012Y-98672568D01*
X156631012Y-98672568D01*
X156731012Y-98622568D01*
X156831012Y-98522568D01*
X156881012Y-98322568D01*
X156881012Y-97972568D01*
X156831012Y-97772568D01*
X156731012Y-97672568D01*
X156631012Y-97622568D01*
X155781012Y-98622568D02*
X155631012Y-98672568D01*
X155381012Y-98672568D01*
X155281012Y-98622568D01*
X155231012Y-98572568D01*
X155181012Y-98472568D01*
X155181012Y-98372568D01*
X155231012Y-98272568D01*
X155281012Y-98222568D01*
X155381012Y-98172568D01*
X155581012Y-98122568D01*
X155681012Y-98072568D01*
X155731012Y-98022568D01*
X155781012Y-97922568D01*
X155781012Y-97822568D01*
X155731012Y-97722568D01*
X155681012Y-97672568D01*
X155581012Y-97622568D01*
X155331012Y-97622568D01*
X155181012Y-97672568D01*
X154731012Y-98672568D02*
X154731012Y-97622568D01*
X154231012Y-98122568D02*
X153881012Y-98122568D01*
X153731012Y-98672568D02*
X154231012Y-98672568D01*
X154231012Y-97622568D01*
X153731012Y-97622568D01*
X152681012Y-98672568D02*
X153031012Y-98172568D01*
X153281012Y-98672568D02*
X153281012Y-97622568D01*
X152881012Y-97622568D01*
X152781012Y-97672568D01*
X152731012Y-97722568D01*
X152681012Y-97822568D01*
X152681012Y-97972568D01*
X152731012Y-98072568D01*
X152781012Y-98122568D01*
X152881012Y-98172568D01*
X153281012Y-98172568D01*
X152281012Y-98622568D02*
X152131012Y-98672568D01*
X151881012Y-98672568D01*
X151781012Y-98622568D01*
X151731012Y-98572568D01*
X151681012Y-98472568D01*
X151681012Y-98372568D01*
X151731012Y-98272568D01*
X151781012Y-98222568D01*
X151881012Y-98172568D01*
X152081012Y-98122568D01*
X152181012Y-98072568D01*
X152231012Y-98022568D01*
X152281012Y-97922568D01*
X152281012Y-97822568D01*
X152231012Y-97722568D01*
X152181012Y-97672568D01*
X152081012Y-97622568D01*
X151831012Y-97622568D01*
X151681012Y-97672568D01*
X161406012Y-99413068D02*
X161356012Y-99363068D01*
X161256012Y-99313068D01*
X161006012Y-99313068D01*
X160906012Y-99363068D01*
X160856012Y-99413068D01*
X160806012Y-99513068D01*
X160806012Y-99613068D01*
X160856012Y-99763068D01*
X161456012Y-100363068D01*
X160806012Y-100363068D01*
X160156012Y-99313068D02*
X160056012Y-99313068D01*
X159956012Y-99363068D01*
X159906012Y-99413068D01*
X159856012Y-99513068D01*
X159806012Y-99713068D01*
X159806012Y-99963068D01*
X159856012Y-100163068D01*
X159906012Y-100263068D01*
X159956012Y-100313068D01*
X160056012Y-100363068D01*
X160156012Y-100363068D01*
X160256012Y-100313068D01*
X160306012Y-100263068D01*
X160356012Y-100163068D01*
X160406012Y-99963068D01*
X160406012Y-99713068D01*
X160356012Y-99513068D01*
X160306012Y-99413068D01*
X160256012Y-99363068D01*
X160156012Y-99313068D01*
X159406012Y-99413068D02*
X159356012Y-99363068D01*
X159256012Y-99313068D01*
X159006012Y-99313068D01*
X158906012Y-99363068D01*
X158856012Y-99413068D01*
X158806012Y-99513068D01*
X158806012Y-99613068D01*
X158856012Y-99763068D01*
X159456012Y-100363068D01*
X158806012Y-100363068D01*
X158406012Y-99413068D02*
X158356012Y-99363068D01*
X158256012Y-99313068D01*
X158006012Y-99313068D01*
X157906012Y-99363068D01*
X157856012Y-99413068D01*
X157806012Y-99513068D01*
X157806012Y-99613068D01*
X157856012Y-99763068D01*
X158456012Y-100363068D01*
X157806012Y-100363068D01*
X157356012Y-99963068D02*
X156556012Y-99963068D01*
X155856012Y-99313068D02*
X155756012Y-99313068D01*
X155656012Y-99363068D01*
X155606012Y-99413068D01*
X155556012Y-99513068D01*
X155506012Y-99713068D01*
X155506012Y-99963068D01*
X155556012Y-100163068D01*
X155606012Y-100263068D01*
X155656012Y-100313068D01*
X155756012Y-100363068D01*
X155856012Y-100363068D01*
X155956012Y-100313068D01*
X156006012Y-100263068D01*
X156056012Y-100163068D01*
X156106012Y-99963068D01*
X156106012Y-99713068D01*
X156056012Y-99513068D01*
X156006012Y-99413068D01*
X155956012Y-99363068D01*
X155856012Y-99313068D01*
X155156012Y-99313068D02*
X154506012Y-99313068D01*
X154856012Y-99713068D01*
X154706012Y-99713068D01*
X154606012Y-99763068D01*
X154556012Y-99813068D01*
X154506012Y-99913068D01*
X154506012Y-100163068D01*
X154556012Y-100263068D01*
X154606012Y-100313068D01*
X154706012Y-100363068D01*
X155006012Y-100363068D01*
X155106012Y-100313068D01*
X155156012Y-100263068D01*
X154056012Y-99963068D02*
X153256012Y-99963068D01*
X152206012Y-100363068D02*
X152806012Y-100363068D01*
X152506012Y-100363068D02*
X152506012Y-99313068D01*
X152606012Y-99463068D01*
X152706012Y-99563068D01*
X152806012Y-99613068D01*
X151856012Y-99313068D02*
X151206012Y-99313068D01*
X151556012Y-99713068D01*
X151406012Y-99713068D01*
X151306012Y-99763068D01*
X151256012Y-99813068D01*
X151206012Y-99913068D01*
X151206012Y-100163068D01*
X151256012Y-100263068D01*
X151306012Y-100313068D01*
X151406012Y-100363068D01*
X151706012Y-100363068D01*
X151806012Y-100313068D01*
X151856012Y-100263068D01*
D12*
%TO.C,REF\u002A\u002A*%
X161881015Y-71000567D02*
X161281015Y-69650567D01*
X161781015Y-71175567D02*
X161781015Y-69325567D01*
X161881015Y-69300567D02*
X160531015Y-70250567D01*
X162031013Y-71625572D02*
X162031013Y-68925562D01*
X161781015Y-71150567D02*
X160531015Y-70250567D01*
X161981015Y-70800567D02*
X160731015Y-69900567D01*
X161881015Y-71000567D02*
X160631015Y-70100567D01*
X160031017Y-70275572D02*
X162031013Y-68925562D01*
X162031013Y-71625572D02*
X160031008Y-70275572D01*
%TD*%
D13*
%TO.P,J2,1,Pin_1*%
%TO.N,N/C*%
X191276007Y-75508192D03*
D14*
%TO.P,J2,2,Pin_2*%
X191276007Y-78048192D03*
%TO.P,J2,3,Pin_3*%
X191276007Y-80588192D03*
%TO.P,J2,4,Pin_4*%
X191276007Y-83128192D03*
%TO.P,J2,5,Pin_5*%
X191276007Y-85668192D03*
%TO.P,J2,6,Pin_6*%
X191276007Y-88208192D03*
%TO.P,J2,7,Pin_7*%
X191276007Y-90748192D03*
%TO.P,J2,8,Pin_8*%
X191276007Y-93288192D03*
%TD*%
D15*
%TO.P,REF\u002A\u002A,*%
%TO.N,*%
X189584006Y-65366012D03*
%TD*%
D16*
%TO.P,J1,1,Pin_1*%
%TO.N,N/C*%
X172914007Y-75508192D03*
D14*
%TO.P,J1,2,Pin_2*%
%TO.N,+5V*%
X172914007Y-78048192D03*
%TO.P,J1,3,Pin_3*%
%TO.N,N/C*%
X172914007Y-80588192D03*
%TO.P,J1,4,Pin_4*%
%TO.N,GND*%
X172914007Y-83128192D03*
%TO.P,J1,5,Pin_5*%
%TO.N,N/C*%
X172914007Y-85668192D03*
%TO.P,J1,6,Pin_6*%
X172914007Y-88208192D03*
%TO.P,J1,7,Pin_7*%
X172914007Y-90748192D03*
%TO.P,J1,8,Pin_8*%
X172914007Y-93288192D03*
%TD*%
D15*
%TO.P,REF\u002A\u002A,*%
%TO.N,*%
X189584006Y-103402432D03*
%TD*%
%TO.P,REF\u002A\u002A,*%
%TO.N,*%
X174606008Y-103402432D03*
%TD*%
D17*
%TO.P,C1,1*%
%TO.N,+5V*%
X173040018Y-72450000D03*
%TO.P,C1,2*%
%TO.N,GND*%
X173040018Y-69950000D03*
%TD*%
D16*
%TO.P,JTAG1,1,#MCLR*%
%TO.N,N/C*%
X182095007Y-75508192D03*
D14*
%TO.P,JTAG1,2,VDD*%
%TO.N,+5V*%
X182095007Y-78048192D03*
%TO.P,JTAG1,3,GND*%
%TO.N,GND*%
X182095007Y-80588192D03*
%TO.P,JTAG1,4,TDO*%
%TO.N,N/C*%
X182095007Y-83128192D03*
%TO.P,JTAG1,5,TCK*%
X182095007Y-85668192D03*
%TO.P,JTAG1,6,#RESET*%
X182095007Y-88208192D03*
%TO.P,JTAG1,7,TDI*%
X182095007Y-90748192D03*
%TO.P,JTAG1,8,TMS*%
X182095007Y-93288192D03*
%TD*%
D15*
%TO.P,REF\u002A\u002A,*%
%TO.N,*%
X174606008Y-65366012D03*
%TD*%
%TO.P,REF\u002A\u002A,*%
%TO.N,*%
X163849990Y-103399996D03*
%TD*%
D16*
%TO.P,J2,1,Pin_1*%
%TO.N,unconnected-(J2-Pad1)*%
X147179995Y-75505767D03*
D14*
%TO.P,J2,2,Pin_2*%
%TO.N,+5V*%
X147179995Y-78045767D03*
%TO.P,J2,3,Pin_3*%
%TO.N,unconnected-(J2-Pad3)*%
X147179995Y-80585767D03*
%TO.P,J2,4,Pin_4*%
%TO.N,GND*%
X147179995Y-83125767D03*
%TO.P,J2,5,Pin_5*%
%TO.N,unconnected-(J2-Pad5)*%
X147179995Y-85665767D03*
%TO.P,J2,6,Pin_6*%
%TO.N,MISO*%
X147179995Y-88205767D03*
%TO.P,J2,7,Pin_7*%
%TO.N,unconnected-(J2-Pad7)*%
X147179995Y-90745767D03*
%TO.P,J2,8,Pin_8*%
%TO.N,SCLK*%
X147179995Y-93285767D03*
%TD*%
D17*
%TO.P,C1,1*%
%TO.N,+5V*%
X150500000Y-78050000D03*
%TO.P,C1,2*%
%TO.N,GND*%
X150500000Y-80550000D03*
%TD*%
D15*
%TO.P,REF\u002A\u002A,*%
%TO.N,*%
X163849990Y-65363573D03*
%TD*%
%TO.P,REF\u002A\u002A,*%
%TO.N,*%
X148871991Y-103399996D03*
%TD*%
D13*
%TO.P,J3,1,Pin_1*%
%TO.N,SCLK*%
X165542011Y-75505767D03*
D14*
%TO.P,J3,2,Pin_2*%
%TO.N,unconnected-(J3-Pad2)*%
X165542011Y-78045767D03*
%TO.P,J3,3,Pin_3*%
%TO.N,RESET*%
X165542011Y-80585767D03*
%TO.P,J3,4,Pin_4*%
%TO.N,unconnected-(J3-Pad4)*%
X165542011Y-83125767D03*
%TO.P,J3,5,Pin_5*%
%TO.N,MOSI*%
X165542011Y-85665767D03*
%TO.P,J3,6,Pin_6*%
%TO.N,unconnected-(J3-Pad6)*%
X165542011Y-88205767D03*
%TO.P,J3,7,Pin_7*%
%TO.N,unconnected-(J3-Pad7)*%
X165542011Y-90745767D03*
%TO.P,J3,8,Pin_8*%
%TO.N,unconnected-(J3-Pad8)*%
X165542011Y-93285767D03*
%TD*%
D15*
%TO.P,REF\u002A\u002A,*%
%TO.N,*%
X148871991Y-65363573D03*
%TD*%
D18*
%TO.P,D1,1,K*%
%TO.N,Net-(D1-Pad1)*%
X157400000Y-87000000D03*
D19*
%TO.P,D1,2,A*%
%TO.N,MISO*%
X159940000Y-87000000D03*
%TD*%
D17*
%TO.P,R1,1*%
%TO.N,Net-(D1-Pad1)*%
X157400000Y-92450000D03*
D20*
%TO.P,R1,2*%
%TO.N,GND*%
X157400000Y-102610000D03*
%TD*%
D16*
%TO.P,J1,1,Pin_1*%
%TO.N,MISO*%
X157631003Y-70122567D03*
D14*
%TO.P,J1,2,Pin_2*%
%TO.N,SCLK*%
X155091003Y-70122567D03*
%TO.P,J1,3,Pin_3*%
%TO.N,RESET*%
X157631003Y-67582567D03*
%TO.P,J1,4,Pin_4*%
%TO.N,GND*%
X155091003Y-67582567D03*
%TO.P,J1,5,Pin_5*%
%TO.N,MOSI*%
X157631003Y-65042567D03*
%TO.P,J1,6,Pin_6*%
%TO.N,+5V*%
X155091003Y-65042567D03*
%TD*%
D21*
%TO.N,*%
X178008246Y-85668192D03*
%TO.N,GND*%
X176034006Y-90702432D03*
%TO.N,*%
X186181768Y-93288192D03*
X186181768Y-85668192D03*
X186181768Y-88208192D03*
%TO.N,+5V*%
X178008246Y-78048192D03*
%TO.N,*%
X186181768Y-90748192D03*
X178008246Y-83128192D03*
%TO.N,GND*%
X151650000Y-90650000D03*
X157300000Y-80600000D03*
%TO.N,MISO*%
X156250000Y-84750000D03*
X153900000Y-74700000D03*
X153900000Y-87200000D03*
%TO.N,SCLK*%
X155106012Y-72847568D03*
%TO.N,RESET*%
X160050000Y-80600000D03*
%TO.N,MOSI*%
X161600000Y-85650000D03*
%TO.N,Net-(D1-Pad1)*%
X157400000Y-90400000D03*
%TD*%
D22*
%TO.N,*%
X182095007Y-90748192D02*
X186181768Y-90748192D01*
D23*
%TO.N,+5V*%
X182095007Y-78048192D02*
X178008246Y-78048192D01*
D22*
%TO.N,*%
X186128246Y-88208192D02*
X186181768Y-88208192D01*
X182095007Y-85668192D02*
X186181768Y-85668192D01*
X182095007Y-88208192D02*
X186128246Y-88208192D01*
X182095007Y-83128192D02*
X178008246Y-83128192D01*
D23*
%TO.N,+5V*%
X173040018Y-72450000D02*
X177090018Y-72450000D01*
D22*
%TO.N,*%
X182095007Y-85668192D02*
X178008246Y-85668192D01*
D23*
%TO.N,+5V*%
X178008246Y-73368228D02*
X178008246Y-78048192D01*
D22*
%TO.N,*%
X182095007Y-93288192D02*
X186181768Y-93288192D01*
D23*
%TO.N,+5V*%
X177090018Y-72450000D02*
X178008246Y-73368228D01*
X147179995Y-78045767D02*
X150495767Y-78045767D01*
D22*
%TO.N,MISO*%
X159200000Y-84750000D02*
X156250000Y-84750000D01*
X152894233Y-88205767D02*
X153900000Y-87200000D01*
X153900000Y-87200000D02*
X153900000Y-74700000D01*
X159940000Y-85490000D02*
X159200000Y-84750000D01*
X159940000Y-87200000D02*
X159940000Y-85490000D01*
X147179995Y-88205767D02*
X152894233Y-88205767D01*
%TO.N,SCLK*%
X165542011Y-73642011D02*
X165542011Y-75505767D01*
X147179995Y-93285767D02*
X154064233Y-93285767D01*
X155106012Y-72847568D02*
X164747568Y-72847568D01*
X154064233Y-93285767D02*
X155106012Y-92243988D01*
X164747568Y-72847568D02*
X165542011Y-73642011D01*
X155106012Y-92243988D02*
X155106012Y-72847568D01*
%TO.N,RESET*%
X160064233Y-80585767D02*
X165542011Y-80585767D01*
X160050000Y-80600000D02*
X160064233Y-80585767D01*
%TO.N,MOSI*%
X161600000Y-85650000D02*
X161615767Y-85665767D01*
X161615767Y-85665767D02*
X165542011Y-85665767D01*
%TO.N,Net-(D1-Pad1)*%
X157400000Y-87200000D02*
X157400000Y-90400000D01*
%TD*%
%TA.AperFunction,Conductor*%
%TO.N,GND*%
G36*
X164870057Y-61824980D02*
G01*
X164884858Y-61827285D01*
X164884861Y-61827285D01*
X164893730Y-61828666D01*
X164910899Y-61826421D01*
X164934839Y-61825588D01*
X165192770Y-61841190D01*
X165207874Y-61843024D01*
X165278648Y-61855994D01*
X165488879Y-61894520D01*
X165503641Y-61898158D01*
X165776408Y-61983155D01*
X165790627Y-61988549D01*
X166051140Y-62105796D01*
X166064609Y-62112865D01*
X166309095Y-62260662D01*
X166321617Y-62269305D01*
X166546507Y-62445496D01*
X166557895Y-62455586D01*
X166759894Y-62657585D01*
X166769984Y-62668973D01*
X166946175Y-62893863D01*
X166954818Y-62906385D01*
X167102615Y-63150871D01*
X167109684Y-63164340D01*
X167226930Y-63424850D01*
X167232325Y-63439072D01*
X167308497Y-63683515D01*
X167317321Y-63711833D01*
X167320960Y-63726601D01*
X167338617Y-63822951D01*
X167372456Y-64007606D01*
X167374290Y-64022710D01*
X167389455Y-64273409D01*
X167388198Y-64300119D01*
X167388195Y-64300339D01*
X167386814Y-64309210D01*
X167387978Y-64318112D01*
X167387978Y-64318115D01*
X167390936Y-64340731D01*
X167392000Y-64357069D01*
X167392000Y-104400672D01*
X167390500Y-104420056D01*
X167386814Y-104443730D01*
X167388454Y-104456270D01*
X167389059Y-104460897D01*
X167389892Y-104484839D01*
X167374290Y-104742770D01*
X167372456Y-104757874D01*
X167320962Y-105038873D01*
X167317322Y-105053641D01*
X167251668Y-105264334D01*
X167232326Y-105326404D01*
X167226931Y-105340627D01*
X167150466Y-105510527D01*
X167109686Y-105601136D01*
X167102615Y-105614609D01*
X166954818Y-105859095D01*
X166946175Y-105871617D01*
X166769984Y-106096507D01*
X166759894Y-106107895D01*
X166557895Y-106309894D01*
X166546507Y-106319984D01*
X166321617Y-106496175D01*
X166309095Y-106504818D01*
X166064609Y-106652615D01*
X166051140Y-106659684D01*
X165790630Y-106776930D01*
X165776408Y-106782325D01*
X165503641Y-106867322D01*
X165488879Y-106870960D01*
X165278648Y-106909486D01*
X165207874Y-106922456D01*
X165192770Y-106924290D01*
X164942071Y-106939455D01*
X164915361Y-106938198D01*
X164915141Y-106938195D01*
X164906270Y-106936814D01*
X164897368Y-106937978D01*
X164897365Y-106937978D01*
X164874749Y-106940936D01*
X164858411Y-106942000D01*
X147871330Y-106942000D01*
X147851945Y-106940500D01*
X147837144Y-106938195D01*
X147837141Y-106938195D01*
X147828272Y-106936814D01*
X147811103Y-106939059D01*
X147787163Y-106939892D01*
X147529232Y-106924290D01*
X147514128Y-106922456D01*
X147443354Y-106909486D01*
X147233123Y-106870960D01*
X147218361Y-106867322D01*
X146945594Y-106782325D01*
X146931372Y-106776930D01*
X146670862Y-106659684D01*
X146657393Y-106652615D01*
X146412907Y-106504818D01*
X146400385Y-106496175D01*
X146175495Y-106319984D01*
X146164107Y-106309894D01*
X145962108Y-106107895D01*
X145952018Y-106096507D01*
X145775827Y-105871617D01*
X145767184Y-105859095D01*
X145619387Y-105614609D01*
X145612316Y-105601136D01*
X145571537Y-105510527D01*
X145495071Y-105340627D01*
X145489676Y-105326404D01*
X145470334Y-105264334D01*
X145404680Y-105053641D01*
X145401040Y-105038873D01*
X145349546Y-104757874D01*
X145347712Y-104742770D01*
X145332547Y-104492071D01*
X145333804Y-104465361D01*
X145333807Y-104465141D01*
X145335188Y-104456270D01*
X145333549Y-104443730D01*
X145331066Y-104424749D01*
X145330002Y-104408411D01*
X145330002Y-103377865D01*
X146758680Y-103377865D01*
X146775229Y-103664879D01*
X146776054Y-103669084D01*
X146776055Y-103669092D01*
X146790738Y-103743931D01*
X146830577Y-103946991D01*
X146831964Y-103951041D01*
X146831965Y-103951046D01*
X146922312Y-104214926D01*
X146923701Y-104218982D01*
X146925628Y-104222813D01*
X147047617Y-104465361D01*
X147052876Y-104475818D01*
X147215712Y-104712746D01*
X147409197Y-104925384D01*
X147412492Y-104928139D01*
X147412493Y-104928140D01*
X147562599Y-105053647D01*
X147629750Y-105109794D01*
X147873289Y-105262567D01*
X148135309Y-105380873D01*
X148139428Y-105382093D01*
X148406848Y-105461307D01*
X148406853Y-105461308D01*
X148410961Y-105462525D01*
X148415195Y-105463173D01*
X148415200Y-105463174D01*
X148663802Y-105501215D01*
X148695144Y-105506011D01*
X148841476Y-105508310D01*
X148978308Y-105510460D01*
X148978314Y-105510460D01*
X148982599Y-105510527D01*
X148986851Y-105510012D01*
X148986859Y-105510012D01*
X149263747Y-105476504D01*
X149263752Y-105476503D01*
X149268008Y-105475988D01*
X149546088Y-105403035D01*
X149811695Y-105293017D01*
X150059913Y-105147970D01*
X150286150Y-104970578D01*
X150327276Y-104928140D01*
X150483235Y-104767202D01*
X150486218Y-104764124D01*
X150488751Y-104760676D01*
X150488755Y-104760671D01*
X150653878Y-104535882D01*
X150656416Y-104532427D01*
X150704575Y-104443730D01*
X150791545Y-104283551D01*
X150791546Y-104283549D01*
X150793595Y-104279775D01*
X150895216Y-104010844D01*
X150922574Y-103891394D01*
X150958440Y-103734793D01*
X150958441Y-103734789D01*
X150959398Y-103730609D01*
X150984954Y-103444256D01*
X150985418Y-103399996D01*
X150983618Y-103373594D01*
X150966156Y-103117448D01*
X150966155Y-103117442D01*
X150965864Y-103113171D01*
X150961327Y-103091260D01*
X150916857Y-102876522D01*
X156117273Y-102876522D01*
X156164764Y-103053761D01*
X156168510Y-103064053D01*
X156260586Y-103261511D01*
X156266069Y-103271007D01*
X156391028Y-103449467D01*
X156398084Y-103457875D01*
X156552125Y-103611916D01*
X156560533Y-103618972D01*
X156738993Y-103743931D01*
X156748489Y-103749414D01*
X156945947Y-103841490D01*
X156956239Y-103845236D01*
X157128503Y-103891394D01*
X157142599Y-103891058D01*
X157146000Y-103883116D01*
X157146000Y-103877967D01*
X157654000Y-103877967D01*
X157657973Y-103891498D01*
X157666522Y-103892727D01*
X157843761Y-103845236D01*
X157854053Y-103841490D01*
X158051511Y-103749414D01*
X158061007Y-103743931D01*
X158239467Y-103618972D01*
X158247875Y-103611916D01*
X158401916Y-103457875D01*
X158408972Y-103449467D01*
X158459108Y-103377865D01*
X161736679Y-103377865D01*
X161753228Y-103664879D01*
X161754053Y-103669084D01*
X161754054Y-103669092D01*
X161768737Y-103743931D01*
X161808576Y-103946991D01*
X161809963Y-103951041D01*
X161809964Y-103951046D01*
X161900311Y-104214926D01*
X161901700Y-104218982D01*
X161903627Y-104222813D01*
X162025616Y-104465361D01*
X162030875Y-104475818D01*
X162193711Y-104712746D01*
X162387196Y-104925384D01*
X162390491Y-104928139D01*
X162390492Y-104928140D01*
X162540598Y-105053647D01*
X162607749Y-105109794D01*
X162851288Y-105262567D01*
X163113308Y-105380873D01*
X163117427Y-105382093D01*
X163384847Y-105461307D01*
X163384852Y-105461308D01*
X163388960Y-105462525D01*
X163393194Y-105463173D01*
X163393199Y-105463174D01*
X163641801Y-105501215D01*
X163673143Y-105506011D01*
X163819475Y-105508310D01*
X163956307Y-105510460D01*
X163956313Y-105510460D01*
X163960598Y-105510527D01*
X163964850Y-105510012D01*
X163964858Y-105510012D01*
X164241746Y-105476504D01*
X164241751Y-105476503D01*
X164246007Y-105475988D01*
X164524087Y-105403035D01*
X164789694Y-105293017D01*
X165037912Y-105147970D01*
X165264149Y-104970578D01*
X165305275Y-104928140D01*
X165461234Y-104767202D01*
X165464217Y-104764124D01*
X165466750Y-104760676D01*
X165466754Y-104760671D01*
X165631877Y-104535882D01*
X165634415Y-104532427D01*
X165682574Y-104443730D01*
X165769544Y-104283551D01*
X165769545Y-104283549D01*
X165771594Y-104279775D01*
X165873215Y-104010844D01*
X165900573Y-103891394D01*
X165936439Y-103734793D01*
X165936440Y-103734789D01*
X165937397Y-103730609D01*
X165962953Y-103444256D01*
X165963417Y-103399996D01*
X165961617Y-103373594D01*
X165944155Y-103117448D01*
X165944154Y-103117442D01*
X165943863Y-103113171D01*
X165939326Y-103091260D01*
X165892858Y-102866876D01*
X165885564Y-102831654D01*
X165789597Y-102560653D01*
X165657740Y-102305184D01*
X165644478Y-102286313D01*
X165560088Y-102166239D01*
X165492431Y-102069973D01*
X165419596Y-101991593D01*
X165299651Y-101862517D01*
X165299648Y-101862515D01*
X165296730Y-101859374D01*
X165074258Y-101677283D01*
X164829132Y-101527069D01*
X164811038Y-101519126D01*
X164569820Y-101413239D01*
X164565888Y-101411513D01*
X164539953Y-101404125D01*
X164293524Y-101333928D01*
X164293525Y-101333928D01*
X164289396Y-101332752D01*
X164076694Y-101302481D01*
X164009026Y-101292850D01*
X164009024Y-101292850D01*
X164004774Y-101292245D01*
X164000485Y-101292223D01*
X164000478Y-101292222D01*
X163721573Y-101290761D01*
X163721566Y-101290761D01*
X163717287Y-101290739D01*
X163713043Y-101291298D01*
X163713039Y-101291298D01*
X163587650Y-101307806D01*
X163432256Y-101328264D01*
X163428116Y-101329397D01*
X163428114Y-101329397D01*
X163351301Y-101350411D01*
X163154954Y-101404125D01*
X163151006Y-101405809D01*
X162894466Y-101515233D01*
X162894462Y-101515235D01*
X162890514Y-101516919D01*
X162817515Y-101560608D01*
X162647511Y-101662353D01*
X162647507Y-101662356D01*
X162643829Y-101664557D01*
X162640486Y-101667235D01*
X162640482Y-101667238D01*
X162535877Y-101751043D01*
X162470207Y-101778025D01*
X162465564Y-101777174D01*
X162463464Y-101791774D01*
X162427631Y-101837764D01*
X162422808Y-101841628D01*
X162419462Y-101844309D01*
X162221567Y-102052847D01*
X162053804Y-102286313D01*
X161919278Y-102540388D01*
X161820479Y-102810369D01*
X161759235Y-103091260D01*
X161736679Y-103377865D01*
X158459108Y-103377865D01*
X158533931Y-103271007D01*
X158539414Y-103261511D01*
X158631490Y-103064053D01*
X158635236Y-103053761D01*
X158681394Y-102881497D01*
X158681058Y-102867401D01*
X158673116Y-102864000D01*
X157672115Y-102864000D01*
X157656876Y-102868475D01*
X157655671Y-102869865D01*
X157654000Y-102877548D01*
X157654000Y-103877967D01*
X157146000Y-103877967D01*
X157146000Y-102882115D01*
X157141525Y-102866876D01*
X157140135Y-102865671D01*
X157132452Y-102864000D01*
X156132033Y-102864000D01*
X156118502Y-102867973D01*
X156117273Y-102876522D01*
X150916857Y-102876522D01*
X150914859Y-102866876D01*
X150907565Y-102831654D01*
X150811598Y-102560653D01*
X150679741Y-102305184D01*
X150666479Y-102286313D01*
X150582089Y-102166239D01*
X150514432Y-102069973D01*
X150441597Y-101991593D01*
X150321652Y-101862517D01*
X150321649Y-101862515D01*
X150318731Y-101859374D01*
X150294843Y-101839822D01*
X150254797Y-101781197D01*
X150252804Y-101710229D01*
X150289495Y-101649448D01*
X150353222Y-101618153D01*
X150374649Y-101616318D01*
X156256967Y-101616318D01*
X156325088Y-101636320D01*
X156371581Y-101689976D01*
X156381685Y-101760250D01*
X156360180Y-101814589D01*
X156266069Y-101948993D01*
X156260586Y-101958489D01*
X156168510Y-102155947D01*
X156164764Y-102166239D01*
X156118606Y-102338503D01*
X156118942Y-102352599D01*
X156126884Y-102356000D01*
X158667967Y-102356000D01*
X158681498Y-102352027D01*
X158682727Y-102343478D01*
X158635236Y-102166239D01*
X158631490Y-102155947D01*
X158539414Y-101958489D01*
X158533931Y-101948993D01*
X158439820Y-101814589D01*
X158417132Y-101747315D01*
X158434417Y-101678454D01*
X158486187Y-101629870D01*
X158543033Y-101616318D01*
X162339012Y-101616318D01*
X162339012Y-94778818D01*
X150273012Y-94778818D01*
X150273012Y-101560608D01*
X150253010Y-101628729D01*
X150199354Y-101675222D01*
X150129080Y-101685326D01*
X150081177Y-101668040D01*
X149854801Y-101529316D01*
X149854790Y-101529310D01*
X149851133Y-101527069D01*
X149833039Y-101519126D01*
X149591821Y-101413239D01*
X149587889Y-101411513D01*
X149561954Y-101404125D01*
X149315525Y-101333928D01*
X149315526Y-101333928D01*
X149311397Y-101332752D01*
X149098695Y-101302481D01*
X149031027Y-101292850D01*
X149031025Y-101292850D01*
X149026775Y-101292245D01*
X149022486Y-101292223D01*
X149022479Y-101292222D01*
X148743574Y-101290761D01*
X148743567Y-101290761D01*
X148739288Y-101290739D01*
X148735044Y-101291298D01*
X148735040Y-101291298D01*
X148609651Y-101307806D01*
X148454257Y-101328264D01*
X148450117Y-101329397D01*
X148450115Y-101329397D01*
X148373302Y-101350411D01*
X148176955Y-101404125D01*
X148173007Y-101405809D01*
X147916467Y-101515233D01*
X147916463Y-101515235D01*
X147912515Y-101516919D01*
X147839516Y-101560608D01*
X147669512Y-101662353D01*
X147669508Y-101662356D01*
X147665830Y-101664557D01*
X147441463Y-101844309D01*
X147243568Y-102052847D01*
X147075805Y-102286313D01*
X146941279Y-102540388D01*
X146842480Y-102810369D01*
X146781236Y-103091260D01*
X146758680Y-103377865D01*
X145330002Y-103377865D01*
X145330002Y-93252462D01*
X145817246Y-93252462D01*
X145817543Y-93257615D01*
X145817543Y-93257618D01*
X145823006Y-93352357D01*
X145830105Y-93475482D01*
X145831242Y-93480528D01*
X145831243Y-93480534D01*
X145851114Y-93568706D01*
X145879217Y-93693406D01*
X145939009Y-93840657D01*
X145956657Y-93884118D01*
X145963261Y-93900383D01*
X146079982Y-94090855D01*
X146226245Y-94259705D01*
X146398121Y-94402399D01*
X146590995Y-94515105D01*
X146799687Y-94594797D01*
X146804755Y-94595828D01*
X146804758Y-94595829D01*
X146912012Y-94617650D01*
X147018592Y-94639334D01*
X147023767Y-94639524D01*
X147023769Y-94639524D01*
X147236668Y-94647331D01*
X147236672Y-94647331D01*
X147241832Y-94647520D01*
X147246952Y-94646864D01*
X147246954Y-94646864D01*
X147458283Y-94619792D01*
X147458284Y-94619792D01*
X147463411Y-94619135D01*
X147468361Y-94617650D01*
X147672424Y-94556428D01*
X147672429Y-94556426D01*
X147677379Y-94554941D01*
X147877989Y-94456663D01*
X148059855Y-94326940D01*
X148218091Y-94169256D01*
X148277589Y-94086456D01*
X148345430Y-93992044D01*
X148348448Y-93987844D01*
X148350741Y-93983204D01*
X148352441Y-93980375D01*
X148404669Y-93932285D01*
X148460446Y-93919267D01*
X153985466Y-93919267D01*
X153996649Y-93919794D01*
X154004142Y-93921469D01*
X154012068Y-93921220D01*
X154012069Y-93921220D01*
X154072219Y-93919329D01*
X154076178Y-93919267D01*
X154104089Y-93919267D01*
X154108024Y-93918770D01*
X154108089Y-93918762D01*
X154119926Y-93917829D01*
X154152184Y-93916815D01*
X154156203Y-93916689D01*
X154164122Y-93916440D01*
X154183576Y-93910788D01*
X154202933Y-93906780D01*
X154215163Y-93905235D01*
X154215164Y-93905235D01*
X154223030Y-93904241D01*
X154230401Y-93901322D01*
X154230403Y-93901322D01*
X154264145Y-93887963D01*
X154275375Y-93884118D01*
X154310216Y-93873996D01*
X154310217Y-93873996D01*
X154317826Y-93871785D01*
X154324645Y-93867752D01*
X154324650Y-93867750D01*
X154335261Y-93861474D01*
X154353009Y-93852779D01*
X154371850Y-93845319D01*
X154407620Y-93819331D01*
X154417540Y-93812815D01*
X154448768Y-93794347D01*
X154448771Y-93794345D01*
X154455595Y-93790309D01*
X154469916Y-93775988D01*
X154484950Y-93763147D01*
X154494927Y-93755898D01*
X154501340Y-93751239D01*
X154506390Y-93745135D01*
X154506395Y-93745130D01*
X154529526Y-93717169D01*
X154537516Y-93708388D01*
X155498270Y-92747635D01*
X155506549Y-92740101D01*
X155513030Y-92735988D01*
X155559656Y-92686336D01*
X155562410Y-92683495D01*
X155582147Y-92663758D01*
X155584627Y-92660561D01*
X155592332Y-92651539D01*
X155605742Y-92637259D01*
X155622598Y-92619309D01*
X155626417Y-92612363D01*
X155626419Y-92612360D01*
X155632360Y-92601554D01*
X155643211Y-92585035D01*
X155650770Y-92575289D01*
X155655626Y-92569029D01*
X155658771Y-92561760D01*
X155658774Y-92561756D01*
X155673186Y-92528451D01*
X155678403Y-92517801D01*
X155699707Y-92479048D01*
X155704745Y-92459425D01*
X155711149Y-92440722D01*
X155716045Y-92429408D01*
X155716045Y-92429407D01*
X155719193Y-92422133D01*
X155720432Y-92414310D01*
X155720435Y-92414300D01*
X155726111Y-92378464D01*
X155728517Y-92366844D01*
X155737540Y-92331699D01*
X155737540Y-92331698D01*
X155739512Y-92324018D01*
X155739512Y-92303764D01*
X155741063Y-92284053D01*
X155742992Y-92271874D01*
X155744232Y-92264045D01*
X155740071Y-92220026D01*
X155739512Y-92208169D01*
X155739512Y-87948356D01*
X155759514Y-87880235D01*
X155813170Y-87833742D01*
X155883444Y-87823638D01*
X155948024Y-87853132D01*
X155986408Y-87912858D01*
X155991328Y-87941542D01*
X155991500Y-87944718D01*
X155991500Y-87948134D01*
X155998255Y-88010316D01*
X156049385Y-88146705D01*
X156136739Y-88263261D01*
X156253295Y-88350615D01*
X156389684Y-88401745D01*
X156451866Y-88408500D01*
X156640500Y-88408500D01*
X156708621Y-88428502D01*
X156755114Y-88482158D01*
X156766500Y-88534500D01*
X156766500Y-89423988D01*
X156746498Y-89492109D01*
X156723579Y-89518718D01*
X156592478Y-89633690D01*
X156588911Y-89638215D01*
X156588906Y-89638220D01*
X156516443Y-89730140D01*
X156466351Y-89793681D01*
X156371492Y-89973978D01*
X156311078Y-90168543D01*
X156287132Y-90370859D01*
X156300457Y-90574151D01*
X156350605Y-90771610D01*
X156435898Y-90956624D01*
X156553479Y-91122997D01*
X156557613Y-91127024D01*
X156637004Y-91204364D01*
X156671841Y-91266226D01*
X156667704Y-91337102D01*
X156621353Y-91397831D01*
X156560211Y-91440643D01*
X156560208Y-91440645D01*
X156555700Y-91443802D01*
X156393802Y-91605700D01*
X156390645Y-91610208D01*
X156390643Y-91610211D01*
X156377308Y-91629256D01*
X156262477Y-91793251D01*
X156260154Y-91798233D01*
X156260151Y-91798238D01*
X156174656Y-91981584D01*
X156165716Y-92000757D01*
X156164294Y-92006065D01*
X156164293Y-92006067D01*
X156125628Y-92150365D01*
X156106457Y-92221913D01*
X156086502Y-92450000D01*
X156106457Y-92678087D01*
X156107881Y-92683400D01*
X156107881Y-92683402D01*
X156121972Y-92735988D01*
X156165716Y-92899243D01*
X156168039Y-92904224D01*
X156168039Y-92904225D01*
X156260151Y-93101762D01*
X156260154Y-93101767D01*
X156262477Y-93106749D01*
X156265634Y-93111257D01*
X156385479Y-93282413D01*
X156393802Y-93294300D01*
X156555700Y-93456198D01*
X156560208Y-93459355D01*
X156560211Y-93459357D01*
X156583240Y-93475482D01*
X156743251Y-93587523D01*
X156748233Y-93589846D01*
X156748238Y-93589849D01*
X156945775Y-93681961D01*
X156950757Y-93684284D01*
X156956065Y-93685706D01*
X156956067Y-93685707D01*
X157166598Y-93742119D01*
X157166600Y-93742119D01*
X157171913Y-93743543D01*
X157400000Y-93763498D01*
X157628087Y-93743543D01*
X157633400Y-93742119D01*
X157633402Y-93742119D01*
X157843933Y-93685707D01*
X157843935Y-93685706D01*
X157849243Y-93684284D01*
X157854225Y-93681961D01*
X158051762Y-93589849D01*
X158051767Y-93589846D01*
X158056749Y-93587523D01*
X158216760Y-93475482D01*
X158239789Y-93459357D01*
X158239792Y-93459355D01*
X158244300Y-93456198D01*
X158406198Y-93294300D01*
X158414522Y-93282413D01*
X158534366Y-93111257D01*
X158537523Y-93106749D01*
X158539846Y-93101767D01*
X158539849Y-93101762D01*
X158631961Y-92904225D01*
X158631961Y-92904224D01*
X158634284Y-92899243D01*
X158678029Y-92735988D01*
X158692119Y-92683402D01*
X158692119Y-92683400D01*
X158693543Y-92678087D01*
X158713498Y-92450000D01*
X158693543Y-92221913D01*
X158674372Y-92150365D01*
X158635707Y-92006067D01*
X158635706Y-92006065D01*
X158634284Y-92000757D01*
X158625344Y-91981584D01*
X158539849Y-91798238D01*
X158539846Y-91798233D01*
X158537523Y-91793251D01*
X158422692Y-91629256D01*
X158409357Y-91610211D01*
X158409355Y-91610208D01*
X158406198Y-91605700D01*
X158244300Y-91443802D01*
X158239792Y-91440645D01*
X158239789Y-91440643D01*
X158180896Y-91399406D01*
X158136568Y-91343949D01*
X158129259Y-91273330D01*
X158161290Y-91209969D01*
X158172597Y-91199320D01*
X158182746Y-91190879D01*
X158182748Y-91190877D01*
X158187186Y-91187186D01*
X158317458Y-91030551D01*
X158417004Y-90852799D01*
X158418860Y-90847332D01*
X158418862Y-90847327D01*
X158480634Y-90665352D01*
X158480635Y-90665347D01*
X158482490Y-90659883D01*
X158511723Y-90458263D01*
X158513249Y-90400000D01*
X158494608Y-90197126D01*
X158469008Y-90106357D01*
X158440875Y-90006606D01*
X158440874Y-90006604D01*
X158439307Y-90001047D01*
X158428680Y-89979496D01*
X158351756Y-89823510D01*
X158349201Y-89818329D01*
X158330796Y-89793681D01*
X158230758Y-89659715D01*
X158230758Y-89659714D01*
X158227305Y-89655091D01*
X158077703Y-89516800D01*
X158078681Y-89515742D01*
X158040926Y-89464029D01*
X158033500Y-89421411D01*
X158033500Y-88534500D01*
X158053502Y-88466379D01*
X158107158Y-88419886D01*
X158159500Y-88408500D01*
X158348134Y-88408500D01*
X158410316Y-88401745D01*
X158546705Y-88350615D01*
X158663261Y-88263261D01*
X158750615Y-88146705D01*
X158775180Y-88081178D01*
X158817822Y-88024414D01*
X158884383Y-87999714D01*
X158953732Y-88014921D01*
X158973647Y-88028464D01*
X159038724Y-88082492D01*
X159129349Y-88157730D01*
X159329322Y-88274584D01*
X159334147Y-88276426D01*
X159334148Y-88276427D01*
X159352194Y-88283318D01*
X159545694Y-88357209D01*
X159550760Y-88358240D01*
X159550761Y-88358240D01*
X159603846Y-88369040D01*
X159772656Y-88403385D01*
X159902089Y-88408131D01*
X159998949Y-88411683D01*
X159998953Y-88411683D01*
X160004113Y-88411872D01*
X160009233Y-88411216D01*
X160009235Y-88411216D01*
X160092619Y-88400534D01*
X160233847Y-88382442D01*
X160238795Y-88380957D01*
X160238802Y-88380956D01*
X160450747Y-88317369D01*
X160455690Y-88315886D01*
X160465880Y-88310894D01*
X160659049Y-88216262D01*
X160659052Y-88216260D01*
X160663684Y-88213991D01*
X160852243Y-88079494D01*
X161016303Y-87916005D01*
X161151458Y-87727917D01*
X161229808Y-87569388D01*
X161251784Y-87524922D01*
X161251785Y-87524920D01*
X161254078Y-87520280D01*
X161321408Y-87298671D01*
X161351640Y-87069041D01*
X161353327Y-87000000D01*
X161344345Y-86890745D01*
X161358698Y-86821214D01*
X161408364Y-86770481D01*
X161474867Y-86754518D01*
X161564927Y-86758056D01*
X161658263Y-86761723D01*
X161859883Y-86732490D01*
X161865347Y-86730635D01*
X161865352Y-86730634D01*
X162047327Y-86668862D01*
X162047332Y-86668860D01*
X162052799Y-86667004D01*
X162230551Y-86567458D01*
X162387186Y-86437186D01*
X162464108Y-86344697D01*
X162523044Y-86305114D01*
X162560981Y-86299267D01*
X164266285Y-86299267D01*
X164334406Y-86319269D01*
X164373718Y-86359432D01*
X164441998Y-86470855D01*
X164588261Y-86639705D01*
X164760137Y-86782399D01*
X164826561Y-86821214D01*
X164833456Y-86825243D01*
X164882180Y-86876881D01*
X164895251Y-86946664D01*
X164868520Y-87012436D01*
X164828066Y-87045794D01*
X164815618Y-87052274D01*
X164811485Y-87055377D01*
X164811482Y-87055379D01*
X164641111Y-87183297D01*
X164636976Y-87186402D01*
X164482640Y-87347905D01*
X164479726Y-87352177D01*
X164479725Y-87352178D01*
X164418321Y-87442193D01*
X164356754Y-87532447D01*
X164341014Y-87566357D01*
X164268174Y-87723278D01*
X164262699Y-87735072D01*
X164203000Y-87950337D01*
X164179262Y-88172462D01*
X164179559Y-88177615D01*
X164179559Y-88177618D01*
X164187617Y-88317369D01*
X164192121Y-88395482D01*
X164193258Y-88400528D01*
X164193259Y-88400534D01*
X164213130Y-88488706D01*
X164241233Y-88613406D01*
X164301025Y-88760657D01*
X164318673Y-88804118D01*
X164325277Y-88820383D01*
X164441998Y-89010855D01*
X164588261Y-89179705D01*
X164760137Y-89322399D01*
X164830606Y-89363578D01*
X164833456Y-89365243D01*
X164882180Y-89416881D01*
X164895251Y-89486664D01*
X164868520Y-89552436D01*
X164828066Y-89585794D01*
X164815618Y-89592274D01*
X164811485Y-89595377D01*
X164811482Y-89595379D01*
X164641111Y-89723297D01*
X164636976Y-89726402D01*
X164482640Y-89887905D01*
X164356754Y-90072447D01*
X164262699Y-90275072D01*
X164203000Y-90490337D01*
X164179262Y-90712462D01*
X164179559Y-90717615D01*
X164179559Y-90717618D01*
X164185022Y-90812357D01*
X164192121Y-90935482D01*
X164193258Y-90940528D01*
X164193259Y-90940534D01*
X164197948Y-90961340D01*
X164241233Y-91153406D01*
X164325277Y-91360383D01*
X164441998Y-91550855D01*
X164588261Y-91719705D01*
X164760137Y-91862399D01*
X164830606Y-91903578D01*
X164833456Y-91905243D01*
X164882180Y-91956881D01*
X164895251Y-92026664D01*
X164868520Y-92092436D01*
X164828066Y-92125794D01*
X164815618Y-92132274D01*
X164811485Y-92135377D01*
X164811482Y-92135379D01*
X164688931Y-92227393D01*
X164636976Y-92266402D01*
X164482640Y-92427905D01*
X164479726Y-92432177D01*
X164479725Y-92432178D01*
X164467689Y-92449822D01*
X164356754Y-92612447D01*
X164322456Y-92686337D01*
X164296899Y-92741395D01*
X164262699Y-92815072D01*
X164203000Y-93030337D01*
X164179262Y-93252462D01*
X164179559Y-93257615D01*
X164179559Y-93257618D01*
X164185022Y-93352357D01*
X164192121Y-93475482D01*
X164193258Y-93480528D01*
X164193259Y-93480534D01*
X164213130Y-93568706D01*
X164241233Y-93693406D01*
X164301025Y-93840657D01*
X164318673Y-93884118D01*
X164325277Y-93900383D01*
X164441998Y-94090855D01*
X164588261Y-94259705D01*
X164760137Y-94402399D01*
X164953011Y-94515105D01*
X165161703Y-94594797D01*
X165166771Y-94595828D01*
X165166774Y-94595829D01*
X165274028Y-94617650D01*
X165380608Y-94639334D01*
X165385783Y-94639524D01*
X165385785Y-94639524D01*
X165598684Y-94647331D01*
X165598688Y-94647331D01*
X165603848Y-94647520D01*
X165608968Y-94646864D01*
X165608970Y-94646864D01*
X165820299Y-94619792D01*
X165820300Y-94619792D01*
X165825427Y-94619135D01*
X165830377Y-94617650D01*
X166034440Y-94556428D01*
X166034445Y-94556426D01*
X166039395Y-94554941D01*
X166240005Y-94456663D01*
X166421871Y-94326940D01*
X166580107Y-94169256D01*
X166639605Y-94086456D01*
X166707446Y-93992044D01*
X166710464Y-93987844D01*
X166714156Y-93980375D01*
X166807147Y-93792220D01*
X166807148Y-93792218D01*
X166809441Y-93787578D01*
X166874381Y-93573836D01*
X166903540Y-93352357D01*
X166903622Y-93349007D01*
X166905085Y-93289132D01*
X166905085Y-93289128D01*
X166905167Y-93285767D01*
X166886863Y-93063128D01*
X166832442Y-92846469D01*
X166743365Y-92641607D01*
X166622025Y-92454044D01*
X166471681Y-92288818D01*
X166467630Y-92285619D01*
X166467626Y-92285615D01*
X166300425Y-92153567D01*
X166300421Y-92153565D01*
X166296370Y-92150365D01*
X166255064Y-92127563D01*
X166205095Y-92077131D01*
X166190323Y-92007688D01*
X166215439Y-91941283D01*
X166242791Y-91914676D01*
X166286614Y-91883417D01*
X166421871Y-91786940D01*
X166580107Y-91629256D01*
X166639605Y-91546456D01*
X166707446Y-91452044D01*
X166710464Y-91447844D01*
X166734404Y-91399406D01*
X166807147Y-91252220D01*
X166807148Y-91252218D01*
X166809441Y-91247578D01*
X166874381Y-91033836D01*
X166903540Y-90812357D01*
X166903622Y-90809007D01*
X166905085Y-90749132D01*
X166905085Y-90749128D01*
X166905167Y-90745767D01*
X166886863Y-90523128D01*
X166832442Y-90306469D01*
X166743365Y-90101607D01*
X166660798Y-89973978D01*
X166624833Y-89918384D01*
X166624831Y-89918381D01*
X166622025Y-89914044D01*
X166471681Y-89748818D01*
X166467630Y-89745619D01*
X166467626Y-89745615D01*
X166300425Y-89613567D01*
X166300421Y-89613565D01*
X166296370Y-89610365D01*
X166255064Y-89587563D01*
X166205095Y-89537131D01*
X166190323Y-89467688D01*
X166215439Y-89401283D01*
X166242791Y-89374676D01*
X166286614Y-89343417D01*
X166421871Y-89246940D01*
X166580107Y-89089256D01*
X166639605Y-89006456D01*
X166707446Y-88912044D01*
X166710464Y-88907844D01*
X166714156Y-88900375D01*
X166807147Y-88712220D01*
X166807148Y-88712218D01*
X166809441Y-88707578D01*
X166874381Y-88493836D01*
X166903540Y-88272357D01*
X166903631Y-88268642D01*
X166905085Y-88209132D01*
X166905085Y-88209128D01*
X166905167Y-88205767D01*
X166886863Y-87983128D01*
X166832442Y-87766469D01*
X166743365Y-87561607D01*
X166666113Y-87442193D01*
X166624833Y-87378384D01*
X166624831Y-87378381D01*
X166622025Y-87374044D01*
X166471681Y-87208818D01*
X166467630Y-87205619D01*
X166467626Y-87205615D01*
X166300425Y-87073567D01*
X166300421Y-87073565D01*
X166296370Y-87070365D01*
X166255064Y-87047563D01*
X166205095Y-86997131D01*
X166190323Y-86927688D01*
X166215439Y-86861283D01*
X166242791Y-86834676D01*
X166286614Y-86803417D01*
X166421871Y-86706940D01*
X166580107Y-86549256D01*
X166639605Y-86466456D01*
X166707446Y-86372044D01*
X166710464Y-86367844D01*
X166714622Y-86359432D01*
X166807147Y-86172220D01*
X166807148Y-86172218D01*
X166809441Y-86167578D01*
X166861314Y-85996844D01*
X166872876Y-85958790D01*
X166872876Y-85958788D01*
X166874381Y-85953836D01*
X166903540Y-85732357D01*
X166905167Y-85665767D01*
X166886863Y-85443128D01*
X166832442Y-85226469D01*
X166743365Y-85021607D01*
X166670979Y-84909715D01*
X166624833Y-84838384D01*
X166624831Y-84838381D01*
X166622025Y-84834044D01*
X166471681Y-84668818D01*
X166467630Y-84665619D01*
X166467626Y-84665615D01*
X166300425Y-84533567D01*
X166300421Y-84533565D01*
X166296370Y-84530365D01*
X166255064Y-84507563D01*
X166205095Y-84457131D01*
X166190323Y-84387688D01*
X166215439Y-84321283D01*
X166242791Y-84294676D01*
X166286614Y-84263417D01*
X166421871Y-84166940D01*
X166440074Y-84148801D01*
X166576446Y-84012904D01*
X166580107Y-84009256D01*
X166639605Y-83926456D01*
X166707446Y-83832044D01*
X166710464Y-83827844D01*
X166744940Y-83758088D01*
X166807147Y-83632220D01*
X166807148Y-83632218D01*
X166809441Y-83627578D01*
X166874381Y-83413836D01*
X166903540Y-83192357D01*
X166905167Y-83125767D01*
X166886863Y-82903128D01*
X166832442Y-82686469D01*
X166743365Y-82481607D01*
X166622025Y-82294044D01*
X166471681Y-82128818D01*
X166467630Y-82125619D01*
X166467626Y-82125615D01*
X166300425Y-81993567D01*
X166300421Y-81993565D01*
X166296370Y-81990365D01*
X166255064Y-81967563D01*
X166205095Y-81917131D01*
X166190323Y-81847688D01*
X166215439Y-81781283D01*
X166242791Y-81754676D01*
X166304171Y-81710894D01*
X166421871Y-81626940D01*
X166429978Y-81618862D01*
X166576446Y-81472904D01*
X166580107Y-81469256D01*
X166639605Y-81386456D01*
X166707446Y-81292044D01*
X166710464Y-81287844D01*
X166714622Y-81279432D01*
X166807147Y-81092220D01*
X166807148Y-81092218D01*
X166809441Y-81087578D01*
X166860723Y-80918790D01*
X166872876Y-80878790D01*
X166872876Y-80878788D01*
X166874381Y-80873836D01*
X166903540Y-80652357D01*
X166905167Y-80585767D01*
X166886863Y-80363128D01*
X166832442Y-80146469D01*
X166743365Y-79941607D01*
X166675661Y-79836952D01*
X166624833Y-79758384D01*
X166624831Y-79758381D01*
X166622025Y-79754044D01*
X166471681Y-79588818D01*
X166467630Y-79585619D01*
X166467626Y-79585615D01*
X166300425Y-79453567D01*
X166300421Y-79453565D01*
X166296370Y-79450365D01*
X166255064Y-79427563D01*
X166205095Y-79377131D01*
X166190323Y-79307688D01*
X166215439Y-79241283D01*
X166242791Y-79214676D01*
X166286614Y-79183417D01*
X166421871Y-79086940D01*
X166580107Y-78929256D01*
X166639605Y-78846456D01*
X166707446Y-78752044D01*
X166710464Y-78747844D01*
X166728547Y-78711257D01*
X166807147Y-78552220D01*
X166807148Y-78552218D01*
X166809441Y-78547578D01*
X166874381Y-78333836D01*
X166903540Y-78112357D01*
X166905167Y-78045767D01*
X166886863Y-77823128D01*
X166832442Y-77606469D01*
X166743365Y-77401607D01*
X166703917Y-77340629D01*
X166624833Y-77218384D01*
X166624831Y-77218381D01*
X166622025Y-77214044D01*
X166471681Y-77048818D01*
X166467630Y-77045619D01*
X166467626Y-77045615D01*
X166300425Y-76913567D01*
X166300421Y-76913565D01*
X166296370Y-76910365D01*
X166255064Y-76887563D01*
X166205095Y-76837131D01*
X166190323Y-76767688D01*
X166215439Y-76701283D01*
X166242791Y-76674676D01*
X166286614Y-76643417D01*
X166421871Y-76546940D01*
X166580107Y-76389256D01*
X166639605Y-76306456D01*
X166707446Y-76212044D01*
X166710464Y-76207844D01*
X166809441Y-76007578D01*
X166874381Y-75793836D01*
X166903540Y-75572357D01*
X166905167Y-75505767D01*
X166886863Y-75283128D01*
X166832442Y-75066469D01*
X166743365Y-74861607D01*
X166622025Y-74674044D01*
X166471681Y-74508818D01*
X166467630Y-74505619D01*
X166467626Y-74505615D01*
X166300425Y-74373567D01*
X166300421Y-74373565D01*
X166296370Y-74370365D01*
X166291846Y-74367868D01*
X166291842Y-74367865D01*
X166240619Y-74339589D01*
X166190647Y-74289157D01*
X166175511Y-74229280D01*
X166175511Y-73720778D01*
X166176038Y-73709595D01*
X166177713Y-73702102D01*
X166175573Y-73634025D01*
X166175511Y-73630066D01*
X166175511Y-73602155D01*
X166175006Y-73598155D01*
X166174073Y-73586312D01*
X166172933Y-73550041D01*
X166172684Y-73542122D01*
X166167032Y-73522668D01*
X166163024Y-73503311D01*
X166161479Y-73491081D01*
X166161479Y-73491080D01*
X166160485Y-73483214D01*
X166157057Y-73474556D01*
X166144207Y-73442099D01*
X166140362Y-73430869D01*
X166130240Y-73396028D01*
X166130240Y-73396027D01*
X166128029Y-73388418D01*
X166123996Y-73381599D01*
X166123994Y-73381594D01*
X166117718Y-73370983D01*
X166109023Y-73353235D01*
X166101563Y-73334394D01*
X166075575Y-73298624D01*
X166069059Y-73288704D01*
X166050591Y-73257476D01*
X166050589Y-73257473D01*
X166046553Y-73250649D01*
X166032232Y-73236328D01*
X166019391Y-73221294D01*
X166012142Y-73211317D01*
X166007483Y-73204904D01*
X166001378Y-73199853D01*
X166001373Y-73199848D01*
X165973407Y-73176712D01*
X165964629Y-73168724D01*
X165251220Y-72455315D01*
X165243680Y-72447029D01*
X165239568Y-72440550D01*
X165189916Y-72393924D01*
X165187075Y-72391170D01*
X165167338Y-72371433D01*
X165164141Y-72368953D01*
X165155119Y-72361248D01*
X165128668Y-72336409D01*
X165122889Y-72330982D01*
X165115943Y-72327163D01*
X165115940Y-72327161D01*
X165105134Y-72321220D01*
X165088615Y-72310369D01*
X165088151Y-72310009D01*
X165072609Y-72297954D01*
X165065340Y-72294809D01*
X165065336Y-72294806D01*
X165032031Y-72280394D01*
X165021381Y-72275177D01*
X164982628Y-72253873D01*
X164963005Y-72248835D01*
X164944302Y-72242431D01*
X164932988Y-72237535D01*
X164932987Y-72237535D01*
X164925713Y-72234387D01*
X164917890Y-72233148D01*
X164917880Y-72233145D01*
X164882044Y-72227469D01*
X164870424Y-72225063D01*
X164835279Y-72216040D01*
X164835278Y-72216040D01*
X164827598Y-72214068D01*
X164807344Y-72214068D01*
X164787633Y-72212517D01*
X164775454Y-72210588D01*
X164767625Y-72209348D01*
X164759733Y-72210094D01*
X164723607Y-72213509D01*
X164711749Y-72214068D01*
X162794157Y-72214068D01*
X162726036Y-72194066D01*
X162679543Y-72140410D01*
X162669439Y-72070136D01*
X162685735Y-72024250D01*
X162689177Y-72019775D01*
X162705473Y-71983633D01*
X162716833Y-71958436D01*
X162719481Y-71952924D01*
X162746754Y-71899514D01*
X162746755Y-71899512D01*
X162750084Y-71892992D01*
X162751825Y-71885878D01*
X162752120Y-71885084D01*
X162758935Y-71865303D01*
X162759201Y-71864466D01*
X162762210Y-71857792D01*
X162775014Y-71791732D01*
X162776323Y-71785760D01*
X162787418Y-71740417D01*
X162792317Y-71720397D01*
X162793013Y-71709179D01*
X162793013Y-71707357D01*
X162794079Y-71697809D01*
X162794628Y-71690540D01*
X162796021Y-71683353D01*
X162793117Y-71612003D01*
X162793013Y-71606879D01*
X162793013Y-68998961D01*
X162794716Y-68978315D01*
X162796097Y-68970001D01*
X162797297Y-68962777D01*
X162793300Y-68903683D01*
X162793013Y-68895180D01*
X162793013Y-68881073D01*
X162790407Y-68858723D01*
X162789848Y-68852652D01*
X162785800Y-68792794D01*
X162785799Y-68792791D01*
X162785306Y-68785495D01*
X162783146Y-68778504D01*
X162782996Y-68777697D01*
X162778675Y-68757208D01*
X162778471Y-68756345D01*
X162777623Y-68749071D01*
X162754656Y-68685798D01*
X162752717Y-68680022D01*
X162749103Y-68668323D01*
X162732852Y-68615727D01*
X162729140Y-68609418D01*
X162728780Y-68608602D01*
X162719874Y-68589685D01*
X162719494Y-68588925D01*
X162716997Y-68582047D01*
X162712987Y-68575930D01*
X162712984Y-68575925D01*
X162680086Y-68525748D01*
X162676859Y-68520555D01*
X162646466Y-68468895D01*
X162646465Y-68468894D01*
X162642750Y-68462579D01*
X162637685Y-68457292D01*
X162637141Y-68456573D01*
X162624144Y-68440241D01*
X162623589Y-68439577D01*
X162619572Y-68433450D01*
X162614259Y-68428417D01*
X162614254Y-68428411D01*
X162570715Y-68387166D01*
X162566380Y-68382856D01*
X162524901Y-68339556D01*
X162524899Y-68339554D01*
X162519834Y-68334267D01*
X162513689Y-68330287D01*
X162513013Y-68329728D01*
X162496581Y-68316802D01*
X162495890Y-68316285D01*
X162490576Y-68311251D01*
X162432387Y-68277452D01*
X162427191Y-68274263D01*
X162376844Y-68241653D01*
X162376835Y-68241649D01*
X162370697Y-68237673D01*
X162363802Y-68235214D01*
X162363009Y-68234822D01*
X162344043Y-68226022D01*
X162343251Y-68225678D01*
X162336928Y-68222005D01*
X162329925Y-68219884D01*
X162272526Y-68202500D01*
X162266718Y-68200586D01*
X162234805Y-68189203D01*
X162203337Y-68177979D01*
X162196068Y-68177173D01*
X162195250Y-68176984D01*
X162174730Y-68172775D01*
X162173872Y-68172621D01*
X162166870Y-68170500D01*
X162099718Y-68166334D01*
X162093628Y-68165808D01*
X162026733Y-68158387D01*
X162019466Y-68159275D01*
X162018622Y-68159280D01*
X161997717Y-68159904D01*
X161996837Y-68159952D01*
X161989524Y-68159498D01*
X161982308Y-68160738D01*
X161982306Y-68160738D01*
X161952802Y-68165808D01*
X161923200Y-68170894D01*
X161917170Y-68171781D01*
X161850360Y-68179948D01*
X161843491Y-68182485D01*
X161842641Y-68182691D01*
X161822471Y-68188098D01*
X161821614Y-68188350D01*
X161814404Y-68189589D01*
X161807667Y-68192456D01*
X161807666Y-68192456D01*
X161752478Y-68215939D01*
X161746795Y-68218196D01*
X161725604Y-68226022D01*
X161683677Y-68241506D01*
X161673989Y-68247205D01*
X161672478Y-68248225D01*
X161663969Y-68252682D01*
X161657635Y-68256295D01*
X161650904Y-68259159D01*
X161645011Y-68263495D01*
X161645007Y-68263498D01*
X161593391Y-68301483D01*
X161589203Y-68304436D01*
X159657554Y-69608312D01*
X159641959Y-69617288D01*
X159619016Y-69628394D01*
X159613339Y-69633013D01*
X159613329Y-69633019D01*
X159580574Y-69659668D01*
X159571554Y-69666361D01*
X159570855Y-69666833D01*
X159570846Y-69666840D01*
X159567821Y-69668882D01*
X159565050Y-69671263D01*
X159543627Y-69689670D01*
X159541035Y-69691837D01*
X159481184Y-69740531D01*
X159476719Y-69746335D01*
X159475747Y-69747334D01*
X159475223Y-69747826D01*
X159473968Y-69749151D01*
X159473420Y-69749801D01*
X159472570Y-69750723D01*
X159467022Y-69755490D01*
X159462722Y-69761402D01*
X159462719Y-69761405D01*
X159421934Y-69817478D01*
X159419908Y-69820187D01*
X159372844Y-69881369D01*
X159369837Y-69888038D01*
X159369115Y-69889244D01*
X159368734Y-69889820D01*
X159367810Y-69891411D01*
X159367411Y-69892200D01*
X159366815Y-69893258D01*
X159362504Y-69899185D01*
X159359674Y-69905940D01*
X159359673Y-69905942D01*
X159332896Y-69969859D01*
X159331547Y-69972961D01*
X159302818Y-70036681D01*
X159302816Y-70036686D01*
X159299811Y-70043352D01*
X159298419Y-70050532D01*
X159297992Y-70051878D01*
X159297758Y-70052516D01*
X159297223Y-70054280D01*
X159297017Y-70055138D01*
X159296677Y-70056317D01*
X159293847Y-70063072D01*
X159292647Y-70070297D01*
X159281296Y-70138634D01*
X159280697Y-70141963D01*
X159266000Y-70217791D01*
X159266298Y-70225103D01*
X159266190Y-70226528D01*
X159266109Y-70227200D01*
X159265995Y-70229029D01*
X159265992Y-70229916D01*
X159265933Y-70231133D01*
X159264733Y-70238357D01*
X159269384Y-70307114D01*
X159269902Y-70314778D01*
X159270084Y-70318144D01*
X159273226Y-70395331D01*
X159275198Y-70402380D01*
X159275420Y-70403782D01*
X159275497Y-70404471D01*
X159275807Y-70406274D01*
X159276006Y-70407131D01*
X159276231Y-70408340D01*
X159276724Y-70415639D01*
X159299357Y-70488894D01*
X159300297Y-70492088D01*
X159321102Y-70566447D01*
X159324643Y-70572853D01*
X159325179Y-70574162D01*
X159325415Y-70574819D01*
X159326131Y-70576502D01*
X159326510Y-70577267D01*
X159327019Y-70578420D01*
X159329178Y-70585407D01*
X159332888Y-70591713D01*
X159368025Y-70651436D01*
X159369702Y-70654376D01*
X159407057Y-70721960D01*
X159411978Y-70727382D01*
X159412804Y-70728536D01*
X159413182Y-70729118D01*
X159414261Y-70730583D01*
X159414816Y-70731252D01*
X159415567Y-70732244D01*
X159419280Y-70738555D01*
X159424344Y-70743841D01*
X159472307Y-70793910D01*
X159474614Y-70796384D01*
X159500267Y-70824644D01*
X159526484Y-70853526D01*
X159530930Y-70856946D01*
X159535393Y-70860379D01*
X159535383Y-70860392D01*
X159537729Y-70862204D01*
X159542196Y-70866867D01*
X159548338Y-70870845D01*
X159610626Y-70911188D01*
X159612618Y-70912505D01*
X159640842Y-70931557D01*
X161199476Y-71983633D01*
X161244748Y-72038323D01*
X161253264Y-72108807D01*
X161222323Y-72172707D01*
X161161746Y-72209734D01*
X161128983Y-72214068D01*
X156079675Y-72214068D01*
X156011554Y-72194066D01*
X155978717Y-72163457D01*
X155936770Y-72107283D01*
X155936769Y-72107282D01*
X155933317Y-72102659D01*
X155783715Y-71964368D01*
X155737687Y-71935327D01*
X155616300Y-71858737D01*
X155616295Y-71858735D01*
X155611416Y-71855656D01*
X155422192Y-71780163D01*
X155222378Y-71740417D01*
X155216604Y-71740341D01*
X155216600Y-71740341D01*
X155113464Y-71738992D01*
X155018667Y-71737751D01*
X155012970Y-71738730D01*
X155012969Y-71738730D01*
X154823579Y-71771273D01*
X154817882Y-71772252D01*
X154626746Y-71842766D01*
X154621785Y-71845718D01*
X154621784Y-71845718D01*
X154531362Y-71899514D01*
X154451661Y-71946931D01*
X154298490Y-72081258D01*
X154294923Y-72085783D01*
X154294918Y-72085788D01*
X154251858Y-72140410D01*
X154172363Y-72241249D01*
X154169674Y-72246360D01*
X154169672Y-72246363D01*
X154166758Y-72251902D01*
X154077504Y-72421546D01*
X154017090Y-72616111D01*
X153993144Y-72818427D01*
X154006469Y-73021719D01*
X154056617Y-73219178D01*
X154141910Y-73404192D01*
X154143538Y-73406495D01*
X154160048Y-73474556D01*
X154136827Y-73541648D01*
X154081020Y-73585535D01*
X154021303Y-73593831D01*
X154016366Y-73592849D01*
X154010591Y-73592773D01*
X154010587Y-73592773D01*
X153909118Y-73591445D01*
X153812655Y-73590183D01*
X153806958Y-73591162D01*
X153806957Y-73591162D01*
X153719912Y-73606119D01*
X153611870Y-73624684D01*
X153420734Y-73695198D01*
X153245649Y-73799363D01*
X153092478Y-73933690D01*
X153088911Y-73938215D01*
X153088906Y-73938220D01*
X153002331Y-74048040D01*
X152966351Y-74093681D01*
X152963662Y-74098792D01*
X152963660Y-74098795D01*
X152915709Y-74189935D01*
X152871492Y-74273978D01*
X152811078Y-74468543D01*
X152787132Y-74670859D01*
X152800457Y-74874151D01*
X152850605Y-75071610D01*
X152935898Y-75256624D01*
X153053479Y-75422997D01*
X153199410Y-75565157D01*
X153210500Y-75572567D01*
X153256028Y-75627042D01*
X153266500Y-75677333D01*
X153266500Y-86223988D01*
X153246498Y-86292109D01*
X153223579Y-86318718D01*
X153092478Y-86433690D01*
X153088911Y-86438215D01*
X153088906Y-86438220D01*
X153066647Y-86466456D01*
X152966351Y-86593681D01*
X152963662Y-86598792D01*
X152963660Y-86598795D01*
X152940399Y-86643007D01*
X152871492Y-86773978D01*
X152811078Y-86968543D01*
X152787132Y-87170859D01*
X152787510Y-87176625D01*
X152798537Y-87344857D01*
X152783034Y-87414140D01*
X152761902Y-87442193D01*
X152668733Y-87535362D01*
X152606421Y-87569388D01*
X152579638Y-87572267D01*
X148456800Y-87572267D01*
X148388679Y-87552265D01*
X148351008Y-87514707D01*
X148262817Y-87378384D01*
X148262815Y-87378381D01*
X148260009Y-87374044D01*
X148109665Y-87208818D01*
X148105614Y-87205619D01*
X148105610Y-87205615D01*
X147938409Y-87073567D01*
X147938405Y-87073565D01*
X147934354Y-87070365D01*
X147893048Y-87047563D01*
X147843079Y-86997131D01*
X147828307Y-86927688D01*
X147853423Y-86861283D01*
X147880775Y-86834676D01*
X147924598Y-86803417D01*
X148059855Y-86706940D01*
X148218091Y-86549256D01*
X148277589Y-86466456D01*
X148345430Y-86372044D01*
X148348448Y-86367844D01*
X148352606Y-86359432D01*
X148445131Y-86172220D01*
X148445132Y-86172218D01*
X148447425Y-86167578D01*
X148499298Y-85996844D01*
X148510860Y-85958790D01*
X148510860Y-85958788D01*
X148512365Y-85953836D01*
X148541524Y-85732357D01*
X148543151Y-85665767D01*
X148524847Y-85443128D01*
X148470426Y-85226469D01*
X148381349Y-85021607D01*
X148308963Y-84909715D01*
X148262817Y-84838384D01*
X148262815Y-84838381D01*
X148260009Y-84834044D01*
X148109665Y-84668818D01*
X148105614Y-84665619D01*
X148105610Y-84665615D01*
X147938409Y-84533567D01*
X147938405Y-84533565D01*
X147934354Y-84530365D01*
X147892564Y-84507296D01*
X147842593Y-84456864D01*
X147827821Y-84387421D01*
X147852937Y-84321015D01*
X147880289Y-84294408D01*
X148055323Y-84169559D01*
X148063195Y-84162906D01*
X148214047Y-84012579D01*
X148220725Y-84004732D01*
X148344998Y-83831787D01*
X148350308Y-83822950D01*
X148444665Y-83632034D01*
X148448464Y-83622439D01*
X148510372Y-83418677D01*
X148512550Y-83408604D01*
X148513981Y-83397729D01*
X148511770Y-83383545D01*
X148498612Y-83379767D01*
X145863220Y-83379767D01*
X145849689Y-83383740D01*
X145848252Y-83393733D01*
X145878560Y-83528213D01*
X145881640Y-83538042D01*
X145961765Y-83735370D01*
X145966408Y-83744561D01*
X146077689Y-83926155D01*
X146083772Y-83934466D01*
X146223208Y-84095434D01*
X146230575Y-84102650D01*
X146394429Y-84238683D01*
X146402876Y-84244598D01*
X146471964Y-84284970D01*
X146520688Y-84336609D01*
X146533759Y-84406392D01*
X146507028Y-84472163D01*
X146466579Y-84505519D01*
X146453602Y-84512274D01*
X146449469Y-84515377D01*
X146449466Y-84515379D01*
X146279095Y-84643297D01*
X146274960Y-84646402D01*
X146120624Y-84807905D01*
X146117710Y-84812177D01*
X146117709Y-84812178D01*
X146054328Y-84905091D01*
X145994738Y-84992447D01*
X145900683Y-85195072D01*
X145840984Y-85410337D01*
X145817246Y-85632462D01*
X145817543Y-85637615D01*
X145817543Y-85637618D01*
X145822948Y-85731358D01*
X145830105Y-85855482D01*
X145831242Y-85860528D01*
X145831243Y-85860534D01*
X145846344Y-85927541D01*
X145879217Y-86073406D01*
X145963261Y-86280383D01*
X145965960Y-86284787D01*
X146077286Y-86466455D01*
X146079982Y-86470855D01*
X146226245Y-86639705D01*
X146398121Y-86782399D01*
X146464545Y-86821214D01*
X146471440Y-86825243D01*
X146520164Y-86876881D01*
X146533235Y-86946664D01*
X146506504Y-87012436D01*
X146466050Y-87045794D01*
X146453602Y-87052274D01*
X146449469Y-87055377D01*
X146449466Y-87055379D01*
X146279095Y-87183297D01*
X146274960Y-87186402D01*
X146120624Y-87347905D01*
X146117710Y-87352177D01*
X146117709Y-87352178D01*
X146056305Y-87442193D01*
X145994738Y-87532447D01*
X145978998Y-87566357D01*
X145906158Y-87723278D01*
X145900683Y-87735072D01*
X145840984Y-87950337D01*
X145817246Y-88172462D01*
X145817543Y-88177615D01*
X145817543Y-88177618D01*
X145825601Y-88317369D01*
X145830105Y-88395482D01*
X145831242Y-88400528D01*
X145831243Y-88400534D01*
X145851114Y-88488706D01*
X145879217Y-88613406D01*
X145939009Y-88760657D01*
X145956657Y-88804118D01*
X145963261Y-88820383D01*
X146079982Y-89010855D01*
X146226245Y-89179705D01*
X146398121Y-89322399D01*
X146468590Y-89363578D01*
X146471440Y-89365243D01*
X146520164Y-89416881D01*
X146533235Y-89486664D01*
X146506504Y-89552436D01*
X146466050Y-89585794D01*
X146453602Y-89592274D01*
X146449469Y-89595377D01*
X146449466Y-89595379D01*
X146279095Y-89723297D01*
X146274960Y-89726402D01*
X146120624Y-89887905D01*
X145994738Y-90072447D01*
X145900683Y-90275072D01*
X145840984Y-90490337D01*
X145817246Y-90712462D01*
X145817543Y-90717615D01*
X145817543Y-90717618D01*
X145823006Y-90812357D01*
X145830105Y-90935482D01*
X145831242Y-90940528D01*
X145831243Y-90940534D01*
X145835932Y-90961340D01*
X145879217Y-91153406D01*
X145963261Y-91360383D01*
X146079982Y-91550855D01*
X146226245Y-91719705D01*
X146398121Y-91862399D01*
X146468590Y-91903578D01*
X146471440Y-91905243D01*
X146520164Y-91956881D01*
X146533235Y-92026664D01*
X146506504Y-92092436D01*
X146466050Y-92125794D01*
X146453602Y-92132274D01*
X146449469Y-92135377D01*
X146449466Y-92135379D01*
X146326915Y-92227393D01*
X146274960Y-92266402D01*
X146120624Y-92427905D01*
X146117710Y-92432177D01*
X146117709Y-92432178D01*
X146105673Y-92449822D01*
X145994738Y-92612447D01*
X145960440Y-92686337D01*
X145934883Y-92741395D01*
X145900683Y-92815072D01*
X145840984Y-93030337D01*
X145817246Y-93252462D01*
X145330002Y-93252462D01*
X145330002Y-80552462D01*
X145817246Y-80552462D01*
X145817543Y-80557615D01*
X145817543Y-80557618D01*
X145823006Y-80652357D01*
X145830105Y-80775482D01*
X145831242Y-80780528D01*
X145831243Y-80780534D01*
X145851114Y-80868706D01*
X145879217Y-80993406D01*
X145963261Y-81200383D01*
X145965960Y-81204787D01*
X146077286Y-81386455D01*
X146079982Y-81390855D01*
X146226245Y-81559705D01*
X146398121Y-81702399D01*
X146471440Y-81745243D01*
X146471950Y-81745541D01*
X146520674Y-81797179D01*
X146533745Y-81866962D01*
X146507014Y-81932734D01*
X146466557Y-81966094D01*
X146458452Y-81970313D01*
X146449733Y-81975803D01*
X146279428Y-82103672D01*
X146271721Y-82110515D01*
X146124585Y-82264484D01*
X146118099Y-82272494D01*
X145998093Y-82448416D01*
X145992995Y-82457390D01*
X145903333Y-82650550D01*
X145899770Y-82660237D01*
X145844384Y-82859950D01*
X145845907Y-82868374D01*
X145858287Y-82871767D01*
X148498339Y-82871767D01*
X148511870Y-82867794D01*
X148513175Y-82858714D01*
X148471209Y-82691642D01*
X148467889Y-82681891D01*
X148382967Y-82486581D01*
X148378100Y-82477506D01*
X148262421Y-82298693D01*
X148256131Y-82290524D01*
X148112801Y-82133007D01*
X148105268Y-82125982D01*
X147938134Y-81993989D01*
X147929551Y-81988287D01*
X147892597Y-81967887D01*
X147842626Y-81917454D01*
X147827854Y-81848012D01*
X147852970Y-81781606D01*
X147880322Y-81754999D01*
X147942155Y-81710894D01*
X148047066Y-81636062D01*
X149778493Y-81636062D01*
X149787789Y-81648077D01*
X149838994Y-81683931D01*
X149848489Y-81689414D01*
X150045947Y-81781490D01*
X150056239Y-81785236D01*
X150266688Y-81841625D01*
X150277481Y-81843528D01*
X150494525Y-81862517D01*
X150505475Y-81862517D01*
X150722519Y-81843528D01*
X150733312Y-81841625D01*
X150943761Y-81785236D01*
X150954053Y-81781490D01*
X151151511Y-81689414D01*
X151161006Y-81683931D01*
X151213048Y-81647491D01*
X151221424Y-81637012D01*
X151214356Y-81623566D01*
X150512812Y-80922022D01*
X150498868Y-80914408D01*
X150497035Y-80914539D01*
X150490420Y-80918790D01*
X149784923Y-81624287D01*
X149778493Y-81636062D01*
X148047066Y-81636062D01*
X148059855Y-81626940D01*
X148067962Y-81618862D01*
X148214430Y-81472904D01*
X148218091Y-81469256D01*
X148277589Y-81386456D01*
X148345430Y-81292044D01*
X148348448Y-81287844D01*
X148352606Y-81279432D01*
X148445131Y-81092220D01*
X148445132Y-81092218D01*
X148447425Y-81087578D01*
X148498707Y-80918790D01*
X148510860Y-80878790D01*
X148510860Y-80878788D01*
X148512365Y-80873836D01*
X148541524Y-80652357D01*
X148543151Y-80585767D01*
X148540661Y-80555475D01*
X149187483Y-80555475D01*
X149206472Y-80772519D01*
X149208375Y-80783312D01*
X149264764Y-80993761D01*
X149268510Y-81004053D01*
X149360586Y-81201511D01*
X149366069Y-81211006D01*
X149402509Y-81263048D01*
X149412988Y-81271424D01*
X149426434Y-81264356D01*
X150127978Y-80562812D01*
X150134356Y-80551132D01*
X150864408Y-80551132D01*
X150864539Y-80552965D01*
X150868790Y-80559580D01*
X151574287Y-81265077D01*
X151586062Y-81271507D01*
X151598077Y-81262211D01*
X151633931Y-81211006D01*
X151639414Y-81201511D01*
X151731490Y-81004053D01*
X151735236Y-80993761D01*
X151791625Y-80783312D01*
X151793528Y-80772519D01*
X151812517Y-80555475D01*
X151812517Y-80544525D01*
X151793528Y-80327481D01*
X151791625Y-80316688D01*
X151735236Y-80106239D01*
X151731490Y-80095947D01*
X151639414Y-79898489D01*
X151633931Y-79888994D01*
X151597491Y-79836952D01*
X151587012Y-79828576D01*
X151573566Y-79835644D01*
X150872022Y-80537188D01*
X150864408Y-80551132D01*
X150134356Y-80551132D01*
X150135592Y-80548868D01*
X150135461Y-80547035D01*
X150131210Y-80540420D01*
X149425713Y-79834923D01*
X149413938Y-79828493D01*
X149401923Y-79837789D01*
X149366069Y-79888994D01*
X149360586Y-79898489D01*
X149268510Y-80095947D01*
X149264764Y-80106239D01*
X149208375Y-80316688D01*
X149206472Y-80327481D01*
X149187483Y-80544525D01*
X149187483Y-80555475D01*
X148540661Y-80555475D01*
X148524847Y-80363128D01*
X148470426Y-80146469D01*
X148381349Y-79941607D01*
X148313645Y-79836952D01*
X148262817Y-79758384D01*
X148262815Y-79758381D01*
X148260009Y-79754044D01*
X148109665Y-79588818D01*
X148105614Y-79585619D01*
X148105610Y-79585615D01*
X147938409Y-79453567D01*
X147938405Y-79453565D01*
X147934354Y-79450365D01*
X147893048Y-79427563D01*
X147843079Y-79377131D01*
X147828307Y-79307688D01*
X147853423Y-79241283D01*
X147880775Y-79214676D01*
X147924598Y-79183417D01*
X148059855Y-79086940D01*
X148218091Y-78929256D01*
X148240409Y-78898197D01*
X148267324Y-78860741D01*
X148323319Y-78817093D01*
X148369647Y-78808267D01*
X149367969Y-78808267D01*
X149436090Y-78828269D01*
X149471181Y-78861995D01*
X149490641Y-78889786D01*
X149493802Y-78894300D01*
X149655700Y-79056198D01*
X149660208Y-79059355D01*
X149660211Y-79059357D01*
X149763876Y-79131944D01*
X149843251Y-79187523D01*
X149848235Y-79189847D01*
X149850528Y-79191171D01*
X149899521Y-79242553D01*
X149912957Y-79312267D01*
X149886571Y-79378178D01*
X149850528Y-79409409D01*
X149838998Y-79416066D01*
X149786952Y-79452509D01*
X149778576Y-79462988D01*
X149785644Y-79476434D01*
X150487188Y-80177978D01*
X150501132Y-80185592D01*
X150502965Y-80185461D01*
X150509580Y-80181210D01*
X151215077Y-79475713D01*
X151221507Y-79463938D01*
X151212211Y-79451923D01*
X151161002Y-79416066D01*
X151149472Y-79409409D01*
X151100479Y-79358027D01*
X151087042Y-79288313D01*
X151113429Y-79222402D01*
X151149472Y-79191171D01*
X151151765Y-79189847D01*
X151156749Y-79187523D01*
X151236124Y-79131944D01*
X151339789Y-79059357D01*
X151339792Y-79059355D01*
X151344300Y-79056198D01*
X151506198Y-78894300D01*
X151529697Y-78860741D01*
X151634366Y-78711257D01*
X151637523Y-78706749D01*
X151639846Y-78701767D01*
X151639849Y-78701762D01*
X151731961Y-78504225D01*
X151731961Y-78504224D01*
X151734284Y-78499243D01*
X151747918Y-78448363D01*
X151792119Y-78283402D01*
X151792119Y-78283400D01*
X151793543Y-78278087D01*
X151813498Y-78050000D01*
X151793543Y-77821913D01*
X151734284Y-77600757D01*
X151720118Y-77570377D01*
X151639849Y-77398238D01*
X151639846Y-77398233D01*
X151637523Y-77393251D01*
X151546506Y-77263265D01*
X151509357Y-77210211D01*
X151509355Y-77210208D01*
X151506198Y-77205700D01*
X151344300Y-77043802D01*
X151339792Y-77040645D01*
X151339789Y-77040643D01*
X151223912Y-76959505D01*
X151156749Y-76912477D01*
X151151767Y-76910154D01*
X151151762Y-76910151D01*
X150954225Y-76818039D01*
X150954224Y-76818039D01*
X150949243Y-76815716D01*
X150943935Y-76814294D01*
X150943933Y-76814293D01*
X150733402Y-76757881D01*
X150733400Y-76757881D01*
X150728087Y-76756457D01*
X150500000Y-76736502D01*
X150271913Y-76756457D01*
X150266600Y-76757881D01*
X150266598Y-76757881D01*
X150056067Y-76814293D01*
X150056065Y-76814294D01*
X150050757Y-76815716D01*
X150045776Y-76818039D01*
X150045775Y-76818039D01*
X149848238Y-76910151D01*
X149848233Y-76910154D01*
X149843251Y-76912477D01*
X149776088Y-76959505D01*
X149660211Y-77040643D01*
X149660208Y-77040645D01*
X149655700Y-77043802D01*
X149493802Y-77205700D01*
X149490643Y-77210212D01*
X149490641Y-77210214D01*
X149477109Y-77229539D01*
X149421651Y-77273867D01*
X149373897Y-77283267D01*
X148373346Y-77283267D01*
X148305225Y-77263265D01*
X148267553Y-77225706D01*
X148260009Y-77214044D01*
X148256524Y-77210214D01*
X148112793Y-77052255D01*
X148081741Y-76988409D01*
X148090136Y-76917910D01*
X148135312Y-76863142D01*
X148161756Y-76849473D01*
X148268292Y-76809534D01*
X148276700Y-76806382D01*
X148393256Y-76719028D01*
X148480610Y-76602472D01*
X148531740Y-76466083D01*
X148538495Y-76403901D01*
X148538495Y-74607633D01*
X148531740Y-74545451D01*
X148480610Y-74409062D01*
X148393256Y-74292506D01*
X148276700Y-74205152D01*
X148140311Y-74154022D01*
X148078129Y-74147267D01*
X146281861Y-74147267D01*
X146219679Y-74154022D01*
X146083290Y-74205152D01*
X145966734Y-74292506D01*
X145879380Y-74409062D01*
X145828250Y-74545451D01*
X145821495Y-74607633D01*
X145821495Y-76403901D01*
X145828250Y-76466083D01*
X145879380Y-76602472D01*
X145966734Y-76719028D01*
X146083290Y-76806382D01*
X146091699Y-76809534D01*
X146091700Y-76809535D01*
X146200446Y-76850302D01*
X146257211Y-76892943D01*
X146281911Y-76959505D01*
X146266704Y-77028854D01*
X146247311Y-77055335D01*
X146120624Y-77187905D01*
X145994738Y-77372447D01*
X145900683Y-77575072D01*
X145840984Y-77790337D01*
X145817246Y-78012462D01*
X145817543Y-78017615D01*
X145817543Y-78017618D01*
X145823006Y-78112357D01*
X145830105Y-78235482D01*
X145831242Y-78240528D01*
X145831243Y-78240534D01*
X145840904Y-78283402D01*
X145879217Y-78453406D01*
X145963261Y-78660383D01*
X145965960Y-78664787D01*
X146059293Y-78817093D01*
X146079982Y-78850855D01*
X146226245Y-79019705D01*
X146398121Y-79162399D01*
X146441116Y-79187523D01*
X146471440Y-79205243D01*
X146520164Y-79256881D01*
X146533235Y-79326664D01*
X146506504Y-79392436D01*
X146466050Y-79425794D01*
X146453602Y-79432274D01*
X146449469Y-79435377D01*
X146449466Y-79435379D01*
X146279095Y-79563297D01*
X146274960Y-79566402D01*
X146120624Y-79727905D01*
X146117710Y-79732177D01*
X146117709Y-79732178D01*
X146051951Y-79828576D01*
X145994738Y-79912447D01*
X145900683Y-80115072D01*
X145840984Y-80330337D01*
X145817246Y-80552462D01*
X145330002Y-80552462D01*
X145330002Y-70089262D01*
X153728254Y-70089262D01*
X153728551Y-70094415D01*
X153728551Y-70094418D01*
X153737272Y-70245662D01*
X153741113Y-70312282D01*
X153742250Y-70317328D01*
X153742251Y-70317334D01*
X153758181Y-70388018D01*
X153790225Y-70530206D01*
X153839451Y-70651436D01*
X153871861Y-70731252D01*
X153874269Y-70737183D01*
X153876968Y-70741587D01*
X153981709Y-70912509D01*
X153990990Y-70927655D01*
X154137253Y-71096505D01*
X154309129Y-71239199D01*
X154502003Y-71351905D01*
X154710695Y-71431597D01*
X154715763Y-71432628D01*
X154715766Y-71432629D01*
X154823020Y-71454450D01*
X154929600Y-71476134D01*
X154934775Y-71476324D01*
X154934777Y-71476324D01*
X155147676Y-71484131D01*
X155147680Y-71484131D01*
X155152840Y-71484320D01*
X155157960Y-71483664D01*
X155157962Y-71483664D01*
X155369291Y-71456592D01*
X155369292Y-71456592D01*
X155374419Y-71455935D01*
X155379369Y-71454450D01*
X155583432Y-71393228D01*
X155583437Y-71393226D01*
X155588387Y-71391741D01*
X155788997Y-71293463D01*
X155970863Y-71163740D01*
X156079094Y-71055886D01*
X156141465Y-71021971D01*
X156212271Y-71027159D01*
X156269033Y-71069805D01*
X156286015Y-71100908D01*
X156330388Y-71219272D01*
X156417742Y-71335828D01*
X156534298Y-71423182D01*
X156670687Y-71474312D01*
X156732869Y-71481067D01*
X158529137Y-71481067D01*
X158591319Y-71474312D01*
X158727708Y-71423182D01*
X158844264Y-71335828D01*
X158931618Y-71219272D01*
X158982748Y-71082883D01*
X158989503Y-71020701D01*
X158989503Y-69224433D01*
X158982748Y-69162251D01*
X158931618Y-69025862D01*
X158844264Y-68909306D01*
X158727708Y-68821952D01*
X158659874Y-68796522D01*
X158609206Y-68777527D01*
X158552442Y-68734885D01*
X158527742Y-68668323D01*
X158542950Y-68598975D01*
X158564496Y-68570294D01*
X158665438Y-68469704D01*
X158669099Y-68466056D01*
X158799456Y-68284644D01*
X158812052Y-68259159D01*
X158896139Y-68089020D01*
X158896140Y-68089018D01*
X158898433Y-68084378D01*
X158963373Y-67870636D01*
X158992532Y-67649157D01*
X158994159Y-67582567D01*
X158975855Y-67359928D01*
X158921434Y-67143269D01*
X158832357Y-66938407D01*
X158711017Y-66750844D01*
X158560673Y-66585618D01*
X158556622Y-66582419D01*
X158556618Y-66582415D01*
X158389417Y-66450367D01*
X158389413Y-66450365D01*
X158385362Y-66447165D01*
X158344056Y-66424363D01*
X158294087Y-66373931D01*
X158279315Y-66304488D01*
X158304431Y-66238083D01*
X158331783Y-66211476D01*
X158378009Y-66178503D01*
X158510863Y-66083740D01*
X158669099Y-65926056D01*
X158677315Y-65914623D01*
X158796438Y-65748844D01*
X158799456Y-65744644D01*
X158820323Y-65702424D01*
X158896139Y-65549020D01*
X158896140Y-65549018D01*
X158898433Y-65544378D01*
X158953366Y-65363573D01*
X158960090Y-65341442D01*
X161736679Y-65341442D01*
X161753228Y-65628456D01*
X161754053Y-65632661D01*
X161754054Y-65632669D01*
X161767740Y-65702424D01*
X161808576Y-65910568D01*
X161809963Y-65914618D01*
X161809964Y-65914623D01*
X161900311Y-66178503D01*
X161901700Y-66182559D01*
X161911649Y-66202341D01*
X162024483Y-66426685D01*
X162030875Y-66439395D01*
X162193711Y-66676323D01*
X162387196Y-66888961D01*
X162390491Y-66891716D01*
X162390492Y-66891717D01*
X162441248Y-66934155D01*
X162607749Y-67073371D01*
X162851288Y-67226144D01*
X163113308Y-67344450D01*
X163148617Y-67354909D01*
X163384847Y-67424884D01*
X163384852Y-67424885D01*
X163388960Y-67426102D01*
X163393194Y-67426750D01*
X163393199Y-67426751D01*
X163641801Y-67464792D01*
X163673143Y-67469588D01*
X163819475Y-67471887D01*
X163956307Y-67474037D01*
X163956313Y-67474037D01*
X163960598Y-67474104D01*
X163964850Y-67473589D01*
X163964858Y-67473589D01*
X164241746Y-67440081D01*
X164241751Y-67440080D01*
X164246007Y-67439565D01*
X164342592Y-67414226D01*
X164519944Y-67367699D01*
X164519945Y-67367699D01*
X164524087Y-67366612D01*
X164789694Y-67256594D01*
X165037912Y-67111547D01*
X165264149Y-66934155D01*
X165270467Y-66927636D01*
X165461234Y-66730779D01*
X165464217Y-66727701D01*
X165466750Y-66724253D01*
X165466754Y-66724248D01*
X165631877Y-66499459D01*
X165634415Y-66496004D01*
X165659194Y-66450367D01*
X165769544Y-66247128D01*
X165769545Y-66247126D01*
X165771594Y-66243352D01*
X165873215Y-65974421D01*
X165932009Y-65717711D01*
X165936439Y-65698370D01*
X165936440Y-65698366D01*
X165937397Y-65694186D01*
X165940307Y-65661587D01*
X165962733Y-65410299D01*
X165962733Y-65410297D01*
X165962953Y-65407833D01*
X165963417Y-65363573D01*
X165954811Y-65237334D01*
X165944155Y-65081025D01*
X165944154Y-65081019D01*
X165943863Y-65076748D01*
X165939326Y-65054837D01*
X165886433Y-64799428D01*
X165885564Y-64795231D01*
X165789597Y-64524230D01*
X165694886Y-64340731D01*
X165659705Y-64272568D01*
X165659705Y-64272567D01*
X165657740Y-64268761D01*
X165644478Y-64249890D01*
X165575086Y-64151156D01*
X165492431Y-64033550D01*
X165361061Y-63892179D01*
X165299651Y-63826094D01*
X165299648Y-63826092D01*
X165296730Y-63822951D01*
X165074258Y-63640860D01*
X164829132Y-63490646D01*
X164811038Y-63482703D01*
X164569820Y-63376816D01*
X164565888Y-63375090D01*
X164539953Y-63367702D01*
X164293524Y-63297505D01*
X164293525Y-63297505D01*
X164289396Y-63296329D01*
X164076694Y-63266058D01*
X164009026Y-63256427D01*
X164009024Y-63256427D01*
X164004774Y-63255822D01*
X164000485Y-63255800D01*
X164000478Y-63255799D01*
X163721573Y-63254338D01*
X163721566Y-63254338D01*
X163717287Y-63254316D01*
X163713043Y-63254875D01*
X163713039Y-63254875D01*
X163587650Y-63271383D01*
X163432256Y-63291841D01*
X163428116Y-63292974D01*
X163428114Y-63292974D01*
X163351301Y-63313988D01*
X163154954Y-63367702D01*
X163151006Y-63369386D01*
X162894466Y-63478810D01*
X162894462Y-63478812D01*
X162890514Y-63480496D01*
X162765950Y-63555046D01*
X162647511Y-63625930D01*
X162647507Y-63625933D01*
X162643829Y-63628134D01*
X162419462Y-63807886D01*
X162221567Y-64016424D01*
X162200589Y-64045618D01*
X162081862Y-64210844D01*
X162053804Y-64249890D01*
X161919278Y-64503965D01*
X161820479Y-64773946D01*
X161759235Y-65054837D01*
X161758899Y-65059107D01*
X161737140Y-65335590D01*
X161736679Y-65341442D01*
X158960090Y-65341442D01*
X158961868Y-65335590D01*
X158961868Y-65335588D01*
X158963373Y-65330636D01*
X158992532Y-65109157D01*
X158992614Y-65105807D01*
X158994077Y-65045932D01*
X158994077Y-65045928D01*
X158994159Y-65042567D01*
X158975855Y-64819928D01*
X158921434Y-64603269D01*
X158832357Y-64398407D01*
X158711017Y-64210844D01*
X158560673Y-64045618D01*
X158556622Y-64042419D01*
X158556618Y-64042415D01*
X158389417Y-63910367D01*
X158389413Y-63910365D01*
X158385362Y-63907165D01*
X158189792Y-63799205D01*
X158184923Y-63797481D01*
X158184919Y-63797479D01*
X157984090Y-63726362D01*
X157984086Y-63726361D01*
X157979215Y-63724636D01*
X157974122Y-63723729D01*
X157974119Y-63723728D01*
X157764376Y-63686367D01*
X157764370Y-63686366D01*
X157759287Y-63685461D01*
X157685455Y-63684559D01*
X157541084Y-63682795D01*
X157541082Y-63682795D01*
X157535914Y-63682732D01*
X157315094Y-63716522D01*
X157102759Y-63785924D01*
X156904610Y-63889074D01*
X156900477Y-63892177D01*
X156900474Y-63892179D01*
X156734995Y-64016424D01*
X156725968Y-64023202D01*
X156571632Y-64184705D01*
X156464204Y-64342188D01*
X156409296Y-64387188D01*
X156338771Y-64395359D01*
X156275024Y-64364105D01*
X156254327Y-64339621D01*
X156173825Y-64215184D01*
X156173823Y-64215181D01*
X156171017Y-64210844D01*
X156020673Y-64045618D01*
X156016622Y-64042419D01*
X156016618Y-64042415D01*
X155849417Y-63910367D01*
X155849413Y-63910365D01*
X155845362Y-63907165D01*
X155649792Y-63799205D01*
X155644923Y-63797481D01*
X155644919Y-63797479D01*
X155444090Y-63726362D01*
X155444086Y-63726361D01*
X155439215Y-63724636D01*
X155434122Y-63723729D01*
X155434119Y-63723728D01*
X155224376Y-63686367D01*
X155224370Y-63686366D01*
X155219287Y-63685461D01*
X155145455Y-63684559D01*
X155001084Y-63682795D01*
X155001082Y-63682795D01*
X154995914Y-63682732D01*
X154775094Y-63716522D01*
X154562759Y-63785924D01*
X154364610Y-63889074D01*
X154360477Y-63892177D01*
X154360474Y-63892179D01*
X154194995Y-64016424D01*
X154185968Y-64023202D01*
X154031632Y-64184705D01*
X154028723Y-64188970D01*
X154028717Y-64188978D01*
X153957996Y-64292652D01*
X153905746Y-64369247D01*
X153890006Y-64403157D01*
X153833806Y-64524230D01*
X153811691Y-64571872D01*
X153751992Y-64787137D01*
X153728254Y-65009262D01*
X153728551Y-65014415D01*
X153728551Y-65014418D01*
X153734014Y-65109157D01*
X153741113Y-65232282D01*
X153742250Y-65237328D01*
X153742251Y-65237334D01*
X153762122Y-65325506D01*
X153790225Y-65450206D01*
X153828464Y-65544378D01*
X153860864Y-65624169D01*
X153874269Y-65657183D01*
X153925022Y-65740005D01*
X153988294Y-65843255D01*
X153990990Y-65847655D01*
X154137253Y-66016505D01*
X154309129Y-66159199D01*
X154342164Y-66178503D01*
X154382958Y-66202341D01*
X154431682Y-66253979D01*
X154444753Y-66323762D01*
X154418022Y-66389534D01*
X154377565Y-66422894D01*
X154369460Y-66427113D01*
X154360741Y-66432603D01*
X154190436Y-66560472D01*
X154182729Y-66567315D01*
X154035593Y-66721284D01*
X154029107Y-66729294D01*
X153909101Y-66905216D01*
X153904003Y-66914190D01*
X153814341Y-67107350D01*
X153810778Y-67117037D01*
X153755392Y-67316750D01*
X153756915Y-67325174D01*
X153769295Y-67328567D01*
X155219003Y-67328567D01*
X155287124Y-67348569D01*
X155333617Y-67402225D01*
X155345003Y-67454567D01*
X155345003Y-67710567D01*
X155325001Y-67778688D01*
X155271345Y-67825181D01*
X155219003Y-67836567D01*
X153774228Y-67836567D01*
X153760697Y-67840540D01*
X153759260Y-67850533D01*
X153789568Y-67985013D01*
X153792648Y-67994842D01*
X153872773Y-68192170D01*
X153877416Y-68201361D01*
X153988697Y-68382955D01*
X153994780Y-68391266D01*
X154134216Y-68552234D01*
X154141583Y-68559450D01*
X154305437Y-68695483D01*
X154313884Y-68701398D01*
X154382972Y-68741770D01*
X154431696Y-68793409D01*
X154444767Y-68863192D01*
X154418036Y-68928963D01*
X154377587Y-68962319D01*
X154364610Y-68969074D01*
X154360477Y-68972177D01*
X154360474Y-68972179D01*
X154190103Y-69100097D01*
X154185968Y-69103202D01*
X154146528Y-69144474D01*
X154092283Y-69201238D01*
X154031632Y-69264705D01*
X153905746Y-69449247D01*
X153903567Y-69453942D01*
X153824071Y-69625202D01*
X153811691Y-69651872D01*
X153751992Y-69867137D01*
X153728254Y-70089262D01*
X145330002Y-70089262D01*
X145330002Y-65341442D01*
X146758680Y-65341442D01*
X146775229Y-65628456D01*
X146776054Y-65632661D01*
X146776055Y-65632669D01*
X146789741Y-65702424D01*
X146830577Y-65910568D01*
X146831964Y-65914618D01*
X146831965Y-65914623D01*
X146922312Y-66178503D01*
X146923701Y-66182559D01*
X146933650Y-66202341D01*
X147046484Y-66426685D01*
X147052876Y-66439395D01*
X147215712Y-66676323D01*
X147409197Y-66888961D01*
X147412492Y-66891716D01*
X147412493Y-66891717D01*
X147463249Y-66934155D01*
X147629750Y-67073371D01*
X147873289Y-67226144D01*
X148135309Y-67344450D01*
X148170618Y-67354909D01*
X148406848Y-67424884D01*
X148406853Y-67424885D01*
X148410961Y-67426102D01*
X148415195Y-67426750D01*
X148415200Y-67426751D01*
X148663802Y-67464792D01*
X148695144Y-67469588D01*
X148841476Y-67471887D01*
X148978308Y-67474037D01*
X148978314Y-67474037D01*
X148982599Y-67474104D01*
X148986851Y-67473589D01*
X148986859Y-67473589D01*
X149263747Y-67440081D01*
X149263752Y-67440080D01*
X149268008Y-67439565D01*
X149364593Y-67414226D01*
X149541945Y-67367699D01*
X149541946Y-67367699D01*
X149546088Y-67366612D01*
X149811695Y-67256594D01*
X150059913Y-67111547D01*
X150286150Y-66934155D01*
X150292468Y-66927636D01*
X150483235Y-66730779D01*
X150486218Y-66727701D01*
X150488751Y-66724253D01*
X150488755Y-66724248D01*
X150653878Y-66499459D01*
X150656416Y-66496004D01*
X150681195Y-66450367D01*
X150791545Y-66247128D01*
X150791546Y-66247126D01*
X150793595Y-66243352D01*
X150895216Y-65974421D01*
X150954010Y-65717711D01*
X150958440Y-65698370D01*
X150958441Y-65698366D01*
X150959398Y-65694186D01*
X150962308Y-65661587D01*
X150984734Y-65410299D01*
X150984734Y-65410297D01*
X150984954Y-65407833D01*
X150985418Y-65363573D01*
X150976812Y-65237334D01*
X150966156Y-65081025D01*
X150966155Y-65081019D01*
X150965864Y-65076748D01*
X150961327Y-65054837D01*
X150908434Y-64799428D01*
X150907565Y-64795231D01*
X150811598Y-64524230D01*
X150716887Y-64340731D01*
X150681706Y-64272568D01*
X150681706Y-64272567D01*
X150679741Y-64268761D01*
X150666479Y-64249890D01*
X150597087Y-64151156D01*
X150514432Y-64033550D01*
X150383062Y-63892179D01*
X150321652Y-63826094D01*
X150321649Y-63826092D01*
X150318731Y-63822951D01*
X150096259Y-63640860D01*
X149851133Y-63490646D01*
X149833039Y-63482703D01*
X149591821Y-63376816D01*
X149587889Y-63375090D01*
X149561954Y-63367702D01*
X149315525Y-63297505D01*
X149315526Y-63297505D01*
X149311397Y-63296329D01*
X149098695Y-63266058D01*
X149031027Y-63256427D01*
X149031025Y-63256427D01*
X149026775Y-63255822D01*
X149022486Y-63255800D01*
X149022479Y-63255799D01*
X148743574Y-63254338D01*
X148743567Y-63254338D01*
X148739288Y-63254316D01*
X148735044Y-63254875D01*
X148735040Y-63254875D01*
X148609651Y-63271383D01*
X148454257Y-63291841D01*
X148450117Y-63292974D01*
X148450115Y-63292974D01*
X148373302Y-63313988D01*
X148176955Y-63367702D01*
X148173007Y-63369386D01*
X147916467Y-63478810D01*
X147916463Y-63478812D01*
X147912515Y-63480496D01*
X147787951Y-63555046D01*
X147669512Y-63625930D01*
X147669508Y-63625933D01*
X147665830Y-63628134D01*
X147441463Y-63807886D01*
X147243568Y-64016424D01*
X147222590Y-64045618D01*
X147103863Y-64210844D01*
X147075805Y-64249890D01*
X146941279Y-64503965D01*
X146842480Y-64773946D01*
X146781236Y-65054837D01*
X146780900Y-65059107D01*
X146759141Y-65335590D01*
X146758680Y-65341442D01*
X145330002Y-65341442D01*
X145330002Y-64364808D01*
X145331502Y-64345423D01*
X145333807Y-64330622D01*
X145333807Y-64330619D01*
X145335188Y-64321750D01*
X145332943Y-64304581D01*
X145332110Y-64280641D01*
X145347712Y-64022710D01*
X145349546Y-64007606D01*
X145383385Y-63822951D01*
X145401042Y-63726601D01*
X145404681Y-63711833D01*
X145413506Y-63683515D01*
X145489677Y-63439072D01*
X145495072Y-63424850D01*
X145612318Y-63164340D01*
X145619387Y-63150871D01*
X145767184Y-62906385D01*
X145775827Y-62893863D01*
X145952018Y-62668973D01*
X145962108Y-62657585D01*
X146164107Y-62455586D01*
X146175495Y-62445496D01*
X146400385Y-62269305D01*
X146412907Y-62260662D01*
X146657393Y-62112865D01*
X146670862Y-62105796D01*
X146931375Y-61988549D01*
X146945594Y-61983155D01*
X147218361Y-61898158D01*
X147233123Y-61894520D01*
X147443354Y-61855994D01*
X147514128Y-61843024D01*
X147529232Y-61841190D01*
X147779931Y-61826025D01*
X147806641Y-61827282D01*
X147806861Y-61827285D01*
X147815732Y-61828666D01*
X147824634Y-61827502D01*
X147824637Y-61827502D01*
X147847253Y-61824544D01*
X147863591Y-61823480D01*
X164850672Y-61823480D01*
X164870057Y-61824980D01*
G37*
%TD.AperFunction*%
%TA.AperFunction,Conductor*%
G36*
X154438218Y-88265793D02*
G01*
X154470375Y-88329090D01*
X154472512Y-88352199D01*
X154472512Y-91929393D01*
X154452510Y-91997514D01*
X154435607Y-92018489D01*
X153838732Y-92615363D01*
X153776420Y-92649388D01*
X153749637Y-92652267D01*
X148456800Y-92652267D01*
X148388679Y-92632265D01*
X148351008Y-92594707D01*
X148262817Y-92458384D01*
X148262815Y-92458381D01*
X148260009Y-92454044D01*
X148109665Y-92288818D01*
X148105614Y-92285619D01*
X148105610Y-92285615D01*
X147938409Y-92153567D01*
X147938405Y-92153565D01*
X147934354Y-92150365D01*
X147893048Y-92127563D01*
X147843079Y-92077131D01*
X147828307Y-92007688D01*
X147853423Y-91941283D01*
X147880775Y-91914676D01*
X147924598Y-91883417D01*
X148059855Y-91786940D01*
X148218091Y-91629256D01*
X148277589Y-91546456D01*
X148345430Y-91452044D01*
X148348448Y-91447844D01*
X148372388Y-91399406D01*
X148445131Y-91252220D01*
X148445132Y-91252218D01*
X148447425Y-91247578D01*
X148512365Y-91033836D01*
X148541524Y-90812357D01*
X148541606Y-90809007D01*
X148543069Y-90749132D01*
X148543069Y-90749128D01*
X148543151Y-90745767D01*
X148524847Y-90523128D01*
X148470426Y-90306469D01*
X148381349Y-90101607D01*
X148298782Y-89973978D01*
X148262817Y-89918384D01*
X148262815Y-89918381D01*
X148260009Y-89914044D01*
X148109665Y-89748818D01*
X148105614Y-89745619D01*
X148105610Y-89745615D01*
X147938409Y-89613567D01*
X147938405Y-89613565D01*
X147934354Y-89610365D01*
X147893048Y-89587563D01*
X147843079Y-89537131D01*
X147828307Y-89467688D01*
X147853423Y-89401283D01*
X147880775Y-89374676D01*
X147924598Y-89343417D01*
X148059855Y-89246940D01*
X148218091Y-89089256D01*
X148277589Y-89006456D01*
X148345430Y-88912044D01*
X148348448Y-88907844D01*
X148350741Y-88903204D01*
X148352441Y-88900375D01*
X148404669Y-88852285D01*
X148460446Y-88839267D01*
X152815466Y-88839267D01*
X152826649Y-88839794D01*
X152834142Y-88841469D01*
X152842068Y-88841220D01*
X152842069Y-88841220D01*
X152902219Y-88839329D01*
X152906178Y-88839267D01*
X152934089Y-88839267D01*
X152938024Y-88838770D01*
X152938089Y-88838762D01*
X152949926Y-88837829D01*
X152982184Y-88836815D01*
X152986203Y-88836689D01*
X152994122Y-88836440D01*
X153013576Y-88830788D01*
X153032933Y-88826780D01*
X153045163Y-88825235D01*
X153045164Y-88825235D01*
X153053030Y-88824241D01*
X153060401Y-88821322D01*
X153060403Y-88821322D01*
X153094145Y-88807963D01*
X153105375Y-88804118D01*
X153140216Y-88793996D01*
X153140217Y-88793996D01*
X153147826Y-88791785D01*
X153154645Y-88787752D01*
X153154650Y-88787750D01*
X153165261Y-88781474D01*
X153183009Y-88772779D01*
X153201850Y-88765319D01*
X153237620Y-88739331D01*
X153247540Y-88732815D01*
X153278768Y-88714347D01*
X153278771Y-88714345D01*
X153285595Y-88710309D01*
X153299916Y-88695988D01*
X153314950Y-88683147D01*
X153324927Y-88675898D01*
X153331340Y-88671239D01*
X153359531Y-88637162D01*
X153367521Y-88628383D01*
X153655985Y-88339919D01*
X153718297Y-88305893D01*
X153754666Y-88304377D01*
X153754692Y-88303725D01*
X153958263Y-88311723D01*
X154159883Y-88282490D01*
X154306012Y-88232886D01*
X154376945Y-88229930D01*
X154438218Y-88265793D01*
G37*
%TD.AperFunction*%
%TA.AperFunction,Conductor*%
G36*
X164501094Y-73501070D02*
G01*
X164522069Y-73517973D01*
X164871607Y-73867512D01*
X164905632Y-73929824D01*
X164908511Y-73956607D01*
X164908511Y-74227459D01*
X164888509Y-74295580D01*
X164840694Y-74339220D01*
X164815618Y-74352274D01*
X164811485Y-74355377D01*
X164811482Y-74355379D01*
X164660762Y-74468543D01*
X164636976Y-74486402D01*
X164482640Y-74647905D01*
X164479726Y-74652177D01*
X164479725Y-74652178D01*
X164461849Y-74678384D01*
X164356754Y-74832447D01*
X164262699Y-75035072D01*
X164203000Y-75250337D01*
X164179262Y-75472462D01*
X164179559Y-75477615D01*
X164179559Y-75477618D01*
X164185022Y-75572357D01*
X164192121Y-75695482D01*
X164193258Y-75700528D01*
X164193259Y-75700534D01*
X164213130Y-75788706D01*
X164241233Y-75913406D01*
X164325277Y-76120383D01*
X164441998Y-76310855D01*
X164588261Y-76479705D01*
X164760137Y-76622399D01*
X164830606Y-76663578D01*
X164833456Y-76665243D01*
X164882180Y-76716881D01*
X164895251Y-76786664D01*
X164868520Y-76852436D01*
X164828066Y-76885794D01*
X164815618Y-76892274D01*
X164811485Y-76895377D01*
X164811482Y-76895379D01*
X164687578Y-76988409D01*
X164636976Y-77026402D01*
X164482640Y-77187905D01*
X164356754Y-77372447D01*
X164262699Y-77575072D01*
X164203000Y-77790337D01*
X164179262Y-78012462D01*
X164179559Y-78017615D01*
X164179559Y-78017618D01*
X164185022Y-78112357D01*
X164192121Y-78235482D01*
X164193258Y-78240528D01*
X164193259Y-78240534D01*
X164202920Y-78283402D01*
X164241233Y-78453406D01*
X164325277Y-78660383D01*
X164327976Y-78664787D01*
X164421309Y-78817093D01*
X164441998Y-78850855D01*
X164588261Y-79019705D01*
X164760137Y-79162399D01*
X164803132Y-79187523D01*
X164833456Y-79205243D01*
X164882180Y-79256881D01*
X164895251Y-79326664D01*
X164868520Y-79392436D01*
X164828066Y-79425794D01*
X164815618Y-79432274D01*
X164811485Y-79435377D01*
X164811482Y-79435379D01*
X164641111Y-79563297D01*
X164636976Y-79566402D01*
X164482640Y-79727905D01*
X164479726Y-79732177D01*
X164479725Y-79732178D01*
X164367106Y-79897271D01*
X164312195Y-79942274D01*
X164263018Y-79952267D01*
X161013035Y-79952267D01*
X160944914Y-79932265D01*
X160912077Y-79901656D01*
X160880758Y-79859715D01*
X160880758Y-79859714D01*
X160877305Y-79855091D01*
X160744339Y-79732178D01*
X160731943Y-79720719D01*
X160731940Y-79720717D01*
X160727703Y-79716800D01*
X160681675Y-79687759D01*
X160560288Y-79611169D01*
X160560283Y-79611167D01*
X160555404Y-79608088D01*
X160366180Y-79532595D01*
X160166366Y-79492849D01*
X160160592Y-79492773D01*
X160160588Y-79492773D01*
X160057452Y-79491424D01*
X159962655Y-79490183D01*
X159956958Y-79491162D01*
X159956957Y-79491162D01*
X159767567Y-79523705D01*
X159761870Y-79524684D01*
X159570734Y-79595198D01*
X159395649Y-79699363D01*
X159242478Y-79833690D01*
X159238911Y-79838215D01*
X159238906Y-79838220D01*
X159160831Y-79937259D01*
X159116351Y-79993681D01*
X159021492Y-80173978D01*
X158961078Y-80368543D01*
X158937132Y-80570859D01*
X158950457Y-80774151D01*
X159000605Y-80971610D01*
X159085898Y-81156624D01*
X159203479Y-81322997D01*
X159349410Y-81465157D01*
X159354206Y-81468362D01*
X159354209Y-81468364D01*
X159361004Y-81472904D01*
X159518803Y-81578342D01*
X159524106Y-81580620D01*
X159524109Y-81580622D01*
X159624064Y-81623566D01*
X159705987Y-81658763D01*
X159778817Y-81675243D01*
X159899055Y-81702450D01*
X159899060Y-81702451D01*
X159904692Y-81703725D01*
X159910463Y-81703952D01*
X159910465Y-81703952D01*
X159973470Y-81706427D01*
X160108263Y-81711723D01*
X160309883Y-81682490D01*
X160315347Y-81680635D01*
X160315352Y-81680634D01*
X160497327Y-81618862D01*
X160497332Y-81618860D01*
X160502799Y-81617004D01*
X160680551Y-81517458D01*
X160837186Y-81387186D01*
X160939059Y-81264698D01*
X160997995Y-81225114D01*
X161035932Y-81219267D01*
X164266285Y-81219267D01*
X164334406Y-81239269D01*
X164373718Y-81279432D01*
X164441998Y-81390855D01*
X164588261Y-81559705D01*
X164760137Y-81702399D01*
X164830606Y-81743578D01*
X164833456Y-81745243D01*
X164882180Y-81796881D01*
X164895251Y-81866664D01*
X164868520Y-81932436D01*
X164828066Y-81965794D01*
X164815618Y-81972274D01*
X164811485Y-81975377D01*
X164811482Y-81975379D01*
X164787258Y-81993567D01*
X164636976Y-82106402D01*
X164482640Y-82267905D01*
X164479726Y-82272177D01*
X164479725Y-82272178D01*
X164467415Y-82290224D01*
X164356754Y-82452447D01*
X164262699Y-82655072D01*
X164203000Y-82870337D01*
X164179262Y-83092462D01*
X164179559Y-83097615D01*
X164179559Y-83097618D01*
X164185022Y-83192357D01*
X164192121Y-83315482D01*
X164193258Y-83320528D01*
X164193259Y-83320534D01*
X164206608Y-83379767D01*
X164241233Y-83533406D01*
X164325277Y-83740383D01*
X164375874Y-83822950D01*
X164400857Y-83863718D01*
X164441998Y-83930855D01*
X164588261Y-84099705D01*
X164760137Y-84242399D01*
X164796555Y-84263680D01*
X164833456Y-84285243D01*
X164882180Y-84336881D01*
X164895251Y-84406664D01*
X164868520Y-84472436D01*
X164828066Y-84505794D01*
X164815618Y-84512274D01*
X164811485Y-84515377D01*
X164811482Y-84515379D01*
X164641111Y-84643297D01*
X164636976Y-84646402D01*
X164482640Y-84807905D01*
X164479726Y-84812177D01*
X164479725Y-84812178D01*
X164367106Y-84977271D01*
X164312195Y-85022274D01*
X164263018Y-85032267D01*
X162585437Y-85032267D01*
X162517316Y-85012265D01*
X162484479Y-84981656D01*
X162430758Y-84909715D01*
X162430757Y-84909714D01*
X162427305Y-84905091D01*
X162322170Y-84807905D01*
X162281943Y-84770719D01*
X162281940Y-84770717D01*
X162277703Y-84766800D01*
X162231675Y-84737759D01*
X162110288Y-84661169D01*
X162110283Y-84661167D01*
X162105404Y-84658088D01*
X161916180Y-84582595D01*
X161716366Y-84542849D01*
X161710592Y-84542773D01*
X161710588Y-84542773D01*
X161607452Y-84541424D01*
X161512655Y-84540183D01*
X161506958Y-84541162D01*
X161506957Y-84541162D01*
X161317567Y-84573705D01*
X161311870Y-84574684D01*
X161120734Y-84645198D01*
X160945649Y-84749363D01*
X160792478Y-84883690D01*
X160788911Y-84888215D01*
X160788906Y-84888220D01*
X160715248Y-84981656D01*
X160666351Y-85043681D01*
X160650092Y-85074585D01*
X160600673Y-85125559D01*
X160531541Y-85141722D01*
X160464645Y-85117944D01*
X160444618Y-85098562D01*
X160444542Y-85098638D01*
X160430221Y-85084317D01*
X160417380Y-85069283D01*
X160410132Y-85059307D01*
X160405472Y-85052893D01*
X160371407Y-85024712D01*
X160362626Y-85016722D01*
X159703647Y-84357742D01*
X159696113Y-84349463D01*
X159692000Y-84342982D01*
X159642348Y-84296356D01*
X159639507Y-84293602D01*
X159619770Y-84273865D01*
X159616573Y-84271385D01*
X159607551Y-84263680D01*
X159584889Y-84242399D01*
X159575321Y-84233414D01*
X159568375Y-84229595D01*
X159568372Y-84229593D01*
X159557566Y-84223652D01*
X159541047Y-84212801D01*
X159540583Y-84212441D01*
X159525041Y-84200386D01*
X159517772Y-84197241D01*
X159517768Y-84197238D01*
X159484463Y-84182826D01*
X159473813Y-84177609D01*
X159435060Y-84156305D01*
X159415437Y-84151267D01*
X159396734Y-84144863D01*
X159385420Y-84139967D01*
X159385419Y-84139967D01*
X159378145Y-84136819D01*
X159370322Y-84135580D01*
X159370312Y-84135577D01*
X159334476Y-84129901D01*
X159322856Y-84127495D01*
X159287711Y-84118472D01*
X159287710Y-84118472D01*
X159280030Y-84116500D01*
X159259776Y-84116500D01*
X159240065Y-84114949D01*
X159227886Y-84113020D01*
X159220057Y-84111780D01*
X159212165Y-84112526D01*
X159176039Y-84115941D01*
X159164181Y-84116500D01*
X157223663Y-84116500D01*
X157155542Y-84096498D01*
X157122705Y-84065889D01*
X157080758Y-84009715D01*
X157080757Y-84009714D01*
X157077305Y-84005091D01*
X156927703Y-83866800D01*
X156872618Y-83832044D01*
X156760288Y-83761169D01*
X156760283Y-83761167D01*
X156755404Y-83758088D01*
X156566180Y-83682595D01*
X156366366Y-83642849D01*
X156360592Y-83642773D01*
X156360588Y-83642773D01*
X156257452Y-83641424D01*
X156162655Y-83640183D01*
X156156958Y-83641162D01*
X156156957Y-83641162D01*
X156019933Y-83664707D01*
X155961870Y-83674684D01*
X155956444Y-83676686D01*
X155956443Y-83676686D01*
X155909122Y-83694143D01*
X155838289Y-83698955D01*
X155776098Y-83664707D01*
X155742296Y-83602274D01*
X155739512Y-83575931D01*
X155739512Y-73821663D01*
X155759514Y-73753542D01*
X155784943Y-73724789D01*
X155888760Y-73638445D01*
X155893198Y-73634754D01*
X155903125Y-73622817D01*
X155983233Y-73526499D01*
X156042171Y-73486915D01*
X156080107Y-73481068D01*
X164432973Y-73481068D01*
X164501094Y-73501070D01*
G37*
%TD.AperFunction*%
%TD*%
%TA.AperFunction,Conductor*%
%TO.N,GND*%
G36*
X190604063Y-61825512D02*
G01*
X190618864Y-61827817D01*
X190618867Y-61827817D01*
X190627736Y-61829198D01*
X190644905Y-61826953D01*
X190668845Y-61826120D01*
X190926776Y-61841722D01*
X190941880Y-61843556D01*
X191012654Y-61856526D01*
X191222885Y-61895052D01*
X191237647Y-61898690D01*
X191510414Y-61983687D01*
X191524633Y-61989081D01*
X191785146Y-62106328D01*
X191798615Y-62113397D01*
X192043101Y-62261194D01*
X192055623Y-62269837D01*
X192280513Y-62446028D01*
X192291901Y-62456118D01*
X192493900Y-62658117D01*
X192503990Y-62669505D01*
X192680181Y-62894395D01*
X192688824Y-62906917D01*
X192836621Y-63151403D01*
X192843690Y-63164872D01*
X192936074Y-63370141D01*
X192960936Y-63425382D01*
X192966331Y-63439604D01*
X193025153Y-63628369D01*
X193051327Y-63712365D01*
X193054966Y-63727133D01*
X193070212Y-63810325D01*
X193106462Y-64008138D01*
X193108296Y-64023242D01*
X193123461Y-64273941D01*
X193122204Y-64300651D01*
X193122201Y-64300871D01*
X193120820Y-64309742D01*
X193121984Y-64318644D01*
X193121984Y-64318647D01*
X193124942Y-64341263D01*
X193126006Y-64357601D01*
X193126006Y-104403104D01*
X193124506Y-104422488D01*
X193120820Y-104446162D01*
X193122460Y-104458702D01*
X193123065Y-104463329D01*
X193123898Y-104487271D01*
X193108296Y-104745202D01*
X193106462Y-104760306D01*
X193066997Y-104975665D01*
X193054968Y-105041305D01*
X193051328Y-105056073D01*
X192976223Y-105297095D01*
X192966332Y-105328836D01*
X192960937Y-105343059D01*
X192884702Y-105512448D01*
X192843692Y-105603568D01*
X192836621Y-105617041D01*
X192688824Y-105861527D01*
X192680181Y-105874049D01*
X192503990Y-106098939D01*
X192493900Y-106110327D01*
X192291901Y-106312326D01*
X192280513Y-106322416D01*
X192055623Y-106498607D01*
X192043101Y-106507250D01*
X191798615Y-106655047D01*
X191785146Y-106662116D01*
X191524636Y-106779362D01*
X191510414Y-106784757D01*
X191237647Y-106869754D01*
X191222885Y-106873392D01*
X191012654Y-106911918D01*
X190941880Y-106924888D01*
X190926776Y-106926722D01*
X190676077Y-106941887D01*
X190649367Y-106940630D01*
X190649147Y-106940627D01*
X190640276Y-106939246D01*
X190631374Y-106940410D01*
X190631371Y-106940410D01*
X190608755Y-106943368D01*
X190592417Y-106944432D01*
X173605336Y-106944432D01*
X173585951Y-106942932D01*
X173571150Y-106940627D01*
X173571147Y-106940627D01*
X173562278Y-106939246D01*
X173545109Y-106941491D01*
X173521169Y-106942324D01*
X173263238Y-106926722D01*
X173248134Y-106924888D01*
X173177360Y-106911918D01*
X172967129Y-106873392D01*
X172952367Y-106869754D01*
X172679600Y-106784757D01*
X172665378Y-106779362D01*
X172404868Y-106662116D01*
X172391399Y-106655047D01*
X172146913Y-106507250D01*
X172134391Y-106498607D01*
X171909501Y-106322416D01*
X171898113Y-106312326D01*
X171696114Y-106110327D01*
X171686024Y-106098939D01*
X171509833Y-105874049D01*
X171501190Y-105861527D01*
X171353393Y-105617041D01*
X171346322Y-105603568D01*
X171305313Y-105512448D01*
X171229077Y-105343059D01*
X171223682Y-105328836D01*
X171213791Y-105297095D01*
X171138686Y-105056073D01*
X171135046Y-105041305D01*
X171123018Y-104975665D01*
X171083552Y-104760306D01*
X171081718Y-104745202D01*
X171066553Y-104494503D01*
X171067810Y-104467793D01*
X171067813Y-104467573D01*
X171069194Y-104458702D01*
X171067555Y-104446162D01*
X171065072Y-104427181D01*
X171064008Y-104410843D01*
X171064008Y-103380301D01*
X172492697Y-103380301D01*
X172509246Y-103667315D01*
X172510071Y-103671520D01*
X172510072Y-103671528D01*
X172542018Y-103834353D01*
X172564594Y-103949427D01*
X172565981Y-103953477D01*
X172565982Y-103953482D01*
X172656329Y-104217362D01*
X172657718Y-104221418D01*
X172659645Y-104225249D01*
X172781632Y-104467793D01*
X172786893Y-104478254D01*
X172949729Y-104715182D01*
X172952616Y-104718355D01*
X172952617Y-104718356D01*
X172993337Y-104763107D01*
X173143214Y-104927820D01*
X173146509Y-104930575D01*
X173146510Y-104930576D01*
X173296611Y-105056079D01*
X173363767Y-105112230D01*
X173607306Y-105265003D01*
X173869326Y-105383309D01*
X173873445Y-105384529D01*
X174140865Y-105463743D01*
X174140870Y-105463744D01*
X174144978Y-105464961D01*
X174149212Y-105465609D01*
X174149217Y-105465610D01*
X174397819Y-105503651D01*
X174429161Y-105508447D01*
X174575493Y-105510746D01*
X174712325Y-105512896D01*
X174712331Y-105512896D01*
X174716616Y-105512963D01*
X174720868Y-105512448D01*
X174720876Y-105512448D01*
X174997764Y-105478940D01*
X174997769Y-105478939D01*
X175002025Y-105478424D01*
X175280105Y-105405471D01*
X175545712Y-105295453D01*
X175793930Y-105150406D01*
X176020167Y-104973014D01*
X176061293Y-104930576D01*
X176217252Y-104769638D01*
X176220235Y-104766560D01*
X176222768Y-104763112D01*
X176222772Y-104763107D01*
X176387895Y-104538318D01*
X176390433Y-104534863D01*
X176412347Y-104494503D01*
X176525562Y-104285987D01*
X176525563Y-104285985D01*
X176527612Y-104282211D01*
X176629233Y-104013280D01*
X176693415Y-103733045D01*
X176718971Y-103446692D01*
X176719435Y-103402432D01*
X176717926Y-103380301D01*
X187470695Y-103380301D01*
X187487244Y-103667315D01*
X187488069Y-103671520D01*
X187488070Y-103671528D01*
X187520016Y-103834353D01*
X187542592Y-103949427D01*
X187543979Y-103953477D01*
X187543980Y-103953482D01*
X187634327Y-104217362D01*
X187635716Y-104221418D01*
X187637643Y-104225249D01*
X187759630Y-104467793D01*
X187764891Y-104478254D01*
X187927727Y-104715182D01*
X187930614Y-104718355D01*
X187930615Y-104718356D01*
X187971335Y-104763107D01*
X188121212Y-104927820D01*
X188124507Y-104930575D01*
X188124508Y-104930576D01*
X188274609Y-105056079D01*
X188341765Y-105112230D01*
X188585304Y-105265003D01*
X188847324Y-105383309D01*
X188851443Y-105384529D01*
X189118863Y-105463743D01*
X189118868Y-105463744D01*
X189122976Y-105464961D01*
X189127210Y-105465609D01*
X189127215Y-105465610D01*
X189375817Y-105503651D01*
X189407159Y-105508447D01*
X189553491Y-105510746D01*
X189690323Y-105512896D01*
X189690329Y-105512896D01*
X189694614Y-105512963D01*
X189698866Y-105512448D01*
X189698874Y-105512448D01*
X189975762Y-105478940D01*
X189975767Y-105478939D01*
X189980023Y-105478424D01*
X190258103Y-105405471D01*
X190523710Y-105295453D01*
X190771928Y-105150406D01*
X190998165Y-104973014D01*
X191039291Y-104930576D01*
X191195250Y-104769638D01*
X191198233Y-104766560D01*
X191200766Y-104763112D01*
X191200770Y-104763107D01*
X191365893Y-104538318D01*
X191368431Y-104534863D01*
X191390345Y-104494503D01*
X191503560Y-104285987D01*
X191503561Y-104285985D01*
X191505610Y-104282211D01*
X191607231Y-104013280D01*
X191671413Y-103733045D01*
X191696969Y-103446692D01*
X191697433Y-103402432D01*
X191677879Y-103115607D01*
X191673342Y-103093696D01*
X191620449Y-102838287D01*
X191619580Y-102834090D01*
X191523613Y-102563089D01*
X191391756Y-102307620D01*
X191378494Y-102288749D01*
X191228910Y-102075914D01*
X191226447Y-102072409D01*
X191030746Y-101861810D01*
X190808274Y-101679719D01*
X190563148Y-101529505D01*
X190545054Y-101521562D01*
X190303836Y-101415675D01*
X190299904Y-101413949D01*
X190273969Y-101406561D01*
X190027540Y-101336364D01*
X190027541Y-101336364D01*
X190023412Y-101335188D01*
X189810710Y-101304917D01*
X189743042Y-101295286D01*
X189743040Y-101295286D01*
X189738790Y-101294681D01*
X189734501Y-101294659D01*
X189734494Y-101294658D01*
X189455589Y-101293197D01*
X189455582Y-101293197D01*
X189451303Y-101293175D01*
X189447059Y-101293734D01*
X189447055Y-101293734D01*
X189321666Y-101310242D01*
X189166272Y-101330700D01*
X189162132Y-101331833D01*
X189162130Y-101331833D01*
X189085317Y-101352847D01*
X188888970Y-101406561D01*
X188885022Y-101408245D01*
X188628482Y-101517669D01*
X188628478Y-101517671D01*
X188624530Y-101519355D01*
X188499966Y-101593905D01*
X188381527Y-101664789D01*
X188381523Y-101664792D01*
X188377845Y-101666993D01*
X188153478Y-101846745D01*
X187955583Y-102055283D01*
X187787820Y-102288749D01*
X187653294Y-102542824D01*
X187554495Y-102812805D01*
X187493251Y-103093696D01*
X187470695Y-103380301D01*
X176717926Y-103380301D01*
X176699881Y-103115607D01*
X176695344Y-103093696D01*
X176642451Y-102838287D01*
X176641582Y-102834090D01*
X176545615Y-102563089D01*
X176413758Y-102307620D01*
X176400496Y-102288749D01*
X176250912Y-102075914D01*
X176248449Y-102072409D01*
X176052748Y-101861810D01*
X175830276Y-101679719D01*
X175585150Y-101529505D01*
X175567056Y-101521562D01*
X175325838Y-101415675D01*
X175321906Y-101413949D01*
X175295971Y-101406561D01*
X175049542Y-101336364D01*
X175049543Y-101336364D01*
X175045414Y-101335188D01*
X174832712Y-101304917D01*
X174765044Y-101295286D01*
X174765042Y-101295286D01*
X174760792Y-101294681D01*
X174756503Y-101294659D01*
X174756496Y-101294658D01*
X174477591Y-101293197D01*
X174477584Y-101293197D01*
X174473305Y-101293175D01*
X174469061Y-101293734D01*
X174469057Y-101293734D01*
X174343668Y-101310242D01*
X174188274Y-101330700D01*
X174184134Y-101331833D01*
X174184132Y-101331833D01*
X174107319Y-101352847D01*
X173910972Y-101406561D01*
X173907024Y-101408245D01*
X173650484Y-101517669D01*
X173650480Y-101517671D01*
X173646532Y-101519355D01*
X173521968Y-101593905D01*
X173403529Y-101664789D01*
X173403525Y-101664792D01*
X173399847Y-101666993D01*
X173175480Y-101846745D01*
X172977585Y-102055283D01*
X172809822Y-102288749D01*
X172675296Y-102542824D01*
X172576497Y-102812805D01*
X172515253Y-103093696D01*
X172492697Y-103380301D01*
X171064008Y-103380301D01*
X171064008Y-93254887D01*
X171551258Y-93254887D01*
X171551555Y-93260040D01*
X171551555Y-93260043D01*
X171557018Y-93354782D01*
X171564117Y-93477907D01*
X171565254Y-93482953D01*
X171565255Y-93482959D01*
X171579930Y-93548075D01*
X171613229Y-93695831D01*
X171697273Y-93902808D01*
X171716823Y-93934710D01*
X171805286Y-94079069D01*
X171813994Y-94093280D01*
X171960257Y-94262130D01*
X172063965Y-94348230D01*
X172125222Y-94399086D01*
X172132133Y-94404824D01*
X172325007Y-94517530D01*
X172533699Y-94597222D01*
X172538767Y-94598253D01*
X172538770Y-94598254D01*
X172646024Y-94620075D01*
X172752604Y-94641759D01*
X172757779Y-94641949D01*
X172757781Y-94641949D01*
X172970680Y-94649756D01*
X172970684Y-94649756D01*
X172975844Y-94649945D01*
X172980964Y-94649289D01*
X172980966Y-94649289D01*
X173192295Y-94622217D01*
X173192296Y-94622217D01*
X173197423Y-94621560D01*
X173202373Y-94620075D01*
X173406436Y-94558853D01*
X173406441Y-94558851D01*
X173411391Y-94557366D01*
X173612001Y-94459088D01*
X173793867Y-94329365D01*
X173820955Y-94302372D01*
X173948442Y-94175329D01*
X173952103Y-94171681D01*
X173962972Y-94156556D01*
X174079442Y-93994469D01*
X174082460Y-93990269D01*
X174086152Y-93982800D01*
X174179143Y-93794645D01*
X174179144Y-93794643D01*
X174181437Y-93790003D01*
X174246377Y-93576261D01*
X174275536Y-93354782D01*
X174275650Y-93350129D01*
X174277081Y-93291557D01*
X174277081Y-93291553D01*
X174277163Y-93288192D01*
X174258859Y-93065553D01*
X174204438Y-92848894D01*
X174115361Y-92644032D01*
X173994021Y-92456469D01*
X173843677Y-92291243D01*
X173839626Y-92288044D01*
X173839622Y-92288040D01*
X173672421Y-92155992D01*
X173672417Y-92155990D01*
X173668366Y-92152790D01*
X173627060Y-92129988D01*
X173577091Y-92079556D01*
X173562319Y-92010113D01*
X173587435Y-91943708D01*
X173614787Y-91917101D01*
X173658610Y-91885842D01*
X173793867Y-91789365D01*
X173820955Y-91762372D01*
X173948442Y-91635329D01*
X173952103Y-91631681D01*
X173962972Y-91616556D01*
X174079442Y-91454469D01*
X174082460Y-91450269D01*
X174086152Y-91442800D01*
X174179143Y-91254645D01*
X174179144Y-91254643D01*
X174181437Y-91250003D01*
X174246377Y-91036261D01*
X174275536Y-90814782D01*
X174275650Y-90810129D01*
X174277081Y-90751557D01*
X174277081Y-90751553D01*
X174277163Y-90748192D01*
X174258859Y-90525553D01*
X174204438Y-90308894D01*
X174115361Y-90104032D01*
X173994021Y-89916469D01*
X173843677Y-89751243D01*
X173839626Y-89748044D01*
X173839622Y-89748040D01*
X173672421Y-89615992D01*
X173672417Y-89615990D01*
X173668366Y-89612790D01*
X173627060Y-89589988D01*
X173577091Y-89539556D01*
X173562319Y-89470113D01*
X173587435Y-89403708D01*
X173614787Y-89377101D01*
X173658610Y-89345842D01*
X173793867Y-89249365D01*
X173820955Y-89222372D01*
X173948442Y-89095329D01*
X173952103Y-89091681D01*
X173962972Y-89076556D01*
X174079442Y-88914469D01*
X174082460Y-88910269D01*
X174086152Y-88902800D01*
X174179143Y-88714645D01*
X174179144Y-88714643D01*
X174181437Y-88710003D01*
X174246377Y-88496261D01*
X174275536Y-88274782D01*
X174275650Y-88270129D01*
X174277081Y-88211557D01*
X174277081Y-88211553D01*
X174277163Y-88208192D01*
X174258859Y-87985553D01*
X174204438Y-87768894D01*
X174115361Y-87564032D01*
X173994021Y-87376469D01*
X173843677Y-87211243D01*
X173839626Y-87208044D01*
X173839622Y-87208040D01*
X173672421Y-87075992D01*
X173672417Y-87075990D01*
X173668366Y-87072790D01*
X173627060Y-87049988D01*
X173577091Y-86999556D01*
X173562319Y-86930113D01*
X173587435Y-86863708D01*
X173614787Y-86837101D01*
X173658610Y-86805842D01*
X173793867Y-86709365D01*
X173820955Y-86682372D01*
X173948442Y-86555329D01*
X173952103Y-86551681D01*
X173962972Y-86536556D01*
X174079442Y-86374469D01*
X174082460Y-86370269D01*
X174086152Y-86362800D01*
X174179143Y-86174645D01*
X174179144Y-86174643D01*
X174181437Y-86170003D01*
X174246377Y-85956261D01*
X174275536Y-85734782D01*
X174275650Y-85730129D01*
X174277081Y-85671557D01*
X174277081Y-85671553D01*
X174277163Y-85668192D01*
X174274767Y-85639051D01*
X176895378Y-85639051D01*
X176908703Y-85842343D01*
X176958851Y-86039802D01*
X177044144Y-86224816D01*
X177161725Y-86391189D01*
X177307656Y-86533349D01*
X177312452Y-86536554D01*
X177312455Y-86536556D01*
X177340551Y-86555329D01*
X177477049Y-86646534D01*
X177482352Y-86648812D01*
X177482355Y-86648814D01*
X177623291Y-86709365D01*
X177664233Y-86726955D01*
X177737063Y-86743435D01*
X177857301Y-86770642D01*
X177857306Y-86770643D01*
X177862938Y-86771917D01*
X177868709Y-86772144D01*
X177868711Y-86772144D01*
X177931716Y-86774619D01*
X178066509Y-86779915D01*
X178268129Y-86750682D01*
X178273593Y-86748827D01*
X178273598Y-86748826D01*
X178455573Y-86687054D01*
X178455578Y-86687052D01*
X178461045Y-86685196D01*
X178638797Y-86585650D01*
X178795432Y-86455378D01*
X178845468Y-86395216D01*
X178885467Y-86347123D01*
X178944405Y-86307539D01*
X178982341Y-86301692D01*
X180819281Y-86301692D01*
X180887402Y-86321694D01*
X180926714Y-86361857D01*
X180994994Y-86473280D01*
X181141257Y-86642130D01*
X181244965Y-86728230D01*
X181306222Y-86779086D01*
X181313133Y-86784824D01*
X181383602Y-86826003D01*
X181386452Y-86827668D01*
X181435176Y-86879306D01*
X181448247Y-86949089D01*
X181421516Y-87014861D01*
X181381062Y-87048219D01*
X181368614Y-87054699D01*
X181364481Y-87057802D01*
X181364478Y-87057804D01*
X181255456Y-87139660D01*
X181189972Y-87188827D01*
X181186400Y-87192565D01*
X181059850Y-87324992D01*
X181035636Y-87350330D01*
X180909750Y-87534872D01*
X180815695Y-87737497D01*
X180755996Y-87952762D01*
X180732258Y-88174887D01*
X180732555Y-88180040D01*
X180732555Y-88180043D01*
X180738018Y-88274782D01*
X180745117Y-88397907D01*
X180746254Y-88402953D01*
X180746255Y-88402959D01*
X180760930Y-88468075D01*
X180794229Y-88615831D01*
X180878273Y-88822808D01*
X180897823Y-88854710D01*
X180986286Y-88999069D01*
X180994994Y-89013280D01*
X181141257Y-89182130D01*
X181244965Y-89268230D01*
X181306222Y-89319086D01*
X181313133Y-89324824D01*
X181383602Y-89366003D01*
X181386452Y-89367668D01*
X181435176Y-89419306D01*
X181448247Y-89489089D01*
X181421516Y-89554861D01*
X181381062Y-89588219D01*
X181368614Y-89594699D01*
X181364481Y-89597802D01*
X181364478Y-89597804D01*
X181255456Y-89679660D01*
X181189972Y-89728827D01*
X181186400Y-89732565D01*
X181059850Y-89864992D01*
X181035636Y-89890330D01*
X180909750Y-90074872D01*
X180815695Y-90277497D01*
X180755996Y-90492762D01*
X180732258Y-90714887D01*
X180732555Y-90720040D01*
X180732555Y-90720043D01*
X180738018Y-90814782D01*
X180745117Y-90937907D01*
X180746254Y-90942953D01*
X180746255Y-90942959D01*
X180760930Y-91008075D01*
X180794229Y-91155831D01*
X180878273Y-91362808D01*
X180897823Y-91394710D01*
X180986286Y-91539069D01*
X180994994Y-91553280D01*
X181141257Y-91722130D01*
X181244965Y-91808230D01*
X181306222Y-91859086D01*
X181313133Y-91864824D01*
X181383602Y-91906003D01*
X181386452Y-91907668D01*
X181435176Y-91959306D01*
X181448247Y-92029089D01*
X181421516Y-92094861D01*
X181381062Y-92128219D01*
X181368614Y-92134699D01*
X181364481Y-92137802D01*
X181364478Y-92137804D01*
X181255456Y-92219660D01*
X181189972Y-92268827D01*
X181186400Y-92272565D01*
X181059850Y-92404992D01*
X181035636Y-92430330D01*
X180909750Y-92614872D01*
X180815695Y-92817497D01*
X180755996Y-93032762D01*
X180732258Y-93254887D01*
X180732555Y-93260040D01*
X180732555Y-93260043D01*
X180738018Y-93354782D01*
X180745117Y-93477907D01*
X180746254Y-93482953D01*
X180746255Y-93482959D01*
X180760930Y-93548075D01*
X180794229Y-93695831D01*
X180878273Y-93902808D01*
X180897823Y-93934710D01*
X180986286Y-94079069D01*
X180994994Y-94093280D01*
X181141257Y-94262130D01*
X181244965Y-94348230D01*
X181306222Y-94399086D01*
X181313133Y-94404824D01*
X181506007Y-94517530D01*
X181714699Y-94597222D01*
X181719767Y-94598253D01*
X181719770Y-94598254D01*
X181827024Y-94620075D01*
X181933604Y-94641759D01*
X181938779Y-94641949D01*
X181938781Y-94641949D01*
X182151680Y-94649756D01*
X182151684Y-94649756D01*
X182156844Y-94649945D01*
X182161964Y-94649289D01*
X182161966Y-94649289D01*
X182373295Y-94622217D01*
X182373296Y-94622217D01*
X182378423Y-94621560D01*
X182383373Y-94620075D01*
X182587436Y-94558853D01*
X182587441Y-94558851D01*
X182592391Y-94557366D01*
X182793001Y-94459088D01*
X182974867Y-94329365D01*
X183001955Y-94302372D01*
X183129442Y-94175329D01*
X183133103Y-94171681D01*
X183143972Y-94156556D01*
X183260442Y-93994469D01*
X183263460Y-93990269D01*
X183265753Y-93985629D01*
X183267453Y-93982800D01*
X183319681Y-93934710D01*
X183375458Y-93921692D01*
X185206754Y-93921692D01*
X185274875Y-93941694D01*
X185309650Y-93974971D01*
X185331913Y-94006472D01*
X185335247Y-94011189D01*
X185481178Y-94153349D01*
X185485974Y-94156554D01*
X185485977Y-94156556D01*
X185514073Y-94175329D01*
X185650571Y-94266534D01*
X185655874Y-94268812D01*
X185655877Y-94268814D01*
X185796813Y-94329365D01*
X185837755Y-94346955D01*
X185910585Y-94363435D01*
X186030823Y-94390642D01*
X186030828Y-94390643D01*
X186036460Y-94391917D01*
X186042231Y-94392144D01*
X186042233Y-94392144D01*
X186105238Y-94394619D01*
X186240031Y-94399915D01*
X186441651Y-94370682D01*
X186447115Y-94368827D01*
X186447120Y-94368826D01*
X186629095Y-94307054D01*
X186629100Y-94307052D01*
X186634567Y-94305196D01*
X186812319Y-94205650D01*
X186968954Y-94075378D01*
X187099226Y-93918743D01*
X187198772Y-93740991D01*
X187200628Y-93735524D01*
X187200630Y-93735519D01*
X187262402Y-93553544D01*
X187262403Y-93553539D01*
X187264258Y-93548075D01*
X187293491Y-93346455D01*
X187295017Y-93288192D01*
X187291957Y-93254887D01*
X189913258Y-93254887D01*
X189913555Y-93260040D01*
X189913555Y-93260043D01*
X189919018Y-93354782D01*
X189926117Y-93477907D01*
X189927254Y-93482953D01*
X189927255Y-93482959D01*
X189941930Y-93548075D01*
X189975229Y-93695831D01*
X190059273Y-93902808D01*
X190078823Y-93934710D01*
X190167286Y-94079069D01*
X190175994Y-94093280D01*
X190322257Y-94262130D01*
X190425965Y-94348230D01*
X190487222Y-94399086D01*
X190494133Y-94404824D01*
X190687007Y-94517530D01*
X190895699Y-94597222D01*
X190900767Y-94598253D01*
X190900770Y-94598254D01*
X191008024Y-94620075D01*
X191114604Y-94641759D01*
X191119779Y-94641949D01*
X191119781Y-94641949D01*
X191332680Y-94649756D01*
X191332684Y-94649756D01*
X191337844Y-94649945D01*
X191342964Y-94649289D01*
X191342966Y-94649289D01*
X191554295Y-94622217D01*
X191554296Y-94622217D01*
X191559423Y-94621560D01*
X191564373Y-94620075D01*
X191768436Y-94558853D01*
X191768441Y-94558851D01*
X191773391Y-94557366D01*
X191974001Y-94459088D01*
X192155867Y-94329365D01*
X192182955Y-94302372D01*
X192310442Y-94175329D01*
X192314103Y-94171681D01*
X192324972Y-94156556D01*
X192441442Y-93994469D01*
X192444460Y-93990269D01*
X192448152Y-93982800D01*
X192541143Y-93794645D01*
X192541144Y-93794643D01*
X192543437Y-93790003D01*
X192608377Y-93576261D01*
X192637536Y-93354782D01*
X192637650Y-93350129D01*
X192639081Y-93291557D01*
X192639081Y-93291553D01*
X192639163Y-93288192D01*
X192620859Y-93065553D01*
X192566438Y-92848894D01*
X192477361Y-92644032D01*
X192356021Y-92456469D01*
X192205677Y-92291243D01*
X192201626Y-92288044D01*
X192201622Y-92288040D01*
X192034421Y-92155992D01*
X192034417Y-92155990D01*
X192030366Y-92152790D01*
X191989060Y-92129988D01*
X191939091Y-92079556D01*
X191924319Y-92010113D01*
X191949435Y-91943708D01*
X191976787Y-91917101D01*
X192020610Y-91885842D01*
X192155867Y-91789365D01*
X192182955Y-91762372D01*
X192310442Y-91635329D01*
X192314103Y-91631681D01*
X192324972Y-91616556D01*
X192441442Y-91454469D01*
X192444460Y-91450269D01*
X192448152Y-91442800D01*
X192541143Y-91254645D01*
X192541144Y-91254643D01*
X192543437Y-91250003D01*
X192608377Y-91036261D01*
X192637536Y-90814782D01*
X192637650Y-90810129D01*
X192639081Y-90751557D01*
X192639081Y-90751553D01*
X192639163Y-90748192D01*
X192620859Y-90525553D01*
X192566438Y-90308894D01*
X192477361Y-90104032D01*
X192356021Y-89916469D01*
X192205677Y-89751243D01*
X192201626Y-89748044D01*
X192201622Y-89748040D01*
X192034421Y-89615992D01*
X192034417Y-89615990D01*
X192030366Y-89612790D01*
X191989060Y-89589988D01*
X191939091Y-89539556D01*
X191924319Y-89470113D01*
X191949435Y-89403708D01*
X191976787Y-89377101D01*
X192020610Y-89345842D01*
X192155867Y-89249365D01*
X192182955Y-89222372D01*
X192310442Y-89095329D01*
X192314103Y-89091681D01*
X192324972Y-89076556D01*
X192441442Y-88914469D01*
X192444460Y-88910269D01*
X192448152Y-88902800D01*
X192541143Y-88714645D01*
X192541144Y-88714643D01*
X192543437Y-88710003D01*
X192608377Y-88496261D01*
X192637536Y-88274782D01*
X192637650Y-88270129D01*
X192639081Y-88211557D01*
X192639081Y-88211553D01*
X192639163Y-88208192D01*
X192620859Y-87985553D01*
X192566438Y-87768894D01*
X192477361Y-87564032D01*
X192356021Y-87376469D01*
X192205677Y-87211243D01*
X192201626Y-87208044D01*
X192201622Y-87208040D01*
X192034421Y-87075992D01*
X192034417Y-87075990D01*
X192030366Y-87072790D01*
X191989060Y-87049988D01*
X191939091Y-86999556D01*
X191924319Y-86930113D01*
X191949435Y-86863708D01*
X191976787Y-86837101D01*
X192020610Y-86805842D01*
X192155867Y-86709365D01*
X192182955Y-86682372D01*
X192310442Y-86555329D01*
X192314103Y-86551681D01*
X192324972Y-86536556D01*
X192441442Y-86374469D01*
X192444460Y-86370269D01*
X192448152Y-86362800D01*
X192541143Y-86174645D01*
X192541144Y-86174643D01*
X192543437Y-86170003D01*
X192608377Y-85956261D01*
X192637536Y-85734782D01*
X192637650Y-85730129D01*
X192639081Y-85671557D01*
X192639081Y-85671553D01*
X192639163Y-85668192D01*
X192620859Y-85445553D01*
X192566438Y-85228894D01*
X192477361Y-85024032D01*
X192356021Y-84836469D01*
X192205677Y-84671243D01*
X192201626Y-84668044D01*
X192201622Y-84668040D01*
X192034421Y-84535992D01*
X192034417Y-84535990D01*
X192030366Y-84532790D01*
X191989060Y-84509988D01*
X191939091Y-84459556D01*
X191924319Y-84390113D01*
X191949435Y-84323708D01*
X191976787Y-84297101D01*
X192020610Y-84265842D01*
X192155867Y-84169365D01*
X192182955Y-84142372D01*
X192310442Y-84015329D01*
X192314103Y-84011681D01*
X192324972Y-83996556D01*
X192441442Y-83834469D01*
X192444460Y-83830269D01*
X192448618Y-83821857D01*
X192541143Y-83634645D01*
X192541144Y-83634643D01*
X192543437Y-83630003D01*
X192608377Y-83416261D01*
X192637536Y-83194782D01*
X192639163Y-83128192D01*
X192620859Y-82905553D01*
X192566438Y-82688894D01*
X192477361Y-82484032D01*
X192356021Y-82296469D01*
X192205677Y-82131243D01*
X192201626Y-82128044D01*
X192201622Y-82128040D01*
X192034421Y-81995992D01*
X192034417Y-81995990D01*
X192030366Y-81992790D01*
X191989060Y-81969988D01*
X191939091Y-81919556D01*
X191924319Y-81850113D01*
X191949435Y-81783708D01*
X191976787Y-81757101D01*
X192020610Y-81725842D01*
X192155867Y-81629365D01*
X192314103Y-81471681D01*
X192373601Y-81388881D01*
X192441442Y-81294469D01*
X192444460Y-81290269D01*
X192543437Y-81090003D01*
X192608377Y-80876261D01*
X192637536Y-80654782D01*
X192639163Y-80588192D01*
X192620859Y-80365553D01*
X192566438Y-80148894D01*
X192477361Y-79944032D01*
X192356021Y-79756469D01*
X192205677Y-79591243D01*
X192201626Y-79588044D01*
X192201622Y-79588040D01*
X192034421Y-79455992D01*
X192034417Y-79455990D01*
X192030366Y-79452790D01*
X191989060Y-79429988D01*
X191939091Y-79379556D01*
X191924319Y-79310113D01*
X191949435Y-79243708D01*
X191976787Y-79217101D01*
X192020610Y-79185842D01*
X192155867Y-79089365D01*
X192182955Y-79062372D01*
X192310442Y-78935329D01*
X192314103Y-78931681D01*
X192324972Y-78916556D01*
X192441442Y-78754469D01*
X192444460Y-78750269D01*
X192543437Y-78550003D01*
X192608377Y-78336261D01*
X192637536Y-78114782D01*
X192639163Y-78048192D01*
X192620859Y-77825553D01*
X192566438Y-77608894D01*
X192477361Y-77404032D01*
X192401269Y-77286412D01*
X192358829Y-77220809D01*
X192358827Y-77220806D01*
X192356021Y-77216469D01*
X192205677Y-77051243D01*
X192201626Y-77048044D01*
X192201622Y-77048040D01*
X192034421Y-76915992D01*
X192034417Y-76915990D01*
X192030366Y-76912790D01*
X191989060Y-76889988D01*
X191939091Y-76839556D01*
X191924319Y-76770113D01*
X191949435Y-76703708D01*
X191976787Y-76677101D01*
X192020610Y-76645842D01*
X192155867Y-76549365D01*
X192314103Y-76391681D01*
X192373601Y-76308881D01*
X192441442Y-76214469D01*
X192444460Y-76210269D01*
X192543437Y-76010003D01*
X192608377Y-75796261D01*
X192637536Y-75574782D01*
X192639163Y-75508192D01*
X192620859Y-75285553D01*
X192566438Y-75068894D01*
X192477361Y-74864032D01*
X192356021Y-74676469D01*
X192205677Y-74511243D01*
X192201626Y-74508044D01*
X192201622Y-74508040D01*
X192034421Y-74375992D01*
X192034417Y-74375990D01*
X192030366Y-74372790D01*
X191834796Y-74264830D01*
X191829927Y-74263106D01*
X191829923Y-74263104D01*
X191629094Y-74191987D01*
X191629090Y-74191986D01*
X191624219Y-74190261D01*
X191619126Y-74189354D01*
X191619123Y-74189353D01*
X191409380Y-74151992D01*
X191409374Y-74151991D01*
X191404291Y-74151086D01*
X191330459Y-74150184D01*
X191186088Y-74148420D01*
X191186086Y-74148420D01*
X191180918Y-74148357D01*
X190960098Y-74182147D01*
X190747763Y-74251549D01*
X190549614Y-74354699D01*
X190545481Y-74357802D01*
X190545478Y-74357804D01*
X190375107Y-74485722D01*
X190370972Y-74488827D01*
X190216636Y-74650330D01*
X190090750Y-74834872D01*
X189996695Y-75037497D01*
X189936996Y-75252762D01*
X189913258Y-75474887D01*
X189913555Y-75480040D01*
X189913555Y-75480043D01*
X189919018Y-75574782D01*
X189926117Y-75697907D01*
X189927254Y-75702953D01*
X189927255Y-75702959D01*
X189947126Y-75791131D01*
X189975229Y-75915831D01*
X190059273Y-76122808D01*
X190175994Y-76313280D01*
X190322257Y-76482130D01*
X190494133Y-76624824D01*
X190564602Y-76666003D01*
X190567452Y-76667668D01*
X190616176Y-76719306D01*
X190629247Y-76789089D01*
X190602516Y-76854861D01*
X190562062Y-76888219D01*
X190549614Y-76894699D01*
X190545481Y-76897802D01*
X190545478Y-76897804D01*
X190421574Y-76990834D01*
X190370972Y-77028827D01*
X190216636Y-77190330D01*
X190213722Y-77194602D01*
X190213721Y-77194603D01*
X190181117Y-77242399D01*
X190090750Y-77374872D01*
X189996695Y-77577497D01*
X189936996Y-77792762D01*
X189913258Y-78014887D01*
X189913555Y-78020040D01*
X189913555Y-78020043D01*
X189919018Y-78114782D01*
X189926117Y-78237907D01*
X189927254Y-78242953D01*
X189927255Y-78242959D01*
X189947126Y-78331131D01*
X189975229Y-78455831D01*
X190059273Y-78662808D01*
X190061972Y-78667212D01*
X190167745Y-78839818D01*
X190175994Y-78853280D01*
X190322257Y-79022130D01*
X190425965Y-79108230D01*
X190487222Y-79159086D01*
X190494133Y-79164824D01*
X190564602Y-79206003D01*
X190567452Y-79207668D01*
X190616176Y-79259306D01*
X190629247Y-79329089D01*
X190602516Y-79394861D01*
X190562062Y-79428219D01*
X190549614Y-79434699D01*
X190545481Y-79437802D01*
X190545478Y-79437804D01*
X190521254Y-79455992D01*
X190370972Y-79568827D01*
X190216636Y-79730330D01*
X190213722Y-79734602D01*
X190213721Y-79734603D01*
X190201411Y-79752649D01*
X190090750Y-79914872D01*
X189996695Y-80117497D01*
X189936996Y-80332762D01*
X189913258Y-80554887D01*
X189913555Y-80560040D01*
X189913555Y-80560043D01*
X189919018Y-80654782D01*
X189926117Y-80777907D01*
X189927254Y-80782953D01*
X189927255Y-80782959D01*
X189940604Y-80842192D01*
X189975229Y-80995831D01*
X190059273Y-81202808D01*
X190175994Y-81393280D01*
X190322257Y-81562130D01*
X190494133Y-81704824D01*
X190564602Y-81746003D01*
X190567452Y-81747668D01*
X190616176Y-81799306D01*
X190629247Y-81869089D01*
X190602516Y-81934861D01*
X190562062Y-81968219D01*
X190549614Y-81974699D01*
X190545481Y-81977802D01*
X190545478Y-81977804D01*
X190436456Y-82059660D01*
X190370972Y-82108827D01*
X190367400Y-82112565D01*
X190240850Y-82244992D01*
X190216636Y-82270330D01*
X190213722Y-82274602D01*
X190213721Y-82274603D01*
X190201411Y-82292649D01*
X190090750Y-82454872D01*
X189996695Y-82657497D01*
X189936996Y-82872762D01*
X189913258Y-83094887D01*
X189913555Y-83100040D01*
X189913555Y-83100043D01*
X189919018Y-83194782D01*
X189926117Y-83317907D01*
X189927254Y-83322953D01*
X189927255Y-83322959D01*
X189940604Y-83382192D01*
X189975229Y-83535831D01*
X190059273Y-83742808D01*
X190061972Y-83747212D01*
X190173298Y-83928880D01*
X190175994Y-83933280D01*
X190322257Y-84102130D01*
X190425965Y-84188230D01*
X190487222Y-84239086D01*
X190494133Y-84244824D01*
X190564602Y-84286003D01*
X190567452Y-84287668D01*
X190616176Y-84339306D01*
X190629247Y-84409089D01*
X190602516Y-84474861D01*
X190562062Y-84508219D01*
X190549614Y-84514699D01*
X190545481Y-84517802D01*
X190545478Y-84517804D01*
X190436456Y-84599660D01*
X190370972Y-84648827D01*
X190367400Y-84652565D01*
X190240850Y-84784992D01*
X190216636Y-84810330D01*
X190090750Y-84994872D01*
X189996695Y-85197497D01*
X189936996Y-85412762D01*
X189913258Y-85634887D01*
X189913555Y-85640040D01*
X189913555Y-85640043D01*
X189919018Y-85734782D01*
X189926117Y-85857907D01*
X189927254Y-85862953D01*
X189927255Y-85862959D01*
X189941930Y-85928075D01*
X189975229Y-86075831D01*
X190059273Y-86282808D01*
X190074428Y-86307539D01*
X190173298Y-86468880D01*
X190175994Y-86473280D01*
X190322257Y-86642130D01*
X190425965Y-86728230D01*
X190487222Y-86779086D01*
X190494133Y-86784824D01*
X190564602Y-86826003D01*
X190567452Y-86827668D01*
X190616176Y-86879306D01*
X190629247Y-86949089D01*
X190602516Y-87014861D01*
X190562062Y-87048219D01*
X190549614Y-87054699D01*
X190545481Y-87057802D01*
X190545478Y-87057804D01*
X190436456Y-87139660D01*
X190370972Y-87188827D01*
X190367400Y-87192565D01*
X190240850Y-87324992D01*
X190216636Y-87350330D01*
X190090750Y-87534872D01*
X189996695Y-87737497D01*
X189936996Y-87952762D01*
X189913258Y-88174887D01*
X189913555Y-88180040D01*
X189913555Y-88180043D01*
X189919018Y-88274782D01*
X189926117Y-88397907D01*
X189927254Y-88402953D01*
X189927255Y-88402959D01*
X189941930Y-88468075D01*
X189975229Y-88615831D01*
X190059273Y-88822808D01*
X190078823Y-88854710D01*
X190167286Y-88999069D01*
X190175994Y-89013280D01*
X190322257Y-89182130D01*
X190425965Y-89268230D01*
X190487222Y-89319086D01*
X190494133Y-89324824D01*
X190564602Y-89366003D01*
X190567452Y-89367668D01*
X190616176Y-89419306D01*
X190629247Y-89489089D01*
X190602516Y-89554861D01*
X190562062Y-89588219D01*
X190549614Y-89594699D01*
X190545481Y-89597802D01*
X190545478Y-89597804D01*
X190436456Y-89679660D01*
X190370972Y-89728827D01*
X190367400Y-89732565D01*
X190240850Y-89864992D01*
X190216636Y-89890330D01*
X190090750Y-90074872D01*
X189996695Y-90277497D01*
X189936996Y-90492762D01*
X189913258Y-90714887D01*
X189913555Y-90720040D01*
X189913555Y-90720043D01*
X189919018Y-90814782D01*
X189926117Y-90937907D01*
X189927254Y-90942953D01*
X189927255Y-90942959D01*
X189941930Y-91008075D01*
X189975229Y-91155831D01*
X190059273Y-91362808D01*
X190078823Y-91394710D01*
X190167286Y-91539069D01*
X190175994Y-91553280D01*
X190322257Y-91722130D01*
X190425965Y-91808230D01*
X190487222Y-91859086D01*
X190494133Y-91864824D01*
X190564602Y-91906003D01*
X190567452Y-91907668D01*
X190616176Y-91959306D01*
X190629247Y-92029089D01*
X190602516Y-92094861D01*
X190562062Y-92128219D01*
X190549614Y-92134699D01*
X190545481Y-92137802D01*
X190545478Y-92137804D01*
X190436456Y-92219660D01*
X190370972Y-92268827D01*
X190367400Y-92272565D01*
X190240850Y-92404992D01*
X190216636Y-92430330D01*
X190090750Y-92614872D01*
X189996695Y-92817497D01*
X189936996Y-93032762D01*
X189913258Y-93254887D01*
X187291957Y-93254887D01*
X187276376Y-93085318D01*
X187263002Y-93037899D01*
X187222643Y-92894798D01*
X187222642Y-92894796D01*
X187221075Y-92889239D01*
X187201180Y-92848894D01*
X187133524Y-92711702D01*
X187130969Y-92706521D01*
X187009073Y-92543283D01*
X186891504Y-92434603D01*
X186863711Y-92408911D01*
X186863708Y-92408909D01*
X186859471Y-92404992D01*
X186813443Y-92375951D01*
X186692056Y-92299361D01*
X186692051Y-92299359D01*
X186687172Y-92296280D01*
X186497948Y-92220787D01*
X186298134Y-92181041D01*
X186292360Y-92180965D01*
X186292356Y-92180965D01*
X186189220Y-92179616D01*
X186094423Y-92178375D01*
X186088726Y-92179354D01*
X186088725Y-92179354D01*
X185899335Y-92211897D01*
X185893638Y-92212876D01*
X185702502Y-92283390D01*
X185527417Y-92387555D01*
X185374246Y-92521882D01*
X185370674Y-92526413D01*
X185307382Y-92606698D01*
X185249500Y-92647811D01*
X185208432Y-92654692D01*
X183371812Y-92654692D01*
X183303691Y-92634690D01*
X183266020Y-92597132D01*
X183177829Y-92460809D01*
X183177827Y-92460806D01*
X183175021Y-92456469D01*
X183024677Y-92291243D01*
X183020626Y-92288044D01*
X183020622Y-92288040D01*
X182853421Y-92155992D01*
X182853417Y-92155990D01*
X182849366Y-92152790D01*
X182808060Y-92129988D01*
X182758091Y-92079556D01*
X182743319Y-92010113D01*
X182768435Y-91943708D01*
X182795787Y-91917101D01*
X182839610Y-91885842D01*
X182974867Y-91789365D01*
X183001955Y-91762372D01*
X183129442Y-91635329D01*
X183133103Y-91631681D01*
X183143972Y-91616556D01*
X183260442Y-91454469D01*
X183263460Y-91450269D01*
X183265753Y-91445629D01*
X183267453Y-91442800D01*
X183319681Y-91394710D01*
X183375458Y-91381692D01*
X185206754Y-91381692D01*
X185274875Y-91401694D01*
X185309650Y-91434971D01*
X185331913Y-91466472D01*
X185335247Y-91471189D01*
X185481178Y-91613349D01*
X185485974Y-91616554D01*
X185485977Y-91616556D01*
X185514073Y-91635329D01*
X185650571Y-91726534D01*
X185655874Y-91728812D01*
X185655877Y-91728814D01*
X185796813Y-91789365D01*
X185837755Y-91806955D01*
X185910585Y-91823435D01*
X186030823Y-91850642D01*
X186030828Y-91850643D01*
X186036460Y-91851917D01*
X186042231Y-91852144D01*
X186042233Y-91852144D01*
X186105238Y-91854619D01*
X186240031Y-91859915D01*
X186441651Y-91830682D01*
X186447115Y-91828827D01*
X186447120Y-91828826D01*
X186629095Y-91767054D01*
X186629100Y-91767052D01*
X186634567Y-91765196D01*
X186812319Y-91665650D01*
X186968954Y-91535378D01*
X187099226Y-91378743D01*
X187198772Y-91200991D01*
X187200628Y-91195524D01*
X187200630Y-91195519D01*
X187262402Y-91013544D01*
X187262403Y-91013539D01*
X187264258Y-91008075D01*
X187293491Y-90806455D01*
X187295017Y-90748192D01*
X187276376Y-90545318D01*
X187263002Y-90497899D01*
X187222643Y-90354798D01*
X187222642Y-90354796D01*
X187221075Y-90349239D01*
X187201180Y-90308894D01*
X187133524Y-90171702D01*
X187130969Y-90166521D01*
X187009073Y-90003283D01*
X186891504Y-89894603D01*
X186863711Y-89868911D01*
X186863708Y-89868909D01*
X186859471Y-89864992D01*
X186813443Y-89835951D01*
X186692056Y-89759361D01*
X186692051Y-89759359D01*
X186687172Y-89756280D01*
X186497948Y-89680787D01*
X186298134Y-89641041D01*
X186292360Y-89640965D01*
X186292356Y-89640965D01*
X186189220Y-89639616D01*
X186094423Y-89638375D01*
X186088726Y-89639354D01*
X186088725Y-89639354D01*
X185899335Y-89671897D01*
X185893638Y-89672876D01*
X185702502Y-89743390D01*
X185527417Y-89847555D01*
X185374246Y-89981882D01*
X185370674Y-89986413D01*
X185307382Y-90066698D01*
X185249500Y-90107811D01*
X185208432Y-90114692D01*
X183371812Y-90114692D01*
X183303691Y-90094690D01*
X183266020Y-90057132D01*
X183177829Y-89920809D01*
X183177827Y-89920806D01*
X183175021Y-89916469D01*
X183024677Y-89751243D01*
X183020626Y-89748044D01*
X183020622Y-89748040D01*
X182853421Y-89615992D01*
X182853417Y-89615990D01*
X182849366Y-89612790D01*
X182808060Y-89589988D01*
X182758091Y-89539556D01*
X182743319Y-89470113D01*
X182768435Y-89403708D01*
X182795787Y-89377101D01*
X182839610Y-89345842D01*
X182974867Y-89249365D01*
X183001955Y-89222372D01*
X183129442Y-89095329D01*
X183133103Y-89091681D01*
X183143972Y-89076556D01*
X183260442Y-88914469D01*
X183263460Y-88910269D01*
X183265753Y-88905629D01*
X183267453Y-88902800D01*
X183319681Y-88854710D01*
X183375458Y-88841692D01*
X185206754Y-88841692D01*
X185274875Y-88861694D01*
X185309650Y-88894971D01*
X185331913Y-88926472D01*
X185335247Y-88931189D01*
X185481178Y-89073349D01*
X185485974Y-89076554D01*
X185485977Y-89076556D01*
X185514073Y-89095329D01*
X185650571Y-89186534D01*
X185655874Y-89188812D01*
X185655877Y-89188814D01*
X185796813Y-89249365D01*
X185837755Y-89266955D01*
X185910585Y-89283435D01*
X186030823Y-89310642D01*
X186030828Y-89310643D01*
X186036460Y-89311917D01*
X186042231Y-89312144D01*
X186042233Y-89312144D01*
X186105238Y-89314619D01*
X186240031Y-89319915D01*
X186441651Y-89290682D01*
X186447115Y-89288827D01*
X186447120Y-89288826D01*
X186629095Y-89227054D01*
X186629100Y-89227052D01*
X186634567Y-89225196D01*
X186812319Y-89125650D01*
X186968954Y-88995378D01*
X187099226Y-88838743D01*
X187198772Y-88660991D01*
X187200628Y-88655524D01*
X187200630Y-88655519D01*
X187262402Y-88473544D01*
X187262403Y-88473539D01*
X187264258Y-88468075D01*
X187293491Y-88266455D01*
X187295017Y-88208192D01*
X187276376Y-88005318D01*
X187263002Y-87957899D01*
X187222643Y-87814798D01*
X187222642Y-87814796D01*
X187221075Y-87809239D01*
X187201180Y-87768894D01*
X187133524Y-87631702D01*
X187130969Y-87626521D01*
X187009073Y-87463283D01*
X186891504Y-87354603D01*
X186863711Y-87328911D01*
X186863708Y-87328909D01*
X186859471Y-87324992D01*
X186813443Y-87295951D01*
X186692056Y-87219361D01*
X186692051Y-87219359D01*
X186687172Y-87216280D01*
X186497948Y-87140787D01*
X186298134Y-87101041D01*
X186292360Y-87100965D01*
X186292356Y-87100965D01*
X186189220Y-87099616D01*
X186094423Y-87098375D01*
X186088726Y-87099354D01*
X186088725Y-87099354D01*
X185899335Y-87131897D01*
X185893638Y-87132876D01*
X185702502Y-87203390D01*
X185527417Y-87307555D01*
X185374246Y-87441882D01*
X185370674Y-87446413D01*
X185307382Y-87526698D01*
X185249500Y-87567811D01*
X185208432Y-87574692D01*
X183371812Y-87574692D01*
X183303691Y-87554690D01*
X183266020Y-87517132D01*
X183177829Y-87380809D01*
X183177827Y-87380806D01*
X183175021Y-87376469D01*
X183024677Y-87211243D01*
X183020626Y-87208044D01*
X183020622Y-87208040D01*
X182853421Y-87075992D01*
X182853417Y-87075990D01*
X182849366Y-87072790D01*
X182808060Y-87049988D01*
X182758091Y-86999556D01*
X182743319Y-86930113D01*
X182768435Y-86863708D01*
X182795787Y-86837101D01*
X182839610Y-86805842D01*
X182974867Y-86709365D01*
X183001955Y-86682372D01*
X183129442Y-86555329D01*
X183133103Y-86551681D01*
X183143972Y-86536556D01*
X183260442Y-86374469D01*
X183263460Y-86370269D01*
X183265753Y-86365629D01*
X183267453Y-86362800D01*
X183319681Y-86314710D01*
X183375458Y-86301692D01*
X185206754Y-86301692D01*
X185274875Y-86321694D01*
X185309650Y-86354971D01*
X185331913Y-86386472D01*
X185335247Y-86391189D01*
X185481178Y-86533349D01*
X185485974Y-86536554D01*
X185485977Y-86536556D01*
X185514073Y-86555329D01*
X185650571Y-86646534D01*
X185655874Y-86648812D01*
X185655877Y-86648814D01*
X185796813Y-86709365D01*
X185837755Y-86726955D01*
X185910585Y-86743435D01*
X186030823Y-86770642D01*
X186030828Y-86770643D01*
X186036460Y-86771917D01*
X186042231Y-86772144D01*
X186042233Y-86772144D01*
X186105238Y-86774619D01*
X186240031Y-86779915D01*
X186441651Y-86750682D01*
X186447115Y-86748827D01*
X186447120Y-86748826D01*
X186629095Y-86687054D01*
X186629100Y-86687052D01*
X186634567Y-86685196D01*
X186812319Y-86585650D01*
X186968954Y-86455378D01*
X187099226Y-86298743D01*
X187198772Y-86120991D01*
X187200628Y-86115524D01*
X187200630Y-86115519D01*
X187262402Y-85933544D01*
X187262403Y-85933539D01*
X187264258Y-85928075D01*
X187293491Y-85726455D01*
X187295017Y-85668192D01*
X187276376Y-85465318D01*
X187263002Y-85417899D01*
X187222643Y-85274798D01*
X187222642Y-85274796D01*
X187221075Y-85269239D01*
X187210448Y-85247688D01*
X187133524Y-85091702D01*
X187130969Y-85086521D01*
X187112564Y-85061873D01*
X187012526Y-84927907D01*
X187012526Y-84927906D01*
X187009073Y-84923283D01*
X186891504Y-84814603D01*
X186863711Y-84788911D01*
X186863708Y-84788909D01*
X186859471Y-84784992D01*
X186813443Y-84755951D01*
X186692056Y-84679361D01*
X186692051Y-84679359D01*
X186687172Y-84676280D01*
X186497948Y-84600787D01*
X186298134Y-84561041D01*
X186292360Y-84560965D01*
X186292356Y-84560965D01*
X186189220Y-84559616D01*
X186094423Y-84558375D01*
X186088726Y-84559354D01*
X186088725Y-84559354D01*
X185899335Y-84591897D01*
X185893638Y-84592876D01*
X185702502Y-84663390D01*
X185527417Y-84767555D01*
X185374246Y-84901882D01*
X185370675Y-84906412D01*
X185370674Y-84906413D01*
X185307382Y-84986698D01*
X185249500Y-85027811D01*
X185208432Y-85034692D01*
X183371812Y-85034692D01*
X183303691Y-85014690D01*
X183266020Y-84977132D01*
X183177829Y-84840809D01*
X183177827Y-84840806D01*
X183175021Y-84836469D01*
X183024677Y-84671243D01*
X183020626Y-84668044D01*
X183020622Y-84668040D01*
X182853421Y-84535992D01*
X182853417Y-84535990D01*
X182849366Y-84532790D01*
X182808060Y-84509988D01*
X182758091Y-84459556D01*
X182743319Y-84390113D01*
X182768435Y-84323708D01*
X182795787Y-84297101D01*
X182839610Y-84265842D01*
X182974867Y-84169365D01*
X183001955Y-84142372D01*
X183129442Y-84015329D01*
X183133103Y-84011681D01*
X183143972Y-83996556D01*
X183260442Y-83834469D01*
X183263460Y-83830269D01*
X183267618Y-83821857D01*
X183360143Y-83634645D01*
X183360144Y-83634643D01*
X183362437Y-83630003D01*
X183427377Y-83416261D01*
X183456536Y-83194782D01*
X183458163Y-83128192D01*
X183439859Y-82905553D01*
X183385438Y-82688894D01*
X183296361Y-82484032D01*
X183175021Y-82296469D01*
X183024677Y-82131243D01*
X183020626Y-82128044D01*
X183020622Y-82128040D01*
X182853421Y-81995992D01*
X182853417Y-81995990D01*
X182849366Y-81992790D01*
X182807576Y-81969721D01*
X182757605Y-81919289D01*
X182742833Y-81849846D01*
X182767949Y-81783440D01*
X182795301Y-81756833D01*
X182970335Y-81631984D01*
X182978207Y-81625331D01*
X183129059Y-81475004D01*
X183135737Y-81467157D01*
X183260010Y-81294212D01*
X183265320Y-81285375D01*
X183359677Y-81094459D01*
X183363476Y-81084864D01*
X183425384Y-80881102D01*
X183427562Y-80871029D01*
X183428993Y-80860154D01*
X183426782Y-80845970D01*
X183413624Y-80842192D01*
X180778232Y-80842192D01*
X180764701Y-80846165D01*
X180763264Y-80856158D01*
X180793572Y-80990638D01*
X180796652Y-81000467D01*
X180876777Y-81197795D01*
X180881420Y-81206986D01*
X180992701Y-81388580D01*
X180998784Y-81396891D01*
X181138220Y-81557859D01*
X181145587Y-81565075D01*
X181309441Y-81701108D01*
X181317888Y-81707023D01*
X181386976Y-81747395D01*
X181435700Y-81799034D01*
X181448771Y-81868817D01*
X181422040Y-81934588D01*
X181381591Y-81967944D01*
X181368614Y-81974699D01*
X181364481Y-81977802D01*
X181364478Y-81977804D01*
X181255456Y-82059660D01*
X181189972Y-82108827D01*
X181186400Y-82112565D01*
X181059850Y-82244992D01*
X181035636Y-82270330D01*
X181032722Y-82274602D01*
X181032721Y-82274603D01*
X180920102Y-82439696D01*
X180865191Y-82484699D01*
X180816014Y-82494692D01*
X178981909Y-82494692D01*
X178913788Y-82474690D01*
X178880951Y-82444081D01*
X178839004Y-82387907D01*
X178839003Y-82387906D01*
X178835551Y-82383283D01*
X178741636Y-82296469D01*
X178690189Y-82248911D01*
X178690186Y-82248909D01*
X178685949Y-82244992D01*
X178639921Y-82215951D01*
X178518534Y-82139361D01*
X178518529Y-82139359D01*
X178513650Y-82136280D01*
X178324426Y-82060787D01*
X178124612Y-82021041D01*
X178118838Y-82020965D01*
X178118834Y-82020965D01*
X178015698Y-82019616D01*
X177920901Y-82018375D01*
X177915204Y-82019354D01*
X177915203Y-82019354D01*
X177725813Y-82051897D01*
X177720116Y-82052876D01*
X177528980Y-82123390D01*
X177353895Y-82227555D01*
X177200724Y-82361882D01*
X177197157Y-82366407D01*
X177197152Y-82366412D01*
X177139380Y-82439696D01*
X177074597Y-82521873D01*
X176979738Y-82702170D01*
X176919324Y-82896735D01*
X176895378Y-83099051D01*
X176908703Y-83302343D01*
X176958851Y-83499802D01*
X177044144Y-83684816D01*
X177161725Y-83851189D01*
X177307656Y-83993349D01*
X177312452Y-83996554D01*
X177312455Y-83996556D01*
X177340551Y-84015329D01*
X177477049Y-84106534D01*
X177482352Y-84108812D01*
X177482355Y-84108814D01*
X177623291Y-84169365D01*
X177664233Y-84186955D01*
X177737063Y-84203435D01*
X177857301Y-84230642D01*
X177857306Y-84230643D01*
X177862938Y-84231917D01*
X177868709Y-84232144D01*
X177868711Y-84232144D01*
X177931716Y-84234619D01*
X178066509Y-84239915D01*
X178268129Y-84210682D01*
X178273593Y-84208827D01*
X178273598Y-84208826D01*
X178455573Y-84147054D01*
X178455578Y-84147052D01*
X178461045Y-84145196D01*
X178638797Y-84045650D01*
X178795432Y-83915378D01*
X178845468Y-83855216D01*
X178885467Y-83807123D01*
X178944405Y-83767539D01*
X178982341Y-83761692D01*
X180819281Y-83761692D01*
X180887402Y-83781694D01*
X180926714Y-83821857D01*
X180994994Y-83933280D01*
X181141257Y-84102130D01*
X181244965Y-84188230D01*
X181306222Y-84239086D01*
X181313133Y-84244824D01*
X181383602Y-84286003D01*
X181386452Y-84287668D01*
X181435176Y-84339306D01*
X181448247Y-84409089D01*
X181421516Y-84474861D01*
X181381062Y-84508219D01*
X181368614Y-84514699D01*
X181364481Y-84517802D01*
X181364478Y-84517804D01*
X181255456Y-84599660D01*
X181189972Y-84648827D01*
X181186400Y-84652565D01*
X181059850Y-84784992D01*
X181035636Y-84810330D01*
X181032722Y-84814602D01*
X181032721Y-84814603D01*
X180920102Y-84979696D01*
X180865191Y-85024699D01*
X180816014Y-85034692D01*
X178981909Y-85034692D01*
X178913788Y-85014690D01*
X178880951Y-84984081D01*
X178839004Y-84927907D01*
X178839003Y-84927906D01*
X178835551Y-84923283D01*
X178717982Y-84814603D01*
X178690189Y-84788911D01*
X178690186Y-84788909D01*
X178685949Y-84784992D01*
X178639921Y-84755951D01*
X178518534Y-84679361D01*
X178518529Y-84679359D01*
X178513650Y-84676280D01*
X178324426Y-84600787D01*
X178124612Y-84561041D01*
X178118838Y-84560965D01*
X178118834Y-84560965D01*
X178015698Y-84559616D01*
X177920901Y-84558375D01*
X177915204Y-84559354D01*
X177915203Y-84559354D01*
X177725813Y-84591897D01*
X177720116Y-84592876D01*
X177528980Y-84663390D01*
X177353895Y-84767555D01*
X177200724Y-84901882D01*
X177197157Y-84906407D01*
X177197152Y-84906412D01*
X177139380Y-84979696D01*
X177074597Y-85061873D01*
X176979738Y-85242170D01*
X176919324Y-85436735D01*
X176895378Y-85639051D01*
X174274767Y-85639051D01*
X174258859Y-85445553D01*
X174204438Y-85228894D01*
X174115361Y-85024032D01*
X173994021Y-84836469D01*
X173843677Y-84671243D01*
X173839626Y-84668044D01*
X173839622Y-84668040D01*
X173672421Y-84535992D01*
X173672417Y-84535990D01*
X173668366Y-84532790D01*
X173626576Y-84509721D01*
X173576605Y-84459289D01*
X173561833Y-84389846D01*
X173586949Y-84323440D01*
X173614301Y-84296833D01*
X173789335Y-84171984D01*
X173797207Y-84165331D01*
X173948059Y-84015004D01*
X173954737Y-84007157D01*
X174079010Y-83834212D01*
X174084320Y-83825375D01*
X174178677Y-83634459D01*
X174182476Y-83624864D01*
X174244384Y-83421102D01*
X174246562Y-83411029D01*
X174247993Y-83400154D01*
X174245782Y-83385970D01*
X174232624Y-83382192D01*
X171597232Y-83382192D01*
X171583701Y-83386165D01*
X171582264Y-83396158D01*
X171612572Y-83530638D01*
X171615652Y-83540467D01*
X171695777Y-83737795D01*
X171700420Y-83746986D01*
X171811701Y-83928580D01*
X171817784Y-83936891D01*
X171957220Y-84097859D01*
X171964587Y-84105075D01*
X172128441Y-84241108D01*
X172136888Y-84247023D01*
X172205976Y-84287395D01*
X172254700Y-84339034D01*
X172267771Y-84408817D01*
X172241040Y-84474588D01*
X172200591Y-84507944D01*
X172187614Y-84514699D01*
X172183481Y-84517802D01*
X172183478Y-84517804D01*
X172074456Y-84599660D01*
X172008972Y-84648827D01*
X172005400Y-84652565D01*
X171878850Y-84784992D01*
X171854636Y-84810330D01*
X171728750Y-84994872D01*
X171634695Y-85197497D01*
X171574996Y-85412762D01*
X171551258Y-85634887D01*
X171551555Y-85640040D01*
X171551555Y-85640043D01*
X171557018Y-85734782D01*
X171564117Y-85857907D01*
X171565254Y-85862953D01*
X171565255Y-85862959D01*
X171579930Y-85928075D01*
X171613229Y-86075831D01*
X171697273Y-86282808D01*
X171712428Y-86307539D01*
X171811298Y-86468880D01*
X171813994Y-86473280D01*
X171960257Y-86642130D01*
X172063965Y-86728230D01*
X172125222Y-86779086D01*
X172132133Y-86784824D01*
X172202602Y-86826003D01*
X172205452Y-86827668D01*
X172254176Y-86879306D01*
X172267247Y-86949089D01*
X172240516Y-87014861D01*
X172200062Y-87048219D01*
X172187614Y-87054699D01*
X172183481Y-87057802D01*
X172183478Y-87057804D01*
X172074456Y-87139660D01*
X172008972Y-87188827D01*
X172005400Y-87192565D01*
X171878850Y-87324992D01*
X171854636Y-87350330D01*
X171728750Y-87534872D01*
X171634695Y-87737497D01*
X171574996Y-87952762D01*
X171551258Y-88174887D01*
X171551555Y-88180040D01*
X171551555Y-88180043D01*
X171557018Y-88274782D01*
X171564117Y-88397907D01*
X171565254Y-88402953D01*
X171565255Y-88402959D01*
X171579930Y-88468075D01*
X171613229Y-88615831D01*
X171697273Y-88822808D01*
X171716823Y-88854710D01*
X171805286Y-88999069D01*
X171813994Y-89013280D01*
X171960257Y-89182130D01*
X172063965Y-89268230D01*
X172125222Y-89319086D01*
X172132133Y-89324824D01*
X172202602Y-89366003D01*
X172205452Y-89367668D01*
X172254176Y-89419306D01*
X172267247Y-89489089D01*
X172240516Y-89554861D01*
X172200062Y-89588219D01*
X172187614Y-89594699D01*
X172183481Y-89597802D01*
X172183478Y-89597804D01*
X172074456Y-89679660D01*
X172008972Y-89728827D01*
X172005400Y-89732565D01*
X171878850Y-89864992D01*
X171854636Y-89890330D01*
X171728750Y-90074872D01*
X171634695Y-90277497D01*
X171574996Y-90492762D01*
X171551258Y-90714887D01*
X171551555Y-90720040D01*
X171551555Y-90720043D01*
X171557018Y-90814782D01*
X171564117Y-90937907D01*
X171565254Y-90942953D01*
X171565255Y-90942959D01*
X171579930Y-91008075D01*
X171613229Y-91155831D01*
X171697273Y-91362808D01*
X171716823Y-91394710D01*
X171805286Y-91539069D01*
X171813994Y-91553280D01*
X171960257Y-91722130D01*
X172063965Y-91808230D01*
X172125222Y-91859086D01*
X172132133Y-91864824D01*
X172202602Y-91906003D01*
X172205452Y-91907668D01*
X172254176Y-91959306D01*
X172267247Y-92029089D01*
X172240516Y-92094861D01*
X172200062Y-92128219D01*
X172187614Y-92134699D01*
X172183481Y-92137802D01*
X172183478Y-92137804D01*
X172074456Y-92219660D01*
X172008972Y-92268827D01*
X172005400Y-92272565D01*
X171878850Y-92404992D01*
X171854636Y-92430330D01*
X171728750Y-92614872D01*
X171634695Y-92817497D01*
X171574996Y-93032762D01*
X171551258Y-93254887D01*
X171064008Y-93254887D01*
X171064008Y-80554887D01*
X171551258Y-80554887D01*
X171551555Y-80560040D01*
X171551555Y-80560043D01*
X171557018Y-80654782D01*
X171564117Y-80777907D01*
X171565254Y-80782953D01*
X171565255Y-80782959D01*
X171578604Y-80842192D01*
X171613229Y-80995831D01*
X171697273Y-81202808D01*
X171813994Y-81393280D01*
X171960257Y-81562130D01*
X172132133Y-81704824D01*
X172204985Y-81747395D01*
X172205962Y-81747966D01*
X172254686Y-81799604D01*
X172267757Y-81869387D01*
X172241026Y-81935159D01*
X172200569Y-81968519D01*
X172192464Y-81972738D01*
X172183745Y-81978228D01*
X172013440Y-82106097D01*
X172005733Y-82112940D01*
X171858597Y-82266909D01*
X171852111Y-82274919D01*
X171732105Y-82450841D01*
X171727007Y-82459815D01*
X171637345Y-82652975D01*
X171633782Y-82662662D01*
X171578396Y-82862375D01*
X171579919Y-82870799D01*
X171592299Y-82874192D01*
X174232351Y-82874192D01*
X174245882Y-82870219D01*
X174247187Y-82861139D01*
X174205221Y-82694067D01*
X174201901Y-82684316D01*
X174116979Y-82489006D01*
X174112112Y-82479931D01*
X173996433Y-82301118D01*
X173990143Y-82292949D01*
X173846813Y-82135432D01*
X173839280Y-82128407D01*
X173672146Y-81996414D01*
X173663563Y-81990712D01*
X173626609Y-81970312D01*
X173576638Y-81919879D01*
X173561866Y-81850437D01*
X173586982Y-81784031D01*
X173614334Y-81757424D01*
X173637804Y-81740683D01*
X173793867Y-81629365D01*
X173952103Y-81471681D01*
X174011601Y-81388881D01*
X174079442Y-81294469D01*
X174082460Y-81290269D01*
X174181437Y-81090003D01*
X174246377Y-80876261D01*
X174275536Y-80654782D01*
X174277163Y-80588192D01*
X174258859Y-80365553D01*
X174204438Y-80148894D01*
X174115361Y-79944032D01*
X173994021Y-79756469D01*
X173843677Y-79591243D01*
X173839626Y-79588044D01*
X173839622Y-79588040D01*
X173672421Y-79455992D01*
X173672417Y-79455990D01*
X173668366Y-79452790D01*
X173627060Y-79429988D01*
X173577091Y-79379556D01*
X173562319Y-79310113D01*
X173587435Y-79243708D01*
X173614787Y-79217101D01*
X173658610Y-79185842D01*
X173793867Y-79089365D01*
X173820955Y-79062372D01*
X173948442Y-78935329D01*
X173952103Y-78931681D01*
X173962972Y-78916556D01*
X174079442Y-78754469D01*
X174082460Y-78750269D01*
X174181437Y-78550003D01*
X174246377Y-78336261D01*
X174275536Y-78114782D01*
X174277163Y-78048192D01*
X174258859Y-77825553D01*
X174204438Y-77608894D01*
X174115361Y-77404032D01*
X174039269Y-77286412D01*
X173996829Y-77220809D01*
X173996827Y-77220806D01*
X173994021Y-77216469D01*
X173990539Y-77212642D01*
X173846805Y-77054680D01*
X173815753Y-76990834D01*
X173824148Y-76920335D01*
X173869324Y-76865567D01*
X173895768Y-76851898D01*
X174002304Y-76811959D01*
X174010712Y-76808807D01*
X174127268Y-76721453D01*
X174214622Y-76604897D01*
X174265752Y-76468508D01*
X174272507Y-76406326D01*
X174272507Y-74610058D01*
X174265752Y-74547876D01*
X174214622Y-74411487D01*
X174127268Y-74294931D01*
X174010712Y-74207577D01*
X173874323Y-74156447D01*
X173812141Y-74149692D01*
X172015873Y-74149692D01*
X171953691Y-74156447D01*
X171817302Y-74207577D01*
X171700746Y-74294931D01*
X171613392Y-74411487D01*
X171562262Y-74547876D01*
X171555507Y-74610058D01*
X171555507Y-76406326D01*
X171562262Y-76468508D01*
X171613392Y-76604897D01*
X171700746Y-76721453D01*
X171817302Y-76808807D01*
X171825711Y-76811959D01*
X171825712Y-76811960D01*
X171934458Y-76852727D01*
X171991223Y-76895368D01*
X172015923Y-76961930D01*
X172000716Y-77031279D01*
X171981323Y-77057760D01*
X171854636Y-77190330D01*
X171851722Y-77194602D01*
X171851721Y-77194603D01*
X171819117Y-77242399D01*
X171728750Y-77374872D01*
X171634695Y-77577497D01*
X171574996Y-77792762D01*
X171551258Y-78014887D01*
X171551555Y-78020040D01*
X171551555Y-78020043D01*
X171557018Y-78114782D01*
X171564117Y-78237907D01*
X171565254Y-78242953D01*
X171565255Y-78242959D01*
X171585126Y-78331131D01*
X171613229Y-78455831D01*
X171697273Y-78662808D01*
X171699972Y-78667212D01*
X171805745Y-78839818D01*
X171813994Y-78853280D01*
X171960257Y-79022130D01*
X172063965Y-79108230D01*
X172125222Y-79159086D01*
X172132133Y-79164824D01*
X172202602Y-79206003D01*
X172205452Y-79207668D01*
X172254176Y-79259306D01*
X172267247Y-79329089D01*
X172240516Y-79394861D01*
X172200062Y-79428219D01*
X172187614Y-79434699D01*
X172183481Y-79437802D01*
X172183478Y-79437804D01*
X172159254Y-79455992D01*
X172008972Y-79568827D01*
X171854636Y-79730330D01*
X171851722Y-79734602D01*
X171851721Y-79734603D01*
X171839411Y-79752649D01*
X171728750Y-79914872D01*
X171634695Y-80117497D01*
X171574996Y-80332762D01*
X171551258Y-80554887D01*
X171064008Y-80554887D01*
X171064008Y-72450000D01*
X171726520Y-72450000D01*
X171746475Y-72678087D01*
X171747899Y-72683400D01*
X171747899Y-72683402D01*
X171803911Y-72892438D01*
X171805734Y-72899243D01*
X171808057Y-72904224D01*
X171808057Y-72904225D01*
X171900169Y-73101762D01*
X171900172Y-73101767D01*
X171902495Y-73106749D01*
X171957109Y-73184746D01*
X172014164Y-73266228D01*
X172033820Y-73294300D01*
X172195718Y-73456198D01*
X172200226Y-73459355D01*
X172200229Y-73459357D01*
X172278407Y-73514098D01*
X172383269Y-73587523D01*
X172388251Y-73589846D01*
X172388256Y-73589849D01*
X172585793Y-73681961D01*
X172590775Y-73684284D01*
X172596083Y-73685706D01*
X172596085Y-73685707D01*
X172806616Y-73742119D01*
X172806618Y-73742119D01*
X172811931Y-73743543D01*
X173040018Y-73763498D01*
X173268105Y-73743543D01*
X173273418Y-73742119D01*
X173273420Y-73742119D01*
X173483951Y-73685707D01*
X173483953Y-73685706D01*
X173489261Y-73684284D01*
X173494243Y-73681961D01*
X173691780Y-73589849D01*
X173691785Y-73589846D01*
X173696767Y-73587523D01*
X173801629Y-73514098D01*
X173879807Y-73459357D01*
X173879810Y-73459355D01*
X173884318Y-73456198D01*
X174046216Y-73294300D01*
X174049377Y-73289786D01*
X174065873Y-73266228D01*
X174121330Y-73221900D01*
X174169085Y-73212500D01*
X176721990Y-73212500D01*
X176790111Y-73232502D01*
X176811085Y-73249405D01*
X177208841Y-73647161D01*
X177242867Y-73709473D01*
X177245746Y-73736256D01*
X177245746Y-77185309D01*
X177225744Y-77253430D01*
X177208539Y-77273406D01*
X177209042Y-77273884D01*
X177205061Y-77278078D01*
X177200724Y-77281882D01*
X177197157Y-77286407D01*
X177197152Y-77286412D01*
X177130790Y-77370593D01*
X177074597Y-77441873D01*
X176979738Y-77622170D01*
X176919324Y-77816735D01*
X176895378Y-78019051D01*
X176908703Y-78222343D01*
X176958851Y-78419802D01*
X177044144Y-78604816D01*
X177161725Y-78771189D01*
X177307656Y-78913349D01*
X177312452Y-78916554D01*
X177312455Y-78916556D01*
X177340551Y-78935329D01*
X177477049Y-79026534D01*
X177482352Y-79028812D01*
X177482355Y-79028814D01*
X177623291Y-79089365D01*
X177664233Y-79106955D01*
X177737063Y-79123435D01*
X177857301Y-79150642D01*
X177857306Y-79150643D01*
X177862938Y-79151917D01*
X177868709Y-79152144D01*
X177868711Y-79152144D01*
X177931716Y-79154619D01*
X178066509Y-79159915D01*
X178268129Y-79130682D01*
X178273593Y-79128827D01*
X178273598Y-79128826D01*
X178455573Y-79067054D01*
X178455578Y-79067052D01*
X178461045Y-79065196D01*
X178638797Y-78965650D01*
X178790094Y-78839818D01*
X178855257Y-78811637D01*
X178870662Y-78810692D01*
X180900549Y-78810692D01*
X180968670Y-78830694D01*
X180995786Y-78854195D01*
X181092332Y-78965650D01*
X181141257Y-79022130D01*
X181244965Y-79108230D01*
X181306222Y-79159086D01*
X181313133Y-79164824D01*
X181386452Y-79207668D01*
X181386962Y-79207966D01*
X181435686Y-79259604D01*
X181448757Y-79329387D01*
X181422026Y-79395159D01*
X181381569Y-79428519D01*
X181373464Y-79432738D01*
X181364745Y-79438228D01*
X181194440Y-79566097D01*
X181186733Y-79572940D01*
X181039597Y-79726909D01*
X181033111Y-79734919D01*
X180913105Y-79910841D01*
X180908007Y-79919815D01*
X180818345Y-80112975D01*
X180814782Y-80122662D01*
X180759396Y-80322375D01*
X180760919Y-80330799D01*
X180773299Y-80334192D01*
X183413351Y-80334192D01*
X183426882Y-80330219D01*
X183428187Y-80321139D01*
X183386221Y-80154067D01*
X183382901Y-80144316D01*
X183297979Y-79949006D01*
X183293112Y-79939931D01*
X183177433Y-79761118D01*
X183171143Y-79752949D01*
X183027813Y-79595432D01*
X183020280Y-79588407D01*
X182853146Y-79456414D01*
X182844563Y-79450712D01*
X182807609Y-79430312D01*
X182757638Y-79379879D01*
X182742866Y-79310437D01*
X182767982Y-79244031D01*
X182795334Y-79217424D01*
X182818804Y-79200683D01*
X182974867Y-79089365D01*
X183001955Y-79062372D01*
X183129442Y-78935329D01*
X183133103Y-78931681D01*
X183143972Y-78916556D01*
X183260442Y-78754469D01*
X183263460Y-78750269D01*
X183362437Y-78550003D01*
X183427377Y-78336261D01*
X183456536Y-78114782D01*
X183458163Y-78048192D01*
X183439859Y-77825553D01*
X183385438Y-77608894D01*
X183296361Y-77404032D01*
X183220269Y-77286412D01*
X183177829Y-77220809D01*
X183177827Y-77220806D01*
X183175021Y-77216469D01*
X183171539Y-77212642D01*
X183027805Y-77054680D01*
X182996753Y-76990834D01*
X183005148Y-76920335D01*
X183050324Y-76865567D01*
X183076768Y-76851898D01*
X183183304Y-76811959D01*
X183191712Y-76808807D01*
X183308268Y-76721453D01*
X183395622Y-76604897D01*
X183446752Y-76468508D01*
X183453507Y-76406326D01*
X183453507Y-74610058D01*
X183446752Y-74547876D01*
X183395622Y-74411487D01*
X183308268Y-74294931D01*
X183191712Y-74207577D01*
X183055323Y-74156447D01*
X182993141Y-74149692D01*
X181196873Y-74149692D01*
X181134691Y-74156447D01*
X180998302Y-74207577D01*
X180881746Y-74294931D01*
X180794392Y-74411487D01*
X180743262Y-74547876D01*
X180736507Y-74610058D01*
X180736507Y-76406326D01*
X180743262Y-76468508D01*
X180794392Y-76604897D01*
X180881746Y-76721453D01*
X180998302Y-76808807D01*
X181006711Y-76811959D01*
X181006712Y-76811960D01*
X181115458Y-76852727D01*
X181172223Y-76895368D01*
X181196923Y-76961930D01*
X181181716Y-77031279D01*
X181162323Y-77057760D01*
X181035636Y-77190330D01*
X181032722Y-77194602D01*
X181008099Y-77230697D01*
X180953187Y-77275699D01*
X180904011Y-77285692D01*
X178896746Y-77285692D01*
X178828625Y-77265690D01*
X178782132Y-77212034D01*
X178770746Y-77159692D01*
X178770746Y-73435596D01*
X178772179Y-73416645D01*
X178774369Y-73402252D01*
X178774369Y-73402250D01*
X178775469Y-73395020D01*
X178771161Y-73342053D01*
X178770746Y-73331839D01*
X178770746Y-73323703D01*
X178767436Y-73295312D01*
X178767003Y-73290937D01*
X178761649Y-73225100D01*
X178761648Y-73225097D01*
X178761055Y-73217801D01*
X178758800Y-73210839D01*
X178757600Y-73204835D01*
X178756194Y-73198888D01*
X178755347Y-73191621D01*
X178730299Y-73122615D01*
X178728871Y-73118455D01*
X178708514Y-73055615D01*
X178708512Y-73055610D01*
X178706258Y-73048653D01*
X178702464Y-73042401D01*
X178699912Y-73036826D01*
X178697176Y-73031363D01*
X178694680Y-73024487D01*
X178654427Y-72963091D01*
X178652080Y-72959372D01*
X178618616Y-72904225D01*
X178614018Y-72896647D01*
X178606578Y-72888222D01*
X178606606Y-72888197D01*
X178604012Y-72885272D01*
X178601207Y-72881918D01*
X178597192Y-72875793D01*
X178540659Y-72822239D01*
X178538218Y-72819862D01*
X177676828Y-71958472D01*
X177664441Y-71944059D01*
X177655813Y-71932335D01*
X177651472Y-71926436D01*
X177610963Y-71892021D01*
X177603447Y-71885091D01*
X177597703Y-71879347D01*
X177594829Y-71877073D01*
X177594822Y-71877067D01*
X177575307Y-71861628D01*
X177571903Y-71858837D01*
X177521546Y-71816055D01*
X177521542Y-71816052D01*
X177515967Y-71811316D01*
X177509450Y-71807988D01*
X177504386Y-71804611D01*
X177499162Y-71801384D01*
X177493418Y-71796840D01*
X177467127Y-71784552D01*
X177426936Y-71765768D01*
X177422985Y-71763837D01*
X177364135Y-71733787D01*
X177357614Y-71730457D01*
X177350499Y-71728716D01*
X177344753Y-71726579D01*
X177338970Y-71724655D01*
X177332339Y-71721556D01*
X177260461Y-71706606D01*
X177256189Y-71705639D01*
X177184906Y-71688196D01*
X177179307Y-71687849D01*
X177179303Y-71687848D01*
X177173688Y-71687500D01*
X177173690Y-71687461D01*
X177169789Y-71687228D01*
X177165430Y-71686839D01*
X177158262Y-71685348D01*
X177150945Y-71685546D01*
X177080441Y-71687454D01*
X177077032Y-71687500D01*
X174169085Y-71687500D01*
X174100964Y-71667498D01*
X174065873Y-71633772D01*
X174049377Y-71610214D01*
X174049375Y-71610212D01*
X174046216Y-71605700D01*
X173884318Y-71443802D01*
X173879810Y-71440645D01*
X173879807Y-71440643D01*
X173701271Y-71315631D01*
X173696767Y-71312477D01*
X173691783Y-71310153D01*
X173689490Y-71308829D01*
X173640497Y-71257447D01*
X173627061Y-71187733D01*
X173653447Y-71121822D01*
X173689490Y-71090591D01*
X173701020Y-71083934D01*
X173753066Y-71047491D01*
X173761442Y-71037012D01*
X173754374Y-71023566D01*
X173052830Y-70322022D01*
X173038886Y-70314408D01*
X173037053Y-70314539D01*
X173030438Y-70318790D01*
X172324941Y-71024287D01*
X172318511Y-71036062D01*
X172327807Y-71048077D01*
X172379016Y-71083934D01*
X172390546Y-71090591D01*
X172439539Y-71141973D01*
X172452976Y-71211687D01*
X172426589Y-71277598D01*
X172390546Y-71308829D01*
X172388253Y-71310153D01*
X172383269Y-71312477D01*
X172378765Y-71315631D01*
X172200229Y-71440643D01*
X172200226Y-71440645D01*
X172195718Y-71443802D01*
X172033820Y-71605700D01*
X172030663Y-71610208D01*
X172030661Y-71610211D01*
X171990548Y-71667498D01*
X171902495Y-71793251D01*
X171900172Y-71798233D01*
X171900169Y-71798238D01*
X171808057Y-71995775D01*
X171805734Y-72000757D01*
X171746475Y-72221913D01*
X171726520Y-72450000D01*
X171064008Y-72450000D01*
X171064008Y-69955475D01*
X171727501Y-69955475D01*
X171746490Y-70172519D01*
X171748393Y-70183312D01*
X171804782Y-70393761D01*
X171808528Y-70404053D01*
X171900604Y-70601511D01*
X171906087Y-70611006D01*
X171942527Y-70663048D01*
X171953006Y-70671424D01*
X171966452Y-70664356D01*
X172667996Y-69962812D01*
X172674374Y-69951132D01*
X173404426Y-69951132D01*
X173404557Y-69952965D01*
X173408808Y-69959580D01*
X174114305Y-70665077D01*
X174126080Y-70671507D01*
X174138095Y-70662211D01*
X174173949Y-70611006D01*
X174179432Y-70601511D01*
X174271508Y-70404053D01*
X174275254Y-70393761D01*
X174331643Y-70183312D01*
X174333546Y-70172519D01*
X174352535Y-69955475D01*
X174352535Y-69944525D01*
X174333546Y-69727481D01*
X174331643Y-69716688D01*
X174275254Y-69506239D01*
X174271508Y-69495947D01*
X174179432Y-69298489D01*
X174173949Y-69288994D01*
X174137509Y-69236952D01*
X174127030Y-69228576D01*
X174113584Y-69235644D01*
X173412040Y-69937188D01*
X173404426Y-69951132D01*
X172674374Y-69951132D01*
X172675610Y-69948868D01*
X172675479Y-69947035D01*
X172671228Y-69940420D01*
X171965731Y-69234923D01*
X171953956Y-69228493D01*
X171941941Y-69237789D01*
X171906087Y-69288994D01*
X171900604Y-69298489D01*
X171808528Y-69495947D01*
X171804782Y-69506239D01*
X171748393Y-69716688D01*
X171746490Y-69727481D01*
X171727501Y-69944525D01*
X171727501Y-69955475D01*
X171064008Y-69955475D01*
X171064008Y-68862988D01*
X172318594Y-68862988D01*
X172325662Y-68876434D01*
X173027206Y-69577978D01*
X173041150Y-69585592D01*
X173042983Y-69585461D01*
X173049598Y-69581210D01*
X173755095Y-68875713D01*
X173761525Y-68863938D01*
X173752229Y-68851923D01*
X173701024Y-68816069D01*
X173691529Y-68810586D01*
X173494071Y-68718510D01*
X173483779Y-68714764D01*
X173273330Y-68658375D01*
X173262537Y-68656472D01*
X173045493Y-68637483D01*
X173034543Y-68637483D01*
X172817499Y-68656472D01*
X172806706Y-68658375D01*
X172596257Y-68714764D01*
X172585965Y-68718510D01*
X172388507Y-68810586D01*
X172379012Y-68816069D01*
X172326970Y-68852509D01*
X172318594Y-68862988D01*
X171064008Y-68862988D01*
X171064008Y-65343881D01*
X172492697Y-65343881D01*
X172509246Y-65630895D01*
X172510071Y-65635100D01*
X172510072Y-65635108D01*
X172542018Y-65797933D01*
X172564594Y-65913007D01*
X172565981Y-65917057D01*
X172565982Y-65917062D01*
X172656329Y-66180942D01*
X172657718Y-66184998D01*
X172786893Y-66441834D01*
X172949729Y-66678762D01*
X173143214Y-66891400D01*
X173146509Y-66894155D01*
X173146510Y-66894156D01*
X173197266Y-66936594D01*
X173363767Y-67075810D01*
X173607306Y-67228583D01*
X173869326Y-67346889D01*
X173873445Y-67348109D01*
X174140865Y-67427323D01*
X174140870Y-67427324D01*
X174144978Y-67428541D01*
X174149212Y-67429189D01*
X174149217Y-67429190D01*
X174397819Y-67467231D01*
X174429161Y-67472027D01*
X174575493Y-67474326D01*
X174712325Y-67476476D01*
X174712331Y-67476476D01*
X174716616Y-67476543D01*
X174720868Y-67476028D01*
X174720876Y-67476028D01*
X174997764Y-67442520D01*
X174997769Y-67442519D01*
X175002025Y-67442004D01*
X175280105Y-67369051D01*
X175545712Y-67259033D01*
X175793930Y-67113986D01*
X176020167Y-66936594D01*
X176061293Y-66894156D01*
X176217252Y-66733218D01*
X176220235Y-66730140D01*
X176222768Y-66726692D01*
X176222772Y-66726687D01*
X176387895Y-66501898D01*
X176390433Y-66498443D01*
X176527612Y-66245791D01*
X176629233Y-65976860D01*
X176693415Y-65696625D01*
X176718971Y-65410272D01*
X176719435Y-65366012D01*
X176717926Y-65343881D01*
X187470695Y-65343881D01*
X187487244Y-65630895D01*
X187488069Y-65635100D01*
X187488070Y-65635108D01*
X187520016Y-65797933D01*
X187542592Y-65913007D01*
X187543979Y-65917057D01*
X187543980Y-65917062D01*
X187634327Y-66180942D01*
X187635716Y-66184998D01*
X187764891Y-66441834D01*
X187927727Y-66678762D01*
X188121212Y-66891400D01*
X188124507Y-66894155D01*
X188124508Y-66894156D01*
X188175264Y-66936594D01*
X188341765Y-67075810D01*
X188585304Y-67228583D01*
X188847324Y-67346889D01*
X188851443Y-67348109D01*
X189118863Y-67427323D01*
X189118868Y-67427324D01*
X189122976Y-67428541D01*
X189127210Y-67429189D01*
X189127215Y-67429190D01*
X189375817Y-67467231D01*
X189407159Y-67472027D01*
X189553491Y-67474326D01*
X189690323Y-67476476D01*
X189690329Y-67476476D01*
X189694614Y-67476543D01*
X189698866Y-67476028D01*
X189698874Y-67476028D01*
X189975762Y-67442520D01*
X189975767Y-67442519D01*
X189980023Y-67442004D01*
X190258103Y-67369051D01*
X190523710Y-67259033D01*
X190771928Y-67113986D01*
X190998165Y-66936594D01*
X191039291Y-66894156D01*
X191195250Y-66733218D01*
X191198233Y-66730140D01*
X191200766Y-66726692D01*
X191200770Y-66726687D01*
X191365893Y-66501898D01*
X191368431Y-66498443D01*
X191505610Y-66245791D01*
X191607231Y-65976860D01*
X191671413Y-65696625D01*
X191696969Y-65410272D01*
X191697433Y-65366012D01*
X191677879Y-65079187D01*
X191673342Y-65057276D01*
X191620449Y-64801867D01*
X191619580Y-64797670D01*
X191523613Y-64526669D01*
X191427918Y-64341263D01*
X191393721Y-64275007D01*
X191393721Y-64275006D01*
X191391756Y-64271200D01*
X191378494Y-64252329D01*
X191228910Y-64039494D01*
X191226447Y-64035989D01*
X191030746Y-63825390D01*
X190808274Y-63643299D01*
X190563148Y-63493085D01*
X190545054Y-63485142D01*
X190303836Y-63379255D01*
X190299904Y-63377529D01*
X190273969Y-63370141D01*
X190027540Y-63299944D01*
X190027541Y-63299944D01*
X190023412Y-63298768D01*
X189810710Y-63268497D01*
X189743042Y-63258866D01*
X189743040Y-63258866D01*
X189738790Y-63258261D01*
X189734501Y-63258239D01*
X189734494Y-63258238D01*
X189455589Y-63256777D01*
X189455582Y-63256777D01*
X189451303Y-63256755D01*
X189447059Y-63257314D01*
X189447055Y-63257314D01*
X189321666Y-63273822D01*
X189166272Y-63294280D01*
X189162132Y-63295413D01*
X189162130Y-63295413D01*
X189085317Y-63316427D01*
X188888970Y-63370141D01*
X188885022Y-63371825D01*
X188628482Y-63481249D01*
X188628478Y-63481251D01*
X188624530Y-63482935D01*
X188499966Y-63557485D01*
X188381527Y-63628369D01*
X188381523Y-63628372D01*
X188377845Y-63630573D01*
X188153478Y-63810325D01*
X188036378Y-63933723D01*
X187965761Y-64008138D01*
X187955583Y-64018863D01*
X187787820Y-64252329D01*
X187653294Y-64506404D01*
X187554495Y-64776385D01*
X187493251Y-65057276D01*
X187470695Y-65343881D01*
X176717926Y-65343881D01*
X176699881Y-65079187D01*
X176695344Y-65057276D01*
X176642451Y-64801867D01*
X176641582Y-64797670D01*
X176545615Y-64526669D01*
X176449920Y-64341263D01*
X176415723Y-64275007D01*
X176415723Y-64275006D01*
X176413758Y-64271200D01*
X176400496Y-64252329D01*
X176250912Y-64039494D01*
X176248449Y-64035989D01*
X176052748Y-63825390D01*
X175830276Y-63643299D01*
X175585150Y-63493085D01*
X175567056Y-63485142D01*
X175325838Y-63379255D01*
X175321906Y-63377529D01*
X175295971Y-63370141D01*
X175049542Y-63299944D01*
X175049543Y-63299944D01*
X175045414Y-63298768D01*
X174832712Y-63268497D01*
X174765044Y-63258866D01*
X174765042Y-63258866D01*
X174760792Y-63258261D01*
X174756503Y-63258239D01*
X174756496Y-63258238D01*
X174477591Y-63256777D01*
X174477584Y-63256777D01*
X174473305Y-63256755D01*
X174469061Y-63257314D01*
X174469057Y-63257314D01*
X174343668Y-63273822D01*
X174188274Y-63294280D01*
X174184134Y-63295413D01*
X174184132Y-63295413D01*
X174107319Y-63316427D01*
X173910972Y-63370141D01*
X173907024Y-63371825D01*
X173650484Y-63481249D01*
X173650480Y-63481251D01*
X173646532Y-63482935D01*
X173521968Y-63557485D01*
X173403529Y-63628369D01*
X173403525Y-63628372D01*
X173399847Y-63630573D01*
X173175480Y-63810325D01*
X173058380Y-63933723D01*
X172987763Y-64008138D01*
X172977585Y-64018863D01*
X172809822Y-64252329D01*
X172675296Y-64506404D01*
X172576497Y-64776385D01*
X172515253Y-65057276D01*
X172492697Y-65343881D01*
X171064008Y-65343881D01*
X171064008Y-64365340D01*
X171065508Y-64345955D01*
X171067813Y-64331154D01*
X171067813Y-64331151D01*
X171069194Y-64322282D01*
X171066949Y-64305113D01*
X171066116Y-64281173D01*
X171081718Y-64023242D01*
X171083552Y-64008138D01*
X171119802Y-63810325D01*
X171135048Y-63727133D01*
X171138687Y-63712365D01*
X171164862Y-63628369D01*
X171223683Y-63439604D01*
X171229078Y-63425382D01*
X171253940Y-63370141D01*
X171346324Y-63164872D01*
X171353393Y-63151403D01*
X171501190Y-62906917D01*
X171509833Y-62894395D01*
X171686024Y-62669505D01*
X171696114Y-62658117D01*
X171898113Y-62456118D01*
X171909501Y-62446028D01*
X172134391Y-62269837D01*
X172146913Y-62261194D01*
X172391399Y-62113397D01*
X172404868Y-62106328D01*
X172665381Y-61989081D01*
X172679600Y-61983687D01*
X172952367Y-61898690D01*
X172967129Y-61895052D01*
X173177360Y-61856526D01*
X173248134Y-61843556D01*
X173263238Y-61841722D01*
X173513937Y-61826557D01*
X173540647Y-61827814D01*
X173540867Y-61827817D01*
X173549738Y-61829198D01*
X173558640Y-61828034D01*
X173558643Y-61828034D01*
X173581259Y-61825076D01*
X173597597Y-61824012D01*
X190584678Y-61824012D01*
X190604063Y-61825512D01*
G37*
%TD.AperFunction*%
%TD*%
M02*
