M48
; DRILL file {KiCad (6.0.0)} date Mon Mar 14 16:51:26 2022
; FORMAT={-:-/ absolute / inch / decimal}
; #@! TF.CreationDate,2022-03-14T16:51:26-04:00
; #@! TF.GenerationSoftware,Kicad,Pcbnew,(6.0.0)
; #@! TF.FileFunction,Plated,1,2,PTH
FMAT,2
INCH
; #@! TA.AperFunction,Plated,PTH,ViaDrill
T1C0.0236
; #@! TA.AperFunction,Plated,PTH,ComponentDrill
T2C0.0315
; #@! TA.AperFunction,Plated,PTH,ComponentDrill
T3C0.0354
; #@! TA.AperFunction,Plated,PTH,ComponentDrill
T4C0.0394
; #@! TA.AperFunction,Plated,PTH,ComponentDrill
T5C0.1260
%
G90
G05
T1
X5.9705Y-3.5689
X6.0591Y-2.9409
X6.0591Y-3.4331
X6.1065Y-2.868
X6.1516Y-3.3366
X6.1929Y-3.1732
X6.1969Y-3.5591
X6.3012Y-3.1732
X6.3622Y-3.372
X6.9305Y-3.571
X7.0082Y-3.0728
X7.0082Y-3.2728
X7.0082Y-3.3728
X7.33Y-3.3728
X7.33Y-3.4728
X7.33Y-3.5728
X7.33Y-3.6728
T2
X5.9252Y-3.0728
X5.9252Y-3.1713
X6.1969Y-3.6398
X6.1969Y-4.0398
X6.8126Y-2.7539
X6.8126Y-2.8524
T3
X6.1969Y-3.4252
X6.2969Y-3.4252
T4
X5.7945Y-2.9727
X5.7945Y-3.0727
X5.7945Y-3.1727
X5.7945Y-3.2727
X5.7945Y-3.3727
X5.7945Y-3.4727
X5.7945Y-3.5727
X5.7945Y-3.6727
X6.1059Y-2.5607
X6.1059Y-2.6607
X6.1059Y-2.7607
X6.2059Y-2.5607
X6.2059Y-2.6607
X6.2059Y-2.7607
X6.5174Y-2.9727
X6.5174Y-3.0727
X6.5174Y-3.1727
X6.5174Y-3.2727
X6.5174Y-3.3727
X6.5174Y-3.4727
X6.5174Y-3.5727
X6.5174Y-3.6727
X6.8076Y-2.9728
X6.8076Y-3.0728
X6.8076Y-3.1728
X6.8076Y-3.2728
X6.8076Y-3.3728
X6.8076Y-3.4728
X6.8076Y-3.5728
X6.8076Y-3.6728
X7.1691Y-2.9728
X7.1691Y-3.0728
X7.1691Y-3.1728
X7.1691Y-3.2728
X7.1691Y-3.3728
X7.1691Y-3.4728
X7.1691Y-3.5728
X7.1691Y-3.6728
X7.5306Y-2.9728
X7.5306Y-3.0728
X7.5306Y-3.1728
X7.5306Y-3.2728
X7.5306Y-3.3728
X7.5306Y-3.4728
X7.5306Y-3.5728
X7.5306Y-3.6728
T5
X5.8611Y-2.5734
X5.8611Y-4.0709
X6.4508Y-2.5734
X6.4508Y-4.0709
X6.8743Y-2.5735
X6.8743Y-4.071
X7.4639Y-2.5735
X7.4639Y-4.071
T0
M30
