%TF.GenerationSoftware,KiCad,Pcbnew,(6.0.0)*%
%TF.CreationDate,2022-03-28T12:59:54-04:00*%
%TF.ProjectId,JTAG_ISP-BOTH,4a544147-5f49-4535-902d-424f54482e6b,v5.2.0*%
%TF.SameCoordinates,Original*%
%TF.FileFunction,Profile,NP*%
%FSLAX46Y46*%
G04 Gerber Fmt 4.6, Leading zero omitted, Abs format (unit mm)*
G04 Created by KiCad (PCBNEW (6.0.0)) date 2022-03-28 12:59:54*
%MOMM*%
%LPD*%
G01*
G04 APERTURE LIST*
%TA.AperFunction,Profile*%
%ADD10C,0.150000*%
%TD*%
G04 APERTURE END LIST*
D10*
X103918826Y-55237257D02*
X103918826Y-47595519D01*
X96798520Y-55237257D02*
G75*
G03*
X97798520Y-56237257I999999J-1D01*
G01*
X97798520Y-46595519D02*
G75*
G03*
X96798520Y-47595519I-1J-999999D01*
G01*
X97798520Y-56237257D02*
X102918826Y-56237257D01*
X96798520Y-47595519D02*
X96798520Y-55237257D01*
X103918826Y-47595519D02*
G75*
G03*
X102918826Y-46595519I-999999J1D01*
G01*
X102918826Y-46595519D02*
X97798520Y-46595519D01*
X102918826Y-56237257D02*
G75*
G03*
X103918826Y-55237257I1J999999D01*
G01*
X88819672Y-88257866D02*
G75*
G03*
X91819672Y-91257866I3000001J1D01*
G01*
X91819672Y-45121446D02*
G75*
G03*
X88819672Y-48121446I1J-3000001D01*
G01*
X91819672Y-91257866D02*
X108897670Y-91257866D01*
X111897670Y-88257866D02*
X111897670Y-48121446D01*
X108897670Y-45121434D02*
X91819676Y-45121434D01*
X88819672Y-48121446D02*
X88819672Y-88257866D01*
X108897670Y-91257866D02*
G75*
G03*
X111897670Y-88257866I-1J3000001D01*
G01*
X111897670Y-48121446D02*
G75*
G03*
X108897670Y-45121446I-3000001J-1D01*
G01*
X114469672Y-88257866D02*
G75*
G03*
X117469672Y-91257866I3000001J1D01*
G01*
X134547670Y-45123346D02*
X117469672Y-45123346D01*
X134547670Y-91257866D02*
G75*
G03*
X137547670Y-88257866I-1J3000001D01*
G01*
X137547670Y-48123346D02*
G75*
G03*
X134547670Y-45123346I-3000001J-1D01*
G01*
X134547667Y-91257866D02*
X129658651Y-91257866D01*
X126008662Y-85957877D02*
G75*
G03*
X123358662Y-88607877I0J-2650000D01*
G01*
X122358662Y-91257866D02*
G75*
G03*
X123358662Y-90257866I1J999999D01*
G01*
X122358662Y-91257866D02*
X117469672Y-91257866D01*
X137547670Y-88257866D02*
X137547670Y-48123346D01*
X128658651Y-90257866D02*
X128658651Y-88607877D01*
X117469672Y-45123346D02*
G75*
G03*
X114469672Y-48123346I1J-3000001D01*
G01*
X128658651Y-88607877D02*
G75*
G03*
X126008651Y-85957877I-2650000J0D01*
G01*
X114469672Y-48123346D02*
X114469672Y-88257866D01*
X123358662Y-88607877D02*
X123358662Y-90257866D01*
X128658651Y-90257866D02*
G75*
G03*
X129658651Y-91257866I999999J-1D01*
G01*
X124700525Y-57006690D02*
G75*
G03*
X123700525Y-58006690I-1J-999999D01*
G01*
X128316518Y-58006690D02*
G75*
G03*
X127316518Y-57006690I-999999J1D01*
G01*
X123700525Y-78415357D02*
X123700525Y-58006690D01*
X124700525Y-57006690D02*
X127316518Y-57006690D01*
X128316518Y-58006690D02*
X128316518Y-78415357D01*
X123700525Y-78415357D02*
G75*
G03*
X124700525Y-79415357I999999J-1D01*
G01*
X127316518Y-79415357D02*
G75*
G03*
X128316518Y-78415357I1J999999D01*
G01*
X127316518Y-79415357D02*
X124700525Y-79415357D01*
M02*
