%TF.GenerationSoftware,KiCad,Pcbnew,(6.0.0)*%
%TF.CreationDate,2022-04-03T10:41:41-04:00*%
%TF.ProjectId,JTAG_ISP-BOTH,4a544147-5f49-4535-902d-424f54482e6b,v5.3.0*%
%TF.SameCoordinates,Original*%
%TF.FileFunction,Copper,L2,Bot*%
%TF.FilePolarity,Positive*%
%FSLAX46Y46*%
G04 Gerber Fmt 4.6, Leading zero omitted, Abs format (unit mm)*
G04 Created by KiCad (PCBNEW (6.0.0)) date 2022-04-03 10:41:41*
%MOMM*%
%LPD*%
G01*
G04 APERTURE LIST*
%TA.AperFunction,EtchedComponent*%
%ADD10C,0.508000*%
%TD*%
%TA.AperFunction,ComponentPad*%
%ADD11C,1.700000*%
%TD*%
%TA.AperFunction,ComponentPad*%
%ADD12O,1.700000X1.700000*%
%TD*%
%TA.AperFunction,ComponentPad*%
%ADD13R,1.700000X1.700000*%
%TD*%
%TA.AperFunction,ComponentPad*%
%ADD14C,5.499999*%
%TD*%
%TA.AperFunction,ComponentPad*%
%ADD15R,1.800000X1.800000*%
%TD*%
%TA.AperFunction,ComponentPad*%
%ADD16C,1.800000*%
%TD*%
%TA.AperFunction,ComponentPad*%
%ADD17C,1.600000*%
%TD*%
%TA.AperFunction,ComponentPad*%
%ADD18O,1.600000X1.600000*%
%TD*%
%TA.AperFunction,ComponentPad*%
%ADD19C,5.500000*%
%TD*%
%TA.AperFunction,ViaPad*%
%ADD20C,1.200000*%
%TD*%
%TA.AperFunction,Conductor*%
%ADD21C,0.508000*%
%TD*%
%TA.AperFunction,Conductor*%
%ADD22C,0.381000*%
%TD*%
%TA.AperFunction,Conductor*%
%ADD23C,0.635000*%
%TD*%
G04 APERTURE END LIST*
D10*
%TO.C,REF\u002A\u002A*%
X104674707Y-53930439D02*
X105912703Y-53342429D01*
X105912703Y-54518439D02*
X104674698Y-53930439D01*
X105829705Y-54405434D02*
X105389705Y-53745434D01*
X105912703Y-54518439D02*
X105912703Y-53342429D01*
%TD*%
D11*
%TO.P,J2,1,Pin_1*%
%TO.N,N/C*%
X109529699Y-59313633D03*
D12*
%TO.P,J2,2,Pin_2*%
%TO.N,GND*%
X109529699Y-61853633D03*
%TO.P,J2,3,Pin_3*%
%TO.N,RESET*%
X109529699Y-64393633D03*
%TO.P,J2,4,Pin_4*%
%TO.N,GND*%
X109529699Y-66933633D03*
%TO.P,J2,5,Pin_5*%
%TO.N,N/C*%
X109529699Y-69473633D03*
%TO.P,J2,6,Pin_6*%
%TO.N,GND*%
X109529699Y-72013633D03*
%TO.P,J2,7,Pin_7*%
%TO.N,N/C*%
X109529699Y-74553633D03*
%TO.P,J2,8,Pin_8*%
%TO.N,GND*%
X109529699Y-77093633D03*
%TD*%
D13*
%TO.P,J1,1,Pin_1*%
%TO.N,+5V*%
X91167683Y-59313633D03*
D12*
%TO.P,J1,2,Pin_2*%
X91167683Y-61853633D03*
%TO.P,J1,3,Pin_3*%
X91167683Y-64393633D03*
%TO.P,J1,4,Pin_4*%
%TO.N,GND*%
X91167683Y-66933633D03*
%TO.P,J1,5,Pin_5*%
X91167683Y-69473633D03*
%TO.P,J1,6,Pin_6*%
%TO.N,N/C*%
X91167683Y-72013633D03*
%TO.P,J1,7,Pin_7*%
%TO.N,GND*%
X91167683Y-74553633D03*
%TO.P,J1,8,Pin_8*%
%TO.N,N/C*%
X91167683Y-77093633D03*
%TD*%
D14*
%TO.P,REF\u002A\u002A,1*%
%TO.N,GND*%
X107837688Y-87207866D03*
%TD*%
%TO.P,REF\u002A\u002A,1*%
%TO.N,GND*%
X107837688Y-49171446D03*
%TD*%
D15*
%TO.P,D1,1,K*%
%TO.N,Net-(D1-Pad1)*%
X101618691Y-88705446D03*
D16*
%TO.P,D1,2,A*%
%TO.N,N/C*%
X99078691Y-88705446D03*
%TD*%
D13*
%TO.P,JTAG1,1,#MCLR*%
%TO.N,N/C*%
X100348691Y-59313633D03*
D12*
%TO.P,JTAG1,2,VDD*%
%TO.N,+5V*%
X100348691Y-61853633D03*
%TO.P,JTAG1,3,GND*%
%TO.N,GND*%
X100348691Y-64393633D03*
%TO.P,JTAG1,4,TDO*%
%TO.N,N/C*%
X100348691Y-66933633D03*
%TO.P,JTAG1,5,TCK*%
X100348691Y-69473633D03*
%TO.P,JTAG1,6,#RESET*%
%TO.N,RESET*%
X100348691Y-72013633D03*
%TO.P,JTAG1,7,TDI*%
%TO.N,N/C*%
X100348691Y-74553633D03*
%TO.P,JTAG1,8,TMS*%
X100348691Y-77093633D03*
%TD*%
D17*
%TO.P,R1,1*%
%TO.N,Net-(D1-Pad1)*%
X105493703Y-81805430D03*
D18*
%TO.P,R1,2*%
%TO.N,GND*%
X95333703Y-81805430D03*
%TD*%
D17*
%TO.P,C1,1*%
%TO.N,+5V*%
X91293706Y-56255443D03*
%TO.P,C1,2*%
%TO.N,GND*%
X91293706Y-53755443D03*
%TD*%
D14*
%TO.P,REF\u002A\u002A,1*%
%TO.N,GND*%
X92859690Y-49171446D03*
%TD*%
%TO.P,REF\u002A\u002A,1*%
%TO.N,GND*%
X92859690Y-87207866D03*
%TD*%
D19*
%TO.P,REF\u002A\u002A,1*%
%TO.N,GND*%
X134047660Y-87207862D03*
%TD*%
%TO.P,REF\u002A\u002A,1*%
%TO.N,GND*%
X134047660Y-49171439D03*
%TD*%
%TO.P,REF\u002A\u002A,1*%
%TO.N,GND*%
X119069661Y-87207862D03*
%TD*%
%TO.P,REF\u002A\u002A,1*%
%TO.N,GND*%
X119069661Y-49171450D03*
%TD*%
D11*
%TO.P,J3,1,Pin_1*%
%TO.N,SCLK*%
X135739681Y-59313633D03*
D12*
%TO.P,J3,2,Pin_2*%
%TO.N,GND*%
X135739681Y-61853633D03*
%TO.P,J3,3,Pin_3*%
%TO.N,RESET*%
X135739681Y-64393633D03*
%TO.P,J3,4,Pin_4*%
%TO.N,GND*%
X135739681Y-66933633D03*
%TO.P,J3,5,Pin_5*%
%TO.N,MOSI*%
X135739681Y-69473633D03*
%TO.P,J3,6,Pin_6*%
%TO.N,GND*%
X135739681Y-72013633D03*
%TO.P,J3,7,Pin_7*%
%TO.N,unconnected-(J3-Pad7)*%
X135739681Y-74553633D03*
%TO.P,J3,8,Pin_8*%
%TO.N,GND*%
X135739681Y-77093633D03*
%TD*%
D13*
%TO.P,J1,1,Pin_1*%
%TO.N,MISO*%
X127828673Y-53930433D03*
D12*
%TO.P,J1,2,Pin_2*%
%TO.N,+5V*%
X125288673Y-53930433D03*
%TO.P,J1,3,Pin_3*%
%TO.N,SCLK*%
X127828673Y-51390433D03*
%TO.P,J1,4,Pin_4*%
%TO.N,MOSI*%
X125288673Y-51390433D03*
%TO.P,J1,5,Pin_5*%
%TO.N,RESET*%
X127828673Y-48850433D03*
%TO.P,J1,6,Pin_6*%
%TO.N,GND*%
X125288673Y-48850433D03*
%TD*%
D17*
%TO.P,C1,1*%
%TO.N,+5V*%
X119703682Y-55855434D03*
%TO.P,C1,2*%
%TO.N,GND*%
X117203682Y-55855434D03*
%TD*%
D13*
%TO.P,J2,1,Pin_1*%
%TO.N,+5V*%
X117377665Y-59313633D03*
D12*
%TO.P,J2,2,Pin_2*%
X117377665Y-61853633D03*
%TO.P,J2,3,Pin_3*%
X117377665Y-64393633D03*
%TO.P,J2,4,Pin_4*%
%TO.N,GND*%
X117377665Y-66933633D03*
%TO.P,J2,5,Pin_5*%
X117377665Y-69473633D03*
%TO.P,J2,6,Pin_6*%
%TO.N,MISO*%
X117377665Y-72013633D03*
%TO.P,J2,7,Pin_7*%
%TO.N,GND*%
X117377665Y-74553633D03*
%TO.P,J2,8,Pin_8*%
%TO.N,SCLK*%
X117377665Y-77093633D03*
%TD*%
D20*
%TO.N,GND*%
X93493700Y-53605434D03*
%TO.N,*%
X96393700Y-78805436D03*
%TO.N,GND*%
X107837688Y-53605434D03*
%TO.N,+5V*%
X93693701Y-59313629D03*
%TO.N,*%
X96432200Y-72013626D03*
%TO.N,Net-(D1-Pad1)*%
X101618691Y-84680443D03*
%TO.N,GND*%
X106893700Y-77105434D03*
X93693701Y-74553629D03*
X92793700Y-81805434D03*
X106893700Y-61805434D03*
%TO.N,+5V*%
X95103706Y-56255443D03*
%TO.N,GND*%
X93707671Y-66933629D03*
%TO.N,MOSI*%
X122903682Y-53930433D03*
%TO.N,RESET*%
X131403682Y-64405434D03*
%TO.N,GND*%
X133103694Y-66933633D03*
X134076896Y-83187867D03*
X133003682Y-61905434D03*
X119917666Y-69473633D03*
%TO.N,RESET*%
X130003682Y-50905434D03*
%TO.N,MOSI*%
X131065182Y-69473645D03*
%TO.N,GND*%
X119069661Y-83187867D03*
X134047660Y-53191457D03*
X123002674Y-48850445D03*
X133003694Y-72013633D03*
%TD*%
D21*
%TO.N,*%
X97893702Y-78805436D02*
X99078691Y-79990425D01*
X97365508Y-66933626D02*
X100348689Y-66933626D01*
X104905508Y-77093626D02*
X107445508Y-74553626D01*
X107725508Y-69473626D02*
X106593700Y-70605434D01*
X99078691Y-79990425D02*
X99078691Y-88705446D01*
%TO.N,Net-(D1-Pad1)*%
X101618691Y-88705446D02*
X101618691Y-84680443D01*
%TO.N,*%
X102911435Y-69473633D02*
X102911442Y-69473626D01*
%TO.N,RESET*%
X105493700Y-65205434D02*
X105493700Y-71105434D01*
X104585501Y-72013633D02*
X103419449Y-72013633D01*
X105493700Y-71105434D02*
X104585501Y-72013633D01*
%TO.N,*%
X91167689Y-77093626D02*
X96905508Y-77093626D01*
X96432200Y-72013626D02*
X96393700Y-71975126D01*
X106593700Y-70605434D02*
X106593700Y-73705434D01*
X106593700Y-73705434D02*
X105745508Y-74553626D01*
X104025501Y-69473633D02*
X104478180Y-69020954D01*
%TO.N,RESET*%
X103419442Y-72013626D02*
X100348689Y-72013626D01*
X109529689Y-64393626D02*
X106305508Y-64393626D01*
%TO.N,*%
X96393700Y-78805436D02*
X97893702Y-78805436D01*
X109529689Y-69473626D02*
X107725508Y-69473626D01*
X102911442Y-69473626D02*
X102911449Y-69473633D01*
X102911449Y-69473633D02*
X104025501Y-69473633D01*
X105285508Y-59313626D02*
X109529689Y-59313626D01*
X98775501Y-69473633D02*
X100348691Y-69473633D01*
X104478180Y-60120954D02*
X105285508Y-59313626D01*
X100348689Y-77093626D02*
X104905508Y-77093626D01*
%TO.N,RESET*%
X103419449Y-72013633D02*
X103419442Y-72013626D01*
%TO.N,*%
X100348691Y-69473633D02*
X102911435Y-69473633D01*
X97793700Y-70455434D02*
X98775501Y-69473633D01*
X96393700Y-71975126D02*
X96393700Y-67905434D01*
X96905508Y-77093626D02*
X97793700Y-76205434D01*
X97793700Y-76205434D02*
X97793700Y-70455434D01*
X96393700Y-67905434D02*
X97365508Y-66933626D01*
X91167689Y-72013626D02*
X96432200Y-72013626D01*
X107445508Y-74553626D02*
X109529689Y-74553626D01*
%TO.N,RESET*%
X106305508Y-64393626D02*
X105493700Y-65205434D01*
%TO.N,*%
X105745508Y-74553626D02*
X100348689Y-74553626D01*
X104478180Y-69020954D02*
X104478180Y-60120954D01*
D22*
%TO.N,GND*%
X107837688Y-87207866D02*
X104497124Y-90548430D01*
X92743697Y-55205434D02*
X91293706Y-53755443D01*
X89593700Y-82305434D02*
X89593700Y-74605434D01*
X100348691Y-64393633D02*
X102205501Y-64393633D01*
X93493700Y-53605434D02*
X94393700Y-54505434D01*
X110981899Y-77093633D02*
X109529699Y-77093633D01*
X89593700Y-83905434D02*
X89593700Y-81705434D01*
X93365501Y-66933633D02*
X95905501Y-64393633D01*
X109529699Y-66933633D02*
X111193700Y-66933633D01*
X95993700Y-52305456D02*
X95993700Y-53105434D01*
X92859690Y-49171446D02*
X96125702Y-45905434D01*
X104571676Y-45905434D02*
X107837688Y-49171446D01*
X109529699Y-61853633D02*
X111163919Y-61853633D01*
X111193700Y-72016444D02*
X111193700Y-83805434D01*
X111193700Y-52527458D02*
X107932688Y-49266446D01*
X96200254Y-90548430D02*
X92859690Y-87207866D01*
X109529699Y-61853633D02*
X106941899Y-61853633D01*
X111193700Y-83805434D02*
X107837688Y-87161446D01*
X92859690Y-49171446D02*
X95993700Y-52305456D01*
X89593700Y-74553633D02*
X89593700Y-69473633D01*
X92859690Y-87171424D02*
X89593700Y-83905434D01*
X111193700Y-72005434D02*
X111185501Y-72013633D01*
X89593700Y-74605434D02*
X89645501Y-74553633D01*
X102205501Y-64393633D02*
X102793700Y-63805434D01*
X107837688Y-87161446D02*
X107837688Y-87207866D01*
X91167683Y-74553633D02*
X89593700Y-74553633D01*
X89593700Y-69473633D02*
X91167683Y-69473633D01*
X96125702Y-45905434D02*
X104571676Y-45905434D01*
X109529699Y-72013633D02*
X111196511Y-72013633D01*
X89693700Y-81805434D02*
X92793700Y-81805434D01*
X102793700Y-59705434D02*
X105093700Y-57405434D01*
X107932688Y-49266446D02*
X107837688Y-49171446D01*
X111193700Y-61905434D02*
X111193700Y-66905434D01*
X111193700Y-57405434D02*
X111193700Y-52527458D01*
X93893700Y-55205434D02*
X92743697Y-55205434D01*
X91167683Y-66933633D02*
X93365501Y-66933633D01*
X91167683Y-69473633D02*
X91167683Y-66933633D01*
X92859690Y-87207866D02*
X92859690Y-87171424D01*
X106941899Y-61853633D02*
X106893700Y-61805434D01*
X104497124Y-90548430D02*
X96200254Y-90548430D01*
X95905501Y-64393633D02*
X100348691Y-64393633D01*
X111196511Y-72013633D02*
X111193700Y-72016444D01*
X89645501Y-74553633D02*
X91167683Y-74553633D01*
X111193700Y-61883414D02*
X111193700Y-57405434D01*
X95993700Y-53105434D02*
X93893700Y-55205434D01*
X105093700Y-57405434D02*
X111193700Y-57405434D01*
X111193700Y-66955653D02*
X111193700Y-72005434D01*
X102793700Y-63805434D02*
X102793700Y-59705434D01*
D23*
%TO.N,+5V*%
X95993700Y-57105434D02*
X95143709Y-56255443D01*
X93693701Y-61705435D02*
X93693701Y-59313629D01*
X96841899Y-61853633D02*
X100348691Y-61853633D01*
X91167689Y-59313626D02*
X93693698Y-59313626D01*
X92845501Y-61853633D02*
X93693701Y-61005433D01*
X91167683Y-61853633D02*
X93545503Y-61853633D01*
X92905501Y-64393633D02*
X93693701Y-63605433D01*
X95993700Y-57105434D02*
X95993700Y-61005434D01*
X93545503Y-61853633D02*
X93693701Y-61705435D01*
X93693701Y-62605433D02*
X93693701Y-61705435D01*
X92941901Y-61853633D02*
X93693701Y-62605433D01*
X91167683Y-64393633D02*
X92905501Y-64393633D01*
X95993700Y-61005434D02*
X96841899Y-61853633D01*
X93693701Y-63605433D02*
X93693701Y-62605433D01*
D22*
%TO.N,GND*%
X123002674Y-48850445D02*
X123002674Y-46204426D01*
X116403682Y-84541883D02*
X119069661Y-87207862D01*
X122903682Y-46105434D02*
X122135677Y-46105434D01*
D23*
X136821249Y-83723001D02*
X136821249Y-84469407D01*
D22*
X119069661Y-83187867D02*
X117621249Y-83187867D01*
X119069661Y-87207862D02*
X119101254Y-87207862D01*
D23*
X136821249Y-84469407D02*
X134065227Y-87225429D01*
D22*
X123002674Y-50306442D02*
X121603682Y-51705434D01*
X134047660Y-49149412D02*
X131003682Y-46105434D01*
X116403682Y-84405434D02*
X116403682Y-84541883D01*
X122003682Y-84305434D02*
X131145232Y-84305434D01*
X134047660Y-49171439D02*
X134047660Y-49149412D01*
D23*
X134094463Y-83205434D02*
X136303682Y-83205434D01*
D22*
X131145232Y-84305434D02*
X134047660Y-87207862D01*
X134047660Y-53191457D02*
X137389705Y-53191457D01*
X137409388Y-52533167D02*
X134047660Y-49171439D01*
X123002674Y-46204426D02*
X122903682Y-46105434D01*
X119101254Y-87207862D02*
X122003682Y-84305434D01*
X131003682Y-46105434D02*
X122903682Y-46105434D01*
X137409388Y-53205434D02*
X137409388Y-52533167D01*
X119069661Y-49171450D02*
X119069698Y-49171450D01*
X137389705Y-53191457D02*
X137403682Y-53205434D01*
X119069698Y-49171450D02*
X121603682Y-51705434D01*
X123002674Y-48850445D02*
X123002674Y-50306442D01*
X122135677Y-46105434D02*
X119069661Y-49171450D01*
X117621249Y-83187867D02*
X116403682Y-84405434D01*
D23*
X136303682Y-83205434D02*
X136821249Y-83723001D01*
D21*
%TO.N,MOSI*%
X123903682Y-56205434D02*
X122903682Y-55205434D01*
X129703682Y-68112145D02*
X129703682Y-57105434D01*
X128803682Y-56205434D02*
X123903682Y-56205434D01*
X131065182Y-69473645D02*
X129703682Y-68112145D01*
%TO.N,RESET*%
X130003682Y-50905434D02*
X131403682Y-52305434D01*
%TO.N,MOSI*%
X122903682Y-55205434D02*
X122903682Y-53930433D01*
%TO.N,RESET*%
X131403682Y-52305434D02*
X131403682Y-64405434D01*
%TO.N,MOSI*%
X129703682Y-57105434D02*
X128803682Y-56205434D01*
%TD*%
%TA.AperFunction,Conductor*%
%TO.N,GND*%
G36*
X135067727Y-45632846D02*
G01*
X135082528Y-45635151D01*
X135082531Y-45635151D01*
X135091400Y-45636532D01*
X135108569Y-45634287D01*
X135132509Y-45633454D01*
X135390440Y-45649056D01*
X135405544Y-45650890D01*
X135476318Y-45663860D01*
X135686549Y-45702386D01*
X135701311Y-45706024D01*
X135974078Y-45791021D01*
X135988297Y-45796415D01*
X136248810Y-45913662D01*
X136262279Y-45920731D01*
X136506765Y-46068528D01*
X136519287Y-46077171D01*
X136744177Y-46253362D01*
X136755565Y-46263452D01*
X136957564Y-46465451D01*
X136967654Y-46476839D01*
X137143845Y-46701729D01*
X137152488Y-46714251D01*
X137300285Y-46958737D01*
X137307354Y-46972206D01*
X137408152Y-47196171D01*
X137424600Y-47232716D01*
X137429995Y-47246938D01*
X137506978Y-47493984D01*
X137514991Y-47519699D01*
X137518630Y-47534467D01*
X137551720Y-47715031D01*
X137570126Y-47815472D01*
X137571960Y-47830576D01*
X137587125Y-48081275D01*
X137585868Y-48107985D01*
X137585865Y-48108205D01*
X137584484Y-48117076D01*
X137585648Y-48125978D01*
X137585648Y-48125981D01*
X137588606Y-48148597D01*
X137589670Y-48164935D01*
X137589670Y-88208538D01*
X137588170Y-88227922D01*
X137584484Y-88251596D01*
X137586124Y-88264136D01*
X137586729Y-88268763D01*
X137587562Y-88292705D01*
X137571960Y-88550636D01*
X137570126Y-88565740D01*
X137518632Y-88846739D01*
X137514992Y-88861507D01*
X137489577Y-88943068D01*
X137429996Y-89134270D01*
X137424601Y-89148493D01*
X137350921Y-89312205D01*
X137307356Y-89409002D01*
X137300285Y-89422475D01*
X137152488Y-89666961D01*
X137143845Y-89679483D01*
X136967654Y-89904373D01*
X136957564Y-89915761D01*
X136755565Y-90117760D01*
X136744177Y-90127850D01*
X136519287Y-90304041D01*
X136506765Y-90312684D01*
X136262279Y-90460481D01*
X136248810Y-90467550D01*
X135988300Y-90584796D01*
X135974078Y-90590191D01*
X135701311Y-90675188D01*
X135686549Y-90678826D01*
X135476318Y-90717352D01*
X135405544Y-90730322D01*
X135390440Y-90732156D01*
X135139741Y-90747321D01*
X135113031Y-90746064D01*
X135112811Y-90746061D01*
X135103940Y-90744680D01*
X135095038Y-90745844D01*
X135095035Y-90745844D01*
X135072419Y-90748802D01*
X135056081Y-90749866D01*
X130257978Y-90749866D01*
X130238594Y-90748366D01*
X130223793Y-90746061D01*
X130223789Y-90746061D01*
X130214920Y-90744680D01*
X130206018Y-90745844D01*
X130206014Y-90745844D01*
X130205918Y-90745857D01*
X130175481Y-90746128D01*
X130113276Y-90739120D01*
X130085769Y-90732842D01*
X130008579Y-90705832D01*
X129983160Y-90693590D01*
X129913913Y-90650079D01*
X129891854Y-90632487D01*
X129834030Y-90574663D01*
X129816438Y-90552604D01*
X129772927Y-90483357D01*
X129760685Y-90457936D01*
X129733676Y-90380749D01*
X129727397Y-90353242D01*
X129721129Y-90297615D01*
X129720346Y-90281969D01*
X129720455Y-90273011D01*
X129721837Y-90264137D01*
X129717715Y-90232615D01*
X129716651Y-90216278D01*
X129716651Y-89687251D01*
X131933201Y-89687251D01*
X131941338Y-89698257D01*
X132201598Y-89897961D01*
X132207197Y-89901795D01*
X132502921Y-90081598D01*
X132508911Y-90084810D01*
X132822317Y-90231620D01*
X132828621Y-90234167D01*
X133156044Y-90346268D01*
X133162595Y-90348122D01*
X133500199Y-90424204D01*
X133506918Y-90425341D01*
X133850773Y-90464519D01*
X133857563Y-90464922D01*
X134203633Y-90466734D01*
X134210434Y-90466402D01*
X134554680Y-90430828D01*
X134561408Y-90429762D01*
X134899804Y-90357215D01*
X134906353Y-90355436D01*
X135234938Y-90246767D01*
X135241280Y-90244281D01*
X135556183Y-90100772D01*
X135562237Y-90097607D01*
X135859788Y-89920935D01*
X135865469Y-89917132D01*
X136142207Y-89709351D01*
X136147431Y-89704967D01*
X136153898Y-89698915D01*
X136161967Y-89685235D01*
X136161940Y-89684511D01*
X136156796Y-89676208D01*
X134060472Y-87579884D01*
X134046528Y-87572270D01*
X134044695Y-87572401D01*
X134038080Y-87576652D01*
X131940082Y-89674650D01*
X131933201Y-89687251D01*
X129716651Y-89687251D01*
X129716651Y-88661084D01*
X129718397Y-88640180D01*
X129720915Y-88625212D01*
X129721722Y-88620416D01*
X129721875Y-88607877D01*
X129721184Y-88603052D01*
X129721126Y-88602166D01*
X129720174Y-88592408D01*
X129703939Y-88282629D01*
X129703661Y-88277323D01*
X129703013Y-88273227D01*
X129652396Y-87953652D01*
X129651880Y-87950391D01*
X129566209Y-87630662D01*
X129543795Y-87572270D01*
X129448771Y-87324725D01*
X129447587Y-87321640D01*
X129385542Y-87199869D01*
X130785067Y-87199869D01*
X130802577Y-87545521D01*
X130803287Y-87552277D01*
X130858023Y-87894003D01*
X130859462Y-87900658D01*
X130950782Y-88234466D01*
X130952931Y-88240927D01*
X131079770Y-88562929D01*
X131082601Y-88569112D01*
X131243475Y-88875532D01*
X131246958Y-88881375D01*
X131439981Y-89168623D01*
X131444084Y-89174067D01*
X131559571Y-89311213D01*
X131572310Y-89319656D01*
X131582754Y-89313558D01*
X133675638Y-87220674D01*
X133682016Y-87208994D01*
X134412068Y-87208994D01*
X134412199Y-87210827D01*
X134416450Y-87217442D01*
X136511213Y-89312205D01*
X136524810Y-89319630D01*
X136534421Y-89312930D01*
X136630505Y-89201222D01*
X136634663Y-89195822D01*
X136830683Y-88910613D01*
X136834230Y-88904802D01*
X136998294Y-88600100D01*
X137001201Y-88593922D01*
X137131404Y-88273273D01*
X137133618Y-88266843D01*
X137228429Y-87934005D01*
X137229936Y-87927375D01*
X137288250Y-87586224D01*
X137289030Y-87579484D01*
X137310255Y-87232438D01*
X137310371Y-87228835D01*
X137310439Y-87209681D01*
X137310347Y-87206056D01*
X137291545Y-86858885D01*
X137290810Y-86852119D01*
X137234884Y-86510600D01*
X137233417Y-86503928D01*
X137140938Y-86170459D01*
X137138764Y-86163996D01*
X137010803Y-85842445D01*
X137007950Y-85836271D01*
X136846003Y-85530407D01*
X136842509Y-85524590D01*
X136648473Y-85238002D01*
X136644359Y-85232583D01*
X136535750Y-85104515D01*
X136522925Y-85096079D01*
X136512600Y-85102132D01*
X134419682Y-87195050D01*
X134412068Y-87208994D01*
X133682016Y-87208994D01*
X133683252Y-87206730D01*
X133683121Y-87204897D01*
X133678870Y-87198282D01*
X131584117Y-85103529D01*
X131570580Y-85096137D01*
X131560879Y-85102925D01*
X131457880Y-85223521D01*
X131453726Y-85228954D01*
X131258716Y-85514827D01*
X131255181Y-85520664D01*
X131092178Y-85825942D01*
X131089302Y-85832111D01*
X130960218Y-86153217D01*
X130958025Y-86159657D01*
X130864374Y-86492830D01*
X130862891Y-86499465D01*
X130805772Y-86840798D01*
X130805013Y-86847570D01*
X130785091Y-87193074D01*
X130785067Y-87199869D01*
X129385542Y-87199869D01*
X129297313Y-87026710D01*
X129117033Y-86749104D01*
X128908723Y-86491863D01*
X128674665Y-86257805D01*
X128417424Y-86049495D01*
X128139818Y-85869215D01*
X127844888Y-85718941D01*
X127535866Y-85600319D01*
X127216137Y-85514648D01*
X127042451Y-85487139D01*
X126892453Y-85463381D01*
X126892445Y-85463380D01*
X126889205Y-85462867D01*
X126590443Y-85447209D01*
X126576129Y-85445635D01*
X126576091Y-85445629D01*
X126571201Y-85444806D01*
X126558662Y-85444653D01*
X126558651Y-85444653D01*
X126554210Y-85445289D01*
X126553802Y-85445318D01*
X126543179Y-85446355D01*
X126228108Y-85462867D01*
X126224868Y-85463380D01*
X126224860Y-85463381D01*
X126074862Y-85487139D01*
X125901176Y-85514648D01*
X125581447Y-85600319D01*
X125272425Y-85718941D01*
X124977495Y-85869215D01*
X124699889Y-86049495D01*
X124442648Y-86257805D01*
X124208590Y-86491863D01*
X124000280Y-86749104D01*
X123820000Y-87026710D01*
X123669726Y-87321640D01*
X123668542Y-87324725D01*
X123573519Y-87572270D01*
X123551104Y-87630662D01*
X123465433Y-87950391D01*
X123464917Y-87953652D01*
X123414301Y-88273227D01*
X123413652Y-88277323D01*
X123413374Y-88282629D01*
X123397593Y-88583747D01*
X123396885Y-88590572D01*
X123396859Y-88592729D01*
X123395476Y-88601607D01*
X123396641Y-88610514D01*
X123399598Y-88633128D01*
X123400662Y-88649466D01*
X123400662Y-90208539D01*
X123399162Y-90227923D01*
X123396857Y-90242724D01*
X123396857Y-90242728D01*
X123395476Y-90251597D01*
X123396640Y-90260499D01*
X123396640Y-90260503D01*
X123396653Y-90260599D01*
X123396924Y-90291036D01*
X123389916Y-90353241D01*
X123383637Y-90380751D01*
X123356628Y-90457937D01*
X123344386Y-90483357D01*
X123300875Y-90552604D01*
X123283283Y-90574663D01*
X123225459Y-90632487D01*
X123203400Y-90650079D01*
X123134153Y-90693590D01*
X123108732Y-90705832D01*
X123031545Y-90732841D01*
X123004038Y-90739120D01*
X122983910Y-90741388D01*
X122948406Y-90745388D01*
X122932765Y-90746171D01*
X122923807Y-90746062D01*
X122914933Y-90744680D01*
X122883412Y-90748802D01*
X122867074Y-90749866D01*
X118069000Y-90749866D01*
X118049615Y-90748366D01*
X118034814Y-90746061D01*
X118034811Y-90746061D01*
X118025942Y-90744680D01*
X118008773Y-90746925D01*
X117984833Y-90747758D01*
X117726902Y-90732156D01*
X117711798Y-90730322D01*
X117641024Y-90717352D01*
X117430793Y-90678826D01*
X117416031Y-90675188D01*
X117143264Y-90590191D01*
X117129042Y-90584796D01*
X116868532Y-90467550D01*
X116855063Y-90460481D01*
X116610577Y-90312684D01*
X116598055Y-90304041D01*
X116373165Y-90127850D01*
X116361777Y-90117760D01*
X116159778Y-89915761D01*
X116149688Y-89904373D01*
X115979583Y-89687251D01*
X116955202Y-89687251D01*
X116963339Y-89698257D01*
X117223599Y-89897961D01*
X117229198Y-89901795D01*
X117524922Y-90081598D01*
X117530912Y-90084810D01*
X117844318Y-90231620D01*
X117850622Y-90234167D01*
X118178045Y-90346268D01*
X118184596Y-90348122D01*
X118522200Y-90424204D01*
X118528919Y-90425341D01*
X118872774Y-90464519D01*
X118879564Y-90464922D01*
X119225634Y-90466734D01*
X119232435Y-90466402D01*
X119576681Y-90430828D01*
X119583409Y-90429762D01*
X119921805Y-90357215D01*
X119928354Y-90355436D01*
X120256939Y-90246767D01*
X120263281Y-90244281D01*
X120578184Y-90100772D01*
X120584238Y-90097607D01*
X120881789Y-89920935D01*
X120887470Y-89917132D01*
X121164208Y-89709351D01*
X121169432Y-89704967D01*
X121175899Y-89698915D01*
X121183968Y-89685235D01*
X121183941Y-89684511D01*
X121178797Y-89676208D01*
X119082473Y-87579884D01*
X119068529Y-87572270D01*
X119066696Y-87572401D01*
X119060081Y-87576652D01*
X116962083Y-89674650D01*
X116955202Y-89687251D01*
X115979583Y-89687251D01*
X115973497Y-89679483D01*
X115964854Y-89666961D01*
X115817057Y-89422475D01*
X115809986Y-89409002D01*
X115766422Y-89312205D01*
X115692741Y-89148493D01*
X115687346Y-89134270D01*
X115627765Y-88943068D01*
X115602350Y-88861507D01*
X115598710Y-88846739D01*
X115547216Y-88565740D01*
X115545382Y-88550636D01*
X115530217Y-88299937D01*
X115531474Y-88273227D01*
X115531477Y-88273007D01*
X115532858Y-88264136D01*
X115531219Y-88251596D01*
X115528736Y-88232615D01*
X115527672Y-88216277D01*
X115527672Y-87199869D01*
X115807068Y-87199869D01*
X115824578Y-87545521D01*
X115825288Y-87552277D01*
X115880024Y-87894003D01*
X115881463Y-87900658D01*
X115972783Y-88234466D01*
X115974932Y-88240927D01*
X116101771Y-88562929D01*
X116104602Y-88569112D01*
X116265476Y-88875532D01*
X116268959Y-88881375D01*
X116461982Y-89168623D01*
X116466085Y-89174067D01*
X116581572Y-89311213D01*
X116594311Y-89319656D01*
X116604755Y-89313558D01*
X118697639Y-87220674D01*
X118704017Y-87208994D01*
X119434069Y-87208994D01*
X119434200Y-87210827D01*
X119438451Y-87217442D01*
X121533214Y-89312205D01*
X121546811Y-89319630D01*
X121556422Y-89312930D01*
X121652506Y-89201222D01*
X121656664Y-89195822D01*
X121852684Y-88910613D01*
X121856231Y-88904802D01*
X122020295Y-88600100D01*
X122023202Y-88593922D01*
X122153405Y-88273273D01*
X122155619Y-88266843D01*
X122250430Y-87934005D01*
X122251937Y-87927375D01*
X122310251Y-87586224D01*
X122311031Y-87579484D01*
X122332256Y-87232438D01*
X122332372Y-87228835D01*
X122332440Y-87209681D01*
X122332348Y-87206056D01*
X122313546Y-86858885D01*
X122312811Y-86852119D01*
X122256885Y-86510600D01*
X122255418Y-86503928D01*
X122162939Y-86170459D01*
X122160765Y-86163996D01*
X122032804Y-85842445D01*
X122029951Y-85836271D01*
X121868004Y-85530407D01*
X121864510Y-85524590D01*
X121670474Y-85238002D01*
X121666360Y-85232583D01*
X121557751Y-85104515D01*
X121544926Y-85096079D01*
X121534601Y-85102132D01*
X119441683Y-87195050D01*
X119434069Y-87208994D01*
X118704017Y-87208994D01*
X118705253Y-87206730D01*
X118705122Y-87204897D01*
X118700871Y-87198282D01*
X116606118Y-85103529D01*
X116592581Y-85096137D01*
X116582880Y-85102925D01*
X116479881Y-85223521D01*
X116475727Y-85228954D01*
X116280717Y-85514827D01*
X116277182Y-85520664D01*
X116114179Y-85825942D01*
X116111303Y-85832111D01*
X115982219Y-86153217D01*
X115980026Y-86159657D01*
X115886375Y-86492830D01*
X115884892Y-86499465D01*
X115827773Y-86840798D01*
X115827014Y-86847570D01*
X115807092Y-87193074D01*
X115807068Y-87199869D01*
X115527672Y-87199869D01*
X115527672Y-84730096D01*
X116954983Y-84730096D01*
X116955018Y-84730937D01*
X116960071Y-84739062D01*
X119056849Y-86835840D01*
X119070793Y-86843454D01*
X119072626Y-86843323D01*
X119079241Y-86839072D01*
X121177092Y-84741221D01*
X121183167Y-84730096D01*
X131932982Y-84730096D01*
X131933017Y-84730937D01*
X131938070Y-84739062D01*
X134034848Y-86835840D01*
X134048792Y-86843454D01*
X134050625Y-86843323D01*
X134057240Y-86839072D01*
X136155091Y-84741221D01*
X136162705Y-84727277D01*
X136162637Y-84726322D01*
X136158684Y-84720344D01*
X135884327Y-84511341D01*
X135878701Y-84507517D01*
X135582366Y-84328756D01*
X135576354Y-84325559D01*
X135262434Y-84179842D01*
X135256134Y-84177322D01*
X134928324Y-84066365D01*
X134921746Y-84064529D01*
X134583897Y-83989630D01*
X134577159Y-83988514D01*
X134233175Y-83950537D01*
X134226395Y-83950158D01*
X133880296Y-83949555D01*
X133873523Y-83949910D01*
X133529386Y-83986687D01*
X133522676Y-83987774D01*
X133184543Y-84061499D01*
X133177968Y-84063310D01*
X132849777Y-84173121D01*
X132843455Y-84175624D01*
X132529048Y-84320235D01*
X132523005Y-84323421D01*
X132226062Y-84501138D01*
X132220416Y-84504947D01*
X131944386Y-84713706D01*
X131940800Y-84716737D01*
X131932982Y-84730096D01*
X121183167Y-84730096D01*
X121184706Y-84727277D01*
X121184638Y-84726322D01*
X121180685Y-84720344D01*
X120906328Y-84511341D01*
X120900702Y-84507517D01*
X120604367Y-84328756D01*
X120598355Y-84325559D01*
X120284435Y-84179842D01*
X120278135Y-84177322D01*
X119950325Y-84066365D01*
X119943747Y-84064529D01*
X119605898Y-83989630D01*
X119599160Y-83988514D01*
X119255176Y-83950537D01*
X119248396Y-83950158D01*
X118902297Y-83949555D01*
X118895524Y-83949910D01*
X118551387Y-83986687D01*
X118544677Y-83987774D01*
X118206544Y-84061499D01*
X118199969Y-84063310D01*
X117871778Y-84173121D01*
X117865456Y-84175624D01*
X117551049Y-84320235D01*
X117545006Y-84323421D01*
X117248063Y-84501138D01*
X117242417Y-84504947D01*
X116966387Y-84713706D01*
X116962801Y-84716737D01*
X116954983Y-84730096D01*
X115527672Y-84730096D01*
X115527672Y-77060328D01*
X116014916Y-77060328D01*
X116015213Y-77065481D01*
X116015213Y-77065484D01*
X116020676Y-77160223D01*
X116027775Y-77283348D01*
X116028912Y-77288394D01*
X116028913Y-77288400D01*
X116043114Y-77351411D01*
X116076887Y-77501272D01*
X116160931Y-77708249D01*
X116277652Y-77898721D01*
X116423915Y-78067571D01*
X116595791Y-78210265D01*
X116788665Y-78322971D01*
X116997357Y-78402663D01*
X117002425Y-78403694D01*
X117002428Y-78403695D01*
X117083362Y-78420161D01*
X117216262Y-78447200D01*
X117221437Y-78447390D01*
X117221439Y-78447390D01*
X117434338Y-78455197D01*
X117434342Y-78455197D01*
X117439502Y-78455386D01*
X117444622Y-78454730D01*
X117444624Y-78454730D01*
X117655953Y-78427658D01*
X117655954Y-78427658D01*
X117661081Y-78427001D01*
X117666031Y-78425516D01*
X117870094Y-78364294D01*
X117870099Y-78364292D01*
X117875049Y-78362807D01*
X118075659Y-78264529D01*
X118257525Y-78134806D01*
X118415761Y-77977122D01*
X118475259Y-77894322D01*
X118543100Y-77799910D01*
X118546118Y-77795710D01*
X118645095Y-77595444D01*
X118710035Y-77381702D01*
X118739194Y-77160223D01*
X118740821Y-77093633D01*
X118722517Y-76870994D01*
X118668096Y-76654335D01*
X118579019Y-76449473D01*
X118457679Y-76261910D01*
X118307335Y-76096684D01*
X118303284Y-76093485D01*
X118303280Y-76093481D01*
X118136079Y-75961433D01*
X118136075Y-75961431D01*
X118132024Y-75958231D01*
X118090234Y-75935162D01*
X118040263Y-75884730D01*
X118025491Y-75815287D01*
X118050607Y-75748881D01*
X118077959Y-75722274D01*
X118252993Y-75597425D01*
X118260865Y-75590772D01*
X118411717Y-75440445D01*
X118418395Y-75432598D01*
X118542668Y-75259653D01*
X118547978Y-75250816D01*
X118642335Y-75059900D01*
X118646134Y-75050305D01*
X118708042Y-74846543D01*
X118710220Y-74836470D01*
X118711651Y-74825595D01*
X118709440Y-74811411D01*
X118696282Y-74807633D01*
X116060890Y-74807633D01*
X116047359Y-74811606D01*
X116045922Y-74821599D01*
X116076230Y-74956079D01*
X116079310Y-74965908D01*
X116159435Y-75163236D01*
X116164078Y-75172427D01*
X116275359Y-75354021D01*
X116281442Y-75362332D01*
X116420878Y-75523300D01*
X116428245Y-75530516D01*
X116592099Y-75666549D01*
X116600546Y-75672464D01*
X116669634Y-75712836D01*
X116718358Y-75764475D01*
X116731429Y-75834258D01*
X116704698Y-75900029D01*
X116664249Y-75933385D01*
X116651272Y-75940140D01*
X116647139Y-75943243D01*
X116647136Y-75943245D01*
X116622912Y-75961433D01*
X116472630Y-76074268D01*
X116318294Y-76235771D01*
X116315380Y-76240043D01*
X116315379Y-76240044D01*
X116303069Y-76258090D01*
X116192408Y-76420313D01*
X116098353Y-76622938D01*
X116038654Y-76838203D01*
X116014916Y-77060328D01*
X115527672Y-77060328D01*
X115527672Y-71980328D01*
X116014916Y-71980328D01*
X116015213Y-71985481D01*
X116015213Y-71985484D01*
X116020676Y-72080223D01*
X116027775Y-72203348D01*
X116028912Y-72208394D01*
X116028913Y-72208400D01*
X116042262Y-72267633D01*
X116076887Y-72421272D01*
X116160931Y-72628249D01*
X116277652Y-72818721D01*
X116423915Y-72987571D01*
X116595791Y-73130265D01*
X116668643Y-73172836D01*
X116669620Y-73173407D01*
X116718344Y-73225045D01*
X116731415Y-73294828D01*
X116704684Y-73360600D01*
X116664227Y-73393960D01*
X116656122Y-73398179D01*
X116647403Y-73403669D01*
X116477098Y-73531538D01*
X116469391Y-73538381D01*
X116322255Y-73692350D01*
X116315769Y-73700360D01*
X116195763Y-73876282D01*
X116190665Y-73885256D01*
X116101003Y-74078416D01*
X116097440Y-74088103D01*
X116042054Y-74287816D01*
X116043577Y-74296240D01*
X116055957Y-74299633D01*
X118696009Y-74299633D01*
X118709540Y-74295660D01*
X118710845Y-74286580D01*
X118668879Y-74119508D01*
X118665559Y-74109757D01*
X118580637Y-73914447D01*
X118575770Y-73905372D01*
X118460091Y-73726559D01*
X118453801Y-73718390D01*
X118310471Y-73560873D01*
X118302938Y-73553848D01*
X118135804Y-73421855D01*
X118127221Y-73416153D01*
X118090267Y-73395753D01*
X118040296Y-73345320D01*
X118025524Y-73275878D01*
X118050640Y-73209472D01*
X118077992Y-73182865D01*
X118101462Y-73166124D01*
X118257525Y-73054806D01*
X118415761Y-72897122D01*
X118475259Y-72814322D01*
X118543100Y-72719910D01*
X118546118Y-72715710D01*
X118645095Y-72515444D01*
X118710035Y-72301702D01*
X118739194Y-72080223D01*
X118740821Y-72013633D01*
X118722517Y-71790994D01*
X118668096Y-71574335D01*
X118579019Y-71369473D01*
X118457679Y-71181910D01*
X118307335Y-71016684D01*
X118303284Y-71013485D01*
X118303280Y-71013481D01*
X118136079Y-70881433D01*
X118136075Y-70881431D01*
X118132024Y-70878231D01*
X118090234Y-70855162D01*
X118040263Y-70804730D01*
X118025491Y-70735287D01*
X118050607Y-70668881D01*
X118077959Y-70642274D01*
X118252993Y-70517425D01*
X118260865Y-70510772D01*
X118411717Y-70360445D01*
X118418395Y-70352598D01*
X118542668Y-70179653D01*
X118547978Y-70170816D01*
X118642335Y-69979900D01*
X118646134Y-69970305D01*
X118708042Y-69766543D01*
X118710220Y-69756470D01*
X118711651Y-69745595D01*
X118709440Y-69731411D01*
X118696282Y-69727633D01*
X116060890Y-69727633D01*
X116047359Y-69731606D01*
X116045922Y-69741599D01*
X116076230Y-69876079D01*
X116079310Y-69885908D01*
X116159435Y-70083236D01*
X116164078Y-70092427D01*
X116275359Y-70274021D01*
X116281442Y-70282332D01*
X116420878Y-70443300D01*
X116428245Y-70450516D01*
X116592099Y-70586549D01*
X116600546Y-70592464D01*
X116669634Y-70632836D01*
X116718358Y-70684475D01*
X116731429Y-70754258D01*
X116704698Y-70820029D01*
X116664249Y-70853385D01*
X116651272Y-70860140D01*
X116647139Y-70863243D01*
X116647136Y-70863245D01*
X116622912Y-70881433D01*
X116472630Y-70994268D01*
X116318294Y-71155771D01*
X116315380Y-71160043D01*
X116315379Y-71160044D01*
X116303069Y-71178090D01*
X116192408Y-71340313D01*
X116098353Y-71542938D01*
X116038654Y-71758203D01*
X116014916Y-71980328D01*
X115527672Y-71980328D01*
X115527672Y-69207816D01*
X116042054Y-69207816D01*
X116043577Y-69216240D01*
X116055957Y-69219633D01*
X117105550Y-69219633D01*
X117120789Y-69215158D01*
X117121994Y-69213768D01*
X117123665Y-69206085D01*
X117123665Y-69201518D01*
X117631665Y-69201518D01*
X117636140Y-69216757D01*
X117637530Y-69217962D01*
X117645213Y-69219633D01*
X118696009Y-69219633D01*
X118709540Y-69215660D01*
X118710845Y-69206580D01*
X118668879Y-69039508D01*
X118665559Y-69029757D01*
X118580637Y-68834447D01*
X118575770Y-68825372D01*
X118460091Y-68646559D01*
X118453801Y-68638390D01*
X118310471Y-68480873D01*
X118302938Y-68473848D01*
X118135804Y-68341855D01*
X118127217Y-68336150D01*
X118089781Y-68315484D01*
X118039811Y-68265052D01*
X118025039Y-68195609D01*
X118050155Y-68129204D01*
X118077507Y-68102597D01*
X118252992Y-67977425D01*
X118260865Y-67970772D01*
X118411717Y-67820445D01*
X118418395Y-67812598D01*
X118542668Y-67639653D01*
X118547978Y-67630816D01*
X118642335Y-67439900D01*
X118646134Y-67430305D01*
X118708042Y-67226543D01*
X118710220Y-67216470D01*
X118711651Y-67205595D01*
X118709440Y-67191411D01*
X118696282Y-67187633D01*
X117649780Y-67187633D01*
X117634541Y-67192108D01*
X117633336Y-67193498D01*
X117631665Y-67201181D01*
X117631665Y-69201518D01*
X117123665Y-69201518D01*
X117123665Y-67205748D01*
X117119190Y-67190509D01*
X117117800Y-67189304D01*
X117110117Y-67187633D01*
X116060890Y-67187633D01*
X116047359Y-67191606D01*
X116045922Y-67201599D01*
X116076230Y-67336079D01*
X116079310Y-67345908D01*
X116159435Y-67543236D01*
X116164078Y-67552427D01*
X116275359Y-67734021D01*
X116281442Y-67742332D01*
X116420878Y-67903300D01*
X116428245Y-67910516D01*
X116592099Y-68046549D01*
X116600546Y-68052464D01*
X116670144Y-68093134D01*
X116718868Y-68144773D01*
X116731939Y-68214556D01*
X116705208Y-68280327D01*
X116664752Y-68313686D01*
X116656127Y-68318175D01*
X116647403Y-68323669D01*
X116477098Y-68451538D01*
X116469391Y-68458381D01*
X116322255Y-68612350D01*
X116315769Y-68620360D01*
X116195763Y-68796282D01*
X116190665Y-68805256D01*
X116101003Y-68998416D01*
X116097440Y-69008103D01*
X116042054Y-69207816D01*
X115527672Y-69207816D01*
X115527672Y-64360328D01*
X116014916Y-64360328D01*
X116015213Y-64365481D01*
X116015213Y-64365484D01*
X116020662Y-64459989D01*
X116027775Y-64583348D01*
X116028912Y-64588394D01*
X116028913Y-64588400D01*
X116044960Y-64659603D01*
X116076887Y-64801272D01*
X116160931Y-65008249D01*
X116163630Y-65012653D01*
X116271194Y-65188182D01*
X116277652Y-65198721D01*
X116423915Y-65367571D01*
X116595791Y-65510265D01*
X116669620Y-65553407D01*
X116718344Y-65605045D01*
X116731415Y-65674828D01*
X116704684Y-65740600D01*
X116664227Y-65773960D01*
X116656122Y-65778179D01*
X116647403Y-65783669D01*
X116477098Y-65911538D01*
X116469391Y-65918381D01*
X116322255Y-66072350D01*
X116315769Y-66080360D01*
X116195763Y-66256282D01*
X116190665Y-66265256D01*
X116101003Y-66458416D01*
X116097440Y-66468103D01*
X116042054Y-66667816D01*
X116043577Y-66676240D01*
X116055957Y-66679633D01*
X118696009Y-66679633D01*
X118709540Y-66675660D01*
X118710845Y-66666580D01*
X118668879Y-66499508D01*
X118665559Y-66489757D01*
X118580637Y-66294447D01*
X118575770Y-66285372D01*
X118460091Y-66106559D01*
X118453801Y-66098390D01*
X118310471Y-65940873D01*
X118302938Y-65933848D01*
X118135804Y-65801855D01*
X118127221Y-65796153D01*
X118090267Y-65775753D01*
X118040296Y-65725320D01*
X118025524Y-65655878D01*
X118050640Y-65589472D01*
X118077992Y-65562865D01*
X118142072Y-65517157D01*
X118257525Y-65434806D01*
X118269937Y-65422438D01*
X118412100Y-65280770D01*
X118415761Y-65277122D01*
X118475259Y-65194322D01*
X118543100Y-65099910D01*
X118546118Y-65095710D01*
X118573439Y-65040431D01*
X118642801Y-64900086D01*
X118642802Y-64900084D01*
X118645095Y-64895444D01*
X118710035Y-64681702D01*
X118739194Y-64460223D01*
X118740821Y-64393633D01*
X118722517Y-64170994D01*
X118668096Y-63954335D01*
X118579019Y-63749473D01*
X118482722Y-63600620D01*
X118460487Y-63566250D01*
X118460485Y-63566247D01*
X118457679Y-63561910D01*
X118307335Y-63396684D01*
X118303284Y-63393485D01*
X118303280Y-63393481D01*
X118136079Y-63261433D01*
X118136075Y-63261431D01*
X118132024Y-63258231D01*
X118090718Y-63235429D01*
X118040749Y-63184997D01*
X118025977Y-63115554D01*
X118051093Y-63049149D01*
X118078445Y-63022542D01*
X118122268Y-62991283D01*
X118257525Y-62894806D01*
X118415761Y-62737122D01*
X118475259Y-62654322D01*
X118543100Y-62559910D01*
X118546118Y-62555710D01*
X118645095Y-62355444D01*
X118710035Y-62141702D01*
X118739194Y-61920223D01*
X118740821Y-61853633D01*
X118722517Y-61630994D01*
X118668096Y-61414335D01*
X118579019Y-61209473D01*
X118457679Y-61021910D01*
X118438070Y-61000360D01*
X118310463Y-60860121D01*
X118279411Y-60796275D01*
X118287806Y-60725776D01*
X118332982Y-60671008D01*
X118359426Y-60657339D01*
X118465962Y-60617400D01*
X118474370Y-60614248D01*
X118590926Y-60526894D01*
X118678280Y-60410338D01*
X118729410Y-60273949D01*
X118736165Y-60211767D01*
X118736165Y-58415499D01*
X118729410Y-58353317D01*
X118678280Y-58216928D01*
X118590926Y-58100372D01*
X118474370Y-58013018D01*
X118337981Y-57961888D01*
X118275799Y-57955133D01*
X116479531Y-57955133D01*
X116417349Y-57961888D01*
X116280960Y-58013018D01*
X116164404Y-58100372D01*
X116077050Y-58216928D01*
X116025920Y-58353317D01*
X116019165Y-58415499D01*
X116019165Y-60211767D01*
X116025920Y-60273949D01*
X116077050Y-60410338D01*
X116164404Y-60526894D01*
X116280960Y-60614248D01*
X116289369Y-60617400D01*
X116289370Y-60617401D01*
X116398116Y-60658168D01*
X116454881Y-60700809D01*
X116479581Y-60767371D01*
X116464374Y-60836720D01*
X116444981Y-60863201D01*
X116318294Y-60995771D01*
X116315380Y-61000043D01*
X116315379Y-61000044D01*
X116303074Y-61018083D01*
X116192408Y-61180313D01*
X116098353Y-61382938D01*
X116038654Y-61598203D01*
X116014916Y-61820328D01*
X116015213Y-61825481D01*
X116015213Y-61825484D01*
X116020676Y-61920223D01*
X116027775Y-62043348D01*
X116028912Y-62048394D01*
X116028913Y-62048400D01*
X116042262Y-62107633D01*
X116076887Y-62261272D01*
X116160931Y-62468249D01*
X116277652Y-62658721D01*
X116423915Y-62827571D01*
X116595791Y-62970265D01*
X116666260Y-63011444D01*
X116669110Y-63013109D01*
X116717834Y-63064747D01*
X116730905Y-63134530D01*
X116704174Y-63200302D01*
X116663720Y-63233660D01*
X116651272Y-63240140D01*
X116647139Y-63243243D01*
X116647136Y-63243245D01*
X116622912Y-63261433D01*
X116472630Y-63374268D01*
X116318294Y-63535771D01*
X116192408Y-63720313D01*
X116098353Y-63922938D01*
X116038654Y-64138203D01*
X116014916Y-64360328D01*
X115527672Y-64360328D01*
X115527672Y-56941496D01*
X116482175Y-56941496D01*
X116491471Y-56953511D01*
X116542676Y-56989365D01*
X116552171Y-56994848D01*
X116749629Y-57086924D01*
X116759921Y-57090670D01*
X116970370Y-57147059D01*
X116981163Y-57148962D01*
X117198207Y-57167951D01*
X117209157Y-57167951D01*
X117426201Y-57148962D01*
X117436994Y-57147059D01*
X117647443Y-57090670D01*
X117657735Y-57086924D01*
X117855193Y-56994848D01*
X117864688Y-56989365D01*
X117916730Y-56952925D01*
X117925106Y-56942446D01*
X117918038Y-56929000D01*
X117216494Y-56227456D01*
X117202550Y-56219842D01*
X117200717Y-56219973D01*
X117194102Y-56224224D01*
X116488605Y-56929721D01*
X116482175Y-56941496D01*
X115527672Y-56941496D01*
X115527672Y-55860909D01*
X115891165Y-55860909D01*
X115910154Y-56077953D01*
X115912057Y-56088746D01*
X115968446Y-56299195D01*
X115972192Y-56309487D01*
X116064268Y-56506945D01*
X116069751Y-56516440D01*
X116106191Y-56568482D01*
X116116670Y-56576858D01*
X116130116Y-56569790D01*
X116831660Y-55868246D01*
X116838038Y-55856566D01*
X117568090Y-55856566D01*
X117568221Y-55858399D01*
X117572472Y-55865014D01*
X118277969Y-56570511D01*
X118289744Y-56576941D01*
X118301759Y-56567645D01*
X118337616Y-56516436D01*
X118344273Y-56504906D01*
X118395655Y-56455913D01*
X118465369Y-56442476D01*
X118531280Y-56468863D01*
X118562511Y-56504906D01*
X118563835Y-56507199D01*
X118566159Y-56512183D01*
X118697484Y-56699734D01*
X118859382Y-56861632D01*
X118863890Y-56864789D01*
X118863893Y-56864791D01*
X118942071Y-56919532D01*
X119046933Y-56992957D01*
X119051915Y-56995280D01*
X119051920Y-56995283D01*
X119192657Y-57060909D01*
X119254439Y-57089718D01*
X119259747Y-57091140D01*
X119259749Y-57091141D01*
X119470280Y-57147553D01*
X119470282Y-57147553D01*
X119475595Y-57148977D01*
X119703682Y-57168932D01*
X119931769Y-57148977D01*
X119937082Y-57147553D01*
X119937084Y-57147553D01*
X120147615Y-57091141D01*
X120147617Y-57091140D01*
X120152925Y-57089718D01*
X120214707Y-57060909D01*
X120355444Y-56995283D01*
X120355449Y-56995280D01*
X120360431Y-56992957D01*
X120465293Y-56919532D01*
X120543471Y-56864791D01*
X120543474Y-56864789D01*
X120547982Y-56861632D01*
X120709880Y-56699734D01*
X120841205Y-56512183D01*
X120843528Y-56507201D01*
X120843531Y-56507196D01*
X120935643Y-56309659D01*
X120935643Y-56309658D01*
X120937966Y-56304677D01*
X120958658Y-56227456D01*
X120995801Y-56088836D01*
X120995801Y-56088834D01*
X120997225Y-56083521D01*
X121017180Y-55855434D01*
X120997225Y-55627347D01*
X120993721Y-55614271D01*
X120939389Y-55411501D01*
X120939388Y-55411499D01*
X120937966Y-55406191D01*
X120924903Y-55378177D01*
X120843531Y-55203672D01*
X120843528Y-55203667D01*
X120841205Y-55198685D01*
X120709880Y-55011134D01*
X120547982Y-54849236D01*
X120543474Y-54846079D01*
X120543471Y-54846077D01*
X120432568Y-54768422D01*
X120360431Y-54717911D01*
X120355449Y-54715588D01*
X120355444Y-54715585D01*
X120157907Y-54623473D01*
X120157906Y-54623473D01*
X120152925Y-54621150D01*
X120147617Y-54619728D01*
X120147615Y-54619727D01*
X119937084Y-54563315D01*
X119937082Y-54563315D01*
X119931769Y-54561891D01*
X119703682Y-54541936D01*
X119475595Y-54561891D01*
X119470282Y-54563315D01*
X119470280Y-54563315D01*
X119259749Y-54619727D01*
X119259747Y-54619728D01*
X119254439Y-54621150D01*
X119249458Y-54623473D01*
X119249457Y-54623473D01*
X119051920Y-54715585D01*
X119051915Y-54715588D01*
X119046933Y-54717911D01*
X118974796Y-54768422D01*
X118863893Y-54846077D01*
X118863890Y-54846079D01*
X118859382Y-54849236D01*
X118697484Y-55011134D01*
X118566159Y-55198685D01*
X118563835Y-55203669D01*
X118562511Y-55205962D01*
X118511129Y-55254955D01*
X118441415Y-55268391D01*
X118375504Y-55242005D01*
X118344273Y-55205962D01*
X118337616Y-55194432D01*
X118301173Y-55142386D01*
X118290694Y-55134010D01*
X118277248Y-55141078D01*
X117575704Y-55842622D01*
X117568090Y-55856566D01*
X116838038Y-55856566D01*
X116839274Y-55854302D01*
X116839143Y-55852469D01*
X116834892Y-55845854D01*
X116129395Y-55140357D01*
X116117620Y-55133927D01*
X116105605Y-55143223D01*
X116069751Y-55194428D01*
X116064268Y-55203923D01*
X115972192Y-55401381D01*
X115968446Y-55411673D01*
X115912057Y-55622122D01*
X115910154Y-55632915D01*
X115891165Y-55849959D01*
X115891165Y-55860909D01*
X115527672Y-55860909D01*
X115527672Y-54768422D01*
X116482258Y-54768422D01*
X116489326Y-54781868D01*
X117190870Y-55483412D01*
X117204814Y-55491026D01*
X117206647Y-55490895D01*
X117213262Y-55486644D01*
X117918759Y-54781147D01*
X117925189Y-54769372D01*
X117915893Y-54757357D01*
X117864688Y-54721503D01*
X117855193Y-54716020D01*
X117657735Y-54623944D01*
X117647443Y-54620198D01*
X117436994Y-54563809D01*
X117426201Y-54561906D01*
X117209157Y-54542917D01*
X117198207Y-54542917D01*
X116981163Y-54561906D01*
X116970370Y-54563809D01*
X116759921Y-54620198D01*
X116749629Y-54623944D01*
X116552171Y-54716020D01*
X116542676Y-54721503D01*
X116490634Y-54757943D01*
X116482258Y-54768422D01*
X115527672Y-54768422D01*
X115527672Y-53901292D01*
X121790814Y-53901292D01*
X121804139Y-54104584D01*
X121854287Y-54302043D01*
X121939580Y-54487057D01*
X122057161Y-54653430D01*
X122061295Y-54657457D01*
X122103104Y-54698186D01*
X122137941Y-54760048D01*
X122141182Y-54788440D01*
X122141182Y-55138058D01*
X122139749Y-55157008D01*
X122137558Y-55171407D01*
X122137558Y-55171413D01*
X122136458Y-55178642D01*
X122137051Y-55185934D01*
X122137051Y-55185937D01*
X122140767Y-55231617D01*
X122141182Y-55241832D01*
X122141182Y-55249959D01*
X122144493Y-55278358D01*
X122144920Y-55282678D01*
X122150873Y-55355860D01*
X122153129Y-55362822D01*
X122154325Y-55368810D01*
X122155733Y-55374767D01*
X122156581Y-55382041D01*
X122159079Y-55388923D01*
X122159080Y-55388927D01*
X122181627Y-55451041D01*
X122183037Y-55455145D01*
X122205669Y-55525009D01*
X122209469Y-55531272D01*
X122212007Y-55536814D01*
X122214749Y-55542290D01*
X122217248Y-55549175D01*
X122221263Y-55555299D01*
X122257497Y-55610566D01*
X122259812Y-55614234D01*
X122297909Y-55677015D01*
X122301623Y-55681220D01*
X122301625Y-55681223D01*
X122305349Y-55685439D01*
X122305320Y-55685465D01*
X122307920Y-55688396D01*
X122310724Y-55691750D01*
X122314736Y-55697869D01*
X122320048Y-55702901D01*
X122371268Y-55751422D01*
X122373710Y-55753800D01*
X123316872Y-56696962D01*
X123329259Y-56711375D01*
X123342228Y-56728998D01*
X123347811Y-56733741D01*
X123382737Y-56763413D01*
X123390253Y-56770343D01*
X123395997Y-56776087D01*
X123398873Y-56778362D01*
X123398877Y-56778366D01*
X123418407Y-56793818D01*
X123421806Y-56796605D01*
X123446684Y-56817740D01*
X123477733Y-56844118D01*
X123484252Y-56847447D01*
X123489370Y-56850860D01*
X123494547Y-56854057D01*
X123500282Y-56858595D01*
X123506908Y-56861692D01*
X123506910Y-56861693D01*
X123566783Y-56889675D01*
X123570735Y-56891607D01*
X123629564Y-56921647D01*
X123629566Y-56921648D01*
X123636086Y-56924977D01*
X123643202Y-56926718D01*
X123648946Y-56928854D01*
X123654728Y-56930778D01*
X123661362Y-56933878D01*
X123733237Y-56948828D01*
X123737521Y-56949798D01*
X123808794Y-56967238D01*
X123814396Y-56967586D01*
X123814399Y-56967586D01*
X123820012Y-56967934D01*
X123820010Y-56967971D01*
X123823909Y-56968207D01*
X123828281Y-56968597D01*
X123835439Y-56970086D01*
X123888783Y-56968642D01*
X123957418Y-56986794D01*
X124005346Y-57039171D01*
X124017348Y-57109146D01*
X123993059Y-57170105D01*
X123978674Y-57189321D01*
X123875296Y-57378644D01*
X123873725Y-57382856D01*
X123801482Y-57576544D01*
X123801480Y-57576550D01*
X123799913Y-57580752D01*
X123798959Y-57585138D01*
X123798958Y-57585141D01*
X123790934Y-57622029D01*
X123754061Y-57791531D01*
X123753740Y-57796019D01*
X123741562Y-57966287D01*
X123740138Y-57978196D01*
X123737454Y-57994152D01*
X123737301Y-58006691D01*
X123740917Y-58031940D01*
X123741252Y-58034279D01*
X123742525Y-58052142D01*
X123742525Y-78362149D01*
X123740779Y-78383054D01*
X123737454Y-78402817D01*
X123737301Y-78415356D01*
X123739411Y-78430090D01*
X123740360Y-78438937D01*
X123754061Y-78630516D01*
X123773987Y-78722114D01*
X123792577Y-78807570D01*
X123799913Y-78841295D01*
X123801480Y-78845497D01*
X123801482Y-78845503D01*
X123824156Y-78906293D01*
X123875296Y-79043403D01*
X123978674Y-79232726D01*
X124107943Y-79405410D01*
X124260472Y-79557939D01*
X124433156Y-79687208D01*
X124622479Y-79790586D01*
X124626691Y-79792157D01*
X124820379Y-79864400D01*
X124820385Y-79864402D01*
X124824587Y-79865969D01*
X124828973Y-79866923D01*
X124828976Y-79866924D01*
X124953146Y-79893935D01*
X125035366Y-79911821D01*
X125039854Y-79912142D01*
X125210122Y-79924320D01*
X125222031Y-79925744D01*
X125237987Y-79928428D01*
X125244342Y-79928506D01*
X125245667Y-79928522D01*
X125245671Y-79928522D01*
X125250526Y-79928581D01*
X125278114Y-79924630D01*
X125295977Y-79923357D01*
X127813310Y-79923357D01*
X127834215Y-79925103D01*
X127849185Y-79927622D01*
X127849190Y-79927622D01*
X127853978Y-79928428D01*
X127860308Y-79928505D01*
X127861659Y-79928522D01*
X127861663Y-79928522D01*
X127866517Y-79928581D01*
X127881251Y-79926471D01*
X127890098Y-79925522D01*
X128038294Y-79914924D01*
X128077190Y-79912142D01*
X128077191Y-79912142D01*
X128081677Y-79911821D01*
X128230001Y-79879555D01*
X128288067Y-79866924D01*
X128288070Y-79866923D01*
X128292456Y-79865969D01*
X128296658Y-79864402D01*
X128296664Y-79864400D01*
X128490352Y-79792157D01*
X128494564Y-79790586D01*
X128683887Y-79687208D01*
X128856571Y-79557939D01*
X129009100Y-79405410D01*
X129138369Y-79232726D01*
X129241747Y-79043403D01*
X129292887Y-78906293D01*
X129315561Y-78845503D01*
X129315563Y-78845497D01*
X129317130Y-78841295D01*
X129324467Y-78807570D01*
X129362026Y-78634910D01*
X129362982Y-78630516D01*
X129364061Y-78615427D01*
X129375481Y-78455760D01*
X129376905Y-78443849D01*
X129377643Y-78439460D01*
X129379589Y-78427895D01*
X129379742Y-78415356D01*
X129375791Y-78387768D01*
X129374518Y-78369905D01*
X129374518Y-77361599D01*
X134407938Y-77361599D01*
X134438246Y-77496079D01*
X134441326Y-77505908D01*
X134521451Y-77703236D01*
X134526094Y-77712427D01*
X134637375Y-77894021D01*
X134643458Y-77902332D01*
X134782894Y-78063300D01*
X134790261Y-78070516D01*
X134954115Y-78206549D01*
X134962562Y-78212464D01*
X135146437Y-78319912D01*
X135155723Y-78324362D01*
X135354682Y-78400336D01*
X135364580Y-78403212D01*
X135467931Y-78424239D01*
X135481980Y-78423043D01*
X135485681Y-78412698D01*
X135485681Y-78412150D01*
X135993681Y-78412150D01*
X135997745Y-78425992D01*
X136011159Y-78428026D01*
X136017865Y-78427167D01*
X136027943Y-78425025D01*
X136231936Y-78363824D01*
X136241523Y-78360066D01*
X136432776Y-78266372D01*
X136441626Y-78261097D01*
X136615009Y-78137425D01*
X136622881Y-78130772D01*
X136773733Y-77980445D01*
X136780411Y-77972598D01*
X136904684Y-77799653D01*
X136909994Y-77790816D01*
X137004351Y-77599900D01*
X137008150Y-77590305D01*
X137070058Y-77386543D01*
X137072236Y-77376470D01*
X137073667Y-77365595D01*
X137071456Y-77351411D01*
X137058298Y-77347633D01*
X136011796Y-77347633D01*
X135996557Y-77352108D01*
X135995352Y-77353498D01*
X135993681Y-77361181D01*
X135993681Y-78412150D01*
X135485681Y-78412150D01*
X135485681Y-77365748D01*
X135481206Y-77350509D01*
X135479816Y-77349304D01*
X135472133Y-77347633D01*
X134422906Y-77347633D01*
X134409375Y-77351606D01*
X134407938Y-77361599D01*
X129374518Y-77361599D01*
X129374518Y-74520328D01*
X134376932Y-74520328D01*
X134377229Y-74525481D01*
X134377229Y-74525484D01*
X134382692Y-74620223D01*
X134389791Y-74743348D01*
X134390928Y-74748394D01*
X134390929Y-74748400D01*
X134404278Y-74807633D01*
X134438903Y-74961272D01*
X134522947Y-75168249D01*
X134639668Y-75358721D01*
X134785931Y-75527571D01*
X134957807Y-75670265D01*
X135030659Y-75712836D01*
X135031636Y-75713407D01*
X135080360Y-75765045D01*
X135093431Y-75834828D01*
X135066700Y-75900600D01*
X135026243Y-75933960D01*
X135018138Y-75938179D01*
X135009419Y-75943669D01*
X134839114Y-76071538D01*
X134831407Y-76078381D01*
X134684271Y-76232350D01*
X134677785Y-76240360D01*
X134557779Y-76416282D01*
X134552681Y-76425256D01*
X134463019Y-76618416D01*
X134459456Y-76628103D01*
X134404070Y-76827816D01*
X134405593Y-76836240D01*
X134417973Y-76839633D01*
X137058025Y-76839633D01*
X137071556Y-76835660D01*
X137072861Y-76826580D01*
X137030895Y-76659508D01*
X137027575Y-76649757D01*
X136942653Y-76454447D01*
X136937786Y-76445372D01*
X136822107Y-76266559D01*
X136815817Y-76258390D01*
X136672487Y-76100873D01*
X136664954Y-76093848D01*
X136497820Y-75961855D01*
X136489237Y-75956153D01*
X136452283Y-75935753D01*
X136402312Y-75885320D01*
X136387540Y-75815878D01*
X136412656Y-75749472D01*
X136440008Y-75722865D01*
X136463478Y-75706124D01*
X136619541Y-75594806D01*
X136777777Y-75437122D01*
X136837275Y-75354322D01*
X136905116Y-75259910D01*
X136908134Y-75255710D01*
X137007111Y-75055444D01*
X137072051Y-74841702D01*
X137101210Y-74620223D01*
X137102837Y-74553633D01*
X137084533Y-74330994D01*
X137030112Y-74114335D01*
X136941035Y-73909473D01*
X136819695Y-73721910D01*
X136669351Y-73556684D01*
X136665300Y-73553485D01*
X136665296Y-73553481D01*
X136498095Y-73421433D01*
X136498091Y-73421431D01*
X136494040Y-73418231D01*
X136452250Y-73395162D01*
X136402279Y-73344730D01*
X136387507Y-73275287D01*
X136412623Y-73208881D01*
X136439975Y-73182274D01*
X136615009Y-73057425D01*
X136622881Y-73050772D01*
X136773733Y-72900445D01*
X136780411Y-72892598D01*
X136904684Y-72719653D01*
X136909994Y-72710816D01*
X137004351Y-72519900D01*
X137008150Y-72510305D01*
X137070058Y-72306543D01*
X137072236Y-72296470D01*
X137073667Y-72285595D01*
X137071456Y-72271411D01*
X137058298Y-72267633D01*
X134422906Y-72267633D01*
X134409375Y-72271606D01*
X134407938Y-72281599D01*
X134438246Y-72416079D01*
X134441326Y-72425908D01*
X134521451Y-72623236D01*
X134526094Y-72632427D01*
X134637375Y-72814021D01*
X134643458Y-72822332D01*
X134782894Y-72983300D01*
X134790261Y-72990516D01*
X134954115Y-73126549D01*
X134962562Y-73132464D01*
X135031650Y-73172836D01*
X135080374Y-73224475D01*
X135093445Y-73294258D01*
X135066714Y-73360029D01*
X135026265Y-73393385D01*
X135013288Y-73400140D01*
X135009155Y-73403243D01*
X135009152Y-73403245D01*
X134984928Y-73421433D01*
X134834646Y-73534268D01*
X134680310Y-73695771D01*
X134677396Y-73700043D01*
X134677395Y-73700044D01*
X134665085Y-73718090D01*
X134554424Y-73880313D01*
X134460369Y-74082938D01*
X134400670Y-74298203D01*
X134376932Y-74520328D01*
X129374518Y-74520328D01*
X129374518Y-69165509D01*
X129394520Y-69097388D01*
X129448176Y-69050895D01*
X129518450Y-69040791D01*
X129583030Y-69070285D01*
X129589613Y-69076414D01*
X129918403Y-69405204D01*
X129952429Y-69467516D01*
X129955037Y-69486054D01*
X129965639Y-69647796D01*
X130015787Y-69845255D01*
X130101080Y-70030269D01*
X130218661Y-70196642D01*
X130364592Y-70338802D01*
X130369388Y-70342007D01*
X130369391Y-70342009D01*
X130397469Y-70360770D01*
X130533985Y-70451987D01*
X130539288Y-70454265D01*
X130539291Y-70454267D01*
X130628297Y-70492507D01*
X130721169Y-70532408D01*
X130793999Y-70548888D01*
X130914237Y-70576095D01*
X130914242Y-70576096D01*
X130919874Y-70577370D01*
X130925645Y-70577597D01*
X130925647Y-70577597D01*
X130988652Y-70580072D01*
X131123445Y-70585368D01*
X131325065Y-70556135D01*
X131330529Y-70554280D01*
X131330534Y-70554279D01*
X131512509Y-70492507D01*
X131512514Y-70492505D01*
X131517981Y-70490649D01*
X131695733Y-70391103D01*
X131852368Y-70260831D01*
X131982640Y-70104196D01*
X132082186Y-69926444D01*
X132084042Y-69920977D01*
X132084044Y-69920972D01*
X132145816Y-69738997D01*
X132145817Y-69738992D01*
X132147672Y-69733528D01*
X132176905Y-69531908D01*
X132178431Y-69473645D01*
X132175370Y-69440328D01*
X134376932Y-69440328D01*
X134377229Y-69445481D01*
X134377229Y-69445484D01*
X134382692Y-69540223D01*
X134389791Y-69663348D01*
X134390928Y-69668394D01*
X134390929Y-69668400D01*
X134404278Y-69727633D01*
X134438903Y-69881272D01*
X134522947Y-70088249D01*
X134639668Y-70278721D01*
X134785931Y-70447571D01*
X134933291Y-70569912D01*
X134951909Y-70585368D01*
X134957807Y-70590265D01*
X135030659Y-70632836D01*
X135031636Y-70633407D01*
X135080360Y-70685045D01*
X135093431Y-70754828D01*
X135066700Y-70820600D01*
X135026243Y-70853960D01*
X135018138Y-70858179D01*
X135009419Y-70863669D01*
X134839114Y-70991538D01*
X134831407Y-70998381D01*
X134684271Y-71152350D01*
X134677785Y-71160360D01*
X134557779Y-71336282D01*
X134552681Y-71345256D01*
X134463019Y-71538416D01*
X134459456Y-71548103D01*
X134404070Y-71747816D01*
X134405593Y-71756240D01*
X134417973Y-71759633D01*
X137058025Y-71759633D01*
X137071556Y-71755660D01*
X137072861Y-71746580D01*
X137030895Y-71579508D01*
X137027575Y-71569757D01*
X136942653Y-71374447D01*
X136937786Y-71365372D01*
X136822107Y-71186559D01*
X136815817Y-71178390D01*
X136672487Y-71020873D01*
X136664954Y-71013848D01*
X136497820Y-70881855D01*
X136489237Y-70876153D01*
X136452283Y-70855753D01*
X136402312Y-70805320D01*
X136387540Y-70735878D01*
X136412656Y-70669472D01*
X136440008Y-70642865D01*
X136463478Y-70626124D01*
X136619541Y-70514806D01*
X136646617Y-70487825D01*
X136774116Y-70360770D01*
X136777777Y-70357122D01*
X136837275Y-70274322D01*
X136905116Y-70179910D01*
X136908134Y-70175710D01*
X137007111Y-69975444D01*
X137072051Y-69761702D01*
X137101210Y-69540223D01*
X137101292Y-69536873D01*
X137102755Y-69476998D01*
X137102755Y-69476994D01*
X137102837Y-69473633D01*
X137084533Y-69250994D01*
X137030112Y-69034335D01*
X136941035Y-68829473D01*
X136819695Y-68641910D01*
X136669351Y-68476684D01*
X136665300Y-68473485D01*
X136665296Y-68473481D01*
X136498095Y-68341433D01*
X136498091Y-68341431D01*
X136494040Y-68338231D01*
X136476132Y-68328345D01*
X136456951Y-68317757D01*
X136452250Y-68315162D01*
X136402279Y-68264730D01*
X136387507Y-68195287D01*
X136412623Y-68128881D01*
X136439975Y-68102274D01*
X136615009Y-67977425D01*
X136622881Y-67970772D01*
X136773733Y-67820445D01*
X136780411Y-67812598D01*
X136904684Y-67639653D01*
X136909994Y-67630816D01*
X137004351Y-67439900D01*
X137008150Y-67430305D01*
X137070058Y-67226543D01*
X137072236Y-67216470D01*
X137073667Y-67205595D01*
X137071456Y-67191411D01*
X137058298Y-67187633D01*
X134422906Y-67187633D01*
X134409375Y-67191606D01*
X134407938Y-67201599D01*
X134438246Y-67336079D01*
X134441326Y-67345908D01*
X134521451Y-67543236D01*
X134526094Y-67552427D01*
X134637375Y-67734021D01*
X134643458Y-67742332D01*
X134782894Y-67903300D01*
X134790261Y-67910516D01*
X134954115Y-68046549D01*
X134962562Y-68052464D01*
X135031650Y-68092836D01*
X135080374Y-68144475D01*
X135093445Y-68214258D01*
X135066714Y-68280029D01*
X135026265Y-68313385D01*
X135013288Y-68320140D01*
X135009155Y-68323243D01*
X135009152Y-68323245D01*
X134838781Y-68451163D01*
X134834646Y-68454268D01*
X134680310Y-68615771D01*
X134677396Y-68620043D01*
X134677395Y-68620044D01*
X134600096Y-68733360D01*
X134554424Y-68800313D01*
X134460369Y-69002938D01*
X134400670Y-69218203D01*
X134376932Y-69440328D01*
X132175370Y-69440328D01*
X132159790Y-69270771D01*
X132144556Y-69216757D01*
X132106057Y-69080251D01*
X132106056Y-69080249D01*
X132104489Y-69074692D01*
X132087139Y-69039508D01*
X132016938Y-68897155D01*
X132014383Y-68891974D01*
X131971426Y-68834447D01*
X131895940Y-68733360D01*
X131895940Y-68733359D01*
X131892487Y-68728736D01*
X131798559Y-68641910D01*
X131747125Y-68594364D01*
X131747122Y-68594362D01*
X131742885Y-68590445D01*
X131696857Y-68561404D01*
X131575470Y-68484814D01*
X131575465Y-68484812D01*
X131570586Y-68481733D01*
X131381362Y-68406240D01*
X131181548Y-68366494D01*
X131175773Y-68366418D01*
X131175769Y-68366418D01*
X131085666Y-68365239D01*
X131017813Y-68344347D01*
X130998220Y-68328345D01*
X130503087Y-67833212D01*
X130469061Y-67770900D01*
X130466182Y-67744117D01*
X130466182Y-65338451D01*
X130486184Y-65270330D01*
X130539840Y-65223837D01*
X130610114Y-65213733D01*
X130674694Y-65243227D01*
X130680103Y-65248196D01*
X130703092Y-65270591D01*
X130707888Y-65273796D01*
X130707891Y-65273798D01*
X130775831Y-65319194D01*
X130872485Y-65383776D01*
X130877788Y-65386054D01*
X130877791Y-65386056D01*
X130966797Y-65424296D01*
X131059669Y-65464197D01*
X131132499Y-65480677D01*
X131252737Y-65507884D01*
X131252742Y-65507885D01*
X131258374Y-65509159D01*
X131264145Y-65509386D01*
X131264147Y-65509386D01*
X131327152Y-65511861D01*
X131461945Y-65517157D01*
X131663565Y-65487924D01*
X131669029Y-65486069D01*
X131669034Y-65486068D01*
X131851009Y-65424296D01*
X131851014Y-65424294D01*
X131856481Y-65422438D01*
X132034233Y-65322892D01*
X132190868Y-65192620D01*
X132321140Y-65035985D01*
X132420686Y-64858233D01*
X132422542Y-64852766D01*
X132422544Y-64852761D01*
X132484316Y-64670786D01*
X132484317Y-64670781D01*
X132486172Y-64665317D01*
X132515405Y-64463697D01*
X132516931Y-64405434D01*
X132512786Y-64360328D01*
X134376932Y-64360328D01*
X134377229Y-64365481D01*
X134377229Y-64365484D01*
X134382678Y-64459989D01*
X134389791Y-64583348D01*
X134390928Y-64588394D01*
X134390929Y-64588400D01*
X134406976Y-64659603D01*
X134438903Y-64801272D01*
X134522947Y-65008249D01*
X134525646Y-65012653D01*
X134633210Y-65188182D01*
X134639668Y-65198721D01*
X134785931Y-65367571D01*
X134957807Y-65510265D01*
X135031636Y-65553407D01*
X135080360Y-65605045D01*
X135093431Y-65674828D01*
X135066700Y-65740600D01*
X135026243Y-65773960D01*
X135018138Y-65778179D01*
X135009419Y-65783669D01*
X134839114Y-65911538D01*
X134831407Y-65918381D01*
X134684271Y-66072350D01*
X134677785Y-66080360D01*
X134557779Y-66256282D01*
X134552681Y-66265256D01*
X134463019Y-66458416D01*
X134459456Y-66468103D01*
X134404070Y-66667816D01*
X134405593Y-66676240D01*
X134417973Y-66679633D01*
X137058025Y-66679633D01*
X137071556Y-66675660D01*
X137072861Y-66666580D01*
X137030895Y-66499508D01*
X137027575Y-66489757D01*
X136942653Y-66294447D01*
X136937786Y-66285372D01*
X136822107Y-66106559D01*
X136815817Y-66098390D01*
X136672487Y-65940873D01*
X136664954Y-65933848D01*
X136497820Y-65801855D01*
X136489237Y-65796153D01*
X136452283Y-65775753D01*
X136402312Y-65725320D01*
X136387540Y-65655878D01*
X136412656Y-65589472D01*
X136440008Y-65562865D01*
X136504088Y-65517157D01*
X136619541Y-65434806D01*
X136631953Y-65422438D01*
X136774116Y-65280770D01*
X136777777Y-65277122D01*
X136837275Y-65194322D01*
X136905116Y-65099910D01*
X136908134Y-65095710D01*
X136935455Y-65040431D01*
X137004817Y-64900086D01*
X137004818Y-64900084D01*
X137007111Y-64895444D01*
X137072051Y-64681702D01*
X137101210Y-64460223D01*
X137102837Y-64393633D01*
X137084533Y-64170994D01*
X137030112Y-63954335D01*
X136941035Y-63749473D01*
X136844738Y-63600620D01*
X136822503Y-63566250D01*
X136822501Y-63566247D01*
X136819695Y-63561910D01*
X136669351Y-63396684D01*
X136665300Y-63393485D01*
X136665296Y-63393481D01*
X136498095Y-63261433D01*
X136498091Y-63261431D01*
X136494040Y-63258231D01*
X136452250Y-63235162D01*
X136402279Y-63184730D01*
X136387507Y-63115287D01*
X136412623Y-63048881D01*
X136439975Y-63022274D01*
X136615009Y-62897425D01*
X136622881Y-62890772D01*
X136773733Y-62740445D01*
X136780411Y-62732598D01*
X136904684Y-62559653D01*
X136909994Y-62550816D01*
X137004351Y-62359900D01*
X137008150Y-62350305D01*
X137070058Y-62146543D01*
X137072236Y-62136470D01*
X137073667Y-62125595D01*
X137071456Y-62111411D01*
X137058298Y-62107633D01*
X134422906Y-62107633D01*
X134409375Y-62111606D01*
X134407938Y-62121599D01*
X134438246Y-62256079D01*
X134441326Y-62265908D01*
X134521451Y-62463236D01*
X134526094Y-62472427D01*
X134637375Y-62654021D01*
X134643458Y-62662332D01*
X134782894Y-62823300D01*
X134790261Y-62830516D01*
X134954115Y-62966549D01*
X134962562Y-62972464D01*
X135031650Y-63012836D01*
X135080374Y-63064475D01*
X135093445Y-63134258D01*
X135066714Y-63200029D01*
X135026265Y-63233385D01*
X135013288Y-63240140D01*
X135009155Y-63243243D01*
X135009152Y-63243245D01*
X134984928Y-63261433D01*
X134834646Y-63374268D01*
X134680310Y-63535771D01*
X134554424Y-63720313D01*
X134460369Y-63922938D01*
X134400670Y-64138203D01*
X134376932Y-64360328D01*
X132512786Y-64360328D01*
X132498290Y-64202560D01*
X132442989Y-64006481D01*
X132419749Y-63959353D01*
X132355438Y-63828944D01*
X132352883Y-63823763D01*
X132334478Y-63799115D01*
X132234440Y-63665149D01*
X132234440Y-63665148D01*
X132230987Y-63660525D01*
X132206653Y-63638031D01*
X132170208Y-63577103D01*
X132166182Y-63545506D01*
X132166182Y-59280328D01*
X134376932Y-59280328D01*
X134377229Y-59285481D01*
X134377229Y-59285484D01*
X134382692Y-59380223D01*
X134389791Y-59503348D01*
X134390928Y-59508394D01*
X134390929Y-59508400D01*
X134410800Y-59596572D01*
X134438903Y-59721272D01*
X134522947Y-59928249D01*
X134639668Y-60118721D01*
X134785931Y-60287571D01*
X134957807Y-60430265D01*
X135031636Y-60473407D01*
X135080360Y-60525045D01*
X135093431Y-60594828D01*
X135066700Y-60660600D01*
X135026243Y-60693960D01*
X135018138Y-60698179D01*
X135009419Y-60703669D01*
X134839114Y-60831538D01*
X134831407Y-60838381D01*
X134684271Y-60992350D01*
X134677785Y-61000360D01*
X134557779Y-61176282D01*
X134552681Y-61185256D01*
X134463019Y-61378416D01*
X134459456Y-61388103D01*
X134404070Y-61587816D01*
X134405593Y-61596240D01*
X134417973Y-61599633D01*
X137058025Y-61599633D01*
X137071556Y-61595660D01*
X137072861Y-61586580D01*
X137030895Y-61419508D01*
X137027575Y-61409757D01*
X136942653Y-61214447D01*
X136937786Y-61205372D01*
X136822107Y-61026559D01*
X136815817Y-61018390D01*
X136672487Y-60860873D01*
X136664954Y-60853848D01*
X136497820Y-60721855D01*
X136489237Y-60716153D01*
X136452283Y-60695753D01*
X136402312Y-60645320D01*
X136387540Y-60575878D01*
X136412656Y-60509472D01*
X136440008Y-60482865D01*
X136463478Y-60466124D01*
X136619541Y-60354806D01*
X136777777Y-60197122D01*
X136837275Y-60114322D01*
X136905116Y-60019910D01*
X136908134Y-60015710D01*
X137007111Y-59815444D01*
X137072051Y-59601702D01*
X137101210Y-59380223D01*
X137102837Y-59313633D01*
X137084533Y-59090994D01*
X137030112Y-58874335D01*
X136941035Y-58669473D01*
X136819695Y-58481910D01*
X136669351Y-58316684D01*
X136665300Y-58313485D01*
X136665296Y-58313481D01*
X136498095Y-58181433D01*
X136498091Y-58181431D01*
X136494040Y-58178231D01*
X136298470Y-58070271D01*
X136293601Y-58068547D01*
X136293597Y-58068545D01*
X136092768Y-57997428D01*
X136092764Y-57997427D01*
X136087893Y-57995702D01*
X136082800Y-57994795D01*
X136082797Y-57994794D01*
X135873054Y-57957433D01*
X135873048Y-57957432D01*
X135867965Y-57956527D01*
X135794133Y-57955625D01*
X135649762Y-57953861D01*
X135649760Y-57953861D01*
X135644592Y-57953798D01*
X135423772Y-57987588D01*
X135211437Y-58056990D01*
X135013288Y-58160140D01*
X135009155Y-58163243D01*
X135009152Y-58163245D01*
X134838781Y-58291163D01*
X134834646Y-58294268D01*
X134680310Y-58455771D01*
X134554424Y-58640313D01*
X134460369Y-58842938D01*
X134400670Y-59058203D01*
X134376932Y-59280328D01*
X132166182Y-59280328D01*
X132166182Y-52372810D01*
X132167615Y-52353860D01*
X132169806Y-52339461D01*
X132169806Y-52339455D01*
X132170906Y-52332226D01*
X132169832Y-52319013D01*
X132166597Y-52279251D01*
X132166182Y-52269036D01*
X132166182Y-52260909D01*
X132162871Y-52232510D01*
X132162442Y-52228170D01*
X132159787Y-52195521D01*
X132156491Y-52155008D01*
X132154235Y-52148046D01*
X132153039Y-52142058D01*
X132151631Y-52136102D01*
X132150783Y-52128827D01*
X132137946Y-52093461D01*
X132134346Y-52083543D01*
X132129905Y-52012686D01*
X132164477Y-51950676D01*
X132227087Y-51917200D01*
X132297855Y-51922889D01*
X132318245Y-51932890D01*
X132502921Y-52045175D01*
X132508911Y-52048387D01*
X132822317Y-52195197D01*
X132828621Y-52197744D01*
X133156044Y-52309845D01*
X133162595Y-52311699D01*
X133500199Y-52387781D01*
X133506918Y-52388918D01*
X133850773Y-52428096D01*
X133857563Y-52428499D01*
X134203633Y-52430311D01*
X134210434Y-52429979D01*
X134554680Y-52394405D01*
X134561408Y-52393339D01*
X134899804Y-52320792D01*
X134906353Y-52319013D01*
X135234938Y-52210344D01*
X135241280Y-52207858D01*
X135556183Y-52064349D01*
X135562237Y-52061184D01*
X135859788Y-51884512D01*
X135865469Y-51880709D01*
X136142207Y-51672928D01*
X136147431Y-51668544D01*
X136153898Y-51662492D01*
X136161967Y-51648812D01*
X136161940Y-51648088D01*
X136156796Y-51639785D01*
X133689582Y-49172571D01*
X134412068Y-49172571D01*
X134412199Y-49174404D01*
X134416450Y-49181019D01*
X136511213Y-51275782D01*
X136524810Y-51283207D01*
X136534421Y-51276507D01*
X136630505Y-51164799D01*
X136634663Y-51159399D01*
X136830683Y-50874190D01*
X136834230Y-50868379D01*
X136998294Y-50563677D01*
X137001201Y-50557499D01*
X137131404Y-50236850D01*
X137133618Y-50230420D01*
X137228429Y-49897582D01*
X137229936Y-49890952D01*
X137288250Y-49549801D01*
X137289030Y-49543061D01*
X137310255Y-49196015D01*
X137310371Y-49192412D01*
X137310439Y-49173258D01*
X137310347Y-49169633D01*
X137291545Y-48822462D01*
X137290810Y-48815696D01*
X137234884Y-48474177D01*
X137233417Y-48467505D01*
X137140938Y-48134036D01*
X137138764Y-48127573D01*
X137010803Y-47806022D01*
X137007950Y-47799848D01*
X136846003Y-47493984D01*
X136842509Y-47488167D01*
X136648473Y-47201579D01*
X136644359Y-47196160D01*
X136535750Y-47068092D01*
X136522925Y-47059656D01*
X136512600Y-47065709D01*
X134419682Y-49158627D01*
X134412068Y-49172571D01*
X133689582Y-49172571D01*
X131584117Y-47067106D01*
X131570580Y-47059714D01*
X131560879Y-47066502D01*
X131457880Y-47187098D01*
X131453726Y-47192531D01*
X131258716Y-47478404D01*
X131255181Y-47484241D01*
X131092178Y-47789519D01*
X131089302Y-47795688D01*
X130960218Y-48116794D01*
X130958025Y-48123234D01*
X130864374Y-48456407D01*
X130862891Y-48463042D01*
X130805772Y-48804375D01*
X130805013Y-48811147D01*
X130785091Y-49156651D01*
X130785067Y-49163446D01*
X130802577Y-49509098D01*
X130803287Y-49515854D01*
X130858023Y-49857580D01*
X130859460Y-49864228D01*
X130863246Y-49878067D01*
X130861927Y-49949051D01*
X130822440Y-50008054D01*
X130757323Y-50036342D01*
X130687249Y-50024935D01*
X130674476Y-50017875D01*
X130598084Y-49969675D01*
X130509086Y-49913522D01*
X130319862Y-49838029D01*
X130120048Y-49798283D01*
X130114274Y-49798207D01*
X130114270Y-49798207D01*
X130011134Y-49796858D01*
X129916337Y-49795617D01*
X129910640Y-49796596D01*
X129910639Y-49796596D01*
X129729781Y-49827673D01*
X129715552Y-49830118D01*
X129524416Y-49900632D01*
X129519455Y-49903584D01*
X129519454Y-49903584D01*
X129408366Y-49969675D01*
X129349331Y-50004797D01*
X129196160Y-50139124D01*
X129192593Y-50143649D01*
X129192588Y-50143654D01*
X129119119Y-50236850D01*
X129070033Y-50299115D01*
X129067342Y-50304231D01*
X129067340Y-50304233D01*
X129008088Y-50416852D01*
X128958669Y-50467825D01*
X128889536Y-50483988D01*
X128822640Y-50460209D01*
X128803387Y-50442985D01*
X128761825Y-50397309D01*
X128761815Y-50397300D01*
X128758343Y-50393484D01*
X128754292Y-50390285D01*
X128754288Y-50390281D01*
X128587087Y-50258233D01*
X128587083Y-50258231D01*
X128583032Y-50255031D01*
X128541726Y-50232229D01*
X128491757Y-50181797D01*
X128476985Y-50112354D01*
X128502101Y-50045949D01*
X128529453Y-50019342D01*
X128573276Y-49988083D01*
X128708533Y-49891606D01*
X128722120Y-49878067D01*
X128863108Y-49737570D01*
X128866769Y-49733922D01*
X128997126Y-49552510D01*
X129010668Y-49525111D01*
X129093809Y-49356886D01*
X129093810Y-49356884D01*
X129096103Y-49352244D01*
X129143569Y-49196015D01*
X129159538Y-49143456D01*
X129159538Y-49143454D01*
X129161043Y-49138502D01*
X129190202Y-48917023D01*
X129191829Y-48850433D01*
X129173525Y-48627794D01*
X129119104Y-48411135D01*
X129030027Y-48206273D01*
X128908687Y-48018710D01*
X128758343Y-47853484D01*
X128754292Y-47850285D01*
X128754288Y-47850281D01*
X128587087Y-47718233D01*
X128587083Y-47718231D01*
X128583032Y-47715031D01*
X128546701Y-47694975D01*
X128530809Y-47686202D01*
X128387462Y-47607071D01*
X128382593Y-47605347D01*
X128382589Y-47605345D01*
X128181760Y-47534228D01*
X128181756Y-47534227D01*
X128176885Y-47532502D01*
X128171792Y-47531595D01*
X128171789Y-47531594D01*
X127962046Y-47494233D01*
X127962040Y-47494232D01*
X127956957Y-47493327D01*
X127883125Y-47492425D01*
X127738754Y-47490661D01*
X127738752Y-47490661D01*
X127733584Y-47490598D01*
X127512764Y-47524388D01*
X127300429Y-47593790D01*
X127102280Y-47696940D01*
X127098147Y-47700043D01*
X127098144Y-47700045D01*
X126927773Y-47827963D01*
X126923638Y-47831068D01*
X126769302Y-47992571D01*
X126766388Y-47996843D01*
X126766387Y-47996844D01*
X126754077Y-48014890D01*
X126677203Y-48127584D01*
X126661571Y-48150499D01*
X126606660Y-48195502D01*
X126536135Y-48203673D01*
X126472388Y-48172419D01*
X126451691Y-48147935D01*
X126371099Y-48023359D01*
X126364809Y-48015190D01*
X126221479Y-47857673D01*
X126213946Y-47850648D01*
X126046812Y-47718655D01*
X126038225Y-47712950D01*
X125851790Y-47610032D01*
X125842378Y-47605802D01*
X125641632Y-47534713D01*
X125631661Y-47532079D01*
X125560510Y-47519405D01*
X125547213Y-47520865D01*
X125542673Y-47535422D01*
X125542673Y-48978433D01*
X125522671Y-49046554D01*
X125469015Y-49093047D01*
X125416673Y-49104433D01*
X123971898Y-49104433D01*
X123958367Y-49108406D01*
X123956930Y-49118399D01*
X123987238Y-49252879D01*
X123990318Y-49262708D01*
X124070443Y-49460036D01*
X124075086Y-49469227D01*
X124186367Y-49650821D01*
X124192450Y-49659132D01*
X124331886Y-49820100D01*
X124339253Y-49827316D01*
X124503107Y-49963349D01*
X124511554Y-49969264D01*
X124580642Y-50009636D01*
X124629366Y-50061275D01*
X124642437Y-50131058D01*
X124615706Y-50196829D01*
X124575257Y-50230185D01*
X124562280Y-50236940D01*
X124558147Y-50240043D01*
X124558144Y-50240045D01*
X124472654Y-50304233D01*
X124383638Y-50371068D01*
X124229302Y-50532571D01*
X124103416Y-50717113D01*
X124056389Y-50818425D01*
X124016001Y-50905434D01*
X124009361Y-50919738D01*
X123949662Y-51135003D01*
X123925924Y-51357128D01*
X123938783Y-51580148D01*
X123939920Y-51585194D01*
X123939921Y-51585200D01*
X123954257Y-51648812D01*
X123987895Y-51798072D01*
X124071939Y-52005049D01*
X124120040Y-52083543D01*
X124185964Y-52191121D01*
X124188660Y-52195521D01*
X124334923Y-52364371D01*
X124506799Y-52507065D01*
X124567869Y-52542751D01*
X124580118Y-52549909D01*
X124628842Y-52601547D01*
X124641913Y-52671330D01*
X124615182Y-52737102D01*
X124574728Y-52770460D01*
X124562280Y-52776940D01*
X124558147Y-52780043D01*
X124558144Y-52780045D01*
X124449122Y-52861901D01*
X124383638Y-52911068D01*
X124357403Y-52938521D01*
X124253516Y-53047233D01*
X124229302Y-53072571D01*
X124103416Y-53257113D01*
X124101240Y-53261802D01*
X124101236Y-53261808D01*
X124069901Y-53329315D01*
X124023077Y-53382682D01*
X123954833Y-53402263D01*
X123886838Y-53381839D01*
X123853914Y-53347992D01*
X123852883Y-53348762D01*
X123734440Y-53190148D01*
X123734440Y-53190147D01*
X123730987Y-53185524D01*
X123613418Y-53076844D01*
X123585625Y-53051152D01*
X123585622Y-53051150D01*
X123581385Y-53047233D01*
X123520954Y-53009104D01*
X123413970Y-52941602D01*
X123413965Y-52941600D01*
X123409086Y-52938521D01*
X123219862Y-52863028D01*
X123020048Y-52823282D01*
X123014274Y-52823206D01*
X123014270Y-52823206D01*
X122911134Y-52821857D01*
X122816337Y-52820616D01*
X122810640Y-52821595D01*
X122810639Y-52821595D01*
X122740029Y-52833728D01*
X122615552Y-52855117D01*
X122424416Y-52925631D01*
X122419455Y-52928583D01*
X122419454Y-52928583D01*
X122362079Y-52962718D01*
X122249331Y-53029796D01*
X122096160Y-53164123D01*
X122092593Y-53168648D01*
X122092588Y-53168653D01*
X122022852Y-53257113D01*
X121970033Y-53324114D01*
X121967344Y-53329225D01*
X121967342Y-53329228D01*
X121957470Y-53347992D01*
X121875174Y-53504411D01*
X121814760Y-53698976D01*
X121790814Y-53901292D01*
X115527672Y-53901292D01*
X115527672Y-51650839D01*
X116955202Y-51650839D01*
X116963339Y-51661845D01*
X117223599Y-51861549D01*
X117229198Y-51865383D01*
X117524922Y-52045186D01*
X117530912Y-52048398D01*
X117844318Y-52195208D01*
X117850622Y-52197755D01*
X118178045Y-52309856D01*
X118184596Y-52311710D01*
X118522200Y-52387792D01*
X118528919Y-52388929D01*
X118872774Y-52428107D01*
X118879564Y-52428510D01*
X119225634Y-52430322D01*
X119232435Y-52429990D01*
X119576681Y-52394416D01*
X119583409Y-52393350D01*
X119921805Y-52320803D01*
X119928354Y-52319024D01*
X120256939Y-52210355D01*
X120263281Y-52207869D01*
X120578184Y-52064360D01*
X120584238Y-52061195D01*
X120881789Y-51884523D01*
X120887470Y-51880720D01*
X121164208Y-51672939D01*
X121169432Y-51668555D01*
X121175899Y-51662503D01*
X121183968Y-51648823D01*
X121183941Y-51648099D01*
X121178797Y-51639796D01*
X119082473Y-49543472D01*
X119068529Y-49535858D01*
X119066696Y-49535989D01*
X119060081Y-49540240D01*
X116962083Y-51638238D01*
X116955202Y-51650839D01*
X115527672Y-51650839D01*
X115527672Y-49163457D01*
X115807068Y-49163457D01*
X115824578Y-49509109D01*
X115825288Y-49515865D01*
X115880024Y-49857591D01*
X115881463Y-49864246D01*
X115972783Y-50198054D01*
X115974932Y-50204515D01*
X116101771Y-50526517D01*
X116104602Y-50532700D01*
X116265476Y-50839120D01*
X116268959Y-50844963D01*
X116461982Y-51132211D01*
X116466085Y-51137655D01*
X116581572Y-51274801D01*
X116594311Y-51283244D01*
X116604755Y-51277146D01*
X118697639Y-49184262D01*
X118704017Y-49172582D01*
X119434069Y-49172582D01*
X119434200Y-49174415D01*
X119438451Y-49181030D01*
X121533214Y-51275793D01*
X121546811Y-51283218D01*
X121556422Y-51276518D01*
X121652506Y-51164810D01*
X121656664Y-51159410D01*
X121852684Y-50874201D01*
X121856231Y-50868390D01*
X122020295Y-50563688D01*
X122023202Y-50557510D01*
X122153405Y-50236861D01*
X122155619Y-50230431D01*
X122250430Y-49897593D01*
X122251937Y-49890963D01*
X122310251Y-49549812D01*
X122311031Y-49543072D01*
X122332256Y-49196026D01*
X122332372Y-49192423D01*
X122332440Y-49173269D01*
X122332348Y-49169644D01*
X122313546Y-48822473D01*
X122312811Y-48815707D01*
X122274968Y-48584616D01*
X123953062Y-48584616D01*
X123954585Y-48593040D01*
X123966965Y-48596433D01*
X125016558Y-48596433D01*
X125031797Y-48591958D01*
X125033002Y-48590568D01*
X125034673Y-48582885D01*
X125034673Y-47533535D01*
X125030755Y-47520191D01*
X125016479Y-47518204D01*
X124977997Y-47524093D01*
X124967961Y-47526484D01*
X124765541Y-47592645D01*
X124756032Y-47596642D01*
X124567136Y-47694975D01*
X124558411Y-47700469D01*
X124388106Y-47828338D01*
X124380399Y-47835181D01*
X124233263Y-47989150D01*
X124226777Y-47997160D01*
X124106771Y-48173082D01*
X124101673Y-48182056D01*
X124012011Y-48375216D01*
X124008448Y-48384903D01*
X123953062Y-48584616D01*
X122274968Y-48584616D01*
X122256885Y-48474188D01*
X122255418Y-48467516D01*
X122162939Y-48134047D01*
X122160765Y-48127584D01*
X122032804Y-47806033D01*
X122029951Y-47799859D01*
X121868004Y-47493995D01*
X121864510Y-47488178D01*
X121670474Y-47201590D01*
X121666360Y-47196171D01*
X121557751Y-47068103D01*
X121544926Y-47059667D01*
X121534601Y-47065720D01*
X119441683Y-49158638D01*
X119434069Y-49172582D01*
X118704017Y-49172582D01*
X118705253Y-49170318D01*
X118705122Y-49168485D01*
X118700871Y-49161870D01*
X116606118Y-47067117D01*
X116592581Y-47059725D01*
X116582880Y-47066513D01*
X116479881Y-47187109D01*
X116475727Y-47192542D01*
X116280717Y-47478415D01*
X116277182Y-47484252D01*
X116114179Y-47789530D01*
X116111303Y-47795699D01*
X115982219Y-48116805D01*
X115980026Y-48123245D01*
X115886375Y-48456418D01*
X115884892Y-48463053D01*
X115827773Y-48804386D01*
X115827014Y-48811158D01*
X115807092Y-49156662D01*
X115807068Y-49163457D01*
X115527672Y-49163457D01*
X115527672Y-48172674D01*
X115529172Y-48153289D01*
X115531477Y-48138488D01*
X115531477Y-48138485D01*
X115532858Y-48129616D01*
X115530613Y-48112447D01*
X115529780Y-48088507D01*
X115545382Y-47830576D01*
X115547216Y-47815472D01*
X115565622Y-47715031D01*
X115598712Y-47534467D01*
X115602351Y-47519699D01*
X115610365Y-47493984D01*
X115687347Y-47246938D01*
X115692742Y-47232716D01*
X115709190Y-47196171D01*
X115809988Y-46972206D01*
X115817057Y-46958737D01*
X115964854Y-46714251D01*
X115973497Y-46701729D01*
X115979800Y-46693684D01*
X116954983Y-46693684D01*
X116955018Y-46694525D01*
X116960071Y-46702650D01*
X119056849Y-48799428D01*
X119070793Y-48807042D01*
X119072626Y-48806911D01*
X119079241Y-48802660D01*
X121177092Y-46704809D01*
X121183173Y-46693673D01*
X131932982Y-46693673D01*
X131933017Y-46694514D01*
X131938070Y-46702639D01*
X134034848Y-48799417D01*
X134048792Y-48807031D01*
X134050625Y-48806900D01*
X134057240Y-48802649D01*
X136155091Y-46704798D01*
X136162705Y-46690854D01*
X136162637Y-46689899D01*
X136158684Y-46683921D01*
X135884327Y-46474918D01*
X135878701Y-46471094D01*
X135582366Y-46292333D01*
X135576354Y-46289136D01*
X135262434Y-46143419D01*
X135256134Y-46140899D01*
X134928324Y-46029942D01*
X134921746Y-46028106D01*
X134583897Y-45953207D01*
X134577159Y-45952091D01*
X134233175Y-45914114D01*
X134226395Y-45913735D01*
X133880296Y-45913132D01*
X133873523Y-45913487D01*
X133529386Y-45950264D01*
X133522676Y-45951351D01*
X133184543Y-46025076D01*
X133177968Y-46026887D01*
X132849777Y-46136698D01*
X132843455Y-46139201D01*
X132529048Y-46283812D01*
X132523005Y-46286998D01*
X132226062Y-46464715D01*
X132220416Y-46468524D01*
X131944386Y-46677283D01*
X131940800Y-46680314D01*
X131932982Y-46693673D01*
X121183173Y-46693673D01*
X121184706Y-46690865D01*
X121184638Y-46689910D01*
X121180685Y-46683932D01*
X120906328Y-46474929D01*
X120900702Y-46471105D01*
X120604367Y-46292344D01*
X120598355Y-46289147D01*
X120284435Y-46143430D01*
X120278135Y-46140910D01*
X119950325Y-46029953D01*
X119943747Y-46028117D01*
X119605898Y-45953218D01*
X119599160Y-45952102D01*
X119255176Y-45914125D01*
X119248396Y-45913746D01*
X118902297Y-45913143D01*
X118895524Y-45913498D01*
X118551387Y-45950275D01*
X118544677Y-45951362D01*
X118206544Y-46025087D01*
X118199969Y-46026898D01*
X117871778Y-46136709D01*
X117865456Y-46139212D01*
X117551049Y-46283823D01*
X117545006Y-46287009D01*
X117248063Y-46464726D01*
X117242417Y-46468535D01*
X116966387Y-46677294D01*
X116962801Y-46680325D01*
X116954983Y-46693684D01*
X115979800Y-46693684D01*
X116149688Y-46476839D01*
X116159778Y-46465451D01*
X116361777Y-46263452D01*
X116373165Y-46253362D01*
X116598055Y-46077171D01*
X116610577Y-46068528D01*
X116855063Y-45920731D01*
X116868532Y-45913662D01*
X117129045Y-45796415D01*
X117143264Y-45791021D01*
X117416031Y-45706024D01*
X117430793Y-45702386D01*
X117641024Y-45663860D01*
X117711798Y-45650890D01*
X117726902Y-45649056D01*
X117977601Y-45633891D01*
X118004311Y-45635148D01*
X118004531Y-45635151D01*
X118013402Y-45636532D01*
X118022304Y-45635368D01*
X118022307Y-45635368D01*
X118044923Y-45632410D01*
X118061261Y-45631346D01*
X135048342Y-45631346D01*
X135067727Y-45632846D01*
G37*
%TD.AperFunction*%
%TD*%
%TA.AperFunction,Conductor*%
%TO.N,GND*%
G36*
X108857667Y-45630934D02*
G01*
X108872545Y-45633251D01*
X108872549Y-45633251D01*
X108881418Y-45634632D01*
X108898587Y-45632387D01*
X108922527Y-45631554D01*
X109180458Y-45647156D01*
X109195562Y-45648990D01*
X109266336Y-45661960D01*
X109476567Y-45700486D01*
X109491329Y-45704124D01*
X109764096Y-45789121D01*
X109778315Y-45794515D01*
X110038828Y-45911762D01*
X110052297Y-45918831D01*
X110296783Y-46066628D01*
X110309305Y-46075271D01*
X110534195Y-46251462D01*
X110545583Y-46261552D01*
X110747582Y-46463551D01*
X110757672Y-46474939D01*
X110933863Y-46699829D01*
X110942506Y-46712351D01*
X111090303Y-46956837D01*
X111097372Y-46970306D01*
X111214618Y-47230816D01*
X111220013Y-47245038D01*
X111295778Y-47488175D01*
X111305009Y-47517799D01*
X111308648Y-47532567D01*
X111347174Y-47742798D01*
X111360144Y-47813572D01*
X111361978Y-47828676D01*
X111377143Y-48079375D01*
X111375886Y-48106085D01*
X111375883Y-48106305D01*
X111374502Y-48115176D01*
X111375666Y-48124078D01*
X111375666Y-48124081D01*
X111378624Y-48146697D01*
X111379688Y-48163035D01*
X111379688Y-88208538D01*
X111378188Y-88227923D01*
X111376163Y-88240931D01*
X111374502Y-88251596D01*
X111376702Y-88268420D01*
X111376747Y-88268763D01*
X111377580Y-88292705D01*
X111361978Y-88550636D01*
X111360144Y-88565740D01*
X111308650Y-88846739D01*
X111305010Y-88861507D01*
X111221940Y-89128088D01*
X111220014Y-89134270D01*
X111214619Y-89148493D01*
X111125240Y-89347087D01*
X111097374Y-89409002D01*
X111090303Y-89422475D01*
X110942506Y-89666961D01*
X110933863Y-89679483D01*
X110757672Y-89904373D01*
X110747582Y-89915761D01*
X110545583Y-90117760D01*
X110534195Y-90127850D01*
X110309305Y-90304041D01*
X110296783Y-90312684D01*
X110052297Y-90460481D01*
X110038828Y-90467550D01*
X109778318Y-90584796D01*
X109764096Y-90590191D01*
X109491329Y-90675188D01*
X109476567Y-90678826D01*
X109266336Y-90717352D01*
X109195562Y-90730322D01*
X109180458Y-90732156D01*
X108929759Y-90747321D01*
X108903049Y-90746064D01*
X108902829Y-90746061D01*
X108893958Y-90744680D01*
X108885056Y-90745844D01*
X108885053Y-90745844D01*
X108862437Y-90748802D01*
X108846099Y-90749866D01*
X91859018Y-90749866D01*
X91839633Y-90748366D01*
X91824832Y-90746061D01*
X91824829Y-90746061D01*
X91815960Y-90744680D01*
X91798791Y-90746925D01*
X91774851Y-90747758D01*
X91516920Y-90732156D01*
X91501816Y-90730322D01*
X91431042Y-90717352D01*
X91220811Y-90678826D01*
X91206049Y-90675188D01*
X90933282Y-90590191D01*
X90919060Y-90584796D01*
X90658550Y-90467550D01*
X90645081Y-90460481D01*
X90400595Y-90312684D01*
X90388073Y-90304041D01*
X90163183Y-90127850D01*
X90151795Y-90117760D01*
X89949796Y-89915761D01*
X89939706Y-89904373D01*
X89769604Y-89687255D01*
X90745232Y-89687255D01*
X90753368Y-89698260D01*
X91013629Y-89897964D01*
X91019228Y-89901798D01*
X91314952Y-90081601D01*
X91320942Y-90084813D01*
X91634348Y-90231623D01*
X91640652Y-90234170D01*
X91968074Y-90346271D01*
X91974625Y-90348125D01*
X92312230Y-90424207D01*
X92318949Y-90425344D01*
X92662803Y-90464522D01*
X92669593Y-90464925D01*
X93015663Y-90466737D01*
X93022464Y-90466405D01*
X93366710Y-90430831D01*
X93373438Y-90429765D01*
X93711834Y-90357218D01*
X93718383Y-90355439D01*
X94046968Y-90246770D01*
X94053310Y-90244284D01*
X94368213Y-90100775D01*
X94374267Y-90097610D01*
X94671817Y-89920938D01*
X94677498Y-89917135D01*
X94954236Y-89709355D01*
X94959460Y-89704971D01*
X94965927Y-89698919D01*
X94973996Y-89685239D01*
X94973969Y-89684515D01*
X94968825Y-89676212D01*
X92872500Y-87579886D01*
X92858559Y-87572274D01*
X92856724Y-87572405D01*
X92850110Y-87576656D01*
X90752113Y-89674654D01*
X90745232Y-89687255D01*
X89769604Y-89687255D01*
X89763515Y-89679483D01*
X89754872Y-89666961D01*
X89607075Y-89422475D01*
X89600004Y-89409002D01*
X89572139Y-89347087D01*
X89482759Y-89148493D01*
X89477364Y-89134270D01*
X89475438Y-89128088D01*
X89392368Y-88861507D01*
X89388728Y-88846739D01*
X89337234Y-88565740D01*
X89335400Y-88550636D01*
X89320235Y-88299937D01*
X89321492Y-88273227D01*
X89321495Y-88273007D01*
X89322876Y-88264136D01*
X89321237Y-88251596D01*
X89318754Y-88232615D01*
X89317690Y-88216277D01*
X89317690Y-87199873D01*
X89597098Y-87199873D01*
X89614608Y-87545525D01*
X89615318Y-87552281D01*
X89670054Y-87894007D01*
X89671493Y-87900662D01*
X89762813Y-88234470D01*
X89764962Y-88240931D01*
X89891801Y-88562932D01*
X89894632Y-88569115D01*
X90055502Y-88875529D01*
X90058996Y-88881390D01*
X90252008Y-89168620D01*
X90256118Y-89174074D01*
X90371601Y-89311215D01*
X90384340Y-89319659D01*
X90394783Y-89313562D01*
X92487670Y-87220676D01*
X92494047Y-87208997D01*
X93224098Y-87208997D01*
X93224229Y-87210832D01*
X93228480Y-87217446D01*
X95323243Y-89312208D01*
X95336839Y-89319633D01*
X95346452Y-89312932D01*
X95442534Y-89201226D01*
X95446692Y-89195826D01*
X95642712Y-88910617D01*
X95646259Y-88904806D01*
X95810323Y-88600104D01*
X95813230Y-88593926D01*
X95943433Y-88273277D01*
X95945647Y-88266847D01*
X96040458Y-87934009D01*
X96041965Y-87927379D01*
X96100279Y-87586228D01*
X96101059Y-87579488D01*
X96122284Y-87232442D01*
X96122400Y-87228839D01*
X96122468Y-87209685D01*
X96122376Y-87206060D01*
X96103574Y-86858889D01*
X96102839Y-86852123D01*
X96046913Y-86510604D01*
X96045446Y-86503932D01*
X95952967Y-86170464D01*
X95950793Y-86164001D01*
X95822831Y-85842448D01*
X95819975Y-85836268D01*
X95658037Y-85530420D01*
X95654537Y-85524595D01*
X95460501Y-85238005D01*
X95456394Y-85232595D01*
X95347779Y-85104521D01*
X95334954Y-85096085D01*
X95324630Y-85102137D01*
X93231710Y-87195056D01*
X93224098Y-87208997D01*
X92494047Y-87208997D01*
X92495282Y-87206735D01*
X92495151Y-87204900D01*
X92490900Y-87198286D01*
X90396148Y-85103535D01*
X90382611Y-85096143D01*
X90372909Y-85102931D01*
X90269898Y-85223542D01*
X90265765Y-85228947D01*
X90070741Y-85514842D01*
X90067220Y-85520655D01*
X89904212Y-85825940D01*
X89901326Y-85832130D01*
X89772248Y-86153223D01*
X89770057Y-86159658D01*
X89676405Y-86492834D01*
X89674922Y-86499469D01*
X89617803Y-86840802D01*
X89617044Y-86847574D01*
X89597122Y-87193078D01*
X89597098Y-87199873D01*
X89317690Y-87199873D01*
X89317690Y-84730101D01*
X90745013Y-84730101D01*
X90745047Y-84730940D01*
X90750102Y-84739067D01*
X92846880Y-86835846D01*
X92860821Y-86843458D01*
X92862656Y-86843327D01*
X92869270Y-86839076D01*
X94967120Y-84741225D01*
X94974734Y-84727281D01*
X94974666Y-84726327D01*
X94970712Y-84720348D01*
X94696354Y-84511343D01*
X94690730Y-84507521D01*
X94394389Y-84328757D01*
X94388382Y-84325564D01*
X94074479Y-84179854D01*
X94068156Y-84177325D01*
X93740344Y-84066367D01*
X93733786Y-84064537D01*
X93395922Y-83989633D01*
X93389193Y-83988519D01*
X93045205Y-83950542D01*
X93038425Y-83950163D01*
X92692326Y-83949560D01*
X92685553Y-83949915D01*
X92341416Y-83986692D01*
X92334706Y-83987779D01*
X91996574Y-84061504D01*
X91989999Y-84063315D01*
X91661807Y-84173126D01*
X91655485Y-84175629D01*
X91341078Y-84320240D01*
X91335035Y-84323426D01*
X91038096Y-84501140D01*
X91032436Y-84504958D01*
X90756423Y-84713707D01*
X90752831Y-84716741D01*
X90745013Y-84730101D01*
X89317690Y-84730101D01*
X89317690Y-82071952D01*
X94050976Y-82071952D01*
X94098467Y-82249191D01*
X94102213Y-82259483D01*
X94194289Y-82456941D01*
X94199772Y-82466437D01*
X94324731Y-82644897D01*
X94331787Y-82653305D01*
X94485828Y-82807346D01*
X94494236Y-82814402D01*
X94672696Y-82939361D01*
X94682192Y-82944844D01*
X94879650Y-83036920D01*
X94889942Y-83040666D01*
X95062206Y-83086824D01*
X95076302Y-83086488D01*
X95079703Y-83078546D01*
X95079703Y-83073397D01*
X95587703Y-83073397D01*
X95591676Y-83086928D01*
X95600225Y-83088157D01*
X95777464Y-83040666D01*
X95787756Y-83036920D01*
X95985214Y-82944844D01*
X95994710Y-82939361D01*
X96173170Y-82814402D01*
X96181578Y-82807346D01*
X96335619Y-82653305D01*
X96342675Y-82644897D01*
X96467634Y-82466437D01*
X96473117Y-82456941D01*
X96565193Y-82259483D01*
X96568939Y-82249191D01*
X96615097Y-82076927D01*
X96614761Y-82062831D01*
X96606819Y-82059430D01*
X95605818Y-82059430D01*
X95590579Y-82063905D01*
X95589374Y-82065295D01*
X95587703Y-82072978D01*
X95587703Y-83073397D01*
X95079703Y-83073397D01*
X95079703Y-82077545D01*
X95075228Y-82062306D01*
X95073838Y-82061101D01*
X95066155Y-82059430D01*
X94065736Y-82059430D01*
X94052205Y-82063403D01*
X94050976Y-82071952D01*
X89317690Y-82071952D01*
X89317690Y-81533933D01*
X94052309Y-81533933D01*
X94052645Y-81548029D01*
X94060587Y-81551430D01*
X95061588Y-81551430D01*
X95076827Y-81546955D01*
X95078032Y-81545565D01*
X95079703Y-81537882D01*
X95079703Y-81533315D01*
X95587703Y-81533315D01*
X95592178Y-81548554D01*
X95593568Y-81549759D01*
X95601251Y-81551430D01*
X96601670Y-81551430D01*
X96615201Y-81547457D01*
X96616430Y-81538908D01*
X96568939Y-81361669D01*
X96565193Y-81351377D01*
X96473117Y-81153919D01*
X96467634Y-81144423D01*
X96342675Y-80965963D01*
X96335619Y-80957555D01*
X96181578Y-80803514D01*
X96173170Y-80796458D01*
X95994710Y-80671499D01*
X95985214Y-80666016D01*
X95787756Y-80573940D01*
X95777464Y-80570194D01*
X95605200Y-80524036D01*
X95591104Y-80524372D01*
X95587703Y-80532314D01*
X95587703Y-81533315D01*
X95079703Y-81533315D01*
X95079703Y-80537463D01*
X95075730Y-80523932D01*
X95067181Y-80522703D01*
X94889942Y-80570194D01*
X94879650Y-80573940D01*
X94682192Y-80666016D01*
X94672696Y-80671499D01*
X94494236Y-80796458D01*
X94485828Y-80803514D01*
X94331787Y-80957555D01*
X94324731Y-80965963D01*
X94199772Y-81144423D01*
X94194289Y-81153919D01*
X94102213Y-81351377D01*
X94098467Y-81361669D01*
X94052309Y-81533933D01*
X89317690Y-81533933D01*
X89317690Y-77060328D01*
X89804934Y-77060328D01*
X89817793Y-77283348D01*
X89818930Y-77288394D01*
X89818931Y-77288400D01*
X89833132Y-77351411D01*
X89866905Y-77501272D01*
X89916576Y-77623598D01*
X89945847Y-77695683D01*
X89950949Y-77708249D01*
X89970290Y-77739811D01*
X90044463Y-77860850D01*
X90067670Y-77898721D01*
X90213933Y-78067571D01*
X90385809Y-78210265D01*
X90578683Y-78322971D01*
X90787375Y-78402663D01*
X90792443Y-78403694D01*
X90792446Y-78403695D01*
X90887545Y-78423043D01*
X91006280Y-78447200D01*
X91011455Y-78447390D01*
X91011457Y-78447390D01*
X91224356Y-78455197D01*
X91224360Y-78455197D01*
X91229520Y-78455386D01*
X91234640Y-78454730D01*
X91234642Y-78454730D01*
X91445971Y-78427658D01*
X91445972Y-78427658D01*
X91451099Y-78427001D01*
X91456049Y-78425516D01*
X91660112Y-78364294D01*
X91660117Y-78364292D01*
X91665067Y-78362807D01*
X91865677Y-78264529D01*
X92047543Y-78134806D01*
X92063131Y-78119273D01*
X92128892Y-78053740D01*
X92205779Y-77977122D01*
X92239795Y-77929784D01*
X92255017Y-77908600D01*
X92311012Y-77864952D01*
X92357340Y-77856126D01*
X95470668Y-77856126D01*
X95538789Y-77876128D01*
X95585282Y-77929784D01*
X95595386Y-78000058D01*
X95569618Y-78060132D01*
X95557501Y-78075502D01*
X95460051Y-78199117D01*
X95457362Y-78204228D01*
X95457360Y-78204231D01*
X95425636Y-78264529D01*
X95365192Y-78379414D01*
X95304778Y-78573979D01*
X95280832Y-78776295D01*
X95294157Y-78979587D01*
X95344305Y-79177046D01*
X95429598Y-79362060D01*
X95547179Y-79528433D01*
X95693110Y-79670593D01*
X95697906Y-79673798D01*
X95697909Y-79673800D01*
X95703912Y-79677811D01*
X95862503Y-79783778D01*
X95867806Y-79786056D01*
X95867809Y-79786058D01*
X95956815Y-79824298D01*
X96049687Y-79864199D01*
X96122517Y-79880679D01*
X96242755Y-79907886D01*
X96242760Y-79907887D01*
X96248392Y-79909161D01*
X96254163Y-79909388D01*
X96254165Y-79909388D01*
X96317170Y-79911863D01*
X96451963Y-79917159D01*
X96653583Y-79887926D01*
X96659047Y-79886071D01*
X96659052Y-79886070D01*
X96841027Y-79824298D01*
X96841032Y-79824296D01*
X96846499Y-79822440D01*
X97024251Y-79722894D01*
X97175548Y-79597062D01*
X97240711Y-79568881D01*
X97256116Y-79567936D01*
X97525674Y-79567936D01*
X97593795Y-79587938D01*
X97614769Y-79604841D01*
X98279286Y-80269358D01*
X98313312Y-80331670D01*
X98316191Y-80358453D01*
X98316191Y-87453577D01*
X98296189Y-87521698D01*
X98265845Y-87554336D01*
X98140346Y-87648563D01*
X97980330Y-87816010D01*
X97849810Y-88007345D01*
X97752293Y-88217427D01*
X97690398Y-88440615D01*
X97665786Y-88670915D01*
X97666083Y-88676068D01*
X97666083Y-88676071D01*
X97677921Y-88881390D01*
X97679118Y-88902143D01*
X97680255Y-88907189D01*
X97680256Y-88907195D01*
X97712432Y-89049969D01*
X97730037Y-89128088D01*
X97731979Y-89132870D01*
X97731980Y-89132874D01*
X97804397Y-89311215D01*
X97817175Y-89342683D01*
X97938192Y-89540165D01*
X98089838Y-89715230D01*
X98268040Y-89863176D01*
X98468013Y-89980030D01*
X98684385Y-90062655D01*
X98689451Y-90063686D01*
X98689452Y-90063686D01*
X98742537Y-90074486D01*
X98911347Y-90108831D01*
X99040780Y-90113577D01*
X99137640Y-90117129D01*
X99137644Y-90117129D01*
X99142804Y-90117318D01*
X99147924Y-90116662D01*
X99147926Y-90116662D01*
X99221857Y-90107191D01*
X99372538Y-90087888D01*
X99377486Y-90086403D01*
X99377493Y-90086402D01*
X99589438Y-90022815D01*
X99594381Y-90021332D01*
X99674927Y-89981873D01*
X99797740Y-89921708D01*
X99797743Y-89921706D01*
X99802375Y-89919437D01*
X99990934Y-89784940D01*
X100036000Y-89740031D01*
X100098372Y-89706115D01*
X100169178Y-89711303D01*
X100225940Y-89753949D01*
X100242922Y-89785053D01*
X100268076Y-89852151D01*
X100355430Y-89968707D01*
X100471986Y-90056061D01*
X100608375Y-90107191D01*
X100670557Y-90113946D01*
X102566825Y-90113946D01*
X102629007Y-90107191D01*
X102765396Y-90056061D01*
X102881952Y-89968707D01*
X102969306Y-89852151D01*
X103020436Y-89715762D01*
X103023533Y-89687255D01*
X105723230Y-89687255D01*
X105731366Y-89698260D01*
X105991627Y-89897964D01*
X105997226Y-89901798D01*
X106292950Y-90081601D01*
X106298940Y-90084813D01*
X106612346Y-90231623D01*
X106618650Y-90234170D01*
X106946072Y-90346271D01*
X106952623Y-90348125D01*
X107290228Y-90424207D01*
X107296947Y-90425344D01*
X107640801Y-90464522D01*
X107647591Y-90464925D01*
X107993661Y-90466737D01*
X108000462Y-90466405D01*
X108344708Y-90430831D01*
X108351436Y-90429765D01*
X108689832Y-90357218D01*
X108696381Y-90355439D01*
X109024966Y-90246770D01*
X109031308Y-90244284D01*
X109346211Y-90100775D01*
X109352265Y-90097610D01*
X109649815Y-89920938D01*
X109655496Y-89917135D01*
X109932234Y-89709355D01*
X109937458Y-89704971D01*
X109943925Y-89698919D01*
X109951994Y-89685239D01*
X109951967Y-89684515D01*
X109946823Y-89676212D01*
X107850498Y-87579886D01*
X107836557Y-87572274D01*
X107834722Y-87572405D01*
X107828108Y-87576656D01*
X105730111Y-89674654D01*
X105723230Y-89687255D01*
X103023533Y-89687255D01*
X103027191Y-89653580D01*
X103027191Y-87757312D01*
X103020436Y-87695130D01*
X102969306Y-87558741D01*
X102881952Y-87442185D01*
X102765396Y-87354831D01*
X102629007Y-87303701D01*
X102566825Y-87296946D01*
X102507191Y-87296946D01*
X102439070Y-87276944D01*
X102392577Y-87223288D01*
X102387484Y-87199873D01*
X104575096Y-87199873D01*
X104592606Y-87545525D01*
X104593316Y-87552281D01*
X104648052Y-87894007D01*
X104649491Y-87900662D01*
X104740811Y-88234470D01*
X104742960Y-88240931D01*
X104869799Y-88562932D01*
X104872630Y-88569115D01*
X105033500Y-88875529D01*
X105036994Y-88881390D01*
X105230006Y-89168620D01*
X105234116Y-89174074D01*
X105349599Y-89311215D01*
X105362338Y-89319659D01*
X105372781Y-89313562D01*
X107465668Y-87220676D01*
X107472045Y-87208997D01*
X108202096Y-87208997D01*
X108202227Y-87210832D01*
X108206478Y-87217446D01*
X110301241Y-89312208D01*
X110314837Y-89319633D01*
X110324450Y-89312932D01*
X110420532Y-89201226D01*
X110424690Y-89195826D01*
X110620710Y-88910617D01*
X110624257Y-88904806D01*
X110788321Y-88600104D01*
X110791228Y-88593926D01*
X110921431Y-88273277D01*
X110923645Y-88266847D01*
X111018456Y-87934009D01*
X111019963Y-87927379D01*
X111078277Y-87586228D01*
X111079057Y-87579488D01*
X111100282Y-87232442D01*
X111100398Y-87228839D01*
X111100466Y-87209685D01*
X111100374Y-87206060D01*
X111081572Y-86858889D01*
X111080837Y-86852123D01*
X111024911Y-86510604D01*
X111023444Y-86503932D01*
X110930965Y-86170464D01*
X110928791Y-86164001D01*
X110800829Y-85842448D01*
X110797973Y-85836268D01*
X110636035Y-85530420D01*
X110632535Y-85524595D01*
X110438499Y-85238005D01*
X110434392Y-85232595D01*
X110325777Y-85104521D01*
X110312952Y-85096085D01*
X110302628Y-85102137D01*
X108209708Y-87195056D01*
X108202096Y-87208997D01*
X107472045Y-87208997D01*
X107473280Y-87206735D01*
X107473149Y-87204900D01*
X107468898Y-87198286D01*
X105374146Y-85103535D01*
X105360609Y-85096143D01*
X105350907Y-85102931D01*
X105247896Y-85223542D01*
X105243763Y-85228947D01*
X105048739Y-85514842D01*
X105045218Y-85520655D01*
X104882210Y-85825940D01*
X104879324Y-85832130D01*
X104750246Y-86153223D01*
X104748055Y-86159658D01*
X104654403Y-86492834D01*
X104652920Y-86499469D01*
X104595801Y-86840802D01*
X104595042Y-86847574D01*
X104575120Y-87193078D01*
X104575096Y-87199873D01*
X102387484Y-87199873D01*
X102381191Y-87170946D01*
X102381191Y-85542859D01*
X102401193Y-85474738D01*
X102410317Y-85462290D01*
X102532451Y-85315440D01*
X102536149Y-85310994D01*
X102635695Y-85133242D01*
X102637551Y-85127775D01*
X102637553Y-85127770D01*
X102699325Y-84945795D01*
X102699326Y-84945790D01*
X102701181Y-84940326D01*
X102730414Y-84738706D01*
X102730639Y-84730101D01*
X105723011Y-84730101D01*
X105723045Y-84730940D01*
X105728100Y-84739067D01*
X107824878Y-86835846D01*
X107838819Y-86843458D01*
X107840654Y-86843327D01*
X107847268Y-86839076D01*
X109945118Y-84741225D01*
X109952732Y-84727281D01*
X109952664Y-84726327D01*
X109948710Y-84720348D01*
X109674352Y-84511343D01*
X109668728Y-84507521D01*
X109372387Y-84328757D01*
X109366380Y-84325564D01*
X109052477Y-84179854D01*
X109046154Y-84177325D01*
X108718342Y-84066367D01*
X108711784Y-84064537D01*
X108373920Y-83989633D01*
X108367191Y-83988519D01*
X108023203Y-83950542D01*
X108016423Y-83950163D01*
X107670324Y-83949560D01*
X107663551Y-83949915D01*
X107319414Y-83986692D01*
X107312704Y-83987779D01*
X106974572Y-84061504D01*
X106967997Y-84063315D01*
X106639805Y-84173126D01*
X106633483Y-84175629D01*
X106319076Y-84320240D01*
X106313033Y-84323426D01*
X106016094Y-84501140D01*
X106010434Y-84504958D01*
X105734421Y-84713707D01*
X105730829Y-84716741D01*
X105723011Y-84730101D01*
X102730639Y-84730101D01*
X102731940Y-84680443D01*
X102713299Y-84477569D01*
X102671329Y-84328757D01*
X102659566Y-84287049D01*
X102659565Y-84287047D01*
X102657998Y-84281490D01*
X102647371Y-84259939D01*
X102570447Y-84103953D01*
X102567892Y-84098772D01*
X102549487Y-84074124D01*
X102449449Y-83940158D01*
X102449449Y-83940157D01*
X102445996Y-83935534D01*
X102296394Y-83797243D01*
X102250366Y-83768202D01*
X102128979Y-83691612D01*
X102128974Y-83691610D01*
X102124095Y-83688531D01*
X101934871Y-83613038D01*
X101735057Y-83573292D01*
X101729283Y-83573216D01*
X101729279Y-83573216D01*
X101626143Y-83571867D01*
X101531346Y-83570626D01*
X101525649Y-83571605D01*
X101525648Y-83571605D01*
X101336258Y-83604148D01*
X101330561Y-83605127D01*
X101139425Y-83675641D01*
X100964340Y-83779806D01*
X100811169Y-83914133D01*
X100807602Y-83918658D01*
X100807597Y-83918663D01*
X100751649Y-83989633D01*
X100685042Y-84074124D01*
X100590183Y-84254421D01*
X100529769Y-84448986D01*
X100505823Y-84651302D01*
X100519148Y-84854594D01*
X100569296Y-85052053D01*
X100654589Y-85237067D01*
X100772170Y-85403440D01*
X100776304Y-85407467D01*
X100818113Y-85448196D01*
X100852950Y-85510058D01*
X100856191Y-85538450D01*
X100856191Y-87170946D01*
X100836189Y-87239067D01*
X100782533Y-87285560D01*
X100730191Y-87296946D01*
X100670557Y-87296946D01*
X100608375Y-87303701D01*
X100471986Y-87354831D01*
X100355430Y-87442185D01*
X100268076Y-87558741D01*
X100264924Y-87567149D01*
X100264923Y-87567151D01*
X100244229Y-87622352D01*
X100201588Y-87679117D01*
X100135026Y-87703817D01*
X100065677Y-87688610D01*
X100042858Y-87672112D01*
X100042578Y-87671804D01*
X99889099Y-87550594D01*
X99848036Y-87492677D01*
X99841191Y-87451712D01*
X99841191Y-81805430D01*
X104180205Y-81805430D01*
X104200160Y-82033517D01*
X104201584Y-82038830D01*
X104201584Y-82038832D01*
X104210734Y-82072978D01*
X104259419Y-82254673D01*
X104261742Y-82259654D01*
X104261742Y-82259655D01*
X104353854Y-82457192D01*
X104353857Y-82457197D01*
X104356180Y-82462179D01*
X104487505Y-82649730D01*
X104649403Y-82811628D01*
X104653911Y-82814785D01*
X104653914Y-82814787D01*
X104732092Y-82869528D01*
X104836954Y-82942953D01*
X104841936Y-82945276D01*
X104841941Y-82945279D01*
X105038468Y-83036920D01*
X105044460Y-83039714D01*
X105049768Y-83041136D01*
X105049770Y-83041137D01*
X105260301Y-83097549D01*
X105260303Y-83097549D01*
X105265616Y-83098973D01*
X105493703Y-83118928D01*
X105721790Y-83098973D01*
X105727103Y-83097549D01*
X105727105Y-83097549D01*
X105937636Y-83041137D01*
X105937638Y-83041136D01*
X105942946Y-83039714D01*
X105948938Y-83036920D01*
X106145465Y-82945279D01*
X106145470Y-82945276D01*
X106150452Y-82942953D01*
X106255314Y-82869528D01*
X106333492Y-82814787D01*
X106333495Y-82814785D01*
X106338003Y-82811628D01*
X106499901Y-82649730D01*
X106631226Y-82462179D01*
X106633549Y-82457197D01*
X106633552Y-82457192D01*
X106725664Y-82259655D01*
X106725664Y-82259654D01*
X106727987Y-82254673D01*
X106776673Y-82072978D01*
X106785822Y-82038832D01*
X106785822Y-82038830D01*
X106787246Y-82033517D01*
X106807201Y-81805430D01*
X106787246Y-81577343D01*
X106776947Y-81538908D01*
X106729410Y-81361497D01*
X106729409Y-81361495D01*
X106727987Y-81356187D01*
X106633669Y-81153919D01*
X106633552Y-81153668D01*
X106633549Y-81153663D01*
X106631226Y-81148681D01*
X106499901Y-80961130D01*
X106338003Y-80799232D01*
X106333495Y-80796075D01*
X106333492Y-80796073D01*
X106255314Y-80741332D01*
X106150452Y-80667907D01*
X106145470Y-80665584D01*
X106145465Y-80665581D01*
X105947928Y-80573469D01*
X105947927Y-80573469D01*
X105942946Y-80571146D01*
X105937638Y-80569724D01*
X105937636Y-80569723D01*
X105727105Y-80513311D01*
X105727103Y-80513311D01*
X105721790Y-80511887D01*
X105493703Y-80491932D01*
X105265616Y-80511887D01*
X105260303Y-80513311D01*
X105260301Y-80513311D01*
X105049770Y-80569723D01*
X105049768Y-80569724D01*
X105044460Y-80571146D01*
X105039479Y-80573469D01*
X105039478Y-80573469D01*
X104841941Y-80665581D01*
X104841936Y-80665584D01*
X104836954Y-80667907D01*
X104732092Y-80741332D01*
X104653914Y-80796073D01*
X104653911Y-80796075D01*
X104649403Y-80799232D01*
X104487505Y-80961130D01*
X104356180Y-81148681D01*
X104353857Y-81153663D01*
X104353854Y-81153668D01*
X104353737Y-81153919D01*
X104259419Y-81356187D01*
X104257997Y-81361495D01*
X104257996Y-81361497D01*
X104210459Y-81538908D01*
X104200160Y-81577343D01*
X104180205Y-81805430D01*
X99841191Y-81805430D01*
X99841191Y-80057801D01*
X99842624Y-80038851D01*
X99844815Y-80024452D01*
X99844815Y-80024448D01*
X99845915Y-80017218D01*
X99841606Y-79964239D01*
X99841191Y-79954025D01*
X99841191Y-79945900D01*
X99837884Y-79917535D01*
X99837451Y-79913160D01*
X99832094Y-79847293D01*
X99831501Y-79839999D01*
X99829247Y-79833042D01*
X99828058Y-79827088D01*
X99826640Y-79821090D01*
X99825792Y-79813818D01*
X99800743Y-79744808D01*
X99799326Y-79740681D01*
X99778959Y-79677811D01*
X99778958Y-79677809D01*
X99776704Y-79670851D01*
X99772909Y-79664598D01*
X99770364Y-79659038D01*
X99767622Y-79653564D01*
X99765125Y-79646684D01*
X99724881Y-79585301D01*
X99722535Y-79581583D01*
X99687379Y-79523649D01*
X99684464Y-79518845D01*
X99677024Y-79510420D01*
X99677053Y-79510395D01*
X99674457Y-79507469D01*
X99671652Y-79504115D01*
X99667637Y-79497990D01*
X99611104Y-79444436D01*
X99608663Y-79442059D01*
X98480512Y-78313908D01*
X98468125Y-78299495D01*
X98459497Y-78287771D01*
X98455156Y-78281872D01*
X98414647Y-78247457D01*
X98407131Y-78240527D01*
X98401387Y-78234783D01*
X98398513Y-78232509D01*
X98398506Y-78232503D01*
X98378991Y-78217064D01*
X98375587Y-78214273D01*
X98325230Y-78171491D01*
X98325226Y-78171488D01*
X98319651Y-78166752D01*
X98313134Y-78163424D01*
X98308070Y-78160047D01*
X98302846Y-78156820D01*
X98297102Y-78152276D01*
X98251926Y-78131162D01*
X98230620Y-78121204D01*
X98226669Y-78119273D01*
X98167819Y-78089223D01*
X98161298Y-78085893D01*
X98154183Y-78084152D01*
X98148437Y-78082015D01*
X98142654Y-78080091D01*
X98136023Y-78076992D01*
X98064145Y-78062042D01*
X98059873Y-78061075D01*
X97988590Y-78043632D01*
X97982991Y-78043285D01*
X97982987Y-78043284D01*
X97977372Y-78042936D01*
X97977374Y-78042897D01*
X97973473Y-78042664D01*
X97969114Y-78042275D01*
X97961946Y-78040784D01*
X97954629Y-78040982D01*
X97884125Y-78042890D01*
X97880716Y-78042936D01*
X97251290Y-78042936D01*
X97183169Y-78022934D01*
X97165752Y-78009452D01*
X97164678Y-78008459D01*
X97128239Y-77947527D01*
X97130527Y-77876567D01*
X97170815Y-77818109D01*
X97211389Y-77796075D01*
X97218116Y-77793896D01*
X97225083Y-77791639D01*
X97231345Y-77787839D01*
X97236888Y-77785301D01*
X97242364Y-77782559D01*
X97249249Y-77780060D01*
X97310640Y-77739811D01*
X97314308Y-77737496D01*
X97377089Y-77699399D01*
X97381294Y-77695685D01*
X97381297Y-77695683D01*
X97385513Y-77691959D01*
X97385539Y-77691988D01*
X97388470Y-77689388D01*
X97391824Y-77686584D01*
X97397943Y-77682572D01*
X97451497Y-77626039D01*
X97453874Y-77623598D01*
X98285228Y-76792244D01*
X98299641Y-76779857D01*
X98311365Y-76771229D01*
X98317264Y-76766888D01*
X98351679Y-76726379D01*
X98358609Y-76718863D01*
X98364353Y-76713119D01*
X98366627Y-76710245D01*
X98366633Y-76710238D01*
X98382072Y-76690723D01*
X98384863Y-76687319D01*
X98427645Y-76636962D01*
X98427648Y-76636958D01*
X98432384Y-76631383D01*
X98435712Y-76624866D01*
X98439089Y-76619802D01*
X98442316Y-76614578D01*
X98446860Y-76608834D01*
X98477932Y-76542352D01*
X98479863Y-76538401D01*
X98509913Y-76479551D01*
X98513243Y-76473030D01*
X98514984Y-76465915D01*
X98517121Y-76460169D01*
X98519045Y-76454386D01*
X98522144Y-76447755D01*
X98537094Y-76375877D01*
X98538063Y-76371596D01*
X98554170Y-76305773D01*
X98555504Y-76300322D01*
X98555883Y-76294222D01*
X98556200Y-76289104D01*
X98556239Y-76289106D01*
X98556472Y-76285205D01*
X98556861Y-76280846D01*
X98558352Y-76273678D01*
X98556246Y-76195857D01*
X98556200Y-76192448D01*
X98556200Y-70823462D01*
X98576202Y-70755341D01*
X98593105Y-70734367D01*
X99054434Y-70273038D01*
X99116746Y-70239012D01*
X99143529Y-70236133D01*
X99154233Y-70236133D01*
X99222354Y-70256135D01*
X99249470Y-70279636D01*
X99319751Y-70360770D01*
X99394941Y-70447571D01*
X99566817Y-70590265D01*
X99637286Y-70631444D01*
X99640136Y-70633109D01*
X99688860Y-70684747D01*
X99701931Y-70754530D01*
X99675200Y-70820302D01*
X99634746Y-70853660D01*
X99622298Y-70860140D01*
X99618165Y-70863243D01*
X99618162Y-70863245D01*
X99471367Y-70973462D01*
X99443656Y-70994268D01*
X99289320Y-71155771D01*
X99286406Y-71160043D01*
X99286405Y-71160044D01*
X99263536Y-71193569D01*
X99163434Y-71340313D01*
X99069379Y-71542938D01*
X99009680Y-71758203D01*
X98985942Y-71980328D01*
X98986239Y-71985481D01*
X98986239Y-71985484D01*
X98991398Y-72074953D01*
X98998801Y-72203348D01*
X98999938Y-72208394D01*
X98999939Y-72208400D01*
X99013288Y-72267633D01*
X99047913Y-72421272D01*
X99109364Y-72572609D01*
X99121534Y-72602579D01*
X99131957Y-72628249D01*
X99173507Y-72696052D01*
X99225112Y-72780264D01*
X99248678Y-72818721D01*
X99394941Y-72987571D01*
X99566817Y-73130265D01*
X99612285Y-73156834D01*
X99640136Y-73173109D01*
X99688860Y-73224747D01*
X99701931Y-73294530D01*
X99675200Y-73360302D01*
X99634746Y-73393660D01*
X99622298Y-73400140D01*
X99618165Y-73403243D01*
X99618162Y-73403245D01*
X99593938Y-73421433D01*
X99443656Y-73534268D01*
X99289320Y-73695771D01*
X99286406Y-73700043D01*
X99286405Y-73700044D01*
X99279729Y-73709831D01*
X99163434Y-73880313D01*
X99069379Y-74082938D01*
X99009680Y-74298203D01*
X98985942Y-74520328D01*
X98986239Y-74525481D01*
X98986239Y-74525484D01*
X98991702Y-74620223D01*
X98998801Y-74743348D01*
X98999938Y-74748394D01*
X98999939Y-74748400D01*
X99013288Y-74807633D01*
X99047913Y-74961272D01*
X99131957Y-75168249D01*
X99248678Y-75358721D01*
X99394941Y-75527571D01*
X99566817Y-75670265D01*
X99637286Y-75711444D01*
X99640136Y-75713109D01*
X99688860Y-75764747D01*
X99701931Y-75834530D01*
X99675200Y-75900302D01*
X99634746Y-75933660D01*
X99622298Y-75940140D01*
X99618165Y-75943243D01*
X99618162Y-75943245D01*
X99593938Y-75961433D01*
X99443656Y-76074268D01*
X99289320Y-76235771D01*
X99286406Y-76240043D01*
X99286405Y-76240044D01*
X99256404Y-76284024D01*
X99163434Y-76420313D01*
X99151802Y-76445372D01*
X99107714Y-76540353D01*
X99069379Y-76622938D01*
X99009680Y-76838203D01*
X98985942Y-77060328D01*
X98998801Y-77283348D01*
X98999938Y-77288394D01*
X98999939Y-77288400D01*
X99014140Y-77351411D01*
X99047913Y-77501272D01*
X99097584Y-77623598D01*
X99126855Y-77695683D01*
X99131957Y-77708249D01*
X99151298Y-77739811D01*
X99225471Y-77860850D01*
X99248678Y-77898721D01*
X99394941Y-78067571D01*
X99566817Y-78210265D01*
X99759691Y-78322971D01*
X99968383Y-78402663D01*
X99973451Y-78403694D01*
X99973454Y-78403695D01*
X100068553Y-78423043D01*
X100187288Y-78447200D01*
X100192463Y-78447390D01*
X100192465Y-78447390D01*
X100405364Y-78455197D01*
X100405368Y-78455197D01*
X100410528Y-78455386D01*
X100415648Y-78454730D01*
X100415650Y-78454730D01*
X100626979Y-78427658D01*
X100626980Y-78427658D01*
X100632107Y-78427001D01*
X100637057Y-78425516D01*
X100841120Y-78364294D01*
X100841125Y-78364292D01*
X100846075Y-78362807D01*
X101046685Y-78264529D01*
X101228551Y-78134806D01*
X101244139Y-78119273D01*
X101309900Y-78053740D01*
X101386787Y-77977122D01*
X101420803Y-77929784D01*
X101436025Y-77908600D01*
X101492020Y-77864952D01*
X101538348Y-77856126D01*
X104838132Y-77856126D01*
X104857082Y-77857559D01*
X104871481Y-77859750D01*
X104871487Y-77859750D01*
X104878716Y-77860850D01*
X104886008Y-77860257D01*
X104886011Y-77860257D01*
X104931691Y-77856541D01*
X104941906Y-77856126D01*
X104950033Y-77856126D01*
X104953669Y-77855702D01*
X104953671Y-77855702D01*
X104957123Y-77855299D01*
X104978432Y-77852815D01*
X104982752Y-77852388D01*
X105055934Y-77846435D01*
X105062896Y-77844179D01*
X105068884Y-77842983D01*
X105074841Y-77841575D01*
X105082115Y-77840727D01*
X105088997Y-77838229D01*
X105089001Y-77838228D01*
X105151115Y-77815681D01*
X105155219Y-77814271D01*
X105225083Y-77791639D01*
X105231346Y-77787839D01*
X105236888Y-77785301D01*
X105242364Y-77782559D01*
X105249249Y-77780060D01*
X105310640Y-77739811D01*
X105314308Y-77737496D01*
X105377089Y-77699399D01*
X105381294Y-77695685D01*
X105381297Y-77695683D01*
X105385513Y-77691959D01*
X105385539Y-77691988D01*
X105388470Y-77689388D01*
X105391824Y-77686584D01*
X105397943Y-77682572D01*
X105451497Y-77626039D01*
X105453874Y-77623598D01*
X105715873Y-77361599D01*
X108197956Y-77361599D01*
X108228264Y-77496079D01*
X108231344Y-77505908D01*
X108311469Y-77703236D01*
X108316112Y-77712427D01*
X108427393Y-77894021D01*
X108433476Y-77902332D01*
X108572912Y-78063300D01*
X108580279Y-78070516D01*
X108744133Y-78206549D01*
X108752580Y-78212464D01*
X108936455Y-78319912D01*
X108945741Y-78324362D01*
X109144700Y-78400336D01*
X109154598Y-78403212D01*
X109257949Y-78424239D01*
X109271998Y-78423043D01*
X109275699Y-78412698D01*
X109275699Y-78412150D01*
X109783699Y-78412150D01*
X109787763Y-78425992D01*
X109801177Y-78428026D01*
X109807883Y-78427167D01*
X109817961Y-78425025D01*
X110021954Y-78363824D01*
X110031541Y-78360066D01*
X110222794Y-78266372D01*
X110231644Y-78261097D01*
X110405027Y-78137425D01*
X110412899Y-78130772D01*
X110563751Y-77980445D01*
X110570429Y-77972598D01*
X110694702Y-77799653D01*
X110700012Y-77790816D01*
X110794369Y-77599900D01*
X110798168Y-77590305D01*
X110860076Y-77386543D01*
X110862254Y-77376470D01*
X110863685Y-77365595D01*
X110861474Y-77351411D01*
X110848316Y-77347633D01*
X109801814Y-77347633D01*
X109786575Y-77352108D01*
X109785370Y-77353498D01*
X109783699Y-77361181D01*
X109783699Y-78412150D01*
X109275699Y-78412150D01*
X109275699Y-77365748D01*
X109271224Y-77350509D01*
X109269834Y-77349304D01*
X109262151Y-77347633D01*
X108212924Y-77347633D01*
X108199393Y-77351606D01*
X108197956Y-77361599D01*
X105715873Y-77361599D01*
X107724441Y-75353031D01*
X107786753Y-75319005D01*
X107813536Y-75316126D01*
X108335235Y-75316126D01*
X108403356Y-75336128D01*
X108430472Y-75359629D01*
X108500759Y-75440770D01*
X108575949Y-75527571D01*
X108747825Y-75670265D01*
X108820677Y-75712836D01*
X108821654Y-75713407D01*
X108870378Y-75765045D01*
X108883449Y-75834828D01*
X108856718Y-75900600D01*
X108816261Y-75933960D01*
X108808156Y-75938179D01*
X108799437Y-75943669D01*
X108629132Y-76071538D01*
X108621425Y-76078381D01*
X108474289Y-76232350D01*
X108467803Y-76240360D01*
X108347797Y-76416282D01*
X108342699Y-76425256D01*
X108253037Y-76618416D01*
X108249474Y-76628103D01*
X108194088Y-76827816D01*
X108195611Y-76836240D01*
X108207991Y-76839633D01*
X110848043Y-76839633D01*
X110861574Y-76835660D01*
X110862879Y-76826580D01*
X110820913Y-76659508D01*
X110817593Y-76649757D01*
X110732671Y-76454447D01*
X110727804Y-76445372D01*
X110612125Y-76266559D01*
X110605835Y-76258390D01*
X110462505Y-76100873D01*
X110454972Y-76093848D01*
X110287838Y-75961855D01*
X110279255Y-75956153D01*
X110242301Y-75935753D01*
X110192330Y-75885320D01*
X110177558Y-75815878D01*
X110202674Y-75749472D01*
X110230026Y-75722865D01*
X110253496Y-75706124D01*
X110409559Y-75594806D01*
X110567795Y-75437122D01*
X110627293Y-75354322D01*
X110695134Y-75259910D01*
X110698152Y-75255710D01*
X110797129Y-75055444D01*
X110862069Y-74841702D01*
X110891228Y-74620223D01*
X110892855Y-74553633D01*
X110874551Y-74330994D01*
X110820130Y-74114335D01*
X110731053Y-73909473D01*
X110691605Y-73848495D01*
X110612521Y-73726250D01*
X110612519Y-73726247D01*
X110609713Y-73721910D01*
X110459369Y-73556684D01*
X110455318Y-73553485D01*
X110455314Y-73553481D01*
X110288113Y-73421433D01*
X110288109Y-73421431D01*
X110284058Y-73418231D01*
X110242268Y-73395162D01*
X110192297Y-73344730D01*
X110177525Y-73275287D01*
X110202641Y-73208881D01*
X110229993Y-73182274D01*
X110405027Y-73057425D01*
X110412899Y-73050772D01*
X110563751Y-72900445D01*
X110570429Y-72892598D01*
X110694702Y-72719653D01*
X110700012Y-72710816D01*
X110794369Y-72519900D01*
X110798168Y-72510305D01*
X110860076Y-72306543D01*
X110862254Y-72296470D01*
X110863685Y-72285595D01*
X110861474Y-72271411D01*
X110848316Y-72267633D01*
X108212924Y-72267633D01*
X108199393Y-72271606D01*
X108197956Y-72281599D01*
X108228264Y-72416079D01*
X108231344Y-72425908D01*
X108311469Y-72623236D01*
X108316112Y-72632427D01*
X108427393Y-72814021D01*
X108433476Y-72822332D01*
X108572912Y-72983300D01*
X108580279Y-72990516D01*
X108744133Y-73126549D01*
X108752580Y-73132464D01*
X108821668Y-73172836D01*
X108870392Y-73224475D01*
X108883463Y-73294258D01*
X108856732Y-73360029D01*
X108816283Y-73393385D01*
X108803306Y-73400140D01*
X108799173Y-73403243D01*
X108799170Y-73403245D01*
X108774946Y-73421433D01*
X108624664Y-73534268D01*
X108470328Y-73695771D01*
X108467414Y-73700043D01*
X108467413Y-73700044D01*
X108442797Y-73736130D01*
X108387886Y-73781133D01*
X108338709Y-73791126D01*
X107512876Y-73791126D01*
X107493928Y-73789693D01*
X107486541Y-73788569D01*
X107479532Y-73787503D01*
X107479530Y-73787503D01*
X107472300Y-73786403D01*
X107472299Y-73786403D01*
X107472413Y-73785654D01*
X107410422Y-73765076D01*
X107365830Y-73709831D01*
X107356200Y-73661520D01*
X107356200Y-70973462D01*
X107376202Y-70905341D01*
X107393105Y-70884367D01*
X108004441Y-70273031D01*
X108066753Y-70239005D01*
X108093536Y-70236126D01*
X108335235Y-70236126D01*
X108403356Y-70256128D01*
X108430472Y-70279629D01*
X108500759Y-70360770D01*
X108575949Y-70447571D01*
X108747825Y-70590265D01*
X108820677Y-70632836D01*
X108821654Y-70633407D01*
X108870378Y-70685045D01*
X108883449Y-70754828D01*
X108856718Y-70820600D01*
X108816261Y-70853960D01*
X108808156Y-70858179D01*
X108799437Y-70863669D01*
X108629132Y-70991538D01*
X108621425Y-70998381D01*
X108474289Y-71152350D01*
X108467803Y-71160360D01*
X108347797Y-71336282D01*
X108342699Y-71345256D01*
X108253037Y-71538416D01*
X108249474Y-71548103D01*
X108194088Y-71747816D01*
X108195611Y-71756240D01*
X108207991Y-71759633D01*
X110848043Y-71759633D01*
X110861574Y-71755660D01*
X110862879Y-71746580D01*
X110820913Y-71579508D01*
X110817593Y-71569757D01*
X110732671Y-71374447D01*
X110727804Y-71365372D01*
X110612125Y-71186559D01*
X110605835Y-71178390D01*
X110462505Y-71020873D01*
X110454972Y-71013848D01*
X110287838Y-70881855D01*
X110279255Y-70876153D01*
X110242301Y-70855753D01*
X110192330Y-70805320D01*
X110177558Y-70735878D01*
X110202674Y-70669472D01*
X110230026Y-70642865D01*
X110253496Y-70626124D01*
X110409559Y-70514806D01*
X110567795Y-70357122D01*
X110657294Y-70232571D01*
X110695134Y-70179910D01*
X110698152Y-70175710D01*
X110725776Y-70119818D01*
X110794835Y-69980086D01*
X110794836Y-69980084D01*
X110797129Y-69975444D01*
X110862069Y-69761702D01*
X110891228Y-69540223D01*
X110892855Y-69473633D01*
X110874551Y-69250994D01*
X110820130Y-69034335D01*
X110731053Y-68829473D01*
X110666068Y-68729022D01*
X110612521Y-68646250D01*
X110612519Y-68646247D01*
X110609713Y-68641910D01*
X110459369Y-68476684D01*
X110455318Y-68473485D01*
X110455314Y-68473481D01*
X110288113Y-68341433D01*
X110288109Y-68341431D01*
X110284058Y-68338231D01*
X110242268Y-68315162D01*
X110192297Y-68264730D01*
X110177525Y-68195287D01*
X110202641Y-68128881D01*
X110229993Y-68102274D01*
X110405027Y-67977425D01*
X110412899Y-67970772D01*
X110563751Y-67820445D01*
X110570429Y-67812598D01*
X110694702Y-67639653D01*
X110700012Y-67630816D01*
X110794369Y-67439900D01*
X110798168Y-67430305D01*
X110860076Y-67226543D01*
X110862254Y-67216470D01*
X110863685Y-67205595D01*
X110861474Y-67191411D01*
X110848316Y-67187633D01*
X108212924Y-67187633D01*
X108199393Y-67191606D01*
X108197956Y-67201599D01*
X108228264Y-67336079D01*
X108231344Y-67345908D01*
X108311469Y-67543236D01*
X108316112Y-67552427D01*
X108427393Y-67734021D01*
X108433476Y-67742332D01*
X108572912Y-67903300D01*
X108580279Y-67910516D01*
X108744133Y-68046549D01*
X108752580Y-68052464D01*
X108821668Y-68092836D01*
X108870392Y-68144475D01*
X108883463Y-68214258D01*
X108856732Y-68280029D01*
X108816283Y-68313385D01*
X108803306Y-68320140D01*
X108799173Y-68323243D01*
X108799170Y-68323245D01*
X108774946Y-68341433D01*
X108624664Y-68454268D01*
X108470328Y-68615771D01*
X108467414Y-68620043D01*
X108467413Y-68620044D01*
X108442797Y-68656130D01*
X108387886Y-68701133D01*
X108338709Y-68711126D01*
X107792876Y-68711126D01*
X107773928Y-68709693D01*
X107766541Y-68708569D01*
X107759532Y-68707503D01*
X107759530Y-68707503D01*
X107752300Y-68706403D01*
X107745008Y-68706996D01*
X107745005Y-68706996D01*
X107699333Y-68710711D01*
X107689119Y-68711126D01*
X107680983Y-68711126D01*
X107677348Y-68711550D01*
X107677345Y-68711550D01*
X107659343Y-68713649D01*
X107652592Y-68714436D01*
X107648221Y-68714869D01*
X107637209Y-68715764D01*
X107582380Y-68720223D01*
X107582377Y-68720224D01*
X107575081Y-68720817D01*
X107568117Y-68723073D01*
X107562122Y-68724271D01*
X107556172Y-68725677D01*
X107548901Y-68726525D01*
X107479906Y-68751569D01*
X107475760Y-68752992D01*
X107412896Y-68773357D01*
X107412894Y-68773358D01*
X107405933Y-68775613D01*
X107399678Y-68779409D01*
X107394141Y-68781944D01*
X107388650Y-68784694D01*
X107381767Y-68787192D01*
X107375643Y-68791207D01*
X107320376Y-68827441D01*
X107316708Y-68829756D01*
X107253927Y-68867853D01*
X107249720Y-68871569D01*
X107249716Y-68871572D01*
X107245503Y-68875294D01*
X107245477Y-68875264D01*
X107242549Y-68877862D01*
X107239195Y-68880666D01*
X107233073Y-68884680D01*
X107228040Y-68889993D01*
X107179521Y-68941211D01*
X107177143Y-68943654D01*
X106471295Y-69649501D01*
X106408983Y-69683526D01*
X106338167Y-69678461D01*
X106281332Y-69635914D01*
X106256521Y-69569394D01*
X106256200Y-69560405D01*
X106256200Y-65573462D01*
X106276202Y-65505341D01*
X106293105Y-65484367D01*
X106584441Y-65193031D01*
X106646753Y-65159005D01*
X106673536Y-65156126D01*
X108335235Y-65156126D01*
X108403356Y-65176128D01*
X108430472Y-65199629D01*
X108500759Y-65280770D01*
X108575949Y-65367571D01*
X108747825Y-65510265D01*
X108820677Y-65552836D01*
X108821654Y-65553407D01*
X108870378Y-65605045D01*
X108883449Y-65674828D01*
X108856718Y-65740600D01*
X108816261Y-65773960D01*
X108808156Y-65778179D01*
X108799437Y-65783669D01*
X108629132Y-65911538D01*
X108621425Y-65918381D01*
X108474289Y-66072350D01*
X108467803Y-66080360D01*
X108347797Y-66256282D01*
X108342699Y-66265256D01*
X108253037Y-66458416D01*
X108249474Y-66468103D01*
X108194088Y-66667816D01*
X108195611Y-66676240D01*
X108207991Y-66679633D01*
X110848043Y-66679633D01*
X110861574Y-66675660D01*
X110862879Y-66666580D01*
X110820913Y-66499508D01*
X110817593Y-66489757D01*
X110732671Y-66294447D01*
X110727804Y-66285372D01*
X110612125Y-66106559D01*
X110605835Y-66098390D01*
X110462505Y-65940873D01*
X110454972Y-65933848D01*
X110287838Y-65801855D01*
X110279255Y-65796153D01*
X110242301Y-65775753D01*
X110192330Y-65725320D01*
X110177558Y-65655878D01*
X110202674Y-65589472D01*
X110230026Y-65562865D01*
X110288337Y-65521272D01*
X110409559Y-65434806D01*
X110567795Y-65277122D01*
X110627293Y-65194322D01*
X110695134Y-65099910D01*
X110698152Y-65095710D01*
X110716317Y-65058957D01*
X110794835Y-64900086D01*
X110794836Y-64900084D01*
X110797129Y-64895444D01*
X110862069Y-64681702D01*
X110891228Y-64460223D01*
X110892855Y-64393633D01*
X110874551Y-64170994D01*
X110820130Y-63954335D01*
X110731053Y-63749473D01*
X110663444Y-63644966D01*
X110612521Y-63566250D01*
X110612519Y-63566247D01*
X110609713Y-63561910D01*
X110459369Y-63396684D01*
X110455318Y-63393485D01*
X110455314Y-63393481D01*
X110288113Y-63261433D01*
X110288109Y-63261431D01*
X110284058Y-63258231D01*
X110242268Y-63235162D01*
X110192297Y-63184730D01*
X110177525Y-63115287D01*
X110202641Y-63048881D01*
X110229993Y-63022274D01*
X110405027Y-62897425D01*
X110412899Y-62890772D01*
X110563751Y-62740445D01*
X110570429Y-62732598D01*
X110694702Y-62559653D01*
X110700012Y-62550816D01*
X110794369Y-62359900D01*
X110798168Y-62350305D01*
X110860076Y-62146543D01*
X110862254Y-62136470D01*
X110863685Y-62125595D01*
X110861474Y-62111411D01*
X110848316Y-62107633D01*
X108212924Y-62107633D01*
X108199393Y-62111606D01*
X108197956Y-62121599D01*
X108228264Y-62256079D01*
X108231344Y-62265908D01*
X108311469Y-62463236D01*
X108316112Y-62472427D01*
X108427393Y-62654021D01*
X108433476Y-62662332D01*
X108572912Y-62823300D01*
X108580279Y-62830516D01*
X108744133Y-62966549D01*
X108752580Y-62972464D01*
X108821668Y-63012836D01*
X108870392Y-63064475D01*
X108883463Y-63134258D01*
X108856732Y-63200029D01*
X108816283Y-63233385D01*
X108803306Y-63240140D01*
X108799173Y-63243243D01*
X108799170Y-63243245D01*
X108628799Y-63371163D01*
X108624664Y-63374268D01*
X108599240Y-63400873D01*
X108479253Y-63526432D01*
X108470328Y-63535771D01*
X108467414Y-63540043D01*
X108467413Y-63540044D01*
X108442797Y-63576130D01*
X108387886Y-63621133D01*
X108338709Y-63631126D01*
X106372884Y-63631126D01*
X106353934Y-63629693D01*
X106339535Y-63627502D01*
X106339529Y-63627502D01*
X106332300Y-63626402D01*
X106325008Y-63626995D01*
X106325005Y-63626995D01*
X106279325Y-63630711D01*
X106269110Y-63631126D01*
X106260983Y-63631126D01*
X106257347Y-63631550D01*
X106257345Y-63631550D01*
X106253893Y-63631953D01*
X106232584Y-63634437D01*
X106228264Y-63634864D01*
X106155082Y-63640817D01*
X106148120Y-63643073D01*
X106142132Y-63644269D01*
X106136175Y-63645677D01*
X106128901Y-63646525D01*
X106122019Y-63649023D01*
X106122015Y-63649024D01*
X106059901Y-63671571D01*
X106055797Y-63672981D01*
X105985933Y-63695613D01*
X105979670Y-63699413D01*
X105974128Y-63701951D01*
X105968652Y-63704693D01*
X105961767Y-63707192D01*
X105955643Y-63711207D01*
X105900376Y-63747441D01*
X105896708Y-63749756D01*
X105833927Y-63787853D01*
X105829722Y-63791567D01*
X105829719Y-63791569D01*
X105825503Y-63795293D01*
X105825477Y-63795264D01*
X105822546Y-63797864D01*
X105819192Y-63800668D01*
X105813073Y-63804680D01*
X105808041Y-63809992D01*
X105759520Y-63861212D01*
X105757142Y-63863654D01*
X105455775Y-64165021D01*
X105393463Y-64199047D01*
X105322648Y-64193982D01*
X105265812Y-64151435D01*
X105241001Y-64084915D01*
X105240680Y-64075926D01*
X105240680Y-60488982D01*
X105260682Y-60420861D01*
X105277585Y-60399887D01*
X105564441Y-60113031D01*
X105626753Y-60079005D01*
X105653536Y-60076126D01*
X108335235Y-60076126D01*
X108403356Y-60096128D01*
X108430472Y-60119629D01*
X108557343Y-60266092D01*
X108575949Y-60287571D01*
X108747825Y-60430265D01*
X108758995Y-60436792D01*
X108821654Y-60473407D01*
X108870378Y-60525045D01*
X108883449Y-60594828D01*
X108856718Y-60660600D01*
X108816261Y-60693960D01*
X108808156Y-60698179D01*
X108799437Y-60703669D01*
X108629132Y-60831538D01*
X108621425Y-60838381D01*
X108474289Y-60992350D01*
X108467803Y-61000360D01*
X108347797Y-61176282D01*
X108342699Y-61185256D01*
X108253037Y-61378416D01*
X108249474Y-61388103D01*
X108194088Y-61587816D01*
X108195611Y-61596240D01*
X108207991Y-61599633D01*
X110848043Y-61599633D01*
X110861574Y-61595660D01*
X110862879Y-61586580D01*
X110820913Y-61419508D01*
X110817593Y-61409757D01*
X110732671Y-61214447D01*
X110727804Y-61205372D01*
X110612125Y-61026559D01*
X110605835Y-61018390D01*
X110462505Y-60860873D01*
X110454972Y-60853848D01*
X110287838Y-60721855D01*
X110279255Y-60716153D01*
X110242301Y-60695753D01*
X110192330Y-60645320D01*
X110177558Y-60575878D01*
X110202674Y-60509472D01*
X110230026Y-60482865D01*
X110294618Y-60436792D01*
X110409559Y-60354806D01*
X110567795Y-60197122D01*
X110604508Y-60146031D01*
X110687369Y-60030716D01*
X110698152Y-60015710D01*
X110728260Y-59954792D01*
X110794835Y-59820086D01*
X110794836Y-59820084D01*
X110797129Y-59815444D01*
X110858555Y-59613269D01*
X110860564Y-59606656D01*
X110860564Y-59606654D01*
X110862069Y-59601702D01*
X110891228Y-59380223D01*
X110892855Y-59313633D01*
X110874551Y-59090994D01*
X110820130Y-58874335D01*
X110731053Y-58669473D01*
X110654491Y-58551126D01*
X110612521Y-58486250D01*
X110612519Y-58486247D01*
X110609713Y-58481910D01*
X110459369Y-58316684D01*
X110455318Y-58313485D01*
X110455314Y-58313481D01*
X110288113Y-58181433D01*
X110288109Y-58181431D01*
X110284058Y-58178231D01*
X110088488Y-58070271D01*
X110083619Y-58068547D01*
X110083615Y-58068545D01*
X109882786Y-57997428D01*
X109882782Y-57997427D01*
X109877911Y-57995702D01*
X109872818Y-57994795D01*
X109872815Y-57994794D01*
X109663072Y-57957433D01*
X109663066Y-57957432D01*
X109657983Y-57956527D01*
X109584151Y-57955625D01*
X109439780Y-57953861D01*
X109439778Y-57953861D01*
X109434610Y-57953798D01*
X109213790Y-57987588D01*
X109001455Y-58056990D01*
X108803306Y-58160140D01*
X108799173Y-58163243D01*
X108799170Y-58163245D01*
X108628799Y-58291163D01*
X108624664Y-58294268D01*
X108610751Y-58308827D01*
X108514032Y-58410038D01*
X108470328Y-58455771D01*
X108467414Y-58460043D01*
X108467413Y-58460044D01*
X108442797Y-58496130D01*
X108387886Y-58541133D01*
X108338709Y-58551126D01*
X105352876Y-58551126D01*
X105333928Y-58549693D01*
X105326541Y-58548569D01*
X105319532Y-58547503D01*
X105319530Y-58547503D01*
X105312300Y-58546403D01*
X105305008Y-58546996D01*
X105305005Y-58546996D01*
X105259333Y-58550711D01*
X105249119Y-58551126D01*
X105240983Y-58551126D01*
X105237348Y-58551550D01*
X105237345Y-58551550D01*
X105219343Y-58553649D01*
X105212592Y-58554436D01*
X105208221Y-58554869D01*
X105197209Y-58555764D01*
X105142380Y-58560223D01*
X105142377Y-58560224D01*
X105135081Y-58560817D01*
X105128117Y-58563073D01*
X105122122Y-58564271D01*
X105116172Y-58565677D01*
X105108901Y-58566525D01*
X105039906Y-58591569D01*
X105035760Y-58592992D01*
X104972896Y-58613357D01*
X104972894Y-58613358D01*
X104965933Y-58615613D01*
X104959678Y-58619409D01*
X104954141Y-58621944D01*
X104948650Y-58624694D01*
X104941767Y-58627192D01*
X104935643Y-58631207D01*
X104880376Y-58667441D01*
X104876708Y-58669756D01*
X104813927Y-58707853D01*
X104809720Y-58711569D01*
X104809716Y-58711572D01*
X104805503Y-58715294D01*
X104805477Y-58715264D01*
X104802549Y-58717862D01*
X104799195Y-58720666D01*
X104793073Y-58724680D01*
X104788040Y-58729993D01*
X104739521Y-58781211D01*
X104737143Y-58783654D01*
X103986648Y-59534148D01*
X103972236Y-59546533D01*
X103954616Y-59559500D01*
X103949872Y-59565083D01*
X103949873Y-59565083D01*
X103920201Y-59600009D01*
X103913271Y-59607525D01*
X103907527Y-59613269D01*
X103905253Y-59616143D01*
X103905247Y-59616150D01*
X103889808Y-59635665D01*
X103887017Y-59639069D01*
X103844235Y-59689426D01*
X103844232Y-59689430D01*
X103839496Y-59695005D01*
X103836168Y-59701522D01*
X103832791Y-59706586D01*
X103829564Y-59711810D01*
X103825020Y-59717554D01*
X103821921Y-59724185D01*
X103793948Y-59784036D01*
X103792017Y-59787987D01*
X103758637Y-59853358D01*
X103756896Y-59860473D01*
X103754759Y-59866219D01*
X103752835Y-59872002D01*
X103749736Y-59878633D01*
X103748246Y-59885797D01*
X103734788Y-59950501D01*
X103733819Y-59954783D01*
X103716376Y-60026066D01*
X103715680Y-60037284D01*
X103715641Y-60037282D01*
X103715408Y-60041183D01*
X103715019Y-60045542D01*
X103713528Y-60052710D01*
X103713726Y-60060027D01*
X103715634Y-60130531D01*
X103715680Y-60133940D01*
X103715680Y-68585133D01*
X103695678Y-68653254D01*
X103642022Y-68699747D01*
X103589680Y-68711133D01*
X102999954Y-68711133D01*
X102988754Y-68710634D01*
X102986850Y-68710464D01*
X102979686Y-68708974D01*
X102970090Y-68709234D01*
X102947726Y-68707846D01*
X102945468Y-68707502D01*
X102945463Y-68707502D01*
X102938234Y-68706402D01*
X102930942Y-68706995D01*
X102930939Y-68706995D01*
X102885173Y-68710718D01*
X102874958Y-68711133D01*
X101542042Y-68711133D01*
X101473921Y-68691131D01*
X101436249Y-68653572D01*
X101428705Y-68641910D01*
X101278361Y-68476684D01*
X101274310Y-68473485D01*
X101274306Y-68473481D01*
X101107105Y-68341433D01*
X101107101Y-68341431D01*
X101103050Y-68338231D01*
X101061744Y-68315429D01*
X101011775Y-68264997D01*
X100997003Y-68195554D01*
X101022119Y-68129149D01*
X101049471Y-68102542D01*
X101093294Y-68071283D01*
X101228551Y-67974806D01*
X101386787Y-67817122D01*
X101517144Y-67635710D01*
X101548401Y-67572467D01*
X101613827Y-67440086D01*
X101613828Y-67440084D01*
X101616121Y-67435444D01*
X101681061Y-67221702D01*
X101710220Y-67000223D01*
X101711847Y-66933633D01*
X101693543Y-66710994D01*
X101639122Y-66494335D01*
X101550045Y-66289473D01*
X101482436Y-66184966D01*
X101431513Y-66106250D01*
X101431511Y-66106247D01*
X101428705Y-66101910D01*
X101278361Y-65936684D01*
X101274310Y-65933485D01*
X101274306Y-65933481D01*
X101107105Y-65801433D01*
X101107101Y-65801431D01*
X101103050Y-65798231D01*
X101061260Y-65775162D01*
X101011289Y-65724730D01*
X100996517Y-65655287D01*
X101021633Y-65588881D01*
X101048985Y-65562274D01*
X101224019Y-65437425D01*
X101231891Y-65430772D01*
X101382743Y-65280445D01*
X101389421Y-65272598D01*
X101513694Y-65099653D01*
X101519004Y-65090816D01*
X101613361Y-64899900D01*
X101617160Y-64890305D01*
X101679068Y-64686543D01*
X101681246Y-64676470D01*
X101682677Y-64665595D01*
X101680466Y-64651411D01*
X101667308Y-64647633D01*
X99031916Y-64647633D01*
X99018385Y-64651606D01*
X99016948Y-64661599D01*
X99047256Y-64796079D01*
X99050336Y-64805908D01*
X99130461Y-65003236D01*
X99135104Y-65012427D01*
X99246385Y-65194021D01*
X99252468Y-65202332D01*
X99391904Y-65363300D01*
X99399271Y-65370516D01*
X99563125Y-65506549D01*
X99571572Y-65512464D01*
X99640660Y-65552836D01*
X99689384Y-65604475D01*
X99702455Y-65674258D01*
X99675724Y-65740029D01*
X99635275Y-65773385D01*
X99622298Y-65780140D01*
X99618165Y-65783243D01*
X99618162Y-65783245D01*
X99593938Y-65801433D01*
X99443656Y-65914268D01*
X99289320Y-66075771D01*
X99286406Y-66080043D01*
X99286405Y-66080044D01*
X99261789Y-66116130D01*
X99206878Y-66161133D01*
X99157701Y-66171126D01*
X97432884Y-66171126D01*
X97413934Y-66169693D01*
X97399535Y-66167502D01*
X97399529Y-66167502D01*
X97392300Y-66166402D01*
X97385008Y-66166995D01*
X97385005Y-66166995D01*
X97339325Y-66170711D01*
X97329110Y-66171126D01*
X97320983Y-66171126D01*
X97317347Y-66171550D01*
X97317345Y-66171550D01*
X97313893Y-66171953D01*
X97292584Y-66174437D01*
X97288264Y-66174864D01*
X97215082Y-66180817D01*
X97208120Y-66183073D01*
X97202132Y-66184269D01*
X97196175Y-66185677D01*
X97188901Y-66186525D01*
X97182019Y-66189023D01*
X97182015Y-66189024D01*
X97119901Y-66211571D01*
X97115797Y-66212981D01*
X97045933Y-66235613D01*
X97039670Y-66239413D01*
X97034128Y-66241951D01*
X97028652Y-66244693D01*
X97021767Y-66247192D01*
X97015643Y-66251207D01*
X96960376Y-66287441D01*
X96956708Y-66289756D01*
X96893927Y-66327853D01*
X96889722Y-66331567D01*
X96889719Y-66331569D01*
X96885503Y-66335293D01*
X96885477Y-66335264D01*
X96882546Y-66337864D01*
X96879192Y-66340668D01*
X96873073Y-66344680D01*
X96868041Y-66349992D01*
X96819520Y-66401212D01*
X96817142Y-66403654D01*
X95902172Y-67318624D01*
X95887759Y-67331011D01*
X95870136Y-67343980D01*
X95865392Y-67349563D01*
X95865393Y-67349563D01*
X95835721Y-67384489D01*
X95828791Y-67392005D01*
X95823047Y-67397749D01*
X95820773Y-67400623D01*
X95820767Y-67400630D01*
X95805328Y-67420145D01*
X95802537Y-67423549D01*
X95759755Y-67473906D01*
X95759752Y-67473910D01*
X95755016Y-67479485D01*
X95751688Y-67486002D01*
X95748311Y-67491066D01*
X95745084Y-67496290D01*
X95740540Y-67502034D01*
X95737441Y-67508665D01*
X95709468Y-67568516D01*
X95707537Y-67572467D01*
X95674157Y-67637838D01*
X95672416Y-67644953D01*
X95670279Y-67650699D01*
X95668355Y-67656482D01*
X95665256Y-67663113D01*
X95650508Y-67734021D01*
X95650308Y-67734981D01*
X95649339Y-67739263D01*
X95631896Y-67810546D01*
X95631200Y-67821764D01*
X95631161Y-67821762D01*
X95630928Y-67825663D01*
X95630539Y-67830022D01*
X95629048Y-67837190D01*
X95629246Y-67844507D01*
X95631154Y-67915011D01*
X95631200Y-67918420D01*
X95631200Y-71125126D01*
X95611198Y-71193247D01*
X95557542Y-71239740D01*
X95505200Y-71251126D01*
X92361030Y-71251126D01*
X92292909Y-71231124D01*
X92255240Y-71193569D01*
X92250506Y-71186252D01*
X92247697Y-71181910D01*
X92097353Y-71016684D01*
X92093302Y-71013485D01*
X92093298Y-71013481D01*
X91926097Y-70881433D01*
X91926093Y-70881431D01*
X91922042Y-70878231D01*
X91880252Y-70855162D01*
X91830281Y-70804730D01*
X91815509Y-70735287D01*
X91840625Y-70668881D01*
X91867977Y-70642274D01*
X92043011Y-70517425D01*
X92050883Y-70510772D01*
X92201735Y-70360445D01*
X92208413Y-70352598D01*
X92332686Y-70179653D01*
X92337996Y-70170816D01*
X92432353Y-69979900D01*
X92436152Y-69970305D01*
X92498060Y-69766543D01*
X92500238Y-69756470D01*
X92501669Y-69745595D01*
X92499458Y-69731411D01*
X92486300Y-69727633D01*
X89850908Y-69727633D01*
X89837377Y-69731606D01*
X89835940Y-69741599D01*
X89866248Y-69876079D01*
X89869328Y-69885908D01*
X89949453Y-70083236D01*
X89954096Y-70092427D01*
X90065377Y-70274021D01*
X90071460Y-70282332D01*
X90210896Y-70443300D01*
X90218263Y-70450516D01*
X90382117Y-70586549D01*
X90390564Y-70592464D01*
X90459652Y-70632836D01*
X90508376Y-70684475D01*
X90521447Y-70754258D01*
X90494716Y-70820029D01*
X90454267Y-70853385D01*
X90441290Y-70860140D01*
X90437157Y-70863243D01*
X90437154Y-70863245D01*
X90290359Y-70973462D01*
X90262648Y-70994268D01*
X90108312Y-71155771D01*
X90105398Y-71160043D01*
X90105397Y-71160044D01*
X90082528Y-71193569D01*
X89982426Y-71340313D01*
X89888371Y-71542938D01*
X89828672Y-71758203D01*
X89804934Y-71980328D01*
X89805231Y-71985481D01*
X89805231Y-71985484D01*
X89810390Y-72074953D01*
X89817793Y-72203348D01*
X89818930Y-72208394D01*
X89818931Y-72208400D01*
X89832280Y-72267633D01*
X89866905Y-72421272D01*
X89928356Y-72572609D01*
X89940526Y-72602579D01*
X89950949Y-72628249D01*
X89992499Y-72696052D01*
X90044104Y-72780264D01*
X90067670Y-72818721D01*
X90213933Y-72987571D01*
X90385809Y-73130265D01*
X90431277Y-73156834D01*
X90459638Y-73173407D01*
X90508362Y-73225045D01*
X90521433Y-73294828D01*
X90494702Y-73360600D01*
X90454245Y-73393960D01*
X90446140Y-73398179D01*
X90437421Y-73403669D01*
X90267116Y-73531538D01*
X90259409Y-73538381D01*
X90112273Y-73692350D01*
X90105787Y-73700360D01*
X89985781Y-73876282D01*
X89980683Y-73885256D01*
X89891021Y-74078416D01*
X89887458Y-74088103D01*
X89832072Y-74287816D01*
X89833595Y-74296240D01*
X89845975Y-74299633D01*
X92486027Y-74299633D01*
X92499558Y-74295660D01*
X92500863Y-74286580D01*
X92458897Y-74119508D01*
X92455577Y-74109757D01*
X92370655Y-73914447D01*
X92365788Y-73905372D01*
X92250109Y-73726559D01*
X92243819Y-73718390D01*
X92100489Y-73560873D01*
X92092956Y-73553848D01*
X91925822Y-73421855D01*
X91917239Y-73416153D01*
X91880285Y-73395753D01*
X91830314Y-73345320D01*
X91815542Y-73275878D01*
X91840658Y-73209472D01*
X91868010Y-73182865D01*
X91936902Y-73133725D01*
X92047543Y-73054806D01*
X92205779Y-72897122D01*
X92209030Y-72892598D01*
X92255017Y-72828600D01*
X92311012Y-72784952D01*
X92357340Y-72776126D01*
X95575002Y-72776126D01*
X95643123Y-72796128D01*
X95662924Y-72811872D01*
X95673662Y-72822332D01*
X95731610Y-72878783D01*
X95736406Y-72881988D01*
X95736409Y-72881990D01*
X95836327Y-72948753D01*
X95901003Y-72991968D01*
X95906306Y-72994246D01*
X95906309Y-72994248D01*
X96082880Y-73070109D01*
X96088187Y-73072389D01*
X96161017Y-73088869D01*
X96281255Y-73116076D01*
X96281260Y-73116077D01*
X96286892Y-73117351D01*
X96292663Y-73117578D01*
X96292665Y-73117578D01*
X96355670Y-73120053D01*
X96490463Y-73125349D01*
X96692083Y-73096116D01*
X96697547Y-73094261D01*
X96697552Y-73094260D01*
X96864699Y-73037521D01*
X96935634Y-73034565D01*
X96996906Y-73070428D01*
X97029063Y-73133725D01*
X97031200Y-73156834D01*
X97031200Y-75837406D01*
X97011198Y-75905527D01*
X96994295Y-75926502D01*
X96626574Y-76294222D01*
X96564262Y-76328247D01*
X96537479Y-76331126D01*
X92361030Y-76331126D01*
X92292909Y-76311124D01*
X92255240Y-76273569D01*
X92250506Y-76266252D01*
X92247697Y-76261910D01*
X92097353Y-76096684D01*
X92093302Y-76093485D01*
X92093298Y-76093481D01*
X91926097Y-75961433D01*
X91926093Y-75961431D01*
X91922042Y-75958231D01*
X91880252Y-75935162D01*
X91830281Y-75884730D01*
X91815509Y-75815287D01*
X91840625Y-75748881D01*
X91867977Y-75722274D01*
X92043011Y-75597425D01*
X92050883Y-75590772D01*
X92201735Y-75440445D01*
X92208413Y-75432598D01*
X92332686Y-75259653D01*
X92337996Y-75250816D01*
X92432353Y-75059900D01*
X92436152Y-75050305D01*
X92498060Y-74846543D01*
X92500238Y-74836470D01*
X92501669Y-74825595D01*
X92499458Y-74811411D01*
X92486300Y-74807633D01*
X89850908Y-74807633D01*
X89837377Y-74811606D01*
X89835940Y-74821599D01*
X89866248Y-74956079D01*
X89869328Y-74965908D01*
X89949453Y-75163236D01*
X89954096Y-75172427D01*
X90065377Y-75354021D01*
X90071460Y-75362332D01*
X90210896Y-75523300D01*
X90218263Y-75530516D01*
X90382117Y-75666549D01*
X90390564Y-75672464D01*
X90459652Y-75712836D01*
X90508376Y-75764475D01*
X90521447Y-75834258D01*
X90494716Y-75900029D01*
X90454267Y-75933385D01*
X90441290Y-75940140D01*
X90437157Y-75943243D01*
X90437154Y-75943245D01*
X90412930Y-75961433D01*
X90262648Y-76074268D01*
X90108312Y-76235771D01*
X90105398Y-76240043D01*
X90105397Y-76240044D01*
X90075396Y-76284024D01*
X89982426Y-76420313D01*
X89970794Y-76445372D01*
X89926706Y-76540353D01*
X89888371Y-76622938D01*
X89828672Y-76838203D01*
X89804934Y-77060328D01*
X89317690Y-77060328D01*
X89317690Y-69207816D01*
X89832072Y-69207816D01*
X89833595Y-69216240D01*
X89845975Y-69219633D01*
X90895568Y-69219633D01*
X90910807Y-69215158D01*
X90912012Y-69213768D01*
X90913683Y-69206085D01*
X90913683Y-69201518D01*
X91421683Y-69201518D01*
X91426158Y-69216757D01*
X91427548Y-69217962D01*
X91435231Y-69219633D01*
X92486027Y-69219633D01*
X92499558Y-69215660D01*
X92500863Y-69206580D01*
X92458897Y-69039508D01*
X92455577Y-69029757D01*
X92370655Y-68834447D01*
X92365788Y-68825372D01*
X92250109Y-68646559D01*
X92243819Y-68638390D01*
X92100489Y-68480873D01*
X92092956Y-68473848D01*
X91925822Y-68341855D01*
X91917235Y-68336150D01*
X91879799Y-68315484D01*
X91829829Y-68265052D01*
X91815057Y-68195609D01*
X91840173Y-68129204D01*
X91867525Y-68102597D01*
X92043010Y-67977425D01*
X92050883Y-67970772D01*
X92201735Y-67820445D01*
X92208413Y-67812598D01*
X92332686Y-67639653D01*
X92337996Y-67630816D01*
X92432353Y-67439900D01*
X92436152Y-67430305D01*
X92498060Y-67226543D01*
X92500238Y-67216470D01*
X92501669Y-67205595D01*
X92499458Y-67191411D01*
X92486300Y-67187633D01*
X91439798Y-67187633D01*
X91424559Y-67192108D01*
X91423354Y-67193498D01*
X91421683Y-67201181D01*
X91421683Y-69201518D01*
X90913683Y-69201518D01*
X90913683Y-67205748D01*
X90909208Y-67190509D01*
X90907818Y-67189304D01*
X90900135Y-67187633D01*
X89850908Y-67187633D01*
X89837377Y-67191606D01*
X89835940Y-67201599D01*
X89866248Y-67336079D01*
X89869328Y-67345908D01*
X89949453Y-67543236D01*
X89954096Y-67552427D01*
X90065377Y-67734021D01*
X90071460Y-67742332D01*
X90210896Y-67903300D01*
X90218263Y-67910516D01*
X90382117Y-68046549D01*
X90390564Y-68052464D01*
X90460162Y-68093134D01*
X90508886Y-68144773D01*
X90521957Y-68214556D01*
X90495226Y-68280327D01*
X90454770Y-68313686D01*
X90446145Y-68318175D01*
X90437421Y-68323669D01*
X90267116Y-68451538D01*
X90259409Y-68458381D01*
X90112273Y-68612350D01*
X90105787Y-68620360D01*
X89985781Y-68796282D01*
X89980683Y-68805256D01*
X89891021Y-68998416D01*
X89887458Y-69008103D01*
X89832072Y-69207816D01*
X89317690Y-69207816D01*
X89317690Y-64360328D01*
X89804934Y-64360328D01*
X89805231Y-64365481D01*
X89805231Y-64365484D01*
X89810694Y-64460223D01*
X89817793Y-64583348D01*
X89818930Y-64588394D01*
X89818931Y-64588400D01*
X89832280Y-64647633D01*
X89866905Y-64801272D01*
X89950949Y-65008249D01*
X89976103Y-65049296D01*
X90052413Y-65173823D01*
X90067670Y-65198721D01*
X90213933Y-65367571D01*
X90385809Y-65510265D01*
X90458661Y-65552836D01*
X90459638Y-65553407D01*
X90508362Y-65605045D01*
X90521433Y-65674828D01*
X90494702Y-65740600D01*
X90454245Y-65773960D01*
X90446140Y-65778179D01*
X90437421Y-65783669D01*
X90267116Y-65911538D01*
X90259409Y-65918381D01*
X90112273Y-66072350D01*
X90105787Y-66080360D01*
X89985781Y-66256282D01*
X89980683Y-66265256D01*
X89891021Y-66458416D01*
X89887458Y-66468103D01*
X89832072Y-66667816D01*
X89833595Y-66676240D01*
X89845975Y-66679633D01*
X92486027Y-66679633D01*
X92499558Y-66675660D01*
X92500863Y-66666580D01*
X92458897Y-66499508D01*
X92455577Y-66489757D01*
X92370655Y-66294447D01*
X92365788Y-66285372D01*
X92250109Y-66106559D01*
X92243819Y-66098390D01*
X92100489Y-65940873D01*
X92092956Y-65933848D01*
X91925822Y-65801855D01*
X91917239Y-65796153D01*
X91880285Y-65775753D01*
X91830314Y-65725320D01*
X91815542Y-65655878D01*
X91840658Y-65589472D01*
X91868010Y-65562865D01*
X91926321Y-65521272D01*
X92047543Y-65434806D01*
X92205779Y-65277122D01*
X92208795Y-65272925D01*
X92208800Y-65272919D01*
X92209387Y-65272102D01*
X92209708Y-65271851D01*
X92212148Y-65268985D01*
X92212740Y-65269489D01*
X92265384Y-65228457D01*
X92311706Y-65219633D01*
X92865468Y-65219633D01*
X92876013Y-65220075D01*
X92925801Y-65224256D01*
X93003244Y-65213922D01*
X93006244Y-65213560D01*
X93047999Y-65209024D01*
X93077135Y-65205859D01*
X93077137Y-65205859D01*
X93083918Y-65205122D01*
X93090384Y-65202946D01*
X93092734Y-65202429D01*
X93093284Y-65202332D01*
X93094051Y-65202153D01*
X93094586Y-65201998D01*
X93096933Y-65201422D01*
X93103691Y-65200520D01*
X93177043Y-65173822D01*
X93179944Y-65172807D01*
X93247540Y-65150058D01*
X93247547Y-65150055D01*
X93254012Y-65147879D01*
X93259861Y-65144364D01*
X93262054Y-65143351D01*
X93262569Y-65143139D01*
X93263267Y-65142806D01*
X93263768Y-65142533D01*
X93265922Y-65141473D01*
X93272335Y-65139139D01*
X93338303Y-65097274D01*
X93340895Y-65095674D01*
X93402003Y-65058957D01*
X93407845Y-65055447D01*
X93412796Y-65050766D01*
X93414732Y-65049296D01*
X93415663Y-65048648D01*
X93419497Y-65045748D01*
X93423865Y-65042976D01*
X93427965Y-65039310D01*
X93479887Y-64987388D01*
X93482409Y-64984935D01*
X93533283Y-64936826D01*
X93533285Y-64936824D01*
X93538241Y-64932137D01*
X93542075Y-64926495D01*
X93546198Y-64921651D01*
X93553054Y-64914221D01*
X94249462Y-64217812D01*
X94257230Y-64210669D01*
X94290181Y-64182823D01*
X94295394Y-64178418D01*
X94342835Y-64116367D01*
X94344733Y-64113947D01*
X94389394Y-64058401D01*
X94393670Y-64053083D01*
X94396703Y-64046973D01*
X94398005Y-64044937D01*
X94398324Y-64044481D01*
X94398734Y-64043823D01*
X94399003Y-64043333D01*
X94400254Y-64041267D01*
X94404398Y-64035847D01*
X94437397Y-63965079D01*
X94438731Y-63962308D01*
X94445046Y-63949587D01*
X94473468Y-63892331D01*
X94475120Y-63885706D01*
X94475954Y-63883439D01*
X94476173Y-63882914D01*
X94476422Y-63882210D01*
X94476584Y-63881660D01*
X94477362Y-63879376D01*
X94480244Y-63873194D01*
X94481732Y-63866536D01*
X94481735Y-63866528D01*
X94497282Y-63796975D01*
X94497990Y-63793979D01*
X94515234Y-63724818D01*
X94515234Y-63724815D01*
X94516885Y-63718195D01*
X94517076Y-63711374D01*
X94517405Y-63708970D01*
X94517602Y-63707874D01*
X94518264Y-63703105D01*
X94519394Y-63698049D01*
X94519701Y-63692558D01*
X94519701Y-63619122D01*
X94519750Y-63615605D01*
X94521705Y-63545619D01*
X94521705Y-63545614D01*
X94521895Y-63538798D01*
X94520616Y-63532094D01*
X94520107Y-63525768D01*
X94519701Y-63515661D01*
X94519701Y-62645467D01*
X94520143Y-62634923D01*
X94523188Y-62598660D01*
X94524324Y-62585134D01*
X94521933Y-62567210D01*
X94520808Y-62558782D01*
X94519701Y-62542118D01*
X94519701Y-61719146D01*
X94519750Y-61715628D01*
X94519775Y-61714718D01*
X94521896Y-61638800D01*
X94520617Y-61632093D01*
X94520107Y-61625758D01*
X94519701Y-61615651D01*
X94519701Y-61019144D01*
X94519750Y-61015626D01*
X94520185Y-61000044D01*
X94521896Y-60938798D01*
X94520617Y-60932091D01*
X94520107Y-60925756D01*
X94519701Y-60915649D01*
X94519701Y-60099695D01*
X94539703Y-60031574D01*
X94548827Y-60019126D01*
X94607461Y-59948626D01*
X94611159Y-59944180D01*
X94686029Y-59810490D01*
X94707881Y-59771471D01*
X94707882Y-59771469D01*
X94710705Y-59766428D01*
X94712561Y-59760961D01*
X94712563Y-59760956D01*
X94774335Y-59578981D01*
X94774336Y-59578976D01*
X94776191Y-59573512D01*
X94805424Y-59371892D01*
X94806950Y-59313629D01*
X94788309Y-59110755D01*
X94733008Y-58914676D01*
X94713115Y-58874335D01*
X94645457Y-58737139D01*
X94642902Y-58731958D01*
X94630459Y-58715294D01*
X94524459Y-58573344D01*
X94524459Y-58573343D01*
X94521006Y-58568720D01*
X94371404Y-58430429D01*
X94283925Y-58375234D01*
X94203989Y-58324798D01*
X94203984Y-58324796D01*
X94199105Y-58321717D01*
X94009881Y-58246224D01*
X93810067Y-58206478D01*
X93804293Y-58206402D01*
X93804289Y-58206402D01*
X93701153Y-58205053D01*
X93606356Y-58203812D01*
X93600659Y-58204791D01*
X93600658Y-58204791D01*
X93481093Y-58225336D01*
X93405571Y-58238313D01*
X93214435Y-58308827D01*
X93209474Y-58311779D01*
X93209473Y-58311779D01*
X93126450Y-58361173D01*
X93039350Y-58412992D01*
X93035006Y-58416802D01*
X92989900Y-58456358D01*
X92925496Y-58486235D01*
X92906823Y-58487626D01*
X92647072Y-58487626D01*
X92578951Y-58467624D01*
X92532458Y-58413968D01*
X92521809Y-58375234D01*
X92520281Y-58361173D01*
X92519428Y-58353317D01*
X92468298Y-58216928D01*
X92380944Y-58100372D01*
X92264388Y-58013018D01*
X92127999Y-57961888D01*
X92065817Y-57955133D01*
X90269549Y-57955133D01*
X90207367Y-57961888D01*
X90070978Y-58013018D01*
X89954422Y-58100372D01*
X89867068Y-58216928D01*
X89815938Y-58353317D01*
X89809183Y-58415499D01*
X89809183Y-60211767D01*
X89815938Y-60273949D01*
X89867068Y-60410338D01*
X89954422Y-60526894D01*
X90070978Y-60614248D01*
X90079387Y-60617400D01*
X90079388Y-60617401D01*
X90188134Y-60658168D01*
X90244899Y-60700809D01*
X90269599Y-60767371D01*
X90254392Y-60836720D01*
X90234999Y-60863201D01*
X90115085Y-60988684D01*
X90108312Y-60995771D01*
X90105398Y-61000043D01*
X90105397Y-61000044D01*
X90100222Y-61007631D01*
X89982426Y-61180313D01*
X89968632Y-61210030D01*
X89890652Y-61378025D01*
X89888371Y-61382938D01*
X89828672Y-61598203D01*
X89804934Y-61820328D01*
X89805231Y-61825481D01*
X89805231Y-61825484D01*
X89810694Y-61920223D01*
X89817793Y-62043348D01*
X89818930Y-62048394D01*
X89818931Y-62048400D01*
X89832280Y-62107633D01*
X89866905Y-62261272D01*
X89907029Y-62360086D01*
X89945702Y-62455326D01*
X89950949Y-62468249D01*
X90001344Y-62550487D01*
X90056306Y-62640176D01*
X90067670Y-62658721D01*
X90213933Y-62827571D01*
X90385809Y-62970265D01*
X90436291Y-62999764D01*
X90459128Y-63013109D01*
X90507852Y-63064747D01*
X90520923Y-63134530D01*
X90494192Y-63200302D01*
X90453738Y-63233660D01*
X90441290Y-63240140D01*
X90437157Y-63243243D01*
X90437154Y-63243245D01*
X90266783Y-63371163D01*
X90262648Y-63374268D01*
X90237224Y-63400873D01*
X90117237Y-63526432D01*
X90108312Y-63535771D01*
X90105398Y-63540043D01*
X90105397Y-63540044D01*
X90101594Y-63545619D01*
X89982426Y-63720313D01*
X89968744Y-63749788D01*
X89899741Y-63898444D01*
X89888371Y-63922938D01*
X89828672Y-64138203D01*
X89804934Y-64360328D01*
X89317690Y-64360328D01*
X89317690Y-56255443D01*
X89980208Y-56255443D01*
X90000163Y-56483530D01*
X90001587Y-56488843D01*
X90001587Y-56488845D01*
X90050139Y-56670040D01*
X90059422Y-56704686D01*
X90061745Y-56709667D01*
X90061745Y-56709668D01*
X90153857Y-56907205D01*
X90153860Y-56907210D01*
X90156183Y-56912192D01*
X90287508Y-57099743D01*
X90449406Y-57261641D01*
X90453914Y-57264798D01*
X90453917Y-57264800D01*
X90521220Y-57311926D01*
X90636957Y-57392966D01*
X90641939Y-57395289D01*
X90641944Y-57395292D01*
X90839481Y-57487404D01*
X90844463Y-57489727D01*
X90849771Y-57491149D01*
X90849773Y-57491150D01*
X91060304Y-57547562D01*
X91060306Y-57547562D01*
X91065619Y-57548986D01*
X91293706Y-57568941D01*
X91521793Y-57548986D01*
X91527106Y-57547562D01*
X91527108Y-57547562D01*
X91737639Y-57491150D01*
X91737641Y-57491149D01*
X91742949Y-57489727D01*
X91747931Y-57487404D01*
X91945468Y-57395292D01*
X91945473Y-57395289D01*
X91950455Y-57392966D01*
X92066192Y-57311926D01*
X92133495Y-57264800D01*
X92133498Y-57264798D01*
X92138006Y-57261641D01*
X92299904Y-57099743D01*
X92431229Y-56912192D01*
X92433552Y-56907210D01*
X92433555Y-56907205D01*
X92525667Y-56709668D01*
X92525667Y-56709667D01*
X92527990Y-56704686D01*
X92537274Y-56670040D01*
X92585825Y-56488845D01*
X92585825Y-56488843D01*
X92587249Y-56483530D01*
X92607204Y-56255443D01*
X92604654Y-56226302D01*
X93990838Y-56226302D01*
X94004163Y-56429594D01*
X94054311Y-56627053D01*
X94139604Y-56812067D01*
X94257185Y-56978440D01*
X94261319Y-56982467D01*
X94373689Y-57091933D01*
X94403116Y-57120600D01*
X94407912Y-57123805D01*
X94407915Y-57123807D01*
X94545970Y-57216052D01*
X94572509Y-57233785D01*
X94577812Y-57236063D01*
X94577815Y-57236065D01*
X94754386Y-57311926D01*
X94759693Y-57314206D01*
X94859046Y-57336687D01*
X94952762Y-57357893D01*
X94952765Y-57357893D01*
X94958398Y-57359168D01*
X94964169Y-57359395D01*
X94964171Y-57359395D01*
X95034961Y-57362176D01*
X95102244Y-57384837D01*
X95119110Y-57398984D01*
X95130795Y-57410669D01*
X95164821Y-57472981D01*
X95167700Y-57499764D01*
X95167700Y-60965401D01*
X95167258Y-60975945D01*
X95163077Y-61025734D01*
X95163979Y-61032494D01*
X95173406Y-61103138D01*
X95173773Y-61106177D01*
X95182211Y-61183851D01*
X95184387Y-61190317D01*
X95184904Y-61192667D01*
X95185001Y-61193217D01*
X95185180Y-61193984D01*
X95185335Y-61194519D01*
X95185911Y-61196866D01*
X95186813Y-61203624D01*
X95213510Y-61276974D01*
X95214526Y-61279877D01*
X95237275Y-61347473D01*
X95237278Y-61347480D01*
X95239454Y-61353945D01*
X95242969Y-61359794D01*
X95243982Y-61361987D01*
X95244194Y-61362502D01*
X95244527Y-61363200D01*
X95244800Y-61363701D01*
X95245860Y-61365855D01*
X95248194Y-61372268D01*
X95290042Y-61438209D01*
X95291656Y-61440824D01*
X95331886Y-61507778D01*
X95336567Y-61512729D01*
X95338037Y-61514665D01*
X95338685Y-61515596D01*
X95341585Y-61519430D01*
X95344357Y-61523798D01*
X95348023Y-61527898D01*
X95399945Y-61579820D01*
X95402398Y-61582342D01*
X95443455Y-61625758D01*
X95455196Y-61638174D01*
X95460838Y-61642008D01*
X95465682Y-61646131D01*
X95473112Y-61652987D01*
X96229520Y-62409394D01*
X96236663Y-62417162D01*
X96268914Y-62455326D01*
X96274338Y-62459473D01*
X96274339Y-62459474D01*
X96330933Y-62502743D01*
X96333349Y-62504636D01*
X96394250Y-62553603D01*
X96400363Y-62556638D01*
X96402407Y-62557945D01*
X96402861Y-62558263D01*
X96403514Y-62558669D01*
X96404004Y-62558939D01*
X96406070Y-62560190D01*
X96411485Y-62564330D01*
X96470678Y-62591932D01*
X96482243Y-62597325D01*
X96485015Y-62598659D01*
X96555001Y-62633400D01*
X96561626Y-62635052D01*
X96563893Y-62635886D01*
X96564418Y-62636105D01*
X96565122Y-62636354D01*
X96565672Y-62636516D01*
X96567956Y-62637294D01*
X96574138Y-62640176D01*
X96580796Y-62641664D01*
X96580804Y-62641667D01*
X96650357Y-62657214D01*
X96653353Y-62657922D01*
X96722514Y-62675166D01*
X96722517Y-62675166D01*
X96729137Y-62676817D01*
X96735958Y-62677008D01*
X96738355Y-62677336D01*
X96739469Y-62677537D01*
X96744243Y-62678199D01*
X96749283Y-62679326D01*
X96754774Y-62679633D01*
X96828188Y-62679633D01*
X96831706Y-62679682D01*
X96908534Y-62681828D01*
X96915241Y-62680549D01*
X96921576Y-62680039D01*
X96931683Y-62679633D01*
X99209239Y-62679633D01*
X99277360Y-62699635D01*
X99304475Y-62723134D01*
X99394941Y-62827571D01*
X99566817Y-62970265D01*
X99617299Y-62999764D01*
X99640646Y-63013407D01*
X99689370Y-63065045D01*
X99702441Y-63134828D01*
X99675710Y-63200600D01*
X99635253Y-63233960D01*
X99627148Y-63238179D01*
X99618429Y-63243669D01*
X99448124Y-63371538D01*
X99440417Y-63378381D01*
X99293281Y-63532350D01*
X99286795Y-63540360D01*
X99166789Y-63716282D01*
X99161691Y-63725256D01*
X99072029Y-63918416D01*
X99068466Y-63928103D01*
X99013080Y-64127816D01*
X99014603Y-64136240D01*
X99026983Y-64139633D01*
X101667035Y-64139633D01*
X101680566Y-64135660D01*
X101681871Y-64126580D01*
X101639905Y-63959508D01*
X101636585Y-63949757D01*
X101551663Y-63754447D01*
X101546796Y-63745372D01*
X101431117Y-63566559D01*
X101424827Y-63558390D01*
X101281497Y-63400873D01*
X101273964Y-63393848D01*
X101106830Y-63261855D01*
X101098247Y-63256153D01*
X101061293Y-63235753D01*
X101011322Y-63185320D01*
X100996550Y-63115878D01*
X101021666Y-63049472D01*
X101049018Y-63022865D01*
X101118954Y-62972980D01*
X101228551Y-62894806D01*
X101386787Y-62737122D01*
X101428318Y-62679326D01*
X101514126Y-62559910D01*
X101517144Y-62555710D01*
X101519726Y-62550487D01*
X101613827Y-62360086D01*
X101613828Y-62360084D01*
X101616121Y-62355444D01*
X101681061Y-62141702D01*
X101710220Y-61920223D01*
X101711847Y-61853633D01*
X101693543Y-61630994D01*
X101639122Y-61414335D01*
X101550045Y-61209473D01*
X101435552Y-61032494D01*
X101431513Y-61026250D01*
X101431511Y-61026247D01*
X101428705Y-61021910D01*
X101409096Y-61000360D01*
X101281489Y-60860121D01*
X101250437Y-60796275D01*
X101258832Y-60725776D01*
X101304008Y-60671008D01*
X101330452Y-60657339D01*
X101436988Y-60617400D01*
X101445396Y-60614248D01*
X101561952Y-60526894D01*
X101649306Y-60410338D01*
X101700436Y-60273949D01*
X101707191Y-60211767D01*
X101707191Y-58415499D01*
X101700436Y-58353317D01*
X101649306Y-58216928D01*
X101561952Y-58100372D01*
X101445396Y-58013018D01*
X101309007Y-57961888D01*
X101246825Y-57955133D01*
X99450557Y-57955133D01*
X99388375Y-57961888D01*
X99251986Y-58013018D01*
X99135430Y-58100372D01*
X99048076Y-58216928D01*
X98996946Y-58353317D01*
X98990191Y-58415499D01*
X98990191Y-60211767D01*
X98996946Y-60273949D01*
X99048076Y-60410338D01*
X99135430Y-60526894D01*
X99251986Y-60614248D01*
X99260395Y-60617400D01*
X99260396Y-60617401D01*
X99369142Y-60658168D01*
X99425907Y-60700809D01*
X99450607Y-60767371D01*
X99435400Y-60836720D01*
X99416007Y-60863201D01*
X99308267Y-60975945D01*
X99296093Y-60988684D01*
X99234569Y-61024114D01*
X99204999Y-61027633D01*
X97236229Y-61027633D01*
X97168108Y-61007631D01*
X97147134Y-60990728D01*
X96856605Y-60700199D01*
X96822579Y-60637887D01*
X96819700Y-60611104D01*
X96819700Y-57145468D01*
X96820142Y-57134924D01*
X96823752Y-57091933D01*
X96824323Y-57085135D01*
X96823421Y-57078376D01*
X96823421Y-57078371D01*
X96813997Y-57007740D01*
X96813627Y-57004686D01*
X96805926Y-56933800D01*
X96805926Y-56933799D01*
X96805189Y-56927017D01*
X96803012Y-56920550D01*
X96802496Y-56918202D01*
X96802398Y-56917644D01*
X96802221Y-56916886D01*
X96802065Y-56916349D01*
X96801489Y-56914002D01*
X96800587Y-56907244D01*
X96773889Y-56833892D01*
X96772874Y-56830991D01*
X96750125Y-56763395D01*
X96750122Y-56763388D01*
X96747946Y-56756923D01*
X96744431Y-56751074D01*
X96743418Y-56748881D01*
X96743206Y-56748366D01*
X96742873Y-56747668D01*
X96742600Y-56747167D01*
X96741540Y-56745013D01*
X96739206Y-56738600D01*
X96697341Y-56672632D01*
X96695741Y-56670040D01*
X96666547Y-56621453D01*
X96655514Y-56603090D01*
X96650833Y-56598139D01*
X96649363Y-56596203D01*
X96648716Y-56595272D01*
X96645813Y-56591434D01*
X96643043Y-56587070D01*
X96639377Y-56582971D01*
X96587472Y-56531066D01*
X96585019Y-56528544D01*
X96536898Y-56477657D01*
X96536894Y-56477654D01*
X96532204Y-56472694D01*
X96526557Y-56468856D01*
X96521705Y-56464727D01*
X96514275Y-56457869D01*
X96239561Y-56183155D01*
X96205535Y-56120843D01*
X96203187Y-56105608D01*
X96198314Y-56052569D01*
X96147654Y-55872944D01*
X96147769Y-55862178D01*
X96137832Y-55845984D01*
X96055462Y-55678953D01*
X96052907Y-55673772D01*
X96034502Y-55649124D01*
X95934464Y-55515158D01*
X95934464Y-55515157D01*
X95931011Y-55510534D01*
X95781409Y-55372243D01*
X95643866Y-55285460D01*
X95613994Y-55266612D01*
X95613989Y-55266610D01*
X95609110Y-55263531D01*
X95419886Y-55188038D01*
X95220072Y-55148292D01*
X95214298Y-55148216D01*
X95214294Y-55148216D01*
X95111158Y-55146867D01*
X95016361Y-55145626D01*
X95010664Y-55146605D01*
X95010663Y-55146605D01*
X94821273Y-55179148D01*
X94815576Y-55180127D01*
X94624440Y-55250641D01*
X94619479Y-55253593D01*
X94619478Y-55253593D01*
X94567085Y-55284764D01*
X94449355Y-55354806D01*
X94296184Y-55489133D01*
X94292617Y-55493658D01*
X94292612Y-55493663D01*
X94252919Y-55544014D01*
X94170057Y-55649124D01*
X94075198Y-55829421D01*
X94014784Y-56023986D01*
X93990838Y-56226302D01*
X92604654Y-56226302D01*
X92587249Y-56027356D01*
X92543827Y-55865303D01*
X92529413Y-55811510D01*
X92529412Y-55811508D01*
X92527990Y-55806200D01*
X92522632Y-55794710D01*
X92433555Y-55603681D01*
X92433552Y-55603676D01*
X92431229Y-55598694D01*
X92351849Y-55485328D01*
X92303063Y-55415654D01*
X92303061Y-55415651D01*
X92299904Y-55411143D01*
X92138006Y-55249245D01*
X92133498Y-55246088D01*
X92133495Y-55246086D01*
X91995440Y-55149419D01*
X91950455Y-55117920D01*
X91945471Y-55115596D01*
X91943178Y-55114272D01*
X91894185Y-55062890D01*
X91880749Y-54993176D01*
X91907135Y-54927265D01*
X91943178Y-54896034D01*
X91954708Y-54889377D01*
X92006754Y-54852934D01*
X92015130Y-54842455D01*
X92008062Y-54829009D01*
X91306518Y-54127465D01*
X91292574Y-54119851D01*
X91290741Y-54119982D01*
X91284126Y-54124233D01*
X90578629Y-54829730D01*
X90572199Y-54841505D01*
X90581495Y-54853520D01*
X90632704Y-54889377D01*
X90644234Y-54896034D01*
X90693227Y-54947416D01*
X90706664Y-55017130D01*
X90680277Y-55083041D01*
X90644234Y-55114272D01*
X90641941Y-55115596D01*
X90636957Y-55117920D01*
X90591972Y-55149419D01*
X90453917Y-55246086D01*
X90453914Y-55246088D01*
X90449406Y-55249245D01*
X90287508Y-55411143D01*
X90284351Y-55415651D01*
X90284349Y-55415654D01*
X90235563Y-55485328D01*
X90156183Y-55598694D01*
X90153860Y-55603676D01*
X90153857Y-55603681D01*
X90064780Y-55794710D01*
X90059422Y-55806200D01*
X90058000Y-55811508D01*
X90057999Y-55811510D01*
X90043585Y-55865303D01*
X90000163Y-56027356D01*
X89980208Y-56255443D01*
X89317690Y-56255443D01*
X89317690Y-53760918D01*
X89981189Y-53760918D01*
X90000178Y-53977962D01*
X90002081Y-53988755D01*
X90058470Y-54199204D01*
X90062216Y-54209496D01*
X90154292Y-54406954D01*
X90159775Y-54416449D01*
X90196215Y-54468491D01*
X90206694Y-54476867D01*
X90220140Y-54469799D01*
X90921684Y-53768255D01*
X90928062Y-53756575D01*
X91658114Y-53756575D01*
X91658245Y-53758408D01*
X91662496Y-53765023D01*
X92367993Y-54470520D01*
X92379768Y-54476950D01*
X92391783Y-54467654D01*
X92427637Y-54416449D01*
X92433120Y-54406954D01*
X92525196Y-54209496D01*
X92528942Y-54199204D01*
X92585331Y-53988755D01*
X92587234Y-53977962D01*
X92606223Y-53760918D01*
X92606223Y-53749968D01*
X92587234Y-53532924D01*
X92585331Y-53522131D01*
X92528942Y-53311682D01*
X92525196Y-53301390D01*
X92433120Y-53103932D01*
X92427637Y-53094437D01*
X92391197Y-53042395D01*
X92380718Y-53034019D01*
X92367272Y-53041087D01*
X91665728Y-53742631D01*
X91658114Y-53756575D01*
X90928062Y-53756575D01*
X90929298Y-53754311D01*
X90929167Y-53752478D01*
X90924916Y-53745863D01*
X90219419Y-53040366D01*
X90207644Y-53033936D01*
X90195629Y-53043232D01*
X90159775Y-53094437D01*
X90154292Y-53103932D01*
X90062216Y-53301390D01*
X90058470Y-53311682D01*
X90002081Y-53522131D01*
X90000178Y-53532924D01*
X89981189Y-53749968D01*
X89981189Y-53760918D01*
X89317690Y-53760918D01*
X89317690Y-52668431D01*
X90572282Y-52668431D01*
X90579350Y-52681877D01*
X91280894Y-53383421D01*
X91294838Y-53391035D01*
X91296671Y-53390904D01*
X91303286Y-53386653D01*
X92008783Y-52681156D01*
X92015213Y-52669381D01*
X92005917Y-52657366D01*
X91954712Y-52621512D01*
X91945217Y-52616029D01*
X91747759Y-52523953D01*
X91737467Y-52520207D01*
X91527018Y-52463818D01*
X91516225Y-52461915D01*
X91299181Y-52442926D01*
X91288231Y-52442926D01*
X91071187Y-52461915D01*
X91060394Y-52463818D01*
X90849945Y-52520207D01*
X90839653Y-52523953D01*
X90642195Y-52616029D01*
X90632700Y-52621512D01*
X90580658Y-52657952D01*
X90572282Y-52668431D01*
X89317690Y-52668431D01*
X89317690Y-51650835D01*
X90745232Y-51650835D01*
X90753368Y-51661840D01*
X91013629Y-51861544D01*
X91019228Y-51865378D01*
X91314952Y-52045181D01*
X91320942Y-52048393D01*
X91634348Y-52195203D01*
X91640652Y-52197750D01*
X91968074Y-52309851D01*
X91974625Y-52311705D01*
X92312230Y-52387787D01*
X92318949Y-52388924D01*
X92662803Y-52428102D01*
X92669593Y-52428505D01*
X93015663Y-52430317D01*
X93022464Y-52429985D01*
X93366710Y-52394411D01*
X93373438Y-52393345D01*
X93711834Y-52320798D01*
X93718383Y-52319019D01*
X94046968Y-52210350D01*
X94053310Y-52207864D01*
X94368213Y-52064355D01*
X94374267Y-52061190D01*
X94671817Y-51884518D01*
X94677498Y-51880715D01*
X94954236Y-51672935D01*
X94959460Y-51668551D01*
X94965927Y-51662499D01*
X94973996Y-51648819D01*
X94973969Y-51648095D01*
X94968825Y-51639792D01*
X92872500Y-49543466D01*
X92858559Y-49535854D01*
X92856724Y-49535985D01*
X92850110Y-49540236D01*
X90752113Y-51638234D01*
X90745232Y-51650835D01*
X89317690Y-51650835D01*
X89317690Y-49163453D01*
X89597098Y-49163453D01*
X89614608Y-49509105D01*
X89615318Y-49515861D01*
X89670054Y-49857587D01*
X89671493Y-49864242D01*
X89762813Y-50198050D01*
X89764962Y-50204511D01*
X89891801Y-50526512D01*
X89894632Y-50532695D01*
X90055502Y-50839109D01*
X90058996Y-50844970D01*
X90252008Y-51132200D01*
X90256118Y-51137654D01*
X90371601Y-51274795D01*
X90384340Y-51283239D01*
X90394783Y-51277142D01*
X92487670Y-49184256D01*
X92494047Y-49172577D01*
X93224098Y-49172577D01*
X93224229Y-49174412D01*
X93228480Y-49181026D01*
X95323243Y-51275788D01*
X95336839Y-51283213D01*
X95346452Y-51276512D01*
X95442534Y-51164806D01*
X95446692Y-51159406D01*
X95642712Y-50874197D01*
X95646259Y-50868386D01*
X95810323Y-50563684D01*
X95813230Y-50557506D01*
X95943433Y-50236857D01*
X95945647Y-50230427D01*
X96033359Y-49922511D01*
X96071258Y-49862476D01*
X96135598Y-49832462D01*
X96205951Y-49841997D01*
X96259981Y-49888054D01*
X96280538Y-49957030D01*
X96280538Y-55184049D01*
X96278792Y-55204954D01*
X96275467Y-55224717D01*
X96275314Y-55237256D01*
X96277424Y-55251990D01*
X96278373Y-55260837D01*
X96292074Y-55452416D01*
X96301047Y-55493663D01*
X96335978Y-55654238D01*
X96337926Y-55663195D01*
X96339493Y-55667397D01*
X96339495Y-55667403D01*
X96368894Y-55746223D01*
X96370388Y-55767106D01*
X96375644Y-55771760D01*
X96386979Y-55794710D01*
X96413309Y-55865303D01*
X96516687Y-56054626D01*
X96645956Y-56227310D01*
X96798485Y-56379839D01*
X96971169Y-56509108D01*
X96975123Y-56511267D01*
X97104132Y-56581711D01*
X97160492Y-56612486D01*
X97164704Y-56614057D01*
X97358392Y-56686300D01*
X97358398Y-56686302D01*
X97362600Y-56687869D01*
X97366986Y-56688823D01*
X97366989Y-56688824D01*
X97491159Y-56715835D01*
X97573379Y-56733721D01*
X97577867Y-56734042D01*
X97748135Y-56746220D01*
X97760044Y-56747644D01*
X97776000Y-56750328D01*
X97782355Y-56750406D01*
X97783680Y-56750422D01*
X97783684Y-56750422D01*
X97788539Y-56750481D01*
X97816127Y-56746530D01*
X97833990Y-56745257D01*
X102855636Y-56745257D01*
X102876541Y-56747003D01*
X102891511Y-56749522D01*
X102891516Y-56749522D01*
X102896304Y-56750328D01*
X102902634Y-56750405D01*
X102903985Y-56750422D01*
X102903989Y-56750422D01*
X102908843Y-56750481D01*
X102923577Y-56748371D01*
X102932424Y-56747422D01*
X103080620Y-56736824D01*
X103119516Y-56734042D01*
X103119517Y-56734042D01*
X103124003Y-56733721D01*
X103281885Y-56699376D01*
X103330393Y-56688824D01*
X103330396Y-56688823D01*
X103334782Y-56687869D01*
X103338984Y-56686302D01*
X103338990Y-56686300D01*
X103532678Y-56614057D01*
X103536890Y-56612486D01*
X103593251Y-56581711D01*
X103722259Y-56511267D01*
X103726213Y-56509108D01*
X103898897Y-56379839D01*
X104051426Y-56227310D01*
X104180695Y-56054626D01*
X104284073Y-55865303D01*
X104304137Y-55811510D01*
X104357887Y-55667403D01*
X104357889Y-55667397D01*
X104359456Y-55663195D01*
X104361405Y-55654238D01*
X104404352Y-55456810D01*
X104405308Y-55452416D01*
X104411042Y-55372243D01*
X104417807Y-55277660D01*
X104419231Y-55265749D01*
X104419995Y-55261208D01*
X104421915Y-55249795D01*
X104422068Y-55237256D01*
X104418117Y-55209668D01*
X104416844Y-55191805D01*
X104416844Y-54850884D01*
X104436846Y-54782763D01*
X104490502Y-54736270D01*
X104560776Y-54726166D01*
X104596899Y-54737068D01*
X104893845Y-54878105D01*
X105552266Y-55190827D01*
X105561494Y-55195688D01*
X105600458Y-55218320D01*
X105600463Y-55218322D01*
X105606788Y-55221996D01*
X105613785Y-55224115D01*
X105613796Y-55224120D01*
X105677713Y-55243478D01*
X105681703Y-55244759D01*
X105727236Y-55260220D01*
X105751811Y-55268565D01*
X105759101Y-55269261D01*
X105764475Y-55270414D01*
X105769840Y-55271379D01*
X105776846Y-55273501D01*
X105821672Y-55276282D01*
X105850757Y-55278086D01*
X105854937Y-55278415D01*
X105921401Y-55284764D01*
X105921405Y-55284764D01*
X105928692Y-55285460D01*
X105935946Y-55284460D01*
X105941377Y-55284347D01*
X105946881Y-55284049D01*
X105954192Y-55284503D01*
X105961407Y-55283263D01*
X105961411Y-55283263D01*
X106027179Y-55271962D01*
X106031318Y-55271321D01*
X106071759Y-55265749D01*
X106104717Y-55261208D01*
X106111534Y-55258572D01*
X106116814Y-55257207D01*
X106122097Y-55255652D01*
X106129312Y-55254412D01*
X106197498Y-55225399D01*
X106201355Y-55223833D01*
X106270441Y-55197114D01*
X106276479Y-55192973D01*
X106281313Y-55190425D01*
X106286075Y-55187709D01*
X106292812Y-55184842D01*
X106298709Y-55180502D01*
X106298713Y-55180500D01*
X106352466Y-55140943D01*
X106355880Y-55138517D01*
X106410935Y-55100757D01*
X106410943Y-55100750D01*
X106416975Y-55096613D01*
X106421894Y-55091198D01*
X106426020Y-55087600D01*
X106430028Y-55083863D01*
X106435923Y-55079524D01*
X106483911Y-55023038D01*
X106486641Y-55019931D01*
X106531539Y-54970513D01*
X106531541Y-54970510D01*
X106536458Y-54965098D01*
X106539998Y-54958700D01*
X106543188Y-54954246D01*
X106546230Y-54949685D01*
X106550967Y-54944108D01*
X106584677Y-54878092D01*
X106586638Y-54874405D01*
X106618939Y-54816027D01*
X106618940Y-54816025D01*
X106622482Y-54809623D01*
X106624457Y-54802576D01*
X106626545Y-54797486D01*
X106628443Y-54792382D01*
X106631774Y-54785859D01*
X106649382Y-54713901D01*
X106650445Y-54709849D01*
X106668458Y-54645574D01*
X106668458Y-54645571D01*
X106670432Y-54638529D01*
X106670733Y-54631215D01*
X106671834Y-54624265D01*
X106671830Y-54624264D01*
X106672675Y-54618708D01*
X106674007Y-54613264D01*
X106674703Y-54602046D01*
X106674703Y-54537317D01*
X106674809Y-54532138D01*
X106677736Y-54460993D01*
X106676346Y-54453803D01*
X106675798Y-54446511D01*
X106675973Y-54446498D01*
X106674703Y-54433240D01*
X106674703Y-53379517D01*
X106675135Y-53369096D01*
X106678861Y-53324201D01*
X106678861Y-53324199D01*
X106679466Y-53316908D01*
X106678378Y-53309678D01*
X106678378Y-53309672D01*
X106668442Y-53243632D01*
X106667888Y-53239480D01*
X106660161Y-53173207D01*
X106660160Y-53173203D01*
X106659313Y-53165938D01*
X106656817Y-53159061D01*
X106655554Y-53153720D01*
X106654117Y-53148435D01*
X106653029Y-53141200D01*
X106625455Y-53072454D01*
X106623960Y-53068540D01*
X106601183Y-53005790D01*
X106601183Y-53005789D01*
X106598687Y-52998914D01*
X106594676Y-52992796D01*
X106592232Y-52987916D01*
X106589606Y-52983080D01*
X106586880Y-52976285D01*
X106544232Y-52915729D01*
X106541877Y-52912264D01*
X106505276Y-52856439D01*
X106505275Y-52856438D01*
X106501262Y-52850317D01*
X106495948Y-52845282D01*
X106492429Y-52841074D01*
X106488779Y-52836992D01*
X106484566Y-52831011D01*
X106479093Y-52826162D01*
X106479091Y-52826159D01*
X106429113Y-52781874D01*
X106426060Y-52779077D01*
X106372266Y-52728118D01*
X106365936Y-52724442D01*
X106361543Y-52721155D01*
X106357058Y-52718027D01*
X106351578Y-52713171D01*
X106286335Y-52678124D01*
X106282683Y-52676084D01*
X106224943Y-52642546D01*
X106224944Y-52642546D01*
X106218618Y-52638872D01*
X106211617Y-52636752D01*
X106206602Y-52634571D01*
X106201490Y-52632548D01*
X106195046Y-52629086D01*
X106123478Y-52609985D01*
X106119460Y-52608840D01*
X106055565Y-52589488D01*
X106055560Y-52589487D01*
X106048560Y-52587367D01*
X106041254Y-52586914D01*
X106035884Y-52585948D01*
X106030445Y-52585155D01*
X106023368Y-52583266D01*
X105949312Y-52581140D01*
X105945129Y-52580950D01*
X105871214Y-52576365D01*
X105863993Y-52577606D01*
X105858484Y-52577904D01*
X105853073Y-52578378D01*
X105845755Y-52578168D01*
X105773192Y-52593138D01*
X105769109Y-52593910D01*
X105696094Y-52606456D01*
X105689353Y-52609325D01*
X105682603Y-52611311D01*
X105682605Y-52611316D01*
X105677226Y-52612936D01*
X105671732Y-52614069D01*
X105661301Y-52618253D01*
X105602853Y-52646014D01*
X105598130Y-52648139D01*
X105539330Y-52673159D01*
X105539325Y-52673162D01*
X105532594Y-52676026D01*
X105526703Y-52680361D01*
X105520338Y-52683992D01*
X105520252Y-52683841D01*
X105508819Y-52690678D01*
X104709109Y-53070515D01*
X104596902Y-53123810D01*
X104526788Y-53134969D01*
X104461771Y-53106449D01*
X104422495Y-53047307D01*
X104416844Y-53009996D01*
X104416844Y-51650835D01*
X105723230Y-51650835D01*
X105731366Y-51661840D01*
X105991627Y-51861544D01*
X105997226Y-51865378D01*
X106292950Y-52045181D01*
X106298940Y-52048393D01*
X106612346Y-52195203D01*
X106618650Y-52197750D01*
X106946072Y-52309851D01*
X106952623Y-52311705D01*
X107290228Y-52387787D01*
X107296947Y-52388924D01*
X107640801Y-52428102D01*
X107647591Y-52428505D01*
X107993661Y-52430317D01*
X108000462Y-52429985D01*
X108344708Y-52394411D01*
X108351436Y-52393345D01*
X108689832Y-52320798D01*
X108696381Y-52319019D01*
X109024966Y-52210350D01*
X109031308Y-52207864D01*
X109346211Y-52064355D01*
X109352265Y-52061190D01*
X109649815Y-51884518D01*
X109655496Y-51880715D01*
X109932234Y-51672935D01*
X109937458Y-51668551D01*
X109943925Y-51662499D01*
X109951994Y-51648819D01*
X109951967Y-51648095D01*
X109946823Y-51639792D01*
X107850498Y-49543466D01*
X107836557Y-49535854D01*
X107834722Y-49535985D01*
X107828108Y-49540236D01*
X105730111Y-51638234D01*
X105723230Y-51650835D01*
X104416844Y-51650835D01*
X104416844Y-49951908D01*
X104436846Y-49883787D01*
X104490502Y-49837294D01*
X104560776Y-49827190D01*
X104625356Y-49856684D01*
X104664378Y-49918660D01*
X104740811Y-50198050D01*
X104742960Y-50204511D01*
X104869799Y-50526512D01*
X104872630Y-50532695D01*
X105033500Y-50839109D01*
X105036994Y-50844970D01*
X105230006Y-51132200D01*
X105234116Y-51137654D01*
X105349599Y-51274795D01*
X105362338Y-51283239D01*
X105372781Y-51277142D01*
X107465668Y-49184256D01*
X107472045Y-49172577D01*
X108202096Y-49172577D01*
X108202227Y-49174412D01*
X108206478Y-49181026D01*
X110301241Y-51275788D01*
X110314837Y-51283213D01*
X110324450Y-51276512D01*
X110420532Y-51164806D01*
X110424690Y-51159406D01*
X110620710Y-50874197D01*
X110624257Y-50868386D01*
X110788321Y-50563684D01*
X110791228Y-50557506D01*
X110921431Y-50236857D01*
X110923645Y-50230427D01*
X111018456Y-49897589D01*
X111019963Y-49890959D01*
X111078277Y-49549808D01*
X111079057Y-49543068D01*
X111100282Y-49196022D01*
X111100398Y-49192419D01*
X111100466Y-49173265D01*
X111100374Y-49169640D01*
X111081572Y-48822469D01*
X111080837Y-48815703D01*
X111024911Y-48474184D01*
X111023444Y-48467512D01*
X110930965Y-48134044D01*
X110928791Y-48127581D01*
X110800829Y-47806028D01*
X110797973Y-47799848D01*
X110636035Y-47494000D01*
X110632535Y-47488175D01*
X110438499Y-47201585D01*
X110434392Y-47196175D01*
X110325777Y-47068101D01*
X110312952Y-47059665D01*
X110302628Y-47065717D01*
X108209708Y-49158636D01*
X108202096Y-49172577D01*
X107472045Y-49172577D01*
X107473280Y-49170315D01*
X107473149Y-49168480D01*
X107468898Y-49161866D01*
X105374146Y-47067115D01*
X105360609Y-47059723D01*
X105350907Y-47066511D01*
X105247896Y-47187122D01*
X105243763Y-47192527D01*
X105048739Y-47478422D01*
X105045218Y-47484235D01*
X104882210Y-47789520D01*
X104879324Y-47795710D01*
X104750246Y-48116803D01*
X104748055Y-48123238D01*
X104664143Y-48421764D01*
X104626454Y-48481931D01*
X104562219Y-48512169D01*
X104491833Y-48502880D01*
X104437642Y-48457012D01*
X104416844Y-48387668D01*
X104416844Y-47648727D01*
X104418590Y-47627822D01*
X104421109Y-47612852D01*
X104421109Y-47612847D01*
X104421915Y-47608059D01*
X104422068Y-47595520D01*
X104419958Y-47580786D01*
X104419008Y-47571928D01*
X104413019Y-47488175D01*
X104405308Y-47380360D01*
X104359456Y-47169581D01*
X104357889Y-47165379D01*
X104357887Y-47165373D01*
X104285644Y-46971685D01*
X104284073Y-46967473D01*
X104278266Y-46956837D01*
X104182854Y-46782104D01*
X104180695Y-46778150D01*
X104117463Y-46693681D01*
X105723011Y-46693681D01*
X105723045Y-46694520D01*
X105728100Y-46702647D01*
X107824878Y-48799426D01*
X107838819Y-48807038D01*
X107840654Y-48806907D01*
X107847268Y-48802656D01*
X109945118Y-46704805D01*
X109952732Y-46690861D01*
X109952664Y-46689907D01*
X109948710Y-46683928D01*
X109674352Y-46474923D01*
X109668728Y-46471101D01*
X109372387Y-46292337D01*
X109366380Y-46289144D01*
X109052477Y-46143434D01*
X109046154Y-46140905D01*
X108718342Y-46029947D01*
X108711784Y-46028117D01*
X108373920Y-45953213D01*
X108367191Y-45952099D01*
X108023203Y-45914122D01*
X108016423Y-45913743D01*
X107670324Y-45913140D01*
X107663551Y-45913495D01*
X107319414Y-45950272D01*
X107312704Y-45951359D01*
X106974572Y-46025084D01*
X106967997Y-46026895D01*
X106639805Y-46136706D01*
X106633483Y-46139209D01*
X106319076Y-46283820D01*
X106313033Y-46287006D01*
X106016094Y-46464720D01*
X106010434Y-46468538D01*
X105734421Y-46677287D01*
X105730829Y-46680321D01*
X105723011Y-46693681D01*
X104117463Y-46693681D01*
X104051426Y-46605466D01*
X103898897Y-46452937D01*
X103726213Y-46323668D01*
X103692399Y-46305204D01*
X103540837Y-46222445D01*
X103540835Y-46222444D01*
X103536890Y-46220290D01*
X103529879Y-46217675D01*
X103338990Y-46146476D01*
X103338984Y-46146474D01*
X103334782Y-46144907D01*
X103330396Y-46143953D01*
X103330393Y-46143952D01*
X103206223Y-46116941D01*
X103124003Y-46099055D01*
X103119515Y-46098734D01*
X102949247Y-46086556D01*
X102937336Y-46085132D01*
X102921382Y-46082448D01*
X102915027Y-46082370D01*
X102913702Y-46082354D01*
X102913698Y-46082354D01*
X102908843Y-46082295D01*
X102884558Y-46085773D01*
X102881255Y-46086246D01*
X102863392Y-46087519D01*
X97841746Y-46087519D01*
X97820841Y-46085773D01*
X97805871Y-46083254D01*
X97805866Y-46083254D01*
X97801078Y-46082448D01*
X97794748Y-46082371D01*
X97793397Y-46082354D01*
X97793393Y-46082354D01*
X97788539Y-46082295D01*
X97773805Y-46084405D01*
X97764958Y-46085354D01*
X97616762Y-46095952D01*
X97577866Y-46098734D01*
X97577865Y-46098734D01*
X97573379Y-46099055D01*
X97425055Y-46131321D01*
X97366989Y-46143952D01*
X97366986Y-46143953D01*
X97362600Y-46144907D01*
X97358398Y-46146474D01*
X97358392Y-46146476D01*
X97167503Y-46217675D01*
X97160492Y-46220290D01*
X97156547Y-46222444D01*
X97156545Y-46222445D01*
X97004983Y-46305204D01*
X96971169Y-46323668D01*
X96798485Y-46452937D01*
X96645956Y-46605466D01*
X96516687Y-46778150D01*
X96514528Y-46782104D01*
X96419117Y-46956837D01*
X96413309Y-46967473D01*
X96411738Y-46971685D01*
X96339495Y-47165373D01*
X96339493Y-47165379D01*
X96337926Y-47169581D01*
X96336972Y-47173967D01*
X96336971Y-47173970D01*
X96312000Y-47288762D01*
X96292074Y-47380360D01*
X96291753Y-47384847D01*
X96291753Y-47384848D01*
X96279575Y-47555116D01*
X96278151Y-47567025D01*
X96275467Y-47582981D01*
X96275314Y-47595520D01*
X96276004Y-47600335D01*
X96279265Y-47623108D01*
X96280538Y-47640971D01*
X96280538Y-48389397D01*
X96260536Y-48457518D01*
X96206880Y-48504011D01*
X96136606Y-48514115D01*
X96072026Y-48484621D01*
X96033121Y-48423069D01*
X95952967Y-48134044D01*
X95950793Y-48127581D01*
X95822831Y-47806028D01*
X95819975Y-47799848D01*
X95658037Y-47494000D01*
X95654537Y-47488175D01*
X95460501Y-47201585D01*
X95456394Y-47196175D01*
X95347779Y-47068101D01*
X95334954Y-47059665D01*
X95324630Y-47065717D01*
X93231710Y-49158636D01*
X93224098Y-49172577D01*
X92494047Y-49172577D01*
X92495282Y-49170315D01*
X92495151Y-49168480D01*
X92490900Y-49161866D01*
X90396148Y-47067115D01*
X90382611Y-47059723D01*
X90372909Y-47066511D01*
X90269898Y-47187122D01*
X90265765Y-47192527D01*
X90070741Y-47478422D01*
X90067220Y-47484235D01*
X89904212Y-47789520D01*
X89901326Y-47795710D01*
X89772248Y-48116803D01*
X89770057Y-48123238D01*
X89676405Y-48456414D01*
X89674922Y-48463049D01*
X89617803Y-48804382D01*
X89617044Y-48811154D01*
X89597122Y-49156658D01*
X89597098Y-49163453D01*
X89317690Y-49163453D01*
X89317690Y-48170774D01*
X89319190Y-48151389D01*
X89321495Y-48136588D01*
X89321495Y-48136585D01*
X89322876Y-48127716D01*
X89320631Y-48110547D01*
X89319798Y-48086607D01*
X89335400Y-47828676D01*
X89337234Y-47813572D01*
X89350204Y-47742798D01*
X89388730Y-47532567D01*
X89392369Y-47517799D01*
X89401601Y-47488175D01*
X89477365Y-47245038D01*
X89482760Y-47230816D01*
X89600006Y-46970306D01*
X89607075Y-46956837D01*
X89754872Y-46712351D01*
X89763515Y-46699829D01*
X89768332Y-46693681D01*
X90745013Y-46693681D01*
X90745047Y-46694520D01*
X90750102Y-46702647D01*
X92846880Y-48799426D01*
X92860821Y-48807038D01*
X92862656Y-48806907D01*
X92869270Y-48802656D01*
X94967120Y-46704805D01*
X94974734Y-46690861D01*
X94974666Y-46689907D01*
X94970712Y-46683928D01*
X94696354Y-46474923D01*
X94690730Y-46471101D01*
X94394389Y-46292337D01*
X94388382Y-46289144D01*
X94074479Y-46143434D01*
X94068156Y-46140905D01*
X93740344Y-46029947D01*
X93733786Y-46028117D01*
X93395922Y-45953213D01*
X93389193Y-45952099D01*
X93045205Y-45914122D01*
X93038425Y-45913743D01*
X92692326Y-45913140D01*
X92685553Y-45913495D01*
X92341416Y-45950272D01*
X92334706Y-45951359D01*
X91996574Y-46025084D01*
X91989999Y-46026895D01*
X91661807Y-46136706D01*
X91655485Y-46139209D01*
X91341078Y-46283820D01*
X91335035Y-46287006D01*
X91038096Y-46464720D01*
X91032436Y-46468538D01*
X90756423Y-46677287D01*
X90752831Y-46680321D01*
X90745013Y-46693681D01*
X89768332Y-46693681D01*
X89939706Y-46474939D01*
X89949796Y-46463551D01*
X90151795Y-46261552D01*
X90163183Y-46251462D01*
X90388073Y-46075271D01*
X90400595Y-46066628D01*
X90645081Y-45918831D01*
X90658550Y-45911762D01*
X90919063Y-45794515D01*
X90933282Y-45789121D01*
X91206049Y-45704124D01*
X91220811Y-45700486D01*
X91431042Y-45661960D01*
X91501816Y-45648990D01*
X91516920Y-45647156D01*
X91767619Y-45631991D01*
X91794329Y-45633248D01*
X91794549Y-45633251D01*
X91803420Y-45634632D01*
X91812322Y-45633468D01*
X91812325Y-45633468D01*
X91835033Y-45630498D01*
X91851371Y-45629434D01*
X108838283Y-45629434D01*
X108857667Y-45630934D01*
G37*
%TD.AperFunction*%
%TD*%
M02*
