%TF.GenerationSoftware,KiCad,Pcbnew,(6.0.0)*%
%TF.CreationDate,2022-04-03T10:41:41-04:00*%
%TF.ProjectId,JTAG_ISP-BOTH,4a544147-5f49-4535-902d-424f54482e6b,v5.3.0*%
%TF.SameCoordinates,Original*%
%TF.FileFunction,Copper,L1,Top*%
%TF.FilePolarity,Positive*%
%FSLAX46Y46*%
G04 Gerber Fmt 4.6, Leading zero omitted, Abs format (unit mm)*
G04 Created by KiCad (PCBNEW (6.0.0)) date 2022-04-03 10:41:41*
%MOMM*%
%LPD*%
G01*
G04 APERTURE LIST*
%ADD10C,0.190500*%
%TA.AperFunction,NonConductor*%
%ADD11C,0.190500*%
%TD*%
%TA.AperFunction,EtchedComponent*%
%ADD12C,0.508000*%
%TD*%
%TA.AperFunction,ComponentPad*%
%ADD13C,1.700000*%
%TD*%
%TA.AperFunction,ComponentPad*%
%ADD14O,1.700000X1.700000*%
%TD*%
%TA.AperFunction,ComponentPad*%
%ADD15R,1.700000X1.700000*%
%TD*%
%TA.AperFunction,ComponentPad*%
%ADD16C,5.499999*%
%TD*%
%TA.AperFunction,ComponentPad*%
%ADD17R,1.800000X1.800000*%
%TD*%
%TA.AperFunction,ComponentPad*%
%ADD18C,1.800000*%
%TD*%
%TA.AperFunction,ComponentPad*%
%ADD19C,1.600000*%
%TD*%
%TA.AperFunction,ComponentPad*%
%ADD20O,1.600000X1.600000*%
%TD*%
%TA.AperFunction,ComponentPad*%
%ADD21C,5.500000*%
%TD*%
%TA.AperFunction,ViaPad*%
%ADD22C,1.200000*%
%TD*%
%TA.AperFunction,Conductor*%
%ADD23C,0.508000*%
%TD*%
%TA.AperFunction,Conductor*%
%ADD24C,0.381000*%
%TD*%
%TA.AperFunction,Conductor*%
%ADD25C,0.635000*%
%TD*%
G04 APERTURE END LIST*
D10*
D11*
X121305754Y-81111801D02*
X121958897Y-81111801D01*
X121632325Y-82254801D02*
X121632325Y-81111801D01*
X122339897Y-82145944D02*
X122394325Y-82200372D01*
X122339897Y-82254801D01*
X122285468Y-82200372D01*
X122339897Y-82145944D01*
X122339897Y-82254801D01*
X122884183Y-82254801D02*
X122884183Y-81111801D01*
X123156325Y-81111801D01*
X123319611Y-81166230D01*
X123428468Y-81275087D01*
X123482897Y-81383944D01*
X123537325Y-81601658D01*
X123537325Y-81764944D01*
X123482897Y-81982658D01*
X123428468Y-82091515D01*
X123319611Y-82200372D01*
X123156325Y-82254801D01*
X122884183Y-82254801D01*
X124027183Y-82145944D02*
X124081611Y-82200372D01*
X124027183Y-82254801D01*
X123972754Y-82200372D01*
X124027183Y-82145944D01*
X124027183Y-82254801D01*
X125442325Y-81819372D02*
X126313183Y-81819372D01*
X128272611Y-81111801D02*
X127728325Y-81111801D01*
X127673897Y-81656087D01*
X127728325Y-81601658D01*
X127837183Y-81547230D01*
X128109325Y-81547230D01*
X128218183Y-81601658D01*
X128272611Y-81656087D01*
X128327040Y-81764944D01*
X128327040Y-82037087D01*
X128272611Y-82145944D01*
X128218183Y-82200372D01*
X128109325Y-82254801D01*
X127837183Y-82254801D01*
X127728325Y-82200372D01*
X127673897Y-82145944D01*
X128816897Y-82145944D02*
X128871325Y-82200372D01*
X128816897Y-82254801D01*
X128762468Y-82200372D01*
X128816897Y-82145944D01*
X128816897Y-82254801D01*
X129252325Y-81111801D02*
X129959897Y-81111801D01*
X129578897Y-81547230D01*
X129742183Y-81547230D01*
X129851040Y-81601658D01*
X129905468Y-81656087D01*
X129959897Y-81764944D01*
X129959897Y-82037087D01*
X129905468Y-82145944D01*
X129851040Y-82200372D01*
X129742183Y-82254801D01*
X129415611Y-82254801D01*
X129306754Y-82200372D01*
X129252325Y-82145944D01*
X130449754Y-82145944D02*
X130504183Y-82200372D01*
X130449754Y-82254801D01*
X130395325Y-82200372D01*
X130449754Y-82145944D01*
X130449754Y-82254801D01*
X131211754Y-81111801D02*
X131320611Y-81111801D01*
X131429468Y-81166230D01*
X131483897Y-81220658D01*
X131538325Y-81329515D01*
X131592754Y-81547230D01*
X131592754Y-81819372D01*
X131538325Y-82037087D01*
X131483897Y-82145944D01*
X131429468Y-82200372D01*
X131320611Y-82254801D01*
X131211754Y-82254801D01*
X131102897Y-82200372D01*
X131048468Y-82145944D01*
X130994040Y-82037087D01*
X130939611Y-81819372D01*
X130939611Y-81547230D01*
X130994040Y-81329515D01*
X131048468Y-81220658D01*
X131102897Y-81166230D01*
X131211754Y-81111801D01*
X120951968Y-83060888D02*
X121006397Y-83006460D01*
X121115254Y-82952031D01*
X121387397Y-82952031D01*
X121496254Y-83006460D01*
X121550683Y-83060888D01*
X121605111Y-83169745D01*
X121605111Y-83278602D01*
X121550683Y-83441888D01*
X120897540Y-84095031D01*
X121605111Y-84095031D01*
X122312683Y-82952031D02*
X122421540Y-82952031D01*
X122530397Y-83006460D01*
X122584825Y-83060888D01*
X122639254Y-83169745D01*
X122693683Y-83387460D01*
X122693683Y-83659602D01*
X122639254Y-83877317D01*
X122584825Y-83986174D01*
X122530397Y-84040602D01*
X122421540Y-84095031D01*
X122312683Y-84095031D01*
X122203825Y-84040602D01*
X122149397Y-83986174D01*
X122094968Y-83877317D01*
X122040540Y-83659602D01*
X122040540Y-83387460D01*
X122094968Y-83169745D01*
X122149397Y-83060888D01*
X122203825Y-83006460D01*
X122312683Y-82952031D01*
X123129111Y-83060888D02*
X123183540Y-83006460D01*
X123292397Y-82952031D01*
X123564540Y-82952031D01*
X123673397Y-83006460D01*
X123727825Y-83060888D01*
X123782254Y-83169745D01*
X123782254Y-83278602D01*
X123727825Y-83441888D01*
X123074683Y-84095031D01*
X123782254Y-84095031D01*
X124217683Y-83060888D02*
X124272111Y-83006460D01*
X124380968Y-82952031D01*
X124653111Y-82952031D01*
X124761968Y-83006460D01*
X124816397Y-83060888D01*
X124870825Y-83169745D01*
X124870825Y-83278602D01*
X124816397Y-83441888D01*
X124163254Y-84095031D01*
X124870825Y-84095031D01*
X125360683Y-83659602D02*
X126231540Y-83659602D01*
X126993540Y-82952031D02*
X127102397Y-82952031D01*
X127211254Y-83006460D01*
X127265683Y-83060888D01*
X127320111Y-83169745D01*
X127374540Y-83387460D01*
X127374540Y-83659602D01*
X127320111Y-83877317D01*
X127265683Y-83986174D01*
X127211254Y-84040602D01*
X127102397Y-84095031D01*
X126993540Y-84095031D01*
X126884683Y-84040602D01*
X126830254Y-83986174D01*
X126775825Y-83877317D01*
X126721397Y-83659602D01*
X126721397Y-83387460D01*
X126775825Y-83169745D01*
X126830254Y-83060888D01*
X126884683Y-83006460D01*
X126993540Y-82952031D01*
X127755540Y-82952031D02*
X128463111Y-82952031D01*
X128082111Y-83387460D01*
X128245397Y-83387460D01*
X128354254Y-83441888D01*
X128408683Y-83496317D01*
X128463111Y-83605174D01*
X128463111Y-83877317D01*
X128408683Y-83986174D01*
X128354254Y-84040602D01*
X128245397Y-84095031D01*
X127918825Y-84095031D01*
X127809968Y-84040602D01*
X127755540Y-83986174D01*
X128952968Y-83659602D02*
X129823825Y-83659602D01*
X130313683Y-83060888D02*
X130368111Y-83006460D01*
X130476968Y-82952031D01*
X130749111Y-82952031D01*
X130857968Y-83006460D01*
X130912397Y-83060888D01*
X130966825Y-83169745D01*
X130966825Y-83278602D01*
X130912397Y-83441888D01*
X130259254Y-84095031D01*
X130966825Y-84095031D01*
X131619968Y-83441888D02*
X131511111Y-83387460D01*
X131456683Y-83333031D01*
X131402254Y-83224174D01*
X131402254Y-83169745D01*
X131456683Y-83060888D01*
X131511111Y-83006460D01*
X131619968Y-82952031D01*
X131837683Y-82952031D01*
X131946540Y-83006460D01*
X132000968Y-83060888D01*
X132055397Y-83169745D01*
X132055397Y-83224174D01*
X132000968Y-83333031D01*
X131946540Y-83387460D01*
X131837683Y-83441888D01*
X131619968Y-83441888D01*
X131511111Y-83496317D01*
X131456683Y-83550745D01*
X131402254Y-83659602D01*
X131402254Y-83877317D01*
X131456683Y-83986174D01*
X131511111Y-84040602D01*
X131619968Y-84095031D01*
X131837683Y-84095031D01*
X131946540Y-84040602D01*
X132000968Y-83986174D01*
X132055397Y-83877317D01*
X132055397Y-83659602D01*
X132000968Y-83550745D01*
X131946540Y-83496317D01*
X131837683Y-83441888D01*
D12*
%TO.C,REF\u002A\u002A*%
X129584689Y-59205429D02*
X130822685Y-59793439D01*
X130822685Y-58617429D02*
X129584680Y-59205429D01*
X130739687Y-58730434D02*
X130299687Y-59390434D01*
X130822685Y-58617429D02*
X130822685Y-59793439D01*
%TD*%
D13*
%TO.P,J2,1,Pin_1*%
%TO.N,N/C*%
X109529699Y-59313633D03*
D14*
%TO.P,J2,2,Pin_2*%
%TO.N,GND*%
X109529699Y-61853633D03*
%TO.P,J2,3,Pin_3*%
%TO.N,RESET*%
X109529699Y-64393633D03*
%TO.P,J2,4,Pin_4*%
%TO.N,GND*%
X109529699Y-66933633D03*
%TO.P,J2,5,Pin_5*%
%TO.N,N/C*%
X109529699Y-69473633D03*
%TO.P,J2,6,Pin_6*%
%TO.N,GND*%
X109529699Y-72013633D03*
%TO.P,J2,7,Pin_7*%
%TO.N,N/C*%
X109529699Y-74553633D03*
%TO.P,J2,8,Pin_8*%
%TO.N,GND*%
X109529699Y-77093633D03*
%TD*%
D15*
%TO.P,J1,1,Pin_1*%
%TO.N,+5V*%
X91167683Y-59313633D03*
D14*
%TO.P,J1,2,Pin_2*%
X91167683Y-61853633D03*
%TO.P,J1,3,Pin_3*%
X91167683Y-64393633D03*
%TO.P,J1,4,Pin_4*%
%TO.N,GND*%
X91167683Y-66933633D03*
%TO.P,J1,5,Pin_5*%
X91167683Y-69473633D03*
%TO.P,J1,6,Pin_6*%
%TO.N,N/C*%
X91167683Y-72013633D03*
%TO.P,J1,7,Pin_7*%
%TO.N,GND*%
X91167683Y-74553633D03*
%TO.P,J1,8,Pin_8*%
%TO.N,N/C*%
X91167683Y-77093633D03*
%TD*%
D16*
%TO.P,REF\u002A\u002A,1*%
%TO.N,GND*%
X107837688Y-87207866D03*
%TD*%
%TO.P,REF\u002A\u002A,1*%
%TO.N,GND*%
X107837688Y-49171446D03*
%TD*%
D17*
%TO.P,D1,1,K*%
%TO.N,Net-(D1-Pad1)*%
X101618691Y-88705446D03*
D18*
%TO.P,D1,2,A*%
%TO.N,N/C*%
X99078691Y-88705446D03*
%TD*%
D15*
%TO.P,JTAG1,1,#MCLR*%
%TO.N,N/C*%
X100348691Y-59313633D03*
D14*
%TO.P,JTAG1,2,VDD*%
%TO.N,+5V*%
X100348691Y-61853633D03*
%TO.P,JTAG1,3,GND*%
%TO.N,GND*%
X100348691Y-64393633D03*
%TO.P,JTAG1,4,TDO*%
%TO.N,N/C*%
X100348691Y-66933633D03*
%TO.P,JTAG1,5,TCK*%
X100348691Y-69473633D03*
%TO.P,JTAG1,6,#RESET*%
%TO.N,RESET*%
X100348691Y-72013633D03*
%TO.P,JTAG1,7,TDI*%
%TO.N,N/C*%
X100348691Y-74553633D03*
%TO.P,JTAG1,8,TMS*%
X100348691Y-77093633D03*
%TD*%
D19*
%TO.P,R1,1*%
%TO.N,Net-(D1-Pad1)*%
X105493703Y-81805430D03*
D20*
%TO.P,R1,2*%
%TO.N,GND*%
X95333703Y-81805430D03*
%TD*%
D19*
%TO.P,C1,1*%
%TO.N,+5V*%
X91293706Y-56255443D03*
%TO.P,C1,2*%
%TO.N,GND*%
X91293706Y-53755443D03*
%TD*%
D16*
%TO.P,REF\u002A\u002A,1*%
%TO.N,GND*%
X92859690Y-49171446D03*
%TD*%
%TO.P,REF\u002A\u002A,1*%
%TO.N,GND*%
X92859690Y-87207866D03*
%TD*%
D21*
%TO.P,REF\u002A\u002A,1*%
%TO.N,GND*%
X134047660Y-87207862D03*
%TD*%
%TO.P,REF\u002A\u002A,1*%
%TO.N,GND*%
X134047660Y-49171439D03*
%TD*%
%TO.P,REF\u002A\u002A,1*%
%TO.N,GND*%
X119069661Y-87207862D03*
%TD*%
%TO.P,REF\u002A\u002A,1*%
%TO.N,GND*%
X119069661Y-49171450D03*
%TD*%
D13*
%TO.P,J3,1,Pin_1*%
%TO.N,SCLK*%
X135739681Y-59313633D03*
D14*
%TO.P,J3,2,Pin_2*%
%TO.N,GND*%
X135739681Y-61853633D03*
%TO.P,J3,3,Pin_3*%
%TO.N,RESET*%
X135739681Y-64393633D03*
%TO.P,J3,4,Pin_4*%
%TO.N,GND*%
X135739681Y-66933633D03*
%TO.P,J3,5,Pin_5*%
%TO.N,MOSI*%
X135739681Y-69473633D03*
%TO.P,J3,6,Pin_6*%
%TO.N,GND*%
X135739681Y-72013633D03*
%TO.P,J3,7,Pin_7*%
%TO.N,unconnected-(J3-Pad7)*%
X135739681Y-74553633D03*
%TO.P,J3,8,Pin_8*%
%TO.N,GND*%
X135739681Y-77093633D03*
%TD*%
D15*
%TO.P,J1,1,Pin_1*%
%TO.N,MISO*%
X127828673Y-53930433D03*
D14*
%TO.P,J1,2,Pin_2*%
%TO.N,+5V*%
X125288673Y-53930433D03*
%TO.P,J1,3,Pin_3*%
%TO.N,SCLK*%
X127828673Y-51390433D03*
%TO.P,J1,4,Pin_4*%
%TO.N,MOSI*%
X125288673Y-51390433D03*
%TO.P,J1,5,Pin_5*%
%TO.N,RESET*%
X127828673Y-48850433D03*
%TO.P,J1,6,Pin_6*%
%TO.N,GND*%
X125288673Y-48850433D03*
%TD*%
D19*
%TO.P,C1,1*%
%TO.N,+5V*%
X119703682Y-55855434D03*
%TO.P,C1,2*%
%TO.N,GND*%
X117203682Y-55855434D03*
%TD*%
D15*
%TO.P,J2,1,Pin_1*%
%TO.N,+5V*%
X117377665Y-59313633D03*
D14*
%TO.P,J2,2,Pin_2*%
X117377665Y-61853633D03*
%TO.P,J2,3,Pin_3*%
X117377665Y-64393633D03*
%TO.P,J2,4,Pin_4*%
%TO.N,GND*%
X117377665Y-66933633D03*
%TO.P,J2,5,Pin_5*%
X117377665Y-69473633D03*
%TO.P,J2,6,Pin_6*%
%TO.N,MISO*%
X117377665Y-72013633D03*
%TO.P,J2,7,Pin_7*%
%TO.N,GND*%
X117377665Y-74553633D03*
%TO.P,J2,8,Pin_8*%
%TO.N,SCLK*%
X117377665Y-77093633D03*
%TD*%
D22*
%TO.N,GND*%
X93493700Y-53605434D03*
%TO.N,*%
X96393700Y-78805436D03*
%TO.N,GND*%
X107837688Y-53605434D03*
%TO.N,+5V*%
X93693701Y-59313629D03*
%TO.N,*%
X96432200Y-72013626D03*
%TO.N,Net-(D1-Pad1)*%
X101618691Y-84680443D03*
%TO.N,GND*%
X106893700Y-77105434D03*
X93693701Y-74553629D03*
X92793700Y-81805434D03*
X106893700Y-61805434D03*
%TO.N,+5V*%
X95103706Y-56255443D03*
%TO.N,GND*%
X93707671Y-66933629D03*
%TO.N,MOSI*%
X122903682Y-53930433D03*
%TO.N,RESET*%
X131403682Y-64405434D03*
%TO.N,GND*%
X133103694Y-66933633D03*
X134076896Y-83187867D03*
X133003682Y-61905434D03*
X119917666Y-69473633D03*
%TO.N,RESET*%
X130003682Y-50905434D03*
%TO.N,MOSI*%
X131065182Y-69473645D03*
%TO.N,GND*%
X119069661Y-83187867D03*
X134047660Y-53191457D03*
X123002674Y-48850445D03*
X133003694Y-72013633D03*
%TD*%
D23*
%TO.N,*%
X96393700Y-78805436D02*
X96393700Y-72052126D01*
%TO.N,Net-(D1-Pad1)*%
X101618691Y-82480443D02*
X102293700Y-81805434D01*
X101618691Y-84680443D02*
X101618691Y-82480443D01*
%TO.N,*%
X96393700Y-72052126D02*
X96432200Y-72013626D01*
%TO.N,Net-(D1-Pad1)*%
X102293700Y-81805434D02*
X105493700Y-81805434D01*
D24*
%TO.N,GND*%
X95333699Y-81805434D02*
X95333703Y-81805430D01*
X106893700Y-78005434D02*
X111193700Y-82305434D01*
X89593700Y-81805434D02*
X89593700Y-83895318D01*
X111193700Y-82305434D02*
X111193700Y-83805434D01*
X95333703Y-81805430D02*
X97826113Y-81805430D01*
X107837688Y-87161446D02*
X107837688Y-87207866D01*
X95993700Y-53105434D02*
X95993700Y-52305456D01*
X92793700Y-81805434D02*
X89593700Y-81805434D01*
X111193700Y-54705434D02*
X106893700Y-59005434D01*
X95993700Y-52305456D02*
X92859690Y-49171446D01*
X93893700Y-55205434D02*
X94793700Y-54305434D01*
X96200254Y-90548430D02*
X92859690Y-87207866D01*
X111193700Y-52527458D02*
X111193700Y-54705434D01*
X92793700Y-81805434D02*
X95333699Y-81805434D01*
X93493700Y-53605434D02*
X94393700Y-54505434D01*
X107837688Y-49171446D02*
X111193700Y-52527458D01*
X104497124Y-90548430D02*
X96200254Y-90548430D01*
X89593700Y-83895318D02*
X92859690Y-87161308D01*
D25*
%TO.N,+5V*%
X94343691Y-56255443D02*
X95103706Y-56255443D01*
D24*
%TO.N,GND*%
X93343691Y-53755443D02*
X93493700Y-53605434D01*
X105193700Y-79605434D02*
X106893700Y-77905434D01*
X92743697Y-55205434D02*
X93893700Y-55205434D01*
D25*
%TO.N,+5V*%
X93707683Y-57119417D02*
X93707683Y-59591451D01*
%TO.N,GND*%
X109517881Y-77105434D02*
X109529689Y-77093626D01*
D24*
X96125702Y-45905434D02*
X104571676Y-45905434D01*
X100026109Y-79605434D02*
X105193700Y-79605434D01*
X94393700Y-54505434D02*
X94593700Y-54505434D01*
X104571676Y-45905434D02*
X107837688Y-49171446D01*
D25*
%TO.N,+5V*%
X93543709Y-56955443D02*
X93543709Y-56255443D01*
X92843700Y-56255434D02*
X93707683Y-57119417D01*
X93543709Y-56255443D02*
X94343691Y-56255443D01*
X91293706Y-56255443D02*
X93543709Y-56255443D01*
X91293700Y-56255434D02*
X92843700Y-56255434D01*
D24*
%TO.N,GND*%
X97826113Y-81805430D02*
X100026109Y-79605434D01*
X94593700Y-54505434D02*
X95993700Y-53105434D01*
D25*
X106893700Y-61805434D02*
X106941892Y-61853626D01*
D24*
X92859690Y-49171446D02*
X96125702Y-45905434D01*
X92859690Y-87161308D02*
X92859690Y-87207866D01*
X91293706Y-53755443D02*
X92743697Y-55205434D01*
X107837688Y-87207866D02*
X104497124Y-90548430D01*
D25*
%TO.N,+5V*%
X93707683Y-57119417D02*
X94571657Y-56255443D01*
D24*
%TO.N,GND*%
X106893700Y-59005434D02*
X106893700Y-78005434D01*
X111193700Y-83805434D02*
X107837688Y-87161446D01*
D23*
%TO.N,MISO*%
X127103682Y-56205434D02*
X124403682Y-56205434D01*
X127828673Y-53930433D02*
X127828673Y-55480443D01*
D24*
%TO.N,GND*%
X137403682Y-62049036D02*
X137403682Y-66861832D01*
X123002674Y-48850445D02*
X125288661Y-48850445D01*
X117377665Y-66933633D02*
X115703682Y-66933633D01*
X115703682Y-66933633D02*
X115703682Y-57580434D01*
X116003682Y-52237429D02*
X119069661Y-49171450D01*
X125288661Y-48850445D02*
X125288673Y-48850433D01*
X115703682Y-57580434D02*
X117203682Y-56080434D01*
X115703682Y-74605434D02*
X115703682Y-79821888D01*
X134015665Y-49171439D02*
X134015665Y-49149412D01*
X117203682Y-56080434D02*
X117203682Y-56055434D01*
X135739681Y-72013633D02*
X137295483Y-72013633D01*
X122103682Y-46105434D02*
X119037666Y-49171450D01*
X125303682Y-46105434D02*
X122103682Y-46105434D01*
X130971687Y-46105434D02*
X125303682Y-46105434D01*
X137391881Y-77093633D02*
X135739681Y-77093633D01*
X135687880Y-61905434D02*
X135739681Y-61853633D01*
D23*
%TO.N,SCLK*%
X118553279Y-80255031D02*
X128654085Y-80255031D01*
%TO.N,MISO*%
X122195483Y-72013633D02*
X117377665Y-72013633D01*
X127828673Y-55480443D02*
X127103682Y-56205434D01*
D24*
%TO.N,GND*%
X134047660Y-53191457D02*
X137333307Y-53191457D01*
X136803682Y-84451840D02*
X134047660Y-87207862D01*
D23*
%TO.N,MISO*%
X123303682Y-57305434D02*
X123303682Y-70905434D01*
D24*
%TO.N,GND*%
X115703682Y-79821888D02*
X119069661Y-83187867D01*
X116003682Y-54655434D02*
X116003682Y-52237429D01*
X133103694Y-66933633D02*
X135739681Y-66933633D01*
X135739681Y-61853633D02*
X137351881Y-61853633D01*
X137403682Y-53505434D02*
X137403682Y-52527461D01*
X125288673Y-46120443D02*
X125303682Y-46105434D01*
X137403682Y-62305434D02*
X137403682Y-53405434D01*
D23*
%TO.N,SCLK*%
X129703682Y-62405434D02*
X132795483Y-59313633D01*
X128188681Y-51390433D02*
X130303682Y-53505434D01*
%TO.N,MISO*%
X123303682Y-70905434D02*
X122195483Y-72013633D01*
X124403682Y-56205434D02*
X123303682Y-57305434D01*
D24*
%TO.N,GND*%
X137403682Y-72127454D02*
X137403682Y-77081832D01*
D25*
%TO.N,+5V*%
X119803682Y-55905434D02*
X123177718Y-55905434D01*
D24*
%TO.N,GND*%
X137403682Y-77081832D02*
X137391881Y-77093633D01*
X135739681Y-77093633D02*
X135739681Y-81525082D01*
X137303682Y-66933633D02*
X135739681Y-66933633D01*
X125288673Y-48850433D02*
X125288673Y-46120443D01*
D25*
%TO.N,+5V*%
X123177718Y-55905434D02*
X125152719Y-53930433D01*
D24*
%TO.N,GND*%
X135739681Y-72013633D02*
X133003694Y-72013633D01*
X134047660Y-83217103D02*
X134076896Y-83187867D01*
X136803682Y-83705434D02*
X136803682Y-84451840D01*
X117377665Y-74553633D02*
X115755483Y-74553633D01*
X134076896Y-83187867D02*
X136286115Y-83187867D01*
X117377665Y-66933633D02*
X117377665Y-69473633D01*
X137295483Y-72013633D02*
X137303682Y-72005434D01*
X117203682Y-55855434D02*
X116003682Y-54655434D01*
X137403682Y-52527461D02*
X134047660Y-49171439D01*
X115703682Y-74505434D02*
X115703682Y-69473633D01*
X135739681Y-81525082D02*
X134076896Y-83187867D01*
X134015665Y-49149412D02*
X130971687Y-46105434D01*
X137403682Y-72105434D02*
X137403682Y-66705434D01*
X136286115Y-83187867D02*
X136803682Y-83705434D01*
X133003682Y-61905434D02*
X135687880Y-61905434D01*
X115703682Y-69473633D02*
X117377665Y-69473633D01*
D25*
%TO.N,+5V*%
X119703682Y-58555434D02*
X119703682Y-55855434D01*
X118945483Y-59313633D02*
X119703682Y-58555434D01*
X117377665Y-61853633D02*
X117377665Y-59313633D01*
X117377665Y-64393633D02*
X117377665Y-61853633D01*
X117377665Y-59313633D02*
X118945483Y-59313633D01*
X125152719Y-53930433D02*
X125288673Y-53930433D01*
D23*
%TO.N,RESET*%
X130003682Y-50905434D02*
X129993678Y-50905434D01*
X129993678Y-50905434D02*
X127938677Y-48850433D01*
X127848693Y-48850445D02*
X127848689Y-48850445D01*
%TO.N,SCLK*%
X130303682Y-55955434D02*
X131253682Y-56905434D01*
%TO.N,MOSI*%
X122903682Y-53930433D02*
X122903682Y-52305434D01*
X135739669Y-69473645D02*
X135739681Y-69473633D01*
%TO.N,SCLK*%
X117377665Y-79079417D02*
X118553279Y-80255031D01*
%TO.N,RESET*%
X131403682Y-64405434D02*
X131415483Y-64393633D01*
%TO.N,SCLK*%
X135739681Y-57841433D02*
X135739681Y-59313633D01*
%TO.N,MOSI*%
X131065182Y-69473645D02*
X135739669Y-69473645D01*
X122903682Y-52305434D02*
X123818683Y-51390433D01*
X123818683Y-51390433D02*
X125288673Y-51390433D01*
%TO.N,RESET*%
X131415483Y-64393633D02*
X135739681Y-64393633D01*
X127938677Y-48850433D02*
X127828673Y-48850433D01*
%TO.N,SCLK*%
X129703682Y-79205434D02*
X129703682Y-62405434D01*
X134803682Y-56905434D02*
X135739681Y-57841433D01*
X128654085Y-80255031D02*
X129703682Y-79205434D01*
X130303682Y-53505434D02*
X130303682Y-55955434D01*
X132795483Y-59313633D02*
X135739681Y-59313633D01*
X131253682Y-56905434D02*
X134803682Y-56905434D01*
X117377665Y-77093633D02*
X117377665Y-79079417D01*
X127828673Y-51390433D02*
X128188681Y-51390433D01*
%TD*%
%TA.AperFunction,Conductor*%
%TO.N,GND*%
G36*
X135067727Y-45632846D02*
G01*
X135082528Y-45635151D01*
X135082531Y-45635151D01*
X135091400Y-45636532D01*
X135108569Y-45634287D01*
X135132509Y-45633454D01*
X135390440Y-45649056D01*
X135405544Y-45650890D01*
X135476318Y-45663860D01*
X135686549Y-45702386D01*
X135701311Y-45706024D01*
X135974078Y-45791021D01*
X135988297Y-45796415D01*
X136248810Y-45913662D01*
X136262279Y-45920731D01*
X136506765Y-46068528D01*
X136519287Y-46077171D01*
X136744177Y-46253362D01*
X136755565Y-46263452D01*
X136957564Y-46465451D01*
X136967654Y-46476839D01*
X137143845Y-46701729D01*
X137152488Y-46714251D01*
X137300285Y-46958737D01*
X137307354Y-46972206D01*
X137408152Y-47196171D01*
X137424600Y-47232716D01*
X137429995Y-47246938D01*
X137506978Y-47493984D01*
X137514991Y-47519699D01*
X137518630Y-47534467D01*
X137551720Y-47715031D01*
X137570126Y-47815472D01*
X137571960Y-47830576D01*
X137587125Y-48081275D01*
X137585868Y-48107985D01*
X137585865Y-48108205D01*
X137584484Y-48117076D01*
X137585648Y-48125978D01*
X137585648Y-48125981D01*
X137588606Y-48148597D01*
X137589670Y-48164935D01*
X137589670Y-88208538D01*
X137588170Y-88227922D01*
X137584484Y-88251596D01*
X137586124Y-88264136D01*
X137586729Y-88268763D01*
X137587562Y-88292705D01*
X137571960Y-88550636D01*
X137570126Y-88565740D01*
X137518632Y-88846739D01*
X137514992Y-88861507D01*
X137489577Y-88943068D01*
X137429996Y-89134270D01*
X137424601Y-89148493D01*
X137350921Y-89312205D01*
X137307356Y-89409002D01*
X137300285Y-89422475D01*
X137152488Y-89666961D01*
X137143845Y-89679483D01*
X136967654Y-89904373D01*
X136957564Y-89915761D01*
X136755565Y-90117760D01*
X136744177Y-90127850D01*
X136519287Y-90304041D01*
X136506765Y-90312684D01*
X136262279Y-90460481D01*
X136248810Y-90467550D01*
X135988300Y-90584796D01*
X135974078Y-90590191D01*
X135701311Y-90675188D01*
X135686549Y-90678826D01*
X135476318Y-90717352D01*
X135405544Y-90730322D01*
X135390440Y-90732156D01*
X135139741Y-90747321D01*
X135113031Y-90746064D01*
X135112811Y-90746061D01*
X135103940Y-90744680D01*
X135095038Y-90745844D01*
X135095035Y-90745844D01*
X135072419Y-90748802D01*
X135056081Y-90749866D01*
X130257978Y-90749866D01*
X130238594Y-90748366D01*
X130223793Y-90746061D01*
X130223789Y-90746061D01*
X130214920Y-90744680D01*
X130206018Y-90745844D01*
X130206014Y-90745844D01*
X130205918Y-90745857D01*
X130175481Y-90746128D01*
X130113276Y-90739120D01*
X130085769Y-90732842D01*
X130008579Y-90705832D01*
X129983160Y-90693590D01*
X129913913Y-90650079D01*
X129891854Y-90632487D01*
X129834030Y-90574663D01*
X129816438Y-90552604D01*
X129772927Y-90483357D01*
X129760685Y-90457936D01*
X129733676Y-90380749D01*
X129727397Y-90353242D01*
X129721129Y-90297615D01*
X129720346Y-90281969D01*
X129720455Y-90273011D01*
X129721837Y-90264137D01*
X129717715Y-90232615D01*
X129716651Y-90216278D01*
X129716651Y-89687251D01*
X131933201Y-89687251D01*
X131941338Y-89698257D01*
X132201598Y-89897961D01*
X132207197Y-89901795D01*
X132502921Y-90081598D01*
X132508911Y-90084810D01*
X132822317Y-90231620D01*
X132828621Y-90234167D01*
X133156044Y-90346268D01*
X133162595Y-90348122D01*
X133500199Y-90424204D01*
X133506918Y-90425341D01*
X133850773Y-90464519D01*
X133857563Y-90464922D01*
X134203633Y-90466734D01*
X134210434Y-90466402D01*
X134554680Y-90430828D01*
X134561408Y-90429762D01*
X134899804Y-90357215D01*
X134906353Y-90355436D01*
X135234938Y-90246767D01*
X135241280Y-90244281D01*
X135556183Y-90100772D01*
X135562237Y-90097607D01*
X135859788Y-89920935D01*
X135865469Y-89917132D01*
X136142207Y-89709351D01*
X136147431Y-89704967D01*
X136153898Y-89698915D01*
X136161967Y-89685235D01*
X136161940Y-89684511D01*
X136156796Y-89676208D01*
X134060472Y-87579884D01*
X134046528Y-87572270D01*
X134044695Y-87572401D01*
X134038080Y-87576652D01*
X131940082Y-89674650D01*
X131933201Y-89687251D01*
X129716651Y-89687251D01*
X129716651Y-88661084D01*
X129718397Y-88640180D01*
X129720915Y-88625212D01*
X129721722Y-88620416D01*
X129721875Y-88607877D01*
X129721184Y-88603052D01*
X129721126Y-88602166D01*
X129720174Y-88592408D01*
X129703939Y-88282629D01*
X129703661Y-88277323D01*
X129703013Y-88273227D01*
X129652396Y-87953652D01*
X129651880Y-87950391D01*
X129566209Y-87630662D01*
X129543795Y-87572270D01*
X129448771Y-87324725D01*
X129447587Y-87321640D01*
X129297313Y-87026710D01*
X129117033Y-86749104D01*
X128908723Y-86491863D01*
X128674665Y-86257805D01*
X128417424Y-86049495D01*
X128139818Y-85869215D01*
X127844888Y-85718941D01*
X127757656Y-85685456D01*
X127701228Y-85642371D01*
X127677051Y-85575617D01*
X127692802Y-85506390D01*
X127743480Y-85456668D01*
X127802810Y-85441825D01*
X131087163Y-85441825D01*
X131155284Y-85461827D01*
X131201777Y-85515483D01*
X131211881Y-85585757D01*
X131198311Y-85627172D01*
X131092178Y-85825942D01*
X131089302Y-85832111D01*
X130960218Y-86153217D01*
X130958025Y-86159657D01*
X130864374Y-86492830D01*
X130862891Y-86499465D01*
X130805772Y-86840798D01*
X130805013Y-86847570D01*
X130785091Y-87193074D01*
X130785067Y-87199869D01*
X130802577Y-87545521D01*
X130803287Y-87552277D01*
X130858023Y-87894003D01*
X130859462Y-87900658D01*
X130950782Y-88234466D01*
X130952931Y-88240927D01*
X131079770Y-88562929D01*
X131082601Y-88569112D01*
X131243475Y-88875532D01*
X131246958Y-88881375D01*
X131439981Y-89168623D01*
X131444084Y-89174067D01*
X131559571Y-89311213D01*
X131572310Y-89319656D01*
X131582754Y-89313558D01*
X133687318Y-87208994D01*
X134412068Y-87208994D01*
X134412199Y-87210827D01*
X134416450Y-87217442D01*
X136511213Y-89312205D01*
X136524810Y-89319630D01*
X136534421Y-89312930D01*
X136630505Y-89201222D01*
X136634663Y-89195822D01*
X136830683Y-88910613D01*
X136834230Y-88904802D01*
X136998294Y-88600100D01*
X137001201Y-88593922D01*
X137131404Y-88273273D01*
X137133618Y-88266843D01*
X137228429Y-87934005D01*
X137229936Y-87927375D01*
X137288250Y-87586224D01*
X137289030Y-87579484D01*
X137310255Y-87232438D01*
X137310371Y-87228835D01*
X137310439Y-87209681D01*
X137310347Y-87206056D01*
X137291545Y-86858885D01*
X137290810Y-86852119D01*
X137234884Y-86510600D01*
X137233417Y-86503928D01*
X137140938Y-86170459D01*
X137138764Y-86163996D01*
X137010803Y-85842445D01*
X137007950Y-85836271D01*
X136846003Y-85530407D01*
X136842509Y-85524590D01*
X136648473Y-85238002D01*
X136644359Y-85232583D01*
X136535750Y-85104515D01*
X136522925Y-85096079D01*
X136512600Y-85102132D01*
X134419682Y-87195050D01*
X134412068Y-87208994D01*
X133687318Y-87208994D01*
X136155091Y-84741221D01*
X136162705Y-84727277D01*
X136162637Y-84726322D01*
X136158684Y-84720344D01*
X135884327Y-84511341D01*
X135878701Y-84507517D01*
X135582366Y-84328756D01*
X135576354Y-84325559D01*
X135262434Y-84179842D01*
X135256134Y-84177322D01*
X134928324Y-84066365D01*
X134921746Y-84064529D01*
X134583897Y-83989630D01*
X134577159Y-83988514D01*
X134233175Y-83950537D01*
X134226395Y-83950158D01*
X133880296Y-83949555D01*
X133873523Y-83949910D01*
X133529386Y-83986687D01*
X133522676Y-83987774D01*
X133181207Y-84062226D01*
X133180953Y-84061060D01*
X133114851Y-84059957D01*
X133055774Y-84020582D01*
X133027363Y-83955518D01*
X133026362Y-83939670D01*
X133026362Y-79873865D01*
X130408739Y-79873865D01*
X130340618Y-79853863D01*
X130294125Y-79800207D01*
X130284021Y-79729933D01*
X130312715Y-79666285D01*
X130337627Y-79636962D01*
X130337630Y-79636958D01*
X130342366Y-79631383D01*
X130345694Y-79624866D01*
X130349071Y-79619802D01*
X130352298Y-79614578D01*
X130356842Y-79608834D01*
X130369130Y-79582543D01*
X130387914Y-79542352D01*
X130389845Y-79538401D01*
X130419895Y-79479551D01*
X130423225Y-79473030D01*
X130424966Y-79465915D01*
X130427103Y-79460169D01*
X130429027Y-79454386D01*
X130432126Y-79447755D01*
X130447076Y-79375877D01*
X130448045Y-79371596D01*
X130464152Y-79305773D01*
X130465486Y-79300322D01*
X130466182Y-79289104D01*
X130466221Y-79289106D01*
X130466454Y-79285205D01*
X130466843Y-79280846D01*
X130468334Y-79273678D01*
X130466228Y-79195857D01*
X130466182Y-79192448D01*
X130466182Y-77361599D01*
X134407938Y-77361599D01*
X134438246Y-77496079D01*
X134441326Y-77505908D01*
X134521451Y-77703236D01*
X134526094Y-77712427D01*
X134637375Y-77894021D01*
X134643458Y-77902332D01*
X134782894Y-78063300D01*
X134790261Y-78070516D01*
X134954115Y-78206549D01*
X134962562Y-78212464D01*
X135146437Y-78319912D01*
X135155723Y-78324362D01*
X135354682Y-78400336D01*
X135364580Y-78403212D01*
X135467931Y-78424239D01*
X135481980Y-78423043D01*
X135485681Y-78412698D01*
X135485681Y-78412150D01*
X135993681Y-78412150D01*
X135997745Y-78425992D01*
X136011159Y-78428026D01*
X136017865Y-78427167D01*
X136027943Y-78425025D01*
X136231936Y-78363824D01*
X136241523Y-78360066D01*
X136432776Y-78266372D01*
X136441626Y-78261097D01*
X136615009Y-78137425D01*
X136622881Y-78130772D01*
X136773733Y-77980445D01*
X136780411Y-77972598D01*
X136904684Y-77799653D01*
X136909994Y-77790816D01*
X137004351Y-77599900D01*
X137008150Y-77590305D01*
X137070058Y-77386543D01*
X137072236Y-77376470D01*
X137073667Y-77365595D01*
X137071456Y-77351411D01*
X137058298Y-77347633D01*
X136011796Y-77347633D01*
X135996557Y-77352108D01*
X135995352Y-77353498D01*
X135993681Y-77361181D01*
X135993681Y-78412150D01*
X135485681Y-78412150D01*
X135485681Y-77365748D01*
X135481206Y-77350509D01*
X135479816Y-77349304D01*
X135472133Y-77347633D01*
X134422906Y-77347633D01*
X134409375Y-77351606D01*
X134407938Y-77361599D01*
X130466182Y-77361599D01*
X130466182Y-74520328D01*
X134376932Y-74520328D01*
X134377229Y-74525481D01*
X134377229Y-74525484D01*
X134382692Y-74620223D01*
X134389791Y-74743348D01*
X134390928Y-74748394D01*
X134390929Y-74748400D01*
X134404278Y-74807633D01*
X134438903Y-74961272D01*
X134522947Y-75168249D01*
X134639668Y-75358721D01*
X134785931Y-75527571D01*
X134957807Y-75670265D01*
X135030659Y-75712836D01*
X135031636Y-75713407D01*
X135080360Y-75765045D01*
X135093431Y-75834828D01*
X135066700Y-75900600D01*
X135026243Y-75933960D01*
X135018138Y-75938179D01*
X135009419Y-75943669D01*
X134839114Y-76071538D01*
X134831407Y-76078381D01*
X134684271Y-76232350D01*
X134677785Y-76240360D01*
X134557779Y-76416282D01*
X134552681Y-76425256D01*
X134463019Y-76618416D01*
X134459456Y-76628103D01*
X134404070Y-76827816D01*
X134405593Y-76836240D01*
X134417973Y-76839633D01*
X137058025Y-76839633D01*
X137071556Y-76835660D01*
X137072861Y-76826580D01*
X137030895Y-76659508D01*
X137027575Y-76649757D01*
X136942653Y-76454447D01*
X136937786Y-76445372D01*
X136822107Y-76266559D01*
X136815817Y-76258390D01*
X136672487Y-76100873D01*
X136664954Y-76093848D01*
X136497820Y-75961855D01*
X136489237Y-75956153D01*
X136452283Y-75935753D01*
X136402312Y-75885320D01*
X136387540Y-75815878D01*
X136412656Y-75749472D01*
X136440008Y-75722865D01*
X136463478Y-75706124D01*
X136619541Y-75594806D01*
X136777777Y-75437122D01*
X136837275Y-75354322D01*
X136905116Y-75259910D01*
X136908134Y-75255710D01*
X137007111Y-75055444D01*
X137072051Y-74841702D01*
X137101210Y-74620223D01*
X137102837Y-74553633D01*
X137084533Y-74330994D01*
X137030112Y-74114335D01*
X136941035Y-73909473D01*
X136819695Y-73721910D01*
X136669351Y-73556684D01*
X136665300Y-73553485D01*
X136665296Y-73553481D01*
X136498095Y-73421433D01*
X136498091Y-73421431D01*
X136494040Y-73418231D01*
X136452250Y-73395162D01*
X136402279Y-73344730D01*
X136387507Y-73275287D01*
X136412623Y-73208881D01*
X136439975Y-73182274D01*
X136615009Y-73057425D01*
X136622881Y-73050772D01*
X136773733Y-72900445D01*
X136780411Y-72892598D01*
X136904684Y-72719653D01*
X136909994Y-72710816D01*
X137004351Y-72519900D01*
X137008150Y-72510305D01*
X137070058Y-72306543D01*
X137072236Y-72296470D01*
X137073667Y-72285595D01*
X137071456Y-72271411D01*
X137058298Y-72267633D01*
X134422906Y-72267633D01*
X134409375Y-72271606D01*
X134407938Y-72281599D01*
X134438246Y-72416079D01*
X134441326Y-72425908D01*
X134521451Y-72623236D01*
X134526094Y-72632427D01*
X134637375Y-72814021D01*
X134643458Y-72822332D01*
X134782894Y-72983300D01*
X134790261Y-72990516D01*
X134954115Y-73126549D01*
X134962562Y-73132464D01*
X135031650Y-73172836D01*
X135080374Y-73224475D01*
X135093445Y-73294258D01*
X135066714Y-73360029D01*
X135026265Y-73393385D01*
X135013288Y-73400140D01*
X135009155Y-73403243D01*
X135009152Y-73403245D01*
X134984928Y-73421433D01*
X134834646Y-73534268D01*
X134680310Y-73695771D01*
X134677396Y-73700043D01*
X134677395Y-73700044D01*
X134665085Y-73718090D01*
X134554424Y-73880313D01*
X134460369Y-74082938D01*
X134400670Y-74298203D01*
X134376932Y-74520328D01*
X130466182Y-74520328D01*
X130466182Y-70614128D01*
X130486184Y-70546007D01*
X130539840Y-70499514D01*
X130610114Y-70489410D01*
X130641920Y-70498360D01*
X130680199Y-70514806D01*
X130721169Y-70532408D01*
X130793999Y-70548888D01*
X130914237Y-70576095D01*
X130914242Y-70576096D01*
X130919874Y-70577370D01*
X130925645Y-70577597D01*
X130925647Y-70577597D01*
X130988652Y-70580072D01*
X131123445Y-70585368D01*
X131325065Y-70556135D01*
X131330529Y-70554280D01*
X131330534Y-70554279D01*
X131512509Y-70492507D01*
X131512514Y-70492505D01*
X131517981Y-70490649D01*
X131695733Y-70391103D01*
X131847030Y-70265271D01*
X131912193Y-70237090D01*
X131927598Y-70236145D01*
X134545233Y-70236145D01*
X134613354Y-70256147D01*
X134640471Y-70279647D01*
X134785931Y-70447571D01*
X134933291Y-70569912D01*
X134951909Y-70585368D01*
X134957807Y-70590265D01*
X134983925Y-70605527D01*
X135031636Y-70633407D01*
X135080360Y-70685045D01*
X135093431Y-70754828D01*
X135066700Y-70820600D01*
X135026243Y-70853960D01*
X135018138Y-70858179D01*
X135009419Y-70863669D01*
X134839114Y-70991538D01*
X134831407Y-70998381D01*
X134684271Y-71152350D01*
X134677785Y-71160360D01*
X134557779Y-71336282D01*
X134552681Y-71345256D01*
X134463019Y-71538416D01*
X134459456Y-71548103D01*
X134404070Y-71747816D01*
X134405593Y-71756240D01*
X134417973Y-71759633D01*
X137058025Y-71759633D01*
X137071556Y-71755660D01*
X137072861Y-71746580D01*
X137030895Y-71579508D01*
X137027575Y-71569757D01*
X136942653Y-71374447D01*
X136937786Y-71365372D01*
X136822107Y-71186559D01*
X136815817Y-71178390D01*
X136672487Y-71020873D01*
X136664954Y-71013848D01*
X136497820Y-70881855D01*
X136489237Y-70876153D01*
X136452283Y-70855753D01*
X136402312Y-70805320D01*
X136387540Y-70735878D01*
X136412656Y-70669472D01*
X136440008Y-70642865D01*
X136492354Y-70605527D01*
X136619541Y-70514806D01*
X136646617Y-70487825D01*
X136700890Y-70433740D01*
X136777777Y-70357122D01*
X136850335Y-70256147D01*
X136905116Y-70179910D01*
X136908134Y-70175710D01*
X137007111Y-69975444D01*
X137072051Y-69761702D01*
X137101210Y-69540223D01*
X137102837Y-69473633D01*
X137084533Y-69250994D01*
X137030112Y-69034335D01*
X136941035Y-68829473D01*
X136864485Y-68711145D01*
X136822503Y-68646250D01*
X136822501Y-68646247D01*
X136819695Y-68641910D01*
X136669351Y-68476684D01*
X136665300Y-68473485D01*
X136665296Y-68473481D01*
X136498095Y-68341433D01*
X136498091Y-68341431D01*
X136494040Y-68338231D01*
X136452250Y-68315162D01*
X136402279Y-68264730D01*
X136387507Y-68195287D01*
X136412623Y-68128881D01*
X136439975Y-68102274D01*
X136615009Y-67977425D01*
X136622881Y-67970772D01*
X136773733Y-67820445D01*
X136780411Y-67812598D01*
X136904684Y-67639653D01*
X136909994Y-67630816D01*
X137004351Y-67439900D01*
X137008150Y-67430305D01*
X137070058Y-67226543D01*
X137072236Y-67216470D01*
X137073667Y-67205595D01*
X137071456Y-67191411D01*
X137058298Y-67187633D01*
X134422906Y-67187633D01*
X134409375Y-67191606D01*
X134407938Y-67201599D01*
X134438246Y-67336079D01*
X134441326Y-67345908D01*
X134521451Y-67543236D01*
X134526094Y-67552427D01*
X134637375Y-67734021D01*
X134643458Y-67742332D01*
X134782894Y-67903300D01*
X134790261Y-67910516D01*
X134954115Y-68046549D01*
X134962562Y-68052464D01*
X135031650Y-68092836D01*
X135080374Y-68144475D01*
X135093445Y-68214258D01*
X135066714Y-68280029D01*
X135026265Y-68313385D01*
X135013288Y-68320140D01*
X135009155Y-68323243D01*
X135009152Y-68323245D01*
X134838781Y-68451163D01*
X134834646Y-68454268D01*
X134680310Y-68615771D01*
X134677396Y-68620043D01*
X134677395Y-68620044D01*
X134652766Y-68656149D01*
X134597855Y-68701152D01*
X134548678Y-68711145D01*
X131922772Y-68711145D01*
X131854651Y-68691143D01*
X131837243Y-68677669D01*
X131747130Y-68594369D01*
X131742885Y-68590445D01*
X131663056Y-68540077D01*
X131575470Y-68484814D01*
X131575465Y-68484812D01*
X131570586Y-68481733D01*
X131381362Y-68406240D01*
X131181548Y-68366494D01*
X131175774Y-68366418D01*
X131175770Y-68366418D01*
X131072634Y-68365069D01*
X130977837Y-68363828D01*
X130972140Y-68364807D01*
X130972139Y-68364807D01*
X130782749Y-68397350D01*
X130777052Y-68398329D01*
X130715581Y-68421007D01*
X130635793Y-68450442D01*
X130564959Y-68455254D01*
X130502769Y-68421007D01*
X130468967Y-68358573D01*
X130466182Y-68332230D01*
X130466182Y-65338451D01*
X130486184Y-65270330D01*
X130539840Y-65223837D01*
X130610114Y-65213733D01*
X130674694Y-65243227D01*
X130680103Y-65248196D01*
X130703092Y-65270591D01*
X130707888Y-65273796D01*
X130707891Y-65273798D01*
X130775831Y-65319194D01*
X130872485Y-65383776D01*
X130877788Y-65386054D01*
X130877791Y-65386056D01*
X130966797Y-65424296D01*
X131059669Y-65464197D01*
X131132499Y-65480677D01*
X131252737Y-65507884D01*
X131252742Y-65507885D01*
X131258374Y-65509159D01*
X131264145Y-65509386D01*
X131264147Y-65509386D01*
X131327152Y-65511861D01*
X131461945Y-65517157D01*
X131663565Y-65487924D01*
X131669029Y-65486069D01*
X131669034Y-65486068D01*
X131851009Y-65424296D01*
X131851014Y-65424294D01*
X131856481Y-65422438D01*
X132034233Y-65322892D01*
X132190868Y-65192620D01*
X132191200Y-65192220D01*
X132252015Y-65159012D01*
X132278798Y-65156133D01*
X134545223Y-65156133D01*
X134613344Y-65176135D01*
X134640460Y-65199636D01*
X134760706Y-65338451D01*
X134785931Y-65367571D01*
X134957807Y-65510265D01*
X135031636Y-65553407D01*
X135080360Y-65605045D01*
X135093431Y-65674828D01*
X135066700Y-65740600D01*
X135026243Y-65773960D01*
X135018138Y-65778179D01*
X135009419Y-65783669D01*
X134839114Y-65911538D01*
X134831407Y-65918381D01*
X134684271Y-66072350D01*
X134677785Y-66080360D01*
X134557779Y-66256282D01*
X134552681Y-66265256D01*
X134463019Y-66458416D01*
X134459456Y-66468103D01*
X134404070Y-66667816D01*
X134405593Y-66676240D01*
X134417973Y-66679633D01*
X137058025Y-66679633D01*
X137071556Y-66675660D01*
X137072861Y-66666580D01*
X137030895Y-66499508D01*
X137027575Y-66489757D01*
X136942653Y-66294447D01*
X136937786Y-66285372D01*
X136822107Y-66106559D01*
X136815817Y-66098390D01*
X136672487Y-65940873D01*
X136664954Y-65933848D01*
X136497820Y-65801855D01*
X136489237Y-65796153D01*
X136452283Y-65775753D01*
X136402312Y-65725320D01*
X136387540Y-65655878D01*
X136412656Y-65589472D01*
X136440008Y-65562865D01*
X136504088Y-65517157D01*
X136619541Y-65434806D01*
X136631953Y-65422438D01*
X136774116Y-65280770D01*
X136777777Y-65277122D01*
X136837275Y-65194322D01*
X136905116Y-65099910D01*
X136908134Y-65095710D01*
X136955586Y-64999699D01*
X137004817Y-64900086D01*
X137004818Y-64900084D01*
X137007111Y-64895444D01*
X137072051Y-64681702D01*
X137101210Y-64460223D01*
X137102837Y-64393633D01*
X137084533Y-64170994D01*
X137030112Y-63954335D01*
X136941035Y-63749473D01*
X136869647Y-63639124D01*
X136822503Y-63566250D01*
X136822501Y-63566247D01*
X136819695Y-63561910D01*
X136669351Y-63396684D01*
X136665297Y-63393482D01*
X136665296Y-63393481D01*
X136498095Y-63261433D01*
X136498091Y-63261431D01*
X136494040Y-63258231D01*
X136452250Y-63235162D01*
X136402279Y-63184730D01*
X136387507Y-63115287D01*
X136412623Y-63048881D01*
X136439975Y-63022274D01*
X136615009Y-62897425D01*
X136622881Y-62890772D01*
X136773733Y-62740445D01*
X136780411Y-62732598D01*
X136904684Y-62559653D01*
X136909994Y-62550816D01*
X137004351Y-62359900D01*
X137008150Y-62350305D01*
X137070058Y-62146543D01*
X137072236Y-62136470D01*
X137073667Y-62125595D01*
X137071456Y-62111411D01*
X137058298Y-62107633D01*
X134422906Y-62107633D01*
X134409375Y-62111606D01*
X134407938Y-62121599D01*
X134438246Y-62256079D01*
X134441326Y-62265908D01*
X134521451Y-62463236D01*
X134526094Y-62472427D01*
X134637375Y-62654021D01*
X134643458Y-62662332D01*
X134782894Y-62823300D01*
X134790261Y-62830516D01*
X134954115Y-62966549D01*
X134962562Y-62972464D01*
X135031650Y-63012836D01*
X135080374Y-63064475D01*
X135093445Y-63134258D01*
X135066714Y-63200029D01*
X135026265Y-63233385D01*
X135013288Y-63240140D01*
X135009155Y-63243243D01*
X135009152Y-63243245D01*
X134838781Y-63371163D01*
X134834646Y-63374268D01*
X134831074Y-63378006D01*
X134696192Y-63519152D01*
X134680310Y-63535771D01*
X134677396Y-63540043D01*
X134652773Y-63576138D01*
X134597861Y-63621140D01*
X134548685Y-63631133D01*
X132248507Y-63631133D01*
X132180386Y-63611131D01*
X132162978Y-63597658D01*
X132085625Y-63526153D01*
X132085622Y-63526151D01*
X132081385Y-63522234D01*
X132006561Y-63475024D01*
X131913970Y-63416603D01*
X131913965Y-63416601D01*
X131909086Y-63413522D01*
X131719862Y-63338029D01*
X131520048Y-63298283D01*
X131514274Y-63298207D01*
X131514270Y-63298207D01*
X131411134Y-63296858D01*
X131316337Y-63295617D01*
X131310640Y-63296596D01*
X131310639Y-63296596D01*
X131121249Y-63329139D01*
X131115552Y-63330118D01*
X130924416Y-63400632D01*
X130749331Y-63504797D01*
X130718273Y-63532034D01*
X130675259Y-63569756D01*
X130610855Y-63599633D01*
X130540522Y-63589947D01*
X130486591Y-63543774D01*
X130466182Y-63475024D01*
X130466182Y-62773462D01*
X130486184Y-62705341D01*
X130503087Y-62684367D01*
X133074416Y-60113038D01*
X133136728Y-60079012D01*
X133163511Y-60076133D01*
X134545223Y-60076133D01*
X134613344Y-60096135D01*
X134640460Y-60119636D01*
X134755138Y-60252023D01*
X134785931Y-60287571D01*
X134957807Y-60430265D01*
X135022499Y-60468068D01*
X135031636Y-60473407D01*
X135080360Y-60525045D01*
X135093431Y-60594828D01*
X135066700Y-60660600D01*
X135026243Y-60693960D01*
X135018138Y-60698179D01*
X135009419Y-60703669D01*
X134839114Y-60831538D01*
X134831407Y-60838381D01*
X134684271Y-60992350D01*
X134677785Y-61000360D01*
X134557779Y-61176282D01*
X134552681Y-61185256D01*
X134463019Y-61378416D01*
X134459456Y-61388103D01*
X134404070Y-61587816D01*
X134405593Y-61596240D01*
X134417973Y-61599633D01*
X137058025Y-61599633D01*
X137071556Y-61595660D01*
X137072861Y-61586580D01*
X137030895Y-61419508D01*
X137027575Y-61409757D01*
X136942653Y-61214447D01*
X136937786Y-61205372D01*
X136822107Y-61026559D01*
X136815817Y-61018390D01*
X136672487Y-60860873D01*
X136664954Y-60853848D01*
X136497820Y-60721855D01*
X136489237Y-60716153D01*
X136452283Y-60695753D01*
X136402312Y-60645320D01*
X136387540Y-60575878D01*
X136412656Y-60509472D01*
X136440008Y-60482865D01*
X136463478Y-60466124D01*
X136619541Y-60354806D01*
X136777777Y-60197122D01*
X136852005Y-60093823D01*
X136905116Y-60019910D01*
X136908134Y-60015710D01*
X136926299Y-59978957D01*
X137004817Y-59820086D01*
X137004818Y-59820084D01*
X137007111Y-59815444D01*
X137072051Y-59601702D01*
X137101210Y-59380223D01*
X137102837Y-59313633D01*
X137084533Y-59090994D01*
X137030112Y-58874335D01*
X136941035Y-58669473D01*
X136876056Y-58569031D01*
X136822503Y-58486250D01*
X136822501Y-58486247D01*
X136819695Y-58481910D01*
X136669351Y-58316684D01*
X136623906Y-58280793D01*
X136550088Y-58222495D01*
X136509026Y-58164577D01*
X136502181Y-58123613D01*
X136502181Y-57908801D01*
X136503614Y-57889850D01*
X136504534Y-57883807D01*
X136506904Y-57868225D01*
X136506051Y-57857728D01*
X136502596Y-57815258D01*
X136502181Y-57805044D01*
X136502181Y-57796908D01*
X136498871Y-57768517D01*
X136498438Y-57764142D01*
X136493084Y-57698305D01*
X136493083Y-57698302D01*
X136492490Y-57691006D01*
X136490235Y-57684044D01*
X136489035Y-57678040D01*
X136487629Y-57672093D01*
X136486782Y-57664826D01*
X136461734Y-57595820D01*
X136460306Y-57591660D01*
X136439949Y-57528820D01*
X136439947Y-57528815D01*
X136437693Y-57521858D01*
X136433899Y-57515606D01*
X136431347Y-57510031D01*
X136428611Y-57504568D01*
X136426115Y-57497692D01*
X136385862Y-57436296D01*
X136383515Y-57432577D01*
X136345453Y-57369852D01*
X136338013Y-57361427D01*
X136338041Y-57361402D01*
X136335447Y-57358477D01*
X136332642Y-57355123D01*
X136328627Y-57348998D01*
X136272094Y-57295444D01*
X136269653Y-57293067D01*
X135390492Y-56413906D01*
X135378105Y-56399493D01*
X135369477Y-56387769D01*
X135365136Y-56381870D01*
X135324627Y-56347455D01*
X135317111Y-56340525D01*
X135311367Y-56334781D01*
X135308493Y-56332507D01*
X135308486Y-56332501D01*
X135288971Y-56317062D01*
X135285567Y-56314271D01*
X135235210Y-56271489D01*
X135235206Y-56271486D01*
X135229631Y-56266750D01*
X135223114Y-56263422D01*
X135218050Y-56260045D01*
X135212826Y-56256818D01*
X135207082Y-56252274D01*
X135153981Y-56227456D01*
X135140600Y-56221202D01*
X135136649Y-56219271D01*
X135077799Y-56189221D01*
X135071278Y-56185891D01*
X135064163Y-56184150D01*
X135058417Y-56182013D01*
X135052634Y-56180089D01*
X135046003Y-56176990D01*
X134974125Y-56162040D01*
X134969853Y-56161073D01*
X134898570Y-56143630D01*
X134892971Y-56143283D01*
X134892967Y-56143282D01*
X134887352Y-56142934D01*
X134887354Y-56142895D01*
X134883453Y-56142662D01*
X134879094Y-56142273D01*
X134871926Y-56140782D01*
X134864609Y-56140980D01*
X134794105Y-56142888D01*
X134790696Y-56142934D01*
X131621710Y-56142934D01*
X131553589Y-56122932D01*
X131532615Y-56106029D01*
X131103087Y-55676501D01*
X131069061Y-55614189D01*
X131066182Y-55587406D01*
X131066182Y-53572810D01*
X131067615Y-53553860D01*
X131069806Y-53539461D01*
X131069806Y-53539455D01*
X131070906Y-53532226D01*
X131069093Y-53509929D01*
X131066597Y-53479251D01*
X131066182Y-53469036D01*
X131066182Y-53460909D01*
X131062871Y-53432510D01*
X131062442Y-53428170D01*
X131058674Y-53381839D01*
X131056491Y-53355008D01*
X131054235Y-53348046D01*
X131053039Y-53342058D01*
X131051631Y-53336101D01*
X131050783Y-53328827D01*
X131048285Y-53321945D01*
X131048284Y-53321941D01*
X131025737Y-53259827D01*
X131024327Y-53255723D01*
X131001695Y-53185859D01*
X130997895Y-53179596D01*
X130995357Y-53174054D01*
X130992615Y-53168578D01*
X130990116Y-53161693D01*
X130986101Y-53155569D01*
X130949867Y-53100302D01*
X130947552Y-53096634D01*
X130909455Y-53033853D01*
X130905739Y-53029646D01*
X130905736Y-53029642D01*
X130902014Y-53025429D01*
X130902044Y-53025403D01*
X130899446Y-53022475D01*
X130896642Y-53019121D01*
X130892628Y-53012999D01*
X130836096Y-52959446D01*
X130833654Y-52957069D01*
X130092768Y-52216182D01*
X130058743Y-52153870D01*
X130063808Y-52083054D01*
X130106355Y-52026219D01*
X130163784Y-52002391D01*
X130191679Y-51998347D01*
X130257850Y-51988753D01*
X130257854Y-51988752D01*
X130263565Y-51987924D01*
X130269029Y-51986069D01*
X130269034Y-51986068D01*
X130451009Y-51924296D01*
X130451014Y-51924294D01*
X130456481Y-51922438D01*
X130481075Y-51908665D01*
X130558360Y-51865383D01*
X130634233Y-51822892D01*
X130790868Y-51692620D01*
X130825626Y-51650828D01*
X131933201Y-51650828D01*
X131941338Y-51661834D01*
X132201598Y-51861538D01*
X132207197Y-51865372D01*
X132502921Y-52045175D01*
X132508911Y-52048387D01*
X132822317Y-52195197D01*
X132828621Y-52197744D01*
X133156044Y-52309845D01*
X133162595Y-52311699D01*
X133500199Y-52387781D01*
X133506918Y-52388918D01*
X133850773Y-52428096D01*
X133857563Y-52428499D01*
X134203633Y-52430311D01*
X134210434Y-52429979D01*
X134554680Y-52394405D01*
X134561408Y-52393339D01*
X134899804Y-52320792D01*
X134906353Y-52319013D01*
X135234938Y-52210344D01*
X135241280Y-52207858D01*
X135556183Y-52064349D01*
X135562237Y-52061184D01*
X135859788Y-51884512D01*
X135865469Y-51880709D01*
X136142207Y-51672928D01*
X136147431Y-51668544D01*
X136153898Y-51662492D01*
X136161967Y-51648812D01*
X136161940Y-51648088D01*
X136156796Y-51639785D01*
X134060472Y-49543461D01*
X134046528Y-49535847D01*
X134044695Y-49535978D01*
X134038080Y-49540229D01*
X131940082Y-51638227D01*
X131933201Y-51650828D01*
X130825626Y-51650828D01*
X130921140Y-51535985D01*
X131020686Y-51358233D01*
X131022542Y-51352766D01*
X131022544Y-51352761D01*
X131084316Y-51170786D01*
X131084317Y-51170781D01*
X131086172Y-51165317D01*
X131087000Y-51159609D01*
X131087001Y-51159603D01*
X131105998Y-51028578D01*
X131135568Y-50964032D01*
X131195339Y-50925720D01*
X131266336Y-50925804D01*
X131326016Y-50964259D01*
X131335276Y-50976382D01*
X131439981Y-51132200D01*
X131444084Y-51137644D01*
X131559571Y-51274790D01*
X131572310Y-51283233D01*
X131582754Y-51277135D01*
X133675638Y-49184251D01*
X133682016Y-49172571D01*
X134412068Y-49172571D01*
X134412199Y-49174404D01*
X134416450Y-49181019D01*
X136511213Y-51275782D01*
X136524810Y-51283207D01*
X136534421Y-51276507D01*
X136630505Y-51164799D01*
X136634663Y-51159399D01*
X136830683Y-50874190D01*
X136834230Y-50868379D01*
X136998294Y-50563677D01*
X137001201Y-50557499D01*
X137131404Y-50236850D01*
X137133618Y-50230420D01*
X137228429Y-49897582D01*
X137229936Y-49890952D01*
X137288250Y-49549801D01*
X137289030Y-49543061D01*
X137310255Y-49196015D01*
X137310371Y-49192412D01*
X137310439Y-49173258D01*
X137310347Y-49169633D01*
X137291545Y-48822462D01*
X137290810Y-48815696D01*
X137234884Y-48474177D01*
X137233417Y-48467505D01*
X137140938Y-48134036D01*
X137138764Y-48127573D01*
X137010803Y-47806022D01*
X137007950Y-47799848D01*
X136846003Y-47493984D01*
X136842509Y-47488167D01*
X136648473Y-47201579D01*
X136644359Y-47196160D01*
X136535750Y-47068092D01*
X136522925Y-47059656D01*
X136512600Y-47065709D01*
X134419682Y-49158627D01*
X134412068Y-49172571D01*
X133682016Y-49172571D01*
X133683252Y-49170307D01*
X133683121Y-49168474D01*
X133678870Y-49161859D01*
X131584117Y-47067106D01*
X131570580Y-47059714D01*
X131560879Y-47066502D01*
X131457880Y-47187098D01*
X131453726Y-47192531D01*
X131258716Y-47478404D01*
X131255181Y-47484241D01*
X131092178Y-47789519D01*
X131089302Y-47795688D01*
X130960218Y-48116794D01*
X130958025Y-48123234D01*
X130864374Y-48456407D01*
X130862891Y-48463042D01*
X130805772Y-48804375D01*
X130805013Y-48811147D01*
X130785091Y-49156651D01*
X130785067Y-49163446D01*
X130802577Y-49509098D01*
X130803287Y-49515854D01*
X130858023Y-49857580D01*
X130859460Y-49864228D01*
X130863246Y-49878067D01*
X130861927Y-49949051D01*
X130822440Y-50008054D01*
X130757323Y-50036342D01*
X130687249Y-50024935D01*
X130674476Y-50017875D01*
X130598084Y-49969675D01*
X130509086Y-49913522D01*
X130319862Y-49838029D01*
X130120048Y-49798283D01*
X130114273Y-49798207D01*
X130114269Y-49798207D01*
X130014029Y-49796895D01*
X129946175Y-49776003D01*
X129926582Y-49760001D01*
X129221737Y-49055155D01*
X129187712Y-48992843D01*
X129185911Y-48949613D01*
X129189765Y-48920341D01*
X129190202Y-48917023D01*
X129191829Y-48850433D01*
X129173525Y-48627794D01*
X129119104Y-48411135D01*
X129030027Y-48206273D01*
X128908687Y-48018710D01*
X128758343Y-47853484D01*
X128754292Y-47850285D01*
X128754288Y-47850281D01*
X128587087Y-47718233D01*
X128587083Y-47718231D01*
X128583032Y-47715031D01*
X128546701Y-47694975D01*
X128530809Y-47686202D01*
X128387462Y-47607071D01*
X128382593Y-47605347D01*
X128382589Y-47605345D01*
X128181760Y-47534228D01*
X128181756Y-47534227D01*
X128176885Y-47532502D01*
X128171792Y-47531595D01*
X128171789Y-47531594D01*
X127962046Y-47494233D01*
X127962040Y-47494232D01*
X127956957Y-47493327D01*
X127883125Y-47492425D01*
X127738754Y-47490661D01*
X127738752Y-47490661D01*
X127733584Y-47490598D01*
X127512764Y-47524388D01*
X127300429Y-47593790D01*
X127102280Y-47696940D01*
X127098147Y-47700043D01*
X127098144Y-47700045D01*
X126927773Y-47827963D01*
X126923638Y-47831068D01*
X126769302Y-47992571D01*
X126766388Y-47996843D01*
X126766387Y-47996844D01*
X126754077Y-48014890D01*
X126677203Y-48127584D01*
X126661571Y-48150499D01*
X126606660Y-48195502D01*
X126536135Y-48203673D01*
X126472388Y-48172419D01*
X126451691Y-48147935D01*
X126371099Y-48023359D01*
X126364809Y-48015190D01*
X126221479Y-47857673D01*
X126213946Y-47850648D01*
X126046812Y-47718655D01*
X126038225Y-47712950D01*
X125851790Y-47610032D01*
X125842378Y-47605802D01*
X125641632Y-47534713D01*
X125631661Y-47532079D01*
X125560510Y-47519405D01*
X125547213Y-47520865D01*
X125542673Y-47535422D01*
X125542673Y-48978433D01*
X125522671Y-49046554D01*
X125469015Y-49093047D01*
X125416673Y-49104433D01*
X123971898Y-49104433D01*
X123958367Y-49108406D01*
X123956930Y-49118399D01*
X123987238Y-49252879D01*
X123990318Y-49262708D01*
X124070443Y-49460036D01*
X124075086Y-49469227D01*
X124186367Y-49650821D01*
X124192450Y-49659132D01*
X124331886Y-49820100D01*
X124339253Y-49827316D01*
X124503107Y-49963349D01*
X124511554Y-49969264D01*
X124580642Y-50009636D01*
X124629366Y-50061275D01*
X124642437Y-50131058D01*
X124615706Y-50196829D01*
X124575257Y-50230185D01*
X124562280Y-50236940D01*
X124558147Y-50240043D01*
X124558144Y-50240045D01*
X124533920Y-50258233D01*
X124383638Y-50371068D01*
X124229302Y-50532571D01*
X124226388Y-50536843D01*
X124201765Y-50572938D01*
X124146853Y-50617940D01*
X124097677Y-50627933D01*
X123886059Y-50627933D01*
X123867109Y-50626500D01*
X123852710Y-50624309D01*
X123852704Y-50624309D01*
X123845475Y-50623209D01*
X123838183Y-50623802D01*
X123838180Y-50623802D01*
X123792500Y-50627518D01*
X123782285Y-50627933D01*
X123774158Y-50627933D01*
X123770522Y-50628357D01*
X123770520Y-50628357D01*
X123767068Y-50628760D01*
X123745759Y-50631244D01*
X123741439Y-50631671D01*
X123668257Y-50637624D01*
X123661295Y-50639880D01*
X123655307Y-50641076D01*
X123649350Y-50642484D01*
X123642076Y-50643332D01*
X123635194Y-50645830D01*
X123635190Y-50645831D01*
X123573076Y-50668378D01*
X123568972Y-50669788D01*
X123499108Y-50692420D01*
X123492845Y-50696220D01*
X123487303Y-50698758D01*
X123481827Y-50701500D01*
X123474942Y-50703999D01*
X123468818Y-50708014D01*
X123413551Y-50744248D01*
X123409883Y-50746563D01*
X123347102Y-50784660D01*
X123342897Y-50788374D01*
X123342894Y-50788376D01*
X123338678Y-50792100D01*
X123338652Y-50792071D01*
X123335721Y-50794671D01*
X123332367Y-50797475D01*
X123326248Y-50801487D01*
X123321216Y-50806799D01*
X123272695Y-50858019D01*
X123270317Y-50860461D01*
X122412154Y-51718624D01*
X122397741Y-51731011D01*
X122380118Y-51743980D01*
X122375374Y-51749563D01*
X122375375Y-51749563D01*
X122345703Y-51784489D01*
X122338773Y-51792005D01*
X122333029Y-51797749D01*
X122330755Y-51800623D01*
X122330749Y-51800630D01*
X122315310Y-51820145D01*
X122312519Y-51823549D01*
X122269737Y-51873906D01*
X122269734Y-51873910D01*
X122264998Y-51879485D01*
X122261670Y-51886002D01*
X122258293Y-51891066D01*
X122255066Y-51896290D01*
X122250522Y-51902034D01*
X122247423Y-51908665D01*
X122219450Y-51968516D01*
X122217519Y-51972467D01*
X122184139Y-52037838D01*
X122182398Y-52044953D01*
X122180261Y-52050699D01*
X122178337Y-52056482D01*
X122175238Y-52063113D01*
X122173748Y-52070277D01*
X122160290Y-52134981D01*
X122159321Y-52139263D01*
X122141878Y-52210546D01*
X122141182Y-52221764D01*
X122141143Y-52221762D01*
X122140910Y-52225663D01*
X122140521Y-52230022D01*
X122139030Y-52237190D01*
X122139228Y-52244507D01*
X122141136Y-52315011D01*
X122141182Y-52318420D01*
X122141182Y-53067550D01*
X122121180Y-53135671D01*
X122103975Y-53155647D01*
X122104478Y-53156125D01*
X122100497Y-53160319D01*
X122096160Y-53164123D01*
X122092593Y-53168648D01*
X122092588Y-53168653D01*
X122020713Y-53259827D01*
X121970033Y-53324114D01*
X121967344Y-53329225D01*
X121967342Y-53329228D01*
X121960592Y-53342058D01*
X121875174Y-53504411D01*
X121814760Y-53698976D01*
X121790814Y-53901292D01*
X121804139Y-54104584D01*
X121854287Y-54302043D01*
X121939580Y-54487057D01*
X122057161Y-54653430D01*
X122061295Y-54657457D01*
X122176179Y-54769372D01*
X122203092Y-54795590D01*
X122207888Y-54798795D01*
X122207891Y-54798797D01*
X122282530Y-54848669D01*
X122328058Y-54903146D01*
X122336906Y-54973589D01*
X122306264Y-55037633D01*
X122245863Y-55074945D01*
X122212528Y-55079434D01*
X120823295Y-55079434D01*
X120755174Y-55059432D01*
X120720084Y-55025707D01*
X120709880Y-55011134D01*
X120547982Y-54849236D01*
X120543474Y-54846079D01*
X120543471Y-54846077D01*
X120417602Y-54757943D01*
X120360431Y-54717911D01*
X120355449Y-54715588D01*
X120355444Y-54715585D01*
X120157907Y-54623473D01*
X120157906Y-54623473D01*
X120152925Y-54621150D01*
X120147617Y-54619728D01*
X120147615Y-54619727D01*
X119937084Y-54563315D01*
X119937082Y-54563315D01*
X119931769Y-54561891D01*
X119703682Y-54541936D01*
X119475595Y-54561891D01*
X119470282Y-54563315D01*
X119470280Y-54563315D01*
X119259749Y-54619727D01*
X119259747Y-54619728D01*
X119254439Y-54621150D01*
X119249458Y-54623473D01*
X119249457Y-54623473D01*
X119051920Y-54715585D01*
X119051915Y-54715588D01*
X119046933Y-54717911D01*
X118989762Y-54757943D01*
X118863893Y-54846077D01*
X118863890Y-54846079D01*
X118859382Y-54849236D01*
X118697484Y-55011134D01*
X118566159Y-55198685D01*
X118563835Y-55203669D01*
X118562511Y-55205962D01*
X118511129Y-55254955D01*
X118441415Y-55268391D01*
X118375504Y-55242005D01*
X118344273Y-55205962D01*
X118337616Y-55194432D01*
X118301173Y-55142386D01*
X118290694Y-55134010D01*
X118277248Y-55141078D01*
X117575704Y-55842622D01*
X117568090Y-55856566D01*
X117568221Y-55858399D01*
X117572472Y-55865014D01*
X118277969Y-56570511D01*
X118289744Y-56576941D01*
X118301759Y-56567645D01*
X118337616Y-56516436D01*
X118344273Y-56504906D01*
X118395655Y-56455913D01*
X118465369Y-56442476D01*
X118531280Y-56468863D01*
X118562511Y-56504906D01*
X118563835Y-56507199D01*
X118566159Y-56512183D01*
X118569313Y-56516687D01*
X118651188Y-56633616D01*
X118697484Y-56699734D01*
X118840777Y-56843027D01*
X118874803Y-56905339D01*
X118877682Y-56932122D01*
X118877682Y-58104771D01*
X118857680Y-58172892D01*
X118804024Y-58219385D01*
X118733750Y-58229489D01*
X118669170Y-58199995D01*
X118650856Y-58180336D01*
X118596308Y-58107553D01*
X118596307Y-58107552D01*
X118590926Y-58100372D01*
X118474370Y-58013018D01*
X118337981Y-57961888D01*
X118275799Y-57955133D01*
X116479531Y-57955133D01*
X116417349Y-57961888D01*
X116280960Y-58013018D01*
X116164404Y-58100372D01*
X116077050Y-58216928D01*
X116025920Y-58353317D01*
X116019165Y-58415499D01*
X116019165Y-60211767D01*
X116025920Y-60273949D01*
X116077050Y-60410338D01*
X116164404Y-60526894D01*
X116280960Y-60614248D01*
X116289369Y-60617400D01*
X116289370Y-60617401D01*
X116398116Y-60658168D01*
X116454881Y-60700809D01*
X116479581Y-60767371D01*
X116464374Y-60836720D01*
X116444981Y-60863201D01*
X116318294Y-60995771D01*
X116315380Y-61000043D01*
X116315379Y-61000044D01*
X116303074Y-61018083D01*
X116192408Y-61180313D01*
X116098353Y-61382938D01*
X116038654Y-61598203D01*
X116014916Y-61820328D01*
X116015213Y-61825481D01*
X116015213Y-61825484D01*
X116020676Y-61920223D01*
X116027775Y-62043348D01*
X116028912Y-62048394D01*
X116028913Y-62048400D01*
X116042262Y-62107633D01*
X116076887Y-62261272D01*
X116160931Y-62468249D01*
X116277652Y-62658721D01*
X116423915Y-62827571D01*
X116427890Y-62830871D01*
X116427893Y-62830874D01*
X116506150Y-62895844D01*
X116545785Y-62954747D01*
X116551665Y-62992788D01*
X116551665Y-63251968D01*
X116531663Y-63320089D01*
X116501320Y-63352727D01*
X116472630Y-63374268D01*
X116469058Y-63378006D01*
X116334176Y-63519152D01*
X116318294Y-63535771D01*
X116315380Y-63540043D01*
X116315379Y-63540044D01*
X116274730Y-63599633D01*
X116192408Y-63720313D01*
X116098353Y-63922938D01*
X116038654Y-64138203D01*
X116014916Y-64360328D01*
X116015213Y-64365481D01*
X116015213Y-64365484D01*
X116020676Y-64460223D01*
X116027775Y-64583348D01*
X116028912Y-64588394D01*
X116028913Y-64588400D01*
X116048784Y-64676572D01*
X116076887Y-64801272D01*
X116160931Y-65008249D01*
X116277652Y-65198721D01*
X116423915Y-65367571D01*
X116595791Y-65510265D01*
X116669620Y-65553407D01*
X116718344Y-65605045D01*
X116731415Y-65674828D01*
X116704684Y-65740600D01*
X116664227Y-65773960D01*
X116656122Y-65778179D01*
X116647403Y-65783669D01*
X116477098Y-65911538D01*
X116469391Y-65918381D01*
X116322255Y-66072350D01*
X116315769Y-66080360D01*
X116195763Y-66256282D01*
X116190665Y-66265256D01*
X116101003Y-66458416D01*
X116097440Y-66468103D01*
X116042054Y-66667816D01*
X116043577Y-66676240D01*
X116055957Y-66679633D01*
X118696009Y-66679633D01*
X118709540Y-66675660D01*
X118710845Y-66666580D01*
X118668879Y-66499508D01*
X118665559Y-66489757D01*
X118580637Y-66294447D01*
X118575770Y-66285372D01*
X118460091Y-66106559D01*
X118453801Y-66098390D01*
X118310471Y-65940873D01*
X118302938Y-65933848D01*
X118135804Y-65801855D01*
X118127221Y-65796153D01*
X118090267Y-65775753D01*
X118040296Y-65725320D01*
X118025524Y-65655878D01*
X118050640Y-65589472D01*
X118077992Y-65562865D01*
X118142072Y-65517157D01*
X118257525Y-65434806D01*
X118269937Y-65422438D01*
X118412100Y-65280770D01*
X118415761Y-65277122D01*
X118475259Y-65194322D01*
X118543100Y-65099910D01*
X118546118Y-65095710D01*
X118593570Y-64999699D01*
X118642801Y-64900086D01*
X118642802Y-64900084D01*
X118645095Y-64895444D01*
X118710035Y-64681702D01*
X118739194Y-64460223D01*
X118740821Y-64393633D01*
X118722517Y-64170994D01*
X118668096Y-63954335D01*
X118579019Y-63749473D01*
X118507631Y-63639124D01*
X118460487Y-63566250D01*
X118460485Y-63566247D01*
X118457679Y-63561910D01*
X118307335Y-63396684D01*
X118251572Y-63352645D01*
X118210510Y-63294729D01*
X118203665Y-63253764D01*
X118203665Y-62998119D01*
X118223667Y-62929998D01*
X118250206Y-62902143D01*
X118249365Y-62901148D01*
X118253322Y-62897804D01*
X118257525Y-62894806D01*
X118415761Y-62737122D01*
X118475259Y-62654322D01*
X118543100Y-62559910D01*
X118546118Y-62555710D01*
X118645095Y-62355444D01*
X118710035Y-62141702D01*
X118739194Y-61920223D01*
X118740821Y-61853633D01*
X118722517Y-61630994D01*
X118668096Y-61414335D01*
X118579019Y-61209473D01*
X118457679Y-61021910D01*
X118438070Y-61000360D01*
X118310463Y-60860121D01*
X118279411Y-60796275D01*
X118287806Y-60725776D01*
X118332982Y-60671008D01*
X118359426Y-60657339D01*
X118465962Y-60617400D01*
X118474370Y-60614248D01*
X118590926Y-60526894D01*
X118678280Y-60410338D01*
X118729410Y-60273949D01*
X118731792Y-60252023D01*
X118759035Y-60186462D01*
X118817399Y-60146036D01*
X118857055Y-60139633D01*
X118905450Y-60139633D01*
X118915995Y-60140075D01*
X118965783Y-60144256D01*
X119043226Y-60133922D01*
X119046226Y-60133560D01*
X119087981Y-60129024D01*
X119117117Y-60125859D01*
X119117119Y-60125859D01*
X119123900Y-60125122D01*
X119130366Y-60122946D01*
X119132716Y-60122429D01*
X119133266Y-60122332D01*
X119134033Y-60122153D01*
X119134568Y-60121998D01*
X119136915Y-60121422D01*
X119143673Y-60120520D01*
X119217025Y-60093822D01*
X119219926Y-60092807D01*
X119287522Y-60070058D01*
X119287529Y-60070055D01*
X119293994Y-60067879D01*
X119299843Y-60064364D01*
X119302036Y-60063351D01*
X119302551Y-60063139D01*
X119303249Y-60062806D01*
X119303750Y-60062533D01*
X119305904Y-60061473D01*
X119312317Y-60059139D01*
X119378285Y-60017274D01*
X119380877Y-60015674D01*
X119441985Y-59978957D01*
X119447827Y-59975447D01*
X119452778Y-59970766D01*
X119454714Y-59969296D01*
X119455645Y-59968648D01*
X119459479Y-59965748D01*
X119463847Y-59962976D01*
X119467947Y-59959310D01*
X119519869Y-59907388D01*
X119522391Y-59904935D01*
X119573265Y-59856826D01*
X119573267Y-59856824D01*
X119578223Y-59852137D01*
X119582057Y-59846495D01*
X119586180Y-59841651D01*
X119593036Y-59834221D01*
X120259443Y-59167813D01*
X120267211Y-59160670D01*
X120300162Y-59132824D01*
X120305375Y-59128419D01*
X120352816Y-59066368D01*
X120354714Y-59063948D01*
X120399375Y-59008402D01*
X120403651Y-59003084D01*
X120406684Y-58996974D01*
X120407986Y-58994938D01*
X120408305Y-58994482D01*
X120408715Y-58993824D01*
X120408984Y-58993334D01*
X120410235Y-58991268D01*
X120414379Y-58985848D01*
X120447378Y-58915080D01*
X120448712Y-58912309D01*
X120483449Y-58842332D01*
X120485101Y-58835707D01*
X120485935Y-58833440D01*
X120486154Y-58832915D01*
X120486403Y-58832211D01*
X120486565Y-58831661D01*
X120487343Y-58829377D01*
X120490225Y-58823195D01*
X120491713Y-58816537D01*
X120491716Y-58816529D01*
X120507262Y-58746981D01*
X120507970Y-58743985D01*
X120525214Y-58674823D01*
X120525214Y-58674822D01*
X120526866Y-58668197D01*
X120527057Y-58661376D01*
X120527387Y-58658965D01*
X120527585Y-58657861D01*
X120528245Y-58653106D01*
X120529375Y-58648050D01*
X120529682Y-58642559D01*
X120529682Y-58569124D01*
X120529731Y-58565607D01*
X120531686Y-58495620D01*
X120531686Y-58495616D01*
X120531876Y-58488799D01*
X120530597Y-58482095D01*
X120530088Y-58475769D01*
X120529682Y-58465662D01*
X120529682Y-56932122D01*
X120549684Y-56864001D01*
X120566587Y-56843027D01*
X120641275Y-56768339D01*
X120703587Y-56734313D01*
X120730370Y-56731434D01*
X122532285Y-56731434D01*
X122600406Y-56751436D01*
X122646899Y-56805092D01*
X122657003Y-56875366D01*
X122646435Y-56910779D01*
X122619450Y-56968517D01*
X122617519Y-56972467D01*
X122584139Y-57037838D01*
X122582398Y-57044953D01*
X122580261Y-57050699D01*
X122578337Y-57056482D01*
X122575238Y-57063113D01*
X122570286Y-57086924D01*
X122560290Y-57134981D01*
X122559321Y-57139263D01*
X122541878Y-57210546D01*
X122541182Y-57221764D01*
X122541143Y-57221762D01*
X122540910Y-57225663D01*
X122540521Y-57230022D01*
X122539030Y-57237190D01*
X122539228Y-57244507D01*
X122541136Y-57315011D01*
X122541182Y-57318420D01*
X122541182Y-70537406D01*
X122521180Y-70605527D01*
X122504277Y-70626501D01*
X121916550Y-71214228D01*
X121854238Y-71248254D01*
X121827455Y-71251133D01*
X118571016Y-71251133D01*
X118502895Y-71231131D01*
X118465223Y-71193572D01*
X118457679Y-71181910D01*
X118307335Y-71016684D01*
X118303284Y-71013485D01*
X118303280Y-71013481D01*
X118136079Y-70881433D01*
X118136075Y-70881431D01*
X118132024Y-70878231D01*
X118090234Y-70855162D01*
X118040263Y-70804730D01*
X118025491Y-70735287D01*
X118050607Y-70668881D01*
X118077959Y-70642274D01*
X118252993Y-70517425D01*
X118260865Y-70510772D01*
X118411717Y-70360445D01*
X118418395Y-70352598D01*
X118542668Y-70179653D01*
X118547978Y-70170816D01*
X118642335Y-69979900D01*
X118646134Y-69970305D01*
X118708042Y-69766543D01*
X118710220Y-69756470D01*
X118711651Y-69745595D01*
X118709440Y-69731411D01*
X118696282Y-69727633D01*
X116060890Y-69727633D01*
X116047359Y-69731606D01*
X116045922Y-69741599D01*
X116076230Y-69876079D01*
X116079310Y-69885908D01*
X116159435Y-70083236D01*
X116164078Y-70092427D01*
X116275359Y-70274021D01*
X116281442Y-70282332D01*
X116420878Y-70443300D01*
X116428245Y-70450516D01*
X116592099Y-70586549D01*
X116600546Y-70592464D01*
X116669634Y-70632836D01*
X116718358Y-70684475D01*
X116731429Y-70754258D01*
X116704698Y-70820029D01*
X116664249Y-70853385D01*
X116651272Y-70860140D01*
X116647139Y-70863243D01*
X116647136Y-70863245D01*
X116622912Y-70881433D01*
X116472630Y-70994268D01*
X116318294Y-71155771D01*
X116315380Y-71160043D01*
X116315379Y-71160044D01*
X116303069Y-71178090D01*
X116192408Y-71340313D01*
X116098353Y-71542938D01*
X116038654Y-71758203D01*
X116014916Y-71980328D01*
X116027775Y-72203348D01*
X116028912Y-72208394D01*
X116028913Y-72208400D01*
X116042262Y-72267633D01*
X116076887Y-72421272D01*
X116138338Y-72572609D01*
X116150508Y-72602579D01*
X116160931Y-72628249D01*
X116202481Y-72696052D01*
X116256963Y-72784959D01*
X116277652Y-72818721D01*
X116423915Y-72987571D01*
X116595791Y-73130265D01*
X116668643Y-73172836D01*
X116669620Y-73173407D01*
X116718344Y-73225045D01*
X116731415Y-73294828D01*
X116704684Y-73360600D01*
X116664227Y-73393960D01*
X116656122Y-73398179D01*
X116647403Y-73403669D01*
X116477098Y-73531538D01*
X116469391Y-73538381D01*
X116322255Y-73692350D01*
X116315769Y-73700360D01*
X116195763Y-73876282D01*
X116190665Y-73885256D01*
X116101003Y-74078416D01*
X116097440Y-74088103D01*
X116042054Y-74287816D01*
X116043577Y-74296240D01*
X116055957Y-74299633D01*
X118696009Y-74299633D01*
X118709540Y-74295660D01*
X118710845Y-74286580D01*
X118668879Y-74119508D01*
X118665559Y-74109757D01*
X118580637Y-73914447D01*
X118575770Y-73905372D01*
X118460091Y-73726559D01*
X118453801Y-73718390D01*
X118310471Y-73560873D01*
X118302938Y-73553848D01*
X118135804Y-73421855D01*
X118127221Y-73416153D01*
X118090267Y-73395753D01*
X118040296Y-73345320D01*
X118025524Y-73275878D01*
X118050640Y-73209472D01*
X118077992Y-73182865D01*
X118101462Y-73166124D01*
X118257525Y-73054806D01*
X118415761Y-72897122D01*
X118464994Y-72828607D01*
X118520989Y-72784959D01*
X118567317Y-72776133D01*
X122128107Y-72776133D01*
X122147057Y-72777566D01*
X122161456Y-72779757D01*
X122161462Y-72779757D01*
X122168691Y-72780857D01*
X122175983Y-72780264D01*
X122175986Y-72780264D01*
X122221666Y-72776548D01*
X122231881Y-72776133D01*
X122240008Y-72776133D01*
X122243644Y-72775709D01*
X122243646Y-72775709D01*
X122247098Y-72775306D01*
X122268407Y-72772822D01*
X122272727Y-72772395D01*
X122345909Y-72766442D01*
X122352871Y-72764186D01*
X122358859Y-72762990D01*
X122364816Y-72761582D01*
X122372090Y-72760734D01*
X122378972Y-72758236D01*
X122378976Y-72758235D01*
X122441090Y-72735688D01*
X122445194Y-72734278D01*
X122515058Y-72711646D01*
X122521321Y-72707846D01*
X122526863Y-72705308D01*
X122532339Y-72702566D01*
X122539224Y-72700067D01*
X122600615Y-72659818D01*
X122604283Y-72657503D01*
X122667064Y-72619406D01*
X122671269Y-72615692D01*
X122671272Y-72615690D01*
X122675488Y-72611966D01*
X122675514Y-72611995D01*
X122678445Y-72609395D01*
X122681799Y-72606591D01*
X122687918Y-72602579D01*
X122741472Y-72546046D01*
X122743849Y-72543605D01*
X123527430Y-71760024D01*
X123589742Y-71725998D01*
X123660557Y-71731063D01*
X123717393Y-71773610D01*
X123742204Y-71840130D01*
X123742525Y-71849119D01*
X123742525Y-78362149D01*
X123740779Y-78383054D01*
X123737454Y-78402817D01*
X123737301Y-78415356D01*
X123739411Y-78430090D01*
X123740360Y-78438937D01*
X123754061Y-78630516D01*
X123771654Y-78711388D01*
X123792577Y-78807570D01*
X123799913Y-78841295D01*
X123801480Y-78845497D01*
X123801482Y-78845503D01*
X123824156Y-78906293D01*
X123875296Y-79043403D01*
X123877450Y-79047348D01*
X123877451Y-79047350D01*
X123921260Y-79127580D01*
X123978674Y-79232726D01*
X124020880Y-79289106D01*
X124022314Y-79291022D01*
X124047125Y-79357542D01*
X124032034Y-79426916D01*
X123981832Y-79477118D01*
X123921446Y-79492531D01*
X118921307Y-79492531D01*
X118853186Y-79472529D01*
X118832211Y-79455626D01*
X118177069Y-78800483D01*
X118143044Y-78738171D01*
X118140165Y-78711388D01*
X118140165Y-78283413D01*
X118160167Y-78215292D01*
X118192997Y-78180834D01*
X118253317Y-78137809D01*
X118253328Y-78137800D01*
X118257525Y-78134806D01*
X118415761Y-77977122D01*
X118475259Y-77894322D01*
X118543100Y-77799910D01*
X118546118Y-77795710D01*
X118645095Y-77595444D01*
X118710035Y-77381702D01*
X118739194Y-77160223D01*
X118740821Y-77093633D01*
X118722517Y-76870994D01*
X118668096Y-76654335D01*
X118579019Y-76449473D01*
X118457679Y-76261910D01*
X118307335Y-76096684D01*
X118303284Y-76093485D01*
X118303280Y-76093481D01*
X118136079Y-75961433D01*
X118136075Y-75961431D01*
X118132024Y-75958231D01*
X118090234Y-75935162D01*
X118040263Y-75884730D01*
X118025491Y-75815287D01*
X118050607Y-75748881D01*
X118077959Y-75722274D01*
X118252993Y-75597425D01*
X118260865Y-75590772D01*
X118411717Y-75440445D01*
X118418395Y-75432598D01*
X118542668Y-75259653D01*
X118547978Y-75250816D01*
X118642335Y-75059900D01*
X118646134Y-75050305D01*
X118708042Y-74846543D01*
X118710220Y-74836470D01*
X118711651Y-74825595D01*
X118709440Y-74811411D01*
X118696282Y-74807633D01*
X116060890Y-74807633D01*
X116047359Y-74811606D01*
X116045922Y-74821599D01*
X116076230Y-74956079D01*
X116079310Y-74965908D01*
X116159435Y-75163236D01*
X116164078Y-75172427D01*
X116275359Y-75354021D01*
X116281442Y-75362332D01*
X116420878Y-75523300D01*
X116428245Y-75530516D01*
X116592099Y-75666549D01*
X116600546Y-75672464D01*
X116669634Y-75712836D01*
X116718358Y-75764475D01*
X116731429Y-75834258D01*
X116704698Y-75900029D01*
X116664249Y-75933385D01*
X116651272Y-75940140D01*
X116647139Y-75943243D01*
X116647136Y-75943245D01*
X116622912Y-75961433D01*
X116472630Y-76074268D01*
X116318294Y-76235771D01*
X116315380Y-76240043D01*
X116315379Y-76240044D01*
X116303069Y-76258090D01*
X116192408Y-76420313D01*
X116098353Y-76622938D01*
X116038654Y-76838203D01*
X116014916Y-77060328D01*
X116015213Y-77065481D01*
X116015213Y-77065484D01*
X116020676Y-77160223D01*
X116027775Y-77283348D01*
X116028912Y-77288394D01*
X116028913Y-77288400D01*
X116043114Y-77351411D01*
X116076887Y-77501272D01*
X116160931Y-77708249D01*
X116277652Y-77898721D01*
X116423915Y-78067571D01*
X116569652Y-78188564D01*
X116609285Y-78247464D01*
X116615165Y-78285506D01*
X116615165Y-79012041D01*
X116613732Y-79030991D01*
X116611541Y-79045390D01*
X116611541Y-79045396D01*
X116610441Y-79052625D01*
X116611034Y-79059917D01*
X116611034Y-79059920D01*
X116614750Y-79105600D01*
X116615165Y-79115815D01*
X116615165Y-79123942D01*
X116618476Y-79152341D01*
X116618903Y-79156661D01*
X116624856Y-79229843D01*
X116627112Y-79236805D01*
X116628308Y-79242793D01*
X116629716Y-79248750D01*
X116630564Y-79256024D01*
X116633062Y-79262906D01*
X116633063Y-79262910D01*
X116655610Y-79325024D01*
X116657020Y-79329128D01*
X116679652Y-79398992D01*
X116683452Y-79405255D01*
X116685990Y-79410797D01*
X116688732Y-79416273D01*
X116691231Y-79423158D01*
X116695246Y-79429282D01*
X116731480Y-79484549D01*
X116733795Y-79488217D01*
X116771892Y-79550998D01*
X116775606Y-79555203D01*
X116775608Y-79555206D01*
X116779332Y-79559422D01*
X116779303Y-79559448D01*
X116781903Y-79562379D01*
X116784707Y-79565733D01*
X116788719Y-79571852D01*
X116839336Y-79619802D01*
X116845251Y-79625405D01*
X116847693Y-79627783D01*
X117966469Y-80746559D01*
X117978856Y-80760972D01*
X117991825Y-80778595D01*
X117997408Y-80783338D01*
X118032334Y-80813010D01*
X118039850Y-80819940D01*
X118045594Y-80825684D01*
X118048468Y-80827958D01*
X118048475Y-80827964D01*
X118067990Y-80843403D01*
X118071394Y-80846194D01*
X118121751Y-80888976D01*
X118121755Y-80888979D01*
X118127330Y-80893715D01*
X118133847Y-80897043D01*
X118138911Y-80900420D01*
X118144135Y-80903647D01*
X118149879Y-80908191D01*
X118156510Y-80911290D01*
X118216361Y-80939263D01*
X118220312Y-80941194D01*
X118285683Y-80974574D01*
X118292798Y-80976315D01*
X118298544Y-80978452D01*
X118304327Y-80980376D01*
X118310958Y-80983475D01*
X118382836Y-80998425D01*
X118387108Y-80999392D01*
X118458391Y-81016835D01*
X118463990Y-81017182D01*
X118463994Y-81017183D01*
X118469609Y-81017531D01*
X118469607Y-81017570D01*
X118473508Y-81017803D01*
X118477867Y-81018192D01*
X118485035Y-81019683D01*
X118492352Y-81019485D01*
X118562856Y-81017577D01*
X118566265Y-81017531D01*
X119855005Y-81017531D01*
X119923126Y-81037533D01*
X119969619Y-81091189D01*
X119981005Y-81143531D01*
X119981005Y-83915797D01*
X119961003Y-83983918D01*
X119907347Y-84030411D01*
X119837073Y-84040515D01*
X119827733Y-84038810D01*
X119605894Y-83989629D01*
X119599160Y-83988514D01*
X119255176Y-83950537D01*
X119248396Y-83950158D01*
X118902297Y-83949555D01*
X118895524Y-83949910D01*
X118551387Y-83986687D01*
X118544677Y-83987774D01*
X118206544Y-84061499D01*
X118199969Y-84063310D01*
X117871778Y-84173121D01*
X117865456Y-84175624D01*
X117551049Y-84320235D01*
X117545006Y-84323421D01*
X117248063Y-84501138D01*
X117242417Y-84504947D01*
X116966387Y-84713706D01*
X116962801Y-84716737D01*
X116954983Y-84730096D01*
X116955018Y-84730937D01*
X116960071Y-84739062D01*
X121533214Y-89312205D01*
X121546811Y-89319630D01*
X121556422Y-89312930D01*
X121652506Y-89201222D01*
X121656664Y-89195822D01*
X121852684Y-88910613D01*
X121856231Y-88904802D01*
X122020295Y-88600100D01*
X122023202Y-88593922D01*
X122153405Y-88273273D01*
X122155619Y-88266843D01*
X122250430Y-87934005D01*
X122251937Y-87927375D01*
X122310251Y-87586224D01*
X122311031Y-87579484D01*
X122332256Y-87232438D01*
X122332372Y-87228835D01*
X122332440Y-87209681D01*
X122332348Y-87206056D01*
X122313546Y-86858885D01*
X122312811Y-86852119D01*
X122256885Y-86510600D01*
X122255418Y-86503928D01*
X122162939Y-86170459D01*
X122160765Y-86163996D01*
X122032804Y-85842445D01*
X122029944Y-85836256D01*
X121919034Y-85626784D01*
X121904835Y-85557222D01*
X121930499Y-85491026D01*
X121987876Y-85449213D01*
X122030388Y-85441825D01*
X125314503Y-85441825D01*
X125382624Y-85461827D01*
X125429117Y-85515483D01*
X125439221Y-85585757D01*
X125409727Y-85650337D01*
X125359657Y-85685456D01*
X125272425Y-85718941D01*
X124977495Y-85869215D01*
X124699889Y-86049495D01*
X124442648Y-86257805D01*
X124208590Y-86491863D01*
X124000280Y-86749104D01*
X123820000Y-87026710D01*
X123669726Y-87321640D01*
X123668542Y-87324725D01*
X123573519Y-87572270D01*
X123551104Y-87630662D01*
X123465433Y-87950391D01*
X123464917Y-87953652D01*
X123414301Y-88273227D01*
X123413652Y-88277323D01*
X123413374Y-88282629D01*
X123397593Y-88583747D01*
X123396885Y-88590572D01*
X123396859Y-88592729D01*
X123395476Y-88601607D01*
X123396641Y-88610514D01*
X123399598Y-88633128D01*
X123400662Y-88649466D01*
X123400662Y-90208539D01*
X123399162Y-90227923D01*
X123396857Y-90242724D01*
X123396857Y-90242728D01*
X123395476Y-90251597D01*
X123396640Y-90260499D01*
X123396640Y-90260503D01*
X123396653Y-90260599D01*
X123396924Y-90291036D01*
X123389916Y-90353241D01*
X123383637Y-90380751D01*
X123356628Y-90457937D01*
X123344386Y-90483357D01*
X123300875Y-90552604D01*
X123283283Y-90574663D01*
X123225459Y-90632487D01*
X123203400Y-90650079D01*
X123134153Y-90693590D01*
X123108732Y-90705832D01*
X123031545Y-90732841D01*
X123004038Y-90739120D01*
X122983910Y-90741388D01*
X122948406Y-90745388D01*
X122932765Y-90746171D01*
X122923807Y-90746062D01*
X122914933Y-90744680D01*
X122883412Y-90748802D01*
X122867074Y-90749866D01*
X118069000Y-90749866D01*
X118049615Y-90748366D01*
X118034814Y-90746061D01*
X118034811Y-90746061D01*
X118025942Y-90744680D01*
X118008773Y-90746925D01*
X117984833Y-90747758D01*
X117726902Y-90732156D01*
X117711798Y-90730322D01*
X117641024Y-90717352D01*
X117430793Y-90678826D01*
X117416031Y-90675188D01*
X117143264Y-90590191D01*
X117129042Y-90584796D01*
X116868532Y-90467550D01*
X116855063Y-90460481D01*
X116610577Y-90312684D01*
X116598055Y-90304041D01*
X116373165Y-90127850D01*
X116361777Y-90117760D01*
X116159778Y-89915761D01*
X116149688Y-89904373D01*
X115979583Y-89687251D01*
X116955202Y-89687251D01*
X116963339Y-89698257D01*
X117223599Y-89897961D01*
X117229198Y-89901795D01*
X117524922Y-90081598D01*
X117530912Y-90084810D01*
X117844318Y-90231620D01*
X117850622Y-90234167D01*
X118178045Y-90346268D01*
X118184596Y-90348122D01*
X118522200Y-90424204D01*
X118528919Y-90425341D01*
X118872774Y-90464519D01*
X118879564Y-90464922D01*
X119225634Y-90466734D01*
X119232435Y-90466402D01*
X119576681Y-90430828D01*
X119583409Y-90429762D01*
X119921805Y-90357215D01*
X119928354Y-90355436D01*
X120256939Y-90246767D01*
X120263281Y-90244281D01*
X120578184Y-90100772D01*
X120584238Y-90097607D01*
X120881789Y-89920935D01*
X120887470Y-89917132D01*
X121164208Y-89709351D01*
X121169432Y-89704967D01*
X121175899Y-89698915D01*
X121183968Y-89685235D01*
X121183941Y-89684511D01*
X121178797Y-89676208D01*
X119082473Y-87579884D01*
X119068529Y-87572270D01*
X119066696Y-87572401D01*
X119060081Y-87576652D01*
X116962083Y-89674650D01*
X116955202Y-89687251D01*
X115979583Y-89687251D01*
X115973497Y-89679483D01*
X115964854Y-89666961D01*
X115817057Y-89422475D01*
X115809986Y-89409002D01*
X115766422Y-89312205D01*
X115692741Y-89148493D01*
X115687346Y-89134270D01*
X115627765Y-88943068D01*
X115602350Y-88861507D01*
X115598710Y-88846739D01*
X115547216Y-88565740D01*
X115545382Y-88550636D01*
X115530217Y-88299937D01*
X115531474Y-88273227D01*
X115531477Y-88273007D01*
X115532858Y-88264136D01*
X115531219Y-88251596D01*
X115528736Y-88232615D01*
X115527672Y-88216277D01*
X115527672Y-87199869D01*
X115807068Y-87199869D01*
X115824578Y-87545521D01*
X115825288Y-87552277D01*
X115880024Y-87894003D01*
X115881463Y-87900658D01*
X115972783Y-88234466D01*
X115974932Y-88240927D01*
X116101771Y-88562929D01*
X116104602Y-88569112D01*
X116265476Y-88875532D01*
X116268959Y-88881375D01*
X116461982Y-89168623D01*
X116466085Y-89174067D01*
X116581572Y-89311213D01*
X116594311Y-89319656D01*
X116604755Y-89313558D01*
X118697639Y-87220674D01*
X118705253Y-87206730D01*
X118705122Y-87204897D01*
X118700871Y-87198282D01*
X116606118Y-85103529D01*
X116592581Y-85096137D01*
X116582880Y-85102925D01*
X116479881Y-85223521D01*
X116475727Y-85228954D01*
X116280717Y-85514827D01*
X116277182Y-85520664D01*
X116114179Y-85825942D01*
X116111303Y-85832111D01*
X115982219Y-86153217D01*
X115980026Y-86159657D01*
X115886375Y-86492830D01*
X115884892Y-86499465D01*
X115827773Y-86840798D01*
X115827014Y-86847570D01*
X115807092Y-87193074D01*
X115807068Y-87199869D01*
X115527672Y-87199869D01*
X115527672Y-69207816D01*
X116042054Y-69207816D01*
X116043577Y-69216240D01*
X116055957Y-69219633D01*
X117105550Y-69219633D01*
X117120789Y-69215158D01*
X117121994Y-69213768D01*
X117123665Y-69206085D01*
X117123665Y-69201518D01*
X117631665Y-69201518D01*
X117636140Y-69216757D01*
X117637530Y-69217962D01*
X117645213Y-69219633D01*
X118696009Y-69219633D01*
X118709540Y-69215660D01*
X118710845Y-69206580D01*
X118668879Y-69039508D01*
X118665559Y-69029757D01*
X118580637Y-68834447D01*
X118575770Y-68825372D01*
X118460091Y-68646559D01*
X118453801Y-68638390D01*
X118310471Y-68480873D01*
X118302938Y-68473848D01*
X118135804Y-68341855D01*
X118127217Y-68336150D01*
X118089781Y-68315484D01*
X118039811Y-68265052D01*
X118025039Y-68195609D01*
X118050155Y-68129204D01*
X118077507Y-68102597D01*
X118252992Y-67977425D01*
X118260865Y-67970772D01*
X118411717Y-67820445D01*
X118418395Y-67812598D01*
X118542668Y-67639653D01*
X118547978Y-67630816D01*
X118642335Y-67439900D01*
X118646134Y-67430305D01*
X118708042Y-67226543D01*
X118710220Y-67216470D01*
X118711651Y-67205595D01*
X118709440Y-67191411D01*
X118696282Y-67187633D01*
X117649780Y-67187633D01*
X117634541Y-67192108D01*
X117633336Y-67193498D01*
X117631665Y-67201181D01*
X117631665Y-69201518D01*
X117123665Y-69201518D01*
X117123665Y-67205748D01*
X117119190Y-67190509D01*
X117117800Y-67189304D01*
X117110117Y-67187633D01*
X116060890Y-67187633D01*
X116047359Y-67191606D01*
X116045922Y-67201599D01*
X116076230Y-67336079D01*
X116079310Y-67345908D01*
X116159435Y-67543236D01*
X116164078Y-67552427D01*
X116275359Y-67734021D01*
X116281442Y-67742332D01*
X116420878Y-67903300D01*
X116428245Y-67910516D01*
X116592099Y-68046549D01*
X116600546Y-68052464D01*
X116670144Y-68093134D01*
X116718868Y-68144773D01*
X116731939Y-68214556D01*
X116705208Y-68280327D01*
X116664752Y-68313686D01*
X116656127Y-68318175D01*
X116647403Y-68323669D01*
X116477098Y-68451538D01*
X116469391Y-68458381D01*
X116322255Y-68612350D01*
X116315769Y-68620360D01*
X116195763Y-68796282D01*
X116190665Y-68805256D01*
X116101003Y-68998416D01*
X116097440Y-69008103D01*
X116042054Y-69207816D01*
X115527672Y-69207816D01*
X115527672Y-56941496D01*
X116482175Y-56941496D01*
X116491471Y-56953511D01*
X116542676Y-56989365D01*
X116552171Y-56994848D01*
X116749629Y-57086924D01*
X116759921Y-57090670D01*
X116970370Y-57147059D01*
X116981163Y-57148962D01*
X117198207Y-57167951D01*
X117209157Y-57167951D01*
X117426201Y-57148962D01*
X117436994Y-57147059D01*
X117647443Y-57090670D01*
X117657735Y-57086924D01*
X117855193Y-56994848D01*
X117864688Y-56989365D01*
X117916730Y-56952925D01*
X117925106Y-56942446D01*
X117918038Y-56929000D01*
X117216494Y-56227456D01*
X117202550Y-56219842D01*
X117200717Y-56219973D01*
X117194102Y-56224224D01*
X116488605Y-56929721D01*
X116482175Y-56941496D01*
X115527672Y-56941496D01*
X115527672Y-55860909D01*
X115891165Y-55860909D01*
X115910154Y-56077953D01*
X115912057Y-56088746D01*
X115968446Y-56299195D01*
X115972192Y-56309487D01*
X116064268Y-56506945D01*
X116069751Y-56516440D01*
X116106191Y-56568482D01*
X116116670Y-56576858D01*
X116130116Y-56569790D01*
X116831660Y-55868246D01*
X116839274Y-55854302D01*
X116839143Y-55852469D01*
X116834892Y-55845854D01*
X116129395Y-55140357D01*
X116117620Y-55133927D01*
X116105605Y-55143223D01*
X116069751Y-55194428D01*
X116064268Y-55203923D01*
X115972192Y-55401381D01*
X115968446Y-55411673D01*
X115912057Y-55622122D01*
X115910154Y-55632915D01*
X115891165Y-55849959D01*
X115891165Y-55860909D01*
X115527672Y-55860909D01*
X115527672Y-54768422D01*
X116482258Y-54768422D01*
X116489326Y-54781868D01*
X117190870Y-55483412D01*
X117204814Y-55491026D01*
X117206647Y-55490895D01*
X117213262Y-55486644D01*
X117918759Y-54781147D01*
X117925189Y-54769372D01*
X117915893Y-54757357D01*
X117864688Y-54721503D01*
X117855193Y-54716020D01*
X117657735Y-54623944D01*
X117647443Y-54620198D01*
X117436994Y-54563809D01*
X117426201Y-54561906D01*
X117209157Y-54542917D01*
X117198207Y-54542917D01*
X116981163Y-54561906D01*
X116970370Y-54563809D01*
X116759921Y-54620198D01*
X116749629Y-54623944D01*
X116552171Y-54716020D01*
X116542676Y-54721503D01*
X116490634Y-54757943D01*
X116482258Y-54768422D01*
X115527672Y-54768422D01*
X115527672Y-51650839D01*
X116955202Y-51650839D01*
X116963339Y-51661845D01*
X117223599Y-51861549D01*
X117229198Y-51865383D01*
X117524922Y-52045186D01*
X117530912Y-52048398D01*
X117844318Y-52195208D01*
X117850622Y-52197755D01*
X118178045Y-52309856D01*
X118184596Y-52311710D01*
X118522200Y-52387792D01*
X118528919Y-52388929D01*
X118872774Y-52428107D01*
X118879564Y-52428510D01*
X119225634Y-52430322D01*
X119232435Y-52429990D01*
X119576681Y-52394416D01*
X119583409Y-52393350D01*
X119921805Y-52320803D01*
X119928354Y-52319024D01*
X120256939Y-52210355D01*
X120263281Y-52207869D01*
X120578184Y-52064360D01*
X120584238Y-52061195D01*
X120881789Y-51884523D01*
X120887470Y-51880720D01*
X121164208Y-51672939D01*
X121169432Y-51668555D01*
X121175899Y-51662503D01*
X121183968Y-51648823D01*
X121183941Y-51648099D01*
X121178797Y-51639796D01*
X119082473Y-49543472D01*
X119068529Y-49535858D01*
X119066696Y-49535989D01*
X119060081Y-49540240D01*
X116962083Y-51638238D01*
X116955202Y-51650839D01*
X115527672Y-51650839D01*
X115527672Y-49163457D01*
X115807068Y-49163457D01*
X115824578Y-49509109D01*
X115825288Y-49515865D01*
X115880024Y-49857591D01*
X115881463Y-49864246D01*
X115972783Y-50198054D01*
X115974932Y-50204515D01*
X116101771Y-50526517D01*
X116104602Y-50532700D01*
X116265476Y-50839120D01*
X116268959Y-50844963D01*
X116461982Y-51132211D01*
X116466085Y-51137655D01*
X116581572Y-51274801D01*
X116594311Y-51283244D01*
X116604755Y-51277146D01*
X118697639Y-49184262D01*
X118704017Y-49172582D01*
X119434069Y-49172582D01*
X119434200Y-49174415D01*
X119438451Y-49181030D01*
X121533214Y-51275793D01*
X121546811Y-51283218D01*
X121556422Y-51276518D01*
X121652506Y-51164810D01*
X121656664Y-51159410D01*
X121852684Y-50874201D01*
X121856231Y-50868390D01*
X122020295Y-50563688D01*
X122023202Y-50557510D01*
X122153405Y-50236861D01*
X122155619Y-50230431D01*
X122250430Y-49897593D01*
X122251937Y-49890963D01*
X122310251Y-49549812D01*
X122311031Y-49543072D01*
X122332256Y-49196026D01*
X122332372Y-49192423D01*
X122332440Y-49173269D01*
X122332348Y-49169644D01*
X122313546Y-48822473D01*
X122312811Y-48815707D01*
X122274968Y-48584616D01*
X123953062Y-48584616D01*
X123954585Y-48593040D01*
X123966965Y-48596433D01*
X125016558Y-48596433D01*
X125031797Y-48591958D01*
X125033002Y-48590568D01*
X125034673Y-48582885D01*
X125034673Y-47533535D01*
X125030755Y-47520191D01*
X125016479Y-47518204D01*
X124977997Y-47524093D01*
X124967961Y-47526484D01*
X124765541Y-47592645D01*
X124756032Y-47596642D01*
X124567136Y-47694975D01*
X124558411Y-47700469D01*
X124388106Y-47828338D01*
X124380399Y-47835181D01*
X124233263Y-47989150D01*
X124226777Y-47997160D01*
X124106771Y-48173082D01*
X124101673Y-48182056D01*
X124012011Y-48375216D01*
X124008448Y-48384903D01*
X123953062Y-48584616D01*
X122274968Y-48584616D01*
X122256885Y-48474188D01*
X122255418Y-48467516D01*
X122162939Y-48134047D01*
X122160765Y-48127584D01*
X122032804Y-47806033D01*
X122029951Y-47799859D01*
X121868004Y-47493995D01*
X121864510Y-47488178D01*
X121670474Y-47201590D01*
X121666360Y-47196171D01*
X121557751Y-47068103D01*
X121544926Y-47059667D01*
X121534601Y-47065720D01*
X119441683Y-49158638D01*
X119434069Y-49172582D01*
X118704017Y-49172582D01*
X118705253Y-49170318D01*
X118705122Y-49168485D01*
X118700871Y-49161870D01*
X116606118Y-47067117D01*
X116592581Y-47059725D01*
X116582880Y-47066513D01*
X116479881Y-47187109D01*
X116475727Y-47192542D01*
X116280717Y-47478415D01*
X116277182Y-47484252D01*
X116114179Y-47789530D01*
X116111303Y-47795699D01*
X115982219Y-48116805D01*
X115980026Y-48123245D01*
X115886375Y-48456418D01*
X115884892Y-48463053D01*
X115827773Y-48804386D01*
X115827014Y-48811158D01*
X115807092Y-49156662D01*
X115807068Y-49163457D01*
X115527672Y-49163457D01*
X115527672Y-48172674D01*
X115529172Y-48153289D01*
X115531477Y-48138488D01*
X115531477Y-48138485D01*
X115532858Y-48129616D01*
X115530613Y-48112447D01*
X115529780Y-48088507D01*
X115545382Y-47830576D01*
X115547216Y-47815472D01*
X115565622Y-47715031D01*
X115598712Y-47534467D01*
X115602351Y-47519699D01*
X115610365Y-47493984D01*
X115687347Y-47246938D01*
X115692742Y-47232716D01*
X115709190Y-47196171D01*
X115809988Y-46972206D01*
X115817057Y-46958737D01*
X115964854Y-46714251D01*
X115973497Y-46701729D01*
X115979800Y-46693684D01*
X116954983Y-46693684D01*
X116955018Y-46694525D01*
X116960071Y-46702650D01*
X119056849Y-48799428D01*
X119070793Y-48807042D01*
X119072626Y-48806911D01*
X119079241Y-48802660D01*
X121177092Y-46704809D01*
X121183173Y-46693673D01*
X131932982Y-46693673D01*
X131933017Y-46694514D01*
X131938070Y-46702639D01*
X134034848Y-48799417D01*
X134048792Y-48807031D01*
X134050625Y-48806900D01*
X134057240Y-48802649D01*
X136155091Y-46704798D01*
X136162705Y-46690854D01*
X136162637Y-46689899D01*
X136158684Y-46683921D01*
X135884327Y-46474918D01*
X135878701Y-46471094D01*
X135582366Y-46292333D01*
X135576354Y-46289136D01*
X135262434Y-46143419D01*
X135256134Y-46140899D01*
X134928324Y-46029942D01*
X134921746Y-46028106D01*
X134583897Y-45953207D01*
X134577159Y-45952091D01*
X134233175Y-45914114D01*
X134226395Y-45913735D01*
X133880296Y-45913132D01*
X133873523Y-45913487D01*
X133529386Y-45950264D01*
X133522676Y-45951351D01*
X133184543Y-46025076D01*
X133177968Y-46026887D01*
X132849777Y-46136698D01*
X132843455Y-46139201D01*
X132529048Y-46283812D01*
X132523005Y-46286998D01*
X132226062Y-46464715D01*
X132220416Y-46468524D01*
X131944386Y-46677283D01*
X131940800Y-46680314D01*
X131932982Y-46693673D01*
X121183173Y-46693673D01*
X121184706Y-46690865D01*
X121184638Y-46689910D01*
X121180685Y-46683932D01*
X120906328Y-46474929D01*
X120900702Y-46471105D01*
X120604367Y-46292344D01*
X120598355Y-46289147D01*
X120284435Y-46143430D01*
X120278135Y-46140910D01*
X119950325Y-46029953D01*
X119943747Y-46028117D01*
X119605898Y-45953218D01*
X119599160Y-45952102D01*
X119255176Y-45914125D01*
X119248396Y-45913746D01*
X118902297Y-45913143D01*
X118895524Y-45913498D01*
X118551387Y-45950275D01*
X118544677Y-45951362D01*
X118206544Y-46025087D01*
X118199969Y-46026898D01*
X117871778Y-46136709D01*
X117865456Y-46139212D01*
X117551049Y-46283823D01*
X117545006Y-46287009D01*
X117248063Y-46464726D01*
X117242417Y-46468535D01*
X116966387Y-46677294D01*
X116962801Y-46680325D01*
X116954983Y-46693684D01*
X115979800Y-46693684D01*
X116149688Y-46476839D01*
X116159778Y-46465451D01*
X116361777Y-46263452D01*
X116373165Y-46253362D01*
X116598055Y-46077171D01*
X116610577Y-46068528D01*
X116855063Y-45920731D01*
X116868532Y-45913662D01*
X117129045Y-45796415D01*
X117143264Y-45791021D01*
X117416031Y-45706024D01*
X117430793Y-45702386D01*
X117641024Y-45663860D01*
X117711798Y-45650890D01*
X117726902Y-45649056D01*
X117977601Y-45633891D01*
X118004311Y-45635148D01*
X118004531Y-45635151D01*
X118013402Y-45636532D01*
X118022304Y-45635368D01*
X118022307Y-45635368D01*
X118044923Y-45632410D01*
X118061261Y-45631346D01*
X135048342Y-45631346D01*
X135067727Y-45632846D01*
G37*
%TD.AperFunction*%
%TD*%
%TA.AperFunction,Conductor*%
%TO.N,GND*%
G36*
X108857667Y-45630934D02*
G01*
X108872545Y-45633251D01*
X108872549Y-45633251D01*
X108881418Y-45634632D01*
X108898587Y-45632387D01*
X108922527Y-45631554D01*
X109180458Y-45647156D01*
X109195562Y-45648990D01*
X109266336Y-45661960D01*
X109476567Y-45700486D01*
X109491329Y-45704124D01*
X109764096Y-45789121D01*
X109778315Y-45794515D01*
X110038828Y-45911762D01*
X110052297Y-45918831D01*
X110296783Y-46066628D01*
X110309305Y-46075271D01*
X110534195Y-46251462D01*
X110545583Y-46261552D01*
X110747582Y-46463551D01*
X110757672Y-46474939D01*
X110933863Y-46699829D01*
X110942506Y-46712351D01*
X111090303Y-46956837D01*
X111097372Y-46970306D01*
X111214618Y-47230816D01*
X111220013Y-47245038D01*
X111295778Y-47488175D01*
X111305009Y-47517799D01*
X111308648Y-47532567D01*
X111347174Y-47742798D01*
X111360144Y-47813572D01*
X111361978Y-47828676D01*
X111377143Y-48079375D01*
X111375886Y-48106085D01*
X111375883Y-48106305D01*
X111374502Y-48115176D01*
X111375666Y-48124078D01*
X111375666Y-48124081D01*
X111378624Y-48146697D01*
X111379688Y-48163035D01*
X111379688Y-88208538D01*
X111378188Y-88227923D01*
X111376163Y-88240931D01*
X111374502Y-88251596D01*
X111376702Y-88268420D01*
X111376747Y-88268763D01*
X111377580Y-88292705D01*
X111361978Y-88550636D01*
X111360144Y-88565740D01*
X111308650Y-88846739D01*
X111305010Y-88861507D01*
X111221940Y-89128088D01*
X111220014Y-89134270D01*
X111214619Y-89148493D01*
X111125240Y-89347087D01*
X111097374Y-89409002D01*
X111090303Y-89422475D01*
X110942506Y-89666961D01*
X110933863Y-89679483D01*
X110757672Y-89904373D01*
X110747582Y-89915761D01*
X110545583Y-90117760D01*
X110534195Y-90127850D01*
X110309305Y-90304041D01*
X110296783Y-90312684D01*
X110052297Y-90460481D01*
X110038828Y-90467550D01*
X109778318Y-90584796D01*
X109764096Y-90590191D01*
X109491329Y-90675188D01*
X109476567Y-90678826D01*
X109266336Y-90717352D01*
X109195562Y-90730322D01*
X109180458Y-90732156D01*
X108929759Y-90747321D01*
X108903049Y-90746064D01*
X108902829Y-90746061D01*
X108893958Y-90744680D01*
X108885056Y-90745844D01*
X108885053Y-90745844D01*
X108862437Y-90748802D01*
X108846099Y-90749866D01*
X91859018Y-90749866D01*
X91839633Y-90748366D01*
X91824832Y-90746061D01*
X91824829Y-90746061D01*
X91815960Y-90744680D01*
X91798791Y-90746925D01*
X91774851Y-90747758D01*
X91516920Y-90732156D01*
X91501816Y-90730322D01*
X91431042Y-90717352D01*
X91220811Y-90678826D01*
X91206049Y-90675188D01*
X90933282Y-90590191D01*
X90919060Y-90584796D01*
X90658550Y-90467550D01*
X90645081Y-90460481D01*
X90400595Y-90312684D01*
X90388073Y-90304041D01*
X90163183Y-90127850D01*
X90151795Y-90117760D01*
X89949796Y-89915761D01*
X89939706Y-89904373D01*
X89769604Y-89687255D01*
X90745232Y-89687255D01*
X90753368Y-89698260D01*
X91013629Y-89897964D01*
X91019228Y-89901798D01*
X91314952Y-90081601D01*
X91320942Y-90084813D01*
X91634348Y-90231623D01*
X91640652Y-90234170D01*
X91968074Y-90346271D01*
X91974625Y-90348125D01*
X92312230Y-90424207D01*
X92318949Y-90425344D01*
X92662803Y-90464522D01*
X92669593Y-90464925D01*
X93015663Y-90466737D01*
X93022464Y-90466405D01*
X93366710Y-90430831D01*
X93373438Y-90429765D01*
X93711834Y-90357218D01*
X93718383Y-90355439D01*
X94046968Y-90246770D01*
X94053310Y-90244284D01*
X94368213Y-90100775D01*
X94374267Y-90097610D01*
X94671817Y-89920938D01*
X94677498Y-89917135D01*
X94954236Y-89709355D01*
X94959460Y-89704971D01*
X94965927Y-89698919D01*
X94973996Y-89685239D01*
X94973969Y-89684515D01*
X94968825Y-89676212D01*
X92872500Y-87579886D01*
X92858559Y-87572274D01*
X92856724Y-87572405D01*
X92850110Y-87576656D01*
X90752113Y-89674654D01*
X90745232Y-89687255D01*
X89769604Y-89687255D01*
X89763515Y-89679483D01*
X89754872Y-89666961D01*
X89607075Y-89422475D01*
X89600004Y-89409002D01*
X89572139Y-89347087D01*
X89482759Y-89148493D01*
X89477364Y-89134270D01*
X89475438Y-89128088D01*
X89392368Y-88861507D01*
X89388728Y-88846739D01*
X89337234Y-88565740D01*
X89335400Y-88550636D01*
X89320235Y-88299937D01*
X89321492Y-88273227D01*
X89321495Y-88273007D01*
X89322876Y-88264136D01*
X89321237Y-88251596D01*
X89318754Y-88232615D01*
X89317690Y-88216277D01*
X89317690Y-87199873D01*
X89597098Y-87199873D01*
X89614608Y-87545525D01*
X89615318Y-87552281D01*
X89670054Y-87894007D01*
X89671493Y-87900662D01*
X89762813Y-88234470D01*
X89764962Y-88240931D01*
X89891801Y-88562932D01*
X89894632Y-88569115D01*
X90055502Y-88875529D01*
X90058996Y-88881390D01*
X90252008Y-89168620D01*
X90256118Y-89174074D01*
X90371601Y-89311215D01*
X90384340Y-89319659D01*
X90394783Y-89313562D01*
X92487670Y-87220676D01*
X92494047Y-87208997D01*
X93224098Y-87208997D01*
X93224229Y-87210831D01*
X93228480Y-87217446D01*
X95323243Y-89312208D01*
X95336839Y-89319633D01*
X95346452Y-89312932D01*
X95442534Y-89201226D01*
X95446692Y-89195826D01*
X95642712Y-88910617D01*
X95646259Y-88904806D01*
X95772195Y-88670915D01*
X97665786Y-88670915D01*
X97666083Y-88676068D01*
X97666083Y-88676071D01*
X97677921Y-88881390D01*
X97679118Y-88902143D01*
X97680255Y-88907189D01*
X97680256Y-88907195D01*
X97712432Y-89049969D01*
X97730037Y-89128088D01*
X97731979Y-89132870D01*
X97731980Y-89132874D01*
X97804397Y-89311215D01*
X97817175Y-89342683D01*
X97938192Y-89540165D01*
X98089838Y-89715230D01*
X98268040Y-89863176D01*
X98468013Y-89980030D01*
X98684385Y-90062655D01*
X98689451Y-90063686D01*
X98689452Y-90063686D01*
X98742537Y-90074486D01*
X98911347Y-90108831D01*
X99040780Y-90113577D01*
X99137640Y-90117129D01*
X99137644Y-90117129D01*
X99142804Y-90117318D01*
X99147924Y-90116662D01*
X99147926Y-90116662D01*
X99221857Y-90107191D01*
X99372538Y-90087888D01*
X99377486Y-90086403D01*
X99377493Y-90086402D01*
X99589438Y-90022815D01*
X99594381Y-90021332D01*
X99674927Y-89981873D01*
X99797740Y-89921708D01*
X99797743Y-89921706D01*
X99802375Y-89919437D01*
X99990934Y-89784940D01*
X100036000Y-89740031D01*
X100098372Y-89706115D01*
X100169178Y-89711303D01*
X100225940Y-89753949D01*
X100242922Y-89785053D01*
X100268076Y-89852151D01*
X100355430Y-89968707D01*
X100471986Y-90056061D01*
X100608375Y-90107191D01*
X100670557Y-90113946D01*
X102566825Y-90113946D01*
X102629007Y-90107191D01*
X102765396Y-90056061D01*
X102881952Y-89968707D01*
X102969306Y-89852151D01*
X103020436Y-89715762D01*
X103023533Y-89687255D01*
X105723230Y-89687255D01*
X105731366Y-89698260D01*
X105991627Y-89897964D01*
X105997226Y-89901798D01*
X106292950Y-90081601D01*
X106298940Y-90084813D01*
X106612346Y-90231623D01*
X106618650Y-90234170D01*
X106946072Y-90346271D01*
X106952623Y-90348125D01*
X107290228Y-90424207D01*
X107296947Y-90425344D01*
X107640801Y-90464522D01*
X107647591Y-90464925D01*
X107993661Y-90466737D01*
X108000462Y-90466405D01*
X108344708Y-90430831D01*
X108351436Y-90429765D01*
X108689832Y-90357218D01*
X108696381Y-90355439D01*
X109024966Y-90246770D01*
X109031308Y-90244284D01*
X109346211Y-90100775D01*
X109352265Y-90097610D01*
X109649815Y-89920938D01*
X109655496Y-89917135D01*
X109932234Y-89709355D01*
X109937458Y-89704971D01*
X109943925Y-89698919D01*
X109951994Y-89685239D01*
X109951967Y-89684515D01*
X109946823Y-89676212D01*
X107850498Y-87579886D01*
X107836557Y-87572274D01*
X107834722Y-87572405D01*
X107828108Y-87576656D01*
X105730111Y-89674654D01*
X105723230Y-89687255D01*
X103023533Y-89687255D01*
X103027191Y-89653580D01*
X103027191Y-87757312D01*
X103020436Y-87695130D01*
X102969306Y-87558741D01*
X102881952Y-87442185D01*
X102765396Y-87354831D01*
X102629007Y-87303701D01*
X102566825Y-87296946D01*
X100670557Y-87296946D01*
X100608375Y-87303701D01*
X100471986Y-87354831D01*
X100355430Y-87442185D01*
X100268076Y-87558741D01*
X100264924Y-87567149D01*
X100264923Y-87567151D01*
X100244229Y-87622352D01*
X100201588Y-87679117D01*
X100135026Y-87703817D01*
X100065677Y-87688610D01*
X100042858Y-87672112D01*
X100042578Y-87671804D01*
X99934220Y-87586228D01*
X99864868Y-87531457D01*
X99864863Y-87531454D01*
X99860814Y-87528256D01*
X99856298Y-87525763D01*
X99856295Y-87525761D01*
X99662570Y-87418819D01*
X99662566Y-87418817D01*
X99658046Y-87416322D01*
X99653177Y-87414598D01*
X99653173Y-87414596D01*
X99444594Y-87340734D01*
X99444590Y-87340733D01*
X99439719Y-87339008D01*
X99434626Y-87338101D01*
X99434623Y-87338100D01*
X99216786Y-87299297D01*
X99216780Y-87299296D01*
X99211697Y-87298391D01*
X99138787Y-87297500D01*
X98985272Y-87295625D01*
X98985270Y-87295625D01*
X98980102Y-87295562D01*
X98751155Y-87330596D01*
X98531005Y-87402552D01*
X98526417Y-87404940D01*
X98526413Y-87404942D01*
X98330152Y-87507109D01*
X98325563Y-87509498D01*
X98321430Y-87512601D01*
X98321427Y-87512603D01*
X98144481Y-87645458D01*
X98140346Y-87648563D01*
X97980330Y-87816010D01*
X97849810Y-88007345D01*
X97752293Y-88217427D01*
X97690398Y-88440615D01*
X97665786Y-88670915D01*
X95772195Y-88670915D01*
X95810323Y-88600104D01*
X95813230Y-88593926D01*
X95943433Y-88273277D01*
X95945647Y-88266847D01*
X96040458Y-87934009D01*
X96041965Y-87927379D01*
X96100279Y-87586228D01*
X96101059Y-87579488D01*
X96122284Y-87232442D01*
X96122400Y-87228839D01*
X96122468Y-87209685D01*
X96122376Y-87206060D01*
X96122041Y-87199873D01*
X104575096Y-87199873D01*
X104592606Y-87545525D01*
X104593316Y-87552281D01*
X104648052Y-87894007D01*
X104649491Y-87900662D01*
X104740811Y-88234470D01*
X104742960Y-88240931D01*
X104869799Y-88562932D01*
X104872630Y-88569115D01*
X105033500Y-88875529D01*
X105036994Y-88881390D01*
X105230006Y-89168620D01*
X105234116Y-89174074D01*
X105349599Y-89311215D01*
X105362338Y-89319659D01*
X105372781Y-89313562D01*
X107465668Y-87220676D01*
X107472045Y-87208997D01*
X108202096Y-87208997D01*
X108202227Y-87210831D01*
X108206478Y-87217446D01*
X110301241Y-89312208D01*
X110314837Y-89319633D01*
X110324450Y-89312932D01*
X110420532Y-89201226D01*
X110424690Y-89195826D01*
X110620710Y-88910617D01*
X110624257Y-88904806D01*
X110788321Y-88600104D01*
X110791228Y-88593926D01*
X110921431Y-88273277D01*
X110923645Y-88266847D01*
X111018456Y-87934009D01*
X111019963Y-87927379D01*
X111078277Y-87586228D01*
X111079057Y-87579488D01*
X111100282Y-87232442D01*
X111100398Y-87228839D01*
X111100466Y-87209685D01*
X111100374Y-87206060D01*
X111081572Y-86858889D01*
X111080837Y-86852123D01*
X111024911Y-86510604D01*
X111023444Y-86503932D01*
X110930965Y-86170464D01*
X110928791Y-86164001D01*
X110800829Y-85842448D01*
X110797973Y-85836268D01*
X110636035Y-85530420D01*
X110632535Y-85524595D01*
X110438499Y-85238005D01*
X110434392Y-85232595D01*
X110325777Y-85104521D01*
X110312952Y-85096085D01*
X110302628Y-85102137D01*
X108209708Y-87195056D01*
X108202096Y-87208997D01*
X107472045Y-87208997D01*
X107473280Y-87206735D01*
X107473149Y-87204900D01*
X107468898Y-87198286D01*
X105374146Y-85103535D01*
X105360609Y-85096143D01*
X105350907Y-85102931D01*
X105247896Y-85223542D01*
X105243763Y-85228947D01*
X105048739Y-85514842D01*
X105045218Y-85520655D01*
X104882210Y-85825940D01*
X104879324Y-85832130D01*
X104750246Y-86153223D01*
X104748055Y-86159658D01*
X104654403Y-86492834D01*
X104652920Y-86499469D01*
X104595801Y-86840802D01*
X104595042Y-86847574D01*
X104575120Y-87193078D01*
X104575096Y-87199873D01*
X96122041Y-87199873D01*
X96103574Y-86858889D01*
X96102839Y-86852123D01*
X96046913Y-86510604D01*
X96045446Y-86503932D01*
X95952967Y-86170464D01*
X95950793Y-86164001D01*
X95822831Y-85842448D01*
X95819975Y-85836268D01*
X95658037Y-85530420D01*
X95654537Y-85524595D01*
X95460501Y-85238005D01*
X95456394Y-85232595D01*
X95347779Y-85104521D01*
X95334954Y-85096085D01*
X95324630Y-85102137D01*
X93231710Y-87195056D01*
X93224098Y-87208997D01*
X92494047Y-87208997D01*
X92495282Y-87206735D01*
X92495151Y-87204900D01*
X92490900Y-87198286D01*
X90396148Y-85103535D01*
X90382611Y-85096143D01*
X90372909Y-85102931D01*
X90269898Y-85223542D01*
X90265765Y-85228947D01*
X90070741Y-85514842D01*
X90067220Y-85520655D01*
X89904212Y-85825940D01*
X89901326Y-85832130D01*
X89772248Y-86153223D01*
X89770057Y-86159658D01*
X89676405Y-86492834D01*
X89674922Y-86499469D01*
X89617803Y-86840802D01*
X89617044Y-86847574D01*
X89597122Y-87193078D01*
X89597098Y-87199873D01*
X89317690Y-87199873D01*
X89317690Y-84730101D01*
X90745013Y-84730101D01*
X90745047Y-84730940D01*
X90750102Y-84739067D01*
X92846880Y-86835846D01*
X92860821Y-86843458D01*
X92862656Y-86843327D01*
X92869270Y-86839076D01*
X94967120Y-84741225D01*
X94974734Y-84727281D01*
X94974666Y-84726327D01*
X94970712Y-84720348D01*
X94880076Y-84651302D01*
X100505823Y-84651302D01*
X100519148Y-84854594D01*
X100569296Y-85052053D01*
X100654589Y-85237067D01*
X100772170Y-85403440D01*
X100918101Y-85545600D01*
X100922897Y-85548805D01*
X100922900Y-85548807D01*
X100990840Y-85594203D01*
X101087494Y-85658785D01*
X101092797Y-85661063D01*
X101092800Y-85661065D01*
X101181806Y-85699305D01*
X101274678Y-85739206D01*
X101347508Y-85755686D01*
X101467746Y-85782893D01*
X101467751Y-85782894D01*
X101473383Y-85784168D01*
X101479154Y-85784395D01*
X101479156Y-85784395D01*
X101542161Y-85786870D01*
X101676954Y-85792166D01*
X101878574Y-85762933D01*
X101884038Y-85761078D01*
X101884043Y-85761077D01*
X102066018Y-85699305D01*
X102066023Y-85699303D01*
X102071490Y-85697447D01*
X102249242Y-85597901D01*
X102405877Y-85467629D01*
X102536149Y-85310994D01*
X102635695Y-85133242D01*
X102637551Y-85127775D01*
X102637553Y-85127770D01*
X102699325Y-84945795D01*
X102699326Y-84945790D01*
X102701181Y-84940326D01*
X102730414Y-84738706D01*
X102730639Y-84730101D01*
X105723011Y-84730101D01*
X105723045Y-84730940D01*
X105728100Y-84739067D01*
X107824878Y-86835846D01*
X107838819Y-86843458D01*
X107840654Y-86843327D01*
X107847268Y-86839076D01*
X109945118Y-84741225D01*
X109952732Y-84727281D01*
X109952664Y-84726327D01*
X109948710Y-84720348D01*
X109674352Y-84511343D01*
X109668728Y-84507521D01*
X109372387Y-84328757D01*
X109366380Y-84325564D01*
X109052477Y-84179854D01*
X109046154Y-84177325D01*
X108718342Y-84066367D01*
X108711784Y-84064537D01*
X108373920Y-83989633D01*
X108367191Y-83988519D01*
X108023203Y-83950542D01*
X108016423Y-83950163D01*
X107670324Y-83949560D01*
X107663551Y-83949915D01*
X107319414Y-83986692D01*
X107312704Y-83987779D01*
X106974572Y-84061504D01*
X106967997Y-84063315D01*
X106639805Y-84173126D01*
X106633483Y-84175629D01*
X106319076Y-84320240D01*
X106313033Y-84323426D01*
X106016094Y-84501140D01*
X106010434Y-84504958D01*
X105734421Y-84713707D01*
X105730829Y-84716741D01*
X105723011Y-84730101D01*
X102730639Y-84730101D01*
X102731940Y-84680443D01*
X102713299Y-84477569D01*
X102671329Y-84328757D01*
X102659566Y-84287049D01*
X102659565Y-84287047D01*
X102657998Y-84281490D01*
X102647371Y-84259939D01*
X102570447Y-84103953D01*
X102567892Y-84098772D01*
X102549487Y-84074124D01*
X102449449Y-83940158D01*
X102449449Y-83940157D01*
X102445996Y-83935534D01*
X102421662Y-83913040D01*
X102385217Y-83852112D01*
X102381191Y-83820515D01*
X102381191Y-82848471D01*
X102401193Y-82780350D01*
X102418096Y-82759376D01*
X102572633Y-82604839D01*
X102634945Y-82570813D01*
X102661728Y-82567934D01*
X104364640Y-82567934D01*
X104432761Y-82587936D01*
X104467851Y-82621661D01*
X104487505Y-82649730D01*
X104649403Y-82811628D01*
X104653911Y-82814785D01*
X104653914Y-82814787D01*
X104702020Y-82848471D01*
X104836954Y-82942953D01*
X104841936Y-82945276D01*
X104841941Y-82945279D01*
X105038468Y-83036920D01*
X105044460Y-83039714D01*
X105049768Y-83041136D01*
X105049770Y-83041137D01*
X105260301Y-83097549D01*
X105260303Y-83097549D01*
X105265616Y-83098973D01*
X105493703Y-83118928D01*
X105721790Y-83098973D01*
X105727103Y-83097549D01*
X105727105Y-83097549D01*
X105937636Y-83041137D01*
X105937638Y-83041136D01*
X105942946Y-83039714D01*
X105948938Y-83036920D01*
X106145465Y-82945279D01*
X106145470Y-82945276D01*
X106150452Y-82942953D01*
X106285386Y-82848471D01*
X106333492Y-82814787D01*
X106333495Y-82814785D01*
X106338003Y-82811628D01*
X106499901Y-82649730D01*
X106631226Y-82462179D01*
X106633549Y-82457197D01*
X106633552Y-82457192D01*
X106725664Y-82259655D01*
X106725664Y-82259654D01*
X106727987Y-82254673D01*
X106735691Y-82225924D01*
X106785822Y-82038832D01*
X106785822Y-82038830D01*
X106787246Y-82033517D01*
X106807201Y-81805430D01*
X106787246Y-81577343D01*
X106776947Y-81538908D01*
X106729410Y-81361497D01*
X106729409Y-81361495D01*
X106727987Y-81356187D01*
X106690345Y-81275462D01*
X106633552Y-81153668D01*
X106633549Y-81153663D01*
X106631226Y-81148681D01*
X106499901Y-80961130D01*
X106338003Y-80799232D01*
X106333495Y-80796075D01*
X106333492Y-80796073D01*
X106255314Y-80741332D01*
X106150452Y-80667907D01*
X106145470Y-80665584D01*
X106145465Y-80665581D01*
X105947928Y-80573469D01*
X105947927Y-80573469D01*
X105942946Y-80571146D01*
X105937638Y-80569724D01*
X105937636Y-80569723D01*
X105727105Y-80513311D01*
X105727103Y-80513311D01*
X105721790Y-80511887D01*
X105493703Y-80491932D01*
X105265616Y-80511887D01*
X105260303Y-80513311D01*
X105260301Y-80513311D01*
X105049770Y-80569723D01*
X105049768Y-80569724D01*
X105044460Y-80571146D01*
X105039479Y-80573469D01*
X105039478Y-80573469D01*
X104841941Y-80665581D01*
X104841936Y-80665584D01*
X104836954Y-80667907D01*
X104732092Y-80741332D01*
X104653914Y-80796073D01*
X104653911Y-80796075D01*
X104649403Y-80799232D01*
X104487505Y-80961130D01*
X104467846Y-80989205D01*
X104412391Y-81033533D01*
X104364634Y-81042934D01*
X102361076Y-81042934D01*
X102342126Y-81041501D01*
X102327727Y-81039310D01*
X102327721Y-81039310D01*
X102320492Y-81038210D01*
X102313200Y-81038803D01*
X102313197Y-81038803D01*
X102267517Y-81042519D01*
X102257302Y-81042934D01*
X102249175Y-81042934D01*
X102245539Y-81043358D01*
X102245537Y-81043358D01*
X102242085Y-81043761D01*
X102220776Y-81046245D01*
X102216456Y-81046672D01*
X102143274Y-81052625D01*
X102136312Y-81054881D01*
X102130324Y-81056077D01*
X102124367Y-81057485D01*
X102117093Y-81058333D01*
X102110211Y-81060831D01*
X102110207Y-81060832D01*
X102048093Y-81083379D01*
X102043989Y-81084789D01*
X101974125Y-81107421D01*
X101967862Y-81111221D01*
X101962320Y-81113759D01*
X101956844Y-81116501D01*
X101949959Y-81119000D01*
X101943835Y-81123015D01*
X101888568Y-81159249D01*
X101884900Y-81161564D01*
X101822119Y-81199661D01*
X101817914Y-81203375D01*
X101817911Y-81203377D01*
X101813695Y-81207101D01*
X101813669Y-81207072D01*
X101810738Y-81209672D01*
X101807384Y-81212476D01*
X101801265Y-81216488D01*
X101796233Y-81221800D01*
X101747712Y-81273020D01*
X101745334Y-81275462D01*
X101127163Y-81893633D01*
X101112750Y-81906020D01*
X101095127Y-81918989D01*
X101090383Y-81924572D01*
X101090384Y-81924572D01*
X101060712Y-81959498D01*
X101053782Y-81967014D01*
X101048038Y-81972758D01*
X101045764Y-81975632D01*
X101045758Y-81975639D01*
X101030319Y-81995154D01*
X101027528Y-81998558D01*
X100984746Y-82048915D01*
X100984743Y-82048919D01*
X100980007Y-82054494D01*
X100976679Y-82061011D01*
X100973302Y-82066075D01*
X100970075Y-82071299D01*
X100965531Y-82077043D01*
X100962432Y-82083674D01*
X100934459Y-82143525D01*
X100932528Y-82147476D01*
X100899148Y-82212847D01*
X100897407Y-82219962D01*
X100895270Y-82225708D01*
X100893346Y-82231491D01*
X100890247Y-82238122D01*
X100886805Y-82254673D01*
X100875299Y-82309990D01*
X100874330Y-82314272D01*
X100856887Y-82385555D01*
X100856191Y-82396773D01*
X100856152Y-82396771D01*
X100855919Y-82400672D01*
X100855530Y-82405031D01*
X100854039Y-82412199D01*
X100854237Y-82419516D01*
X100856145Y-82490020D01*
X100856191Y-82493429D01*
X100856191Y-83817560D01*
X100836189Y-83885681D01*
X100818984Y-83905657D01*
X100819487Y-83906135D01*
X100815506Y-83910329D01*
X100811169Y-83914133D01*
X100807602Y-83918658D01*
X100807597Y-83918663D01*
X100751649Y-83989633D01*
X100685042Y-84074124D01*
X100590183Y-84254421D01*
X100529769Y-84448986D01*
X100505823Y-84651302D01*
X94880076Y-84651302D01*
X94696354Y-84511343D01*
X94690730Y-84507521D01*
X94394389Y-84328757D01*
X94388382Y-84325564D01*
X94074479Y-84179854D01*
X94068156Y-84177325D01*
X93740344Y-84066367D01*
X93733786Y-84064537D01*
X93395922Y-83989633D01*
X93389193Y-83988519D01*
X93045205Y-83950542D01*
X93038425Y-83950163D01*
X92692326Y-83949560D01*
X92685553Y-83949915D01*
X92341416Y-83986692D01*
X92334706Y-83987779D01*
X91996574Y-84061504D01*
X91989999Y-84063315D01*
X91661807Y-84173126D01*
X91655485Y-84175629D01*
X91341078Y-84320240D01*
X91335035Y-84323426D01*
X91038096Y-84501140D01*
X91032436Y-84504958D01*
X90756423Y-84713707D01*
X90752831Y-84716741D01*
X90745013Y-84730101D01*
X89317690Y-84730101D01*
X89317690Y-82071952D01*
X94050976Y-82071952D01*
X94098467Y-82249191D01*
X94102213Y-82259483D01*
X94194289Y-82456941D01*
X94199772Y-82466437D01*
X94324731Y-82644897D01*
X94331787Y-82653305D01*
X94485828Y-82807346D01*
X94494236Y-82814402D01*
X94672696Y-82939361D01*
X94682192Y-82944844D01*
X94879650Y-83036920D01*
X94889942Y-83040666D01*
X95062206Y-83086824D01*
X95076302Y-83086488D01*
X95079703Y-83078546D01*
X95079703Y-83073397D01*
X95587703Y-83073397D01*
X95591676Y-83086928D01*
X95600225Y-83088157D01*
X95777464Y-83040666D01*
X95787756Y-83036920D01*
X95985214Y-82944844D01*
X95994710Y-82939361D01*
X96173170Y-82814402D01*
X96181578Y-82807346D01*
X96335619Y-82653305D01*
X96342675Y-82644897D01*
X96467634Y-82466437D01*
X96473117Y-82456941D01*
X96565193Y-82259483D01*
X96568939Y-82249191D01*
X96615097Y-82076927D01*
X96614761Y-82062831D01*
X96606819Y-82059430D01*
X95605818Y-82059430D01*
X95590579Y-82063905D01*
X95589374Y-82065295D01*
X95587703Y-82072978D01*
X95587703Y-83073397D01*
X95079703Y-83073397D01*
X95079703Y-82077545D01*
X95075228Y-82062306D01*
X95073838Y-82061101D01*
X95066155Y-82059430D01*
X94065736Y-82059430D01*
X94052205Y-82063403D01*
X94050976Y-82071952D01*
X89317690Y-82071952D01*
X89317690Y-81533933D01*
X94052309Y-81533933D01*
X94052645Y-81548029D01*
X94060587Y-81551430D01*
X95061588Y-81551430D01*
X95076827Y-81546955D01*
X95078032Y-81545565D01*
X95079703Y-81537882D01*
X95079703Y-81533315D01*
X95587703Y-81533315D01*
X95592178Y-81548554D01*
X95593568Y-81549759D01*
X95601251Y-81551430D01*
X96601670Y-81551430D01*
X96615201Y-81547457D01*
X96616430Y-81538908D01*
X96568939Y-81361669D01*
X96565193Y-81351377D01*
X96473117Y-81153919D01*
X96467634Y-81144423D01*
X96342675Y-80965963D01*
X96335619Y-80957555D01*
X96181578Y-80803514D01*
X96173170Y-80796458D01*
X95994710Y-80671499D01*
X95985214Y-80666016D01*
X95787756Y-80573940D01*
X95777464Y-80570194D01*
X95605200Y-80524036D01*
X95591104Y-80524372D01*
X95587703Y-80532314D01*
X95587703Y-81533315D01*
X95079703Y-81533315D01*
X95079703Y-80537463D01*
X95075730Y-80523932D01*
X95067181Y-80522703D01*
X94889942Y-80570194D01*
X94879650Y-80573940D01*
X94682192Y-80666016D01*
X94672696Y-80671499D01*
X94494236Y-80796458D01*
X94485828Y-80803514D01*
X94331787Y-80957555D01*
X94324731Y-80965963D01*
X94199772Y-81144423D01*
X94194289Y-81153919D01*
X94102213Y-81351377D01*
X94098467Y-81361669D01*
X94052309Y-81533933D01*
X89317690Y-81533933D01*
X89317690Y-78776295D01*
X95280832Y-78776295D01*
X95294157Y-78979587D01*
X95344305Y-79177046D01*
X95429598Y-79362060D01*
X95547179Y-79528433D01*
X95693110Y-79670593D01*
X95697906Y-79673798D01*
X95697909Y-79673800D01*
X95765849Y-79719196D01*
X95862503Y-79783778D01*
X95867806Y-79786056D01*
X95867809Y-79786058D01*
X95956815Y-79824298D01*
X96049687Y-79864199D01*
X96122517Y-79880679D01*
X96242755Y-79907886D01*
X96242760Y-79907887D01*
X96248392Y-79909161D01*
X96254163Y-79909388D01*
X96254165Y-79909388D01*
X96317170Y-79911863D01*
X96451963Y-79917159D01*
X96653583Y-79887926D01*
X96659047Y-79886071D01*
X96659052Y-79886070D01*
X96841027Y-79824298D01*
X96841032Y-79824296D01*
X96846499Y-79822440D01*
X97024251Y-79722894D01*
X97180886Y-79592622D01*
X97311158Y-79435987D01*
X97410704Y-79258235D01*
X97412560Y-79252768D01*
X97412562Y-79252763D01*
X97474334Y-79070788D01*
X97474335Y-79070783D01*
X97476190Y-79065319D01*
X97505423Y-78863699D01*
X97506949Y-78805436D01*
X97488308Y-78602562D01*
X97438375Y-78425516D01*
X97434575Y-78412042D01*
X97434574Y-78412040D01*
X97433007Y-78406483D01*
X97430214Y-78400818D01*
X97345456Y-78228946D01*
X97342901Y-78223765D01*
X97324496Y-78199117D01*
X97224458Y-78065151D01*
X97224458Y-78065150D01*
X97221005Y-78060527D01*
X97196671Y-78038033D01*
X97160226Y-77977105D01*
X97156200Y-77945508D01*
X97156200Y-77060328D01*
X98985942Y-77060328D01*
X98986239Y-77065481D01*
X98986239Y-77065484D01*
X98991702Y-77160223D01*
X98998801Y-77283348D01*
X98999938Y-77288394D01*
X98999939Y-77288400D01*
X99014140Y-77351411D01*
X99047913Y-77501272D01*
X99131957Y-77708249D01*
X99248678Y-77898721D01*
X99394941Y-78067571D01*
X99566817Y-78210265D01*
X99759691Y-78322971D01*
X99968383Y-78402663D01*
X99973451Y-78403694D01*
X99973454Y-78403695D01*
X100068553Y-78423043D01*
X100187288Y-78447200D01*
X100192463Y-78447390D01*
X100192465Y-78447390D01*
X100405364Y-78455197D01*
X100405368Y-78455197D01*
X100410528Y-78455386D01*
X100415648Y-78454730D01*
X100415650Y-78454730D01*
X100626979Y-78427658D01*
X100626980Y-78427658D01*
X100632107Y-78427001D01*
X100637057Y-78425516D01*
X100841120Y-78364294D01*
X100841125Y-78364292D01*
X100846075Y-78362807D01*
X101046685Y-78264529D01*
X101228551Y-78134806D01*
X101386787Y-77977122D01*
X101446285Y-77894322D01*
X101514126Y-77799910D01*
X101517144Y-77795710D01*
X101616121Y-77595444D01*
X101681061Y-77381702D01*
X101683708Y-77361599D01*
X108197956Y-77361599D01*
X108228264Y-77496079D01*
X108231344Y-77505908D01*
X108311469Y-77703236D01*
X108316112Y-77712427D01*
X108427393Y-77894021D01*
X108433476Y-77902332D01*
X108572912Y-78063300D01*
X108580279Y-78070516D01*
X108744133Y-78206549D01*
X108752580Y-78212464D01*
X108936455Y-78319912D01*
X108945741Y-78324362D01*
X109144700Y-78400336D01*
X109154598Y-78403212D01*
X109257949Y-78424239D01*
X109271998Y-78423043D01*
X109275699Y-78412698D01*
X109275699Y-78412150D01*
X109783699Y-78412150D01*
X109787763Y-78425992D01*
X109801177Y-78428026D01*
X109807883Y-78427167D01*
X109817961Y-78425025D01*
X110021954Y-78363824D01*
X110031541Y-78360066D01*
X110222794Y-78266372D01*
X110231644Y-78261097D01*
X110405027Y-78137425D01*
X110412899Y-78130772D01*
X110563751Y-77980445D01*
X110570429Y-77972598D01*
X110694702Y-77799653D01*
X110700012Y-77790816D01*
X110794369Y-77599900D01*
X110798168Y-77590305D01*
X110860076Y-77386543D01*
X110862254Y-77376470D01*
X110863685Y-77365595D01*
X110861474Y-77351411D01*
X110848316Y-77347633D01*
X109801814Y-77347633D01*
X109786575Y-77352108D01*
X109785370Y-77353498D01*
X109783699Y-77361181D01*
X109783699Y-78412150D01*
X109275699Y-78412150D01*
X109275699Y-77365748D01*
X109271224Y-77350509D01*
X109269834Y-77349304D01*
X109262151Y-77347633D01*
X108212924Y-77347633D01*
X108199393Y-77351606D01*
X108197956Y-77361599D01*
X101683708Y-77361599D01*
X101710220Y-77160223D01*
X101711847Y-77093633D01*
X101693543Y-76870994D01*
X101639122Y-76654335D01*
X101550045Y-76449473D01*
X101428705Y-76261910D01*
X101278361Y-76096684D01*
X101274310Y-76093485D01*
X101274306Y-76093481D01*
X101107105Y-75961433D01*
X101107101Y-75961431D01*
X101103050Y-75958231D01*
X101061744Y-75935429D01*
X101011775Y-75884997D01*
X100997003Y-75815554D01*
X101022119Y-75749149D01*
X101049471Y-75722542D01*
X101093294Y-75691283D01*
X101228551Y-75594806D01*
X101386787Y-75437122D01*
X101446285Y-75354322D01*
X101514126Y-75259910D01*
X101517144Y-75255710D01*
X101616121Y-75055444D01*
X101681061Y-74841702D01*
X101710220Y-74620223D01*
X101711847Y-74553633D01*
X101709109Y-74520328D01*
X108166950Y-74520328D01*
X108167247Y-74525481D01*
X108167247Y-74525484D01*
X108172710Y-74620223D01*
X108179809Y-74743348D01*
X108180946Y-74748394D01*
X108180947Y-74748400D01*
X108194296Y-74807633D01*
X108228921Y-74961272D01*
X108312965Y-75168249D01*
X108429686Y-75358721D01*
X108575949Y-75527571D01*
X108747825Y-75670265D01*
X108820677Y-75712836D01*
X108821654Y-75713407D01*
X108870378Y-75765045D01*
X108883449Y-75834828D01*
X108856718Y-75900600D01*
X108816261Y-75933960D01*
X108808156Y-75938179D01*
X108799437Y-75943669D01*
X108629132Y-76071538D01*
X108621425Y-76078381D01*
X108474289Y-76232350D01*
X108467803Y-76240360D01*
X108347797Y-76416282D01*
X108342699Y-76425256D01*
X108253037Y-76618416D01*
X108249474Y-76628103D01*
X108194088Y-76827816D01*
X108195611Y-76836240D01*
X108207991Y-76839633D01*
X110848043Y-76839633D01*
X110861574Y-76835660D01*
X110862879Y-76826580D01*
X110820913Y-76659508D01*
X110817593Y-76649757D01*
X110732671Y-76454447D01*
X110727804Y-76445372D01*
X110612125Y-76266559D01*
X110605835Y-76258390D01*
X110462505Y-76100873D01*
X110454972Y-76093848D01*
X110287838Y-75961855D01*
X110279255Y-75956153D01*
X110242301Y-75935753D01*
X110192330Y-75885320D01*
X110177558Y-75815878D01*
X110202674Y-75749472D01*
X110230026Y-75722865D01*
X110253496Y-75706124D01*
X110409559Y-75594806D01*
X110567795Y-75437122D01*
X110627293Y-75354322D01*
X110695134Y-75259910D01*
X110698152Y-75255710D01*
X110797129Y-75055444D01*
X110862069Y-74841702D01*
X110891228Y-74620223D01*
X110892855Y-74553633D01*
X110874551Y-74330994D01*
X110820130Y-74114335D01*
X110731053Y-73909473D01*
X110609713Y-73721910D01*
X110459369Y-73556684D01*
X110455318Y-73553485D01*
X110455314Y-73553481D01*
X110288113Y-73421433D01*
X110288109Y-73421431D01*
X110284058Y-73418231D01*
X110242268Y-73395162D01*
X110192297Y-73344730D01*
X110177525Y-73275287D01*
X110202641Y-73208881D01*
X110229993Y-73182274D01*
X110405027Y-73057425D01*
X110412899Y-73050772D01*
X110563751Y-72900445D01*
X110570429Y-72892598D01*
X110694702Y-72719653D01*
X110700012Y-72710816D01*
X110794369Y-72519900D01*
X110798168Y-72510305D01*
X110860076Y-72306543D01*
X110862254Y-72296470D01*
X110863685Y-72285595D01*
X110861474Y-72271411D01*
X110848316Y-72267633D01*
X108212924Y-72267633D01*
X108199393Y-72271606D01*
X108197956Y-72281599D01*
X108228264Y-72416079D01*
X108231344Y-72425908D01*
X108311469Y-72623236D01*
X108316112Y-72632427D01*
X108427393Y-72814021D01*
X108433476Y-72822332D01*
X108572912Y-72983300D01*
X108580279Y-72990516D01*
X108744133Y-73126549D01*
X108752580Y-73132464D01*
X108821668Y-73172836D01*
X108870392Y-73224475D01*
X108883463Y-73294258D01*
X108856732Y-73360029D01*
X108816283Y-73393385D01*
X108803306Y-73400140D01*
X108799173Y-73403243D01*
X108799170Y-73403245D01*
X108774946Y-73421433D01*
X108624664Y-73534268D01*
X108470328Y-73695771D01*
X108467414Y-73700043D01*
X108467413Y-73700044D01*
X108455103Y-73718090D01*
X108344442Y-73880313D01*
X108250387Y-74082938D01*
X108190688Y-74298203D01*
X108166950Y-74520328D01*
X101709109Y-74520328D01*
X101693543Y-74330994D01*
X101639122Y-74114335D01*
X101550045Y-73909473D01*
X101428705Y-73721910D01*
X101278361Y-73556684D01*
X101274310Y-73553485D01*
X101274306Y-73553481D01*
X101107105Y-73421433D01*
X101107101Y-73421431D01*
X101103050Y-73418231D01*
X101061744Y-73395429D01*
X101011775Y-73344997D01*
X100997003Y-73275554D01*
X101022119Y-73209149D01*
X101049471Y-73182542D01*
X101093294Y-73151283D01*
X101228551Y-73054806D01*
X101386787Y-72897122D01*
X101446285Y-72814322D01*
X101514126Y-72719910D01*
X101517144Y-72715710D01*
X101550301Y-72648623D01*
X101613827Y-72520086D01*
X101613828Y-72520084D01*
X101616121Y-72515444D01*
X101648591Y-72408573D01*
X101679556Y-72306656D01*
X101679556Y-72306654D01*
X101681061Y-72301702D01*
X101710220Y-72080223D01*
X101711847Y-72013633D01*
X101693543Y-71790994D01*
X101639122Y-71574335D01*
X101550045Y-71369473D01*
X101471018Y-71247316D01*
X101431513Y-71186250D01*
X101431511Y-71186247D01*
X101428705Y-71181910D01*
X101278361Y-71016684D01*
X101274310Y-71013485D01*
X101274306Y-71013481D01*
X101107105Y-70881433D01*
X101107101Y-70881431D01*
X101103050Y-70878231D01*
X101061744Y-70855429D01*
X101011775Y-70804997D01*
X100997003Y-70735554D01*
X101022119Y-70669149D01*
X101049471Y-70642542D01*
X101093294Y-70611283D01*
X101228551Y-70514806D01*
X101386787Y-70357122D01*
X101446285Y-70274322D01*
X101514126Y-70179910D01*
X101517144Y-70175710D01*
X101616121Y-69975444D01*
X101681061Y-69761702D01*
X101710220Y-69540223D01*
X101711847Y-69473633D01*
X101709109Y-69440328D01*
X108166950Y-69440328D01*
X108167247Y-69445481D01*
X108167247Y-69445484D01*
X108172710Y-69540223D01*
X108179809Y-69663348D01*
X108180946Y-69668394D01*
X108180947Y-69668400D01*
X108194296Y-69727633D01*
X108228921Y-69881272D01*
X108312965Y-70088249D01*
X108429686Y-70278721D01*
X108575949Y-70447571D01*
X108747825Y-70590265D01*
X108820677Y-70632836D01*
X108821654Y-70633407D01*
X108870378Y-70685045D01*
X108883449Y-70754828D01*
X108856718Y-70820600D01*
X108816261Y-70853960D01*
X108808156Y-70858179D01*
X108799437Y-70863669D01*
X108629132Y-70991538D01*
X108621425Y-70998381D01*
X108474289Y-71152350D01*
X108467803Y-71160360D01*
X108347797Y-71336282D01*
X108342699Y-71345256D01*
X108253037Y-71538416D01*
X108249474Y-71548103D01*
X108194088Y-71747816D01*
X108195611Y-71756240D01*
X108207991Y-71759633D01*
X110848043Y-71759633D01*
X110861574Y-71755660D01*
X110862879Y-71746580D01*
X110820913Y-71579508D01*
X110817593Y-71569757D01*
X110732671Y-71374447D01*
X110727804Y-71365372D01*
X110612125Y-71186559D01*
X110605835Y-71178390D01*
X110462505Y-71020873D01*
X110454972Y-71013848D01*
X110287838Y-70881855D01*
X110279255Y-70876153D01*
X110242301Y-70855753D01*
X110192330Y-70805320D01*
X110177558Y-70735878D01*
X110202674Y-70669472D01*
X110230026Y-70642865D01*
X110253496Y-70626124D01*
X110409559Y-70514806D01*
X110567795Y-70357122D01*
X110627293Y-70274322D01*
X110695134Y-70179910D01*
X110698152Y-70175710D01*
X110797129Y-69975444D01*
X110862069Y-69761702D01*
X110891228Y-69540223D01*
X110892855Y-69473633D01*
X110874551Y-69250994D01*
X110820130Y-69034335D01*
X110731053Y-68829473D01*
X110609713Y-68641910D01*
X110459369Y-68476684D01*
X110455318Y-68473485D01*
X110455314Y-68473481D01*
X110288113Y-68341433D01*
X110288109Y-68341431D01*
X110284058Y-68338231D01*
X110242268Y-68315162D01*
X110192297Y-68264730D01*
X110177525Y-68195287D01*
X110202641Y-68128881D01*
X110229993Y-68102274D01*
X110405027Y-67977425D01*
X110412899Y-67970772D01*
X110563751Y-67820445D01*
X110570429Y-67812598D01*
X110694702Y-67639653D01*
X110700012Y-67630816D01*
X110794369Y-67439900D01*
X110798168Y-67430305D01*
X110860076Y-67226543D01*
X110862254Y-67216470D01*
X110863685Y-67205595D01*
X110861474Y-67191411D01*
X110848316Y-67187633D01*
X108212924Y-67187633D01*
X108199393Y-67191606D01*
X108197956Y-67201599D01*
X108228264Y-67336079D01*
X108231344Y-67345908D01*
X108311469Y-67543236D01*
X108316112Y-67552427D01*
X108427393Y-67734021D01*
X108433476Y-67742332D01*
X108572912Y-67903300D01*
X108580279Y-67910516D01*
X108744133Y-68046549D01*
X108752580Y-68052464D01*
X108821668Y-68092836D01*
X108870392Y-68144475D01*
X108883463Y-68214258D01*
X108856732Y-68280029D01*
X108816283Y-68313385D01*
X108803306Y-68320140D01*
X108799173Y-68323243D01*
X108799170Y-68323245D01*
X108774946Y-68341433D01*
X108624664Y-68454268D01*
X108470328Y-68615771D01*
X108467414Y-68620043D01*
X108467413Y-68620044D01*
X108455103Y-68638090D01*
X108344442Y-68800313D01*
X108250387Y-69002938D01*
X108190688Y-69218203D01*
X108166950Y-69440328D01*
X101709109Y-69440328D01*
X101693543Y-69250994D01*
X101639122Y-69034335D01*
X101550045Y-68829473D01*
X101428705Y-68641910D01*
X101278361Y-68476684D01*
X101274310Y-68473485D01*
X101274306Y-68473481D01*
X101107105Y-68341433D01*
X101107101Y-68341431D01*
X101103050Y-68338231D01*
X101061744Y-68315429D01*
X101011775Y-68264997D01*
X100997003Y-68195554D01*
X101022119Y-68129149D01*
X101049471Y-68102542D01*
X101093294Y-68071283D01*
X101228551Y-67974806D01*
X101386787Y-67817122D01*
X101446285Y-67734322D01*
X101514126Y-67639910D01*
X101517144Y-67635710D01*
X101616121Y-67435444D01*
X101681061Y-67221702D01*
X101710220Y-67000223D01*
X101711847Y-66933633D01*
X101693543Y-66710994D01*
X101639122Y-66494335D01*
X101550045Y-66289473D01*
X101428705Y-66101910D01*
X101278361Y-65936684D01*
X101274310Y-65933485D01*
X101274306Y-65933481D01*
X101107105Y-65801433D01*
X101107101Y-65801431D01*
X101103050Y-65798231D01*
X101061260Y-65775162D01*
X101011289Y-65724730D01*
X100996517Y-65655287D01*
X101021633Y-65588881D01*
X101048985Y-65562274D01*
X101224019Y-65437425D01*
X101231891Y-65430772D01*
X101382743Y-65280445D01*
X101389421Y-65272598D01*
X101513694Y-65099653D01*
X101519004Y-65090816D01*
X101613361Y-64899900D01*
X101617160Y-64890305D01*
X101679068Y-64686543D01*
X101681246Y-64676470D01*
X101682677Y-64665595D01*
X101680466Y-64651411D01*
X101667308Y-64647633D01*
X99031916Y-64647633D01*
X99018385Y-64651606D01*
X99016948Y-64661599D01*
X99047256Y-64796079D01*
X99050336Y-64805908D01*
X99130461Y-65003236D01*
X99135104Y-65012427D01*
X99246385Y-65194021D01*
X99252468Y-65202332D01*
X99391904Y-65363300D01*
X99399271Y-65370516D01*
X99563125Y-65506549D01*
X99571572Y-65512464D01*
X99640660Y-65552836D01*
X99689384Y-65604475D01*
X99702455Y-65674258D01*
X99675724Y-65740029D01*
X99635275Y-65773385D01*
X99622298Y-65780140D01*
X99618165Y-65783243D01*
X99618162Y-65783245D01*
X99593938Y-65801433D01*
X99443656Y-65914268D01*
X99289320Y-66075771D01*
X99286406Y-66080043D01*
X99286405Y-66080044D01*
X99274095Y-66098090D01*
X99163434Y-66260313D01*
X99069379Y-66462938D01*
X99009680Y-66678203D01*
X98985942Y-66900328D01*
X98986239Y-66905481D01*
X98986239Y-66905484D01*
X98991702Y-67000223D01*
X98998801Y-67123348D01*
X98999938Y-67128394D01*
X98999939Y-67128400D01*
X99014140Y-67191411D01*
X99047913Y-67341272D01*
X99131957Y-67548249D01*
X99248678Y-67738721D01*
X99394941Y-67907571D01*
X99566817Y-68050265D01*
X99637286Y-68091444D01*
X99640136Y-68093109D01*
X99688860Y-68144747D01*
X99701931Y-68214530D01*
X99675200Y-68280302D01*
X99634746Y-68313660D01*
X99622298Y-68320140D01*
X99618165Y-68323243D01*
X99618162Y-68323245D01*
X99593938Y-68341433D01*
X99443656Y-68454268D01*
X99289320Y-68615771D01*
X99286406Y-68620043D01*
X99286405Y-68620044D01*
X99274095Y-68638090D01*
X99163434Y-68800313D01*
X99069379Y-69002938D01*
X99009680Y-69218203D01*
X98985942Y-69440328D01*
X98986239Y-69445481D01*
X98986239Y-69445484D01*
X98991702Y-69540223D01*
X98998801Y-69663348D01*
X98999938Y-69668394D01*
X98999939Y-69668400D01*
X99013288Y-69727633D01*
X99047913Y-69881272D01*
X99131957Y-70088249D01*
X99248678Y-70278721D01*
X99394941Y-70447571D01*
X99566817Y-70590265D01*
X99637286Y-70631444D01*
X99640136Y-70633109D01*
X99688860Y-70684747D01*
X99701931Y-70754530D01*
X99675200Y-70820302D01*
X99634746Y-70853660D01*
X99622298Y-70860140D01*
X99618165Y-70863243D01*
X99618162Y-70863245D01*
X99447791Y-70991163D01*
X99443656Y-70994268D01*
X99440084Y-70998006D01*
X99326563Y-71116799D01*
X99289320Y-71155771D01*
X99286406Y-71160043D01*
X99286405Y-71160044D01*
X99274095Y-71178090D01*
X99163434Y-71340313D01*
X99069379Y-71542938D01*
X99009680Y-71758203D01*
X98985942Y-71980328D01*
X98986239Y-71985481D01*
X98986239Y-71985484D01*
X98991702Y-72080223D01*
X98998801Y-72203348D01*
X98999938Y-72208394D01*
X98999939Y-72208400D01*
X99015845Y-72278978D01*
X99047913Y-72421272D01*
X99131957Y-72628249D01*
X99248678Y-72818721D01*
X99394941Y-72987571D01*
X99566817Y-73130265D01*
X99637286Y-73171444D01*
X99640136Y-73173109D01*
X99688860Y-73224747D01*
X99701931Y-73294530D01*
X99675200Y-73360302D01*
X99634746Y-73393660D01*
X99622298Y-73400140D01*
X99618165Y-73403243D01*
X99618162Y-73403245D01*
X99593938Y-73421433D01*
X99443656Y-73534268D01*
X99289320Y-73695771D01*
X99286406Y-73700043D01*
X99286405Y-73700044D01*
X99274095Y-73718090D01*
X99163434Y-73880313D01*
X99069379Y-74082938D01*
X99009680Y-74298203D01*
X98985942Y-74520328D01*
X98986239Y-74525481D01*
X98986239Y-74525484D01*
X98991702Y-74620223D01*
X98998801Y-74743348D01*
X98999938Y-74748394D01*
X98999939Y-74748400D01*
X99013288Y-74807633D01*
X99047913Y-74961272D01*
X99131957Y-75168249D01*
X99248678Y-75358721D01*
X99394941Y-75527571D01*
X99566817Y-75670265D01*
X99637286Y-75711444D01*
X99640136Y-75713109D01*
X99688860Y-75764747D01*
X99701931Y-75834530D01*
X99675200Y-75900302D01*
X99634746Y-75933660D01*
X99622298Y-75940140D01*
X99618165Y-75943243D01*
X99618162Y-75943245D01*
X99593938Y-75961433D01*
X99443656Y-76074268D01*
X99289320Y-76235771D01*
X99286406Y-76240043D01*
X99286405Y-76240044D01*
X99274095Y-76258090D01*
X99163434Y-76420313D01*
X99069379Y-76622938D01*
X99009680Y-76838203D01*
X98985942Y-77060328D01*
X97156200Y-77060328D01*
X97156200Y-72912453D01*
X97176202Y-72844332D01*
X97201630Y-72815580D01*
X97214946Y-72804505D01*
X97214948Y-72804503D01*
X97219386Y-72800812D01*
X97349658Y-72644177D01*
X97449204Y-72466425D01*
X97451060Y-72460958D01*
X97451062Y-72460953D01*
X97512834Y-72278978D01*
X97512835Y-72278973D01*
X97514690Y-72273509D01*
X97543923Y-72071889D01*
X97545449Y-72013626D01*
X97526808Y-71810752D01*
X97512391Y-71759633D01*
X97473075Y-71620232D01*
X97473074Y-71620230D01*
X97471507Y-71614673D01*
X97460880Y-71593122D01*
X97383956Y-71437136D01*
X97381401Y-71431955D01*
X97362996Y-71407307D01*
X97262958Y-71273341D01*
X97262958Y-71273340D01*
X97259505Y-71268717D01*
X97161466Y-71178090D01*
X97114143Y-71134345D01*
X97114140Y-71134343D01*
X97109903Y-71130426D01*
X97063875Y-71101385D01*
X96942488Y-71024795D01*
X96942483Y-71024793D01*
X96937604Y-71021714D01*
X96748380Y-70946221D01*
X96548566Y-70906475D01*
X96542792Y-70906399D01*
X96542788Y-70906399D01*
X96439652Y-70905050D01*
X96344855Y-70903809D01*
X96339158Y-70904788D01*
X96339157Y-70904788D01*
X96149767Y-70937331D01*
X96144070Y-70938310D01*
X95952934Y-71008824D01*
X95947973Y-71011776D01*
X95947972Y-71011776D01*
X95932682Y-71020873D01*
X95777849Y-71112989D01*
X95624678Y-71247316D01*
X95621111Y-71251841D01*
X95621106Y-71251846D01*
X95554738Y-71336034D01*
X95498551Y-71407307D01*
X95403692Y-71587604D01*
X95343278Y-71782169D01*
X95319332Y-71984485D01*
X95332657Y-72187777D01*
X95382805Y-72385236D01*
X95468098Y-72570250D01*
X95585679Y-72736623D01*
X95589810Y-72740647D01*
X95589814Y-72740652D01*
X95593124Y-72743876D01*
X95627960Y-72805738D01*
X95631200Y-72834128D01*
X95631200Y-77942553D01*
X95611198Y-78010674D01*
X95593993Y-78030650D01*
X95594496Y-78031128D01*
X95590515Y-78035322D01*
X95586178Y-78039126D01*
X95582611Y-78043651D01*
X95582606Y-78043656D01*
X95510750Y-78134806D01*
X95460051Y-78199117D01*
X95457362Y-78204228D01*
X95457360Y-78204231D01*
X95425636Y-78264529D01*
X95365192Y-78379414D01*
X95304778Y-78573979D01*
X95280832Y-78776295D01*
X89317690Y-78776295D01*
X89317690Y-77060328D01*
X89804934Y-77060328D01*
X89805231Y-77065481D01*
X89805231Y-77065484D01*
X89810694Y-77160223D01*
X89817793Y-77283348D01*
X89818930Y-77288394D01*
X89818931Y-77288400D01*
X89833132Y-77351411D01*
X89866905Y-77501272D01*
X89950949Y-77708249D01*
X90067670Y-77898721D01*
X90213933Y-78067571D01*
X90385809Y-78210265D01*
X90578683Y-78322971D01*
X90787375Y-78402663D01*
X90792443Y-78403694D01*
X90792446Y-78403695D01*
X90887545Y-78423043D01*
X91006280Y-78447200D01*
X91011455Y-78447390D01*
X91011457Y-78447390D01*
X91224356Y-78455197D01*
X91224360Y-78455197D01*
X91229520Y-78455386D01*
X91234640Y-78454730D01*
X91234642Y-78454730D01*
X91445971Y-78427658D01*
X91445972Y-78427658D01*
X91451099Y-78427001D01*
X91456049Y-78425516D01*
X91660112Y-78364294D01*
X91660117Y-78364292D01*
X91665067Y-78362807D01*
X91865677Y-78264529D01*
X92047543Y-78134806D01*
X92205779Y-77977122D01*
X92265277Y-77894322D01*
X92333118Y-77799910D01*
X92336136Y-77795710D01*
X92435113Y-77595444D01*
X92500053Y-77381702D01*
X92529212Y-77160223D01*
X92530839Y-77093633D01*
X92512535Y-76870994D01*
X92458114Y-76654335D01*
X92369037Y-76449473D01*
X92247697Y-76261910D01*
X92097353Y-76096684D01*
X92093302Y-76093485D01*
X92093298Y-76093481D01*
X91926097Y-75961433D01*
X91926093Y-75961431D01*
X91922042Y-75958231D01*
X91880252Y-75935162D01*
X91830281Y-75884730D01*
X91815509Y-75815287D01*
X91840625Y-75748881D01*
X91867977Y-75722274D01*
X92043011Y-75597425D01*
X92050883Y-75590772D01*
X92201735Y-75440445D01*
X92208413Y-75432598D01*
X92332686Y-75259653D01*
X92337996Y-75250816D01*
X92432353Y-75059900D01*
X92436152Y-75050305D01*
X92498060Y-74846543D01*
X92500238Y-74836470D01*
X92501669Y-74825595D01*
X92499458Y-74811411D01*
X92486300Y-74807633D01*
X89850908Y-74807633D01*
X89837377Y-74811606D01*
X89835940Y-74821599D01*
X89866248Y-74956079D01*
X89869328Y-74965908D01*
X89949453Y-75163236D01*
X89954096Y-75172427D01*
X90065377Y-75354021D01*
X90071460Y-75362332D01*
X90210896Y-75523300D01*
X90218263Y-75530516D01*
X90382117Y-75666549D01*
X90390564Y-75672464D01*
X90459652Y-75712836D01*
X90508376Y-75764475D01*
X90521447Y-75834258D01*
X90494716Y-75900029D01*
X90454267Y-75933385D01*
X90441290Y-75940140D01*
X90437157Y-75943243D01*
X90437154Y-75943245D01*
X90412930Y-75961433D01*
X90262648Y-76074268D01*
X90108312Y-76235771D01*
X90105398Y-76240043D01*
X90105397Y-76240044D01*
X90093087Y-76258090D01*
X89982426Y-76420313D01*
X89888371Y-76622938D01*
X89828672Y-76838203D01*
X89804934Y-77060328D01*
X89317690Y-77060328D01*
X89317690Y-71980328D01*
X89804934Y-71980328D01*
X89805231Y-71985481D01*
X89805231Y-71985484D01*
X89810694Y-72080223D01*
X89817793Y-72203348D01*
X89818930Y-72208394D01*
X89818931Y-72208400D01*
X89834837Y-72278978D01*
X89866905Y-72421272D01*
X89950949Y-72628249D01*
X90067670Y-72818721D01*
X90213933Y-72987571D01*
X90385809Y-73130265D01*
X90458661Y-73172836D01*
X90459638Y-73173407D01*
X90508362Y-73225045D01*
X90521433Y-73294828D01*
X90494702Y-73360600D01*
X90454245Y-73393960D01*
X90446140Y-73398179D01*
X90437421Y-73403669D01*
X90267116Y-73531538D01*
X90259409Y-73538381D01*
X90112273Y-73692350D01*
X90105787Y-73700360D01*
X89985781Y-73876282D01*
X89980683Y-73885256D01*
X89891021Y-74078416D01*
X89887458Y-74088103D01*
X89832072Y-74287816D01*
X89833595Y-74296240D01*
X89845975Y-74299633D01*
X92486027Y-74299633D01*
X92499558Y-74295660D01*
X92500863Y-74286580D01*
X92458897Y-74119508D01*
X92455577Y-74109757D01*
X92370655Y-73914447D01*
X92365788Y-73905372D01*
X92250109Y-73726559D01*
X92243819Y-73718390D01*
X92100489Y-73560873D01*
X92092956Y-73553848D01*
X91925822Y-73421855D01*
X91917239Y-73416153D01*
X91880285Y-73395753D01*
X91830314Y-73345320D01*
X91815542Y-73275878D01*
X91840658Y-73209472D01*
X91868010Y-73182865D01*
X91891480Y-73166124D01*
X92047543Y-73054806D01*
X92205779Y-72897122D01*
X92265277Y-72814322D01*
X92333118Y-72719910D01*
X92336136Y-72715710D01*
X92369293Y-72648623D01*
X92432819Y-72520086D01*
X92432820Y-72520084D01*
X92435113Y-72515444D01*
X92467583Y-72408573D01*
X92498548Y-72306656D01*
X92498548Y-72306654D01*
X92500053Y-72301702D01*
X92529212Y-72080223D01*
X92530839Y-72013633D01*
X92512535Y-71790994D01*
X92458114Y-71574335D01*
X92369037Y-71369473D01*
X92290010Y-71247316D01*
X92250505Y-71186250D01*
X92250503Y-71186247D01*
X92247697Y-71181910D01*
X92097353Y-71016684D01*
X92093302Y-71013485D01*
X92093298Y-71013481D01*
X91926097Y-70881433D01*
X91926093Y-70881431D01*
X91922042Y-70878231D01*
X91880252Y-70855162D01*
X91830281Y-70804730D01*
X91815509Y-70735287D01*
X91840625Y-70668881D01*
X91867977Y-70642274D01*
X92043011Y-70517425D01*
X92050883Y-70510772D01*
X92201735Y-70360445D01*
X92208413Y-70352598D01*
X92332686Y-70179653D01*
X92337996Y-70170816D01*
X92432353Y-69979900D01*
X92436152Y-69970305D01*
X92498060Y-69766543D01*
X92500238Y-69756470D01*
X92501669Y-69745595D01*
X92499458Y-69731411D01*
X92486300Y-69727633D01*
X89850908Y-69727633D01*
X89837377Y-69731606D01*
X89835940Y-69741599D01*
X89866248Y-69876079D01*
X89869328Y-69885908D01*
X89949453Y-70083236D01*
X89954096Y-70092427D01*
X90065377Y-70274021D01*
X90071460Y-70282332D01*
X90210896Y-70443300D01*
X90218263Y-70450516D01*
X90382117Y-70586549D01*
X90390564Y-70592464D01*
X90459652Y-70632836D01*
X90508376Y-70684475D01*
X90521447Y-70754258D01*
X90494716Y-70820029D01*
X90454267Y-70853385D01*
X90441290Y-70860140D01*
X90437157Y-70863243D01*
X90437154Y-70863245D01*
X90266783Y-70991163D01*
X90262648Y-70994268D01*
X90259076Y-70998006D01*
X90145555Y-71116799D01*
X90108312Y-71155771D01*
X90105398Y-71160043D01*
X90105397Y-71160044D01*
X90093087Y-71178090D01*
X89982426Y-71340313D01*
X89888371Y-71542938D01*
X89828672Y-71758203D01*
X89804934Y-71980328D01*
X89317690Y-71980328D01*
X89317690Y-69207816D01*
X89832072Y-69207816D01*
X89833595Y-69216240D01*
X89845975Y-69219633D01*
X90895568Y-69219633D01*
X90910807Y-69215158D01*
X90912012Y-69213768D01*
X90913683Y-69206085D01*
X90913683Y-69201518D01*
X91421683Y-69201518D01*
X91426158Y-69216757D01*
X91427548Y-69217962D01*
X91435231Y-69219633D01*
X92486027Y-69219633D01*
X92499558Y-69215660D01*
X92500863Y-69206580D01*
X92458897Y-69039508D01*
X92455577Y-69029757D01*
X92370655Y-68834447D01*
X92365788Y-68825372D01*
X92250109Y-68646559D01*
X92243819Y-68638390D01*
X92100489Y-68480873D01*
X92092956Y-68473848D01*
X91925822Y-68341855D01*
X91917235Y-68336150D01*
X91879799Y-68315484D01*
X91829829Y-68265052D01*
X91815057Y-68195609D01*
X91840173Y-68129204D01*
X91867525Y-68102597D01*
X92043010Y-67977425D01*
X92050883Y-67970772D01*
X92201735Y-67820445D01*
X92208413Y-67812598D01*
X92332686Y-67639653D01*
X92337996Y-67630816D01*
X92432353Y-67439900D01*
X92436152Y-67430305D01*
X92498060Y-67226543D01*
X92500238Y-67216470D01*
X92501669Y-67205595D01*
X92499458Y-67191411D01*
X92486300Y-67187633D01*
X91439798Y-67187633D01*
X91424559Y-67192108D01*
X91423354Y-67193498D01*
X91421683Y-67201181D01*
X91421683Y-69201518D01*
X90913683Y-69201518D01*
X90913683Y-67205748D01*
X90909208Y-67190509D01*
X90907818Y-67189304D01*
X90900135Y-67187633D01*
X89850908Y-67187633D01*
X89837377Y-67191606D01*
X89835940Y-67201599D01*
X89866248Y-67336079D01*
X89869328Y-67345908D01*
X89949453Y-67543236D01*
X89954096Y-67552427D01*
X90065377Y-67734021D01*
X90071460Y-67742332D01*
X90210896Y-67903300D01*
X90218263Y-67910516D01*
X90382117Y-68046549D01*
X90390564Y-68052464D01*
X90460162Y-68093134D01*
X90508886Y-68144773D01*
X90521957Y-68214556D01*
X90495226Y-68280327D01*
X90454770Y-68313686D01*
X90446145Y-68318175D01*
X90437421Y-68323669D01*
X90267116Y-68451538D01*
X90259409Y-68458381D01*
X90112273Y-68612350D01*
X90105787Y-68620360D01*
X89985781Y-68796282D01*
X89980683Y-68805256D01*
X89891021Y-68998416D01*
X89887458Y-69008103D01*
X89832072Y-69207816D01*
X89317690Y-69207816D01*
X89317690Y-64360328D01*
X89804934Y-64360328D01*
X89805231Y-64365481D01*
X89805231Y-64365484D01*
X89810694Y-64460223D01*
X89817793Y-64583348D01*
X89818930Y-64588394D01*
X89818931Y-64588400D01*
X89832280Y-64647633D01*
X89866905Y-64801272D01*
X89950949Y-65008249D01*
X90067670Y-65198721D01*
X90213933Y-65367571D01*
X90385809Y-65510265D01*
X90458661Y-65552836D01*
X90459638Y-65553407D01*
X90508362Y-65605045D01*
X90521433Y-65674828D01*
X90494702Y-65740600D01*
X90454245Y-65773960D01*
X90446140Y-65778179D01*
X90437421Y-65783669D01*
X90267116Y-65911538D01*
X90259409Y-65918381D01*
X90112273Y-66072350D01*
X90105787Y-66080360D01*
X89985781Y-66256282D01*
X89980683Y-66265256D01*
X89891021Y-66458416D01*
X89887458Y-66468103D01*
X89832072Y-66667816D01*
X89833595Y-66676240D01*
X89845975Y-66679633D01*
X92486027Y-66679633D01*
X92499558Y-66675660D01*
X92500863Y-66666580D01*
X92458897Y-66499508D01*
X92455577Y-66489757D01*
X92370655Y-66294447D01*
X92365788Y-66285372D01*
X92250109Y-66106559D01*
X92243819Y-66098390D01*
X92100489Y-65940873D01*
X92092956Y-65933848D01*
X91925822Y-65801855D01*
X91917239Y-65796153D01*
X91880285Y-65775753D01*
X91830314Y-65725320D01*
X91815542Y-65655878D01*
X91840658Y-65589472D01*
X91868010Y-65562865D01*
X91891480Y-65546124D01*
X92047543Y-65434806D01*
X92205779Y-65277122D01*
X92265277Y-65194322D01*
X92333118Y-65099910D01*
X92336136Y-65095710D01*
X92435113Y-64895444D01*
X92500053Y-64681702D01*
X92529212Y-64460223D01*
X92530839Y-64393633D01*
X92528101Y-64360328D01*
X108166950Y-64360328D01*
X108167247Y-64365481D01*
X108167247Y-64365484D01*
X108172710Y-64460223D01*
X108179809Y-64583348D01*
X108180946Y-64588394D01*
X108180947Y-64588400D01*
X108194296Y-64647633D01*
X108228921Y-64801272D01*
X108312965Y-65008249D01*
X108429686Y-65198721D01*
X108575949Y-65367571D01*
X108747825Y-65510265D01*
X108820677Y-65552836D01*
X108821654Y-65553407D01*
X108870378Y-65605045D01*
X108883449Y-65674828D01*
X108856718Y-65740600D01*
X108816261Y-65773960D01*
X108808156Y-65778179D01*
X108799437Y-65783669D01*
X108629132Y-65911538D01*
X108621425Y-65918381D01*
X108474289Y-66072350D01*
X108467803Y-66080360D01*
X108347797Y-66256282D01*
X108342699Y-66265256D01*
X108253037Y-66458416D01*
X108249474Y-66468103D01*
X108194088Y-66667816D01*
X108195611Y-66676240D01*
X108207991Y-66679633D01*
X110848043Y-66679633D01*
X110861574Y-66675660D01*
X110862879Y-66666580D01*
X110820913Y-66499508D01*
X110817593Y-66489757D01*
X110732671Y-66294447D01*
X110727804Y-66285372D01*
X110612125Y-66106559D01*
X110605835Y-66098390D01*
X110462505Y-65940873D01*
X110454972Y-65933848D01*
X110287838Y-65801855D01*
X110279255Y-65796153D01*
X110242301Y-65775753D01*
X110192330Y-65725320D01*
X110177558Y-65655878D01*
X110202674Y-65589472D01*
X110230026Y-65562865D01*
X110253496Y-65546124D01*
X110409559Y-65434806D01*
X110567795Y-65277122D01*
X110627293Y-65194322D01*
X110695134Y-65099910D01*
X110698152Y-65095710D01*
X110797129Y-64895444D01*
X110862069Y-64681702D01*
X110891228Y-64460223D01*
X110892855Y-64393633D01*
X110874551Y-64170994D01*
X110820130Y-63954335D01*
X110731053Y-63749473D01*
X110609713Y-63561910D01*
X110459369Y-63396684D01*
X110455318Y-63393485D01*
X110455314Y-63393481D01*
X110288113Y-63261433D01*
X110288109Y-63261431D01*
X110284058Y-63258231D01*
X110242268Y-63235162D01*
X110192297Y-63184730D01*
X110177525Y-63115287D01*
X110202641Y-63048881D01*
X110229993Y-63022274D01*
X110405027Y-62897425D01*
X110412899Y-62890772D01*
X110563751Y-62740445D01*
X110570429Y-62732598D01*
X110694702Y-62559653D01*
X110700012Y-62550816D01*
X110794369Y-62359900D01*
X110798168Y-62350305D01*
X110860076Y-62146543D01*
X110862254Y-62136470D01*
X110863685Y-62125595D01*
X110861474Y-62111411D01*
X110848316Y-62107633D01*
X108212924Y-62107633D01*
X108199393Y-62111606D01*
X108197956Y-62121599D01*
X108228264Y-62256079D01*
X108231344Y-62265908D01*
X108311469Y-62463236D01*
X108316112Y-62472427D01*
X108427393Y-62654021D01*
X108433476Y-62662332D01*
X108572912Y-62823300D01*
X108580279Y-62830516D01*
X108744133Y-62966549D01*
X108752580Y-62972464D01*
X108821668Y-63012836D01*
X108870392Y-63064475D01*
X108883463Y-63134258D01*
X108856732Y-63200029D01*
X108816283Y-63233385D01*
X108803306Y-63240140D01*
X108799173Y-63243243D01*
X108799170Y-63243245D01*
X108774946Y-63261433D01*
X108624664Y-63374268D01*
X108470328Y-63535771D01*
X108467414Y-63540043D01*
X108467413Y-63540044D01*
X108455103Y-63558090D01*
X108344442Y-63720313D01*
X108250387Y-63922938D01*
X108190688Y-64138203D01*
X108166950Y-64360328D01*
X92528101Y-64360328D01*
X92512535Y-64170994D01*
X92458114Y-63954335D01*
X92369037Y-63749473D01*
X92247697Y-63561910D01*
X92097353Y-63396684D01*
X92093302Y-63393485D01*
X92093298Y-63393481D01*
X91926097Y-63261433D01*
X91926093Y-63261431D01*
X91922042Y-63258231D01*
X91880736Y-63235429D01*
X91830767Y-63184997D01*
X91815995Y-63115554D01*
X91841111Y-63049149D01*
X91868463Y-63022542D01*
X91912286Y-62991283D01*
X92047543Y-62894806D01*
X92205779Y-62737122D01*
X92265277Y-62654322D01*
X92333118Y-62559910D01*
X92336136Y-62555710D01*
X92435113Y-62355444D01*
X92500053Y-62141702D01*
X92529212Y-61920223D01*
X92530839Y-61853633D01*
X92528101Y-61820328D01*
X98985942Y-61820328D01*
X98986239Y-61825481D01*
X98986239Y-61825484D01*
X98991702Y-61920223D01*
X98998801Y-62043348D01*
X98999938Y-62048394D01*
X98999939Y-62048400D01*
X99013288Y-62107633D01*
X99047913Y-62261272D01*
X99131957Y-62468249D01*
X99248678Y-62658721D01*
X99394941Y-62827571D01*
X99566817Y-62970265D01*
X99639669Y-63012836D01*
X99640646Y-63013407D01*
X99689370Y-63065045D01*
X99702441Y-63134828D01*
X99675710Y-63200600D01*
X99635253Y-63233960D01*
X99627148Y-63238179D01*
X99618429Y-63243669D01*
X99448124Y-63371538D01*
X99440417Y-63378381D01*
X99293281Y-63532350D01*
X99286795Y-63540360D01*
X99166789Y-63716282D01*
X99161691Y-63725256D01*
X99072029Y-63918416D01*
X99068466Y-63928103D01*
X99013080Y-64127816D01*
X99014603Y-64136240D01*
X99026983Y-64139633D01*
X101667035Y-64139633D01*
X101680566Y-64135660D01*
X101681871Y-64126580D01*
X101639905Y-63959508D01*
X101636585Y-63949757D01*
X101551663Y-63754447D01*
X101546796Y-63745372D01*
X101431117Y-63566559D01*
X101424827Y-63558390D01*
X101281497Y-63400873D01*
X101273964Y-63393848D01*
X101106830Y-63261855D01*
X101098247Y-63256153D01*
X101061293Y-63235753D01*
X101011322Y-63185320D01*
X100996550Y-63115878D01*
X101021666Y-63049472D01*
X101049018Y-63022865D01*
X101072488Y-63006124D01*
X101228551Y-62894806D01*
X101386787Y-62737122D01*
X101446285Y-62654322D01*
X101514126Y-62559910D01*
X101517144Y-62555710D01*
X101616121Y-62355444D01*
X101681061Y-62141702D01*
X101710220Y-61920223D01*
X101711847Y-61853633D01*
X101693543Y-61630994D01*
X101639122Y-61414335D01*
X101550045Y-61209473D01*
X101428705Y-61021910D01*
X101409096Y-61000360D01*
X101281489Y-60860121D01*
X101250437Y-60796275D01*
X101258832Y-60725776D01*
X101304008Y-60671008D01*
X101330452Y-60657339D01*
X101436988Y-60617400D01*
X101445396Y-60614248D01*
X101561952Y-60526894D01*
X101649306Y-60410338D01*
X101700436Y-60273949D01*
X101707191Y-60211767D01*
X101707191Y-59280328D01*
X108166950Y-59280328D01*
X108167247Y-59285481D01*
X108167247Y-59285484D01*
X108172710Y-59380223D01*
X108179809Y-59503348D01*
X108180946Y-59508394D01*
X108180947Y-59508400D01*
X108195621Y-59573512D01*
X108228921Y-59721272D01*
X108312965Y-59928249D01*
X108325452Y-59948626D01*
X108415994Y-60096377D01*
X108429686Y-60118721D01*
X108575949Y-60287571D01*
X108747825Y-60430265D01*
X108821654Y-60473407D01*
X108870378Y-60525045D01*
X108883449Y-60594828D01*
X108856718Y-60660600D01*
X108816261Y-60693960D01*
X108808156Y-60698179D01*
X108799437Y-60703669D01*
X108629132Y-60831538D01*
X108621425Y-60838381D01*
X108474289Y-60992350D01*
X108467803Y-61000360D01*
X108347797Y-61176282D01*
X108342699Y-61185256D01*
X108253037Y-61378416D01*
X108249474Y-61388103D01*
X108194088Y-61587816D01*
X108195611Y-61596240D01*
X108207991Y-61599633D01*
X110848043Y-61599633D01*
X110861574Y-61595660D01*
X110862879Y-61586580D01*
X110820913Y-61419508D01*
X110817593Y-61409757D01*
X110732671Y-61214447D01*
X110727804Y-61205372D01*
X110612125Y-61026559D01*
X110605835Y-61018390D01*
X110462505Y-60860873D01*
X110454972Y-60853848D01*
X110287838Y-60721855D01*
X110279255Y-60716153D01*
X110242301Y-60695753D01*
X110192330Y-60645320D01*
X110177558Y-60575878D01*
X110202674Y-60509472D01*
X110230026Y-60482865D01*
X110253496Y-60466124D01*
X110409559Y-60354806D01*
X110567795Y-60197122D01*
X110583865Y-60174759D01*
X110695134Y-60019910D01*
X110698152Y-60015710D01*
X110716282Y-59979028D01*
X110794835Y-59820086D01*
X110794836Y-59820084D01*
X110797129Y-59815444D01*
X110862069Y-59601702D01*
X110891228Y-59380223D01*
X110892855Y-59313633D01*
X110874551Y-59090994D01*
X110820130Y-58874335D01*
X110731053Y-58669473D01*
X110671521Y-58577450D01*
X110612521Y-58486250D01*
X110612519Y-58486247D01*
X110609713Y-58481910D01*
X110459369Y-58316684D01*
X110455318Y-58313485D01*
X110455314Y-58313481D01*
X110288113Y-58181433D01*
X110288109Y-58181431D01*
X110284058Y-58178231D01*
X110088488Y-58070271D01*
X110083619Y-58068547D01*
X110083615Y-58068545D01*
X109882786Y-57997428D01*
X109882782Y-57997427D01*
X109877911Y-57995702D01*
X109872818Y-57994795D01*
X109872815Y-57994794D01*
X109663072Y-57957433D01*
X109663066Y-57957432D01*
X109657983Y-57956527D01*
X109584151Y-57955625D01*
X109439780Y-57953861D01*
X109439778Y-57953861D01*
X109434610Y-57953798D01*
X109213790Y-57987588D01*
X109001455Y-58056990D01*
X108803306Y-58160140D01*
X108799173Y-58163243D01*
X108799170Y-58163245D01*
X108628799Y-58291163D01*
X108624664Y-58294268D01*
X108470328Y-58455771D01*
X108344442Y-58640313D01*
X108328702Y-58674223D01*
X108285326Y-58767669D01*
X108250387Y-58842938D01*
X108190688Y-59058203D01*
X108166950Y-59280328D01*
X101707191Y-59280328D01*
X101707191Y-58415499D01*
X101700436Y-58353317D01*
X101649306Y-58216928D01*
X101561952Y-58100372D01*
X101445396Y-58013018D01*
X101309007Y-57961888D01*
X101246825Y-57955133D01*
X99450557Y-57955133D01*
X99388375Y-57961888D01*
X99251986Y-58013018D01*
X99135430Y-58100372D01*
X99048076Y-58216928D01*
X98996946Y-58353317D01*
X98990191Y-58415499D01*
X98990191Y-60211767D01*
X98996946Y-60273949D01*
X99048076Y-60410338D01*
X99135430Y-60526894D01*
X99251986Y-60614248D01*
X99260395Y-60617400D01*
X99260396Y-60617401D01*
X99369142Y-60658168D01*
X99425907Y-60700809D01*
X99450607Y-60767371D01*
X99435400Y-60836720D01*
X99416007Y-60863201D01*
X99289320Y-60995771D01*
X99286406Y-61000043D01*
X99286405Y-61000044D01*
X99274100Y-61018083D01*
X99163434Y-61180313D01*
X99069379Y-61382938D01*
X99009680Y-61598203D01*
X98985942Y-61820328D01*
X92528101Y-61820328D01*
X92512535Y-61630994D01*
X92458114Y-61414335D01*
X92369037Y-61209473D01*
X92247697Y-61021910D01*
X92228088Y-61000360D01*
X92100481Y-60860121D01*
X92069429Y-60796275D01*
X92077824Y-60725776D01*
X92123000Y-60671008D01*
X92149444Y-60657339D01*
X92255980Y-60617400D01*
X92264388Y-60614248D01*
X92380944Y-60526894D01*
X92468298Y-60410338D01*
X92519428Y-60273949D01*
X92526183Y-60211767D01*
X92526183Y-59979028D01*
X92546185Y-59910907D01*
X92599841Y-59864414D01*
X92670115Y-59854310D01*
X92734695Y-59883804D01*
X92755080Y-59906308D01*
X92784988Y-59948626D01*
X92847180Y-60036626D01*
X92993111Y-60178786D01*
X92997907Y-60181991D01*
X92997910Y-60181993D01*
X93042470Y-60211767D01*
X93162504Y-60291971D01*
X93167807Y-60294249D01*
X93167810Y-60294251D01*
X93344381Y-60370112D01*
X93349688Y-60372392D01*
X93422518Y-60388872D01*
X93542756Y-60416079D01*
X93542761Y-60416080D01*
X93548393Y-60417354D01*
X93554164Y-60417581D01*
X93554166Y-60417581D01*
X93617171Y-60420056D01*
X93751964Y-60425352D01*
X93953584Y-60396119D01*
X93959048Y-60394264D01*
X93959053Y-60394263D01*
X94141028Y-60332491D01*
X94141033Y-60332489D01*
X94146500Y-60330633D01*
X94324252Y-60231087D01*
X94480887Y-60100815D01*
X94611159Y-59944180D01*
X94710705Y-59766428D01*
X94712561Y-59760961D01*
X94712563Y-59760956D01*
X94774335Y-59578981D01*
X94774336Y-59578976D01*
X94776191Y-59573512D01*
X94805424Y-59371892D01*
X94806950Y-59313629D01*
X94788309Y-59110755D01*
X94773488Y-59058203D01*
X94734576Y-58920235D01*
X94734575Y-58920233D01*
X94733008Y-58914676D01*
X94719660Y-58887607D01*
X94645457Y-58737139D01*
X94642902Y-58731958D01*
X94558725Y-58619232D01*
X94533993Y-58552683D01*
X94533683Y-58543843D01*
X94533683Y-57513749D01*
X94553685Y-57445628D01*
X94570588Y-57424654D01*
X94646417Y-57348825D01*
X94708729Y-57314799D01*
X94763319Y-57315027D01*
X94912688Y-57348825D01*
X94958398Y-57359168D01*
X94964169Y-57359395D01*
X94964171Y-57359395D01*
X95027176Y-57361870D01*
X95161969Y-57367166D01*
X95363589Y-57337933D01*
X95369053Y-57336078D01*
X95369058Y-57336077D01*
X95551033Y-57274305D01*
X95551038Y-57274303D01*
X95556505Y-57272447D01*
X95575801Y-57261641D01*
X95615647Y-57239326D01*
X95734257Y-57172901D01*
X95890892Y-57042629D01*
X96021164Y-56885994D01*
X96106441Y-56733721D01*
X96117886Y-56713285D01*
X96117887Y-56713283D01*
X96120710Y-56708242D01*
X96122566Y-56702775D01*
X96122568Y-56702770D01*
X96184340Y-56520795D01*
X96184341Y-56520790D01*
X96186196Y-56515326D01*
X96215429Y-56313706D01*
X96216955Y-56255443D01*
X96198314Y-56052569D01*
X96147654Y-55872944D01*
X96147769Y-55862178D01*
X96137832Y-55845984D01*
X96055462Y-55678953D01*
X96052907Y-55673772D01*
X96000568Y-55603681D01*
X95934464Y-55515158D01*
X95934464Y-55515157D01*
X95931011Y-55510534D01*
X95809462Y-55398175D01*
X95785649Y-55376162D01*
X95785646Y-55376160D01*
X95781409Y-55372243D01*
X95735381Y-55343202D01*
X95613994Y-55266612D01*
X95613989Y-55266610D01*
X95609110Y-55263531D01*
X95419886Y-55188038D01*
X95220072Y-55148292D01*
X95214298Y-55148216D01*
X95214294Y-55148216D01*
X95111158Y-55146867D01*
X95016361Y-55145626D01*
X95010664Y-55146605D01*
X95010663Y-55146605D01*
X94821273Y-55179148D01*
X94815576Y-55180127D01*
X94624440Y-55250641D01*
X94619479Y-55253593D01*
X94619478Y-55253593D01*
X94454323Y-55351850D01*
X94454320Y-55351852D01*
X94449355Y-55354806D01*
X94445011Y-55358616D01*
X94445005Y-55358620D01*
X94399901Y-55398175D01*
X94335497Y-55428052D01*
X94316824Y-55429443D01*
X93622042Y-55429443D01*
X93601465Y-55427751D01*
X93598371Y-55427239D01*
X93596825Y-55426983D01*
X93596824Y-55426983D01*
X93590089Y-55425868D01*
X93583272Y-55426225D01*
X93583268Y-55426225D01*
X93525171Y-55429270D01*
X93518577Y-55429443D01*
X92931148Y-55429443D01*
X92930932Y-55429440D01*
X92930825Y-55429434D01*
X92857411Y-55429434D01*
X92853893Y-55429385D01*
X92852983Y-55429360D01*
X92777065Y-55427239D01*
X92770358Y-55428518D01*
X92764023Y-55429028D01*
X92753916Y-55429434D01*
X92370385Y-55429434D01*
X92302264Y-55409432D01*
X92281290Y-55392529D01*
X92138006Y-55249245D01*
X92133498Y-55246088D01*
X92133495Y-55246086D01*
X91995440Y-55149419D01*
X91950455Y-55117920D01*
X91945471Y-55115596D01*
X91943178Y-55114272D01*
X91894185Y-55062890D01*
X91880749Y-54993176D01*
X91907135Y-54927265D01*
X91943178Y-54896034D01*
X91954708Y-54889377D01*
X92006754Y-54852934D01*
X92015130Y-54842455D01*
X92008062Y-54829009D01*
X91306518Y-54127465D01*
X91292574Y-54119851D01*
X91290741Y-54119982D01*
X91284126Y-54124233D01*
X90578629Y-54829730D01*
X90572199Y-54841505D01*
X90581495Y-54853520D01*
X90632704Y-54889377D01*
X90644234Y-54896034D01*
X90693227Y-54947416D01*
X90706664Y-55017130D01*
X90680277Y-55083041D01*
X90644234Y-55114272D01*
X90641941Y-55115596D01*
X90636957Y-55117920D01*
X90591972Y-55149419D01*
X90453917Y-55246086D01*
X90453914Y-55246088D01*
X90449406Y-55249245D01*
X90287508Y-55411143D01*
X90284351Y-55415651D01*
X90284349Y-55415654D01*
X90229608Y-55493832D01*
X90156183Y-55598694D01*
X90153860Y-55603676D01*
X90153857Y-55603681D01*
X90064780Y-55794710D01*
X90059422Y-55806200D01*
X90058000Y-55811508D01*
X90057999Y-55811510D01*
X90043585Y-55865303D01*
X90000163Y-56027356D01*
X89980208Y-56255443D01*
X90000163Y-56483530D01*
X90001587Y-56488843D01*
X90001587Y-56488845D01*
X90007017Y-56509108D01*
X90059422Y-56704686D01*
X90061745Y-56709667D01*
X90061745Y-56709668D01*
X90153857Y-56907205D01*
X90153860Y-56907210D01*
X90156183Y-56912192D01*
X90287508Y-57099743D01*
X90449406Y-57261641D01*
X90453914Y-57264798D01*
X90453917Y-57264800D01*
X90467492Y-57274305D01*
X90636957Y-57392966D01*
X90641939Y-57395289D01*
X90641944Y-57395292D01*
X90838540Y-57486965D01*
X90844463Y-57489727D01*
X90849771Y-57491149D01*
X90849773Y-57491150D01*
X91060304Y-57547562D01*
X91060306Y-57547562D01*
X91065619Y-57548986D01*
X91293706Y-57568941D01*
X91521793Y-57548986D01*
X91527106Y-57547562D01*
X91527108Y-57547562D01*
X91737639Y-57491150D01*
X91737641Y-57491149D01*
X91742949Y-57489727D01*
X91748872Y-57486965D01*
X91945468Y-57395292D01*
X91945473Y-57395289D01*
X91950455Y-57392966D01*
X92119920Y-57274305D01*
X92133495Y-57264800D01*
X92133498Y-57264798D01*
X92138006Y-57261641D01*
X92281299Y-57118348D01*
X92343611Y-57084322D01*
X92370394Y-57081443D01*
X92449378Y-57081443D01*
X92517499Y-57101445D01*
X92538473Y-57118348D01*
X92844778Y-57424653D01*
X92878804Y-57486965D01*
X92881683Y-57513748D01*
X92881683Y-58509329D01*
X92861681Y-58577450D01*
X92854633Y-58587335D01*
X92783190Y-58677960D01*
X92760052Y-58707310D01*
X92757685Y-58711809D01*
X92703979Y-58757900D01*
X92633658Y-58767669D01*
X92569218Y-58737868D01*
X92531119Y-58677960D01*
X92526183Y-58643038D01*
X92526183Y-58415499D01*
X92519428Y-58353317D01*
X92468298Y-58216928D01*
X92380944Y-58100372D01*
X92264388Y-58013018D01*
X92127999Y-57961888D01*
X92065817Y-57955133D01*
X90269549Y-57955133D01*
X90207367Y-57961888D01*
X90070978Y-58013018D01*
X89954422Y-58100372D01*
X89867068Y-58216928D01*
X89815938Y-58353317D01*
X89809183Y-58415499D01*
X89809183Y-60211767D01*
X89815938Y-60273949D01*
X89867068Y-60410338D01*
X89954422Y-60526894D01*
X90070978Y-60614248D01*
X90079387Y-60617400D01*
X90079388Y-60617401D01*
X90188134Y-60658168D01*
X90244899Y-60700809D01*
X90269599Y-60767371D01*
X90254392Y-60836720D01*
X90234999Y-60863201D01*
X90108312Y-60995771D01*
X90105398Y-61000043D01*
X90105397Y-61000044D01*
X90093092Y-61018083D01*
X89982426Y-61180313D01*
X89888371Y-61382938D01*
X89828672Y-61598203D01*
X89804934Y-61820328D01*
X89805231Y-61825481D01*
X89805231Y-61825484D01*
X89810694Y-61920223D01*
X89817793Y-62043348D01*
X89818930Y-62048394D01*
X89818931Y-62048400D01*
X89832280Y-62107633D01*
X89866905Y-62261272D01*
X89950949Y-62468249D01*
X90067670Y-62658721D01*
X90213933Y-62827571D01*
X90385809Y-62970265D01*
X90456278Y-63011444D01*
X90459128Y-63013109D01*
X90507852Y-63064747D01*
X90520923Y-63134530D01*
X90494192Y-63200302D01*
X90453738Y-63233660D01*
X90441290Y-63240140D01*
X90437157Y-63243243D01*
X90437154Y-63243245D01*
X90412930Y-63261433D01*
X90262648Y-63374268D01*
X90108312Y-63535771D01*
X90105398Y-63540043D01*
X90105397Y-63540044D01*
X90093087Y-63558090D01*
X89982426Y-63720313D01*
X89888371Y-63922938D01*
X89828672Y-64138203D01*
X89804934Y-64360328D01*
X89317690Y-64360328D01*
X89317690Y-53760918D01*
X89981189Y-53760918D01*
X90000178Y-53977962D01*
X90002081Y-53988755D01*
X90058470Y-54199204D01*
X90062216Y-54209496D01*
X90154292Y-54406954D01*
X90159775Y-54416449D01*
X90196215Y-54468491D01*
X90206694Y-54476867D01*
X90220140Y-54469799D01*
X90921684Y-53768255D01*
X90928062Y-53756575D01*
X91658114Y-53756575D01*
X91658245Y-53758408D01*
X91662496Y-53765023D01*
X92367993Y-54470520D01*
X92379768Y-54476950D01*
X92391783Y-54467654D01*
X92427637Y-54416449D01*
X92433120Y-54406954D01*
X92525196Y-54209496D01*
X92528942Y-54199204D01*
X92585331Y-53988755D01*
X92587234Y-53977962D01*
X92606223Y-53760918D01*
X92606223Y-53749968D01*
X92587234Y-53532924D01*
X92585331Y-53522131D01*
X92528942Y-53311682D01*
X92525196Y-53301390D01*
X92433120Y-53103932D01*
X92427637Y-53094437D01*
X92391197Y-53042395D01*
X92380718Y-53034019D01*
X92367272Y-53041087D01*
X91665728Y-53742631D01*
X91658114Y-53756575D01*
X90928062Y-53756575D01*
X90929298Y-53754311D01*
X90929167Y-53752478D01*
X90924916Y-53745863D01*
X90219419Y-53040366D01*
X90207644Y-53033936D01*
X90195629Y-53043232D01*
X90159775Y-53094437D01*
X90154292Y-53103932D01*
X90062216Y-53301390D01*
X90058470Y-53311682D01*
X90002081Y-53522131D01*
X90000178Y-53532924D01*
X89981189Y-53749968D01*
X89981189Y-53760918D01*
X89317690Y-53760918D01*
X89317690Y-52668431D01*
X90572282Y-52668431D01*
X90579350Y-52681877D01*
X91280894Y-53383421D01*
X91294838Y-53391035D01*
X91296671Y-53390904D01*
X91303286Y-53386653D01*
X92008783Y-52681156D01*
X92015213Y-52669381D01*
X92005917Y-52657366D01*
X91954712Y-52621512D01*
X91945217Y-52616029D01*
X91747759Y-52523953D01*
X91737467Y-52520207D01*
X91527018Y-52463818D01*
X91516225Y-52461915D01*
X91299181Y-52442926D01*
X91288231Y-52442926D01*
X91071187Y-52461915D01*
X91060394Y-52463818D01*
X90849945Y-52520207D01*
X90839653Y-52523953D01*
X90642195Y-52616029D01*
X90632700Y-52621512D01*
X90580658Y-52657952D01*
X90572282Y-52668431D01*
X89317690Y-52668431D01*
X89317690Y-51650835D01*
X90745232Y-51650835D01*
X90753368Y-51661840D01*
X91013629Y-51861544D01*
X91019228Y-51865378D01*
X91314952Y-52045181D01*
X91320942Y-52048393D01*
X91634348Y-52195203D01*
X91640652Y-52197750D01*
X91968074Y-52309851D01*
X91974625Y-52311705D01*
X92312230Y-52387787D01*
X92318949Y-52388924D01*
X92662803Y-52428102D01*
X92669593Y-52428505D01*
X93015663Y-52430317D01*
X93022464Y-52429985D01*
X93366710Y-52394411D01*
X93373438Y-52393345D01*
X93711834Y-52320798D01*
X93718383Y-52319019D01*
X94046968Y-52210350D01*
X94053310Y-52207864D01*
X94368213Y-52064355D01*
X94374267Y-52061190D01*
X94671817Y-51884518D01*
X94677498Y-51880715D01*
X94954236Y-51672935D01*
X94959460Y-51668551D01*
X94965927Y-51662499D01*
X94973996Y-51648819D01*
X94973969Y-51648095D01*
X94968825Y-51639792D01*
X92872500Y-49543466D01*
X92858559Y-49535854D01*
X92856724Y-49535985D01*
X92850110Y-49540236D01*
X90752113Y-51638234D01*
X90745232Y-51650835D01*
X89317690Y-51650835D01*
X89317690Y-49163453D01*
X89597098Y-49163453D01*
X89614608Y-49509105D01*
X89615318Y-49515861D01*
X89670054Y-49857587D01*
X89671493Y-49864242D01*
X89762813Y-50198050D01*
X89764962Y-50204511D01*
X89891801Y-50526512D01*
X89894632Y-50532695D01*
X90055502Y-50839109D01*
X90058996Y-50844970D01*
X90252008Y-51132200D01*
X90256118Y-51137654D01*
X90371601Y-51274795D01*
X90384340Y-51283239D01*
X90394783Y-51277142D01*
X92487670Y-49184256D01*
X92494047Y-49172577D01*
X93224098Y-49172577D01*
X93224229Y-49174412D01*
X93228480Y-49181026D01*
X95323243Y-51275788D01*
X95336839Y-51283213D01*
X95346452Y-51276512D01*
X95442534Y-51164806D01*
X95446692Y-51159406D01*
X95642712Y-50874197D01*
X95646259Y-50868386D01*
X95810323Y-50563684D01*
X95813230Y-50557506D01*
X95943433Y-50236857D01*
X95945647Y-50230427D01*
X96033359Y-49922511D01*
X96071258Y-49862476D01*
X96135598Y-49832462D01*
X96205951Y-49841997D01*
X96259981Y-49888054D01*
X96280538Y-49957030D01*
X96280538Y-55184049D01*
X96278792Y-55204954D01*
X96275467Y-55224717D01*
X96275314Y-55237256D01*
X96277424Y-55251990D01*
X96278373Y-55260837D01*
X96292074Y-55452416D01*
X96337926Y-55663195D01*
X96339493Y-55667397D01*
X96339495Y-55667403D01*
X96368894Y-55746223D01*
X96370388Y-55767106D01*
X96375644Y-55771760D01*
X96386979Y-55794710D01*
X96413309Y-55865303D01*
X96516687Y-56054626D01*
X96645956Y-56227310D01*
X96798485Y-56379839D01*
X96971169Y-56509108D01*
X97160492Y-56612486D01*
X97164704Y-56614057D01*
X97358392Y-56686300D01*
X97358398Y-56686302D01*
X97362600Y-56687869D01*
X97366986Y-56688823D01*
X97366989Y-56688824D01*
X97479436Y-56713285D01*
X97573379Y-56733721D01*
X97577867Y-56734042D01*
X97748135Y-56746220D01*
X97760044Y-56747644D01*
X97776000Y-56750328D01*
X97782355Y-56750406D01*
X97783680Y-56750422D01*
X97783684Y-56750422D01*
X97788539Y-56750481D01*
X97816127Y-56746530D01*
X97833990Y-56745257D01*
X102855636Y-56745257D01*
X102876541Y-56747003D01*
X102891511Y-56749522D01*
X102891516Y-56749522D01*
X102896304Y-56750328D01*
X102902634Y-56750405D01*
X102903985Y-56750422D01*
X102903989Y-56750422D01*
X102908843Y-56750481D01*
X102923577Y-56748371D01*
X102932424Y-56747422D01*
X103080620Y-56736824D01*
X103119516Y-56734042D01*
X103119517Y-56734042D01*
X103124003Y-56733721D01*
X103281885Y-56699376D01*
X103330393Y-56688824D01*
X103330396Y-56688823D01*
X103334782Y-56687869D01*
X103338984Y-56686302D01*
X103338990Y-56686300D01*
X103532678Y-56614057D01*
X103536890Y-56612486D01*
X103726213Y-56509108D01*
X103898897Y-56379839D01*
X104051426Y-56227310D01*
X104180695Y-56054626D01*
X104284073Y-55865303D01*
X104304137Y-55811510D01*
X104357887Y-55667403D01*
X104357889Y-55667397D01*
X104359456Y-55663195D01*
X104372403Y-55603681D01*
X104404352Y-55456810D01*
X104405308Y-55452416D01*
X104411042Y-55372243D01*
X104417807Y-55277660D01*
X104419231Y-55265749D01*
X104419964Y-55261391D01*
X104421915Y-55249795D01*
X104422068Y-55237256D01*
X104418117Y-55209668D01*
X104416844Y-55191805D01*
X104416844Y-51650835D01*
X105723230Y-51650835D01*
X105731366Y-51661840D01*
X105991627Y-51861544D01*
X105997226Y-51865378D01*
X106292950Y-52045181D01*
X106298940Y-52048393D01*
X106612346Y-52195203D01*
X106618650Y-52197750D01*
X106946072Y-52309851D01*
X106952623Y-52311705D01*
X107290228Y-52387787D01*
X107296947Y-52388924D01*
X107640801Y-52428102D01*
X107647591Y-52428505D01*
X107993661Y-52430317D01*
X108000462Y-52429985D01*
X108344708Y-52394411D01*
X108351436Y-52393345D01*
X108689832Y-52320798D01*
X108696381Y-52319019D01*
X109024966Y-52210350D01*
X109031308Y-52207864D01*
X109346211Y-52064355D01*
X109352265Y-52061190D01*
X109649815Y-51884518D01*
X109655496Y-51880715D01*
X109932234Y-51672935D01*
X109937458Y-51668551D01*
X109943925Y-51662499D01*
X109951994Y-51648819D01*
X109951967Y-51648095D01*
X109946823Y-51639792D01*
X107850498Y-49543466D01*
X107836557Y-49535854D01*
X107834722Y-49535985D01*
X107828108Y-49540236D01*
X105730111Y-51638234D01*
X105723230Y-51650835D01*
X104416844Y-51650835D01*
X104416844Y-49951908D01*
X104436846Y-49883787D01*
X104490502Y-49837294D01*
X104560776Y-49827190D01*
X104625356Y-49856684D01*
X104664378Y-49918660D01*
X104740811Y-50198050D01*
X104742960Y-50204511D01*
X104869799Y-50526512D01*
X104872630Y-50532695D01*
X105033500Y-50839109D01*
X105036994Y-50844970D01*
X105230006Y-51132200D01*
X105234116Y-51137654D01*
X105349599Y-51274795D01*
X105362338Y-51283239D01*
X105372781Y-51277142D01*
X107465668Y-49184256D01*
X107472045Y-49172577D01*
X108202096Y-49172577D01*
X108202227Y-49174412D01*
X108206478Y-49181026D01*
X110301241Y-51275788D01*
X110314837Y-51283213D01*
X110324450Y-51276512D01*
X110420532Y-51164806D01*
X110424690Y-51159406D01*
X110620710Y-50874197D01*
X110624257Y-50868386D01*
X110788321Y-50563684D01*
X110791228Y-50557506D01*
X110921431Y-50236857D01*
X110923645Y-50230427D01*
X111018456Y-49897589D01*
X111019963Y-49890959D01*
X111078277Y-49549808D01*
X111079057Y-49543068D01*
X111100282Y-49196022D01*
X111100398Y-49192419D01*
X111100466Y-49173265D01*
X111100374Y-49169640D01*
X111081572Y-48822469D01*
X111080837Y-48815703D01*
X111024911Y-48474184D01*
X111023444Y-48467512D01*
X110930965Y-48134044D01*
X110928791Y-48127581D01*
X110800829Y-47806028D01*
X110797973Y-47799848D01*
X110636035Y-47494000D01*
X110632535Y-47488175D01*
X110438499Y-47201585D01*
X110434392Y-47196175D01*
X110325777Y-47068101D01*
X110312952Y-47059665D01*
X110302628Y-47065717D01*
X108209708Y-49158636D01*
X108202096Y-49172577D01*
X107472045Y-49172577D01*
X107473280Y-49170315D01*
X107473149Y-49168480D01*
X107468898Y-49161866D01*
X105374146Y-47067115D01*
X105360609Y-47059723D01*
X105350907Y-47066511D01*
X105247896Y-47187122D01*
X105243763Y-47192527D01*
X105048739Y-47478422D01*
X105045218Y-47484235D01*
X104882210Y-47789520D01*
X104879324Y-47795710D01*
X104750246Y-48116803D01*
X104748055Y-48123238D01*
X104664143Y-48421764D01*
X104626454Y-48481931D01*
X104562219Y-48512169D01*
X104491833Y-48502880D01*
X104437642Y-48457012D01*
X104416844Y-48387668D01*
X104416844Y-47648727D01*
X104418590Y-47627822D01*
X104421109Y-47612852D01*
X104421109Y-47612847D01*
X104421915Y-47608059D01*
X104422068Y-47595520D01*
X104419958Y-47580786D01*
X104419008Y-47571928D01*
X104413019Y-47488175D01*
X104405308Y-47380360D01*
X104359456Y-47169581D01*
X104357889Y-47165379D01*
X104357887Y-47165373D01*
X104285644Y-46971685D01*
X104284073Y-46967473D01*
X104278266Y-46956837D01*
X104182854Y-46782104D01*
X104180695Y-46778150D01*
X104117463Y-46693681D01*
X105723011Y-46693681D01*
X105723045Y-46694520D01*
X105728100Y-46702647D01*
X107824878Y-48799426D01*
X107838819Y-48807038D01*
X107840654Y-48806907D01*
X107847268Y-48802656D01*
X109945118Y-46704805D01*
X109952732Y-46690861D01*
X109952664Y-46689907D01*
X109948710Y-46683928D01*
X109674352Y-46474923D01*
X109668728Y-46471101D01*
X109372387Y-46292337D01*
X109366380Y-46289144D01*
X109052477Y-46143434D01*
X109046154Y-46140905D01*
X108718342Y-46029947D01*
X108711784Y-46028117D01*
X108373920Y-45953213D01*
X108367191Y-45952099D01*
X108023203Y-45914122D01*
X108016423Y-45913743D01*
X107670324Y-45913140D01*
X107663551Y-45913495D01*
X107319414Y-45950272D01*
X107312704Y-45951359D01*
X106974572Y-46025084D01*
X106967997Y-46026895D01*
X106639805Y-46136706D01*
X106633483Y-46139209D01*
X106319076Y-46283820D01*
X106313033Y-46287006D01*
X106016094Y-46464720D01*
X106010434Y-46468538D01*
X105734421Y-46677287D01*
X105730829Y-46680321D01*
X105723011Y-46693681D01*
X104117463Y-46693681D01*
X104051426Y-46605466D01*
X103898897Y-46452937D01*
X103726213Y-46323668D01*
X103692399Y-46305204D01*
X103540837Y-46222445D01*
X103540835Y-46222444D01*
X103536890Y-46220290D01*
X103529879Y-46217675D01*
X103338990Y-46146476D01*
X103338984Y-46146474D01*
X103334782Y-46144907D01*
X103330396Y-46143953D01*
X103330393Y-46143952D01*
X103206223Y-46116941D01*
X103124003Y-46099055D01*
X103119515Y-46098734D01*
X102949247Y-46086556D01*
X102937336Y-46085132D01*
X102921382Y-46082448D01*
X102915027Y-46082370D01*
X102913702Y-46082354D01*
X102913698Y-46082354D01*
X102908843Y-46082295D01*
X102884558Y-46085773D01*
X102881255Y-46086246D01*
X102863392Y-46087519D01*
X97841746Y-46087519D01*
X97820841Y-46085773D01*
X97805871Y-46083254D01*
X97805866Y-46083254D01*
X97801078Y-46082448D01*
X97794748Y-46082371D01*
X97793397Y-46082354D01*
X97793393Y-46082354D01*
X97788539Y-46082295D01*
X97773805Y-46084405D01*
X97764958Y-46085354D01*
X97616762Y-46095952D01*
X97577866Y-46098734D01*
X97577865Y-46098734D01*
X97573379Y-46099055D01*
X97425055Y-46131321D01*
X97366989Y-46143952D01*
X97366986Y-46143953D01*
X97362600Y-46144907D01*
X97358398Y-46146474D01*
X97358392Y-46146476D01*
X97167503Y-46217675D01*
X97160492Y-46220290D01*
X97156547Y-46222444D01*
X97156545Y-46222445D01*
X97004983Y-46305204D01*
X96971169Y-46323668D01*
X96798485Y-46452937D01*
X96645956Y-46605466D01*
X96516687Y-46778150D01*
X96514528Y-46782104D01*
X96419117Y-46956837D01*
X96413309Y-46967473D01*
X96411738Y-46971685D01*
X96339495Y-47165373D01*
X96339493Y-47165379D01*
X96337926Y-47169581D01*
X96336972Y-47173967D01*
X96336971Y-47173970D01*
X96312000Y-47288762D01*
X96292074Y-47380360D01*
X96291753Y-47384847D01*
X96291753Y-47384848D01*
X96279575Y-47555116D01*
X96278151Y-47567025D01*
X96275467Y-47582981D01*
X96275314Y-47595520D01*
X96276004Y-47600335D01*
X96279265Y-47623108D01*
X96280538Y-47640971D01*
X96280538Y-48389397D01*
X96260536Y-48457518D01*
X96206880Y-48504011D01*
X96136606Y-48514115D01*
X96072026Y-48484621D01*
X96033121Y-48423069D01*
X95952967Y-48134044D01*
X95950793Y-48127581D01*
X95822831Y-47806028D01*
X95819975Y-47799848D01*
X95658037Y-47494000D01*
X95654537Y-47488175D01*
X95460501Y-47201585D01*
X95456394Y-47196175D01*
X95347779Y-47068101D01*
X95334954Y-47059665D01*
X95324630Y-47065717D01*
X93231710Y-49158636D01*
X93224098Y-49172577D01*
X92494047Y-49172577D01*
X92495282Y-49170315D01*
X92495151Y-49168480D01*
X92490900Y-49161866D01*
X90396148Y-47067115D01*
X90382611Y-47059723D01*
X90372909Y-47066511D01*
X90269898Y-47187122D01*
X90265765Y-47192527D01*
X90070741Y-47478422D01*
X90067220Y-47484235D01*
X89904212Y-47789520D01*
X89901326Y-47795710D01*
X89772248Y-48116803D01*
X89770057Y-48123238D01*
X89676405Y-48456414D01*
X89674922Y-48463049D01*
X89617803Y-48804382D01*
X89617044Y-48811154D01*
X89597122Y-49156658D01*
X89597098Y-49163453D01*
X89317690Y-49163453D01*
X89317690Y-48170774D01*
X89319190Y-48151389D01*
X89321495Y-48136588D01*
X89321495Y-48136585D01*
X89322876Y-48127716D01*
X89320631Y-48110547D01*
X89319798Y-48086607D01*
X89335400Y-47828676D01*
X89337234Y-47813572D01*
X89350204Y-47742798D01*
X89388730Y-47532567D01*
X89392369Y-47517799D01*
X89401601Y-47488175D01*
X89477365Y-47245038D01*
X89482760Y-47230816D01*
X89600006Y-46970306D01*
X89607075Y-46956837D01*
X89754872Y-46712351D01*
X89763515Y-46699829D01*
X89768332Y-46693681D01*
X90745013Y-46693681D01*
X90745047Y-46694520D01*
X90750102Y-46702647D01*
X92846880Y-48799426D01*
X92860821Y-48807038D01*
X92862656Y-48806907D01*
X92869270Y-48802656D01*
X94967120Y-46704805D01*
X94974734Y-46690861D01*
X94974666Y-46689907D01*
X94970712Y-46683928D01*
X94696354Y-46474923D01*
X94690730Y-46471101D01*
X94394389Y-46292337D01*
X94388382Y-46289144D01*
X94074479Y-46143434D01*
X94068156Y-46140905D01*
X93740344Y-46029947D01*
X93733786Y-46028117D01*
X93395922Y-45953213D01*
X93389193Y-45952099D01*
X93045205Y-45914122D01*
X93038425Y-45913743D01*
X92692326Y-45913140D01*
X92685553Y-45913495D01*
X92341416Y-45950272D01*
X92334706Y-45951359D01*
X91996574Y-46025084D01*
X91989999Y-46026895D01*
X91661807Y-46136706D01*
X91655485Y-46139209D01*
X91341078Y-46283820D01*
X91335035Y-46287006D01*
X91038096Y-46464720D01*
X91032436Y-46468538D01*
X90756423Y-46677287D01*
X90752831Y-46680321D01*
X90745013Y-46693681D01*
X89768332Y-46693681D01*
X89939706Y-46474939D01*
X89949796Y-46463551D01*
X90151795Y-46261552D01*
X90163183Y-46251462D01*
X90388073Y-46075271D01*
X90400595Y-46066628D01*
X90645081Y-45918831D01*
X90658550Y-45911762D01*
X90919063Y-45794515D01*
X90933282Y-45789121D01*
X91206049Y-45704124D01*
X91220811Y-45700486D01*
X91431042Y-45661960D01*
X91501816Y-45648990D01*
X91516920Y-45647156D01*
X91767619Y-45631991D01*
X91794329Y-45633248D01*
X91794549Y-45633251D01*
X91803420Y-45634632D01*
X91812322Y-45633468D01*
X91812325Y-45633468D01*
X91835033Y-45630498D01*
X91851371Y-45629434D01*
X108838283Y-45629434D01*
X108857667Y-45630934D01*
G37*
%TD.AperFunction*%
%TD*%
M02*
