%TF.GenerationSoftware,KiCad,Pcbnew,(6.0.0)*%
%TF.CreationDate,2022-03-28T12:59:54-04:00*%
%TF.ProjectId,JTAG_ISP-BOTH,4a544147-5f49-4535-902d-424f54482e6b,v5.2.0*%
%TF.SameCoordinates,Original*%
%TF.FileFunction,Copper,L2,Bot*%
%TF.FilePolarity,Positive*%
%FSLAX46Y46*%
G04 Gerber Fmt 4.6, Leading zero omitted, Abs format (unit mm)*
G04 Created by KiCad (PCBNEW (6.0.0)) date 2022-03-28 12:59:54*
%MOMM*%
%LPD*%
G01*
G04 APERTURE LIST*
%TA.AperFunction,EtchedComponent*%
%ADD10C,0.508000*%
%TD*%
%TA.AperFunction,ComponentPad*%
%ADD11R,1.700000X1.700000*%
%TD*%
%TA.AperFunction,ComponentPad*%
%ADD12O,1.700000X1.700000*%
%TD*%
%TA.AperFunction,ComponentPad*%
%ADD13C,5.499999*%
%TD*%
%TA.AperFunction,ComponentPad*%
%ADD14R,1.800000X1.800000*%
%TD*%
%TA.AperFunction,ComponentPad*%
%ADD15C,1.800000*%
%TD*%
%TA.AperFunction,ComponentPad*%
%ADD16C,1.600000*%
%TD*%
%TA.AperFunction,ComponentPad*%
%ADD17O,1.600000X1.600000*%
%TD*%
%TA.AperFunction,ComponentPad*%
%ADD18C,1.700000*%
%TD*%
%TA.AperFunction,ComponentPad*%
%ADD19C,5.500000*%
%TD*%
%TA.AperFunction,ViaPad*%
%ADD20C,1.200000*%
%TD*%
%TA.AperFunction,Conductor*%
%ADD21C,0.508000*%
%TD*%
%TA.AperFunction,Conductor*%
%ADD22C,0.381000*%
%TD*%
%TA.AperFunction,Conductor*%
%ADD23C,0.635000*%
%TD*%
G04 APERTURE END LIST*
D10*
%TO.C,REF\u002A\u002A*%
X104684689Y-53930439D02*
X105922685Y-53342429D01*
X105922685Y-54518439D02*
X104684680Y-53930439D01*
X105839687Y-54405434D02*
X105399687Y-53745434D01*
X105922685Y-54518439D02*
X105922685Y-53342429D01*
%TD*%
D11*
%TO.P,JTAG1,1,#MCLR*%
%TO.N,N/C*%
X100358673Y-59313633D03*
D12*
%TO.P,JTAG1,2,VDD*%
%TO.N,+5V*%
X100358673Y-61853633D03*
%TO.P,JTAG1,3,GND*%
%TO.N,GND*%
X100358673Y-64393633D03*
%TO.P,JTAG1,4,TDO*%
%TO.N,N/C*%
X100358673Y-66933633D03*
%TO.P,JTAG1,5,TCK*%
X100358673Y-69473633D03*
%TO.P,JTAG1,6,#RESET*%
%TO.N,RESET*%
X100358673Y-72013633D03*
%TO.P,JTAG1,7,TDI*%
%TO.N,N/C*%
X100358673Y-74553633D03*
%TO.P,JTAG1,8,TMS*%
X100358673Y-77093633D03*
%TD*%
D13*
%TO.P,REF\u002A\u002A,1*%
%TO.N,GND*%
X107847670Y-49171446D03*
%TD*%
D14*
%TO.P,D1,1,K*%
%TO.N,Net-(D1-Pad1)*%
X101628673Y-88705446D03*
D15*
%TO.P,D1,2,A*%
%TO.N,N/C*%
X99088673Y-88705446D03*
%TD*%
D16*
%TO.P,C1,1*%
%TO.N,+5V*%
X91303688Y-56255443D03*
%TO.P,C1,2*%
%TO.N,GND*%
X91303688Y-53755443D03*
%TD*%
D13*
%TO.P,REF\u002A\u002A,1*%
%TO.N,GND*%
X92869672Y-49171446D03*
%TD*%
%TO.P,REF\u002A\u002A,1*%
%TO.N,GND*%
X92869672Y-87207866D03*
%TD*%
D11*
%TO.P,J1,1,Pin_1*%
%TO.N,+5V*%
X91177665Y-59313633D03*
D12*
%TO.P,J1,2,Pin_2*%
X91177665Y-61853633D03*
%TO.P,J1,3,Pin_3*%
X91177665Y-64393633D03*
%TO.P,J1,4,Pin_4*%
%TO.N,GND*%
X91177665Y-66933633D03*
%TO.P,J1,5,Pin_5*%
X91177665Y-69473633D03*
%TO.P,J1,6,Pin_6*%
%TO.N,N/C*%
X91177665Y-72013633D03*
%TO.P,J1,7,Pin_7*%
%TO.N,GND*%
X91177665Y-74553633D03*
%TO.P,J1,8,Pin_8*%
%TO.N,N/C*%
X91177665Y-77093633D03*
%TD*%
D13*
%TO.P,REF\u002A\u002A,1*%
%TO.N,GND*%
X107847670Y-87207866D03*
%TD*%
D16*
%TO.P,R1,1*%
%TO.N,Net-(D1-Pad1)*%
X105503685Y-81805430D03*
D17*
%TO.P,R1,2*%
%TO.N,GND*%
X95343685Y-81805430D03*
%TD*%
D18*
%TO.P,J2,1,Pin_1*%
%TO.N,N/C*%
X109539681Y-59313633D03*
D12*
%TO.P,J2,2,Pin_2*%
%TO.N,GND*%
X109539681Y-61853633D03*
%TO.P,J2,3,Pin_3*%
%TO.N,RESET*%
X109539681Y-64393633D03*
%TO.P,J2,4,Pin_4*%
%TO.N,GND*%
X109539681Y-66933633D03*
%TO.P,J2,5,Pin_5*%
%TO.N,N/C*%
X109539681Y-69473633D03*
%TO.P,J2,6,Pin_6*%
%TO.N,GND*%
X109539681Y-72013633D03*
%TO.P,J2,7,Pin_7*%
%TO.N,N/C*%
X109539681Y-74553633D03*
%TO.P,J2,8,Pin_8*%
%TO.N,GND*%
X109539681Y-77093633D03*
%TD*%
D11*
%TO.P,J1,1,Pin_1*%
%TO.N,MISO*%
X127278673Y-53930433D03*
D12*
%TO.P,J1,2,Pin_2*%
%TO.N,+5V*%
X124738673Y-53930433D03*
%TO.P,J1,3,Pin_3*%
%TO.N,SCLK*%
X127278673Y-51390433D03*
%TO.P,J1,4,Pin_4*%
%TO.N,MOSI*%
X124738673Y-51390433D03*
%TO.P,J1,5,Pin_5*%
%TO.N,RESET*%
X127278673Y-48850433D03*
%TO.P,J1,6,Pin_6*%
%TO.N,GND*%
X124738673Y-48850433D03*
%TD*%
D19*
%TO.P,REF\u002A\u002A,1*%
%TO.N,GND*%
X118519661Y-49171450D03*
%TD*%
D16*
%TO.P,C1,1*%
%TO.N,+5V*%
X119153682Y-55855434D03*
%TO.P,C1,2*%
%TO.N,GND*%
X116653682Y-55855434D03*
%TD*%
D19*
%TO.P,REF\u002A\u002A,1*%
%TO.N,GND*%
X118519661Y-87207862D03*
%TD*%
D11*
%TO.P,J2,1,Pin_1*%
%TO.N,+5V*%
X116827665Y-59313633D03*
D12*
%TO.P,J2,2,Pin_2*%
X116827665Y-61853633D03*
%TO.P,J2,3,Pin_3*%
X116827665Y-64393633D03*
%TO.P,J2,4,Pin_4*%
%TO.N,GND*%
X116827665Y-66933633D03*
%TO.P,J2,5,Pin_5*%
X116827665Y-69473633D03*
%TO.P,J2,6,Pin_6*%
%TO.N,MISO*%
X116827665Y-72013633D03*
%TO.P,J2,7,Pin_7*%
%TO.N,GND*%
X116827665Y-74553633D03*
%TO.P,J2,8,Pin_8*%
%TO.N,SCLK*%
X116827665Y-77093633D03*
%TD*%
D19*
%TO.P,REF\u002A\u002A,1*%
%TO.N,GND*%
X133497660Y-87207862D03*
%TD*%
D18*
%TO.P,J3,1,Pin_1*%
%TO.N,SCLK*%
X135189681Y-59313633D03*
D12*
%TO.P,J3,2,Pin_2*%
%TO.N,GND*%
X135189681Y-61853633D03*
%TO.P,J3,3,Pin_3*%
%TO.N,RESET*%
X135189681Y-64393633D03*
%TO.P,J3,4,Pin_4*%
%TO.N,GND*%
X135189681Y-66933633D03*
%TO.P,J3,5,Pin_5*%
%TO.N,MOSI*%
X135189681Y-69473633D03*
%TO.P,J3,6,Pin_6*%
%TO.N,GND*%
X135189681Y-72013633D03*
%TO.P,J3,7,Pin_7*%
%TO.N,unconnected-(J3-Pad7)*%
X135189681Y-74553633D03*
%TO.P,J3,8,Pin_8*%
%TO.N,GND*%
X135189681Y-77093633D03*
%TD*%
D19*
%TO.P,REF\u002A\u002A,1*%
%TO.N,GND*%
X133497660Y-49171439D03*
%TD*%
D20*
%TO.N,GND*%
X93703683Y-74553629D03*
%TO.N,*%
X96442182Y-72013626D03*
X96403682Y-78805436D03*
%TO.N,Net-(D1-Pad1)*%
X101628673Y-84680443D03*
%TO.N,GND*%
X93503682Y-53605434D03*
X93717653Y-66933629D03*
X106903682Y-77105434D03*
X106903682Y-61805434D03*
X107847670Y-53605434D03*
X92803682Y-81805434D03*
%TO.N,+5V*%
X95113688Y-56255443D03*
X93703683Y-59313629D03*
%TO.N,GND*%
X122452674Y-48850445D03*
X132453694Y-72013633D03*
X118519661Y-83187867D03*
X133526896Y-83187867D03*
X133497660Y-53191457D03*
X132453682Y-61905434D03*
X132553694Y-66933633D03*
X119367666Y-69473633D03*
%TO.N,RESET*%
X129453682Y-50905434D03*
%TO.N,MOSI*%
X122353682Y-53930433D03*
X130515182Y-69473645D03*
%TO.N,RESET*%
X130853682Y-64405434D03*
%TD*%
D21*
%TO.N,RESET*%
X105503682Y-65205434D02*
X105503682Y-71105434D01*
%TO.N,*%
X91177671Y-72013626D02*
X96442182Y-72013626D01*
X105755490Y-74553626D02*
X100358671Y-74553626D01*
X97375490Y-66933626D02*
X100358671Y-66933626D01*
X96915490Y-77093626D02*
X97803682Y-76205434D01*
X98785483Y-69473633D02*
X100358673Y-69473633D01*
X104915490Y-77093626D02*
X107455490Y-74553626D01*
X107735490Y-69473626D02*
X106603682Y-70605434D01*
%TO.N,RESET*%
X104595483Y-72013633D02*
X103429431Y-72013633D01*
%TO.N,*%
X105295490Y-59313626D02*
X109539671Y-59313626D01*
X106603682Y-70605434D02*
X106603682Y-73705434D01*
%TO.N,RESET*%
X106315490Y-64393626D02*
X105503682Y-65205434D01*
%TO.N,*%
X104035483Y-69473633D02*
X104488162Y-69020954D01*
X96442182Y-72013626D02*
X96403682Y-71975126D01*
X99088673Y-79990425D02*
X99088673Y-88705446D01*
X100358673Y-69473633D02*
X102921417Y-69473633D01*
X102921424Y-69473626D02*
X102921431Y-69473633D01*
X91177671Y-77093626D02*
X96915490Y-77093626D01*
X96403682Y-78805436D02*
X97903684Y-78805436D01*
%TO.N,RESET*%
X103429424Y-72013626D02*
X100358671Y-72013626D01*
%TO.N,*%
X109539671Y-69473626D02*
X107735490Y-69473626D01*
%TO.N,RESET*%
X103429431Y-72013633D02*
X103429424Y-72013626D01*
%TO.N,*%
X97803682Y-70455434D02*
X98785483Y-69473633D01*
%TO.N,RESET*%
X105503682Y-71105434D02*
X104595483Y-72013633D01*
%TO.N,Net-(D1-Pad1)*%
X101628673Y-88705446D02*
X101628673Y-84680443D01*
%TO.N,*%
X96403682Y-67905434D02*
X97375490Y-66933626D01*
X107455490Y-74553626D02*
X109539671Y-74553626D01*
X104488162Y-69020954D02*
X104488162Y-60120954D01*
X100358671Y-77093626D02*
X104915490Y-77093626D01*
%TO.N,RESET*%
X109539671Y-64393626D02*
X106315490Y-64393626D01*
%TO.N,*%
X102921417Y-69473633D02*
X102921424Y-69473626D01*
X96403682Y-71975126D02*
X96403682Y-67905434D01*
X104488162Y-60120954D02*
X105295490Y-59313626D01*
X97803682Y-76205434D02*
X97803682Y-70455434D01*
X97903684Y-78805436D02*
X99088673Y-79990425D01*
X102921431Y-69473633D02*
X104035483Y-69473633D01*
X106603682Y-73705434D02*
X105755490Y-74553626D01*
D22*
%TO.N,GND*%
X106951881Y-61853633D02*
X106903682Y-61805434D01*
X111203682Y-72016444D02*
X111203682Y-83805434D01*
X96210236Y-90548430D02*
X92869672Y-87207866D01*
X92869672Y-87171424D02*
X89603682Y-83905434D01*
X91177665Y-74553633D02*
X89603682Y-74553633D01*
X111203682Y-83805434D02*
X107847670Y-87161446D01*
X104507106Y-90548430D02*
X96210236Y-90548430D01*
X93503682Y-53605434D02*
X94403682Y-54505434D01*
X89603682Y-74605434D02*
X89655483Y-74553633D01*
X109539681Y-61853633D02*
X111173901Y-61853633D01*
X107942670Y-49266446D02*
X107847670Y-49171446D01*
X95915483Y-64393633D02*
X100358673Y-64393633D01*
X92869672Y-49171446D02*
X96135684Y-45905434D01*
X102803682Y-59705434D02*
X105103682Y-57405434D01*
X111203682Y-61883414D02*
X111203682Y-57405434D01*
X109539681Y-72013633D02*
X111206493Y-72013633D01*
X96135684Y-45905434D02*
X104581658Y-45905434D01*
X89603682Y-69473633D02*
X91177665Y-69473633D01*
X111203682Y-61905434D02*
X111203682Y-66905434D01*
X111203682Y-57405434D02*
X111203682Y-52527458D01*
X89603682Y-82305434D02*
X89603682Y-74605434D01*
X96003682Y-53105434D02*
X93903682Y-55205434D01*
X89603682Y-83905434D02*
X89603682Y-81705434D01*
X92869672Y-49171446D02*
X96003682Y-52305456D01*
X110991881Y-77093633D02*
X109539681Y-77093633D01*
X93903682Y-55205434D02*
X92753679Y-55205434D01*
X92869672Y-87207866D02*
X92869672Y-87171424D01*
X89655483Y-74553633D02*
X91177665Y-74553633D01*
X107847670Y-87161446D02*
X107847670Y-87207866D01*
X102803682Y-63805434D02*
X102803682Y-59705434D01*
X96003682Y-52305456D02*
X96003682Y-53105434D01*
X104581658Y-45905434D02*
X107847670Y-49171446D01*
X91177665Y-66933633D02*
X93375483Y-66933633D01*
X109539681Y-61853633D02*
X106951881Y-61853633D01*
X89703682Y-81805434D02*
X92803682Y-81805434D01*
X111203682Y-52527458D02*
X107942670Y-49266446D01*
X102215483Y-64393633D02*
X102803682Y-63805434D01*
X91177665Y-69473633D02*
X91177665Y-66933633D01*
X111206493Y-72013633D02*
X111203682Y-72016444D01*
X111203682Y-66955653D02*
X111203682Y-72005434D01*
X92753679Y-55205434D02*
X91303688Y-53755443D01*
X89603682Y-74553633D02*
X89603682Y-69473633D01*
X100358673Y-64393633D02*
X102215483Y-64393633D01*
X93375483Y-66933633D02*
X95915483Y-64393633D01*
X105103682Y-57405434D02*
X111203682Y-57405434D01*
X111203682Y-72005434D02*
X111195483Y-72013633D01*
X109539681Y-66933633D02*
X111203682Y-66933633D01*
X107847670Y-87207866D02*
X104507106Y-90548430D01*
D23*
%TO.N,+5V*%
X96003682Y-57105434D02*
X95153691Y-56255443D01*
X92915483Y-64393633D02*
X93703683Y-63605433D01*
X92855483Y-61853633D02*
X93703683Y-61005433D01*
X93703683Y-62605433D02*
X93703683Y-61705435D01*
X91177671Y-59313626D02*
X93703680Y-59313626D01*
X92951883Y-61853633D02*
X93703683Y-62605433D01*
X91177665Y-61853633D02*
X93555485Y-61853633D01*
X96851881Y-61853633D02*
X100358673Y-61853633D01*
X93703683Y-63605433D02*
X93703683Y-62605433D01*
X91177665Y-64393633D02*
X92915483Y-64393633D01*
X96003682Y-57105434D02*
X96003682Y-61005434D01*
X93555485Y-61853633D02*
X93703683Y-61705435D01*
X93703683Y-61705435D02*
X93703683Y-59313629D01*
X96003682Y-61005434D02*
X96851881Y-61853633D01*
D21*
%TO.N,MOSI*%
X128253682Y-56205434D02*
X123353682Y-56205434D01*
X129153682Y-68112145D02*
X129153682Y-57105434D01*
X129153682Y-57105434D02*
X128253682Y-56205434D01*
X122353682Y-55205434D02*
X122353682Y-53930433D01*
%TO.N,RESET*%
X129453682Y-50905434D02*
X130853682Y-52305434D01*
%TO.N,MOSI*%
X130515182Y-69473645D02*
X129153682Y-68112145D01*
%TO.N,RESET*%
X130853682Y-52305434D02*
X130853682Y-64405434D01*
%TO.N,MOSI*%
X123353682Y-56205434D02*
X122353682Y-55205434D01*
D22*
%TO.N,GND*%
X121453682Y-84305434D02*
X130595232Y-84305434D01*
X118519698Y-49171450D02*
X121053682Y-51705434D01*
X136839705Y-53191457D02*
X136853682Y-53205434D01*
X117071249Y-83187867D02*
X115853682Y-84405434D01*
X122353682Y-46105434D02*
X121585677Y-46105434D01*
X115853682Y-84405434D02*
X115853682Y-84541883D01*
X115853682Y-84541883D02*
X118519661Y-87207862D01*
X136859388Y-53205434D02*
X136859388Y-52533167D01*
X130595232Y-84305434D02*
X133497660Y-87207862D01*
X122452674Y-48850445D02*
X122452674Y-46204426D01*
D23*
X136271249Y-83723001D02*
X136271249Y-84469407D01*
D22*
X122452674Y-50306442D02*
X121053682Y-51705434D01*
X121585677Y-46105434D02*
X118519661Y-49171450D01*
X118551254Y-87207862D02*
X121453682Y-84305434D01*
D23*
X136271249Y-84469407D02*
X133515227Y-87225429D01*
X135753682Y-83205434D02*
X136271249Y-83723001D01*
X133544463Y-83205434D02*
X135753682Y-83205434D01*
D22*
X136859388Y-52533167D02*
X133497660Y-49171439D01*
X122452674Y-46204426D02*
X122353682Y-46105434D01*
X130453682Y-46105434D02*
X122353682Y-46105434D01*
X133497660Y-49171439D02*
X133497660Y-49149412D01*
X133497660Y-53191457D02*
X136839705Y-53191457D01*
X118519661Y-83187867D02*
X117071249Y-83187867D01*
X118519661Y-49171450D02*
X118519698Y-49171450D01*
X118519661Y-87207862D02*
X118551254Y-87207862D01*
X133497660Y-49149412D02*
X130453682Y-46105434D01*
X122452674Y-48850445D02*
X122452674Y-50306442D01*
%TD*%
%TA.AperFunction,Conductor*%
%TO.N,GND*%
G36*
X134517727Y-45632846D02*
G01*
X134532528Y-45635151D01*
X134532531Y-45635151D01*
X134541400Y-45636532D01*
X134558569Y-45634287D01*
X134582509Y-45633454D01*
X134840440Y-45649056D01*
X134855544Y-45650890D01*
X134926318Y-45663860D01*
X135136549Y-45702386D01*
X135151311Y-45706024D01*
X135424078Y-45791021D01*
X135438297Y-45796415D01*
X135698810Y-45913662D01*
X135712279Y-45920731D01*
X135956765Y-46068528D01*
X135969287Y-46077171D01*
X136194177Y-46253362D01*
X136205565Y-46263452D01*
X136407564Y-46465451D01*
X136417654Y-46476839D01*
X136593845Y-46701729D01*
X136602488Y-46714251D01*
X136750285Y-46958737D01*
X136757354Y-46972206D01*
X136858152Y-47196171D01*
X136874600Y-47232716D01*
X136879995Y-47246938D01*
X136956978Y-47493984D01*
X136964991Y-47519699D01*
X136968630Y-47534467D01*
X137001720Y-47715031D01*
X137020126Y-47815472D01*
X137021960Y-47830576D01*
X137037125Y-48081275D01*
X137035868Y-48107985D01*
X137035865Y-48108205D01*
X137034484Y-48117076D01*
X137035648Y-48125978D01*
X137035648Y-48125981D01*
X137038606Y-48148597D01*
X137039670Y-48164935D01*
X137039670Y-88208538D01*
X137038170Y-88227922D01*
X137034484Y-88251596D01*
X137036124Y-88264136D01*
X137036729Y-88268763D01*
X137037562Y-88292705D01*
X137021960Y-88550636D01*
X137020126Y-88565740D01*
X136968632Y-88846739D01*
X136964992Y-88861507D01*
X136939577Y-88943068D01*
X136879996Y-89134270D01*
X136874601Y-89148493D01*
X136800921Y-89312205D01*
X136757356Y-89409002D01*
X136750285Y-89422475D01*
X136602488Y-89666961D01*
X136593845Y-89679483D01*
X136417654Y-89904373D01*
X136407564Y-89915761D01*
X136205565Y-90117760D01*
X136194177Y-90127850D01*
X135969287Y-90304041D01*
X135956765Y-90312684D01*
X135712279Y-90460481D01*
X135698810Y-90467550D01*
X135438300Y-90584796D01*
X135424078Y-90590191D01*
X135151311Y-90675188D01*
X135136549Y-90678826D01*
X134926318Y-90717352D01*
X134855544Y-90730322D01*
X134840440Y-90732156D01*
X134589741Y-90747321D01*
X134563031Y-90746064D01*
X134562811Y-90746061D01*
X134553940Y-90744680D01*
X134545038Y-90745844D01*
X134545035Y-90745844D01*
X134522419Y-90748802D01*
X134506081Y-90749866D01*
X129707978Y-90749866D01*
X129688594Y-90748366D01*
X129673793Y-90746061D01*
X129673789Y-90746061D01*
X129664920Y-90744680D01*
X129656018Y-90745844D01*
X129656014Y-90745844D01*
X129655918Y-90745857D01*
X129625481Y-90746128D01*
X129563276Y-90739120D01*
X129535769Y-90732842D01*
X129458579Y-90705832D01*
X129433160Y-90693590D01*
X129363913Y-90650079D01*
X129341854Y-90632487D01*
X129284030Y-90574663D01*
X129266438Y-90552604D01*
X129222927Y-90483357D01*
X129210685Y-90457936D01*
X129183676Y-90380749D01*
X129177397Y-90353242D01*
X129171129Y-90297615D01*
X129170346Y-90281969D01*
X129170455Y-90273011D01*
X129171837Y-90264137D01*
X129167715Y-90232615D01*
X129166651Y-90216278D01*
X129166651Y-89687251D01*
X131383201Y-89687251D01*
X131391338Y-89698257D01*
X131651598Y-89897961D01*
X131657197Y-89901795D01*
X131952921Y-90081598D01*
X131958911Y-90084810D01*
X132272317Y-90231620D01*
X132278621Y-90234167D01*
X132606044Y-90346268D01*
X132612595Y-90348122D01*
X132950199Y-90424204D01*
X132956918Y-90425341D01*
X133300773Y-90464519D01*
X133307563Y-90464922D01*
X133653633Y-90466734D01*
X133660434Y-90466402D01*
X134004680Y-90430828D01*
X134011408Y-90429762D01*
X134349804Y-90357215D01*
X134356353Y-90355436D01*
X134684938Y-90246767D01*
X134691280Y-90244281D01*
X135006183Y-90100772D01*
X135012237Y-90097607D01*
X135309788Y-89920935D01*
X135315469Y-89917132D01*
X135592207Y-89709351D01*
X135597431Y-89704967D01*
X135603898Y-89698915D01*
X135611967Y-89685235D01*
X135611940Y-89684511D01*
X135606796Y-89676208D01*
X133510472Y-87579884D01*
X133496528Y-87572270D01*
X133494695Y-87572401D01*
X133488080Y-87576652D01*
X131390082Y-89674650D01*
X131383201Y-89687251D01*
X129166651Y-89687251D01*
X129166651Y-88661084D01*
X129168397Y-88640180D01*
X129170915Y-88625212D01*
X129171722Y-88620416D01*
X129171875Y-88607877D01*
X129171184Y-88603052D01*
X129171126Y-88602166D01*
X129170174Y-88592408D01*
X129153939Y-88282629D01*
X129153661Y-88277323D01*
X129153013Y-88273227D01*
X129102396Y-87953652D01*
X129101880Y-87950391D01*
X129016209Y-87630662D01*
X128993795Y-87572270D01*
X128898771Y-87324725D01*
X128897587Y-87321640D01*
X128835542Y-87199869D01*
X130235067Y-87199869D01*
X130252577Y-87545521D01*
X130253287Y-87552277D01*
X130308023Y-87894003D01*
X130309462Y-87900658D01*
X130400782Y-88234466D01*
X130402931Y-88240927D01*
X130529770Y-88562929D01*
X130532601Y-88569112D01*
X130693475Y-88875532D01*
X130696958Y-88881375D01*
X130889981Y-89168623D01*
X130894084Y-89174067D01*
X131009571Y-89311213D01*
X131022310Y-89319656D01*
X131032754Y-89313558D01*
X133125638Y-87220674D01*
X133132016Y-87208994D01*
X133862068Y-87208994D01*
X133862199Y-87210827D01*
X133866450Y-87217442D01*
X135961213Y-89312205D01*
X135974810Y-89319630D01*
X135984421Y-89312930D01*
X136080505Y-89201222D01*
X136084663Y-89195822D01*
X136280683Y-88910613D01*
X136284230Y-88904802D01*
X136448294Y-88600100D01*
X136451201Y-88593922D01*
X136581404Y-88273273D01*
X136583618Y-88266843D01*
X136678429Y-87934005D01*
X136679936Y-87927375D01*
X136738250Y-87586224D01*
X136739030Y-87579484D01*
X136760255Y-87232438D01*
X136760371Y-87228835D01*
X136760439Y-87209681D01*
X136760347Y-87206056D01*
X136741545Y-86858885D01*
X136740810Y-86852119D01*
X136684884Y-86510600D01*
X136683417Y-86503928D01*
X136590938Y-86170459D01*
X136588764Y-86163996D01*
X136460803Y-85842445D01*
X136457950Y-85836271D01*
X136296003Y-85530407D01*
X136292509Y-85524590D01*
X136098473Y-85238002D01*
X136094359Y-85232583D01*
X135985750Y-85104515D01*
X135972925Y-85096079D01*
X135962600Y-85102132D01*
X133869682Y-87195050D01*
X133862068Y-87208994D01*
X133132016Y-87208994D01*
X133133252Y-87206730D01*
X133133121Y-87204897D01*
X133128870Y-87198282D01*
X131034117Y-85103529D01*
X131020580Y-85096137D01*
X131010879Y-85102925D01*
X130907880Y-85223521D01*
X130903726Y-85228954D01*
X130708716Y-85514827D01*
X130705181Y-85520664D01*
X130542178Y-85825942D01*
X130539302Y-85832111D01*
X130410218Y-86153217D01*
X130408025Y-86159657D01*
X130314374Y-86492830D01*
X130312891Y-86499465D01*
X130255772Y-86840798D01*
X130255013Y-86847570D01*
X130235091Y-87193074D01*
X130235067Y-87199869D01*
X128835542Y-87199869D01*
X128747313Y-87026710D01*
X128567033Y-86749104D01*
X128358723Y-86491863D01*
X128124665Y-86257805D01*
X127867424Y-86049495D01*
X127589818Y-85869215D01*
X127294888Y-85718941D01*
X126985866Y-85600319D01*
X126666137Y-85514648D01*
X126492451Y-85487139D01*
X126342453Y-85463381D01*
X126342445Y-85463380D01*
X126339205Y-85462867D01*
X126040443Y-85447209D01*
X126026129Y-85445635D01*
X126026091Y-85445629D01*
X126021201Y-85444806D01*
X126008662Y-85444653D01*
X126008651Y-85444653D01*
X126004210Y-85445289D01*
X126003802Y-85445318D01*
X125993179Y-85446355D01*
X125678108Y-85462867D01*
X125674868Y-85463380D01*
X125674860Y-85463381D01*
X125524862Y-85487139D01*
X125351176Y-85514648D01*
X125031447Y-85600319D01*
X124722425Y-85718941D01*
X124427495Y-85869215D01*
X124149889Y-86049495D01*
X123892648Y-86257805D01*
X123658590Y-86491863D01*
X123450280Y-86749104D01*
X123270000Y-87026710D01*
X123119726Y-87321640D01*
X123118542Y-87324725D01*
X123023519Y-87572270D01*
X123001104Y-87630662D01*
X122915433Y-87950391D01*
X122914917Y-87953652D01*
X122864301Y-88273227D01*
X122863652Y-88277323D01*
X122863374Y-88282629D01*
X122847593Y-88583747D01*
X122846885Y-88590572D01*
X122846859Y-88592729D01*
X122845476Y-88601607D01*
X122846641Y-88610514D01*
X122849598Y-88633128D01*
X122850662Y-88649466D01*
X122850662Y-90208539D01*
X122849162Y-90227923D01*
X122846857Y-90242724D01*
X122846857Y-90242728D01*
X122845476Y-90251597D01*
X122846640Y-90260499D01*
X122846640Y-90260503D01*
X122846653Y-90260599D01*
X122846924Y-90291036D01*
X122839916Y-90353241D01*
X122833637Y-90380751D01*
X122806628Y-90457937D01*
X122794386Y-90483357D01*
X122750875Y-90552604D01*
X122733283Y-90574663D01*
X122675459Y-90632487D01*
X122653400Y-90650079D01*
X122584153Y-90693590D01*
X122558732Y-90705832D01*
X122481545Y-90732841D01*
X122454038Y-90739120D01*
X122433910Y-90741388D01*
X122398406Y-90745388D01*
X122382765Y-90746171D01*
X122373807Y-90746062D01*
X122364933Y-90744680D01*
X122333412Y-90748802D01*
X122317074Y-90749866D01*
X117519000Y-90749866D01*
X117499615Y-90748366D01*
X117484814Y-90746061D01*
X117484811Y-90746061D01*
X117475942Y-90744680D01*
X117458773Y-90746925D01*
X117434833Y-90747758D01*
X117176902Y-90732156D01*
X117161798Y-90730322D01*
X117091024Y-90717352D01*
X116880793Y-90678826D01*
X116866031Y-90675188D01*
X116593264Y-90590191D01*
X116579042Y-90584796D01*
X116318532Y-90467550D01*
X116305063Y-90460481D01*
X116060577Y-90312684D01*
X116048055Y-90304041D01*
X115823165Y-90127850D01*
X115811777Y-90117760D01*
X115609778Y-89915761D01*
X115599688Y-89904373D01*
X115429583Y-89687251D01*
X116405202Y-89687251D01*
X116413339Y-89698257D01*
X116673599Y-89897961D01*
X116679198Y-89901795D01*
X116974922Y-90081598D01*
X116980912Y-90084810D01*
X117294318Y-90231620D01*
X117300622Y-90234167D01*
X117628045Y-90346268D01*
X117634596Y-90348122D01*
X117972200Y-90424204D01*
X117978919Y-90425341D01*
X118322774Y-90464519D01*
X118329564Y-90464922D01*
X118675634Y-90466734D01*
X118682435Y-90466402D01*
X119026681Y-90430828D01*
X119033409Y-90429762D01*
X119371805Y-90357215D01*
X119378354Y-90355436D01*
X119706939Y-90246767D01*
X119713281Y-90244281D01*
X120028184Y-90100772D01*
X120034238Y-90097607D01*
X120331789Y-89920935D01*
X120337470Y-89917132D01*
X120614208Y-89709351D01*
X120619432Y-89704967D01*
X120625899Y-89698915D01*
X120633968Y-89685235D01*
X120633941Y-89684511D01*
X120628797Y-89676208D01*
X118532473Y-87579884D01*
X118518529Y-87572270D01*
X118516696Y-87572401D01*
X118510081Y-87576652D01*
X116412083Y-89674650D01*
X116405202Y-89687251D01*
X115429583Y-89687251D01*
X115423497Y-89679483D01*
X115414854Y-89666961D01*
X115267057Y-89422475D01*
X115259986Y-89409002D01*
X115216422Y-89312205D01*
X115142741Y-89148493D01*
X115137346Y-89134270D01*
X115077765Y-88943068D01*
X115052350Y-88861507D01*
X115048710Y-88846739D01*
X114997216Y-88565740D01*
X114995382Y-88550636D01*
X114980217Y-88299937D01*
X114981474Y-88273227D01*
X114981477Y-88273007D01*
X114982858Y-88264136D01*
X114981219Y-88251596D01*
X114978736Y-88232615D01*
X114977672Y-88216277D01*
X114977672Y-87199869D01*
X115257068Y-87199869D01*
X115274578Y-87545521D01*
X115275288Y-87552277D01*
X115330024Y-87894003D01*
X115331463Y-87900658D01*
X115422783Y-88234466D01*
X115424932Y-88240927D01*
X115551771Y-88562929D01*
X115554602Y-88569112D01*
X115715476Y-88875532D01*
X115718959Y-88881375D01*
X115911982Y-89168623D01*
X115916085Y-89174067D01*
X116031572Y-89311213D01*
X116044311Y-89319656D01*
X116054755Y-89313558D01*
X118147639Y-87220674D01*
X118154017Y-87208994D01*
X118884069Y-87208994D01*
X118884200Y-87210827D01*
X118888451Y-87217442D01*
X120983214Y-89312205D01*
X120996811Y-89319630D01*
X121006422Y-89312930D01*
X121102506Y-89201222D01*
X121106664Y-89195822D01*
X121302684Y-88910613D01*
X121306231Y-88904802D01*
X121470295Y-88600100D01*
X121473202Y-88593922D01*
X121603405Y-88273273D01*
X121605619Y-88266843D01*
X121700430Y-87934005D01*
X121701937Y-87927375D01*
X121760251Y-87586224D01*
X121761031Y-87579484D01*
X121782256Y-87232438D01*
X121782372Y-87228835D01*
X121782440Y-87209681D01*
X121782348Y-87206056D01*
X121763546Y-86858885D01*
X121762811Y-86852119D01*
X121706885Y-86510600D01*
X121705418Y-86503928D01*
X121612939Y-86170459D01*
X121610765Y-86163996D01*
X121482804Y-85842445D01*
X121479951Y-85836271D01*
X121318004Y-85530407D01*
X121314510Y-85524590D01*
X121120474Y-85238002D01*
X121116360Y-85232583D01*
X121007751Y-85104515D01*
X120994926Y-85096079D01*
X120984601Y-85102132D01*
X118891683Y-87195050D01*
X118884069Y-87208994D01*
X118154017Y-87208994D01*
X118155253Y-87206730D01*
X118155122Y-87204897D01*
X118150871Y-87198282D01*
X116056118Y-85103529D01*
X116042581Y-85096137D01*
X116032880Y-85102925D01*
X115929881Y-85223521D01*
X115925727Y-85228954D01*
X115730717Y-85514827D01*
X115727182Y-85520664D01*
X115564179Y-85825942D01*
X115561303Y-85832111D01*
X115432219Y-86153217D01*
X115430026Y-86159657D01*
X115336375Y-86492830D01*
X115334892Y-86499465D01*
X115277773Y-86840798D01*
X115277014Y-86847570D01*
X115257092Y-87193074D01*
X115257068Y-87199869D01*
X114977672Y-87199869D01*
X114977672Y-84730096D01*
X116404983Y-84730096D01*
X116405018Y-84730937D01*
X116410071Y-84739062D01*
X118506849Y-86835840D01*
X118520793Y-86843454D01*
X118522626Y-86843323D01*
X118529241Y-86839072D01*
X120627092Y-84741221D01*
X120633167Y-84730096D01*
X131382982Y-84730096D01*
X131383017Y-84730937D01*
X131388070Y-84739062D01*
X133484848Y-86835840D01*
X133498792Y-86843454D01*
X133500625Y-86843323D01*
X133507240Y-86839072D01*
X135605091Y-84741221D01*
X135612705Y-84727277D01*
X135612637Y-84726322D01*
X135608684Y-84720344D01*
X135334327Y-84511341D01*
X135328701Y-84507517D01*
X135032366Y-84328756D01*
X135026354Y-84325559D01*
X134712434Y-84179842D01*
X134706134Y-84177322D01*
X134378324Y-84066365D01*
X134371746Y-84064529D01*
X134033897Y-83989630D01*
X134027159Y-83988514D01*
X133683175Y-83950537D01*
X133676395Y-83950158D01*
X133330296Y-83949555D01*
X133323523Y-83949910D01*
X132979386Y-83986687D01*
X132972676Y-83987774D01*
X132634543Y-84061499D01*
X132627968Y-84063310D01*
X132299777Y-84173121D01*
X132293455Y-84175624D01*
X131979048Y-84320235D01*
X131973005Y-84323421D01*
X131676062Y-84501138D01*
X131670416Y-84504947D01*
X131394386Y-84713706D01*
X131390800Y-84716737D01*
X131382982Y-84730096D01*
X120633167Y-84730096D01*
X120634706Y-84727277D01*
X120634638Y-84726322D01*
X120630685Y-84720344D01*
X120356328Y-84511341D01*
X120350702Y-84507517D01*
X120054367Y-84328756D01*
X120048355Y-84325559D01*
X119734435Y-84179842D01*
X119728135Y-84177322D01*
X119400325Y-84066365D01*
X119393747Y-84064529D01*
X119055898Y-83989630D01*
X119049160Y-83988514D01*
X118705176Y-83950537D01*
X118698396Y-83950158D01*
X118352297Y-83949555D01*
X118345524Y-83949910D01*
X118001387Y-83986687D01*
X117994677Y-83987774D01*
X117656544Y-84061499D01*
X117649969Y-84063310D01*
X117321778Y-84173121D01*
X117315456Y-84175624D01*
X117001049Y-84320235D01*
X116995006Y-84323421D01*
X116698063Y-84501138D01*
X116692417Y-84504947D01*
X116416387Y-84713706D01*
X116412801Y-84716737D01*
X116404983Y-84730096D01*
X114977672Y-84730096D01*
X114977672Y-77060328D01*
X115464916Y-77060328D01*
X115465213Y-77065481D01*
X115465213Y-77065484D01*
X115470676Y-77160223D01*
X115477775Y-77283348D01*
X115478912Y-77288394D01*
X115478913Y-77288400D01*
X115493114Y-77351411D01*
X115526887Y-77501272D01*
X115610931Y-77708249D01*
X115727652Y-77898721D01*
X115873915Y-78067571D01*
X116045791Y-78210265D01*
X116238665Y-78322971D01*
X116447357Y-78402663D01*
X116452425Y-78403694D01*
X116452428Y-78403695D01*
X116533362Y-78420161D01*
X116666262Y-78447200D01*
X116671437Y-78447390D01*
X116671439Y-78447390D01*
X116884338Y-78455197D01*
X116884342Y-78455197D01*
X116889502Y-78455386D01*
X116894622Y-78454730D01*
X116894624Y-78454730D01*
X117105953Y-78427658D01*
X117105954Y-78427658D01*
X117111081Y-78427001D01*
X117116031Y-78425516D01*
X117320094Y-78364294D01*
X117320099Y-78364292D01*
X117325049Y-78362807D01*
X117525659Y-78264529D01*
X117707525Y-78134806D01*
X117865761Y-77977122D01*
X117925259Y-77894322D01*
X117993100Y-77799910D01*
X117996118Y-77795710D01*
X118095095Y-77595444D01*
X118160035Y-77381702D01*
X118189194Y-77160223D01*
X118190821Y-77093633D01*
X118172517Y-76870994D01*
X118118096Y-76654335D01*
X118029019Y-76449473D01*
X117907679Y-76261910D01*
X117757335Y-76096684D01*
X117753284Y-76093485D01*
X117753280Y-76093481D01*
X117586079Y-75961433D01*
X117586075Y-75961431D01*
X117582024Y-75958231D01*
X117540234Y-75935162D01*
X117490263Y-75884730D01*
X117475491Y-75815287D01*
X117500607Y-75748881D01*
X117527959Y-75722274D01*
X117702993Y-75597425D01*
X117710865Y-75590772D01*
X117861717Y-75440445D01*
X117868395Y-75432598D01*
X117992668Y-75259653D01*
X117997978Y-75250816D01*
X118092335Y-75059900D01*
X118096134Y-75050305D01*
X118158042Y-74846543D01*
X118160220Y-74836470D01*
X118161651Y-74825595D01*
X118159440Y-74811411D01*
X118146282Y-74807633D01*
X115510890Y-74807633D01*
X115497359Y-74811606D01*
X115495922Y-74821599D01*
X115526230Y-74956079D01*
X115529310Y-74965908D01*
X115609435Y-75163236D01*
X115614078Y-75172427D01*
X115725359Y-75354021D01*
X115731442Y-75362332D01*
X115870878Y-75523300D01*
X115878245Y-75530516D01*
X116042099Y-75666549D01*
X116050546Y-75672464D01*
X116119634Y-75712836D01*
X116168358Y-75764475D01*
X116181429Y-75834258D01*
X116154698Y-75900029D01*
X116114249Y-75933385D01*
X116101272Y-75940140D01*
X116097139Y-75943243D01*
X116097136Y-75943245D01*
X116072912Y-75961433D01*
X115922630Y-76074268D01*
X115768294Y-76235771D01*
X115765380Y-76240043D01*
X115765379Y-76240044D01*
X115753069Y-76258090D01*
X115642408Y-76420313D01*
X115548353Y-76622938D01*
X115488654Y-76838203D01*
X115464916Y-77060328D01*
X114977672Y-77060328D01*
X114977672Y-71980328D01*
X115464916Y-71980328D01*
X115465213Y-71985481D01*
X115465213Y-71985484D01*
X115470676Y-72080223D01*
X115477775Y-72203348D01*
X115478912Y-72208394D01*
X115478913Y-72208400D01*
X115492262Y-72267633D01*
X115526887Y-72421272D01*
X115610931Y-72628249D01*
X115727652Y-72818721D01*
X115873915Y-72987571D01*
X116045791Y-73130265D01*
X116118643Y-73172836D01*
X116119620Y-73173407D01*
X116168344Y-73225045D01*
X116181415Y-73294828D01*
X116154684Y-73360600D01*
X116114227Y-73393960D01*
X116106122Y-73398179D01*
X116097403Y-73403669D01*
X115927098Y-73531538D01*
X115919391Y-73538381D01*
X115772255Y-73692350D01*
X115765769Y-73700360D01*
X115645763Y-73876282D01*
X115640665Y-73885256D01*
X115551003Y-74078416D01*
X115547440Y-74088103D01*
X115492054Y-74287816D01*
X115493577Y-74296240D01*
X115505957Y-74299633D01*
X118146009Y-74299633D01*
X118159540Y-74295660D01*
X118160845Y-74286580D01*
X118118879Y-74119508D01*
X118115559Y-74109757D01*
X118030637Y-73914447D01*
X118025770Y-73905372D01*
X117910091Y-73726559D01*
X117903801Y-73718390D01*
X117760471Y-73560873D01*
X117752938Y-73553848D01*
X117585804Y-73421855D01*
X117577221Y-73416153D01*
X117540267Y-73395753D01*
X117490296Y-73345320D01*
X117475524Y-73275878D01*
X117500640Y-73209472D01*
X117527992Y-73182865D01*
X117551462Y-73166124D01*
X117707525Y-73054806D01*
X117865761Y-72897122D01*
X117925259Y-72814322D01*
X117993100Y-72719910D01*
X117996118Y-72715710D01*
X118095095Y-72515444D01*
X118160035Y-72301702D01*
X118189194Y-72080223D01*
X118190821Y-72013633D01*
X118172517Y-71790994D01*
X118118096Y-71574335D01*
X118029019Y-71369473D01*
X117907679Y-71181910D01*
X117757335Y-71016684D01*
X117753284Y-71013485D01*
X117753280Y-71013481D01*
X117586079Y-70881433D01*
X117586075Y-70881431D01*
X117582024Y-70878231D01*
X117540234Y-70855162D01*
X117490263Y-70804730D01*
X117475491Y-70735287D01*
X117500607Y-70668881D01*
X117527959Y-70642274D01*
X117702993Y-70517425D01*
X117710865Y-70510772D01*
X117861717Y-70360445D01*
X117868395Y-70352598D01*
X117992668Y-70179653D01*
X117997978Y-70170816D01*
X118092335Y-69979900D01*
X118096134Y-69970305D01*
X118158042Y-69766543D01*
X118160220Y-69756470D01*
X118161651Y-69745595D01*
X118159440Y-69731411D01*
X118146282Y-69727633D01*
X115510890Y-69727633D01*
X115497359Y-69731606D01*
X115495922Y-69741599D01*
X115526230Y-69876079D01*
X115529310Y-69885908D01*
X115609435Y-70083236D01*
X115614078Y-70092427D01*
X115725359Y-70274021D01*
X115731442Y-70282332D01*
X115870878Y-70443300D01*
X115878245Y-70450516D01*
X116042099Y-70586549D01*
X116050546Y-70592464D01*
X116119634Y-70632836D01*
X116168358Y-70684475D01*
X116181429Y-70754258D01*
X116154698Y-70820029D01*
X116114249Y-70853385D01*
X116101272Y-70860140D01*
X116097139Y-70863243D01*
X116097136Y-70863245D01*
X116072912Y-70881433D01*
X115922630Y-70994268D01*
X115768294Y-71155771D01*
X115765380Y-71160043D01*
X115765379Y-71160044D01*
X115753069Y-71178090D01*
X115642408Y-71340313D01*
X115548353Y-71542938D01*
X115488654Y-71758203D01*
X115464916Y-71980328D01*
X114977672Y-71980328D01*
X114977672Y-69207816D01*
X115492054Y-69207816D01*
X115493577Y-69216240D01*
X115505957Y-69219633D01*
X116555550Y-69219633D01*
X116570789Y-69215158D01*
X116571994Y-69213768D01*
X116573665Y-69206085D01*
X116573665Y-69201518D01*
X117081665Y-69201518D01*
X117086140Y-69216757D01*
X117087530Y-69217962D01*
X117095213Y-69219633D01*
X118146009Y-69219633D01*
X118159540Y-69215660D01*
X118160845Y-69206580D01*
X118118879Y-69039508D01*
X118115559Y-69029757D01*
X118030637Y-68834447D01*
X118025770Y-68825372D01*
X117910091Y-68646559D01*
X117903801Y-68638390D01*
X117760471Y-68480873D01*
X117752938Y-68473848D01*
X117585804Y-68341855D01*
X117577217Y-68336150D01*
X117539781Y-68315484D01*
X117489811Y-68265052D01*
X117475039Y-68195609D01*
X117500155Y-68129204D01*
X117527507Y-68102597D01*
X117702992Y-67977425D01*
X117710865Y-67970772D01*
X117861717Y-67820445D01*
X117868395Y-67812598D01*
X117992668Y-67639653D01*
X117997978Y-67630816D01*
X118092335Y-67439900D01*
X118096134Y-67430305D01*
X118158042Y-67226543D01*
X118160220Y-67216470D01*
X118161651Y-67205595D01*
X118159440Y-67191411D01*
X118146282Y-67187633D01*
X117099780Y-67187633D01*
X117084541Y-67192108D01*
X117083336Y-67193498D01*
X117081665Y-67201181D01*
X117081665Y-69201518D01*
X116573665Y-69201518D01*
X116573665Y-67205748D01*
X116569190Y-67190509D01*
X116567800Y-67189304D01*
X116560117Y-67187633D01*
X115510890Y-67187633D01*
X115497359Y-67191606D01*
X115495922Y-67201599D01*
X115526230Y-67336079D01*
X115529310Y-67345908D01*
X115609435Y-67543236D01*
X115614078Y-67552427D01*
X115725359Y-67734021D01*
X115731442Y-67742332D01*
X115870878Y-67903300D01*
X115878245Y-67910516D01*
X116042099Y-68046549D01*
X116050546Y-68052464D01*
X116120144Y-68093134D01*
X116168868Y-68144773D01*
X116181939Y-68214556D01*
X116155208Y-68280327D01*
X116114752Y-68313686D01*
X116106127Y-68318175D01*
X116097403Y-68323669D01*
X115927098Y-68451538D01*
X115919391Y-68458381D01*
X115772255Y-68612350D01*
X115765769Y-68620360D01*
X115645763Y-68796282D01*
X115640665Y-68805256D01*
X115551003Y-68998416D01*
X115547440Y-69008103D01*
X115492054Y-69207816D01*
X114977672Y-69207816D01*
X114977672Y-64360328D01*
X115464916Y-64360328D01*
X115465213Y-64365481D01*
X115465213Y-64365484D01*
X115470662Y-64459989D01*
X115477775Y-64583348D01*
X115478912Y-64588394D01*
X115478913Y-64588400D01*
X115494960Y-64659603D01*
X115526887Y-64801272D01*
X115610931Y-65008249D01*
X115613630Y-65012653D01*
X115721194Y-65188182D01*
X115727652Y-65198721D01*
X115873915Y-65367571D01*
X116045791Y-65510265D01*
X116119620Y-65553407D01*
X116168344Y-65605045D01*
X116181415Y-65674828D01*
X116154684Y-65740600D01*
X116114227Y-65773960D01*
X116106122Y-65778179D01*
X116097403Y-65783669D01*
X115927098Y-65911538D01*
X115919391Y-65918381D01*
X115772255Y-66072350D01*
X115765769Y-66080360D01*
X115645763Y-66256282D01*
X115640665Y-66265256D01*
X115551003Y-66458416D01*
X115547440Y-66468103D01*
X115492054Y-66667816D01*
X115493577Y-66676240D01*
X115505957Y-66679633D01*
X118146009Y-66679633D01*
X118159540Y-66675660D01*
X118160845Y-66666580D01*
X118118879Y-66499508D01*
X118115559Y-66489757D01*
X118030637Y-66294447D01*
X118025770Y-66285372D01*
X117910091Y-66106559D01*
X117903801Y-66098390D01*
X117760471Y-65940873D01*
X117752938Y-65933848D01*
X117585804Y-65801855D01*
X117577221Y-65796153D01*
X117540267Y-65775753D01*
X117490296Y-65725320D01*
X117475524Y-65655878D01*
X117500640Y-65589472D01*
X117527992Y-65562865D01*
X117592072Y-65517157D01*
X117707525Y-65434806D01*
X117719937Y-65422438D01*
X117862100Y-65280770D01*
X117865761Y-65277122D01*
X117925259Y-65194322D01*
X117993100Y-65099910D01*
X117996118Y-65095710D01*
X118023439Y-65040431D01*
X118092801Y-64900086D01*
X118092802Y-64900084D01*
X118095095Y-64895444D01*
X118160035Y-64681702D01*
X118189194Y-64460223D01*
X118190821Y-64393633D01*
X118172517Y-64170994D01*
X118118096Y-63954335D01*
X118029019Y-63749473D01*
X117932722Y-63600620D01*
X117910487Y-63566250D01*
X117910485Y-63566247D01*
X117907679Y-63561910D01*
X117757335Y-63396684D01*
X117753284Y-63393485D01*
X117753280Y-63393481D01*
X117586079Y-63261433D01*
X117586075Y-63261431D01*
X117582024Y-63258231D01*
X117540718Y-63235429D01*
X117490749Y-63184997D01*
X117475977Y-63115554D01*
X117501093Y-63049149D01*
X117528445Y-63022542D01*
X117572268Y-62991283D01*
X117707525Y-62894806D01*
X117865761Y-62737122D01*
X117925259Y-62654322D01*
X117993100Y-62559910D01*
X117996118Y-62555710D01*
X118095095Y-62355444D01*
X118160035Y-62141702D01*
X118189194Y-61920223D01*
X118190821Y-61853633D01*
X118172517Y-61630994D01*
X118118096Y-61414335D01*
X118029019Y-61209473D01*
X117907679Y-61021910D01*
X117888070Y-61000360D01*
X117760463Y-60860121D01*
X117729411Y-60796275D01*
X117737806Y-60725776D01*
X117782982Y-60671008D01*
X117809426Y-60657339D01*
X117915962Y-60617400D01*
X117924370Y-60614248D01*
X118040926Y-60526894D01*
X118128280Y-60410338D01*
X118179410Y-60273949D01*
X118186165Y-60211767D01*
X118186165Y-58415499D01*
X118179410Y-58353317D01*
X118128280Y-58216928D01*
X118040926Y-58100372D01*
X117924370Y-58013018D01*
X117787981Y-57961888D01*
X117725799Y-57955133D01*
X115929531Y-57955133D01*
X115867349Y-57961888D01*
X115730960Y-58013018D01*
X115614404Y-58100372D01*
X115527050Y-58216928D01*
X115475920Y-58353317D01*
X115469165Y-58415499D01*
X115469165Y-60211767D01*
X115475920Y-60273949D01*
X115527050Y-60410338D01*
X115614404Y-60526894D01*
X115730960Y-60614248D01*
X115739369Y-60617400D01*
X115739370Y-60617401D01*
X115848116Y-60658168D01*
X115904881Y-60700809D01*
X115929581Y-60767371D01*
X115914374Y-60836720D01*
X115894981Y-60863201D01*
X115768294Y-60995771D01*
X115765380Y-61000043D01*
X115765379Y-61000044D01*
X115753074Y-61018083D01*
X115642408Y-61180313D01*
X115548353Y-61382938D01*
X115488654Y-61598203D01*
X115464916Y-61820328D01*
X115465213Y-61825481D01*
X115465213Y-61825484D01*
X115470676Y-61920223D01*
X115477775Y-62043348D01*
X115478912Y-62048394D01*
X115478913Y-62048400D01*
X115492262Y-62107633D01*
X115526887Y-62261272D01*
X115610931Y-62468249D01*
X115727652Y-62658721D01*
X115873915Y-62827571D01*
X116045791Y-62970265D01*
X116116260Y-63011444D01*
X116119110Y-63013109D01*
X116167834Y-63064747D01*
X116180905Y-63134530D01*
X116154174Y-63200302D01*
X116113720Y-63233660D01*
X116101272Y-63240140D01*
X116097139Y-63243243D01*
X116097136Y-63243245D01*
X116072912Y-63261433D01*
X115922630Y-63374268D01*
X115768294Y-63535771D01*
X115642408Y-63720313D01*
X115548353Y-63922938D01*
X115488654Y-64138203D01*
X115464916Y-64360328D01*
X114977672Y-64360328D01*
X114977672Y-56941496D01*
X115932175Y-56941496D01*
X115941471Y-56953511D01*
X115992676Y-56989365D01*
X116002171Y-56994848D01*
X116199629Y-57086924D01*
X116209921Y-57090670D01*
X116420370Y-57147059D01*
X116431163Y-57148962D01*
X116648207Y-57167951D01*
X116659157Y-57167951D01*
X116876201Y-57148962D01*
X116886994Y-57147059D01*
X117097443Y-57090670D01*
X117107735Y-57086924D01*
X117305193Y-56994848D01*
X117314688Y-56989365D01*
X117366730Y-56952925D01*
X117375106Y-56942446D01*
X117368038Y-56929000D01*
X116666494Y-56227456D01*
X116652550Y-56219842D01*
X116650717Y-56219973D01*
X116644102Y-56224224D01*
X115938605Y-56929721D01*
X115932175Y-56941496D01*
X114977672Y-56941496D01*
X114977672Y-55860909D01*
X115341165Y-55860909D01*
X115360154Y-56077953D01*
X115362057Y-56088746D01*
X115418446Y-56299195D01*
X115422192Y-56309487D01*
X115514268Y-56506945D01*
X115519751Y-56516440D01*
X115556191Y-56568482D01*
X115566670Y-56576858D01*
X115580116Y-56569790D01*
X116281660Y-55868246D01*
X116288038Y-55856566D01*
X117018090Y-55856566D01*
X117018221Y-55858399D01*
X117022472Y-55865014D01*
X117727969Y-56570511D01*
X117739744Y-56576941D01*
X117751759Y-56567645D01*
X117787616Y-56516436D01*
X117794273Y-56504906D01*
X117845655Y-56455913D01*
X117915369Y-56442476D01*
X117981280Y-56468863D01*
X118012511Y-56504906D01*
X118013835Y-56507199D01*
X118016159Y-56512183D01*
X118147484Y-56699734D01*
X118309382Y-56861632D01*
X118313890Y-56864789D01*
X118313893Y-56864791D01*
X118392071Y-56919532D01*
X118496933Y-56992957D01*
X118501915Y-56995280D01*
X118501920Y-56995283D01*
X118642657Y-57060909D01*
X118704439Y-57089718D01*
X118709747Y-57091140D01*
X118709749Y-57091141D01*
X118920280Y-57147553D01*
X118920282Y-57147553D01*
X118925595Y-57148977D01*
X119153682Y-57168932D01*
X119381769Y-57148977D01*
X119387082Y-57147553D01*
X119387084Y-57147553D01*
X119597615Y-57091141D01*
X119597617Y-57091140D01*
X119602925Y-57089718D01*
X119664707Y-57060909D01*
X119805444Y-56995283D01*
X119805449Y-56995280D01*
X119810431Y-56992957D01*
X119915293Y-56919532D01*
X119993471Y-56864791D01*
X119993474Y-56864789D01*
X119997982Y-56861632D01*
X120159880Y-56699734D01*
X120291205Y-56512183D01*
X120293528Y-56507201D01*
X120293531Y-56507196D01*
X120385643Y-56309659D01*
X120385643Y-56309658D01*
X120387966Y-56304677D01*
X120408658Y-56227456D01*
X120445801Y-56088836D01*
X120445801Y-56088834D01*
X120447225Y-56083521D01*
X120467180Y-55855434D01*
X120447225Y-55627347D01*
X120443721Y-55614271D01*
X120389389Y-55411501D01*
X120389388Y-55411499D01*
X120387966Y-55406191D01*
X120374903Y-55378177D01*
X120293531Y-55203672D01*
X120293528Y-55203667D01*
X120291205Y-55198685D01*
X120159880Y-55011134D01*
X119997982Y-54849236D01*
X119993474Y-54846079D01*
X119993471Y-54846077D01*
X119882568Y-54768422D01*
X119810431Y-54717911D01*
X119805449Y-54715588D01*
X119805444Y-54715585D01*
X119607907Y-54623473D01*
X119607906Y-54623473D01*
X119602925Y-54621150D01*
X119597617Y-54619728D01*
X119597615Y-54619727D01*
X119387084Y-54563315D01*
X119387082Y-54563315D01*
X119381769Y-54561891D01*
X119153682Y-54541936D01*
X118925595Y-54561891D01*
X118920282Y-54563315D01*
X118920280Y-54563315D01*
X118709749Y-54619727D01*
X118709747Y-54619728D01*
X118704439Y-54621150D01*
X118699458Y-54623473D01*
X118699457Y-54623473D01*
X118501920Y-54715585D01*
X118501915Y-54715588D01*
X118496933Y-54717911D01*
X118424796Y-54768422D01*
X118313893Y-54846077D01*
X118313890Y-54846079D01*
X118309382Y-54849236D01*
X118147484Y-55011134D01*
X118016159Y-55198685D01*
X118013835Y-55203669D01*
X118012511Y-55205962D01*
X117961129Y-55254955D01*
X117891415Y-55268391D01*
X117825504Y-55242005D01*
X117794273Y-55205962D01*
X117787616Y-55194432D01*
X117751173Y-55142386D01*
X117740694Y-55134010D01*
X117727248Y-55141078D01*
X117025704Y-55842622D01*
X117018090Y-55856566D01*
X116288038Y-55856566D01*
X116289274Y-55854302D01*
X116289143Y-55852469D01*
X116284892Y-55845854D01*
X115579395Y-55140357D01*
X115567620Y-55133927D01*
X115555605Y-55143223D01*
X115519751Y-55194428D01*
X115514268Y-55203923D01*
X115422192Y-55401381D01*
X115418446Y-55411673D01*
X115362057Y-55622122D01*
X115360154Y-55632915D01*
X115341165Y-55849959D01*
X115341165Y-55860909D01*
X114977672Y-55860909D01*
X114977672Y-54768422D01*
X115932258Y-54768422D01*
X115939326Y-54781868D01*
X116640870Y-55483412D01*
X116654814Y-55491026D01*
X116656647Y-55490895D01*
X116663262Y-55486644D01*
X117368759Y-54781147D01*
X117375189Y-54769372D01*
X117365893Y-54757357D01*
X117314688Y-54721503D01*
X117305193Y-54716020D01*
X117107735Y-54623944D01*
X117097443Y-54620198D01*
X116886994Y-54563809D01*
X116876201Y-54561906D01*
X116659157Y-54542917D01*
X116648207Y-54542917D01*
X116431163Y-54561906D01*
X116420370Y-54563809D01*
X116209921Y-54620198D01*
X116199629Y-54623944D01*
X116002171Y-54716020D01*
X115992676Y-54721503D01*
X115940634Y-54757943D01*
X115932258Y-54768422D01*
X114977672Y-54768422D01*
X114977672Y-53901292D01*
X121240814Y-53901292D01*
X121254139Y-54104584D01*
X121304287Y-54302043D01*
X121389580Y-54487057D01*
X121507161Y-54653430D01*
X121511295Y-54657457D01*
X121553104Y-54698186D01*
X121587941Y-54760048D01*
X121591182Y-54788440D01*
X121591182Y-55138058D01*
X121589749Y-55157008D01*
X121587558Y-55171407D01*
X121587558Y-55171413D01*
X121586458Y-55178642D01*
X121587051Y-55185934D01*
X121587051Y-55185937D01*
X121590767Y-55231617D01*
X121591182Y-55241832D01*
X121591182Y-55249959D01*
X121594493Y-55278358D01*
X121594920Y-55282678D01*
X121600873Y-55355860D01*
X121603129Y-55362822D01*
X121604325Y-55368810D01*
X121605733Y-55374767D01*
X121606581Y-55382041D01*
X121609079Y-55388923D01*
X121609080Y-55388927D01*
X121631627Y-55451041D01*
X121633037Y-55455145D01*
X121655669Y-55525009D01*
X121659469Y-55531272D01*
X121662007Y-55536814D01*
X121664749Y-55542290D01*
X121667248Y-55549175D01*
X121671263Y-55555299D01*
X121707497Y-55610566D01*
X121709812Y-55614234D01*
X121747909Y-55677015D01*
X121751623Y-55681220D01*
X121751625Y-55681223D01*
X121755349Y-55685439D01*
X121755320Y-55685465D01*
X121757920Y-55688396D01*
X121760724Y-55691750D01*
X121764736Y-55697869D01*
X121770048Y-55702901D01*
X121821268Y-55751422D01*
X121823710Y-55753800D01*
X122766872Y-56696962D01*
X122779259Y-56711375D01*
X122792228Y-56728998D01*
X122797811Y-56733741D01*
X122832737Y-56763413D01*
X122840253Y-56770343D01*
X122845997Y-56776087D01*
X122848873Y-56778362D01*
X122848877Y-56778366D01*
X122868407Y-56793818D01*
X122871806Y-56796605D01*
X122896684Y-56817740D01*
X122927733Y-56844118D01*
X122934252Y-56847447D01*
X122939370Y-56850860D01*
X122944547Y-56854057D01*
X122950282Y-56858595D01*
X122956908Y-56861692D01*
X122956910Y-56861693D01*
X123016783Y-56889675D01*
X123020735Y-56891607D01*
X123079564Y-56921647D01*
X123079566Y-56921648D01*
X123086086Y-56924977D01*
X123093202Y-56926718D01*
X123098946Y-56928854D01*
X123104728Y-56930778D01*
X123111362Y-56933878D01*
X123183237Y-56948828D01*
X123187521Y-56949798D01*
X123258794Y-56967238D01*
X123264396Y-56967586D01*
X123264399Y-56967586D01*
X123270012Y-56967934D01*
X123270010Y-56967971D01*
X123273909Y-56968207D01*
X123278281Y-56968597D01*
X123285439Y-56970086D01*
X123338783Y-56968642D01*
X123407418Y-56986794D01*
X123455346Y-57039171D01*
X123467348Y-57109146D01*
X123443059Y-57170105D01*
X123428674Y-57189321D01*
X123325296Y-57378644D01*
X123323725Y-57382856D01*
X123251482Y-57576544D01*
X123251480Y-57576550D01*
X123249913Y-57580752D01*
X123248959Y-57585138D01*
X123248958Y-57585141D01*
X123240934Y-57622029D01*
X123204061Y-57791531D01*
X123203740Y-57796019D01*
X123191562Y-57966287D01*
X123190138Y-57978196D01*
X123187454Y-57994152D01*
X123187301Y-58006691D01*
X123190917Y-58031940D01*
X123191252Y-58034279D01*
X123192525Y-58052142D01*
X123192525Y-78362149D01*
X123190779Y-78383054D01*
X123187454Y-78402817D01*
X123187301Y-78415356D01*
X123189411Y-78430090D01*
X123190360Y-78438937D01*
X123204061Y-78630516D01*
X123223987Y-78722114D01*
X123242577Y-78807570D01*
X123249913Y-78841295D01*
X123251480Y-78845497D01*
X123251482Y-78845503D01*
X123274156Y-78906293D01*
X123325296Y-79043403D01*
X123428674Y-79232726D01*
X123557943Y-79405410D01*
X123710472Y-79557939D01*
X123883156Y-79687208D01*
X124072479Y-79790586D01*
X124076691Y-79792157D01*
X124270379Y-79864400D01*
X124270385Y-79864402D01*
X124274587Y-79865969D01*
X124278973Y-79866923D01*
X124278976Y-79866924D01*
X124403146Y-79893935D01*
X124485366Y-79911821D01*
X124489854Y-79912142D01*
X124660122Y-79924320D01*
X124672031Y-79925744D01*
X124687987Y-79928428D01*
X124694342Y-79928506D01*
X124695667Y-79928522D01*
X124695671Y-79928522D01*
X124700526Y-79928581D01*
X124728114Y-79924630D01*
X124745977Y-79923357D01*
X127263310Y-79923357D01*
X127284215Y-79925103D01*
X127299185Y-79927622D01*
X127299190Y-79927622D01*
X127303978Y-79928428D01*
X127310308Y-79928505D01*
X127311659Y-79928522D01*
X127311663Y-79928522D01*
X127316517Y-79928581D01*
X127331251Y-79926471D01*
X127340098Y-79925522D01*
X127488294Y-79914924D01*
X127527190Y-79912142D01*
X127527191Y-79912142D01*
X127531677Y-79911821D01*
X127680001Y-79879555D01*
X127738067Y-79866924D01*
X127738070Y-79866923D01*
X127742456Y-79865969D01*
X127746658Y-79864402D01*
X127746664Y-79864400D01*
X127940352Y-79792157D01*
X127944564Y-79790586D01*
X128133887Y-79687208D01*
X128306571Y-79557939D01*
X128459100Y-79405410D01*
X128588369Y-79232726D01*
X128691747Y-79043403D01*
X128742887Y-78906293D01*
X128765561Y-78845503D01*
X128765563Y-78845497D01*
X128767130Y-78841295D01*
X128774467Y-78807570D01*
X128812026Y-78634910D01*
X128812982Y-78630516D01*
X128814061Y-78615427D01*
X128825481Y-78455760D01*
X128826905Y-78443849D01*
X128827643Y-78439460D01*
X128829589Y-78427895D01*
X128829742Y-78415356D01*
X128825791Y-78387768D01*
X128824518Y-78369905D01*
X128824518Y-77361599D01*
X133857938Y-77361599D01*
X133888246Y-77496079D01*
X133891326Y-77505908D01*
X133971451Y-77703236D01*
X133976094Y-77712427D01*
X134087375Y-77894021D01*
X134093458Y-77902332D01*
X134232894Y-78063300D01*
X134240261Y-78070516D01*
X134404115Y-78206549D01*
X134412562Y-78212464D01*
X134596437Y-78319912D01*
X134605723Y-78324362D01*
X134804682Y-78400336D01*
X134814580Y-78403212D01*
X134917931Y-78424239D01*
X134931980Y-78423043D01*
X134935681Y-78412698D01*
X134935681Y-78412150D01*
X135443681Y-78412150D01*
X135447745Y-78425992D01*
X135461159Y-78428026D01*
X135467865Y-78427167D01*
X135477943Y-78425025D01*
X135681936Y-78363824D01*
X135691523Y-78360066D01*
X135882776Y-78266372D01*
X135891626Y-78261097D01*
X136065009Y-78137425D01*
X136072881Y-78130772D01*
X136223733Y-77980445D01*
X136230411Y-77972598D01*
X136354684Y-77799653D01*
X136359994Y-77790816D01*
X136454351Y-77599900D01*
X136458150Y-77590305D01*
X136520058Y-77386543D01*
X136522236Y-77376470D01*
X136523667Y-77365595D01*
X136521456Y-77351411D01*
X136508298Y-77347633D01*
X135461796Y-77347633D01*
X135446557Y-77352108D01*
X135445352Y-77353498D01*
X135443681Y-77361181D01*
X135443681Y-78412150D01*
X134935681Y-78412150D01*
X134935681Y-77365748D01*
X134931206Y-77350509D01*
X134929816Y-77349304D01*
X134922133Y-77347633D01*
X133872906Y-77347633D01*
X133859375Y-77351606D01*
X133857938Y-77361599D01*
X128824518Y-77361599D01*
X128824518Y-74520328D01*
X133826932Y-74520328D01*
X133827229Y-74525481D01*
X133827229Y-74525484D01*
X133832692Y-74620223D01*
X133839791Y-74743348D01*
X133840928Y-74748394D01*
X133840929Y-74748400D01*
X133854278Y-74807633D01*
X133888903Y-74961272D01*
X133972947Y-75168249D01*
X134089668Y-75358721D01*
X134235931Y-75527571D01*
X134407807Y-75670265D01*
X134480659Y-75712836D01*
X134481636Y-75713407D01*
X134530360Y-75765045D01*
X134543431Y-75834828D01*
X134516700Y-75900600D01*
X134476243Y-75933960D01*
X134468138Y-75938179D01*
X134459419Y-75943669D01*
X134289114Y-76071538D01*
X134281407Y-76078381D01*
X134134271Y-76232350D01*
X134127785Y-76240360D01*
X134007779Y-76416282D01*
X134002681Y-76425256D01*
X133913019Y-76618416D01*
X133909456Y-76628103D01*
X133854070Y-76827816D01*
X133855593Y-76836240D01*
X133867973Y-76839633D01*
X136508025Y-76839633D01*
X136521556Y-76835660D01*
X136522861Y-76826580D01*
X136480895Y-76659508D01*
X136477575Y-76649757D01*
X136392653Y-76454447D01*
X136387786Y-76445372D01*
X136272107Y-76266559D01*
X136265817Y-76258390D01*
X136122487Y-76100873D01*
X136114954Y-76093848D01*
X135947820Y-75961855D01*
X135939237Y-75956153D01*
X135902283Y-75935753D01*
X135852312Y-75885320D01*
X135837540Y-75815878D01*
X135862656Y-75749472D01*
X135890008Y-75722865D01*
X135913478Y-75706124D01*
X136069541Y-75594806D01*
X136227777Y-75437122D01*
X136287275Y-75354322D01*
X136355116Y-75259910D01*
X136358134Y-75255710D01*
X136457111Y-75055444D01*
X136522051Y-74841702D01*
X136551210Y-74620223D01*
X136552837Y-74553633D01*
X136534533Y-74330994D01*
X136480112Y-74114335D01*
X136391035Y-73909473D01*
X136269695Y-73721910D01*
X136119351Y-73556684D01*
X136115300Y-73553485D01*
X136115296Y-73553481D01*
X135948095Y-73421433D01*
X135948091Y-73421431D01*
X135944040Y-73418231D01*
X135902250Y-73395162D01*
X135852279Y-73344730D01*
X135837507Y-73275287D01*
X135862623Y-73208881D01*
X135889975Y-73182274D01*
X136065009Y-73057425D01*
X136072881Y-73050772D01*
X136223733Y-72900445D01*
X136230411Y-72892598D01*
X136354684Y-72719653D01*
X136359994Y-72710816D01*
X136454351Y-72519900D01*
X136458150Y-72510305D01*
X136520058Y-72306543D01*
X136522236Y-72296470D01*
X136523667Y-72285595D01*
X136521456Y-72271411D01*
X136508298Y-72267633D01*
X133872906Y-72267633D01*
X133859375Y-72271606D01*
X133857938Y-72281599D01*
X133888246Y-72416079D01*
X133891326Y-72425908D01*
X133971451Y-72623236D01*
X133976094Y-72632427D01*
X134087375Y-72814021D01*
X134093458Y-72822332D01*
X134232894Y-72983300D01*
X134240261Y-72990516D01*
X134404115Y-73126549D01*
X134412562Y-73132464D01*
X134481650Y-73172836D01*
X134530374Y-73224475D01*
X134543445Y-73294258D01*
X134516714Y-73360029D01*
X134476265Y-73393385D01*
X134463288Y-73400140D01*
X134459155Y-73403243D01*
X134459152Y-73403245D01*
X134434928Y-73421433D01*
X134284646Y-73534268D01*
X134130310Y-73695771D01*
X134127396Y-73700043D01*
X134127395Y-73700044D01*
X134115085Y-73718090D01*
X134004424Y-73880313D01*
X133910369Y-74082938D01*
X133850670Y-74298203D01*
X133826932Y-74520328D01*
X128824518Y-74520328D01*
X128824518Y-69165509D01*
X128844520Y-69097388D01*
X128898176Y-69050895D01*
X128968450Y-69040791D01*
X129033030Y-69070285D01*
X129039613Y-69076414D01*
X129368403Y-69405204D01*
X129402429Y-69467516D01*
X129405037Y-69486054D01*
X129415639Y-69647796D01*
X129465787Y-69845255D01*
X129551080Y-70030269D01*
X129668661Y-70196642D01*
X129814592Y-70338802D01*
X129819388Y-70342007D01*
X129819391Y-70342009D01*
X129847469Y-70360770D01*
X129983985Y-70451987D01*
X129989288Y-70454265D01*
X129989291Y-70454267D01*
X130078297Y-70492507D01*
X130171169Y-70532408D01*
X130243999Y-70548888D01*
X130364237Y-70576095D01*
X130364242Y-70576096D01*
X130369874Y-70577370D01*
X130375645Y-70577597D01*
X130375647Y-70577597D01*
X130438652Y-70580072D01*
X130573445Y-70585368D01*
X130775065Y-70556135D01*
X130780529Y-70554280D01*
X130780534Y-70554279D01*
X130962509Y-70492507D01*
X130962514Y-70492505D01*
X130967981Y-70490649D01*
X131145733Y-70391103D01*
X131302368Y-70260831D01*
X131432640Y-70104196D01*
X131532186Y-69926444D01*
X131534042Y-69920977D01*
X131534044Y-69920972D01*
X131595816Y-69738997D01*
X131595817Y-69738992D01*
X131597672Y-69733528D01*
X131626905Y-69531908D01*
X131628431Y-69473645D01*
X131625370Y-69440328D01*
X133826932Y-69440328D01*
X133827229Y-69445481D01*
X133827229Y-69445484D01*
X133832692Y-69540223D01*
X133839791Y-69663348D01*
X133840928Y-69668394D01*
X133840929Y-69668400D01*
X133854278Y-69727633D01*
X133888903Y-69881272D01*
X133972947Y-70088249D01*
X134089668Y-70278721D01*
X134235931Y-70447571D01*
X134383291Y-70569912D01*
X134401909Y-70585368D01*
X134407807Y-70590265D01*
X134480659Y-70632836D01*
X134481636Y-70633407D01*
X134530360Y-70685045D01*
X134543431Y-70754828D01*
X134516700Y-70820600D01*
X134476243Y-70853960D01*
X134468138Y-70858179D01*
X134459419Y-70863669D01*
X134289114Y-70991538D01*
X134281407Y-70998381D01*
X134134271Y-71152350D01*
X134127785Y-71160360D01*
X134007779Y-71336282D01*
X134002681Y-71345256D01*
X133913019Y-71538416D01*
X133909456Y-71548103D01*
X133854070Y-71747816D01*
X133855593Y-71756240D01*
X133867973Y-71759633D01*
X136508025Y-71759633D01*
X136521556Y-71755660D01*
X136522861Y-71746580D01*
X136480895Y-71579508D01*
X136477575Y-71569757D01*
X136392653Y-71374447D01*
X136387786Y-71365372D01*
X136272107Y-71186559D01*
X136265817Y-71178390D01*
X136122487Y-71020873D01*
X136114954Y-71013848D01*
X135947820Y-70881855D01*
X135939237Y-70876153D01*
X135902283Y-70855753D01*
X135852312Y-70805320D01*
X135837540Y-70735878D01*
X135862656Y-70669472D01*
X135890008Y-70642865D01*
X135913478Y-70626124D01*
X136069541Y-70514806D01*
X136096617Y-70487825D01*
X136224116Y-70360770D01*
X136227777Y-70357122D01*
X136287275Y-70274322D01*
X136355116Y-70179910D01*
X136358134Y-70175710D01*
X136457111Y-69975444D01*
X136522051Y-69761702D01*
X136551210Y-69540223D01*
X136551292Y-69536873D01*
X136552755Y-69476998D01*
X136552755Y-69476994D01*
X136552837Y-69473633D01*
X136534533Y-69250994D01*
X136480112Y-69034335D01*
X136391035Y-68829473D01*
X136269695Y-68641910D01*
X136119351Y-68476684D01*
X136115300Y-68473485D01*
X136115296Y-68473481D01*
X135948095Y-68341433D01*
X135948091Y-68341431D01*
X135944040Y-68338231D01*
X135926132Y-68328345D01*
X135906951Y-68317757D01*
X135902250Y-68315162D01*
X135852279Y-68264730D01*
X135837507Y-68195287D01*
X135862623Y-68128881D01*
X135889975Y-68102274D01*
X136065009Y-67977425D01*
X136072881Y-67970772D01*
X136223733Y-67820445D01*
X136230411Y-67812598D01*
X136354684Y-67639653D01*
X136359994Y-67630816D01*
X136454351Y-67439900D01*
X136458150Y-67430305D01*
X136520058Y-67226543D01*
X136522236Y-67216470D01*
X136523667Y-67205595D01*
X136521456Y-67191411D01*
X136508298Y-67187633D01*
X133872906Y-67187633D01*
X133859375Y-67191606D01*
X133857938Y-67201599D01*
X133888246Y-67336079D01*
X133891326Y-67345908D01*
X133971451Y-67543236D01*
X133976094Y-67552427D01*
X134087375Y-67734021D01*
X134093458Y-67742332D01*
X134232894Y-67903300D01*
X134240261Y-67910516D01*
X134404115Y-68046549D01*
X134412562Y-68052464D01*
X134481650Y-68092836D01*
X134530374Y-68144475D01*
X134543445Y-68214258D01*
X134516714Y-68280029D01*
X134476265Y-68313385D01*
X134463288Y-68320140D01*
X134459155Y-68323243D01*
X134459152Y-68323245D01*
X134288781Y-68451163D01*
X134284646Y-68454268D01*
X134130310Y-68615771D01*
X134127396Y-68620043D01*
X134127395Y-68620044D01*
X134050096Y-68733360D01*
X134004424Y-68800313D01*
X133910369Y-69002938D01*
X133850670Y-69218203D01*
X133826932Y-69440328D01*
X131625370Y-69440328D01*
X131609790Y-69270771D01*
X131594556Y-69216757D01*
X131556057Y-69080251D01*
X131556056Y-69080249D01*
X131554489Y-69074692D01*
X131537139Y-69039508D01*
X131466938Y-68897155D01*
X131464383Y-68891974D01*
X131421426Y-68834447D01*
X131345940Y-68733360D01*
X131345940Y-68733359D01*
X131342487Y-68728736D01*
X131248559Y-68641910D01*
X131197125Y-68594364D01*
X131197122Y-68594362D01*
X131192885Y-68590445D01*
X131146857Y-68561404D01*
X131025470Y-68484814D01*
X131025465Y-68484812D01*
X131020586Y-68481733D01*
X130831362Y-68406240D01*
X130631548Y-68366494D01*
X130625773Y-68366418D01*
X130625769Y-68366418D01*
X130535666Y-68365239D01*
X130467813Y-68344347D01*
X130448220Y-68328345D01*
X129953087Y-67833212D01*
X129919061Y-67770900D01*
X129916182Y-67744117D01*
X129916182Y-65338451D01*
X129936184Y-65270330D01*
X129989840Y-65223837D01*
X130060114Y-65213733D01*
X130124694Y-65243227D01*
X130130103Y-65248196D01*
X130153092Y-65270591D01*
X130157888Y-65273796D01*
X130157891Y-65273798D01*
X130225831Y-65319194D01*
X130322485Y-65383776D01*
X130327788Y-65386054D01*
X130327791Y-65386056D01*
X130416797Y-65424296D01*
X130509669Y-65464197D01*
X130582499Y-65480677D01*
X130702737Y-65507884D01*
X130702742Y-65507885D01*
X130708374Y-65509159D01*
X130714145Y-65509386D01*
X130714147Y-65509386D01*
X130777152Y-65511861D01*
X130911945Y-65517157D01*
X131113565Y-65487924D01*
X131119029Y-65486069D01*
X131119034Y-65486068D01*
X131301009Y-65424296D01*
X131301014Y-65424294D01*
X131306481Y-65422438D01*
X131484233Y-65322892D01*
X131640868Y-65192620D01*
X131771140Y-65035985D01*
X131870686Y-64858233D01*
X131872542Y-64852766D01*
X131872544Y-64852761D01*
X131934316Y-64670786D01*
X131934317Y-64670781D01*
X131936172Y-64665317D01*
X131965405Y-64463697D01*
X131966931Y-64405434D01*
X131962786Y-64360328D01*
X133826932Y-64360328D01*
X133827229Y-64365481D01*
X133827229Y-64365484D01*
X133832678Y-64459989D01*
X133839791Y-64583348D01*
X133840928Y-64588394D01*
X133840929Y-64588400D01*
X133856976Y-64659603D01*
X133888903Y-64801272D01*
X133972947Y-65008249D01*
X133975646Y-65012653D01*
X134083210Y-65188182D01*
X134089668Y-65198721D01*
X134235931Y-65367571D01*
X134407807Y-65510265D01*
X134481636Y-65553407D01*
X134530360Y-65605045D01*
X134543431Y-65674828D01*
X134516700Y-65740600D01*
X134476243Y-65773960D01*
X134468138Y-65778179D01*
X134459419Y-65783669D01*
X134289114Y-65911538D01*
X134281407Y-65918381D01*
X134134271Y-66072350D01*
X134127785Y-66080360D01*
X134007779Y-66256282D01*
X134002681Y-66265256D01*
X133913019Y-66458416D01*
X133909456Y-66468103D01*
X133854070Y-66667816D01*
X133855593Y-66676240D01*
X133867973Y-66679633D01*
X136508025Y-66679633D01*
X136521556Y-66675660D01*
X136522861Y-66666580D01*
X136480895Y-66499508D01*
X136477575Y-66489757D01*
X136392653Y-66294447D01*
X136387786Y-66285372D01*
X136272107Y-66106559D01*
X136265817Y-66098390D01*
X136122487Y-65940873D01*
X136114954Y-65933848D01*
X135947820Y-65801855D01*
X135939237Y-65796153D01*
X135902283Y-65775753D01*
X135852312Y-65725320D01*
X135837540Y-65655878D01*
X135862656Y-65589472D01*
X135890008Y-65562865D01*
X135954088Y-65517157D01*
X136069541Y-65434806D01*
X136081953Y-65422438D01*
X136224116Y-65280770D01*
X136227777Y-65277122D01*
X136287275Y-65194322D01*
X136355116Y-65099910D01*
X136358134Y-65095710D01*
X136385455Y-65040431D01*
X136454817Y-64900086D01*
X136454818Y-64900084D01*
X136457111Y-64895444D01*
X136522051Y-64681702D01*
X136551210Y-64460223D01*
X136552837Y-64393633D01*
X136534533Y-64170994D01*
X136480112Y-63954335D01*
X136391035Y-63749473D01*
X136294738Y-63600620D01*
X136272503Y-63566250D01*
X136272501Y-63566247D01*
X136269695Y-63561910D01*
X136119351Y-63396684D01*
X136115300Y-63393485D01*
X136115296Y-63393481D01*
X135948095Y-63261433D01*
X135948091Y-63261431D01*
X135944040Y-63258231D01*
X135902250Y-63235162D01*
X135852279Y-63184730D01*
X135837507Y-63115287D01*
X135862623Y-63048881D01*
X135889975Y-63022274D01*
X136065009Y-62897425D01*
X136072881Y-62890772D01*
X136223733Y-62740445D01*
X136230411Y-62732598D01*
X136354684Y-62559653D01*
X136359994Y-62550816D01*
X136454351Y-62359900D01*
X136458150Y-62350305D01*
X136520058Y-62146543D01*
X136522236Y-62136470D01*
X136523667Y-62125595D01*
X136521456Y-62111411D01*
X136508298Y-62107633D01*
X133872906Y-62107633D01*
X133859375Y-62111606D01*
X133857938Y-62121599D01*
X133888246Y-62256079D01*
X133891326Y-62265908D01*
X133971451Y-62463236D01*
X133976094Y-62472427D01*
X134087375Y-62654021D01*
X134093458Y-62662332D01*
X134232894Y-62823300D01*
X134240261Y-62830516D01*
X134404115Y-62966549D01*
X134412562Y-62972464D01*
X134481650Y-63012836D01*
X134530374Y-63064475D01*
X134543445Y-63134258D01*
X134516714Y-63200029D01*
X134476265Y-63233385D01*
X134463288Y-63240140D01*
X134459155Y-63243243D01*
X134459152Y-63243245D01*
X134434928Y-63261433D01*
X134284646Y-63374268D01*
X134130310Y-63535771D01*
X134004424Y-63720313D01*
X133910369Y-63922938D01*
X133850670Y-64138203D01*
X133826932Y-64360328D01*
X131962786Y-64360328D01*
X131948290Y-64202560D01*
X131892989Y-64006481D01*
X131869749Y-63959353D01*
X131805438Y-63828944D01*
X131802883Y-63823763D01*
X131784478Y-63799115D01*
X131684440Y-63665149D01*
X131684440Y-63665148D01*
X131680987Y-63660525D01*
X131656653Y-63638031D01*
X131620208Y-63577103D01*
X131616182Y-63545506D01*
X131616182Y-59280328D01*
X133826932Y-59280328D01*
X133827229Y-59285481D01*
X133827229Y-59285484D01*
X133832692Y-59380223D01*
X133839791Y-59503348D01*
X133840928Y-59508394D01*
X133840929Y-59508400D01*
X133860800Y-59596572D01*
X133888903Y-59721272D01*
X133972947Y-59928249D01*
X134089668Y-60118721D01*
X134235931Y-60287571D01*
X134407807Y-60430265D01*
X134481636Y-60473407D01*
X134530360Y-60525045D01*
X134543431Y-60594828D01*
X134516700Y-60660600D01*
X134476243Y-60693960D01*
X134468138Y-60698179D01*
X134459419Y-60703669D01*
X134289114Y-60831538D01*
X134281407Y-60838381D01*
X134134271Y-60992350D01*
X134127785Y-61000360D01*
X134007779Y-61176282D01*
X134002681Y-61185256D01*
X133913019Y-61378416D01*
X133909456Y-61388103D01*
X133854070Y-61587816D01*
X133855593Y-61596240D01*
X133867973Y-61599633D01*
X136508025Y-61599633D01*
X136521556Y-61595660D01*
X136522861Y-61586580D01*
X136480895Y-61419508D01*
X136477575Y-61409757D01*
X136392653Y-61214447D01*
X136387786Y-61205372D01*
X136272107Y-61026559D01*
X136265817Y-61018390D01*
X136122487Y-60860873D01*
X136114954Y-60853848D01*
X135947820Y-60721855D01*
X135939237Y-60716153D01*
X135902283Y-60695753D01*
X135852312Y-60645320D01*
X135837540Y-60575878D01*
X135862656Y-60509472D01*
X135890008Y-60482865D01*
X135913478Y-60466124D01*
X136069541Y-60354806D01*
X136227777Y-60197122D01*
X136287275Y-60114322D01*
X136355116Y-60019910D01*
X136358134Y-60015710D01*
X136457111Y-59815444D01*
X136522051Y-59601702D01*
X136551210Y-59380223D01*
X136552837Y-59313633D01*
X136534533Y-59090994D01*
X136480112Y-58874335D01*
X136391035Y-58669473D01*
X136269695Y-58481910D01*
X136119351Y-58316684D01*
X136115300Y-58313485D01*
X136115296Y-58313481D01*
X135948095Y-58181433D01*
X135948091Y-58181431D01*
X135944040Y-58178231D01*
X135748470Y-58070271D01*
X135743601Y-58068547D01*
X135743597Y-58068545D01*
X135542768Y-57997428D01*
X135542764Y-57997427D01*
X135537893Y-57995702D01*
X135532800Y-57994795D01*
X135532797Y-57994794D01*
X135323054Y-57957433D01*
X135323048Y-57957432D01*
X135317965Y-57956527D01*
X135244133Y-57955625D01*
X135099762Y-57953861D01*
X135099760Y-57953861D01*
X135094592Y-57953798D01*
X134873772Y-57987588D01*
X134661437Y-58056990D01*
X134463288Y-58160140D01*
X134459155Y-58163243D01*
X134459152Y-58163245D01*
X134288781Y-58291163D01*
X134284646Y-58294268D01*
X134130310Y-58455771D01*
X134004424Y-58640313D01*
X133910369Y-58842938D01*
X133850670Y-59058203D01*
X133826932Y-59280328D01*
X131616182Y-59280328D01*
X131616182Y-52372810D01*
X131617615Y-52353860D01*
X131619806Y-52339461D01*
X131619806Y-52339455D01*
X131620906Y-52332226D01*
X131619832Y-52319013D01*
X131616597Y-52279251D01*
X131616182Y-52269036D01*
X131616182Y-52260909D01*
X131612871Y-52232510D01*
X131612442Y-52228170D01*
X131609787Y-52195521D01*
X131606491Y-52155008D01*
X131604235Y-52148046D01*
X131603039Y-52142058D01*
X131601631Y-52136102D01*
X131600783Y-52128827D01*
X131587946Y-52093461D01*
X131584346Y-52083543D01*
X131579905Y-52012686D01*
X131614477Y-51950676D01*
X131677087Y-51917200D01*
X131747855Y-51922889D01*
X131768245Y-51932890D01*
X131952921Y-52045175D01*
X131958911Y-52048387D01*
X132272317Y-52195197D01*
X132278621Y-52197744D01*
X132606044Y-52309845D01*
X132612595Y-52311699D01*
X132950199Y-52387781D01*
X132956918Y-52388918D01*
X133300773Y-52428096D01*
X133307563Y-52428499D01*
X133653633Y-52430311D01*
X133660434Y-52429979D01*
X134004680Y-52394405D01*
X134011408Y-52393339D01*
X134349804Y-52320792D01*
X134356353Y-52319013D01*
X134684938Y-52210344D01*
X134691280Y-52207858D01*
X135006183Y-52064349D01*
X135012237Y-52061184D01*
X135309788Y-51884512D01*
X135315469Y-51880709D01*
X135592207Y-51672928D01*
X135597431Y-51668544D01*
X135603898Y-51662492D01*
X135611967Y-51648812D01*
X135611940Y-51648088D01*
X135606796Y-51639785D01*
X133139582Y-49172571D01*
X133862068Y-49172571D01*
X133862199Y-49174404D01*
X133866450Y-49181019D01*
X135961213Y-51275782D01*
X135974810Y-51283207D01*
X135984421Y-51276507D01*
X136080505Y-51164799D01*
X136084663Y-51159399D01*
X136280683Y-50874190D01*
X136284230Y-50868379D01*
X136448294Y-50563677D01*
X136451201Y-50557499D01*
X136581404Y-50236850D01*
X136583618Y-50230420D01*
X136678429Y-49897582D01*
X136679936Y-49890952D01*
X136738250Y-49549801D01*
X136739030Y-49543061D01*
X136760255Y-49196015D01*
X136760371Y-49192412D01*
X136760439Y-49173258D01*
X136760347Y-49169633D01*
X136741545Y-48822462D01*
X136740810Y-48815696D01*
X136684884Y-48474177D01*
X136683417Y-48467505D01*
X136590938Y-48134036D01*
X136588764Y-48127573D01*
X136460803Y-47806022D01*
X136457950Y-47799848D01*
X136296003Y-47493984D01*
X136292509Y-47488167D01*
X136098473Y-47201579D01*
X136094359Y-47196160D01*
X135985750Y-47068092D01*
X135972925Y-47059656D01*
X135962600Y-47065709D01*
X133869682Y-49158627D01*
X133862068Y-49172571D01*
X133139582Y-49172571D01*
X131034117Y-47067106D01*
X131020580Y-47059714D01*
X131010879Y-47066502D01*
X130907880Y-47187098D01*
X130903726Y-47192531D01*
X130708716Y-47478404D01*
X130705181Y-47484241D01*
X130542178Y-47789519D01*
X130539302Y-47795688D01*
X130410218Y-48116794D01*
X130408025Y-48123234D01*
X130314374Y-48456407D01*
X130312891Y-48463042D01*
X130255772Y-48804375D01*
X130255013Y-48811147D01*
X130235091Y-49156651D01*
X130235067Y-49163446D01*
X130252577Y-49509098D01*
X130253287Y-49515854D01*
X130308023Y-49857580D01*
X130309460Y-49864228D01*
X130313246Y-49878067D01*
X130311927Y-49949051D01*
X130272440Y-50008054D01*
X130207323Y-50036342D01*
X130137249Y-50024935D01*
X130124476Y-50017875D01*
X130048084Y-49969675D01*
X129959086Y-49913522D01*
X129769862Y-49838029D01*
X129570048Y-49798283D01*
X129564274Y-49798207D01*
X129564270Y-49798207D01*
X129461134Y-49796858D01*
X129366337Y-49795617D01*
X129360640Y-49796596D01*
X129360639Y-49796596D01*
X129179781Y-49827673D01*
X129165552Y-49830118D01*
X128974416Y-49900632D01*
X128969455Y-49903584D01*
X128969454Y-49903584D01*
X128858366Y-49969675D01*
X128799331Y-50004797D01*
X128646160Y-50139124D01*
X128642593Y-50143649D01*
X128642588Y-50143654D01*
X128569119Y-50236850D01*
X128520033Y-50299115D01*
X128517342Y-50304231D01*
X128517340Y-50304233D01*
X128458088Y-50416852D01*
X128408669Y-50467825D01*
X128339536Y-50483988D01*
X128272640Y-50460209D01*
X128253387Y-50442985D01*
X128211825Y-50397309D01*
X128211815Y-50397300D01*
X128208343Y-50393484D01*
X128204292Y-50390285D01*
X128204288Y-50390281D01*
X128037087Y-50258233D01*
X128037083Y-50258231D01*
X128033032Y-50255031D01*
X127991726Y-50232229D01*
X127941757Y-50181797D01*
X127926985Y-50112354D01*
X127952101Y-50045949D01*
X127979453Y-50019342D01*
X128023276Y-49988083D01*
X128158533Y-49891606D01*
X128172120Y-49878067D01*
X128313108Y-49737570D01*
X128316769Y-49733922D01*
X128447126Y-49552510D01*
X128460668Y-49525111D01*
X128543809Y-49356886D01*
X128543810Y-49356884D01*
X128546103Y-49352244D01*
X128593569Y-49196015D01*
X128609538Y-49143456D01*
X128609538Y-49143454D01*
X128611043Y-49138502D01*
X128640202Y-48917023D01*
X128641829Y-48850433D01*
X128623525Y-48627794D01*
X128569104Y-48411135D01*
X128480027Y-48206273D01*
X128358687Y-48018710D01*
X128208343Y-47853484D01*
X128204292Y-47850285D01*
X128204288Y-47850281D01*
X128037087Y-47718233D01*
X128037083Y-47718231D01*
X128033032Y-47715031D01*
X127996701Y-47694975D01*
X127980809Y-47686202D01*
X127837462Y-47607071D01*
X127832593Y-47605347D01*
X127832589Y-47605345D01*
X127631760Y-47534228D01*
X127631756Y-47534227D01*
X127626885Y-47532502D01*
X127621792Y-47531595D01*
X127621789Y-47531594D01*
X127412046Y-47494233D01*
X127412040Y-47494232D01*
X127406957Y-47493327D01*
X127333125Y-47492425D01*
X127188754Y-47490661D01*
X127188752Y-47490661D01*
X127183584Y-47490598D01*
X126962764Y-47524388D01*
X126750429Y-47593790D01*
X126552280Y-47696940D01*
X126548147Y-47700043D01*
X126548144Y-47700045D01*
X126377773Y-47827963D01*
X126373638Y-47831068D01*
X126219302Y-47992571D01*
X126216388Y-47996843D01*
X126216387Y-47996844D01*
X126204077Y-48014890D01*
X126127203Y-48127584D01*
X126111571Y-48150499D01*
X126056660Y-48195502D01*
X125986135Y-48203673D01*
X125922388Y-48172419D01*
X125901691Y-48147935D01*
X125821099Y-48023359D01*
X125814809Y-48015190D01*
X125671479Y-47857673D01*
X125663946Y-47850648D01*
X125496812Y-47718655D01*
X125488225Y-47712950D01*
X125301790Y-47610032D01*
X125292378Y-47605802D01*
X125091632Y-47534713D01*
X125081661Y-47532079D01*
X125010510Y-47519405D01*
X124997213Y-47520865D01*
X124992673Y-47535422D01*
X124992673Y-48978433D01*
X124972671Y-49046554D01*
X124919015Y-49093047D01*
X124866673Y-49104433D01*
X123421898Y-49104433D01*
X123408367Y-49108406D01*
X123406930Y-49118399D01*
X123437238Y-49252879D01*
X123440318Y-49262708D01*
X123520443Y-49460036D01*
X123525086Y-49469227D01*
X123636367Y-49650821D01*
X123642450Y-49659132D01*
X123781886Y-49820100D01*
X123789253Y-49827316D01*
X123953107Y-49963349D01*
X123961554Y-49969264D01*
X124030642Y-50009636D01*
X124079366Y-50061275D01*
X124092437Y-50131058D01*
X124065706Y-50196829D01*
X124025257Y-50230185D01*
X124012280Y-50236940D01*
X124008147Y-50240043D01*
X124008144Y-50240045D01*
X123922654Y-50304233D01*
X123833638Y-50371068D01*
X123679302Y-50532571D01*
X123553416Y-50717113D01*
X123506389Y-50818425D01*
X123466001Y-50905434D01*
X123459361Y-50919738D01*
X123399662Y-51135003D01*
X123375924Y-51357128D01*
X123388783Y-51580148D01*
X123389920Y-51585194D01*
X123389921Y-51585200D01*
X123404257Y-51648812D01*
X123437895Y-51798072D01*
X123521939Y-52005049D01*
X123570040Y-52083543D01*
X123635964Y-52191121D01*
X123638660Y-52195521D01*
X123784923Y-52364371D01*
X123956799Y-52507065D01*
X124017869Y-52542751D01*
X124030118Y-52549909D01*
X124078842Y-52601547D01*
X124091913Y-52671330D01*
X124065182Y-52737102D01*
X124024728Y-52770460D01*
X124012280Y-52776940D01*
X124008147Y-52780043D01*
X124008144Y-52780045D01*
X123899122Y-52861901D01*
X123833638Y-52911068D01*
X123807403Y-52938521D01*
X123703516Y-53047233D01*
X123679302Y-53072571D01*
X123553416Y-53257113D01*
X123551240Y-53261802D01*
X123551236Y-53261808D01*
X123519901Y-53329315D01*
X123473077Y-53382682D01*
X123404833Y-53402263D01*
X123336838Y-53381839D01*
X123303914Y-53347992D01*
X123302883Y-53348762D01*
X123184440Y-53190148D01*
X123184440Y-53190147D01*
X123180987Y-53185524D01*
X123063418Y-53076844D01*
X123035625Y-53051152D01*
X123035622Y-53051150D01*
X123031385Y-53047233D01*
X122970954Y-53009104D01*
X122863970Y-52941602D01*
X122863965Y-52941600D01*
X122859086Y-52938521D01*
X122669862Y-52863028D01*
X122470048Y-52823282D01*
X122464274Y-52823206D01*
X122464270Y-52823206D01*
X122361134Y-52821857D01*
X122266337Y-52820616D01*
X122260640Y-52821595D01*
X122260639Y-52821595D01*
X122190029Y-52833728D01*
X122065552Y-52855117D01*
X121874416Y-52925631D01*
X121869455Y-52928583D01*
X121869454Y-52928583D01*
X121812079Y-52962718D01*
X121699331Y-53029796D01*
X121546160Y-53164123D01*
X121542593Y-53168648D01*
X121542588Y-53168653D01*
X121472852Y-53257113D01*
X121420033Y-53324114D01*
X121417344Y-53329225D01*
X121417342Y-53329228D01*
X121407470Y-53347992D01*
X121325174Y-53504411D01*
X121264760Y-53698976D01*
X121240814Y-53901292D01*
X114977672Y-53901292D01*
X114977672Y-51650839D01*
X116405202Y-51650839D01*
X116413339Y-51661845D01*
X116673599Y-51861549D01*
X116679198Y-51865383D01*
X116974922Y-52045186D01*
X116980912Y-52048398D01*
X117294318Y-52195208D01*
X117300622Y-52197755D01*
X117628045Y-52309856D01*
X117634596Y-52311710D01*
X117972200Y-52387792D01*
X117978919Y-52388929D01*
X118322774Y-52428107D01*
X118329564Y-52428510D01*
X118675634Y-52430322D01*
X118682435Y-52429990D01*
X119026681Y-52394416D01*
X119033409Y-52393350D01*
X119371805Y-52320803D01*
X119378354Y-52319024D01*
X119706939Y-52210355D01*
X119713281Y-52207869D01*
X120028184Y-52064360D01*
X120034238Y-52061195D01*
X120331789Y-51884523D01*
X120337470Y-51880720D01*
X120614208Y-51672939D01*
X120619432Y-51668555D01*
X120625899Y-51662503D01*
X120633968Y-51648823D01*
X120633941Y-51648099D01*
X120628797Y-51639796D01*
X118532473Y-49543472D01*
X118518529Y-49535858D01*
X118516696Y-49535989D01*
X118510081Y-49540240D01*
X116412083Y-51638238D01*
X116405202Y-51650839D01*
X114977672Y-51650839D01*
X114977672Y-49163457D01*
X115257068Y-49163457D01*
X115274578Y-49509109D01*
X115275288Y-49515865D01*
X115330024Y-49857591D01*
X115331463Y-49864246D01*
X115422783Y-50198054D01*
X115424932Y-50204515D01*
X115551771Y-50526517D01*
X115554602Y-50532700D01*
X115715476Y-50839120D01*
X115718959Y-50844963D01*
X115911982Y-51132211D01*
X115916085Y-51137655D01*
X116031572Y-51274801D01*
X116044311Y-51283244D01*
X116054755Y-51277146D01*
X118147639Y-49184262D01*
X118154017Y-49172582D01*
X118884069Y-49172582D01*
X118884200Y-49174415D01*
X118888451Y-49181030D01*
X120983214Y-51275793D01*
X120996811Y-51283218D01*
X121006422Y-51276518D01*
X121102506Y-51164810D01*
X121106664Y-51159410D01*
X121302684Y-50874201D01*
X121306231Y-50868390D01*
X121470295Y-50563688D01*
X121473202Y-50557510D01*
X121603405Y-50236861D01*
X121605619Y-50230431D01*
X121700430Y-49897593D01*
X121701937Y-49890963D01*
X121760251Y-49549812D01*
X121761031Y-49543072D01*
X121782256Y-49196026D01*
X121782372Y-49192423D01*
X121782440Y-49173269D01*
X121782348Y-49169644D01*
X121763546Y-48822473D01*
X121762811Y-48815707D01*
X121724968Y-48584616D01*
X123403062Y-48584616D01*
X123404585Y-48593040D01*
X123416965Y-48596433D01*
X124466558Y-48596433D01*
X124481797Y-48591958D01*
X124483002Y-48590568D01*
X124484673Y-48582885D01*
X124484673Y-47533535D01*
X124480755Y-47520191D01*
X124466479Y-47518204D01*
X124427997Y-47524093D01*
X124417961Y-47526484D01*
X124215541Y-47592645D01*
X124206032Y-47596642D01*
X124017136Y-47694975D01*
X124008411Y-47700469D01*
X123838106Y-47828338D01*
X123830399Y-47835181D01*
X123683263Y-47989150D01*
X123676777Y-47997160D01*
X123556771Y-48173082D01*
X123551673Y-48182056D01*
X123462011Y-48375216D01*
X123458448Y-48384903D01*
X123403062Y-48584616D01*
X121724968Y-48584616D01*
X121706885Y-48474188D01*
X121705418Y-48467516D01*
X121612939Y-48134047D01*
X121610765Y-48127584D01*
X121482804Y-47806033D01*
X121479951Y-47799859D01*
X121318004Y-47493995D01*
X121314510Y-47488178D01*
X121120474Y-47201590D01*
X121116360Y-47196171D01*
X121007751Y-47068103D01*
X120994926Y-47059667D01*
X120984601Y-47065720D01*
X118891683Y-49158638D01*
X118884069Y-49172582D01*
X118154017Y-49172582D01*
X118155253Y-49170318D01*
X118155122Y-49168485D01*
X118150871Y-49161870D01*
X116056118Y-47067117D01*
X116042581Y-47059725D01*
X116032880Y-47066513D01*
X115929881Y-47187109D01*
X115925727Y-47192542D01*
X115730717Y-47478415D01*
X115727182Y-47484252D01*
X115564179Y-47789530D01*
X115561303Y-47795699D01*
X115432219Y-48116805D01*
X115430026Y-48123245D01*
X115336375Y-48456418D01*
X115334892Y-48463053D01*
X115277773Y-48804386D01*
X115277014Y-48811158D01*
X115257092Y-49156662D01*
X115257068Y-49163457D01*
X114977672Y-49163457D01*
X114977672Y-48172674D01*
X114979172Y-48153289D01*
X114981477Y-48138488D01*
X114981477Y-48138485D01*
X114982858Y-48129616D01*
X114980613Y-48112447D01*
X114979780Y-48088507D01*
X114995382Y-47830576D01*
X114997216Y-47815472D01*
X115015622Y-47715031D01*
X115048712Y-47534467D01*
X115052351Y-47519699D01*
X115060365Y-47493984D01*
X115137347Y-47246938D01*
X115142742Y-47232716D01*
X115159190Y-47196171D01*
X115259988Y-46972206D01*
X115267057Y-46958737D01*
X115414854Y-46714251D01*
X115423497Y-46701729D01*
X115429800Y-46693684D01*
X116404983Y-46693684D01*
X116405018Y-46694525D01*
X116410071Y-46702650D01*
X118506849Y-48799428D01*
X118520793Y-48807042D01*
X118522626Y-48806911D01*
X118529241Y-48802660D01*
X120627092Y-46704809D01*
X120633173Y-46693673D01*
X131382982Y-46693673D01*
X131383017Y-46694514D01*
X131388070Y-46702639D01*
X133484848Y-48799417D01*
X133498792Y-48807031D01*
X133500625Y-48806900D01*
X133507240Y-48802649D01*
X135605091Y-46704798D01*
X135612705Y-46690854D01*
X135612637Y-46689899D01*
X135608684Y-46683921D01*
X135334327Y-46474918D01*
X135328701Y-46471094D01*
X135032366Y-46292333D01*
X135026354Y-46289136D01*
X134712434Y-46143419D01*
X134706134Y-46140899D01*
X134378324Y-46029942D01*
X134371746Y-46028106D01*
X134033897Y-45953207D01*
X134027159Y-45952091D01*
X133683175Y-45914114D01*
X133676395Y-45913735D01*
X133330296Y-45913132D01*
X133323523Y-45913487D01*
X132979386Y-45950264D01*
X132972676Y-45951351D01*
X132634543Y-46025076D01*
X132627968Y-46026887D01*
X132299777Y-46136698D01*
X132293455Y-46139201D01*
X131979048Y-46283812D01*
X131973005Y-46286998D01*
X131676062Y-46464715D01*
X131670416Y-46468524D01*
X131394386Y-46677283D01*
X131390800Y-46680314D01*
X131382982Y-46693673D01*
X120633173Y-46693673D01*
X120634706Y-46690865D01*
X120634638Y-46689910D01*
X120630685Y-46683932D01*
X120356328Y-46474929D01*
X120350702Y-46471105D01*
X120054367Y-46292344D01*
X120048355Y-46289147D01*
X119734435Y-46143430D01*
X119728135Y-46140910D01*
X119400325Y-46029953D01*
X119393747Y-46028117D01*
X119055898Y-45953218D01*
X119049160Y-45952102D01*
X118705176Y-45914125D01*
X118698396Y-45913746D01*
X118352297Y-45913143D01*
X118345524Y-45913498D01*
X118001387Y-45950275D01*
X117994677Y-45951362D01*
X117656544Y-46025087D01*
X117649969Y-46026898D01*
X117321778Y-46136709D01*
X117315456Y-46139212D01*
X117001049Y-46283823D01*
X116995006Y-46287009D01*
X116698063Y-46464726D01*
X116692417Y-46468535D01*
X116416387Y-46677294D01*
X116412801Y-46680325D01*
X116404983Y-46693684D01*
X115429800Y-46693684D01*
X115599688Y-46476839D01*
X115609778Y-46465451D01*
X115811777Y-46263452D01*
X115823165Y-46253362D01*
X116048055Y-46077171D01*
X116060577Y-46068528D01*
X116305063Y-45920731D01*
X116318532Y-45913662D01*
X116579045Y-45796415D01*
X116593264Y-45791021D01*
X116866031Y-45706024D01*
X116880793Y-45702386D01*
X117091024Y-45663860D01*
X117161798Y-45650890D01*
X117176902Y-45649056D01*
X117427601Y-45633891D01*
X117454311Y-45635148D01*
X117454531Y-45635151D01*
X117463402Y-45636532D01*
X117472304Y-45635368D01*
X117472307Y-45635368D01*
X117494923Y-45632410D01*
X117511261Y-45631346D01*
X134498342Y-45631346D01*
X134517727Y-45632846D01*
G37*
%TD.AperFunction*%
%TD*%
%TA.AperFunction,Conductor*%
%TO.N,GND*%
G36*
X108867649Y-45630934D02*
G01*
X108882527Y-45633251D01*
X108882531Y-45633251D01*
X108891400Y-45634632D01*
X108908569Y-45632387D01*
X108932509Y-45631554D01*
X109190440Y-45647156D01*
X109205544Y-45648990D01*
X109276318Y-45661960D01*
X109486549Y-45700486D01*
X109501311Y-45704124D01*
X109774078Y-45789121D01*
X109788297Y-45794515D01*
X110048810Y-45911762D01*
X110062279Y-45918831D01*
X110306765Y-46066628D01*
X110319287Y-46075271D01*
X110544177Y-46251462D01*
X110555565Y-46261552D01*
X110757564Y-46463551D01*
X110767654Y-46474939D01*
X110943845Y-46699829D01*
X110952488Y-46712351D01*
X111100285Y-46956837D01*
X111107354Y-46970306D01*
X111224600Y-47230816D01*
X111229995Y-47245038D01*
X111305760Y-47488175D01*
X111314991Y-47517799D01*
X111318630Y-47532567D01*
X111357156Y-47742798D01*
X111370126Y-47813572D01*
X111371960Y-47828676D01*
X111387125Y-48079375D01*
X111385868Y-48106085D01*
X111385865Y-48106305D01*
X111384484Y-48115176D01*
X111385648Y-48124078D01*
X111385648Y-48124081D01*
X111388606Y-48146697D01*
X111389670Y-48163035D01*
X111389670Y-88208538D01*
X111388170Y-88227923D01*
X111386145Y-88240931D01*
X111384484Y-88251596D01*
X111386684Y-88268420D01*
X111386729Y-88268763D01*
X111387562Y-88292705D01*
X111371960Y-88550636D01*
X111370126Y-88565740D01*
X111318632Y-88846739D01*
X111314992Y-88861507D01*
X111231922Y-89128088D01*
X111229996Y-89134270D01*
X111224601Y-89148493D01*
X111135222Y-89347087D01*
X111107356Y-89409002D01*
X111100285Y-89422475D01*
X110952488Y-89666961D01*
X110943845Y-89679483D01*
X110767654Y-89904373D01*
X110757564Y-89915761D01*
X110555565Y-90117760D01*
X110544177Y-90127850D01*
X110319287Y-90304041D01*
X110306765Y-90312684D01*
X110062279Y-90460481D01*
X110048810Y-90467550D01*
X109788300Y-90584796D01*
X109774078Y-90590191D01*
X109501311Y-90675188D01*
X109486549Y-90678826D01*
X109276318Y-90717352D01*
X109205544Y-90730322D01*
X109190440Y-90732156D01*
X108939741Y-90747321D01*
X108913031Y-90746064D01*
X108912811Y-90746061D01*
X108903940Y-90744680D01*
X108895038Y-90745844D01*
X108895035Y-90745844D01*
X108872419Y-90748802D01*
X108856081Y-90749866D01*
X91869000Y-90749866D01*
X91849615Y-90748366D01*
X91834814Y-90746061D01*
X91834811Y-90746061D01*
X91825942Y-90744680D01*
X91808773Y-90746925D01*
X91784833Y-90747758D01*
X91526902Y-90732156D01*
X91511798Y-90730322D01*
X91441024Y-90717352D01*
X91230793Y-90678826D01*
X91216031Y-90675188D01*
X90943264Y-90590191D01*
X90929042Y-90584796D01*
X90668532Y-90467550D01*
X90655063Y-90460481D01*
X90410577Y-90312684D01*
X90398055Y-90304041D01*
X90173165Y-90127850D01*
X90161777Y-90117760D01*
X89959778Y-89915761D01*
X89949688Y-89904373D01*
X89779586Y-89687255D01*
X90755214Y-89687255D01*
X90763350Y-89698260D01*
X91023611Y-89897964D01*
X91029210Y-89901798D01*
X91324934Y-90081601D01*
X91330924Y-90084813D01*
X91644330Y-90231623D01*
X91650634Y-90234170D01*
X91978056Y-90346271D01*
X91984607Y-90348125D01*
X92322212Y-90424207D01*
X92328931Y-90425344D01*
X92672785Y-90464522D01*
X92679575Y-90464925D01*
X93025645Y-90466737D01*
X93032446Y-90466405D01*
X93376692Y-90430831D01*
X93383420Y-90429765D01*
X93721816Y-90357218D01*
X93728365Y-90355439D01*
X94056950Y-90246770D01*
X94063292Y-90244284D01*
X94378195Y-90100775D01*
X94384249Y-90097610D01*
X94681799Y-89920938D01*
X94687480Y-89917135D01*
X94964218Y-89709355D01*
X94969442Y-89704971D01*
X94975909Y-89698919D01*
X94983978Y-89685239D01*
X94983951Y-89684515D01*
X94978807Y-89676212D01*
X92882482Y-87579886D01*
X92868541Y-87572274D01*
X92866706Y-87572405D01*
X92860092Y-87576656D01*
X90762095Y-89674654D01*
X90755214Y-89687255D01*
X89779586Y-89687255D01*
X89773497Y-89679483D01*
X89764854Y-89666961D01*
X89617057Y-89422475D01*
X89609986Y-89409002D01*
X89582121Y-89347087D01*
X89492741Y-89148493D01*
X89487346Y-89134270D01*
X89485420Y-89128088D01*
X89402350Y-88861507D01*
X89398710Y-88846739D01*
X89347216Y-88565740D01*
X89345382Y-88550636D01*
X89330217Y-88299937D01*
X89331474Y-88273227D01*
X89331477Y-88273007D01*
X89332858Y-88264136D01*
X89331219Y-88251596D01*
X89328736Y-88232615D01*
X89327672Y-88216277D01*
X89327672Y-87199873D01*
X89607080Y-87199873D01*
X89624590Y-87545525D01*
X89625300Y-87552281D01*
X89680036Y-87894007D01*
X89681475Y-87900662D01*
X89772795Y-88234470D01*
X89774944Y-88240931D01*
X89901783Y-88562932D01*
X89904614Y-88569115D01*
X90065484Y-88875529D01*
X90068978Y-88881390D01*
X90261990Y-89168620D01*
X90266100Y-89174074D01*
X90381583Y-89311215D01*
X90394322Y-89319659D01*
X90404765Y-89313562D01*
X92497652Y-87220676D01*
X92504029Y-87208997D01*
X93234080Y-87208997D01*
X93234211Y-87210832D01*
X93238462Y-87217446D01*
X95333225Y-89312208D01*
X95346821Y-89319633D01*
X95356434Y-89312932D01*
X95452516Y-89201226D01*
X95456674Y-89195826D01*
X95652694Y-88910617D01*
X95656241Y-88904806D01*
X95820305Y-88600104D01*
X95823212Y-88593926D01*
X95953415Y-88273277D01*
X95955629Y-88266847D01*
X96050440Y-87934009D01*
X96051947Y-87927379D01*
X96110261Y-87586228D01*
X96111041Y-87579488D01*
X96132266Y-87232442D01*
X96132382Y-87228839D01*
X96132450Y-87209685D01*
X96132358Y-87206060D01*
X96113556Y-86858889D01*
X96112821Y-86852123D01*
X96056895Y-86510604D01*
X96055428Y-86503932D01*
X95962949Y-86170464D01*
X95960775Y-86164001D01*
X95832813Y-85842448D01*
X95829957Y-85836268D01*
X95668019Y-85530420D01*
X95664519Y-85524595D01*
X95470483Y-85238005D01*
X95466376Y-85232595D01*
X95357761Y-85104521D01*
X95344936Y-85096085D01*
X95334612Y-85102137D01*
X93241692Y-87195056D01*
X93234080Y-87208997D01*
X92504029Y-87208997D01*
X92505264Y-87206735D01*
X92505133Y-87204900D01*
X92500882Y-87198286D01*
X90406130Y-85103535D01*
X90392593Y-85096143D01*
X90382891Y-85102931D01*
X90279880Y-85223542D01*
X90275747Y-85228947D01*
X90080723Y-85514842D01*
X90077202Y-85520655D01*
X89914194Y-85825940D01*
X89911308Y-85832130D01*
X89782230Y-86153223D01*
X89780039Y-86159658D01*
X89686387Y-86492834D01*
X89684904Y-86499469D01*
X89627785Y-86840802D01*
X89627026Y-86847574D01*
X89607104Y-87193078D01*
X89607080Y-87199873D01*
X89327672Y-87199873D01*
X89327672Y-84730101D01*
X90754995Y-84730101D01*
X90755029Y-84730940D01*
X90760084Y-84739067D01*
X92856862Y-86835846D01*
X92870803Y-86843458D01*
X92872638Y-86843327D01*
X92879252Y-86839076D01*
X94977102Y-84741225D01*
X94984716Y-84727281D01*
X94984648Y-84726327D01*
X94980694Y-84720348D01*
X94706336Y-84511343D01*
X94700712Y-84507521D01*
X94404371Y-84328757D01*
X94398364Y-84325564D01*
X94084461Y-84179854D01*
X94078138Y-84177325D01*
X93750326Y-84066367D01*
X93743768Y-84064537D01*
X93405904Y-83989633D01*
X93399175Y-83988519D01*
X93055187Y-83950542D01*
X93048407Y-83950163D01*
X92702308Y-83949560D01*
X92695535Y-83949915D01*
X92351398Y-83986692D01*
X92344688Y-83987779D01*
X92006556Y-84061504D01*
X91999981Y-84063315D01*
X91671789Y-84173126D01*
X91665467Y-84175629D01*
X91351060Y-84320240D01*
X91345017Y-84323426D01*
X91048078Y-84501140D01*
X91042418Y-84504958D01*
X90766405Y-84713707D01*
X90762813Y-84716741D01*
X90754995Y-84730101D01*
X89327672Y-84730101D01*
X89327672Y-82071952D01*
X94060958Y-82071952D01*
X94108449Y-82249191D01*
X94112195Y-82259483D01*
X94204271Y-82456941D01*
X94209754Y-82466437D01*
X94334713Y-82644897D01*
X94341769Y-82653305D01*
X94495810Y-82807346D01*
X94504218Y-82814402D01*
X94682678Y-82939361D01*
X94692174Y-82944844D01*
X94889632Y-83036920D01*
X94899924Y-83040666D01*
X95072188Y-83086824D01*
X95086284Y-83086488D01*
X95089685Y-83078546D01*
X95089685Y-83073397D01*
X95597685Y-83073397D01*
X95601658Y-83086928D01*
X95610207Y-83088157D01*
X95787446Y-83040666D01*
X95797738Y-83036920D01*
X95995196Y-82944844D01*
X96004692Y-82939361D01*
X96183152Y-82814402D01*
X96191560Y-82807346D01*
X96345601Y-82653305D01*
X96352657Y-82644897D01*
X96477616Y-82466437D01*
X96483099Y-82456941D01*
X96575175Y-82259483D01*
X96578921Y-82249191D01*
X96625079Y-82076927D01*
X96624743Y-82062831D01*
X96616801Y-82059430D01*
X95615800Y-82059430D01*
X95600561Y-82063905D01*
X95599356Y-82065295D01*
X95597685Y-82072978D01*
X95597685Y-83073397D01*
X95089685Y-83073397D01*
X95089685Y-82077545D01*
X95085210Y-82062306D01*
X95083820Y-82061101D01*
X95076137Y-82059430D01*
X94075718Y-82059430D01*
X94062187Y-82063403D01*
X94060958Y-82071952D01*
X89327672Y-82071952D01*
X89327672Y-81533933D01*
X94062291Y-81533933D01*
X94062627Y-81548029D01*
X94070569Y-81551430D01*
X95071570Y-81551430D01*
X95086809Y-81546955D01*
X95088014Y-81545565D01*
X95089685Y-81537882D01*
X95089685Y-81533315D01*
X95597685Y-81533315D01*
X95602160Y-81548554D01*
X95603550Y-81549759D01*
X95611233Y-81551430D01*
X96611652Y-81551430D01*
X96625183Y-81547457D01*
X96626412Y-81538908D01*
X96578921Y-81361669D01*
X96575175Y-81351377D01*
X96483099Y-81153919D01*
X96477616Y-81144423D01*
X96352657Y-80965963D01*
X96345601Y-80957555D01*
X96191560Y-80803514D01*
X96183152Y-80796458D01*
X96004692Y-80671499D01*
X95995196Y-80666016D01*
X95797738Y-80573940D01*
X95787446Y-80570194D01*
X95615182Y-80524036D01*
X95601086Y-80524372D01*
X95597685Y-80532314D01*
X95597685Y-81533315D01*
X95089685Y-81533315D01*
X95089685Y-80537463D01*
X95085712Y-80523932D01*
X95077163Y-80522703D01*
X94899924Y-80570194D01*
X94889632Y-80573940D01*
X94692174Y-80666016D01*
X94682678Y-80671499D01*
X94504218Y-80796458D01*
X94495810Y-80803514D01*
X94341769Y-80957555D01*
X94334713Y-80965963D01*
X94209754Y-81144423D01*
X94204271Y-81153919D01*
X94112195Y-81351377D01*
X94108449Y-81361669D01*
X94062291Y-81533933D01*
X89327672Y-81533933D01*
X89327672Y-77060328D01*
X89814916Y-77060328D01*
X89827775Y-77283348D01*
X89828912Y-77288394D01*
X89828913Y-77288400D01*
X89843114Y-77351411D01*
X89876887Y-77501272D01*
X89926558Y-77623598D01*
X89955829Y-77695683D01*
X89960931Y-77708249D01*
X89980272Y-77739811D01*
X90054445Y-77860850D01*
X90077652Y-77898721D01*
X90223915Y-78067571D01*
X90395791Y-78210265D01*
X90588665Y-78322971D01*
X90797357Y-78402663D01*
X90802425Y-78403694D01*
X90802428Y-78403695D01*
X90897527Y-78423043D01*
X91016262Y-78447200D01*
X91021437Y-78447390D01*
X91021439Y-78447390D01*
X91234338Y-78455197D01*
X91234342Y-78455197D01*
X91239502Y-78455386D01*
X91244622Y-78454730D01*
X91244624Y-78454730D01*
X91455953Y-78427658D01*
X91455954Y-78427658D01*
X91461081Y-78427001D01*
X91466031Y-78425516D01*
X91670094Y-78364294D01*
X91670099Y-78364292D01*
X91675049Y-78362807D01*
X91875659Y-78264529D01*
X92057525Y-78134806D01*
X92073113Y-78119273D01*
X92138874Y-78053740D01*
X92215761Y-77977122D01*
X92249777Y-77929784D01*
X92264999Y-77908600D01*
X92320994Y-77864952D01*
X92367322Y-77856126D01*
X95480650Y-77856126D01*
X95548771Y-77876128D01*
X95595264Y-77929784D01*
X95605368Y-78000058D01*
X95579600Y-78060132D01*
X95567483Y-78075502D01*
X95470033Y-78199117D01*
X95467344Y-78204228D01*
X95467342Y-78204231D01*
X95435618Y-78264529D01*
X95375174Y-78379414D01*
X95314760Y-78573979D01*
X95290814Y-78776295D01*
X95304139Y-78979587D01*
X95354287Y-79177046D01*
X95439580Y-79362060D01*
X95557161Y-79528433D01*
X95703092Y-79670593D01*
X95707888Y-79673798D01*
X95707891Y-79673800D01*
X95713894Y-79677811D01*
X95872485Y-79783778D01*
X95877788Y-79786056D01*
X95877791Y-79786058D01*
X95966797Y-79824298D01*
X96059669Y-79864199D01*
X96132499Y-79880679D01*
X96252737Y-79907886D01*
X96252742Y-79907887D01*
X96258374Y-79909161D01*
X96264145Y-79909388D01*
X96264147Y-79909388D01*
X96327152Y-79911863D01*
X96461945Y-79917159D01*
X96663565Y-79887926D01*
X96669029Y-79886071D01*
X96669034Y-79886070D01*
X96851009Y-79824298D01*
X96851014Y-79824296D01*
X96856481Y-79822440D01*
X97034233Y-79722894D01*
X97185530Y-79597062D01*
X97250693Y-79568881D01*
X97266098Y-79567936D01*
X97535656Y-79567936D01*
X97603777Y-79587938D01*
X97624751Y-79604841D01*
X98289268Y-80269358D01*
X98323294Y-80331670D01*
X98326173Y-80358453D01*
X98326173Y-87453577D01*
X98306171Y-87521698D01*
X98275827Y-87554336D01*
X98150328Y-87648563D01*
X97990312Y-87816010D01*
X97859792Y-88007345D01*
X97762275Y-88217427D01*
X97700380Y-88440615D01*
X97675768Y-88670915D01*
X97676065Y-88676068D01*
X97676065Y-88676071D01*
X97687903Y-88881390D01*
X97689100Y-88902143D01*
X97690237Y-88907189D01*
X97690238Y-88907195D01*
X97722414Y-89049969D01*
X97740019Y-89128088D01*
X97741961Y-89132870D01*
X97741962Y-89132874D01*
X97814379Y-89311215D01*
X97827157Y-89342683D01*
X97948174Y-89540165D01*
X98099820Y-89715230D01*
X98278022Y-89863176D01*
X98477995Y-89980030D01*
X98694367Y-90062655D01*
X98699433Y-90063686D01*
X98699434Y-90063686D01*
X98752519Y-90074486D01*
X98921329Y-90108831D01*
X99050762Y-90113577D01*
X99147622Y-90117129D01*
X99147626Y-90117129D01*
X99152786Y-90117318D01*
X99157906Y-90116662D01*
X99157908Y-90116662D01*
X99231839Y-90107191D01*
X99382520Y-90087888D01*
X99387468Y-90086403D01*
X99387475Y-90086402D01*
X99599420Y-90022815D01*
X99604363Y-90021332D01*
X99684909Y-89981873D01*
X99807722Y-89921708D01*
X99807725Y-89921706D01*
X99812357Y-89919437D01*
X100000916Y-89784940D01*
X100045982Y-89740031D01*
X100108354Y-89706115D01*
X100179160Y-89711303D01*
X100235922Y-89753949D01*
X100252904Y-89785053D01*
X100278058Y-89852151D01*
X100365412Y-89968707D01*
X100481968Y-90056061D01*
X100618357Y-90107191D01*
X100680539Y-90113946D01*
X102576807Y-90113946D01*
X102638989Y-90107191D01*
X102775378Y-90056061D01*
X102891934Y-89968707D01*
X102979288Y-89852151D01*
X103030418Y-89715762D01*
X103033515Y-89687255D01*
X105733212Y-89687255D01*
X105741348Y-89698260D01*
X106001609Y-89897964D01*
X106007208Y-89901798D01*
X106302932Y-90081601D01*
X106308922Y-90084813D01*
X106622328Y-90231623D01*
X106628632Y-90234170D01*
X106956054Y-90346271D01*
X106962605Y-90348125D01*
X107300210Y-90424207D01*
X107306929Y-90425344D01*
X107650783Y-90464522D01*
X107657573Y-90464925D01*
X108003643Y-90466737D01*
X108010444Y-90466405D01*
X108354690Y-90430831D01*
X108361418Y-90429765D01*
X108699814Y-90357218D01*
X108706363Y-90355439D01*
X109034948Y-90246770D01*
X109041290Y-90244284D01*
X109356193Y-90100775D01*
X109362247Y-90097610D01*
X109659797Y-89920938D01*
X109665478Y-89917135D01*
X109942216Y-89709355D01*
X109947440Y-89704971D01*
X109953907Y-89698919D01*
X109961976Y-89685239D01*
X109961949Y-89684515D01*
X109956805Y-89676212D01*
X107860480Y-87579886D01*
X107846539Y-87572274D01*
X107844704Y-87572405D01*
X107838090Y-87576656D01*
X105740093Y-89674654D01*
X105733212Y-89687255D01*
X103033515Y-89687255D01*
X103037173Y-89653580D01*
X103037173Y-87757312D01*
X103030418Y-87695130D01*
X102979288Y-87558741D01*
X102891934Y-87442185D01*
X102775378Y-87354831D01*
X102638989Y-87303701D01*
X102576807Y-87296946D01*
X102517173Y-87296946D01*
X102449052Y-87276944D01*
X102402559Y-87223288D01*
X102397466Y-87199873D01*
X104585078Y-87199873D01*
X104602588Y-87545525D01*
X104603298Y-87552281D01*
X104658034Y-87894007D01*
X104659473Y-87900662D01*
X104750793Y-88234470D01*
X104752942Y-88240931D01*
X104879781Y-88562932D01*
X104882612Y-88569115D01*
X105043482Y-88875529D01*
X105046976Y-88881390D01*
X105239988Y-89168620D01*
X105244098Y-89174074D01*
X105359581Y-89311215D01*
X105372320Y-89319659D01*
X105382763Y-89313562D01*
X107475650Y-87220676D01*
X107482027Y-87208997D01*
X108212078Y-87208997D01*
X108212209Y-87210832D01*
X108216460Y-87217446D01*
X110311223Y-89312208D01*
X110324819Y-89319633D01*
X110334432Y-89312932D01*
X110430514Y-89201226D01*
X110434672Y-89195826D01*
X110630692Y-88910617D01*
X110634239Y-88904806D01*
X110798303Y-88600104D01*
X110801210Y-88593926D01*
X110931413Y-88273277D01*
X110933627Y-88266847D01*
X111028438Y-87934009D01*
X111029945Y-87927379D01*
X111088259Y-87586228D01*
X111089039Y-87579488D01*
X111110264Y-87232442D01*
X111110380Y-87228839D01*
X111110448Y-87209685D01*
X111110356Y-87206060D01*
X111091554Y-86858889D01*
X111090819Y-86852123D01*
X111034893Y-86510604D01*
X111033426Y-86503932D01*
X110940947Y-86170464D01*
X110938773Y-86164001D01*
X110810811Y-85842448D01*
X110807955Y-85836268D01*
X110646017Y-85530420D01*
X110642517Y-85524595D01*
X110448481Y-85238005D01*
X110444374Y-85232595D01*
X110335759Y-85104521D01*
X110322934Y-85096085D01*
X110312610Y-85102137D01*
X108219690Y-87195056D01*
X108212078Y-87208997D01*
X107482027Y-87208997D01*
X107483262Y-87206735D01*
X107483131Y-87204900D01*
X107478880Y-87198286D01*
X105384128Y-85103535D01*
X105370591Y-85096143D01*
X105360889Y-85102931D01*
X105257878Y-85223542D01*
X105253745Y-85228947D01*
X105058721Y-85514842D01*
X105055200Y-85520655D01*
X104892192Y-85825940D01*
X104889306Y-85832130D01*
X104760228Y-86153223D01*
X104758037Y-86159658D01*
X104664385Y-86492834D01*
X104662902Y-86499469D01*
X104605783Y-86840802D01*
X104605024Y-86847574D01*
X104585102Y-87193078D01*
X104585078Y-87199873D01*
X102397466Y-87199873D01*
X102391173Y-87170946D01*
X102391173Y-85542859D01*
X102411175Y-85474738D01*
X102420299Y-85462290D01*
X102542433Y-85315440D01*
X102546131Y-85310994D01*
X102645677Y-85133242D01*
X102647533Y-85127775D01*
X102647535Y-85127770D01*
X102709307Y-84945795D01*
X102709308Y-84945790D01*
X102711163Y-84940326D01*
X102740396Y-84738706D01*
X102740621Y-84730101D01*
X105732993Y-84730101D01*
X105733027Y-84730940D01*
X105738082Y-84739067D01*
X107834860Y-86835846D01*
X107848801Y-86843458D01*
X107850636Y-86843327D01*
X107857250Y-86839076D01*
X109955100Y-84741225D01*
X109962714Y-84727281D01*
X109962646Y-84726327D01*
X109958692Y-84720348D01*
X109684334Y-84511343D01*
X109678710Y-84507521D01*
X109382369Y-84328757D01*
X109376362Y-84325564D01*
X109062459Y-84179854D01*
X109056136Y-84177325D01*
X108728324Y-84066367D01*
X108721766Y-84064537D01*
X108383902Y-83989633D01*
X108377173Y-83988519D01*
X108033185Y-83950542D01*
X108026405Y-83950163D01*
X107680306Y-83949560D01*
X107673533Y-83949915D01*
X107329396Y-83986692D01*
X107322686Y-83987779D01*
X106984554Y-84061504D01*
X106977979Y-84063315D01*
X106649787Y-84173126D01*
X106643465Y-84175629D01*
X106329058Y-84320240D01*
X106323015Y-84323426D01*
X106026076Y-84501140D01*
X106020416Y-84504958D01*
X105744403Y-84713707D01*
X105740811Y-84716741D01*
X105732993Y-84730101D01*
X102740621Y-84730101D01*
X102741922Y-84680443D01*
X102723281Y-84477569D01*
X102681311Y-84328757D01*
X102669548Y-84287049D01*
X102669547Y-84287047D01*
X102667980Y-84281490D01*
X102657353Y-84259939D01*
X102580429Y-84103953D01*
X102577874Y-84098772D01*
X102559469Y-84074124D01*
X102459431Y-83940158D01*
X102459431Y-83940157D01*
X102455978Y-83935534D01*
X102306376Y-83797243D01*
X102260348Y-83768202D01*
X102138961Y-83691612D01*
X102138956Y-83691610D01*
X102134077Y-83688531D01*
X101944853Y-83613038D01*
X101745039Y-83573292D01*
X101739265Y-83573216D01*
X101739261Y-83573216D01*
X101636125Y-83571867D01*
X101541328Y-83570626D01*
X101535631Y-83571605D01*
X101535630Y-83571605D01*
X101346240Y-83604148D01*
X101340543Y-83605127D01*
X101149407Y-83675641D01*
X100974322Y-83779806D01*
X100821151Y-83914133D01*
X100817584Y-83918658D01*
X100817579Y-83918663D01*
X100761631Y-83989633D01*
X100695024Y-84074124D01*
X100600165Y-84254421D01*
X100539751Y-84448986D01*
X100515805Y-84651302D01*
X100529130Y-84854594D01*
X100579278Y-85052053D01*
X100664571Y-85237067D01*
X100782152Y-85403440D01*
X100786286Y-85407467D01*
X100828095Y-85448196D01*
X100862932Y-85510058D01*
X100866173Y-85538450D01*
X100866173Y-87170946D01*
X100846171Y-87239067D01*
X100792515Y-87285560D01*
X100740173Y-87296946D01*
X100680539Y-87296946D01*
X100618357Y-87303701D01*
X100481968Y-87354831D01*
X100365412Y-87442185D01*
X100278058Y-87558741D01*
X100274906Y-87567149D01*
X100274905Y-87567151D01*
X100254211Y-87622352D01*
X100211570Y-87679117D01*
X100145008Y-87703817D01*
X100075659Y-87688610D01*
X100052840Y-87672112D01*
X100052560Y-87671804D01*
X99899081Y-87550594D01*
X99858018Y-87492677D01*
X99851173Y-87451712D01*
X99851173Y-81805430D01*
X104190187Y-81805430D01*
X104210142Y-82033517D01*
X104211566Y-82038830D01*
X104211566Y-82038832D01*
X104220716Y-82072978D01*
X104269401Y-82254673D01*
X104271724Y-82259654D01*
X104271724Y-82259655D01*
X104363836Y-82457192D01*
X104363839Y-82457197D01*
X104366162Y-82462179D01*
X104497487Y-82649730D01*
X104659385Y-82811628D01*
X104663893Y-82814785D01*
X104663896Y-82814787D01*
X104742074Y-82869528D01*
X104846936Y-82942953D01*
X104851918Y-82945276D01*
X104851923Y-82945279D01*
X105048450Y-83036920D01*
X105054442Y-83039714D01*
X105059750Y-83041136D01*
X105059752Y-83041137D01*
X105270283Y-83097549D01*
X105270285Y-83097549D01*
X105275598Y-83098973D01*
X105503685Y-83118928D01*
X105731772Y-83098973D01*
X105737085Y-83097549D01*
X105737087Y-83097549D01*
X105947618Y-83041137D01*
X105947620Y-83041136D01*
X105952928Y-83039714D01*
X105958920Y-83036920D01*
X106155447Y-82945279D01*
X106155452Y-82945276D01*
X106160434Y-82942953D01*
X106265296Y-82869528D01*
X106343474Y-82814787D01*
X106343477Y-82814785D01*
X106347985Y-82811628D01*
X106509883Y-82649730D01*
X106641208Y-82462179D01*
X106643531Y-82457197D01*
X106643534Y-82457192D01*
X106735646Y-82259655D01*
X106735646Y-82259654D01*
X106737969Y-82254673D01*
X106786655Y-82072978D01*
X106795804Y-82038832D01*
X106795804Y-82038830D01*
X106797228Y-82033517D01*
X106817183Y-81805430D01*
X106797228Y-81577343D01*
X106786929Y-81538908D01*
X106739392Y-81361497D01*
X106739391Y-81361495D01*
X106737969Y-81356187D01*
X106643651Y-81153919D01*
X106643534Y-81153668D01*
X106643531Y-81153663D01*
X106641208Y-81148681D01*
X106509883Y-80961130D01*
X106347985Y-80799232D01*
X106343477Y-80796075D01*
X106343474Y-80796073D01*
X106265296Y-80741332D01*
X106160434Y-80667907D01*
X106155452Y-80665584D01*
X106155447Y-80665581D01*
X105957910Y-80573469D01*
X105957909Y-80573469D01*
X105952928Y-80571146D01*
X105947620Y-80569724D01*
X105947618Y-80569723D01*
X105737087Y-80513311D01*
X105737085Y-80513311D01*
X105731772Y-80511887D01*
X105503685Y-80491932D01*
X105275598Y-80511887D01*
X105270285Y-80513311D01*
X105270283Y-80513311D01*
X105059752Y-80569723D01*
X105059750Y-80569724D01*
X105054442Y-80571146D01*
X105049461Y-80573469D01*
X105049460Y-80573469D01*
X104851923Y-80665581D01*
X104851918Y-80665584D01*
X104846936Y-80667907D01*
X104742074Y-80741332D01*
X104663896Y-80796073D01*
X104663893Y-80796075D01*
X104659385Y-80799232D01*
X104497487Y-80961130D01*
X104366162Y-81148681D01*
X104363839Y-81153663D01*
X104363836Y-81153668D01*
X104363719Y-81153919D01*
X104269401Y-81356187D01*
X104267979Y-81361495D01*
X104267978Y-81361497D01*
X104220441Y-81538908D01*
X104210142Y-81577343D01*
X104190187Y-81805430D01*
X99851173Y-81805430D01*
X99851173Y-80057801D01*
X99852606Y-80038851D01*
X99854797Y-80024452D01*
X99854797Y-80024448D01*
X99855897Y-80017218D01*
X99851588Y-79964239D01*
X99851173Y-79954025D01*
X99851173Y-79945900D01*
X99847866Y-79917535D01*
X99847433Y-79913160D01*
X99842076Y-79847293D01*
X99841483Y-79839999D01*
X99839229Y-79833042D01*
X99838040Y-79827088D01*
X99836622Y-79821090D01*
X99835774Y-79813818D01*
X99810725Y-79744808D01*
X99809308Y-79740681D01*
X99788941Y-79677811D01*
X99788940Y-79677809D01*
X99786686Y-79670851D01*
X99782891Y-79664598D01*
X99780346Y-79659038D01*
X99777604Y-79653564D01*
X99775107Y-79646684D01*
X99734863Y-79585301D01*
X99732517Y-79581583D01*
X99697361Y-79523649D01*
X99694446Y-79518845D01*
X99687006Y-79510420D01*
X99687035Y-79510395D01*
X99684439Y-79507469D01*
X99681634Y-79504115D01*
X99677619Y-79497990D01*
X99621086Y-79444436D01*
X99618645Y-79442059D01*
X98490494Y-78313908D01*
X98478107Y-78299495D01*
X98469479Y-78287771D01*
X98465138Y-78281872D01*
X98424629Y-78247457D01*
X98417113Y-78240527D01*
X98411369Y-78234783D01*
X98408495Y-78232509D01*
X98408488Y-78232503D01*
X98388973Y-78217064D01*
X98385569Y-78214273D01*
X98335212Y-78171491D01*
X98335208Y-78171488D01*
X98329633Y-78166752D01*
X98323116Y-78163424D01*
X98318052Y-78160047D01*
X98312828Y-78156820D01*
X98307084Y-78152276D01*
X98261908Y-78131162D01*
X98240602Y-78121204D01*
X98236651Y-78119273D01*
X98177801Y-78089223D01*
X98171280Y-78085893D01*
X98164165Y-78084152D01*
X98158419Y-78082015D01*
X98152636Y-78080091D01*
X98146005Y-78076992D01*
X98074127Y-78062042D01*
X98069855Y-78061075D01*
X97998572Y-78043632D01*
X97992973Y-78043285D01*
X97992969Y-78043284D01*
X97987354Y-78042936D01*
X97987356Y-78042897D01*
X97983455Y-78042664D01*
X97979096Y-78042275D01*
X97971928Y-78040784D01*
X97964611Y-78040982D01*
X97894107Y-78042890D01*
X97890698Y-78042936D01*
X97261272Y-78042936D01*
X97193151Y-78022934D01*
X97175734Y-78009452D01*
X97174660Y-78008459D01*
X97138221Y-77947527D01*
X97140509Y-77876567D01*
X97180797Y-77818109D01*
X97221371Y-77796075D01*
X97228098Y-77793896D01*
X97235065Y-77791639D01*
X97241327Y-77787839D01*
X97246870Y-77785301D01*
X97252346Y-77782559D01*
X97259231Y-77780060D01*
X97320622Y-77739811D01*
X97324290Y-77737496D01*
X97387071Y-77699399D01*
X97391276Y-77695685D01*
X97391279Y-77695683D01*
X97395495Y-77691959D01*
X97395521Y-77691988D01*
X97398452Y-77689388D01*
X97401806Y-77686584D01*
X97407925Y-77682572D01*
X97461479Y-77626039D01*
X97463856Y-77623598D01*
X98295210Y-76792244D01*
X98309623Y-76779857D01*
X98321347Y-76771229D01*
X98327246Y-76766888D01*
X98361661Y-76726379D01*
X98368591Y-76718863D01*
X98374335Y-76713119D01*
X98376609Y-76710245D01*
X98376615Y-76710238D01*
X98392054Y-76690723D01*
X98394845Y-76687319D01*
X98437627Y-76636962D01*
X98437630Y-76636958D01*
X98442366Y-76631383D01*
X98445694Y-76624866D01*
X98449071Y-76619802D01*
X98452298Y-76614578D01*
X98456842Y-76608834D01*
X98487914Y-76542352D01*
X98489845Y-76538401D01*
X98519895Y-76479551D01*
X98523225Y-76473030D01*
X98524966Y-76465915D01*
X98527103Y-76460169D01*
X98529027Y-76454386D01*
X98532126Y-76447755D01*
X98547076Y-76375877D01*
X98548045Y-76371596D01*
X98564152Y-76305773D01*
X98565486Y-76300322D01*
X98565865Y-76294222D01*
X98566182Y-76289104D01*
X98566221Y-76289106D01*
X98566454Y-76285205D01*
X98566843Y-76280846D01*
X98568334Y-76273678D01*
X98566228Y-76195857D01*
X98566182Y-76192448D01*
X98566182Y-70823462D01*
X98586184Y-70755341D01*
X98603087Y-70734367D01*
X99064416Y-70273038D01*
X99126728Y-70239012D01*
X99153511Y-70236133D01*
X99164215Y-70236133D01*
X99232336Y-70256135D01*
X99259452Y-70279636D01*
X99329733Y-70360770D01*
X99404923Y-70447571D01*
X99576799Y-70590265D01*
X99647268Y-70631444D01*
X99650118Y-70633109D01*
X99698842Y-70684747D01*
X99711913Y-70754530D01*
X99685182Y-70820302D01*
X99644728Y-70853660D01*
X99632280Y-70860140D01*
X99628147Y-70863243D01*
X99628144Y-70863245D01*
X99481349Y-70973462D01*
X99453638Y-70994268D01*
X99299302Y-71155771D01*
X99296388Y-71160043D01*
X99296387Y-71160044D01*
X99273518Y-71193569D01*
X99173416Y-71340313D01*
X99079361Y-71542938D01*
X99019662Y-71758203D01*
X98995924Y-71980328D01*
X98996221Y-71985481D01*
X98996221Y-71985484D01*
X99001380Y-72074953D01*
X99008783Y-72203348D01*
X99009920Y-72208394D01*
X99009921Y-72208400D01*
X99023270Y-72267633D01*
X99057895Y-72421272D01*
X99119346Y-72572609D01*
X99131516Y-72602579D01*
X99141939Y-72628249D01*
X99183489Y-72696052D01*
X99235094Y-72780264D01*
X99258660Y-72818721D01*
X99404923Y-72987571D01*
X99576799Y-73130265D01*
X99622267Y-73156834D01*
X99650118Y-73173109D01*
X99698842Y-73224747D01*
X99711913Y-73294530D01*
X99685182Y-73360302D01*
X99644728Y-73393660D01*
X99632280Y-73400140D01*
X99628147Y-73403243D01*
X99628144Y-73403245D01*
X99603920Y-73421433D01*
X99453638Y-73534268D01*
X99299302Y-73695771D01*
X99296388Y-73700043D01*
X99296387Y-73700044D01*
X99289711Y-73709831D01*
X99173416Y-73880313D01*
X99079361Y-74082938D01*
X99019662Y-74298203D01*
X98995924Y-74520328D01*
X98996221Y-74525481D01*
X98996221Y-74525484D01*
X99001684Y-74620223D01*
X99008783Y-74743348D01*
X99009920Y-74748394D01*
X99009921Y-74748400D01*
X99023270Y-74807633D01*
X99057895Y-74961272D01*
X99141939Y-75168249D01*
X99258660Y-75358721D01*
X99404923Y-75527571D01*
X99576799Y-75670265D01*
X99647268Y-75711444D01*
X99650118Y-75713109D01*
X99698842Y-75764747D01*
X99711913Y-75834530D01*
X99685182Y-75900302D01*
X99644728Y-75933660D01*
X99632280Y-75940140D01*
X99628147Y-75943243D01*
X99628144Y-75943245D01*
X99603920Y-75961433D01*
X99453638Y-76074268D01*
X99299302Y-76235771D01*
X99296388Y-76240043D01*
X99296387Y-76240044D01*
X99266386Y-76284024D01*
X99173416Y-76420313D01*
X99161784Y-76445372D01*
X99117696Y-76540353D01*
X99079361Y-76622938D01*
X99019662Y-76838203D01*
X98995924Y-77060328D01*
X99008783Y-77283348D01*
X99009920Y-77288394D01*
X99009921Y-77288400D01*
X99024122Y-77351411D01*
X99057895Y-77501272D01*
X99107566Y-77623598D01*
X99136837Y-77695683D01*
X99141939Y-77708249D01*
X99161280Y-77739811D01*
X99235453Y-77860850D01*
X99258660Y-77898721D01*
X99404923Y-78067571D01*
X99576799Y-78210265D01*
X99769673Y-78322971D01*
X99978365Y-78402663D01*
X99983433Y-78403694D01*
X99983436Y-78403695D01*
X100078535Y-78423043D01*
X100197270Y-78447200D01*
X100202445Y-78447390D01*
X100202447Y-78447390D01*
X100415346Y-78455197D01*
X100415350Y-78455197D01*
X100420510Y-78455386D01*
X100425630Y-78454730D01*
X100425632Y-78454730D01*
X100636961Y-78427658D01*
X100636962Y-78427658D01*
X100642089Y-78427001D01*
X100647039Y-78425516D01*
X100851102Y-78364294D01*
X100851107Y-78364292D01*
X100856057Y-78362807D01*
X101056667Y-78264529D01*
X101238533Y-78134806D01*
X101254121Y-78119273D01*
X101319882Y-78053740D01*
X101396769Y-77977122D01*
X101430785Y-77929784D01*
X101446007Y-77908600D01*
X101502002Y-77864952D01*
X101548330Y-77856126D01*
X104848114Y-77856126D01*
X104867064Y-77857559D01*
X104881463Y-77859750D01*
X104881469Y-77859750D01*
X104888698Y-77860850D01*
X104895990Y-77860257D01*
X104895993Y-77860257D01*
X104941673Y-77856541D01*
X104951888Y-77856126D01*
X104960015Y-77856126D01*
X104963651Y-77855702D01*
X104963653Y-77855702D01*
X104967105Y-77855299D01*
X104988414Y-77852815D01*
X104992734Y-77852388D01*
X105065916Y-77846435D01*
X105072878Y-77844179D01*
X105078866Y-77842983D01*
X105084823Y-77841575D01*
X105092097Y-77840727D01*
X105098979Y-77838229D01*
X105098983Y-77838228D01*
X105161097Y-77815681D01*
X105165201Y-77814271D01*
X105235065Y-77791639D01*
X105241328Y-77787839D01*
X105246870Y-77785301D01*
X105252346Y-77782559D01*
X105259231Y-77780060D01*
X105320622Y-77739811D01*
X105324290Y-77737496D01*
X105387071Y-77699399D01*
X105391276Y-77695685D01*
X105391279Y-77695683D01*
X105395495Y-77691959D01*
X105395521Y-77691988D01*
X105398452Y-77689388D01*
X105401806Y-77686584D01*
X105407925Y-77682572D01*
X105461479Y-77626039D01*
X105463856Y-77623598D01*
X105725855Y-77361599D01*
X108207938Y-77361599D01*
X108238246Y-77496079D01*
X108241326Y-77505908D01*
X108321451Y-77703236D01*
X108326094Y-77712427D01*
X108437375Y-77894021D01*
X108443458Y-77902332D01*
X108582894Y-78063300D01*
X108590261Y-78070516D01*
X108754115Y-78206549D01*
X108762562Y-78212464D01*
X108946437Y-78319912D01*
X108955723Y-78324362D01*
X109154682Y-78400336D01*
X109164580Y-78403212D01*
X109267931Y-78424239D01*
X109281980Y-78423043D01*
X109285681Y-78412698D01*
X109285681Y-78412150D01*
X109793681Y-78412150D01*
X109797745Y-78425992D01*
X109811159Y-78428026D01*
X109817865Y-78427167D01*
X109827943Y-78425025D01*
X110031936Y-78363824D01*
X110041523Y-78360066D01*
X110232776Y-78266372D01*
X110241626Y-78261097D01*
X110415009Y-78137425D01*
X110422881Y-78130772D01*
X110573733Y-77980445D01*
X110580411Y-77972598D01*
X110704684Y-77799653D01*
X110709994Y-77790816D01*
X110804351Y-77599900D01*
X110808150Y-77590305D01*
X110870058Y-77386543D01*
X110872236Y-77376470D01*
X110873667Y-77365595D01*
X110871456Y-77351411D01*
X110858298Y-77347633D01*
X109811796Y-77347633D01*
X109796557Y-77352108D01*
X109795352Y-77353498D01*
X109793681Y-77361181D01*
X109793681Y-78412150D01*
X109285681Y-78412150D01*
X109285681Y-77365748D01*
X109281206Y-77350509D01*
X109279816Y-77349304D01*
X109272133Y-77347633D01*
X108222906Y-77347633D01*
X108209375Y-77351606D01*
X108207938Y-77361599D01*
X105725855Y-77361599D01*
X107734423Y-75353031D01*
X107796735Y-75319005D01*
X107823518Y-75316126D01*
X108345217Y-75316126D01*
X108413338Y-75336128D01*
X108440454Y-75359629D01*
X108510741Y-75440770D01*
X108585931Y-75527571D01*
X108757807Y-75670265D01*
X108830659Y-75712836D01*
X108831636Y-75713407D01*
X108880360Y-75765045D01*
X108893431Y-75834828D01*
X108866700Y-75900600D01*
X108826243Y-75933960D01*
X108818138Y-75938179D01*
X108809419Y-75943669D01*
X108639114Y-76071538D01*
X108631407Y-76078381D01*
X108484271Y-76232350D01*
X108477785Y-76240360D01*
X108357779Y-76416282D01*
X108352681Y-76425256D01*
X108263019Y-76618416D01*
X108259456Y-76628103D01*
X108204070Y-76827816D01*
X108205593Y-76836240D01*
X108217973Y-76839633D01*
X110858025Y-76839633D01*
X110871556Y-76835660D01*
X110872861Y-76826580D01*
X110830895Y-76659508D01*
X110827575Y-76649757D01*
X110742653Y-76454447D01*
X110737786Y-76445372D01*
X110622107Y-76266559D01*
X110615817Y-76258390D01*
X110472487Y-76100873D01*
X110464954Y-76093848D01*
X110297820Y-75961855D01*
X110289237Y-75956153D01*
X110252283Y-75935753D01*
X110202312Y-75885320D01*
X110187540Y-75815878D01*
X110212656Y-75749472D01*
X110240008Y-75722865D01*
X110263478Y-75706124D01*
X110419541Y-75594806D01*
X110577777Y-75437122D01*
X110637275Y-75354322D01*
X110705116Y-75259910D01*
X110708134Y-75255710D01*
X110807111Y-75055444D01*
X110872051Y-74841702D01*
X110901210Y-74620223D01*
X110902837Y-74553633D01*
X110884533Y-74330994D01*
X110830112Y-74114335D01*
X110741035Y-73909473D01*
X110701587Y-73848495D01*
X110622503Y-73726250D01*
X110622501Y-73726247D01*
X110619695Y-73721910D01*
X110469351Y-73556684D01*
X110465300Y-73553485D01*
X110465296Y-73553481D01*
X110298095Y-73421433D01*
X110298091Y-73421431D01*
X110294040Y-73418231D01*
X110252250Y-73395162D01*
X110202279Y-73344730D01*
X110187507Y-73275287D01*
X110212623Y-73208881D01*
X110239975Y-73182274D01*
X110415009Y-73057425D01*
X110422881Y-73050772D01*
X110573733Y-72900445D01*
X110580411Y-72892598D01*
X110704684Y-72719653D01*
X110709994Y-72710816D01*
X110804351Y-72519900D01*
X110808150Y-72510305D01*
X110870058Y-72306543D01*
X110872236Y-72296470D01*
X110873667Y-72285595D01*
X110871456Y-72271411D01*
X110858298Y-72267633D01*
X108222906Y-72267633D01*
X108209375Y-72271606D01*
X108207938Y-72281599D01*
X108238246Y-72416079D01*
X108241326Y-72425908D01*
X108321451Y-72623236D01*
X108326094Y-72632427D01*
X108437375Y-72814021D01*
X108443458Y-72822332D01*
X108582894Y-72983300D01*
X108590261Y-72990516D01*
X108754115Y-73126549D01*
X108762562Y-73132464D01*
X108831650Y-73172836D01*
X108880374Y-73224475D01*
X108893445Y-73294258D01*
X108866714Y-73360029D01*
X108826265Y-73393385D01*
X108813288Y-73400140D01*
X108809155Y-73403243D01*
X108809152Y-73403245D01*
X108784928Y-73421433D01*
X108634646Y-73534268D01*
X108480310Y-73695771D01*
X108477396Y-73700043D01*
X108477395Y-73700044D01*
X108452779Y-73736130D01*
X108397868Y-73781133D01*
X108348691Y-73791126D01*
X107522858Y-73791126D01*
X107503910Y-73789693D01*
X107496523Y-73788569D01*
X107489514Y-73787503D01*
X107489512Y-73787503D01*
X107482282Y-73786403D01*
X107482281Y-73786403D01*
X107482395Y-73785654D01*
X107420404Y-73765076D01*
X107375812Y-73709831D01*
X107366182Y-73661520D01*
X107366182Y-70973462D01*
X107386184Y-70905341D01*
X107403087Y-70884367D01*
X108014423Y-70273031D01*
X108076735Y-70239005D01*
X108103518Y-70236126D01*
X108345217Y-70236126D01*
X108413338Y-70256128D01*
X108440454Y-70279629D01*
X108510741Y-70360770D01*
X108585931Y-70447571D01*
X108757807Y-70590265D01*
X108830659Y-70632836D01*
X108831636Y-70633407D01*
X108880360Y-70685045D01*
X108893431Y-70754828D01*
X108866700Y-70820600D01*
X108826243Y-70853960D01*
X108818138Y-70858179D01*
X108809419Y-70863669D01*
X108639114Y-70991538D01*
X108631407Y-70998381D01*
X108484271Y-71152350D01*
X108477785Y-71160360D01*
X108357779Y-71336282D01*
X108352681Y-71345256D01*
X108263019Y-71538416D01*
X108259456Y-71548103D01*
X108204070Y-71747816D01*
X108205593Y-71756240D01*
X108217973Y-71759633D01*
X110858025Y-71759633D01*
X110871556Y-71755660D01*
X110872861Y-71746580D01*
X110830895Y-71579508D01*
X110827575Y-71569757D01*
X110742653Y-71374447D01*
X110737786Y-71365372D01*
X110622107Y-71186559D01*
X110615817Y-71178390D01*
X110472487Y-71020873D01*
X110464954Y-71013848D01*
X110297820Y-70881855D01*
X110289237Y-70876153D01*
X110252283Y-70855753D01*
X110202312Y-70805320D01*
X110187540Y-70735878D01*
X110212656Y-70669472D01*
X110240008Y-70642865D01*
X110263478Y-70626124D01*
X110419541Y-70514806D01*
X110577777Y-70357122D01*
X110667276Y-70232571D01*
X110705116Y-70179910D01*
X110708134Y-70175710D01*
X110735758Y-70119818D01*
X110804817Y-69980086D01*
X110804818Y-69980084D01*
X110807111Y-69975444D01*
X110872051Y-69761702D01*
X110901210Y-69540223D01*
X110902837Y-69473633D01*
X110884533Y-69250994D01*
X110830112Y-69034335D01*
X110741035Y-68829473D01*
X110676050Y-68729022D01*
X110622503Y-68646250D01*
X110622501Y-68646247D01*
X110619695Y-68641910D01*
X110469351Y-68476684D01*
X110465300Y-68473485D01*
X110465296Y-68473481D01*
X110298095Y-68341433D01*
X110298091Y-68341431D01*
X110294040Y-68338231D01*
X110252250Y-68315162D01*
X110202279Y-68264730D01*
X110187507Y-68195287D01*
X110212623Y-68128881D01*
X110239975Y-68102274D01*
X110415009Y-67977425D01*
X110422881Y-67970772D01*
X110573733Y-67820445D01*
X110580411Y-67812598D01*
X110704684Y-67639653D01*
X110709994Y-67630816D01*
X110804351Y-67439900D01*
X110808150Y-67430305D01*
X110870058Y-67226543D01*
X110872236Y-67216470D01*
X110873667Y-67205595D01*
X110871456Y-67191411D01*
X110858298Y-67187633D01*
X108222906Y-67187633D01*
X108209375Y-67191606D01*
X108207938Y-67201599D01*
X108238246Y-67336079D01*
X108241326Y-67345908D01*
X108321451Y-67543236D01*
X108326094Y-67552427D01*
X108437375Y-67734021D01*
X108443458Y-67742332D01*
X108582894Y-67903300D01*
X108590261Y-67910516D01*
X108754115Y-68046549D01*
X108762562Y-68052464D01*
X108831650Y-68092836D01*
X108880374Y-68144475D01*
X108893445Y-68214258D01*
X108866714Y-68280029D01*
X108826265Y-68313385D01*
X108813288Y-68320140D01*
X108809155Y-68323243D01*
X108809152Y-68323245D01*
X108784928Y-68341433D01*
X108634646Y-68454268D01*
X108480310Y-68615771D01*
X108477396Y-68620043D01*
X108477395Y-68620044D01*
X108452779Y-68656130D01*
X108397868Y-68701133D01*
X108348691Y-68711126D01*
X107802858Y-68711126D01*
X107783910Y-68709693D01*
X107776523Y-68708569D01*
X107769514Y-68707503D01*
X107769512Y-68707503D01*
X107762282Y-68706403D01*
X107754990Y-68706996D01*
X107754987Y-68706996D01*
X107709315Y-68710711D01*
X107699101Y-68711126D01*
X107690965Y-68711126D01*
X107687330Y-68711550D01*
X107687327Y-68711550D01*
X107669325Y-68713649D01*
X107662574Y-68714436D01*
X107658203Y-68714869D01*
X107647191Y-68715764D01*
X107592362Y-68720223D01*
X107592359Y-68720224D01*
X107585063Y-68720817D01*
X107578099Y-68723073D01*
X107572104Y-68724271D01*
X107566154Y-68725677D01*
X107558883Y-68726525D01*
X107489888Y-68751569D01*
X107485742Y-68752992D01*
X107422878Y-68773357D01*
X107422876Y-68773358D01*
X107415915Y-68775613D01*
X107409660Y-68779409D01*
X107404123Y-68781944D01*
X107398632Y-68784694D01*
X107391749Y-68787192D01*
X107385625Y-68791207D01*
X107330358Y-68827441D01*
X107326690Y-68829756D01*
X107263909Y-68867853D01*
X107259702Y-68871569D01*
X107259698Y-68871572D01*
X107255485Y-68875294D01*
X107255459Y-68875264D01*
X107252531Y-68877862D01*
X107249177Y-68880666D01*
X107243055Y-68884680D01*
X107238022Y-68889993D01*
X107189503Y-68941211D01*
X107187125Y-68943654D01*
X106481277Y-69649501D01*
X106418965Y-69683526D01*
X106348149Y-69678461D01*
X106291314Y-69635914D01*
X106266503Y-69569394D01*
X106266182Y-69560405D01*
X106266182Y-65573462D01*
X106286184Y-65505341D01*
X106303087Y-65484367D01*
X106594423Y-65193031D01*
X106656735Y-65159005D01*
X106683518Y-65156126D01*
X108345217Y-65156126D01*
X108413338Y-65176128D01*
X108440454Y-65199629D01*
X108510741Y-65280770D01*
X108585931Y-65367571D01*
X108757807Y-65510265D01*
X108830659Y-65552836D01*
X108831636Y-65553407D01*
X108880360Y-65605045D01*
X108893431Y-65674828D01*
X108866700Y-65740600D01*
X108826243Y-65773960D01*
X108818138Y-65778179D01*
X108809419Y-65783669D01*
X108639114Y-65911538D01*
X108631407Y-65918381D01*
X108484271Y-66072350D01*
X108477785Y-66080360D01*
X108357779Y-66256282D01*
X108352681Y-66265256D01*
X108263019Y-66458416D01*
X108259456Y-66468103D01*
X108204070Y-66667816D01*
X108205593Y-66676240D01*
X108217973Y-66679633D01*
X110858025Y-66679633D01*
X110871556Y-66675660D01*
X110872861Y-66666580D01*
X110830895Y-66499508D01*
X110827575Y-66489757D01*
X110742653Y-66294447D01*
X110737786Y-66285372D01*
X110622107Y-66106559D01*
X110615817Y-66098390D01*
X110472487Y-65940873D01*
X110464954Y-65933848D01*
X110297820Y-65801855D01*
X110289237Y-65796153D01*
X110252283Y-65775753D01*
X110202312Y-65725320D01*
X110187540Y-65655878D01*
X110212656Y-65589472D01*
X110240008Y-65562865D01*
X110298319Y-65521272D01*
X110419541Y-65434806D01*
X110577777Y-65277122D01*
X110637275Y-65194322D01*
X110705116Y-65099910D01*
X110708134Y-65095710D01*
X110726299Y-65058957D01*
X110804817Y-64900086D01*
X110804818Y-64900084D01*
X110807111Y-64895444D01*
X110872051Y-64681702D01*
X110901210Y-64460223D01*
X110902837Y-64393633D01*
X110884533Y-64170994D01*
X110830112Y-63954335D01*
X110741035Y-63749473D01*
X110673426Y-63644966D01*
X110622503Y-63566250D01*
X110622501Y-63566247D01*
X110619695Y-63561910D01*
X110469351Y-63396684D01*
X110465300Y-63393485D01*
X110465296Y-63393481D01*
X110298095Y-63261433D01*
X110298091Y-63261431D01*
X110294040Y-63258231D01*
X110252250Y-63235162D01*
X110202279Y-63184730D01*
X110187507Y-63115287D01*
X110212623Y-63048881D01*
X110239975Y-63022274D01*
X110415009Y-62897425D01*
X110422881Y-62890772D01*
X110573733Y-62740445D01*
X110580411Y-62732598D01*
X110704684Y-62559653D01*
X110709994Y-62550816D01*
X110804351Y-62359900D01*
X110808150Y-62350305D01*
X110870058Y-62146543D01*
X110872236Y-62136470D01*
X110873667Y-62125595D01*
X110871456Y-62111411D01*
X110858298Y-62107633D01*
X108222906Y-62107633D01*
X108209375Y-62111606D01*
X108207938Y-62121599D01*
X108238246Y-62256079D01*
X108241326Y-62265908D01*
X108321451Y-62463236D01*
X108326094Y-62472427D01*
X108437375Y-62654021D01*
X108443458Y-62662332D01*
X108582894Y-62823300D01*
X108590261Y-62830516D01*
X108754115Y-62966549D01*
X108762562Y-62972464D01*
X108831650Y-63012836D01*
X108880374Y-63064475D01*
X108893445Y-63134258D01*
X108866714Y-63200029D01*
X108826265Y-63233385D01*
X108813288Y-63240140D01*
X108809155Y-63243243D01*
X108809152Y-63243245D01*
X108638781Y-63371163D01*
X108634646Y-63374268D01*
X108609222Y-63400873D01*
X108489235Y-63526432D01*
X108480310Y-63535771D01*
X108477396Y-63540043D01*
X108477395Y-63540044D01*
X108452779Y-63576130D01*
X108397868Y-63621133D01*
X108348691Y-63631126D01*
X106382866Y-63631126D01*
X106363916Y-63629693D01*
X106349517Y-63627502D01*
X106349511Y-63627502D01*
X106342282Y-63626402D01*
X106334990Y-63626995D01*
X106334987Y-63626995D01*
X106289307Y-63630711D01*
X106279092Y-63631126D01*
X106270965Y-63631126D01*
X106267329Y-63631550D01*
X106267327Y-63631550D01*
X106263875Y-63631953D01*
X106242566Y-63634437D01*
X106238246Y-63634864D01*
X106165064Y-63640817D01*
X106158102Y-63643073D01*
X106152114Y-63644269D01*
X106146157Y-63645677D01*
X106138883Y-63646525D01*
X106132001Y-63649023D01*
X106131997Y-63649024D01*
X106069883Y-63671571D01*
X106065779Y-63672981D01*
X105995915Y-63695613D01*
X105989652Y-63699413D01*
X105984110Y-63701951D01*
X105978634Y-63704693D01*
X105971749Y-63707192D01*
X105965625Y-63711207D01*
X105910358Y-63747441D01*
X105906690Y-63749756D01*
X105843909Y-63787853D01*
X105839704Y-63791567D01*
X105839701Y-63791569D01*
X105835485Y-63795293D01*
X105835459Y-63795264D01*
X105832528Y-63797864D01*
X105829174Y-63800668D01*
X105823055Y-63804680D01*
X105818023Y-63809992D01*
X105769502Y-63861212D01*
X105767124Y-63863654D01*
X105465757Y-64165021D01*
X105403445Y-64199047D01*
X105332630Y-64193982D01*
X105275794Y-64151435D01*
X105250983Y-64084915D01*
X105250662Y-64075926D01*
X105250662Y-60488982D01*
X105270664Y-60420861D01*
X105287567Y-60399887D01*
X105574423Y-60113031D01*
X105636735Y-60079005D01*
X105663518Y-60076126D01*
X108345217Y-60076126D01*
X108413338Y-60096128D01*
X108440454Y-60119629D01*
X108567325Y-60266092D01*
X108585931Y-60287571D01*
X108757807Y-60430265D01*
X108768977Y-60436792D01*
X108831636Y-60473407D01*
X108880360Y-60525045D01*
X108893431Y-60594828D01*
X108866700Y-60660600D01*
X108826243Y-60693960D01*
X108818138Y-60698179D01*
X108809419Y-60703669D01*
X108639114Y-60831538D01*
X108631407Y-60838381D01*
X108484271Y-60992350D01*
X108477785Y-61000360D01*
X108357779Y-61176282D01*
X108352681Y-61185256D01*
X108263019Y-61378416D01*
X108259456Y-61388103D01*
X108204070Y-61587816D01*
X108205593Y-61596240D01*
X108217973Y-61599633D01*
X110858025Y-61599633D01*
X110871556Y-61595660D01*
X110872861Y-61586580D01*
X110830895Y-61419508D01*
X110827575Y-61409757D01*
X110742653Y-61214447D01*
X110737786Y-61205372D01*
X110622107Y-61026559D01*
X110615817Y-61018390D01*
X110472487Y-60860873D01*
X110464954Y-60853848D01*
X110297820Y-60721855D01*
X110289237Y-60716153D01*
X110252283Y-60695753D01*
X110202312Y-60645320D01*
X110187540Y-60575878D01*
X110212656Y-60509472D01*
X110240008Y-60482865D01*
X110304600Y-60436792D01*
X110419541Y-60354806D01*
X110577777Y-60197122D01*
X110614490Y-60146031D01*
X110697351Y-60030716D01*
X110708134Y-60015710D01*
X110738242Y-59954792D01*
X110804817Y-59820086D01*
X110804818Y-59820084D01*
X110807111Y-59815444D01*
X110868537Y-59613269D01*
X110870546Y-59606656D01*
X110870546Y-59606654D01*
X110872051Y-59601702D01*
X110901210Y-59380223D01*
X110902837Y-59313633D01*
X110884533Y-59090994D01*
X110830112Y-58874335D01*
X110741035Y-58669473D01*
X110664473Y-58551126D01*
X110622503Y-58486250D01*
X110622501Y-58486247D01*
X110619695Y-58481910D01*
X110469351Y-58316684D01*
X110465300Y-58313485D01*
X110465296Y-58313481D01*
X110298095Y-58181433D01*
X110298091Y-58181431D01*
X110294040Y-58178231D01*
X110098470Y-58070271D01*
X110093601Y-58068547D01*
X110093597Y-58068545D01*
X109892768Y-57997428D01*
X109892764Y-57997427D01*
X109887893Y-57995702D01*
X109882800Y-57994795D01*
X109882797Y-57994794D01*
X109673054Y-57957433D01*
X109673048Y-57957432D01*
X109667965Y-57956527D01*
X109594133Y-57955625D01*
X109449762Y-57953861D01*
X109449760Y-57953861D01*
X109444592Y-57953798D01*
X109223772Y-57987588D01*
X109011437Y-58056990D01*
X108813288Y-58160140D01*
X108809155Y-58163243D01*
X108809152Y-58163245D01*
X108638781Y-58291163D01*
X108634646Y-58294268D01*
X108620733Y-58308827D01*
X108524014Y-58410038D01*
X108480310Y-58455771D01*
X108477396Y-58460043D01*
X108477395Y-58460044D01*
X108452779Y-58496130D01*
X108397868Y-58541133D01*
X108348691Y-58551126D01*
X105362858Y-58551126D01*
X105343910Y-58549693D01*
X105336523Y-58548569D01*
X105329514Y-58547503D01*
X105329512Y-58547503D01*
X105322282Y-58546403D01*
X105314990Y-58546996D01*
X105314987Y-58546996D01*
X105269315Y-58550711D01*
X105259101Y-58551126D01*
X105250965Y-58551126D01*
X105247330Y-58551550D01*
X105247327Y-58551550D01*
X105229325Y-58553649D01*
X105222574Y-58554436D01*
X105218203Y-58554869D01*
X105207191Y-58555764D01*
X105152362Y-58560223D01*
X105152359Y-58560224D01*
X105145063Y-58560817D01*
X105138099Y-58563073D01*
X105132104Y-58564271D01*
X105126154Y-58565677D01*
X105118883Y-58566525D01*
X105049888Y-58591569D01*
X105045742Y-58592992D01*
X104982878Y-58613357D01*
X104982876Y-58613358D01*
X104975915Y-58615613D01*
X104969660Y-58619409D01*
X104964123Y-58621944D01*
X104958632Y-58624694D01*
X104951749Y-58627192D01*
X104945625Y-58631207D01*
X104890358Y-58667441D01*
X104886690Y-58669756D01*
X104823909Y-58707853D01*
X104819702Y-58711569D01*
X104819698Y-58711572D01*
X104815485Y-58715294D01*
X104815459Y-58715264D01*
X104812531Y-58717862D01*
X104809177Y-58720666D01*
X104803055Y-58724680D01*
X104798022Y-58729993D01*
X104749503Y-58781211D01*
X104747125Y-58783654D01*
X103996630Y-59534148D01*
X103982218Y-59546533D01*
X103964598Y-59559500D01*
X103959854Y-59565083D01*
X103959855Y-59565083D01*
X103930183Y-59600009D01*
X103923253Y-59607525D01*
X103917509Y-59613269D01*
X103915235Y-59616143D01*
X103915229Y-59616150D01*
X103899790Y-59635665D01*
X103896999Y-59639069D01*
X103854217Y-59689426D01*
X103854214Y-59689430D01*
X103849478Y-59695005D01*
X103846150Y-59701522D01*
X103842773Y-59706586D01*
X103839546Y-59711810D01*
X103835002Y-59717554D01*
X103831903Y-59724185D01*
X103803930Y-59784036D01*
X103801999Y-59787987D01*
X103768619Y-59853358D01*
X103766878Y-59860473D01*
X103764741Y-59866219D01*
X103762817Y-59872002D01*
X103759718Y-59878633D01*
X103758228Y-59885797D01*
X103744770Y-59950501D01*
X103743801Y-59954783D01*
X103726358Y-60026066D01*
X103725662Y-60037284D01*
X103725623Y-60037282D01*
X103725390Y-60041183D01*
X103725001Y-60045542D01*
X103723510Y-60052710D01*
X103723708Y-60060027D01*
X103725616Y-60130531D01*
X103725662Y-60133940D01*
X103725662Y-68585133D01*
X103705660Y-68653254D01*
X103652004Y-68699747D01*
X103599662Y-68711133D01*
X103009936Y-68711133D01*
X102998736Y-68710634D01*
X102996832Y-68710464D01*
X102989668Y-68708974D01*
X102980072Y-68709234D01*
X102957708Y-68707846D01*
X102955450Y-68707502D01*
X102955445Y-68707502D01*
X102948216Y-68706402D01*
X102940924Y-68706995D01*
X102940921Y-68706995D01*
X102895155Y-68710718D01*
X102884940Y-68711133D01*
X101552024Y-68711133D01*
X101483903Y-68691131D01*
X101446231Y-68653572D01*
X101438687Y-68641910D01*
X101288343Y-68476684D01*
X101284292Y-68473485D01*
X101284288Y-68473481D01*
X101117087Y-68341433D01*
X101117083Y-68341431D01*
X101113032Y-68338231D01*
X101071726Y-68315429D01*
X101021757Y-68264997D01*
X101006985Y-68195554D01*
X101032101Y-68129149D01*
X101059453Y-68102542D01*
X101103276Y-68071283D01*
X101238533Y-67974806D01*
X101396769Y-67817122D01*
X101527126Y-67635710D01*
X101558383Y-67572467D01*
X101623809Y-67440086D01*
X101623810Y-67440084D01*
X101626103Y-67435444D01*
X101691043Y-67221702D01*
X101720202Y-67000223D01*
X101721829Y-66933633D01*
X101703525Y-66710994D01*
X101649104Y-66494335D01*
X101560027Y-66289473D01*
X101492418Y-66184966D01*
X101441495Y-66106250D01*
X101441493Y-66106247D01*
X101438687Y-66101910D01*
X101288343Y-65936684D01*
X101284292Y-65933485D01*
X101284288Y-65933481D01*
X101117087Y-65801433D01*
X101117083Y-65801431D01*
X101113032Y-65798231D01*
X101071242Y-65775162D01*
X101021271Y-65724730D01*
X101006499Y-65655287D01*
X101031615Y-65588881D01*
X101058967Y-65562274D01*
X101234001Y-65437425D01*
X101241873Y-65430772D01*
X101392725Y-65280445D01*
X101399403Y-65272598D01*
X101523676Y-65099653D01*
X101528986Y-65090816D01*
X101623343Y-64899900D01*
X101627142Y-64890305D01*
X101689050Y-64686543D01*
X101691228Y-64676470D01*
X101692659Y-64665595D01*
X101690448Y-64651411D01*
X101677290Y-64647633D01*
X99041898Y-64647633D01*
X99028367Y-64651606D01*
X99026930Y-64661599D01*
X99057238Y-64796079D01*
X99060318Y-64805908D01*
X99140443Y-65003236D01*
X99145086Y-65012427D01*
X99256367Y-65194021D01*
X99262450Y-65202332D01*
X99401886Y-65363300D01*
X99409253Y-65370516D01*
X99573107Y-65506549D01*
X99581554Y-65512464D01*
X99650642Y-65552836D01*
X99699366Y-65604475D01*
X99712437Y-65674258D01*
X99685706Y-65740029D01*
X99645257Y-65773385D01*
X99632280Y-65780140D01*
X99628147Y-65783243D01*
X99628144Y-65783245D01*
X99603920Y-65801433D01*
X99453638Y-65914268D01*
X99299302Y-66075771D01*
X99296388Y-66080043D01*
X99296387Y-66080044D01*
X99271771Y-66116130D01*
X99216860Y-66161133D01*
X99167683Y-66171126D01*
X97442866Y-66171126D01*
X97423916Y-66169693D01*
X97409517Y-66167502D01*
X97409511Y-66167502D01*
X97402282Y-66166402D01*
X97394990Y-66166995D01*
X97394987Y-66166995D01*
X97349307Y-66170711D01*
X97339092Y-66171126D01*
X97330965Y-66171126D01*
X97327329Y-66171550D01*
X97327327Y-66171550D01*
X97323875Y-66171953D01*
X97302566Y-66174437D01*
X97298246Y-66174864D01*
X97225064Y-66180817D01*
X97218102Y-66183073D01*
X97212114Y-66184269D01*
X97206157Y-66185677D01*
X97198883Y-66186525D01*
X97192001Y-66189023D01*
X97191997Y-66189024D01*
X97129883Y-66211571D01*
X97125779Y-66212981D01*
X97055915Y-66235613D01*
X97049652Y-66239413D01*
X97044110Y-66241951D01*
X97038634Y-66244693D01*
X97031749Y-66247192D01*
X97025625Y-66251207D01*
X96970358Y-66287441D01*
X96966690Y-66289756D01*
X96903909Y-66327853D01*
X96899704Y-66331567D01*
X96899701Y-66331569D01*
X96895485Y-66335293D01*
X96895459Y-66335264D01*
X96892528Y-66337864D01*
X96889174Y-66340668D01*
X96883055Y-66344680D01*
X96878023Y-66349992D01*
X96829502Y-66401212D01*
X96827124Y-66403654D01*
X95912154Y-67318624D01*
X95897741Y-67331011D01*
X95880118Y-67343980D01*
X95875374Y-67349563D01*
X95875375Y-67349563D01*
X95845703Y-67384489D01*
X95838773Y-67392005D01*
X95833029Y-67397749D01*
X95830755Y-67400623D01*
X95830749Y-67400630D01*
X95815310Y-67420145D01*
X95812519Y-67423549D01*
X95769737Y-67473906D01*
X95769734Y-67473910D01*
X95764998Y-67479485D01*
X95761670Y-67486002D01*
X95758293Y-67491066D01*
X95755066Y-67496290D01*
X95750522Y-67502034D01*
X95747423Y-67508665D01*
X95719450Y-67568516D01*
X95717519Y-67572467D01*
X95684139Y-67637838D01*
X95682398Y-67644953D01*
X95680261Y-67650699D01*
X95678337Y-67656482D01*
X95675238Y-67663113D01*
X95660490Y-67734021D01*
X95660290Y-67734981D01*
X95659321Y-67739263D01*
X95641878Y-67810546D01*
X95641182Y-67821764D01*
X95641143Y-67821762D01*
X95640910Y-67825663D01*
X95640521Y-67830022D01*
X95639030Y-67837190D01*
X95639228Y-67844507D01*
X95641136Y-67915011D01*
X95641182Y-67918420D01*
X95641182Y-71125126D01*
X95621180Y-71193247D01*
X95567524Y-71239740D01*
X95515182Y-71251126D01*
X92371012Y-71251126D01*
X92302891Y-71231124D01*
X92265222Y-71193569D01*
X92260488Y-71186252D01*
X92257679Y-71181910D01*
X92107335Y-71016684D01*
X92103284Y-71013485D01*
X92103280Y-71013481D01*
X91936079Y-70881433D01*
X91936075Y-70881431D01*
X91932024Y-70878231D01*
X91890234Y-70855162D01*
X91840263Y-70804730D01*
X91825491Y-70735287D01*
X91850607Y-70668881D01*
X91877959Y-70642274D01*
X92052993Y-70517425D01*
X92060865Y-70510772D01*
X92211717Y-70360445D01*
X92218395Y-70352598D01*
X92342668Y-70179653D01*
X92347978Y-70170816D01*
X92442335Y-69979900D01*
X92446134Y-69970305D01*
X92508042Y-69766543D01*
X92510220Y-69756470D01*
X92511651Y-69745595D01*
X92509440Y-69731411D01*
X92496282Y-69727633D01*
X89860890Y-69727633D01*
X89847359Y-69731606D01*
X89845922Y-69741599D01*
X89876230Y-69876079D01*
X89879310Y-69885908D01*
X89959435Y-70083236D01*
X89964078Y-70092427D01*
X90075359Y-70274021D01*
X90081442Y-70282332D01*
X90220878Y-70443300D01*
X90228245Y-70450516D01*
X90392099Y-70586549D01*
X90400546Y-70592464D01*
X90469634Y-70632836D01*
X90518358Y-70684475D01*
X90531429Y-70754258D01*
X90504698Y-70820029D01*
X90464249Y-70853385D01*
X90451272Y-70860140D01*
X90447139Y-70863243D01*
X90447136Y-70863245D01*
X90300341Y-70973462D01*
X90272630Y-70994268D01*
X90118294Y-71155771D01*
X90115380Y-71160043D01*
X90115379Y-71160044D01*
X90092510Y-71193569D01*
X89992408Y-71340313D01*
X89898353Y-71542938D01*
X89838654Y-71758203D01*
X89814916Y-71980328D01*
X89815213Y-71985481D01*
X89815213Y-71985484D01*
X89820372Y-72074953D01*
X89827775Y-72203348D01*
X89828912Y-72208394D01*
X89828913Y-72208400D01*
X89842262Y-72267633D01*
X89876887Y-72421272D01*
X89938338Y-72572609D01*
X89950508Y-72602579D01*
X89960931Y-72628249D01*
X90002481Y-72696052D01*
X90054086Y-72780264D01*
X90077652Y-72818721D01*
X90223915Y-72987571D01*
X90395791Y-73130265D01*
X90441259Y-73156834D01*
X90469620Y-73173407D01*
X90518344Y-73225045D01*
X90531415Y-73294828D01*
X90504684Y-73360600D01*
X90464227Y-73393960D01*
X90456122Y-73398179D01*
X90447403Y-73403669D01*
X90277098Y-73531538D01*
X90269391Y-73538381D01*
X90122255Y-73692350D01*
X90115769Y-73700360D01*
X89995763Y-73876282D01*
X89990665Y-73885256D01*
X89901003Y-74078416D01*
X89897440Y-74088103D01*
X89842054Y-74287816D01*
X89843577Y-74296240D01*
X89855957Y-74299633D01*
X92496009Y-74299633D01*
X92509540Y-74295660D01*
X92510845Y-74286580D01*
X92468879Y-74119508D01*
X92465559Y-74109757D01*
X92380637Y-73914447D01*
X92375770Y-73905372D01*
X92260091Y-73726559D01*
X92253801Y-73718390D01*
X92110471Y-73560873D01*
X92102938Y-73553848D01*
X91935804Y-73421855D01*
X91927221Y-73416153D01*
X91890267Y-73395753D01*
X91840296Y-73345320D01*
X91825524Y-73275878D01*
X91850640Y-73209472D01*
X91877992Y-73182865D01*
X91946884Y-73133725D01*
X92057525Y-73054806D01*
X92215761Y-72897122D01*
X92219012Y-72892598D01*
X92264999Y-72828600D01*
X92320994Y-72784952D01*
X92367322Y-72776126D01*
X95584984Y-72776126D01*
X95653105Y-72796128D01*
X95672906Y-72811872D01*
X95683644Y-72822332D01*
X95741592Y-72878783D01*
X95746388Y-72881988D01*
X95746391Y-72881990D01*
X95846309Y-72948753D01*
X95910985Y-72991968D01*
X95916288Y-72994246D01*
X95916291Y-72994248D01*
X96092862Y-73070109D01*
X96098169Y-73072389D01*
X96170999Y-73088869D01*
X96291237Y-73116076D01*
X96291242Y-73116077D01*
X96296874Y-73117351D01*
X96302645Y-73117578D01*
X96302647Y-73117578D01*
X96365652Y-73120053D01*
X96500445Y-73125349D01*
X96702065Y-73096116D01*
X96707529Y-73094261D01*
X96707534Y-73094260D01*
X96874681Y-73037521D01*
X96945616Y-73034565D01*
X97006888Y-73070428D01*
X97039045Y-73133725D01*
X97041182Y-73156834D01*
X97041182Y-75837406D01*
X97021180Y-75905527D01*
X97004277Y-75926502D01*
X96636556Y-76294222D01*
X96574244Y-76328247D01*
X96547461Y-76331126D01*
X92371012Y-76331126D01*
X92302891Y-76311124D01*
X92265222Y-76273569D01*
X92260488Y-76266252D01*
X92257679Y-76261910D01*
X92107335Y-76096684D01*
X92103284Y-76093485D01*
X92103280Y-76093481D01*
X91936079Y-75961433D01*
X91936075Y-75961431D01*
X91932024Y-75958231D01*
X91890234Y-75935162D01*
X91840263Y-75884730D01*
X91825491Y-75815287D01*
X91850607Y-75748881D01*
X91877959Y-75722274D01*
X92052993Y-75597425D01*
X92060865Y-75590772D01*
X92211717Y-75440445D01*
X92218395Y-75432598D01*
X92342668Y-75259653D01*
X92347978Y-75250816D01*
X92442335Y-75059900D01*
X92446134Y-75050305D01*
X92508042Y-74846543D01*
X92510220Y-74836470D01*
X92511651Y-74825595D01*
X92509440Y-74811411D01*
X92496282Y-74807633D01*
X89860890Y-74807633D01*
X89847359Y-74811606D01*
X89845922Y-74821599D01*
X89876230Y-74956079D01*
X89879310Y-74965908D01*
X89959435Y-75163236D01*
X89964078Y-75172427D01*
X90075359Y-75354021D01*
X90081442Y-75362332D01*
X90220878Y-75523300D01*
X90228245Y-75530516D01*
X90392099Y-75666549D01*
X90400546Y-75672464D01*
X90469634Y-75712836D01*
X90518358Y-75764475D01*
X90531429Y-75834258D01*
X90504698Y-75900029D01*
X90464249Y-75933385D01*
X90451272Y-75940140D01*
X90447139Y-75943243D01*
X90447136Y-75943245D01*
X90422912Y-75961433D01*
X90272630Y-76074268D01*
X90118294Y-76235771D01*
X90115380Y-76240043D01*
X90115379Y-76240044D01*
X90085378Y-76284024D01*
X89992408Y-76420313D01*
X89980776Y-76445372D01*
X89936688Y-76540353D01*
X89898353Y-76622938D01*
X89838654Y-76838203D01*
X89814916Y-77060328D01*
X89327672Y-77060328D01*
X89327672Y-69207816D01*
X89842054Y-69207816D01*
X89843577Y-69216240D01*
X89855957Y-69219633D01*
X90905550Y-69219633D01*
X90920789Y-69215158D01*
X90921994Y-69213768D01*
X90923665Y-69206085D01*
X90923665Y-69201518D01*
X91431665Y-69201518D01*
X91436140Y-69216757D01*
X91437530Y-69217962D01*
X91445213Y-69219633D01*
X92496009Y-69219633D01*
X92509540Y-69215660D01*
X92510845Y-69206580D01*
X92468879Y-69039508D01*
X92465559Y-69029757D01*
X92380637Y-68834447D01*
X92375770Y-68825372D01*
X92260091Y-68646559D01*
X92253801Y-68638390D01*
X92110471Y-68480873D01*
X92102938Y-68473848D01*
X91935804Y-68341855D01*
X91927217Y-68336150D01*
X91889781Y-68315484D01*
X91839811Y-68265052D01*
X91825039Y-68195609D01*
X91850155Y-68129204D01*
X91877507Y-68102597D01*
X92052992Y-67977425D01*
X92060865Y-67970772D01*
X92211717Y-67820445D01*
X92218395Y-67812598D01*
X92342668Y-67639653D01*
X92347978Y-67630816D01*
X92442335Y-67439900D01*
X92446134Y-67430305D01*
X92508042Y-67226543D01*
X92510220Y-67216470D01*
X92511651Y-67205595D01*
X92509440Y-67191411D01*
X92496282Y-67187633D01*
X91449780Y-67187633D01*
X91434541Y-67192108D01*
X91433336Y-67193498D01*
X91431665Y-67201181D01*
X91431665Y-69201518D01*
X90923665Y-69201518D01*
X90923665Y-67205748D01*
X90919190Y-67190509D01*
X90917800Y-67189304D01*
X90910117Y-67187633D01*
X89860890Y-67187633D01*
X89847359Y-67191606D01*
X89845922Y-67201599D01*
X89876230Y-67336079D01*
X89879310Y-67345908D01*
X89959435Y-67543236D01*
X89964078Y-67552427D01*
X90075359Y-67734021D01*
X90081442Y-67742332D01*
X90220878Y-67903300D01*
X90228245Y-67910516D01*
X90392099Y-68046549D01*
X90400546Y-68052464D01*
X90470144Y-68093134D01*
X90518868Y-68144773D01*
X90531939Y-68214556D01*
X90505208Y-68280327D01*
X90464752Y-68313686D01*
X90456127Y-68318175D01*
X90447403Y-68323669D01*
X90277098Y-68451538D01*
X90269391Y-68458381D01*
X90122255Y-68612350D01*
X90115769Y-68620360D01*
X89995763Y-68796282D01*
X89990665Y-68805256D01*
X89901003Y-68998416D01*
X89897440Y-69008103D01*
X89842054Y-69207816D01*
X89327672Y-69207816D01*
X89327672Y-64360328D01*
X89814916Y-64360328D01*
X89815213Y-64365481D01*
X89815213Y-64365484D01*
X89820676Y-64460223D01*
X89827775Y-64583348D01*
X89828912Y-64588394D01*
X89828913Y-64588400D01*
X89842262Y-64647633D01*
X89876887Y-64801272D01*
X89960931Y-65008249D01*
X89986085Y-65049296D01*
X90062395Y-65173823D01*
X90077652Y-65198721D01*
X90223915Y-65367571D01*
X90395791Y-65510265D01*
X90468643Y-65552836D01*
X90469620Y-65553407D01*
X90518344Y-65605045D01*
X90531415Y-65674828D01*
X90504684Y-65740600D01*
X90464227Y-65773960D01*
X90456122Y-65778179D01*
X90447403Y-65783669D01*
X90277098Y-65911538D01*
X90269391Y-65918381D01*
X90122255Y-66072350D01*
X90115769Y-66080360D01*
X89995763Y-66256282D01*
X89990665Y-66265256D01*
X89901003Y-66458416D01*
X89897440Y-66468103D01*
X89842054Y-66667816D01*
X89843577Y-66676240D01*
X89855957Y-66679633D01*
X92496009Y-66679633D01*
X92509540Y-66675660D01*
X92510845Y-66666580D01*
X92468879Y-66499508D01*
X92465559Y-66489757D01*
X92380637Y-66294447D01*
X92375770Y-66285372D01*
X92260091Y-66106559D01*
X92253801Y-66098390D01*
X92110471Y-65940873D01*
X92102938Y-65933848D01*
X91935804Y-65801855D01*
X91927221Y-65796153D01*
X91890267Y-65775753D01*
X91840296Y-65725320D01*
X91825524Y-65655878D01*
X91850640Y-65589472D01*
X91877992Y-65562865D01*
X91936303Y-65521272D01*
X92057525Y-65434806D01*
X92215761Y-65277122D01*
X92218777Y-65272925D01*
X92218782Y-65272919D01*
X92219369Y-65272102D01*
X92219690Y-65271851D01*
X92222130Y-65268985D01*
X92222722Y-65269489D01*
X92275366Y-65228457D01*
X92321688Y-65219633D01*
X92875450Y-65219633D01*
X92885995Y-65220075D01*
X92935783Y-65224256D01*
X93013226Y-65213922D01*
X93016226Y-65213560D01*
X93057981Y-65209024D01*
X93087117Y-65205859D01*
X93087119Y-65205859D01*
X93093900Y-65205122D01*
X93100366Y-65202946D01*
X93102716Y-65202429D01*
X93103266Y-65202332D01*
X93104033Y-65202153D01*
X93104568Y-65201998D01*
X93106915Y-65201422D01*
X93113673Y-65200520D01*
X93187025Y-65173822D01*
X93189926Y-65172807D01*
X93257522Y-65150058D01*
X93257529Y-65150055D01*
X93263994Y-65147879D01*
X93269843Y-65144364D01*
X93272036Y-65143351D01*
X93272551Y-65143139D01*
X93273249Y-65142806D01*
X93273750Y-65142533D01*
X93275904Y-65141473D01*
X93282317Y-65139139D01*
X93348285Y-65097274D01*
X93350877Y-65095674D01*
X93411985Y-65058957D01*
X93417827Y-65055447D01*
X93422778Y-65050766D01*
X93424714Y-65049296D01*
X93425645Y-65048648D01*
X93429479Y-65045748D01*
X93433847Y-65042976D01*
X93437947Y-65039310D01*
X93489869Y-64987388D01*
X93492391Y-64984935D01*
X93543265Y-64936826D01*
X93543267Y-64936824D01*
X93548223Y-64932137D01*
X93552057Y-64926495D01*
X93556180Y-64921651D01*
X93563036Y-64914221D01*
X94259444Y-64217812D01*
X94267212Y-64210669D01*
X94300163Y-64182823D01*
X94305376Y-64178418D01*
X94352817Y-64116367D01*
X94354715Y-64113947D01*
X94399376Y-64058401D01*
X94403652Y-64053083D01*
X94406685Y-64046973D01*
X94407987Y-64044937D01*
X94408306Y-64044481D01*
X94408716Y-64043823D01*
X94408985Y-64043333D01*
X94410236Y-64041267D01*
X94414380Y-64035847D01*
X94447379Y-63965079D01*
X94448713Y-63962308D01*
X94455028Y-63949587D01*
X94483450Y-63892331D01*
X94485102Y-63885706D01*
X94485936Y-63883439D01*
X94486155Y-63882914D01*
X94486404Y-63882210D01*
X94486566Y-63881660D01*
X94487344Y-63879376D01*
X94490226Y-63873194D01*
X94491714Y-63866536D01*
X94491717Y-63866528D01*
X94507264Y-63796975D01*
X94507972Y-63793979D01*
X94525216Y-63724818D01*
X94525216Y-63724815D01*
X94526867Y-63718195D01*
X94527058Y-63711374D01*
X94527387Y-63708970D01*
X94527584Y-63707874D01*
X94528246Y-63703105D01*
X94529376Y-63698049D01*
X94529683Y-63692558D01*
X94529683Y-63619122D01*
X94529732Y-63615605D01*
X94531687Y-63545619D01*
X94531687Y-63545614D01*
X94531877Y-63538798D01*
X94530598Y-63532094D01*
X94530089Y-63525768D01*
X94529683Y-63515661D01*
X94529683Y-62645467D01*
X94530125Y-62634923D01*
X94533170Y-62598660D01*
X94534306Y-62585134D01*
X94531915Y-62567210D01*
X94530790Y-62558782D01*
X94529683Y-62542118D01*
X94529683Y-61719146D01*
X94529732Y-61715628D01*
X94529757Y-61714718D01*
X94531878Y-61638800D01*
X94530599Y-61632093D01*
X94530089Y-61625758D01*
X94529683Y-61615651D01*
X94529683Y-61019144D01*
X94529732Y-61015626D01*
X94530167Y-61000044D01*
X94531878Y-60938798D01*
X94530599Y-60932091D01*
X94530089Y-60925756D01*
X94529683Y-60915649D01*
X94529683Y-60099695D01*
X94549685Y-60031574D01*
X94558809Y-60019126D01*
X94617443Y-59948626D01*
X94621141Y-59944180D01*
X94696011Y-59810490D01*
X94717863Y-59771471D01*
X94717864Y-59771469D01*
X94720687Y-59766428D01*
X94722543Y-59760961D01*
X94722545Y-59760956D01*
X94784317Y-59578981D01*
X94784318Y-59578976D01*
X94786173Y-59573512D01*
X94815406Y-59371892D01*
X94816932Y-59313629D01*
X94798291Y-59110755D01*
X94742990Y-58914676D01*
X94723097Y-58874335D01*
X94655439Y-58737139D01*
X94652884Y-58731958D01*
X94640441Y-58715294D01*
X94534441Y-58573344D01*
X94534441Y-58573343D01*
X94530988Y-58568720D01*
X94381386Y-58430429D01*
X94293907Y-58375234D01*
X94213971Y-58324798D01*
X94213966Y-58324796D01*
X94209087Y-58321717D01*
X94019863Y-58246224D01*
X93820049Y-58206478D01*
X93814275Y-58206402D01*
X93814271Y-58206402D01*
X93711135Y-58205053D01*
X93616338Y-58203812D01*
X93610641Y-58204791D01*
X93610640Y-58204791D01*
X93491075Y-58225336D01*
X93415553Y-58238313D01*
X93224417Y-58308827D01*
X93219456Y-58311779D01*
X93219455Y-58311779D01*
X93136432Y-58361173D01*
X93049332Y-58412992D01*
X93044988Y-58416802D01*
X92999882Y-58456358D01*
X92935478Y-58486235D01*
X92916805Y-58487626D01*
X92657054Y-58487626D01*
X92588933Y-58467624D01*
X92542440Y-58413968D01*
X92531791Y-58375234D01*
X92530263Y-58361173D01*
X92529410Y-58353317D01*
X92478280Y-58216928D01*
X92390926Y-58100372D01*
X92274370Y-58013018D01*
X92137981Y-57961888D01*
X92075799Y-57955133D01*
X90279531Y-57955133D01*
X90217349Y-57961888D01*
X90080960Y-58013018D01*
X89964404Y-58100372D01*
X89877050Y-58216928D01*
X89825920Y-58353317D01*
X89819165Y-58415499D01*
X89819165Y-60211767D01*
X89825920Y-60273949D01*
X89877050Y-60410338D01*
X89964404Y-60526894D01*
X90080960Y-60614248D01*
X90089369Y-60617400D01*
X90089370Y-60617401D01*
X90198116Y-60658168D01*
X90254881Y-60700809D01*
X90279581Y-60767371D01*
X90264374Y-60836720D01*
X90244981Y-60863201D01*
X90125067Y-60988684D01*
X90118294Y-60995771D01*
X90115380Y-61000043D01*
X90115379Y-61000044D01*
X90110204Y-61007631D01*
X89992408Y-61180313D01*
X89978614Y-61210030D01*
X89900634Y-61378025D01*
X89898353Y-61382938D01*
X89838654Y-61598203D01*
X89814916Y-61820328D01*
X89815213Y-61825481D01*
X89815213Y-61825484D01*
X89820676Y-61920223D01*
X89827775Y-62043348D01*
X89828912Y-62048394D01*
X89828913Y-62048400D01*
X89842262Y-62107633D01*
X89876887Y-62261272D01*
X89917011Y-62360086D01*
X89955684Y-62455326D01*
X89960931Y-62468249D01*
X90011326Y-62550487D01*
X90066288Y-62640176D01*
X90077652Y-62658721D01*
X90223915Y-62827571D01*
X90395791Y-62970265D01*
X90446273Y-62999764D01*
X90469110Y-63013109D01*
X90517834Y-63064747D01*
X90530905Y-63134530D01*
X90504174Y-63200302D01*
X90463720Y-63233660D01*
X90451272Y-63240140D01*
X90447139Y-63243243D01*
X90447136Y-63243245D01*
X90276765Y-63371163D01*
X90272630Y-63374268D01*
X90247206Y-63400873D01*
X90127219Y-63526432D01*
X90118294Y-63535771D01*
X90115380Y-63540043D01*
X90115379Y-63540044D01*
X90111576Y-63545619D01*
X89992408Y-63720313D01*
X89978726Y-63749788D01*
X89909723Y-63898444D01*
X89898353Y-63922938D01*
X89838654Y-64138203D01*
X89814916Y-64360328D01*
X89327672Y-64360328D01*
X89327672Y-56255443D01*
X89990190Y-56255443D01*
X90010145Y-56483530D01*
X90011569Y-56488843D01*
X90011569Y-56488845D01*
X90060121Y-56670040D01*
X90069404Y-56704686D01*
X90071727Y-56709667D01*
X90071727Y-56709668D01*
X90163839Y-56907205D01*
X90163842Y-56907210D01*
X90166165Y-56912192D01*
X90297490Y-57099743D01*
X90459388Y-57261641D01*
X90463896Y-57264798D01*
X90463899Y-57264800D01*
X90531202Y-57311926D01*
X90646939Y-57392966D01*
X90651921Y-57395289D01*
X90651926Y-57395292D01*
X90849463Y-57487404D01*
X90854445Y-57489727D01*
X90859753Y-57491149D01*
X90859755Y-57491150D01*
X91070286Y-57547562D01*
X91070288Y-57547562D01*
X91075601Y-57548986D01*
X91303688Y-57568941D01*
X91531775Y-57548986D01*
X91537088Y-57547562D01*
X91537090Y-57547562D01*
X91747621Y-57491150D01*
X91747623Y-57491149D01*
X91752931Y-57489727D01*
X91757913Y-57487404D01*
X91955450Y-57395292D01*
X91955455Y-57395289D01*
X91960437Y-57392966D01*
X92076174Y-57311926D01*
X92143477Y-57264800D01*
X92143480Y-57264798D01*
X92147988Y-57261641D01*
X92309886Y-57099743D01*
X92441211Y-56912192D01*
X92443534Y-56907210D01*
X92443537Y-56907205D01*
X92535649Y-56709668D01*
X92535649Y-56709667D01*
X92537972Y-56704686D01*
X92547256Y-56670040D01*
X92595807Y-56488845D01*
X92595807Y-56488843D01*
X92597231Y-56483530D01*
X92617186Y-56255443D01*
X92614636Y-56226302D01*
X94000820Y-56226302D01*
X94014145Y-56429594D01*
X94064293Y-56627053D01*
X94149586Y-56812067D01*
X94267167Y-56978440D01*
X94271301Y-56982467D01*
X94383671Y-57091933D01*
X94413098Y-57120600D01*
X94417894Y-57123805D01*
X94417897Y-57123807D01*
X94555952Y-57216052D01*
X94582491Y-57233785D01*
X94587794Y-57236063D01*
X94587797Y-57236065D01*
X94764368Y-57311926D01*
X94769675Y-57314206D01*
X94869028Y-57336687D01*
X94962744Y-57357893D01*
X94962747Y-57357893D01*
X94968380Y-57359168D01*
X94974151Y-57359395D01*
X94974153Y-57359395D01*
X95044943Y-57362176D01*
X95112226Y-57384837D01*
X95129092Y-57398984D01*
X95140777Y-57410669D01*
X95174803Y-57472981D01*
X95177682Y-57499764D01*
X95177682Y-60965401D01*
X95177240Y-60975945D01*
X95173059Y-61025734D01*
X95173961Y-61032494D01*
X95183388Y-61103138D01*
X95183755Y-61106177D01*
X95192193Y-61183851D01*
X95194369Y-61190317D01*
X95194886Y-61192667D01*
X95194983Y-61193217D01*
X95195162Y-61193984D01*
X95195317Y-61194519D01*
X95195893Y-61196866D01*
X95196795Y-61203624D01*
X95223492Y-61276974D01*
X95224508Y-61279877D01*
X95247257Y-61347473D01*
X95247260Y-61347480D01*
X95249436Y-61353945D01*
X95252951Y-61359794D01*
X95253964Y-61361987D01*
X95254176Y-61362502D01*
X95254509Y-61363200D01*
X95254782Y-61363701D01*
X95255842Y-61365855D01*
X95258176Y-61372268D01*
X95300024Y-61438209D01*
X95301638Y-61440824D01*
X95341868Y-61507778D01*
X95346549Y-61512729D01*
X95348019Y-61514665D01*
X95348667Y-61515596D01*
X95351567Y-61519430D01*
X95354339Y-61523798D01*
X95358005Y-61527898D01*
X95409927Y-61579820D01*
X95412380Y-61582342D01*
X95453437Y-61625758D01*
X95465178Y-61638174D01*
X95470820Y-61642008D01*
X95475664Y-61646131D01*
X95483094Y-61652987D01*
X96239502Y-62409394D01*
X96246645Y-62417162D01*
X96278896Y-62455326D01*
X96284320Y-62459473D01*
X96284321Y-62459474D01*
X96340915Y-62502743D01*
X96343331Y-62504636D01*
X96404232Y-62553603D01*
X96410345Y-62556638D01*
X96412389Y-62557945D01*
X96412843Y-62558263D01*
X96413496Y-62558669D01*
X96413986Y-62558939D01*
X96416052Y-62560190D01*
X96421467Y-62564330D01*
X96480660Y-62591932D01*
X96492225Y-62597325D01*
X96494997Y-62598659D01*
X96564983Y-62633400D01*
X96571608Y-62635052D01*
X96573875Y-62635886D01*
X96574400Y-62636105D01*
X96575104Y-62636354D01*
X96575654Y-62636516D01*
X96577938Y-62637294D01*
X96584120Y-62640176D01*
X96590778Y-62641664D01*
X96590786Y-62641667D01*
X96660339Y-62657214D01*
X96663335Y-62657922D01*
X96732496Y-62675166D01*
X96732499Y-62675166D01*
X96739119Y-62676817D01*
X96745940Y-62677008D01*
X96748337Y-62677336D01*
X96749451Y-62677537D01*
X96754225Y-62678199D01*
X96759265Y-62679326D01*
X96764756Y-62679633D01*
X96838170Y-62679633D01*
X96841688Y-62679682D01*
X96918516Y-62681828D01*
X96925223Y-62680549D01*
X96931558Y-62680039D01*
X96941665Y-62679633D01*
X99219221Y-62679633D01*
X99287342Y-62699635D01*
X99314457Y-62723134D01*
X99404923Y-62827571D01*
X99576799Y-62970265D01*
X99627281Y-62999764D01*
X99650628Y-63013407D01*
X99699352Y-63065045D01*
X99712423Y-63134828D01*
X99685692Y-63200600D01*
X99645235Y-63233960D01*
X99637130Y-63238179D01*
X99628411Y-63243669D01*
X99458106Y-63371538D01*
X99450399Y-63378381D01*
X99303263Y-63532350D01*
X99296777Y-63540360D01*
X99176771Y-63716282D01*
X99171673Y-63725256D01*
X99082011Y-63918416D01*
X99078448Y-63928103D01*
X99023062Y-64127816D01*
X99024585Y-64136240D01*
X99036965Y-64139633D01*
X101677017Y-64139633D01*
X101690548Y-64135660D01*
X101691853Y-64126580D01*
X101649887Y-63959508D01*
X101646567Y-63949757D01*
X101561645Y-63754447D01*
X101556778Y-63745372D01*
X101441099Y-63566559D01*
X101434809Y-63558390D01*
X101291479Y-63400873D01*
X101283946Y-63393848D01*
X101116812Y-63261855D01*
X101108229Y-63256153D01*
X101071275Y-63235753D01*
X101021304Y-63185320D01*
X101006532Y-63115878D01*
X101031648Y-63049472D01*
X101059000Y-63022865D01*
X101128936Y-62972980D01*
X101238533Y-62894806D01*
X101396769Y-62737122D01*
X101438300Y-62679326D01*
X101524108Y-62559910D01*
X101527126Y-62555710D01*
X101529708Y-62550487D01*
X101623809Y-62360086D01*
X101623810Y-62360084D01*
X101626103Y-62355444D01*
X101691043Y-62141702D01*
X101720202Y-61920223D01*
X101721829Y-61853633D01*
X101703525Y-61630994D01*
X101649104Y-61414335D01*
X101560027Y-61209473D01*
X101445534Y-61032494D01*
X101441495Y-61026250D01*
X101441493Y-61026247D01*
X101438687Y-61021910D01*
X101419078Y-61000360D01*
X101291471Y-60860121D01*
X101260419Y-60796275D01*
X101268814Y-60725776D01*
X101313990Y-60671008D01*
X101340434Y-60657339D01*
X101446970Y-60617400D01*
X101455378Y-60614248D01*
X101571934Y-60526894D01*
X101659288Y-60410338D01*
X101710418Y-60273949D01*
X101717173Y-60211767D01*
X101717173Y-58415499D01*
X101710418Y-58353317D01*
X101659288Y-58216928D01*
X101571934Y-58100372D01*
X101455378Y-58013018D01*
X101318989Y-57961888D01*
X101256807Y-57955133D01*
X99460539Y-57955133D01*
X99398357Y-57961888D01*
X99261968Y-58013018D01*
X99145412Y-58100372D01*
X99058058Y-58216928D01*
X99006928Y-58353317D01*
X99000173Y-58415499D01*
X99000173Y-60211767D01*
X99006928Y-60273949D01*
X99058058Y-60410338D01*
X99145412Y-60526894D01*
X99261968Y-60614248D01*
X99270377Y-60617400D01*
X99270378Y-60617401D01*
X99379124Y-60658168D01*
X99435889Y-60700809D01*
X99460589Y-60767371D01*
X99445382Y-60836720D01*
X99425989Y-60863201D01*
X99318249Y-60975945D01*
X99306075Y-60988684D01*
X99244551Y-61024114D01*
X99214981Y-61027633D01*
X97246211Y-61027633D01*
X97178090Y-61007631D01*
X97157116Y-60990728D01*
X96866587Y-60700199D01*
X96832561Y-60637887D01*
X96829682Y-60611104D01*
X96829682Y-57145468D01*
X96830124Y-57134924D01*
X96833734Y-57091933D01*
X96834305Y-57085135D01*
X96833403Y-57078376D01*
X96833403Y-57078371D01*
X96823979Y-57007740D01*
X96823609Y-57004686D01*
X96815908Y-56933800D01*
X96815908Y-56933799D01*
X96815171Y-56927017D01*
X96812994Y-56920550D01*
X96812478Y-56918202D01*
X96812380Y-56917644D01*
X96812203Y-56916886D01*
X96812047Y-56916349D01*
X96811471Y-56914002D01*
X96810569Y-56907244D01*
X96783871Y-56833892D01*
X96782856Y-56830991D01*
X96760107Y-56763395D01*
X96760104Y-56763388D01*
X96757928Y-56756923D01*
X96754413Y-56751074D01*
X96753400Y-56748881D01*
X96753188Y-56748366D01*
X96752855Y-56747668D01*
X96752582Y-56747167D01*
X96751522Y-56745013D01*
X96749188Y-56738600D01*
X96707323Y-56672632D01*
X96705723Y-56670040D01*
X96676529Y-56621453D01*
X96665496Y-56603090D01*
X96660815Y-56598139D01*
X96659345Y-56596203D01*
X96658698Y-56595272D01*
X96655795Y-56591434D01*
X96653025Y-56587070D01*
X96649359Y-56582971D01*
X96597454Y-56531066D01*
X96595001Y-56528544D01*
X96546880Y-56477657D01*
X96546876Y-56477654D01*
X96542186Y-56472694D01*
X96536539Y-56468856D01*
X96531687Y-56464727D01*
X96524257Y-56457869D01*
X96249543Y-56183155D01*
X96215517Y-56120843D01*
X96213169Y-56105608D01*
X96208296Y-56052569D01*
X96157636Y-55872944D01*
X96157751Y-55862178D01*
X96147814Y-55845984D01*
X96065444Y-55678953D01*
X96062889Y-55673772D01*
X96044484Y-55649124D01*
X95944446Y-55515158D01*
X95944446Y-55515157D01*
X95940993Y-55510534D01*
X95791391Y-55372243D01*
X95653848Y-55285460D01*
X95623976Y-55266612D01*
X95623971Y-55266610D01*
X95619092Y-55263531D01*
X95429868Y-55188038D01*
X95230054Y-55148292D01*
X95224280Y-55148216D01*
X95224276Y-55148216D01*
X95121140Y-55146867D01*
X95026343Y-55145626D01*
X95020646Y-55146605D01*
X95020645Y-55146605D01*
X94831255Y-55179148D01*
X94825558Y-55180127D01*
X94634422Y-55250641D01*
X94629461Y-55253593D01*
X94629460Y-55253593D01*
X94577067Y-55284764D01*
X94459337Y-55354806D01*
X94306166Y-55489133D01*
X94302599Y-55493658D01*
X94302594Y-55493663D01*
X94262901Y-55544014D01*
X94180039Y-55649124D01*
X94085180Y-55829421D01*
X94024766Y-56023986D01*
X94000820Y-56226302D01*
X92614636Y-56226302D01*
X92597231Y-56027356D01*
X92553809Y-55865303D01*
X92539395Y-55811510D01*
X92539394Y-55811508D01*
X92537972Y-55806200D01*
X92532614Y-55794710D01*
X92443537Y-55603681D01*
X92443534Y-55603676D01*
X92441211Y-55598694D01*
X92361831Y-55485328D01*
X92313045Y-55415654D01*
X92313043Y-55415651D01*
X92309886Y-55411143D01*
X92147988Y-55249245D01*
X92143480Y-55246088D01*
X92143477Y-55246086D01*
X92005422Y-55149419D01*
X91960437Y-55117920D01*
X91955453Y-55115596D01*
X91953160Y-55114272D01*
X91904167Y-55062890D01*
X91890731Y-54993176D01*
X91917117Y-54927265D01*
X91953160Y-54896034D01*
X91964690Y-54889377D01*
X92016736Y-54852934D01*
X92025112Y-54842455D01*
X92018044Y-54829009D01*
X91316500Y-54127465D01*
X91302556Y-54119851D01*
X91300723Y-54119982D01*
X91294108Y-54124233D01*
X90588611Y-54829730D01*
X90582181Y-54841505D01*
X90591477Y-54853520D01*
X90642686Y-54889377D01*
X90654216Y-54896034D01*
X90703209Y-54947416D01*
X90716646Y-55017130D01*
X90690259Y-55083041D01*
X90654216Y-55114272D01*
X90651923Y-55115596D01*
X90646939Y-55117920D01*
X90601954Y-55149419D01*
X90463899Y-55246086D01*
X90463896Y-55246088D01*
X90459388Y-55249245D01*
X90297490Y-55411143D01*
X90294333Y-55415651D01*
X90294331Y-55415654D01*
X90245545Y-55485328D01*
X90166165Y-55598694D01*
X90163842Y-55603676D01*
X90163839Y-55603681D01*
X90074762Y-55794710D01*
X90069404Y-55806200D01*
X90067982Y-55811508D01*
X90067981Y-55811510D01*
X90053567Y-55865303D01*
X90010145Y-56027356D01*
X89990190Y-56255443D01*
X89327672Y-56255443D01*
X89327672Y-53760918D01*
X89991171Y-53760918D01*
X90010160Y-53977962D01*
X90012063Y-53988755D01*
X90068452Y-54199204D01*
X90072198Y-54209496D01*
X90164274Y-54406954D01*
X90169757Y-54416449D01*
X90206197Y-54468491D01*
X90216676Y-54476867D01*
X90230122Y-54469799D01*
X90931666Y-53768255D01*
X90938044Y-53756575D01*
X91668096Y-53756575D01*
X91668227Y-53758408D01*
X91672478Y-53765023D01*
X92377975Y-54470520D01*
X92389750Y-54476950D01*
X92401765Y-54467654D01*
X92437619Y-54416449D01*
X92443102Y-54406954D01*
X92535178Y-54209496D01*
X92538924Y-54199204D01*
X92595313Y-53988755D01*
X92597216Y-53977962D01*
X92616205Y-53760918D01*
X92616205Y-53749968D01*
X92597216Y-53532924D01*
X92595313Y-53522131D01*
X92538924Y-53311682D01*
X92535178Y-53301390D01*
X92443102Y-53103932D01*
X92437619Y-53094437D01*
X92401179Y-53042395D01*
X92390700Y-53034019D01*
X92377254Y-53041087D01*
X91675710Y-53742631D01*
X91668096Y-53756575D01*
X90938044Y-53756575D01*
X90939280Y-53754311D01*
X90939149Y-53752478D01*
X90934898Y-53745863D01*
X90229401Y-53040366D01*
X90217626Y-53033936D01*
X90205611Y-53043232D01*
X90169757Y-53094437D01*
X90164274Y-53103932D01*
X90072198Y-53301390D01*
X90068452Y-53311682D01*
X90012063Y-53522131D01*
X90010160Y-53532924D01*
X89991171Y-53749968D01*
X89991171Y-53760918D01*
X89327672Y-53760918D01*
X89327672Y-52668431D01*
X90582264Y-52668431D01*
X90589332Y-52681877D01*
X91290876Y-53383421D01*
X91304820Y-53391035D01*
X91306653Y-53390904D01*
X91313268Y-53386653D01*
X92018765Y-52681156D01*
X92025195Y-52669381D01*
X92015899Y-52657366D01*
X91964694Y-52621512D01*
X91955199Y-52616029D01*
X91757741Y-52523953D01*
X91747449Y-52520207D01*
X91537000Y-52463818D01*
X91526207Y-52461915D01*
X91309163Y-52442926D01*
X91298213Y-52442926D01*
X91081169Y-52461915D01*
X91070376Y-52463818D01*
X90859927Y-52520207D01*
X90849635Y-52523953D01*
X90652177Y-52616029D01*
X90642682Y-52621512D01*
X90590640Y-52657952D01*
X90582264Y-52668431D01*
X89327672Y-52668431D01*
X89327672Y-51650835D01*
X90755214Y-51650835D01*
X90763350Y-51661840D01*
X91023611Y-51861544D01*
X91029210Y-51865378D01*
X91324934Y-52045181D01*
X91330924Y-52048393D01*
X91644330Y-52195203D01*
X91650634Y-52197750D01*
X91978056Y-52309851D01*
X91984607Y-52311705D01*
X92322212Y-52387787D01*
X92328931Y-52388924D01*
X92672785Y-52428102D01*
X92679575Y-52428505D01*
X93025645Y-52430317D01*
X93032446Y-52429985D01*
X93376692Y-52394411D01*
X93383420Y-52393345D01*
X93721816Y-52320798D01*
X93728365Y-52319019D01*
X94056950Y-52210350D01*
X94063292Y-52207864D01*
X94378195Y-52064355D01*
X94384249Y-52061190D01*
X94681799Y-51884518D01*
X94687480Y-51880715D01*
X94964218Y-51672935D01*
X94969442Y-51668551D01*
X94975909Y-51662499D01*
X94983978Y-51648819D01*
X94983951Y-51648095D01*
X94978807Y-51639792D01*
X92882482Y-49543466D01*
X92868541Y-49535854D01*
X92866706Y-49535985D01*
X92860092Y-49540236D01*
X90762095Y-51638234D01*
X90755214Y-51650835D01*
X89327672Y-51650835D01*
X89327672Y-49163453D01*
X89607080Y-49163453D01*
X89624590Y-49509105D01*
X89625300Y-49515861D01*
X89680036Y-49857587D01*
X89681475Y-49864242D01*
X89772795Y-50198050D01*
X89774944Y-50204511D01*
X89901783Y-50526512D01*
X89904614Y-50532695D01*
X90065484Y-50839109D01*
X90068978Y-50844970D01*
X90261990Y-51132200D01*
X90266100Y-51137654D01*
X90381583Y-51274795D01*
X90394322Y-51283239D01*
X90404765Y-51277142D01*
X92497652Y-49184256D01*
X92504029Y-49172577D01*
X93234080Y-49172577D01*
X93234211Y-49174412D01*
X93238462Y-49181026D01*
X95333225Y-51275788D01*
X95346821Y-51283213D01*
X95356434Y-51276512D01*
X95452516Y-51164806D01*
X95456674Y-51159406D01*
X95652694Y-50874197D01*
X95656241Y-50868386D01*
X95820305Y-50563684D01*
X95823212Y-50557506D01*
X95953415Y-50236857D01*
X95955629Y-50230427D01*
X96043341Y-49922511D01*
X96081240Y-49862476D01*
X96145580Y-49832462D01*
X96215933Y-49841997D01*
X96269963Y-49888054D01*
X96290520Y-49957030D01*
X96290520Y-55184049D01*
X96288774Y-55204954D01*
X96285449Y-55224717D01*
X96285296Y-55237256D01*
X96287406Y-55251990D01*
X96288355Y-55260837D01*
X96302056Y-55452416D01*
X96311029Y-55493663D01*
X96345960Y-55654238D01*
X96347908Y-55663195D01*
X96349475Y-55667397D01*
X96349477Y-55667403D01*
X96378876Y-55746223D01*
X96380370Y-55767106D01*
X96385626Y-55771760D01*
X96396961Y-55794710D01*
X96423291Y-55865303D01*
X96526669Y-56054626D01*
X96655938Y-56227310D01*
X96808467Y-56379839D01*
X96981151Y-56509108D01*
X96985105Y-56511267D01*
X97114114Y-56581711D01*
X97170474Y-56612486D01*
X97174686Y-56614057D01*
X97368374Y-56686300D01*
X97368380Y-56686302D01*
X97372582Y-56687869D01*
X97376968Y-56688823D01*
X97376971Y-56688824D01*
X97501141Y-56715835D01*
X97583361Y-56733721D01*
X97587849Y-56734042D01*
X97758117Y-56746220D01*
X97770026Y-56747644D01*
X97785982Y-56750328D01*
X97792337Y-56750406D01*
X97793662Y-56750422D01*
X97793666Y-56750422D01*
X97798521Y-56750481D01*
X97826109Y-56746530D01*
X97843972Y-56745257D01*
X102865618Y-56745257D01*
X102886523Y-56747003D01*
X102901493Y-56749522D01*
X102901498Y-56749522D01*
X102906286Y-56750328D01*
X102912616Y-56750405D01*
X102913967Y-56750422D01*
X102913971Y-56750422D01*
X102918825Y-56750481D01*
X102933559Y-56748371D01*
X102942406Y-56747422D01*
X103090602Y-56736824D01*
X103129498Y-56734042D01*
X103129499Y-56734042D01*
X103133985Y-56733721D01*
X103291867Y-56699376D01*
X103340375Y-56688824D01*
X103340378Y-56688823D01*
X103344764Y-56687869D01*
X103348966Y-56686302D01*
X103348972Y-56686300D01*
X103542660Y-56614057D01*
X103546872Y-56612486D01*
X103603233Y-56581711D01*
X103732241Y-56511267D01*
X103736195Y-56509108D01*
X103908879Y-56379839D01*
X104061408Y-56227310D01*
X104190677Y-56054626D01*
X104294055Y-55865303D01*
X104314119Y-55811510D01*
X104367869Y-55667403D01*
X104367871Y-55667397D01*
X104369438Y-55663195D01*
X104371387Y-55654238D01*
X104414334Y-55456810D01*
X104415290Y-55452416D01*
X104421024Y-55372243D01*
X104427789Y-55277660D01*
X104429213Y-55265749D01*
X104429977Y-55261208D01*
X104431897Y-55249795D01*
X104432050Y-55237256D01*
X104428099Y-55209668D01*
X104426826Y-55191805D01*
X104426826Y-54850884D01*
X104446828Y-54782763D01*
X104500484Y-54736270D01*
X104570758Y-54726166D01*
X104606881Y-54737068D01*
X104903827Y-54878105D01*
X105562248Y-55190827D01*
X105571476Y-55195688D01*
X105610440Y-55218320D01*
X105610445Y-55218322D01*
X105616770Y-55221996D01*
X105623767Y-55224115D01*
X105623778Y-55224120D01*
X105687695Y-55243478D01*
X105691685Y-55244759D01*
X105737218Y-55260220D01*
X105761793Y-55268565D01*
X105769083Y-55269261D01*
X105774457Y-55270414D01*
X105779822Y-55271379D01*
X105786828Y-55273501D01*
X105831654Y-55276282D01*
X105860739Y-55278086D01*
X105864919Y-55278415D01*
X105931383Y-55284764D01*
X105931387Y-55284764D01*
X105938674Y-55285460D01*
X105945928Y-55284460D01*
X105951359Y-55284347D01*
X105956863Y-55284049D01*
X105964174Y-55284503D01*
X105971389Y-55283263D01*
X105971393Y-55283263D01*
X106037161Y-55271962D01*
X106041300Y-55271321D01*
X106081741Y-55265749D01*
X106114699Y-55261208D01*
X106121516Y-55258572D01*
X106126796Y-55257207D01*
X106132079Y-55255652D01*
X106139294Y-55254412D01*
X106207480Y-55225399D01*
X106211337Y-55223833D01*
X106280423Y-55197114D01*
X106286461Y-55192973D01*
X106291295Y-55190425D01*
X106296057Y-55187709D01*
X106302794Y-55184842D01*
X106308691Y-55180502D01*
X106308695Y-55180500D01*
X106362448Y-55140943D01*
X106365862Y-55138517D01*
X106420917Y-55100757D01*
X106420925Y-55100750D01*
X106426957Y-55096613D01*
X106431876Y-55091198D01*
X106436002Y-55087600D01*
X106440010Y-55083863D01*
X106445905Y-55079524D01*
X106493893Y-55023038D01*
X106496623Y-55019931D01*
X106541521Y-54970513D01*
X106541523Y-54970510D01*
X106546440Y-54965098D01*
X106549980Y-54958700D01*
X106553170Y-54954246D01*
X106556212Y-54949685D01*
X106560949Y-54944108D01*
X106594659Y-54878092D01*
X106596620Y-54874405D01*
X106628921Y-54816027D01*
X106628922Y-54816025D01*
X106632464Y-54809623D01*
X106634439Y-54802576D01*
X106636527Y-54797486D01*
X106638425Y-54792382D01*
X106641756Y-54785859D01*
X106659364Y-54713901D01*
X106660427Y-54709849D01*
X106678440Y-54645574D01*
X106678440Y-54645571D01*
X106680414Y-54638529D01*
X106680715Y-54631215D01*
X106681816Y-54624265D01*
X106681812Y-54624264D01*
X106682657Y-54618708D01*
X106683989Y-54613264D01*
X106684685Y-54602046D01*
X106684685Y-54537317D01*
X106684791Y-54532138D01*
X106687718Y-54460993D01*
X106686328Y-54453803D01*
X106685780Y-54446511D01*
X106685955Y-54446498D01*
X106684685Y-54433240D01*
X106684685Y-53379517D01*
X106685117Y-53369096D01*
X106688843Y-53324201D01*
X106688843Y-53324199D01*
X106689448Y-53316908D01*
X106688360Y-53309678D01*
X106688360Y-53309672D01*
X106678424Y-53243632D01*
X106677870Y-53239480D01*
X106670143Y-53173207D01*
X106670142Y-53173203D01*
X106669295Y-53165938D01*
X106666799Y-53159061D01*
X106665536Y-53153720D01*
X106664099Y-53148435D01*
X106663011Y-53141200D01*
X106635437Y-53072454D01*
X106633942Y-53068540D01*
X106611165Y-53005790D01*
X106611165Y-53005789D01*
X106608669Y-52998914D01*
X106604658Y-52992796D01*
X106602214Y-52987916D01*
X106599588Y-52983080D01*
X106596862Y-52976285D01*
X106554214Y-52915729D01*
X106551859Y-52912264D01*
X106515258Y-52856439D01*
X106515257Y-52856438D01*
X106511244Y-52850317D01*
X106505930Y-52845282D01*
X106502411Y-52841074D01*
X106498761Y-52836992D01*
X106494548Y-52831011D01*
X106489075Y-52826162D01*
X106489073Y-52826159D01*
X106439095Y-52781874D01*
X106436042Y-52779077D01*
X106382248Y-52728118D01*
X106375918Y-52724442D01*
X106371525Y-52721155D01*
X106367040Y-52718027D01*
X106361560Y-52713171D01*
X106296317Y-52678124D01*
X106292665Y-52676084D01*
X106234925Y-52642546D01*
X106234926Y-52642546D01*
X106228600Y-52638872D01*
X106221599Y-52636752D01*
X106216584Y-52634571D01*
X106211472Y-52632548D01*
X106205028Y-52629086D01*
X106133460Y-52609985D01*
X106129442Y-52608840D01*
X106065547Y-52589488D01*
X106065542Y-52589487D01*
X106058542Y-52587367D01*
X106051236Y-52586914D01*
X106045866Y-52585948D01*
X106040427Y-52585155D01*
X106033350Y-52583266D01*
X105959294Y-52581140D01*
X105955111Y-52580950D01*
X105881196Y-52576365D01*
X105873975Y-52577606D01*
X105868466Y-52577904D01*
X105863055Y-52578378D01*
X105855737Y-52578168D01*
X105783174Y-52593138D01*
X105779091Y-52593910D01*
X105706076Y-52606456D01*
X105699335Y-52609325D01*
X105692585Y-52611311D01*
X105692587Y-52611316D01*
X105687208Y-52612936D01*
X105681714Y-52614069D01*
X105671283Y-52618253D01*
X105612835Y-52646014D01*
X105608112Y-52648139D01*
X105549312Y-52673159D01*
X105549307Y-52673162D01*
X105542576Y-52676026D01*
X105536685Y-52680361D01*
X105530320Y-52683992D01*
X105530234Y-52683841D01*
X105518801Y-52690678D01*
X104719091Y-53070515D01*
X104606884Y-53123810D01*
X104536770Y-53134969D01*
X104471753Y-53106449D01*
X104432477Y-53047307D01*
X104426826Y-53009996D01*
X104426826Y-51650835D01*
X105733212Y-51650835D01*
X105741348Y-51661840D01*
X106001609Y-51861544D01*
X106007208Y-51865378D01*
X106302932Y-52045181D01*
X106308922Y-52048393D01*
X106622328Y-52195203D01*
X106628632Y-52197750D01*
X106956054Y-52309851D01*
X106962605Y-52311705D01*
X107300210Y-52387787D01*
X107306929Y-52388924D01*
X107650783Y-52428102D01*
X107657573Y-52428505D01*
X108003643Y-52430317D01*
X108010444Y-52429985D01*
X108354690Y-52394411D01*
X108361418Y-52393345D01*
X108699814Y-52320798D01*
X108706363Y-52319019D01*
X109034948Y-52210350D01*
X109041290Y-52207864D01*
X109356193Y-52064355D01*
X109362247Y-52061190D01*
X109659797Y-51884518D01*
X109665478Y-51880715D01*
X109942216Y-51672935D01*
X109947440Y-51668551D01*
X109953907Y-51662499D01*
X109961976Y-51648819D01*
X109961949Y-51648095D01*
X109956805Y-51639792D01*
X107860480Y-49543466D01*
X107846539Y-49535854D01*
X107844704Y-49535985D01*
X107838090Y-49540236D01*
X105740093Y-51638234D01*
X105733212Y-51650835D01*
X104426826Y-51650835D01*
X104426826Y-49951908D01*
X104446828Y-49883787D01*
X104500484Y-49837294D01*
X104570758Y-49827190D01*
X104635338Y-49856684D01*
X104674360Y-49918660D01*
X104750793Y-50198050D01*
X104752942Y-50204511D01*
X104879781Y-50526512D01*
X104882612Y-50532695D01*
X105043482Y-50839109D01*
X105046976Y-50844970D01*
X105239988Y-51132200D01*
X105244098Y-51137654D01*
X105359581Y-51274795D01*
X105372320Y-51283239D01*
X105382763Y-51277142D01*
X107475650Y-49184256D01*
X107482027Y-49172577D01*
X108212078Y-49172577D01*
X108212209Y-49174412D01*
X108216460Y-49181026D01*
X110311223Y-51275788D01*
X110324819Y-51283213D01*
X110334432Y-51276512D01*
X110430514Y-51164806D01*
X110434672Y-51159406D01*
X110630692Y-50874197D01*
X110634239Y-50868386D01*
X110798303Y-50563684D01*
X110801210Y-50557506D01*
X110931413Y-50236857D01*
X110933627Y-50230427D01*
X111028438Y-49897589D01*
X111029945Y-49890959D01*
X111088259Y-49549808D01*
X111089039Y-49543068D01*
X111110264Y-49196022D01*
X111110380Y-49192419D01*
X111110448Y-49173265D01*
X111110356Y-49169640D01*
X111091554Y-48822469D01*
X111090819Y-48815703D01*
X111034893Y-48474184D01*
X111033426Y-48467512D01*
X110940947Y-48134044D01*
X110938773Y-48127581D01*
X110810811Y-47806028D01*
X110807955Y-47799848D01*
X110646017Y-47494000D01*
X110642517Y-47488175D01*
X110448481Y-47201585D01*
X110444374Y-47196175D01*
X110335759Y-47068101D01*
X110322934Y-47059665D01*
X110312610Y-47065717D01*
X108219690Y-49158636D01*
X108212078Y-49172577D01*
X107482027Y-49172577D01*
X107483262Y-49170315D01*
X107483131Y-49168480D01*
X107478880Y-49161866D01*
X105384128Y-47067115D01*
X105370591Y-47059723D01*
X105360889Y-47066511D01*
X105257878Y-47187122D01*
X105253745Y-47192527D01*
X105058721Y-47478422D01*
X105055200Y-47484235D01*
X104892192Y-47789520D01*
X104889306Y-47795710D01*
X104760228Y-48116803D01*
X104758037Y-48123238D01*
X104674125Y-48421764D01*
X104636436Y-48481931D01*
X104572201Y-48512169D01*
X104501815Y-48502880D01*
X104447624Y-48457012D01*
X104426826Y-48387668D01*
X104426826Y-47648727D01*
X104428572Y-47627822D01*
X104431091Y-47612852D01*
X104431091Y-47612847D01*
X104431897Y-47608059D01*
X104432050Y-47595520D01*
X104429940Y-47580786D01*
X104428990Y-47571928D01*
X104423001Y-47488175D01*
X104415290Y-47380360D01*
X104369438Y-47169581D01*
X104367871Y-47165379D01*
X104367869Y-47165373D01*
X104295626Y-46971685D01*
X104294055Y-46967473D01*
X104288248Y-46956837D01*
X104192836Y-46782104D01*
X104190677Y-46778150D01*
X104127445Y-46693681D01*
X105732993Y-46693681D01*
X105733027Y-46694520D01*
X105738082Y-46702647D01*
X107834860Y-48799426D01*
X107848801Y-48807038D01*
X107850636Y-48806907D01*
X107857250Y-48802656D01*
X109955100Y-46704805D01*
X109962714Y-46690861D01*
X109962646Y-46689907D01*
X109958692Y-46683928D01*
X109684334Y-46474923D01*
X109678710Y-46471101D01*
X109382369Y-46292337D01*
X109376362Y-46289144D01*
X109062459Y-46143434D01*
X109056136Y-46140905D01*
X108728324Y-46029947D01*
X108721766Y-46028117D01*
X108383902Y-45953213D01*
X108377173Y-45952099D01*
X108033185Y-45914122D01*
X108026405Y-45913743D01*
X107680306Y-45913140D01*
X107673533Y-45913495D01*
X107329396Y-45950272D01*
X107322686Y-45951359D01*
X106984554Y-46025084D01*
X106977979Y-46026895D01*
X106649787Y-46136706D01*
X106643465Y-46139209D01*
X106329058Y-46283820D01*
X106323015Y-46287006D01*
X106026076Y-46464720D01*
X106020416Y-46468538D01*
X105744403Y-46677287D01*
X105740811Y-46680321D01*
X105732993Y-46693681D01*
X104127445Y-46693681D01*
X104061408Y-46605466D01*
X103908879Y-46452937D01*
X103736195Y-46323668D01*
X103702381Y-46305204D01*
X103550819Y-46222445D01*
X103550817Y-46222444D01*
X103546872Y-46220290D01*
X103539861Y-46217675D01*
X103348972Y-46146476D01*
X103348966Y-46146474D01*
X103344764Y-46144907D01*
X103340378Y-46143953D01*
X103340375Y-46143952D01*
X103216205Y-46116941D01*
X103133985Y-46099055D01*
X103129497Y-46098734D01*
X102959229Y-46086556D01*
X102947318Y-46085132D01*
X102931364Y-46082448D01*
X102925009Y-46082370D01*
X102923684Y-46082354D01*
X102923680Y-46082354D01*
X102918825Y-46082295D01*
X102894540Y-46085773D01*
X102891237Y-46086246D01*
X102873374Y-46087519D01*
X97851728Y-46087519D01*
X97830823Y-46085773D01*
X97815853Y-46083254D01*
X97815848Y-46083254D01*
X97811060Y-46082448D01*
X97804730Y-46082371D01*
X97803379Y-46082354D01*
X97803375Y-46082354D01*
X97798521Y-46082295D01*
X97783787Y-46084405D01*
X97774940Y-46085354D01*
X97626744Y-46095952D01*
X97587848Y-46098734D01*
X97587847Y-46098734D01*
X97583361Y-46099055D01*
X97435037Y-46131321D01*
X97376971Y-46143952D01*
X97376968Y-46143953D01*
X97372582Y-46144907D01*
X97368380Y-46146474D01*
X97368374Y-46146476D01*
X97177485Y-46217675D01*
X97170474Y-46220290D01*
X97166529Y-46222444D01*
X97166527Y-46222445D01*
X97014965Y-46305204D01*
X96981151Y-46323668D01*
X96808467Y-46452937D01*
X96655938Y-46605466D01*
X96526669Y-46778150D01*
X96524510Y-46782104D01*
X96429099Y-46956837D01*
X96423291Y-46967473D01*
X96421720Y-46971685D01*
X96349477Y-47165373D01*
X96349475Y-47165379D01*
X96347908Y-47169581D01*
X96346954Y-47173967D01*
X96346953Y-47173970D01*
X96321982Y-47288762D01*
X96302056Y-47380360D01*
X96301735Y-47384847D01*
X96301735Y-47384848D01*
X96289557Y-47555116D01*
X96288133Y-47567025D01*
X96285449Y-47582981D01*
X96285296Y-47595520D01*
X96285986Y-47600335D01*
X96289247Y-47623108D01*
X96290520Y-47640971D01*
X96290520Y-48389397D01*
X96270518Y-48457518D01*
X96216862Y-48504011D01*
X96146588Y-48514115D01*
X96082008Y-48484621D01*
X96043103Y-48423069D01*
X95962949Y-48134044D01*
X95960775Y-48127581D01*
X95832813Y-47806028D01*
X95829957Y-47799848D01*
X95668019Y-47494000D01*
X95664519Y-47488175D01*
X95470483Y-47201585D01*
X95466376Y-47196175D01*
X95357761Y-47068101D01*
X95344936Y-47059665D01*
X95334612Y-47065717D01*
X93241692Y-49158636D01*
X93234080Y-49172577D01*
X92504029Y-49172577D01*
X92505264Y-49170315D01*
X92505133Y-49168480D01*
X92500882Y-49161866D01*
X90406130Y-47067115D01*
X90392593Y-47059723D01*
X90382891Y-47066511D01*
X90279880Y-47187122D01*
X90275747Y-47192527D01*
X90080723Y-47478422D01*
X90077202Y-47484235D01*
X89914194Y-47789520D01*
X89911308Y-47795710D01*
X89782230Y-48116803D01*
X89780039Y-48123238D01*
X89686387Y-48456414D01*
X89684904Y-48463049D01*
X89627785Y-48804382D01*
X89627026Y-48811154D01*
X89607104Y-49156658D01*
X89607080Y-49163453D01*
X89327672Y-49163453D01*
X89327672Y-48170774D01*
X89329172Y-48151389D01*
X89331477Y-48136588D01*
X89331477Y-48136585D01*
X89332858Y-48127716D01*
X89330613Y-48110547D01*
X89329780Y-48086607D01*
X89345382Y-47828676D01*
X89347216Y-47813572D01*
X89360186Y-47742798D01*
X89398712Y-47532567D01*
X89402351Y-47517799D01*
X89411583Y-47488175D01*
X89487347Y-47245038D01*
X89492742Y-47230816D01*
X89609988Y-46970306D01*
X89617057Y-46956837D01*
X89764854Y-46712351D01*
X89773497Y-46699829D01*
X89778314Y-46693681D01*
X90754995Y-46693681D01*
X90755029Y-46694520D01*
X90760084Y-46702647D01*
X92856862Y-48799426D01*
X92870803Y-48807038D01*
X92872638Y-48806907D01*
X92879252Y-48802656D01*
X94977102Y-46704805D01*
X94984716Y-46690861D01*
X94984648Y-46689907D01*
X94980694Y-46683928D01*
X94706336Y-46474923D01*
X94700712Y-46471101D01*
X94404371Y-46292337D01*
X94398364Y-46289144D01*
X94084461Y-46143434D01*
X94078138Y-46140905D01*
X93750326Y-46029947D01*
X93743768Y-46028117D01*
X93405904Y-45953213D01*
X93399175Y-45952099D01*
X93055187Y-45914122D01*
X93048407Y-45913743D01*
X92702308Y-45913140D01*
X92695535Y-45913495D01*
X92351398Y-45950272D01*
X92344688Y-45951359D01*
X92006556Y-46025084D01*
X91999981Y-46026895D01*
X91671789Y-46136706D01*
X91665467Y-46139209D01*
X91351060Y-46283820D01*
X91345017Y-46287006D01*
X91048078Y-46464720D01*
X91042418Y-46468538D01*
X90766405Y-46677287D01*
X90762813Y-46680321D01*
X90754995Y-46693681D01*
X89778314Y-46693681D01*
X89949688Y-46474939D01*
X89959778Y-46463551D01*
X90161777Y-46261552D01*
X90173165Y-46251462D01*
X90398055Y-46075271D01*
X90410577Y-46066628D01*
X90655063Y-45918831D01*
X90668532Y-45911762D01*
X90929045Y-45794515D01*
X90943264Y-45789121D01*
X91216031Y-45704124D01*
X91230793Y-45700486D01*
X91441024Y-45661960D01*
X91511798Y-45648990D01*
X91526902Y-45647156D01*
X91777601Y-45631991D01*
X91804311Y-45633248D01*
X91804531Y-45633251D01*
X91813402Y-45634632D01*
X91822304Y-45633468D01*
X91822307Y-45633468D01*
X91845015Y-45630498D01*
X91861353Y-45629434D01*
X108848265Y-45629434D01*
X108867649Y-45630934D01*
G37*
%TD.AperFunction*%
%TD*%
M02*
