M48
; DRILL file {KiCad (6.0.0)} date Sun Apr  3 10:39:28 2022
; FORMAT={-:-/ absolute / inch / decimal}
; #@! TF.CreationDate,2022-04-03T10:39:28-04:00
; #@! TF.GenerationSoftware,Kicad,Pcbnew,(6.0.0)
; #@! TF.FileFunction,Plated,1,2,PTH
FMAT,2
INCH
; #@! TA.AperFunction,Plated,PTH,ViaDrill
T1C0.0236
; #@! TA.AperFunction,Plated,PTH,ComponentDrill
T2C0.0315
; #@! TA.AperFunction,Plated,PTH,ComponentDrill
T3C0.0354
; #@! TA.AperFunction,Plated,PTH,ComponentDrill
T4C0.0394
; #@! TA.AperFunction,Plated,PTH,ComponentDrill
T5C0.1260
; #@! TA.AperFunction,Plated,PTH,ComponentDrill
T6C0.1260
%
G90
G05
T1
X3.6533Y-3.2207
X3.6809Y-2.1105
X3.6887Y-2.3352
X3.6887Y-2.9352
X3.6893Y-2.6352
X3.7442Y-2.2148
X3.795Y-3.1026
X3.7965Y-2.8352
X4.0007Y-3.3339
X4.2084Y-2.4333
X4.2084Y-3.0356
X4.2456Y-2.1105
X4.6878Y-3.2751
X4.7212Y-2.7352
X4.8387Y-2.1232
X4.8426Y-1.9232
X5.1183Y-2.0042
X5.16Y-2.7352
X5.1734Y-2.5356
X5.2364Y-2.4372
X5.2364Y-2.8352
X5.2403Y-2.6352
X5.2775Y-2.0942
X5.2786Y-3.2751
T2
X3.5942Y-2.1164
X3.5942Y-2.2148
X3.7533Y-3.2207
X4.1533Y-3.2207
X4.6143Y-2.199
X4.7127Y-2.199
T3
X3.9007Y-3.4923
X4.0007Y-3.4923
T4
X3.5893Y-2.3352
X3.5893Y-2.4352
X3.5893Y-2.5352
X3.5893Y-2.6352
X3.5893Y-2.7352
X3.5893Y-2.8352
X3.5893Y-2.9352
X3.5893Y-3.0352
X3.9507Y-2.3352
X3.9507Y-2.4352
X3.9507Y-2.5352
X3.9507Y-2.6352
X3.9507Y-2.7352
X3.9507Y-2.8352
X3.9507Y-2.9352
X3.9507Y-3.0352
X4.3122Y-2.3352
X4.3122Y-2.4352
X4.3122Y-2.5352
X4.3122Y-2.6352
X4.3122Y-2.7352
X4.3122Y-2.8352
X4.3122Y-2.9352
X4.3122Y-3.0352
X4.6212Y-2.3352
X4.6212Y-2.4352
X4.6212Y-2.5352
X4.6212Y-2.6352
X4.6212Y-2.7352
X4.6212Y-2.8352
X4.6212Y-2.9352
X4.6212Y-3.0352
X4.9326Y-1.9232
X4.9326Y-2.0232
X4.9326Y-2.1232
X5.0326Y-1.9232
X5.0326Y-2.0232
X5.0326Y-2.1232
X5.3441Y-2.3352
X5.3441Y-2.4352
X5.3441Y-2.5352
X5.3441Y-2.6352
X5.3441Y-2.7352
X5.3441Y-2.8352
X5.3441Y-2.9352
X5.3441Y-3.0352
T5
X4.6878Y-1.9359
X4.6878Y-3.4334
X5.2775Y-1.9359
X5.2775Y-3.4334
T6
X3.6559Y-1.9359
X3.6559Y-3.4334
X4.2456Y-1.9359
X4.2456Y-3.4334
T0
M30
