%TF.GenerationSoftware,KiCad,Pcbnew,(6.0.0)*%
%TF.CreationDate,2022-03-16T01:45:40-04:00*%
%TF.ProjectId,JTAG_ISP-BOTH,4a544147-5f49-4535-902d-424f54482e6b,v1.0.0*%
%TF.SameCoordinates,Original*%
%TF.FileFunction,Copper,L2,Bot*%
%TF.FilePolarity,Positive*%
%FSLAX46Y46*%
G04 Gerber Fmt 4.6, Leading zero omitted, Abs format (unit mm)*
G04 Created by KiCad (PCBNEW (6.0.0)) date 2022-03-16 01:45:40*
%MOMM*%
%LPD*%
G01*
G04 APERTURE LIST*
%TA.AperFunction,EtchedComponent*%
%ADD10C,0.508000*%
%TD*%
%TA.AperFunction,ComponentPad*%
%ADD11R,1.700000X1.700000*%
%TD*%
%TA.AperFunction,ComponentPad*%
%ADD12O,1.700000X1.700000*%
%TD*%
%TA.AperFunction,ComponentPad*%
%ADD13C,1.600000*%
%TD*%
%TA.AperFunction,ComponentPad*%
%ADD14O,1.600000X1.600000*%
%TD*%
%TA.AperFunction,ComponentPad*%
%ADD15R,1.800000X1.800000*%
%TD*%
%TA.AperFunction,ComponentPad*%
%ADD16C,1.800000*%
%TD*%
%TA.AperFunction,ComponentPad*%
%ADD17C,3.200001*%
%TD*%
%TA.AperFunction,ComponentPad*%
%ADD18C,1.700000*%
%TD*%
%TA.AperFunction,ViaPad*%
%ADD19C,1.200000*%
%TD*%
%TA.AperFunction,Conductor*%
%ADD20C,0.508000*%
%TD*%
G04 APERTURE END LIST*
D10*
%TO.C,REF\u002A\u002A*%
X160719003Y-70619572D02*
X160719003Y-69443562D01*
X160636005Y-70506567D02*
X160196005Y-69846567D01*
X160719003Y-70619572D02*
X159480998Y-70031572D01*
X159481007Y-70031572D02*
X160719003Y-69443562D01*
%TD*%
D11*
%TO.P,J1,1,Pin_1*%
%TO.N,MISO*%
X157724991Y-70056566D03*
D12*
%TO.P,J1,2,Pin_2*%
%TO.N,SCLK*%
X155184991Y-70056566D03*
%TO.P,J1,3,Pin_3*%
%TO.N,RESET*%
X157724991Y-67516566D03*
%TO.P,J1,4,Pin_4*%
%TO.N,GND*%
X155184991Y-67516566D03*
%TO.P,J1,5,Pin_5*%
%TO.N,MOSI*%
X157724991Y-64976566D03*
%TO.P,J1,6,Pin_6*%
%TO.N,+5V*%
X155184991Y-64976566D03*
%TD*%
D13*
%TO.P,R1,1*%
%TO.N,Net-(D1-Pad1)*%
X160000000Y-97211567D03*
D14*
%TO.P,R1,2*%
%TO.N,GND*%
X160000000Y-87051567D03*
%TD*%
D15*
%TO.P,D1,1,K*%
%TO.N,Net-(D1-Pad1)*%
X157724989Y-104831567D03*
D16*
%TO.P,D1,2,A*%
%TO.N,MISO*%
X155184989Y-104831567D03*
%TD*%
D13*
%TO.P,C1,1*%
%TO.N,+5V*%
X150593988Y-77983999D03*
%TO.P,C1,2*%
%TO.N,GND*%
X150593988Y-80483999D03*
%TD*%
D17*
%TO.P,REF\u002A\u002A,*%
%TO.N,*%
X163943978Y-103333995D03*
%TD*%
%TO.P,REF\u002A\u002A,*%
%TO.N,*%
X148965979Y-65297572D03*
%TD*%
D18*
%TO.P,J3,1,Pin_1*%
%TO.N,SCLK*%
X165635999Y-75439766D03*
D12*
%TO.P,J3,2,Pin_2*%
%TO.N,unconnected-(J3-Pad2)*%
X165635999Y-77979766D03*
%TO.P,J3,3,Pin_3*%
%TO.N,RESET*%
X165635999Y-80519766D03*
%TO.P,J3,4,Pin_4*%
%TO.N,unconnected-(J3-Pad4)*%
X165635999Y-83059766D03*
%TO.P,J3,5,Pin_5*%
%TO.N,MOSI*%
X165635999Y-85599766D03*
%TO.P,J3,6,Pin_6*%
%TO.N,unconnected-(J3-Pad6)*%
X165635999Y-88139766D03*
%TO.P,J3,7,Pin_7*%
%TO.N,unconnected-(J3-Pad7)*%
X165635999Y-90679766D03*
%TO.P,J3,8,Pin_8*%
%TO.N,unconnected-(J3-Pad8)*%
X165635999Y-93219766D03*
%TD*%
D17*
%TO.P,REF\u002A\u002A,*%
%TO.N,*%
X148965979Y-103333995D03*
%TD*%
%TO.P,REF\u002A\u002A,*%
%TO.N,*%
X163943978Y-65297572D03*
%TD*%
D11*
%TO.P,J2,1,Pin_1*%
%TO.N,unconnected-(J2-Pad1)*%
X147273983Y-75439766D03*
D12*
%TO.P,J2,2,Pin_2*%
%TO.N,+5V*%
X147273983Y-77979766D03*
%TO.P,J2,3,Pin_3*%
%TO.N,unconnected-(J2-Pad3)*%
X147273983Y-80519766D03*
%TO.P,J2,4,Pin_4*%
%TO.N,GND*%
X147273983Y-83059766D03*
%TO.P,J2,5,Pin_5*%
%TO.N,unconnected-(J2-Pad5)*%
X147273983Y-85599766D03*
%TO.P,J2,6,Pin_6*%
%TO.N,MISO*%
X147273983Y-88139766D03*
%TO.P,J2,7,Pin_7*%
%TO.N,unconnected-(J2-Pad7)*%
X147273983Y-90679766D03*
%TO.P,J2,8,Pin_8*%
%TO.N,SCLK*%
X147273983Y-93219766D03*
%TD*%
D11*
%TO.P,JTAG1,1,#MCLR*%
%TO.N,N/C*%
X184164973Y-75408199D03*
D12*
%TO.P,JTAG1,2,VDD*%
%TO.N,+5V*%
X184164973Y-77948199D03*
%TO.P,JTAG1,3,GND*%
%TO.N,GND*%
X184164973Y-80488199D03*
%TO.P,JTAG1,4,TDO*%
%TO.N,N/C*%
X184164973Y-83028199D03*
%TO.P,JTAG1,5,TCK*%
X184164973Y-85568199D03*
%TO.P,JTAG1,6,#RESET*%
X184164973Y-88108199D03*
%TO.P,JTAG1,7,TDI*%
X184164973Y-90648199D03*
%TO.P,JTAG1,8,TMS*%
X184164973Y-93188199D03*
%TD*%
D13*
%TO.P,C1,1*%
%TO.N,+5V*%
X175109982Y-72350000D03*
%TO.P,C1,2*%
%TO.N,GND*%
X175109982Y-69850000D03*
%TD*%
D17*
%TO.P,REF\u002A\u002A,*%
%TO.N,*%
X176675972Y-103302432D03*
%TD*%
%TO.P,REF\u002A\u002A,*%
%TO.N,*%
X191653970Y-103302432D03*
%TD*%
D11*
%TO.P,J1,1,Pin_1*%
%TO.N,N/C*%
X174983971Y-75408192D03*
D12*
%TO.P,J1,2,Pin_2*%
%TO.N,+5V*%
X174983971Y-77948192D03*
%TO.P,J1,3,Pin_3*%
%TO.N,N/C*%
X174983971Y-80488192D03*
%TO.P,J1,4,Pin_4*%
%TO.N,GND*%
X174983971Y-83028192D03*
%TO.P,J1,5,Pin_5*%
%TO.N,N/C*%
X174983971Y-85568192D03*
%TO.P,J1,6,Pin_6*%
X174983971Y-88108192D03*
%TO.P,J1,7,Pin_7*%
X174983971Y-90648192D03*
%TO.P,J1,8,Pin_8*%
X174983971Y-93188192D03*
%TD*%
D18*
%TO.P,J2,1,Pin_1*%
%TO.N,N/C*%
X193345971Y-75408192D03*
D12*
%TO.P,J2,2,Pin_2*%
X193345971Y-77948192D03*
%TO.P,J2,3,Pin_3*%
X193345971Y-80488192D03*
%TO.P,J2,4,Pin_4*%
X193345971Y-83028192D03*
%TO.P,J2,5,Pin_5*%
X193345971Y-85568192D03*
%TO.P,J2,6,Pin_6*%
X193345971Y-88108192D03*
%TO.P,J2,7,Pin_7*%
X193345971Y-90648192D03*
%TO.P,J2,8,Pin_8*%
X193345971Y-93188192D03*
%TD*%
D17*
%TO.P,REF\u002A\u002A,*%
%TO.N,*%
X191653970Y-65266012D03*
%TD*%
%TO.P,REF\u002A\u002A,*%
%TO.N,*%
X176675972Y-65266012D03*
%TD*%
D19*
%TO.N,GND*%
X157393988Y-80533999D03*
%TO.N,MISO*%
X153493988Y-75733999D03*
%TO.N,RESET*%
X159593988Y-80533999D03*
%TO.N,MOSI*%
X160993988Y-81881266D03*
%TO.N,SCLK*%
X155200000Y-72781567D03*
%TO.N,MISO*%
X153493988Y-86933999D03*
%TO.N,GND*%
X151743988Y-90583999D03*
X162800000Y-83131567D03*
%TO.N,Net-(D1-Pad1)*%
X160000000Y-100031567D03*
%TO.N,GND*%
X190709982Y-78000000D03*
X191009982Y-83100000D03*
%TO.N,*%
X187743731Y-90648199D03*
X180078210Y-85568192D03*
X186727731Y-85568199D03*
X188251732Y-93188192D03*
X187235731Y-88108199D03*
X180078210Y-83028192D03*
%TO.N,GND*%
X178103970Y-90602432D03*
%TO.N,+5V*%
X180078210Y-77948192D03*
%TD*%
D20*
%TO.N,RESET*%
X159608221Y-80519766D02*
X165635999Y-80519766D01*
X159593988Y-80533999D02*
X159608221Y-80519766D01*
%TO.N,MISO*%
X153493988Y-86933999D02*
X152288221Y-88139766D01*
X152288221Y-88139766D02*
X147273983Y-88139766D01*
%TO.N,+5V*%
X147273983Y-77979766D02*
X150589755Y-77979766D01*
%TO.N,SCLK*%
X155200000Y-92177987D02*
X155200000Y-72781567D01*
X164841556Y-72781567D02*
X165635999Y-73576010D01*
X154158221Y-93219766D02*
X155200000Y-92177987D01*
X155200000Y-72781567D02*
X164841556Y-72781567D01*
X147273983Y-93219766D02*
X154158221Y-93219766D01*
X165635999Y-73576010D02*
X165635999Y-75439766D01*
%TO.N,Net-(D1-Pad1)*%
X157724989Y-104831567D02*
X159000000Y-104831567D01*
X159000000Y-104831567D02*
X160000000Y-103831567D01*
X160000000Y-103831567D02*
X160000000Y-100031567D01*
%TO.N,MOSI*%
X160993988Y-84033999D02*
X162559755Y-85599766D01*
X162559755Y-85599766D02*
X165635999Y-85599766D01*
%TO.N,MISO*%
X153493988Y-86933999D02*
X153493988Y-75733999D01*
%TO.N,MOSI*%
X160993988Y-81881266D02*
X160993988Y-84033999D01*
%TO.N,*%
X184164971Y-85568192D02*
X186727724Y-85568192D01*
X186727724Y-85568192D02*
X186727731Y-85568199D01*
X187743724Y-90648192D02*
X187743731Y-90648199D01*
X184164971Y-90648192D02*
X187743724Y-90648192D01*
X187235724Y-88108192D02*
X187235731Y-88108199D01*
X184164971Y-88108192D02*
X187235724Y-88108192D01*
X184164971Y-85568192D02*
X180078210Y-85568192D01*
X184164971Y-93188192D02*
X188251732Y-93188192D01*
%TO.N,+5V*%
X175109982Y-72350000D02*
X179159982Y-72350000D01*
X184164971Y-77948192D02*
X180078210Y-77948192D01*
X179159982Y-72350000D02*
X180078210Y-73268228D01*
X180078210Y-73268228D02*
X180078210Y-77948192D01*
%TO.N,*%
X184164971Y-83028192D02*
X180078210Y-83028192D01*
%TD*%
%TA.AperFunction,Conductor*%
%TO.N,GND*%
G36*
X192674027Y-61725512D02*
G01*
X192688828Y-61727817D01*
X192688831Y-61727817D01*
X192697700Y-61729198D01*
X192714869Y-61726953D01*
X192738809Y-61726120D01*
X192996740Y-61741722D01*
X193011844Y-61743556D01*
X193082618Y-61756526D01*
X193292849Y-61795052D01*
X193307611Y-61798690D01*
X193580378Y-61883687D01*
X193594597Y-61889081D01*
X193855110Y-62006328D01*
X193868579Y-62013397D01*
X194113065Y-62161194D01*
X194125587Y-62169837D01*
X194350477Y-62346028D01*
X194361865Y-62356118D01*
X194563864Y-62558117D01*
X194573954Y-62569505D01*
X194750145Y-62794395D01*
X194758788Y-62806917D01*
X194906585Y-63051403D01*
X194913654Y-63064872D01*
X195006038Y-63270141D01*
X195030900Y-63325382D01*
X195036295Y-63339604D01*
X195095117Y-63528369D01*
X195121291Y-63612365D01*
X195124930Y-63627133D01*
X195140176Y-63710325D01*
X195176426Y-63908138D01*
X195178260Y-63923242D01*
X195193425Y-64173941D01*
X195192168Y-64200651D01*
X195192165Y-64200871D01*
X195190784Y-64209742D01*
X195191948Y-64218644D01*
X195191948Y-64218647D01*
X195194906Y-64241263D01*
X195195970Y-64257601D01*
X195195970Y-104303104D01*
X195194470Y-104322488D01*
X195190784Y-104346162D01*
X195192424Y-104358702D01*
X195193029Y-104363329D01*
X195193862Y-104387271D01*
X195178260Y-104645202D01*
X195176426Y-104660306D01*
X195171539Y-104686974D01*
X195136961Y-104875665D01*
X195124932Y-104941305D01*
X195121292Y-104956073D01*
X195046187Y-105197095D01*
X195036296Y-105228836D01*
X195030901Y-105243059D01*
X194954666Y-105412448D01*
X194913656Y-105503568D01*
X194906585Y-105517041D01*
X194758788Y-105761527D01*
X194750145Y-105774049D01*
X194573954Y-105998939D01*
X194563864Y-106010327D01*
X194361865Y-106212326D01*
X194350477Y-106222416D01*
X194125587Y-106398607D01*
X194113065Y-106407250D01*
X193868579Y-106555047D01*
X193855110Y-106562116D01*
X193594600Y-106679362D01*
X193580378Y-106684757D01*
X193307611Y-106769754D01*
X193292849Y-106773392D01*
X193082618Y-106811918D01*
X193011844Y-106824888D01*
X192996740Y-106826722D01*
X192746041Y-106841887D01*
X192719331Y-106840630D01*
X192719111Y-106840627D01*
X192710240Y-106839246D01*
X192701338Y-106840410D01*
X192701335Y-106840410D01*
X192678719Y-106843368D01*
X192662381Y-106844432D01*
X187864278Y-106844432D01*
X187844894Y-106842932D01*
X187830093Y-106840627D01*
X187830089Y-106840627D01*
X187821220Y-106839246D01*
X187812318Y-106840410D01*
X187812314Y-106840410D01*
X187812218Y-106840423D01*
X187781781Y-106840694D01*
X187719576Y-106833686D01*
X187692069Y-106827408D01*
X187614879Y-106800398D01*
X187589460Y-106788156D01*
X187520213Y-106744645D01*
X187498154Y-106727053D01*
X187440330Y-106669229D01*
X187422738Y-106647170D01*
X187379227Y-106577923D01*
X187366985Y-106552502D01*
X187339976Y-106475315D01*
X187333697Y-106447808D01*
X187327429Y-106392181D01*
X187326646Y-106376535D01*
X187326755Y-106367577D01*
X187328137Y-106358703D01*
X187324015Y-106327181D01*
X187322951Y-106310844D01*
X187322951Y-104755650D01*
X187324697Y-104734746D01*
X187327215Y-104719778D01*
X187328022Y-104714982D01*
X187328175Y-104702443D01*
X187327484Y-104697618D01*
X187327426Y-104696732D01*
X187326474Y-104686974D01*
X187310767Y-104387271D01*
X187309961Y-104371889D01*
X187309313Y-104367793D01*
X187279919Y-104182211D01*
X187258180Y-104044957D01*
X187172509Y-103725228D01*
X187138730Y-103637229D01*
X187055071Y-103419291D01*
X187053887Y-103416206D01*
X186984640Y-103280301D01*
X189540659Y-103280301D01*
X189557208Y-103567315D01*
X189558033Y-103571520D01*
X189558034Y-103571528D01*
X189587583Y-103722138D01*
X189612556Y-103849427D01*
X189613943Y-103853477D01*
X189613944Y-103853482D01*
X189679501Y-104044957D01*
X189705680Y-104121418D01*
X189707607Y-104125249D01*
X189829594Y-104367793D01*
X189834855Y-104378254D01*
X189997691Y-104615182D01*
X190000578Y-104618355D01*
X190000579Y-104618356D01*
X190088502Y-104714982D01*
X190191176Y-104827820D01*
X190194471Y-104830575D01*
X190194472Y-104830576D01*
X190344573Y-104956079D01*
X190411729Y-105012230D01*
X190655268Y-105165003D01*
X190917288Y-105283309D01*
X190921407Y-105284529D01*
X191188827Y-105363743D01*
X191188832Y-105363744D01*
X191192940Y-105364961D01*
X191197174Y-105365609D01*
X191197179Y-105365610D01*
X191445781Y-105403651D01*
X191477123Y-105408447D01*
X191623455Y-105410746D01*
X191760287Y-105412896D01*
X191760293Y-105412896D01*
X191764578Y-105412963D01*
X191768830Y-105412448D01*
X191768838Y-105412448D01*
X192045726Y-105378940D01*
X192045731Y-105378939D01*
X192049987Y-105378424D01*
X192328067Y-105305471D01*
X192593674Y-105195453D01*
X192841892Y-105050406D01*
X193068129Y-104873014D01*
X193109255Y-104830576D01*
X193225983Y-104710121D01*
X193268197Y-104666560D01*
X193270730Y-104663112D01*
X193270734Y-104663107D01*
X193435857Y-104438318D01*
X193438395Y-104434863D01*
X193460309Y-104394503D01*
X193573524Y-104185987D01*
X193573525Y-104185985D01*
X193575574Y-104182211D01*
X193677195Y-103913280D01*
X193719533Y-103728420D01*
X193740419Y-103637229D01*
X193740420Y-103637225D01*
X193741377Y-103633045D01*
X193762312Y-103398476D01*
X193766713Y-103349158D01*
X193766713Y-103349156D01*
X193766933Y-103346692D01*
X193767397Y-103302432D01*
X193765597Y-103276030D01*
X193748135Y-103019884D01*
X193748134Y-103019878D01*
X193747843Y-103015607D01*
X193743306Y-102993696D01*
X193690413Y-102738287D01*
X193689544Y-102734090D01*
X193593577Y-102463089D01*
X193461720Y-102207620D01*
X193448458Y-102188749D01*
X193298874Y-101975914D01*
X193296411Y-101972409D01*
X193100710Y-101761810D01*
X192878238Y-101579719D01*
X192633112Y-101429505D01*
X192615018Y-101421562D01*
X192373800Y-101315675D01*
X192369868Y-101313949D01*
X192343933Y-101306561D01*
X192097504Y-101236364D01*
X192097505Y-101236364D01*
X192093376Y-101235188D01*
X191880674Y-101204917D01*
X191813006Y-101195286D01*
X191813004Y-101195286D01*
X191808754Y-101194681D01*
X191804465Y-101194659D01*
X191804458Y-101194658D01*
X191525553Y-101193197D01*
X191525546Y-101193197D01*
X191521267Y-101193175D01*
X191517023Y-101193734D01*
X191517019Y-101193734D01*
X191391630Y-101210242D01*
X191236236Y-101230700D01*
X191232096Y-101231833D01*
X191232094Y-101231833D01*
X191155281Y-101252847D01*
X190958934Y-101306561D01*
X190954986Y-101308245D01*
X190698446Y-101417669D01*
X190698442Y-101417671D01*
X190694494Y-101419355D01*
X190569930Y-101493905D01*
X190451491Y-101564789D01*
X190451487Y-101564792D01*
X190447809Y-101566993D01*
X190223442Y-101746745D01*
X190025547Y-101955283D01*
X189857784Y-102188749D01*
X189723258Y-102442824D01*
X189624459Y-102712805D01*
X189563215Y-102993696D01*
X189540659Y-103280301D01*
X186984640Y-103280301D01*
X186903613Y-103121276D01*
X186723333Y-102843670D01*
X186515023Y-102586429D01*
X186280965Y-102352371D01*
X186023724Y-102144061D01*
X185746118Y-101963781D01*
X185451188Y-101813507D01*
X185142166Y-101694885D01*
X184822437Y-101609214D01*
X184622077Y-101577480D01*
X184498753Y-101557947D01*
X184498745Y-101557946D01*
X184495505Y-101557433D01*
X184196743Y-101541775D01*
X184182429Y-101540201D01*
X184182391Y-101540195D01*
X184177501Y-101539372D01*
X184164962Y-101539219D01*
X184164951Y-101539219D01*
X184160510Y-101539855D01*
X184160102Y-101539884D01*
X184149479Y-101540921D01*
X183834408Y-101557433D01*
X183831168Y-101557946D01*
X183831160Y-101557947D01*
X183707836Y-101577480D01*
X183507476Y-101609214D01*
X183187747Y-101694885D01*
X182878725Y-101813507D01*
X182583795Y-101963781D01*
X182306189Y-102144061D01*
X182048948Y-102352371D01*
X181814890Y-102586429D01*
X181606580Y-102843670D01*
X181426300Y-103121276D01*
X181276026Y-103416206D01*
X181274842Y-103419291D01*
X181191184Y-103637229D01*
X181157404Y-103725228D01*
X181071733Y-104044957D01*
X181049994Y-104182211D01*
X181020601Y-104367793D01*
X181019952Y-104371889D01*
X181019146Y-104387271D01*
X181003893Y-104678313D01*
X181003185Y-104685138D01*
X181003159Y-104687295D01*
X181001776Y-104696173D01*
X181002941Y-104705080D01*
X181005898Y-104727694D01*
X181006962Y-104744032D01*
X181006962Y-106303105D01*
X181005462Y-106322489D01*
X181003157Y-106337290D01*
X181003157Y-106337294D01*
X181001776Y-106346163D01*
X181002940Y-106355065D01*
X181002940Y-106355069D01*
X181002953Y-106355165D01*
X181003224Y-106385602D01*
X180996216Y-106447807D01*
X180989937Y-106475317D01*
X180962928Y-106552503D01*
X180950686Y-106577923D01*
X180907175Y-106647170D01*
X180889583Y-106669229D01*
X180831759Y-106727053D01*
X180809700Y-106744645D01*
X180740453Y-106788156D01*
X180715032Y-106800398D01*
X180637845Y-106827407D01*
X180610338Y-106833686D01*
X180590210Y-106835954D01*
X180554706Y-106839954D01*
X180539065Y-106840737D01*
X180530107Y-106840628D01*
X180521233Y-106839246D01*
X180489712Y-106843368D01*
X180473374Y-106844432D01*
X175675300Y-106844432D01*
X175655915Y-106842932D01*
X175641114Y-106840627D01*
X175641111Y-106840627D01*
X175632242Y-106839246D01*
X175615073Y-106841491D01*
X175591133Y-106842324D01*
X175333202Y-106826722D01*
X175318098Y-106824888D01*
X175247324Y-106811918D01*
X175037093Y-106773392D01*
X175022331Y-106769754D01*
X174749564Y-106684757D01*
X174735342Y-106679362D01*
X174474832Y-106562116D01*
X174461363Y-106555047D01*
X174216877Y-106407250D01*
X174204355Y-106398607D01*
X173979465Y-106222416D01*
X173968077Y-106212326D01*
X173766078Y-106010327D01*
X173755988Y-105998939D01*
X173579797Y-105774049D01*
X173571154Y-105761527D01*
X173423357Y-105517041D01*
X173416286Y-105503568D01*
X173375277Y-105412448D01*
X173299041Y-105243059D01*
X173293646Y-105228836D01*
X173283755Y-105197095D01*
X173208650Y-104956073D01*
X173205010Y-104941305D01*
X173192982Y-104875665D01*
X173158403Y-104686974D01*
X173153516Y-104660306D01*
X173151682Y-104645202D01*
X173136517Y-104394503D01*
X173137774Y-104367793D01*
X173137777Y-104367573D01*
X173139158Y-104358702D01*
X173137519Y-104346162D01*
X173135036Y-104327181D01*
X173133972Y-104310843D01*
X173133972Y-103280301D01*
X174562661Y-103280301D01*
X174579210Y-103567315D01*
X174580035Y-103571520D01*
X174580036Y-103571528D01*
X174609585Y-103722138D01*
X174634558Y-103849427D01*
X174635945Y-103853477D01*
X174635946Y-103853482D01*
X174701503Y-104044957D01*
X174727682Y-104121418D01*
X174729609Y-104125249D01*
X174851596Y-104367793D01*
X174856857Y-104378254D01*
X175019693Y-104615182D01*
X175022580Y-104618355D01*
X175022581Y-104618356D01*
X175110504Y-104714982D01*
X175213178Y-104827820D01*
X175216473Y-104830575D01*
X175216474Y-104830576D01*
X175366575Y-104956079D01*
X175433731Y-105012230D01*
X175677270Y-105165003D01*
X175939290Y-105283309D01*
X175943409Y-105284529D01*
X176210829Y-105363743D01*
X176210834Y-105363744D01*
X176214942Y-105364961D01*
X176219176Y-105365609D01*
X176219181Y-105365610D01*
X176467783Y-105403651D01*
X176499125Y-105408447D01*
X176645457Y-105410746D01*
X176782289Y-105412896D01*
X176782295Y-105412896D01*
X176786580Y-105412963D01*
X176790832Y-105412448D01*
X176790840Y-105412448D01*
X177067728Y-105378940D01*
X177067733Y-105378939D01*
X177071989Y-105378424D01*
X177350069Y-105305471D01*
X177615676Y-105195453D01*
X177863894Y-105050406D01*
X178090131Y-104873014D01*
X178131257Y-104830576D01*
X178247985Y-104710121D01*
X178290199Y-104666560D01*
X178292732Y-104663112D01*
X178292736Y-104663107D01*
X178457859Y-104438318D01*
X178460397Y-104434863D01*
X178482311Y-104394503D01*
X178595526Y-104185987D01*
X178595527Y-104185985D01*
X178597576Y-104182211D01*
X178699197Y-103913280D01*
X178741535Y-103728420D01*
X178762421Y-103637229D01*
X178762422Y-103637225D01*
X178763379Y-103633045D01*
X178784314Y-103398476D01*
X178788715Y-103349158D01*
X178788715Y-103349156D01*
X178788935Y-103346692D01*
X178789399Y-103302432D01*
X178787599Y-103276030D01*
X178770137Y-103019884D01*
X178770136Y-103019878D01*
X178769845Y-103015607D01*
X178765308Y-102993696D01*
X178712415Y-102738287D01*
X178711546Y-102734090D01*
X178615579Y-102463089D01*
X178483722Y-102207620D01*
X178470460Y-102188749D01*
X178320876Y-101975914D01*
X178318413Y-101972409D01*
X178122712Y-101761810D01*
X177900240Y-101579719D01*
X177655114Y-101429505D01*
X177637020Y-101421562D01*
X177395802Y-101315675D01*
X177391870Y-101313949D01*
X177365935Y-101306561D01*
X177119506Y-101236364D01*
X177119507Y-101236364D01*
X177115378Y-101235188D01*
X176902676Y-101204917D01*
X176835008Y-101195286D01*
X176835006Y-101195286D01*
X176830756Y-101194681D01*
X176826467Y-101194659D01*
X176826460Y-101194658D01*
X176547555Y-101193197D01*
X176547548Y-101193197D01*
X176543269Y-101193175D01*
X176539025Y-101193734D01*
X176539021Y-101193734D01*
X176413632Y-101210242D01*
X176258238Y-101230700D01*
X176254098Y-101231833D01*
X176254096Y-101231833D01*
X176177283Y-101252847D01*
X175980936Y-101306561D01*
X175976988Y-101308245D01*
X175720448Y-101417669D01*
X175720444Y-101417671D01*
X175716496Y-101419355D01*
X175591932Y-101493905D01*
X175473493Y-101564789D01*
X175473489Y-101564792D01*
X175469811Y-101566993D01*
X175245444Y-101746745D01*
X175047549Y-101955283D01*
X174879786Y-102188749D01*
X174745260Y-102442824D01*
X174646461Y-102712805D01*
X174585217Y-102993696D01*
X174562661Y-103280301D01*
X173133972Y-103280301D01*
X173133972Y-93154887D01*
X173621222Y-93154887D01*
X173621519Y-93160040D01*
X173621519Y-93160043D01*
X173626982Y-93254782D01*
X173634081Y-93377907D01*
X173635218Y-93382953D01*
X173635219Y-93382959D01*
X173649894Y-93448075D01*
X173683193Y-93595831D01*
X173767237Y-93802808D01*
X173817990Y-93885630D01*
X173875250Y-93979069D01*
X173883958Y-93993280D01*
X174030221Y-94162130D01*
X174133929Y-94248230D01*
X174195186Y-94299086D01*
X174202097Y-94304824D01*
X174394971Y-94417530D01*
X174399796Y-94419372D01*
X174399797Y-94419373D01*
X174472583Y-94447167D01*
X174603663Y-94497222D01*
X174608731Y-94498253D01*
X174608734Y-94498254D01*
X174715988Y-94520075D01*
X174822568Y-94541759D01*
X174827743Y-94541949D01*
X174827745Y-94541949D01*
X175040644Y-94549756D01*
X175040648Y-94549756D01*
X175045808Y-94549945D01*
X175050928Y-94549289D01*
X175050930Y-94549289D01*
X175262259Y-94522217D01*
X175262260Y-94522217D01*
X175267387Y-94521560D01*
X175272337Y-94520075D01*
X175476400Y-94458853D01*
X175476405Y-94458851D01*
X175481355Y-94457366D01*
X175681965Y-94359088D01*
X175863831Y-94229365D01*
X175890919Y-94202372D01*
X176018406Y-94075329D01*
X176022067Y-94071681D01*
X176032936Y-94056556D01*
X176149406Y-93894469D01*
X176152424Y-93890269D01*
X176190269Y-93813696D01*
X176249107Y-93694645D01*
X176249108Y-93694643D01*
X176251401Y-93690003D01*
X176316341Y-93476261D01*
X176345500Y-93254782D01*
X176345614Y-93250129D01*
X176347045Y-93191557D01*
X176347045Y-93191553D01*
X176347127Y-93188192D01*
X176328823Y-92965553D01*
X176274402Y-92748894D01*
X176185325Y-92544032D01*
X176117614Y-92439367D01*
X176066793Y-92360809D01*
X176066791Y-92360806D01*
X176063985Y-92356469D01*
X175913641Y-92191243D01*
X175909590Y-92188044D01*
X175909586Y-92188040D01*
X175742385Y-92055992D01*
X175742381Y-92055990D01*
X175738330Y-92052790D01*
X175697024Y-92029988D01*
X175647055Y-91979556D01*
X175632283Y-91910113D01*
X175657399Y-91843708D01*
X175684751Y-91817101D01*
X175754372Y-91767441D01*
X175863831Y-91689365D01*
X175890912Y-91662379D01*
X176018406Y-91535329D01*
X176022067Y-91531681D01*
X176038129Y-91509329D01*
X176149406Y-91354469D01*
X176152424Y-91350269D01*
X176185574Y-91283196D01*
X176249107Y-91154645D01*
X176249108Y-91154643D01*
X176251401Y-91150003D01*
X176316341Y-90936261D01*
X176345500Y-90714782D01*
X176345794Y-90702754D01*
X176347045Y-90651557D01*
X176347045Y-90651553D01*
X176347127Y-90648192D01*
X176328823Y-90425553D01*
X176274402Y-90208894D01*
X176185325Y-90004032D01*
X176145877Y-89943054D01*
X176066793Y-89820809D01*
X176066791Y-89820806D01*
X176063985Y-89816469D01*
X175913641Y-89651243D01*
X175909590Y-89648044D01*
X175909586Y-89648040D01*
X175742385Y-89515992D01*
X175742381Y-89515990D01*
X175738330Y-89512790D01*
X175697024Y-89489988D01*
X175647055Y-89439556D01*
X175632283Y-89370113D01*
X175657399Y-89303708D01*
X175684751Y-89277101D01*
X175754372Y-89227441D01*
X175863831Y-89149365D01*
X175890912Y-89122379D01*
X176018406Y-88995329D01*
X176022067Y-88991681D01*
X176038129Y-88969329D01*
X176149406Y-88814469D01*
X176152424Y-88810269D01*
X176185574Y-88743196D01*
X176249107Y-88614645D01*
X176249108Y-88614643D01*
X176251401Y-88610003D01*
X176316341Y-88396261D01*
X176345500Y-88174782D01*
X176345794Y-88162754D01*
X176347045Y-88111557D01*
X176347045Y-88111553D01*
X176347127Y-88108192D01*
X176328823Y-87885553D01*
X176274402Y-87668894D01*
X176185325Y-87464032D01*
X176145877Y-87403054D01*
X176066793Y-87280809D01*
X176066791Y-87280806D01*
X176063985Y-87276469D01*
X175913641Y-87111243D01*
X175909590Y-87108044D01*
X175909586Y-87108040D01*
X175742385Y-86975992D01*
X175742381Y-86975990D01*
X175738330Y-86972790D01*
X175697024Y-86949988D01*
X175647055Y-86899556D01*
X175632283Y-86830113D01*
X175657399Y-86763708D01*
X175684751Y-86737101D01*
X175754372Y-86687441D01*
X175863831Y-86609365D01*
X175890912Y-86582379D01*
X176018406Y-86455329D01*
X176022067Y-86451681D01*
X176032936Y-86436556D01*
X176149406Y-86274469D01*
X176152424Y-86270269D01*
X176185574Y-86203196D01*
X176249107Y-86074645D01*
X176249108Y-86074643D01*
X176251401Y-86070003D01*
X176316341Y-85856261D01*
X176345500Y-85634782D01*
X176345794Y-85622754D01*
X176347045Y-85571557D01*
X176347045Y-85571553D01*
X176347127Y-85568192D01*
X176344731Y-85539051D01*
X178965342Y-85539051D01*
X178978667Y-85742343D01*
X179028815Y-85939802D01*
X179114108Y-86124816D01*
X179231689Y-86291189D01*
X179377620Y-86433349D01*
X179382416Y-86436554D01*
X179382419Y-86436556D01*
X179520474Y-86528801D01*
X179547013Y-86546534D01*
X179552316Y-86548812D01*
X179552319Y-86548814D01*
X179728890Y-86624675D01*
X179734197Y-86626955D01*
X179807027Y-86643435D01*
X179927265Y-86670642D01*
X179927270Y-86670643D01*
X179932902Y-86671917D01*
X179938673Y-86672144D01*
X179938675Y-86672144D01*
X180001680Y-86674619D01*
X180136473Y-86679915D01*
X180338093Y-86650682D01*
X180343557Y-86648827D01*
X180343562Y-86648826D01*
X180525537Y-86587054D01*
X180525542Y-86587052D01*
X180531009Y-86585196D01*
X180708761Y-86485650D01*
X180860058Y-86359818D01*
X180925221Y-86331637D01*
X180940626Y-86330692D01*
X182970509Y-86330692D01*
X183038630Y-86350694D01*
X183065746Y-86374195D01*
X183207833Y-86538224D01*
X183211223Y-86542137D01*
X183314923Y-86628230D01*
X183376188Y-86679093D01*
X183383099Y-86684831D01*
X183453568Y-86726010D01*
X183456418Y-86727675D01*
X183505142Y-86779313D01*
X183518213Y-86849096D01*
X183491482Y-86914868D01*
X183451028Y-86948226D01*
X183443183Y-86952310D01*
X183438580Y-86954706D01*
X183434447Y-86957809D01*
X183434444Y-86957811D01*
X183264073Y-87085729D01*
X183259938Y-87088834D01*
X183238517Y-87111250D01*
X183129816Y-87224999D01*
X183105602Y-87250337D01*
X182979716Y-87434879D01*
X182977537Y-87439574D01*
X182887844Y-87632802D01*
X182885661Y-87637504D01*
X182825962Y-87852769D01*
X182802224Y-88074894D01*
X182802521Y-88080043D01*
X182802521Y-88080050D01*
X182807790Y-88171432D01*
X182815083Y-88297914D01*
X182816220Y-88302959D01*
X182816221Y-88302966D01*
X182830896Y-88368082D01*
X182864195Y-88515838D01*
X182948239Y-88722815D01*
X182998988Y-88805630D01*
X183056252Y-88899076D01*
X183064960Y-88913287D01*
X183211223Y-89082137D01*
X183314931Y-89168237D01*
X183376188Y-89219093D01*
X183383099Y-89224831D01*
X183453568Y-89266010D01*
X183456418Y-89267675D01*
X183505142Y-89319313D01*
X183518213Y-89389096D01*
X183491482Y-89454868D01*
X183451028Y-89488226D01*
X183443183Y-89492310D01*
X183438580Y-89494706D01*
X183434447Y-89497809D01*
X183434444Y-89497811D01*
X183264073Y-89625729D01*
X183259938Y-89628834D01*
X183238517Y-89651250D01*
X183129816Y-89764999D01*
X183105602Y-89790337D01*
X182979716Y-89974879D01*
X182977537Y-89979574D01*
X182887844Y-90172802D01*
X182885661Y-90177504D01*
X182825962Y-90392769D01*
X182802224Y-90614894D01*
X182802521Y-90620043D01*
X182802521Y-90620050D01*
X182807790Y-90711432D01*
X182815083Y-90837914D01*
X182816220Y-90842959D01*
X182816221Y-90842966D01*
X182830896Y-90908082D01*
X182864195Y-91055838D01*
X182948239Y-91262815D01*
X182998988Y-91345630D01*
X183056252Y-91439076D01*
X183064960Y-91453287D01*
X183211223Y-91622137D01*
X183314931Y-91708237D01*
X183376188Y-91759093D01*
X183383099Y-91764831D01*
X183453568Y-91806010D01*
X183456418Y-91807675D01*
X183505142Y-91859313D01*
X183518213Y-91929096D01*
X183491482Y-91994868D01*
X183451028Y-92028226D01*
X183443183Y-92032310D01*
X183438580Y-92034706D01*
X183434447Y-92037809D01*
X183434444Y-92037811D01*
X183264073Y-92165729D01*
X183259938Y-92168834D01*
X183238517Y-92191250D01*
X183142845Y-92291365D01*
X183105602Y-92330337D01*
X182979716Y-92514879D01*
X182977537Y-92519574D01*
X182887844Y-92712802D01*
X182885661Y-92717504D01*
X182825962Y-92932769D01*
X182802224Y-93154894D01*
X182802521Y-93160043D01*
X182802521Y-93160050D01*
X182804144Y-93188192D01*
X182815083Y-93377914D01*
X182816220Y-93382959D01*
X182816221Y-93382966D01*
X182832127Y-93453544D01*
X182864195Y-93595838D01*
X182948239Y-93802815D01*
X183064960Y-93993287D01*
X183211223Y-94162137D01*
X183383099Y-94304831D01*
X183575973Y-94417537D01*
X183784665Y-94497229D01*
X183789733Y-94498260D01*
X183789736Y-94498261D01*
X183896956Y-94520075D01*
X184003570Y-94541766D01*
X184008745Y-94541956D01*
X184008747Y-94541956D01*
X184221646Y-94549763D01*
X184221650Y-94549763D01*
X184226810Y-94549952D01*
X184231930Y-94549296D01*
X184231932Y-94549296D01*
X184443261Y-94522224D01*
X184443262Y-94522224D01*
X184448389Y-94521567D01*
X184453362Y-94520075D01*
X184657402Y-94458860D01*
X184657407Y-94458858D01*
X184662357Y-94457373D01*
X184862967Y-94359095D01*
X185044833Y-94229372D01*
X185203069Y-94071688D01*
X185206090Y-94067484D01*
X185252307Y-94003166D01*
X185308302Y-93959518D01*
X185354630Y-93950692D01*
X187394534Y-93950692D01*
X187462655Y-93970694D01*
X187482456Y-93986438D01*
X187489480Y-93993280D01*
X187551142Y-94053349D01*
X187555938Y-94056554D01*
X187555941Y-94056556D01*
X187623881Y-94101952D01*
X187720535Y-94166534D01*
X187725838Y-94168812D01*
X187725841Y-94168814D01*
X187902412Y-94244675D01*
X187907719Y-94246955D01*
X187980549Y-94263435D01*
X188100787Y-94290642D01*
X188100792Y-94290643D01*
X188106424Y-94291917D01*
X188112195Y-94292144D01*
X188112197Y-94292144D01*
X188175202Y-94294619D01*
X188309995Y-94299915D01*
X188511615Y-94270682D01*
X188517079Y-94268827D01*
X188517084Y-94268826D01*
X188699059Y-94207054D01*
X188699064Y-94207052D01*
X188704531Y-94205196D01*
X188882283Y-94105650D01*
X189038918Y-93975378D01*
X189169190Y-93818743D01*
X189268736Y-93640991D01*
X189270592Y-93635524D01*
X189270594Y-93635519D01*
X189332366Y-93453544D01*
X189332367Y-93453539D01*
X189334222Y-93448075D01*
X189363455Y-93246455D01*
X189364981Y-93188192D01*
X189361921Y-93154887D01*
X191983222Y-93154887D01*
X191983519Y-93160040D01*
X191983519Y-93160043D01*
X191988982Y-93254782D01*
X191996081Y-93377907D01*
X191997218Y-93382953D01*
X191997219Y-93382959D01*
X192011894Y-93448075D01*
X192045193Y-93595831D01*
X192129237Y-93802808D01*
X192179990Y-93885630D01*
X192237250Y-93979069D01*
X192245958Y-93993280D01*
X192392221Y-94162130D01*
X192495929Y-94248230D01*
X192557186Y-94299086D01*
X192564097Y-94304824D01*
X192756971Y-94417530D01*
X192761796Y-94419372D01*
X192761797Y-94419373D01*
X192834583Y-94447167D01*
X192965663Y-94497222D01*
X192970731Y-94498253D01*
X192970734Y-94498254D01*
X193077988Y-94520075D01*
X193184568Y-94541759D01*
X193189743Y-94541949D01*
X193189745Y-94541949D01*
X193402644Y-94549756D01*
X193402648Y-94549756D01*
X193407808Y-94549945D01*
X193412928Y-94549289D01*
X193412930Y-94549289D01*
X193624259Y-94522217D01*
X193624260Y-94522217D01*
X193629387Y-94521560D01*
X193634337Y-94520075D01*
X193838400Y-94458853D01*
X193838405Y-94458851D01*
X193843355Y-94457366D01*
X194043965Y-94359088D01*
X194225831Y-94229365D01*
X194252919Y-94202372D01*
X194380406Y-94075329D01*
X194384067Y-94071681D01*
X194394936Y-94056556D01*
X194511406Y-93894469D01*
X194514424Y-93890269D01*
X194552269Y-93813696D01*
X194611107Y-93694645D01*
X194611108Y-93694643D01*
X194613401Y-93690003D01*
X194678341Y-93476261D01*
X194707500Y-93254782D01*
X194707614Y-93250129D01*
X194709045Y-93191557D01*
X194709045Y-93191553D01*
X194709127Y-93188192D01*
X194690823Y-92965553D01*
X194636402Y-92748894D01*
X194547325Y-92544032D01*
X194479614Y-92439367D01*
X194428793Y-92360809D01*
X194428791Y-92360806D01*
X194425985Y-92356469D01*
X194275641Y-92191243D01*
X194271590Y-92188044D01*
X194271586Y-92188040D01*
X194104385Y-92055992D01*
X194104381Y-92055990D01*
X194100330Y-92052790D01*
X194059024Y-92029988D01*
X194009055Y-91979556D01*
X193994283Y-91910113D01*
X194019399Y-91843708D01*
X194046751Y-91817101D01*
X194116372Y-91767441D01*
X194225831Y-91689365D01*
X194252912Y-91662379D01*
X194380406Y-91535329D01*
X194384067Y-91531681D01*
X194400129Y-91509329D01*
X194511406Y-91354469D01*
X194514424Y-91350269D01*
X194547574Y-91283196D01*
X194611107Y-91154645D01*
X194611108Y-91154643D01*
X194613401Y-91150003D01*
X194678341Y-90936261D01*
X194707500Y-90714782D01*
X194707794Y-90702754D01*
X194709045Y-90651557D01*
X194709045Y-90651553D01*
X194709127Y-90648192D01*
X194690823Y-90425553D01*
X194636402Y-90208894D01*
X194547325Y-90004032D01*
X194507877Y-89943054D01*
X194428793Y-89820809D01*
X194428791Y-89820806D01*
X194425985Y-89816469D01*
X194275641Y-89651243D01*
X194271590Y-89648044D01*
X194271586Y-89648040D01*
X194104385Y-89515992D01*
X194104381Y-89515990D01*
X194100330Y-89512790D01*
X194059024Y-89489988D01*
X194009055Y-89439556D01*
X193994283Y-89370113D01*
X194019399Y-89303708D01*
X194046751Y-89277101D01*
X194116372Y-89227441D01*
X194225831Y-89149365D01*
X194252912Y-89122379D01*
X194380406Y-88995329D01*
X194384067Y-88991681D01*
X194400129Y-88969329D01*
X194511406Y-88814469D01*
X194514424Y-88810269D01*
X194547574Y-88743196D01*
X194611107Y-88614645D01*
X194611108Y-88614643D01*
X194613401Y-88610003D01*
X194678341Y-88396261D01*
X194707500Y-88174782D01*
X194707794Y-88162754D01*
X194709045Y-88111557D01*
X194709045Y-88111553D01*
X194709127Y-88108192D01*
X194690823Y-87885553D01*
X194636402Y-87668894D01*
X194547325Y-87464032D01*
X194507877Y-87403054D01*
X194428793Y-87280809D01*
X194428791Y-87280806D01*
X194425985Y-87276469D01*
X194275641Y-87111243D01*
X194271590Y-87108044D01*
X194271586Y-87108040D01*
X194104385Y-86975992D01*
X194104381Y-86975990D01*
X194100330Y-86972790D01*
X194059024Y-86949988D01*
X194009055Y-86899556D01*
X193994283Y-86830113D01*
X194019399Y-86763708D01*
X194046751Y-86737101D01*
X194116372Y-86687441D01*
X194225831Y-86609365D01*
X194252912Y-86582379D01*
X194380406Y-86455329D01*
X194384067Y-86451681D01*
X194394936Y-86436556D01*
X194511406Y-86274469D01*
X194514424Y-86270269D01*
X194547574Y-86203196D01*
X194611107Y-86074645D01*
X194611108Y-86074643D01*
X194613401Y-86070003D01*
X194678341Y-85856261D01*
X194707500Y-85634782D01*
X194707794Y-85622754D01*
X194709045Y-85571557D01*
X194709045Y-85571553D01*
X194709127Y-85568192D01*
X194690823Y-85345553D01*
X194636402Y-85128894D01*
X194547325Y-84924032D01*
X194507877Y-84863054D01*
X194428793Y-84740809D01*
X194428791Y-84740806D01*
X194425985Y-84736469D01*
X194275641Y-84571243D01*
X194271590Y-84568044D01*
X194271586Y-84568040D01*
X194104385Y-84435992D01*
X194104381Y-84435990D01*
X194100330Y-84432790D01*
X194059024Y-84409988D01*
X194009055Y-84359556D01*
X193994283Y-84290113D01*
X194019399Y-84223708D01*
X194046751Y-84197101D01*
X194116372Y-84147441D01*
X194225831Y-84069365D01*
X194252919Y-84042372D01*
X194380406Y-83915329D01*
X194384067Y-83911681D01*
X194394936Y-83896556D01*
X194511406Y-83734469D01*
X194514424Y-83730269D01*
X194611104Y-83534652D01*
X194611107Y-83534645D01*
X194611108Y-83534643D01*
X194613401Y-83530003D01*
X194678341Y-83316261D01*
X194707500Y-83094782D01*
X194709127Y-83028192D01*
X194690823Y-82805553D01*
X194636402Y-82588894D01*
X194547325Y-82384032D01*
X194471233Y-82266412D01*
X194428793Y-82200809D01*
X194428791Y-82200806D01*
X194425985Y-82196469D01*
X194275641Y-82031243D01*
X194271590Y-82028044D01*
X194271586Y-82028040D01*
X194104385Y-81895992D01*
X194104381Y-81895990D01*
X194100330Y-81892790D01*
X194059024Y-81869988D01*
X194009055Y-81819556D01*
X193994283Y-81750113D01*
X194019399Y-81683708D01*
X194046751Y-81657101D01*
X194090574Y-81625842D01*
X194225831Y-81529365D01*
X194384067Y-81371681D01*
X194443565Y-81288881D01*
X194511406Y-81194469D01*
X194514424Y-81190269D01*
X194516840Y-81185382D01*
X194611107Y-80994645D01*
X194611108Y-80994643D01*
X194613401Y-80990003D01*
X194678341Y-80776261D01*
X194707500Y-80554782D01*
X194709127Y-80488192D01*
X194690823Y-80265553D01*
X194636402Y-80048894D01*
X194547325Y-79844032D01*
X194425985Y-79656469D01*
X194275641Y-79491243D01*
X194271590Y-79488044D01*
X194271586Y-79488040D01*
X194104385Y-79355992D01*
X194104381Y-79355990D01*
X194100330Y-79352790D01*
X194059024Y-79329988D01*
X194009055Y-79279556D01*
X193994283Y-79210113D01*
X194019399Y-79143708D01*
X194046751Y-79117101D01*
X194116372Y-79067441D01*
X194225831Y-78989365D01*
X194252919Y-78962372D01*
X194380406Y-78835329D01*
X194384067Y-78831681D01*
X194394936Y-78816556D01*
X194511406Y-78654469D01*
X194514424Y-78650269D01*
X194611104Y-78454652D01*
X194611107Y-78454645D01*
X194611108Y-78454643D01*
X194613401Y-78450003D01*
X194678341Y-78236261D01*
X194707500Y-78014782D01*
X194709127Y-77948192D01*
X194690823Y-77725553D01*
X194636402Y-77508894D01*
X194547325Y-77304032D01*
X194471233Y-77186412D01*
X194428793Y-77120809D01*
X194428791Y-77120806D01*
X194425985Y-77116469D01*
X194275641Y-76951243D01*
X194271590Y-76948044D01*
X194271586Y-76948040D01*
X194104385Y-76815992D01*
X194104381Y-76815990D01*
X194100330Y-76812790D01*
X194059024Y-76789988D01*
X194009055Y-76739556D01*
X193994283Y-76670113D01*
X194019399Y-76603708D01*
X194046751Y-76577101D01*
X194090574Y-76545842D01*
X194225831Y-76449365D01*
X194384067Y-76291681D01*
X194443565Y-76208881D01*
X194511406Y-76114469D01*
X194514424Y-76110269D01*
X194613401Y-75910003D01*
X194678341Y-75696261D01*
X194707500Y-75474782D01*
X194709127Y-75408192D01*
X194690823Y-75185553D01*
X194636402Y-74968894D01*
X194547325Y-74764032D01*
X194425985Y-74576469D01*
X194275641Y-74411243D01*
X194271590Y-74408044D01*
X194271586Y-74408040D01*
X194104385Y-74275992D01*
X194104381Y-74275990D01*
X194100330Y-74272790D01*
X193904760Y-74164830D01*
X193899891Y-74163106D01*
X193899887Y-74163104D01*
X193699058Y-74091987D01*
X193699054Y-74091986D01*
X193694183Y-74090261D01*
X193689090Y-74089354D01*
X193689087Y-74089353D01*
X193479344Y-74051992D01*
X193479338Y-74051991D01*
X193474255Y-74051086D01*
X193400423Y-74050184D01*
X193256052Y-74048420D01*
X193256050Y-74048420D01*
X193250882Y-74048357D01*
X193030062Y-74082147D01*
X192817727Y-74151549D01*
X192619578Y-74254699D01*
X192615445Y-74257802D01*
X192615442Y-74257804D01*
X192445071Y-74385722D01*
X192440936Y-74388827D01*
X192286600Y-74550330D01*
X192160714Y-74734872D01*
X192066659Y-74937497D01*
X192006960Y-75152762D01*
X191983222Y-75374887D01*
X191983519Y-75380040D01*
X191983519Y-75380043D01*
X191988982Y-75474782D01*
X191996081Y-75597907D01*
X191997218Y-75602953D01*
X191997219Y-75602959D01*
X192017090Y-75691131D01*
X192045193Y-75815831D01*
X192129237Y-76022808D01*
X192245958Y-76213280D01*
X192392221Y-76382130D01*
X192564097Y-76524824D01*
X192634566Y-76566003D01*
X192637416Y-76567668D01*
X192686140Y-76619306D01*
X192699211Y-76689089D01*
X192672480Y-76754861D01*
X192632026Y-76788219D01*
X192619578Y-76794699D01*
X192615445Y-76797802D01*
X192615442Y-76797804D01*
X192445071Y-76925722D01*
X192440936Y-76928827D01*
X192286600Y-77090330D01*
X192283686Y-77094602D01*
X192283685Y-77094603D01*
X192271380Y-77112642D01*
X192160714Y-77274872D01*
X192066659Y-77477497D01*
X192006960Y-77692762D01*
X191983222Y-77914887D01*
X191983519Y-77920040D01*
X191983519Y-77920043D01*
X191994851Y-78116575D01*
X191996081Y-78137907D01*
X191997218Y-78142953D01*
X191997219Y-78142959D01*
X192017090Y-78231131D01*
X192045193Y-78355831D01*
X192129237Y-78562808D01*
X192131936Y-78567212D01*
X192237709Y-78739818D01*
X192245958Y-78753280D01*
X192392221Y-78922130D01*
X192495929Y-79008230D01*
X192557186Y-79059086D01*
X192564097Y-79064824D01*
X192634566Y-79106003D01*
X192637416Y-79107668D01*
X192686140Y-79159306D01*
X192699211Y-79229089D01*
X192672480Y-79294861D01*
X192632026Y-79328219D01*
X192619578Y-79334699D01*
X192615445Y-79337802D01*
X192615442Y-79337804D01*
X192445071Y-79465722D01*
X192440936Y-79468827D01*
X192286600Y-79630330D01*
X192283686Y-79634602D01*
X192283685Y-79634603D01*
X192268769Y-79656469D01*
X192160714Y-79814872D01*
X192066659Y-80017497D01*
X192006960Y-80232762D01*
X191983222Y-80454887D01*
X191983519Y-80460040D01*
X191983519Y-80460043D01*
X191988982Y-80554782D01*
X191996081Y-80677907D01*
X191997218Y-80682953D01*
X191997219Y-80682959D01*
X192010570Y-80742199D01*
X192045193Y-80895831D01*
X192129237Y-81102808D01*
X192245958Y-81293280D01*
X192392221Y-81462130D01*
X192564097Y-81604824D01*
X192634566Y-81646003D01*
X192637416Y-81647668D01*
X192686140Y-81699306D01*
X192699211Y-81769089D01*
X192672480Y-81834861D01*
X192632026Y-81868219D01*
X192619578Y-81874699D01*
X192615445Y-81877802D01*
X192615442Y-81877804D01*
X192506420Y-81959660D01*
X192440936Y-82008827D01*
X192437364Y-82012565D01*
X192310814Y-82144992D01*
X192286600Y-82170330D01*
X192283686Y-82174602D01*
X192283685Y-82174603D01*
X192271375Y-82192649D01*
X192160714Y-82354872D01*
X192066659Y-82557497D01*
X192006960Y-82772762D01*
X191983222Y-82994887D01*
X191983519Y-83000040D01*
X191983519Y-83000043D01*
X191994851Y-83196575D01*
X191996081Y-83217907D01*
X191997218Y-83222953D01*
X191997219Y-83222959D01*
X192010568Y-83282192D01*
X192045193Y-83435831D01*
X192129237Y-83642808D01*
X192131936Y-83647212D01*
X192237709Y-83819818D01*
X192245958Y-83833280D01*
X192392221Y-84002130D01*
X192495929Y-84088230D01*
X192557186Y-84139086D01*
X192564097Y-84144824D01*
X192634566Y-84186003D01*
X192637416Y-84187668D01*
X192686140Y-84239306D01*
X192699211Y-84309089D01*
X192672480Y-84374861D01*
X192632026Y-84408219D01*
X192619578Y-84414699D01*
X192615445Y-84417802D01*
X192615442Y-84417804D01*
X192512781Y-84494884D01*
X192440936Y-84548827D01*
X192437364Y-84552565D01*
X192310814Y-84684992D01*
X192286600Y-84710330D01*
X192160714Y-84894872D01*
X192066659Y-85097497D01*
X192006960Y-85312762D01*
X191983222Y-85534887D01*
X191983519Y-85540040D01*
X191983519Y-85540043D01*
X191988982Y-85634782D01*
X191996081Y-85757907D01*
X191997218Y-85762953D01*
X191997219Y-85762959D01*
X192010608Y-85822368D01*
X192045193Y-85975831D01*
X192129237Y-86182808D01*
X192139006Y-86198750D01*
X192237709Y-86359818D01*
X192245958Y-86373280D01*
X192392221Y-86542130D01*
X192539581Y-86664471D01*
X192558193Y-86679922D01*
X192564097Y-86684824D01*
X192634566Y-86726003D01*
X192637416Y-86727668D01*
X192686140Y-86779306D01*
X192699211Y-86849089D01*
X192672480Y-86914861D01*
X192632026Y-86948219D01*
X192619578Y-86954699D01*
X192615445Y-86957802D01*
X192615442Y-86957804D01*
X192512781Y-87034884D01*
X192440936Y-87088827D01*
X192286600Y-87250330D01*
X192160714Y-87434872D01*
X192066659Y-87637497D01*
X192006960Y-87852762D01*
X191983222Y-88074887D01*
X191983519Y-88080040D01*
X191983519Y-88080043D01*
X191988982Y-88174782D01*
X191996081Y-88297907D01*
X191997218Y-88302953D01*
X191997219Y-88302959D01*
X191997221Y-88302966D01*
X192045193Y-88515831D01*
X192129237Y-88722808D01*
X192139006Y-88738750D01*
X192225269Y-88879518D01*
X192245958Y-88913280D01*
X192392221Y-89082130D01*
X192539581Y-89204471D01*
X192558193Y-89219922D01*
X192564097Y-89224824D01*
X192634566Y-89266003D01*
X192637416Y-89267668D01*
X192686140Y-89319306D01*
X192699211Y-89389089D01*
X192672480Y-89454861D01*
X192632026Y-89488219D01*
X192619578Y-89494699D01*
X192615445Y-89497802D01*
X192615442Y-89497804D01*
X192512781Y-89574884D01*
X192440936Y-89628827D01*
X192286600Y-89790330D01*
X192160714Y-89974872D01*
X192066659Y-90177497D01*
X192006960Y-90392762D01*
X191983222Y-90614887D01*
X191983519Y-90620040D01*
X191983519Y-90620043D01*
X191988982Y-90714782D01*
X191996081Y-90837907D01*
X191997218Y-90842953D01*
X191997219Y-90842959D01*
X191997221Y-90842966D01*
X192045193Y-91055831D01*
X192129237Y-91262808D01*
X192139006Y-91278750D01*
X192225269Y-91419518D01*
X192245958Y-91453280D01*
X192392221Y-91622130D01*
X192539581Y-91744471D01*
X192558193Y-91759922D01*
X192564097Y-91764824D01*
X192634566Y-91806003D01*
X192637416Y-91807668D01*
X192686140Y-91859306D01*
X192699211Y-91929089D01*
X192672480Y-91994861D01*
X192632026Y-92028219D01*
X192619578Y-92034699D01*
X192615445Y-92037802D01*
X192615442Y-92037804D01*
X192506420Y-92119660D01*
X192440936Y-92168827D01*
X192437364Y-92172565D01*
X192310814Y-92304992D01*
X192286600Y-92330330D01*
X192160714Y-92514872D01*
X192066659Y-92717497D01*
X192006960Y-92932762D01*
X191983222Y-93154887D01*
X189361921Y-93154887D01*
X189346340Y-92985318D01*
X189332966Y-92937899D01*
X189292607Y-92794798D01*
X189292606Y-92794796D01*
X189291039Y-92789239D01*
X189271144Y-92748894D01*
X189203488Y-92611702D01*
X189200933Y-92606521D01*
X189132501Y-92514879D01*
X189082490Y-92447907D01*
X189082490Y-92447906D01*
X189079037Y-92443283D01*
X188980990Y-92352649D01*
X188933675Y-92308911D01*
X188933672Y-92308909D01*
X188929435Y-92304992D01*
X188883407Y-92275951D01*
X188762020Y-92199361D01*
X188762015Y-92199359D01*
X188757136Y-92196280D01*
X188567912Y-92120787D01*
X188368098Y-92081041D01*
X188362324Y-92080965D01*
X188362320Y-92080965D01*
X188259184Y-92079616D01*
X188164387Y-92078375D01*
X188158690Y-92079354D01*
X188158689Y-92079354D01*
X187969299Y-92111897D01*
X187963602Y-92112876D01*
X187772466Y-92183390D01*
X187767505Y-92186342D01*
X187767504Y-92186342D01*
X187759255Y-92191250D01*
X187597381Y-92287555D01*
X187505497Y-92368135D01*
X187475520Y-92394424D01*
X187411116Y-92424301D01*
X187392443Y-92425692D01*
X185358320Y-92425692D01*
X185290199Y-92405690D01*
X185252530Y-92368135D01*
X185247796Y-92360818D01*
X185244987Y-92356476D01*
X185094643Y-92191250D01*
X185090592Y-92188051D01*
X185090588Y-92188047D01*
X184923387Y-92055999D01*
X184923383Y-92055997D01*
X184919332Y-92052797D01*
X184878026Y-92029995D01*
X184828057Y-91979563D01*
X184813285Y-91910120D01*
X184838401Y-91843715D01*
X184865753Y-91817108D01*
X184909576Y-91785849D01*
X185044833Y-91689372D01*
X185071921Y-91662379D01*
X185199408Y-91535336D01*
X185203069Y-91531688D01*
X185206090Y-91527484D01*
X185252307Y-91463166D01*
X185308302Y-91419518D01*
X185354630Y-91410692D01*
X186886526Y-91410692D01*
X186954647Y-91430694D01*
X186974448Y-91446438D01*
X186981472Y-91453280D01*
X187043141Y-91513356D01*
X187047937Y-91516561D01*
X187047940Y-91516563D01*
X187076036Y-91535336D01*
X187212534Y-91626541D01*
X187217837Y-91628819D01*
X187217840Y-91628821D01*
X187358760Y-91689365D01*
X187399718Y-91706962D01*
X187472548Y-91723442D01*
X187592786Y-91750649D01*
X187592791Y-91750650D01*
X187598423Y-91751924D01*
X187604194Y-91752151D01*
X187604196Y-91752151D01*
X187667201Y-91754626D01*
X187801994Y-91759922D01*
X188003614Y-91730689D01*
X188009078Y-91728834D01*
X188009083Y-91728833D01*
X188191058Y-91667061D01*
X188191063Y-91667059D01*
X188196530Y-91665203D01*
X188374282Y-91565657D01*
X188530917Y-91435385D01*
X188661189Y-91278750D01*
X188760735Y-91100998D01*
X188762591Y-91095531D01*
X188762593Y-91095526D01*
X188824365Y-90913551D01*
X188824366Y-90913546D01*
X188826221Y-90908082D01*
X188855454Y-90706462D01*
X188856980Y-90648199D01*
X188838339Y-90445325D01*
X188824963Y-90397899D01*
X188784606Y-90254805D01*
X188784605Y-90254803D01*
X188783038Y-90249246D01*
X188765614Y-90213912D01*
X188695487Y-90071709D01*
X188692932Y-90066528D01*
X188571036Y-89903290D01*
X188453467Y-89794610D01*
X188425674Y-89768918D01*
X188425671Y-89768916D01*
X188421434Y-89764999D01*
X188375406Y-89735958D01*
X188254019Y-89659368D01*
X188254014Y-89659366D01*
X188249135Y-89656287D01*
X188059911Y-89580794D01*
X187860097Y-89541048D01*
X187854323Y-89540972D01*
X187854319Y-89540972D01*
X187751183Y-89539623D01*
X187656386Y-89538382D01*
X187650689Y-89539361D01*
X187650688Y-89539361D01*
X187461298Y-89571904D01*
X187455601Y-89572883D01*
X187264465Y-89643397D01*
X187089380Y-89747562D01*
X186997504Y-89828135D01*
X186967527Y-89854424D01*
X186903123Y-89884301D01*
X186884450Y-89885692D01*
X185358320Y-89885692D01*
X185290199Y-89865690D01*
X185252530Y-89828135D01*
X185247796Y-89820818D01*
X185244987Y-89816476D01*
X185094643Y-89651250D01*
X185090592Y-89648051D01*
X185090588Y-89648047D01*
X184923387Y-89515999D01*
X184923383Y-89515997D01*
X184919332Y-89512797D01*
X184878026Y-89489995D01*
X184828057Y-89439563D01*
X184813285Y-89370120D01*
X184838401Y-89303715D01*
X184865753Y-89277108D01*
X184909576Y-89245849D01*
X185044833Y-89149372D01*
X185071921Y-89122379D01*
X185199408Y-88995336D01*
X185203069Y-88991688D01*
X185206090Y-88987484D01*
X185252307Y-88923166D01*
X185308302Y-88879518D01*
X185354630Y-88870692D01*
X186378526Y-88870692D01*
X186446647Y-88890694D01*
X186466448Y-88906438D01*
X186473472Y-88913280D01*
X186535141Y-88973356D01*
X186539937Y-88976561D01*
X186539940Y-88976563D01*
X186568036Y-88995336D01*
X186704534Y-89086541D01*
X186709837Y-89088819D01*
X186709840Y-89088821D01*
X186850760Y-89149365D01*
X186891718Y-89166962D01*
X186964548Y-89183442D01*
X187084786Y-89210649D01*
X187084791Y-89210650D01*
X187090423Y-89211924D01*
X187096194Y-89212151D01*
X187096196Y-89212151D01*
X187159201Y-89214626D01*
X187293994Y-89219922D01*
X187495614Y-89190689D01*
X187501078Y-89188834D01*
X187501083Y-89188833D01*
X187683058Y-89127061D01*
X187683063Y-89127059D01*
X187688530Y-89125203D01*
X187866282Y-89025657D01*
X188022917Y-88895385D01*
X188153189Y-88738750D01*
X188252735Y-88560998D01*
X188254591Y-88555531D01*
X188254593Y-88555526D01*
X188316365Y-88373551D01*
X188316366Y-88373546D01*
X188318221Y-88368082D01*
X188347454Y-88166462D01*
X188348980Y-88108199D01*
X188330339Y-87905325D01*
X188316963Y-87857899D01*
X188276606Y-87714805D01*
X188276605Y-87714803D01*
X188275038Y-87709246D01*
X188257614Y-87673912D01*
X188187487Y-87531709D01*
X188184932Y-87526528D01*
X188063036Y-87363290D01*
X187945467Y-87254610D01*
X187917674Y-87228918D01*
X187917671Y-87228916D01*
X187913434Y-87224999D01*
X187867406Y-87195958D01*
X187746019Y-87119368D01*
X187746014Y-87119366D01*
X187741135Y-87116287D01*
X187551911Y-87040794D01*
X187352097Y-87001048D01*
X187346323Y-87000972D01*
X187346319Y-87000972D01*
X187243183Y-86999623D01*
X187148386Y-86998382D01*
X187142689Y-86999361D01*
X187142688Y-86999361D01*
X186953298Y-87031904D01*
X186947601Y-87032883D01*
X186756465Y-87103397D01*
X186581380Y-87207562D01*
X186489504Y-87288135D01*
X186459527Y-87314424D01*
X186395123Y-87344301D01*
X186376450Y-87345692D01*
X185358320Y-87345692D01*
X185290199Y-87325690D01*
X185252530Y-87288135D01*
X185247796Y-87280818D01*
X185244987Y-87276476D01*
X185094643Y-87111250D01*
X185090592Y-87108051D01*
X185090588Y-87108047D01*
X184923387Y-86975999D01*
X184923383Y-86975997D01*
X184919332Y-86972797D01*
X184878026Y-86949995D01*
X184828057Y-86899563D01*
X184813285Y-86830120D01*
X184838401Y-86763715D01*
X184865753Y-86737108D01*
X184909576Y-86705849D01*
X185044833Y-86609372D01*
X185071921Y-86582379D01*
X185199408Y-86455336D01*
X185203069Y-86451688D01*
X185206090Y-86447484D01*
X185252307Y-86383166D01*
X185308302Y-86339518D01*
X185354630Y-86330692D01*
X185870526Y-86330692D01*
X185938647Y-86350694D01*
X185958448Y-86366438D01*
X185965472Y-86373280D01*
X186027141Y-86433356D01*
X186031937Y-86436561D01*
X186031940Y-86436563D01*
X186109644Y-86488483D01*
X186196534Y-86546541D01*
X186201837Y-86548819D01*
X186201840Y-86548821D01*
X186342760Y-86609365D01*
X186383718Y-86626962D01*
X186456548Y-86643442D01*
X186576786Y-86670649D01*
X186576791Y-86670650D01*
X186582423Y-86671924D01*
X186588194Y-86672151D01*
X186588196Y-86672151D01*
X186651201Y-86674626D01*
X186785994Y-86679922D01*
X186987614Y-86650689D01*
X186993078Y-86648834D01*
X186993083Y-86648833D01*
X187175058Y-86587061D01*
X187175063Y-86587059D01*
X187180530Y-86585203D01*
X187358282Y-86485657D01*
X187514917Y-86355385D01*
X187645189Y-86198750D01*
X187744735Y-86020998D01*
X187746591Y-86015531D01*
X187746593Y-86015526D01*
X187808365Y-85833551D01*
X187808366Y-85833546D01*
X187810221Y-85828082D01*
X187839454Y-85626462D01*
X187840980Y-85568199D01*
X187822339Y-85365325D01*
X187808963Y-85317899D01*
X187768606Y-85174805D01*
X187768605Y-85174803D01*
X187767038Y-85169246D01*
X187749614Y-85133912D01*
X187679487Y-84991709D01*
X187676932Y-84986528D01*
X187555036Y-84823290D01*
X187437467Y-84714610D01*
X187409674Y-84688918D01*
X187409671Y-84688916D01*
X187405434Y-84684999D01*
X187359406Y-84655958D01*
X187238019Y-84579368D01*
X187238014Y-84579366D01*
X187233135Y-84576287D01*
X187043911Y-84500794D01*
X186844097Y-84461048D01*
X186838323Y-84460972D01*
X186838319Y-84460972D01*
X186735183Y-84459623D01*
X186640386Y-84458382D01*
X186634689Y-84459361D01*
X186634688Y-84459361D01*
X186445339Y-84491897D01*
X186439601Y-84492883D01*
X186248465Y-84563397D01*
X186073380Y-84667562D01*
X185981504Y-84748135D01*
X185951527Y-84774424D01*
X185887123Y-84804301D01*
X185868450Y-84805692D01*
X185358320Y-84805692D01*
X185290199Y-84785690D01*
X185252530Y-84748135D01*
X185247796Y-84740818D01*
X185244987Y-84736476D01*
X185094643Y-84571250D01*
X185090592Y-84568051D01*
X185090588Y-84568047D01*
X184923387Y-84435999D01*
X184923383Y-84435997D01*
X184919332Y-84432797D01*
X184878026Y-84409995D01*
X184828057Y-84359563D01*
X184813285Y-84290120D01*
X184838401Y-84223715D01*
X184865753Y-84197108D01*
X184909576Y-84165849D01*
X185044833Y-84069372D01*
X185203069Y-83911688D01*
X185213943Y-83896556D01*
X185330408Y-83734476D01*
X185333426Y-83730276D01*
X185405317Y-83584816D01*
X185430109Y-83534652D01*
X185430112Y-83534645D01*
X185432403Y-83530010D01*
X185464873Y-83423139D01*
X185495838Y-83321222D01*
X185495840Y-83321215D01*
X185497343Y-83316268D01*
X185526502Y-83094789D01*
X185528129Y-83028199D01*
X185509825Y-82805560D01*
X185455404Y-82588901D01*
X185366327Y-82384039D01*
X185287300Y-82261882D01*
X185247795Y-82200816D01*
X185247790Y-82200809D01*
X185244987Y-82196476D01*
X185094643Y-82031250D01*
X185090592Y-82028051D01*
X185090588Y-82028047D01*
X184923387Y-81895999D01*
X184923383Y-81895997D01*
X184919332Y-81892797D01*
X184914802Y-81890296D01*
X184882243Y-81872323D01*
X184877542Y-81869728D01*
X184827571Y-81819296D01*
X184812799Y-81749853D01*
X184837915Y-81683447D01*
X184865267Y-81656840D01*
X185040301Y-81531991D01*
X185048173Y-81525338D01*
X185199025Y-81375011D01*
X185205703Y-81367164D01*
X185329976Y-81194219D01*
X185335286Y-81185382D01*
X185429643Y-80994466D01*
X185433442Y-80984871D01*
X185495350Y-80781109D01*
X185497528Y-80771036D01*
X185498959Y-80760161D01*
X185496748Y-80745977D01*
X185483590Y-80742199D01*
X182848198Y-80742199D01*
X182834667Y-80746172D01*
X182833230Y-80756165D01*
X182863538Y-80890645D01*
X182866618Y-80900474D01*
X182946743Y-81097802D01*
X182951386Y-81106993D01*
X183062667Y-81288587D01*
X183068750Y-81296898D01*
X183208186Y-81457866D01*
X183215553Y-81465082D01*
X183379407Y-81601115D01*
X183387854Y-81607030D01*
X183456942Y-81647402D01*
X183505666Y-81699041D01*
X183518737Y-81768824D01*
X183492006Y-81834595D01*
X183451557Y-81867951D01*
X183438580Y-81874706D01*
X183434447Y-81877809D01*
X183434444Y-81877811D01*
X183264073Y-82005729D01*
X183259938Y-82008834D01*
X183238517Y-82031250D01*
X183142845Y-82131365D01*
X183105602Y-82170337D01*
X183102688Y-82174609D01*
X183102687Y-82174610D01*
X183078071Y-82210696D01*
X183023160Y-82255699D01*
X182973983Y-82265692D01*
X180935800Y-82265692D01*
X180867679Y-82245690D01*
X180850271Y-82232216D01*
X180760158Y-82148916D01*
X180755913Y-82144992D01*
X180678389Y-82096078D01*
X180588498Y-82039361D01*
X180588493Y-82039359D01*
X180583614Y-82036280D01*
X180394390Y-81960787D01*
X180194576Y-81921041D01*
X180188802Y-81920965D01*
X180188798Y-81920965D01*
X180085662Y-81919616D01*
X179990865Y-81918375D01*
X179985168Y-81919354D01*
X179985167Y-81919354D01*
X179795777Y-81951897D01*
X179790080Y-81952876D01*
X179598944Y-82023390D01*
X179593983Y-82026342D01*
X179593982Y-82026342D01*
X179585733Y-82031250D01*
X179423859Y-82127555D01*
X179270688Y-82261882D01*
X179267121Y-82266407D01*
X179267116Y-82266412D01*
X179200754Y-82350593D01*
X179144561Y-82421873D01*
X179049702Y-82602170D01*
X178989288Y-82796735D01*
X178965342Y-82999051D01*
X178978667Y-83202343D01*
X179028815Y-83399802D01*
X179114108Y-83584816D01*
X179231689Y-83751189D01*
X179377620Y-83893349D01*
X179382416Y-83896554D01*
X179382419Y-83896556D01*
X179450359Y-83941952D01*
X179547013Y-84006534D01*
X179552316Y-84008812D01*
X179552319Y-84008814D01*
X179728890Y-84084675D01*
X179734197Y-84086955D01*
X179807027Y-84103435D01*
X179927265Y-84130642D01*
X179927270Y-84130643D01*
X179932902Y-84131917D01*
X179938673Y-84132144D01*
X179938675Y-84132144D01*
X180001680Y-84134619D01*
X180136473Y-84139915D01*
X180338093Y-84110682D01*
X180343557Y-84108827D01*
X180343562Y-84108826D01*
X180525537Y-84047054D01*
X180525542Y-84047052D01*
X180531009Y-84045196D01*
X180708761Y-83945650D01*
X180860058Y-83819818D01*
X180925221Y-83791637D01*
X180940626Y-83790692D01*
X182970509Y-83790692D01*
X183038630Y-83810694D01*
X183065746Y-83834195D01*
X183207833Y-83998224D01*
X183211223Y-84002137D01*
X183383099Y-84144831D01*
X183453568Y-84186010D01*
X183456418Y-84187675D01*
X183505142Y-84239313D01*
X183518213Y-84309096D01*
X183491482Y-84374868D01*
X183451028Y-84408226D01*
X183443183Y-84412310D01*
X183438580Y-84414706D01*
X183434447Y-84417809D01*
X183434444Y-84417811D01*
X183264073Y-84545729D01*
X183259938Y-84548834D01*
X183238517Y-84571250D01*
X183129816Y-84684999D01*
X183105602Y-84710337D01*
X183102688Y-84714609D01*
X183102687Y-84714610D01*
X183078071Y-84750696D01*
X183023160Y-84795699D01*
X182973983Y-84805692D01*
X180935800Y-84805692D01*
X180867679Y-84785690D01*
X180850271Y-84772216D01*
X180760158Y-84688916D01*
X180755913Y-84684992D01*
X180678389Y-84636078D01*
X180588498Y-84579361D01*
X180588493Y-84579359D01*
X180583614Y-84576280D01*
X180479470Y-84534731D01*
X180399759Y-84502929D01*
X180394390Y-84500787D01*
X180194576Y-84461041D01*
X180188802Y-84460965D01*
X180188798Y-84460965D01*
X180085662Y-84459616D01*
X179990865Y-84458375D01*
X179985168Y-84459354D01*
X179985167Y-84459354D01*
X179968750Y-84462175D01*
X179790080Y-84492876D01*
X179598944Y-84563390D01*
X179593983Y-84566342D01*
X179593982Y-84566342D01*
X179585733Y-84571250D01*
X179423859Y-84667555D01*
X179270688Y-84801882D01*
X179267121Y-84806407D01*
X179267116Y-84806412D01*
X179200754Y-84890593D01*
X179144561Y-84961873D01*
X179141872Y-84966984D01*
X179141870Y-84966987D01*
X179131589Y-84986528D01*
X179049702Y-85142170D01*
X178989288Y-85336735D01*
X178965342Y-85539051D01*
X176344731Y-85539051D01*
X176328823Y-85345553D01*
X176274402Y-85128894D01*
X176185325Y-84924032D01*
X176145877Y-84863054D01*
X176066793Y-84740809D01*
X176066791Y-84740806D01*
X176063985Y-84736469D01*
X175913641Y-84571243D01*
X175909590Y-84568044D01*
X175909586Y-84568040D01*
X175742385Y-84435992D01*
X175742381Y-84435990D01*
X175738330Y-84432790D01*
X175696540Y-84409721D01*
X175646569Y-84359289D01*
X175631797Y-84289846D01*
X175656913Y-84223440D01*
X175684265Y-84196833D01*
X175859299Y-84071984D01*
X175867171Y-84065331D01*
X176018023Y-83915004D01*
X176024701Y-83907157D01*
X176148974Y-83734212D01*
X176154284Y-83725375D01*
X176248641Y-83534459D01*
X176252440Y-83524864D01*
X176314348Y-83321102D01*
X176316526Y-83311029D01*
X176317957Y-83300154D01*
X176315746Y-83285970D01*
X176302588Y-83282192D01*
X173667196Y-83282192D01*
X173653665Y-83286165D01*
X173652228Y-83296158D01*
X173682536Y-83430638D01*
X173685616Y-83440467D01*
X173765741Y-83637795D01*
X173770384Y-83646986D01*
X173881665Y-83828580D01*
X173887748Y-83836891D01*
X174027184Y-83997859D01*
X174034551Y-84005075D01*
X174198405Y-84141108D01*
X174206852Y-84147023D01*
X174275940Y-84187395D01*
X174324664Y-84239034D01*
X174337735Y-84308817D01*
X174311004Y-84374588D01*
X174270555Y-84407944D01*
X174257578Y-84414699D01*
X174253445Y-84417802D01*
X174253442Y-84417804D01*
X174150781Y-84494884D01*
X174078936Y-84548827D01*
X174075364Y-84552565D01*
X173948814Y-84684992D01*
X173924600Y-84710330D01*
X173798714Y-84894872D01*
X173704659Y-85097497D01*
X173644960Y-85312762D01*
X173621222Y-85534887D01*
X173621519Y-85540040D01*
X173621519Y-85540043D01*
X173626982Y-85634782D01*
X173634081Y-85757907D01*
X173635218Y-85762953D01*
X173635219Y-85762959D01*
X173648608Y-85822368D01*
X173683193Y-85975831D01*
X173767237Y-86182808D01*
X173777006Y-86198750D01*
X173875709Y-86359818D01*
X173883958Y-86373280D01*
X174030221Y-86542130D01*
X174177581Y-86664471D01*
X174196193Y-86679922D01*
X174202097Y-86684824D01*
X174272566Y-86726003D01*
X174275416Y-86727668D01*
X174324140Y-86779306D01*
X174337211Y-86849089D01*
X174310480Y-86914861D01*
X174270026Y-86948219D01*
X174257578Y-86954699D01*
X174253445Y-86957802D01*
X174253442Y-86957804D01*
X174150781Y-87034884D01*
X174078936Y-87088827D01*
X173924600Y-87250330D01*
X173798714Y-87434872D01*
X173704659Y-87637497D01*
X173644960Y-87852762D01*
X173621222Y-88074887D01*
X173621519Y-88080040D01*
X173621519Y-88080043D01*
X173626982Y-88174782D01*
X173634081Y-88297907D01*
X173635218Y-88302953D01*
X173635219Y-88302959D01*
X173635221Y-88302966D01*
X173683193Y-88515831D01*
X173767237Y-88722808D01*
X173777006Y-88738750D01*
X173863269Y-88879518D01*
X173883958Y-88913280D01*
X174030221Y-89082130D01*
X174177581Y-89204471D01*
X174196193Y-89219922D01*
X174202097Y-89224824D01*
X174272566Y-89266003D01*
X174275416Y-89267668D01*
X174324140Y-89319306D01*
X174337211Y-89389089D01*
X174310480Y-89454861D01*
X174270026Y-89488219D01*
X174257578Y-89494699D01*
X174253445Y-89497802D01*
X174253442Y-89497804D01*
X174150781Y-89574884D01*
X174078936Y-89628827D01*
X173924600Y-89790330D01*
X173798714Y-89974872D01*
X173704659Y-90177497D01*
X173644960Y-90392762D01*
X173621222Y-90614887D01*
X173621519Y-90620040D01*
X173621519Y-90620043D01*
X173626982Y-90714782D01*
X173634081Y-90837907D01*
X173635218Y-90842953D01*
X173635219Y-90842959D01*
X173635221Y-90842966D01*
X173683193Y-91055831D01*
X173767237Y-91262808D01*
X173777006Y-91278750D01*
X173863269Y-91419518D01*
X173883958Y-91453280D01*
X174030221Y-91622130D01*
X174177581Y-91744471D01*
X174196193Y-91759922D01*
X174202097Y-91764824D01*
X174272566Y-91806003D01*
X174275416Y-91807668D01*
X174324140Y-91859306D01*
X174337211Y-91929089D01*
X174310480Y-91994861D01*
X174270026Y-92028219D01*
X174257578Y-92034699D01*
X174253445Y-92037802D01*
X174253442Y-92037804D01*
X174144420Y-92119660D01*
X174078936Y-92168827D01*
X174075364Y-92172565D01*
X173948814Y-92304992D01*
X173924600Y-92330330D01*
X173798714Y-92514872D01*
X173704659Y-92717497D01*
X173644960Y-92932762D01*
X173621222Y-93154887D01*
X173133972Y-93154887D01*
X173133972Y-80454887D01*
X173621222Y-80454887D01*
X173621519Y-80460040D01*
X173621519Y-80460043D01*
X173626982Y-80554782D01*
X173634081Y-80677907D01*
X173635218Y-80682953D01*
X173635219Y-80682959D01*
X173648570Y-80742199D01*
X173683193Y-80895831D01*
X173767237Y-81102808D01*
X173883958Y-81293280D01*
X174030221Y-81462130D01*
X174202097Y-81604824D01*
X174274961Y-81647402D01*
X174275926Y-81647966D01*
X174324650Y-81699604D01*
X174337721Y-81769387D01*
X174310990Y-81835159D01*
X174270533Y-81868519D01*
X174262428Y-81872738D01*
X174253709Y-81878228D01*
X174083404Y-82006097D01*
X174075697Y-82012940D01*
X173928561Y-82166909D01*
X173922075Y-82174919D01*
X173802069Y-82350841D01*
X173796971Y-82359815D01*
X173707309Y-82552975D01*
X173703746Y-82562662D01*
X173648360Y-82762375D01*
X173649883Y-82770799D01*
X173662263Y-82774192D01*
X176302315Y-82774192D01*
X176315846Y-82770219D01*
X176317151Y-82761139D01*
X176275185Y-82594067D01*
X176271865Y-82584316D01*
X176186943Y-82389006D01*
X176182076Y-82379931D01*
X176066397Y-82201118D01*
X176060107Y-82192949D01*
X175916777Y-82035432D01*
X175909244Y-82028407D01*
X175742110Y-81896414D01*
X175733527Y-81890712D01*
X175696573Y-81870312D01*
X175646602Y-81819879D01*
X175631830Y-81750437D01*
X175656946Y-81684031D01*
X175684298Y-81657424D01*
X175707768Y-81640683D01*
X175863831Y-81529365D01*
X176022067Y-81371681D01*
X176081565Y-81288881D01*
X176149406Y-81194469D01*
X176152424Y-81190269D01*
X176154840Y-81185382D01*
X176249107Y-80994645D01*
X176249108Y-80994643D01*
X176251401Y-80990003D01*
X176316341Y-80776261D01*
X176345500Y-80554782D01*
X176347127Y-80488192D01*
X176328823Y-80265553D01*
X176274402Y-80048894D01*
X176185325Y-79844032D01*
X176063985Y-79656469D01*
X175913641Y-79491243D01*
X175909590Y-79488044D01*
X175909586Y-79488040D01*
X175742385Y-79355992D01*
X175742381Y-79355990D01*
X175738330Y-79352790D01*
X175697024Y-79329988D01*
X175647055Y-79279556D01*
X175632283Y-79210113D01*
X175657399Y-79143708D01*
X175684751Y-79117101D01*
X175754372Y-79067441D01*
X175863831Y-78989365D01*
X175890919Y-78962372D01*
X176018406Y-78835329D01*
X176022067Y-78831681D01*
X176032936Y-78816556D01*
X176149406Y-78654469D01*
X176152424Y-78650269D01*
X176249104Y-78454652D01*
X176249107Y-78454645D01*
X176249108Y-78454643D01*
X176251401Y-78450003D01*
X176316341Y-78236261D01*
X176345500Y-78014782D01*
X176347127Y-77948192D01*
X176328823Y-77725553D01*
X176274402Y-77508894D01*
X176185325Y-77304032D01*
X176109233Y-77186412D01*
X176066793Y-77120809D01*
X176066791Y-77120806D01*
X176063985Y-77116469D01*
X176060503Y-77112642D01*
X175916769Y-76954680D01*
X175885717Y-76890834D01*
X175894112Y-76820335D01*
X175939288Y-76765567D01*
X175965732Y-76751898D01*
X176072268Y-76711959D01*
X176080676Y-76708807D01*
X176197232Y-76621453D01*
X176284586Y-76504897D01*
X176335716Y-76368508D01*
X176342471Y-76306326D01*
X176342471Y-74510058D01*
X176335716Y-74447876D01*
X176284586Y-74311487D01*
X176197232Y-74194931D01*
X176080676Y-74107577D01*
X175944287Y-74056447D01*
X175882105Y-74049692D01*
X174085837Y-74049692D01*
X174023655Y-74056447D01*
X173887266Y-74107577D01*
X173770710Y-74194931D01*
X173683356Y-74311487D01*
X173632226Y-74447876D01*
X173625471Y-74510058D01*
X173625471Y-76306326D01*
X173632226Y-76368508D01*
X173683356Y-76504897D01*
X173770710Y-76621453D01*
X173887266Y-76708807D01*
X173895675Y-76711959D01*
X173895676Y-76711960D01*
X174004422Y-76752727D01*
X174061187Y-76795368D01*
X174085887Y-76861930D01*
X174070680Y-76931279D01*
X174051287Y-76957760D01*
X173924600Y-77090330D01*
X173921686Y-77094602D01*
X173921685Y-77094603D01*
X173909380Y-77112642D01*
X173798714Y-77274872D01*
X173704659Y-77477497D01*
X173644960Y-77692762D01*
X173621222Y-77914887D01*
X173621519Y-77920040D01*
X173621519Y-77920043D01*
X173632851Y-78116575D01*
X173634081Y-78137907D01*
X173635218Y-78142953D01*
X173635219Y-78142959D01*
X173655090Y-78231131D01*
X173683193Y-78355831D01*
X173767237Y-78562808D01*
X173769936Y-78567212D01*
X173875709Y-78739818D01*
X173883958Y-78753280D01*
X174030221Y-78922130D01*
X174133929Y-79008230D01*
X174195186Y-79059086D01*
X174202097Y-79064824D01*
X174272566Y-79106003D01*
X174275416Y-79107668D01*
X174324140Y-79159306D01*
X174337211Y-79229089D01*
X174310480Y-79294861D01*
X174270026Y-79328219D01*
X174257578Y-79334699D01*
X174253445Y-79337802D01*
X174253442Y-79337804D01*
X174083071Y-79465722D01*
X174078936Y-79468827D01*
X173924600Y-79630330D01*
X173921686Y-79634602D01*
X173921685Y-79634603D01*
X173906769Y-79656469D01*
X173798714Y-79814872D01*
X173704659Y-80017497D01*
X173644960Y-80232762D01*
X173621222Y-80454887D01*
X173133972Y-80454887D01*
X173133972Y-72350000D01*
X173796484Y-72350000D01*
X173816439Y-72578087D01*
X173817863Y-72583400D01*
X173817863Y-72583402D01*
X173873875Y-72792438D01*
X173875698Y-72799243D01*
X173878021Y-72804224D01*
X173878021Y-72804225D01*
X173970133Y-73001762D01*
X173970136Y-73001767D01*
X173972459Y-73006749D01*
X174027073Y-73084746D01*
X174084128Y-73166228D01*
X174103784Y-73194300D01*
X174265682Y-73356198D01*
X174270190Y-73359355D01*
X174270193Y-73359357D01*
X174348371Y-73414098D01*
X174453233Y-73487523D01*
X174458215Y-73489846D01*
X174458220Y-73489849D01*
X174655757Y-73581961D01*
X174660739Y-73584284D01*
X174666047Y-73585706D01*
X174666049Y-73585707D01*
X174876580Y-73642119D01*
X174876582Y-73642119D01*
X174881895Y-73643543D01*
X175109982Y-73663498D01*
X175338069Y-73643543D01*
X175343382Y-73642119D01*
X175343384Y-73642119D01*
X175553915Y-73585707D01*
X175553917Y-73585706D01*
X175559225Y-73584284D01*
X175564207Y-73581961D01*
X175761744Y-73489849D01*
X175761749Y-73489846D01*
X175766731Y-73487523D01*
X175871593Y-73414098D01*
X175949771Y-73359357D01*
X175949774Y-73359355D01*
X175954282Y-73356198D01*
X176116180Y-73194300D01*
X176119341Y-73189786D01*
X176135837Y-73166228D01*
X176191294Y-73121900D01*
X176239049Y-73112500D01*
X178791954Y-73112500D01*
X178860075Y-73132502D01*
X178881049Y-73149405D01*
X179278805Y-73547161D01*
X179312831Y-73609473D01*
X179315710Y-73636256D01*
X179315710Y-77085309D01*
X179295708Y-77153430D01*
X179278503Y-77173406D01*
X179279006Y-77173884D01*
X179275025Y-77178078D01*
X179270688Y-77181882D01*
X179267121Y-77186407D01*
X179267116Y-77186412D01*
X179200754Y-77270593D01*
X179144561Y-77341873D01*
X179049702Y-77522170D01*
X178989288Y-77716735D01*
X178965342Y-77919051D01*
X178978667Y-78122343D01*
X179028815Y-78319802D01*
X179114108Y-78504816D01*
X179231689Y-78671189D01*
X179377620Y-78813349D01*
X179382416Y-78816554D01*
X179382419Y-78816556D01*
X179450359Y-78861952D01*
X179547013Y-78926534D01*
X179552316Y-78928812D01*
X179552319Y-78928814D01*
X179728890Y-79004675D01*
X179734197Y-79006955D01*
X179807027Y-79023435D01*
X179927265Y-79050642D01*
X179927270Y-79050643D01*
X179932902Y-79051917D01*
X179938673Y-79052144D01*
X179938675Y-79052144D01*
X180001680Y-79054619D01*
X180136473Y-79059915D01*
X180338093Y-79030682D01*
X180343557Y-79028827D01*
X180343562Y-79028826D01*
X180525537Y-78967054D01*
X180525542Y-78967052D01*
X180531009Y-78965196D01*
X180708761Y-78865650D01*
X180860058Y-78739818D01*
X180925221Y-78711637D01*
X180940626Y-78710692D01*
X182970509Y-78710692D01*
X183038630Y-78730694D01*
X183065746Y-78754195D01*
X183207833Y-78918224D01*
X183211223Y-78922137D01*
X183383099Y-79064831D01*
X183456406Y-79107668D01*
X183456928Y-79107973D01*
X183505652Y-79159611D01*
X183518723Y-79229394D01*
X183491992Y-79295166D01*
X183451535Y-79328526D01*
X183443430Y-79332745D01*
X183434711Y-79338235D01*
X183264406Y-79466104D01*
X183256699Y-79472947D01*
X183109563Y-79626916D01*
X183103077Y-79634926D01*
X182983071Y-79810848D01*
X182977973Y-79819822D01*
X182888311Y-80012982D01*
X182884748Y-80022669D01*
X182829362Y-80222382D01*
X182830885Y-80230806D01*
X182843265Y-80234199D01*
X185483317Y-80234199D01*
X185496848Y-80230226D01*
X185498153Y-80221146D01*
X185456187Y-80054074D01*
X185452867Y-80044323D01*
X185367945Y-79849013D01*
X185363078Y-79839938D01*
X185247399Y-79661125D01*
X185241109Y-79652956D01*
X185097779Y-79495439D01*
X185090246Y-79488414D01*
X184923112Y-79356421D01*
X184914529Y-79350719D01*
X184877575Y-79330319D01*
X184827604Y-79279886D01*
X184812832Y-79210444D01*
X184837948Y-79144038D01*
X184865300Y-79117431D01*
X184888770Y-79100690D01*
X185044833Y-78989372D01*
X185203069Y-78831688D01*
X185213943Y-78816556D01*
X185330408Y-78654476D01*
X185333426Y-78650276D01*
X185405317Y-78504816D01*
X185430109Y-78454652D01*
X185430112Y-78454645D01*
X185432403Y-78450010D01*
X185464873Y-78343139D01*
X185495838Y-78241222D01*
X185495840Y-78241215D01*
X185497343Y-78236268D01*
X185526502Y-78014789D01*
X185528129Y-77948199D01*
X185509825Y-77725560D01*
X185455404Y-77508901D01*
X185366327Y-77304039D01*
X185262391Y-77143378D01*
X185247795Y-77120816D01*
X185247790Y-77120809D01*
X185244987Y-77116476D01*
X185241505Y-77112649D01*
X185097771Y-76954687D01*
X185066719Y-76890841D01*
X185075114Y-76820342D01*
X185120290Y-76765574D01*
X185146734Y-76751905D01*
X185253270Y-76711966D01*
X185261678Y-76708814D01*
X185378234Y-76621460D01*
X185465588Y-76504904D01*
X185516718Y-76368515D01*
X185523473Y-76306333D01*
X185523473Y-74510065D01*
X185516718Y-74447883D01*
X185465588Y-74311494D01*
X185378234Y-74194938D01*
X185261678Y-74107584D01*
X185125289Y-74056454D01*
X185063107Y-74049699D01*
X183266839Y-74049699D01*
X183204657Y-74056454D01*
X183068268Y-74107584D01*
X182951712Y-74194938D01*
X182864358Y-74311494D01*
X182813228Y-74447883D01*
X182806473Y-74510065D01*
X182806473Y-76306333D01*
X182813228Y-76368515D01*
X182864358Y-76504904D01*
X182951712Y-76621460D01*
X183068268Y-76708814D01*
X183076677Y-76711966D01*
X183076678Y-76711967D01*
X183185424Y-76752734D01*
X183242189Y-76795375D01*
X183266889Y-76861937D01*
X183251682Y-76931286D01*
X183232289Y-76957767D01*
X183105602Y-77090337D01*
X183102688Y-77094609D01*
X183102687Y-77094610D01*
X183078071Y-77130696D01*
X183023160Y-77175699D01*
X182973983Y-77185692D01*
X180966710Y-77185692D01*
X180898589Y-77165690D01*
X180852096Y-77112034D01*
X180840710Y-77059692D01*
X180840710Y-73335596D01*
X180842143Y-73316645D01*
X180844333Y-73302252D01*
X180844333Y-73302250D01*
X180845433Y-73295020D01*
X180841125Y-73242053D01*
X180840710Y-73231839D01*
X180840710Y-73223703D01*
X180837400Y-73195312D01*
X180836967Y-73190937D01*
X180831613Y-73125100D01*
X180831612Y-73125097D01*
X180831019Y-73117801D01*
X180828764Y-73110839D01*
X180827564Y-73104835D01*
X180826158Y-73098888D01*
X180825311Y-73091621D01*
X180800263Y-73022615D01*
X180798835Y-73018455D01*
X180778478Y-72955615D01*
X180778476Y-72955610D01*
X180776222Y-72948653D01*
X180772428Y-72942401D01*
X180769876Y-72936826D01*
X180767140Y-72931363D01*
X180764644Y-72924487D01*
X180724391Y-72863091D01*
X180722044Y-72859372D01*
X180688580Y-72804225D01*
X180683982Y-72796647D01*
X180676542Y-72788222D01*
X180676570Y-72788197D01*
X180673976Y-72785272D01*
X180671171Y-72781918D01*
X180667156Y-72775793D01*
X180610623Y-72722239D01*
X180608182Y-72719862D01*
X179746792Y-71858472D01*
X179734405Y-71844059D01*
X179725777Y-71832335D01*
X179721436Y-71826436D01*
X179680927Y-71792021D01*
X179673411Y-71785091D01*
X179667667Y-71779347D01*
X179664793Y-71777073D01*
X179664786Y-71777067D01*
X179645271Y-71761628D01*
X179641867Y-71758837D01*
X179591510Y-71716055D01*
X179591506Y-71716052D01*
X179585931Y-71711316D01*
X179579414Y-71707988D01*
X179574350Y-71704611D01*
X179569126Y-71701384D01*
X179563382Y-71696840D01*
X179537091Y-71684552D01*
X179496900Y-71665768D01*
X179492949Y-71663837D01*
X179434099Y-71633787D01*
X179427578Y-71630457D01*
X179420463Y-71628716D01*
X179414717Y-71626579D01*
X179408934Y-71624655D01*
X179402303Y-71621556D01*
X179330425Y-71606606D01*
X179326153Y-71605639D01*
X179254870Y-71588196D01*
X179249271Y-71587849D01*
X179249267Y-71587848D01*
X179243652Y-71587500D01*
X179243654Y-71587461D01*
X179239753Y-71587228D01*
X179235394Y-71586839D01*
X179228226Y-71585348D01*
X179220909Y-71585546D01*
X179150405Y-71587454D01*
X179146996Y-71587500D01*
X176239049Y-71587500D01*
X176170928Y-71567498D01*
X176135837Y-71533772D01*
X176119341Y-71510214D01*
X176119339Y-71510212D01*
X176116180Y-71505700D01*
X175954282Y-71343802D01*
X175949774Y-71340645D01*
X175949771Y-71340643D01*
X175771235Y-71215631D01*
X175766731Y-71212477D01*
X175761747Y-71210153D01*
X175759454Y-71208829D01*
X175710461Y-71157447D01*
X175697025Y-71087733D01*
X175723411Y-71021822D01*
X175759454Y-70990591D01*
X175770984Y-70983934D01*
X175823030Y-70947491D01*
X175831406Y-70937012D01*
X175824338Y-70923566D01*
X175122794Y-70222022D01*
X175108850Y-70214408D01*
X175107017Y-70214539D01*
X175100402Y-70218790D01*
X174394905Y-70924287D01*
X174388475Y-70936062D01*
X174397771Y-70948077D01*
X174448980Y-70983934D01*
X174460510Y-70990591D01*
X174509503Y-71041973D01*
X174522940Y-71111687D01*
X174496553Y-71177598D01*
X174460510Y-71208829D01*
X174458217Y-71210153D01*
X174453233Y-71212477D01*
X174448729Y-71215631D01*
X174270193Y-71340643D01*
X174270190Y-71340645D01*
X174265682Y-71343802D01*
X174103784Y-71505700D01*
X174100627Y-71510208D01*
X174100625Y-71510211D01*
X174060512Y-71567498D01*
X173972459Y-71693251D01*
X173970136Y-71698233D01*
X173970133Y-71698238D01*
X173878021Y-71895775D01*
X173875698Y-71900757D01*
X173816439Y-72121913D01*
X173796484Y-72350000D01*
X173133972Y-72350000D01*
X173133972Y-69855475D01*
X173797465Y-69855475D01*
X173816454Y-70072519D01*
X173818357Y-70083312D01*
X173874746Y-70293761D01*
X173878492Y-70304053D01*
X173970568Y-70501511D01*
X173976051Y-70511006D01*
X174012491Y-70563048D01*
X174022970Y-70571424D01*
X174036416Y-70564356D01*
X174737960Y-69862812D01*
X174744338Y-69851132D01*
X175474390Y-69851132D01*
X175474521Y-69852965D01*
X175478772Y-69859580D01*
X176184269Y-70565077D01*
X176196044Y-70571507D01*
X176208059Y-70562211D01*
X176243913Y-70511006D01*
X176249396Y-70501511D01*
X176341472Y-70304053D01*
X176345218Y-70293761D01*
X176401607Y-70083312D01*
X176403510Y-70072519D01*
X176422499Y-69855475D01*
X176422499Y-69844525D01*
X176403510Y-69627481D01*
X176401607Y-69616688D01*
X176345218Y-69406239D01*
X176341472Y-69395947D01*
X176249396Y-69198489D01*
X176243913Y-69188994D01*
X176207473Y-69136952D01*
X176196994Y-69128576D01*
X176183548Y-69135644D01*
X175482004Y-69837188D01*
X175474390Y-69851132D01*
X174744338Y-69851132D01*
X174745574Y-69848868D01*
X174745443Y-69847035D01*
X174741192Y-69840420D01*
X174035695Y-69134923D01*
X174023920Y-69128493D01*
X174011905Y-69137789D01*
X173976051Y-69188994D01*
X173970568Y-69198489D01*
X173878492Y-69395947D01*
X173874746Y-69406239D01*
X173818357Y-69616688D01*
X173816454Y-69627481D01*
X173797465Y-69844525D01*
X173797465Y-69855475D01*
X173133972Y-69855475D01*
X173133972Y-68762988D01*
X174388558Y-68762988D01*
X174395626Y-68776434D01*
X175097170Y-69477978D01*
X175111114Y-69485592D01*
X175112947Y-69485461D01*
X175119562Y-69481210D01*
X175825059Y-68775713D01*
X175831489Y-68763938D01*
X175822193Y-68751923D01*
X175770988Y-68716069D01*
X175761493Y-68710586D01*
X175564035Y-68618510D01*
X175553743Y-68614764D01*
X175343294Y-68558375D01*
X175332501Y-68556472D01*
X175115457Y-68537483D01*
X175104507Y-68537483D01*
X174887463Y-68556472D01*
X174876670Y-68558375D01*
X174666221Y-68614764D01*
X174655929Y-68618510D01*
X174458471Y-68710586D01*
X174448976Y-68716069D01*
X174396934Y-68752509D01*
X174388558Y-68762988D01*
X173133972Y-68762988D01*
X173133972Y-65243881D01*
X174562661Y-65243881D01*
X174579210Y-65530895D01*
X174580035Y-65535100D01*
X174580036Y-65535108D01*
X174611982Y-65697933D01*
X174634558Y-65813007D01*
X174635945Y-65817057D01*
X174635946Y-65817062D01*
X174726293Y-66080942D01*
X174727682Y-66084998D01*
X174856857Y-66341834D01*
X175019693Y-66578762D01*
X175213178Y-66791400D01*
X175216473Y-66794155D01*
X175216474Y-66794156D01*
X175267230Y-66836594D01*
X175433731Y-66975810D01*
X175677270Y-67128583D01*
X175939290Y-67246889D01*
X175943409Y-67248109D01*
X176210829Y-67327323D01*
X176210834Y-67327324D01*
X176214942Y-67328541D01*
X176219176Y-67329189D01*
X176219181Y-67329190D01*
X176467783Y-67367231D01*
X176499125Y-67372027D01*
X176645457Y-67374326D01*
X176782289Y-67376476D01*
X176782295Y-67376476D01*
X176786580Y-67376543D01*
X176790832Y-67376028D01*
X176790840Y-67376028D01*
X177067728Y-67342520D01*
X177067733Y-67342519D01*
X177071989Y-67342004D01*
X177350069Y-67269051D01*
X177615676Y-67159033D01*
X177863894Y-67013986D01*
X178090131Y-66836594D01*
X178131257Y-66794156D01*
X178287216Y-66633218D01*
X178290199Y-66630140D01*
X178292732Y-66626692D01*
X178292736Y-66626687D01*
X178457859Y-66401898D01*
X178460397Y-66398443D01*
X178597576Y-66145791D01*
X178699197Y-65876860D01*
X178763379Y-65596625D01*
X178788935Y-65310272D01*
X178789399Y-65266012D01*
X178787890Y-65243881D01*
X189540659Y-65243881D01*
X189557208Y-65530895D01*
X189558033Y-65535100D01*
X189558034Y-65535108D01*
X189589980Y-65697933D01*
X189612556Y-65813007D01*
X189613943Y-65817057D01*
X189613944Y-65817062D01*
X189704291Y-66080942D01*
X189705680Y-66084998D01*
X189834855Y-66341834D01*
X189997691Y-66578762D01*
X190191176Y-66791400D01*
X190194471Y-66794155D01*
X190194472Y-66794156D01*
X190245228Y-66836594D01*
X190411729Y-66975810D01*
X190655268Y-67128583D01*
X190917288Y-67246889D01*
X190921407Y-67248109D01*
X191188827Y-67327323D01*
X191188832Y-67327324D01*
X191192940Y-67328541D01*
X191197174Y-67329189D01*
X191197179Y-67329190D01*
X191445781Y-67367231D01*
X191477123Y-67372027D01*
X191623455Y-67374326D01*
X191760287Y-67376476D01*
X191760293Y-67376476D01*
X191764578Y-67376543D01*
X191768830Y-67376028D01*
X191768838Y-67376028D01*
X192045726Y-67342520D01*
X192045731Y-67342519D01*
X192049987Y-67342004D01*
X192328067Y-67269051D01*
X192593674Y-67159033D01*
X192841892Y-67013986D01*
X193068129Y-66836594D01*
X193109255Y-66794156D01*
X193265214Y-66633218D01*
X193268197Y-66630140D01*
X193270730Y-66626692D01*
X193270734Y-66626687D01*
X193435857Y-66401898D01*
X193438395Y-66398443D01*
X193575574Y-66145791D01*
X193677195Y-65876860D01*
X193741377Y-65596625D01*
X193766933Y-65310272D01*
X193767397Y-65266012D01*
X193747843Y-64979187D01*
X193743306Y-64957276D01*
X193690413Y-64701867D01*
X193689544Y-64697670D01*
X193593577Y-64426669D01*
X193497882Y-64241263D01*
X193463685Y-64175007D01*
X193463685Y-64175006D01*
X193461720Y-64171200D01*
X193448458Y-64152329D01*
X193298874Y-63939494D01*
X193296411Y-63935989D01*
X193100710Y-63725390D01*
X192878238Y-63543299D01*
X192633112Y-63393085D01*
X192615018Y-63385142D01*
X192373800Y-63279255D01*
X192369868Y-63277529D01*
X192343933Y-63270141D01*
X192097504Y-63199944D01*
X192097505Y-63199944D01*
X192093376Y-63198768D01*
X191880674Y-63168497D01*
X191813006Y-63158866D01*
X191813004Y-63158866D01*
X191808754Y-63158261D01*
X191804465Y-63158239D01*
X191804458Y-63158238D01*
X191525553Y-63156777D01*
X191525546Y-63156777D01*
X191521267Y-63156755D01*
X191517023Y-63157314D01*
X191517019Y-63157314D01*
X191391630Y-63173822D01*
X191236236Y-63194280D01*
X191232096Y-63195413D01*
X191232094Y-63195413D01*
X191155281Y-63216427D01*
X190958934Y-63270141D01*
X190954986Y-63271825D01*
X190698446Y-63381249D01*
X190698442Y-63381251D01*
X190694494Y-63382935D01*
X190569930Y-63457485D01*
X190451491Y-63528369D01*
X190451487Y-63528372D01*
X190447809Y-63530573D01*
X190223442Y-63710325D01*
X190106342Y-63833723D01*
X190035725Y-63908138D01*
X190025547Y-63918863D01*
X189857784Y-64152329D01*
X189723258Y-64406404D01*
X189624459Y-64676385D01*
X189563215Y-64957276D01*
X189540659Y-65243881D01*
X178787890Y-65243881D01*
X178769845Y-64979187D01*
X178765308Y-64957276D01*
X178712415Y-64701867D01*
X178711546Y-64697670D01*
X178615579Y-64426669D01*
X178519884Y-64241263D01*
X178485687Y-64175007D01*
X178485687Y-64175006D01*
X178483722Y-64171200D01*
X178470460Y-64152329D01*
X178320876Y-63939494D01*
X178318413Y-63935989D01*
X178122712Y-63725390D01*
X177900240Y-63543299D01*
X177655114Y-63393085D01*
X177637020Y-63385142D01*
X177395802Y-63279255D01*
X177391870Y-63277529D01*
X177365935Y-63270141D01*
X177119506Y-63199944D01*
X177119507Y-63199944D01*
X177115378Y-63198768D01*
X176902676Y-63168497D01*
X176835008Y-63158866D01*
X176835006Y-63158866D01*
X176830756Y-63158261D01*
X176826467Y-63158239D01*
X176826460Y-63158238D01*
X176547555Y-63156777D01*
X176547548Y-63156777D01*
X176543269Y-63156755D01*
X176539025Y-63157314D01*
X176539021Y-63157314D01*
X176413632Y-63173822D01*
X176258238Y-63194280D01*
X176254098Y-63195413D01*
X176254096Y-63195413D01*
X176177283Y-63216427D01*
X175980936Y-63270141D01*
X175976988Y-63271825D01*
X175720448Y-63381249D01*
X175720444Y-63381251D01*
X175716496Y-63382935D01*
X175591932Y-63457485D01*
X175473493Y-63528369D01*
X175473489Y-63528372D01*
X175469811Y-63530573D01*
X175245444Y-63710325D01*
X175128344Y-63833723D01*
X175057727Y-63908138D01*
X175047549Y-63918863D01*
X174879786Y-64152329D01*
X174745260Y-64406404D01*
X174646461Y-64676385D01*
X174585217Y-64957276D01*
X174562661Y-65243881D01*
X173133972Y-65243881D01*
X173133972Y-64265340D01*
X173135472Y-64245955D01*
X173137777Y-64231154D01*
X173137777Y-64231151D01*
X173139158Y-64222282D01*
X173136913Y-64205113D01*
X173136080Y-64181173D01*
X173151682Y-63923242D01*
X173153516Y-63908138D01*
X173189766Y-63710325D01*
X173205012Y-63627133D01*
X173208651Y-63612365D01*
X173234826Y-63528369D01*
X173293647Y-63339604D01*
X173299042Y-63325382D01*
X173323904Y-63270141D01*
X173416288Y-63064872D01*
X173423357Y-63051403D01*
X173571154Y-62806917D01*
X173579797Y-62794395D01*
X173755988Y-62569505D01*
X173766078Y-62558117D01*
X173968077Y-62356118D01*
X173979465Y-62346028D01*
X174204355Y-62169837D01*
X174216877Y-62161194D01*
X174461363Y-62013397D01*
X174474832Y-62006328D01*
X174735345Y-61889081D01*
X174749564Y-61883687D01*
X175022331Y-61798690D01*
X175037093Y-61795052D01*
X175247324Y-61756526D01*
X175318098Y-61743556D01*
X175333202Y-61741722D01*
X175583901Y-61726557D01*
X175610611Y-61727814D01*
X175610831Y-61727817D01*
X175619702Y-61729198D01*
X175628604Y-61728034D01*
X175628607Y-61728034D01*
X175651223Y-61725076D01*
X175667561Y-61724012D01*
X192654642Y-61724012D01*
X192674027Y-61725512D01*
G37*
%TD.AperFunction*%
%TD*%
%TA.AperFunction,Conductor*%
%TO.N,GND*%
G36*
X164964045Y-61758979D02*
G01*
X164978846Y-61761284D01*
X164978849Y-61761284D01*
X164987718Y-61762665D01*
X165004887Y-61760420D01*
X165028827Y-61759587D01*
X165286758Y-61775189D01*
X165301862Y-61777023D01*
X165372636Y-61789993D01*
X165582867Y-61828519D01*
X165597629Y-61832157D01*
X165870396Y-61917154D01*
X165884615Y-61922548D01*
X166145128Y-62039795D01*
X166158597Y-62046864D01*
X166403083Y-62194661D01*
X166415605Y-62203304D01*
X166640495Y-62379495D01*
X166651883Y-62389585D01*
X166853882Y-62591584D01*
X166863972Y-62602972D01*
X167040163Y-62827862D01*
X167048806Y-62840384D01*
X167196603Y-63084870D01*
X167203672Y-63098339D01*
X167320918Y-63358849D01*
X167326313Y-63373071D01*
X167402485Y-63617514D01*
X167411309Y-63645832D01*
X167414948Y-63660600D01*
X167432605Y-63756950D01*
X167466444Y-63941605D01*
X167468278Y-63956709D01*
X167483443Y-64207408D01*
X167482186Y-64234118D01*
X167482183Y-64234338D01*
X167480802Y-64243209D01*
X167481966Y-64252111D01*
X167481966Y-64252114D01*
X167484924Y-64274730D01*
X167485988Y-64291068D01*
X167485988Y-104334671D01*
X167484488Y-104354055D01*
X167480802Y-104377729D01*
X167482072Y-104387438D01*
X167483047Y-104394896D01*
X167483880Y-104418838D01*
X167468278Y-104676769D01*
X167466444Y-104691873D01*
X167465299Y-104698123D01*
X167447173Y-104797036D01*
X167414950Y-104972872D01*
X167411310Y-104987640D01*
X167326314Y-105260403D01*
X167320919Y-105274626D01*
X167205160Y-105531834D01*
X167203674Y-105535135D01*
X167196603Y-105548608D01*
X167048806Y-105793094D01*
X167040163Y-105805616D01*
X166863972Y-106030506D01*
X166853882Y-106041894D01*
X166651883Y-106243893D01*
X166640495Y-106253983D01*
X166415605Y-106430174D01*
X166403083Y-106438817D01*
X166158597Y-106586614D01*
X166145128Y-106593683D01*
X165884618Y-106710929D01*
X165870396Y-106716324D01*
X165597629Y-106801321D01*
X165582867Y-106804959D01*
X165372636Y-106843485D01*
X165301862Y-106856455D01*
X165286758Y-106858289D01*
X165036059Y-106873454D01*
X165009349Y-106872197D01*
X165009129Y-106872194D01*
X165000258Y-106870813D01*
X164991356Y-106871977D01*
X164991353Y-106871977D01*
X164968737Y-106874935D01*
X164952399Y-106875999D01*
X147965318Y-106875999D01*
X147945933Y-106874499D01*
X147931132Y-106872194D01*
X147931129Y-106872194D01*
X147922260Y-106870813D01*
X147905091Y-106873058D01*
X147881151Y-106873891D01*
X147623220Y-106858289D01*
X147608116Y-106856455D01*
X147537342Y-106843485D01*
X147327111Y-106804959D01*
X147312349Y-106801321D01*
X147039582Y-106716324D01*
X147025360Y-106710929D01*
X146764850Y-106593683D01*
X146751381Y-106586614D01*
X146506895Y-106438817D01*
X146494373Y-106430174D01*
X146269483Y-106253983D01*
X146258095Y-106243893D01*
X146056096Y-106041894D01*
X146046006Y-106030506D01*
X145869815Y-105805616D01*
X145861172Y-105793094D01*
X145713375Y-105548608D01*
X145706304Y-105535135D01*
X145704819Y-105531834D01*
X145589059Y-105274626D01*
X145583664Y-105260403D01*
X145498668Y-104987640D01*
X145495028Y-104972872D01*
X145462806Y-104797036D01*
X145444679Y-104698123D01*
X145443534Y-104691873D01*
X145441700Y-104676769D01*
X145426535Y-104426070D01*
X145427792Y-104399360D01*
X145427795Y-104399140D01*
X145429176Y-104390269D01*
X145427537Y-104377729D01*
X145425054Y-104358748D01*
X145423990Y-104342410D01*
X145423990Y-103311864D01*
X146852668Y-103311864D01*
X146869217Y-103598878D01*
X146870042Y-103603083D01*
X146870043Y-103603091D01*
X146886086Y-103684862D01*
X146924565Y-103880990D01*
X146925952Y-103885040D01*
X146925953Y-103885045D01*
X147016300Y-104148925D01*
X147017689Y-104152981D01*
X147024477Y-104166478D01*
X147141605Y-104399360D01*
X147146864Y-104409817D01*
X147309700Y-104646745D01*
X147503185Y-104859383D01*
X147506480Y-104862138D01*
X147506481Y-104862139D01*
X147711208Y-105033316D01*
X147723738Y-105043793D01*
X147967277Y-105196566D01*
X148229297Y-105314872D01*
X148233416Y-105316092D01*
X148500836Y-105395306D01*
X148500841Y-105395307D01*
X148504949Y-105396524D01*
X148509183Y-105397172D01*
X148509188Y-105397173D01*
X148723252Y-105429929D01*
X148789132Y-105440010D01*
X148935464Y-105442309D01*
X149072296Y-105444459D01*
X149072302Y-105444459D01*
X149076587Y-105444526D01*
X149080839Y-105444011D01*
X149080847Y-105444011D01*
X149357735Y-105410503D01*
X149357740Y-105410502D01*
X149361996Y-105409987D01*
X149640076Y-105337034D01*
X149905683Y-105227016D01*
X150153901Y-105081969D01*
X150380138Y-104904577D01*
X150421264Y-104862139D01*
X150484353Y-104797036D01*
X153772084Y-104797036D01*
X153772381Y-104802189D01*
X153772381Y-104802192D01*
X153778437Y-104907228D01*
X153785416Y-105028264D01*
X153786553Y-105033310D01*
X153786554Y-105033316D01*
X153818730Y-105176090D01*
X153836335Y-105254209D01*
X153838277Y-105258991D01*
X153838278Y-105258995D01*
X153913615Y-105444526D01*
X153923473Y-105468804D01*
X154044490Y-105666286D01*
X154196136Y-105841351D01*
X154374338Y-105989297D01*
X154574311Y-106106151D01*
X154790683Y-106188776D01*
X154795749Y-106189807D01*
X154795750Y-106189807D01*
X154848835Y-106200607D01*
X155017645Y-106234952D01*
X155147078Y-106239698D01*
X155243938Y-106243250D01*
X155243942Y-106243250D01*
X155249102Y-106243439D01*
X155254222Y-106242783D01*
X155254224Y-106242783D01*
X155328155Y-106233312D01*
X155478836Y-106214009D01*
X155483784Y-106212524D01*
X155483791Y-106212523D01*
X155695736Y-106148936D01*
X155700679Y-106147453D01*
X155781225Y-106107994D01*
X155904038Y-106047829D01*
X155904041Y-106047827D01*
X155908673Y-106045558D01*
X156097232Y-105911061D01*
X156142298Y-105866152D01*
X156204670Y-105832236D01*
X156275476Y-105837424D01*
X156332238Y-105880070D01*
X156349220Y-105911174D01*
X156374374Y-105978272D01*
X156461728Y-106094828D01*
X156578284Y-106182182D01*
X156714673Y-106233312D01*
X156776855Y-106240067D01*
X158673123Y-106240067D01*
X158735305Y-106233312D01*
X158871694Y-106182182D01*
X158988250Y-106094828D01*
X159075604Y-105978272D01*
X159126734Y-105841883D01*
X159133489Y-105779701D01*
X159133489Y-105682627D01*
X159153491Y-105614506D01*
X159207147Y-105568013D01*
X159216488Y-105564192D01*
X159245633Y-105553612D01*
X159249711Y-105552212D01*
X159319575Y-105529580D01*
X159325838Y-105525780D01*
X159331380Y-105523242D01*
X159336856Y-105520500D01*
X159343741Y-105518001D01*
X159405132Y-105477752D01*
X159408800Y-105475437D01*
X159471581Y-105437340D01*
X159475786Y-105433626D01*
X159475789Y-105433624D01*
X159480005Y-105429900D01*
X159480031Y-105429929D01*
X159482962Y-105427329D01*
X159486316Y-105424525D01*
X159492435Y-105420513D01*
X159545989Y-105363980D01*
X159548366Y-105361539D01*
X160491528Y-104418377D01*
X160505941Y-104405990D01*
X160523564Y-104393021D01*
X160557979Y-104352512D01*
X160564909Y-104344996D01*
X160570653Y-104339252D01*
X160572932Y-104336372D01*
X160588384Y-104316842D01*
X160591171Y-104313443D01*
X160633943Y-104263096D01*
X160638684Y-104257516D01*
X160642013Y-104250997D01*
X160645426Y-104245879D01*
X160648623Y-104240702D01*
X160653161Y-104234967D01*
X160684241Y-104168466D01*
X160686173Y-104164514D01*
X160716213Y-104105685D01*
X160716214Y-104105683D01*
X160719543Y-104099163D01*
X160721284Y-104092047D01*
X160723420Y-104086303D01*
X160725344Y-104080521D01*
X160728444Y-104073887D01*
X160743395Y-104002007D01*
X160744365Y-103997723D01*
X160746898Y-103987373D01*
X160761804Y-103926455D01*
X160762500Y-103915237D01*
X160762537Y-103915239D01*
X160762773Y-103911340D01*
X160763163Y-103906969D01*
X160764652Y-103899810D01*
X160762546Y-103821990D01*
X160762500Y-103818581D01*
X160762500Y-103311864D01*
X161830667Y-103311864D01*
X161847216Y-103598878D01*
X161848041Y-103603083D01*
X161848042Y-103603091D01*
X161864085Y-103684862D01*
X161902564Y-103880990D01*
X161903951Y-103885040D01*
X161903952Y-103885045D01*
X161994299Y-104148925D01*
X161995688Y-104152981D01*
X162002476Y-104166478D01*
X162119604Y-104399360D01*
X162124863Y-104409817D01*
X162287699Y-104646745D01*
X162481184Y-104859383D01*
X162484479Y-104862138D01*
X162484480Y-104862139D01*
X162689207Y-105033316D01*
X162701737Y-105043793D01*
X162945276Y-105196566D01*
X163207296Y-105314872D01*
X163211415Y-105316092D01*
X163478835Y-105395306D01*
X163478840Y-105395307D01*
X163482948Y-105396524D01*
X163487182Y-105397172D01*
X163487187Y-105397173D01*
X163701251Y-105429929D01*
X163767131Y-105440010D01*
X163913463Y-105442309D01*
X164050295Y-105444459D01*
X164050301Y-105444459D01*
X164054586Y-105444526D01*
X164058838Y-105444011D01*
X164058846Y-105444011D01*
X164335734Y-105410503D01*
X164335739Y-105410502D01*
X164339995Y-105409987D01*
X164618075Y-105337034D01*
X164883682Y-105227016D01*
X165131900Y-105081969D01*
X165358137Y-104904577D01*
X165399263Y-104862139D01*
X165555222Y-104701201D01*
X165558205Y-104698123D01*
X165560738Y-104694675D01*
X165560742Y-104694670D01*
X165725865Y-104469881D01*
X165728403Y-104466426D01*
X165776562Y-104377729D01*
X165863532Y-104217550D01*
X165863533Y-104217548D01*
X165865582Y-104213774D01*
X165967203Y-103944843D01*
X166006886Y-103771579D01*
X166030427Y-103668792D01*
X166030428Y-103668788D01*
X166031385Y-103664608D01*
X166032013Y-103657578D01*
X166056721Y-103380721D01*
X166056721Y-103380719D01*
X166056941Y-103378255D01*
X166057405Y-103333995D01*
X166037851Y-103047170D01*
X166033314Y-103025259D01*
X165980421Y-102769850D01*
X165979552Y-102765653D01*
X165883585Y-102494652D01*
X165751728Y-102239183D01*
X165738466Y-102220312D01*
X165588882Y-102007477D01*
X165586419Y-102003972D01*
X165390718Y-101793373D01*
X165168246Y-101611282D01*
X164923120Y-101461068D01*
X164905026Y-101453125D01*
X164663808Y-101347238D01*
X164659876Y-101345512D01*
X164633941Y-101338124D01*
X164387512Y-101267927D01*
X164387513Y-101267927D01*
X164383384Y-101266751D01*
X164170682Y-101236480D01*
X164103014Y-101226849D01*
X164103012Y-101226849D01*
X164098762Y-101226244D01*
X164094473Y-101226222D01*
X164094466Y-101226221D01*
X163815561Y-101224760D01*
X163815554Y-101224760D01*
X163811275Y-101224738D01*
X163807031Y-101225297D01*
X163807027Y-101225297D01*
X163681638Y-101241805D01*
X163526244Y-101262263D01*
X163522104Y-101263396D01*
X163522102Y-101263396D01*
X163445289Y-101284410D01*
X163248942Y-101338124D01*
X163244994Y-101339808D01*
X162988454Y-101449232D01*
X162988450Y-101449234D01*
X162984502Y-101450918D01*
X162859938Y-101525468D01*
X162741499Y-101596352D01*
X162741495Y-101596355D01*
X162737817Y-101598556D01*
X162513450Y-101778308D01*
X162315555Y-101986846D01*
X162147792Y-102220312D01*
X162013266Y-102474387D01*
X161914467Y-102744368D01*
X161853223Y-103025259D01*
X161830667Y-103311864D01*
X160762500Y-103311864D01*
X160762500Y-100893983D01*
X160782502Y-100825862D01*
X160791626Y-100813414D01*
X160913760Y-100666564D01*
X160917458Y-100662118D01*
X161017004Y-100484366D01*
X161018860Y-100478899D01*
X161018862Y-100478894D01*
X161080634Y-100296919D01*
X161080635Y-100296914D01*
X161082490Y-100291450D01*
X161111723Y-100089830D01*
X161113249Y-100031567D01*
X161094608Y-99828693D01*
X161039307Y-99632614D01*
X161028680Y-99611063D01*
X160951756Y-99455077D01*
X160949201Y-99449896D01*
X160930796Y-99425248D01*
X160830758Y-99291282D01*
X160830758Y-99291281D01*
X160827305Y-99286658D01*
X160677703Y-99148367D01*
X160631675Y-99119326D01*
X160510288Y-99042736D01*
X160510283Y-99042734D01*
X160505404Y-99039655D01*
X160316180Y-98964162D01*
X160116366Y-98924416D01*
X160110592Y-98924340D01*
X160110588Y-98924340D01*
X160007452Y-98922991D01*
X159912655Y-98921750D01*
X159906958Y-98922729D01*
X159906957Y-98922729D01*
X159717567Y-98955272D01*
X159711870Y-98956251D01*
X159520734Y-99026765D01*
X159345649Y-99130930D01*
X159192478Y-99265257D01*
X159188911Y-99269782D01*
X159188906Y-99269787D01*
X159102331Y-99379607D01*
X159066351Y-99425248D01*
X158971492Y-99605545D01*
X158911078Y-99800110D01*
X158887132Y-100002426D01*
X158900457Y-100205718D01*
X158950605Y-100403177D01*
X159035898Y-100588191D01*
X159153479Y-100754564D01*
X159157613Y-100758591D01*
X159199422Y-100799320D01*
X159234259Y-100861182D01*
X159237500Y-100889574D01*
X159237500Y-103463539D01*
X159217498Y-103531660D01*
X159200595Y-103552634D01*
X159174782Y-103578447D01*
X159112470Y-103612473D01*
X159041655Y-103607408D01*
X158996592Y-103578447D01*
X158993631Y-103575486D01*
X158988250Y-103568306D01*
X158871694Y-103480952D01*
X158735305Y-103429822D01*
X158673123Y-103423067D01*
X156776855Y-103423067D01*
X156714673Y-103429822D01*
X156578284Y-103480952D01*
X156461728Y-103568306D01*
X156374374Y-103684862D01*
X156371222Y-103693271D01*
X156371221Y-103693272D01*
X156350527Y-103748473D01*
X156307886Y-103805238D01*
X156241324Y-103829938D01*
X156171975Y-103814731D01*
X156149156Y-103798233D01*
X156148876Y-103797925D01*
X156016362Y-103693272D01*
X155971166Y-103657578D01*
X155971161Y-103657575D01*
X155967112Y-103654377D01*
X155962596Y-103651884D01*
X155962593Y-103651882D01*
X155768868Y-103544940D01*
X155768864Y-103544938D01*
X155764344Y-103542443D01*
X155759475Y-103540719D01*
X155759471Y-103540717D01*
X155550892Y-103466855D01*
X155550888Y-103466854D01*
X155546017Y-103465129D01*
X155540924Y-103464222D01*
X155540921Y-103464221D01*
X155323084Y-103425418D01*
X155323078Y-103425417D01*
X155317995Y-103424512D01*
X155245085Y-103423621D01*
X155091570Y-103421746D01*
X155091568Y-103421746D01*
X155086400Y-103421683D01*
X154857453Y-103456717D01*
X154637303Y-103528673D01*
X154632715Y-103531061D01*
X154632711Y-103531063D01*
X154486054Y-103607408D01*
X154431861Y-103635619D01*
X154427728Y-103638722D01*
X154427725Y-103638724D01*
X154250779Y-103771579D01*
X154246644Y-103774684D01*
X154243072Y-103778422D01*
X154106965Y-103920850D01*
X154086628Y-103942131D01*
X153956108Y-104133466D01*
X153858591Y-104343548D01*
X153796696Y-104566736D01*
X153772084Y-104797036D01*
X150484353Y-104797036D01*
X150577223Y-104701201D01*
X150580206Y-104698123D01*
X150582739Y-104694675D01*
X150582743Y-104694670D01*
X150747866Y-104469881D01*
X150750404Y-104466426D01*
X150798563Y-104377729D01*
X150885533Y-104217550D01*
X150885534Y-104217548D01*
X150887583Y-104213774D01*
X150989204Y-103944843D01*
X151028887Y-103771579D01*
X151052428Y-103668792D01*
X151052429Y-103668788D01*
X151053386Y-103664608D01*
X151054014Y-103657578D01*
X151078722Y-103380721D01*
X151078722Y-103380719D01*
X151078942Y-103378255D01*
X151079406Y-103333995D01*
X151059852Y-103047170D01*
X151055315Y-103025259D01*
X151002422Y-102769850D01*
X151001553Y-102765653D01*
X150905586Y-102494652D01*
X150773729Y-102239183D01*
X150760467Y-102220312D01*
X150610883Y-102007477D01*
X150608420Y-102003972D01*
X150412719Y-101793373D01*
X150190247Y-101611282D01*
X149945121Y-101461068D01*
X149927027Y-101453125D01*
X149685809Y-101347238D01*
X149681877Y-101345512D01*
X149655942Y-101338124D01*
X149409513Y-101267927D01*
X149409514Y-101267927D01*
X149405385Y-101266751D01*
X149192683Y-101236480D01*
X149125015Y-101226849D01*
X149125013Y-101226849D01*
X149120763Y-101226244D01*
X149116474Y-101226222D01*
X149116467Y-101226221D01*
X148837562Y-101224760D01*
X148837555Y-101224760D01*
X148833276Y-101224738D01*
X148829032Y-101225297D01*
X148829028Y-101225297D01*
X148703639Y-101241805D01*
X148548245Y-101262263D01*
X148544105Y-101263396D01*
X148544103Y-101263396D01*
X148467290Y-101284410D01*
X148270943Y-101338124D01*
X148266995Y-101339808D01*
X148010455Y-101449232D01*
X148010451Y-101449234D01*
X148006503Y-101450918D01*
X147881939Y-101525468D01*
X147763500Y-101596352D01*
X147763496Y-101596355D01*
X147759818Y-101598556D01*
X147535451Y-101778308D01*
X147337556Y-101986846D01*
X147169793Y-102220312D01*
X147035267Y-102474387D01*
X146936468Y-102744368D01*
X146875224Y-103025259D01*
X146852668Y-103311864D01*
X145423990Y-103311864D01*
X145423990Y-97211567D01*
X158686502Y-97211567D01*
X158706457Y-97439654D01*
X158765716Y-97660810D01*
X158768039Y-97665791D01*
X158768039Y-97665792D01*
X158860151Y-97863329D01*
X158860154Y-97863334D01*
X158862477Y-97868316D01*
X158993802Y-98055867D01*
X159155700Y-98217765D01*
X159160208Y-98220922D01*
X159160211Y-98220924D01*
X159238389Y-98275665D01*
X159343251Y-98349090D01*
X159348233Y-98351413D01*
X159348238Y-98351416D01*
X159545775Y-98443528D01*
X159550757Y-98445851D01*
X159556065Y-98447273D01*
X159556067Y-98447274D01*
X159766598Y-98503686D01*
X159766600Y-98503686D01*
X159771913Y-98505110D01*
X160000000Y-98525065D01*
X160228087Y-98505110D01*
X160233400Y-98503686D01*
X160233402Y-98503686D01*
X160443933Y-98447274D01*
X160443935Y-98447273D01*
X160449243Y-98445851D01*
X160454225Y-98443528D01*
X160651762Y-98351416D01*
X160651767Y-98351413D01*
X160656749Y-98349090D01*
X160761611Y-98275665D01*
X160839789Y-98220924D01*
X160839792Y-98220922D01*
X160844300Y-98217765D01*
X161006198Y-98055867D01*
X161137523Y-97868316D01*
X161139846Y-97863334D01*
X161139849Y-97863329D01*
X161231961Y-97665792D01*
X161231961Y-97665791D01*
X161234284Y-97660810D01*
X161293543Y-97439654D01*
X161313498Y-97211567D01*
X161293543Y-96983480D01*
X161234284Y-96762324D01*
X161231961Y-96757342D01*
X161139849Y-96559805D01*
X161139846Y-96559800D01*
X161137523Y-96554818D01*
X161006198Y-96367267D01*
X160844300Y-96205369D01*
X160839792Y-96202212D01*
X160839789Y-96202210D01*
X160761611Y-96147469D01*
X160656749Y-96074044D01*
X160651767Y-96071721D01*
X160651762Y-96071718D01*
X160454225Y-95979606D01*
X160454224Y-95979606D01*
X160449243Y-95977283D01*
X160443935Y-95975861D01*
X160443933Y-95975860D01*
X160233402Y-95919448D01*
X160233400Y-95919448D01*
X160228087Y-95918024D01*
X160000000Y-95898069D01*
X159771913Y-95918024D01*
X159766600Y-95919448D01*
X159766598Y-95919448D01*
X159556067Y-95975860D01*
X159556065Y-95975861D01*
X159550757Y-95977283D01*
X159545776Y-95979606D01*
X159545775Y-95979606D01*
X159348238Y-96071718D01*
X159348233Y-96071721D01*
X159343251Y-96074044D01*
X159238389Y-96147469D01*
X159160211Y-96202210D01*
X159160208Y-96202212D01*
X159155700Y-96205369D01*
X158993802Y-96367267D01*
X158862477Y-96554818D01*
X158860154Y-96559800D01*
X158860151Y-96559805D01*
X158768039Y-96757342D01*
X158765716Y-96762324D01*
X158706457Y-96983480D01*
X158686502Y-97211567D01*
X145423990Y-97211567D01*
X145423990Y-93186461D01*
X145911234Y-93186461D01*
X145911531Y-93191614D01*
X145911531Y-93191617D01*
X145916994Y-93286356D01*
X145924093Y-93409481D01*
X145925230Y-93414527D01*
X145925231Y-93414533D01*
X145945102Y-93502705D01*
X145973205Y-93627405D01*
X146034656Y-93778742D01*
X146046826Y-93808712D01*
X146057249Y-93834382D01*
X146098799Y-93902185D01*
X146153281Y-93991092D01*
X146173970Y-94024854D01*
X146320233Y-94193704D01*
X146492109Y-94336398D01*
X146684983Y-94449104D01*
X146893675Y-94528796D01*
X146898743Y-94529827D01*
X146898746Y-94529828D01*
X147006000Y-94551649D01*
X147112580Y-94573333D01*
X147117755Y-94573523D01*
X147117757Y-94573523D01*
X147330656Y-94581330D01*
X147330660Y-94581330D01*
X147335820Y-94581519D01*
X147340940Y-94580863D01*
X147340942Y-94580863D01*
X147552271Y-94553791D01*
X147552272Y-94553791D01*
X147557399Y-94553134D01*
X147562349Y-94551649D01*
X147766412Y-94490427D01*
X147766417Y-94490425D01*
X147771367Y-94488940D01*
X147971977Y-94390662D01*
X148153843Y-94260939D01*
X148312079Y-94103255D01*
X148361312Y-94034740D01*
X148417307Y-93991092D01*
X148463635Y-93982266D01*
X154090845Y-93982266D01*
X154109795Y-93983699D01*
X154124194Y-93985890D01*
X154124200Y-93985890D01*
X154131429Y-93986990D01*
X154138721Y-93986397D01*
X154138724Y-93986397D01*
X154184404Y-93982681D01*
X154194619Y-93982266D01*
X154202746Y-93982266D01*
X154206382Y-93981842D01*
X154206384Y-93981842D01*
X154209836Y-93981439D01*
X154231145Y-93978955D01*
X154235465Y-93978528D01*
X154308647Y-93972575D01*
X154315609Y-93970319D01*
X154321597Y-93969123D01*
X154327554Y-93967715D01*
X154334828Y-93966867D01*
X154341710Y-93964369D01*
X154341714Y-93964368D01*
X154403828Y-93941821D01*
X154407932Y-93940411D01*
X154477796Y-93917779D01*
X154484059Y-93913979D01*
X154489601Y-93911441D01*
X154495077Y-93908699D01*
X154501962Y-93906200D01*
X154563353Y-93865951D01*
X154567021Y-93863636D01*
X154629802Y-93825539D01*
X154634007Y-93821825D01*
X154634010Y-93821823D01*
X154638226Y-93818099D01*
X154638252Y-93818128D01*
X154641183Y-93815528D01*
X154644537Y-93812724D01*
X154650656Y-93808712D01*
X154704210Y-93752179D01*
X154706587Y-93749738D01*
X155691528Y-92764797D01*
X155705941Y-92752410D01*
X155717665Y-92743782D01*
X155723564Y-92739441D01*
X155757979Y-92698932D01*
X155764909Y-92691416D01*
X155770653Y-92685672D01*
X155772927Y-92682798D01*
X155772933Y-92682791D01*
X155788372Y-92663276D01*
X155791163Y-92659872D01*
X155833945Y-92609515D01*
X155833948Y-92609511D01*
X155838684Y-92603936D01*
X155842012Y-92597419D01*
X155845389Y-92592355D01*
X155848616Y-92587131D01*
X155853160Y-92581387D01*
X155884232Y-92514905D01*
X155886163Y-92510954D01*
X155916213Y-92452104D01*
X155919543Y-92445583D01*
X155921284Y-92438468D01*
X155923421Y-92432722D01*
X155925345Y-92426939D01*
X155928444Y-92420308D01*
X155943394Y-92348430D01*
X155944363Y-92344149D01*
X155960470Y-92278326D01*
X155961804Y-92272875D01*
X155962500Y-92261657D01*
X155962539Y-92261659D01*
X155962772Y-92257758D01*
X155963161Y-92253399D01*
X155964652Y-92246231D01*
X155962546Y-92168410D01*
X155962500Y-92165001D01*
X155962500Y-87318089D01*
X158717273Y-87318089D01*
X158764764Y-87495328D01*
X158768510Y-87505620D01*
X158860586Y-87703078D01*
X158866069Y-87712574D01*
X158991028Y-87891034D01*
X158998084Y-87899442D01*
X159152125Y-88053483D01*
X159160533Y-88060539D01*
X159338993Y-88185498D01*
X159348489Y-88190981D01*
X159545947Y-88283057D01*
X159556239Y-88286803D01*
X159728503Y-88332961D01*
X159742599Y-88332625D01*
X159746000Y-88324683D01*
X159746000Y-88319534D01*
X160254000Y-88319534D01*
X160257973Y-88333065D01*
X160266522Y-88334294D01*
X160443761Y-88286803D01*
X160454053Y-88283057D01*
X160651511Y-88190981D01*
X160661007Y-88185498D01*
X160839467Y-88060539D01*
X160847875Y-88053483D01*
X161001916Y-87899442D01*
X161008972Y-87891034D01*
X161133931Y-87712574D01*
X161139414Y-87703078D01*
X161231490Y-87505620D01*
X161235236Y-87495328D01*
X161281394Y-87323064D01*
X161281058Y-87308968D01*
X161273116Y-87305567D01*
X160272115Y-87305567D01*
X160256876Y-87310042D01*
X160255671Y-87311432D01*
X160254000Y-87319115D01*
X160254000Y-88319534D01*
X159746000Y-88319534D01*
X159746000Y-87323682D01*
X159741525Y-87308443D01*
X159740135Y-87307238D01*
X159732452Y-87305567D01*
X158732033Y-87305567D01*
X158718502Y-87309540D01*
X158717273Y-87318089D01*
X155962500Y-87318089D01*
X155962500Y-86780070D01*
X158718606Y-86780070D01*
X158718942Y-86794166D01*
X158726884Y-86797567D01*
X159727885Y-86797567D01*
X159743124Y-86793092D01*
X159744329Y-86791702D01*
X159746000Y-86784019D01*
X159746000Y-86779452D01*
X160254000Y-86779452D01*
X160258475Y-86794691D01*
X160259865Y-86795896D01*
X160267548Y-86797567D01*
X161267967Y-86797567D01*
X161281498Y-86793594D01*
X161282727Y-86785045D01*
X161235236Y-86607806D01*
X161231490Y-86597514D01*
X161139414Y-86400056D01*
X161133931Y-86390560D01*
X161008972Y-86212100D01*
X161001916Y-86203692D01*
X160847875Y-86049651D01*
X160839467Y-86042595D01*
X160661007Y-85917636D01*
X160651511Y-85912153D01*
X160454053Y-85820077D01*
X160443761Y-85816331D01*
X160271497Y-85770173D01*
X160257401Y-85770509D01*
X160254000Y-85778451D01*
X160254000Y-86779452D01*
X159746000Y-86779452D01*
X159746000Y-85783600D01*
X159742027Y-85770069D01*
X159733478Y-85768840D01*
X159556239Y-85816331D01*
X159545947Y-85820077D01*
X159348489Y-85912153D01*
X159338993Y-85917636D01*
X159160533Y-86042595D01*
X159152125Y-86049651D01*
X158998084Y-86203692D01*
X158991028Y-86212100D01*
X158866069Y-86390560D01*
X158860586Y-86400056D01*
X158768510Y-86597514D01*
X158764764Y-86607806D01*
X158718606Y-86780070D01*
X155962500Y-86780070D01*
X155962500Y-73670067D01*
X155982502Y-73601946D01*
X156036158Y-73555453D01*
X156088500Y-73544067D01*
X164473528Y-73544067D01*
X164541649Y-73564069D01*
X164562623Y-73580972D01*
X164836594Y-73854943D01*
X164870620Y-73917255D01*
X164873499Y-73944038D01*
X164873499Y-74250424D01*
X164853497Y-74318545D01*
X164823152Y-74351184D01*
X164735099Y-74417296D01*
X164730964Y-74420401D01*
X164576628Y-74581904D01*
X164450742Y-74766446D01*
X164421052Y-74830408D01*
X164359095Y-74963884D01*
X164356687Y-74969071D01*
X164296988Y-75184336D01*
X164273250Y-75406461D01*
X164273547Y-75411614D01*
X164273547Y-75411617D01*
X164279010Y-75506356D01*
X164286109Y-75629481D01*
X164287246Y-75634527D01*
X164287247Y-75634533D01*
X164307118Y-75722705D01*
X164335221Y-75847405D01*
X164419265Y-76054382D01*
X164535986Y-76244854D01*
X164682249Y-76413704D01*
X164854125Y-76556398D01*
X164866474Y-76563614D01*
X164927444Y-76599242D01*
X164976168Y-76650880D01*
X164989239Y-76720663D01*
X164962508Y-76786435D01*
X164922054Y-76819793D01*
X164909606Y-76826273D01*
X164905473Y-76829376D01*
X164905470Y-76829378D01*
X164781566Y-76922408D01*
X164730964Y-76960401D01*
X164576628Y-77121904D01*
X164450742Y-77306446D01*
X164356687Y-77509071D01*
X164296988Y-77724336D01*
X164273250Y-77946461D01*
X164273547Y-77951614D01*
X164273547Y-77951617D01*
X164279010Y-78046356D01*
X164286109Y-78169481D01*
X164287246Y-78174527D01*
X164287247Y-78174533D01*
X164296908Y-78217401D01*
X164335221Y-78387405D01*
X164419265Y-78594382D01*
X164421964Y-78598786D01*
X164515297Y-78751092D01*
X164535986Y-78784854D01*
X164682249Y-78953704D01*
X164854125Y-79096398D01*
X164897120Y-79121522D01*
X164927444Y-79139242D01*
X164976168Y-79190880D01*
X164989239Y-79260663D01*
X164962508Y-79326435D01*
X164922054Y-79359793D01*
X164909606Y-79366273D01*
X164905473Y-79369376D01*
X164905470Y-79369378D01*
X164735099Y-79497296D01*
X164730964Y-79500401D01*
X164576628Y-79661904D01*
X164573714Y-79666176D01*
X164549091Y-79702271D01*
X164494179Y-79747273D01*
X164445003Y-79757266D01*
X160436182Y-79757266D01*
X160368061Y-79737264D01*
X160350653Y-79723790D01*
X160275937Y-79654723D01*
X160275931Y-79654718D01*
X160271691Y-79650799D01*
X160225663Y-79621758D01*
X160104276Y-79545168D01*
X160104271Y-79545166D01*
X160099392Y-79542087D01*
X159910168Y-79466594D01*
X159710354Y-79426848D01*
X159704580Y-79426772D01*
X159704576Y-79426772D01*
X159601440Y-79425423D01*
X159506643Y-79424182D01*
X159500946Y-79425161D01*
X159500945Y-79425161D01*
X159311555Y-79457704D01*
X159305858Y-79458683D01*
X159114722Y-79529197D01*
X158939637Y-79633362D01*
X158786466Y-79767689D01*
X158782899Y-79772214D01*
X158782894Y-79772219D01*
X158704819Y-79871258D01*
X158660339Y-79927680D01*
X158565480Y-80107977D01*
X158505066Y-80302542D01*
X158481120Y-80504858D01*
X158494445Y-80708150D01*
X158544593Y-80905609D01*
X158629886Y-81090623D01*
X158747467Y-81256996D01*
X158751601Y-81261023D01*
X158888159Y-81394052D01*
X158893398Y-81399156D01*
X158898194Y-81402361D01*
X158898197Y-81402363D01*
X158904992Y-81406903D01*
X159062791Y-81512341D01*
X159068094Y-81514619D01*
X159068097Y-81514621D01*
X159168052Y-81557565D01*
X159249975Y-81592762D01*
X159322805Y-81609242D01*
X159443043Y-81636449D01*
X159443048Y-81636450D01*
X159448680Y-81637724D01*
X159454451Y-81637951D01*
X159454453Y-81637951D01*
X159517458Y-81640426D01*
X159652251Y-81645722D01*
X159729372Y-81634540D01*
X159747465Y-81631917D01*
X159817751Y-81641937D01*
X159871462Y-81688367D01*
X159891545Y-81756464D01*
X159890672Y-81771420D01*
X159881120Y-81852125D01*
X159894445Y-82055417D01*
X159944593Y-82252876D01*
X160029886Y-82437890D01*
X160147467Y-82604263D01*
X160164102Y-82620468D01*
X160193410Y-82649019D01*
X160228247Y-82710881D01*
X160231488Y-82739273D01*
X160231488Y-83966623D01*
X160230055Y-83985573D01*
X160227864Y-83999972D01*
X160227864Y-83999978D01*
X160226764Y-84007207D01*
X160227357Y-84014499D01*
X160227357Y-84014502D01*
X160231073Y-84060182D01*
X160231488Y-84070397D01*
X160231488Y-84078524D01*
X160234799Y-84106923D01*
X160235226Y-84111243D01*
X160241179Y-84184425D01*
X160243435Y-84191387D01*
X160244631Y-84197375D01*
X160246039Y-84203332D01*
X160246887Y-84210606D01*
X160249385Y-84217488D01*
X160249386Y-84217492D01*
X160271933Y-84279606D01*
X160273343Y-84283710D01*
X160295975Y-84353574D01*
X160299775Y-84359837D01*
X160302313Y-84365379D01*
X160305055Y-84370855D01*
X160307554Y-84377740D01*
X160311569Y-84383864D01*
X160347803Y-84439131D01*
X160350118Y-84442799D01*
X160388215Y-84505580D01*
X160391929Y-84509785D01*
X160391931Y-84509788D01*
X160395655Y-84514004D01*
X160395626Y-84514030D01*
X160398226Y-84516961D01*
X160401030Y-84520315D01*
X160405042Y-84526434D01*
X160410354Y-84531466D01*
X160461574Y-84579987D01*
X160464016Y-84582365D01*
X161972945Y-86091294D01*
X161985332Y-86105707D01*
X161998301Y-86123330D01*
X162005193Y-86129185D01*
X162038810Y-86157745D01*
X162046326Y-86164675D01*
X162052070Y-86170419D01*
X162054944Y-86172693D01*
X162054951Y-86172699D01*
X162074466Y-86188138D01*
X162077870Y-86190929D01*
X162128227Y-86233711D01*
X162128231Y-86233714D01*
X162133806Y-86238450D01*
X162140323Y-86241778D01*
X162145387Y-86245155D01*
X162150611Y-86248382D01*
X162156355Y-86252926D01*
X162222859Y-86284008D01*
X162226756Y-86285913D01*
X162292159Y-86319309D01*
X162299273Y-86321049D01*
X162305015Y-86323185D01*
X162310806Y-86325112D01*
X162317435Y-86328210D01*
X162389324Y-86343163D01*
X162393590Y-86344129D01*
X162464867Y-86361570D01*
X162470469Y-86361918D01*
X162470472Y-86361918D01*
X162476085Y-86362266D01*
X162476083Y-86362305D01*
X162479984Y-86362538D01*
X162484343Y-86362927D01*
X162491511Y-86364418D01*
X162498828Y-86364220D01*
X162569332Y-86362312D01*
X162572741Y-86362266D01*
X164441541Y-86362266D01*
X164509662Y-86382268D01*
X164536778Y-86405769D01*
X164625314Y-86507977D01*
X164682249Y-86573704D01*
X164854125Y-86716398D01*
X164924594Y-86757577D01*
X164927444Y-86759242D01*
X164976168Y-86810880D01*
X164989239Y-86880663D01*
X164962508Y-86946435D01*
X164922054Y-86979793D01*
X164909606Y-86986273D01*
X164905473Y-86989376D01*
X164905470Y-86989378D01*
X164884689Y-87004981D01*
X164730964Y-87120401D01*
X164576628Y-87281904D01*
X164573714Y-87286176D01*
X164573713Y-87286177D01*
X164548129Y-87323682D01*
X164450742Y-87466446D01*
X164356687Y-87669071D01*
X164296988Y-87884336D01*
X164273250Y-88106461D01*
X164273547Y-88111614D01*
X164273547Y-88111617D01*
X164279010Y-88206356D01*
X164286109Y-88329481D01*
X164287246Y-88334527D01*
X164287247Y-88334533D01*
X164307118Y-88422705D01*
X164335221Y-88547405D01*
X164396672Y-88698742D01*
X164408842Y-88728712D01*
X164419265Y-88754382D01*
X164460815Y-88822185D01*
X164515297Y-88911092D01*
X164535986Y-88944854D01*
X164682249Y-89113704D01*
X164854125Y-89256398D01*
X164924594Y-89297577D01*
X164927444Y-89299242D01*
X164976168Y-89350880D01*
X164989239Y-89420663D01*
X164962508Y-89486435D01*
X164922054Y-89519793D01*
X164909606Y-89526273D01*
X164905473Y-89529376D01*
X164905470Y-89529378D01*
X164881246Y-89547566D01*
X164730964Y-89660401D01*
X164576628Y-89821904D01*
X164450742Y-90006446D01*
X164356687Y-90209071D01*
X164296988Y-90424336D01*
X164273250Y-90646461D01*
X164273547Y-90651614D01*
X164273547Y-90651617D01*
X164279010Y-90746356D01*
X164286109Y-90869481D01*
X164287246Y-90874527D01*
X164287247Y-90874533D01*
X164307118Y-90962705D01*
X164335221Y-91087405D01*
X164419265Y-91294382D01*
X164535986Y-91484854D01*
X164682249Y-91653704D01*
X164854125Y-91796398D01*
X164877332Y-91809959D01*
X164927444Y-91839242D01*
X164976168Y-91890880D01*
X164989239Y-91960663D01*
X164962508Y-92026435D01*
X164922054Y-92059793D01*
X164909606Y-92066273D01*
X164905473Y-92069376D01*
X164905470Y-92069378D01*
X164881246Y-92087566D01*
X164730964Y-92200401D01*
X164727392Y-92204139D01*
X164589495Y-92348440D01*
X164576628Y-92361904D01*
X164450742Y-92546446D01*
X164403715Y-92647758D01*
X164363749Y-92733858D01*
X164356687Y-92749071D01*
X164296988Y-92964336D01*
X164273250Y-93186461D01*
X164273547Y-93191614D01*
X164273547Y-93191617D01*
X164279010Y-93286356D01*
X164286109Y-93409481D01*
X164287246Y-93414527D01*
X164287247Y-93414533D01*
X164307118Y-93502705D01*
X164335221Y-93627405D01*
X164396672Y-93778742D01*
X164408842Y-93808712D01*
X164419265Y-93834382D01*
X164460815Y-93902185D01*
X164515297Y-93991092D01*
X164535986Y-94024854D01*
X164682249Y-94193704D01*
X164854125Y-94336398D01*
X165046999Y-94449104D01*
X165255691Y-94528796D01*
X165260759Y-94529827D01*
X165260762Y-94529828D01*
X165368016Y-94551649D01*
X165474596Y-94573333D01*
X165479771Y-94573523D01*
X165479773Y-94573523D01*
X165692672Y-94581330D01*
X165692676Y-94581330D01*
X165697836Y-94581519D01*
X165702956Y-94580863D01*
X165702958Y-94580863D01*
X165914287Y-94553791D01*
X165914288Y-94553791D01*
X165919415Y-94553134D01*
X165924365Y-94551649D01*
X166128428Y-94490427D01*
X166128433Y-94490425D01*
X166133383Y-94488940D01*
X166333993Y-94390662D01*
X166515859Y-94260939D01*
X166674095Y-94103255D01*
X166733593Y-94020455D01*
X166801434Y-93926043D01*
X166804452Y-93921843D01*
X166832076Y-93865951D01*
X166901135Y-93726219D01*
X166901136Y-93726217D01*
X166903429Y-93721577D01*
X166968369Y-93507835D01*
X166997528Y-93286356D01*
X166999155Y-93219766D01*
X166980851Y-92997127D01*
X166926430Y-92780468D01*
X166837353Y-92575606D01*
X166795528Y-92510954D01*
X166718821Y-92392383D01*
X166718819Y-92392380D01*
X166716013Y-92388043D01*
X166565669Y-92222817D01*
X166561618Y-92219618D01*
X166561614Y-92219614D01*
X166394413Y-92087566D01*
X166394409Y-92087564D01*
X166390358Y-92084364D01*
X166349052Y-92061562D01*
X166299083Y-92011130D01*
X166284311Y-91941687D01*
X166309427Y-91875282D01*
X166336779Y-91848675D01*
X166391057Y-91809959D01*
X166515859Y-91720939D01*
X166674095Y-91563255D01*
X166733593Y-91480455D01*
X166801434Y-91386043D01*
X166804452Y-91381843D01*
X166903429Y-91181577D01*
X166968369Y-90967835D01*
X166997528Y-90746356D01*
X166999155Y-90679766D01*
X166980851Y-90457127D01*
X166926430Y-90240468D01*
X166837353Y-90035606D01*
X166716013Y-89848043D01*
X166565669Y-89682817D01*
X166561618Y-89679618D01*
X166561614Y-89679614D01*
X166394413Y-89547566D01*
X166394409Y-89547564D01*
X166390358Y-89544364D01*
X166349052Y-89521562D01*
X166299083Y-89471130D01*
X166284311Y-89401687D01*
X166309427Y-89335282D01*
X166336779Y-89308675D01*
X166380602Y-89277416D01*
X166515859Y-89180939D01*
X166674095Y-89023255D01*
X166733593Y-88940455D01*
X166801434Y-88846043D01*
X166804452Y-88841843D01*
X166832076Y-88785951D01*
X166901135Y-88646219D01*
X166901136Y-88646217D01*
X166903429Y-88641577D01*
X166968369Y-88427835D01*
X166997528Y-88206356D01*
X166999155Y-88139766D01*
X166980851Y-87917127D01*
X166926430Y-87700468D01*
X166837353Y-87495606D01*
X166797905Y-87434628D01*
X166718821Y-87312383D01*
X166718819Y-87312380D01*
X166716013Y-87308043D01*
X166565669Y-87142817D01*
X166561618Y-87139618D01*
X166561614Y-87139614D01*
X166394413Y-87007566D01*
X166394409Y-87007564D01*
X166390358Y-87004364D01*
X166349052Y-86981562D01*
X166299083Y-86931130D01*
X166284311Y-86861687D01*
X166309427Y-86795282D01*
X166336779Y-86768675D01*
X166380602Y-86737416D01*
X166515859Y-86640939D01*
X166674095Y-86483255D01*
X166733593Y-86400455D01*
X166801434Y-86306043D01*
X166804452Y-86301843D01*
X166832757Y-86244573D01*
X166901135Y-86106219D01*
X166901136Y-86106217D01*
X166903429Y-86101577D01*
X166968369Y-85887835D01*
X166997528Y-85666356D01*
X166999155Y-85599766D01*
X166980851Y-85377127D01*
X166926430Y-85160468D01*
X166837353Y-84955606D01*
X166797905Y-84894628D01*
X166718821Y-84772383D01*
X166718819Y-84772380D01*
X166716013Y-84768043D01*
X166565669Y-84602817D01*
X166561618Y-84599618D01*
X166561614Y-84599614D01*
X166394413Y-84467566D01*
X166394409Y-84467564D01*
X166390358Y-84464364D01*
X166349052Y-84441562D01*
X166299083Y-84391130D01*
X166284311Y-84321687D01*
X166309427Y-84255282D01*
X166336779Y-84228675D01*
X166398815Y-84184425D01*
X166515859Y-84100939D01*
X166538353Y-84078524D01*
X166670434Y-83946903D01*
X166674095Y-83943255D01*
X166733593Y-83860455D01*
X166801434Y-83766043D01*
X166804452Y-83761843D01*
X166807802Y-83755066D01*
X166901135Y-83566219D01*
X166901136Y-83566217D01*
X166903429Y-83561577D01*
X166968369Y-83347835D01*
X166997528Y-83126356D01*
X166999155Y-83059766D01*
X166980851Y-82837127D01*
X166926430Y-82620468D01*
X166837353Y-82415606D01*
X166732078Y-82252876D01*
X166718821Y-82232383D01*
X166718819Y-82232380D01*
X166716013Y-82228043D01*
X166565669Y-82062817D01*
X166561618Y-82059618D01*
X166561614Y-82059614D01*
X166394413Y-81927566D01*
X166394409Y-81927564D01*
X166390358Y-81924364D01*
X166349052Y-81901562D01*
X166299083Y-81851130D01*
X166284311Y-81781687D01*
X166309427Y-81715282D01*
X166336779Y-81688675D01*
X166402303Y-81641937D01*
X166515859Y-81560939D01*
X166674095Y-81403255D01*
X166733593Y-81320455D01*
X166801434Y-81226043D01*
X166804452Y-81221843D01*
X166816061Y-81198355D01*
X166901135Y-81026219D01*
X166901136Y-81026217D01*
X166903429Y-81021577D01*
X166954711Y-80852789D01*
X166966864Y-80812789D01*
X166966864Y-80812787D01*
X166968369Y-80807835D01*
X166997528Y-80586356D01*
X166999155Y-80519766D01*
X166980851Y-80297127D01*
X166926430Y-80080468D01*
X166837353Y-79875606D01*
X166769649Y-79770951D01*
X166718821Y-79692383D01*
X166718819Y-79692380D01*
X166716013Y-79688043D01*
X166565669Y-79522817D01*
X166561618Y-79519618D01*
X166561614Y-79519614D01*
X166394413Y-79387566D01*
X166394409Y-79387564D01*
X166390358Y-79384364D01*
X166349052Y-79361562D01*
X166299083Y-79311130D01*
X166284311Y-79241687D01*
X166309427Y-79175282D01*
X166336779Y-79148675D01*
X166380602Y-79117416D01*
X166515859Y-79020939D01*
X166674095Y-78863255D01*
X166733593Y-78780455D01*
X166801434Y-78686043D01*
X166804452Y-78681843D01*
X166822535Y-78645256D01*
X166901135Y-78486219D01*
X166901136Y-78486217D01*
X166903429Y-78481577D01*
X166968369Y-78267835D01*
X166997528Y-78046356D01*
X166999155Y-77979766D01*
X166980851Y-77757127D01*
X166926430Y-77540468D01*
X166837353Y-77335606D01*
X166797905Y-77274628D01*
X166718821Y-77152383D01*
X166718819Y-77152380D01*
X166716013Y-77148043D01*
X166565669Y-76982817D01*
X166561618Y-76979618D01*
X166561614Y-76979614D01*
X166394413Y-76847566D01*
X166394409Y-76847564D01*
X166390358Y-76844364D01*
X166349052Y-76821562D01*
X166299083Y-76771130D01*
X166284311Y-76701687D01*
X166309427Y-76635282D01*
X166336779Y-76608675D01*
X166399952Y-76563614D01*
X166515859Y-76480939D01*
X166674095Y-76323255D01*
X166733593Y-76240455D01*
X166801434Y-76146043D01*
X166804452Y-76141843D01*
X166903429Y-75941577D01*
X166968369Y-75727835D01*
X166997528Y-75506356D01*
X166999155Y-75439766D01*
X166980851Y-75217127D01*
X166926430Y-75000468D01*
X166837353Y-74795606D01*
X166755277Y-74668736D01*
X166718821Y-74612383D01*
X166718819Y-74612380D01*
X166716013Y-74608043D01*
X166565669Y-74442817D01*
X166446406Y-74348628D01*
X166405344Y-74290710D01*
X166398499Y-74249746D01*
X166398499Y-73643386D01*
X166399932Y-73624436D01*
X166402123Y-73610037D01*
X166402123Y-73610031D01*
X166403223Y-73602802D01*
X166402124Y-73589284D01*
X166398914Y-73549827D01*
X166398499Y-73539612D01*
X166398499Y-73531485D01*
X166395188Y-73503086D01*
X166394759Y-73498746D01*
X166389401Y-73432877D01*
X166388808Y-73425584D01*
X166386552Y-73418622D01*
X166385356Y-73412634D01*
X166383948Y-73406677D01*
X166383100Y-73399403D01*
X166380602Y-73392521D01*
X166380601Y-73392517D01*
X166358054Y-73330403D01*
X166356644Y-73326299D01*
X166334012Y-73256435D01*
X166330212Y-73250172D01*
X166327674Y-73244630D01*
X166324932Y-73239154D01*
X166322433Y-73232269D01*
X166282184Y-73170878D01*
X166279869Y-73167210D01*
X166241772Y-73104429D01*
X166238056Y-73100222D01*
X166238053Y-73100218D01*
X166234331Y-73096005D01*
X166234361Y-73095979D01*
X166231763Y-73093051D01*
X166228959Y-73089697D01*
X166224945Y-73083575D01*
X166168414Y-73030023D01*
X166165971Y-73027645D01*
X165428362Y-72290035D01*
X165415976Y-72275622D01*
X165407351Y-72263902D01*
X165403010Y-72258003D01*
X165362501Y-72223588D01*
X165354985Y-72216658D01*
X165349241Y-72210914D01*
X165346367Y-72208640D01*
X165346360Y-72208634D01*
X165326845Y-72193195D01*
X165323441Y-72190404D01*
X165273084Y-72147622D01*
X165273080Y-72147619D01*
X165267505Y-72142883D01*
X165260988Y-72139555D01*
X165255924Y-72136178D01*
X165250700Y-72132951D01*
X165244956Y-72128407D01*
X165218665Y-72116119D01*
X165178474Y-72097335D01*
X165174523Y-72095404D01*
X165115673Y-72065354D01*
X165109152Y-72062024D01*
X165102037Y-72060283D01*
X165096291Y-72058146D01*
X165090508Y-72056222D01*
X165083877Y-72053123D01*
X165011999Y-72038173D01*
X165007727Y-72037206D01*
X164936444Y-72019763D01*
X164930845Y-72019416D01*
X164930841Y-72019415D01*
X164925226Y-72019067D01*
X164925228Y-72019028D01*
X164921327Y-72018795D01*
X164916968Y-72018406D01*
X164909800Y-72016915D01*
X164902483Y-72017113D01*
X164831979Y-72019021D01*
X164828570Y-72019067D01*
X156057590Y-72019067D01*
X155989469Y-71999065D01*
X155972061Y-71985591D01*
X155881948Y-71902291D01*
X155877703Y-71898367D01*
X155800179Y-71849453D01*
X155710288Y-71792736D01*
X155710283Y-71792734D01*
X155705404Y-71789655D01*
X155516180Y-71714162D01*
X155316366Y-71674416D01*
X155310592Y-71674340D01*
X155310588Y-71674340D01*
X155207452Y-71672991D01*
X155112655Y-71671750D01*
X155106958Y-71672729D01*
X155106957Y-71672729D01*
X154917567Y-71705272D01*
X154911870Y-71706251D01*
X154720734Y-71776765D01*
X154545649Y-71880930D01*
X154392478Y-72015257D01*
X154388911Y-72019782D01*
X154388906Y-72019787D01*
X154329295Y-72095404D01*
X154266351Y-72175248D01*
X154263662Y-72180359D01*
X154263660Y-72180362D01*
X154247586Y-72210914D01*
X154171492Y-72355545D01*
X154111078Y-72550110D01*
X154087132Y-72752426D01*
X154100457Y-72955718D01*
X154150605Y-73153177D01*
X154235898Y-73338191D01*
X154353479Y-73504564D01*
X154357613Y-73508591D01*
X154399422Y-73549320D01*
X154434259Y-73611182D01*
X154437500Y-73639574D01*
X154437500Y-74808450D01*
X154417498Y-74876571D01*
X154363842Y-74923064D01*
X154293568Y-74933168D01*
X154225971Y-74900975D01*
X154175931Y-74854718D01*
X154175928Y-74854716D01*
X154171691Y-74850799D01*
X154104572Y-74808450D01*
X154004276Y-74745168D01*
X154004271Y-74745166D01*
X153999392Y-74742087D01*
X153810168Y-74666594D01*
X153610354Y-74626848D01*
X153604580Y-74626772D01*
X153604576Y-74626772D01*
X153501440Y-74625423D01*
X153406643Y-74624182D01*
X153400946Y-74625161D01*
X153400945Y-74625161D01*
X153211555Y-74657704D01*
X153205858Y-74658683D01*
X153014722Y-74729197D01*
X153009761Y-74732149D01*
X153009760Y-74732149D01*
X152959305Y-74762167D01*
X152839637Y-74833362D01*
X152686466Y-74967689D01*
X152682899Y-74972214D01*
X152682894Y-74972219D01*
X152656669Y-75005486D01*
X152560339Y-75127680D01*
X152465480Y-75307977D01*
X152405066Y-75502542D01*
X152381120Y-75704858D01*
X152394445Y-75908150D01*
X152444593Y-76105609D01*
X152529886Y-76290623D01*
X152647467Y-76456996D01*
X152651601Y-76461023D01*
X152693410Y-76501752D01*
X152728247Y-76563614D01*
X152731488Y-76592006D01*
X152731488Y-86071116D01*
X152711486Y-86139237D01*
X152694281Y-86159213D01*
X152694784Y-86159691D01*
X152690803Y-86163885D01*
X152686466Y-86167689D01*
X152682899Y-86172214D01*
X152682894Y-86172219D01*
X152619270Y-86252926D01*
X152560339Y-86327680D01*
X152557650Y-86332791D01*
X152557648Y-86332794D01*
X152542325Y-86361918D01*
X152465480Y-86507977D01*
X152405066Y-86702542D01*
X152381120Y-86904858D01*
X152381498Y-86910625D01*
X152381347Y-86916395D01*
X152379353Y-86916343D01*
X152365808Y-86976913D01*
X152344668Y-87004981D01*
X152009288Y-87340361D01*
X151946976Y-87374387D01*
X151920193Y-87377266D01*
X148467334Y-87377266D01*
X148399213Y-87357264D01*
X148361541Y-87319705D01*
X148353997Y-87308043D01*
X148203653Y-87142817D01*
X148199602Y-87139618D01*
X148199598Y-87139614D01*
X148032397Y-87007566D01*
X148032393Y-87007564D01*
X148028342Y-87004364D01*
X147987036Y-86981562D01*
X147937067Y-86931130D01*
X147922295Y-86861687D01*
X147947411Y-86795282D01*
X147974763Y-86768675D01*
X148018586Y-86737416D01*
X148153843Y-86640939D01*
X148312079Y-86483255D01*
X148371577Y-86400455D01*
X148439418Y-86306043D01*
X148442436Y-86301843D01*
X148470741Y-86244573D01*
X148539119Y-86106219D01*
X148539120Y-86106217D01*
X148541413Y-86101577D01*
X148606353Y-85887835D01*
X148635512Y-85666356D01*
X148637139Y-85599766D01*
X148618835Y-85377127D01*
X148564414Y-85160468D01*
X148475337Y-84955606D01*
X148435889Y-84894628D01*
X148356805Y-84772383D01*
X148356803Y-84772380D01*
X148353997Y-84768043D01*
X148203653Y-84602817D01*
X148199602Y-84599618D01*
X148199598Y-84599614D01*
X148032397Y-84467566D01*
X148032393Y-84467564D01*
X148028342Y-84464364D01*
X147986552Y-84441295D01*
X147936581Y-84390863D01*
X147921809Y-84321420D01*
X147946925Y-84255014D01*
X147974277Y-84228407D01*
X148149311Y-84103558D01*
X148157183Y-84096905D01*
X148308035Y-83946578D01*
X148314713Y-83938731D01*
X148438986Y-83765786D01*
X148444296Y-83756949D01*
X148538653Y-83566033D01*
X148542452Y-83556438D01*
X148604360Y-83352676D01*
X148606538Y-83342603D01*
X148607969Y-83331728D01*
X148605758Y-83317544D01*
X148592600Y-83313766D01*
X145957208Y-83313766D01*
X145943677Y-83317739D01*
X145942240Y-83327732D01*
X145972548Y-83462212D01*
X145975628Y-83472041D01*
X146055753Y-83669369D01*
X146060396Y-83678560D01*
X146171677Y-83860154D01*
X146177760Y-83868465D01*
X146317196Y-84029433D01*
X146324563Y-84036649D01*
X146488417Y-84172682D01*
X146496864Y-84178597D01*
X146565952Y-84218969D01*
X146614676Y-84270608D01*
X146627747Y-84340391D01*
X146601016Y-84406162D01*
X146560567Y-84439518D01*
X146547590Y-84446273D01*
X146543457Y-84449376D01*
X146543454Y-84449378D01*
X146440825Y-84526434D01*
X146368948Y-84580401D01*
X146214612Y-84741904D01*
X146211698Y-84746176D01*
X146211697Y-84746177D01*
X146174735Y-84800361D01*
X146088726Y-84926446D01*
X145994671Y-85129071D01*
X145934972Y-85344336D01*
X145911234Y-85566461D01*
X145911531Y-85571614D01*
X145911531Y-85571617D01*
X145916994Y-85666356D01*
X145924093Y-85789481D01*
X145925230Y-85794527D01*
X145925231Y-85794533D01*
X145930144Y-85816331D01*
X145973205Y-86007405D01*
X146010006Y-86098035D01*
X146040129Y-86172219D01*
X146057249Y-86214382D01*
X146059948Y-86218786D01*
X146171030Y-86400056D01*
X146173970Y-86404854D01*
X146320233Y-86573704D01*
X146492109Y-86716398D01*
X146562578Y-86757577D01*
X146565428Y-86759242D01*
X146614152Y-86810880D01*
X146627223Y-86880663D01*
X146600492Y-86946435D01*
X146560038Y-86979793D01*
X146547590Y-86986273D01*
X146543457Y-86989376D01*
X146543454Y-86989378D01*
X146522673Y-87004981D01*
X146368948Y-87120401D01*
X146214612Y-87281904D01*
X146211698Y-87286176D01*
X146211697Y-87286177D01*
X146186113Y-87323682D01*
X146088726Y-87466446D01*
X145994671Y-87669071D01*
X145934972Y-87884336D01*
X145911234Y-88106461D01*
X145911531Y-88111614D01*
X145911531Y-88111617D01*
X145916994Y-88206356D01*
X145924093Y-88329481D01*
X145925230Y-88334527D01*
X145925231Y-88334533D01*
X145945102Y-88422705D01*
X145973205Y-88547405D01*
X146034656Y-88698742D01*
X146046826Y-88728712D01*
X146057249Y-88754382D01*
X146098799Y-88822185D01*
X146153281Y-88911092D01*
X146173970Y-88944854D01*
X146320233Y-89113704D01*
X146492109Y-89256398D01*
X146562578Y-89297577D01*
X146565428Y-89299242D01*
X146614152Y-89350880D01*
X146627223Y-89420663D01*
X146600492Y-89486435D01*
X146560038Y-89519793D01*
X146547590Y-89526273D01*
X146543457Y-89529376D01*
X146543454Y-89529378D01*
X146519230Y-89547566D01*
X146368948Y-89660401D01*
X146214612Y-89821904D01*
X146088726Y-90006446D01*
X145994671Y-90209071D01*
X145934972Y-90424336D01*
X145911234Y-90646461D01*
X145911531Y-90651614D01*
X145911531Y-90651617D01*
X145916994Y-90746356D01*
X145924093Y-90869481D01*
X145925230Y-90874527D01*
X145925231Y-90874533D01*
X145945102Y-90962705D01*
X145973205Y-91087405D01*
X146057249Y-91294382D01*
X146173970Y-91484854D01*
X146320233Y-91653704D01*
X146492109Y-91796398D01*
X146515316Y-91809959D01*
X146565428Y-91839242D01*
X146614152Y-91890880D01*
X146627223Y-91960663D01*
X146600492Y-92026435D01*
X146560038Y-92059793D01*
X146547590Y-92066273D01*
X146543457Y-92069376D01*
X146543454Y-92069378D01*
X146519230Y-92087566D01*
X146368948Y-92200401D01*
X146365376Y-92204139D01*
X146227479Y-92348440D01*
X146214612Y-92361904D01*
X146088726Y-92546446D01*
X146041699Y-92647758D01*
X146001733Y-92733858D01*
X145994671Y-92749071D01*
X145934972Y-92964336D01*
X145911234Y-93186461D01*
X145423990Y-93186461D01*
X145423990Y-80486461D01*
X145911234Y-80486461D01*
X145911531Y-80491614D01*
X145911531Y-80491617D01*
X145916994Y-80586356D01*
X145924093Y-80709481D01*
X145925230Y-80714527D01*
X145925231Y-80714533D01*
X145945102Y-80802705D01*
X145973205Y-80927405D01*
X146057249Y-81134382D01*
X146173970Y-81324854D01*
X146320233Y-81493704D01*
X146492109Y-81636398D01*
X146554459Y-81672832D01*
X146565938Y-81679540D01*
X146614662Y-81731178D01*
X146627733Y-81800961D01*
X146601002Y-81866733D01*
X146560545Y-81900093D01*
X146552440Y-81904312D01*
X146543721Y-81909802D01*
X146373416Y-82037671D01*
X146365709Y-82044514D01*
X146218573Y-82198483D01*
X146212087Y-82206493D01*
X146092081Y-82382415D01*
X146086983Y-82391389D01*
X145997321Y-82584549D01*
X145993758Y-82594236D01*
X145938372Y-82793949D01*
X145939895Y-82802373D01*
X145952275Y-82805766D01*
X148592327Y-82805766D01*
X148605858Y-82801793D01*
X148607163Y-82792713D01*
X148565197Y-82625641D01*
X148561877Y-82615890D01*
X148476955Y-82420580D01*
X148472088Y-82411505D01*
X148356409Y-82232692D01*
X148350119Y-82224523D01*
X148206789Y-82067006D01*
X148199256Y-82059981D01*
X148032122Y-81927988D01*
X148023539Y-81922286D01*
X147986585Y-81901886D01*
X147936614Y-81851453D01*
X147921842Y-81782011D01*
X147946958Y-81715605D01*
X147974310Y-81688998D01*
X148040287Y-81641937D01*
X148141054Y-81570061D01*
X149872481Y-81570061D01*
X149881777Y-81582076D01*
X149932982Y-81617930D01*
X149942477Y-81623413D01*
X150139935Y-81715489D01*
X150150227Y-81719235D01*
X150360676Y-81775624D01*
X150371469Y-81777527D01*
X150588513Y-81796516D01*
X150599463Y-81796516D01*
X150816507Y-81777527D01*
X150827300Y-81775624D01*
X151037749Y-81719235D01*
X151048041Y-81715489D01*
X151245499Y-81623413D01*
X151254994Y-81617930D01*
X151307036Y-81581490D01*
X151315412Y-81571011D01*
X151308344Y-81557565D01*
X150606800Y-80856021D01*
X150592856Y-80848407D01*
X150591023Y-80848538D01*
X150584408Y-80852789D01*
X149878911Y-81558286D01*
X149872481Y-81570061D01*
X148141054Y-81570061D01*
X148153843Y-81560939D01*
X148312079Y-81403255D01*
X148371577Y-81320455D01*
X148439418Y-81226043D01*
X148442436Y-81221843D01*
X148454045Y-81198355D01*
X148539119Y-81026219D01*
X148539120Y-81026217D01*
X148541413Y-81021577D01*
X148592695Y-80852789D01*
X148604848Y-80812789D01*
X148604848Y-80812787D01*
X148606353Y-80807835D01*
X148635512Y-80586356D01*
X148637139Y-80519766D01*
X148634649Y-80489474D01*
X149281471Y-80489474D01*
X149300460Y-80706518D01*
X149302363Y-80717311D01*
X149358752Y-80927760D01*
X149362498Y-80938052D01*
X149454574Y-81135510D01*
X149460057Y-81145005D01*
X149496497Y-81197047D01*
X149506976Y-81205423D01*
X149520422Y-81198355D01*
X150221966Y-80496811D01*
X150228344Y-80485131D01*
X150958396Y-80485131D01*
X150958527Y-80486964D01*
X150962778Y-80493579D01*
X151668275Y-81199076D01*
X151680050Y-81205506D01*
X151692065Y-81196210D01*
X151727919Y-81145005D01*
X151733402Y-81135510D01*
X151825478Y-80938052D01*
X151829224Y-80927760D01*
X151885613Y-80717311D01*
X151887516Y-80706518D01*
X151906505Y-80489474D01*
X151906505Y-80478524D01*
X151887516Y-80261480D01*
X151885613Y-80250687D01*
X151829224Y-80040238D01*
X151825478Y-80029946D01*
X151733402Y-79832488D01*
X151727919Y-79822993D01*
X151691479Y-79770951D01*
X151681000Y-79762575D01*
X151667554Y-79769643D01*
X150966010Y-80471187D01*
X150958396Y-80485131D01*
X150228344Y-80485131D01*
X150229580Y-80482867D01*
X150229449Y-80481034D01*
X150225198Y-80474419D01*
X149519701Y-79768922D01*
X149507926Y-79762492D01*
X149495911Y-79771788D01*
X149460057Y-79822993D01*
X149454574Y-79832488D01*
X149362498Y-80029946D01*
X149358752Y-80040238D01*
X149302363Y-80250687D01*
X149300460Y-80261480D01*
X149281471Y-80478524D01*
X149281471Y-80489474D01*
X148634649Y-80489474D01*
X148618835Y-80297127D01*
X148564414Y-80080468D01*
X148475337Y-79875606D01*
X148407633Y-79770951D01*
X148356805Y-79692383D01*
X148356803Y-79692380D01*
X148353997Y-79688043D01*
X148203653Y-79522817D01*
X148199602Y-79519618D01*
X148199598Y-79519614D01*
X148032397Y-79387566D01*
X148032393Y-79387564D01*
X148028342Y-79384364D01*
X147987036Y-79361562D01*
X147937067Y-79311130D01*
X147922295Y-79241687D01*
X147947411Y-79175282D01*
X147974763Y-79148675D01*
X148018586Y-79117416D01*
X148153843Y-79020939D01*
X148312079Y-78863255D01*
X148334397Y-78832196D01*
X148361312Y-78794740D01*
X148417307Y-78751092D01*
X148463635Y-78742266D01*
X149461957Y-78742266D01*
X149530078Y-78762268D01*
X149565169Y-78795994D01*
X149584629Y-78823785D01*
X149587790Y-78828299D01*
X149749688Y-78990197D01*
X149754196Y-78993354D01*
X149754199Y-78993356D01*
X149857864Y-79065943D01*
X149937239Y-79121522D01*
X149942223Y-79123846D01*
X149944516Y-79125170D01*
X149993509Y-79176552D01*
X150006945Y-79246266D01*
X149980559Y-79312177D01*
X149944516Y-79343408D01*
X149932986Y-79350065D01*
X149880940Y-79386508D01*
X149872564Y-79396987D01*
X149879632Y-79410433D01*
X150581176Y-80111977D01*
X150595120Y-80119591D01*
X150596953Y-80119460D01*
X150603568Y-80115209D01*
X151309065Y-79409712D01*
X151315495Y-79397937D01*
X151306199Y-79385922D01*
X151254990Y-79350065D01*
X151243460Y-79343408D01*
X151194467Y-79292026D01*
X151181030Y-79222312D01*
X151207417Y-79156401D01*
X151243460Y-79125170D01*
X151245753Y-79123846D01*
X151250737Y-79121522D01*
X151330112Y-79065943D01*
X151433777Y-78993356D01*
X151433780Y-78993354D01*
X151438288Y-78990197D01*
X151600186Y-78828299D01*
X151623685Y-78794740D01*
X151728354Y-78645256D01*
X151731511Y-78640748D01*
X151733834Y-78635766D01*
X151733837Y-78635761D01*
X151825949Y-78438224D01*
X151825949Y-78438223D01*
X151828272Y-78433242D01*
X151841906Y-78382362D01*
X151886107Y-78217401D01*
X151886107Y-78217399D01*
X151887531Y-78212086D01*
X151907486Y-77983999D01*
X151887531Y-77755912D01*
X151828272Y-77534756D01*
X151814106Y-77504376D01*
X151733837Y-77332237D01*
X151733834Y-77332232D01*
X151731511Y-77327250D01*
X151640494Y-77197264D01*
X151603345Y-77144210D01*
X151603343Y-77144207D01*
X151600186Y-77139699D01*
X151438288Y-76977801D01*
X151433780Y-76974644D01*
X151433777Y-76974642D01*
X151317900Y-76893504D01*
X151250737Y-76846476D01*
X151245755Y-76844153D01*
X151245750Y-76844150D01*
X151048213Y-76752038D01*
X151048212Y-76752038D01*
X151043231Y-76749715D01*
X151037923Y-76748293D01*
X151037921Y-76748292D01*
X150827390Y-76691880D01*
X150827388Y-76691880D01*
X150822075Y-76690456D01*
X150593988Y-76670501D01*
X150365901Y-76690456D01*
X150360588Y-76691880D01*
X150360586Y-76691880D01*
X150150055Y-76748292D01*
X150150053Y-76748293D01*
X150144745Y-76749715D01*
X150139764Y-76752038D01*
X150139763Y-76752038D01*
X149942226Y-76844150D01*
X149942221Y-76844153D01*
X149937239Y-76846476D01*
X149870076Y-76893504D01*
X149754199Y-76974642D01*
X149754196Y-76974644D01*
X149749688Y-76977801D01*
X149587790Y-77139699D01*
X149584631Y-77144211D01*
X149584629Y-77144213D01*
X149571097Y-77163538D01*
X149515639Y-77207866D01*
X149467885Y-77217266D01*
X148467334Y-77217266D01*
X148399213Y-77197264D01*
X148361541Y-77159705D01*
X148353997Y-77148043D01*
X148350512Y-77144213D01*
X148206781Y-76986254D01*
X148175729Y-76922408D01*
X148184124Y-76851909D01*
X148229300Y-76797141D01*
X148255744Y-76783472D01*
X148362280Y-76743533D01*
X148370688Y-76740381D01*
X148487244Y-76653027D01*
X148574598Y-76536471D01*
X148625728Y-76400082D01*
X148632483Y-76337900D01*
X148632483Y-74541632D01*
X148625728Y-74479450D01*
X148574598Y-74343061D01*
X148487244Y-74226505D01*
X148370688Y-74139151D01*
X148234299Y-74088021D01*
X148172117Y-74081266D01*
X146375849Y-74081266D01*
X146313667Y-74088021D01*
X146177278Y-74139151D01*
X146060722Y-74226505D01*
X145973368Y-74343061D01*
X145922238Y-74479450D01*
X145915483Y-74541632D01*
X145915483Y-76337900D01*
X145922238Y-76400082D01*
X145973368Y-76536471D01*
X146060722Y-76653027D01*
X146177278Y-76740381D01*
X146185687Y-76743533D01*
X146185688Y-76743534D01*
X146294434Y-76784301D01*
X146351199Y-76826942D01*
X146375899Y-76893504D01*
X146360692Y-76962853D01*
X146341299Y-76989334D01*
X146214612Y-77121904D01*
X146088726Y-77306446D01*
X145994671Y-77509071D01*
X145934972Y-77724336D01*
X145911234Y-77946461D01*
X145911531Y-77951614D01*
X145911531Y-77951617D01*
X145916994Y-78046356D01*
X145924093Y-78169481D01*
X145925230Y-78174527D01*
X145925231Y-78174533D01*
X145934892Y-78217401D01*
X145973205Y-78387405D01*
X146057249Y-78594382D01*
X146059948Y-78598786D01*
X146153281Y-78751092D01*
X146173970Y-78784854D01*
X146320233Y-78953704D01*
X146492109Y-79096398D01*
X146535104Y-79121522D01*
X146565428Y-79139242D01*
X146614152Y-79190880D01*
X146627223Y-79260663D01*
X146600492Y-79326435D01*
X146560038Y-79359793D01*
X146547590Y-79366273D01*
X146543457Y-79369376D01*
X146543454Y-79369378D01*
X146373083Y-79497296D01*
X146368948Y-79500401D01*
X146214612Y-79661904D01*
X146211698Y-79666176D01*
X146211697Y-79666177D01*
X146145939Y-79762575D01*
X146088726Y-79846446D01*
X145994671Y-80049071D01*
X145934972Y-80264336D01*
X145911234Y-80486461D01*
X145423990Y-80486461D01*
X145423990Y-70023261D01*
X153822242Y-70023261D01*
X153835101Y-70246281D01*
X153836238Y-70251327D01*
X153836239Y-70251333D01*
X153860295Y-70358074D01*
X153884213Y-70464205D01*
X153968257Y-70671182D01*
X154014539Y-70746707D01*
X154057962Y-70817567D01*
X154084978Y-70861654D01*
X154231241Y-71030504D01*
X154403117Y-71173198D01*
X154595991Y-71285904D01*
X154600816Y-71287746D01*
X154600817Y-71287747D01*
X154628314Y-71298247D01*
X154804683Y-71365596D01*
X154809751Y-71366627D01*
X154809754Y-71366628D01*
X154902415Y-71385480D01*
X155023588Y-71410133D01*
X155028763Y-71410323D01*
X155028765Y-71410323D01*
X155241664Y-71418130D01*
X155241668Y-71418130D01*
X155246828Y-71418319D01*
X155251948Y-71417663D01*
X155251950Y-71417663D01*
X155463279Y-71390591D01*
X155463280Y-71390591D01*
X155468407Y-71389934D01*
X155483253Y-71385480D01*
X155677420Y-71327227D01*
X155677425Y-71327225D01*
X155682375Y-71325740D01*
X155882985Y-71227462D01*
X156064851Y-71097739D01*
X156173082Y-70989885D01*
X156235453Y-70955970D01*
X156306259Y-70961158D01*
X156363021Y-71003804D01*
X156380003Y-71034907D01*
X156424376Y-71153271D01*
X156511730Y-71269827D01*
X156628286Y-71357181D01*
X156764675Y-71408311D01*
X156826857Y-71415066D01*
X158623125Y-71415066D01*
X158685307Y-71408311D01*
X158821696Y-71357181D01*
X158938252Y-71269827D01*
X159025606Y-71153271D01*
X159076736Y-71016882D01*
X159083491Y-70954700D01*
X159083491Y-70885688D01*
X159103493Y-70817567D01*
X159157149Y-70771074D01*
X159227423Y-70760970D01*
X159263547Y-70771873D01*
X159443316Y-70857255D01*
X160358566Y-71291960D01*
X160367794Y-71296821D01*
X160406758Y-71319453D01*
X160406763Y-71319455D01*
X160413088Y-71323129D01*
X160420085Y-71325248D01*
X160420096Y-71325253D01*
X160484013Y-71344611D01*
X160488003Y-71345892D01*
X160530532Y-71360333D01*
X160558111Y-71369698D01*
X160565401Y-71370394D01*
X160570775Y-71371547D01*
X160576140Y-71372512D01*
X160583146Y-71374634D01*
X160627972Y-71377415D01*
X160657057Y-71379219D01*
X160661237Y-71379548D01*
X160727701Y-71385897D01*
X160727705Y-71385897D01*
X160734992Y-71386593D01*
X160742246Y-71385593D01*
X160747677Y-71385480D01*
X160753181Y-71385182D01*
X160760492Y-71385636D01*
X160767707Y-71384396D01*
X160767711Y-71384396D01*
X160833479Y-71373095D01*
X160837618Y-71372454D01*
X160900783Y-71363751D01*
X160911017Y-71362341D01*
X160917834Y-71359705D01*
X160923114Y-71358340D01*
X160928397Y-71356785D01*
X160935612Y-71355545D01*
X161003798Y-71326532D01*
X161007655Y-71324966D01*
X161076741Y-71298247D01*
X161082779Y-71294106D01*
X161087613Y-71291558D01*
X161092375Y-71288842D01*
X161099112Y-71285975D01*
X161105009Y-71281635D01*
X161105013Y-71281633D01*
X161158766Y-71242076D01*
X161162180Y-71239650D01*
X161217235Y-71201890D01*
X161217243Y-71201883D01*
X161223275Y-71197746D01*
X161228194Y-71192331D01*
X161232320Y-71188733D01*
X161236328Y-71184996D01*
X161242223Y-71180657D01*
X161290211Y-71124171D01*
X161292941Y-71121064D01*
X161337839Y-71071646D01*
X161337841Y-71071643D01*
X161342758Y-71066231D01*
X161346298Y-71059833D01*
X161349488Y-71055379D01*
X161352530Y-71050818D01*
X161357267Y-71045241D01*
X161390977Y-70979225D01*
X161392938Y-70975538D01*
X161406359Y-70951283D01*
X161428782Y-70910756D01*
X161430757Y-70903709D01*
X161432845Y-70898619D01*
X161434743Y-70893515D01*
X161438074Y-70886992D01*
X161455682Y-70815034D01*
X161456745Y-70810982D01*
X161474758Y-70746707D01*
X161474758Y-70746704D01*
X161476732Y-70739662D01*
X161477033Y-70732348D01*
X161478134Y-70725398D01*
X161478130Y-70725397D01*
X161478975Y-70719841D01*
X161480307Y-70714397D01*
X161481003Y-70703179D01*
X161481003Y-70638450D01*
X161481109Y-70633271D01*
X161483735Y-70569438D01*
X161484036Y-70562126D01*
X161482646Y-70554936D01*
X161482098Y-70547644D01*
X161482273Y-70547631D01*
X161481003Y-70534373D01*
X161481003Y-69480650D01*
X161481435Y-69470229D01*
X161485161Y-69425334D01*
X161485161Y-69425332D01*
X161485766Y-69418041D01*
X161484678Y-69410811D01*
X161484678Y-69410805D01*
X161474742Y-69344765D01*
X161474188Y-69340613D01*
X161466461Y-69274340D01*
X161466460Y-69274336D01*
X161465613Y-69267071D01*
X161463117Y-69260194D01*
X161461854Y-69254853D01*
X161460417Y-69249568D01*
X161459329Y-69242333D01*
X161431755Y-69173587D01*
X161430260Y-69169673D01*
X161407483Y-69106923D01*
X161407483Y-69106922D01*
X161404987Y-69100047D01*
X161400976Y-69093929D01*
X161398532Y-69089049D01*
X161395906Y-69084213D01*
X161393180Y-69077418D01*
X161350532Y-69016862D01*
X161348177Y-69013397D01*
X161311576Y-68957572D01*
X161311575Y-68957571D01*
X161307562Y-68951450D01*
X161302248Y-68946415D01*
X161298729Y-68942207D01*
X161295079Y-68938125D01*
X161290866Y-68932144D01*
X161285393Y-68927295D01*
X161285391Y-68927292D01*
X161235413Y-68883007D01*
X161232360Y-68880210D01*
X161178566Y-68829251D01*
X161172236Y-68825575D01*
X161167843Y-68822288D01*
X161163358Y-68819160D01*
X161157878Y-68814304D01*
X161092635Y-68779257D01*
X161088983Y-68777217D01*
X161031243Y-68743679D01*
X161031244Y-68743679D01*
X161024918Y-68740005D01*
X161017917Y-68737885D01*
X161012902Y-68735704D01*
X161007790Y-68733681D01*
X161001346Y-68730219D01*
X160929778Y-68711118D01*
X160925760Y-68709973D01*
X160861865Y-68690621D01*
X160861860Y-68690620D01*
X160854860Y-68688500D01*
X160847554Y-68688047D01*
X160842184Y-68687081D01*
X160836745Y-68686288D01*
X160829668Y-68684399D01*
X160755612Y-68682273D01*
X160751429Y-68682083D01*
X160677514Y-68677498D01*
X160670293Y-68678739D01*
X160664784Y-68679037D01*
X160659373Y-68679511D01*
X160652055Y-68679301D01*
X160579492Y-68694271D01*
X160575409Y-68695043D01*
X160502394Y-68707589D01*
X160495653Y-68710458D01*
X160488903Y-68712444D01*
X160488905Y-68712449D01*
X160483526Y-68714069D01*
X160478032Y-68715202D01*
X160467601Y-68719386D01*
X160409153Y-68747147D01*
X160404430Y-68749272D01*
X160345630Y-68774292D01*
X160345625Y-68774295D01*
X160338894Y-68777159D01*
X160333003Y-68781494D01*
X160326638Y-68785125D01*
X160326552Y-68784974D01*
X160315119Y-68791811D01*
X159263547Y-69291275D01*
X159193435Y-69302434D01*
X159128419Y-69273914D01*
X159089142Y-69214772D01*
X159083491Y-69177461D01*
X159083491Y-69158432D01*
X159076736Y-69096250D01*
X159025606Y-68959861D01*
X158938252Y-68843305D01*
X158821696Y-68755951D01*
X158801194Y-68748265D01*
X158703194Y-68711526D01*
X158646430Y-68668884D01*
X158621730Y-68602322D01*
X158636938Y-68532974D01*
X158658484Y-68504293D01*
X158759426Y-68403703D01*
X158763087Y-68400055D01*
X158893444Y-68218643D01*
X158906986Y-68191244D01*
X158990127Y-68023019D01*
X158990128Y-68023017D01*
X158992421Y-68018377D01*
X159057361Y-67804635D01*
X159086520Y-67583156D01*
X159088147Y-67516566D01*
X159069843Y-67293927D01*
X159015422Y-67077268D01*
X158926345Y-66872406D01*
X158805005Y-66684843D01*
X158654661Y-66519617D01*
X158650610Y-66516418D01*
X158650606Y-66516414D01*
X158483405Y-66384366D01*
X158483401Y-66384364D01*
X158479350Y-66381164D01*
X158438044Y-66358362D01*
X158388075Y-66307930D01*
X158373303Y-66238487D01*
X158398419Y-66172082D01*
X158425771Y-66145475D01*
X158471997Y-66112502D01*
X158604851Y-66017739D01*
X158763087Y-65860055D01*
X158771303Y-65848622D01*
X158890426Y-65682843D01*
X158893444Y-65678643D01*
X158914311Y-65636423D01*
X158990127Y-65483019D01*
X158990128Y-65483017D01*
X158992421Y-65478377D01*
X159047354Y-65297572D01*
X159054078Y-65275441D01*
X161830667Y-65275441D01*
X161847216Y-65562455D01*
X161848041Y-65566660D01*
X161848042Y-65566668D01*
X161861728Y-65636423D01*
X161902564Y-65844567D01*
X161903951Y-65848617D01*
X161903952Y-65848622D01*
X161994299Y-66112502D01*
X161995688Y-66116558D01*
X162005637Y-66136340D01*
X162118471Y-66360684D01*
X162124863Y-66373394D01*
X162287699Y-66610322D01*
X162481184Y-66822960D01*
X162484479Y-66825715D01*
X162484480Y-66825716D01*
X162535236Y-66868154D01*
X162701737Y-67007370D01*
X162945276Y-67160143D01*
X163207296Y-67278449D01*
X163242605Y-67288908D01*
X163478835Y-67358883D01*
X163478840Y-67358884D01*
X163482948Y-67360101D01*
X163487182Y-67360749D01*
X163487187Y-67360750D01*
X163735789Y-67398791D01*
X163767131Y-67403587D01*
X163913463Y-67405886D01*
X164050295Y-67408036D01*
X164050301Y-67408036D01*
X164054586Y-67408103D01*
X164058838Y-67407588D01*
X164058846Y-67407588D01*
X164335734Y-67374080D01*
X164335739Y-67374079D01*
X164339995Y-67373564D01*
X164436580Y-67348225D01*
X164613932Y-67301698D01*
X164613933Y-67301698D01*
X164618075Y-67300611D01*
X164883682Y-67190593D01*
X165131900Y-67045546D01*
X165358137Y-66868154D01*
X165364455Y-66861635D01*
X165555222Y-66664778D01*
X165558205Y-66661700D01*
X165560738Y-66658252D01*
X165560742Y-66658247D01*
X165725865Y-66433458D01*
X165728403Y-66430003D01*
X165753182Y-66384366D01*
X165863532Y-66181127D01*
X165863533Y-66181125D01*
X165865582Y-66177351D01*
X165967203Y-65908420D01*
X166025997Y-65651710D01*
X166030427Y-65632369D01*
X166030428Y-65632365D01*
X166031385Y-65628185D01*
X166034295Y-65595586D01*
X166056721Y-65344298D01*
X166056721Y-65344296D01*
X166056941Y-65341832D01*
X166057405Y-65297572D01*
X166048799Y-65171333D01*
X166038143Y-65015024D01*
X166038142Y-65015018D01*
X166037851Y-65010747D01*
X166033314Y-64988836D01*
X165980421Y-64733427D01*
X165979552Y-64729230D01*
X165883585Y-64458229D01*
X165788874Y-64274730D01*
X165753693Y-64206567D01*
X165753693Y-64206566D01*
X165751728Y-64202760D01*
X165738466Y-64183889D01*
X165669074Y-64085155D01*
X165586419Y-63967549D01*
X165455049Y-63826178D01*
X165393639Y-63760093D01*
X165393636Y-63760091D01*
X165390718Y-63756950D01*
X165168246Y-63574859D01*
X164923120Y-63424645D01*
X164905026Y-63416702D01*
X164663808Y-63310815D01*
X164659876Y-63309089D01*
X164633941Y-63301701D01*
X164387512Y-63231504D01*
X164387513Y-63231504D01*
X164383384Y-63230328D01*
X164170682Y-63200057D01*
X164103014Y-63190426D01*
X164103012Y-63190426D01*
X164098762Y-63189821D01*
X164094473Y-63189799D01*
X164094466Y-63189798D01*
X163815561Y-63188337D01*
X163815554Y-63188337D01*
X163811275Y-63188315D01*
X163807031Y-63188874D01*
X163807027Y-63188874D01*
X163681638Y-63205382D01*
X163526244Y-63225840D01*
X163522104Y-63226973D01*
X163522102Y-63226973D01*
X163445289Y-63247987D01*
X163248942Y-63301701D01*
X163244994Y-63303385D01*
X162988454Y-63412809D01*
X162988450Y-63412811D01*
X162984502Y-63414495D01*
X162859938Y-63489045D01*
X162741499Y-63559929D01*
X162741495Y-63559932D01*
X162737817Y-63562133D01*
X162513450Y-63741885D01*
X162315555Y-63950423D01*
X162294577Y-63979617D01*
X162175850Y-64144843D01*
X162147792Y-64183889D01*
X162013266Y-64437964D01*
X161914467Y-64707945D01*
X161853223Y-64988836D01*
X161852887Y-64993106D01*
X161831128Y-65269589D01*
X161830667Y-65275441D01*
X159054078Y-65275441D01*
X159055856Y-65269589D01*
X159055856Y-65269587D01*
X159057361Y-65264635D01*
X159086520Y-65043156D01*
X159086602Y-65039806D01*
X159088065Y-64979931D01*
X159088065Y-64979927D01*
X159088147Y-64976566D01*
X159069843Y-64753927D01*
X159015422Y-64537268D01*
X158926345Y-64332406D01*
X158805005Y-64144843D01*
X158654661Y-63979617D01*
X158650610Y-63976418D01*
X158650606Y-63976414D01*
X158483405Y-63844366D01*
X158483401Y-63844364D01*
X158479350Y-63841164D01*
X158283780Y-63733204D01*
X158278911Y-63731480D01*
X158278907Y-63731478D01*
X158078078Y-63660361D01*
X158078074Y-63660360D01*
X158073203Y-63658635D01*
X158068110Y-63657728D01*
X158068107Y-63657727D01*
X157858364Y-63620366D01*
X157858358Y-63620365D01*
X157853275Y-63619460D01*
X157779443Y-63618558D01*
X157635072Y-63616794D01*
X157635070Y-63616794D01*
X157629902Y-63616731D01*
X157409082Y-63650521D01*
X157196747Y-63719923D01*
X156998598Y-63823073D01*
X156994465Y-63826176D01*
X156994462Y-63826178D01*
X156828983Y-63950423D01*
X156819956Y-63957201D01*
X156665620Y-64118704D01*
X156558192Y-64276187D01*
X156503284Y-64321187D01*
X156432759Y-64329358D01*
X156369012Y-64298104D01*
X156348315Y-64273620D01*
X156267813Y-64149183D01*
X156267811Y-64149180D01*
X156265005Y-64144843D01*
X156114661Y-63979617D01*
X156110610Y-63976418D01*
X156110606Y-63976414D01*
X155943405Y-63844366D01*
X155943401Y-63844364D01*
X155939350Y-63841164D01*
X155743780Y-63733204D01*
X155738911Y-63731480D01*
X155738907Y-63731478D01*
X155538078Y-63660361D01*
X155538074Y-63660360D01*
X155533203Y-63658635D01*
X155528110Y-63657728D01*
X155528107Y-63657727D01*
X155318364Y-63620366D01*
X155318358Y-63620365D01*
X155313275Y-63619460D01*
X155239443Y-63618558D01*
X155095072Y-63616794D01*
X155095070Y-63616794D01*
X155089902Y-63616731D01*
X154869082Y-63650521D01*
X154656747Y-63719923D01*
X154458598Y-63823073D01*
X154454465Y-63826176D01*
X154454462Y-63826178D01*
X154288983Y-63950423D01*
X154279956Y-63957201D01*
X154125620Y-64118704D01*
X154122711Y-64122969D01*
X154122705Y-64122977D01*
X154051984Y-64226651D01*
X153999734Y-64303246D01*
X153983994Y-64337156D01*
X153927794Y-64458229D01*
X153905679Y-64505871D01*
X153845980Y-64721136D01*
X153822242Y-64943261D01*
X153822539Y-64948414D01*
X153822539Y-64948417D01*
X153828002Y-65043156D01*
X153835101Y-65166281D01*
X153836238Y-65171327D01*
X153836239Y-65171333D01*
X153856110Y-65259505D01*
X153884213Y-65384205D01*
X153922452Y-65478377D01*
X153954852Y-65558168D01*
X153968257Y-65591182D01*
X154019010Y-65674004D01*
X154082282Y-65777254D01*
X154084978Y-65781654D01*
X154231241Y-65950504D01*
X154403117Y-66093198D01*
X154436152Y-66112502D01*
X154476946Y-66136340D01*
X154525670Y-66187978D01*
X154538741Y-66257761D01*
X154512010Y-66323533D01*
X154471553Y-66356893D01*
X154463448Y-66361112D01*
X154454729Y-66366602D01*
X154284424Y-66494471D01*
X154276717Y-66501314D01*
X154129581Y-66655283D01*
X154123095Y-66663293D01*
X154003089Y-66839215D01*
X153997991Y-66848189D01*
X153908329Y-67041349D01*
X153904766Y-67051036D01*
X153849380Y-67250749D01*
X153850903Y-67259173D01*
X153863283Y-67262566D01*
X155312991Y-67262566D01*
X155381112Y-67282568D01*
X155427605Y-67336224D01*
X155438991Y-67388566D01*
X155438991Y-67644566D01*
X155418989Y-67712687D01*
X155365333Y-67759180D01*
X155312991Y-67770566D01*
X153868216Y-67770566D01*
X153854685Y-67774539D01*
X153853248Y-67784532D01*
X153883556Y-67919012D01*
X153886636Y-67928841D01*
X153966761Y-68126169D01*
X153971404Y-68135360D01*
X154082685Y-68316954D01*
X154088768Y-68325265D01*
X154228204Y-68486233D01*
X154235571Y-68493449D01*
X154399425Y-68629482D01*
X154407872Y-68635397D01*
X154476960Y-68675769D01*
X154525684Y-68727408D01*
X154538755Y-68797191D01*
X154512024Y-68862962D01*
X154471575Y-68896318D01*
X154458598Y-68903073D01*
X154454465Y-68906176D01*
X154454462Y-68906178D01*
X154307045Y-69016862D01*
X154279956Y-69037201D01*
X154247244Y-69071432D01*
X154186271Y-69135237D01*
X154125620Y-69198704D01*
X154122706Y-69202976D01*
X154122705Y-69202977D01*
X154078983Y-69267071D01*
X153999734Y-69383246D01*
X153905679Y-69585871D01*
X153845980Y-69801136D01*
X153822242Y-70023261D01*
X145423990Y-70023261D01*
X145423990Y-65275441D01*
X146852668Y-65275441D01*
X146869217Y-65562455D01*
X146870042Y-65566660D01*
X146870043Y-65566668D01*
X146883729Y-65636423D01*
X146924565Y-65844567D01*
X146925952Y-65848617D01*
X146925953Y-65848622D01*
X147016300Y-66112502D01*
X147017689Y-66116558D01*
X147027638Y-66136340D01*
X147140472Y-66360684D01*
X147146864Y-66373394D01*
X147309700Y-66610322D01*
X147503185Y-66822960D01*
X147506480Y-66825715D01*
X147506481Y-66825716D01*
X147557237Y-66868154D01*
X147723738Y-67007370D01*
X147967277Y-67160143D01*
X148229297Y-67278449D01*
X148264606Y-67288908D01*
X148500836Y-67358883D01*
X148500841Y-67358884D01*
X148504949Y-67360101D01*
X148509183Y-67360749D01*
X148509188Y-67360750D01*
X148757790Y-67398791D01*
X148789132Y-67403587D01*
X148935464Y-67405886D01*
X149072296Y-67408036D01*
X149072302Y-67408036D01*
X149076587Y-67408103D01*
X149080839Y-67407588D01*
X149080847Y-67407588D01*
X149357735Y-67374080D01*
X149357740Y-67374079D01*
X149361996Y-67373564D01*
X149458581Y-67348225D01*
X149635933Y-67301698D01*
X149635934Y-67301698D01*
X149640076Y-67300611D01*
X149905683Y-67190593D01*
X150153901Y-67045546D01*
X150380138Y-66868154D01*
X150386456Y-66861635D01*
X150577223Y-66664778D01*
X150580206Y-66661700D01*
X150582739Y-66658252D01*
X150582743Y-66658247D01*
X150747866Y-66433458D01*
X150750404Y-66430003D01*
X150775183Y-66384366D01*
X150885533Y-66181127D01*
X150885534Y-66181125D01*
X150887583Y-66177351D01*
X150989204Y-65908420D01*
X151047998Y-65651710D01*
X151052428Y-65632369D01*
X151052429Y-65632365D01*
X151053386Y-65628185D01*
X151056296Y-65595586D01*
X151078722Y-65344298D01*
X151078722Y-65344296D01*
X151078942Y-65341832D01*
X151079406Y-65297572D01*
X151070800Y-65171333D01*
X151060144Y-65015024D01*
X151060143Y-65015018D01*
X151059852Y-65010747D01*
X151055315Y-64988836D01*
X151002422Y-64733427D01*
X151001553Y-64729230D01*
X150905586Y-64458229D01*
X150810875Y-64274730D01*
X150775694Y-64206567D01*
X150775694Y-64206566D01*
X150773729Y-64202760D01*
X150760467Y-64183889D01*
X150691075Y-64085155D01*
X150608420Y-63967549D01*
X150477050Y-63826178D01*
X150415640Y-63760093D01*
X150415637Y-63760091D01*
X150412719Y-63756950D01*
X150190247Y-63574859D01*
X149945121Y-63424645D01*
X149927027Y-63416702D01*
X149685809Y-63310815D01*
X149681877Y-63309089D01*
X149655942Y-63301701D01*
X149409513Y-63231504D01*
X149409514Y-63231504D01*
X149405385Y-63230328D01*
X149192683Y-63200057D01*
X149125015Y-63190426D01*
X149125013Y-63190426D01*
X149120763Y-63189821D01*
X149116474Y-63189799D01*
X149116467Y-63189798D01*
X148837562Y-63188337D01*
X148837555Y-63188337D01*
X148833276Y-63188315D01*
X148829032Y-63188874D01*
X148829028Y-63188874D01*
X148703639Y-63205382D01*
X148548245Y-63225840D01*
X148544105Y-63226973D01*
X148544103Y-63226973D01*
X148467290Y-63247987D01*
X148270943Y-63301701D01*
X148266995Y-63303385D01*
X148010455Y-63412809D01*
X148010451Y-63412811D01*
X148006503Y-63414495D01*
X147881939Y-63489045D01*
X147763500Y-63559929D01*
X147763496Y-63559932D01*
X147759818Y-63562133D01*
X147535451Y-63741885D01*
X147337556Y-63950423D01*
X147316578Y-63979617D01*
X147197851Y-64144843D01*
X147169793Y-64183889D01*
X147035267Y-64437964D01*
X146936468Y-64707945D01*
X146875224Y-64988836D01*
X146874888Y-64993106D01*
X146853129Y-65269589D01*
X146852668Y-65275441D01*
X145423990Y-65275441D01*
X145423990Y-64298807D01*
X145425490Y-64279422D01*
X145427795Y-64264621D01*
X145427795Y-64264618D01*
X145429176Y-64255749D01*
X145426931Y-64238580D01*
X145426098Y-64214640D01*
X145441700Y-63956709D01*
X145443534Y-63941605D01*
X145477373Y-63756950D01*
X145495030Y-63660600D01*
X145498669Y-63645832D01*
X145507494Y-63617514D01*
X145583665Y-63373071D01*
X145589060Y-63358849D01*
X145706306Y-63098339D01*
X145713375Y-63084870D01*
X145861172Y-62840384D01*
X145869815Y-62827862D01*
X146046006Y-62602972D01*
X146056096Y-62591584D01*
X146258095Y-62389585D01*
X146269483Y-62379495D01*
X146494373Y-62203304D01*
X146506895Y-62194661D01*
X146751381Y-62046864D01*
X146764850Y-62039795D01*
X147025363Y-61922548D01*
X147039582Y-61917154D01*
X147312349Y-61832157D01*
X147327111Y-61828519D01*
X147537342Y-61789993D01*
X147608116Y-61777023D01*
X147623220Y-61775189D01*
X147873919Y-61760024D01*
X147900629Y-61761281D01*
X147900849Y-61761284D01*
X147909720Y-61762665D01*
X147918622Y-61761501D01*
X147918625Y-61761501D01*
X147941241Y-61758543D01*
X147957579Y-61757479D01*
X164944660Y-61757479D01*
X164964045Y-61758979D01*
G37*
%TD.AperFunction*%
%TA.AperFunction,Conductor*%
G36*
X154366150Y-87746315D02*
G01*
X154418854Y-87793884D01*
X154437500Y-87859846D01*
X154437500Y-91809959D01*
X154417498Y-91878080D01*
X154400595Y-91899054D01*
X153879288Y-92420361D01*
X153816976Y-92454387D01*
X153790193Y-92457266D01*
X148467334Y-92457266D01*
X148399213Y-92437264D01*
X148361541Y-92399705D01*
X148353997Y-92388043D01*
X148203653Y-92222817D01*
X148199602Y-92219618D01*
X148199598Y-92219614D01*
X148032397Y-92087566D01*
X148032393Y-92087564D01*
X148028342Y-92084364D01*
X147987036Y-92061562D01*
X147937067Y-92011130D01*
X147922295Y-91941687D01*
X147947411Y-91875282D01*
X147974763Y-91848675D01*
X148029041Y-91809959D01*
X148153843Y-91720939D01*
X148312079Y-91563255D01*
X148371577Y-91480455D01*
X148439418Y-91386043D01*
X148442436Y-91381843D01*
X148541413Y-91181577D01*
X148606353Y-90967835D01*
X148635512Y-90746356D01*
X148637139Y-90679766D01*
X148618835Y-90457127D01*
X148564414Y-90240468D01*
X148475337Y-90035606D01*
X148353997Y-89848043D01*
X148203653Y-89682817D01*
X148199602Y-89679618D01*
X148199598Y-89679614D01*
X148032397Y-89547566D01*
X148032393Y-89547564D01*
X148028342Y-89544364D01*
X147987036Y-89521562D01*
X147937067Y-89471130D01*
X147922295Y-89401687D01*
X147947411Y-89335282D01*
X147974763Y-89308675D01*
X148018586Y-89277416D01*
X148153843Y-89180939D01*
X148312079Y-89023255D01*
X148361312Y-88954740D01*
X148417307Y-88911092D01*
X148463635Y-88902266D01*
X152220845Y-88902266D01*
X152239795Y-88903699D01*
X152254194Y-88905890D01*
X152254200Y-88905890D01*
X152261429Y-88906990D01*
X152268721Y-88906397D01*
X152268724Y-88906397D01*
X152314404Y-88902681D01*
X152324619Y-88902266D01*
X152332746Y-88902266D01*
X152336382Y-88901842D01*
X152336384Y-88901842D01*
X152339836Y-88901439D01*
X152361145Y-88898955D01*
X152365465Y-88898528D01*
X152438647Y-88892575D01*
X152445609Y-88890319D01*
X152451597Y-88889123D01*
X152457554Y-88887715D01*
X152464828Y-88886867D01*
X152471710Y-88884369D01*
X152471714Y-88884368D01*
X152533828Y-88861821D01*
X152537932Y-88860411D01*
X152607796Y-88837779D01*
X152614059Y-88833979D01*
X152619601Y-88831441D01*
X152625077Y-88828699D01*
X152631962Y-88826200D01*
X152693353Y-88785951D01*
X152697021Y-88783636D01*
X152759802Y-88745539D01*
X152764007Y-88741825D01*
X152764010Y-88741823D01*
X152768226Y-88738099D01*
X152768252Y-88738128D01*
X152771183Y-88735528D01*
X152774537Y-88732724D01*
X152780656Y-88728712D01*
X152834210Y-88672179D01*
X152836587Y-88669738D01*
X153425096Y-88081229D01*
X153487408Y-88047203D01*
X153519138Y-88044421D01*
X153525969Y-88044689D01*
X153552251Y-88045722D01*
X153753871Y-88016489D01*
X153759335Y-88014634D01*
X153759340Y-88014633D01*
X153941315Y-87952861D01*
X153941320Y-87952859D01*
X153946787Y-87951003D01*
X154124539Y-87851457D01*
X154230930Y-87762972D01*
X154296095Y-87734791D01*
X154366150Y-87746315D01*
G37*
%TD.AperFunction*%
%TA.AperFunction,Conductor*%
G36*
X164509662Y-81302268D02*
G01*
X164536778Y-81325769D01*
X164677197Y-81487872D01*
X164682249Y-81493704D01*
X164854125Y-81636398D01*
X164916475Y-81672832D01*
X164927444Y-81679242D01*
X164976168Y-81730880D01*
X164989239Y-81800663D01*
X164962508Y-81866435D01*
X164922054Y-81899793D01*
X164909606Y-81906273D01*
X164905473Y-81909376D01*
X164905470Y-81909378D01*
X164735099Y-82037296D01*
X164730964Y-82040401D01*
X164576628Y-82201904D01*
X164573714Y-82206176D01*
X164573713Y-82206177D01*
X164561403Y-82224223D01*
X164450742Y-82386446D01*
X164356687Y-82589071D01*
X164296988Y-82804336D01*
X164273250Y-83026461D01*
X164273547Y-83031614D01*
X164273547Y-83031617D01*
X164279010Y-83126356D01*
X164286109Y-83249481D01*
X164287246Y-83254527D01*
X164287247Y-83254533D01*
X164300596Y-83313766D01*
X164335221Y-83467405D01*
X164375345Y-83566219D01*
X164415850Y-83665971D01*
X164419265Y-83674382D01*
X164535986Y-83864854D01*
X164682249Y-84033704D01*
X164854125Y-84176398D01*
X164890023Y-84197375D01*
X164927444Y-84219242D01*
X164976168Y-84270880D01*
X164989239Y-84340663D01*
X164962508Y-84406435D01*
X164922054Y-84439793D01*
X164916182Y-84442850D01*
X164909606Y-84446273D01*
X164905473Y-84449376D01*
X164905470Y-84449378D01*
X164802841Y-84526434D01*
X164730964Y-84580401D01*
X164576628Y-84741904D01*
X164573714Y-84746176D01*
X164549091Y-84782271D01*
X164494179Y-84827273D01*
X164445003Y-84837266D01*
X162927783Y-84837266D01*
X162859662Y-84817264D01*
X162838688Y-84800361D01*
X161793393Y-83755066D01*
X161759367Y-83692754D01*
X161756488Y-83665971D01*
X161756488Y-82743682D01*
X161776490Y-82675561D01*
X161785614Y-82663113D01*
X161816780Y-82625641D01*
X161911446Y-82511817D01*
X162010992Y-82334065D01*
X162012848Y-82328598D01*
X162012850Y-82328593D01*
X162074622Y-82146618D01*
X162074623Y-82146613D01*
X162076478Y-82141149D01*
X162105711Y-81939529D01*
X162107237Y-81881266D01*
X162091986Y-81715282D01*
X162089125Y-81684146D01*
X162089124Y-81684143D01*
X162088596Y-81678392D01*
X162079148Y-81644893D01*
X162034863Y-81487872D01*
X162034862Y-81487870D01*
X162033295Y-81482313D01*
X162024261Y-81463993D01*
X162012071Y-81394052D01*
X162039630Y-81328623D01*
X162098188Y-81288479D01*
X162137267Y-81282266D01*
X164441541Y-81282266D01*
X164509662Y-81302268D01*
G37*
%TD.AperFunction*%
%TD*%
M02*
