M48
; DRILL file {KiCad (6.0.0)} date Fri Mar 18 23:01:21 2022
; FORMAT={-:-/ absolute / inch / decimal}
; #@! TF.CreationDate,2022-03-18T23:01:21-04:00
; #@! TF.GenerationSoftware,Kicad,Pcbnew,(6.0.0)
; #@! TF.FileFunction,Plated,1,2,PTH
FMAT,2
INCH
; #@! TA.AperFunction,Plated,PTH,ViaDrill
T1C0.0236
; #@! TA.AperFunction,Plated,PTH,ComponentDrill
T2C0.0315
; #@! TA.AperFunction,Plated,PTH,ComponentDrill
T3C0.0354
; #@! TA.AperFunction,Plated,PTH,ComponentDrill
T4C0.0394
; #@! TA.AperFunction,Plated,PTH,ComponentDrill
T5C0.1260
; #@! TA.AperFunction,Plated,PTH,ComponentDrill
T6C0.1260
%
G90
G05
T1
X5.8925Y-3.0763
X5.8925Y-3.2763
X5.8925Y-3.3763
X5.8925Y-3.5763
X6.054Y-3.2763
X6.054Y-3.3763
X6.2549Y-3.3763
X6.2749Y-3.4763
X6.2949Y-3.5763
X6.3149Y-3.6763
X6.4155Y-3.0763
X6.4155Y-3.2766
X6.5155Y-3.7755
X6.9099Y-2.9763
X6.9099Y-3.0763
X6.9099Y-3.1763
X6.9121Y-3.5763
X6.916Y-3.2763
X6.916Y-3.3763
X6.9847Y-3.6763
X6.9947Y-2.7643
X7.0536Y-3.4763
X7.0617Y-2.9011
X7.2625Y-4.0035
X7.327Y-2.9763
X7.3806Y-3.1763
X7.4239Y-3.4763
X7.4278Y-3.2763
X7.4278Y-3.6763
T2
X5.7975Y-2.7574
X5.7975Y-2.8559
X6.8077Y-2.7751
X6.9062Y-2.7751
X7.3097Y-3.4964
X7.3097Y-3.8964
T3
X7.1201Y-4.1334
X7.2201Y-4.1334
T4
X5.7925Y-2.9763
X5.7925Y-3.0763
X5.7925Y-3.1763
X5.7925Y-3.2763
X5.7925Y-3.3763
X5.7925Y-3.4763
X5.7925Y-3.5763
X5.7925Y-3.6763
X6.154Y-2.9763
X6.154Y-3.0763
X6.154Y-3.1763
X6.154Y-3.2763
X6.154Y-3.3763
X6.154Y-3.4763
X6.154Y-3.5763
X6.154Y-3.6763
X6.5155Y-2.9763
X6.5155Y-3.0763
X6.5155Y-3.1763
X6.5155Y-3.2763
X6.5155Y-3.3763
X6.5155Y-3.4763
X6.5155Y-3.5763
X6.5155Y-3.6763
X6.8087Y-2.9763
X6.8087Y-3.0763
X6.8087Y-3.1763
X6.8087Y-3.2763
X6.8087Y-3.3763
X6.8087Y-3.4763
X6.8087Y-3.5763
X6.8087Y-3.6763
X7.1201Y-2.5643
X7.1201Y-2.6643
X7.1201Y-2.7643
X7.2201Y-2.5643
X7.2201Y-2.6643
X7.2201Y-2.7643
X7.5316Y-2.9763
X7.5316Y-3.0763
X7.5316Y-3.1763
X7.5316Y-3.2763
X7.5316Y-3.3763
X7.5316Y-3.4763
X7.5316Y-3.5763
X7.5316Y-3.6763
T5
X6.8753Y-2.577
X6.8753Y-4.0745
X7.465Y-2.577
X7.465Y-4.0745
T6
X5.8592Y-2.577
X5.8592Y-4.0745
X6.154Y-2.577
X6.4488Y-2.577
X6.4488Y-4.0745
T0
M30
