%TF.GenerationSoftware,KiCad,Pcbnew,(6.0.0)*%
%TF.CreationDate,2022-03-21T01:30:51-04:00*%
%TF.ProjectId,JTAG_ISP-BOTH,4a544147-5f49-4535-902d-424f54482e6b,v5.1.0*%
%TF.SameCoordinates,Original*%
%TF.FileFunction,Profile,NP*%
%FSLAX46Y46*%
G04 Gerber Fmt 4.6, Leading zero omitted, Abs format (unit mm)*
G04 Created by KiCad (PCBNEW (6.0.0)) date 2022-03-21 01:30:51*
%MOMM*%
%LPD*%
G01*
G04 APERTURE LIST*
%TA.AperFunction,Profile*%
%ADD10C,0.150000*%
%TD*%
G04 APERTURE END LIST*
D10*
X124195686Y-78415341D02*
G75*
G03*
X125195686Y-79415341I999999J-1D01*
G01*
X125195686Y-57006673D02*
G75*
G03*
X124195686Y-58006673I-1J-999999D01*
G01*
X124195686Y-78415341D02*
X124195686Y-58006673D01*
X128811678Y-58006673D02*
G75*
G03*
X127811678Y-57006673I-999999J1D01*
G01*
X127811678Y-79415341D02*
G75*
G03*
X128811678Y-78415341I1J999999D01*
G01*
X127811678Y-79415341D02*
X125195686Y-79415341D01*
X128811678Y-58006673D02*
X128811678Y-78415341D01*
X125195686Y-57006673D02*
X127811678Y-57006673D01*
X138097670Y-88257866D02*
X138097670Y-48123346D01*
X138097670Y-48123346D02*
G75*
G03*
X135097670Y-45123346I-3000001J-1D01*
G01*
X123908662Y-88607877D02*
X123908662Y-90257866D01*
X115019672Y-48123346D02*
X115019672Y-88257866D01*
X126558662Y-85957877D02*
G75*
G03*
X123908662Y-88607877I0J-2650000D01*
G01*
X129208651Y-90257866D02*
G75*
G03*
X130208651Y-91257866I999999J-1D01*
G01*
X122908662Y-91257866D02*
G75*
G03*
X123908662Y-90257866I1J999999D01*
G01*
X118019672Y-45123346D02*
G75*
G03*
X115019672Y-48123346I1J-3000001D01*
G01*
X129208651Y-88607877D02*
G75*
G03*
X126558651Y-85957877I-2650000J0D01*
G01*
X135097670Y-91257866D02*
G75*
G03*
X138097670Y-88257866I-1J3000001D01*
G01*
X122908662Y-91257866D02*
X118019672Y-91257866D01*
X115019672Y-88257866D02*
G75*
G03*
X118019672Y-91257866I3000001J1D01*
G01*
X135097670Y-45123346D02*
X118019672Y-45123346D01*
X135097667Y-91257866D02*
X130208651Y-91257866D01*
X129208651Y-90257866D02*
X129208651Y-88607877D01*
X111897670Y-88257866D02*
X111897670Y-48121446D01*
X91819672Y-45121446D02*
G75*
G03*
X88819672Y-48121446I1J-3000001D01*
G01*
X102911676Y-46595528D02*
X97791345Y-46595528D01*
X108897670Y-45121434D02*
X91819676Y-45121434D01*
X96791345Y-55237266D02*
G75*
G03*
X97791345Y-56237266I999999J-1D01*
G01*
X103911676Y-55237266D02*
X103911676Y-47595528D01*
X97791345Y-46595528D02*
G75*
G03*
X96791345Y-47595528I-1J-999999D01*
G01*
X111897670Y-48121446D02*
G75*
G03*
X108897670Y-45121446I-3000001J-1D01*
G01*
X103911676Y-47595528D02*
G75*
G03*
X102911676Y-46595528I-999999J1D01*
G01*
X91819672Y-91257866D02*
X108897670Y-91257866D01*
X102911676Y-56237266D02*
G75*
G03*
X103911676Y-55237266I1J999999D01*
G01*
X88819672Y-88257866D02*
G75*
G03*
X91819672Y-91257866I3000001J1D01*
G01*
X96791345Y-47595528D02*
X96791345Y-55237266D01*
X108897670Y-91257866D02*
G75*
G03*
X111897670Y-88257866I-1J3000001D01*
G01*
X88819672Y-48121446D02*
X88819672Y-88257866D01*
X97791345Y-56237266D02*
X102911676Y-56237266D01*
M02*
