%TF.GenerationSoftware,KiCad,Pcbnew,(6.0.0)*%
%TF.CreationDate,2022-03-17T10:54:16-04:00*%
%TF.ProjectId,JTAG_ISP-BOTH,4a544147-5f49-4535-902d-424f54482e6b,v4.1.0*%
%TF.SameCoordinates,Original*%
%TF.FileFunction,Copper,L1,Top*%
%TF.FilePolarity,Positive*%
%FSLAX46Y46*%
G04 Gerber Fmt 4.6, Leading zero omitted, Abs format (unit mm)*
G04 Created by KiCad (PCBNEW (6.0.0)) date 2022-03-17 10:54:16*
%MOMM*%
%LPD*%
G01*
G04 APERTURE LIST*
%ADD10C,0.190500*%
%TA.AperFunction,NonConductor*%
%ADD11C,0.190500*%
%TD*%
%TA.AperFunction,EtchedComponent*%
%ADD12C,0.508000*%
%TD*%
%TA.AperFunction,ComponentPad*%
%ADD13C,3.200001*%
%TD*%
%TA.AperFunction,ComponentPad*%
%ADD14R,1.700000X1.700000*%
%TD*%
%TA.AperFunction,ComponentPad*%
%ADD15O,1.700000X1.700000*%
%TD*%
%TA.AperFunction,ComponentPad*%
%ADD16R,1.800000X1.800000*%
%TD*%
%TA.AperFunction,ComponentPad*%
%ADD17C,1.800000*%
%TD*%
%TA.AperFunction,ComponentPad*%
%ADD18C,1.600000*%
%TD*%
%TA.AperFunction,ComponentPad*%
%ADD19C,1.700000*%
%TD*%
%TA.AperFunction,ComponentPad*%
%ADD20O,1.600000X1.600000*%
%TD*%
%TA.AperFunction,ViaPad*%
%ADD21C,1.200000*%
%TD*%
%TA.AperFunction,Conductor*%
%ADD22C,0.508000*%
%TD*%
%TA.AperFunction,Conductor*%
%ADD23C,0.250000*%
%TD*%
G04 APERTURE END LIST*
D10*
D11*
X154924265Y-96611019D02*
X155577408Y-96611019D01*
X155250837Y-97754019D02*
X155250837Y-96611019D01*
X155958408Y-97645162D02*
X156012837Y-97699590D01*
X155958408Y-97754019D01*
X155903980Y-97699590D01*
X155958408Y-97645162D01*
X155958408Y-97754019D01*
X156502694Y-97754019D02*
X156502694Y-96611019D01*
X156774837Y-96611019D01*
X156938123Y-96665448D01*
X157046980Y-96774305D01*
X157101408Y-96883162D01*
X157155837Y-97100876D01*
X157155837Y-97264162D01*
X157101408Y-97481876D01*
X157046980Y-97590733D01*
X156938123Y-97699590D01*
X156774837Y-97754019D01*
X156502694Y-97754019D01*
X157645694Y-97645162D02*
X157700123Y-97699590D01*
X157645694Y-97754019D01*
X157591265Y-97699590D01*
X157645694Y-97645162D01*
X157645694Y-97754019D01*
X150814908Y-98560106D02*
X150869337Y-98505678D01*
X150978194Y-98451249D01*
X151250337Y-98451249D01*
X151359194Y-98505678D01*
X151413623Y-98560106D01*
X151468051Y-98668963D01*
X151468051Y-98777820D01*
X151413623Y-98941106D01*
X150760480Y-99594249D01*
X151468051Y-99594249D01*
X152175623Y-98451249D02*
X152284480Y-98451249D01*
X152393337Y-98505678D01*
X152447765Y-98560106D01*
X152502194Y-98668963D01*
X152556623Y-98886678D01*
X152556623Y-99158820D01*
X152502194Y-99376535D01*
X152447765Y-99485392D01*
X152393337Y-99539820D01*
X152284480Y-99594249D01*
X152175623Y-99594249D01*
X152066765Y-99539820D01*
X152012337Y-99485392D01*
X151957908Y-99376535D01*
X151903480Y-99158820D01*
X151903480Y-98886678D01*
X151957908Y-98668963D01*
X152012337Y-98560106D01*
X152066765Y-98505678D01*
X152175623Y-98451249D01*
X152992051Y-98560106D02*
X153046480Y-98505678D01*
X153155337Y-98451249D01*
X153427480Y-98451249D01*
X153536337Y-98505678D01*
X153590765Y-98560106D01*
X153645194Y-98668963D01*
X153645194Y-98777820D01*
X153590765Y-98941106D01*
X152937623Y-99594249D01*
X153645194Y-99594249D01*
X154080623Y-98560106D02*
X154135051Y-98505678D01*
X154243908Y-98451249D01*
X154516051Y-98451249D01*
X154624908Y-98505678D01*
X154679337Y-98560106D01*
X154733765Y-98668963D01*
X154733765Y-98777820D01*
X154679337Y-98941106D01*
X154026194Y-99594249D01*
X154733765Y-99594249D01*
X155223623Y-99158820D02*
X156094480Y-99158820D01*
X156856480Y-98451249D02*
X156965337Y-98451249D01*
X157074194Y-98505678D01*
X157128623Y-98560106D01*
X157183051Y-98668963D01*
X157237480Y-98886678D01*
X157237480Y-99158820D01*
X157183051Y-99376535D01*
X157128623Y-99485392D01*
X157074194Y-99539820D01*
X156965337Y-99594249D01*
X156856480Y-99594249D01*
X156747623Y-99539820D01*
X156693194Y-99485392D01*
X156638765Y-99376535D01*
X156584337Y-99158820D01*
X156584337Y-98886678D01*
X156638765Y-98668963D01*
X156693194Y-98560106D01*
X156747623Y-98505678D01*
X156856480Y-98451249D01*
X157618480Y-98451249D02*
X158326051Y-98451249D01*
X157945051Y-98886678D01*
X158108337Y-98886678D01*
X158217194Y-98941106D01*
X158271623Y-98995535D01*
X158326051Y-99104392D01*
X158326051Y-99376535D01*
X158271623Y-99485392D01*
X158217194Y-99539820D01*
X158108337Y-99594249D01*
X157781765Y-99594249D01*
X157672908Y-99539820D01*
X157618480Y-99485392D01*
X158815908Y-99158820D02*
X159686765Y-99158820D01*
X160829765Y-99594249D02*
X160176623Y-99594249D01*
X160503194Y-99594249D02*
X160503194Y-98451249D01*
X160394337Y-98614535D01*
X160285480Y-98723392D01*
X160176623Y-98777820D01*
X161809480Y-98451249D02*
X161591765Y-98451249D01*
X161482908Y-98505678D01*
X161428480Y-98560106D01*
X161319623Y-98723392D01*
X161265194Y-98941106D01*
X161265194Y-99376535D01*
X161319623Y-99485392D01*
X161374051Y-99539820D01*
X161482908Y-99594249D01*
X161700623Y-99594249D01*
X161809480Y-99539820D01*
X161863908Y-99485392D01*
X161918337Y-99376535D01*
X161918337Y-99104392D01*
X161863908Y-98995535D01*
X161809480Y-98941106D01*
X161700623Y-98886678D01*
X161482908Y-98886678D01*
X161374051Y-98941106D01*
X161319623Y-98995535D01*
X161265194Y-99104392D01*
D12*
%TO.C,REF\u002A\u002A*%
X154231621Y-75502068D02*
X152993625Y-74914058D01*
X152993625Y-76090068D02*
X154231630Y-75502068D01*
X153076623Y-75977063D02*
X153516623Y-75317063D01*
X152993625Y-76090068D02*
X152993625Y-74914058D01*
%TD*%
D13*
%TO.P,REF\u002A\u002A,*%
%TO.N,*%
X156421612Y-65323075D03*
%TD*%
D14*
%TO.P,J2,1,Pin_1*%
%TO.N,unconnected-(J2-Pad1)*%
X173223983Y-75465405D03*
D15*
%TO.P,J2,2,Pin_2*%
%TO.N,+5V*%
X173223983Y-78005405D03*
%TO.P,J2,3,Pin_3*%
%TO.N,unconnected-(J2-Pad3)*%
X173223983Y-80545405D03*
%TO.P,J2,4,Pin_4*%
%TO.N,GND*%
X173223983Y-83085405D03*
%TO.P,J2,5,Pin_5*%
%TO.N,unconnected-(J2-Pad5)*%
X173223983Y-85625405D03*
%TO.P,J2,6,Pin_6*%
%TO.N,MISO*%
X173223983Y-88165405D03*
%TO.P,J2,7,Pin_7*%
%TO.N,unconnected-(J2-Pad7)*%
X173223983Y-90705405D03*
%TO.P,J2,8,Pin_8*%
%TO.N,SCLK*%
X173223983Y-93245405D03*
%TD*%
D13*
%TO.P,REF\u002A\u002A,*%
%TO.N,*%
X174915979Y-65323211D03*
%TD*%
%TO.P,REF\u002A\u002A,*%
%TO.N,*%
X163910611Y-65323075D03*
%TD*%
D16*
%TO.P,D1,1,K*%
%TO.N,Net-(D1-Pad1)*%
X183674989Y-104857206D03*
D17*
%TO.P,D1,2,A*%
%TO.N,MISO*%
X181134989Y-104857206D03*
%TD*%
D18*
%TO.P,C1,1*%
%TO.N,+5V*%
X147366623Y-72407063D03*
%TO.P,C1,2*%
%TO.N,GND*%
X147366623Y-69907063D03*
%TD*%
D13*
%TO.P,REF\u002A\u002A,*%
%TO.N,*%
X148932613Y-65323075D03*
%TD*%
%TO.P,REF\u002A\u002A,*%
%TO.N,*%
X189893978Y-103359634D03*
%TD*%
%TO.P,REF\u002A\u002A,*%
%TO.N,*%
X148932613Y-103359495D03*
%TD*%
%TO.P,REF\u002A\u002A,*%
%TO.N,*%
X174915979Y-103359634D03*
%TD*%
%TO.P,REF\u002A\u002A,*%
%TO.N,*%
X189893978Y-65323211D03*
%TD*%
D18*
%TO.P,C1,1*%
%TO.N,+5V*%
X176543988Y-78009638D03*
%TO.P,C1,2*%
%TO.N,GND*%
X176543988Y-80509638D03*
%TD*%
D14*
%TO.P,JTAG1,1,#MCLR*%
%TO.N,N/C*%
X156421614Y-75465262D03*
D15*
%TO.P,JTAG1,2,VDD*%
%TO.N,+5V*%
X156421614Y-78005262D03*
%TO.P,JTAG1,3,GND*%
%TO.N,GND*%
X156421614Y-80545262D03*
%TO.P,JTAG1,4,TDO*%
%TO.N,N/C*%
X156421614Y-83085262D03*
%TO.P,JTAG1,5,TCK*%
X156421614Y-85625262D03*
%TO.P,JTAG1,6,#RESET*%
X156421614Y-88165262D03*
%TO.P,JTAG1,7,TDI*%
X156421614Y-90705262D03*
%TO.P,JTAG1,8,TMS*%
X156421614Y-93245262D03*
%TD*%
D13*
%TO.P,REF\u002A\u002A,*%
%TO.N,*%
X163910611Y-103359495D03*
%TD*%
D19*
%TO.P,J3,1,Pin_1*%
%TO.N,SCLK*%
X191585999Y-75465405D03*
D15*
%TO.P,J3,2,Pin_2*%
%TO.N,unconnected-(J3-Pad2)*%
X191585999Y-78005405D03*
%TO.P,J3,3,Pin_3*%
%TO.N,RESET*%
X191585999Y-80545405D03*
%TO.P,J3,4,Pin_4*%
%TO.N,unconnected-(J3-Pad4)*%
X191585999Y-83085405D03*
%TO.P,J3,5,Pin_5*%
%TO.N,MOSI*%
X191585999Y-85625405D03*
%TO.P,J3,6,Pin_6*%
%TO.N,unconnected-(J3-Pad6)*%
X191585999Y-88165405D03*
%TO.P,J3,7,Pin_7*%
%TO.N,unconnected-(J3-Pad7)*%
X191585999Y-90705405D03*
%TO.P,J3,8,Pin_8*%
%TO.N,unconnected-(J3-Pad8)*%
X191585999Y-93245405D03*
%TD*%
D14*
%TO.P,J1,1,Pin_1*%
%TO.N,MISO*%
X183674991Y-70082205D03*
D15*
%TO.P,J1,2,Pin_2*%
%TO.N,SCLK*%
X181134991Y-70082205D03*
%TO.P,J1,3,Pin_3*%
%TO.N,RESET*%
X183674991Y-67542205D03*
%TO.P,J1,4,Pin_4*%
%TO.N,GND*%
X181134991Y-67542205D03*
%TO.P,J1,5,Pin_5*%
%TO.N,MOSI*%
X183674991Y-65002205D03*
%TO.P,J1,6,Pin_6*%
%TO.N,+5V*%
X181134991Y-65002205D03*
%TD*%
D14*
%TO.P,J1,1,Pin_1*%
%TO.N,N/C*%
X147240612Y-75465255D03*
D15*
%TO.P,J1,2,Pin_2*%
%TO.N,+5V*%
X147240612Y-78005255D03*
%TO.P,J1,3,Pin_3*%
%TO.N,N/C*%
X147240612Y-80545255D03*
%TO.P,J1,4,Pin_4*%
%TO.N,GND*%
X147240612Y-83085255D03*
%TO.P,J1,5,Pin_5*%
%TO.N,N/C*%
X147240612Y-85625255D03*
%TO.P,J1,6,Pin_6*%
X147240612Y-88165255D03*
%TO.P,J1,7,Pin_7*%
X147240612Y-90705255D03*
%TO.P,J1,8,Pin_8*%
X147240612Y-93245255D03*
%TD*%
D19*
%TO.P,J2,1,Pin_1*%
%TO.N,N/C*%
X165602612Y-75465255D03*
D15*
%TO.P,J2,2,Pin_2*%
X165602612Y-78005255D03*
%TO.P,J2,3,Pin_3*%
X165602612Y-80545255D03*
%TO.P,J2,4,Pin_4*%
X165602612Y-83085255D03*
%TO.P,J2,5,Pin_5*%
X165602612Y-85625255D03*
%TO.P,J2,6,Pin_6*%
X165602612Y-88165255D03*
%TO.P,J2,7,Pin_7*%
X165602612Y-90705255D03*
%TO.P,J2,8,Pin_8*%
X165602612Y-93245255D03*
%TD*%
D18*
%TO.P,R1,1*%
%TO.N,Net-(D1-Pad1)*%
X185950000Y-97237206D03*
D20*
%TO.P,R1,2*%
%TO.N,GND*%
X185950000Y-87077206D03*
%TD*%
D21*
%TO.N,*%
X159492372Y-88165262D03*
X158984372Y-85625262D03*
X152334851Y-83085255D03*
X160508373Y-93245255D03*
X160000372Y-90705262D03*
X152334851Y-85625255D03*
%TO.N,+5V*%
X152334851Y-78005255D03*
%TO.N,GND*%
X162966623Y-78057063D03*
X183343988Y-80559638D03*
X163266623Y-83157063D03*
X188750000Y-83157206D03*
X177693988Y-90609638D03*
X150360611Y-90659495D03*
%TO.N,MISO*%
X179443988Y-86959638D03*
X179443988Y-75759638D03*
%TO.N,SCLK*%
X181150000Y-72807206D03*
%TO.N,RESET*%
X185543988Y-80559638D03*
%TO.N,MOSI*%
X186943988Y-81906905D03*
%TO.N,Net-(D1-Pad1)*%
X185950000Y-100057206D03*
%TD*%
D22*
%TO.N,*%
X161474815Y-75465255D02*
X165602612Y-75465255D01*
X163298431Y-85625255D02*
X165602612Y-85625255D01*
X160508373Y-90705255D02*
X161618431Y-90705255D01*
X160858424Y-88165262D02*
X159492372Y-88165262D01*
X160508373Y-93245255D02*
X160578431Y-93245255D01*
X162566623Y-86357063D02*
X163298431Y-85625255D01*
X161566623Y-81357063D02*
X161566623Y-85920901D01*
X162378431Y-80545255D02*
X161566623Y-81357063D01*
X147240612Y-93245255D02*
X151574851Y-93245255D01*
X150760611Y-87409495D02*
X150760611Y-83609495D01*
X160098424Y-85625262D02*
X160551103Y-85172583D01*
X161618431Y-90705255D02*
X162566623Y-89757063D01*
X161566623Y-85920901D02*
X161551103Y-85936421D01*
X160551103Y-76388967D02*
X161474815Y-75465255D01*
X150004851Y-88165255D02*
X150760611Y-87409495D01*
X147240612Y-88165255D02*
X150004851Y-88165255D01*
X160551103Y-85172583D02*
X160551103Y-76388967D01*
X165602612Y-80545255D02*
X162378431Y-80545255D01*
X151284851Y-83085255D02*
X152334851Y-83085255D01*
X158984372Y-85625262D02*
X160098424Y-85625262D01*
X152334851Y-92485255D02*
X152334851Y-85625255D01*
X161551103Y-87472583D02*
X160858424Y-88165262D01*
X162566623Y-89757063D02*
X162566623Y-86357063D01*
X160578431Y-93245255D02*
X163118431Y-90705255D01*
X150760611Y-83609495D02*
X151284851Y-83085255D01*
X151574851Y-93245255D02*
X152334851Y-92485255D01*
X161551103Y-85936421D02*
X161551103Y-87472583D01*
X163118431Y-90705255D02*
X165602612Y-90705255D01*
%TO.N,+5V*%
X181134991Y-65002205D02*
X179355001Y-65002205D01*
X176543988Y-75859638D02*
X176543988Y-78009638D01*
X147240612Y-78005255D02*
X152334851Y-78005255D01*
X178500000Y-73903626D02*
X176543988Y-75859638D01*
X179355001Y-65002205D02*
X178500000Y-65857206D01*
X178500000Y-65857206D02*
X178500000Y-73903626D01*
%TO.N,MISO*%
X179443988Y-86959638D02*
X179443988Y-104251194D01*
X179443988Y-104251194D02*
X180050000Y-104857206D01*
X183674991Y-73990641D02*
X183674991Y-70082205D01*
X180543988Y-74659638D02*
X183043988Y-74659638D01*
X180050000Y-104857206D02*
X181134989Y-104857206D01*
X179443988Y-75759638D02*
X180543988Y-74659638D01*
X183043988Y-74659638D02*
X183693988Y-74009638D01*
X183693988Y-74009638D02*
X183674991Y-73990641D01*
%TO.N,SCLK*%
X181134991Y-70082205D02*
X181134991Y-72792208D01*
D23*
X181134991Y-72792197D02*
X181150000Y-72807206D01*
D22*
%TO.N,RESET*%
X185543988Y-80559638D02*
X185543988Y-68159638D01*
X184926555Y-67542205D02*
X183674991Y-67542205D01*
X185543988Y-68159638D02*
X184926555Y-67542205D01*
%TO.N,MOSI*%
X185986555Y-65002205D02*
X183674991Y-65002205D01*
X186905499Y-81868416D02*
X186905499Y-65921149D01*
X186905499Y-65921149D02*
X185986555Y-65002205D01*
X186943988Y-81906905D02*
X186905499Y-81868416D01*
%TO.N,Net-(D1-Pad1)*%
X185950000Y-97237206D02*
X185950000Y-100057206D01*
%TD*%
%TA.AperFunction,Conductor*%
%TO.N,GND*%
G36*
X154974459Y-61801077D02*
G01*
X155020952Y-61854733D01*
X155031731Y-61894727D01*
X155035566Y-61933670D01*
X155078908Y-62076556D01*
X155081823Y-62082010D01*
X155081824Y-62082012D01*
X155106600Y-62128365D01*
X155149293Y-62208240D01*
X155153222Y-62213028D01*
X155153223Y-62213029D01*
X155240086Y-62318875D01*
X155240090Y-62318879D01*
X155244016Y-62323663D01*
X155359437Y-62418387D01*
X155491120Y-62488774D01*
X155634005Y-62532118D01*
X155704913Y-62539102D01*
X155727930Y-62541369D01*
X155736485Y-62542508D01*
X155765268Y-62547351D01*
X155765273Y-62547351D01*
X155770061Y-62548157D01*
X155776360Y-62548234D01*
X155777741Y-62548251D01*
X155777745Y-62548251D01*
X155782600Y-62548310D01*
X155810188Y-62544359D01*
X155828051Y-62543086D01*
X157007415Y-62543086D01*
X157028318Y-62544832D01*
X157048082Y-62548157D01*
X157054220Y-62548232D01*
X157055756Y-62548251D01*
X157055761Y-62548251D01*
X157060621Y-62548310D01*
X157065434Y-62547621D01*
X157065446Y-62547620D01*
X157092682Y-62543719D01*
X157098178Y-62543055D01*
X157209216Y-62532119D01*
X157215134Y-62530324D01*
X157215138Y-62530323D01*
X157346177Y-62490573D01*
X157346180Y-62490572D01*
X157352100Y-62488776D01*
X157483783Y-62418390D01*
X157599204Y-62323667D01*
X157693927Y-62208246D01*
X157764313Y-62076563D01*
X157766112Y-62070634D01*
X157805860Y-61939601D01*
X157805861Y-61939597D01*
X157807656Y-61933679D01*
X157811492Y-61894734D01*
X157838075Y-61828903D01*
X157896030Y-61787893D01*
X157936885Y-61781086D01*
X164911353Y-61781086D01*
X164930738Y-61782586D01*
X164945468Y-61784880D01*
X164945472Y-61784880D01*
X164954341Y-61786261D01*
X164971510Y-61784016D01*
X164995450Y-61783183D01*
X165253381Y-61798785D01*
X165268485Y-61800619D01*
X165339259Y-61813589D01*
X165549490Y-61852115D01*
X165564252Y-61855753D01*
X165837019Y-61940750D01*
X165851238Y-61946144D01*
X166111751Y-62063391D01*
X166125220Y-62070460D01*
X166369706Y-62218257D01*
X166382228Y-62226900D01*
X166607118Y-62403091D01*
X166618506Y-62413181D01*
X166820505Y-62615180D01*
X166830595Y-62626568D01*
X167006786Y-62851458D01*
X167015429Y-62863980D01*
X167163226Y-63108466D01*
X167170295Y-63121935D01*
X167262679Y-63327204D01*
X167287541Y-63382445D01*
X167292936Y-63396667D01*
X167351758Y-63585432D01*
X167377932Y-63669428D01*
X167381571Y-63684196D01*
X167396817Y-63767388D01*
X167433067Y-63965201D01*
X167434901Y-63980305D01*
X167450066Y-64231004D01*
X167448809Y-64257714D01*
X167448806Y-64257934D01*
X167447425Y-64266805D01*
X167448589Y-64275707D01*
X167448589Y-64275710D01*
X167451547Y-64298326D01*
X167452611Y-64314664D01*
X167452611Y-104360167D01*
X167451111Y-104379551D01*
X167447425Y-104403225D01*
X167449065Y-104415765D01*
X167449670Y-104420392D01*
X167450503Y-104444334D01*
X167434901Y-104702265D01*
X167433067Y-104717369D01*
X167428180Y-104744037D01*
X167393602Y-104932728D01*
X167381573Y-104998368D01*
X167377933Y-105013136D01*
X167302828Y-105254158D01*
X167292937Y-105285899D01*
X167287542Y-105300122D01*
X167211307Y-105469511D01*
X167170297Y-105560631D01*
X167163226Y-105574104D01*
X167015429Y-105818590D01*
X167006786Y-105831112D01*
X166830595Y-106056002D01*
X166820505Y-106067390D01*
X166618506Y-106269389D01*
X166607118Y-106279479D01*
X166382228Y-106455670D01*
X166369706Y-106464313D01*
X166125220Y-106612110D01*
X166111751Y-106619179D01*
X165851241Y-106736425D01*
X165837019Y-106741820D01*
X165564252Y-106826817D01*
X165549490Y-106830455D01*
X165339259Y-106868981D01*
X165268485Y-106881951D01*
X165253381Y-106883785D01*
X165002682Y-106898950D01*
X164975972Y-106897693D01*
X164975752Y-106897690D01*
X164966881Y-106896309D01*
X164957979Y-106897473D01*
X164957976Y-106897473D01*
X164935360Y-106900431D01*
X164919022Y-106901495D01*
X160120919Y-106901495D01*
X160101535Y-106899995D01*
X160086734Y-106897690D01*
X160086730Y-106897690D01*
X160077861Y-106896309D01*
X160068959Y-106897473D01*
X160068955Y-106897473D01*
X160068859Y-106897486D01*
X160038422Y-106897757D01*
X159976217Y-106890749D01*
X159948710Y-106884471D01*
X159871520Y-106857461D01*
X159846101Y-106845219D01*
X159776854Y-106801708D01*
X159754795Y-106784116D01*
X159696971Y-106726292D01*
X159679379Y-106704233D01*
X159635868Y-106634986D01*
X159623626Y-106609565D01*
X159596617Y-106532378D01*
X159590338Y-106504871D01*
X159584070Y-106449244D01*
X159583287Y-106433598D01*
X159583396Y-106424640D01*
X159584778Y-106415766D01*
X159580656Y-106384244D01*
X159579592Y-106367907D01*
X159579592Y-104812713D01*
X159581338Y-104791809D01*
X159583856Y-104776841D01*
X159584663Y-104772045D01*
X159584816Y-104759506D01*
X159584125Y-104754681D01*
X159584067Y-104753795D01*
X159583115Y-104744037D01*
X159567408Y-104444334D01*
X159566602Y-104428952D01*
X159565954Y-104424856D01*
X159536560Y-104239274D01*
X159514821Y-104102020D01*
X159429150Y-103782291D01*
X159395371Y-103694292D01*
X159311712Y-103476354D01*
X159310528Y-103473269D01*
X159241281Y-103337364D01*
X161797300Y-103337364D01*
X161813849Y-103624378D01*
X161814674Y-103628583D01*
X161814675Y-103628591D01*
X161844224Y-103779201D01*
X161869197Y-103906490D01*
X161870584Y-103910540D01*
X161870585Y-103910545D01*
X161936142Y-104102020D01*
X161962321Y-104178481D01*
X161964248Y-104182312D01*
X162086235Y-104424856D01*
X162091496Y-104435317D01*
X162254332Y-104672245D01*
X162257219Y-104675418D01*
X162257220Y-104675419D01*
X162345143Y-104772045D01*
X162447817Y-104884883D01*
X162451112Y-104887638D01*
X162451113Y-104887639D01*
X162601214Y-105013142D01*
X162668370Y-105069293D01*
X162911909Y-105222066D01*
X163173929Y-105340372D01*
X163178048Y-105341592D01*
X163445468Y-105420806D01*
X163445473Y-105420807D01*
X163449581Y-105422024D01*
X163453815Y-105422672D01*
X163453820Y-105422673D01*
X163702422Y-105460714D01*
X163733764Y-105465510D01*
X163880096Y-105467809D01*
X164016928Y-105469959D01*
X164016934Y-105469959D01*
X164021219Y-105470026D01*
X164025471Y-105469511D01*
X164025479Y-105469511D01*
X164302367Y-105436003D01*
X164302372Y-105436002D01*
X164306628Y-105435487D01*
X164584708Y-105362534D01*
X164850315Y-105252516D01*
X165098533Y-105107469D01*
X165324770Y-104930077D01*
X165365896Y-104887639D01*
X165482624Y-104767184D01*
X165524838Y-104723623D01*
X165527371Y-104720175D01*
X165527375Y-104720170D01*
X165692498Y-104495381D01*
X165695036Y-104491926D01*
X165716950Y-104451566D01*
X165830165Y-104243050D01*
X165830166Y-104243048D01*
X165832215Y-104239274D01*
X165933836Y-103970343D01*
X165976174Y-103785483D01*
X165997060Y-103694292D01*
X165997061Y-103694288D01*
X165998018Y-103690108D01*
X166018953Y-103455539D01*
X166023354Y-103406221D01*
X166023354Y-103406219D01*
X166023574Y-103403755D01*
X166024038Y-103359495D01*
X166022238Y-103333093D01*
X166004776Y-103076947D01*
X166004775Y-103076941D01*
X166004484Y-103072670D01*
X165999947Y-103050759D01*
X165947054Y-102795350D01*
X165946185Y-102791153D01*
X165850218Y-102520152D01*
X165718361Y-102264683D01*
X165705099Y-102245812D01*
X165555515Y-102032977D01*
X165553052Y-102029472D01*
X165357351Y-101818873D01*
X165134879Y-101636782D01*
X164889753Y-101486568D01*
X164871659Y-101478625D01*
X164630441Y-101372738D01*
X164626509Y-101371012D01*
X164600574Y-101363624D01*
X164354145Y-101293427D01*
X164354146Y-101293427D01*
X164350017Y-101292251D01*
X164137315Y-101261980D01*
X164069647Y-101252349D01*
X164069645Y-101252349D01*
X164065395Y-101251744D01*
X164061106Y-101251722D01*
X164061099Y-101251721D01*
X163782194Y-101250260D01*
X163782187Y-101250260D01*
X163777908Y-101250238D01*
X163773664Y-101250797D01*
X163773660Y-101250797D01*
X163648271Y-101267305D01*
X163492877Y-101287763D01*
X163488737Y-101288896D01*
X163488735Y-101288896D01*
X163411922Y-101309910D01*
X163215575Y-101363624D01*
X163211627Y-101365308D01*
X162955087Y-101474732D01*
X162955083Y-101474734D01*
X162951135Y-101476418D01*
X162826571Y-101550968D01*
X162708132Y-101621852D01*
X162708128Y-101621855D01*
X162704450Y-101624056D01*
X162480083Y-101803808D01*
X162282188Y-102012346D01*
X162114425Y-102245812D01*
X161979899Y-102499887D01*
X161881100Y-102769868D01*
X161819856Y-103050759D01*
X161797300Y-103337364D01*
X159241281Y-103337364D01*
X159160254Y-103178339D01*
X158979974Y-102900733D01*
X158771664Y-102643492D01*
X158537606Y-102409434D01*
X158280365Y-102201124D01*
X158002759Y-102020844D01*
X157707829Y-101870570D01*
X157398807Y-101751948D01*
X157079078Y-101666277D01*
X156878718Y-101634543D01*
X156755394Y-101615010D01*
X156755386Y-101615009D01*
X156752146Y-101614496D01*
X156453384Y-101598838D01*
X156439070Y-101597264D01*
X156439032Y-101597258D01*
X156434142Y-101596435D01*
X156421603Y-101596282D01*
X156421592Y-101596282D01*
X156417151Y-101596918D01*
X156416743Y-101596947D01*
X156406120Y-101597984D01*
X156091049Y-101614496D01*
X156087809Y-101615009D01*
X156087801Y-101615010D01*
X155964477Y-101634543D01*
X155764117Y-101666277D01*
X155444388Y-101751948D01*
X155135366Y-101870570D01*
X154840436Y-102020844D01*
X154562830Y-102201124D01*
X154305589Y-102409434D01*
X154071531Y-102643492D01*
X153863221Y-102900733D01*
X153682941Y-103178339D01*
X153532667Y-103473269D01*
X153531483Y-103476354D01*
X153447825Y-103694292D01*
X153414045Y-103782291D01*
X153328374Y-104102020D01*
X153306635Y-104239274D01*
X153277242Y-104424856D01*
X153276593Y-104428952D01*
X153275787Y-104444334D01*
X153260534Y-104735376D01*
X153259826Y-104742201D01*
X153259800Y-104744358D01*
X153258417Y-104753236D01*
X153259582Y-104762143D01*
X153262539Y-104784757D01*
X153263603Y-104801095D01*
X153263603Y-106360168D01*
X153262103Y-106379552D01*
X153259798Y-106394353D01*
X153259798Y-106394357D01*
X153258417Y-106403226D01*
X153259581Y-106412128D01*
X153259581Y-106412132D01*
X153259594Y-106412228D01*
X153259865Y-106442665D01*
X153252857Y-106504870D01*
X153246578Y-106532380D01*
X153219569Y-106609566D01*
X153207327Y-106634986D01*
X153163816Y-106704233D01*
X153146224Y-106726292D01*
X153088400Y-106784116D01*
X153066341Y-106801708D01*
X152997094Y-106845219D01*
X152971673Y-106857461D01*
X152894486Y-106884470D01*
X152866979Y-106890749D01*
X152846851Y-106893017D01*
X152811347Y-106897017D01*
X152795706Y-106897800D01*
X152786748Y-106897691D01*
X152777874Y-106896309D01*
X152746353Y-106900431D01*
X152730015Y-106901495D01*
X147931941Y-106901495D01*
X147912556Y-106899995D01*
X147897755Y-106897690D01*
X147897752Y-106897690D01*
X147888883Y-106896309D01*
X147871714Y-106898554D01*
X147847774Y-106899387D01*
X147589843Y-106883785D01*
X147574739Y-106881951D01*
X147503965Y-106868981D01*
X147293734Y-106830455D01*
X147278972Y-106826817D01*
X147006205Y-106741820D01*
X146991983Y-106736425D01*
X146731473Y-106619179D01*
X146718004Y-106612110D01*
X146473518Y-106464313D01*
X146460996Y-106455670D01*
X146236106Y-106279479D01*
X146224718Y-106269389D01*
X146022719Y-106067390D01*
X146012629Y-106056002D01*
X145836438Y-105831112D01*
X145827795Y-105818590D01*
X145679998Y-105574104D01*
X145672927Y-105560631D01*
X145631918Y-105469511D01*
X145555682Y-105300122D01*
X145550287Y-105285899D01*
X145540396Y-105254158D01*
X145465291Y-105013136D01*
X145461651Y-104998368D01*
X145449623Y-104932728D01*
X145415044Y-104744037D01*
X145410157Y-104717369D01*
X145408323Y-104702265D01*
X145393158Y-104451566D01*
X145394415Y-104424856D01*
X145394418Y-104424636D01*
X145395799Y-104415765D01*
X145394160Y-104403225D01*
X145391677Y-104384244D01*
X145390613Y-104367906D01*
X145390613Y-103337364D01*
X146819302Y-103337364D01*
X146835851Y-103624378D01*
X146836676Y-103628583D01*
X146836677Y-103628591D01*
X146866226Y-103779201D01*
X146891199Y-103906490D01*
X146892586Y-103910540D01*
X146892587Y-103910545D01*
X146958144Y-104102020D01*
X146984323Y-104178481D01*
X146986250Y-104182312D01*
X147108237Y-104424856D01*
X147113498Y-104435317D01*
X147276334Y-104672245D01*
X147279221Y-104675418D01*
X147279222Y-104675419D01*
X147367145Y-104772045D01*
X147469819Y-104884883D01*
X147473114Y-104887638D01*
X147473115Y-104887639D01*
X147623216Y-105013142D01*
X147690372Y-105069293D01*
X147933911Y-105222066D01*
X148195931Y-105340372D01*
X148200050Y-105341592D01*
X148467470Y-105420806D01*
X148467475Y-105420807D01*
X148471583Y-105422024D01*
X148475817Y-105422672D01*
X148475822Y-105422673D01*
X148724424Y-105460714D01*
X148755766Y-105465510D01*
X148902098Y-105467809D01*
X149038930Y-105469959D01*
X149038936Y-105469959D01*
X149043221Y-105470026D01*
X149047473Y-105469511D01*
X149047481Y-105469511D01*
X149324369Y-105436003D01*
X149324374Y-105436002D01*
X149328630Y-105435487D01*
X149606710Y-105362534D01*
X149872317Y-105252516D01*
X150120535Y-105107469D01*
X150346772Y-104930077D01*
X150387898Y-104887639D01*
X150504626Y-104767184D01*
X150546840Y-104723623D01*
X150549373Y-104720175D01*
X150549377Y-104720170D01*
X150714500Y-104495381D01*
X150717038Y-104491926D01*
X150738952Y-104451566D01*
X150852167Y-104243050D01*
X150852168Y-104243048D01*
X150854217Y-104239274D01*
X150955838Y-103970343D01*
X150998176Y-103785483D01*
X151019062Y-103694292D01*
X151019063Y-103694288D01*
X151020020Y-103690108D01*
X151040955Y-103455539D01*
X151045356Y-103406221D01*
X151045356Y-103406219D01*
X151045576Y-103403755D01*
X151046040Y-103359495D01*
X151044240Y-103333093D01*
X151026778Y-103076947D01*
X151026777Y-103076941D01*
X151026486Y-103072670D01*
X151021949Y-103050759D01*
X150969056Y-102795350D01*
X150968187Y-102791153D01*
X150872220Y-102520152D01*
X150740363Y-102264683D01*
X150727101Y-102245812D01*
X150577517Y-102032977D01*
X150575054Y-102029472D01*
X150379353Y-101818873D01*
X150156881Y-101636782D01*
X149911755Y-101486568D01*
X149893661Y-101478625D01*
X149652443Y-101372738D01*
X149648511Y-101371012D01*
X149622576Y-101363624D01*
X149376147Y-101293427D01*
X149376148Y-101293427D01*
X149372019Y-101292251D01*
X149159317Y-101261980D01*
X149091649Y-101252349D01*
X149091647Y-101252349D01*
X149087397Y-101251744D01*
X149083108Y-101251722D01*
X149083101Y-101251721D01*
X148804196Y-101250260D01*
X148804189Y-101250260D01*
X148799910Y-101250238D01*
X148795666Y-101250797D01*
X148795662Y-101250797D01*
X148670273Y-101267305D01*
X148514879Y-101287763D01*
X148510739Y-101288896D01*
X148510737Y-101288896D01*
X148433924Y-101309910D01*
X148237577Y-101363624D01*
X148233629Y-101365308D01*
X147977089Y-101474732D01*
X147977085Y-101474734D01*
X147973137Y-101476418D01*
X147848573Y-101550968D01*
X147730134Y-101621852D01*
X147730130Y-101621855D01*
X147726452Y-101624056D01*
X147502085Y-101803808D01*
X147304190Y-102012346D01*
X147136427Y-102245812D01*
X147001901Y-102499887D01*
X146903102Y-102769868D01*
X146841858Y-103050759D01*
X146819302Y-103337364D01*
X145390613Y-103337364D01*
X145390613Y-100941043D01*
X149843945Y-100941043D01*
X162889302Y-100941043D01*
X162889302Y-95373083D01*
X149843945Y-95373083D01*
X149843945Y-100941043D01*
X145390613Y-100941043D01*
X145390613Y-93211950D01*
X145877863Y-93211950D01*
X145878160Y-93217103D01*
X145878160Y-93217106D01*
X145884075Y-93319686D01*
X145890722Y-93434970D01*
X145891859Y-93440016D01*
X145891860Y-93440022D01*
X145906535Y-93505138D01*
X145939834Y-93652894D01*
X145998200Y-93796634D01*
X146013455Y-93834201D01*
X146023878Y-93859871D01*
X146065428Y-93927674D01*
X146131891Y-94036132D01*
X146140599Y-94050343D01*
X146286862Y-94219193D01*
X146390570Y-94305293D01*
X146451827Y-94356149D01*
X146458738Y-94361887D01*
X146651612Y-94474593D01*
X146656437Y-94476435D01*
X146656438Y-94476436D01*
X146729224Y-94504230D01*
X146860304Y-94554285D01*
X146865372Y-94555316D01*
X146865375Y-94555317D01*
X146972629Y-94577138D01*
X147079209Y-94598822D01*
X147084384Y-94599012D01*
X147084386Y-94599012D01*
X147297285Y-94606819D01*
X147297289Y-94606819D01*
X147302449Y-94607008D01*
X147307569Y-94606352D01*
X147307571Y-94606352D01*
X147518900Y-94579280D01*
X147518901Y-94579280D01*
X147524028Y-94578623D01*
X147528978Y-94577138D01*
X147733041Y-94515916D01*
X147733046Y-94515914D01*
X147737996Y-94514429D01*
X147938606Y-94416151D01*
X148120472Y-94286428D01*
X148147560Y-94259435D01*
X148275047Y-94132392D01*
X148278708Y-94128744D01*
X148281724Y-94124547D01*
X148327941Y-94060229D01*
X148383936Y-94016581D01*
X148430264Y-94007755D01*
X151507475Y-94007755D01*
X151526425Y-94009188D01*
X151540824Y-94011379D01*
X151540830Y-94011379D01*
X151548059Y-94012479D01*
X151555351Y-94011886D01*
X151555354Y-94011886D01*
X151601034Y-94008170D01*
X151611249Y-94007755D01*
X151619376Y-94007755D01*
X151623012Y-94007331D01*
X151623014Y-94007331D01*
X151626466Y-94006928D01*
X151647775Y-94004444D01*
X151652095Y-94004017D01*
X151725277Y-93998064D01*
X151732239Y-93995808D01*
X151738227Y-93994612D01*
X151744184Y-93993204D01*
X151751458Y-93992356D01*
X151758340Y-93989858D01*
X151758344Y-93989857D01*
X151820458Y-93967310D01*
X151824562Y-93965900D01*
X151894426Y-93943268D01*
X151900689Y-93939468D01*
X151906231Y-93936930D01*
X151911707Y-93934188D01*
X151918592Y-93931689D01*
X151979983Y-93891440D01*
X151983651Y-93889125D01*
X152046432Y-93851028D01*
X152050637Y-93847314D01*
X152050640Y-93847312D01*
X152054856Y-93843588D01*
X152054882Y-93843617D01*
X152057813Y-93841017D01*
X152061167Y-93838213D01*
X152067286Y-93834201D01*
X152120840Y-93777668D01*
X152123217Y-93775227D01*
X152686487Y-93211957D01*
X155058865Y-93211957D01*
X155059162Y-93217106D01*
X155059162Y-93217113D01*
X155064624Y-93311845D01*
X155071724Y-93434977D01*
X155072861Y-93440022D01*
X155072862Y-93440029D01*
X155088768Y-93510607D01*
X155120836Y-93652901D01*
X155181329Y-93801879D01*
X155199778Y-93847312D01*
X155204880Y-93859878D01*
X155224221Y-93891440D01*
X155298394Y-94012479D01*
X155321601Y-94050350D01*
X155467864Y-94219200D01*
X155639740Y-94361894D01*
X155832614Y-94474600D01*
X156041306Y-94554292D01*
X156046374Y-94555323D01*
X156046377Y-94555324D01*
X156153597Y-94577138D01*
X156260211Y-94598829D01*
X156265386Y-94599019D01*
X156265388Y-94599019D01*
X156478287Y-94606826D01*
X156478291Y-94606826D01*
X156483451Y-94607015D01*
X156488571Y-94606359D01*
X156488573Y-94606359D01*
X156699902Y-94579287D01*
X156699903Y-94579287D01*
X156705030Y-94578630D01*
X156710003Y-94577138D01*
X156914043Y-94515923D01*
X156914048Y-94515921D01*
X156918998Y-94514436D01*
X157119608Y-94416158D01*
X157301474Y-94286435D01*
X157459710Y-94128751D01*
X157470584Y-94113619D01*
X157587049Y-93951539D01*
X157590067Y-93947339D01*
X157595212Y-93936930D01*
X157686750Y-93751715D01*
X157686753Y-93751708D01*
X157689044Y-93747073D01*
X157721514Y-93640202D01*
X157752479Y-93538285D01*
X157752481Y-93538278D01*
X157753984Y-93533331D01*
X157783143Y-93311852D01*
X157783347Y-93303518D01*
X157784688Y-93248627D01*
X157784688Y-93248620D01*
X157784770Y-93245262D01*
X157766466Y-93022623D01*
X157712045Y-92805964D01*
X157622968Y-92601102D01*
X157546406Y-92482755D01*
X157504436Y-92417879D01*
X157504431Y-92417872D01*
X157501628Y-92413539D01*
X157351284Y-92248313D01*
X157347233Y-92245114D01*
X157347229Y-92245110D01*
X157180028Y-92113062D01*
X157180024Y-92113060D01*
X157175973Y-92109860D01*
X157134667Y-92087058D01*
X157084698Y-92036626D01*
X157069926Y-91967183D01*
X157095042Y-91900778D01*
X157122394Y-91874171D01*
X157166217Y-91842912D01*
X157301474Y-91746435D01*
X157328562Y-91719442D01*
X157456049Y-91592399D01*
X157459710Y-91588751D01*
X157470579Y-91573626D01*
X157587049Y-91411539D01*
X157590067Y-91407339D01*
X157689044Y-91207073D01*
X157753984Y-90993331D01*
X157783143Y-90771852D01*
X157784770Y-90705262D01*
X157766466Y-90482623D01*
X157712045Y-90265964D01*
X157622968Y-90061102D01*
X157546406Y-89942755D01*
X157504436Y-89877879D01*
X157504431Y-89877872D01*
X157501628Y-89873539D01*
X157351284Y-89708313D01*
X157347233Y-89705114D01*
X157347229Y-89705110D01*
X157180028Y-89573062D01*
X157180024Y-89573060D01*
X157175973Y-89569860D01*
X157134667Y-89547058D01*
X157084698Y-89496626D01*
X157069926Y-89427183D01*
X157095042Y-89360778D01*
X157122394Y-89334171D01*
X157166217Y-89302912D01*
X157301474Y-89206435D01*
X157328562Y-89179442D01*
X157456049Y-89052399D01*
X157459710Y-89048751D01*
X157470579Y-89033626D01*
X157587049Y-88871539D01*
X157590067Y-88867339D01*
X157595212Y-88856930D01*
X157686750Y-88671715D01*
X157686753Y-88671708D01*
X157689044Y-88667073D01*
X157753984Y-88453331D01*
X157783143Y-88231852D01*
X157784770Y-88165262D01*
X157766466Y-87942623D01*
X157712045Y-87725964D01*
X157622968Y-87521102D01*
X157546876Y-87403482D01*
X157504436Y-87337879D01*
X157504431Y-87337872D01*
X157501628Y-87333539D01*
X157351284Y-87168313D01*
X157347233Y-87165114D01*
X157347229Y-87165110D01*
X157180028Y-87033062D01*
X157180024Y-87033060D01*
X157175973Y-87029860D01*
X157134667Y-87007058D01*
X157084698Y-86956626D01*
X157069926Y-86887183D01*
X157095042Y-86820778D01*
X157122394Y-86794171D01*
X157166217Y-86762912D01*
X157301474Y-86666435D01*
X157328562Y-86639442D01*
X157456049Y-86512399D01*
X157459710Y-86508751D01*
X157470579Y-86493626D01*
X157587049Y-86331539D01*
X157590067Y-86327339D01*
X157595001Y-86317357D01*
X157686750Y-86131715D01*
X157686753Y-86131708D01*
X157689044Y-86127073D01*
X157714285Y-86043996D01*
X157753226Y-85984632D01*
X157818080Y-85955745D01*
X157888256Y-85966507D01*
X157941474Y-86013500D01*
X157949269Y-86027874D01*
X157997141Y-86131715D01*
X158020270Y-86181886D01*
X158137851Y-86348259D01*
X158283782Y-86490419D01*
X158288578Y-86493624D01*
X158288581Y-86493626D01*
X158316677Y-86512399D01*
X158453175Y-86603604D01*
X158458478Y-86605882D01*
X158458481Y-86605884D01*
X158599401Y-86666428D01*
X158640359Y-86684025D01*
X158713189Y-86700505D01*
X158833427Y-86727712D01*
X158833432Y-86727713D01*
X158839064Y-86728987D01*
X158844835Y-86729214D01*
X158844837Y-86729214D01*
X158907842Y-86731689D01*
X159042635Y-86736985D01*
X159244255Y-86707752D01*
X159249719Y-86705897D01*
X159249724Y-86705896D01*
X159431699Y-86644124D01*
X159431704Y-86644122D01*
X159437171Y-86642266D01*
X159614923Y-86542720D01*
X159766220Y-86416888D01*
X159831383Y-86388707D01*
X159846788Y-86387762D01*
X160031048Y-86387762D01*
X160049998Y-86389195D01*
X160064397Y-86391386D01*
X160064403Y-86391386D01*
X160071632Y-86392486D01*
X160078924Y-86391893D01*
X160078927Y-86391893D01*
X160124607Y-86388177D01*
X160134822Y-86387762D01*
X160142949Y-86387762D01*
X160146585Y-86387338D01*
X160146587Y-86387338D01*
X160150039Y-86386935D01*
X160171348Y-86384451D01*
X160175668Y-86384024D01*
X160248850Y-86378071D01*
X160255812Y-86375815D01*
X160261800Y-86374619D01*
X160267757Y-86373211D01*
X160275031Y-86372363D01*
X160281913Y-86369865D01*
X160281917Y-86369864D01*
X160344031Y-86347317D01*
X160348135Y-86345907D01*
X160417999Y-86323275D01*
X160424262Y-86319475D01*
X160429804Y-86316937D01*
X160435280Y-86314195D01*
X160442165Y-86311696D01*
X160503556Y-86271447D01*
X160507224Y-86269132D01*
X160570005Y-86231035D01*
X160574210Y-86227321D01*
X160574213Y-86227319D01*
X160578429Y-86223595D01*
X160578455Y-86223624D01*
X160581424Y-86220992D01*
X160581819Y-86220662D01*
X160646921Y-86192337D01*
X160717002Y-86203705D01*
X160769811Y-86251157D01*
X160788603Y-86317357D01*
X160788603Y-87104555D01*
X160768601Y-87172676D01*
X160751698Y-87193650D01*
X160579491Y-87365857D01*
X160517179Y-87399883D01*
X160490396Y-87402762D01*
X160349962Y-87402762D01*
X160281841Y-87382760D01*
X160264433Y-87369286D01*
X160174320Y-87285986D01*
X160170075Y-87282062D01*
X160029950Y-87193650D01*
X160002660Y-87176431D01*
X160002655Y-87176429D01*
X159997776Y-87173350D01*
X159808552Y-87097857D01*
X159608738Y-87058111D01*
X159602964Y-87058035D01*
X159602960Y-87058035D01*
X159499824Y-87056686D01*
X159405027Y-87055445D01*
X159399330Y-87056424D01*
X159399329Y-87056424D01*
X159209939Y-87088967D01*
X159204242Y-87089946D01*
X159013106Y-87160460D01*
X158838021Y-87264625D01*
X158684850Y-87398952D01*
X158681283Y-87403477D01*
X158681278Y-87403482D01*
X158622739Y-87477739D01*
X158558723Y-87558943D01*
X158463864Y-87739240D01*
X158403450Y-87933805D01*
X158379504Y-88136121D01*
X158392829Y-88339413D01*
X158442977Y-88536872D01*
X158528270Y-88721886D01*
X158645851Y-88888259D01*
X158791782Y-89030419D01*
X158796578Y-89033624D01*
X158796581Y-89033626D01*
X158824677Y-89052399D01*
X158961175Y-89143604D01*
X158966478Y-89145882D01*
X158966481Y-89145884D01*
X159107401Y-89206428D01*
X159148359Y-89224025D01*
X159221189Y-89240505D01*
X159341427Y-89267712D01*
X159341432Y-89267713D01*
X159347064Y-89268987D01*
X159352835Y-89269214D01*
X159352837Y-89269214D01*
X159415842Y-89271689D01*
X159550635Y-89276985D01*
X159752255Y-89247752D01*
X159757719Y-89245897D01*
X159757724Y-89245896D01*
X159939699Y-89184124D01*
X159939704Y-89184122D01*
X159945171Y-89182266D01*
X160122923Y-89082720D01*
X160274220Y-88956888D01*
X160339383Y-88928707D01*
X160354788Y-88927762D01*
X160791048Y-88927762D01*
X160809998Y-88929195D01*
X160824397Y-88931386D01*
X160824403Y-88931386D01*
X160831632Y-88932486D01*
X160838924Y-88931893D01*
X160838927Y-88931893D01*
X160884607Y-88928177D01*
X160894822Y-88927762D01*
X160902949Y-88927762D01*
X160906585Y-88927338D01*
X160906587Y-88927338D01*
X160910039Y-88926935D01*
X160931348Y-88924451D01*
X160935668Y-88924024D01*
X161008850Y-88918071D01*
X161015812Y-88915815D01*
X161021800Y-88914619D01*
X161027757Y-88913211D01*
X161035031Y-88912363D01*
X161041913Y-88909865D01*
X161041917Y-88909864D01*
X161104031Y-88887317D01*
X161108135Y-88885907D01*
X161177999Y-88863275D01*
X161184262Y-88859475D01*
X161189804Y-88856937D01*
X161195280Y-88854195D01*
X161202165Y-88851696D01*
X161263556Y-88811447D01*
X161267224Y-88809132D01*
X161330005Y-88771035D01*
X161334210Y-88767321D01*
X161334213Y-88767319D01*
X161338429Y-88763595D01*
X161338455Y-88763624D01*
X161341386Y-88761024D01*
X161344740Y-88758220D01*
X161350859Y-88754208D01*
X161404419Y-88697669D01*
X161406790Y-88695234D01*
X161589028Y-88512996D01*
X161651340Y-88478970D01*
X161722155Y-88484035D01*
X161778991Y-88526582D01*
X161803802Y-88593102D01*
X161804123Y-88602091D01*
X161804123Y-89389035D01*
X161784121Y-89457156D01*
X161767218Y-89478130D01*
X161339498Y-89905850D01*
X161277186Y-89939876D01*
X161250403Y-89942755D01*
X160857956Y-89942755D01*
X160789835Y-89922753D01*
X160772427Y-89909280D01*
X160682315Y-89825981D01*
X160682312Y-89825979D01*
X160678075Y-89822062D01*
X160559879Y-89747486D01*
X160510660Y-89716431D01*
X160510655Y-89716429D01*
X160505776Y-89713350D01*
X160316552Y-89637857D01*
X160116738Y-89598111D01*
X160110964Y-89598035D01*
X160110960Y-89598035D01*
X160007824Y-89596686D01*
X159913027Y-89595445D01*
X159907330Y-89596424D01*
X159907329Y-89596424D01*
X159717939Y-89628967D01*
X159712242Y-89629946D01*
X159521106Y-89700460D01*
X159516145Y-89703412D01*
X159516144Y-89703412D01*
X159447793Y-89744077D01*
X159346021Y-89804625D01*
X159192850Y-89938952D01*
X159189283Y-89943477D01*
X159189278Y-89943482D01*
X159122921Y-90027656D01*
X159066723Y-90098943D01*
X158971864Y-90279240D01*
X158911450Y-90473805D01*
X158887504Y-90676121D01*
X158900829Y-90879413D01*
X158950977Y-91076872D01*
X159036270Y-91261886D01*
X159153851Y-91428259D01*
X159157985Y-91432286D01*
X159270007Y-91541413D01*
X159299782Y-91570419D01*
X159304578Y-91573624D01*
X159304581Y-91573626D01*
X159372521Y-91619022D01*
X159469175Y-91683604D01*
X159474478Y-91685882D01*
X159474481Y-91685884D01*
X159615401Y-91746428D01*
X159656359Y-91764025D01*
X159729189Y-91780505D01*
X159849427Y-91807712D01*
X159849432Y-91807713D01*
X159855064Y-91808987D01*
X159860835Y-91809214D01*
X159860837Y-91809214D01*
X159923842Y-91811689D01*
X160058635Y-91816985D01*
X160260255Y-91787752D01*
X160265719Y-91785897D01*
X160265724Y-91785896D01*
X160447699Y-91724124D01*
X160447704Y-91724122D01*
X160453171Y-91722266D01*
X160630923Y-91622720D01*
X160782228Y-91496881D01*
X160847392Y-91468700D01*
X160862797Y-91467755D01*
X160973403Y-91467755D01*
X161041524Y-91487757D01*
X161088017Y-91541413D01*
X161098121Y-91611687D01*
X161068627Y-91676267D01*
X161062498Y-91682850D01*
X160645060Y-92100288D01*
X160582748Y-92134314D01*
X160554317Y-92137182D01*
X160486308Y-92136292D01*
X160421028Y-92135438D01*
X160415331Y-92136417D01*
X160415330Y-92136417D01*
X160225940Y-92168960D01*
X160220243Y-92169939D01*
X160029107Y-92240453D01*
X160024146Y-92243405D01*
X160024145Y-92243405D01*
X160015896Y-92248313D01*
X159854022Y-92344618D01*
X159700851Y-92478945D01*
X159697284Y-92483470D01*
X159697279Y-92483475D01*
X159610704Y-92593295D01*
X159574724Y-92638936D01*
X159572035Y-92644047D01*
X159572033Y-92644050D01*
X159531857Y-92720412D01*
X159479865Y-92819233D01*
X159419451Y-93013798D01*
X159395505Y-93216114D01*
X159408830Y-93419406D01*
X159458978Y-93616865D01*
X159544271Y-93801879D01*
X159661852Y-93968252D01*
X159807783Y-94110412D01*
X159812579Y-94113617D01*
X159812582Y-94113619D01*
X159880522Y-94159015D01*
X159977176Y-94223597D01*
X159982479Y-94225875D01*
X159982482Y-94225877D01*
X160159053Y-94301738D01*
X160164360Y-94304018D01*
X160237190Y-94320498D01*
X160357428Y-94347705D01*
X160357433Y-94347706D01*
X160363065Y-94348980D01*
X160368836Y-94349207D01*
X160368838Y-94349207D01*
X160431843Y-94351682D01*
X160566636Y-94356978D01*
X160768256Y-94327745D01*
X160773720Y-94325890D01*
X160773725Y-94325889D01*
X160955700Y-94264117D01*
X160955705Y-94264115D01*
X160961172Y-94262259D01*
X161138924Y-94162713D01*
X161295559Y-94032441D01*
X161425831Y-93875806D01*
X161525377Y-93698054D01*
X161527233Y-93692587D01*
X161527235Y-93692582D01*
X161589007Y-93510607D01*
X161589008Y-93510602D01*
X161590863Y-93505138D01*
X161591691Y-93499430D01*
X161591692Y-93499424D01*
X161617752Y-93319686D01*
X161647322Y-93255140D01*
X161653353Y-93248671D01*
X163397364Y-91504660D01*
X163459676Y-91470634D01*
X163486459Y-91467755D01*
X164408154Y-91467755D01*
X164476275Y-91487757D01*
X164503391Y-91511258D01*
X164570512Y-91588744D01*
X164648862Y-91679193D01*
X164796222Y-91801534D01*
X164814834Y-91816985D01*
X164820738Y-91821887D01*
X164891207Y-91863066D01*
X164894057Y-91864731D01*
X164942781Y-91916369D01*
X164955852Y-91986152D01*
X164929121Y-92051924D01*
X164888667Y-92085282D01*
X164876219Y-92091762D01*
X164872086Y-92094865D01*
X164872083Y-92094867D01*
X164723639Y-92206322D01*
X164697577Y-92225890D01*
X164543241Y-92387393D01*
X164540327Y-92391665D01*
X164540326Y-92391666D01*
X164484177Y-92473978D01*
X164417355Y-92571935D01*
X164380461Y-92651417D01*
X164348435Y-92720412D01*
X164323300Y-92774560D01*
X164263601Y-92989825D01*
X164239863Y-93211950D01*
X164240160Y-93217103D01*
X164240160Y-93217106D01*
X164246075Y-93319686D01*
X164252722Y-93434970D01*
X164253859Y-93440016D01*
X164253860Y-93440022D01*
X164268535Y-93505138D01*
X164301834Y-93652894D01*
X164360200Y-93796634D01*
X164375455Y-93834201D01*
X164385878Y-93859871D01*
X164427428Y-93927674D01*
X164493891Y-94036132D01*
X164502599Y-94050343D01*
X164648862Y-94219193D01*
X164752570Y-94305293D01*
X164813827Y-94356149D01*
X164820738Y-94361887D01*
X165013612Y-94474593D01*
X165018437Y-94476435D01*
X165018438Y-94476436D01*
X165091224Y-94504230D01*
X165222304Y-94554285D01*
X165227372Y-94555316D01*
X165227375Y-94555317D01*
X165334629Y-94577138D01*
X165441209Y-94598822D01*
X165446384Y-94599012D01*
X165446386Y-94599012D01*
X165659285Y-94606819D01*
X165659289Y-94606819D01*
X165664449Y-94607008D01*
X165669569Y-94606352D01*
X165669571Y-94606352D01*
X165880900Y-94579280D01*
X165880901Y-94579280D01*
X165886028Y-94578623D01*
X165890978Y-94577138D01*
X166095041Y-94515916D01*
X166095046Y-94515914D01*
X166099996Y-94514429D01*
X166300606Y-94416151D01*
X166482472Y-94286428D01*
X166509560Y-94259435D01*
X166637047Y-94132392D01*
X166640708Y-94128744D01*
X166651577Y-94113619D01*
X166768047Y-93951532D01*
X166771065Y-93947332D01*
X166798689Y-93891440D01*
X166867748Y-93751708D01*
X166867749Y-93751706D01*
X166870042Y-93747066D01*
X166934982Y-93533324D01*
X166964141Y-93311845D01*
X166964223Y-93308495D01*
X166965686Y-93248620D01*
X166965686Y-93248616D01*
X166965768Y-93245255D01*
X166947464Y-93022616D01*
X166893043Y-92805957D01*
X166803966Y-92601095D01*
X166727874Y-92483475D01*
X166685434Y-92417872D01*
X166685432Y-92417869D01*
X166682626Y-92413532D01*
X166532282Y-92248306D01*
X166528231Y-92245107D01*
X166528227Y-92245103D01*
X166361026Y-92113055D01*
X166361022Y-92113053D01*
X166356971Y-92109853D01*
X166315665Y-92087051D01*
X166265696Y-92036619D01*
X166250924Y-91967176D01*
X166276040Y-91900771D01*
X166303392Y-91874164D01*
X166373013Y-91824504D01*
X166482472Y-91746428D01*
X166509553Y-91719442D01*
X166637047Y-91592392D01*
X166640708Y-91588744D01*
X166656770Y-91566392D01*
X166768047Y-91411532D01*
X166771065Y-91407332D01*
X166842949Y-91261886D01*
X166867748Y-91211708D01*
X166867749Y-91211706D01*
X166870042Y-91207066D01*
X166934982Y-90993324D01*
X166964141Y-90771845D01*
X166965768Y-90705255D01*
X166947464Y-90482616D01*
X166893043Y-90265957D01*
X166803966Y-90061095D01*
X166727879Y-89943482D01*
X166685434Y-89877872D01*
X166685432Y-89877869D01*
X166682626Y-89873532D01*
X166532282Y-89708306D01*
X166528231Y-89705107D01*
X166528227Y-89705103D01*
X166361026Y-89573055D01*
X166361022Y-89573053D01*
X166356971Y-89569853D01*
X166315665Y-89547051D01*
X166265696Y-89496619D01*
X166250924Y-89427176D01*
X166276040Y-89360771D01*
X166303392Y-89334164D01*
X166373013Y-89284504D01*
X166482472Y-89206428D01*
X166509553Y-89179442D01*
X166637047Y-89052392D01*
X166640708Y-89048744D01*
X166656770Y-89026392D01*
X166768047Y-88871532D01*
X166771065Y-88867332D01*
X166776203Y-88856937D01*
X166867748Y-88671708D01*
X166867749Y-88671706D01*
X166870042Y-88667066D01*
X166934982Y-88453324D01*
X166964141Y-88231845D01*
X166965768Y-88165255D01*
X166947464Y-87942616D01*
X166893043Y-87725957D01*
X166803966Y-87521095D01*
X166727413Y-87402762D01*
X166685434Y-87337872D01*
X166685432Y-87337869D01*
X166682626Y-87333532D01*
X166532282Y-87168306D01*
X166528231Y-87165107D01*
X166528227Y-87165103D01*
X166361026Y-87033055D01*
X166361022Y-87033053D01*
X166356971Y-87029853D01*
X166315665Y-87007051D01*
X166265696Y-86956619D01*
X166250924Y-86887176D01*
X166276040Y-86820771D01*
X166303392Y-86794164D01*
X166373013Y-86744504D01*
X166482472Y-86666428D01*
X166509553Y-86639442D01*
X166637047Y-86512392D01*
X166640708Y-86508744D01*
X166655851Y-86487671D01*
X166768047Y-86331532D01*
X166771065Y-86327332D01*
X166776203Y-86316937D01*
X166867748Y-86131708D01*
X166867749Y-86131706D01*
X166870042Y-86127066D01*
X166918824Y-85966507D01*
X166933477Y-85918278D01*
X166933477Y-85918276D01*
X166934982Y-85913324D01*
X166964141Y-85691845D01*
X166964255Y-85687192D01*
X166965686Y-85628620D01*
X166965686Y-85628616D01*
X166965768Y-85625255D01*
X166947464Y-85402616D01*
X166893043Y-85185957D01*
X166803966Y-84981095D01*
X166738789Y-84880346D01*
X166685434Y-84797872D01*
X166685432Y-84797869D01*
X166682626Y-84793532D01*
X166532282Y-84628306D01*
X166528231Y-84625107D01*
X166528227Y-84625103D01*
X166361026Y-84493055D01*
X166361022Y-84493053D01*
X166356971Y-84489853D01*
X166315665Y-84467051D01*
X166265696Y-84416619D01*
X166250924Y-84347176D01*
X166276040Y-84280771D01*
X166303392Y-84254164D01*
X166373013Y-84204504D01*
X166482472Y-84126428D01*
X166509560Y-84099435D01*
X166612093Y-83997259D01*
X166640708Y-83968744D01*
X166697040Y-83890350D01*
X166768047Y-83791532D01*
X166771065Y-83787332D01*
X166808910Y-83710759D01*
X166867748Y-83591708D01*
X166867749Y-83591706D01*
X166870042Y-83587066D01*
X166934982Y-83373324D01*
X166964141Y-83151845D01*
X166964255Y-83147192D01*
X166965686Y-83088620D01*
X166965686Y-83088616D01*
X166965768Y-83085255D01*
X166947464Y-82862616D01*
X166893043Y-82645957D01*
X166803966Y-82441095D01*
X166738789Y-82340346D01*
X166685434Y-82257872D01*
X166685432Y-82257869D01*
X166682626Y-82253532D01*
X166532282Y-82088306D01*
X166528231Y-82085107D01*
X166528227Y-82085103D01*
X166361026Y-81953055D01*
X166361022Y-81953053D01*
X166356971Y-81949853D01*
X166315665Y-81927051D01*
X166265696Y-81876619D01*
X166250924Y-81807176D01*
X166276040Y-81740771D01*
X166303392Y-81714164D01*
X166361241Y-81672901D01*
X166482472Y-81586428D01*
X166640708Y-81428744D01*
X166700206Y-81345944D01*
X166768047Y-81251532D01*
X166771065Y-81247332D01*
X166773481Y-81242445D01*
X166867748Y-81051708D01*
X166867749Y-81051706D01*
X166870042Y-81047066D01*
X166934982Y-80833324D01*
X166964141Y-80611845D01*
X166965768Y-80545255D01*
X166947464Y-80322616D01*
X166893043Y-80105957D01*
X166803966Y-79901095D01*
X166738987Y-79800653D01*
X166685434Y-79717872D01*
X166685432Y-79717869D01*
X166682626Y-79713532D01*
X166532282Y-79548306D01*
X166528231Y-79545107D01*
X166528227Y-79545103D01*
X166361026Y-79413055D01*
X166361022Y-79413053D01*
X166356971Y-79409853D01*
X166315665Y-79387051D01*
X166265696Y-79336619D01*
X166250924Y-79267176D01*
X166276040Y-79200771D01*
X166303392Y-79174164D01*
X166373013Y-79124504D01*
X166482472Y-79046428D01*
X166509560Y-79019435D01*
X166637047Y-78892392D01*
X166640708Y-78888744D01*
X166651577Y-78873619D01*
X166768047Y-78711532D01*
X166771065Y-78707332D01*
X166808910Y-78630759D01*
X166867748Y-78511708D01*
X166867749Y-78511706D01*
X166870042Y-78507066D01*
X166934982Y-78293324D01*
X166964141Y-78071845D01*
X166964255Y-78067192D01*
X166965686Y-78008620D01*
X166965686Y-78008616D01*
X166965768Y-78005255D01*
X166947464Y-77782616D01*
X166893043Y-77565957D01*
X166803966Y-77361095D01*
X166736255Y-77256430D01*
X166685434Y-77177872D01*
X166685432Y-77177869D01*
X166682626Y-77173532D01*
X166532282Y-77008306D01*
X166528231Y-77005107D01*
X166528227Y-77005103D01*
X166361026Y-76873055D01*
X166361022Y-76873053D01*
X166356971Y-76869853D01*
X166315665Y-76847051D01*
X166265696Y-76796619D01*
X166250924Y-76727176D01*
X166276040Y-76660771D01*
X166303392Y-76634164D01*
X166349212Y-76601481D01*
X166482472Y-76506428D01*
X166544520Y-76444597D01*
X166626012Y-76363389D01*
X166640708Y-76348744D01*
X166675963Y-76299682D01*
X166768047Y-76171532D01*
X166771065Y-76167332D01*
X166814105Y-76080248D01*
X166867748Y-75971708D01*
X166867749Y-75971706D01*
X166870042Y-75967066D01*
X166912442Y-75827513D01*
X166933477Y-75758278D01*
X166933477Y-75758276D01*
X166934982Y-75753324D01*
X166964141Y-75531845D01*
X166965768Y-75465255D01*
X166947464Y-75242616D01*
X166893043Y-75025957D01*
X166803966Y-74821095D01*
X166737658Y-74718599D01*
X166685434Y-74637872D01*
X166685432Y-74637869D01*
X166682626Y-74633532D01*
X166532282Y-74468306D01*
X166528231Y-74465107D01*
X166528227Y-74465103D01*
X166361026Y-74333055D01*
X166361022Y-74333053D01*
X166356971Y-74329853D01*
X166161401Y-74221893D01*
X166156532Y-74220169D01*
X166156528Y-74220167D01*
X165955699Y-74149050D01*
X165955695Y-74149049D01*
X165950824Y-74147324D01*
X165945731Y-74146417D01*
X165945728Y-74146416D01*
X165735985Y-74109055D01*
X165735979Y-74109054D01*
X165730896Y-74108149D01*
X165657064Y-74107247D01*
X165512693Y-74105483D01*
X165512691Y-74105483D01*
X165507523Y-74105420D01*
X165286703Y-74139210D01*
X165074368Y-74208612D01*
X165044055Y-74224392D01*
X164910359Y-74293990D01*
X164876219Y-74311762D01*
X164872086Y-74314865D01*
X164872083Y-74314867D01*
X164741975Y-74412555D01*
X164697577Y-74445890D01*
X164543241Y-74607393D01*
X164540327Y-74611665D01*
X164515704Y-74647760D01*
X164460792Y-74692762D01*
X164411616Y-74702755D01*
X161542191Y-74702755D01*
X161523241Y-74701322D01*
X161508842Y-74699131D01*
X161508836Y-74699131D01*
X161501607Y-74698031D01*
X161494315Y-74698624D01*
X161494312Y-74698624D01*
X161448632Y-74702340D01*
X161438417Y-74702755D01*
X161430290Y-74702755D01*
X161426654Y-74703179D01*
X161426652Y-74703179D01*
X161423200Y-74703582D01*
X161401891Y-74706066D01*
X161397571Y-74706493D01*
X161324389Y-74712446D01*
X161317427Y-74714702D01*
X161311439Y-74715898D01*
X161305482Y-74717306D01*
X161298208Y-74718154D01*
X161291326Y-74720652D01*
X161291322Y-74720653D01*
X161229208Y-74743200D01*
X161225104Y-74744610D01*
X161155240Y-74767242D01*
X161148977Y-74771042D01*
X161143435Y-74773580D01*
X161137959Y-74776322D01*
X161131074Y-74778821D01*
X161124950Y-74782836D01*
X161069683Y-74819070D01*
X161066015Y-74821385D01*
X161003234Y-74859482D01*
X160999029Y-74863196D01*
X160999026Y-74863198D01*
X160994810Y-74866922D01*
X160994784Y-74866893D01*
X160991853Y-74869493D01*
X160988499Y-74872297D01*
X160982380Y-74876309D01*
X160977348Y-74881621D01*
X160928827Y-74932841D01*
X160926449Y-74935283D01*
X160059575Y-75802157D01*
X160045162Y-75814544D01*
X160027539Y-75827513D01*
X160022795Y-75833096D01*
X160022796Y-75833096D01*
X159993124Y-75868022D01*
X159986194Y-75875538D01*
X159980450Y-75881282D01*
X159978176Y-75884156D01*
X159978170Y-75884163D01*
X159962731Y-75903678D01*
X159959940Y-75907082D01*
X159917158Y-75957439D01*
X159917155Y-75957443D01*
X159912419Y-75963018D01*
X159909091Y-75969535D01*
X159905714Y-75974599D01*
X159902487Y-75979823D01*
X159897943Y-75985567D01*
X159894844Y-75992198D01*
X159866871Y-76052049D01*
X159864940Y-76056000D01*
X159847987Y-76089201D01*
X159831560Y-76121371D01*
X159829819Y-76128486D01*
X159827682Y-76134232D01*
X159825758Y-76140015D01*
X159822659Y-76146646D01*
X159810589Y-76204679D01*
X159807711Y-76218514D01*
X159806742Y-76222796D01*
X159789299Y-76294079D01*
X159788603Y-76305297D01*
X159788564Y-76305295D01*
X159788331Y-76309196D01*
X159787942Y-76313555D01*
X159786451Y-76320723D01*
X159786649Y-76328040D01*
X159788557Y-76398544D01*
X159788603Y-76401953D01*
X159788603Y-84593411D01*
X159768601Y-84661532D01*
X159714945Y-84708025D01*
X159644671Y-84718129D01*
X159595368Y-84699973D01*
X159494660Y-84636431D01*
X159494655Y-84636429D01*
X159489776Y-84633350D01*
X159300552Y-84557857D01*
X159100738Y-84518111D01*
X159094964Y-84518035D01*
X159094960Y-84518035D01*
X158991824Y-84516686D01*
X158897027Y-84515445D01*
X158891330Y-84516424D01*
X158891329Y-84516424D01*
X158701980Y-84548960D01*
X158696242Y-84549946D01*
X158505106Y-84620460D01*
X158330021Y-84724625D01*
X158176850Y-84858952D01*
X158173283Y-84863477D01*
X158173278Y-84863482D01*
X158141380Y-84903945D01*
X158050723Y-85018943D01*
X158048034Y-85024054D01*
X158048032Y-85024057D01*
X158008580Y-85099044D01*
X157955864Y-85199240D01*
X157954153Y-85204752D01*
X157952173Y-85209530D01*
X157907623Y-85264810D01*
X157840259Y-85287228D01*
X157771468Y-85269667D01*
X157723092Y-85217704D01*
X157714995Y-85195869D01*
X157714972Y-85195877D01*
X157714677Y-85195011D01*
X157713561Y-85192001D01*
X157713304Y-85190978D01*
X157712045Y-85185964D01*
X157622968Y-84981102D01*
X157555253Y-84876430D01*
X157504436Y-84797879D01*
X157504431Y-84797872D01*
X157501628Y-84793539D01*
X157351284Y-84628313D01*
X157347233Y-84625114D01*
X157347229Y-84625110D01*
X157180028Y-84493062D01*
X157180024Y-84493060D01*
X157175973Y-84489860D01*
X157134667Y-84467058D01*
X157084698Y-84416626D01*
X157069926Y-84347183D01*
X157095042Y-84280778D01*
X157122394Y-84254171D01*
X157166217Y-84222912D01*
X157301474Y-84126435D01*
X157459710Y-83968751D01*
X157519208Y-83885951D01*
X157587049Y-83791539D01*
X157590067Y-83787339D01*
X157623224Y-83720252D01*
X157686750Y-83591715D01*
X157686753Y-83591708D01*
X157689044Y-83587073D01*
X157753984Y-83373331D01*
X157783143Y-83151852D01*
X157783776Y-83125937D01*
X157784688Y-83088627D01*
X157784688Y-83088620D01*
X157784770Y-83085262D01*
X157766466Y-82862623D01*
X157712045Y-82645964D01*
X157622968Y-82441102D01*
X157573496Y-82364630D01*
X157504436Y-82257879D01*
X157504431Y-82257872D01*
X157501628Y-82253539D01*
X157351284Y-82088313D01*
X157347233Y-82085114D01*
X157347229Y-82085110D01*
X157180028Y-81953062D01*
X157180024Y-81953060D01*
X157175973Y-81949860D01*
X157171443Y-81947359D01*
X157138884Y-81929386D01*
X157134183Y-81926791D01*
X157084212Y-81876359D01*
X157069440Y-81806916D01*
X157094556Y-81740510D01*
X157121908Y-81713903D01*
X157296942Y-81589054D01*
X157304814Y-81582401D01*
X157455666Y-81432074D01*
X157462344Y-81424227D01*
X157586617Y-81251282D01*
X157591927Y-81242445D01*
X157686284Y-81051529D01*
X157690083Y-81041934D01*
X157751991Y-80838172D01*
X157754169Y-80828099D01*
X157755600Y-80817224D01*
X157753389Y-80803040D01*
X157740231Y-80799262D01*
X155104839Y-80799262D01*
X155091308Y-80803235D01*
X155089871Y-80813228D01*
X155120179Y-80947708D01*
X155123259Y-80957537D01*
X155203384Y-81154865D01*
X155208027Y-81164056D01*
X155319308Y-81345650D01*
X155325391Y-81353961D01*
X155464827Y-81514929D01*
X155472194Y-81522145D01*
X155636048Y-81658178D01*
X155644495Y-81664093D01*
X155713583Y-81704465D01*
X155762307Y-81756104D01*
X155775378Y-81825887D01*
X155748647Y-81891658D01*
X155708198Y-81925014D01*
X155695221Y-81931769D01*
X155691088Y-81934872D01*
X155691085Y-81934874D01*
X155520714Y-82062792D01*
X155516579Y-82065897D01*
X155495158Y-82088313D01*
X155399486Y-82188428D01*
X155362243Y-82227400D01*
X155359329Y-82231672D01*
X155359328Y-82231673D01*
X155299795Y-82318945D01*
X155236357Y-82411942D01*
X155220620Y-82445845D01*
X155144485Y-82609865D01*
X155142302Y-82614567D01*
X155082603Y-82829832D01*
X155058865Y-83051957D01*
X155059162Y-83057106D01*
X155059162Y-83057113D01*
X155067752Y-83206095D01*
X155071724Y-83274977D01*
X155072861Y-83280022D01*
X155072862Y-83280029D01*
X155088768Y-83350607D01*
X155120836Y-83492901D01*
X155159072Y-83587066D01*
X155202842Y-83694858D01*
X155204880Y-83699878D01*
X155207579Y-83704282D01*
X155318717Y-83885643D01*
X155321601Y-83890350D01*
X155467864Y-84059200D01*
X155639740Y-84201894D01*
X155710209Y-84243073D01*
X155713059Y-84244738D01*
X155761783Y-84296376D01*
X155774854Y-84366159D01*
X155748123Y-84431931D01*
X155707669Y-84465289D01*
X155699824Y-84469373D01*
X155695221Y-84471769D01*
X155691088Y-84474872D01*
X155691085Y-84474874D01*
X155520714Y-84602792D01*
X155516579Y-84605897D01*
X155495158Y-84628313D01*
X155386457Y-84742062D01*
X155362243Y-84767400D01*
X155236357Y-84951942D01*
X155201566Y-85026893D01*
X155144485Y-85149865D01*
X155142302Y-85154567D01*
X155082603Y-85369832D01*
X155058865Y-85591957D01*
X155059162Y-85597106D01*
X155059162Y-85597113D01*
X155060785Y-85625255D01*
X155071724Y-85814977D01*
X155072861Y-85820022D01*
X155072862Y-85820029D01*
X155088768Y-85890607D01*
X155120836Y-86032901D01*
X155159072Y-86127066D01*
X155194457Y-86214208D01*
X155204880Y-86239878D01*
X155246430Y-86307681D01*
X155314983Y-86419550D01*
X155321601Y-86430350D01*
X155467864Y-86599200D01*
X155571572Y-86685300D01*
X155632829Y-86736156D01*
X155639740Y-86741894D01*
X155710209Y-86783073D01*
X155713059Y-86784738D01*
X155761783Y-86836376D01*
X155774854Y-86906159D01*
X155748123Y-86971931D01*
X155707669Y-87005289D01*
X155699824Y-87009373D01*
X155695221Y-87011769D01*
X155691088Y-87014872D01*
X155691085Y-87014874D01*
X155520714Y-87142792D01*
X155516579Y-87145897D01*
X155495158Y-87168313D01*
X155386457Y-87282062D01*
X155362243Y-87307400D01*
X155236357Y-87491942D01*
X155196506Y-87577795D01*
X155144485Y-87689865D01*
X155142302Y-87694567D01*
X155082603Y-87909832D01*
X155058865Y-88131957D01*
X155059162Y-88137106D01*
X155059162Y-88137113D01*
X155064624Y-88231845D01*
X155071724Y-88354977D01*
X155072861Y-88360022D01*
X155072862Y-88360029D01*
X155092732Y-88448194D01*
X155120836Y-88572901D01*
X155179202Y-88716641D01*
X155199778Y-88767312D01*
X155204880Y-88779878D01*
X155246425Y-88847674D01*
X155313352Y-88956888D01*
X155321601Y-88970350D01*
X155467864Y-89139200D01*
X155571572Y-89225300D01*
X155632829Y-89276156D01*
X155639740Y-89281894D01*
X155710209Y-89323073D01*
X155713059Y-89324738D01*
X155761783Y-89376376D01*
X155774854Y-89446159D01*
X155748123Y-89511931D01*
X155707669Y-89545289D01*
X155699824Y-89549373D01*
X155695221Y-89551769D01*
X155691088Y-89554872D01*
X155691085Y-89554874D01*
X155520714Y-89682792D01*
X155516579Y-89685897D01*
X155495158Y-89708313D01*
X155383356Y-89825307D01*
X155362243Y-89847400D01*
X155359329Y-89851672D01*
X155359328Y-89851673D01*
X155347442Y-89869097D01*
X155236357Y-90031942D01*
X155189329Y-90133255D01*
X155144485Y-90229865D01*
X155142302Y-90234567D01*
X155082603Y-90449832D01*
X155058865Y-90671957D01*
X155059162Y-90677106D01*
X155059162Y-90677113D01*
X155064624Y-90771845D01*
X155071724Y-90894977D01*
X155072861Y-90900022D01*
X155072862Y-90900029D01*
X155092732Y-90988194D01*
X155120836Y-91112901D01*
X155204880Y-91319878D01*
X155207579Y-91324282D01*
X155310631Y-91492448D01*
X155321601Y-91510350D01*
X155467864Y-91679200D01*
X155571572Y-91765300D01*
X155632829Y-91816156D01*
X155639740Y-91821894D01*
X155710209Y-91863073D01*
X155713059Y-91864738D01*
X155761783Y-91916376D01*
X155774854Y-91986159D01*
X155748123Y-92051931D01*
X155707669Y-92085289D01*
X155699824Y-92089373D01*
X155695221Y-92091769D01*
X155691088Y-92094872D01*
X155691085Y-92094874D01*
X155520714Y-92222792D01*
X155516579Y-92225897D01*
X155495158Y-92248313D01*
X155399486Y-92348428D01*
X155362243Y-92387400D01*
X155359329Y-92391672D01*
X155359328Y-92391673D01*
X155302391Y-92475140D01*
X155236357Y-92571942D01*
X155220620Y-92605845D01*
X155144485Y-92769865D01*
X155142302Y-92774567D01*
X155082603Y-92989832D01*
X155058865Y-93211957D01*
X152686487Y-93211957D01*
X152826379Y-93072065D01*
X152840792Y-93059678D01*
X152852516Y-93051050D01*
X152858415Y-93046709D01*
X152892830Y-93006200D01*
X152899760Y-92998684D01*
X152905504Y-92992940D01*
X152907778Y-92990066D01*
X152907784Y-92990059D01*
X152923223Y-92970544D01*
X152926014Y-92967140D01*
X152968796Y-92916783D01*
X152968799Y-92916779D01*
X152973535Y-92911204D01*
X152976863Y-92904687D01*
X152980240Y-92899623D01*
X152983467Y-92894399D01*
X152988011Y-92888655D01*
X153019083Y-92822173D01*
X153021014Y-92818222D01*
X153043309Y-92774560D01*
X153054394Y-92752851D01*
X153056135Y-92745736D01*
X153058272Y-92739990D01*
X153060196Y-92734207D01*
X153063295Y-92727576D01*
X153078245Y-92655698D01*
X153079214Y-92651417D01*
X153095321Y-92585594D01*
X153096655Y-92580143D01*
X153097351Y-92568925D01*
X153097390Y-92568927D01*
X153097623Y-92565026D01*
X153098012Y-92560667D01*
X153099503Y-92553499D01*
X153097397Y-92475678D01*
X153097351Y-92472269D01*
X153097351Y-86487671D01*
X153117353Y-86419550D01*
X153126477Y-86407102D01*
X153139127Y-86391893D01*
X153252309Y-86255806D01*
X153351855Y-86078054D01*
X153353711Y-86072587D01*
X153353713Y-86072582D01*
X153415485Y-85890607D01*
X153415486Y-85890602D01*
X153417341Y-85885138D01*
X153446574Y-85683518D01*
X153448100Y-85625255D01*
X153429459Y-85422381D01*
X153416085Y-85374962D01*
X153375726Y-85231861D01*
X153375725Y-85231859D01*
X153374158Y-85226302D01*
X153371556Y-85221024D01*
X153286607Y-85048765D01*
X153284052Y-85043584D01*
X153278620Y-85036309D01*
X153165609Y-84884970D01*
X153165609Y-84884969D01*
X153162156Y-84880346D01*
X153064109Y-84789712D01*
X153016794Y-84745974D01*
X153016791Y-84745972D01*
X153012554Y-84742055D01*
X152945858Y-84699973D01*
X152845139Y-84636424D01*
X152845134Y-84636422D01*
X152840255Y-84633343D01*
X152736111Y-84591794D01*
X152656400Y-84559992D01*
X152651031Y-84557850D01*
X152451217Y-84518104D01*
X152445443Y-84518028D01*
X152445439Y-84518028D01*
X152342303Y-84516679D01*
X152247506Y-84515438D01*
X152241809Y-84516417D01*
X152241808Y-84516417D01*
X152225391Y-84519238D01*
X152046721Y-84549939D01*
X151855585Y-84620453D01*
X151850624Y-84623405D01*
X151850623Y-84623405D01*
X151837516Y-84631203D01*
X151721925Y-84699973D01*
X151713534Y-84704965D01*
X151644764Y-84722605D01*
X151577374Y-84700265D01*
X151532760Y-84645037D01*
X151523111Y-84596680D01*
X151523111Y-84111873D01*
X151543113Y-84043752D01*
X151596769Y-83997259D01*
X151667043Y-83987155D01*
X151719112Y-84007107D01*
X151803654Y-84063597D01*
X151808957Y-84065875D01*
X151808960Y-84065877D01*
X151985531Y-84141738D01*
X151990838Y-84144018D01*
X152063668Y-84160498D01*
X152183906Y-84187705D01*
X152183911Y-84187706D01*
X152189543Y-84188980D01*
X152195314Y-84189207D01*
X152195316Y-84189207D01*
X152258321Y-84191682D01*
X152393114Y-84196978D01*
X152594734Y-84167745D01*
X152600198Y-84165890D01*
X152600203Y-84165889D01*
X152782178Y-84104117D01*
X152782183Y-84104115D01*
X152787650Y-84102259D01*
X152965402Y-84002713D01*
X153122037Y-83872441D01*
X153252309Y-83715806D01*
X153351855Y-83538054D01*
X153353711Y-83532587D01*
X153353713Y-83532582D01*
X153415485Y-83350607D01*
X153415486Y-83350602D01*
X153417341Y-83345138D01*
X153446574Y-83143518D01*
X153448100Y-83085255D01*
X153429459Y-82882381D01*
X153415040Y-82831255D01*
X153375726Y-82691861D01*
X153375725Y-82691859D01*
X153374158Y-82686302D01*
X153356814Y-82651130D01*
X153286607Y-82508765D01*
X153284052Y-82503584D01*
X153278620Y-82496309D01*
X153165609Y-82344970D01*
X153165609Y-82344969D01*
X153162156Y-82340346D01*
X153068241Y-82253532D01*
X153016794Y-82205974D01*
X153016791Y-82205972D01*
X153012554Y-82202055D01*
X152966526Y-82173014D01*
X152845139Y-82096424D01*
X152845134Y-82096422D01*
X152840255Y-82093343D01*
X152651031Y-82017850D01*
X152451217Y-81978104D01*
X152445443Y-81978028D01*
X152445439Y-81978028D01*
X152342303Y-81976679D01*
X152247506Y-81975438D01*
X152241809Y-81976417D01*
X152241808Y-81976417D01*
X152052418Y-82008960D01*
X152046721Y-82009939D01*
X151855585Y-82080453D01*
X151850624Y-82083405D01*
X151850623Y-82083405D01*
X151842374Y-82088313D01*
X151680500Y-82184618D01*
X151596970Y-82257872D01*
X151558639Y-82291487D01*
X151494235Y-82321364D01*
X151475562Y-82322755D01*
X151352219Y-82322755D01*
X151333271Y-82321322D01*
X151325884Y-82320198D01*
X151318875Y-82319132D01*
X151318873Y-82319132D01*
X151311643Y-82318032D01*
X151304351Y-82318625D01*
X151304348Y-82318625D01*
X151258676Y-82322340D01*
X151248462Y-82322755D01*
X151240326Y-82322755D01*
X151236691Y-82323179D01*
X151236688Y-82323179D01*
X151218686Y-82325278D01*
X151211935Y-82326065D01*
X151207564Y-82326498D01*
X151196552Y-82327393D01*
X151141723Y-82331852D01*
X151141720Y-82331853D01*
X151134424Y-82332446D01*
X151127462Y-82334701D01*
X151121458Y-82335901D01*
X151115511Y-82337307D01*
X151108244Y-82338154D01*
X151039239Y-82363202D01*
X151035078Y-82364630D01*
X150972238Y-82384987D01*
X150972233Y-82384989D01*
X150965276Y-82387243D01*
X150959024Y-82391037D01*
X150953449Y-82393589D01*
X150947986Y-82396325D01*
X150941110Y-82398821D01*
X150927624Y-82407663D01*
X150879714Y-82439074D01*
X150876010Y-82441411D01*
X150813270Y-82479483D01*
X150804845Y-82486923D01*
X150804820Y-82486895D01*
X150801895Y-82489489D01*
X150798541Y-82492294D01*
X150792416Y-82496309D01*
X150787381Y-82501624D01*
X150787380Y-82501625D01*
X150738863Y-82552841D01*
X150736485Y-82555283D01*
X150269083Y-83022685D01*
X150254670Y-83035072D01*
X150237047Y-83048041D01*
X150232303Y-83053624D01*
X150232304Y-83053624D01*
X150202632Y-83088550D01*
X150195702Y-83096066D01*
X150189958Y-83101810D01*
X150187684Y-83104684D01*
X150187678Y-83104691D01*
X150172239Y-83124206D01*
X150169448Y-83127610D01*
X150126666Y-83177967D01*
X150126663Y-83177971D01*
X150121927Y-83183546D01*
X150118599Y-83190063D01*
X150115222Y-83195127D01*
X150111995Y-83200351D01*
X150107451Y-83206095D01*
X150104352Y-83212726D01*
X150076379Y-83272577D01*
X150074448Y-83276528D01*
X150057462Y-83309793D01*
X150041068Y-83341899D01*
X150039327Y-83349014D01*
X150037190Y-83354760D01*
X150035266Y-83360543D01*
X150032167Y-83367174D01*
X150029858Y-83378278D01*
X150017219Y-83439042D01*
X150016250Y-83443324D01*
X149998807Y-83514607D01*
X149998111Y-83525825D01*
X149998072Y-83525823D01*
X149997839Y-83529724D01*
X149997450Y-83534083D01*
X149995959Y-83541251D01*
X149996157Y-83548568D01*
X149998065Y-83619072D01*
X149998111Y-83622481D01*
X149998111Y-87041467D01*
X149978109Y-87109588D01*
X149961206Y-87130562D01*
X149725918Y-87365850D01*
X149663606Y-87399876D01*
X149636823Y-87402755D01*
X148433963Y-87402755D01*
X148365842Y-87382753D01*
X148328170Y-87345194D01*
X148320626Y-87333532D01*
X148170282Y-87168306D01*
X148166231Y-87165107D01*
X148166227Y-87165103D01*
X147999026Y-87033055D01*
X147999022Y-87033053D01*
X147994971Y-87029853D01*
X147953665Y-87007051D01*
X147903696Y-86956619D01*
X147888924Y-86887176D01*
X147914040Y-86820771D01*
X147941392Y-86794164D01*
X148011013Y-86744504D01*
X148120472Y-86666428D01*
X148147553Y-86639442D01*
X148275047Y-86512392D01*
X148278708Y-86508744D01*
X148293851Y-86487671D01*
X148406047Y-86331532D01*
X148409065Y-86327332D01*
X148414203Y-86316937D01*
X148505748Y-86131708D01*
X148505749Y-86131706D01*
X148508042Y-86127066D01*
X148556824Y-85966507D01*
X148571477Y-85918278D01*
X148571477Y-85918276D01*
X148572982Y-85913324D01*
X148602141Y-85691845D01*
X148602255Y-85687192D01*
X148603686Y-85628620D01*
X148603686Y-85628616D01*
X148603768Y-85625255D01*
X148585464Y-85402616D01*
X148531043Y-85185957D01*
X148441966Y-84981095D01*
X148376789Y-84880346D01*
X148323434Y-84797872D01*
X148323432Y-84797869D01*
X148320626Y-84793532D01*
X148170282Y-84628306D01*
X148166231Y-84625107D01*
X148166227Y-84625103D01*
X147999026Y-84493055D01*
X147999022Y-84493053D01*
X147994971Y-84489853D01*
X147953181Y-84466784D01*
X147903210Y-84416352D01*
X147888438Y-84346909D01*
X147913554Y-84280503D01*
X147940906Y-84253896D01*
X148115940Y-84129047D01*
X148123812Y-84122394D01*
X148274664Y-83972067D01*
X148281342Y-83964220D01*
X148405615Y-83791275D01*
X148410925Y-83782438D01*
X148505282Y-83591522D01*
X148509081Y-83581927D01*
X148570989Y-83378165D01*
X148573167Y-83368092D01*
X148574598Y-83357217D01*
X148572387Y-83343033D01*
X148559229Y-83339255D01*
X145923837Y-83339255D01*
X145910306Y-83343228D01*
X145908869Y-83353221D01*
X145939177Y-83487701D01*
X145942257Y-83497530D01*
X146022382Y-83694858D01*
X146027025Y-83704049D01*
X146138306Y-83885643D01*
X146144389Y-83893954D01*
X146283825Y-84054922D01*
X146291192Y-84062138D01*
X146455046Y-84198171D01*
X146463493Y-84204086D01*
X146532581Y-84244458D01*
X146581305Y-84296097D01*
X146594376Y-84365880D01*
X146567645Y-84431651D01*
X146527196Y-84465007D01*
X146514219Y-84471762D01*
X146510086Y-84474865D01*
X146510083Y-84474867D01*
X146339712Y-84602785D01*
X146335577Y-84605890D01*
X146332005Y-84609628D01*
X146205455Y-84742055D01*
X146181241Y-84767393D01*
X146178327Y-84771665D01*
X146178326Y-84771666D01*
X146115139Y-84864295D01*
X146055355Y-84951935D01*
X145961300Y-85154560D01*
X145901601Y-85369825D01*
X145877863Y-85591950D01*
X145878160Y-85597103D01*
X145878160Y-85597106D01*
X145883623Y-85691845D01*
X145890722Y-85814970D01*
X145891859Y-85820016D01*
X145891860Y-85820022D01*
X145906535Y-85885138D01*
X145939834Y-86032894D01*
X146023878Y-86239871D01*
X146042496Y-86270253D01*
X146129629Y-86412441D01*
X146140599Y-86430343D01*
X146286862Y-86599193D01*
X146434222Y-86721534D01*
X146452834Y-86736985D01*
X146458738Y-86741887D01*
X146529207Y-86783066D01*
X146532057Y-86784731D01*
X146580781Y-86836369D01*
X146593852Y-86906152D01*
X146567121Y-86971924D01*
X146526667Y-87005282D01*
X146514219Y-87011762D01*
X146510086Y-87014865D01*
X146510083Y-87014867D01*
X146355992Y-87130562D01*
X146335577Y-87145890D01*
X146181241Y-87307393D01*
X146178327Y-87311665D01*
X146178326Y-87311666D01*
X146093168Y-87436504D01*
X146055355Y-87491935D01*
X145961300Y-87694560D01*
X145901601Y-87909825D01*
X145877863Y-88131950D01*
X145878160Y-88137103D01*
X145878160Y-88137106D01*
X145887431Y-88297901D01*
X145890722Y-88354970D01*
X145891859Y-88360016D01*
X145891860Y-88360022D01*
X145891862Y-88360029D01*
X145939834Y-88572894D01*
X145990502Y-88697676D01*
X146013455Y-88754201D01*
X146023878Y-88779871D01*
X146043228Y-88811447D01*
X146119910Y-88936581D01*
X146140599Y-88970343D01*
X146286862Y-89139193D01*
X146434222Y-89261534D01*
X146452834Y-89276985D01*
X146458738Y-89281887D01*
X146529207Y-89323066D01*
X146532057Y-89324731D01*
X146580781Y-89376369D01*
X146593852Y-89446152D01*
X146567121Y-89511924D01*
X146526667Y-89545282D01*
X146514219Y-89551762D01*
X146510086Y-89554865D01*
X146510083Y-89554867D01*
X146407422Y-89631947D01*
X146335577Y-89685890D01*
X146181241Y-89847393D01*
X146178327Y-89851665D01*
X146178326Y-89851666D01*
X146093168Y-89976504D01*
X146055355Y-90031935D01*
X145961300Y-90234560D01*
X145901601Y-90449825D01*
X145877863Y-90671950D01*
X145878160Y-90677103D01*
X145878160Y-90677106D01*
X145889492Y-90873645D01*
X145890722Y-90894970D01*
X145891859Y-90900016D01*
X145891860Y-90900022D01*
X145891862Y-90900029D01*
X145939834Y-91112894D01*
X146023878Y-91319871D01*
X146026577Y-91324275D01*
X146132350Y-91496881D01*
X146140599Y-91510343D01*
X146286862Y-91679193D01*
X146434222Y-91801534D01*
X146452834Y-91816985D01*
X146458738Y-91821887D01*
X146529207Y-91863066D01*
X146532057Y-91864731D01*
X146580781Y-91916369D01*
X146593852Y-91986152D01*
X146567121Y-92051924D01*
X146526667Y-92085282D01*
X146514219Y-92091762D01*
X146510086Y-92094865D01*
X146510083Y-92094867D01*
X146361639Y-92206322D01*
X146335577Y-92225890D01*
X146181241Y-92387393D01*
X146178327Y-92391665D01*
X146178326Y-92391666D01*
X146122177Y-92473978D01*
X146055355Y-92571935D01*
X146018461Y-92651417D01*
X145986435Y-92720412D01*
X145961300Y-92774560D01*
X145901601Y-92989825D01*
X145877863Y-93211950D01*
X145390613Y-93211950D01*
X145390613Y-80511950D01*
X145877863Y-80511950D01*
X145878160Y-80517103D01*
X145878160Y-80517106D01*
X145883623Y-80611845D01*
X145890722Y-80734970D01*
X145891859Y-80740016D01*
X145891860Y-80740022D01*
X145905211Y-80799262D01*
X145939834Y-80952894D01*
X146023878Y-81159871D01*
X146140599Y-81350343D01*
X146286862Y-81519193D01*
X146458738Y-81661887D01*
X146531602Y-81704465D01*
X146532567Y-81705029D01*
X146581291Y-81756667D01*
X146594362Y-81826450D01*
X146567631Y-81892222D01*
X146527174Y-81925582D01*
X146519069Y-81929801D01*
X146510350Y-81935291D01*
X146340045Y-82063160D01*
X146332338Y-82070003D01*
X146185202Y-82223972D01*
X146178716Y-82231982D01*
X146058710Y-82407904D01*
X146053612Y-82416878D01*
X145963950Y-82610038D01*
X145960387Y-82619725D01*
X145905001Y-82819438D01*
X145906524Y-82827862D01*
X145918904Y-82831255D01*
X148558956Y-82831255D01*
X148572487Y-82827282D01*
X148573792Y-82818202D01*
X148531826Y-82651130D01*
X148528506Y-82641379D01*
X148443584Y-82446069D01*
X148438717Y-82436994D01*
X148323038Y-82258181D01*
X148316748Y-82250012D01*
X148173418Y-82092495D01*
X148165885Y-82085470D01*
X147998751Y-81953477D01*
X147990168Y-81947775D01*
X147953214Y-81927375D01*
X147903243Y-81876942D01*
X147888471Y-81807500D01*
X147913587Y-81741094D01*
X147940939Y-81714487D01*
X147964409Y-81697746D01*
X148120472Y-81586428D01*
X148278708Y-81428744D01*
X148338206Y-81345944D01*
X148406047Y-81251532D01*
X148409065Y-81247332D01*
X148411481Y-81242445D01*
X148505748Y-81051708D01*
X148505749Y-81051706D01*
X148508042Y-81047066D01*
X148572982Y-80833324D01*
X148602141Y-80611845D01*
X148603768Y-80545255D01*
X148585464Y-80322616D01*
X148531043Y-80105957D01*
X148441966Y-79901095D01*
X148376987Y-79800653D01*
X148323434Y-79717872D01*
X148323432Y-79717869D01*
X148320626Y-79713532D01*
X148170282Y-79548306D01*
X148166231Y-79545107D01*
X148166227Y-79545103D01*
X147999026Y-79413055D01*
X147999022Y-79413053D01*
X147994971Y-79409853D01*
X147953665Y-79387051D01*
X147903696Y-79336619D01*
X147888924Y-79267176D01*
X147914040Y-79200771D01*
X147941392Y-79174164D01*
X148011013Y-79124504D01*
X148120472Y-79046428D01*
X148147560Y-79019435D01*
X148275047Y-78892392D01*
X148278708Y-78888744D01*
X148281724Y-78884547D01*
X148327941Y-78820229D01*
X148383936Y-78776581D01*
X148430264Y-78767755D01*
X151477653Y-78767755D01*
X151545774Y-78787757D01*
X151565575Y-78803501D01*
X151572599Y-78810343D01*
X151634261Y-78870412D01*
X151639057Y-78873617D01*
X151639060Y-78873619D01*
X151707000Y-78919015D01*
X151803654Y-78983597D01*
X151808957Y-78985875D01*
X151808960Y-78985877D01*
X151985531Y-79061738D01*
X151990838Y-79064018D01*
X152063668Y-79080498D01*
X152183906Y-79107705D01*
X152183911Y-79107706D01*
X152189543Y-79108980D01*
X152195314Y-79109207D01*
X152195316Y-79109207D01*
X152258321Y-79111682D01*
X152393114Y-79116978D01*
X152594734Y-79087745D01*
X152600198Y-79085890D01*
X152600203Y-79085889D01*
X152782178Y-79024117D01*
X152782183Y-79024115D01*
X152787650Y-79022259D01*
X152965402Y-78922713D01*
X153122037Y-78792441D01*
X153252309Y-78635806D01*
X153351855Y-78458054D01*
X153353711Y-78452587D01*
X153353713Y-78452582D01*
X153415485Y-78270607D01*
X153415486Y-78270602D01*
X153417341Y-78265138D01*
X153446574Y-78063518D01*
X153448100Y-78005255D01*
X153429459Y-77802381D01*
X153416085Y-77754962D01*
X153375726Y-77611861D01*
X153375725Y-77611859D01*
X153374158Y-77606302D01*
X153356741Y-77570982D01*
X153286607Y-77428765D01*
X153284052Y-77423584D01*
X153215620Y-77331942D01*
X153165609Y-77264970D01*
X153165609Y-77264969D01*
X153162156Y-77260346D01*
X153064101Y-77169705D01*
X153016794Y-77125974D01*
X153016791Y-77125972D01*
X153012554Y-77122055D01*
X152959209Y-77088397D01*
X152912272Y-77035131D01*
X152901583Y-76964944D01*
X152930538Y-76900120D01*
X152989942Y-76861240D01*
X153020587Y-76857674D01*
X153020500Y-76856074D01*
X153027804Y-76855679D01*
X153035114Y-76856132D01*
X153042329Y-76854892D01*
X153047801Y-76854596D01*
X153053248Y-76854119D01*
X153060566Y-76854329D01*
X153133155Y-76839355D01*
X153137211Y-76838589D01*
X153210234Y-76826041D01*
X153216968Y-76823176D01*
X153223722Y-76821188D01*
X153223720Y-76821182D01*
X153229097Y-76819563D01*
X153234589Y-76818430D01*
X153241413Y-76815693D01*
X153243212Y-76814972D01*
X153243225Y-76814967D01*
X153245021Y-76814246D01*
X153246780Y-76813411D01*
X153246795Y-76813404D01*
X153303496Y-76786474D01*
X153308218Y-76784349D01*
X153366996Y-76759338D01*
X153366995Y-76759338D01*
X153373734Y-76756471D01*
X153379630Y-76752133D01*
X153385990Y-76748505D01*
X153386077Y-76748657D01*
X153397507Y-76741822D01*
X153428344Y-76727176D01*
X153586623Y-76652000D01*
X154528437Y-76204679D01*
X154537043Y-76200977D01*
X154541390Y-76199296D01*
X154589353Y-76180746D01*
X154647274Y-76141022D01*
X154651665Y-76138143D01*
X154705163Y-76104641D01*
X154705162Y-76104641D01*
X154711367Y-76100756D01*
X154716512Y-76095547D01*
X154722221Y-76090972D01*
X154722320Y-76091096D01*
X154724440Y-76089323D01*
X154724333Y-76089201D01*
X154729850Y-76084389D01*
X154735888Y-76080248D01*
X154783090Y-76028294D01*
X154786702Y-76024481D01*
X154831081Y-75979548D01*
X154836229Y-75974336D01*
X154838685Y-75970303D01*
X154895511Y-75929555D01*
X154966415Y-75925942D01*
X155028017Y-75961238D01*
X155060758Y-76024234D01*
X155063114Y-76048488D01*
X155063114Y-76363396D01*
X155069869Y-76425578D01*
X155120999Y-76561967D01*
X155208353Y-76678523D01*
X155324909Y-76765877D01*
X155333318Y-76769029D01*
X155333319Y-76769030D01*
X155442065Y-76809797D01*
X155498830Y-76852438D01*
X155523530Y-76919000D01*
X155508323Y-76988349D01*
X155488930Y-77014830D01*
X155399486Y-77108428D01*
X155362243Y-77147400D01*
X155359329Y-77151672D01*
X155359328Y-77151673D01*
X155347023Y-77169712D01*
X155236357Y-77331942D01*
X155220620Y-77365845D01*
X155144485Y-77529865D01*
X155142302Y-77534567D01*
X155082603Y-77749832D01*
X155058865Y-77971957D01*
X155059162Y-77977106D01*
X155059162Y-77977113D01*
X155064624Y-78071845D01*
X155071724Y-78194977D01*
X155072861Y-78200022D01*
X155072862Y-78200029D01*
X155088768Y-78270607D01*
X155120836Y-78412901D01*
X155204880Y-78619878D01*
X155321601Y-78810350D01*
X155467864Y-78979200D01*
X155639740Y-79121894D01*
X155713047Y-79164731D01*
X155713569Y-79165036D01*
X155762293Y-79216674D01*
X155775364Y-79286457D01*
X155748633Y-79352229D01*
X155708176Y-79385589D01*
X155700071Y-79389808D01*
X155691352Y-79395298D01*
X155521047Y-79523167D01*
X155513340Y-79530010D01*
X155366204Y-79683979D01*
X155359718Y-79691989D01*
X155239712Y-79867911D01*
X155234614Y-79876885D01*
X155144952Y-80070045D01*
X155141389Y-80079732D01*
X155086003Y-80279445D01*
X155087526Y-80287869D01*
X155099906Y-80291262D01*
X157739958Y-80291262D01*
X157753489Y-80287289D01*
X157754794Y-80278209D01*
X157712828Y-80111137D01*
X157709508Y-80101386D01*
X157624586Y-79906076D01*
X157619719Y-79897001D01*
X157504040Y-79718188D01*
X157497750Y-79710019D01*
X157354420Y-79552502D01*
X157346887Y-79545477D01*
X157179753Y-79413484D01*
X157171170Y-79407782D01*
X157134216Y-79387382D01*
X157084245Y-79336949D01*
X157069473Y-79267507D01*
X157094589Y-79201101D01*
X157121941Y-79174494D01*
X157145411Y-79157753D01*
X157301474Y-79046435D01*
X157459710Y-78888751D01*
X157470584Y-78873619D01*
X157587049Y-78711539D01*
X157590067Y-78707339D01*
X157623224Y-78640252D01*
X157686750Y-78511715D01*
X157686753Y-78511708D01*
X157689044Y-78507073D01*
X157753984Y-78293331D01*
X157783143Y-78071852D01*
X157784770Y-78005262D01*
X157766466Y-77782623D01*
X157712045Y-77565964D01*
X157622968Y-77361102D01*
X157501628Y-77173539D01*
X157498146Y-77169712D01*
X157354412Y-77011750D01*
X157323360Y-76947904D01*
X157331755Y-76877405D01*
X157376931Y-76822637D01*
X157403375Y-76808968D01*
X157509911Y-76769029D01*
X157518319Y-76765877D01*
X157634875Y-76678523D01*
X157722229Y-76561967D01*
X157773359Y-76425578D01*
X157780114Y-76363396D01*
X157780114Y-74567128D01*
X157773359Y-74504946D01*
X157722229Y-74368557D01*
X157634875Y-74252001D01*
X157518319Y-74164647D01*
X157381930Y-74113517D01*
X157319748Y-74106762D01*
X155523480Y-74106762D01*
X155461298Y-74113517D01*
X155324909Y-74164647D01*
X155208353Y-74252001D01*
X155120999Y-74368557D01*
X155069869Y-74504946D01*
X155063114Y-74567128D01*
X155063114Y-74961555D01*
X155043112Y-75029676D01*
X154989456Y-75076169D01*
X154919182Y-75086273D01*
X154854602Y-75056779D01*
X154834097Y-75034105D01*
X154825015Y-75021209D01*
X154803498Y-74990656D01*
X154798012Y-74985795D01*
X154793139Y-74980346D01*
X154793257Y-74980240D01*
X154791369Y-74978215D01*
X154791252Y-74978329D01*
X154786148Y-74973080D01*
X154781685Y-74967272D01*
X154774665Y-74961555D01*
X154727254Y-74922948D01*
X154723253Y-74919550D01*
X154675989Y-74877670D01*
X154675990Y-74877670D01*
X154670510Y-74872815D01*
X154664059Y-74869349D01*
X154658059Y-74865165D01*
X154658149Y-74865035D01*
X154653006Y-74861606D01*
X154652902Y-74861760D01*
X154648254Y-74858618D01*
X154643901Y-74855074D01*
X154634067Y-74849633D01*
X154578911Y-74823436D01*
X154573416Y-74820657D01*
X154513979Y-74788728D01*
X154506907Y-74786841D01*
X154506898Y-74786837D01*
X154506533Y-74786740D01*
X154484971Y-74778817D01*
X153873504Y-74488389D01*
X153354044Y-74241661D01*
X153344840Y-74236814D01*
X153316181Y-74220167D01*
X153305871Y-74214178D01*
X153305869Y-74214177D01*
X153299540Y-74210501D01*
X153292533Y-74208379D01*
X153292529Y-74208377D01*
X153228656Y-74189032D01*
X153224683Y-74187757D01*
X153172488Y-74170033D01*
X153161451Y-74166285D01*
X153161449Y-74166285D01*
X153154524Y-74163933D01*
X153147240Y-74163237D01*
X153141878Y-74162087D01*
X153136485Y-74161117D01*
X153129482Y-74158996D01*
X153055576Y-74154411D01*
X153051395Y-74154082D01*
X152984933Y-74147733D01*
X152984929Y-74147733D01*
X152977642Y-74147037D01*
X152970388Y-74148036D01*
X152964943Y-74148150D01*
X152959446Y-74148448D01*
X152952136Y-74147994D01*
X152944920Y-74149234D01*
X152944918Y-74149234D01*
X152879145Y-74160536D01*
X152875003Y-74161177D01*
X152801618Y-74171287D01*
X152794788Y-74173929D01*
X152789475Y-74175302D01*
X152784230Y-74176846D01*
X152777016Y-74178085D01*
X152770286Y-74180949D01*
X152770285Y-74180949D01*
X152708862Y-74207085D01*
X152704982Y-74208660D01*
X152635893Y-74235380D01*
X152629854Y-74239522D01*
X152625010Y-74242075D01*
X152620252Y-74244789D01*
X152613516Y-74247655D01*
X152607623Y-74251991D01*
X152607619Y-74251994D01*
X152553850Y-74291563D01*
X152550434Y-74293990D01*
X152501785Y-74327356D01*
X152489358Y-74335879D01*
X152484433Y-74341300D01*
X152480330Y-74344879D01*
X152476308Y-74348629D01*
X152470405Y-74352973D01*
X152465661Y-74358557D01*
X152422462Y-74409406D01*
X152419695Y-74412555D01*
X152374799Y-74461971D01*
X152374795Y-74461976D01*
X152369874Y-74467393D01*
X152366330Y-74473799D01*
X152363144Y-74478248D01*
X152360101Y-74482809D01*
X152355361Y-74488389D01*
X152352035Y-74494903D01*
X152352032Y-74494907D01*
X152321679Y-74554350D01*
X152319713Y-74558049D01*
X152283848Y-74622867D01*
X152281874Y-74629909D01*
X152279795Y-74634978D01*
X152277883Y-74640119D01*
X152274554Y-74646638D01*
X152272815Y-74653744D01*
X152272813Y-74653750D01*
X152261833Y-74698624D01*
X152258597Y-74711853D01*
X152256946Y-74718599D01*
X152255894Y-74722609D01*
X152235897Y-74793961D01*
X152235596Y-74801274D01*
X152234493Y-74808234D01*
X152234499Y-74808235D01*
X152233655Y-74813780D01*
X152232321Y-74819233D01*
X152231625Y-74830451D01*
X152231625Y-74895189D01*
X152231518Y-74900370D01*
X152228591Y-74971496D01*
X152229981Y-74978685D01*
X152230529Y-74985986D01*
X152230355Y-74985999D01*
X152231625Y-74999259D01*
X152231625Y-76052974D01*
X152231193Y-76063395D01*
X152226862Y-76115581D01*
X152227950Y-76122812D01*
X152227950Y-76122816D01*
X152237885Y-76188850D01*
X152238437Y-76192991D01*
X152247015Y-76266559D01*
X152249510Y-76273434D01*
X152250766Y-76278747D01*
X152252208Y-76284051D01*
X152253297Y-76291290D01*
X152256022Y-76298084D01*
X152280871Y-76360036D01*
X152282364Y-76363945D01*
X152307641Y-76433583D01*
X152311656Y-76439706D01*
X152314105Y-76444597D01*
X152316721Y-76449415D01*
X152319445Y-76456206D01*
X152323655Y-76462184D01*
X152323660Y-76462193D01*
X152362094Y-76516765D01*
X152364450Y-76520231D01*
X152401051Y-76576058D01*
X152401057Y-76576065D01*
X152405066Y-76582180D01*
X152410379Y-76587213D01*
X152413894Y-76591416D01*
X152417540Y-76595493D01*
X152421757Y-76601481D01*
X152458641Y-76634164D01*
X152477213Y-76650621D01*
X152480266Y-76653418D01*
X152508579Y-76680239D01*
X152544276Y-76741606D01*
X152541129Y-76812533D01*
X152500135Y-76870499D01*
X152434310Y-76897100D01*
X152420276Y-76897699D01*
X152391071Y-76897317D01*
X152247506Y-76895438D01*
X152241809Y-76896417D01*
X152241808Y-76896417D01*
X152052418Y-76928960D01*
X152046721Y-76929939D01*
X151855585Y-77000453D01*
X151850624Y-77003405D01*
X151850623Y-77003405D01*
X151831420Y-77014830D01*
X151680500Y-77104618D01*
X151558639Y-77211487D01*
X151494235Y-77241364D01*
X151475562Y-77242755D01*
X148433963Y-77242755D01*
X148365842Y-77222753D01*
X148328170Y-77185194D01*
X148320626Y-77173532D01*
X148300736Y-77151673D01*
X148173410Y-77011743D01*
X148142358Y-76947897D01*
X148150753Y-76877398D01*
X148195929Y-76822630D01*
X148222373Y-76808961D01*
X148328909Y-76769022D01*
X148337317Y-76765870D01*
X148453873Y-76678516D01*
X148541227Y-76561960D01*
X148592357Y-76425571D01*
X148599112Y-76363389D01*
X148599112Y-74567121D01*
X148592357Y-74504939D01*
X148541227Y-74368550D01*
X148453873Y-74251994D01*
X148337317Y-74164640D01*
X148200928Y-74113510D01*
X148138746Y-74106755D01*
X146342478Y-74106755D01*
X146280296Y-74113510D01*
X146143907Y-74164640D01*
X146027351Y-74251994D01*
X145939997Y-74368550D01*
X145888867Y-74504939D01*
X145882112Y-74567121D01*
X145882112Y-76363389D01*
X145888867Y-76425571D01*
X145939997Y-76561960D01*
X146027351Y-76678516D01*
X146143907Y-76765870D01*
X146152316Y-76769022D01*
X146152317Y-76769023D01*
X146261063Y-76809790D01*
X146317828Y-76852431D01*
X146342528Y-76918993D01*
X146327321Y-76988342D01*
X146307928Y-77014823D01*
X146205455Y-77122055D01*
X146181241Y-77147393D01*
X146055355Y-77331935D01*
X145961300Y-77534560D01*
X145901601Y-77749825D01*
X145877863Y-77971950D01*
X145878160Y-77977103D01*
X145878160Y-77977106D01*
X145890424Y-78189802D01*
X145890722Y-78194970D01*
X145891859Y-78200016D01*
X145891860Y-78200022D01*
X145906535Y-78265138D01*
X145939834Y-78412894D01*
X146023878Y-78619871D01*
X146074631Y-78702693D01*
X146131891Y-78796132D01*
X146140599Y-78810343D01*
X146286862Y-78979193D01*
X146390570Y-79065293D01*
X146451827Y-79116149D01*
X146458738Y-79121887D01*
X146529207Y-79163066D01*
X146532057Y-79164731D01*
X146580781Y-79216369D01*
X146593852Y-79286152D01*
X146567121Y-79351924D01*
X146526667Y-79385282D01*
X146514219Y-79391762D01*
X146510086Y-79394865D01*
X146510083Y-79394867D01*
X146339712Y-79522785D01*
X146335577Y-79525890D01*
X146181241Y-79687393D01*
X146178327Y-79691665D01*
X146178326Y-79691666D01*
X146123006Y-79772762D01*
X146055355Y-79871935D01*
X145961300Y-80074560D01*
X145901601Y-80289825D01*
X145877863Y-80511950D01*
X145390613Y-80511950D01*
X145390613Y-72407063D01*
X146053125Y-72407063D01*
X146073080Y-72635150D01*
X146132339Y-72856306D01*
X146134662Y-72861287D01*
X146134662Y-72861288D01*
X146226774Y-73058825D01*
X146226777Y-73058830D01*
X146229100Y-73063812D01*
X146360425Y-73251363D01*
X146522323Y-73413261D01*
X146526831Y-73416418D01*
X146526834Y-73416420D01*
X146605012Y-73471161D01*
X146709874Y-73544586D01*
X146714856Y-73546909D01*
X146714861Y-73546912D01*
X146912398Y-73639024D01*
X146917380Y-73641347D01*
X146922688Y-73642769D01*
X146922690Y-73642770D01*
X147133221Y-73699182D01*
X147133223Y-73699182D01*
X147138536Y-73700606D01*
X147366623Y-73720561D01*
X147594710Y-73700606D01*
X147600023Y-73699182D01*
X147600025Y-73699182D01*
X147810556Y-73642770D01*
X147810558Y-73642769D01*
X147815866Y-73641347D01*
X147820848Y-73639024D01*
X148018385Y-73546912D01*
X148018390Y-73546909D01*
X148023372Y-73544586D01*
X148128234Y-73471161D01*
X148206412Y-73416420D01*
X148206415Y-73416418D01*
X148210923Y-73413261D01*
X148372821Y-73251363D01*
X148504146Y-73063812D01*
X148506469Y-73058830D01*
X148506472Y-73058825D01*
X148598584Y-72861288D01*
X148598584Y-72861287D01*
X148600907Y-72856306D01*
X148660166Y-72635150D01*
X148680121Y-72407063D01*
X148660166Y-72178976D01*
X148600907Y-71957820D01*
X148598584Y-71952838D01*
X148506472Y-71755301D01*
X148506469Y-71755296D01*
X148504146Y-71750314D01*
X148372821Y-71562763D01*
X148210923Y-71400865D01*
X148206415Y-71397708D01*
X148206412Y-71397706D01*
X148027876Y-71272694D01*
X148023372Y-71269540D01*
X148018388Y-71267216D01*
X148016095Y-71265892D01*
X147967102Y-71214510D01*
X147953666Y-71144796D01*
X147980052Y-71078885D01*
X148016095Y-71047654D01*
X148027625Y-71040997D01*
X148079671Y-71004554D01*
X148088047Y-70994075D01*
X148080979Y-70980629D01*
X147379435Y-70279085D01*
X147365491Y-70271471D01*
X147363658Y-70271602D01*
X147357043Y-70275853D01*
X146651546Y-70981350D01*
X146645116Y-70993125D01*
X146654412Y-71005140D01*
X146705621Y-71040997D01*
X146717151Y-71047654D01*
X146766144Y-71099036D01*
X146779581Y-71168750D01*
X146753194Y-71234661D01*
X146717151Y-71265892D01*
X146714858Y-71267216D01*
X146709874Y-71269540D01*
X146705370Y-71272694D01*
X146526834Y-71397706D01*
X146526831Y-71397708D01*
X146522323Y-71400865D01*
X146360425Y-71562763D01*
X146229100Y-71750314D01*
X146226777Y-71755296D01*
X146226774Y-71755301D01*
X146134662Y-71952838D01*
X146132339Y-71957820D01*
X146073080Y-72178976D01*
X146053125Y-72407063D01*
X145390613Y-72407063D01*
X145390613Y-69912538D01*
X146054106Y-69912538D01*
X146073095Y-70129582D01*
X146074998Y-70140375D01*
X146131387Y-70350824D01*
X146135133Y-70361116D01*
X146227209Y-70558574D01*
X146232692Y-70568069D01*
X146269132Y-70620111D01*
X146279611Y-70628487D01*
X146293057Y-70621419D01*
X146994601Y-69919875D01*
X147000979Y-69908195D01*
X147731031Y-69908195D01*
X147731162Y-69910028D01*
X147735413Y-69916643D01*
X148440910Y-70622140D01*
X148452685Y-70628570D01*
X148464700Y-70619274D01*
X148500554Y-70568069D01*
X148506037Y-70558574D01*
X148598113Y-70361116D01*
X148601859Y-70350824D01*
X148658248Y-70140375D01*
X148660151Y-70129582D01*
X148679140Y-69912538D01*
X148679140Y-69901588D01*
X148660151Y-69684544D01*
X148658248Y-69673751D01*
X148601859Y-69463302D01*
X148598113Y-69453010D01*
X148506037Y-69255552D01*
X148500554Y-69246057D01*
X148464114Y-69194015D01*
X148453635Y-69185639D01*
X148440189Y-69192707D01*
X147738645Y-69894251D01*
X147731031Y-69908195D01*
X147000979Y-69908195D01*
X147002215Y-69905931D01*
X147002084Y-69904098D01*
X146997833Y-69897483D01*
X146292336Y-69191986D01*
X146280561Y-69185556D01*
X146268546Y-69194852D01*
X146232692Y-69246057D01*
X146227209Y-69255552D01*
X146135133Y-69453010D01*
X146131387Y-69463302D01*
X146074998Y-69673751D01*
X146073095Y-69684544D01*
X146054106Y-69901588D01*
X146054106Y-69912538D01*
X145390613Y-69912538D01*
X145390613Y-68820051D01*
X146645199Y-68820051D01*
X146652267Y-68833497D01*
X147353811Y-69535041D01*
X147367755Y-69542655D01*
X147369588Y-69542524D01*
X147376203Y-69538273D01*
X148081700Y-68832776D01*
X148088130Y-68821001D01*
X148078834Y-68808986D01*
X148027629Y-68773132D01*
X148018134Y-68767649D01*
X147820676Y-68675573D01*
X147810384Y-68671827D01*
X147599935Y-68615438D01*
X147589142Y-68613535D01*
X147372098Y-68594546D01*
X147361148Y-68594546D01*
X147144104Y-68613535D01*
X147133311Y-68615438D01*
X146922862Y-68671827D01*
X146912570Y-68675573D01*
X146715112Y-68767649D01*
X146705617Y-68773132D01*
X146653575Y-68809572D01*
X146645199Y-68820051D01*
X145390613Y-68820051D01*
X145390613Y-65300944D01*
X146819302Y-65300944D01*
X146835851Y-65587958D01*
X146836676Y-65592163D01*
X146836677Y-65592171D01*
X146868623Y-65754996D01*
X146891199Y-65870070D01*
X146892586Y-65874120D01*
X146892587Y-65874125D01*
X146982934Y-66138005D01*
X146984323Y-66142061D01*
X147113498Y-66398897D01*
X147276334Y-66635825D01*
X147469819Y-66848463D01*
X147473114Y-66851218D01*
X147473115Y-66851219D01*
X147523871Y-66893657D01*
X147690372Y-67032873D01*
X147933911Y-67185646D01*
X148195931Y-67303952D01*
X148200050Y-67305172D01*
X148467470Y-67384386D01*
X148467475Y-67384387D01*
X148471583Y-67385604D01*
X148475817Y-67386252D01*
X148475822Y-67386253D01*
X148724424Y-67424294D01*
X148755766Y-67429090D01*
X148902098Y-67431389D01*
X149038930Y-67433539D01*
X149038936Y-67433539D01*
X149043221Y-67433606D01*
X149047473Y-67433091D01*
X149047481Y-67433091D01*
X149324369Y-67399583D01*
X149324374Y-67399582D01*
X149328630Y-67399067D01*
X149606710Y-67326114D01*
X149872317Y-67216096D01*
X150120535Y-67071049D01*
X150346772Y-66893657D01*
X150387898Y-66851219D01*
X150543857Y-66690281D01*
X150546840Y-66687203D01*
X150549373Y-66683755D01*
X150549377Y-66683750D01*
X150714500Y-66458961D01*
X150717038Y-66455506D01*
X150854217Y-66202854D01*
X150955838Y-65933923D01*
X151020020Y-65653688D01*
X151045576Y-65367335D01*
X151046040Y-65323075D01*
X151044531Y-65300944D01*
X154308301Y-65300944D01*
X154324850Y-65587958D01*
X154325675Y-65592163D01*
X154325676Y-65592171D01*
X154357622Y-65754996D01*
X154380198Y-65870070D01*
X154381585Y-65874120D01*
X154381586Y-65874125D01*
X154471933Y-66138005D01*
X154473322Y-66142061D01*
X154602497Y-66398897D01*
X154765333Y-66635825D01*
X154958818Y-66848463D01*
X154962113Y-66851218D01*
X154962114Y-66851219D01*
X155012870Y-66893657D01*
X155179371Y-67032873D01*
X155422910Y-67185646D01*
X155684930Y-67303952D01*
X155689049Y-67305172D01*
X155956469Y-67384386D01*
X155956474Y-67384387D01*
X155960582Y-67385604D01*
X155964816Y-67386252D01*
X155964821Y-67386253D01*
X156213423Y-67424294D01*
X156244765Y-67429090D01*
X156391097Y-67431389D01*
X156527929Y-67433539D01*
X156527935Y-67433539D01*
X156532220Y-67433606D01*
X156536472Y-67433091D01*
X156536480Y-67433091D01*
X156813368Y-67399583D01*
X156813373Y-67399582D01*
X156817629Y-67399067D01*
X157095709Y-67326114D01*
X157361316Y-67216096D01*
X157609534Y-67071049D01*
X157835771Y-66893657D01*
X157876897Y-66851219D01*
X158032856Y-66690281D01*
X158035839Y-66687203D01*
X158038372Y-66683755D01*
X158038376Y-66683750D01*
X158203499Y-66458961D01*
X158206037Y-66455506D01*
X158343216Y-66202854D01*
X158444837Y-65933923D01*
X158509019Y-65653688D01*
X158534575Y-65367335D01*
X158535039Y-65323075D01*
X158533530Y-65300944D01*
X161797300Y-65300944D01*
X161813849Y-65587958D01*
X161814674Y-65592163D01*
X161814675Y-65592171D01*
X161846621Y-65754996D01*
X161869197Y-65870070D01*
X161870584Y-65874120D01*
X161870585Y-65874125D01*
X161960932Y-66138005D01*
X161962321Y-66142061D01*
X162091496Y-66398897D01*
X162254332Y-66635825D01*
X162447817Y-66848463D01*
X162451112Y-66851218D01*
X162451113Y-66851219D01*
X162501869Y-66893657D01*
X162668370Y-67032873D01*
X162911909Y-67185646D01*
X163173929Y-67303952D01*
X163178048Y-67305172D01*
X163445468Y-67384386D01*
X163445473Y-67384387D01*
X163449581Y-67385604D01*
X163453815Y-67386252D01*
X163453820Y-67386253D01*
X163702422Y-67424294D01*
X163733764Y-67429090D01*
X163880096Y-67431389D01*
X164016928Y-67433539D01*
X164016934Y-67433539D01*
X164021219Y-67433606D01*
X164025471Y-67433091D01*
X164025479Y-67433091D01*
X164302367Y-67399583D01*
X164302372Y-67399582D01*
X164306628Y-67399067D01*
X164584708Y-67326114D01*
X164850315Y-67216096D01*
X165098533Y-67071049D01*
X165324770Y-66893657D01*
X165365896Y-66851219D01*
X165521855Y-66690281D01*
X165524838Y-66687203D01*
X165527371Y-66683755D01*
X165527375Y-66683750D01*
X165692498Y-66458961D01*
X165695036Y-66455506D01*
X165832215Y-66202854D01*
X165933836Y-65933923D01*
X165998018Y-65653688D01*
X166023574Y-65367335D01*
X166024038Y-65323075D01*
X166004484Y-65036250D01*
X165999947Y-65014339D01*
X165947054Y-64758930D01*
X165946185Y-64754733D01*
X165850218Y-64483732D01*
X165754523Y-64298326D01*
X165720326Y-64232070D01*
X165720326Y-64232069D01*
X165718361Y-64228263D01*
X165705099Y-64209392D01*
X165555515Y-63996557D01*
X165553052Y-63993052D01*
X165357351Y-63782453D01*
X165134879Y-63600362D01*
X164889753Y-63450148D01*
X164871659Y-63442205D01*
X164630441Y-63336318D01*
X164626509Y-63334592D01*
X164600574Y-63327204D01*
X164354145Y-63257007D01*
X164354146Y-63257007D01*
X164350017Y-63255831D01*
X164137315Y-63225560D01*
X164069647Y-63215929D01*
X164069645Y-63215929D01*
X164065395Y-63215324D01*
X164061106Y-63215302D01*
X164061099Y-63215301D01*
X163782194Y-63213840D01*
X163782187Y-63213840D01*
X163777908Y-63213818D01*
X163773664Y-63214377D01*
X163773660Y-63214377D01*
X163648271Y-63230885D01*
X163492877Y-63251343D01*
X163488737Y-63252476D01*
X163488735Y-63252476D01*
X163411922Y-63273490D01*
X163215575Y-63327204D01*
X163211627Y-63328888D01*
X162955087Y-63438312D01*
X162955083Y-63438314D01*
X162951135Y-63439998D01*
X162826571Y-63514548D01*
X162708132Y-63585432D01*
X162708128Y-63585435D01*
X162704450Y-63587636D01*
X162480083Y-63767388D01*
X162362983Y-63890786D01*
X162292366Y-63965201D01*
X162282188Y-63975926D01*
X162114425Y-64209392D01*
X161979899Y-64463467D01*
X161881100Y-64733448D01*
X161819856Y-65014339D01*
X161797300Y-65300944D01*
X158533530Y-65300944D01*
X158515485Y-65036250D01*
X158510948Y-65014339D01*
X158458055Y-64758930D01*
X158457186Y-64754733D01*
X158361219Y-64483732D01*
X158265524Y-64298326D01*
X158231327Y-64232070D01*
X158231327Y-64232069D01*
X158229362Y-64228263D01*
X158216100Y-64209392D01*
X158066516Y-63996557D01*
X158064053Y-63993052D01*
X157868352Y-63782453D01*
X157645880Y-63600362D01*
X157400754Y-63450148D01*
X157382660Y-63442205D01*
X157141442Y-63336318D01*
X157137510Y-63334592D01*
X157111575Y-63327204D01*
X156865146Y-63257007D01*
X156865147Y-63257007D01*
X156861018Y-63255831D01*
X156648316Y-63225560D01*
X156580648Y-63215929D01*
X156580646Y-63215929D01*
X156576396Y-63215324D01*
X156572107Y-63215302D01*
X156572100Y-63215301D01*
X156293195Y-63213840D01*
X156293188Y-63213840D01*
X156288909Y-63213818D01*
X156284665Y-63214377D01*
X156284661Y-63214377D01*
X156159272Y-63230885D01*
X156003878Y-63251343D01*
X155999738Y-63252476D01*
X155999736Y-63252476D01*
X155922923Y-63273490D01*
X155726576Y-63327204D01*
X155722628Y-63328888D01*
X155466088Y-63438312D01*
X155466084Y-63438314D01*
X155462136Y-63439998D01*
X155337572Y-63514548D01*
X155219133Y-63585432D01*
X155219129Y-63585435D01*
X155215451Y-63587636D01*
X154991084Y-63767388D01*
X154873984Y-63890786D01*
X154803367Y-63965201D01*
X154793189Y-63975926D01*
X154625426Y-64209392D01*
X154490900Y-64463467D01*
X154392101Y-64733448D01*
X154330857Y-65014339D01*
X154308301Y-65300944D01*
X151044531Y-65300944D01*
X151026486Y-65036250D01*
X151021949Y-65014339D01*
X150969056Y-64758930D01*
X150968187Y-64754733D01*
X150872220Y-64483732D01*
X150776525Y-64298326D01*
X150742328Y-64232070D01*
X150742328Y-64232069D01*
X150740363Y-64228263D01*
X150727101Y-64209392D01*
X150577517Y-63996557D01*
X150575054Y-63993052D01*
X150379353Y-63782453D01*
X150156881Y-63600362D01*
X149911755Y-63450148D01*
X149893661Y-63442205D01*
X149652443Y-63336318D01*
X149648511Y-63334592D01*
X149622576Y-63327204D01*
X149376147Y-63257007D01*
X149376148Y-63257007D01*
X149372019Y-63255831D01*
X149159317Y-63225560D01*
X149091649Y-63215929D01*
X149091647Y-63215929D01*
X149087397Y-63215324D01*
X149083108Y-63215302D01*
X149083101Y-63215301D01*
X148804196Y-63213840D01*
X148804189Y-63213840D01*
X148799910Y-63213818D01*
X148795666Y-63214377D01*
X148795662Y-63214377D01*
X148670273Y-63230885D01*
X148514879Y-63251343D01*
X148510739Y-63252476D01*
X148510737Y-63252476D01*
X148433924Y-63273490D01*
X148237577Y-63327204D01*
X148233629Y-63328888D01*
X147977089Y-63438312D01*
X147977085Y-63438314D01*
X147973137Y-63439998D01*
X147848573Y-63514548D01*
X147730134Y-63585432D01*
X147730130Y-63585435D01*
X147726452Y-63587636D01*
X147502085Y-63767388D01*
X147384985Y-63890786D01*
X147314368Y-63965201D01*
X147304190Y-63975926D01*
X147136427Y-64209392D01*
X147001901Y-64463467D01*
X146903102Y-64733448D01*
X146841858Y-65014339D01*
X146819302Y-65300944D01*
X145390613Y-65300944D01*
X145390613Y-64322403D01*
X145392113Y-64303018D01*
X145394418Y-64288217D01*
X145394418Y-64288214D01*
X145395799Y-64279345D01*
X145393554Y-64262176D01*
X145392721Y-64238236D01*
X145408323Y-63980305D01*
X145410157Y-63965201D01*
X145446407Y-63767388D01*
X145461653Y-63684196D01*
X145465292Y-63669428D01*
X145491467Y-63585432D01*
X145550288Y-63396667D01*
X145555683Y-63382445D01*
X145580545Y-63327204D01*
X145672929Y-63121935D01*
X145679998Y-63108466D01*
X145827795Y-62863980D01*
X145836438Y-62851458D01*
X146012629Y-62626568D01*
X146022719Y-62615180D01*
X146224718Y-62413181D01*
X146236106Y-62403091D01*
X146460996Y-62226900D01*
X146473518Y-62218257D01*
X146718004Y-62070460D01*
X146731473Y-62063391D01*
X146991986Y-61946144D01*
X147006205Y-61940750D01*
X147278972Y-61855753D01*
X147293734Y-61852115D01*
X147503965Y-61813589D01*
X147574739Y-61800619D01*
X147589843Y-61798785D01*
X147840542Y-61783620D01*
X147867252Y-61784877D01*
X147867472Y-61784880D01*
X147876343Y-61786261D01*
X147885245Y-61785097D01*
X147885248Y-61785097D01*
X147907864Y-61782139D01*
X147924202Y-61781075D01*
X154906338Y-61781075D01*
X154974459Y-61801077D01*
G37*
%TD.AperFunction*%
%TA.AperFunction,Conductor*%
G36*
X164476275Y-81327757D02*
G01*
X164503391Y-81351258D01*
X164573672Y-81432392D01*
X164648862Y-81519193D01*
X164820738Y-81661887D01*
X164891207Y-81703066D01*
X164894057Y-81704731D01*
X164942781Y-81756369D01*
X164955852Y-81826152D01*
X164929121Y-81891924D01*
X164888667Y-81925282D01*
X164876219Y-81931762D01*
X164872086Y-81934865D01*
X164872083Y-81934867D01*
X164763061Y-82016723D01*
X164697577Y-82065890D01*
X164694005Y-82069628D01*
X164567455Y-82202055D01*
X164543241Y-82227393D01*
X164540327Y-82231665D01*
X164540326Y-82231666D01*
X164475758Y-82326319D01*
X164417355Y-82411935D01*
X164323300Y-82614560D01*
X164263601Y-82829825D01*
X164239863Y-83051950D01*
X164240160Y-83057103D01*
X164240160Y-83057106D01*
X164248118Y-83195127D01*
X164252722Y-83274970D01*
X164253859Y-83280016D01*
X164253860Y-83280022D01*
X164267805Y-83341899D01*
X164301834Y-83492894D01*
X164385878Y-83699871D01*
X164436475Y-83782438D01*
X164493891Y-83876132D01*
X164502599Y-83890343D01*
X164648862Y-84059193D01*
X164752570Y-84145293D01*
X164813827Y-84196149D01*
X164820738Y-84201887D01*
X164891207Y-84243066D01*
X164894057Y-84244731D01*
X164942781Y-84296369D01*
X164955852Y-84366152D01*
X164929121Y-84431924D01*
X164888667Y-84465282D01*
X164876219Y-84471762D01*
X164872086Y-84474865D01*
X164872083Y-84474867D01*
X164701712Y-84602785D01*
X164697577Y-84605890D01*
X164543241Y-84767393D01*
X164531196Y-84785051D01*
X164515704Y-84807760D01*
X164460792Y-84852762D01*
X164411616Y-84862755D01*
X163365807Y-84862755D01*
X163346857Y-84861322D01*
X163332458Y-84859131D01*
X163332452Y-84859131D01*
X163325223Y-84858031D01*
X163317931Y-84858624D01*
X163317928Y-84858624D01*
X163272248Y-84862340D01*
X163262033Y-84862755D01*
X163253906Y-84862755D01*
X163250270Y-84863179D01*
X163250268Y-84863179D01*
X163247670Y-84863482D01*
X163225507Y-84866066D01*
X163221187Y-84866493D01*
X163148005Y-84872446D01*
X163141043Y-84874702D01*
X163135055Y-84875898D01*
X163129098Y-84877306D01*
X163121824Y-84878154D01*
X163114942Y-84880652D01*
X163114938Y-84880653D01*
X163052824Y-84903200D01*
X163048720Y-84904610D01*
X162978856Y-84927242D01*
X162972593Y-84931042D01*
X162967051Y-84933580D01*
X162961575Y-84936322D01*
X162954690Y-84938821D01*
X162948566Y-84942836D01*
X162893299Y-84979070D01*
X162889631Y-84981385D01*
X162826850Y-85019482D01*
X162822645Y-85023196D01*
X162822642Y-85023198D01*
X162818426Y-85026922D01*
X162818400Y-85026893D01*
X162815469Y-85029493D01*
X162812115Y-85032297D01*
X162805996Y-85036309D01*
X162800964Y-85041621D01*
X162752443Y-85092841D01*
X162750065Y-85095283D01*
X162544218Y-85301130D01*
X162481906Y-85335156D01*
X162411091Y-85330091D01*
X162354255Y-85287544D01*
X162329444Y-85221024D01*
X162329123Y-85212035D01*
X162329123Y-81725091D01*
X162349125Y-81656970D01*
X162366028Y-81635996D01*
X162657364Y-81344660D01*
X162719676Y-81310634D01*
X162746459Y-81307755D01*
X164408154Y-81307755D01*
X164476275Y-81327757D01*
G37*
%TD.AperFunction*%
%TA.AperFunction,Conductor*%
G36*
X164476275Y-76247757D02*
G01*
X164503391Y-76271258D01*
X164644002Y-76433583D01*
X164648862Y-76439193D01*
X164820738Y-76581887D01*
X164891207Y-76623066D01*
X164894057Y-76624731D01*
X164942781Y-76676369D01*
X164955852Y-76746152D01*
X164929121Y-76811924D01*
X164888667Y-76845282D01*
X164876219Y-76851762D01*
X164872086Y-76854865D01*
X164872083Y-76854867D01*
X164725474Y-76964944D01*
X164697577Y-76985890D01*
X164694005Y-76989628D01*
X164567455Y-77122055D01*
X164543241Y-77147393D01*
X164417355Y-77331935D01*
X164323300Y-77534560D01*
X164263601Y-77749825D01*
X164239863Y-77971950D01*
X164240160Y-77977103D01*
X164240160Y-77977106D01*
X164252424Y-78189802D01*
X164252722Y-78194970D01*
X164253859Y-78200016D01*
X164253860Y-78200022D01*
X164268535Y-78265138D01*
X164301834Y-78412894D01*
X164385878Y-78619871D01*
X164436631Y-78702693D01*
X164493891Y-78796132D01*
X164502599Y-78810343D01*
X164648862Y-78979193D01*
X164752570Y-79065293D01*
X164813827Y-79116149D01*
X164820738Y-79121887D01*
X164891207Y-79163066D01*
X164894057Y-79164731D01*
X164942781Y-79216369D01*
X164955852Y-79286152D01*
X164929121Y-79351924D01*
X164888667Y-79385282D01*
X164876219Y-79391762D01*
X164872086Y-79394865D01*
X164872083Y-79394867D01*
X164701712Y-79522785D01*
X164697577Y-79525890D01*
X164543241Y-79687393D01*
X164540327Y-79691665D01*
X164515704Y-79727760D01*
X164460792Y-79772762D01*
X164411616Y-79782755D01*
X162445807Y-79782755D01*
X162426857Y-79781322D01*
X162412458Y-79779131D01*
X162412452Y-79779131D01*
X162405223Y-79778031D01*
X162397931Y-79778624D01*
X162397928Y-79778624D01*
X162352248Y-79782340D01*
X162342033Y-79782755D01*
X162333906Y-79782755D01*
X162330270Y-79783179D01*
X162330268Y-79783179D01*
X162326816Y-79783582D01*
X162305507Y-79786066D01*
X162301187Y-79786493D01*
X162228005Y-79792446D01*
X162221043Y-79794702D01*
X162215055Y-79795898D01*
X162209098Y-79797306D01*
X162201824Y-79798154D01*
X162194942Y-79800652D01*
X162194938Y-79800653D01*
X162132824Y-79823200D01*
X162128720Y-79824610D01*
X162058856Y-79847242D01*
X162052593Y-79851042D01*
X162047051Y-79853580D01*
X162041575Y-79856322D01*
X162034690Y-79858821D01*
X162028566Y-79862836D01*
X161973299Y-79899070D01*
X161969631Y-79901385D01*
X161906850Y-79939482D01*
X161902645Y-79943196D01*
X161902642Y-79943198D01*
X161898426Y-79946922D01*
X161898400Y-79946893D01*
X161895469Y-79949493D01*
X161892115Y-79952297D01*
X161885996Y-79956309D01*
X161880964Y-79961621D01*
X161832443Y-80012841D01*
X161830065Y-80015283D01*
X161528698Y-80316650D01*
X161466386Y-80350676D01*
X161395571Y-80345611D01*
X161338735Y-80303064D01*
X161313924Y-80236544D01*
X161313603Y-80227555D01*
X161313603Y-76756995D01*
X161333605Y-76688874D01*
X161350508Y-76667900D01*
X161753748Y-76264660D01*
X161816060Y-76230634D01*
X161842843Y-76227755D01*
X164408154Y-76227755D01*
X164476275Y-76247757D01*
G37*
%TD.AperFunction*%
%TA.AperFunction,Conductor*%
G36*
X151537794Y-87888105D02*
G01*
X151570143Y-87951304D01*
X151572351Y-87974789D01*
X151572351Y-92117227D01*
X151552349Y-92185348D01*
X151535446Y-92206322D01*
X151295918Y-92445850D01*
X151233606Y-92479876D01*
X151206823Y-92482755D01*
X148433963Y-92482755D01*
X148365842Y-92462753D01*
X148328170Y-92425194D01*
X148320626Y-92413532D01*
X148170282Y-92248306D01*
X148166231Y-92245107D01*
X148166227Y-92245103D01*
X147999026Y-92113055D01*
X147999022Y-92113053D01*
X147994971Y-92109853D01*
X147953665Y-92087051D01*
X147903696Y-92036619D01*
X147888924Y-91967176D01*
X147914040Y-91900771D01*
X147941392Y-91874164D01*
X148011013Y-91824504D01*
X148120472Y-91746428D01*
X148147553Y-91719442D01*
X148275047Y-91592392D01*
X148278708Y-91588744D01*
X148294770Y-91566392D01*
X148406047Y-91411532D01*
X148409065Y-91407332D01*
X148480949Y-91261886D01*
X148505748Y-91211708D01*
X148505749Y-91211706D01*
X148508042Y-91207066D01*
X148572982Y-90993324D01*
X148602141Y-90771845D01*
X148603768Y-90705255D01*
X148585464Y-90482616D01*
X148531043Y-90265957D01*
X148441966Y-90061095D01*
X148365879Y-89943482D01*
X148323434Y-89877872D01*
X148323432Y-89877869D01*
X148320626Y-89873532D01*
X148170282Y-89708306D01*
X148166231Y-89705107D01*
X148166227Y-89705103D01*
X147999026Y-89573055D01*
X147999022Y-89573053D01*
X147994971Y-89569853D01*
X147953665Y-89547051D01*
X147903696Y-89496619D01*
X147888924Y-89427176D01*
X147914040Y-89360771D01*
X147941392Y-89334164D01*
X148011013Y-89284504D01*
X148120472Y-89206428D01*
X148147553Y-89179442D01*
X148275047Y-89052392D01*
X148278708Y-89048744D01*
X148281724Y-89044547D01*
X148327941Y-88980229D01*
X148383936Y-88936581D01*
X148430264Y-88927755D01*
X149937475Y-88927755D01*
X149956425Y-88929188D01*
X149970824Y-88931379D01*
X149970830Y-88931379D01*
X149978059Y-88932479D01*
X149985351Y-88931886D01*
X149985354Y-88931886D01*
X150031034Y-88928170D01*
X150041249Y-88927755D01*
X150049376Y-88927755D01*
X150053012Y-88927331D01*
X150053014Y-88927331D01*
X150056466Y-88926928D01*
X150077775Y-88924444D01*
X150082095Y-88924017D01*
X150155277Y-88918064D01*
X150162239Y-88915808D01*
X150168227Y-88914612D01*
X150174184Y-88913204D01*
X150181458Y-88912356D01*
X150188340Y-88909858D01*
X150188344Y-88909857D01*
X150250458Y-88887310D01*
X150254562Y-88885900D01*
X150324426Y-88863268D01*
X150330689Y-88859468D01*
X150336231Y-88856930D01*
X150341707Y-88854188D01*
X150348592Y-88851689D01*
X150409983Y-88811440D01*
X150413651Y-88809125D01*
X150476432Y-88771028D01*
X150480637Y-88767314D01*
X150480640Y-88767312D01*
X150484856Y-88763588D01*
X150484882Y-88763617D01*
X150487813Y-88761017D01*
X150491167Y-88758213D01*
X150497286Y-88754201D01*
X150550840Y-88697668D01*
X150553217Y-88695227D01*
X151252139Y-87996305D01*
X151266552Y-87983918D01*
X151278276Y-87975290D01*
X151284175Y-87970949D01*
X151318590Y-87930440D01*
X151325520Y-87922924D01*
X151331264Y-87917180D01*
X151333538Y-87914306D01*
X151333544Y-87914299D01*
X151347536Y-87896613D01*
X151405487Y-87855599D01*
X151476413Y-87852428D01*
X151537794Y-87888105D01*
G37*
%TD.AperFunction*%
%TD*%
%TA.AperFunction,Conductor*%
%TO.N,GND*%
G36*
X190914045Y-61784618D02*
G01*
X190928846Y-61786923D01*
X190928849Y-61786923D01*
X190937718Y-61788304D01*
X190954887Y-61786059D01*
X190978827Y-61785226D01*
X191236758Y-61800828D01*
X191251862Y-61802662D01*
X191322636Y-61815632D01*
X191532867Y-61854158D01*
X191547629Y-61857796D01*
X191820396Y-61942793D01*
X191834615Y-61948187D01*
X192095128Y-62065434D01*
X192108597Y-62072503D01*
X192353083Y-62220300D01*
X192365605Y-62228943D01*
X192590495Y-62405134D01*
X192601883Y-62415224D01*
X192803882Y-62617223D01*
X192813972Y-62628611D01*
X192990163Y-62853501D01*
X192998806Y-62866023D01*
X193146603Y-63110509D01*
X193153672Y-63123978D01*
X193270918Y-63384488D01*
X193276313Y-63398710D01*
X193352485Y-63643153D01*
X193361309Y-63671471D01*
X193364948Y-63686239D01*
X193382605Y-63782589D01*
X193416444Y-63967244D01*
X193418278Y-63982348D01*
X193433443Y-64233047D01*
X193432186Y-64259757D01*
X193432183Y-64259977D01*
X193430802Y-64268848D01*
X193431966Y-64277750D01*
X193431966Y-64277753D01*
X193434924Y-64300369D01*
X193435988Y-64316707D01*
X193435988Y-104360310D01*
X193434488Y-104379695D01*
X193432210Y-104394327D01*
X193430802Y-104403368D01*
X193432267Y-104414570D01*
X193433047Y-104420535D01*
X193433880Y-104444477D01*
X193418278Y-104702408D01*
X193416444Y-104717512D01*
X193364950Y-104998511D01*
X193361310Y-105013279D01*
X193295656Y-105223972D01*
X193276314Y-105286042D01*
X193270919Y-105300265D01*
X193185009Y-105491151D01*
X193153674Y-105560774D01*
X193146603Y-105574247D01*
X192998806Y-105818733D01*
X192990163Y-105831255D01*
X192813972Y-106056145D01*
X192803882Y-106067533D01*
X192601883Y-106269532D01*
X192590495Y-106279622D01*
X192365605Y-106455813D01*
X192353083Y-106464456D01*
X192108597Y-106612253D01*
X192095128Y-106619322D01*
X191834618Y-106736568D01*
X191820396Y-106741963D01*
X191547629Y-106826960D01*
X191532867Y-106830598D01*
X191322636Y-106869124D01*
X191251862Y-106882094D01*
X191236758Y-106883928D01*
X190986059Y-106899093D01*
X190959349Y-106897836D01*
X190959129Y-106897833D01*
X190950258Y-106896452D01*
X190941356Y-106897616D01*
X190941353Y-106897616D01*
X190918737Y-106900574D01*
X190902399Y-106901638D01*
X173915318Y-106901638D01*
X173895933Y-106900138D01*
X173881132Y-106897833D01*
X173881129Y-106897833D01*
X173872260Y-106896452D01*
X173855091Y-106898697D01*
X173831151Y-106899530D01*
X173573220Y-106883928D01*
X173558116Y-106882094D01*
X173487342Y-106869124D01*
X173277111Y-106830598D01*
X173262349Y-106826960D01*
X172989582Y-106741963D01*
X172975360Y-106736568D01*
X172714850Y-106619322D01*
X172701381Y-106612253D01*
X172456895Y-106464456D01*
X172444373Y-106455813D01*
X172219483Y-106279622D01*
X172208095Y-106269532D01*
X172006096Y-106067533D01*
X171996006Y-106056145D01*
X171819815Y-105831255D01*
X171811172Y-105818733D01*
X171663375Y-105574247D01*
X171656304Y-105560774D01*
X171624970Y-105491151D01*
X171539059Y-105300265D01*
X171533664Y-105286042D01*
X171514322Y-105223972D01*
X171448668Y-105013279D01*
X171445028Y-104998511D01*
X171393534Y-104717512D01*
X171391700Y-104702408D01*
X171376535Y-104451709D01*
X171377792Y-104424999D01*
X171377795Y-104424779D01*
X171379176Y-104415908D01*
X171377537Y-104403368D01*
X171375054Y-104384387D01*
X171373990Y-104368049D01*
X171373990Y-103337503D01*
X172802668Y-103337503D01*
X172819217Y-103624517D01*
X172820042Y-103628722D01*
X172820043Y-103628730D01*
X172836086Y-103710501D01*
X172874565Y-103906629D01*
X172875952Y-103910679D01*
X172875953Y-103910684D01*
X172904777Y-103994871D01*
X172967689Y-104178620D01*
X172979834Y-104202768D01*
X173091605Y-104424999D01*
X173096864Y-104435456D01*
X173259700Y-104672384D01*
X173453185Y-104885022D01*
X173456480Y-104887777D01*
X173456481Y-104887778D01*
X173606587Y-105013285D01*
X173673738Y-105069432D01*
X173917277Y-105222205D01*
X174179297Y-105340511D01*
X174229815Y-105355475D01*
X174450836Y-105420945D01*
X174450841Y-105420946D01*
X174454949Y-105422163D01*
X174459183Y-105422811D01*
X174459188Y-105422812D01*
X174626206Y-105448369D01*
X174739132Y-105465649D01*
X174885464Y-105467948D01*
X175022296Y-105470098D01*
X175022302Y-105470098D01*
X175026587Y-105470165D01*
X175030839Y-105469650D01*
X175030847Y-105469650D01*
X175307735Y-105436142D01*
X175307740Y-105436141D01*
X175311996Y-105435626D01*
X175503015Y-105385513D01*
X175585933Y-105363760D01*
X175585934Y-105363760D01*
X175590076Y-105362673D01*
X175855683Y-105252655D01*
X176103901Y-105107608D01*
X176330138Y-104930216D01*
X176371264Y-104887778D01*
X176506077Y-104748661D01*
X176530206Y-104723762D01*
X176532739Y-104720314D01*
X176532743Y-104720309D01*
X176697866Y-104495520D01*
X176700404Y-104492065D01*
X176741754Y-104415908D01*
X176835533Y-104243189D01*
X176835534Y-104243187D01*
X176837583Y-104239413D01*
X176939204Y-103970482D01*
X176979868Y-103792932D01*
X177002428Y-103694431D01*
X177002429Y-103694427D01*
X177003386Y-103690247D01*
X177004014Y-103683217D01*
X177028722Y-103406360D01*
X177028722Y-103406358D01*
X177028942Y-103403894D01*
X177029406Y-103359634D01*
X177009852Y-103072809D01*
X177005315Y-103050898D01*
X176952422Y-102795489D01*
X176951553Y-102791292D01*
X176855586Y-102520291D01*
X176723729Y-102264822D01*
X176710467Y-102245951D01*
X176560883Y-102033116D01*
X176558420Y-102029611D01*
X176362719Y-101819012D01*
X176140247Y-101636921D01*
X175895121Y-101486707D01*
X175877027Y-101478764D01*
X175635809Y-101372877D01*
X175631877Y-101371151D01*
X175605942Y-101363763D01*
X175359513Y-101293566D01*
X175359514Y-101293566D01*
X175355385Y-101292390D01*
X175142683Y-101262119D01*
X175075015Y-101252488D01*
X175075013Y-101252488D01*
X175070763Y-101251883D01*
X175066474Y-101251861D01*
X175066467Y-101251860D01*
X174787562Y-101250399D01*
X174787555Y-101250399D01*
X174783276Y-101250377D01*
X174779032Y-101250936D01*
X174779028Y-101250936D01*
X174653639Y-101267444D01*
X174498245Y-101287902D01*
X174494105Y-101289035D01*
X174494103Y-101289035D01*
X174417290Y-101310049D01*
X174220943Y-101363763D01*
X174216995Y-101365447D01*
X173960455Y-101474871D01*
X173960451Y-101474873D01*
X173956503Y-101476557D01*
X173831939Y-101551107D01*
X173713500Y-101621991D01*
X173713496Y-101621994D01*
X173709818Y-101624195D01*
X173485451Y-101803947D01*
X173287556Y-102012485D01*
X173119793Y-102245951D01*
X172985267Y-102500026D01*
X172886468Y-102770007D01*
X172825224Y-103050898D01*
X172802668Y-103337503D01*
X171373990Y-103337503D01*
X171373990Y-93212100D01*
X171861234Y-93212100D01*
X171861531Y-93217253D01*
X171861531Y-93217256D01*
X171866994Y-93311995D01*
X171874093Y-93435120D01*
X171875230Y-93440166D01*
X171875231Y-93440172D01*
X171895102Y-93528344D01*
X171923205Y-93653044D01*
X172007249Y-93860021D01*
X172123970Y-94050493D01*
X172270233Y-94219343D01*
X172442109Y-94362037D01*
X172634983Y-94474743D01*
X172843675Y-94554435D01*
X172848743Y-94555466D01*
X172848746Y-94555467D01*
X172956000Y-94577288D01*
X173062580Y-94598972D01*
X173067755Y-94599162D01*
X173067757Y-94599162D01*
X173280656Y-94606969D01*
X173280660Y-94606969D01*
X173285820Y-94607158D01*
X173290940Y-94606502D01*
X173290942Y-94606502D01*
X173502271Y-94579430D01*
X173502272Y-94579430D01*
X173507399Y-94578773D01*
X173512349Y-94577288D01*
X173716412Y-94516066D01*
X173716417Y-94516064D01*
X173721367Y-94514579D01*
X173921977Y-94416301D01*
X174103843Y-94286578D01*
X174262079Y-94128894D01*
X174321577Y-94046094D01*
X174389418Y-93951682D01*
X174392436Y-93947482D01*
X174491413Y-93747216D01*
X174556353Y-93533474D01*
X174585512Y-93311995D01*
X174587139Y-93245405D01*
X174568835Y-93022766D01*
X174514414Y-92806107D01*
X174425337Y-92601245D01*
X174303997Y-92413682D01*
X174153653Y-92248456D01*
X174149602Y-92245257D01*
X174149598Y-92245253D01*
X173982397Y-92113205D01*
X173982393Y-92113203D01*
X173978342Y-92110003D01*
X173937036Y-92087201D01*
X173887067Y-92036769D01*
X173872295Y-91967326D01*
X173897411Y-91900921D01*
X173924763Y-91874314D01*
X173968586Y-91843055D01*
X174103843Y-91746578D01*
X174262079Y-91588894D01*
X174321577Y-91506094D01*
X174389418Y-91411682D01*
X174392436Y-91407482D01*
X174491413Y-91207216D01*
X174556353Y-90993474D01*
X174585512Y-90771995D01*
X174587139Y-90705405D01*
X174568835Y-90482766D01*
X174514414Y-90266107D01*
X174425337Y-90061245D01*
X174303997Y-89873682D01*
X174153653Y-89708456D01*
X174149602Y-89705257D01*
X174149598Y-89705253D01*
X173982397Y-89573205D01*
X173982393Y-89573203D01*
X173978342Y-89570003D01*
X173937036Y-89547201D01*
X173887067Y-89496769D01*
X173872295Y-89427326D01*
X173897411Y-89360921D01*
X173924763Y-89334314D01*
X173968586Y-89303055D01*
X174103843Y-89206578D01*
X174262079Y-89048894D01*
X174321577Y-88966094D01*
X174389418Y-88871682D01*
X174392436Y-88867482D01*
X174491413Y-88667216D01*
X174556353Y-88453474D01*
X174585512Y-88231995D01*
X174587139Y-88165405D01*
X174568835Y-87942766D01*
X174514414Y-87726107D01*
X174425337Y-87521245D01*
X174351406Y-87406965D01*
X174306805Y-87338022D01*
X174306803Y-87338019D01*
X174303997Y-87333682D01*
X174153653Y-87168456D01*
X174149602Y-87165257D01*
X174149598Y-87165253D01*
X173982397Y-87033205D01*
X173982393Y-87033203D01*
X173978342Y-87030003D01*
X173937036Y-87007201D01*
X173887067Y-86956769D01*
X173881478Y-86930497D01*
X178331120Y-86930497D01*
X178344445Y-87133789D01*
X178394593Y-87331248D01*
X178479886Y-87516262D01*
X178597467Y-87682635D01*
X178601601Y-87686662D01*
X178643410Y-87727391D01*
X178678247Y-87789253D01*
X178681488Y-87817645D01*
X178681488Y-104183818D01*
X178680055Y-104202768D01*
X178677864Y-104217167D01*
X178677864Y-104217173D01*
X178676764Y-104224402D01*
X178677357Y-104231694D01*
X178677357Y-104231697D01*
X178681073Y-104277377D01*
X178681488Y-104287592D01*
X178681488Y-104295719D01*
X178684799Y-104324118D01*
X178685226Y-104328438D01*
X178691179Y-104401620D01*
X178693435Y-104408582D01*
X178694631Y-104414570D01*
X178696039Y-104420527D01*
X178696887Y-104427801D01*
X178699385Y-104434683D01*
X178699386Y-104434687D01*
X178721933Y-104496801D01*
X178723343Y-104500905D01*
X178745975Y-104570769D01*
X178749775Y-104577032D01*
X178752313Y-104582574D01*
X178755055Y-104588050D01*
X178757554Y-104594935D01*
X178761569Y-104601059D01*
X178797803Y-104656326D01*
X178800118Y-104659994D01*
X178838215Y-104722775D01*
X178841929Y-104726980D01*
X178841931Y-104726983D01*
X178845655Y-104731199D01*
X178845626Y-104731225D01*
X178848226Y-104734156D01*
X178851030Y-104737510D01*
X178855042Y-104743629D01*
X178860354Y-104748661D01*
X178911574Y-104797182D01*
X178914016Y-104799560D01*
X179463190Y-105348734D01*
X179475577Y-105363147D01*
X179488546Y-105380770D01*
X179494129Y-105385513D01*
X179529055Y-105415185D01*
X179536571Y-105422115D01*
X179542315Y-105427859D01*
X179545189Y-105430133D01*
X179545196Y-105430139D01*
X179564711Y-105445578D01*
X179568115Y-105448369D01*
X179618472Y-105491151D01*
X179618476Y-105491154D01*
X179624051Y-105495890D01*
X179630566Y-105499217D01*
X179635636Y-105502598D01*
X179640858Y-105505823D01*
X179646600Y-105510366D01*
X179713112Y-105541452D01*
X179717006Y-105543355D01*
X179782404Y-105576749D01*
X179789521Y-105578490D01*
X179795239Y-105580617D01*
X179801045Y-105582548D01*
X179807679Y-105585649D01*
X179814847Y-105587140D01*
X179814850Y-105587141D01*
X179859867Y-105596505D01*
X179879539Y-105600597D01*
X179883790Y-105601558D01*
X179897143Y-105604826D01*
X179898493Y-105605156D01*
X179959906Y-105640778D01*
X179975972Y-105661708D01*
X179991790Y-105687520D01*
X179991794Y-105687525D01*
X179994490Y-105691925D01*
X180146136Y-105866990D01*
X180324338Y-106014936D01*
X180524311Y-106131790D01*
X180740683Y-106214415D01*
X180745749Y-106215446D01*
X180745750Y-106215446D01*
X180798835Y-106226246D01*
X180967645Y-106260591D01*
X181097078Y-106265337D01*
X181193938Y-106268889D01*
X181193942Y-106268889D01*
X181199102Y-106269078D01*
X181204222Y-106268422D01*
X181204224Y-106268422D01*
X181278155Y-106258951D01*
X181428836Y-106239648D01*
X181433784Y-106238163D01*
X181433791Y-106238162D01*
X181645736Y-106174575D01*
X181650679Y-106173092D01*
X181731225Y-106133633D01*
X181854038Y-106073468D01*
X181854041Y-106073466D01*
X181858673Y-106071197D01*
X182047232Y-105936700D01*
X182092298Y-105891791D01*
X182154670Y-105857875D01*
X182225476Y-105863063D01*
X182282238Y-105905709D01*
X182299220Y-105936813D01*
X182324374Y-106003911D01*
X182411728Y-106120467D01*
X182528284Y-106207821D01*
X182664673Y-106258951D01*
X182726855Y-106265706D01*
X184623123Y-106265706D01*
X184685305Y-106258951D01*
X184821694Y-106207821D01*
X184938250Y-106120467D01*
X185025604Y-106003911D01*
X185076734Y-105867522D01*
X185083489Y-105805340D01*
X185083489Y-103909072D01*
X185076734Y-103846890D01*
X185025604Y-103710501D01*
X184938250Y-103593945D01*
X184821694Y-103506591D01*
X184685305Y-103455461D01*
X184623123Y-103448706D01*
X182726855Y-103448706D01*
X182664673Y-103455461D01*
X182528284Y-103506591D01*
X182411728Y-103593945D01*
X182324374Y-103710501D01*
X182321222Y-103718909D01*
X182321221Y-103718911D01*
X182300527Y-103774112D01*
X182257886Y-103830877D01*
X182191324Y-103855577D01*
X182121975Y-103840370D01*
X182099156Y-103823872D01*
X182098876Y-103823564D01*
X181966362Y-103718911D01*
X181921166Y-103683217D01*
X181921161Y-103683214D01*
X181917112Y-103680016D01*
X181912596Y-103677523D01*
X181912593Y-103677521D01*
X181718868Y-103570579D01*
X181718864Y-103570577D01*
X181714344Y-103568082D01*
X181709475Y-103566358D01*
X181709471Y-103566356D01*
X181500892Y-103492494D01*
X181500888Y-103492493D01*
X181496017Y-103490768D01*
X181490924Y-103489861D01*
X181490921Y-103489860D01*
X181273084Y-103451057D01*
X181273078Y-103451056D01*
X181267995Y-103450151D01*
X181195085Y-103449260D01*
X181041570Y-103447385D01*
X181041568Y-103447385D01*
X181036400Y-103447322D01*
X180807453Y-103482356D01*
X180587303Y-103554312D01*
X180390666Y-103656674D01*
X180321008Y-103670386D01*
X180254993Y-103644261D01*
X180213582Y-103586592D01*
X180206488Y-103544910D01*
X180206488Y-103337503D01*
X187780667Y-103337503D01*
X187797216Y-103624517D01*
X187798041Y-103628722D01*
X187798042Y-103628730D01*
X187814085Y-103710501D01*
X187852564Y-103906629D01*
X187853951Y-103910679D01*
X187853952Y-103910684D01*
X187882776Y-103994871D01*
X187945688Y-104178620D01*
X187957833Y-104202768D01*
X188069604Y-104424999D01*
X188074863Y-104435456D01*
X188237699Y-104672384D01*
X188431184Y-104885022D01*
X188434479Y-104887777D01*
X188434480Y-104887778D01*
X188584586Y-105013285D01*
X188651737Y-105069432D01*
X188895276Y-105222205D01*
X189157296Y-105340511D01*
X189207814Y-105355475D01*
X189428835Y-105420945D01*
X189428840Y-105420946D01*
X189432948Y-105422163D01*
X189437182Y-105422811D01*
X189437187Y-105422812D01*
X189604205Y-105448369D01*
X189717131Y-105465649D01*
X189863463Y-105467948D01*
X190000295Y-105470098D01*
X190000301Y-105470098D01*
X190004586Y-105470165D01*
X190008838Y-105469650D01*
X190008846Y-105469650D01*
X190285734Y-105436142D01*
X190285739Y-105436141D01*
X190289995Y-105435626D01*
X190481014Y-105385513D01*
X190563932Y-105363760D01*
X190563933Y-105363760D01*
X190568075Y-105362673D01*
X190833682Y-105252655D01*
X191081900Y-105107608D01*
X191308137Y-104930216D01*
X191349263Y-104887778D01*
X191484076Y-104748661D01*
X191508205Y-104723762D01*
X191510738Y-104720314D01*
X191510742Y-104720309D01*
X191675865Y-104495520D01*
X191678403Y-104492065D01*
X191719753Y-104415908D01*
X191813532Y-104243189D01*
X191813533Y-104243187D01*
X191815582Y-104239413D01*
X191917203Y-103970482D01*
X191957867Y-103792932D01*
X191980427Y-103694431D01*
X191980428Y-103694427D01*
X191981385Y-103690247D01*
X191982013Y-103683217D01*
X192006721Y-103406360D01*
X192006721Y-103406358D01*
X192006941Y-103403894D01*
X192007405Y-103359634D01*
X191987851Y-103072809D01*
X191983314Y-103050898D01*
X191930421Y-102795489D01*
X191929552Y-102791292D01*
X191833585Y-102520291D01*
X191701728Y-102264822D01*
X191688466Y-102245951D01*
X191538882Y-102033116D01*
X191536419Y-102029611D01*
X191340718Y-101819012D01*
X191118246Y-101636921D01*
X190873120Y-101486707D01*
X190855026Y-101478764D01*
X190613808Y-101372877D01*
X190609876Y-101371151D01*
X190583941Y-101363763D01*
X190337512Y-101293566D01*
X190337513Y-101293566D01*
X190333384Y-101292390D01*
X190120682Y-101262119D01*
X190053014Y-101252488D01*
X190053012Y-101252488D01*
X190048762Y-101251883D01*
X190044473Y-101251861D01*
X190044466Y-101251860D01*
X189765561Y-101250399D01*
X189765554Y-101250399D01*
X189761275Y-101250377D01*
X189757031Y-101250936D01*
X189757027Y-101250936D01*
X189631638Y-101267444D01*
X189476244Y-101287902D01*
X189472104Y-101289035D01*
X189472102Y-101289035D01*
X189395289Y-101310049D01*
X189198942Y-101363763D01*
X189194994Y-101365447D01*
X188938454Y-101474871D01*
X188938450Y-101474873D01*
X188934502Y-101476557D01*
X188809938Y-101551107D01*
X188691499Y-101621991D01*
X188691495Y-101621994D01*
X188687817Y-101624195D01*
X188463450Y-101803947D01*
X188265555Y-102012485D01*
X188097792Y-102245951D01*
X187963266Y-102500026D01*
X187864467Y-102770007D01*
X187803223Y-103050898D01*
X187780667Y-103337503D01*
X180206488Y-103337503D01*
X180206488Y-97237206D01*
X184636502Y-97237206D01*
X184656457Y-97465293D01*
X184715716Y-97686449D01*
X184718039Y-97691430D01*
X184718039Y-97691431D01*
X184810151Y-97888968D01*
X184810154Y-97888973D01*
X184812477Y-97893955D01*
X184943802Y-98081506D01*
X185105700Y-98243404D01*
X185110212Y-98246563D01*
X185110214Y-98246565D01*
X185133772Y-98263061D01*
X185178100Y-98318518D01*
X185187500Y-98366273D01*
X185187500Y-99194323D01*
X185167498Y-99262444D01*
X185150293Y-99282420D01*
X185150796Y-99282898D01*
X185146815Y-99287092D01*
X185142478Y-99290896D01*
X185138911Y-99295421D01*
X185138906Y-99295426D01*
X185052331Y-99405246D01*
X185016351Y-99450887D01*
X184921492Y-99631184D01*
X184861078Y-99825749D01*
X184837132Y-100028065D01*
X184850457Y-100231357D01*
X184900605Y-100428816D01*
X184985898Y-100613830D01*
X185103479Y-100780203D01*
X185249410Y-100922363D01*
X185254206Y-100925568D01*
X185254209Y-100925570D01*
X185322149Y-100970966D01*
X185418803Y-101035548D01*
X185424106Y-101037826D01*
X185424109Y-101037828D01*
X185513115Y-101076068D01*
X185605987Y-101115969D01*
X185678817Y-101132449D01*
X185799055Y-101159656D01*
X185799060Y-101159657D01*
X185804692Y-101160931D01*
X185810463Y-101161158D01*
X185810465Y-101161158D01*
X185873470Y-101163633D01*
X186008263Y-101168929D01*
X186209883Y-101139696D01*
X186215347Y-101137841D01*
X186215352Y-101137840D01*
X186397327Y-101076068D01*
X186397332Y-101076066D01*
X186402799Y-101074210D01*
X186580551Y-100974664D01*
X186737186Y-100844392D01*
X186867458Y-100687757D01*
X186967004Y-100510005D01*
X186968860Y-100504538D01*
X186968862Y-100504533D01*
X187030634Y-100322558D01*
X187030635Y-100322553D01*
X187032490Y-100317089D01*
X187061723Y-100115469D01*
X187063249Y-100057206D01*
X187044608Y-99854332D01*
X186989307Y-99658253D01*
X186978680Y-99636702D01*
X186901756Y-99480716D01*
X186899201Y-99475535D01*
X186880796Y-99450887D01*
X186780758Y-99316921D01*
X186780758Y-99316920D01*
X186777305Y-99312297D01*
X186752971Y-99289803D01*
X186716526Y-99228875D01*
X186712500Y-99197278D01*
X186712500Y-98366273D01*
X186732502Y-98298152D01*
X186766228Y-98263061D01*
X186789786Y-98246565D01*
X186789788Y-98246563D01*
X186794300Y-98243404D01*
X186956198Y-98081506D01*
X187087523Y-97893955D01*
X187089846Y-97888973D01*
X187089849Y-97888968D01*
X187181961Y-97691431D01*
X187181961Y-97691430D01*
X187184284Y-97686449D01*
X187243543Y-97465293D01*
X187263498Y-97237206D01*
X187243543Y-97009119D01*
X187184284Y-96787963D01*
X187181961Y-96782981D01*
X187089849Y-96585444D01*
X187089846Y-96585439D01*
X187087523Y-96580457D01*
X186956198Y-96392906D01*
X186794300Y-96231008D01*
X186789792Y-96227851D01*
X186789789Y-96227849D01*
X186711611Y-96173108D01*
X186606749Y-96099683D01*
X186601767Y-96097360D01*
X186601762Y-96097357D01*
X186404225Y-96005245D01*
X186404224Y-96005245D01*
X186399243Y-96002922D01*
X186393935Y-96001500D01*
X186393933Y-96001499D01*
X186183402Y-95945087D01*
X186183400Y-95945087D01*
X186178087Y-95943663D01*
X185950000Y-95923708D01*
X185721913Y-95943663D01*
X185716600Y-95945087D01*
X185716598Y-95945087D01*
X185506067Y-96001499D01*
X185506065Y-96001500D01*
X185500757Y-96002922D01*
X185495776Y-96005245D01*
X185495775Y-96005245D01*
X185298238Y-96097357D01*
X185298233Y-96097360D01*
X185293251Y-96099683D01*
X185188389Y-96173108D01*
X185110211Y-96227849D01*
X185110208Y-96227851D01*
X185105700Y-96231008D01*
X184943802Y-96392906D01*
X184812477Y-96580457D01*
X184810154Y-96585439D01*
X184810151Y-96585444D01*
X184718039Y-96782981D01*
X184715716Y-96787963D01*
X184656457Y-97009119D01*
X184636502Y-97237206D01*
X180206488Y-97237206D01*
X180206488Y-93212100D01*
X190223250Y-93212100D01*
X190223547Y-93217253D01*
X190223547Y-93217256D01*
X190229010Y-93311995D01*
X190236109Y-93435120D01*
X190237246Y-93440166D01*
X190237247Y-93440172D01*
X190257118Y-93528344D01*
X190285221Y-93653044D01*
X190369265Y-93860021D01*
X190485986Y-94050493D01*
X190632249Y-94219343D01*
X190804125Y-94362037D01*
X190996999Y-94474743D01*
X191205691Y-94554435D01*
X191210759Y-94555466D01*
X191210762Y-94555467D01*
X191318016Y-94577288D01*
X191424596Y-94598972D01*
X191429771Y-94599162D01*
X191429773Y-94599162D01*
X191642672Y-94606969D01*
X191642676Y-94606969D01*
X191647836Y-94607158D01*
X191652956Y-94606502D01*
X191652958Y-94606502D01*
X191864287Y-94579430D01*
X191864288Y-94579430D01*
X191869415Y-94578773D01*
X191874365Y-94577288D01*
X192078428Y-94516066D01*
X192078433Y-94516064D01*
X192083383Y-94514579D01*
X192283993Y-94416301D01*
X192465859Y-94286578D01*
X192624095Y-94128894D01*
X192683593Y-94046094D01*
X192751434Y-93951682D01*
X192754452Y-93947482D01*
X192853429Y-93747216D01*
X192918369Y-93533474D01*
X192947528Y-93311995D01*
X192949155Y-93245405D01*
X192930851Y-93022766D01*
X192876430Y-92806107D01*
X192787353Y-92601245D01*
X192666013Y-92413682D01*
X192515669Y-92248456D01*
X192511618Y-92245257D01*
X192511614Y-92245253D01*
X192344413Y-92113205D01*
X192344409Y-92113203D01*
X192340358Y-92110003D01*
X192299052Y-92087201D01*
X192249083Y-92036769D01*
X192234311Y-91967326D01*
X192259427Y-91900921D01*
X192286779Y-91874314D01*
X192330602Y-91843055D01*
X192465859Y-91746578D01*
X192624095Y-91588894D01*
X192683593Y-91506094D01*
X192751434Y-91411682D01*
X192754452Y-91407482D01*
X192853429Y-91207216D01*
X192918369Y-90993474D01*
X192947528Y-90771995D01*
X192949155Y-90705405D01*
X192930851Y-90482766D01*
X192876430Y-90266107D01*
X192787353Y-90061245D01*
X192666013Y-89873682D01*
X192515669Y-89708456D01*
X192511618Y-89705257D01*
X192511614Y-89705253D01*
X192344413Y-89573205D01*
X192344409Y-89573203D01*
X192340358Y-89570003D01*
X192299052Y-89547201D01*
X192249083Y-89496769D01*
X192234311Y-89427326D01*
X192259427Y-89360921D01*
X192286779Y-89334314D01*
X192330602Y-89303055D01*
X192465859Y-89206578D01*
X192624095Y-89048894D01*
X192683593Y-88966094D01*
X192751434Y-88871682D01*
X192754452Y-88867482D01*
X192853429Y-88667216D01*
X192918369Y-88453474D01*
X192947528Y-88231995D01*
X192949155Y-88165405D01*
X192930851Y-87942766D01*
X192876430Y-87726107D01*
X192787353Y-87521245D01*
X192713422Y-87406965D01*
X192668821Y-87338022D01*
X192668819Y-87338019D01*
X192666013Y-87333682D01*
X192515669Y-87168456D01*
X192511618Y-87165257D01*
X192511614Y-87165253D01*
X192344413Y-87033205D01*
X192344409Y-87033203D01*
X192340358Y-87030003D01*
X192299052Y-87007201D01*
X192249083Y-86956769D01*
X192234311Y-86887326D01*
X192259427Y-86820921D01*
X192286779Y-86794314D01*
X192347217Y-86751204D01*
X192465859Y-86666578D01*
X192624095Y-86508894D01*
X192683593Y-86426094D01*
X192751434Y-86331682D01*
X192754452Y-86327482D01*
X192798806Y-86237739D01*
X192851135Y-86131858D01*
X192851136Y-86131856D01*
X192853429Y-86127216D01*
X192918369Y-85913474D01*
X192947528Y-85691995D01*
X192949155Y-85625405D01*
X192930851Y-85402766D01*
X192876430Y-85186107D01*
X192787353Y-84981245D01*
X192666013Y-84793682D01*
X192515669Y-84628456D01*
X192511618Y-84625257D01*
X192511614Y-84625253D01*
X192344413Y-84493205D01*
X192344409Y-84493203D01*
X192340358Y-84490003D01*
X192299052Y-84467201D01*
X192249083Y-84416769D01*
X192234311Y-84347326D01*
X192259427Y-84280921D01*
X192286779Y-84254314D01*
X192330602Y-84223055D01*
X192465859Y-84126578D01*
X192624095Y-83968894D01*
X192683593Y-83886094D01*
X192751434Y-83791682D01*
X192754452Y-83787482D01*
X192853429Y-83587216D01*
X192918369Y-83373474D01*
X192947528Y-83151995D01*
X192949155Y-83085405D01*
X192930851Y-82862766D01*
X192876430Y-82646107D01*
X192787353Y-82441245D01*
X192682078Y-82278515D01*
X192668821Y-82258022D01*
X192668819Y-82258019D01*
X192666013Y-82253682D01*
X192515669Y-82088456D01*
X192511618Y-82085257D01*
X192511614Y-82085253D01*
X192344413Y-81953205D01*
X192344409Y-81953203D01*
X192340358Y-81950003D01*
X192299052Y-81927201D01*
X192249083Y-81876769D01*
X192234311Y-81807326D01*
X192259427Y-81740921D01*
X192286779Y-81714314D01*
X192352303Y-81667576D01*
X192465859Y-81586578D01*
X192624095Y-81428894D01*
X192683593Y-81346094D01*
X192751434Y-81251682D01*
X192754452Y-81247482D01*
X192766061Y-81223994D01*
X192851135Y-81051858D01*
X192851136Y-81051856D01*
X192853429Y-81047216D01*
X192904711Y-80878428D01*
X192916864Y-80838428D01*
X192916864Y-80838426D01*
X192918369Y-80833474D01*
X192947528Y-80611995D01*
X192949155Y-80545405D01*
X192930851Y-80322766D01*
X192876430Y-80106107D01*
X192787353Y-79901245D01*
X192719649Y-79796590D01*
X192668821Y-79718022D01*
X192668819Y-79718019D01*
X192666013Y-79713682D01*
X192515669Y-79548456D01*
X192511618Y-79545257D01*
X192511614Y-79545253D01*
X192344413Y-79413205D01*
X192344409Y-79413203D01*
X192340358Y-79410003D01*
X192299052Y-79387201D01*
X192249083Y-79336769D01*
X192234311Y-79267326D01*
X192259427Y-79200921D01*
X192286779Y-79174314D01*
X192330602Y-79143055D01*
X192465859Y-79046578D01*
X192624095Y-78888894D01*
X192683593Y-78806094D01*
X192751434Y-78711682D01*
X192754452Y-78707482D01*
X192772535Y-78670895D01*
X192851135Y-78511858D01*
X192851136Y-78511856D01*
X192853429Y-78507216D01*
X192918369Y-78293474D01*
X192947528Y-78071995D01*
X192949155Y-78005405D01*
X192930851Y-77782766D01*
X192876430Y-77566107D01*
X192787353Y-77361245D01*
X192666013Y-77173682D01*
X192515669Y-77008456D01*
X192511618Y-77005257D01*
X192511614Y-77005253D01*
X192344413Y-76873205D01*
X192344409Y-76873203D01*
X192340358Y-76870003D01*
X192299052Y-76847201D01*
X192249083Y-76796769D01*
X192234311Y-76727326D01*
X192259427Y-76660921D01*
X192286779Y-76634314D01*
X192330602Y-76603055D01*
X192465859Y-76506578D01*
X192624095Y-76348894D01*
X192683593Y-76266094D01*
X192751434Y-76171682D01*
X192754452Y-76167482D01*
X192824876Y-76024990D01*
X192851135Y-75971858D01*
X192851136Y-75971856D01*
X192853429Y-75967216D01*
X192911535Y-75775968D01*
X192916864Y-75758428D01*
X192916864Y-75758426D01*
X192918369Y-75753474D01*
X192947528Y-75531995D01*
X192949155Y-75465405D01*
X192930851Y-75242766D01*
X192876430Y-75026107D01*
X192787353Y-74821245D01*
X192700067Y-74686321D01*
X192668821Y-74638022D01*
X192668819Y-74638019D01*
X192666013Y-74633682D01*
X192515669Y-74468456D01*
X192511618Y-74465257D01*
X192511614Y-74465253D01*
X192344413Y-74333205D01*
X192344409Y-74333203D01*
X192340358Y-74330003D01*
X192316733Y-74316961D01*
X192286723Y-74300395D01*
X192144788Y-74222043D01*
X192139919Y-74220319D01*
X192139915Y-74220317D01*
X191939086Y-74149200D01*
X191939082Y-74149199D01*
X191934211Y-74147474D01*
X191929118Y-74146567D01*
X191929115Y-74146566D01*
X191719372Y-74109205D01*
X191719366Y-74109204D01*
X191714283Y-74108299D01*
X191640451Y-74107397D01*
X191496080Y-74105633D01*
X191496078Y-74105633D01*
X191490910Y-74105570D01*
X191270090Y-74139360D01*
X191057755Y-74208762D01*
X190859606Y-74311912D01*
X190855473Y-74315015D01*
X190855470Y-74315017D01*
X190709558Y-74424571D01*
X190680964Y-74446040D01*
X190526628Y-74607543D01*
X190523714Y-74611815D01*
X190523713Y-74611816D01*
X190497120Y-74650800D01*
X190400742Y-74792085D01*
X190306687Y-74994710D01*
X190246988Y-75209975D01*
X190223250Y-75432100D01*
X190223547Y-75437253D01*
X190223547Y-75437256D01*
X190233226Y-75605119D01*
X190236109Y-75655120D01*
X190237246Y-75660166D01*
X190237247Y-75660172D01*
X190257118Y-75748344D01*
X190285221Y-75873044D01*
X190369265Y-76080021D01*
X190371964Y-76084425D01*
X190459742Y-76227666D01*
X190485986Y-76270493D01*
X190632249Y-76439343D01*
X190804125Y-76582037D01*
X190870405Y-76620768D01*
X190877444Y-76624881D01*
X190926168Y-76676519D01*
X190939239Y-76746302D01*
X190912508Y-76812074D01*
X190872054Y-76845432D01*
X190859606Y-76851912D01*
X190855473Y-76855015D01*
X190855470Y-76855017D01*
X190685099Y-76982935D01*
X190680964Y-76986040D01*
X190526628Y-77147543D01*
X190400742Y-77332085D01*
X190306687Y-77534710D01*
X190246988Y-77749975D01*
X190223250Y-77972100D01*
X190223547Y-77977253D01*
X190223547Y-77977256D01*
X190229010Y-78071995D01*
X190236109Y-78195120D01*
X190237246Y-78200166D01*
X190237247Y-78200172D01*
X190246908Y-78243040D01*
X190285221Y-78413044D01*
X190369265Y-78620021D01*
X190485986Y-78810493D01*
X190632249Y-78979343D01*
X190804125Y-79122037D01*
X190847120Y-79147161D01*
X190877444Y-79164881D01*
X190926168Y-79216519D01*
X190939239Y-79286302D01*
X190912508Y-79352074D01*
X190872054Y-79385432D01*
X190859606Y-79391912D01*
X190855473Y-79395015D01*
X190855470Y-79395017D01*
X190800790Y-79436072D01*
X190680964Y-79526040D01*
X190526628Y-79687543D01*
X190523714Y-79691815D01*
X190523713Y-79691816D01*
X190457955Y-79788214D01*
X190400742Y-79872085D01*
X190306687Y-80074710D01*
X190246988Y-80289975D01*
X190223250Y-80512100D01*
X190223547Y-80517253D01*
X190223547Y-80517256D01*
X190229010Y-80611995D01*
X190236109Y-80735120D01*
X190237246Y-80740166D01*
X190237247Y-80740172D01*
X190257118Y-80828344D01*
X190285221Y-80953044D01*
X190369265Y-81160021D01*
X190485986Y-81350493D01*
X190632249Y-81519343D01*
X190804125Y-81662037D01*
X190866475Y-81698471D01*
X190877444Y-81704881D01*
X190926168Y-81756519D01*
X190939239Y-81826302D01*
X190912508Y-81892074D01*
X190872054Y-81925432D01*
X190859606Y-81931912D01*
X190855473Y-81935015D01*
X190855470Y-81935017D01*
X190685099Y-82062935D01*
X190680964Y-82066040D01*
X190526628Y-82227543D01*
X190523714Y-82231815D01*
X190523713Y-82231816D01*
X190511403Y-82249862D01*
X190400742Y-82412085D01*
X190306687Y-82614710D01*
X190246988Y-82829975D01*
X190223250Y-83052100D01*
X190223547Y-83057253D01*
X190223547Y-83057256D01*
X190229010Y-83151995D01*
X190236109Y-83275120D01*
X190237246Y-83280166D01*
X190237247Y-83280172D01*
X190250596Y-83339405D01*
X190285221Y-83493044D01*
X190369265Y-83700021D01*
X190485986Y-83890493D01*
X190632249Y-84059343D01*
X190804125Y-84202037D01*
X190874594Y-84243216D01*
X190877444Y-84244881D01*
X190926168Y-84296519D01*
X190939239Y-84366302D01*
X190912508Y-84432074D01*
X190872054Y-84465432D01*
X190859606Y-84471912D01*
X190855473Y-84475015D01*
X190855470Y-84475017D01*
X190831246Y-84493205D01*
X190680964Y-84606040D01*
X190526628Y-84767543D01*
X190400742Y-84952085D01*
X190306687Y-85154710D01*
X190246988Y-85369975D01*
X190223250Y-85592100D01*
X190223547Y-85597253D01*
X190223547Y-85597256D01*
X190229010Y-85691995D01*
X190236109Y-85815120D01*
X190237246Y-85820166D01*
X190237247Y-85820172D01*
X190253233Y-85891106D01*
X190285221Y-86033044D01*
X190323460Y-86127216D01*
X190352145Y-86197858D01*
X190369265Y-86240021D01*
X190371964Y-86244425D01*
X190483046Y-86425695D01*
X190485986Y-86430493D01*
X190632249Y-86599343D01*
X190804125Y-86742037D01*
X190839174Y-86762518D01*
X190877444Y-86784881D01*
X190926168Y-86836519D01*
X190939239Y-86906302D01*
X190912508Y-86972074D01*
X190872054Y-87005432D01*
X190859606Y-87011912D01*
X190855473Y-87015015D01*
X190855470Y-87015017D01*
X190685099Y-87142935D01*
X190680964Y-87146040D01*
X190526628Y-87307543D01*
X190523714Y-87311815D01*
X190523713Y-87311816D01*
X190498129Y-87349321D01*
X190400742Y-87492085D01*
X190385002Y-87525995D01*
X190310423Y-87686662D01*
X190306687Y-87694710D01*
X190246988Y-87909975D01*
X190223250Y-88132100D01*
X190223547Y-88137253D01*
X190223547Y-88137256D01*
X190229010Y-88231995D01*
X190236109Y-88355120D01*
X190237246Y-88360166D01*
X190237247Y-88360172D01*
X190257118Y-88448344D01*
X190285221Y-88573044D01*
X190369265Y-88780021D01*
X190485986Y-88970493D01*
X190632249Y-89139343D01*
X190804125Y-89282037D01*
X190874594Y-89323216D01*
X190877444Y-89324881D01*
X190926168Y-89376519D01*
X190939239Y-89446302D01*
X190912508Y-89512074D01*
X190872054Y-89545432D01*
X190859606Y-89551912D01*
X190855473Y-89555015D01*
X190855470Y-89555017D01*
X190831246Y-89573205D01*
X190680964Y-89686040D01*
X190526628Y-89847543D01*
X190400742Y-90032085D01*
X190306687Y-90234710D01*
X190246988Y-90449975D01*
X190223250Y-90672100D01*
X190223547Y-90677253D01*
X190223547Y-90677256D01*
X190229010Y-90771995D01*
X190236109Y-90895120D01*
X190237246Y-90900166D01*
X190237247Y-90900172D01*
X190257118Y-90988344D01*
X190285221Y-91113044D01*
X190369265Y-91320021D01*
X190485986Y-91510493D01*
X190632249Y-91679343D01*
X190804125Y-91822037D01*
X190874594Y-91863216D01*
X190877444Y-91864881D01*
X190926168Y-91916519D01*
X190939239Y-91986302D01*
X190912508Y-92052074D01*
X190872054Y-92085432D01*
X190859606Y-92091912D01*
X190855473Y-92095015D01*
X190855470Y-92095017D01*
X190831246Y-92113205D01*
X190680964Y-92226040D01*
X190526628Y-92387543D01*
X190400742Y-92572085D01*
X190306687Y-92774710D01*
X190246988Y-92989975D01*
X190223250Y-93212100D01*
X180206488Y-93212100D01*
X180206488Y-87822054D01*
X180226490Y-87753933D01*
X180235614Y-87741485D01*
X180238336Y-87738213D01*
X180361446Y-87590189D01*
X180460992Y-87412437D01*
X180462848Y-87406970D01*
X180462850Y-87406965D01*
X180484316Y-87343728D01*
X184667273Y-87343728D01*
X184714764Y-87520967D01*
X184718510Y-87531259D01*
X184810586Y-87728717D01*
X184816069Y-87738213D01*
X184941028Y-87916673D01*
X184948084Y-87925081D01*
X185102125Y-88079122D01*
X185110533Y-88086178D01*
X185288993Y-88211137D01*
X185298489Y-88216620D01*
X185495947Y-88308696D01*
X185506239Y-88312442D01*
X185678503Y-88358600D01*
X185692599Y-88358264D01*
X185696000Y-88350322D01*
X185696000Y-88345173D01*
X186204000Y-88345173D01*
X186207973Y-88358704D01*
X186216522Y-88359933D01*
X186393761Y-88312442D01*
X186404053Y-88308696D01*
X186601511Y-88216620D01*
X186611007Y-88211137D01*
X186789467Y-88086178D01*
X186797875Y-88079122D01*
X186951916Y-87925081D01*
X186958972Y-87916673D01*
X187083931Y-87738213D01*
X187089414Y-87728717D01*
X187181490Y-87531259D01*
X187185236Y-87520967D01*
X187231394Y-87348703D01*
X187231058Y-87334607D01*
X187223116Y-87331206D01*
X186222115Y-87331206D01*
X186206876Y-87335681D01*
X186205671Y-87337071D01*
X186204000Y-87344754D01*
X186204000Y-88345173D01*
X185696000Y-88345173D01*
X185696000Y-87349321D01*
X185691525Y-87334082D01*
X185690135Y-87332877D01*
X185682452Y-87331206D01*
X184682033Y-87331206D01*
X184668502Y-87335179D01*
X184667273Y-87343728D01*
X180484316Y-87343728D01*
X180524622Y-87224990D01*
X180524623Y-87224985D01*
X180526478Y-87219521D01*
X180555711Y-87017901D01*
X180557237Y-86959638D01*
X180544701Y-86823206D01*
X180543093Y-86805709D01*
X184668606Y-86805709D01*
X184668942Y-86819805D01*
X184676884Y-86823206D01*
X185677885Y-86823206D01*
X185693124Y-86818731D01*
X185694329Y-86817341D01*
X185696000Y-86809658D01*
X185696000Y-86805091D01*
X186204000Y-86805091D01*
X186208475Y-86820330D01*
X186209865Y-86821535D01*
X186217548Y-86823206D01*
X187217967Y-86823206D01*
X187231498Y-86819233D01*
X187232727Y-86810684D01*
X187185236Y-86633445D01*
X187181490Y-86623153D01*
X187089414Y-86425695D01*
X187083931Y-86416199D01*
X186958972Y-86237739D01*
X186951916Y-86229331D01*
X186797875Y-86075290D01*
X186789467Y-86068234D01*
X186611007Y-85943275D01*
X186601511Y-85937792D01*
X186404053Y-85845716D01*
X186393761Y-85841970D01*
X186221497Y-85795812D01*
X186207401Y-85796148D01*
X186204000Y-85804090D01*
X186204000Y-86805091D01*
X185696000Y-86805091D01*
X185696000Y-85809239D01*
X185692027Y-85795708D01*
X185683478Y-85794479D01*
X185506239Y-85841970D01*
X185495947Y-85845716D01*
X185298489Y-85937792D01*
X185288993Y-85943275D01*
X185110533Y-86068234D01*
X185102125Y-86075290D01*
X184948084Y-86229331D01*
X184941028Y-86237739D01*
X184816069Y-86416199D01*
X184810586Y-86425695D01*
X184718510Y-86623153D01*
X184714764Y-86633445D01*
X184668606Y-86805709D01*
X180543093Y-86805709D01*
X180539125Y-86762518D01*
X180539124Y-86762515D01*
X180538596Y-86756764D01*
X180535179Y-86744647D01*
X180484863Y-86566244D01*
X180484862Y-86566242D01*
X180483295Y-86560685D01*
X180472668Y-86539134D01*
X180395744Y-86383148D01*
X180393189Y-86377967D01*
X180374784Y-86353319D01*
X180274746Y-86219353D01*
X180274746Y-86219352D01*
X180271293Y-86214729D01*
X180121691Y-86076438D01*
X180044923Y-86028001D01*
X179954276Y-85970807D01*
X179954271Y-85970805D01*
X179949392Y-85967726D01*
X179760168Y-85892233D01*
X179560354Y-85852487D01*
X179554580Y-85852411D01*
X179554576Y-85852411D01*
X179451440Y-85851062D01*
X179356643Y-85849821D01*
X179350946Y-85850800D01*
X179350945Y-85850800D01*
X179161555Y-85883343D01*
X179155858Y-85884322D01*
X178964722Y-85954836D01*
X178959761Y-85957788D01*
X178959760Y-85957788D01*
X178833267Y-86033044D01*
X178789637Y-86059001D01*
X178636466Y-86193328D01*
X178632899Y-86197853D01*
X178632894Y-86197858D01*
X178601455Y-86237739D01*
X178510339Y-86353319D01*
X178415480Y-86533616D01*
X178355066Y-86728181D01*
X178331120Y-86930497D01*
X173881478Y-86930497D01*
X173872295Y-86887326D01*
X173897411Y-86820921D01*
X173924763Y-86794314D01*
X173985201Y-86751204D01*
X174103843Y-86666578D01*
X174262079Y-86508894D01*
X174321577Y-86426094D01*
X174389418Y-86331682D01*
X174392436Y-86327482D01*
X174436790Y-86237739D01*
X174489119Y-86131858D01*
X174489120Y-86131856D01*
X174491413Y-86127216D01*
X174556353Y-85913474D01*
X174585512Y-85691995D01*
X174587139Y-85625405D01*
X174568835Y-85402766D01*
X174514414Y-85186107D01*
X174425337Y-84981245D01*
X174303997Y-84793682D01*
X174153653Y-84628456D01*
X174149602Y-84625257D01*
X174149598Y-84625253D01*
X173982397Y-84493205D01*
X173982393Y-84493203D01*
X173978342Y-84490003D01*
X173936552Y-84466934D01*
X173886581Y-84416502D01*
X173871809Y-84347059D01*
X173896925Y-84280653D01*
X173924277Y-84254046D01*
X174099311Y-84129197D01*
X174107183Y-84122544D01*
X174258035Y-83972217D01*
X174264713Y-83964370D01*
X174388986Y-83791425D01*
X174394296Y-83782588D01*
X174488653Y-83591672D01*
X174492452Y-83582077D01*
X174554360Y-83378315D01*
X174556538Y-83368242D01*
X174557969Y-83357367D01*
X174555758Y-83343183D01*
X174542600Y-83339405D01*
X171907208Y-83339405D01*
X171893677Y-83343378D01*
X171892240Y-83353371D01*
X171922548Y-83487851D01*
X171925628Y-83497680D01*
X172005753Y-83695008D01*
X172010396Y-83704199D01*
X172121677Y-83885793D01*
X172127760Y-83894104D01*
X172267196Y-84055072D01*
X172274563Y-84062288D01*
X172438417Y-84198321D01*
X172446864Y-84204236D01*
X172515952Y-84244608D01*
X172564676Y-84296247D01*
X172577747Y-84366030D01*
X172551016Y-84431801D01*
X172510567Y-84465157D01*
X172497590Y-84471912D01*
X172493457Y-84475015D01*
X172493454Y-84475017D01*
X172469230Y-84493205D01*
X172318948Y-84606040D01*
X172164612Y-84767543D01*
X172038726Y-84952085D01*
X171944671Y-85154710D01*
X171884972Y-85369975D01*
X171861234Y-85592100D01*
X171861531Y-85597253D01*
X171861531Y-85597256D01*
X171866994Y-85691995D01*
X171874093Y-85815120D01*
X171875230Y-85820166D01*
X171875231Y-85820172D01*
X171891217Y-85891106D01*
X171923205Y-86033044D01*
X171961444Y-86127216D01*
X171990129Y-86197858D01*
X172007249Y-86240021D01*
X172009948Y-86244425D01*
X172121030Y-86425695D01*
X172123970Y-86430493D01*
X172270233Y-86599343D01*
X172442109Y-86742037D01*
X172477158Y-86762518D01*
X172515428Y-86784881D01*
X172564152Y-86836519D01*
X172577223Y-86906302D01*
X172550492Y-86972074D01*
X172510038Y-87005432D01*
X172497590Y-87011912D01*
X172493457Y-87015015D01*
X172493454Y-87015017D01*
X172323083Y-87142935D01*
X172318948Y-87146040D01*
X172164612Y-87307543D01*
X172161698Y-87311815D01*
X172161697Y-87311816D01*
X172136113Y-87349321D01*
X172038726Y-87492085D01*
X172022986Y-87525995D01*
X171948407Y-87686662D01*
X171944671Y-87694710D01*
X171884972Y-87909975D01*
X171861234Y-88132100D01*
X171861531Y-88137253D01*
X171861531Y-88137256D01*
X171866994Y-88231995D01*
X171874093Y-88355120D01*
X171875230Y-88360166D01*
X171875231Y-88360172D01*
X171895102Y-88448344D01*
X171923205Y-88573044D01*
X172007249Y-88780021D01*
X172123970Y-88970493D01*
X172270233Y-89139343D01*
X172442109Y-89282037D01*
X172512578Y-89323216D01*
X172515428Y-89324881D01*
X172564152Y-89376519D01*
X172577223Y-89446302D01*
X172550492Y-89512074D01*
X172510038Y-89545432D01*
X172497590Y-89551912D01*
X172493457Y-89555015D01*
X172493454Y-89555017D01*
X172469230Y-89573205D01*
X172318948Y-89686040D01*
X172164612Y-89847543D01*
X172038726Y-90032085D01*
X171944671Y-90234710D01*
X171884972Y-90449975D01*
X171861234Y-90672100D01*
X171861531Y-90677253D01*
X171861531Y-90677256D01*
X171866994Y-90771995D01*
X171874093Y-90895120D01*
X171875230Y-90900166D01*
X171875231Y-90900172D01*
X171895102Y-90988344D01*
X171923205Y-91113044D01*
X172007249Y-91320021D01*
X172123970Y-91510493D01*
X172270233Y-91679343D01*
X172442109Y-91822037D01*
X172512578Y-91863216D01*
X172515428Y-91864881D01*
X172564152Y-91916519D01*
X172577223Y-91986302D01*
X172550492Y-92052074D01*
X172510038Y-92085432D01*
X172497590Y-92091912D01*
X172493457Y-92095015D01*
X172493454Y-92095017D01*
X172469230Y-92113205D01*
X172318948Y-92226040D01*
X172164612Y-92387543D01*
X172038726Y-92572085D01*
X171944671Y-92774710D01*
X171884972Y-92989975D01*
X171861234Y-93212100D01*
X171373990Y-93212100D01*
X171373990Y-80512100D01*
X171861234Y-80512100D01*
X171861531Y-80517253D01*
X171861531Y-80517256D01*
X171866994Y-80611995D01*
X171874093Y-80735120D01*
X171875230Y-80740166D01*
X171875231Y-80740172D01*
X171895102Y-80828344D01*
X171923205Y-80953044D01*
X172007249Y-81160021D01*
X172123970Y-81350493D01*
X172270233Y-81519343D01*
X172442109Y-81662037D01*
X172504459Y-81698471D01*
X172515938Y-81705179D01*
X172564662Y-81756817D01*
X172577733Y-81826600D01*
X172551002Y-81892372D01*
X172510545Y-81925732D01*
X172502440Y-81929951D01*
X172493721Y-81935441D01*
X172323416Y-82063310D01*
X172315709Y-82070153D01*
X172168573Y-82224122D01*
X172162087Y-82232132D01*
X172042081Y-82408054D01*
X172036983Y-82417028D01*
X171947321Y-82610188D01*
X171943758Y-82619875D01*
X171888372Y-82819588D01*
X171889895Y-82828012D01*
X171902275Y-82831405D01*
X174542327Y-82831405D01*
X174555858Y-82827432D01*
X174557163Y-82818352D01*
X174515197Y-82651280D01*
X174511877Y-82641529D01*
X174426955Y-82446219D01*
X174422088Y-82437144D01*
X174306409Y-82258331D01*
X174300119Y-82250162D01*
X174156789Y-82092645D01*
X174149256Y-82085620D01*
X173982122Y-81953627D01*
X173973539Y-81947925D01*
X173936585Y-81927525D01*
X173886614Y-81877092D01*
X173871842Y-81807650D01*
X173896958Y-81741244D01*
X173924310Y-81714637D01*
X173990287Y-81667576D01*
X174091054Y-81595700D01*
X175822481Y-81595700D01*
X175831777Y-81607715D01*
X175882982Y-81643569D01*
X175892477Y-81649052D01*
X176089935Y-81741128D01*
X176100227Y-81744874D01*
X176310676Y-81801263D01*
X176321469Y-81803166D01*
X176538513Y-81822155D01*
X176549463Y-81822155D01*
X176766507Y-81803166D01*
X176777300Y-81801263D01*
X176987749Y-81744874D01*
X176998041Y-81741128D01*
X177195499Y-81649052D01*
X177204994Y-81643569D01*
X177257036Y-81607129D01*
X177265412Y-81596650D01*
X177258344Y-81583204D01*
X176556800Y-80881660D01*
X176542856Y-80874046D01*
X176541023Y-80874177D01*
X176534408Y-80878428D01*
X175828911Y-81583925D01*
X175822481Y-81595700D01*
X174091054Y-81595700D01*
X174103843Y-81586578D01*
X174262079Y-81428894D01*
X174321577Y-81346094D01*
X174389418Y-81251682D01*
X174392436Y-81247482D01*
X174404045Y-81223994D01*
X174489119Y-81051858D01*
X174489120Y-81051856D01*
X174491413Y-81047216D01*
X174542695Y-80878428D01*
X174554848Y-80838428D01*
X174554848Y-80838426D01*
X174556353Y-80833474D01*
X174585512Y-80611995D01*
X174587139Y-80545405D01*
X174584649Y-80515113D01*
X175231471Y-80515113D01*
X175250460Y-80732157D01*
X175252363Y-80742950D01*
X175308752Y-80953399D01*
X175312498Y-80963691D01*
X175404574Y-81161149D01*
X175410057Y-81170644D01*
X175446497Y-81222686D01*
X175456976Y-81231062D01*
X175470422Y-81223994D01*
X176171966Y-80522450D01*
X176178344Y-80510770D01*
X176908396Y-80510770D01*
X176908527Y-80512603D01*
X176912778Y-80519218D01*
X177618275Y-81224715D01*
X177630050Y-81231145D01*
X177642065Y-81221849D01*
X177677919Y-81170644D01*
X177683402Y-81161149D01*
X177775478Y-80963691D01*
X177779224Y-80953399D01*
X177835613Y-80742950D01*
X177837516Y-80732157D01*
X177856505Y-80515113D01*
X177856505Y-80504163D01*
X177837516Y-80287119D01*
X177835613Y-80276326D01*
X177779224Y-80065877D01*
X177775478Y-80055585D01*
X177683402Y-79858127D01*
X177677919Y-79848632D01*
X177641479Y-79796590D01*
X177631000Y-79788214D01*
X177617554Y-79795282D01*
X176916010Y-80496826D01*
X176908396Y-80510770D01*
X176178344Y-80510770D01*
X176179580Y-80508506D01*
X176179449Y-80506673D01*
X176175198Y-80500058D01*
X175469701Y-79794561D01*
X175457926Y-79788131D01*
X175445911Y-79797427D01*
X175410057Y-79848632D01*
X175404574Y-79858127D01*
X175312498Y-80055585D01*
X175308752Y-80065877D01*
X175252363Y-80276326D01*
X175250460Y-80287119D01*
X175231471Y-80504163D01*
X175231471Y-80515113D01*
X174584649Y-80515113D01*
X174568835Y-80322766D01*
X174514414Y-80106107D01*
X174425337Y-79901245D01*
X174357633Y-79796590D01*
X174306805Y-79718022D01*
X174306803Y-79718019D01*
X174303997Y-79713682D01*
X174153653Y-79548456D01*
X174149602Y-79545257D01*
X174149598Y-79545253D01*
X173982397Y-79413205D01*
X173982393Y-79413203D01*
X173978342Y-79410003D01*
X173937036Y-79387201D01*
X173887067Y-79336769D01*
X173872295Y-79267326D01*
X173897411Y-79200921D01*
X173924763Y-79174314D01*
X173968586Y-79143055D01*
X174103843Y-79046578D01*
X174262079Y-78888894D01*
X174321577Y-78806094D01*
X174389418Y-78711682D01*
X174392436Y-78707482D01*
X174410519Y-78670895D01*
X174489119Y-78511858D01*
X174489120Y-78511856D01*
X174491413Y-78507216D01*
X174556353Y-78293474D01*
X174585512Y-78071995D01*
X174587036Y-78009638D01*
X175230490Y-78009638D01*
X175250445Y-78237725D01*
X175251869Y-78243038D01*
X175251869Y-78243040D01*
X175296071Y-78408001D01*
X175309704Y-78458881D01*
X175312027Y-78463862D01*
X175312027Y-78463863D01*
X175404139Y-78661400D01*
X175404142Y-78661405D01*
X175406465Y-78666387D01*
X175409622Y-78670895D01*
X175510102Y-78814395D01*
X175537790Y-78853938D01*
X175699688Y-79015836D01*
X175704196Y-79018993D01*
X175704199Y-79018995D01*
X175807864Y-79091582D01*
X175887239Y-79147161D01*
X175892223Y-79149485D01*
X175894516Y-79150809D01*
X175943509Y-79202191D01*
X175956945Y-79271905D01*
X175930559Y-79337816D01*
X175894516Y-79369047D01*
X175882986Y-79375704D01*
X175830940Y-79412147D01*
X175822564Y-79422626D01*
X175829632Y-79436072D01*
X176531176Y-80137616D01*
X176545120Y-80145230D01*
X176546953Y-80145099D01*
X176553568Y-80140848D01*
X177259065Y-79435351D01*
X177265495Y-79423576D01*
X177256199Y-79411561D01*
X177204990Y-79375704D01*
X177193460Y-79369047D01*
X177144467Y-79317665D01*
X177131030Y-79247951D01*
X177157417Y-79182040D01*
X177193460Y-79150809D01*
X177195753Y-79149485D01*
X177200737Y-79147161D01*
X177280112Y-79091582D01*
X177383777Y-79018995D01*
X177383780Y-79018993D01*
X177388288Y-79015836D01*
X177550186Y-78853938D01*
X177577875Y-78814395D01*
X177678354Y-78670895D01*
X177681511Y-78666387D01*
X177683834Y-78661405D01*
X177683837Y-78661400D01*
X177775949Y-78463863D01*
X177775949Y-78463862D01*
X177778272Y-78458881D01*
X177791906Y-78408001D01*
X177836107Y-78243040D01*
X177836107Y-78243038D01*
X177837531Y-78237725D01*
X177857486Y-78009638D01*
X177837531Y-77781551D01*
X177778272Y-77560395D01*
X177764106Y-77530015D01*
X177683837Y-77357876D01*
X177683834Y-77357871D01*
X177681511Y-77352889D01*
X177608086Y-77248027D01*
X177553345Y-77169849D01*
X177553343Y-77169846D01*
X177550186Y-77165338D01*
X177388288Y-77003440D01*
X177368777Y-76989778D01*
X177360216Y-76983783D01*
X177315888Y-76928326D01*
X177306488Y-76880571D01*
X177306488Y-76227666D01*
X177326490Y-76159545D01*
X177343393Y-76138571D01*
X178175089Y-75306875D01*
X178237401Y-75272849D01*
X178308216Y-75277914D01*
X178365052Y-75320461D01*
X178389863Y-75386981D01*
X178384516Y-75433334D01*
X178356781Y-75522654D01*
X178356778Y-75522666D01*
X178355066Y-75528181D01*
X178331120Y-75730497D01*
X178344445Y-75933789D01*
X178394593Y-76131248D01*
X178479886Y-76316262D01*
X178597467Y-76482635D01*
X178743398Y-76624795D01*
X178748194Y-76628000D01*
X178748197Y-76628002D01*
X178848082Y-76694743D01*
X178912791Y-76737980D01*
X178918094Y-76740258D01*
X178918097Y-76740260D01*
X179094668Y-76816121D01*
X179099975Y-76818401D01*
X179172805Y-76834881D01*
X179293043Y-76862088D01*
X179293048Y-76862089D01*
X179298680Y-76863363D01*
X179304451Y-76863590D01*
X179304453Y-76863590D01*
X179367458Y-76866065D01*
X179502251Y-76871361D01*
X179703871Y-76842128D01*
X179709335Y-76840273D01*
X179709340Y-76840272D01*
X179891315Y-76778500D01*
X179891320Y-76778498D01*
X179896787Y-76776642D01*
X179922856Y-76762043D01*
X179984847Y-76727326D01*
X180074539Y-76677096D01*
X180231174Y-76546824D01*
X180361446Y-76390189D01*
X180430943Y-76266094D01*
X180458168Y-76217480D01*
X180458169Y-76217478D01*
X180460992Y-76212437D01*
X180462848Y-76206970D01*
X180462850Y-76206965D01*
X180524622Y-76024990D01*
X180524623Y-76024985D01*
X180526478Y-76019521D01*
X180555711Y-75817901D01*
X180556860Y-75774038D01*
X180578639Y-75706464D01*
X180593722Y-75688242D01*
X180822921Y-75459043D01*
X180885233Y-75425017D01*
X180912016Y-75422138D01*
X182976612Y-75422138D01*
X182995562Y-75423571D01*
X183009961Y-75425762D01*
X183009967Y-75425762D01*
X183017196Y-75426862D01*
X183024488Y-75426269D01*
X183024491Y-75426269D01*
X183070171Y-75422553D01*
X183080386Y-75422138D01*
X183088513Y-75422138D01*
X183092149Y-75421714D01*
X183092151Y-75421714D01*
X183095603Y-75421311D01*
X183116912Y-75418827D01*
X183121232Y-75418400D01*
X183194414Y-75412447D01*
X183201376Y-75410191D01*
X183207364Y-75408995D01*
X183213321Y-75407587D01*
X183220595Y-75406739D01*
X183227477Y-75404241D01*
X183227481Y-75404240D01*
X183289595Y-75381693D01*
X183293699Y-75380283D01*
X183363563Y-75357651D01*
X183369826Y-75353851D01*
X183375368Y-75351313D01*
X183380844Y-75348571D01*
X183387729Y-75346072D01*
X183449120Y-75305823D01*
X183452788Y-75303508D01*
X183515569Y-75265411D01*
X183519774Y-75261697D01*
X183519777Y-75261695D01*
X183523993Y-75257971D01*
X183524019Y-75258000D01*
X183526950Y-75255400D01*
X183530304Y-75252596D01*
X183536423Y-75248584D01*
X183589977Y-75192051D01*
X183592354Y-75189610D01*
X184213380Y-74568584D01*
X184219067Y-74563238D01*
X184265390Y-74522327D01*
X184302844Y-74469330D01*
X184306900Y-74463910D01*
X184347148Y-74413038D01*
X184351214Y-74404338D01*
X184362463Y-74384972D01*
X184368008Y-74377126D01*
X184392256Y-74316958D01*
X184394963Y-74310732D01*
X184422432Y-74251958D01*
X184424388Y-74242556D01*
X184430880Y-74221121D01*
X184431733Y-74219005D01*
X184431735Y-74218999D01*
X184434470Y-74212211D01*
X184444226Y-74148085D01*
X184445433Y-74141378D01*
X184457150Y-74085045D01*
X184457150Y-74085044D01*
X184458640Y-74077881D01*
X184458380Y-74068285D01*
X184459768Y-74045922D01*
X184460112Y-74043664D01*
X184460112Y-74043659D01*
X184461212Y-74036430D01*
X184459441Y-74014647D01*
X184455954Y-73971783D01*
X184455585Y-73964978D01*
X184454028Y-73907457D01*
X184453830Y-73900143D01*
X184451369Y-73890863D01*
X184447576Y-73868790D01*
X184446797Y-73859212D01*
X184443622Y-73849412D01*
X184437491Y-73810586D01*
X184437491Y-71566705D01*
X184457493Y-71498584D01*
X184511149Y-71452091D01*
X184563491Y-71440705D01*
X184573125Y-71440705D01*
X184620625Y-71435545D01*
X184635307Y-71433950D01*
X184635480Y-71435545D01*
X184697239Y-71438768D01*
X184754884Y-71480213D01*
X184780971Y-71546243D01*
X184781488Y-71557650D01*
X184781488Y-79696755D01*
X184761486Y-79764876D01*
X184744281Y-79784852D01*
X184744784Y-79785330D01*
X184740803Y-79789524D01*
X184736466Y-79793328D01*
X184732899Y-79797853D01*
X184732894Y-79797858D01*
X184654819Y-79896897D01*
X184610339Y-79953319D01*
X184515480Y-80133616D01*
X184455066Y-80328181D01*
X184431120Y-80530497D01*
X184444445Y-80733789D01*
X184494593Y-80931248D01*
X184579886Y-81116262D01*
X184697467Y-81282635D01*
X184843398Y-81424795D01*
X184848194Y-81428000D01*
X184848197Y-81428002D01*
X184967851Y-81507952D01*
X185012791Y-81537980D01*
X185018094Y-81540258D01*
X185018097Y-81540260D01*
X185118052Y-81583204D01*
X185199975Y-81618401D01*
X185272805Y-81634881D01*
X185393043Y-81662088D01*
X185393048Y-81662089D01*
X185398680Y-81663363D01*
X185404451Y-81663590D01*
X185404453Y-81663590D01*
X185467458Y-81666065D01*
X185602251Y-81671361D01*
X185679372Y-81660179D01*
X185697465Y-81657556D01*
X185767751Y-81667576D01*
X185821462Y-81714006D01*
X185841545Y-81782103D01*
X185840672Y-81797059D01*
X185831120Y-81877764D01*
X185844445Y-82081056D01*
X185894593Y-82278515D01*
X185979886Y-82463529D01*
X186097467Y-82629902D01*
X186243398Y-82772062D01*
X186248194Y-82775267D01*
X186248197Y-82775269D01*
X186325901Y-82827189D01*
X186412791Y-82885247D01*
X186418094Y-82887525D01*
X186418097Y-82887527D01*
X186507103Y-82925767D01*
X186599975Y-82965668D01*
X186672805Y-82982148D01*
X186793043Y-83009355D01*
X186793048Y-83009356D01*
X186798680Y-83010630D01*
X186804451Y-83010857D01*
X186804453Y-83010857D01*
X186867458Y-83013332D01*
X187002251Y-83018628D01*
X187203871Y-82989395D01*
X187209335Y-82987540D01*
X187209340Y-82987539D01*
X187391315Y-82925767D01*
X187391320Y-82925765D01*
X187396787Y-82923909D01*
X187574539Y-82824363D01*
X187731174Y-82694091D01*
X187861446Y-82537456D01*
X187960992Y-82359704D01*
X187962848Y-82354237D01*
X187962850Y-82354232D01*
X188024622Y-82172257D01*
X188024623Y-82172252D01*
X188026478Y-82166788D01*
X188055711Y-81965168D01*
X188057237Y-81906905D01*
X188041986Y-81740921D01*
X188039125Y-81709785D01*
X188039124Y-81709782D01*
X188038596Y-81704031D01*
X188029148Y-81670532D01*
X187984863Y-81513511D01*
X187984862Y-81513509D01*
X187983295Y-81507952D01*
X187943869Y-81428002D01*
X187895744Y-81330415D01*
X187893189Y-81325234D01*
X187771293Y-81161996D01*
X187708470Y-81103923D01*
X187672025Y-81042994D01*
X187667999Y-81011398D01*
X187667999Y-66088140D01*
X187688001Y-66020019D01*
X187741657Y-65973526D01*
X187811931Y-65963422D01*
X187876511Y-65992916D01*
X187913206Y-66047326D01*
X187938584Y-66121447D01*
X187945688Y-66142197D01*
X187961231Y-66173101D01*
X188068471Y-66386323D01*
X188074863Y-66399033D01*
X188237699Y-66635961D01*
X188240586Y-66639134D01*
X188240587Y-66639135D01*
X188404671Y-66819462D01*
X188431184Y-66848599D01*
X188434479Y-66851354D01*
X188434480Y-66851355D01*
X188585105Y-66977296D01*
X188651737Y-67033009D01*
X188895276Y-67185782D01*
X189157296Y-67304088D01*
X189226541Y-67324599D01*
X189428835Y-67384522D01*
X189428840Y-67384523D01*
X189432948Y-67385740D01*
X189437182Y-67386388D01*
X189437187Y-67386389D01*
X189685789Y-67424430D01*
X189717131Y-67429226D01*
X189863463Y-67431525D01*
X190000295Y-67433675D01*
X190000301Y-67433675D01*
X190004586Y-67433742D01*
X190008838Y-67433227D01*
X190008846Y-67433227D01*
X190285734Y-67399719D01*
X190285739Y-67399718D01*
X190289995Y-67399203D01*
X190386580Y-67373864D01*
X190563932Y-67327337D01*
X190563933Y-67327337D01*
X190568075Y-67326250D01*
X190833682Y-67216232D01*
X191081900Y-67071185D01*
X191308137Y-66893793D01*
X191312739Y-66889045D01*
X191438096Y-66759686D01*
X191508205Y-66687339D01*
X191510738Y-66683891D01*
X191510742Y-66683886D01*
X191675865Y-66459097D01*
X191678403Y-66455642D01*
X191703182Y-66410005D01*
X191813532Y-66206766D01*
X191813533Y-66206764D01*
X191815582Y-66202990D01*
X191902777Y-65972236D01*
X191915685Y-65938077D01*
X191915686Y-65938073D01*
X191917203Y-65934059D01*
X191948759Y-65796279D01*
X191980427Y-65658008D01*
X191980428Y-65658004D01*
X191981385Y-65653824D01*
X191984688Y-65616821D01*
X192006721Y-65369937D01*
X192006721Y-65369935D01*
X192006941Y-65367471D01*
X192007405Y-65323211D01*
X192004264Y-65277137D01*
X191988143Y-65040663D01*
X191988142Y-65040657D01*
X191987851Y-65036386D01*
X191983314Y-65014475D01*
X191930421Y-64759066D01*
X191929552Y-64754869D01*
X191833585Y-64483868D01*
X191738874Y-64300369D01*
X191703693Y-64232206D01*
X191703693Y-64232205D01*
X191701728Y-64228399D01*
X191695617Y-64219703D01*
X191619074Y-64110794D01*
X191536419Y-63993188D01*
X191405049Y-63851817D01*
X191343639Y-63785732D01*
X191343636Y-63785730D01*
X191340718Y-63782589D01*
X191118246Y-63600498D01*
X190873120Y-63450284D01*
X190855026Y-63442341D01*
X190613808Y-63336454D01*
X190609876Y-63334728D01*
X190583941Y-63327340D01*
X190337512Y-63257143D01*
X190337513Y-63257143D01*
X190333384Y-63255967D01*
X190120682Y-63225696D01*
X190053014Y-63216065D01*
X190053012Y-63216065D01*
X190048762Y-63215460D01*
X190044473Y-63215438D01*
X190044466Y-63215437D01*
X189765561Y-63213976D01*
X189765554Y-63213976D01*
X189761275Y-63213954D01*
X189757031Y-63214513D01*
X189757027Y-63214513D01*
X189631638Y-63231021D01*
X189476244Y-63251479D01*
X189472104Y-63252612D01*
X189472102Y-63252612D01*
X189395289Y-63273626D01*
X189198942Y-63327340D01*
X189194994Y-63329024D01*
X188938454Y-63438448D01*
X188938450Y-63438450D01*
X188934502Y-63440134D01*
X188809938Y-63514684D01*
X188691499Y-63585568D01*
X188691495Y-63585571D01*
X188687817Y-63587772D01*
X188463450Y-63767524D01*
X188265555Y-63976062D01*
X188244577Y-64005256D01*
X188125850Y-64170482D01*
X188097792Y-64209528D01*
X188095783Y-64213323D01*
X188095782Y-64213324D01*
X188082849Y-64237751D01*
X187963266Y-64463603D01*
X187864467Y-64733584D01*
X187803223Y-65014475D01*
X187780667Y-65301080D01*
X187784851Y-65373648D01*
X187789219Y-65449398D01*
X187773172Y-65518557D01*
X187722281Y-65568062D01*
X187652705Y-65582194D01*
X187586534Y-65556467D01*
X187558056Y-65525736D01*
X187551684Y-65516017D01*
X187549369Y-65512349D01*
X187511272Y-65449568D01*
X187507556Y-65445361D01*
X187507553Y-65445357D01*
X187503831Y-65441144D01*
X187503859Y-65441119D01*
X187501267Y-65438194D01*
X187498457Y-65434834D01*
X187494445Y-65428714D01*
X187437915Y-65375162D01*
X187435473Y-65372785D01*
X186573365Y-64510677D01*
X186560978Y-64496264D01*
X186552350Y-64484540D01*
X186548009Y-64478641D01*
X186507500Y-64444226D01*
X186499984Y-64437296D01*
X186494240Y-64431552D01*
X186491366Y-64429278D01*
X186491359Y-64429272D01*
X186471844Y-64413833D01*
X186468440Y-64411042D01*
X186418083Y-64368260D01*
X186418079Y-64368257D01*
X186412504Y-64363521D01*
X186405987Y-64360193D01*
X186400923Y-64356816D01*
X186395699Y-64353589D01*
X186389955Y-64349045D01*
X186346820Y-64328885D01*
X186323473Y-64317973D01*
X186319522Y-64316042D01*
X186286257Y-64299056D01*
X186254151Y-64282662D01*
X186247036Y-64280921D01*
X186241290Y-64278784D01*
X186235507Y-64276860D01*
X186228876Y-64273761D01*
X186156998Y-64258811D01*
X186152726Y-64257844D01*
X186081443Y-64240401D01*
X186075844Y-64240054D01*
X186075840Y-64240053D01*
X186070225Y-64239705D01*
X186070227Y-64239666D01*
X186066326Y-64239433D01*
X186061967Y-64239044D01*
X186054799Y-64237553D01*
X186047482Y-64237751D01*
X185976978Y-64239659D01*
X185973569Y-64239705D01*
X184868342Y-64239705D01*
X184800221Y-64219703D01*
X184762549Y-64182144D01*
X184755005Y-64170482D01*
X184604661Y-64005256D01*
X184600610Y-64002057D01*
X184600606Y-64002053D01*
X184433405Y-63870005D01*
X184433401Y-63870003D01*
X184429350Y-63866803D01*
X184233780Y-63758843D01*
X184228911Y-63757119D01*
X184228907Y-63757117D01*
X184028078Y-63686000D01*
X184028074Y-63685999D01*
X184023203Y-63684274D01*
X184018110Y-63683367D01*
X184018107Y-63683366D01*
X183808364Y-63646005D01*
X183808358Y-63646004D01*
X183803275Y-63645099D01*
X183729443Y-63644197D01*
X183585072Y-63642433D01*
X183585070Y-63642433D01*
X183579902Y-63642370D01*
X183359082Y-63676160D01*
X183146747Y-63745562D01*
X182948598Y-63848712D01*
X182944465Y-63851815D01*
X182944462Y-63851817D01*
X182778983Y-63976062D01*
X182769956Y-63982840D01*
X182615620Y-64144343D01*
X182508192Y-64301826D01*
X182453284Y-64346826D01*
X182382759Y-64354997D01*
X182319012Y-64323743D01*
X182298315Y-64299259D01*
X182217813Y-64174822D01*
X182217811Y-64174819D01*
X182215005Y-64170482D01*
X182064661Y-64005256D01*
X182060610Y-64002057D01*
X182060606Y-64002053D01*
X181893405Y-63870005D01*
X181893401Y-63870003D01*
X181889350Y-63866803D01*
X181693780Y-63758843D01*
X181688911Y-63757119D01*
X181688907Y-63757117D01*
X181488078Y-63686000D01*
X181488074Y-63685999D01*
X181483203Y-63684274D01*
X181478110Y-63683367D01*
X181478107Y-63683366D01*
X181268364Y-63646005D01*
X181268358Y-63646004D01*
X181263275Y-63645099D01*
X181189443Y-63644197D01*
X181045072Y-63642433D01*
X181045070Y-63642433D01*
X181039902Y-63642370D01*
X180819082Y-63676160D01*
X180606747Y-63745562D01*
X180408598Y-63848712D01*
X180404465Y-63851815D01*
X180404462Y-63851817D01*
X180238983Y-63976062D01*
X180229956Y-63982840D01*
X180075620Y-64144343D01*
X180072706Y-64148615D01*
X180048083Y-64184710D01*
X179993171Y-64229712D01*
X179943995Y-64239705D01*
X179422377Y-64239705D01*
X179403427Y-64238272D01*
X179389028Y-64236081D01*
X179389022Y-64236081D01*
X179381793Y-64234981D01*
X179374501Y-64235574D01*
X179374498Y-64235574D01*
X179328818Y-64239290D01*
X179318603Y-64239705D01*
X179310476Y-64239705D01*
X179306840Y-64240129D01*
X179306838Y-64240129D01*
X179303386Y-64240532D01*
X179282077Y-64243016D01*
X179277757Y-64243443D01*
X179204575Y-64249396D01*
X179197613Y-64251652D01*
X179191625Y-64252848D01*
X179185668Y-64254256D01*
X179178394Y-64255104D01*
X179171512Y-64257602D01*
X179171508Y-64257603D01*
X179109394Y-64280150D01*
X179105290Y-64281560D01*
X179035426Y-64304192D01*
X179029163Y-64307992D01*
X179023621Y-64310530D01*
X179018145Y-64313272D01*
X179011260Y-64315771D01*
X179005136Y-64319786D01*
X178949869Y-64356020D01*
X178946201Y-64358335D01*
X178883420Y-64396432D01*
X178879215Y-64400146D01*
X178879212Y-64400148D01*
X178874996Y-64403872D01*
X178874970Y-64403843D01*
X178872039Y-64406443D01*
X178868685Y-64409247D01*
X178862566Y-64413259D01*
X178833231Y-64444226D01*
X178809013Y-64469791D01*
X178806635Y-64472233D01*
X178008472Y-65270396D01*
X177994059Y-65282783D01*
X177976436Y-65295752D01*
X177971692Y-65301335D01*
X177971693Y-65301335D01*
X177942021Y-65336261D01*
X177935091Y-65343777D01*
X177929347Y-65349521D01*
X177927073Y-65352395D01*
X177927067Y-65352402D01*
X177911628Y-65371917D01*
X177908837Y-65375321D01*
X177866055Y-65425678D01*
X177866052Y-65425682D01*
X177861316Y-65431257D01*
X177857988Y-65437774D01*
X177854611Y-65442838D01*
X177851384Y-65448062D01*
X177846840Y-65453806D01*
X177843741Y-65460437D01*
X177815768Y-65520288D01*
X177813837Y-65524239D01*
X177780457Y-65589610D01*
X177778716Y-65596725D01*
X177776579Y-65602471D01*
X177774655Y-65608254D01*
X177771556Y-65614885D01*
X177759367Y-65673490D01*
X177756608Y-65686753D01*
X177755639Y-65691035D01*
X177738196Y-65762318D01*
X177737849Y-65767917D01*
X177737848Y-65767921D01*
X177737500Y-65773531D01*
X177737500Y-65773536D01*
X177737461Y-65773534D01*
X177737228Y-65777435D01*
X177736839Y-65781794D01*
X177735348Y-65788962D01*
X177735546Y-65796279D01*
X177737454Y-65866783D01*
X177737500Y-65870192D01*
X177737500Y-73535598D01*
X177717498Y-73603719D01*
X177700595Y-73624693D01*
X176052460Y-75272828D01*
X176038047Y-75285215D01*
X176020424Y-75298184D01*
X176001498Y-75320461D01*
X175986009Y-75338693D01*
X175979079Y-75346209D01*
X175973335Y-75351953D01*
X175971061Y-75354827D01*
X175971055Y-75354834D01*
X175955616Y-75374349D01*
X175952825Y-75377753D01*
X175910043Y-75428110D01*
X175910040Y-75428114D01*
X175905304Y-75433689D01*
X175901976Y-75440206D01*
X175898599Y-75445270D01*
X175895372Y-75450494D01*
X175890828Y-75456238D01*
X175887729Y-75462869D01*
X175859756Y-75522720D01*
X175857825Y-75526671D01*
X175854125Y-75533918D01*
X175824445Y-75592042D01*
X175822704Y-75599157D01*
X175820567Y-75604903D01*
X175818643Y-75610686D01*
X175815544Y-75617317D01*
X175806631Y-75660172D01*
X175800596Y-75689185D01*
X175799627Y-75693467D01*
X175782184Y-75764750D01*
X175781488Y-75775968D01*
X175781449Y-75775966D01*
X175781216Y-75779867D01*
X175780827Y-75784226D01*
X175779336Y-75791394D01*
X175779534Y-75798711D01*
X175781442Y-75869215D01*
X175781488Y-75872624D01*
X175781488Y-76880571D01*
X175761486Y-76948692D01*
X175727760Y-76983783D01*
X175719199Y-76989778D01*
X175699688Y-77003440D01*
X175537790Y-77165338D01*
X175534633Y-77169846D01*
X175534631Y-77169849D01*
X175479890Y-77248027D01*
X175406465Y-77352889D01*
X175404142Y-77357871D01*
X175404139Y-77357876D01*
X175323870Y-77530015D01*
X175309704Y-77560395D01*
X175250445Y-77781551D01*
X175230490Y-78009638D01*
X174587036Y-78009638D01*
X174587139Y-78005405D01*
X174568835Y-77782766D01*
X174514414Y-77566107D01*
X174425337Y-77361245D01*
X174303997Y-77173682D01*
X174300515Y-77169855D01*
X174156781Y-77011893D01*
X174125729Y-76948047D01*
X174134124Y-76877548D01*
X174179300Y-76822780D01*
X174205744Y-76809111D01*
X174312280Y-76769172D01*
X174320688Y-76766020D01*
X174437244Y-76678666D01*
X174524598Y-76562110D01*
X174575728Y-76425721D01*
X174582483Y-76363539D01*
X174582483Y-74567271D01*
X174575728Y-74505089D01*
X174524598Y-74368700D01*
X174437244Y-74252144D01*
X174320688Y-74164790D01*
X174184299Y-74113660D01*
X174122117Y-74106905D01*
X172325849Y-74106905D01*
X172263667Y-74113660D01*
X172127278Y-74164790D01*
X172010722Y-74252144D01*
X171923368Y-74368700D01*
X171872238Y-74505089D01*
X171865483Y-74567271D01*
X171865483Y-76363539D01*
X171872238Y-76425721D01*
X171923368Y-76562110D01*
X172010722Y-76678666D01*
X172127278Y-76766020D01*
X172135687Y-76769172D01*
X172135688Y-76769173D01*
X172244434Y-76809940D01*
X172301199Y-76852581D01*
X172325899Y-76919143D01*
X172310692Y-76988492D01*
X172291299Y-77014973D01*
X172164612Y-77147543D01*
X172038726Y-77332085D01*
X171944671Y-77534710D01*
X171884972Y-77749975D01*
X171861234Y-77972100D01*
X171861531Y-77977253D01*
X171861531Y-77977256D01*
X171866994Y-78071995D01*
X171874093Y-78195120D01*
X171875230Y-78200166D01*
X171875231Y-78200172D01*
X171884892Y-78243040D01*
X171923205Y-78413044D01*
X172007249Y-78620021D01*
X172123970Y-78810493D01*
X172270233Y-78979343D01*
X172442109Y-79122037D01*
X172485104Y-79147161D01*
X172515428Y-79164881D01*
X172564152Y-79216519D01*
X172577223Y-79286302D01*
X172550492Y-79352074D01*
X172510038Y-79385432D01*
X172497590Y-79391912D01*
X172493457Y-79395015D01*
X172493454Y-79395017D01*
X172438774Y-79436072D01*
X172318948Y-79526040D01*
X172164612Y-79687543D01*
X172161698Y-79691815D01*
X172161697Y-79691816D01*
X172095939Y-79788214D01*
X172038726Y-79872085D01*
X171944671Y-80074710D01*
X171884972Y-80289975D01*
X171861234Y-80512100D01*
X171373990Y-80512100D01*
X171373990Y-65301080D01*
X172802668Y-65301080D01*
X172819217Y-65588094D01*
X172820042Y-65592299D01*
X172820043Y-65592307D01*
X172833729Y-65662062D01*
X172874565Y-65870206D01*
X172875952Y-65874256D01*
X172875953Y-65874261D01*
X172965615Y-66136139D01*
X172967689Y-66142197D01*
X172983232Y-66173101D01*
X173090472Y-66386323D01*
X173096864Y-66399033D01*
X173259700Y-66635961D01*
X173262587Y-66639134D01*
X173262588Y-66639135D01*
X173426672Y-66819462D01*
X173453185Y-66848599D01*
X173456480Y-66851354D01*
X173456481Y-66851355D01*
X173607106Y-66977296D01*
X173673738Y-67033009D01*
X173917277Y-67185782D01*
X174179297Y-67304088D01*
X174248542Y-67324599D01*
X174450836Y-67384522D01*
X174450841Y-67384523D01*
X174454949Y-67385740D01*
X174459183Y-67386388D01*
X174459188Y-67386389D01*
X174707790Y-67424430D01*
X174739132Y-67429226D01*
X174885464Y-67431525D01*
X175022296Y-67433675D01*
X175022302Y-67433675D01*
X175026587Y-67433742D01*
X175030839Y-67433227D01*
X175030847Y-67433227D01*
X175307735Y-67399719D01*
X175307740Y-67399718D01*
X175311996Y-67399203D01*
X175408581Y-67373864D01*
X175585933Y-67327337D01*
X175585934Y-67327337D01*
X175590076Y-67326250D01*
X175855683Y-67216232D01*
X176103901Y-67071185D01*
X176330138Y-66893793D01*
X176334740Y-66889045D01*
X176460097Y-66759686D01*
X176530206Y-66687339D01*
X176532739Y-66683891D01*
X176532743Y-66683886D01*
X176697866Y-66459097D01*
X176700404Y-66455642D01*
X176725183Y-66410005D01*
X176835533Y-66206766D01*
X176835534Y-66206764D01*
X176837583Y-66202990D01*
X176924778Y-65972236D01*
X176937686Y-65938077D01*
X176937687Y-65938073D01*
X176939204Y-65934059D01*
X176970760Y-65796279D01*
X177002428Y-65658008D01*
X177002429Y-65658004D01*
X177003386Y-65653824D01*
X177006689Y-65616821D01*
X177028722Y-65369937D01*
X177028722Y-65369935D01*
X177028942Y-65367471D01*
X177029406Y-65323211D01*
X177026265Y-65277137D01*
X177010144Y-65040663D01*
X177010143Y-65040657D01*
X177009852Y-65036386D01*
X177005315Y-65014475D01*
X176952422Y-64759066D01*
X176951553Y-64754869D01*
X176855586Y-64483868D01*
X176760875Y-64300369D01*
X176725694Y-64232206D01*
X176725694Y-64232205D01*
X176723729Y-64228399D01*
X176717618Y-64219703D01*
X176641075Y-64110794D01*
X176558420Y-63993188D01*
X176427050Y-63851817D01*
X176365640Y-63785732D01*
X176365637Y-63785730D01*
X176362719Y-63782589D01*
X176140247Y-63600498D01*
X175895121Y-63450284D01*
X175877027Y-63442341D01*
X175635809Y-63336454D01*
X175631877Y-63334728D01*
X175605942Y-63327340D01*
X175359513Y-63257143D01*
X175359514Y-63257143D01*
X175355385Y-63255967D01*
X175142683Y-63225696D01*
X175075015Y-63216065D01*
X175075013Y-63216065D01*
X175070763Y-63215460D01*
X175066474Y-63215438D01*
X175066467Y-63215437D01*
X174787562Y-63213976D01*
X174787555Y-63213976D01*
X174783276Y-63213954D01*
X174779032Y-63214513D01*
X174779028Y-63214513D01*
X174653639Y-63231021D01*
X174498245Y-63251479D01*
X174494105Y-63252612D01*
X174494103Y-63252612D01*
X174417290Y-63273626D01*
X174220943Y-63327340D01*
X174216995Y-63329024D01*
X173960455Y-63438448D01*
X173960451Y-63438450D01*
X173956503Y-63440134D01*
X173831939Y-63514684D01*
X173713500Y-63585568D01*
X173713496Y-63585571D01*
X173709818Y-63587772D01*
X173485451Y-63767524D01*
X173287556Y-63976062D01*
X173266578Y-64005256D01*
X173147851Y-64170482D01*
X173119793Y-64209528D01*
X173117784Y-64213323D01*
X173117783Y-64213324D01*
X173104850Y-64237751D01*
X172985267Y-64463603D01*
X172886468Y-64733584D01*
X172825224Y-65014475D01*
X172802668Y-65301080D01*
X171373990Y-65301080D01*
X171373990Y-64324446D01*
X171375490Y-64305061D01*
X171377795Y-64290260D01*
X171377795Y-64290257D01*
X171379176Y-64281388D01*
X171376931Y-64264219D01*
X171376098Y-64240279D01*
X171391700Y-63982348D01*
X171393534Y-63967244D01*
X171427373Y-63782589D01*
X171445030Y-63686239D01*
X171448669Y-63671471D01*
X171457494Y-63643153D01*
X171533665Y-63398710D01*
X171539060Y-63384488D01*
X171656306Y-63123978D01*
X171663375Y-63110509D01*
X171811172Y-62866023D01*
X171819815Y-62853501D01*
X171996006Y-62628611D01*
X172006096Y-62617223D01*
X172208095Y-62415224D01*
X172219483Y-62405134D01*
X172444373Y-62228943D01*
X172456895Y-62220300D01*
X172701381Y-62072503D01*
X172714850Y-62065434D01*
X172975363Y-61948187D01*
X172989582Y-61942793D01*
X173262349Y-61857796D01*
X173277111Y-61854158D01*
X173487342Y-61815632D01*
X173558116Y-61802662D01*
X173573220Y-61800828D01*
X173823919Y-61785663D01*
X173850629Y-61786920D01*
X173850849Y-61786923D01*
X173859720Y-61788304D01*
X173868622Y-61787140D01*
X173868625Y-61787140D01*
X173891241Y-61784182D01*
X173907579Y-61783118D01*
X190894660Y-61783118D01*
X190914045Y-61784618D01*
G37*
%TD.AperFunction*%
%TA.AperFunction,Conductor*%
G36*
X180008654Y-65784707D02*
G01*
X180035770Y-65808208D01*
X180177851Y-65972230D01*
X180181241Y-65976143D01*
X180353117Y-66118837D01*
X180382726Y-66136139D01*
X180426946Y-66161979D01*
X180475670Y-66213617D01*
X180488741Y-66283400D01*
X180462010Y-66349172D01*
X180421553Y-66382532D01*
X180413448Y-66386751D01*
X180404729Y-66392241D01*
X180234424Y-66520110D01*
X180226717Y-66526953D01*
X180079581Y-66680922D01*
X180073095Y-66688932D01*
X179953089Y-66864854D01*
X179947991Y-66873828D01*
X179858329Y-67066988D01*
X179854766Y-67076675D01*
X179799380Y-67276388D01*
X179800903Y-67284812D01*
X179813283Y-67288205D01*
X181262991Y-67288205D01*
X181331112Y-67308207D01*
X181377605Y-67361863D01*
X181388991Y-67414205D01*
X181388991Y-67670205D01*
X181368989Y-67738326D01*
X181315333Y-67784819D01*
X181262991Y-67796205D01*
X179818216Y-67796205D01*
X179804685Y-67800178D01*
X179803248Y-67810171D01*
X179833556Y-67944651D01*
X179836636Y-67954480D01*
X179916761Y-68151808D01*
X179921404Y-68160999D01*
X180032685Y-68342593D01*
X180038768Y-68350904D01*
X180178204Y-68511872D01*
X180185571Y-68519088D01*
X180349425Y-68655121D01*
X180357872Y-68661036D01*
X180426960Y-68701408D01*
X180475684Y-68753047D01*
X180488755Y-68822830D01*
X180462024Y-68888601D01*
X180421575Y-68921957D01*
X180408598Y-68928712D01*
X180404465Y-68931815D01*
X180404462Y-68931817D01*
X180234091Y-69059735D01*
X180229956Y-69062840D01*
X180190516Y-69104112D01*
X180136271Y-69160876D01*
X180075620Y-69224343D01*
X179949734Y-69408885D01*
X179855679Y-69611510D01*
X179795980Y-69826775D01*
X179772242Y-70048900D01*
X179785101Y-70271920D01*
X179786238Y-70276966D01*
X179786239Y-70276972D01*
X179810295Y-70383713D01*
X179834213Y-70489844D01*
X179918257Y-70696821D01*
X180034978Y-70887293D01*
X180181241Y-71056143D01*
X180326978Y-71177136D01*
X180366611Y-71236036D01*
X180372491Y-71274078D01*
X180372491Y-71959768D01*
X180352489Y-72027889D01*
X180342358Y-72040802D01*
X180342478Y-72040896D01*
X180216351Y-72200887D01*
X180121492Y-72381184D01*
X180061078Y-72575749D01*
X180037132Y-72778065D01*
X180050457Y-72981357D01*
X180100605Y-73178816D01*
X180185898Y-73363830D01*
X180303479Y-73530203D01*
X180449410Y-73672363D01*
X180454210Y-73675570D01*
X180455329Y-73676318D01*
X180455739Y-73676808D01*
X180458701Y-73679207D01*
X180458230Y-73679789D01*
X180500857Y-73730795D01*
X180509704Y-73801239D01*
X180479063Y-73865283D01*
X180418661Y-73902594D01*
X180407970Y-73904478D01*
X180408035Y-73904801D01*
X180400855Y-73906236D01*
X180393562Y-73906829D01*
X180386600Y-73909084D01*
X180380612Y-73910281D01*
X180374655Y-73911689D01*
X180367381Y-73912537D01*
X180360499Y-73915035D01*
X180360495Y-73915036D01*
X180298381Y-73937583D01*
X180294277Y-73938993D01*
X180224413Y-73961625D01*
X180218150Y-73965425D01*
X180212608Y-73967963D01*
X180207132Y-73970705D01*
X180200247Y-73973204D01*
X180194123Y-73977219D01*
X180138856Y-74013453D01*
X180135188Y-74015768D01*
X180072407Y-74053865D01*
X180068202Y-74057579D01*
X180068199Y-74057581D01*
X180063983Y-74061305D01*
X180063957Y-74061276D01*
X180061026Y-74063876D01*
X180057672Y-74066680D01*
X180051553Y-74070692D01*
X180011657Y-74112807D01*
X179998000Y-74127224D01*
X179995622Y-74129666D01*
X179511522Y-74613766D01*
X179449210Y-74647792D01*
X179420779Y-74650660D01*
X179389929Y-74650257D01*
X179356643Y-74649821D01*
X179350946Y-74650800D01*
X179350945Y-74650800D01*
X179161555Y-74683343D01*
X179155858Y-74684322D01*
X179129012Y-74694226D01*
X179058179Y-74699037D01*
X178995989Y-74664789D01*
X178962187Y-74602355D01*
X178967506Y-74531558D01*
X179010723Y-74474530D01*
X179017663Y-74469423D01*
X179017665Y-74469421D01*
X179023564Y-74465080D01*
X179057979Y-74424571D01*
X179064909Y-74417055D01*
X179070653Y-74411311D01*
X179072927Y-74408437D01*
X179072933Y-74408430D01*
X179088372Y-74388915D01*
X179091163Y-74385511D01*
X179133945Y-74335154D01*
X179133948Y-74335150D01*
X179138684Y-74329575D01*
X179142012Y-74323058D01*
X179145389Y-74317994D01*
X179148616Y-74312770D01*
X179153160Y-74307026D01*
X179184242Y-74240522D01*
X179186147Y-74236625D01*
X179219543Y-74171222D01*
X179221284Y-74164108D01*
X179223416Y-74158374D01*
X179225344Y-74152578D01*
X179228444Y-74145946D01*
X179243395Y-74074066D01*
X179244365Y-74069782D01*
X179246446Y-74061276D01*
X179261804Y-73998514D01*
X179262500Y-73987296D01*
X179262537Y-73987298D01*
X179262773Y-73983399D01*
X179263163Y-73979028D01*
X179264652Y-73971869D01*
X179262546Y-73894049D01*
X179262500Y-73890640D01*
X179262500Y-66225234D01*
X179282502Y-66157113D01*
X179299405Y-66136139D01*
X179633934Y-65801610D01*
X179696246Y-65767584D01*
X179723029Y-65764705D01*
X179940533Y-65764705D01*
X180008654Y-65784707D01*
G37*
%TD.AperFunction*%
%TD*%
M02*
