%TF.GenerationSoftware,KiCad,Pcbnew,(6.0.0)*%
%TF.CreationDate,2022-03-28T12:59:54-04:00*%
%TF.ProjectId,JTAG_ISP-BOTH,4a544147-5f49-4535-902d-424f54482e6b,v5.2.0*%
%TF.SameCoordinates,Original*%
%TF.FileFunction,Copper,L1,Top*%
%TF.FilePolarity,Positive*%
%FSLAX46Y46*%
G04 Gerber Fmt 4.6, Leading zero omitted, Abs format (unit mm)*
G04 Created by KiCad (PCBNEW (6.0.0)) date 2022-03-28 12:59:54*
%MOMM*%
%LPD*%
G01*
G04 APERTURE LIST*
%ADD10C,0.190500*%
%TA.AperFunction,NonConductor*%
%ADD11C,0.190500*%
%TD*%
%TA.AperFunction,EtchedComponent*%
%ADD12C,0.508000*%
%TD*%
%TA.AperFunction,ComponentPad*%
%ADD13R,1.700000X1.700000*%
%TD*%
%TA.AperFunction,ComponentPad*%
%ADD14O,1.700000X1.700000*%
%TD*%
%TA.AperFunction,ComponentPad*%
%ADD15C,5.499999*%
%TD*%
%TA.AperFunction,ComponentPad*%
%ADD16R,1.800000X1.800000*%
%TD*%
%TA.AperFunction,ComponentPad*%
%ADD17C,1.800000*%
%TD*%
%TA.AperFunction,ComponentPad*%
%ADD18C,1.600000*%
%TD*%
%TA.AperFunction,ComponentPad*%
%ADD19O,1.600000X1.600000*%
%TD*%
%TA.AperFunction,ComponentPad*%
%ADD20C,1.700000*%
%TD*%
%TA.AperFunction,ComponentPad*%
%ADD21C,5.500000*%
%TD*%
%TA.AperFunction,ViaPad*%
%ADD22C,1.200000*%
%TD*%
%TA.AperFunction,Conductor*%
%ADD23C,0.508000*%
%TD*%
%TA.AperFunction,Conductor*%
%ADD24C,0.381000*%
%TD*%
%TA.AperFunction,Conductor*%
%ADD25C,0.635000*%
%TD*%
G04 APERTURE END LIST*
D10*
D11*
X120755754Y-81111801D02*
X121408897Y-81111801D01*
X121082325Y-82254801D02*
X121082325Y-81111801D01*
X121789897Y-82145944D02*
X121844325Y-82200372D01*
X121789897Y-82254801D01*
X121735468Y-82200372D01*
X121789897Y-82145944D01*
X121789897Y-82254801D01*
X122334183Y-82254801D02*
X122334183Y-81111801D01*
X122606325Y-81111801D01*
X122769611Y-81166230D01*
X122878468Y-81275087D01*
X122932897Y-81383944D01*
X122987325Y-81601658D01*
X122987325Y-81764944D01*
X122932897Y-81982658D01*
X122878468Y-82091515D01*
X122769611Y-82200372D01*
X122606325Y-82254801D01*
X122334183Y-82254801D01*
X123477183Y-82145944D02*
X123531611Y-82200372D01*
X123477183Y-82254801D01*
X123422754Y-82200372D01*
X123477183Y-82145944D01*
X123477183Y-82254801D01*
X124892325Y-81819372D02*
X125763183Y-81819372D01*
X127722611Y-81111801D02*
X127178325Y-81111801D01*
X127123897Y-81656087D01*
X127178325Y-81601658D01*
X127287183Y-81547230D01*
X127559325Y-81547230D01*
X127668183Y-81601658D01*
X127722611Y-81656087D01*
X127777040Y-81764944D01*
X127777040Y-82037087D01*
X127722611Y-82145944D01*
X127668183Y-82200372D01*
X127559325Y-82254801D01*
X127287183Y-82254801D01*
X127178325Y-82200372D01*
X127123897Y-82145944D01*
X128266897Y-82145944D02*
X128321325Y-82200372D01*
X128266897Y-82254801D01*
X128212468Y-82200372D01*
X128266897Y-82145944D01*
X128266897Y-82254801D01*
X128702325Y-81111801D02*
X129409897Y-81111801D01*
X129028897Y-81547230D01*
X129192183Y-81547230D01*
X129301040Y-81601658D01*
X129355468Y-81656087D01*
X129409897Y-81764944D01*
X129409897Y-82037087D01*
X129355468Y-82145944D01*
X129301040Y-82200372D01*
X129192183Y-82254801D01*
X128865611Y-82254801D01*
X128756754Y-82200372D01*
X128702325Y-82145944D01*
X129899754Y-82145944D02*
X129954183Y-82200372D01*
X129899754Y-82254801D01*
X129845325Y-82200372D01*
X129899754Y-82145944D01*
X129899754Y-82254801D01*
X130661754Y-81111801D02*
X130770611Y-81111801D01*
X130879468Y-81166230D01*
X130933897Y-81220658D01*
X130988325Y-81329515D01*
X131042754Y-81547230D01*
X131042754Y-81819372D01*
X130988325Y-82037087D01*
X130933897Y-82145944D01*
X130879468Y-82200372D01*
X130770611Y-82254801D01*
X130661754Y-82254801D01*
X130552897Y-82200372D01*
X130498468Y-82145944D01*
X130444040Y-82037087D01*
X130389611Y-81819372D01*
X130389611Y-81547230D01*
X130444040Y-81329515D01*
X130498468Y-81220658D01*
X130552897Y-81166230D01*
X130661754Y-81111801D01*
X120401968Y-83060888D02*
X120456397Y-83006460D01*
X120565254Y-82952031D01*
X120837397Y-82952031D01*
X120946254Y-83006460D01*
X121000683Y-83060888D01*
X121055111Y-83169745D01*
X121055111Y-83278602D01*
X121000683Y-83441888D01*
X120347540Y-84095031D01*
X121055111Y-84095031D01*
X121762683Y-82952031D02*
X121871540Y-82952031D01*
X121980397Y-83006460D01*
X122034825Y-83060888D01*
X122089254Y-83169745D01*
X122143683Y-83387460D01*
X122143683Y-83659602D01*
X122089254Y-83877317D01*
X122034825Y-83986174D01*
X121980397Y-84040602D01*
X121871540Y-84095031D01*
X121762683Y-84095031D01*
X121653825Y-84040602D01*
X121599397Y-83986174D01*
X121544968Y-83877317D01*
X121490540Y-83659602D01*
X121490540Y-83387460D01*
X121544968Y-83169745D01*
X121599397Y-83060888D01*
X121653825Y-83006460D01*
X121762683Y-82952031D01*
X122579111Y-83060888D02*
X122633540Y-83006460D01*
X122742397Y-82952031D01*
X123014540Y-82952031D01*
X123123397Y-83006460D01*
X123177825Y-83060888D01*
X123232254Y-83169745D01*
X123232254Y-83278602D01*
X123177825Y-83441888D01*
X122524683Y-84095031D01*
X123232254Y-84095031D01*
X123667683Y-83060888D02*
X123722111Y-83006460D01*
X123830968Y-82952031D01*
X124103111Y-82952031D01*
X124211968Y-83006460D01*
X124266397Y-83060888D01*
X124320825Y-83169745D01*
X124320825Y-83278602D01*
X124266397Y-83441888D01*
X123613254Y-84095031D01*
X124320825Y-84095031D01*
X124810683Y-83659602D02*
X125681540Y-83659602D01*
X126443540Y-82952031D02*
X126552397Y-82952031D01*
X126661254Y-83006460D01*
X126715683Y-83060888D01*
X126770111Y-83169745D01*
X126824540Y-83387460D01*
X126824540Y-83659602D01*
X126770111Y-83877317D01*
X126715683Y-83986174D01*
X126661254Y-84040602D01*
X126552397Y-84095031D01*
X126443540Y-84095031D01*
X126334683Y-84040602D01*
X126280254Y-83986174D01*
X126225825Y-83877317D01*
X126171397Y-83659602D01*
X126171397Y-83387460D01*
X126225825Y-83169745D01*
X126280254Y-83060888D01*
X126334683Y-83006460D01*
X126443540Y-82952031D01*
X127205540Y-82952031D02*
X127913111Y-82952031D01*
X127532111Y-83387460D01*
X127695397Y-83387460D01*
X127804254Y-83441888D01*
X127858683Y-83496317D01*
X127913111Y-83605174D01*
X127913111Y-83877317D01*
X127858683Y-83986174D01*
X127804254Y-84040602D01*
X127695397Y-84095031D01*
X127368825Y-84095031D01*
X127259968Y-84040602D01*
X127205540Y-83986174D01*
X128402968Y-83659602D02*
X129273825Y-83659602D01*
X129763683Y-83060888D02*
X129818111Y-83006460D01*
X129926968Y-82952031D01*
X130199111Y-82952031D01*
X130307968Y-83006460D01*
X130362397Y-83060888D01*
X130416825Y-83169745D01*
X130416825Y-83278602D01*
X130362397Y-83441888D01*
X129709254Y-84095031D01*
X130416825Y-84095031D01*
X131069968Y-83441888D02*
X130961111Y-83387460D01*
X130906683Y-83333031D01*
X130852254Y-83224174D01*
X130852254Y-83169745D01*
X130906683Y-83060888D01*
X130961111Y-83006460D01*
X131069968Y-82952031D01*
X131287683Y-82952031D01*
X131396540Y-83006460D01*
X131450968Y-83060888D01*
X131505397Y-83169745D01*
X131505397Y-83224174D01*
X131450968Y-83333031D01*
X131396540Y-83387460D01*
X131287683Y-83441888D01*
X131069968Y-83441888D01*
X130961111Y-83496317D01*
X130906683Y-83550745D01*
X130852254Y-83659602D01*
X130852254Y-83877317D01*
X130906683Y-83986174D01*
X130961111Y-84040602D01*
X131069968Y-84095031D01*
X131287683Y-84095031D01*
X131396540Y-84040602D01*
X131450968Y-83986174D01*
X131505397Y-83877317D01*
X131505397Y-83659602D01*
X131450968Y-83550745D01*
X131396540Y-83496317D01*
X131287683Y-83441888D01*
D12*
%TO.C,REF\u002A\u002A*%
X129034689Y-59205429D02*
X130272685Y-59793439D01*
X130272685Y-58617429D02*
X129034680Y-59205429D01*
X130189687Y-58730434D02*
X129749687Y-59390434D01*
X130272685Y-58617429D02*
X130272685Y-59793439D01*
%TD*%
D13*
%TO.P,JTAG1,1,#MCLR*%
%TO.N,N/C*%
X100358673Y-59313633D03*
D14*
%TO.P,JTAG1,2,VDD*%
%TO.N,+5V*%
X100358673Y-61853633D03*
%TO.P,JTAG1,3,GND*%
%TO.N,GND*%
X100358673Y-64393633D03*
%TO.P,JTAG1,4,TDO*%
%TO.N,N/C*%
X100358673Y-66933633D03*
%TO.P,JTAG1,5,TCK*%
X100358673Y-69473633D03*
%TO.P,JTAG1,6,#RESET*%
%TO.N,RESET*%
X100358673Y-72013633D03*
%TO.P,JTAG1,7,TDI*%
%TO.N,N/C*%
X100358673Y-74553633D03*
%TO.P,JTAG1,8,TMS*%
X100358673Y-77093633D03*
%TD*%
D15*
%TO.P,REF\u002A\u002A,1*%
%TO.N,GND*%
X107847670Y-49171446D03*
%TD*%
D16*
%TO.P,D1,1,K*%
%TO.N,Net-(D1-Pad1)*%
X101628673Y-88705446D03*
D17*
%TO.P,D1,2,A*%
%TO.N,N/C*%
X99088673Y-88705446D03*
%TD*%
D18*
%TO.P,C1,1*%
%TO.N,+5V*%
X91303688Y-56255443D03*
%TO.P,C1,2*%
%TO.N,GND*%
X91303688Y-53755443D03*
%TD*%
D15*
%TO.P,REF\u002A\u002A,1*%
%TO.N,GND*%
X92869672Y-49171446D03*
%TD*%
%TO.P,REF\u002A\u002A,1*%
%TO.N,GND*%
X92869672Y-87207866D03*
%TD*%
D13*
%TO.P,J1,1,Pin_1*%
%TO.N,+5V*%
X91177665Y-59313633D03*
D14*
%TO.P,J1,2,Pin_2*%
X91177665Y-61853633D03*
%TO.P,J1,3,Pin_3*%
X91177665Y-64393633D03*
%TO.P,J1,4,Pin_4*%
%TO.N,GND*%
X91177665Y-66933633D03*
%TO.P,J1,5,Pin_5*%
X91177665Y-69473633D03*
%TO.P,J1,6,Pin_6*%
%TO.N,N/C*%
X91177665Y-72013633D03*
%TO.P,J1,7,Pin_7*%
%TO.N,GND*%
X91177665Y-74553633D03*
%TO.P,J1,8,Pin_8*%
%TO.N,N/C*%
X91177665Y-77093633D03*
%TD*%
D15*
%TO.P,REF\u002A\u002A,1*%
%TO.N,GND*%
X107847670Y-87207866D03*
%TD*%
D18*
%TO.P,R1,1*%
%TO.N,Net-(D1-Pad1)*%
X105503685Y-81805430D03*
D19*
%TO.P,R1,2*%
%TO.N,GND*%
X95343685Y-81805430D03*
%TD*%
D20*
%TO.P,J2,1,Pin_1*%
%TO.N,N/C*%
X109539681Y-59313633D03*
D14*
%TO.P,J2,2,Pin_2*%
%TO.N,GND*%
X109539681Y-61853633D03*
%TO.P,J2,3,Pin_3*%
%TO.N,RESET*%
X109539681Y-64393633D03*
%TO.P,J2,4,Pin_4*%
%TO.N,GND*%
X109539681Y-66933633D03*
%TO.P,J2,5,Pin_5*%
%TO.N,N/C*%
X109539681Y-69473633D03*
%TO.P,J2,6,Pin_6*%
%TO.N,GND*%
X109539681Y-72013633D03*
%TO.P,J2,7,Pin_7*%
%TO.N,N/C*%
X109539681Y-74553633D03*
%TO.P,J2,8,Pin_8*%
%TO.N,GND*%
X109539681Y-77093633D03*
%TD*%
D13*
%TO.P,J1,1,Pin_1*%
%TO.N,MISO*%
X127278673Y-53930433D03*
D14*
%TO.P,J1,2,Pin_2*%
%TO.N,+5V*%
X124738673Y-53930433D03*
%TO.P,J1,3,Pin_3*%
%TO.N,SCLK*%
X127278673Y-51390433D03*
%TO.P,J1,4,Pin_4*%
%TO.N,MOSI*%
X124738673Y-51390433D03*
%TO.P,J1,5,Pin_5*%
%TO.N,RESET*%
X127278673Y-48850433D03*
%TO.P,J1,6,Pin_6*%
%TO.N,GND*%
X124738673Y-48850433D03*
%TD*%
D21*
%TO.P,REF\u002A\u002A,1*%
%TO.N,GND*%
X118519661Y-49171450D03*
%TD*%
D18*
%TO.P,C1,1*%
%TO.N,+5V*%
X119153682Y-55855434D03*
%TO.P,C1,2*%
%TO.N,GND*%
X116653682Y-55855434D03*
%TD*%
D21*
%TO.P,REF\u002A\u002A,1*%
%TO.N,GND*%
X118519661Y-87207862D03*
%TD*%
D13*
%TO.P,J2,1,Pin_1*%
%TO.N,+5V*%
X116827665Y-59313633D03*
D14*
%TO.P,J2,2,Pin_2*%
X116827665Y-61853633D03*
%TO.P,J2,3,Pin_3*%
X116827665Y-64393633D03*
%TO.P,J2,4,Pin_4*%
%TO.N,GND*%
X116827665Y-66933633D03*
%TO.P,J2,5,Pin_5*%
X116827665Y-69473633D03*
%TO.P,J2,6,Pin_6*%
%TO.N,MISO*%
X116827665Y-72013633D03*
%TO.P,J2,7,Pin_7*%
%TO.N,GND*%
X116827665Y-74553633D03*
%TO.P,J2,8,Pin_8*%
%TO.N,SCLK*%
X116827665Y-77093633D03*
%TD*%
D21*
%TO.P,REF\u002A\u002A,1*%
%TO.N,GND*%
X133497660Y-87207862D03*
%TD*%
D20*
%TO.P,J3,1,Pin_1*%
%TO.N,SCLK*%
X135189681Y-59313633D03*
D14*
%TO.P,J3,2,Pin_2*%
%TO.N,GND*%
X135189681Y-61853633D03*
%TO.P,J3,3,Pin_3*%
%TO.N,RESET*%
X135189681Y-64393633D03*
%TO.P,J3,4,Pin_4*%
%TO.N,GND*%
X135189681Y-66933633D03*
%TO.P,J3,5,Pin_5*%
%TO.N,MOSI*%
X135189681Y-69473633D03*
%TO.P,J3,6,Pin_6*%
%TO.N,GND*%
X135189681Y-72013633D03*
%TO.P,J3,7,Pin_7*%
%TO.N,unconnected-(J3-Pad7)*%
X135189681Y-74553633D03*
%TO.P,J3,8,Pin_8*%
%TO.N,GND*%
X135189681Y-77093633D03*
%TD*%
D21*
%TO.P,REF\u002A\u002A,1*%
%TO.N,GND*%
X133497660Y-49171439D03*
%TD*%
D22*
%TO.N,GND*%
X93703683Y-74553629D03*
%TO.N,*%
X96442182Y-72013626D03*
X96403682Y-78805436D03*
%TO.N,Net-(D1-Pad1)*%
X101628673Y-84680443D03*
%TO.N,GND*%
X93503682Y-53605434D03*
X93717653Y-66933629D03*
X106903682Y-77105434D03*
X106903682Y-61805434D03*
X107847670Y-53605434D03*
X92803682Y-81805434D03*
%TO.N,+5V*%
X95113688Y-56255443D03*
X93703683Y-59313629D03*
%TO.N,GND*%
X122452674Y-48850445D03*
X132453694Y-72013633D03*
X118519661Y-83187867D03*
X133526896Y-83187867D03*
X133497660Y-53191457D03*
X132453682Y-61905434D03*
X132553694Y-66933633D03*
X119367666Y-69473633D03*
%TO.N,RESET*%
X129453682Y-50905434D03*
%TO.N,MOSI*%
X122353682Y-53930433D03*
X130515182Y-69473645D03*
%TO.N,RESET*%
X130853682Y-64405434D03*
%TD*%
D23*
%TO.N,*%
X96403682Y-72052126D02*
X96442182Y-72013626D01*
X96403682Y-78805436D02*
X96403682Y-72052126D01*
D24*
%TO.N,GND*%
X96003682Y-52305456D02*
X92869672Y-49171446D01*
X107847670Y-49171446D02*
X111203682Y-52527458D01*
X95343685Y-81805430D02*
X97836095Y-81805430D01*
X107847670Y-87161446D02*
X107847670Y-87207866D01*
X93503682Y-53605434D02*
X94403682Y-54505434D01*
X93903682Y-55205434D02*
X94803682Y-54305434D01*
X106903682Y-78005434D02*
X111203682Y-82305434D01*
D23*
%TO.N,Net-(D1-Pad1)*%
X101628673Y-84680443D02*
X101628673Y-82480443D01*
D24*
%TO.N,GND*%
X92803682Y-81805434D02*
X89603682Y-81805434D01*
X111203682Y-82305434D02*
X111203682Y-83805434D01*
X111203682Y-52527458D02*
X111203682Y-54705434D01*
X92803682Y-81805434D02*
X95343681Y-81805434D01*
D23*
%TO.N,Net-(D1-Pad1)*%
X101628673Y-82480443D02*
X102303682Y-81805434D01*
D24*
%TO.N,GND*%
X95343681Y-81805434D02*
X95343685Y-81805430D01*
D23*
%TO.N,Net-(D1-Pad1)*%
X102303682Y-81805434D02*
X105503682Y-81805434D01*
D24*
%TO.N,GND*%
X96003682Y-53105434D02*
X96003682Y-52305456D01*
D25*
%TO.N,+5V*%
X91303682Y-56255434D02*
X92853682Y-56255434D01*
%TO.N,GND*%
X106903682Y-61805434D02*
X106951874Y-61853626D01*
D24*
X96135684Y-45905434D02*
X104581658Y-45905434D01*
X94403682Y-54505434D02*
X94603682Y-54505434D01*
X100036091Y-79605434D02*
X105203682Y-79605434D01*
X92869672Y-87161308D02*
X92869672Y-87207866D01*
D25*
%TO.N,+5V*%
X93717665Y-57119417D02*
X94581639Y-56255443D01*
X92853682Y-56255434D02*
X93717665Y-57119417D01*
%TO.N,GND*%
X109527863Y-77105434D02*
X109539671Y-77093626D01*
D24*
X104581658Y-45905434D02*
X107847670Y-49171446D01*
X96210236Y-90548430D02*
X92869672Y-87207866D01*
X111203682Y-54705434D02*
X106903682Y-59005434D01*
X89603682Y-81805434D02*
X89603682Y-83895318D01*
X97836095Y-81805430D02*
X100036091Y-79605434D01*
X94603682Y-54505434D02*
X96003682Y-53105434D01*
X92869672Y-49171446D02*
X96135684Y-45905434D01*
X91303688Y-53755443D02*
X92753679Y-55205434D01*
X107847670Y-87207866D02*
X104507106Y-90548430D01*
D25*
%TO.N,+5V*%
X93553691Y-56255443D02*
X94353673Y-56255443D01*
X93553691Y-56955443D02*
X93553691Y-56255443D01*
D24*
%TO.N,GND*%
X106903682Y-59005434D02*
X106903682Y-78005434D01*
X111203682Y-83805434D02*
X107847670Y-87161446D01*
X93353673Y-53755443D02*
X93503682Y-53605434D01*
D25*
%TO.N,+5V*%
X94353673Y-56255443D02*
X95113688Y-56255443D01*
D24*
%TO.N,GND*%
X92753679Y-55205434D02*
X93903682Y-55205434D01*
X104507106Y-90548430D02*
X96210236Y-90548430D01*
X105203682Y-79605434D02*
X106903682Y-77905434D01*
X89603682Y-83895318D02*
X92869672Y-87161308D01*
D25*
%TO.N,+5V*%
X91303688Y-56255443D02*
X93553691Y-56255443D01*
X93717665Y-57119417D02*
X93717665Y-59591451D01*
D23*
%TO.N,MOSI*%
X122353682Y-53930433D02*
X122353682Y-52305434D01*
%TO.N,RESET*%
X127298693Y-48850445D02*
X127298689Y-48850445D01*
X127388677Y-48850433D02*
X127278673Y-48850433D01*
%TO.N,MOSI*%
X135189669Y-69473645D02*
X135189681Y-69473633D01*
%TO.N,SCLK*%
X129753682Y-53505434D02*
X129753682Y-55955434D01*
%TO.N,RESET*%
X129443678Y-50905434D02*
X127388677Y-48850433D01*
%TO.N,MOSI*%
X122353682Y-52305434D02*
X123268683Y-51390433D01*
%TO.N,SCLK*%
X135189681Y-57841433D02*
X135189681Y-59313633D01*
X116827665Y-77093633D02*
X116827665Y-79079417D01*
%TO.N,MOSI*%
X123268683Y-51390433D02*
X124738673Y-51390433D01*
%TO.N,SCLK*%
X129153682Y-79205434D02*
X129153682Y-62405434D01*
%TO.N,RESET*%
X129453682Y-50905434D02*
X129443678Y-50905434D01*
%TO.N,SCLK*%
X127278673Y-51390433D02*
X127638681Y-51390433D01*
X116827665Y-79079417D02*
X118003279Y-80255031D01*
%TO.N,MOSI*%
X130515182Y-69473645D02*
X135189669Y-69473645D01*
%TO.N,RESET*%
X130853682Y-64405434D02*
X130865483Y-64393633D01*
%TO.N,SCLK*%
X130703682Y-56905434D02*
X134253682Y-56905434D01*
%TO.N,RESET*%
X130865483Y-64393633D02*
X135189681Y-64393633D01*
%TO.N,SCLK*%
X128104085Y-80255031D02*
X129153682Y-79205434D01*
%TO.N,MISO*%
X127278673Y-53930433D02*
X127278673Y-55480443D01*
%TO.N,SCLK*%
X129753682Y-55955434D02*
X130703682Y-56905434D01*
D24*
%TO.N,GND*%
X115453682Y-54655434D02*
X115453682Y-52237429D01*
D23*
%TO.N,SCLK*%
X132245483Y-59313633D02*
X135189681Y-59313633D01*
X127638681Y-51390433D02*
X129753682Y-53505434D01*
X129153682Y-62405434D02*
X132245483Y-59313633D01*
X118003279Y-80255031D02*
X128104085Y-80255031D01*
%TO.N,MISO*%
X122753682Y-70905434D02*
X121645483Y-72013633D01*
D24*
%TO.N,GND*%
X136853682Y-62305434D02*
X136853682Y-53405434D01*
X115453682Y-52237429D02*
X118519661Y-49171450D01*
X133465665Y-49171439D02*
X133465665Y-49149412D01*
X124738661Y-48850445D02*
X124738673Y-48850433D01*
X121553682Y-46105434D02*
X118487666Y-49171450D01*
X135189681Y-61853633D02*
X136801881Y-61853633D01*
X136253682Y-84451840D02*
X133497660Y-87207862D01*
X115153682Y-79821888D02*
X118519661Y-83187867D01*
X136853682Y-53505434D02*
X136853682Y-52527461D01*
X122452674Y-48850445D02*
X124738661Y-48850445D01*
X115153682Y-74605434D02*
X115153682Y-79821888D01*
X136841881Y-77093633D02*
X135189681Y-77093633D01*
X115153682Y-57580434D02*
X116653682Y-56080434D01*
X124738673Y-46120443D02*
X124753682Y-46105434D01*
X135189681Y-72013633D02*
X136745483Y-72013633D01*
X124753682Y-46105434D02*
X121553682Y-46105434D01*
D23*
%TO.N,MISO*%
X122753682Y-57305434D02*
X122753682Y-70905434D01*
X127278673Y-55480443D02*
X126553682Y-56205434D01*
D24*
%TO.N,GND*%
X136853682Y-62049036D02*
X136853682Y-66861832D01*
X132553694Y-66933633D02*
X135189681Y-66933633D01*
X135137880Y-61905434D02*
X135189681Y-61853633D01*
X116827665Y-66933633D02*
X115153682Y-66933633D01*
X133497660Y-53191457D02*
X136783307Y-53191457D01*
X130421687Y-46105434D02*
X124753682Y-46105434D01*
X115153682Y-66933633D02*
X115153682Y-57580434D01*
D23*
%TO.N,SCLK*%
X134253682Y-56905434D02*
X135189681Y-57841433D01*
%TO.N,MISO*%
X121645483Y-72013633D02*
X116827665Y-72013633D01*
X123853682Y-56205434D02*
X122753682Y-57305434D01*
X126553682Y-56205434D02*
X123853682Y-56205434D01*
D24*
%TO.N,GND*%
X136853682Y-72105434D02*
X136853682Y-66705434D01*
D25*
%TO.N,+5V*%
X116827665Y-59313633D02*
X118395483Y-59313633D01*
D24*
%TO.N,GND*%
X135736115Y-83187867D02*
X136253682Y-83705434D01*
X135189681Y-72013633D02*
X132453694Y-72013633D01*
D25*
%TO.N,+5V*%
X122627718Y-55905434D02*
X124602719Y-53930433D01*
D24*
%TO.N,GND*%
X136745483Y-72013633D02*
X136753682Y-72005434D01*
D25*
%TO.N,+5V*%
X124602719Y-53930433D02*
X124738673Y-53930433D01*
D24*
%TO.N,GND*%
X132453682Y-61905434D02*
X135137880Y-61905434D01*
X133465665Y-49149412D02*
X130421687Y-46105434D01*
D25*
%TO.N,+5V*%
X119153682Y-58555434D02*
X119153682Y-55855434D01*
X116827665Y-61853633D02*
X116827665Y-59313633D01*
D24*
%TO.N,GND*%
X116653682Y-55855434D02*
X115453682Y-54655434D01*
X135189681Y-77093633D02*
X135189681Y-81525082D01*
X136753682Y-66933633D02*
X135189681Y-66933633D01*
X115153682Y-74505434D02*
X115153682Y-69473633D01*
X116827665Y-74553633D02*
X115205483Y-74553633D01*
X116827665Y-66933633D02*
X116827665Y-69473633D01*
X136253682Y-83705434D02*
X136253682Y-84451840D01*
X133526896Y-83187867D02*
X135736115Y-83187867D01*
X136853682Y-72127454D02*
X136853682Y-77081832D01*
D25*
%TO.N,+5V*%
X116827665Y-64393633D02*
X116827665Y-61853633D01*
D24*
%TO.N,GND*%
X135189681Y-81525082D02*
X133526896Y-83187867D01*
D25*
%TO.N,+5V*%
X118395483Y-59313633D02*
X119153682Y-58555434D01*
D24*
%TO.N,GND*%
X116653682Y-56080434D02*
X116653682Y-56055434D01*
X136853682Y-52527461D02*
X133497660Y-49171439D01*
D25*
%TO.N,+5V*%
X119253682Y-55905434D02*
X122627718Y-55905434D01*
D24*
%TO.N,GND*%
X124738673Y-48850433D02*
X124738673Y-46120443D01*
X115153682Y-69473633D02*
X116827665Y-69473633D01*
X136853682Y-77081832D02*
X136841881Y-77093633D01*
X133497660Y-83217103D02*
X133526896Y-83187867D01*
%TD*%
%TA.AperFunction,Conductor*%
%TO.N,GND*%
G36*
X134517727Y-45632846D02*
G01*
X134532528Y-45635151D01*
X134532531Y-45635151D01*
X134541400Y-45636532D01*
X134558569Y-45634287D01*
X134582509Y-45633454D01*
X134840440Y-45649056D01*
X134855544Y-45650890D01*
X134926318Y-45663860D01*
X135136549Y-45702386D01*
X135151311Y-45706024D01*
X135424078Y-45791021D01*
X135438297Y-45796415D01*
X135698810Y-45913662D01*
X135712279Y-45920731D01*
X135956765Y-46068528D01*
X135969287Y-46077171D01*
X136194177Y-46253362D01*
X136205565Y-46263452D01*
X136407564Y-46465451D01*
X136417654Y-46476839D01*
X136593845Y-46701729D01*
X136602488Y-46714251D01*
X136750285Y-46958737D01*
X136757354Y-46972206D01*
X136858152Y-47196171D01*
X136874600Y-47232716D01*
X136879995Y-47246938D01*
X136956978Y-47493984D01*
X136964991Y-47519699D01*
X136968630Y-47534467D01*
X137001720Y-47715031D01*
X137020126Y-47815472D01*
X137021960Y-47830576D01*
X137037125Y-48081275D01*
X137035868Y-48107985D01*
X137035865Y-48108205D01*
X137034484Y-48117076D01*
X137035648Y-48125978D01*
X137035648Y-48125981D01*
X137038606Y-48148597D01*
X137039670Y-48164935D01*
X137039670Y-88208538D01*
X137038170Y-88227922D01*
X137034484Y-88251596D01*
X137036124Y-88264136D01*
X137036729Y-88268763D01*
X137037562Y-88292705D01*
X137021960Y-88550636D01*
X137020126Y-88565740D01*
X136968632Y-88846739D01*
X136964992Y-88861507D01*
X136939577Y-88943068D01*
X136879996Y-89134270D01*
X136874601Y-89148493D01*
X136800921Y-89312205D01*
X136757356Y-89409002D01*
X136750285Y-89422475D01*
X136602488Y-89666961D01*
X136593845Y-89679483D01*
X136417654Y-89904373D01*
X136407564Y-89915761D01*
X136205565Y-90117760D01*
X136194177Y-90127850D01*
X135969287Y-90304041D01*
X135956765Y-90312684D01*
X135712279Y-90460481D01*
X135698810Y-90467550D01*
X135438300Y-90584796D01*
X135424078Y-90590191D01*
X135151311Y-90675188D01*
X135136549Y-90678826D01*
X134926318Y-90717352D01*
X134855544Y-90730322D01*
X134840440Y-90732156D01*
X134589741Y-90747321D01*
X134563031Y-90746064D01*
X134562811Y-90746061D01*
X134553940Y-90744680D01*
X134545038Y-90745844D01*
X134545035Y-90745844D01*
X134522419Y-90748802D01*
X134506081Y-90749866D01*
X129707978Y-90749866D01*
X129688594Y-90748366D01*
X129673793Y-90746061D01*
X129673789Y-90746061D01*
X129664920Y-90744680D01*
X129656018Y-90745844D01*
X129656014Y-90745844D01*
X129655918Y-90745857D01*
X129625481Y-90746128D01*
X129563276Y-90739120D01*
X129535769Y-90732842D01*
X129458579Y-90705832D01*
X129433160Y-90693590D01*
X129363913Y-90650079D01*
X129341854Y-90632487D01*
X129284030Y-90574663D01*
X129266438Y-90552604D01*
X129222927Y-90483357D01*
X129210685Y-90457936D01*
X129183676Y-90380749D01*
X129177397Y-90353242D01*
X129171129Y-90297615D01*
X129170346Y-90281969D01*
X129170455Y-90273011D01*
X129171837Y-90264137D01*
X129167715Y-90232615D01*
X129166651Y-90216278D01*
X129166651Y-89687251D01*
X131383201Y-89687251D01*
X131391338Y-89698257D01*
X131651598Y-89897961D01*
X131657197Y-89901795D01*
X131952921Y-90081598D01*
X131958911Y-90084810D01*
X132272317Y-90231620D01*
X132278621Y-90234167D01*
X132606044Y-90346268D01*
X132612595Y-90348122D01*
X132950199Y-90424204D01*
X132956918Y-90425341D01*
X133300773Y-90464519D01*
X133307563Y-90464922D01*
X133653633Y-90466734D01*
X133660434Y-90466402D01*
X134004680Y-90430828D01*
X134011408Y-90429762D01*
X134349804Y-90357215D01*
X134356353Y-90355436D01*
X134684938Y-90246767D01*
X134691280Y-90244281D01*
X135006183Y-90100772D01*
X135012237Y-90097607D01*
X135309788Y-89920935D01*
X135315469Y-89917132D01*
X135592207Y-89709351D01*
X135597431Y-89704967D01*
X135603898Y-89698915D01*
X135611967Y-89685235D01*
X135611940Y-89684511D01*
X135606796Y-89676208D01*
X133510472Y-87579884D01*
X133496528Y-87572270D01*
X133494695Y-87572401D01*
X133488080Y-87576652D01*
X131390082Y-89674650D01*
X131383201Y-89687251D01*
X129166651Y-89687251D01*
X129166651Y-88661084D01*
X129168397Y-88640180D01*
X129170915Y-88625212D01*
X129171722Y-88620416D01*
X129171875Y-88607877D01*
X129171184Y-88603052D01*
X129171126Y-88602166D01*
X129170174Y-88592408D01*
X129153939Y-88282629D01*
X129153661Y-88277323D01*
X129153013Y-88273227D01*
X129102396Y-87953652D01*
X129101880Y-87950391D01*
X129016209Y-87630662D01*
X128993795Y-87572270D01*
X128898771Y-87324725D01*
X128897587Y-87321640D01*
X128747313Y-87026710D01*
X128567033Y-86749104D01*
X128358723Y-86491863D01*
X128124665Y-86257805D01*
X127867424Y-86049495D01*
X127589818Y-85869215D01*
X127294888Y-85718941D01*
X127207656Y-85685456D01*
X127151228Y-85642371D01*
X127127051Y-85575617D01*
X127142802Y-85506390D01*
X127193480Y-85456668D01*
X127252810Y-85441825D01*
X130537163Y-85441825D01*
X130605284Y-85461827D01*
X130651777Y-85515483D01*
X130661881Y-85585757D01*
X130648311Y-85627172D01*
X130542178Y-85825942D01*
X130539302Y-85832111D01*
X130410218Y-86153217D01*
X130408025Y-86159657D01*
X130314374Y-86492830D01*
X130312891Y-86499465D01*
X130255772Y-86840798D01*
X130255013Y-86847570D01*
X130235091Y-87193074D01*
X130235067Y-87199869D01*
X130252577Y-87545521D01*
X130253287Y-87552277D01*
X130308023Y-87894003D01*
X130309462Y-87900658D01*
X130400782Y-88234466D01*
X130402931Y-88240927D01*
X130529770Y-88562929D01*
X130532601Y-88569112D01*
X130693475Y-88875532D01*
X130696958Y-88881375D01*
X130889981Y-89168623D01*
X130894084Y-89174067D01*
X131009571Y-89311213D01*
X131022310Y-89319656D01*
X131032754Y-89313558D01*
X133137318Y-87208994D01*
X133862068Y-87208994D01*
X133862199Y-87210827D01*
X133866450Y-87217442D01*
X135961213Y-89312205D01*
X135974810Y-89319630D01*
X135984421Y-89312930D01*
X136080505Y-89201222D01*
X136084663Y-89195822D01*
X136280683Y-88910613D01*
X136284230Y-88904802D01*
X136448294Y-88600100D01*
X136451201Y-88593922D01*
X136581404Y-88273273D01*
X136583618Y-88266843D01*
X136678429Y-87934005D01*
X136679936Y-87927375D01*
X136738250Y-87586224D01*
X136739030Y-87579484D01*
X136760255Y-87232438D01*
X136760371Y-87228835D01*
X136760439Y-87209681D01*
X136760347Y-87206056D01*
X136741545Y-86858885D01*
X136740810Y-86852119D01*
X136684884Y-86510600D01*
X136683417Y-86503928D01*
X136590938Y-86170459D01*
X136588764Y-86163996D01*
X136460803Y-85842445D01*
X136457950Y-85836271D01*
X136296003Y-85530407D01*
X136292509Y-85524590D01*
X136098473Y-85238002D01*
X136094359Y-85232583D01*
X135985750Y-85104515D01*
X135972925Y-85096079D01*
X135962600Y-85102132D01*
X133869682Y-87195050D01*
X133862068Y-87208994D01*
X133137318Y-87208994D01*
X135605091Y-84741221D01*
X135612705Y-84727277D01*
X135612637Y-84726322D01*
X135608684Y-84720344D01*
X135334327Y-84511341D01*
X135328701Y-84507517D01*
X135032366Y-84328756D01*
X135026354Y-84325559D01*
X134712434Y-84179842D01*
X134706134Y-84177322D01*
X134378324Y-84066365D01*
X134371746Y-84064529D01*
X134033897Y-83989630D01*
X134027159Y-83988514D01*
X133683175Y-83950537D01*
X133676395Y-83950158D01*
X133330296Y-83949555D01*
X133323523Y-83949910D01*
X132979386Y-83986687D01*
X132972676Y-83987774D01*
X132631207Y-84062226D01*
X132630953Y-84061060D01*
X132564851Y-84059957D01*
X132505774Y-84020582D01*
X132477363Y-83955518D01*
X132476362Y-83939670D01*
X132476362Y-79873865D01*
X129858739Y-79873865D01*
X129790618Y-79853863D01*
X129744125Y-79800207D01*
X129734021Y-79729933D01*
X129762715Y-79666285D01*
X129787627Y-79636962D01*
X129787630Y-79636958D01*
X129792366Y-79631383D01*
X129795694Y-79624866D01*
X129799071Y-79619802D01*
X129802298Y-79614578D01*
X129806842Y-79608834D01*
X129819130Y-79582543D01*
X129837914Y-79542352D01*
X129839845Y-79538401D01*
X129869895Y-79479551D01*
X129873225Y-79473030D01*
X129874966Y-79465915D01*
X129877103Y-79460169D01*
X129879027Y-79454386D01*
X129882126Y-79447755D01*
X129897076Y-79375877D01*
X129898045Y-79371596D01*
X129914152Y-79305773D01*
X129915486Y-79300322D01*
X129916182Y-79289104D01*
X129916221Y-79289106D01*
X129916454Y-79285205D01*
X129916843Y-79280846D01*
X129918334Y-79273678D01*
X129916228Y-79195857D01*
X129916182Y-79192448D01*
X129916182Y-77361599D01*
X133857938Y-77361599D01*
X133888246Y-77496079D01*
X133891326Y-77505908D01*
X133971451Y-77703236D01*
X133976094Y-77712427D01*
X134087375Y-77894021D01*
X134093458Y-77902332D01*
X134232894Y-78063300D01*
X134240261Y-78070516D01*
X134404115Y-78206549D01*
X134412562Y-78212464D01*
X134596437Y-78319912D01*
X134605723Y-78324362D01*
X134804682Y-78400336D01*
X134814580Y-78403212D01*
X134917931Y-78424239D01*
X134931980Y-78423043D01*
X134935681Y-78412698D01*
X134935681Y-78412150D01*
X135443681Y-78412150D01*
X135447745Y-78425992D01*
X135461159Y-78428026D01*
X135467865Y-78427167D01*
X135477943Y-78425025D01*
X135681936Y-78363824D01*
X135691523Y-78360066D01*
X135882776Y-78266372D01*
X135891626Y-78261097D01*
X136065009Y-78137425D01*
X136072881Y-78130772D01*
X136223733Y-77980445D01*
X136230411Y-77972598D01*
X136354684Y-77799653D01*
X136359994Y-77790816D01*
X136454351Y-77599900D01*
X136458150Y-77590305D01*
X136520058Y-77386543D01*
X136522236Y-77376470D01*
X136523667Y-77365595D01*
X136521456Y-77351411D01*
X136508298Y-77347633D01*
X135461796Y-77347633D01*
X135446557Y-77352108D01*
X135445352Y-77353498D01*
X135443681Y-77361181D01*
X135443681Y-78412150D01*
X134935681Y-78412150D01*
X134935681Y-77365748D01*
X134931206Y-77350509D01*
X134929816Y-77349304D01*
X134922133Y-77347633D01*
X133872906Y-77347633D01*
X133859375Y-77351606D01*
X133857938Y-77361599D01*
X129916182Y-77361599D01*
X129916182Y-74520328D01*
X133826932Y-74520328D01*
X133827229Y-74525481D01*
X133827229Y-74525484D01*
X133832692Y-74620223D01*
X133839791Y-74743348D01*
X133840928Y-74748394D01*
X133840929Y-74748400D01*
X133854278Y-74807633D01*
X133888903Y-74961272D01*
X133972947Y-75168249D01*
X134089668Y-75358721D01*
X134235931Y-75527571D01*
X134407807Y-75670265D01*
X134480659Y-75712836D01*
X134481636Y-75713407D01*
X134530360Y-75765045D01*
X134543431Y-75834828D01*
X134516700Y-75900600D01*
X134476243Y-75933960D01*
X134468138Y-75938179D01*
X134459419Y-75943669D01*
X134289114Y-76071538D01*
X134281407Y-76078381D01*
X134134271Y-76232350D01*
X134127785Y-76240360D01*
X134007779Y-76416282D01*
X134002681Y-76425256D01*
X133913019Y-76618416D01*
X133909456Y-76628103D01*
X133854070Y-76827816D01*
X133855593Y-76836240D01*
X133867973Y-76839633D01*
X136508025Y-76839633D01*
X136521556Y-76835660D01*
X136522861Y-76826580D01*
X136480895Y-76659508D01*
X136477575Y-76649757D01*
X136392653Y-76454447D01*
X136387786Y-76445372D01*
X136272107Y-76266559D01*
X136265817Y-76258390D01*
X136122487Y-76100873D01*
X136114954Y-76093848D01*
X135947820Y-75961855D01*
X135939237Y-75956153D01*
X135902283Y-75935753D01*
X135852312Y-75885320D01*
X135837540Y-75815878D01*
X135862656Y-75749472D01*
X135890008Y-75722865D01*
X135913478Y-75706124D01*
X136069541Y-75594806D01*
X136227777Y-75437122D01*
X136287275Y-75354322D01*
X136355116Y-75259910D01*
X136358134Y-75255710D01*
X136457111Y-75055444D01*
X136522051Y-74841702D01*
X136551210Y-74620223D01*
X136552837Y-74553633D01*
X136534533Y-74330994D01*
X136480112Y-74114335D01*
X136391035Y-73909473D01*
X136269695Y-73721910D01*
X136119351Y-73556684D01*
X136115300Y-73553485D01*
X136115296Y-73553481D01*
X135948095Y-73421433D01*
X135948091Y-73421431D01*
X135944040Y-73418231D01*
X135902250Y-73395162D01*
X135852279Y-73344730D01*
X135837507Y-73275287D01*
X135862623Y-73208881D01*
X135889975Y-73182274D01*
X136065009Y-73057425D01*
X136072881Y-73050772D01*
X136223733Y-72900445D01*
X136230411Y-72892598D01*
X136354684Y-72719653D01*
X136359994Y-72710816D01*
X136454351Y-72519900D01*
X136458150Y-72510305D01*
X136520058Y-72306543D01*
X136522236Y-72296470D01*
X136523667Y-72285595D01*
X136521456Y-72271411D01*
X136508298Y-72267633D01*
X133872906Y-72267633D01*
X133859375Y-72271606D01*
X133857938Y-72281599D01*
X133888246Y-72416079D01*
X133891326Y-72425908D01*
X133971451Y-72623236D01*
X133976094Y-72632427D01*
X134087375Y-72814021D01*
X134093458Y-72822332D01*
X134232894Y-72983300D01*
X134240261Y-72990516D01*
X134404115Y-73126549D01*
X134412562Y-73132464D01*
X134481650Y-73172836D01*
X134530374Y-73224475D01*
X134543445Y-73294258D01*
X134516714Y-73360029D01*
X134476265Y-73393385D01*
X134463288Y-73400140D01*
X134459155Y-73403243D01*
X134459152Y-73403245D01*
X134434928Y-73421433D01*
X134284646Y-73534268D01*
X134130310Y-73695771D01*
X134127396Y-73700043D01*
X134127395Y-73700044D01*
X134115085Y-73718090D01*
X134004424Y-73880313D01*
X133910369Y-74082938D01*
X133850670Y-74298203D01*
X133826932Y-74520328D01*
X129916182Y-74520328D01*
X129916182Y-70614128D01*
X129936184Y-70546007D01*
X129989840Y-70499514D01*
X130060114Y-70489410D01*
X130091920Y-70498360D01*
X130130199Y-70514806D01*
X130171169Y-70532408D01*
X130243999Y-70548888D01*
X130364237Y-70576095D01*
X130364242Y-70576096D01*
X130369874Y-70577370D01*
X130375645Y-70577597D01*
X130375647Y-70577597D01*
X130438652Y-70580072D01*
X130573445Y-70585368D01*
X130775065Y-70556135D01*
X130780529Y-70554280D01*
X130780534Y-70554279D01*
X130962509Y-70492507D01*
X130962514Y-70492505D01*
X130967981Y-70490649D01*
X131145733Y-70391103D01*
X131297030Y-70265271D01*
X131362193Y-70237090D01*
X131377598Y-70236145D01*
X133995233Y-70236145D01*
X134063354Y-70256147D01*
X134090471Y-70279647D01*
X134235931Y-70447571D01*
X134383291Y-70569912D01*
X134401909Y-70585368D01*
X134407807Y-70590265D01*
X134433925Y-70605527D01*
X134481636Y-70633407D01*
X134530360Y-70685045D01*
X134543431Y-70754828D01*
X134516700Y-70820600D01*
X134476243Y-70853960D01*
X134468138Y-70858179D01*
X134459419Y-70863669D01*
X134289114Y-70991538D01*
X134281407Y-70998381D01*
X134134271Y-71152350D01*
X134127785Y-71160360D01*
X134007779Y-71336282D01*
X134002681Y-71345256D01*
X133913019Y-71538416D01*
X133909456Y-71548103D01*
X133854070Y-71747816D01*
X133855593Y-71756240D01*
X133867973Y-71759633D01*
X136508025Y-71759633D01*
X136521556Y-71755660D01*
X136522861Y-71746580D01*
X136480895Y-71579508D01*
X136477575Y-71569757D01*
X136392653Y-71374447D01*
X136387786Y-71365372D01*
X136272107Y-71186559D01*
X136265817Y-71178390D01*
X136122487Y-71020873D01*
X136114954Y-71013848D01*
X135947820Y-70881855D01*
X135939237Y-70876153D01*
X135902283Y-70855753D01*
X135852312Y-70805320D01*
X135837540Y-70735878D01*
X135862656Y-70669472D01*
X135890008Y-70642865D01*
X135942354Y-70605527D01*
X136069541Y-70514806D01*
X136096617Y-70487825D01*
X136150890Y-70433740D01*
X136227777Y-70357122D01*
X136300335Y-70256147D01*
X136355116Y-70179910D01*
X136358134Y-70175710D01*
X136457111Y-69975444D01*
X136522051Y-69761702D01*
X136551210Y-69540223D01*
X136552837Y-69473633D01*
X136534533Y-69250994D01*
X136480112Y-69034335D01*
X136391035Y-68829473D01*
X136314485Y-68711145D01*
X136272503Y-68646250D01*
X136272501Y-68646247D01*
X136269695Y-68641910D01*
X136119351Y-68476684D01*
X136115300Y-68473485D01*
X136115296Y-68473481D01*
X135948095Y-68341433D01*
X135948091Y-68341431D01*
X135944040Y-68338231D01*
X135902250Y-68315162D01*
X135852279Y-68264730D01*
X135837507Y-68195287D01*
X135862623Y-68128881D01*
X135889975Y-68102274D01*
X136065009Y-67977425D01*
X136072881Y-67970772D01*
X136223733Y-67820445D01*
X136230411Y-67812598D01*
X136354684Y-67639653D01*
X136359994Y-67630816D01*
X136454351Y-67439900D01*
X136458150Y-67430305D01*
X136520058Y-67226543D01*
X136522236Y-67216470D01*
X136523667Y-67205595D01*
X136521456Y-67191411D01*
X136508298Y-67187633D01*
X133872906Y-67187633D01*
X133859375Y-67191606D01*
X133857938Y-67201599D01*
X133888246Y-67336079D01*
X133891326Y-67345908D01*
X133971451Y-67543236D01*
X133976094Y-67552427D01*
X134087375Y-67734021D01*
X134093458Y-67742332D01*
X134232894Y-67903300D01*
X134240261Y-67910516D01*
X134404115Y-68046549D01*
X134412562Y-68052464D01*
X134481650Y-68092836D01*
X134530374Y-68144475D01*
X134543445Y-68214258D01*
X134516714Y-68280029D01*
X134476265Y-68313385D01*
X134463288Y-68320140D01*
X134459155Y-68323243D01*
X134459152Y-68323245D01*
X134288781Y-68451163D01*
X134284646Y-68454268D01*
X134130310Y-68615771D01*
X134127396Y-68620043D01*
X134127395Y-68620044D01*
X134102766Y-68656149D01*
X134047855Y-68701152D01*
X133998678Y-68711145D01*
X131372772Y-68711145D01*
X131304651Y-68691143D01*
X131287243Y-68677669D01*
X131197130Y-68594369D01*
X131192885Y-68590445D01*
X131113056Y-68540077D01*
X131025470Y-68484814D01*
X131025465Y-68484812D01*
X131020586Y-68481733D01*
X130831362Y-68406240D01*
X130631548Y-68366494D01*
X130625774Y-68366418D01*
X130625770Y-68366418D01*
X130522634Y-68365069D01*
X130427837Y-68363828D01*
X130422140Y-68364807D01*
X130422139Y-68364807D01*
X130232749Y-68397350D01*
X130227052Y-68398329D01*
X130165581Y-68421007D01*
X130085793Y-68450442D01*
X130014959Y-68455254D01*
X129952769Y-68421007D01*
X129918967Y-68358573D01*
X129916182Y-68332230D01*
X129916182Y-65338451D01*
X129936184Y-65270330D01*
X129989840Y-65223837D01*
X130060114Y-65213733D01*
X130124694Y-65243227D01*
X130130103Y-65248196D01*
X130153092Y-65270591D01*
X130157888Y-65273796D01*
X130157891Y-65273798D01*
X130225831Y-65319194D01*
X130322485Y-65383776D01*
X130327788Y-65386054D01*
X130327791Y-65386056D01*
X130416797Y-65424296D01*
X130509669Y-65464197D01*
X130582499Y-65480677D01*
X130702737Y-65507884D01*
X130702742Y-65507885D01*
X130708374Y-65509159D01*
X130714145Y-65509386D01*
X130714147Y-65509386D01*
X130777152Y-65511861D01*
X130911945Y-65517157D01*
X131113565Y-65487924D01*
X131119029Y-65486069D01*
X131119034Y-65486068D01*
X131301009Y-65424296D01*
X131301014Y-65424294D01*
X131306481Y-65422438D01*
X131484233Y-65322892D01*
X131640868Y-65192620D01*
X131641200Y-65192220D01*
X131702015Y-65159012D01*
X131728798Y-65156133D01*
X133995223Y-65156133D01*
X134063344Y-65176135D01*
X134090460Y-65199636D01*
X134210706Y-65338451D01*
X134235931Y-65367571D01*
X134407807Y-65510265D01*
X134481636Y-65553407D01*
X134530360Y-65605045D01*
X134543431Y-65674828D01*
X134516700Y-65740600D01*
X134476243Y-65773960D01*
X134468138Y-65778179D01*
X134459419Y-65783669D01*
X134289114Y-65911538D01*
X134281407Y-65918381D01*
X134134271Y-66072350D01*
X134127785Y-66080360D01*
X134007779Y-66256282D01*
X134002681Y-66265256D01*
X133913019Y-66458416D01*
X133909456Y-66468103D01*
X133854070Y-66667816D01*
X133855593Y-66676240D01*
X133867973Y-66679633D01*
X136508025Y-66679633D01*
X136521556Y-66675660D01*
X136522861Y-66666580D01*
X136480895Y-66499508D01*
X136477575Y-66489757D01*
X136392653Y-66294447D01*
X136387786Y-66285372D01*
X136272107Y-66106559D01*
X136265817Y-66098390D01*
X136122487Y-65940873D01*
X136114954Y-65933848D01*
X135947820Y-65801855D01*
X135939237Y-65796153D01*
X135902283Y-65775753D01*
X135852312Y-65725320D01*
X135837540Y-65655878D01*
X135862656Y-65589472D01*
X135890008Y-65562865D01*
X135954088Y-65517157D01*
X136069541Y-65434806D01*
X136081953Y-65422438D01*
X136224116Y-65280770D01*
X136227777Y-65277122D01*
X136287275Y-65194322D01*
X136355116Y-65099910D01*
X136358134Y-65095710D01*
X136405586Y-64999699D01*
X136454817Y-64900086D01*
X136454818Y-64900084D01*
X136457111Y-64895444D01*
X136522051Y-64681702D01*
X136551210Y-64460223D01*
X136552837Y-64393633D01*
X136534533Y-64170994D01*
X136480112Y-63954335D01*
X136391035Y-63749473D01*
X136319647Y-63639124D01*
X136272503Y-63566250D01*
X136272501Y-63566247D01*
X136269695Y-63561910D01*
X136119351Y-63396684D01*
X136115297Y-63393482D01*
X136115296Y-63393481D01*
X135948095Y-63261433D01*
X135948091Y-63261431D01*
X135944040Y-63258231D01*
X135902250Y-63235162D01*
X135852279Y-63184730D01*
X135837507Y-63115287D01*
X135862623Y-63048881D01*
X135889975Y-63022274D01*
X136065009Y-62897425D01*
X136072881Y-62890772D01*
X136223733Y-62740445D01*
X136230411Y-62732598D01*
X136354684Y-62559653D01*
X136359994Y-62550816D01*
X136454351Y-62359900D01*
X136458150Y-62350305D01*
X136520058Y-62146543D01*
X136522236Y-62136470D01*
X136523667Y-62125595D01*
X136521456Y-62111411D01*
X136508298Y-62107633D01*
X133872906Y-62107633D01*
X133859375Y-62111606D01*
X133857938Y-62121599D01*
X133888246Y-62256079D01*
X133891326Y-62265908D01*
X133971451Y-62463236D01*
X133976094Y-62472427D01*
X134087375Y-62654021D01*
X134093458Y-62662332D01*
X134232894Y-62823300D01*
X134240261Y-62830516D01*
X134404115Y-62966549D01*
X134412562Y-62972464D01*
X134481650Y-63012836D01*
X134530374Y-63064475D01*
X134543445Y-63134258D01*
X134516714Y-63200029D01*
X134476265Y-63233385D01*
X134463288Y-63240140D01*
X134459155Y-63243243D01*
X134459152Y-63243245D01*
X134288781Y-63371163D01*
X134284646Y-63374268D01*
X134281074Y-63378006D01*
X134146192Y-63519152D01*
X134130310Y-63535771D01*
X134127396Y-63540043D01*
X134102773Y-63576138D01*
X134047861Y-63621140D01*
X133998685Y-63631133D01*
X131698507Y-63631133D01*
X131630386Y-63611131D01*
X131612978Y-63597658D01*
X131535625Y-63526153D01*
X131535622Y-63526151D01*
X131531385Y-63522234D01*
X131456561Y-63475024D01*
X131363970Y-63416603D01*
X131363965Y-63416601D01*
X131359086Y-63413522D01*
X131169862Y-63338029D01*
X130970048Y-63298283D01*
X130964274Y-63298207D01*
X130964270Y-63298207D01*
X130861134Y-63296858D01*
X130766337Y-63295617D01*
X130760640Y-63296596D01*
X130760639Y-63296596D01*
X130571249Y-63329139D01*
X130565552Y-63330118D01*
X130374416Y-63400632D01*
X130199331Y-63504797D01*
X130168273Y-63532034D01*
X130125259Y-63569756D01*
X130060855Y-63599633D01*
X129990522Y-63589947D01*
X129936591Y-63543774D01*
X129916182Y-63475024D01*
X129916182Y-62773462D01*
X129936184Y-62705341D01*
X129953087Y-62684367D01*
X132524416Y-60113038D01*
X132586728Y-60079012D01*
X132613511Y-60076133D01*
X133995223Y-60076133D01*
X134063344Y-60096135D01*
X134090460Y-60119636D01*
X134205138Y-60252023D01*
X134235931Y-60287571D01*
X134407807Y-60430265D01*
X134472499Y-60468068D01*
X134481636Y-60473407D01*
X134530360Y-60525045D01*
X134543431Y-60594828D01*
X134516700Y-60660600D01*
X134476243Y-60693960D01*
X134468138Y-60698179D01*
X134459419Y-60703669D01*
X134289114Y-60831538D01*
X134281407Y-60838381D01*
X134134271Y-60992350D01*
X134127785Y-61000360D01*
X134007779Y-61176282D01*
X134002681Y-61185256D01*
X133913019Y-61378416D01*
X133909456Y-61388103D01*
X133854070Y-61587816D01*
X133855593Y-61596240D01*
X133867973Y-61599633D01*
X136508025Y-61599633D01*
X136521556Y-61595660D01*
X136522861Y-61586580D01*
X136480895Y-61419508D01*
X136477575Y-61409757D01*
X136392653Y-61214447D01*
X136387786Y-61205372D01*
X136272107Y-61026559D01*
X136265817Y-61018390D01*
X136122487Y-60860873D01*
X136114954Y-60853848D01*
X135947820Y-60721855D01*
X135939237Y-60716153D01*
X135902283Y-60695753D01*
X135852312Y-60645320D01*
X135837540Y-60575878D01*
X135862656Y-60509472D01*
X135890008Y-60482865D01*
X135913478Y-60466124D01*
X136069541Y-60354806D01*
X136227777Y-60197122D01*
X136302005Y-60093823D01*
X136355116Y-60019910D01*
X136358134Y-60015710D01*
X136376299Y-59978957D01*
X136454817Y-59820086D01*
X136454818Y-59820084D01*
X136457111Y-59815444D01*
X136522051Y-59601702D01*
X136551210Y-59380223D01*
X136552837Y-59313633D01*
X136534533Y-59090994D01*
X136480112Y-58874335D01*
X136391035Y-58669473D01*
X136326056Y-58569031D01*
X136272503Y-58486250D01*
X136272501Y-58486247D01*
X136269695Y-58481910D01*
X136119351Y-58316684D01*
X136073906Y-58280793D01*
X136000088Y-58222495D01*
X135959026Y-58164577D01*
X135952181Y-58123613D01*
X135952181Y-57908801D01*
X135953614Y-57889850D01*
X135954534Y-57883807D01*
X135956904Y-57868225D01*
X135956051Y-57857728D01*
X135952596Y-57815258D01*
X135952181Y-57805044D01*
X135952181Y-57796908D01*
X135948871Y-57768517D01*
X135948438Y-57764142D01*
X135943084Y-57698305D01*
X135943083Y-57698302D01*
X135942490Y-57691006D01*
X135940235Y-57684044D01*
X135939035Y-57678040D01*
X135937629Y-57672093D01*
X135936782Y-57664826D01*
X135911734Y-57595820D01*
X135910306Y-57591660D01*
X135889949Y-57528820D01*
X135889947Y-57528815D01*
X135887693Y-57521858D01*
X135883899Y-57515606D01*
X135881347Y-57510031D01*
X135878611Y-57504568D01*
X135876115Y-57497692D01*
X135835862Y-57436296D01*
X135833515Y-57432577D01*
X135795453Y-57369852D01*
X135788013Y-57361427D01*
X135788041Y-57361402D01*
X135785447Y-57358477D01*
X135782642Y-57355123D01*
X135778627Y-57348998D01*
X135722094Y-57295444D01*
X135719653Y-57293067D01*
X134840492Y-56413906D01*
X134828105Y-56399493D01*
X134819477Y-56387769D01*
X134815136Y-56381870D01*
X134774627Y-56347455D01*
X134767111Y-56340525D01*
X134761367Y-56334781D01*
X134758493Y-56332507D01*
X134758486Y-56332501D01*
X134738971Y-56317062D01*
X134735567Y-56314271D01*
X134685210Y-56271489D01*
X134685206Y-56271486D01*
X134679631Y-56266750D01*
X134673114Y-56263422D01*
X134668050Y-56260045D01*
X134662826Y-56256818D01*
X134657082Y-56252274D01*
X134603981Y-56227456D01*
X134590600Y-56221202D01*
X134586649Y-56219271D01*
X134527799Y-56189221D01*
X134521278Y-56185891D01*
X134514163Y-56184150D01*
X134508417Y-56182013D01*
X134502634Y-56180089D01*
X134496003Y-56176990D01*
X134424125Y-56162040D01*
X134419853Y-56161073D01*
X134348570Y-56143630D01*
X134342971Y-56143283D01*
X134342967Y-56143282D01*
X134337352Y-56142934D01*
X134337354Y-56142895D01*
X134333453Y-56142662D01*
X134329094Y-56142273D01*
X134321926Y-56140782D01*
X134314609Y-56140980D01*
X134244105Y-56142888D01*
X134240696Y-56142934D01*
X131071710Y-56142934D01*
X131003589Y-56122932D01*
X130982615Y-56106029D01*
X130553087Y-55676501D01*
X130519061Y-55614189D01*
X130516182Y-55587406D01*
X130516182Y-53572810D01*
X130517615Y-53553860D01*
X130519806Y-53539461D01*
X130519806Y-53539455D01*
X130520906Y-53532226D01*
X130519093Y-53509929D01*
X130516597Y-53479251D01*
X130516182Y-53469036D01*
X130516182Y-53460909D01*
X130512871Y-53432510D01*
X130512442Y-53428170D01*
X130508674Y-53381839D01*
X130506491Y-53355008D01*
X130504235Y-53348046D01*
X130503039Y-53342058D01*
X130501631Y-53336101D01*
X130500783Y-53328827D01*
X130498285Y-53321945D01*
X130498284Y-53321941D01*
X130475737Y-53259827D01*
X130474327Y-53255723D01*
X130451695Y-53185859D01*
X130447895Y-53179596D01*
X130445357Y-53174054D01*
X130442615Y-53168578D01*
X130440116Y-53161693D01*
X130436101Y-53155569D01*
X130399867Y-53100302D01*
X130397552Y-53096634D01*
X130359455Y-53033853D01*
X130355739Y-53029646D01*
X130355736Y-53029642D01*
X130352014Y-53025429D01*
X130352044Y-53025403D01*
X130349446Y-53022475D01*
X130346642Y-53019121D01*
X130342628Y-53012999D01*
X130286096Y-52959446D01*
X130283654Y-52957069D01*
X129542768Y-52216182D01*
X129508743Y-52153870D01*
X129513808Y-52083054D01*
X129556355Y-52026219D01*
X129613784Y-52002391D01*
X129641679Y-51998347D01*
X129707850Y-51988753D01*
X129707854Y-51988752D01*
X129713565Y-51987924D01*
X129719029Y-51986069D01*
X129719034Y-51986068D01*
X129901009Y-51924296D01*
X129901014Y-51924294D01*
X129906481Y-51922438D01*
X129931075Y-51908665D01*
X130008360Y-51865383D01*
X130084233Y-51822892D01*
X130240868Y-51692620D01*
X130275626Y-51650828D01*
X131383201Y-51650828D01*
X131391338Y-51661834D01*
X131651598Y-51861538D01*
X131657197Y-51865372D01*
X131952921Y-52045175D01*
X131958911Y-52048387D01*
X132272317Y-52195197D01*
X132278621Y-52197744D01*
X132606044Y-52309845D01*
X132612595Y-52311699D01*
X132950199Y-52387781D01*
X132956918Y-52388918D01*
X133300773Y-52428096D01*
X133307563Y-52428499D01*
X133653633Y-52430311D01*
X133660434Y-52429979D01*
X134004680Y-52394405D01*
X134011408Y-52393339D01*
X134349804Y-52320792D01*
X134356353Y-52319013D01*
X134684938Y-52210344D01*
X134691280Y-52207858D01*
X135006183Y-52064349D01*
X135012237Y-52061184D01*
X135309788Y-51884512D01*
X135315469Y-51880709D01*
X135592207Y-51672928D01*
X135597431Y-51668544D01*
X135603898Y-51662492D01*
X135611967Y-51648812D01*
X135611940Y-51648088D01*
X135606796Y-51639785D01*
X133510472Y-49543461D01*
X133496528Y-49535847D01*
X133494695Y-49535978D01*
X133488080Y-49540229D01*
X131390082Y-51638227D01*
X131383201Y-51650828D01*
X130275626Y-51650828D01*
X130371140Y-51535985D01*
X130470686Y-51358233D01*
X130472542Y-51352766D01*
X130472544Y-51352761D01*
X130534316Y-51170786D01*
X130534317Y-51170781D01*
X130536172Y-51165317D01*
X130537000Y-51159609D01*
X130537001Y-51159603D01*
X130555998Y-51028578D01*
X130585568Y-50964032D01*
X130645339Y-50925720D01*
X130716336Y-50925804D01*
X130776016Y-50964259D01*
X130785276Y-50976382D01*
X130889981Y-51132200D01*
X130894084Y-51137644D01*
X131009571Y-51274790D01*
X131022310Y-51283233D01*
X131032754Y-51277135D01*
X133125638Y-49184251D01*
X133132016Y-49172571D01*
X133862068Y-49172571D01*
X133862199Y-49174404D01*
X133866450Y-49181019D01*
X135961213Y-51275782D01*
X135974810Y-51283207D01*
X135984421Y-51276507D01*
X136080505Y-51164799D01*
X136084663Y-51159399D01*
X136280683Y-50874190D01*
X136284230Y-50868379D01*
X136448294Y-50563677D01*
X136451201Y-50557499D01*
X136581404Y-50236850D01*
X136583618Y-50230420D01*
X136678429Y-49897582D01*
X136679936Y-49890952D01*
X136738250Y-49549801D01*
X136739030Y-49543061D01*
X136760255Y-49196015D01*
X136760371Y-49192412D01*
X136760439Y-49173258D01*
X136760347Y-49169633D01*
X136741545Y-48822462D01*
X136740810Y-48815696D01*
X136684884Y-48474177D01*
X136683417Y-48467505D01*
X136590938Y-48134036D01*
X136588764Y-48127573D01*
X136460803Y-47806022D01*
X136457950Y-47799848D01*
X136296003Y-47493984D01*
X136292509Y-47488167D01*
X136098473Y-47201579D01*
X136094359Y-47196160D01*
X135985750Y-47068092D01*
X135972925Y-47059656D01*
X135962600Y-47065709D01*
X133869682Y-49158627D01*
X133862068Y-49172571D01*
X133132016Y-49172571D01*
X133133252Y-49170307D01*
X133133121Y-49168474D01*
X133128870Y-49161859D01*
X131034117Y-47067106D01*
X131020580Y-47059714D01*
X131010879Y-47066502D01*
X130907880Y-47187098D01*
X130903726Y-47192531D01*
X130708716Y-47478404D01*
X130705181Y-47484241D01*
X130542178Y-47789519D01*
X130539302Y-47795688D01*
X130410218Y-48116794D01*
X130408025Y-48123234D01*
X130314374Y-48456407D01*
X130312891Y-48463042D01*
X130255772Y-48804375D01*
X130255013Y-48811147D01*
X130235091Y-49156651D01*
X130235067Y-49163446D01*
X130252577Y-49509098D01*
X130253287Y-49515854D01*
X130308023Y-49857580D01*
X130309460Y-49864228D01*
X130313246Y-49878067D01*
X130311927Y-49949051D01*
X130272440Y-50008054D01*
X130207323Y-50036342D01*
X130137249Y-50024935D01*
X130124476Y-50017875D01*
X130048084Y-49969675D01*
X129959086Y-49913522D01*
X129769862Y-49838029D01*
X129570048Y-49798283D01*
X129564273Y-49798207D01*
X129564269Y-49798207D01*
X129464029Y-49796895D01*
X129396175Y-49776003D01*
X129376582Y-49760001D01*
X128671737Y-49055155D01*
X128637712Y-48992843D01*
X128635911Y-48949613D01*
X128639765Y-48920341D01*
X128640202Y-48917023D01*
X128641829Y-48850433D01*
X128623525Y-48627794D01*
X128569104Y-48411135D01*
X128480027Y-48206273D01*
X128358687Y-48018710D01*
X128208343Y-47853484D01*
X128204292Y-47850285D01*
X128204288Y-47850281D01*
X128037087Y-47718233D01*
X128037083Y-47718231D01*
X128033032Y-47715031D01*
X127996701Y-47694975D01*
X127980809Y-47686202D01*
X127837462Y-47607071D01*
X127832593Y-47605347D01*
X127832589Y-47605345D01*
X127631760Y-47534228D01*
X127631756Y-47534227D01*
X127626885Y-47532502D01*
X127621792Y-47531595D01*
X127621789Y-47531594D01*
X127412046Y-47494233D01*
X127412040Y-47494232D01*
X127406957Y-47493327D01*
X127333125Y-47492425D01*
X127188754Y-47490661D01*
X127188752Y-47490661D01*
X127183584Y-47490598D01*
X126962764Y-47524388D01*
X126750429Y-47593790D01*
X126552280Y-47696940D01*
X126548147Y-47700043D01*
X126548144Y-47700045D01*
X126377773Y-47827963D01*
X126373638Y-47831068D01*
X126219302Y-47992571D01*
X126216388Y-47996843D01*
X126216387Y-47996844D01*
X126204077Y-48014890D01*
X126127203Y-48127584D01*
X126111571Y-48150499D01*
X126056660Y-48195502D01*
X125986135Y-48203673D01*
X125922388Y-48172419D01*
X125901691Y-48147935D01*
X125821099Y-48023359D01*
X125814809Y-48015190D01*
X125671479Y-47857673D01*
X125663946Y-47850648D01*
X125496812Y-47718655D01*
X125488225Y-47712950D01*
X125301790Y-47610032D01*
X125292378Y-47605802D01*
X125091632Y-47534713D01*
X125081661Y-47532079D01*
X125010510Y-47519405D01*
X124997213Y-47520865D01*
X124992673Y-47535422D01*
X124992673Y-48978433D01*
X124972671Y-49046554D01*
X124919015Y-49093047D01*
X124866673Y-49104433D01*
X123421898Y-49104433D01*
X123408367Y-49108406D01*
X123406930Y-49118399D01*
X123437238Y-49252879D01*
X123440318Y-49262708D01*
X123520443Y-49460036D01*
X123525086Y-49469227D01*
X123636367Y-49650821D01*
X123642450Y-49659132D01*
X123781886Y-49820100D01*
X123789253Y-49827316D01*
X123953107Y-49963349D01*
X123961554Y-49969264D01*
X124030642Y-50009636D01*
X124079366Y-50061275D01*
X124092437Y-50131058D01*
X124065706Y-50196829D01*
X124025257Y-50230185D01*
X124012280Y-50236940D01*
X124008147Y-50240043D01*
X124008144Y-50240045D01*
X123983920Y-50258233D01*
X123833638Y-50371068D01*
X123679302Y-50532571D01*
X123676388Y-50536843D01*
X123651765Y-50572938D01*
X123596853Y-50617940D01*
X123547677Y-50627933D01*
X123336059Y-50627933D01*
X123317109Y-50626500D01*
X123302710Y-50624309D01*
X123302704Y-50624309D01*
X123295475Y-50623209D01*
X123288183Y-50623802D01*
X123288180Y-50623802D01*
X123242500Y-50627518D01*
X123232285Y-50627933D01*
X123224158Y-50627933D01*
X123220522Y-50628357D01*
X123220520Y-50628357D01*
X123217068Y-50628760D01*
X123195759Y-50631244D01*
X123191439Y-50631671D01*
X123118257Y-50637624D01*
X123111295Y-50639880D01*
X123105307Y-50641076D01*
X123099350Y-50642484D01*
X123092076Y-50643332D01*
X123085194Y-50645830D01*
X123085190Y-50645831D01*
X123023076Y-50668378D01*
X123018972Y-50669788D01*
X122949108Y-50692420D01*
X122942845Y-50696220D01*
X122937303Y-50698758D01*
X122931827Y-50701500D01*
X122924942Y-50703999D01*
X122918818Y-50708014D01*
X122863551Y-50744248D01*
X122859883Y-50746563D01*
X122797102Y-50784660D01*
X122792897Y-50788374D01*
X122792894Y-50788376D01*
X122788678Y-50792100D01*
X122788652Y-50792071D01*
X122785721Y-50794671D01*
X122782367Y-50797475D01*
X122776248Y-50801487D01*
X122771216Y-50806799D01*
X122722695Y-50858019D01*
X122720317Y-50860461D01*
X121862154Y-51718624D01*
X121847741Y-51731011D01*
X121830118Y-51743980D01*
X121825374Y-51749563D01*
X121825375Y-51749563D01*
X121795703Y-51784489D01*
X121788773Y-51792005D01*
X121783029Y-51797749D01*
X121780755Y-51800623D01*
X121780749Y-51800630D01*
X121765310Y-51820145D01*
X121762519Y-51823549D01*
X121719737Y-51873906D01*
X121719734Y-51873910D01*
X121714998Y-51879485D01*
X121711670Y-51886002D01*
X121708293Y-51891066D01*
X121705066Y-51896290D01*
X121700522Y-51902034D01*
X121697423Y-51908665D01*
X121669450Y-51968516D01*
X121667519Y-51972467D01*
X121634139Y-52037838D01*
X121632398Y-52044953D01*
X121630261Y-52050699D01*
X121628337Y-52056482D01*
X121625238Y-52063113D01*
X121623748Y-52070277D01*
X121610290Y-52134981D01*
X121609321Y-52139263D01*
X121591878Y-52210546D01*
X121591182Y-52221764D01*
X121591143Y-52221762D01*
X121590910Y-52225663D01*
X121590521Y-52230022D01*
X121589030Y-52237190D01*
X121589228Y-52244507D01*
X121591136Y-52315011D01*
X121591182Y-52318420D01*
X121591182Y-53067550D01*
X121571180Y-53135671D01*
X121553975Y-53155647D01*
X121554478Y-53156125D01*
X121550497Y-53160319D01*
X121546160Y-53164123D01*
X121542593Y-53168648D01*
X121542588Y-53168653D01*
X121470713Y-53259827D01*
X121420033Y-53324114D01*
X121417344Y-53329225D01*
X121417342Y-53329228D01*
X121410592Y-53342058D01*
X121325174Y-53504411D01*
X121264760Y-53698976D01*
X121240814Y-53901292D01*
X121254139Y-54104584D01*
X121304287Y-54302043D01*
X121389580Y-54487057D01*
X121507161Y-54653430D01*
X121511295Y-54657457D01*
X121626179Y-54769372D01*
X121653092Y-54795590D01*
X121657888Y-54798795D01*
X121657891Y-54798797D01*
X121732530Y-54848669D01*
X121778058Y-54903146D01*
X121786906Y-54973589D01*
X121756264Y-55037633D01*
X121695863Y-55074945D01*
X121662528Y-55079434D01*
X120273295Y-55079434D01*
X120205174Y-55059432D01*
X120170084Y-55025707D01*
X120159880Y-55011134D01*
X119997982Y-54849236D01*
X119993474Y-54846079D01*
X119993471Y-54846077D01*
X119867602Y-54757943D01*
X119810431Y-54717911D01*
X119805449Y-54715588D01*
X119805444Y-54715585D01*
X119607907Y-54623473D01*
X119607906Y-54623473D01*
X119602925Y-54621150D01*
X119597617Y-54619728D01*
X119597615Y-54619727D01*
X119387084Y-54563315D01*
X119387082Y-54563315D01*
X119381769Y-54561891D01*
X119153682Y-54541936D01*
X118925595Y-54561891D01*
X118920282Y-54563315D01*
X118920280Y-54563315D01*
X118709749Y-54619727D01*
X118709747Y-54619728D01*
X118704439Y-54621150D01*
X118699458Y-54623473D01*
X118699457Y-54623473D01*
X118501920Y-54715585D01*
X118501915Y-54715588D01*
X118496933Y-54717911D01*
X118439762Y-54757943D01*
X118313893Y-54846077D01*
X118313890Y-54846079D01*
X118309382Y-54849236D01*
X118147484Y-55011134D01*
X118016159Y-55198685D01*
X118013835Y-55203669D01*
X118012511Y-55205962D01*
X117961129Y-55254955D01*
X117891415Y-55268391D01*
X117825504Y-55242005D01*
X117794273Y-55205962D01*
X117787616Y-55194432D01*
X117751173Y-55142386D01*
X117740694Y-55134010D01*
X117727248Y-55141078D01*
X117025704Y-55842622D01*
X117018090Y-55856566D01*
X117018221Y-55858399D01*
X117022472Y-55865014D01*
X117727969Y-56570511D01*
X117739744Y-56576941D01*
X117751759Y-56567645D01*
X117787616Y-56516436D01*
X117794273Y-56504906D01*
X117845655Y-56455913D01*
X117915369Y-56442476D01*
X117981280Y-56468863D01*
X118012511Y-56504906D01*
X118013835Y-56507199D01*
X118016159Y-56512183D01*
X118019313Y-56516687D01*
X118101188Y-56633616D01*
X118147484Y-56699734D01*
X118290777Y-56843027D01*
X118324803Y-56905339D01*
X118327682Y-56932122D01*
X118327682Y-58104771D01*
X118307680Y-58172892D01*
X118254024Y-58219385D01*
X118183750Y-58229489D01*
X118119170Y-58199995D01*
X118100856Y-58180336D01*
X118046308Y-58107553D01*
X118046307Y-58107552D01*
X118040926Y-58100372D01*
X117924370Y-58013018D01*
X117787981Y-57961888D01*
X117725799Y-57955133D01*
X115929531Y-57955133D01*
X115867349Y-57961888D01*
X115730960Y-58013018D01*
X115614404Y-58100372D01*
X115527050Y-58216928D01*
X115475920Y-58353317D01*
X115469165Y-58415499D01*
X115469165Y-60211767D01*
X115475920Y-60273949D01*
X115527050Y-60410338D01*
X115614404Y-60526894D01*
X115730960Y-60614248D01*
X115739369Y-60617400D01*
X115739370Y-60617401D01*
X115848116Y-60658168D01*
X115904881Y-60700809D01*
X115929581Y-60767371D01*
X115914374Y-60836720D01*
X115894981Y-60863201D01*
X115768294Y-60995771D01*
X115765380Y-61000043D01*
X115765379Y-61000044D01*
X115753074Y-61018083D01*
X115642408Y-61180313D01*
X115548353Y-61382938D01*
X115488654Y-61598203D01*
X115464916Y-61820328D01*
X115465213Y-61825481D01*
X115465213Y-61825484D01*
X115470676Y-61920223D01*
X115477775Y-62043348D01*
X115478912Y-62048394D01*
X115478913Y-62048400D01*
X115492262Y-62107633D01*
X115526887Y-62261272D01*
X115610931Y-62468249D01*
X115727652Y-62658721D01*
X115873915Y-62827571D01*
X115877890Y-62830871D01*
X115877893Y-62830874D01*
X115956150Y-62895844D01*
X115995785Y-62954747D01*
X116001665Y-62992788D01*
X116001665Y-63251968D01*
X115981663Y-63320089D01*
X115951320Y-63352727D01*
X115922630Y-63374268D01*
X115919058Y-63378006D01*
X115784176Y-63519152D01*
X115768294Y-63535771D01*
X115765380Y-63540043D01*
X115765379Y-63540044D01*
X115724730Y-63599633D01*
X115642408Y-63720313D01*
X115548353Y-63922938D01*
X115488654Y-64138203D01*
X115464916Y-64360328D01*
X115465213Y-64365481D01*
X115465213Y-64365484D01*
X115470676Y-64460223D01*
X115477775Y-64583348D01*
X115478912Y-64588394D01*
X115478913Y-64588400D01*
X115498784Y-64676572D01*
X115526887Y-64801272D01*
X115610931Y-65008249D01*
X115727652Y-65198721D01*
X115873915Y-65367571D01*
X116045791Y-65510265D01*
X116119620Y-65553407D01*
X116168344Y-65605045D01*
X116181415Y-65674828D01*
X116154684Y-65740600D01*
X116114227Y-65773960D01*
X116106122Y-65778179D01*
X116097403Y-65783669D01*
X115927098Y-65911538D01*
X115919391Y-65918381D01*
X115772255Y-66072350D01*
X115765769Y-66080360D01*
X115645763Y-66256282D01*
X115640665Y-66265256D01*
X115551003Y-66458416D01*
X115547440Y-66468103D01*
X115492054Y-66667816D01*
X115493577Y-66676240D01*
X115505957Y-66679633D01*
X118146009Y-66679633D01*
X118159540Y-66675660D01*
X118160845Y-66666580D01*
X118118879Y-66499508D01*
X118115559Y-66489757D01*
X118030637Y-66294447D01*
X118025770Y-66285372D01*
X117910091Y-66106559D01*
X117903801Y-66098390D01*
X117760471Y-65940873D01*
X117752938Y-65933848D01*
X117585804Y-65801855D01*
X117577221Y-65796153D01*
X117540267Y-65775753D01*
X117490296Y-65725320D01*
X117475524Y-65655878D01*
X117500640Y-65589472D01*
X117527992Y-65562865D01*
X117592072Y-65517157D01*
X117707525Y-65434806D01*
X117719937Y-65422438D01*
X117862100Y-65280770D01*
X117865761Y-65277122D01*
X117925259Y-65194322D01*
X117993100Y-65099910D01*
X117996118Y-65095710D01*
X118043570Y-64999699D01*
X118092801Y-64900086D01*
X118092802Y-64900084D01*
X118095095Y-64895444D01*
X118160035Y-64681702D01*
X118189194Y-64460223D01*
X118190821Y-64393633D01*
X118172517Y-64170994D01*
X118118096Y-63954335D01*
X118029019Y-63749473D01*
X117957631Y-63639124D01*
X117910487Y-63566250D01*
X117910485Y-63566247D01*
X117907679Y-63561910D01*
X117757335Y-63396684D01*
X117701572Y-63352645D01*
X117660510Y-63294729D01*
X117653665Y-63253764D01*
X117653665Y-62998119D01*
X117673667Y-62929998D01*
X117700206Y-62902143D01*
X117699365Y-62901148D01*
X117703322Y-62897804D01*
X117707525Y-62894806D01*
X117865761Y-62737122D01*
X117925259Y-62654322D01*
X117993100Y-62559910D01*
X117996118Y-62555710D01*
X118095095Y-62355444D01*
X118160035Y-62141702D01*
X118189194Y-61920223D01*
X118190821Y-61853633D01*
X118172517Y-61630994D01*
X118118096Y-61414335D01*
X118029019Y-61209473D01*
X117907679Y-61021910D01*
X117888070Y-61000360D01*
X117760463Y-60860121D01*
X117729411Y-60796275D01*
X117737806Y-60725776D01*
X117782982Y-60671008D01*
X117809426Y-60657339D01*
X117915962Y-60617400D01*
X117924370Y-60614248D01*
X118040926Y-60526894D01*
X118128280Y-60410338D01*
X118179410Y-60273949D01*
X118181792Y-60252023D01*
X118209035Y-60186462D01*
X118267399Y-60146036D01*
X118307055Y-60139633D01*
X118355450Y-60139633D01*
X118365995Y-60140075D01*
X118415783Y-60144256D01*
X118493226Y-60133922D01*
X118496226Y-60133560D01*
X118537981Y-60129024D01*
X118567117Y-60125859D01*
X118567119Y-60125859D01*
X118573900Y-60125122D01*
X118580366Y-60122946D01*
X118582716Y-60122429D01*
X118583266Y-60122332D01*
X118584033Y-60122153D01*
X118584568Y-60121998D01*
X118586915Y-60121422D01*
X118593673Y-60120520D01*
X118667025Y-60093822D01*
X118669926Y-60092807D01*
X118737522Y-60070058D01*
X118737529Y-60070055D01*
X118743994Y-60067879D01*
X118749843Y-60064364D01*
X118752036Y-60063351D01*
X118752551Y-60063139D01*
X118753249Y-60062806D01*
X118753750Y-60062533D01*
X118755904Y-60061473D01*
X118762317Y-60059139D01*
X118828285Y-60017274D01*
X118830877Y-60015674D01*
X118891985Y-59978957D01*
X118897827Y-59975447D01*
X118902778Y-59970766D01*
X118904714Y-59969296D01*
X118905645Y-59968648D01*
X118909479Y-59965748D01*
X118913847Y-59962976D01*
X118917947Y-59959310D01*
X118969869Y-59907388D01*
X118972391Y-59904935D01*
X119023265Y-59856826D01*
X119023267Y-59856824D01*
X119028223Y-59852137D01*
X119032057Y-59846495D01*
X119036180Y-59841651D01*
X119043036Y-59834221D01*
X119709443Y-59167813D01*
X119717211Y-59160670D01*
X119750162Y-59132824D01*
X119755375Y-59128419D01*
X119802816Y-59066368D01*
X119804714Y-59063948D01*
X119849375Y-59008402D01*
X119853651Y-59003084D01*
X119856684Y-58996974D01*
X119857986Y-58994938D01*
X119858305Y-58994482D01*
X119858715Y-58993824D01*
X119858984Y-58993334D01*
X119860235Y-58991268D01*
X119864379Y-58985848D01*
X119897378Y-58915080D01*
X119898712Y-58912309D01*
X119933449Y-58842332D01*
X119935101Y-58835707D01*
X119935935Y-58833440D01*
X119936154Y-58832915D01*
X119936403Y-58832211D01*
X119936565Y-58831661D01*
X119937343Y-58829377D01*
X119940225Y-58823195D01*
X119941713Y-58816537D01*
X119941716Y-58816529D01*
X119957262Y-58746981D01*
X119957970Y-58743985D01*
X119975214Y-58674823D01*
X119975214Y-58674822D01*
X119976866Y-58668197D01*
X119977057Y-58661376D01*
X119977387Y-58658965D01*
X119977585Y-58657861D01*
X119978245Y-58653106D01*
X119979375Y-58648050D01*
X119979682Y-58642559D01*
X119979682Y-58569124D01*
X119979731Y-58565607D01*
X119981686Y-58495620D01*
X119981686Y-58495616D01*
X119981876Y-58488799D01*
X119980597Y-58482095D01*
X119980088Y-58475769D01*
X119979682Y-58465662D01*
X119979682Y-56932122D01*
X119999684Y-56864001D01*
X120016587Y-56843027D01*
X120091275Y-56768339D01*
X120153587Y-56734313D01*
X120180370Y-56731434D01*
X121982285Y-56731434D01*
X122050406Y-56751436D01*
X122096899Y-56805092D01*
X122107003Y-56875366D01*
X122096435Y-56910779D01*
X122069450Y-56968517D01*
X122067519Y-56972467D01*
X122034139Y-57037838D01*
X122032398Y-57044953D01*
X122030261Y-57050699D01*
X122028337Y-57056482D01*
X122025238Y-57063113D01*
X122020286Y-57086924D01*
X122010290Y-57134981D01*
X122009321Y-57139263D01*
X121991878Y-57210546D01*
X121991182Y-57221764D01*
X121991143Y-57221762D01*
X121990910Y-57225663D01*
X121990521Y-57230022D01*
X121989030Y-57237190D01*
X121989228Y-57244507D01*
X121991136Y-57315011D01*
X121991182Y-57318420D01*
X121991182Y-70537406D01*
X121971180Y-70605527D01*
X121954277Y-70626501D01*
X121366550Y-71214228D01*
X121304238Y-71248254D01*
X121277455Y-71251133D01*
X118021016Y-71251133D01*
X117952895Y-71231131D01*
X117915223Y-71193572D01*
X117907679Y-71181910D01*
X117757335Y-71016684D01*
X117753284Y-71013485D01*
X117753280Y-71013481D01*
X117586079Y-70881433D01*
X117586075Y-70881431D01*
X117582024Y-70878231D01*
X117540234Y-70855162D01*
X117490263Y-70804730D01*
X117475491Y-70735287D01*
X117500607Y-70668881D01*
X117527959Y-70642274D01*
X117702993Y-70517425D01*
X117710865Y-70510772D01*
X117861717Y-70360445D01*
X117868395Y-70352598D01*
X117992668Y-70179653D01*
X117997978Y-70170816D01*
X118092335Y-69979900D01*
X118096134Y-69970305D01*
X118158042Y-69766543D01*
X118160220Y-69756470D01*
X118161651Y-69745595D01*
X118159440Y-69731411D01*
X118146282Y-69727633D01*
X115510890Y-69727633D01*
X115497359Y-69731606D01*
X115495922Y-69741599D01*
X115526230Y-69876079D01*
X115529310Y-69885908D01*
X115609435Y-70083236D01*
X115614078Y-70092427D01*
X115725359Y-70274021D01*
X115731442Y-70282332D01*
X115870878Y-70443300D01*
X115878245Y-70450516D01*
X116042099Y-70586549D01*
X116050546Y-70592464D01*
X116119634Y-70632836D01*
X116168358Y-70684475D01*
X116181429Y-70754258D01*
X116154698Y-70820029D01*
X116114249Y-70853385D01*
X116101272Y-70860140D01*
X116097139Y-70863243D01*
X116097136Y-70863245D01*
X116072912Y-70881433D01*
X115922630Y-70994268D01*
X115768294Y-71155771D01*
X115765380Y-71160043D01*
X115765379Y-71160044D01*
X115753069Y-71178090D01*
X115642408Y-71340313D01*
X115548353Y-71542938D01*
X115488654Y-71758203D01*
X115464916Y-71980328D01*
X115477775Y-72203348D01*
X115478912Y-72208394D01*
X115478913Y-72208400D01*
X115492262Y-72267633D01*
X115526887Y-72421272D01*
X115588338Y-72572609D01*
X115600508Y-72602579D01*
X115610931Y-72628249D01*
X115652481Y-72696052D01*
X115706963Y-72784959D01*
X115727652Y-72818721D01*
X115873915Y-72987571D01*
X116045791Y-73130265D01*
X116118643Y-73172836D01*
X116119620Y-73173407D01*
X116168344Y-73225045D01*
X116181415Y-73294828D01*
X116154684Y-73360600D01*
X116114227Y-73393960D01*
X116106122Y-73398179D01*
X116097403Y-73403669D01*
X115927098Y-73531538D01*
X115919391Y-73538381D01*
X115772255Y-73692350D01*
X115765769Y-73700360D01*
X115645763Y-73876282D01*
X115640665Y-73885256D01*
X115551003Y-74078416D01*
X115547440Y-74088103D01*
X115492054Y-74287816D01*
X115493577Y-74296240D01*
X115505957Y-74299633D01*
X118146009Y-74299633D01*
X118159540Y-74295660D01*
X118160845Y-74286580D01*
X118118879Y-74119508D01*
X118115559Y-74109757D01*
X118030637Y-73914447D01*
X118025770Y-73905372D01*
X117910091Y-73726559D01*
X117903801Y-73718390D01*
X117760471Y-73560873D01*
X117752938Y-73553848D01*
X117585804Y-73421855D01*
X117577221Y-73416153D01*
X117540267Y-73395753D01*
X117490296Y-73345320D01*
X117475524Y-73275878D01*
X117500640Y-73209472D01*
X117527992Y-73182865D01*
X117551462Y-73166124D01*
X117707525Y-73054806D01*
X117865761Y-72897122D01*
X117914994Y-72828607D01*
X117970989Y-72784959D01*
X118017317Y-72776133D01*
X121578107Y-72776133D01*
X121597057Y-72777566D01*
X121611456Y-72779757D01*
X121611462Y-72779757D01*
X121618691Y-72780857D01*
X121625983Y-72780264D01*
X121625986Y-72780264D01*
X121671666Y-72776548D01*
X121681881Y-72776133D01*
X121690008Y-72776133D01*
X121693644Y-72775709D01*
X121693646Y-72775709D01*
X121697098Y-72775306D01*
X121718407Y-72772822D01*
X121722727Y-72772395D01*
X121795909Y-72766442D01*
X121802871Y-72764186D01*
X121808859Y-72762990D01*
X121814816Y-72761582D01*
X121822090Y-72760734D01*
X121828972Y-72758236D01*
X121828976Y-72758235D01*
X121891090Y-72735688D01*
X121895194Y-72734278D01*
X121965058Y-72711646D01*
X121971321Y-72707846D01*
X121976863Y-72705308D01*
X121982339Y-72702566D01*
X121989224Y-72700067D01*
X122050615Y-72659818D01*
X122054283Y-72657503D01*
X122117064Y-72619406D01*
X122121269Y-72615692D01*
X122121272Y-72615690D01*
X122125488Y-72611966D01*
X122125514Y-72611995D01*
X122128445Y-72609395D01*
X122131799Y-72606591D01*
X122137918Y-72602579D01*
X122191472Y-72546046D01*
X122193849Y-72543605D01*
X122977430Y-71760024D01*
X123039742Y-71725998D01*
X123110557Y-71731063D01*
X123167393Y-71773610D01*
X123192204Y-71840130D01*
X123192525Y-71849119D01*
X123192525Y-78362149D01*
X123190779Y-78383054D01*
X123187454Y-78402817D01*
X123187301Y-78415356D01*
X123189411Y-78430090D01*
X123190360Y-78438937D01*
X123204061Y-78630516D01*
X123221654Y-78711388D01*
X123242577Y-78807570D01*
X123249913Y-78841295D01*
X123251480Y-78845497D01*
X123251482Y-78845503D01*
X123274156Y-78906293D01*
X123325296Y-79043403D01*
X123327450Y-79047348D01*
X123327451Y-79047350D01*
X123371260Y-79127580D01*
X123428674Y-79232726D01*
X123470880Y-79289106D01*
X123472314Y-79291022D01*
X123497125Y-79357542D01*
X123482034Y-79426916D01*
X123431832Y-79477118D01*
X123371446Y-79492531D01*
X118371307Y-79492531D01*
X118303186Y-79472529D01*
X118282211Y-79455626D01*
X117627069Y-78800483D01*
X117593044Y-78738171D01*
X117590165Y-78711388D01*
X117590165Y-78283413D01*
X117610167Y-78215292D01*
X117642997Y-78180834D01*
X117703317Y-78137809D01*
X117703328Y-78137800D01*
X117707525Y-78134806D01*
X117865761Y-77977122D01*
X117925259Y-77894322D01*
X117993100Y-77799910D01*
X117996118Y-77795710D01*
X118095095Y-77595444D01*
X118160035Y-77381702D01*
X118189194Y-77160223D01*
X118190821Y-77093633D01*
X118172517Y-76870994D01*
X118118096Y-76654335D01*
X118029019Y-76449473D01*
X117907679Y-76261910D01*
X117757335Y-76096684D01*
X117753284Y-76093485D01*
X117753280Y-76093481D01*
X117586079Y-75961433D01*
X117586075Y-75961431D01*
X117582024Y-75958231D01*
X117540234Y-75935162D01*
X117490263Y-75884730D01*
X117475491Y-75815287D01*
X117500607Y-75748881D01*
X117527959Y-75722274D01*
X117702993Y-75597425D01*
X117710865Y-75590772D01*
X117861717Y-75440445D01*
X117868395Y-75432598D01*
X117992668Y-75259653D01*
X117997978Y-75250816D01*
X118092335Y-75059900D01*
X118096134Y-75050305D01*
X118158042Y-74846543D01*
X118160220Y-74836470D01*
X118161651Y-74825595D01*
X118159440Y-74811411D01*
X118146282Y-74807633D01*
X115510890Y-74807633D01*
X115497359Y-74811606D01*
X115495922Y-74821599D01*
X115526230Y-74956079D01*
X115529310Y-74965908D01*
X115609435Y-75163236D01*
X115614078Y-75172427D01*
X115725359Y-75354021D01*
X115731442Y-75362332D01*
X115870878Y-75523300D01*
X115878245Y-75530516D01*
X116042099Y-75666549D01*
X116050546Y-75672464D01*
X116119634Y-75712836D01*
X116168358Y-75764475D01*
X116181429Y-75834258D01*
X116154698Y-75900029D01*
X116114249Y-75933385D01*
X116101272Y-75940140D01*
X116097139Y-75943243D01*
X116097136Y-75943245D01*
X116072912Y-75961433D01*
X115922630Y-76074268D01*
X115768294Y-76235771D01*
X115765380Y-76240043D01*
X115765379Y-76240044D01*
X115753069Y-76258090D01*
X115642408Y-76420313D01*
X115548353Y-76622938D01*
X115488654Y-76838203D01*
X115464916Y-77060328D01*
X115465213Y-77065481D01*
X115465213Y-77065484D01*
X115470676Y-77160223D01*
X115477775Y-77283348D01*
X115478912Y-77288394D01*
X115478913Y-77288400D01*
X115493114Y-77351411D01*
X115526887Y-77501272D01*
X115610931Y-77708249D01*
X115727652Y-77898721D01*
X115873915Y-78067571D01*
X116019652Y-78188564D01*
X116059285Y-78247464D01*
X116065165Y-78285506D01*
X116065165Y-79012041D01*
X116063732Y-79030991D01*
X116061541Y-79045390D01*
X116061541Y-79045396D01*
X116060441Y-79052625D01*
X116061034Y-79059917D01*
X116061034Y-79059920D01*
X116064750Y-79105600D01*
X116065165Y-79115815D01*
X116065165Y-79123942D01*
X116068476Y-79152341D01*
X116068903Y-79156661D01*
X116074856Y-79229843D01*
X116077112Y-79236805D01*
X116078308Y-79242793D01*
X116079716Y-79248750D01*
X116080564Y-79256024D01*
X116083062Y-79262906D01*
X116083063Y-79262910D01*
X116105610Y-79325024D01*
X116107020Y-79329128D01*
X116129652Y-79398992D01*
X116133452Y-79405255D01*
X116135990Y-79410797D01*
X116138732Y-79416273D01*
X116141231Y-79423158D01*
X116145246Y-79429282D01*
X116181480Y-79484549D01*
X116183795Y-79488217D01*
X116221892Y-79550998D01*
X116225606Y-79555203D01*
X116225608Y-79555206D01*
X116229332Y-79559422D01*
X116229303Y-79559448D01*
X116231903Y-79562379D01*
X116234707Y-79565733D01*
X116238719Y-79571852D01*
X116289336Y-79619802D01*
X116295251Y-79625405D01*
X116297693Y-79627783D01*
X117416469Y-80746559D01*
X117428856Y-80760972D01*
X117441825Y-80778595D01*
X117447408Y-80783338D01*
X117482334Y-80813010D01*
X117489850Y-80819940D01*
X117495594Y-80825684D01*
X117498468Y-80827958D01*
X117498475Y-80827964D01*
X117517990Y-80843403D01*
X117521394Y-80846194D01*
X117571751Y-80888976D01*
X117571755Y-80888979D01*
X117577330Y-80893715D01*
X117583847Y-80897043D01*
X117588911Y-80900420D01*
X117594135Y-80903647D01*
X117599879Y-80908191D01*
X117606510Y-80911290D01*
X117666361Y-80939263D01*
X117670312Y-80941194D01*
X117735683Y-80974574D01*
X117742798Y-80976315D01*
X117748544Y-80978452D01*
X117754327Y-80980376D01*
X117760958Y-80983475D01*
X117832836Y-80998425D01*
X117837108Y-80999392D01*
X117908391Y-81016835D01*
X117913990Y-81017182D01*
X117913994Y-81017183D01*
X117919609Y-81017531D01*
X117919607Y-81017570D01*
X117923508Y-81017803D01*
X117927867Y-81018192D01*
X117935035Y-81019683D01*
X117942352Y-81019485D01*
X118012856Y-81017577D01*
X118016265Y-81017531D01*
X119305005Y-81017531D01*
X119373126Y-81037533D01*
X119419619Y-81091189D01*
X119431005Y-81143531D01*
X119431005Y-83915797D01*
X119411003Y-83983918D01*
X119357347Y-84030411D01*
X119287073Y-84040515D01*
X119277733Y-84038810D01*
X119055894Y-83989629D01*
X119049160Y-83988514D01*
X118705176Y-83950537D01*
X118698396Y-83950158D01*
X118352297Y-83949555D01*
X118345524Y-83949910D01*
X118001387Y-83986687D01*
X117994677Y-83987774D01*
X117656544Y-84061499D01*
X117649969Y-84063310D01*
X117321778Y-84173121D01*
X117315456Y-84175624D01*
X117001049Y-84320235D01*
X116995006Y-84323421D01*
X116698063Y-84501138D01*
X116692417Y-84504947D01*
X116416387Y-84713706D01*
X116412801Y-84716737D01*
X116404983Y-84730096D01*
X116405018Y-84730937D01*
X116410071Y-84739062D01*
X120983214Y-89312205D01*
X120996811Y-89319630D01*
X121006422Y-89312930D01*
X121102506Y-89201222D01*
X121106664Y-89195822D01*
X121302684Y-88910613D01*
X121306231Y-88904802D01*
X121470295Y-88600100D01*
X121473202Y-88593922D01*
X121603405Y-88273273D01*
X121605619Y-88266843D01*
X121700430Y-87934005D01*
X121701937Y-87927375D01*
X121760251Y-87586224D01*
X121761031Y-87579484D01*
X121782256Y-87232438D01*
X121782372Y-87228835D01*
X121782440Y-87209681D01*
X121782348Y-87206056D01*
X121763546Y-86858885D01*
X121762811Y-86852119D01*
X121706885Y-86510600D01*
X121705418Y-86503928D01*
X121612939Y-86170459D01*
X121610765Y-86163996D01*
X121482804Y-85842445D01*
X121479944Y-85836256D01*
X121369034Y-85626784D01*
X121354835Y-85557222D01*
X121380499Y-85491026D01*
X121437876Y-85449213D01*
X121480388Y-85441825D01*
X124764503Y-85441825D01*
X124832624Y-85461827D01*
X124879117Y-85515483D01*
X124889221Y-85585757D01*
X124859727Y-85650337D01*
X124809657Y-85685456D01*
X124722425Y-85718941D01*
X124427495Y-85869215D01*
X124149889Y-86049495D01*
X123892648Y-86257805D01*
X123658590Y-86491863D01*
X123450280Y-86749104D01*
X123270000Y-87026710D01*
X123119726Y-87321640D01*
X123118542Y-87324725D01*
X123023519Y-87572270D01*
X123001104Y-87630662D01*
X122915433Y-87950391D01*
X122914917Y-87953652D01*
X122864301Y-88273227D01*
X122863652Y-88277323D01*
X122863374Y-88282629D01*
X122847593Y-88583747D01*
X122846885Y-88590572D01*
X122846859Y-88592729D01*
X122845476Y-88601607D01*
X122846641Y-88610514D01*
X122849598Y-88633128D01*
X122850662Y-88649466D01*
X122850662Y-90208539D01*
X122849162Y-90227923D01*
X122846857Y-90242724D01*
X122846857Y-90242728D01*
X122845476Y-90251597D01*
X122846640Y-90260499D01*
X122846640Y-90260503D01*
X122846653Y-90260599D01*
X122846924Y-90291036D01*
X122839916Y-90353241D01*
X122833637Y-90380751D01*
X122806628Y-90457937D01*
X122794386Y-90483357D01*
X122750875Y-90552604D01*
X122733283Y-90574663D01*
X122675459Y-90632487D01*
X122653400Y-90650079D01*
X122584153Y-90693590D01*
X122558732Y-90705832D01*
X122481545Y-90732841D01*
X122454038Y-90739120D01*
X122433910Y-90741388D01*
X122398406Y-90745388D01*
X122382765Y-90746171D01*
X122373807Y-90746062D01*
X122364933Y-90744680D01*
X122333412Y-90748802D01*
X122317074Y-90749866D01*
X117519000Y-90749866D01*
X117499615Y-90748366D01*
X117484814Y-90746061D01*
X117484811Y-90746061D01*
X117475942Y-90744680D01*
X117458773Y-90746925D01*
X117434833Y-90747758D01*
X117176902Y-90732156D01*
X117161798Y-90730322D01*
X117091024Y-90717352D01*
X116880793Y-90678826D01*
X116866031Y-90675188D01*
X116593264Y-90590191D01*
X116579042Y-90584796D01*
X116318532Y-90467550D01*
X116305063Y-90460481D01*
X116060577Y-90312684D01*
X116048055Y-90304041D01*
X115823165Y-90127850D01*
X115811777Y-90117760D01*
X115609778Y-89915761D01*
X115599688Y-89904373D01*
X115429583Y-89687251D01*
X116405202Y-89687251D01*
X116413339Y-89698257D01*
X116673599Y-89897961D01*
X116679198Y-89901795D01*
X116974922Y-90081598D01*
X116980912Y-90084810D01*
X117294318Y-90231620D01*
X117300622Y-90234167D01*
X117628045Y-90346268D01*
X117634596Y-90348122D01*
X117972200Y-90424204D01*
X117978919Y-90425341D01*
X118322774Y-90464519D01*
X118329564Y-90464922D01*
X118675634Y-90466734D01*
X118682435Y-90466402D01*
X119026681Y-90430828D01*
X119033409Y-90429762D01*
X119371805Y-90357215D01*
X119378354Y-90355436D01*
X119706939Y-90246767D01*
X119713281Y-90244281D01*
X120028184Y-90100772D01*
X120034238Y-90097607D01*
X120331789Y-89920935D01*
X120337470Y-89917132D01*
X120614208Y-89709351D01*
X120619432Y-89704967D01*
X120625899Y-89698915D01*
X120633968Y-89685235D01*
X120633941Y-89684511D01*
X120628797Y-89676208D01*
X118532473Y-87579884D01*
X118518529Y-87572270D01*
X118516696Y-87572401D01*
X118510081Y-87576652D01*
X116412083Y-89674650D01*
X116405202Y-89687251D01*
X115429583Y-89687251D01*
X115423497Y-89679483D01*
X115414854Y-89666961D01*
X115267057Y-89422475D01*
X115259986Y-89409002D01*
X115216422Y-89312205D01*
X115142741Y-89148493D01*
X115137346Y-89134270D01*
X115077765Y-88943068D01*
X115052350Y-88861507D01*
X115048710Y-88846739D01*
X114997216Y-88565740D01*
X114995382Y-88550636D01*
X114980217Y-88299937D01*
X114981474Y-88273227D01*
X114981477Y-88273007D01*
X114982858Y-88264136D01*
X114981219Y-88251596D01*
X114978736Y-88232615D01*
X114977672Y-88216277D01*
X114977672Y-87199869D01*
X115257068Y-87199869D01*
X115274578Y-87545521D01*
X115275288Y-87552277D01*
X115330024Y-87894003D01*
X115331463Y-87900658D01*
X115422783Y-88234466D01*
X115424932Y-88240927D01*
X115551771Y-88562929D01*
X115554602Y-88569112D01*
X115715476Y-88875532D01*
X115718959Y-88881375D01*
X115911982Y-89168623D01*
X115916085Y-89174067D01*
X116031572Y-89311213D01*
X116044311Y-89319656D01*
X116054755Y-89313558D01*
X118147639Y-87220674D01*
X118155253Y-87206730D01*
X118155122Y-87204897D01*
X118150871Y-87198282D01*
X116056118Y-85103529D01*
X116042581Y-85096137D01*
X116032880Y-85102925D01*
X115929881Y-85223521D01*
X115925727Y-85228954D01*
X115730717Y-85514827D01*
X115727182Y-85520664D01*
X115564179Y-85825942D01*
X115561303Y-85832111D01*
X115432219Y-86153217D01*
X115430026Y-86159657D01*
X115336375Y-86492830D01*
X115334892Y-86499465D01*
X115277773Y-86840798D01*
X115277014Y-86847570D01*
X115257092Y-87193074D01*
X115257068Y-87199869D01*
X114977672Y-87199869D01*
X114977672Y-69207816D01*
X115492054Y-69207816D01*
X115493577Y-69216240D01*
X115505957Y-69219633D01*
X116555550Y-69219633D01*
X116570789Y-69215158D01*
X116571994Y-69213768D01*
X116573665Y-69206085D01*
X116573665Y-69201518D01*
X117081665Y-69201518D01*
X117086140Y-69216757D01*
X117087530Y-69217962D01*
X117095213Y-69219633D01*
X118146009Y-69219633D01*
X118159540Y-69215660D01*
X118160845Y-69206580D01*
X118118879Y-69039508D01*
X118115559Y-69029757D01*
X118030637Y-68834447D01*
X118025770Y-68825372D01*
X117910091Y-68646559D01*
X117903801Y-68638390D01*
X117760471Y-68480873D01*
X117752938Y-68473848D01*
X117585804Y-68341855D01*
X117577217Y-68336150D01*
X117539781Y-68315484D01*
X117489811Y-68265052D01*
X117475039Y-68195609D01*
X117500155Y-68129204D01*
X117527507Y-68102597D01*
X117702992Y-67977425D01*
X117710865Y-67970772D01*
X117861717Y-67820445D01*
X117868395Y-67812598D01*
X117992668Y-67639653D01*
X117997978Y-67630816D01*
X118092335Y-67439900D01*
X118096134Y-67430305D01*
X118158042Y-67226543D01*
X118160220Y-67216470D01*
X118161651Y-67205595D01*
X118159440Y-67191411D01*
X118146282Y-67187633D01*
X117099780Y-67187633D01*
X117084541Y-67192108D01*
X117083336Y-67193498D01*
X117081665Y-67201181D01*
X117081665Y-69201518D01*
X116573665Y-69201518D01*
X116573665Y-67205748D01*
X116569190Y-67190509D01*
X116567800Y-67189304D01*
X116560117Y-67187633D01*
X115510890Y-67187633D01*
X115497359Y-67191606D01*
X115495922Y-67201599D01*
X115526230Y-67336079D01*
X115529310Y-67345908D01*
X115609435Y-67543236D01*
X115614078Y-67552427D01*
X115725359Y-67734021D01*
X115731442Y-67742332D01*
X115870878Y-67903300D01*
X115878245Y-67910516D01*
X116042099Y-68046549D01*
X116050546Y-68052464D01*
X116120144Y-68093134D01*
X116168868Y-68144773D01*
X116181939Y-68214556D01*
X116155208Y-68280327D01*
X116114752Y-68313686D01*
X116106127Y-68318175D01*
X116097403Y-68323669D01*
X115927098Y-68451538D01*
X115919391Y-68458381D01*
X115772255Y-68612350D01*
X115765769Y-68620360D01*
X115645763Y-68796282D01*
X115640665Y-68805256D01*
X115551003Y-68998416D01*
X115547440Y-69008103D01*
X115492054Y-69207816D01*
X114977672Y-69207816D01*
X114977672Y-56941496D01*
X115932175Y-56941496D01*
X115941471Y-56953511D01*
X115992676Y-56989365D01*
X116002171Y-56994848D01*
X116199629Y-57086924D01*
X116209921Y-57090670D01*
X116420370Y-57147059D01*
X116431163Y-57148962D01*
X116648207Y-57167951D01*
X116659157Y-57167951D01*
X116876201Y-57148962D01*
X116886994Y-57147059D01*
X117097443Y-57090670D01*
X117107735Y-57086924D01*
X117305193Y-56994848D01*
X117314688Y-56989365D01*
X117366730Y-56952925D01*
X117375106Y-56942446D01*
X117368038Y-56929000D01*
X116666494Y-56227456D01*
X116652550Y-56219842D01*
X116650717Y-56219973D01*
X116644102Y-56224224D01*
X115938605Y-56929721D01*
X115932175Y-56941496D01*
X114977672Y-56941496D01*
X114977672Y-55860909D01*
X115341165Y-55860909D01*
X115360154Y-56077953D01*
X115362057Y-56088746D01*
X115418446Y-56299195D01*
X115422192Y-56309487D01*
X115514268Y-56506945D01*
X115519751Y-56516440D01*
X115556191Y-56568482D01*
X115566670Y-56576858D01*
X115580116Y-56569790D01*
X116281660Y-55868246D01*
X116289274Y-55854302D01*
X116289143Y-55852469D01*
X116284892Y-55845854D01*
X115579395Y-55140357D01*
X115567620Y-55133927D01*
X115555605Y-55143223D01*
X115519751Y-55194428D01*
X115514268Y-55203923D01*
X115422192Y-55401381D01*
X115418446Y-55411673D01*
X115362057Y-55622122D01*
X115360154Y-55632915D01*
X115341165Y-55849959D01*
X115341165Y-55860909D01*
X114977672Y-55860909D01*
X114977672Y-54768422D01*
X115932258Y-54768422D01*
X115939326Y-54781868D01*
X116640870Y-55483412D01*
X116654814Y-55491026D01*
X116656647Y-55490895D01*
X116663262Y-55486644D01*
X117368759Y-54781147D01*
X117375189Y-54769372D01*
X117365893Y-54757357D01*
X117314688Y-54721503D01*
X117305193Y-54716020D01*
X117107735Y-54623944D01*
X117097443Y-54620198D01*
X116886994Y-54563809D01*
X116876201Y-54561906D01*
X116659157Y-54542917D01*
X116648207Y-54542917D01*
X116431163Y-54561906D01*
X116420370Y-54563809D01*
X116209921Y-54620198D01*
X116199629Y-54623944D01*
X116002171Y-54716020D01*
X115992676Y-54721503D01*
X115940634Y-54757943D01*
X115932258Y-54768422D01*
X114977672Y-54768422D01*
X114977672Y-51650839D01*
X116405202Y-51650839D01*
X116413339Y-51661845D01*
X116673599Y-51861549D01*
X116679198Y-51865383D01*
X116974922Y-52045186D01*
X116980912Y-52048398D01*
X117294318Y-52195208D01*
X117300622Y-52197755D01*
X117628045Y-52309856D01*
X117634596Y-52311710D01*
X117972200Y-52387792D01*
X117978919Y-52388929D01*
X118322774Y-52428107D01*
X118329564Y-52428510D01*
X118675634Y-52430322D01*
X118682435Y-52429990D01*
X119026681Y-52394416D01*
X119033409Y-52393350D01*
X119371805Y-52320803D01*
X119378354Y-52319024D01*
X119706939Y-52210355D01*
X119713281Y-52207869D01*
X120028184Y-52064360D01*
X120034238Y-52061195D01*
X120331789Y-51884523D01*
X120337470Y-51880720D01*
X120614208Y-51672939D01*
X120619432Y-51668555D01*
X120625899Y-51662503D01*
X120633968Y-51648823D01*
X120633941Y-51648099D01*
X120628797Y-51639796D01*
X118532473Y-49543472D01*
X118518529Y-49535858D01*
X118516696Y-49535989D01*
X118510081Y-49540240D01*
X116412083Y-51638238D01*
X116405202Y-51650839D01*
X114977672Y-51650839D01*
X114977672Y-49163457D01*
X115257068Y-49163457D01*
X115274578Y-49509109D01*
X115275288Y-49515865D01*
X115330024Y-49857591D01*
X115331463Y-49864246D01*
X115422783Y-50198054D01*
X115424932Y-50204515D01*
X115551771Y-50526517D01*
X115554602Y-50532700D01*
X115715476Y-50839120D01*
X115718959Y-50844963D01*
X115911982Y-51132211D01*
X115916085Y-51137655D01*
X116031572Y-51274801D01*
X116044311Y-51283244D01*
X116054755Y-51277146D01*
X118147639Y-49184262D01*
X118154017Y-49172582D01*
X118884069Y-49172582D01*
X118884200Y-49174415D01*
X118888451Y-49181030D01*
X120983214Y-51275793D01*
X120996811Y-51283218D01*
X121006422Y-51276518D01*
X121102506Y-51164810D01*
X121106664Y-51159410D01*
X121302684Y-50874201D01*
X121306231Y-50868390D01*
X121470295Y-50563688D01*
X121473202Y-50557510D01*
X121603405Y-50236861D01*
X121605619Y-50230431D01*
X121700430Y-49897593D01*
X121701937Y-49890963D01*
X121760251Y-49549812D01*
X121761031Y-49543072D01*
X121782256Y-49196026D01*
X121782372Y-49192423D01*
X121782440Y-49173269D01*
X121782348Y-49169644D01*
X121763546Y-48822473D01*
X121762811Y-48815707D01*
X121724968Y-48584616D01*
X123403062Y-48584616D01*
X123404585Y-48593040D01*
X123416965Y-48596433D01*
X124466558Y-48596433D01*
X124481797Y-48591958D01*
X124483002Y-48590568D01*
X124484673Y-48582885D01*
X124484673Y-47533535D01*
X124480755Y-47520191D01*
X124466479Y-47518204D01*
X124427997Y-47524093D01*
X124417961Y-47526484D01*
X124215541Y-47592645D01*
X124206032Y-47596642D01*
X124017136Y-47694975D01*
X124008411Y-47700469D01*
X123838106Y-47828338D01*
X123830399Y-47835181D01*
X123683263Y-47989150D01*
X123676777Y-47997160D01*
X123556771Y-48173082D01*
X123551673Y-48182056D01*
X123462011Y-48375216D01*
X123458448Y-48384903D01*
X123403062Y-48584616D01*
X121724968Y-48584616D01*
X121706885Y-48474188D01*
X121705418Y-48467516D01*
X121612939Y-48134047D01*
X121610765Y-48127584D01*
X121482804Y-47806033D01*
X121479951Y-47799859D01*
X121318004Y-47493995D01*
X121314510Y-47488178D01*
X121120474Y-47201590D01*
X121116360Y-47196171D01*
X121007751Y-47068103D01*
X120994926Y-47059667D01*
X120984601Y-47065720D01*
X118891683Y-49158638D01*
X118884069Y-49172582D01*
X118154017Y-49172582D01*
X118155253Y-49170318D01*
X118155122Y-49168485D01*
X118150871Y-49161870D01*
X116056118Y-47067117D01*
X116042581Y-47059725D01*
X116032880Y-47066513D01*
X115929881Y-47187109D01*
X115925727Y-47192542D01*
X115730717Y-47478415D01*
X115727182Y-47484252D01*
X115564179Y-47789530D01*
X115561303Y-47795699D01*
X115432219Y-48116805D01*
X115430026Y-48123245D01*
X115336375Y-48456418D01*
X115334892Y-48463053D01*
X115277773Y-48804386D01*
X115277014Y-48811158D01*
X115257092Y-49156662D01*
X115257068Y-49163457D01*
X114977672Y-49163457D01*
X114977672Y-48172674D01*
X114979172Y-48153289D01*
X114981477Y-48138488D01*
X114981477Y-48138485D01*
X114982858Y-48129616D01*
X114980613Y-48112447D01*
X114979780Y-48088507D01*
X114995382Y-47830576D01*
X114997216Y-47815472D01*
X115015622Y-47715031D01*
X115048712Y-47534467D01*
X115052351Y-47519699D01*
X115060365Y-47493984D01*
X115137347Y-47246938D01*
X115142742Y-47232716D01*
X115159190Y-47196171D01*
X115259988Y-46972206D01*
X115267057Y-46958737D01*
X115414854Y-46714251D01*
X115423497Y-46701729D01*
X115429800Y-46693684D01*
X116404983Y-46693684D01*
X116405018Y-46694525D01*
X116410071Y-46702650D01*
X118506849Y-48799428D01*
X118520793Y-48807042D01*
X118522626Y-48806911D01*
X118529241Y-48802660D01*
X120627092Y-46704809D01*
X120633173Y-46693673D01*
X131382982Y-46693673D01*
X131383017Y-46694514D01*
X131388070Y-46702639D01*
X133484848Y-48799417D01*
X133498792Y-48807031D01*
X133500625Y-48806900D01*
X133507240Y-48802649D01*
X135605091Y-46704798D01*
X135612705Y-46690854D01*
X135612637Y-46689899D01*
X135608684Y-46683921D01*
X135334327Y-46474918D01*
X135328701Y-46471094D01*
X135032366Y-46292333D01*
X135026354Y-46289136D01*
X134712434Y-46143419D01*
X134706134Y-46140899D01*
X134378324Y-46029942D01*
X134371746Y-46028106D01*
X134033897Y-45953207D01*
X134027159Y-45952091D01*
X133683175Y-45914114D01*
X133676395Y-45913735D01*
X133330296Y-45913132D01*
X133323523Y-45913487D01*
X132979386Y-45950264D01*
X132972676Y-45951351D01*
X132634543Y-46025076D01*
X132627968Y-46026887D01*
X132299777Y-46136698D01*
X132293455Y-46139201D01*
X131979048Y-46283812D01*
X131973005Y-46286998D01*
X131676062Y-46464715D01*
X131670416Y-46468524D01*
X131394386Y-46677283D01*
X131390800Y-46680314D01*
X131382982Y-46693673D01*
X120633173Y-46693673D01*
X120634706Y-46690865D01*
X120634638Y-46689910D01*
X120630685Y-46683932D01*
X120356328Y-46474929D01*
X120350702Y-46471105D01*
X120054367Y-46292344D01*
X120048355Y-46289147D01*
X119734435Y-46143430D01*
X119728135Y-46140910D01*
X119400325Y-46029953D01*
X119393747Y-46028117D01*
X119055898Y-45953218D01*
X119049160Y-45952102D01*
X118705176Y-45914125D01*
X118698396Y-45913746D01*
X118352297Y-45913143D01*
X118345524Y-45913498D01*
X118001387Y-45950275D01*
X117994677Y-45951362D01*
X117656544Y-46025087D01*
X117649969Y-46026898D01*
X117321778Y-46136709D01*
X117315456Y-46139212D01*
X117001049Y-46283823D01*
X116995006Y-46287009D01*
X116698063Y-46464726D01*
X116692417Y-46468535D01*
X116416387Y-46677294D01*
X116412801Y-46680325D01*
X116404983Y-46693684D01*
X115429800Y-46693684D01*
X115599688Y-46476839D01*
X115609778Y-46465451D01*
X115811777Y-46263452D01*
X115823165Y-46253362D01*
X116048055Y-46077171D01*
X116060577Y-46068528D01*
X116305063Y-45920731D01*
X116318532Y-45913662D01*
X116579045Y-45796415D01*
X116593264Y-45791021D01*
X116866031Y-45706024D01*
X116880793Y-45702386D01*
X117091024Y-45663860D01*
X117161798Y-45650890D01*
X117176902Y-45649056D01*
X117427601Y-45633891D01*
X117454311Y-45635148D01*
X117454531Y-45635151D01*
X117463402Y-45636532D01*
X117472304Y-45635368D01*
X117472307Y-45635368D01*
X117494923Y-45632410D01*
X117511261Y-45631346D01*
X134498342Y-45631346D01*
X134517727Y-45632846D01*
G37*
%TD.AperFunction*%
%TD*%
%TA.AperFunction,Conductor*%
%TO.N,GND*%
G36*
X108867649Y-45630934D02*
G01*
X108882527Y-45633251D01*
X108882531Y-45633251D01*
X108891400Y-45634632D01*
X108908569Y-45632387D01*
X108932509Y-45631554D01*
X109190440Y-45647156D01*
X109205544Y-45648990D01*
X109276318Y-45661960D01*
X109486549Y-45700486D01*
X109501311Y-45704124D01*
X109774078Y-45789121D01*
X109788297Y-45794515D01*
X110048810Y-45911762D01*
X110062279Y-45918831D01*
X110306765Y-46066628D01*
X110319287Y-46075271D01*
X110544177Y-46251462D01*
X110555565Y-46261552D01*
X110757564Y-46463551D01*
X110767654Y-46474939D01*
X110943845Y-46699829D01*
X110952488Y-46712351D01*
X111100285Y-46956837D01*
X111107354Y-46970306D01*
X111224600Y-47230816D01*
X111229995Y-47245038D01*
X111305760Y-47488175D01*
X111314991Y-47517799D01*
X111318630Y-47532567D01*
X111357156Y-47742798D01*
X111370126Y-47813572D01*
X111371960Y-47828676D01*
X111387125Y-48079375D01*
X111385868Y-48106085D01*
X111385865Y-48106305D01*
X111384484Y-48115176D01*
X111385648Y-48124078D01*
X111385648Y-48124081D01*
X111388606Y-48146697D01*
X111389670Y-48163035D01*
X111389670Y-88208538D01*
X111388170Y-88227923D01*
X111386145Y-88240931D01*
X111384484Y-88251596D01*
X111386684Y-88268420D01*
X111386729Y-88268763D01*
X111387562Y-88292705D01*
X111371960Y-88550636D01*
X111370126Y-88565740D01*
X111318632Y-88846739D01*
X111314992Y-88861507D01*
X111231922Y-89128088D01*
X111229996Y-89134270D01*
X111224601Y-89148493D01*
X111135222Y-89347087D01*
X111107356Y-89409002D01*
X111100285Y-89422475D01*
X110952488Y-89666961D01*
X110943845Y-89679483D01*
X110767654Y-89904373D01*
X110757564Y-89915761D01*
X110555565Y-90117760D01*
X110544177Y-90127850D01*
X110319287Y-90304041D01*
X110306765Y-90312684D01*
X110062279Y-90460481D01*
X110048810Y-90467550D01*
X109788300Y-90584796D01*
X109774078Y-90590191D01*
X109501311Y-90675188D01*
X109486549Y-90678826D01*
X109276318Y-90717352D01*
X109205544Y-90730322D01*
X109190440Y-90732156D01*
X108939741Y-90747321D01*
X108913031Y-90746064D01*
X108912811Y-90746061D01*
X108903940Y-90744680D01*
X108895038Y-90745844D01*
X108895035Y-90745844D01*
X108872419Y-90748802D01*
X108856081Y-90749866D01*
X91869000Y-90749866D01*
X91849615Y-90748366D01*
X91834814Y-90746061D01*
X91834811Y-90746061D01*
X91825942Y-90744680D01*
X91808773Y-90746925D01*
X91784833Y-90747758D01*
X91526902Y-90732156D01*
X91511798Y-90730322D01*
X91441024Y-90717352D01*
X91230793Y-90678826D01*
X91216031Y-90675188D01*
X90943264Y-90590191D01*
X90929042Y-90584796D01*
X90668532Y-90467550D01*
X90655063Y-90460481D01*
X90410577Y-90312684D01*
X90398055Y-90304041D01*
X90173165Y-90127850D01*
X90161777Y-90117760D01*
X89959778Y-89915761D01*
X89949688Y-89904373D01*
X89779586Y-89687255D01*
X90755214Y-89687255D01*
X90763350Y-89698260D01*
X91023611Y-89897964D01*
X91029210Y-89901798D01*
X91324934Y-90081601D01*
X91330924Y-90084813D01*
X91644330Y-90231623D01*
X91650634Y-90234170D01*
X91978056Y-90346271D01*
X91984607Y-90348125D01*
X92322212Y-90424207D01*
X92328931Y-90425344D01*
X92672785Y-90464522D01*
X92679575Y-90464925D01*
X93025645Y-90466737D01*
X93032446Y-90466405D01*
X93376692Y-90430831D01*
X93383420Y-90429765D01*
X93721816Y-90357218D01*
X93728365Y-90355439D01*
X94056950Y-90246770D01*
X94063292Y-90244284D01*
X94378195Y-90100775D01*
X94384249Y-90097610D01*
X94681799Y-89920938D01*
X94687480Y-89917135D01*
X94964218Y-89709355D01*
X94969442Y-89704971D01*
X94975909Y-89698919D01*
X94983978Y-89685239D01*
X94983951Y-89684515D01*
X94978807Y-89676212D01*
X92882482Y-87579886D01*
X92868541Y-87572274D01*
X92866706Y-87572405D01*
X92860092Y-87576656D01*
X90762095Y-89674654D01*
X90755214Y-89687255D01*
X89779586Y-89687255D01*
X89773497Y-89679483D01*
X89764854Y-89666961D01*
X89617057Y-89422475D01*
X89609986Y-89409002D01*
X89582121Y-89347087D01*
X89492741Y-89148493D01*
X89487346Y-89134270D01*
X89485420Y-89128088D01*
X89402350Y-88861507D01*
X89398710Y-88846739D01*
X89347216Y-88565740D01*
X89345382Y-88550636D01*
X89330217Y-88299937D01*
X89331474Y-88273227D01*
X89331477Y-88273007D01*
X89332858Y-88264136D01*
X89331219Y-88251596D01*
X89328736Y-88232615D01*
X89327672Y-88216277D01*
X89327672Y-87199873D01*
X89607080Y-87199873D01*
X89624590Y-87545525D01*
X89625300Y-87552281D01*
X89680036Y-87894007D01*
X89681475Y-87900662D01*
X89772795Y-88234470D01*
X89774944Y-88240931D01*
X89901783Y-88562932D01*
X89904614Y-88569115D01*
X90065484Y-88875529D01*
X90068978Y-88881390D01*
X90261990Y-89168620D01*
X90266100Y-89174074D01*
X90381583Y-89311215D01*
X90394322Y-89319659D01*
X90404765Y-89313562D01*
X92497652Y-87220676D01*
X92504029Y-87208997D01*
X93234080Y-87208997D01*
X93234211Y-87210831D01*
X93238462Y-87217446D01*
X95333225Y-89312208D01*
X95346821Y-89319633D01*
X95356434Y-89312932D01*
X95452516Y-89201226D01*
X95456674Y-89195826D01*
X95652694Y-88910617D01*
X95656241Y-88904806D01*
X95782177Y-88670915D01*
X97675768Y-88670915D01*
X97676065Y-88676068D01*
X97676065Y-88676071D01*
X97687903Y-88881390D01*
X97689100Y-88902143D01*
X97690237Y-88907189D01*
X97690238Y-88907195D01*
X97722414Y-89049969D01*
X97740019Y-89128088D01*
X97741961Y-89132870D01*
X97741962Y-89132874D01*
X97814379Y-89311215D01*
X97827157Y-89342683D01*
X97948174Y-89540165D01*
X98099820Y-89715230D01*
X98278022Y-89863176D01*
X98477995Y-89980030D01*
X98694367Y-90062655D01*
X98699433Y-90063686D01*
X98699434Y-90063686D01*
X98752519Y-90074486D01*
X98921329Y-90108831D01*
X99050762Y-90113577D01*
X99147622Y-90117129D01*
X99147626Y-90117129D01*
X99152786Y-90117318D01*
X99157906Y-90116662D01*
X99157908Y-90116662D01*
X99231839Y-90107191D01*
X99382520Y-90087888D01*
X99387468Y-90086403D01*
X99387475Y-90086402D01*
X99599420Y-90022815D01*
X99604363Y-90021332D01*
X99684909Y-89981873D01*
X99807722Y-89921708D01*
X99807725Y-89921706D01*
X99812357Y-89919437D01*
X100000916Y-89784940D01*
X100045982Y-89740031D01*
X100108354Y-89706115D01*
X100179160Y-89711303D01*
X100235922Y-89753949D01*
X100252904Y-89785053D01*
X100278058Y-89852151D01*
X100365412Y-89968707D01*
X100481968Y-90056061D01*
X100618357Y-90107191D01*
X100680539Y-90113946D01*
X102576807Y-90113946D01*
X102638989Y-90107191D01*
X102775378Y-90056061D01*
X102891934Y-89968707D01*
X102979288Y-89852151D01*
X103030418Y-89715762D01*
X103033515Y-89687255D01*
X105733212Y-89687255D01*
X105741348Y-89698260D01*
X106001609Y-89897964D01*
X106007208Y-89901798D01*
X106302932Y-90081601D01*
X106308922Y-90084813D01*
X106622328Y-90231623D01*
X106628632Y-90234170D01*
X106956054Y-90346271D01*
X106962605Y-90348125D01*
X107300210Y-90424207D01*
X107306929Y-90425344D01*
X107650783Y-90464522D01*
X107657573Y-90464925D01*
X108003643Y-90466737D01*
X108010444Y-90466405D01*
X108354690Y-90430831D01*
X108361418Y-90429765D01*
X108699814Y-90357218D01*
X108706363Y-90355439D01*
X109034948Y-90246770D01*
X109041290Y-90244284D01*
X109356193Y-90100775D01*
X109362247Y-90097610D01*
X109659797Y-89920938D01*
X109665478Y-89917135D01*
X109942216Y-89709355D01*
X109947440Y-89704971D01*
X109953907Y-89698919D01*
X109961976Y-89685239D01*
X109961949Y-89684515D01*
X109956805Y-89676212D01*
X107860480Y-87579886D01*
X107846539Y-87572274D01*
X107844704Y-87572405D01*
X107838090Y-87576656D01*
X105740093Y-89674654D01*
X105733212Y-89687255D01*
X103033515Y-89687255D01*
X103037173Y-89653580D01*
X103037173Y-87757312D01*
X103030418Y-87695130D01*
X102979288Y-87558741D01*
X102891934Y-87442185D01*
X102775378Y-87354831D01*
X102638989Y-87303701D01*
X102576807Y-87296946D01*
X100680539Y-87296946D01*
X100618357Y-87303701D01*
X100481968Y-87354831D01*
X100365412Y-87442185D01*
X100278058Y-87558741D01*
X100274906Y-87567149D01*
X100274905Y-87567151D01*
X100254211Y-87622352D01*
X100211570Y-87679117D01*
X100145008Y-87703817D01*
X100075659Y-87688610D01*
X100052840Y-87672112D01*
X100052560Y-87671804D01*
X99944202Y-87586228D01*
X99874850Y-87531457D01*
X99874845Y-87531454D01*
X99870796Y-87528256D01*
X99866280Y-87525763D01*
X99866277Y-87525761D01*
X99672552Y-87418819D01*
X99672548Y-87418817D01*
X99668028Y-87416322D01*
X99663159Y-87414598D01*
X99663155Y-87414596D01*
X99454576Y-87340734D01*
X99454572Y-87340733D01*
X99449701Y-87339008D01*
X99444608Y-87338101D01*
X99444605Y-87338100D01*
X99226768Y-87299297D01*
X99226762Y-87299296D01*
X99221679Y-87298391D01*
X99148769Y-87297500D01*
X98995254Y-87295625D01*
X98995252Y-87295625D01*
X98990084Y-87295562D01*
X98761137Y-87330596D01*
X98540987Y-87402552D01*
X98536399Y-87404940D01*
X98536395Y-87404942D01*
X98340134Y-87507109D01*
X98335545Y-87509498D01*
X98331412Y-87512601D01*
X98331409Y-87512603D01*
X98154463Y-87645458D01*
X98150328Y-87648563D01*
X97990312Y-87816010D01*
X97859792Y-88007345D01*
X97762275Y-88217427D01*
X97700380Y-88440615D01*
X97675768Y-88670915D01*
X95782177Y-88670915D01*
X95820305Y-88600104D01*
X95823212Y-88593926D01*
X95953415Y-88273277D01*
X95955629Y-88266847D01*
X96050440Y-87934009D01*
X96051947Y-87927379D01*
X96110261Y-87586228D01*
X96111041Y-87579488D01*
X96132266Y-87232442D01*
X96132382Y-87228839D01*
X96132450Y-87209685D01*
X96132358Y-87206060D01*
X96132023Y-87199873D01*
X104585078Y-87199873D01*
X104602588Y-87545525D01*
X104603298Y-87552281D01*
X104658034Y-87894007D01*
X104659473Y-87900662D01*
X104750793Y-88234470D01*
X104752942Y-88240931D01*
X104879781Y-88562932D01*
X104882612Y-88569115D01*
X105043482Y-88875529D01*
X105046976Y-88881390D01*
X105239988Y-89168620D01*
X105244098Y-89174074D01*
X105359581Y-89311215D01*
X105372320Y-89319659D01*
X105382763Y-89313562D01*
X107475650Y-87220676D01*
X107482027Y-87208997D01*
X108212078Y-87208997D01*
X108212209Y-87210831D01*
X108216460Y-87217446D01*
X110311223Y-89312208D01*
X110324819Y-89319633D01*
X110334432Y-89312932D01*
X110430514Y-89201226D01*
X110434672Y-89195826D01*
X110630692Y-88910617D01*
X110634239Y-88904806D01*
X110798303Y-88600104D01*
X110801210Y-88593926D01*
X110931413Y-88273277D01*
X110933627Y-88266847D01*
X111028438Y-87934009D01*
X111029945Y-87927379D01*
X111088259Y-87586228D01*
X111089039Y-87579488D01*
X111110264Y-87232442D01*
X111110380Y-87228839D01*
X111110448Y-87209685D01*
X111110356Y-87206060D01*
X111091554Y-86858889D01*
X111090819Y-86852123D01*
X111034893Y-86510604D01*
X111033426Y-86503932D01*
X110940947Y-86170464D01*
X110938773Y-86164001D01*
X110810811Y-85842448D01*
X110807955Y-85836268D01*
X110646017Y-85530420D01*
X110642517Y-85524595D01*
X110448481Y-85238005D01*
X110444374Y-85232595D01*
X110335759Y-85104521D01*
X110322934Y-85096085D01*
X110312610Y-85102137D01*
X108219690Y-87195056D01*
X108212078Y-87208997D01*
X107482027Y-87208997D01*
X107483262Y-87206735D01*
X107483131Y-87204900D01*
X107478880Y-87198286D01*
X105384128Y-85103535D01*
X105370591Y-85096143D01*
X105360889Y-85102931D01*
X105257878Y-85223542D01*
X105253745Y-85228947D01*
X105058721Y-85514842D01*
X105055200Y-85520655D01*
X104892192Y-85825940D01*
X104889306Y-85832130D01*
X104760228Y-86153223D01*
X104758037Y-86159658D01*
X104664385Y-86492834D01*
X104662902Y-86499469D01*
X104605783Y-86840802D01*
X104605024Y-86847574D01*
X104585102Y-87193078D01*
X104585078Y-87199873D01*
X96132023Y-87199873D01*
X96113556Y-86858889D01*
X96112821Y-86852123D01*
X96056895Y-86510604D01*
X96055428Y-86503932D01*
X95962949Y-86170464D01*
X95960775Y-86164001D01*
X95832813Y-85842448D01*
X95829957Y-85836268D01*
X95668019Y-85530420D01*
X95664519Y-85524595D01*
X95470483Y-85238005D01*
X95466376Y-85232595D01*
X95357761Y-85104521D01*
X95344936Y-85096085D01*
X95334612Y-85102137D01*
X93241692Y-87195056D01*
X93234080Y-87208997D01*
X92504029Y-87208997D01*
X92505264Y-87206735D01*
X92505133Y-87204900D01*
X92500882Y-87198286D01*
X90406130Y-85103535D01*
X90392593Y-85096143D01*
X90382891Y-85102931D01*
X90279880Y-85223542D01*
X90275747Y-85228947D01*
X90080723Y-85514842D01*
X90077202Y-85520655D01*
X89914194Y-85825940D01*
X89911308Y-85832130D01*
X89782230Y-86153223D01*
X89780039Y-86159658D01*
X89686387Y-86492834D01*
X89684904Y-86499469D01*
X89627785Y-86840802D01*
X89627026Y-86847574D01*
X89607104Y-87193078D01*
X89607080Y-87199873D01*
X89327672Y-87199873D01*
X89327672Y-84730101D01*
X90754995Y-84730101D01*
X90755029Y-84730940D01*
X90760084Y-84739067D01*
X92856862Y-86835846D01*
X92870803Y-86843458D01*
X92872638Y-86843327D01*
X92879252Y-86839076D01*
X94977102Y-84741225D01*
X94984716Y-84727281D01*
X94984648Y-84726327D01*
X94980694Y-84720348D01*
X94890058Y-84651302D01*
X100515805Y-84651302D01*
X100529130Y-84854594D01*
X100579278Y-85052053D01*
X100664571Y-85237067D01*
X100782152Y-85403440D01*
X100928083Y-85545600D01*
X100932879Y-85548805D01*
X100932882Y-85548807D01*
X101000822Y-85594203D01*
X101097476Y-85658785D01*
X101102779Y-85661063D01*
X101102782Y-85661065D01*
X101191788Y-85699305D01*
X101284660Y-85739206D01*
X101357490Y-85755686D01*
X101477728Y-85782893D01*
X101477733Y-85782894D01*
X101483365Y-85784168D01*
X101489136Y-85784395D01*
X101489138Y-85784395D01*
X101552143Y-85786870D01*
X101686936Y-85792166D01*
X101888556Y-85762933D01*
X101894020Y-85761078D01*
X101894025Y-85761077D01*
X102076000Y-85699305D01*
X102076005Y-85699303D01*
X102081472Y-85697447D01*
X102259224Y-85597901D01*
X102415859Y-85467629D01*
X102546131Y-85310994D01*
X102645677Y-85133242D01*
X102647533Y-85127775D01*
X102647535Y-85127770D01*
X102709307Y-84945795D01*
X102709308Y-84945790D01*
X102711163Y-84940326D01*
X102740396Y-84738706D01*
X102740621Y-84730101D01*
X105732993Y-84730101D01*
X105733027Y-84730940D01*
X105738082Y-84739067D01*
X107834860Y-86835846D01*
X107848801Y-86843458D01*
X107850636Y-86843327D01*
X107857250Y-86839076D01*
X109955100Y-84741225D01*
X109962714Y-84727281D01*
X109962646Y-84726327D01*
X109958692Y-84720348D01*
X109684334Y-84511343D01*
X109678710Y-84507521D01*
X109382369Y-84328757D01*
X109376362Y-84325564D01*
X109062459Y-84179854D01*
X109056136Y-84177325D01*
X108728324Y-84066367D01*
X108721766Y-84064537D01*
X108383902Y-83989633D01*
X108377173Y-83988519D01*
X108033185Y-83950542D01*
X108026405Y-83950163D01*
X107680306Y-83949560D01*
X107673533Y-83949915D01*
X107329396Y-83986692D01*
X107322686Y-83987779D01*
X106984554Y-84061504D01*
X106977979Y-84063315D01*
X106649787Y-84173126D01*
X106643465Y-84175629D01*
X106329058Y-84320240D01*
X106323015Y-84323426D01*
X106026076Y-84501140D01*
X106020416Y-84504958D01*
X105744403Y-84713707D01*
X105740811Y-84716741D01*
X105732993Y-84730101D01*
X102740621Y-84730101D01*
X102741922Y-84680443D01*
X102723281Y-84477569D01*
X102681311Y-84328757D01*
X102669548Y-84287049D01*
X102669547Y-84287047D01*
X102667980Y-84281490D01*
X102657353Y-84259939D01*
X102580429Y-84103953D01*
X102577874Y-84098772D01*
X102559469Y-84074124D01*
X102459431Y-83940158D01*
X102459431Y-83940157D01*
X102455978Y-83935534D01*
X102431644Y-83913040D01*
X102395199Y-83852112D01*
X102391173Y-83820515D01*
X102391173Y-82848471D01*
X102411175Y-82780350D01*
X102428078Y-82759376D01*
X102582615Y-82604839D01*
X102644927Y-82570813D01*
X102671710Y-82567934D01*
X104374622Y-82567934D01*
X104442743Y-82587936D01*
X104477833Y-82621661D01*
X104497487Y-82649730D01*
X104659385Y-82811628D01*
X104663893Y-82814785D01*
X104663896Y-82814787D01*
X104712002Y-82848471D01*
X104846936Y-82942953D01*
X104851918Y-82945276D01*
X104851923Y-82945279D01*
X105048450Y-83036920D01*
X105054442Y-83039714D01*
X105059750Y-83041136D01*
X105059752Y-83041137D01*
X105270283Y-83097549D01*
X105270285Y-83097549D01*
X105275598Y-83098973D01*
X105503685Y-83118928D01*
X105731772Y-83098973D01*
X105737085Y-83097549D01*
X105737087Y-83097549D01*
X105947618Y-83041137D01*
X105947620Y-83041136D01*
X105952928Y-83039714D01*
X105958920Y-83036920D01*
X106155447Y-82945279D01*
X106155452Y-82945276D01*
X106160434Y-82942953D01*
X106295368Y-82848471D01*
X106343474Y-82814787D01*
X106343477Y-82814785D01*
X106347985Y-82811628D01*
X106509883Y-82649730D01*
X106641208Y-82462179D01*
X106643531Y-82457197D01*
X106643534Y-82457192D01*
X106735646Y-82259655D01*
X106735646Y-82259654D01*
X106737969Y-82254673D01*
X106745673Y-82225924D01*
X106795804Y-82038832D01*
X106795804Y-82038830D01*
X106797228Y-82033517D01*
X106817183Y-81805430D01*
X106797228Y-81577343D01*
X106786929Y-81538908D01*
X106739392Y-81361497D01*
X106739391Y-81361495D01*
X106737969Y-81356187D01*
X106700327Y-81275462D01*
X106643534Y-81153668D01*
X106643531Y-81153663D01*
X106641208Y-81148681D01*
X106509883Y-80961130D01*
X106347985Y-80799232D01*
X106343477Y-80796075D01*
X106343474Y-80796073D01*
X106265296Y-80741332D01*
X106160434Y-80667907D01*
X106155452Y-80665584D01*
X106155447Y-80665581D01*
X105957910Y-80573469D01*
X105957909Y-80573469D01*
X105952928Y-80571146D01*
X105947620Y-80569724D01*
X105947618Y-80569723D01*
X105737087Y-80513311D01*
X105737085Y-80513311D01*
X105731772Y-80511887D01*
X105503685Y-80491932D01*
X105275598Y-80511887D01*
X105270285Y-80513311D01*
X105270283Y-80513311D01*
X105059752Y-80569723D01*
X105059750Y-80569724D01*
X105054442Y-80571146D01*
X105049461Y-80573469D01*
X105049460Y-80573469D01*
X104851923Y-80665581D01*
X104851918Y-80665584D01*
X104846936Y-80667907D01*
X104742074Y-80741332D01*
X104663896Y-80796073D01*
X104663893Y-80796075D01*
X104659385Y-80799232D01*
X104497487Y-80961130D01*
X104477828Y-80989205D01*
X104422373Y-81033533D01*
X104374616Y-81042934D01*
X102371058Y-81042934D01*
X102352108Y-81041501D01*
X102337709Y-81039310D01*
X102337703Y-81039310D01*
X102330474Y-81038210D01*
X102323182Y-81038803D01*
X102323179Y-81038803D01*
X102277499Y-81042519D01*
X102267284Y-81042934D01*
X102259157Y-81042934D01*
X102255521Y-81043358D01*
X102255519Y-81043358D01*
X102252067Y-81043761D01*
X102230758Y-81046245D01*
X102226438Y-81046672D01*
X102153256Y-81052625D01*
X102146294Y-81054881D01*
X102140306Y-81056077D01*
X102134349Y-81057485D01*
X102127075Y-81058333D01*
X102120193Y-81060831D01*
X102120189Y-81060832D01*
X102058075Y-81083379D01*
X102053971Y-81084789D01*
X101984107Y-81107421D01*
X101977844Y-81111221D01*
X101972302Y-81113759D01*
X101966826Y-81116501D01*
X101959941Y-81119000D01*
X101953817Y-81123015D01*
X101898550Y-81159249D01*
X101894882Y-81161564D01*
X101832101Y-81199661D01*
X101827896Y-81203375D01*
X101827893Y-81203377D01*
X101823677Y-81207101D01*
X101823651Y-81207072D01*
X101820720Y-81209672D01*
X101817366Y-81212476D01*
X101811247Y-81216488D01*
X101806215Y-81221800D01*
X101757694Y-81273020D01*
X101755316Y-81275462D01*
X101137145Y-81893633D01*
X101122732Y-81906020D01*
X101105109Y-81918989D01*
X101100365Y-81924572D01*
X101100366Y-81924572D01*
X101070694Y-81959498D01*
X101063764Y-81967014D01*
X101058020Y-81972758D01*
X101055746Y-81975632D01*
X101055740Y-81975639D01*
X101040301Y-81995154D01*
X101037510Y-81998558D01*
X100994728Y-82048915D01*
X100994725Y-82048919D01*
X100989989Y-82054494D01*
X100986661Y-82061011D01*
X100983284Y-82066075D01*
X100980057Y-82071299D01*
X100975513Y-82077043D01*
X100972414Y-82083674D01*
X100944441Y-82143525D01*
X100942510Y-82147476D01*
X100909130Y-82212847D01*
X100907389Y-82219962D01*
X100905252Y-82225708D01*
X100903328Y-82231491D01*
X100900229Y-82238122D01*
X100896787Y-82254673D01*
X100885281Y-82309990D01*
X100884312Y-82314272D01*
X100866869Y-82385555D01*
X100866173Y-82396773D01*
X100866134Y-82396771D01*
X100865901Y-82400672D01*
X100865512Y-82405031D01*
X100864021Y-82412199D01*
X100864219Y-82419516D01*
X100866127Y-82490020D01*
X100866173Y-82493429D01*
X100866173Y-83817560D01*
X100846171Y-83885681D01*
X100828966Y-83905657D01*
X100829469Y-83906135D01*
X100825488Y-83910329D01*
X100821151Y-83914133D01*
X100817584Y-83918658D01*
X100817579Y-83918663D01*
X100761631Y-83989633D01*
X100695024Y-84074124D01*
X100600165Y-84254421D01*
X100539751Y-84448986D01*
X100515805Y-84651302D01*
X94890058Y-84651302D01*
X94706336Y-84511343D01*
X94700712Y-84507521D01*
X94404371Y-84328757D01*
X94398364Y-84325564D01*
X94084461Y-84179854D01*
X94078138Y-84177325D01*
X93750326Y-84066367D01*
X93743768Y-84064537D01*
X93405904Y-83989633D01*
X93399175Y-83988519D01*
X93055187Y-83950542D01*
X93048407Y-83950163D01*
X92702308Y-83949560D01*
X92695535Y-83949915D01*
X92351398Y-83986692D01*
X92344688Y-83987779D01*
X92006556Y-84061504D01*
X91999981Y-84063315D01*
X91671789Y-84173126D01*
X91665467Y-84175629D01*
X91351060Y-84320240D01*
X91345017Y-84323426D01*
X91048078Y-84501140D01*
X91042418Y-84504958D01*
X90766405Y-84713707D01*
X90762813Y-84716741D01*
X90754995Y-84730101D01*
X89327672Y-84730101D01*
X89327672Y-82071952D01*
X94060958Y-82071952D01*
X94108449Y-82249191D01*
X94112195Y-82259483D01*
X94204271Y-82456941D01*
X94209754Y-82466437D01*
X94334713Y-82644897D01*
X94341769Y-82653305D01*
X94495810Y-82807346D01*
X94504218Y-82814402D01*
X94682678Y-82939361D01*
X94692174Y-82944844D01*
X94889632Y-83036920D01*
X94899924Y-83040666D01*
X95072188Y-83086824D01*
X95086284Y-83086488D01*
X95089685Y-83078546D01*
X95089685Y-83073397D01*
X95597685Y-83073397D01*
X95601658Y-83086928D01*
X95610207Y-83088157D01*
X95787446Y-83040666D01*
X95797738Y-83036920D01*
X95995196Y-82944844D01*
X96004692Y-82939361D01*
X96183152Y-82814402D01*
X96191560Y-82807346D01*
X96345601Y-82653305D01*
X96352657Y-82644897D01*
X96477616Y-82466437D01*
X96483099Y-82456941D01*
X96575175Y-82259483D01*
X96578921Y-82249191D01*
X96625079Y-82076927D01*
X96624743Y-82062831D01*
X96616801Y-82059430D01*
X95615800Y-82059430D01*
X95600561Y-82063905D01*
X95599356Y-82065295D01*
X95597685Y-82072978D01*
X95597685Y-83073397D01*
X95089685Y-83073397D01*
X95089685Y-82077545D01*
X95085210Y-82062306D01*
X95083820Y-82061101D01*
X95076137Y-82059430D01*
X94075718Y-82059430D01*
X94062187Y-82063403D01*
X94060958Y-82071952D01*
X89327672Y-82071952D01*
X89327672Y-81533933D01*
X94062291Y-81533933D01*
X94062627Y-81548029D01*
X94070569Y-81551430D01*
X95071570Y-81551430D01*
X95086809Y-81546955D01*
X95088014Y-81545565D01*
X95089685Y-81537882D01*
X95089685Y-81533315D01*
X95597685Y-81533315D01*
X95602160Y-81548554D01*
X95603550Y-81549759D01*
X95611233Y-81551430D01*
X96611652Y-81551430D01*
X96625183Y-81547457D01*
X96626412Y-81538908D01*
X96578921Y-81361669D01*
X96575175Y-81351377D01*
X96483099Y-81153919D01*
X96477616Y-81144423D01*
X96352657Y-80965963D01*
X96345601Y-80957555D01*
X96191560Y-80803514D01*
X96183152Y-80796458D01*
X96004692Y-80671499D01*
X95995196Y-80666016D01*
X95797738Y-80573940D01*
X95787446Y-80570194D01*
X95615182Y-80524036D01*
X95601086Y-80524372D01*
X95597685Y-80532314D01*
X95597685Y-81533315D01*
X95089685Y-81533315D01*
X95089685Y-80537463D01*
X95085712Y-80523932D01*
X95077163Y-80522703D01*
X94899924Y-80570194D01*
X94889632Y-80573940D01*
X94692174Y-80666016D01*
X94682678Y-80671499D01*
X94504218Y-80796458D01*
X94495810Y-80803514D01*
X94341769Y-80957555D01*
X94334713Y-80965963D01*
X94209754Y-81144423D01*
X94204271Y-81153919D01*
X94112195Y-81351377D01*
X94108449Y-81361669D01*
X94062291Y-81533933D01*
X89327672Y-81533933D01*
X89327672Y-78776295D01*
X95290814Y-78776295D01*
X95304139Y-78979587D01*
X95354287Y-79177046D01*
X95439580Y-79362060D01*
X95557161Y-79528433D01*
X95703092Y-79670593D01*
X95707888Y-79673798D01*
X95707891Y-79673800D01*
X95775831Y-79719196D01*
X95872485Y-79783778D01*
X95877788Y-79786056D01*
X95877791Y-79786058D01*
X95966797Y-79824298D01*
X96059669Y-79864199D01*
X96132499Y-79880679D01*
X96252737Y-79907886D01*
X96252742Y-79907887D01*
X96258374Y-79909161D01*
X96264145Y-79909388D01*
X96264147Y-79909388D01*
X96327152Y-79911863D01*
X96461945Y-79917159D01*
X96663565Y-79887926D01*
X96669029Y-79886071D01*
X96669034Y-79886070D01*
X96851009Y-79824298D01*
X96851014Y-79824296D01*
X96856481Y-79822440D01*
X97034233Y-79722894D01*
X97190868Y-79592622D01*
X97321140Y-79435987D01*
X97420686Y-79258235D01*
X97422542Y-79252768D01*
X97422544Y-79252763D01*
X97484316Y-79070788D01*
X97484317Y-79070783D01*
X97486172Y-79065319D01*
X97515405Y-78863699D01*
X97516931Y-78805436D01*
X97498290Y-78602562D01*
X97448357Y-78425516D01*
X97444557Y-78412042D01*
X97444556Y-78412040D01*
X97442989Y-78406483D01*
X97440196Y-78400818D01*
X97355438Y-78228946D01*
X97352883Y-78223765D01*
X97334478Y-78199117D01*
X97234440Y-78065151D01*
X97234440Y-78065150D01*
X97230987Y-78060527D01*
X97206653Y-78038033D01*
X97170208Y-77977105D01*
X97166182Y-77945508D01*
X97166182Y-77060328D01*
X98995924Y-77060328D01*
X98996221Y-77065481D01*
X98996221Y-77065484D01*
X99001684Y-77160223D01*
X99008783Y-77283348D01*
X99009920Y-77288394D01*
X99009921Y-77288400D01*
X99024122Y-77351411D01*
X99057895Y-77501272D01*
X99141939Y-77708249D01*
X99258660Y-77898721D01*
X99404923Y-78067571D01*
X99576799Y-78210265D01*
X99769673Y-78322971D01*
X99978365Y-78402663D01*
X99983433Y-78403694D01*
X99983436Y-78403695D01*
X100078535Y-78423043D01*
X100197270Y-78447200D01*
X100202445Y-78447390D01*
X100202447Y-78447390D01*
X100415346Y-78455197D01*
X100415350Y-78455197D01*
X100420510Y-78455386D01*
X100425630Y-78454730D01*
X100425632Y-78454730D01*
X100636961Y-78427658D01*
X100636962Y-78427658D01*
X100642089Y-78427001D01*
X100647039Y-78425516D01*
X100851102Y-78364294D01*
X100851107Y-78364292D01*
X100856057Y-78362807D01*
X101056667Y-78264529D01*
X101238533Y-78134806D01*
X101396769Y-77977122D01*
X101456267Y-77894322D01*
X101524108Y-77799910D01*
X101527126Y-77795710D01*
X101626103Y-77595444D01*
X101691043Y-77381702D01*
X101693690Y-77361599D01*
X108207938Y-77361599D01*
X108238246Y-77496079D01*
X108241326Y-77505908D01*
X108321451Y-77703236D01*
X108326094Y-77712427D01*
X108437375Y-77894021D01*
X108443458Y-77902332D01*
X108582894Y-78063300D01*
X108590261Y-78070516D01*
X108754115Y-78206549D01*
X108762562Y-78212464D01*
X108946437Y-78319912D01*
X108955723Y-78324362D01*
X109154682Y-78400336D01*
X109164580Y-78403212D01*
X109267931Y-78424239D01*
X109281980Y-78423043D01*
X109285681Y-78412698D01*
X109285681Y-78412150D01*
X109793681Y-78412150D01*
X109797745Y-78425992D01*
X109811159Y-78428026D01*
X109817865Y-78427167D01*
X109827943Y-78425025D01*
X110031936Y-78363824D01*
X110041523Y-78360066D01*
X110232776Y-78266372D01*
X110241626Y-78261097D01*
X110415009Y-78137425D01*
X110422881Y-78130772D01*
X110573733Y-77980445D01*
X110580411Y-77972598D01*
X110704684Y-77799653D01*
X110709994Y-77790816D01*
X110804351Y-77599900D01*
X110808150Y-77590305D01*
X110870058Y-77386543D01*
X110872236Y-77376470D01*
X110873667Y-77365595D01*
X110871456Y-77351411D01*
X110858298Y-77347633D01*
X109811796Y-77347633D01*
X109796557Y-77352108D01*
X109795352Y-77353498D01*
X109793681Y-77361181D01*
X109793681Y-78412150D01*
X109285681Y-78412150D01*
X109285681Y-77365748D01*
X109281206Y-77350509D01*
X109279816Y-77349304D01*
X109272133Y-77347633D01*
X108222906Y-77347633D01*
X108209375Y-77351606D01*
X108207938Y-77361599D01*
X101693690Y-77361599D01*
X101720202Y-77160223D01*
X101721829Y-77093633D01*
X101703525Y-76870994D01*
X101649104Y-76654335D01*
X101560027Y-76449473D01*
X101438687Y-76261910D01*
X101288343Y-76096684D01*
X101284292Y-76093485D01*
X101284288Y-76093481D01*
X101117087Y-75961433D01*
X101117083Y-75961431D01*
X101113032Y-75958231D01*
X101071726Y-75935429D01*
X101021757Y-75884997D01*
X101006985Y-75815554D01*
X101032101Y-75749149D01*
X101059453Y-75722542D01*
X101103276Y-75691283D01*
X101238533Y-75594806D01*
X101396769Y-75437122D01*
X101456267Y-75354322D01*
X101524108Y-75259910D01*
X101527126Y-75255710D01*
X101626103Y-75055444D01*
X101691043Y-74841702D01*
X101720202Y-74620223D01*
X101721829Y-74553633D01*
X101719091Y-74520328D01*
X108176932Y-74520328D01*
X108177229Y-74525481D01*
X108177229Y-74525484D01*
X108182692Y-74620223D01*
X108189791Y-74743348D01*
X108190928Y-74748394D01*
X108190929Y-74748400D01*
X108204278Y-74807633D01*
X108238903Y-74961272D01*
X108322947Y-75168249D01*
X108439668Y-75358721D01*
X108585931Y-75527571D01*
X108757807Y-75670265D01*
X108830659Y-75712836D01*
X108831636Y-75713407D01*
X108880360Y-75765045D01*
X108893431Y-75834828D01*
X108866700Y-75900600D01*
X108826243Y-75933960D01*
X108818138Y-75938179D01*
X108809419Y-75943669D01*
X108639114Y-76071538D01*
X108631407Y-76078381D01*
X108484271Y-76232350D01*
X108477785Y-76240360D01*
X108357779Y-76416282D01*
X108352681Y-76425256D01*
X108263019Y-76618416D01*
X108259456Y-76628103D01*
X108204070Y-76827816D01*
X108205593Y-76836240D01*
X108217973Y-76839633D01*
X110858025Y-76839633D01*
X110871556Y-76835660D01*
X110872861Y-76826580D01*
X110830895Y-76659508D01*
X110827575Y-76649757D01*
X110742653Y-76454447D01*
X110737786Y-76445372D01*
X110622107Y-76266559D01*
X110615817Y-76258390D01*
X110472487Y-76100873D01*
X110464954Y-76093848D01*
X110297820Y-75961855D01*
X110289237Y-75956153D01*
X110252283Y-75935753D01*
X110202312Y-75885320D01*
X110187540Y-75815878D01*
X110212656Y-75749472D01*
X110240008Y-75722865D01*
X110263478Y-75706124D01*
X110419541Y-75594806D01*
X110577777Y-75437122D01*
X110637275Y-75354322D01*
X110705116Y-75259910D01*
X110708134Y-75255710D01*
X110807111Y-75055444D01*
X110872051Y-74841702D01*
X110901210Y-74620223D01*
X110902837Y-74553633D01*
X110884533Y-74330994D01*
X110830112Y-74114335D01*
X110741035Y-73909473D01*
X110619695Y-73721910D01*
X110469351Y-73556684D01*
X110465300Y-73553485D01*
X110465296Y-73553481D01*
X110298095Y-73421433D01*
X110298091Y-73421431D01*
X110294040Y-73418231D01*
X110252250Y-73395162D01*
X110202279Y-73344730D01*
X110187507Y-73275287D01*
X110212623Y-73208881D01*
X110239975Y-73182274D01*
X110415009Y-73057425D01*
X110422881Y-73050772D01*
X110573733Y-72900445D01*
X110580411Y-72892598D01*
X110704684Y-72719653D01*
X110709994Y-72710816D01*
X110804351Y-72519900D01*
X110808150Y-72510305D01*
X110870058Y-72306543D01*
X110872236Y-72296470D01*
X110873667Y-72285595D01*
X110871456Y-72271411D01*
X110858298Y-72267633D01*
X108222906Y-72267633D01*
X108209375Y-72271606D01*
X108207938Y-72281599D01*
X108238246Y-72416079D01*
X108241326Y-72425908D01*
X108321451Y-72623236D01*
X108326094Y-72632427D01*
X108437375Y-72814021D01*
X108443458Y-72822332D01*
X108582894Y-72983300D01*
X108590261Y-72990516D01*
X108754115Y-73126549D01*
X108762562Y-73132464D01*
X108831650Y-73172836D01*
X108880374Y-73224475D01*
X108893445Y-73294258D01*
X108866714Y-73360029D01*
X108826265Y-73393385D01*
X108813288Y-73400140D01*
X108809155Y-73403243D01*
X108809152Y-73403245D01*
X108784928Y-73421433D01*
X108634646Y-73534268D01*
X108480310Y-73695771D01*
X108477396Y-73700043D01*
X108477395Y-73700044D01*
X108465085Y-73718090D01*
X108354424Y-73880313D01*
X108260369Y-74082938D01*
X108200670Y-74298203D01*
X108176932Y-74520328D01*
X101719091Y-74520328D01*
X101703525Y-74330994D01*
X101649104Y-74114335D01*
X101560027Y-73909473D01*
X101438687Y-73721910D01*
X101288343Y-73556684D01*
X101284292Y-73553485D01*
X101284288Y-73553481D01*
X101117087Y-73421433D01*
X101117083Y-73421431D01*
X101113032Y-73418231D01*
X101071726Y-73395429D01*
X101021757Y-73344997D01*
X101006985Y-73275554D01*
X101032101Y-73209149D01*
X101059453Y-73182542D01*
X101103276Y-73151283D01*
X101238533Y-73054806D01*
X101396769Y-72897122D01*
X101456267Y-72814322D01*
X101524108Y-72719910D01*
X101527126Y-72715710D01*
X101560283Y-72648623D01*
X101623809Y-72520086D01*
X101623810Y-72520084D01*
X101626103Y-72515444D01*
X101658573Y-72408573D01*
X101689538Y-72306656D01*
X101689538Y-72306654D01*
X101691043Y-72301702D01*
X101720202Y-72080223D01*
X101721829Y-72013633D01*
X101703525Y-71790994D01*
X101649104Y-71574335D01*
X101560027Y-71369473D01*
X101481000Y-71247316D01*
X101441495Y-71186250D01*
X101441493Y-71186247D01*
X101438687Y-71181910D01*
X101288343Y-71016684D01*
X101284292Y-71013485D01*
X101284288Y-71013481D01*
X101117087Y-70881433D01*
X101117083Y-70881431D01*
X101113032Y-70878231D01*
X101071726Y-70855429D01*
X101021757Y-70804997D01*
X101006985Y-70735554D01*
X101032101Y-70669149D01*
X101059453Y-70642542D01*
X101103276Y-70611283D01*
X101238533Y-70514806D01*
X101396769Y-70357122D01*
X101456267Y-70274322D01*
X101524108Y-70179910D01*
X101527126Y-70175710D01*
X101626103Y-69975444D01*
X101691043Y-69761702D01*
X101720202Y-69540223D01*
X101721829Y-69473633D01*
X101719091Y-69440328D01*
X108176932Y-69440328D01*
X108177229Y-69445481D01*
X108177229Y-69445484D01*
X108182692Y-69540223D01*
X108189791Y-69663348D01*
X108190928Y-69668394D01*
X108190929Y-69668400D01*
X108204278Y-69727633D01*
X108238903Y-69881272D01*
X108322947Y-70088249D01*
X108439668Y-70278721D01*
X108585931Y-70447571D01*
X108757807Y-70590265D01*
X108830659Y-70632836D01*
X108831636Y-70633407D01*
X108880360Y-70685045D01*
X108893431Y-70754828D01*
X108866700Y-70820600D01*
X108826243Y-70853960D01*
X108818138Y-70858179D01*
X108809419Y-70863669D01*
X108639114Y-70991538D01*
X108631407Y-70998381D01*
X108484271Y-71152350D01*
X108477785Y-71160360D01*
X108357779Y-71336282D01*
X108352681Y-71345256D01*
X108263019Y-71538416D01*
X108259456Y-71548103D01*
X108204070Y-71747816D01*
X108205593Y-71756240D01*
X108217973Y-71759633D01*
X110858025Y-71759633D01*
X110871556Y-71755660D01*
X110872861Y-71746580D01*
X110830895Y-71579508D01*
X110827575Y-71569757D01*
X110742653Y-71374447D01*
X110737786Y-71365372D01*
X110622107Y-71186559D01*
X110615817Y-71178390D01*
X110472487Y-71020873D01*
X110464954Y-71013848D01*
X110297820Y-70881855D01*
X110289237Y-70876153D01*
X110252283Y-70855753D01*
X110202312Y-70805320D01*
X110187540Y-70735878D01*
X110212656Y-70669472D01*
X110240008Y-70642865D01*
X110263478Y-70626124D01*
X110419541Y-70514806D01*
X110577777Y-70357122D01*
X110637275Y-70274322D01*
X110705116Y-70179910D01*
X110708134Y-70175710D01*
X110807111Y-69975444D01*
X110872051Y-69761702D01*
X110901210Y-69540223D01*
X110902837Y-69473633D01*
X110884533Y-69250994D01*
X110830112Y-69034335D01*
X110741035Y-68829473D01*
X110619695Y-68641910D01*
X110469351Y-68476684D01*
X110465300Y-68473485D01*
X110465296Y-68473481D01*
X110298095Y-68341433D01*
X110298091Y-68341431D01*
X110294040Y-68338231D01*
X110252250Y-68315162D01*
X110202279Y-68264730D01*
X110187507Y-68195287D01*
X110212623Y-68128881D01*
X110239975Y-68102274D01*
X110415009Y-67977425D01*
X110422881Y-67970772D01*
X110573733Y-67820445D01*
X110580411Y-67812598D01*
X110704684Y-67639653D01*
X110709994Y-67630816D01*
X110804351Y-67439900D01*
X110808150Y-67430305D01*
X110870058Y-67226543D01*
X110872236Y-67216470D01*
X110873667Y-67205595D01*
X110871456Y-67191411D01*
X110858298Y-67187633D01*
X108222906Y-67187633D01*
X108209375Y-67191606D01*
X108207938Y-67201599D01*
X108238246Y-67336079D01*
X108241326Y-67345908D01*
X108321451Y-67543236D01*
X108326094Y-67552427D01*
X108437375Y-67734021D01*
X108443458Y-67742332D01*
X108582894Y-67903300D01*
X108590261Y-67910516D01*
X108754115Y-68046549D01*
X108762562Y-68052464D01*
X108831650Y-68092836D01*
X108880374Y-68144475D01*
X108893445Y-68214258D01*
X108866714Y-68280029D01*
X108826265Y-68313385D01*
X108813288Y-68320140D01*
X108809155Y-68323243D01*
X108809152Y-68323245D01*
X108784928Y-68341433D01*
X108634646Y-68454268D01*
X108480310Y-68615771D01*
X108477396Y-68620043D01*
X108477395Y-68620044D01*
X108465085Y-68638090D01*
X108354424Y-68800313D01*
X108260369Y-69002938D01*
X108200670Y-69218203D01*
X108176932Y-69440328D01*
X101719091Y-69440328D01*
X101703525Y-69250994D01*
X101649104Y-69034335D01*
X101560027Y-68829473D01*
X101438687Y-68641910D01*
X101288343Y-68476684D01*
X101284292Y-68473485D01*
X101284288Y-68473481D01*
X101117087Y-68341433D01*
X101117083Y-68341431D01*
X101113032Y-68338231D01*
X101071726Y-68315429D01*
X101021757Y-68264997D01*
X101006985Y-68195554D01*
X101032101Y-68129149D01*
X101059453Y-68102542D01*
X101103276Y-68071283D01*
X101238533Y-67974806D01*
X101396769Y-67817122D01*
X101456267Y-67734322D01*
X101524108Y-67639910D01*
X101527126Y-67635710D01*
X101626103Y-67435444D01*
X101691043Y-67221702D01*
X101720202Y-67000223D01*
X101721829Y-66933633D01*
X101703525Y-66710994D01*
X101649104Y-66494335D01*
X101560027Y-66289473D01*
X101438687Y-66101910D01*
X101288343Y-65936684D01*
X101284292Y-65933485D01*
X101284288Y-65933481D01*
X101117087Y-65801433D01*
X101117083Y-65801431D01*
X101113032Y-65798231D01*
X101071242Y-65775162D01*
X101021271Y-65724730D01*
X101006499Y-65655287D01*
X101031615Y-65588881D01*
X101058967Y-65562274D01*
X101234001Y-65437425D01*
X101241873Y-65430772D01*
X101392725Y-65280445D01*
X101399403Y-65272598D01*
X101523676Y-65099653D01*
X101528986Y-65090816D01*
X101623343Y-64899900D01*
X101627142Y-64890305D01*
X101689050Y-64686543D01*
X101691228Y-64676470D01*
X101692659Y-64665595D01*
X101690448Y-64651411D01*
X101677290Y-64647633D01*
X99041898Y-64647633D01*
X99028367Y-64651606D01*
X99026930Y-64661599D01*
X99057238Y-64796079D01*
X99060318Y-64805908D01*
X99140443Y-65003236D01*
X99145086Y-65012427D01*
X99256367Y-65194021D01*
X99262450Y-65202332D01*
X99401886Y-65363300D01*
X99409253Y-65370516D01*
X99573107Y-65506549D01*
X99581554Y-65512464D01*
X99650642Y-65552836D01*
X99699366Y-65604475D01*
X99712437Y-65674258D01*
X99685706Y-65740029D01*
X99645257Y-65773385D01*
X99632280Y-65780140D01*
X99628147Y-65783243D01*
X99628144Y-65783245D01*
X99603920Y-65801433D01*
X99453638Y-65914268D01*
X99299302Y-66075771D01*
X99296388Y-66080043D01*
X99296387Y-66080044D01*
X99284077Y-66098090D01*
X99173416Y-66260313D01*
X99079361Y-66462938D01*
X99019662Y-66678203D01*
X98995924Y-66900328D01*
X98996221Y-66905481D01*
X98996221Y-66905484D01*
X99001684Y-67000223D01*
X99008783Y-67123348D01*
X99009920Y-67128394D01*
X99009921Y-67128400D01*
X99024122Y-67191411D01*
X99057895Y-67341272D01*
X99141939Y-67548249D01*
X99258660Y-67738721D01*
X99404923Y-67907571D01*
X99576799Y-68050265D01*
X99647268Y-68091444D01*
X99650118Y-68093109D01*
X99698842Y-68144747D01*
X99711913Y-68214530D01*
X99685182Y-68280302D01*
X99644728Y-68313660D01*
X99632280Y-68320140D01*
X99628147Y-68323243D01*
X99628144Y-68323245D01*
X99603920Y-68341433D01*
X99453638Y-68454268D01*
X99299302Y-68615771D01*
X99296388Y-68620043D01*
X99296387Y-68620044D01*
X99284077Y-68638090D01*
X99173416Y-68800313D01*
X99079361Y-69002938D01*
X99019662Y-69218203D01*
X98995924Y-69440328D01*
X98996221Y-69445481D01*
X98996221Y-69445484D01*
X99001684Y-69540223D01*
X99008783Y-69663348D01*
X99009920Y-69668394D01*
X99009921Y-69668400D01*
X99023270Y-69727633D01*
X99057895Y-69881272D01*
X99141939Y-70088249D01*
X99258660Y-70278721D01*
X99404923Y-70447571D01*
X99576799Y-70590265D01*
X99647268Y-70631444D01*
X99650118Y-70633109D01*
X99698842Y-70684747D01*
X99711913Y-70754530D01*
X99685182Y-70820302D01*
X99644728Y-70853660D01*
X99632280Y-70860140D01*
X99628147Y-70863243D01*
X99628144Y-70863245D01*
X99457773Y-70991163D01*
X99453638Y-70994268D01*
X99450066Y-70998006D01*
X99336545Y-71116799D01*
X99299302Y-71155771D01*
X99296388Y-71160043D01*
X99296387Y-71160044D01*
X99284077Y-71178090D01*
X99173416Y-71340313D01*
X99079361Y-71542938D01*
X99019662Y-71758203D01*
X98995924Y-71980328D01*
X98996221Y-71985481D01*
X98996221Y-71985484D01*
X99001684Y-72080223D01*
X99008783Y-72203348D01*
X99009920Y-72208394D01*
X99009921Y-72208400D01*
X99025827Y-72278978D01*
X99057895Y-72421272D01*
X99141939Y-72628249D01*
X99258660Y-72818721D01*
X99404923Y-72987571D01*
X99576799Y-73130265D01*
X99647268Y-73171444D01*
X99650118Y-73173109D01*
X99698842Y-73224747D01*
X99711913Y-73294530D01*
X99685182Y-73360302D01*
X99644728Y-73393660D01*
X99632280Y-73400140D01*
X99628147Y-73403243D01*
X99628144Y-73403245D01*
X99603920Y-73421433D01*
X99453638Y-73534268D01*
X99299302Y-73695771D01*
X99296388Y-73700043D01*
X99296387Y-73700044D01*
X99284077Y-73718090D01*
X99173416Y-73880313D01*
X99079361Y-74082938D01*
X99019662Y-74298203D01*
X98995924Y-74520328D01*
X98996221Y-74525481D01*
X98996221Y-74525484D01*
X99001684Y-74620223D01*
X99008783Y-74743348D01*
X99009920Y-74748394D01*
X99009921Y-74748400D01*
X99023270Y-74807633D01*
X99057895Y-74961272D01*
X99141939Y-75168249D01*
X99258660Y-75358721D01*
X99404923Y-75527571D01*
X99576799Y-75670265D01*
X99647268Y-75711444D01*
X99650118Y-75713109D01*
X99698842Y-75764747D01*
X99711913Y-75834530D01*
X99685182Y-75900302D01*
X99644728Y-75933660D01*
X99632280Y-75940140D01*
X99628147Y-75943243D01*
X99628144Y-75943245D01*
X99603920Y-75961433D01*
X99453638Y-76074268D01*
X99299302Y-76235771D01*
X99296388Y-76240043D01*
X99296387Y-76240044D01*
X99284077Y-76258090D01*
X99173416Y-76420313D01*
X99079361Y-76622938D01*
X99019662Y-76838203D01*
X98995924Y-77060328D01*
X97166182Y-77060328D01*
X97166182Y-72912453D01*
X97186184Y-72844332D01*
X97211612Y-72815580D01*
X97224928Y-72804505D01*
X97224930Y-72804503D01*
X97229368Y-72800812D01*
X97359640Y-72644177D01*
X97459186Y-72466425D01*
X97461042Y-72460958D01*
X97461044Y-72460953D01*
X97522816Y-72278978D01*
X97522817Y-72278973D01*
X97524672Y-72273509D01*
X97553905Y-72071889D01*
X97555431Y-72013626D01*
X97536790Y-71810752D01*
X97522373Y-71759633D01*
X97483057Y-71620232D01*
X97483056Y-71620230D01*
X97481489Y-71614673D01*
X97470862Y-71593122D01*
X97393938Y-71437136D01*
X97391383Y-71431955D01*
X97372978Y-71407307D01*
X97272940Y-71273341D01*
X97272940Y-71273340D01*
X97269487Y-71268717D01*
X97171448Y-71178090D01*
X97124125Y-71134345D01*
X97124122Y-71134343D01*
X97119885Y-71130426D01*
X97073857Y-71101385D01*
X96952470Y-71024795D01*
X96952465Y-71024793D01*
X96947586Y-71021714D01*
X96758362Y-70946221D01*
X96558548Y-70906475D01*
X96552774Y-70906399D01*
X96552770Y-70906399D01*
X96449634Y-70905050D01*
X96354837Y-70903809D01*
X96349140Y-70904788D01*
X96349139Y-70904788D01*
X96159749Y-70937331D01*
X96154052Y-70938310D01*
X95962916Y-71008824D01*
X95957955Y-71011776D01*
X95957954Y-71011776D01*
X95942664Y-71020873D01*
X95787831Y-71112989D01*
X95634660Y-71247316D01*
X95631093Y-71251841D01*
X95631088Y-71251846D01*
X95564720Y-71336034D01*
X95508533Y-71407307D01*
X95413674Y-71587604D01*
X95353260Y-71782169D01*
X95329314Y-71984485D01*
X95342639Y-72187777D01*
X95392787Y-72385236D01*
X95478080Y-72570250D01*
X95595661Y-72736623D01*
X95599792Y-72740647D01*
X95599796Y-72740652D01*
X95603106Y-72743876D01*
X95637942Y-72805738D01*
X95641182Y-72834128D01*
X95641182Y-77942553D01*
X95621180Y-78010674D01*
X95603975Y-78030650D01*
X95604478Y-78031128D01*
X95600497Y-78035322D01*
X95596160Y-78039126D01*
X95592593Y-78043651D01*
X95592588Y-78043656D01*
X95520732Y-78134806D01*
X95470033Y-78199117D01*
X95467344Y-78204228D01*
X95467342Y-78204231D01*
X95435618Y-78264529D01*
X95375174Y-78379414D01*
X95314760Y-78573979D01*
X95290814Y-78776295D01*
X89327672Y-78776295D01*
X89327672Y-77060328D01*
X89814916Y-77060328D01*
X89815213Y-77065481D01*
X89815213Y-77065484D01*
X89820676Y-77160223D01*
X89827775Y-77283348D01*
X89828912Y-77288394D01*
X89828913Y-77288400D01*
X89843114Y-77351411D01*
X89876887Y-77501272D01*
X89960931Y-77708249D01*
X90077652Y-77898721D01*
X90223915Y-78067571D01*
X90395791Y-78210265D01*
X90588665Y-78322971D01*
X90797357Y-78402663D01*
X90802425Y-78403694D01*
X90802428Y-78403695D01*
X90897527Y-78423043D01*
X91016262Y-78447200D01*
X91021437Y-78447390D01*
X91021439Y-78447390D01*
X91234338Y-78455197D01*
X91234342Y-78455197D01*
X91239502Y-78455386D01*
X91244622Y-78454730D01*
X91244624Y-78454730D01*
X91455953Y-78427658D01*
X91455954Y-78427658D01*
X91461081Y-78427001D01*
X91466031Y-78425516D01*
X91670094Y-78364294D01*
X91670099Y-78364292D01*
X91675049Y-78362807D01*
X91875659Y-78264529D01*
X92057525Y-78134806D01*
X92215761Y-77977122D01*
X92275259Y-77894322D01*
X92343100Y-77799910D01*
X92346118Y-77795710D01*
X92445095Y-77595444D01*
X92510035Y-77381702D01*
X92539194Y-77160223D01*
X92540821Y-77093633D01*
X92522517Y-76870994D01*
X92468096Y-76654335D01*
X92379019Y-76449473D01*
X92257679Y-76261910D01*
X92107335Y-76096684D01*
X92103284Y-76093485D01*
X92103280Y-76093481D01*
X91936079Y-75961433D01*
X91936075Y-75961431D01*
X91932024Y-75958231D01*
X91890234Y-75935162D01*
X91840263Y-75884730D01*
X91825491Y-75815287D01*
X91850607Y-75748881D01*
X91877959Y-75722274D01*
X92052993Y-75597425D01*
X92060865Y-75590772D01*
X92211717Y-75440445D01*
X92218395Y-75432598D01*
X92342668Y-75259653D01*
X92347978Y-75250816D01*
X92442335Y-75059900D01*
X92446134Y-75050305D01*
X92508042Y-74846543D01*
X92510220Y-74836470D01*
X92511651Y-74825595D01*
X92509440Y-74811411D01*
X92496282Y-74807633D01*
X89860890Y-74807633D01*
X89847359Y-74811606D01*
X89845922Y-74821599D01*
X89876230Y-74956079D01*
X89879310Y-74965908D01*
X89959435Y-75163236D01*
X89964078Y-75172427D01*
X90075359Y-75354021D01*
X90081442Y-75362332D01*
X90220878Y-75523300D01*
X90228245Y-75530516D01*
X90392099Y-75666549D01*
X90400546Y-75672464D01*
X90469634Y-75712836D01*
X90518358Y-75764475D01*
X90531429Y-75834258D01*
X90504698Y-75900029D01*
X90464249Y-75933385D01*
X90451272Y-75940140D01*
X90447139Y-75943243D01*
X90447136Y-75943245D01*
X90422912Y-75961433D01*
X90272630Y-76074268D01*
X90118294Y-76235771D01*
X90115380Y-76240043D01*
X90115379Y-76240044D01*
X90103069Y-76258090D01*
X89992408Y-76420313D01*
X89898353Y-76622938D01*
X89838654Y-76838203D01*
X89814916Y-77060328D01*
X89327672Y-77060328D01*
X89327672Y-71980328D01*
X89814916Y-71980328D01*
X89815213Y-71985481D01*
X89815213Y-71985484D01*
X89820676Y-72080223D01*
X89827775Y-72203348D01*
X89828912Y-72208394D01*
X89828913Y-72208400D01*
X89844819Y-72278978D01*
X89876887Y-72421272D01*
X89960931Y-72628249D01*
X90077652Y-72818721D01*
X90223915Y-72987571D01*
X90395791Y-73130265D01*
X90468643Y-73172836D01*
X90469620Y-73173407D01*
X90518344Y-73225045D01*
X90531415Y-73294828D01*
X90504684Y-73360600D01*
X90464227Y-73393960D01*
X90456122Y-73398179D01*
X90447403Y-73403669D01*
X90277098Y-73531538D01*
X90269391Y-73538381D01*
X90122255Y-73692350D01*
X90115769Y-73700360D01*
X89995763Y-73876282D01*
X89990665Y-73885256D01*
X89901003Y-74078416D01*
X89897440Y-74088103D01*
X89842054Y-74287816D01*
X89843577Y-74296240D01*
X89855957Y-74299633D01*
X92496009Y-74299633D01*
X92509540Y-74295660D01*
X92510845Y-74286580D01*
X92468879Y-74119508D01*
X92465559Y-74109757D01*
X92380637Y-73914447D01*
X92375770Y-73905372D01*
X92260091Y-73726559D01*
X92253801Y-73718390D01*
X92110471Y-73560873D01*
X92102938Y-73553848D01*
X91935804Y-73421855D01*
X91927221Y-73416153D01*
X91890267Y-73395753D01*
X91840296Y-73345320D01*
X91825524Y-73275878D01*
X91850640Y-73209472D01*
X91877992Y-73182865D01*
X91901462Y-73166124D01*
X92057525Y-73054806D01*
X92215761Y-72897122D01*
X92275259Y-72814322D01*
X92343100Y-72719910D01*
X92346118Y-72715710D01*
X92379275Y-72648623D01*
X92442801Y-72520086D01*
X92442802Y-72520084D01*
X92445095Y-72515444D01*
X92477565Y-72408573D01*
X92508530Y-72306656D01*
X92508530Y-72306654D01*
X92510035Y-72301702D01*
X92539194Y-72080223D01*
X92540821Y-72013633D01*
X92522517Y-71790994D01*
X92468096Y-71574335D01*
X92379019Y-71369473D01*
X92299992Y-71247316D01*
X92260487Y-71186250D01*
X92260485Y-71186247D01*
X92257679Y-71181910D01*
X92107335Y-71016684D01*
X92103284Y-71013485D01*
X92103280Y-71013481D01*
X91936079Y-70881433D01*
X91936075Y-70881431D01*
X91932024Y-70878231D01*
X91890234Y-70855162D01*
X91840263Y-70804730D01*
X91825491Y-70735287D01*
X91850607Y-70668881D01*
X91877959Y-70642274D01*
X92052993Y-70517425D01*
X92060865Y-70510772D01*
X92211717Y-70360445D01*
X92218395Y-70352598D01*
X92342668Y-70179653D01*
X92347978Y-70170816D01*
X92442335Y-69979900D01*
X92446134Y-69970305D01*
X92508042Y-69766543D01*
X92510220Y-69756470D01*
X92511651Y-69745595D01*
X92509440Y-69731411D01*
X92496282Y-69727633D01*
X89860890Y-69727633D01*
X89847359Y-69731606D01*
X89845922Y-69741599D01*
X89876230Y-69876079D01*
X89879310Y-69885908D01*
X89959435Y-70083236D01*
X89964078Y-70092427D01*
X90075359Y-70274021D01*
X90081442Y-70282332D01*
X90220878Y-70443300D01*
X90228245Y-70450516D01*
X90392099Y-70586549D01*
X90400546Y-70592464D01*
X90469634Y-70632836D01*
X90518358Y-70684475D01*
X90531429Y-70754258D01*
X90504698Y-70820029D01*
X90464249Y-70853385D01*
X90451272Y-70860140D01*
X90447139Y-70863243D01*
X90447136Y-70863245D01*
X90276765Y-70991163D01*
X90272630Y-70994268D01*
X90269058Y-70998006D01*
X90155537Y-71116799D01*
X90118294Y-71155771D01*
X90115380Y-71160043D01*
X90115379Y-71160044D01*
X90103069Y-71178090D01*
X89992408Y-71340313D01*
X89898353Y-71542938D01*
X89838654Y-71758203D01*
X89814916Y-71980328D01*
X89327672Y-71980328D01*
X89327672Y-69207816D01*
X89842054Y-69207816D01*
X89843577Y-69216240D01*
X89855957Y-69219633D01*
X90905550Y-69219633D01*
X90920789Y-69215158D01*
X90921994Y-69213768D01*
X90923665Y-69206085D01*
X90923665Y-69201518D01*
X91431665Y-69201518D01*
X91436140Y-69216757D01*
X91437530Y-69217962D01*
X91445213Y-69219633D01*
X92496009Y-69219633D01*
X92509540Y-69215660D01*
X92510845Y-69206580D01*
X92468879Y-69039508D01*
X92465559Y-69029757D01*
X92380637Y-68834447D01*
X92375770Y-68825372D01*
X92260091Y-68646559D01*
X92253801Y-68638390D01*
X92110471Y-68480873D01*
X92102938Y-68473848D01*
X91935804Y-68341855D01*
X91927217Y-68336150D01*
X91889781Y-68315484D01*
X91839811Y-68265052D01*
X91825039Y-68195609D01*
X91850155Y-68129204D01*
X91877507Y-68102597D01*
X92052992Y-67977425D01*
X92060865Y-67970772D01*
X92211717Y-67820445D01*
X92218395Y-67812598D01*
X92342668Y-67639653D01*
X92347978Y-67630816D01*
X92442335Y-67439900D01*
X92446134Y-67430305D01*
X92508042Y-67226543D01*
X92510220Y-67216470D01*
X92511651Y-67205595D01*
X92509440Y-67191411D01*
X92496282Y-67187633D01*
X91449780Y-67187633D01*
X91434541Y-67192108D01*
X91433336Y-67193498D01*
X91431665Y-67201181D01*
X91431665Y-69201518D01*
X90923665Y-69201518D01*
X90923665Y-67205748D01*
X90919190Y-67190509D01*
X90917800Y-67189304D01*
X90910117Y-67187633D01*
X89860890Y-67187633D01*
X89847359Y-67191606D01*
X89845922Y-67201599D01*
X89876230Y-67336079D01*
X89879310Y-67345908D01*
X89959435Y-67543236D01*
X89964078Y-67552427D01*
X90075359Y-67734021D01*
X90081442Y-67742332D01*
X90220878Y-67903300D01*
X90228245Y-67910516D01*
X90392099Y-68046549D01*
X90400546Y-68052464D01*
X90470144Y-68093134D01*
X90518868Y-68144773D01*
X90531939Y-68214556D01*
X90505208Y-68280327D01*
X90464752Y-68313686D01*
X90456127Y-68318175D01*
X90447403Y-68323669D01*
X90277098Y-68451538D01*
X90269391Y-68458381D01*
X90122255Y-68612350D01*
X90115769Y-68620360D01*
X89995763Y-68796282D01*
X89990665Y-68805256D01*
X89901003Y-68998416D01*
X89897440Y-69008103D01*
X89842054Y-69207816D01*
X89327672Y-69207816D01*
X89327672Y-64360328D01*
X89814916Y-64360328D01*
X89815213Y-64365481D01*
X89815213Y-64365484D01*
X89820676Y-64460223D01*
X89827775Y-64583348D01*
X89828912Y-64588394D01*
X89828913Y-64588400D01*
X89842262Y-64647633D01*
X89876887Y-64801272D01*
X89960931Y-65008249D01*
X90077652Y-65198721D01*
X90223915Y-65367571D01*
X90395791Y-65510265D01*
X90468643Y-65552836D01*
X90469620Y-65553407D01*
X90518344Y-65605045D01*
X90531415Y-65674828D01*
X90504684Y-65740600D01*
X90464227Y-65773960D01*
X90456122Y-65778179D01*
X90447403Y-65783669D01*
X90277098Y-65911538D01*
X90269391Y-65918381D01*
X90122255Y-66072350D01*
X90115769Y-66080360D01*
X89995763Y-66256282D01*
X89990665Y-66265256D01*
X89901003Y-66458416D01*
X89897440Y-66468103D01*
X89842054Y-66667816D01*
X89843577Y-66676240D01*
X89855957Y-66679633D01*
X92496009Y-66679633D01*
X92509540Y-66675660D01*
X92510845Y-66666580D01*
X92468879Y-66499508D01*
X92465559Y-66489757D01*
X92380637Y-66294447D01*
X92375770Y-66285372D01*
X92260091Y-66106559D01*
X92253801Y-66098390D01*
X92110471Y-65940873D01*
X92102938Y-65933848D01*
X91935804Y-65801855D01*
X91927221Y-65796153D01*
X91890267Y-65775753D01*
X91840296Y-65725320D01*
X91825524Y-65655878D01*
X91850640Y-65589472D01*
X91877992Y-65562865D01*
X91901462Y-65546124D01*
X92057525Y-65434806D01*
X92215761Y-65277122D01*
X92275259Y-65194322D01*
X92343100Y-65099910D01*
X92346118Y-65095710D01*
X92445095Y-64895444D01*
X92510035Y-64681702D01*
X92539194Y-64460223D01*
X92540821Y-64393633D01*
X92538083Y-64360328D01*
X108176932Y-64360328D01*
X108177229Y-64365481D01*
X108177229Y-64365484D01*
X108182692Y-64460223D01*
X108189791Y-64583348D01*
X108190928Y-64588394D01*
X108190929Y-64588400D01*
X108204278Y-64647633D01*
X108238903Y-64801272D01*
X108322947Y-65008249D01*
X108439668Y-65198721D01*
X108585931Y-65367571D01*
X108757807Y-65510265D01*
X108830659Y-65552836D01*
X108831636Y-65553407D01*
X108880360Y-65605045D01*
X108893431Y-65674828D01*
X108866700Y-65740600D01*
X108826243Y-65773960D01*
X108818138Y-65778179D01*
X108809419Y-65783669D01*
X108639114Y-65911538D01*
X108631407Y-65918381D01*
X108484271Y-66072350D01*
X108477785Y-66080360D01*
X108357779Y-66256282D01*
X108352681Y-66265256D01*
X108263019Y-66458416D01*
X108259456Y-66468103D01*
X108204070Y-66667816D01*
X108205593Y-66676240D01*
X108217973Y-66679633D01*
X110858025Y-66679633D01*
X110871556Y-66675660D01*
X110872861Y-66666580D01*
X110830895Y-66499508D01*
X110827575Y-66489757D01*
X110742653Y-66294447D01*
X110737786Y-66285372D01*
X110622107Y-66106559D01*
X110615817Y-66098390D01*
X110472487Y-65940873D01*
X110464954Y-65933848D01*
X110297820Y-65801855D01*
X110289237Y-65796153D01*
X110252283Y-65775753D01*
X110202312Y-65725320D01*
X110187540Y-65655878D01*
X110212656Y-65589472D01*
X110240008Y-65562865D01*
X110263478Y-65546124D01*
X110419541Y-65434806D01*
X110577777Y-65277122D01*
X110637275Y-65194322D01*
X110705116Y-65099910D01*
X110708134Y-65095710D01*
X110807111Y-64895444D01*
X110872051Y-64681702D01*
X110901210Y-64460223D01*
X110902837Y-64393633D01*
X110884533Y-64170994D01*
X110830112Y-63954335D01*
X110741035Y-63749473D01*
X110619695Y-63561910D01*
X110469351Y-63396684D01*
X110465300Y-63393485D01*
X110465296Y-63393481D01*
X110298095Y-63261433D01*
X110298091Y-63261431D01*
X110294040Y-63258231D01*
X110252250Y-63235162D01*
X110202279Y-63184730D01*
X110187507Y-63115287D01*
X110212623Y-63048881D01*
X110239975Y-63022274D01*
X110415009Y-62897425D01*
X110422881Y-62890772D01*
X110573733Y-62740445D01*
X110580411Y-62732598D01*
X110704684Y-62559653D01*
X110709994Y-62550816D01*
X110804351Y-62359900D01*
X110808150Y-62350305D01*
X110870058Y-62146543D01*
X110872236Y-62136470D01*
X110873667Y-62125595D01*
X110871456Y-62111411D01*
X110858298Y-62107633D01*
X108222906Y-62107633D01*
X108209375Y-62111606D01*
X108207938Y-62121599D01*
X108238246Y-62256079D01*
X108241326Y-62265908D01*
X108321451Y-62463236D01*
X108326094Y-62472427D01*
X108437375Y-62654021D01*
X108443458Y-62662332D01*
X108582894Y-62823300D01*
X108590261Y-62830516D01*
X108754115Y-62966549D01*
X108762562Y-62972464D01*
X108831650Y-63012836D01*
X108880374Y-63064475D01*
X108893445Y-63134258D01*
X108866714Y-63200029D01*
X108826265Y-63233385D01*
X108813288Y-63240140D01*
X108809155Y-63243243D01*
X108809152Y-63243245D01*
X108784928Y-63261433D01*
X108634646Y-63374268D01*
X108480310Y-63535771D01*
X108477396Y-63540043D01*
X108477395Y-63540044D01*
X108465085Y-63558090D01*
X108354424Y-63720313D01*
X108260369Y-63922938D01*
X108200670Y-64138203D01*
X108176932Y-64360328D01*
X92538083Y-64360328D01*
X92522517Y-64170994D01*
X92468096Y-63954335D01*
X92379019Y-63749473D01*
X92257679Y-63561910D01*
X92107335Y-63396684D01*
X92103284Y-63393485D01*
X92103280Y-63393481D01*
X91936079Y-63261433D01*
X91936075Y-63261431D01*
X91932024Y-63258231D01*
X91890718Y-63235429D01*
X91840749Y-63184997D01*
X91825977Y-63115554D01*
X91851093Y-63049149D01*
X91878445Y-63022542D01*
X91922268Y-62991283D01*
X92057525Y-62894806D01*
X92215761Y-62737122D01*
X92275259Y-62654322D01*
X92343100Y-62559910D01*
X92346118Y-62555710D01*
X92445095Y-62355444D01*
X92510035Y-62141702D01*
X92539194Y-61920223D01*
X92540821Y-61853633D01*
X92538083Y-61820328D01*
X98995924Y-61820328D01*
X98996221Y-61825481D01*
X98996221Y-61825484D01*
X99001684Y-61920223D01*
X99008783Y-62043348D01*
X99009920Y-62048394D01*
X99009921Y-62048400D01*
X99023270Y-62107633D01*
X99057895Y-62261272D01*
X99141939Y-62468249D01*
X99258660Y-62658721D01*
X99404923Y-62827571D01*
X99576799Y-62970265D01*
X99649651Y-63012836D01*
X99650628Y-63013407D01*
X99699352Y-63065045D01*
X99712423Y-63134828D01*
X99685692Y-63200600D01*
X99645235Y-63233960D01*
X99637130Y-63238179D01*
X99628411Y-63243669D01*
X99458106Y-63371538D01*
X99450399Y-63378381D01*
X99303263Y-63532350D01*
X99296777Y-63540360D01*
X99176771Y-63716282D01*
X99171673Y-63725256D01*
X99082011Y-63918416D01*
X99078448Y-63928103D01*
X99023062Y-64127816D01*
X99024585Y-64136240D01*
X99036965Y-64139633D01*
X101677017Y-64139633D01*
X101690548Y-64135660D01*
X101691853Y-64126580D01*
X101649887Y-63959508D01*
X101646567Y-63949757D01*
X101561645Y-63754447D01*
X101556778Y-63745372D01*
X101441099Y-63566559D01*
X101434809Y-63558390D01*
X101291479Y-63400873D01*
X101283946Y-63393848D01*
X101116812Y-63261855D01*
X101108229Y-63256153D01*
X101071275Y-63235753D01*
X101021304Y-63185320D01*
X101006532Y-63115878D01*
X101031648Y-63049472D01*
X101059000Y-63022865D01*
X101082470Y-63006124D01*
X101238533Y-62894806D01*
X101396769Y-62737122D01*
X101456267Y-62654322D01*
X101524108Y-62559910D01*
X101527126Y-62555710D01*
X101626103Y-62355444D01*
X101691043Y-62141702D01*
X101720202Y-61920223D01*
X101721829Y-61853633D01*
X101703525Y-61630994D01*
X101649104Y-61414335D01*
X101560027Y-61209473D01*
X101438687Y-61021910D01*
X101419078Y-61000360D01*
X101291471Y-60860121D01*
X101260419Y-60796275D01*
X101268814Y-60725776D01*
X101313990Y-60671008D01*
X101340434Y-60657339D01*
X101446970Y-60617400D01*
X101455378Y-60614248D01*
X101571934Y-60526894D01*
X101659288Y-60410338D01*
X101710418Y-60273949D01*
X101717173Y-60211767D01*
X101717173Y-59280328D01*
X108176932Y-59280328D01*
X108177229Y-59285481D01*
X108177229Y-59285484D01*
X108182692Y-59380223D01*
X108189791Y-59503348D01*
X108190928Y-59508394D01*
X108190929Y-59508400D01*
X108205603Y-59573512D01*
X108238903Y-59721272D01*
X108322947Y-59928249D01*
X108335434Y-59948626D01*
X108425976Y-60096377D01*
X108439668Y-60118721D01*
X108585931Y-60287571D01*
X108757807Y-60430265D01*
X108831636Y-60473407D01*
X108880360Y-60525045D01*
X108893431Y-60594828D01*
X108866700Y-60660600D01*
X108826243Y-60693960D01*
X108818138Y-60698179D01*
X108809419Y-60703669D01*
X108639114Y-60831538D01*
X108631407Y-60838381D01*
X108484271Y-60992350D01*
X108477785Y-61000360D01*
X108357779Y-61176282D01*
X108352681Y-61185256D01*
X108263019Y-61378416D01*
X108259456Y-61388103D01*
X108204070Y-61587816D01*
X108205593Y-61596240D01*
X108217973Y-61599633D01*
X110858025Y-61599633D01*
X110871556Y-61595660D01*
X110872861Y-61586580D01*
X110830895Y-61419508D01*
X110827575Y-61409757D01*
X110742653Y-61214447D01*
X110737786Y-61205372D01*
X110622107Y-61026559D01*
X110615817Y-61018390D01*
X110472487Y-60860873D01*
X110464954Y-60853848D01*
X110297820Y-60721855D01*
X110289237Y-60716153D01*
X110252283Y-60695753D01*
X110202312Y-60645320D01*
X110187540Y-60575878D01*
X110212656Y-60509472D01*
X110240008Y-60482865D01*
X110263478Y-60466124D01*
X110419541Y-60354806D01*
X110577777Y-60197122D01*
X110593847Y-60174759D01*
X110705116Y-60019910D01*
X110708134Y-60015710D01*
X110726264Y-59979028D01*
X110804817Y-59820086D01*
X110804818Y-59820084D01*
X110807111Y-59815444D01*
X110872051Y-59601702D01*
X110901210Y-59380223D01*
X110902837Y-59313633D01*
X110884533Y-59090994D01*
X110830112Y-58874335D01*
X110741035Y-58669473D01*
X110681503Y-58577450D01*
X110622503Y-58486250D01*
X110622501Y-58486247D01*
X110619695Y-58481910D01*
X110469351Y-58316684D01*
X110465300Y-58313485D01*
X110465296Y-58313481D01*
X110298095Y-58181433D01*
X110298091Y-58181431D01*
X110294040Y-58178231D01*
X110098470Y-58070271D01*
X110093601Y-58068547D01*
X110093597Y-58068545D01*
X109892768Y-57997428D01*
X109892764Y-57997427D01*
X109887893Y-57995702D01*
X109882800Y-57994795D01*
X109882797Y-57994794D01*
X109673054Y-57957433D01*
X109673048Y-57957432D01*
X109667965Y-57956527D01*
X109594133Y-57955625D01*
X109449762Y-57953861D01*
X109449760Y-57953861D01*
X109444592Y-57953798D01*
X109223772Y-57987588D01*
X109011437Y-58056990D01*
X108813288Y-58160140D01*
X108809155Y-58163243D01*
X108809152Y-58163245D01*
X108638781Y-58291163D01*
X108634646Y-58294268D01*
X108480310Y-58455771D01*
X108354424Y-58640313D01*
X108338684Y-58674223D01*
X108295308Y-58767669D01*
X108260369Y-58842938D01*
X108200670Y-59058203D01*
X108176932Y-59280328D01*
X101717173Y-59280328D01*
X101717173Y-58415499D01*
X101710418Y-58353317D01*
X101659288Y-58216928D01*
X101571934Y-58100372D01*
X101455378Y-58013018D01*
X101318989Y-57961888D01*
X101256807Y-57955133D01*
X99460539Y-57955133D01*
X99398357Y-57961888D01*
X99261968Y-58013018D01*
X99145412Y-58100372D01*
X99058058Y-58216928D01*
X99006928Y-58353317D01*
X99000173Y-58415499D01*
X99000173Y-60211767D01*
X99006928Y-60273949D01*
X99058058Y-60410338D01*
X99145412Y-60526894D01*
X99261968Y-60614248D01*
X99270377Y-60617400D01*
X99270378Y-60617401D01*
X99379124Y-60658168D01*
X99435889Y-60700809D01*
X99460589Y-60767371D01*
X99445382Y-60836720D01*
X99425989Y-60863201D01*
X99299302Y-60995771D01*
X99296388Y-61000043D01*
X99296387Y-61000044D01*
X99284082Y-61018083D01*
X99173416Y-61180313D01*
X99079361Y-61382938D01*
X99019662Y-61598203D01*
X98995924Y-61820328D01*
X92538083Y-61820328D01*
X92522517Y-61630994D01*
X92468096Y-61414335D01*
X92379019Y-61209473D01*
X92257679Y-61021910D01*
X92238070Y-61000360D01*
X92110463Y-60860121D01*
X92079411Y-60796275D01*
X92087806Y-60725776D01*
X92132982Y-60671008D01*
X92159426Y-60657339D01*
X92265962Y-60617400D01*
X92274370Y-60614248D01*
X92390926Y-60526894D01*
X92478280Y-60410338D01*
X92529410Y-60273949D01*
X92536165Y-60211767D01*
X92536165Y-59979028D01*
X92556167Y-59910907D01*
X92609823Y-59864414D01*
X92680097Y-59854310D01*
X92744677Y-59883804D01*
X92765062Y-59906308D01*
X92794970Y-59948626D01*
X92857162Y-60036626D01*
X93003093Y-60178786D01*
X93007889Y-60181991D01*
X93007892Y-60181993D01*
X93052452Y-60211767D01*
X93172486Y-60291971D01*
X93177789Y-60294249D01*
X93177792Y-60294251D01*
X93354363Y-60370112D01*
X93359670Y-60372392D01*
X93432500Y-60388872D01*
X93552738Y-60416079D01*
X93552743Y-60416080D01*
X93558375Y-60417354D01*
X93564146Y-60417581D01*
X93564148Y-60417581D01*
X93627153Y-60420056D01*
X93761946Y-60425352D01*
X93963566Y-60396119D01*
X93969030Y-60394264D01*
X93969035Y-60394263D01*
X94151010Y-60332491D01*
X94151015Y-60332489D01*
X94156482Y-60330633D01*
X94334234Y-60231087D01*
X94490869Y-60100815D01*
X94621141Y-59944180D01*
X94720687Y-59766428D01*
X94722543Y-59760961D01*
X94722545Y-59760956D01*
X94784317Y-59578981D01*
X94784318Y-59578976D01*
X94786173Y-59573512D01*
X94815406Y-59371892D01*
X94816932Y-59313629D01*
X94798291Y-59110755D01*
X94783470Y-59058203D01*
X94744558Y-58920235D01*
X94744557Y-58920233D01*
X94742990Y-58914676D01*
X94729642Y-58887607D01*
X94655439Y-58737139D01*
X94652884Y-58731958D01*
X94568707Y-58619232D01*
X94543975Y-58552683D01*
X94543665Y-58543843D01*
X94543665Y-57513749D01*
X94563667Y-57445628D01*
X94580570Y-57424654D01*
X94656399Y-57348825D01*
X94718711Y-57314799D01*
X94773301Y-57315027D01*
X94922670Y-57348825D01*
X94968380Y-57359168D01*
X94974151Y-57359395D01*
X94974153Y-57359395D01*
X95037158Y-57361870D01*
X95171951Y-57367166D01*
X95373571Y-57337933D01*
X95379035Y-57336078D01*
X95379040Y-57336077D01*
X95561015Y-57274305D01*
X95561020Y-57274303D01*
X95566487Y-57272447D01*
X95585783Y-57261641D01*
X95625629Y-57239326D01*
X95744239Y-57172901D01*
X95900874Y-57042629D01*
X96031146Y-56885994D01*
X96116423Y-56733721D01*
X96127868Y-56713285D01*
X96127869Y-56713283D01*
X96130692Y-56708242D01*
X96132548Y-56702775D01*
X96132550Y-56702770D01*
X96194322Y-56520795D01*
X96194323Y-56520790D01*
X96196178Y-56515326D01*
X96225411Y-56313706D01*
X96226937Y-56255443D01*
X96208296Y-56052569D01*
X96157636Y-55872944D01*
X96157751Y-55862178D01*
X96147814Y-55845984D01*
X96065444Y-55678953D01*
X96062889Y-55673772D01*
X96010550Y-55603681D01*
X95944446Y-55515158D01*
X95944446Y-55515157D01*
X95940993Y-55510534D01*
X95819444Y-55398175D01*
X95795631Y-55376162D01*
X95795628Y-55376160D01*
X95791391Y-55372243D01*
X95745363Y-55343202D01*
X95623976Y-55266612D01*
X95623971Y-55266610D01*
X95619092Y-55263531D01*
X95429868Y-55188038D01*
X95230054Y-55148292D01*
X95224280Y-55148216D01*
X95224276Y-55148216D01*
X95121140Y-55146867D01*
X95026343Y-55145626D01*
X95020646Y-55146605D01*
X95020645Y-55146605D01*
X94831255Y-55179148D01*
X94825558Y-55180127D01*
X94634422Y-55250641D01*
X94629461Y-55253593D01*
X94629460Y-55253593D01*
X94464305Y-55351850D01*
X94464302Y-55351852D01*
X94459337Y-55354806D01*
X94454993Y-55358616D01*
X94454987Y-55358620D01*
X94409883Y-55398175D01*
X94345479Y-55428052D01*
X94326806Y-55429443D01*
X93632024Y-55429443D01*
X93611447Y-55427751D01*
X93608353Y-55427239D01*
X93606807Y-55426983D01*
X93606806Y-55426983D01*
X93600071Y-55425868D01*
X93593254Y-55426225D01*
X93593250Y-55426225D01*
X93535153Y-55429270D01*
X93528559Y-55429443D01*
X92941130Y-55429443D01*
X92940914Y-55429440D01*
X92940807Y-55429434D01*
X92867393Y-55429434D01*
X92863875Y-55429385D01*
X92862965Y-55429360D01*
X92787047Y-55427239D01*
X92780340Y-55428518D01*
X92774005Y-55429028D01*
X92763898Y-55429434D01*
X92380367Y-55429434D01*
X92312246Y-55409432D01*
X92291272Y-55392529D01*
X92147988Y-55249245D01*
X92143480Y-55246088D01*
X92143477Y-55246086D01*
X92005422Y-55149419D01*
X91960437Y-55117920D01*
X91955453Y-55115596D01*
X91953160Y-55114272D01*
X91904167Y-55062890D01*
X91890731Y-54993176D01*
X91917117Y-54927265D01*
X91953160Y-54896034D01*
X91964690Y-54889377D01*
X92016736Y-54852934D01*
X92025112Y-54842455D01*
X92018044Y-54829009D01*
X91316500Y-54127465D01*
X91302556Y-54119851D01*
X91300723Y-54119982D01*
X91294108Y-54124233D01*
X90588611Y-54829730D01*
X90582181Y-54841505D01*
X90591477Y-54853520D01*
X90642686Y-54889377D01*
X90654216Y-54896034D01*
X90703209Y-54947416D01*
X90716646Y-55017130D01*
X90690259Y-55083041D01*
X90654216Y-55114272D01*
X90651923Y-55115596D01*
X90646939Y-55117920D01*
X90601954Y-55149419D01*
X90463899Y-55246086D01*
X90463896Y-55246088D01*
X90459388Y-55249245D01*
X90297490Y-55411143D01*
X90294333Y-55415651D01*
X90294331Y-55415654D01*
X90239590Y-55493832D01*
X90166165Y-55598694D01*
X90163842Y-55603676D01*
X90163839Y-55603681D01*
X90074762Y-55794710D01*
X90069404Y-55806200D01*
X90067982Y-55811508D01*
X90067981Y-55811510D01*
X90053567Y-55865303D01*
X90010145Y-56027356D01*
X89990190Y-56255443D01*
X90010145Y-56483530D01*
X90011569Y-56488843D01*
X90011569Y-56488845D01*
X90016999Y-56509108D01*
X90069404Y-56704686D01*
X90071727Y-56709667D01*
X90071727Y-56709668D01*
X90163839Y-56907205D01*
X90163842Y-56907210D01*
X90166165Y-56912192D01*
X90297490Y-57099743D01*
X90459388Y-57261641D01*
X90463896Y-57264798D01*
X90463899Y-57264800D01*
X90477474Y-57274305D01*
X90646939Y-57392966D01*
X90651921Y-57395289D01*
X90651926Y-57395292D01*
X90848522Y-57486965D01*
X90854445Y-57489727D01*
X90859753Y-57491149D01*
X90859755Y-57491150D01*
X91070286Y-57547562D01*
X91070288Y-57547562D01*
X91075601Y-57548986D01*
X91303688Y-57568941D01*
X91531775Y-57548986D01*
X91537088Y-57547562D01*
X91537090Y-57547562D01*
X91747621Y-57491150D01*
X91747623Y-57491149D01*
X91752931Y-57489727D01*
X91758854Y-57486965D01*
X91955450Y-57395292D01*
X91955455Y-57395289D01*
X91960437Y-57392966D01*
X92129902Y-57274305D01*
X92143477Y-57264800D01*
X92143480Y-57264798D01*
X92147988Y-57261641D01*
X92291281Y-57118348D01*
X92353593Y-57084322D01*
X92380376Y-57081443D01*
X92459360Y-57081443D01*
X92527481Y-57101445D01*
X92548455Y-57118348D01*
X92854760Y-57424653D01*
X92888786Y-57486965D01*
X92891665Y-57513748D01*
X92891665Y-58509329D01*
X92871663Y-58577450D01*
X92864615Y-58587335D01*
X92793172Y-58677960D01*
X92770034Y-58707310D01*
X92767667Y-58711809D01*
X92713961Y-58757900D01*
X92643640Y-58767669D01*
X92579200Y-58737868D01*
X92541101Y-58677960D01*
X92536165Y-58643038D01*
X92536165Y-58415499D01*
X92529410Y-58353317D01*
X92478280Y-58216928D01*
X92390926Y-58100372D01*
X92274370Y-58013018D01*
X92137981Y-57961888D01*
X92075799Y-57955133D01*
X90279531Y-57955133D01*
X90217349Y-57961888D01*
X90080960Y-58013018D01*
X89964404Y-58100372D01*
X89877050Y-58216928D01*
X89825920Y-58353317D01*
X89819165Y-58415499D01*
X89819165Y-60211767D01*
X89825920Y-60273949D01*
X89877050Y-60410338D01*
X89964404Y-60526894D01*
X90080960Y-60614248D01*
X90089369Y-60617400D01*
X90089370Y-60617401D01*
X90198116Y-60658168D01*
X90254881Y-60700809D01*
X90279581Y-60767371D01*
X90264374Y-60836720D01*
X90244981Y-60863201D01*
X90118294Y-60995771D01*
X90115380Y-61000043D01*
X90115379Y-61000044D01*
X90103074Y-61018083D01*
X89992408Y-61180313D01*
X89898353Y-61382938D01*
X89838654Y-61598203D01*
X89814916Y-61820328D01*
X89815213Y-61825481D01*
X89815213Y-61825484D01*
X89820676Y-61920223D01*
X89827775Y-62043348D01*
X89828912Y-62048394D01*
X89828913Y-62048400D01*
X89842262Y-62107633D01*
X89876887Y-62261272D01*
X89960931Y-62468249D01*
X90077652Y-62658721D01*
X90223915Y-62827571D01*
X90395791Y-62970265D01*
X90466260Y-63011444D01*
X90469110Y-63013109D01*
X90517834Y-63064747D01*
X90530905Y-63134530D01*
X90504174Y-63200302D01*
X90463720Y-63233660D01*
X90451272Y-63240140D01*
X90447139Y-63243243D01*
X90447136Y-63243245D01*
X90422912Y-63261433D01*
X90272630Y-63374268D01*
X90118294Y-63535771D01*
X90115380Y-63540043D01*
X90115379Y-63540044D01*
X90103069Y-63558090D01*
X89992408Y-63720313D01*
X89898353Y-63922938D01*
X89838654Y-64138203D01*
X89814916Y-64360328D01*
X89327672Y-64360328D01*
X89327672Y-53760918D01*
X89991171Y-53760918D01*
X90010160Y-53977962D01*
X90012063Y-53988755D01*
X90068452Y-54199204D01*
X90072198Y-54209496D01*
X90164274Y-54406954D01*
X90169757Y-54416449D01*
X90206197Y-54468491D01*
X90216676Y-54476867D01*
X90230122Y-54469799D01*
X90931666Y-53768255D01*
X90938044Y-53756575D01*
X91668096Y-53756575D01*
X91668227Y-53758408D01*
X91672478Y-53765023D01*
X92377975Y-54470520D01*
X92389750Y-54476950D01*
X92401765Y-54467654D01*
X92437619Y-54416449D01*
X92443102Y-54406954D01*
X92535178Y-54209496D01*
X92538924Y-54199204D01*
X92595313Y-53988755D01*
X92597216Y-53977962D01*
X92616205Y-53760918D01*
X92616205Y-53749968D01*
X92597216Y-53532924D01*
X92595313Y-53522131D01*
X92538924Y-53311682D01*
X92535178Y-53301390D01*
X92443102Y-53103932D01*
X92437619Y-53094437D01*
X92401179Y-53042395D01*
X92390700Y-53034019D01*
X92377254Y-53041087D01*
X91675710Y-53742631D01*
X91668096Y-53756575D01*
X90938044Y-53756575D01*
X90939280Y-53754311D01*
X90939149Y-53752478D01*
X90934898Y-53745863D01*
X90229401Y-53040366D01*
X90217626Y-53033936D01*
X90205611Y-53043232D01*
X90169757Y-53094437D01*
X90164274Y-53103932D01*
X90072198Y-53301390D01*
X90068452Y-53311682D01*
X90012063Y-53522131D01*
X90010160Y-53532924D01*
X89991171Y-53749968D01*
X89991171Y-53760918D01*
X89327672Y-53760918D01*
X89327672Y-52668431D01*
X90582264Y-52668431D01*
X90589332Y-52681877D01*
X91290876Y-53383421D01*
X91304820Y-53391035D01*
X91306653Y-53390904D01*
X91313268Y-53386653D01*
X92018765Y-52681156D01*
X92025195Y-52669381D01*
X92015899Y-52657366D01*
X91964694Y-52621512D01*
X91955199Y-52616029D01*
X91757741Y-52523953D01*
X91747449Y-52520207D01*
X91537000Y-52463818D01*
X91526207Y-52461915D01*
X91309163Y-52442926D01*
X91298213Y-52442926D01*
X91081169Y-52461915D01*
X91070376Y-52463818D01*
X90859927Y-52520207D01*
X90849635Y-52523953D01*
X90652177Y-52616029D01*
X90642682Y-52621512D01*
X90590640Y-52657952D01*
X90582264Y-52668431D01*
X89327672Y-52668431D01*
X89327672Y-51650835D01*
X90755214Y-51650835D01*
X90763350Y-51661840D01*
X91023611Y-51861544D01*
X91029210Y-51865378D01*
X91324934Y-52045181D01*
X91330924Y-52048393D01*
X91644330Y-52195203D01*
X91650634Y-52197750D01*
X91978056Y-52309851D01*
X91984607Y-52311705D01*
X92322212Y-52387787D01*
X92328931Y-52388924D01*
X92672785Y-52428102D01*
X92679575Y-52428505D01*
X93025645Y-52430317D01*
X93032446Y-52429985D01*
X93376692Y-52394411D01*
X93383420Y-52393345D01*
X93721816Y-52320798D01*
X93728365Y-52319019D01*
X94056950Y-52210350D01*
X94063292Y-52207864D01*
X94378195Y-52064355D01*
X94384249Y-52061190D01*
X94681799Y-51884518D01*
X94687480Y-51880715D01*
X94964218Y-51672935D01*
X94969442Y-51668551D01*
X94975909Y-51662499D01*
X94983978Y-51648819D01*
X94983951Y-51648095D01*
X94978807Y-51639792D01*
X92882482Y-49543466D01*
X92868541Y-49535854D01*
X92866706Y-49535985D01*
X92860092Y-49540236D01*
X90762095Y-51638234D01*
X90755214Y-51650835D01*
X89327672Y-51650835D01*
X89327672Y-49163453D01*
X89607080Y-49163453D01*
X89624590Y-49509105D01*
X89625300Y-49515861D01*
X89680036Y-49857587D01*
X89681475Y-49864242D01*
X89772795Y-50198050D01*
X89774944Y-50204511D01*
X89901783Y-50526512D01*
X89904614Y-50532695D01*
X90065484Y-50839109D01*
X90068978Y-50844970D01*
X90261990Y-51132200D01*
X90266100Y-51137654D01*
X90381583Y-51274795D01*
X90394322Y-51283239D01*
X90404765Y-51277142D01*
X92497652Y-49184256D01*
X92504029Y-49172577D01*
X93234080Y-49172577D01*
X93234211Y-49174412D01*
X93238462Y-49181026D01*
X95333225Y-51275788D01*
X95346821Y-51283213D01*
X95356434Y-51276512D01*
X95452516Y-51164806D01*
X95456674Y-51159406D01*
X95652694Y-50874197D01*
X95656241Y-50868386D01*
X95820305Y-50563684D01*
X95823212Y-50557506D01*
X95953415Y-50236857D01*
X95955629Y-50230427D01*
X96043341Y-49922511D01*
X96081240Y-49862476D01*
X96145580Y-49832462D01*
X96215933Y-49841997D01*
X96269963Y-49888054D01*
X96290520Y-49957030D01*
X96290520Y-55184049D01*
X96288774Y-55204954D01*
X96285449Y-55224717D01*
X96285296Y-55237256D01*
X96287406Y-55251990D01*
X96288355Y-55260837D01*
X96302056Y-55452416D01*
X96347908Y-55663195D01*
X96349475Y-55667397D01*
X96349477Y-55667403D01*
X96378876Y-55746223D01*
X96380370Y-55767106D01*
X96385626Y-55771760D01*
X96396961Y-55794710D01*
X96423291Y-55865303D01*
X96526669Y-56054626D01*
X96655938Y-56227310D01*
X96808467Y-56379839D01*
X96981151Y-56509108D01*
X97170474Y-56612486D01*
X97174686Y-56614057D01*
X97368374Y-56686300D01*
X97368380Y-56686302D01*
X97372582Y-56687869D01*
X97376968Y-56688823D01*
X97376971Y-56688824D01*
X97489418Y-56713285D01*
X97583361Y-56733721D01*
X97587849Y-56734042D01*
X97758117Y-56746220D01*
X97770026Y-56747644D01*
X97785982Y-56750328D01*
X97792337Y-56750406D01*
X97793662Y-56750422D01*
X97793666Y-56750422D01*
X97798521Y-56750481D01*
X97826109Y-56746530D01*
X97843972Y-56745257D01*
X102865618Y-56745257D01*
X102886523Y-56747003D01*
X102901493Y-56749522D01*
X102901498Y-56749522D01*
X102906286Y-56750328D01*
X102912616Y-56750405D01*
X102913967Y-56750422D01*
X102913971Y-56750422D01*
X102918825Y-56750481D01*
X102933559Y-56748371D01*
X102942406Y-56747422D01*
X103090602Y-56736824D01*
X103129498Y-56734042D01*
X103129499Y-56734042D01*
X103133985Y-56733721D01*
X103291867Y-56699376D01*
X103340375Y-56688824D01*
X103340378Y-56688823D01*
X103344764Y-56687869D01*
X103348966Y-56686302D01*
X103348972Y-56686300D01*
X103542660Y-56614057D01*
X103546872Y-56612486D01*
X103736195Y-56509108D01*
X103908879Y-56379839D01*
X104061408Y-56227310D01*
X104190677Y-56054626D01*
X104294055Y-55865303D01*
X104314119Y-55811510D01*
X104367869Y-55667403D01*
X104367871Y-55667397D01*
X104369438Y-55663195D01*
X104382385Y-55603681D01*
X104414334Y-55456810D01*
X104415290Y-55452416D01*
X104421024Y-55372243D01*
X104427789Y-55277660D01*
X104429213Y-55265749D01*
X104429946Y-55261391D01*
X104431897Y-55249795D01*
X104432050Y-55237256D01*
X104428099Y-55209668D01*
X104426826Y-55191805D01*
X104426826Y-51650835D01*
X105733212Y-51650835D01*
X105741348Y-51661840D01*
X106001609Y-51861544D01*
X106007208Y-51865378D01*
X106302932Y-52045181D01*
X106308922Y-52048393D01*
X106622328Y-52195203D01*
X106628632Y-52197750D01*
X106956054Y-52309851D01*
X106962605Y-52311705D01*
X107300210Y-52387787D01*
X107306929Y-52388924D01*
X107650783Y-52428102D01*
X107657573Y-52428505D01*
X108003643Y-52430317D01*
X108010444Y-52429985D01*
X108354690Y-52394411D01*
X108361418Y-52393345D01*
X108699814Y-52320798D01*
X108706363Y-52319019D01*
X109034948Y-52210350D01*
X109041290Y-52207864D01*
X109356193Y-52064355D01*
X109362247Y-52061190D01*
X109659797Y-51884518D01*
X109665478Y-51880715D01*
X109942216Y-51672935D01*
X109947440Y-51668551D01*
X109953907Y-51662499D01*
X109961976Y-51648819D01*
X109961949Y-51648095D01*
X109956805Y-51639792D01*
X107860480Y-49543466D01*
X107846539Y-49535854D01*
X107844704Y-49535985D01*
X107838090Y-49540236D01*
X105740093Y-51638234D01*
X105733212Y-51650835D01*
X104426826Y-51650835D01*
X104426826Y-49951908D01*
X104446828Y-49883787D01*
X104500484Y-49837294D01*
X104570758Y-49827190D01*
X104635338Y-49856684D01*
X104674360Y-49918660D01*
X104750793Y-50198050D01*
X104752942Y-50204511D01*
X104879781Y-50526512D01*
X104882612Y-50532695D01*
X105043482Y-50839109D01*
X105046976Y-50844970D01*
X105239988Y-51132200D01*
X105244098Y-51137654D01*
X105359581Y-51274795D01*
X105372320Y-51283239D01*
X105382763Y-51277142D01*
X107475650Y-49184256D01*
X107482027Y-49172577D01*
X108212078Y-49172577D01*
X108212209Y-49174412D01*
X108216460Y-49181026D01*
X110311223Y-51275788D01*
X110324819Y-51283213D01*
X110334432Y-51276512D01*
X110430514Y-51164806D01*
X110434672Y-51159406D01*
X110630692Y-50874197D01*
X110634239Y-50868386D01*
X110798303Y-50563684D01*
X110801210Y-50557506D01*
X110931413Y-50236857D01*
X110933627Y-50230427D01*
X111028438Y-49897589D01*
X111029945Y-49890959D01*
X111088259Y-49549808D01*
X111089039Y-49543068D01*
X111110264Y-49196022D01*
X111110380Y-49192419D01*
X111110448Y-49173265D01*
X111110356Y-49169640D01*
X111091554Y-48822469D01*
X111090819Y-48815703D01*
X111034893Y-48474184D01*
X111033426Y-48467512D01*
X110940947Y-48134044D01*
X110938773Y-48127581D01*
X110810811Y-47806028D01*
X110807955Y-47799848D01*
X110646017Y-47494000D01*
X110642517Y-47488175D01*
X110448481Y-47201585D01*
X110444374Y-47196175D01*
X110335759Y-47068101D01*
X110322934Y-47059665D01*
X110312610Y-47065717D01*
X108219690Y-49158636D01*
X108212078Y-49172577D01*
X107482027Y-49172577D01*
X107483262Y-49170315D01*
X107483131Y-49168480D01*
X107478880Y-49161866D01*
X105384128Y-47067115D01*
X105370591Y-47059723D01*
X105360889Y-47066511D01*
X105257878Y-47187122D01*
X105253745Y-47192527D01*
X105058721Y-47478422D01*
X105055200Y-47484235D01*
X104892192Y-47789520D01*
X104889306Y-47795710D01*
X104760228Y-48116803D01*
X104758037Y-48123238D01*
X104674125Y-48421764D01*
X104636436Y-48481931D01*
X104572201Y-48512169D01*
X104501815Y-48502880D01*
X104447624Y-48457012D01*
X104426826Y-48387668D01*
X104426826Y-47648727D01*
X104428572Y-47627822D01*
X104431091Y-47612852D01*
X104431091Y-47612847D01*
X104431897Y-47608059D01*
X104432050Y-47595520D01*
X104429940Y-47580786D01*
X104428990Y-47571928D01*
X104423001Y-47488175D01*
X104415290Y-47380360D01*
X104369438Y-47169581D01*
X104367871Y-47165379D01*
X104367869Y-47165373D01*
X104295626Y-46971685D01*
X104294055Y-46967473D01*
X104288248Y-46956837D01*
X104192836Y-46782104D01*
X104190677Y-46778150D01*
X104127445Y-46693681D01*
X105732993Y-46693681D01*
X105733027Y-46694520D01*
X105738082Y-46702647D01*
X107834860Y-48799426D01*
X107848801Y-48807038D01*
X107850636Y-48806907D01*
X107857250Y-48802656D01*
X109955100Y-46704805D01*
X109962714Y-46690861D01*
X109962646Y-46689907D01*
X109958692Y-46683928D01*
X109684334Y-46474923D01*
X109678710Y-46471101D01*
X109382369Y-46292337D01*
X109376362Y-46289144D01*
X109062459Y-46143434D01*
X109056136Y-46140905D01*
X108728324Y-46029947D01*
X108721766Y-46028117D01*
X108383902Y-45953213D01*
X108377173Y-45952099D01*
X108033185Y-45914122D01*
X108026405Y-45913743D01*
X107680306Y-45913140D01*
X107673533Y-45913495D01*
X107329396Y-45950272D01*
X107322686Y-45951359D01*
X106984554Y-46025084D01*
X106977979Y-46026895D01*
X106649787Y-46136706D01*
X106643465Y-46139209D01*
X106329058Y-46283820D01*
X106323015Y-46287006D01*
X106026076Y-46464720D01*
X106020416Y-46468538D01*
X105744403Y-46677287D01*
X105740811Y-46680321D01*
X105732993Y-46693681D01*
X104127445Y-46693681D01*
X104061408Y-46605466D01*
X103908879Y-46452937D01*
X103736195Y-46323668D01*
X103702381Y-46305204D01*
X103550819Y-46222445D01*
X103550817Y-46222444D01*
X103546872Y-46220290D01*
X103539861Y-46217675D01*
X103348972Y-46146476D01*
X103348966Y-46146474D01*
X103344764Y-46144907D01*
X103340378Y-46143953D01*
X103340375Y-46143952D01*
X103216205Y-46116941D01*
X103133985Y-46099055D01*
X103129497Y-46098734D01*
X102959229Y-46086556D01*
X102947318Y-46085132D01*
X102931364Y-46082448D01*
X102925009Y-46082370D01*
X102923684Y-46082354D01*
X102923680Y-46082354D01*
X102918825Y-46082295D01*
X102894540Y-46085773D01*
X102891237Y-46086246D01*
X102873374Y-46087519D01*
X97851728Y-46087519D01*
X97830823Y-46085773D01*
X97815853Y-46083254D01*
X97815848Y-46083254D01*
X97811060Y-46082448D01*
X97804730Y-46082371D01*
X97803379Y-46082354D01*
X97803375Y-46082354D01*
X97798521Y-46082295D01*
X97783787Y-46084405D01*
X97774940Y-46085354D01*
X97626744Y-46095952D01*
X97587848Y-46098734D01*
X97587847Y-46098734D01*
X97583361Y-46099055D01*
X97435037Y-46131321D01*
X97376971Y-46143952D01*
X97376968Y-46143953D01*
X97372582Y-46144907D01*
X97368380Y-46146474D01*
X97368374Y-46146476D01*
X97177485Y-46217675D01*
X97170474Y-46220290D01*
X97166529Y-46222444D01*
X97166527Y-46222445D01*
X97014965Y-46305204D01*
X96981151Y-46323668D01*
X96808467Y-46452937D01*
X96655938Y-46605466D01*
X96526669Y-46778150D01*
X96524510Y-46782104D01*
X96429099Y-46956837D01*
X96423291Y-46967473D01*
X96421720Y-46971685D01*
X96349477Y-47165373D01*
X96349475Y-47165379D01*
X96347908Y-47169581D01*
X96346954Y-47173967D01*
X96346953Y-47173970D01*
X96321982Y-47288762D01*
X96302056Y-47380360D01*
X96301735Y-47384847D01*
X96301735Y-47384848D01*
X96289557Y-47555116D01*
X96288133Y-47567025D01*
X96285449Y-47582981D01*
X96285296Y-47595520D01*
X96285986Y-47600335D01*
X96289247Y-47623108D01*
X96290520Y-47640971D01*
X96290520Y-48389397D01*
X96270518Y-48457518D01*
X96216862Y-48504011D01*
X96146588Y-48514115D01*
X96082008Y-48484621D01*
X96043103Y-48423069D01*
X95962949Y-48134044D01*
X95960775Y-48127581D01*
X95832813Y-47806028D01*
X95829957Y-47799848D01*
X95668019Y-47494000D01*
X95664519Y-47488175D01*
X95470483Y-47201585D01*
X95466376Y-47196175D01*
X95357761Y-47068101D01*
X95344936Y-47059665D01*
X95334612Y-47065717D01*
X93241692Y-49158636D01*
X93234080Y-49172577D01*
X92504029Y-49172577D01*
X92505264Y-49170315D01*
X92505133Y-49168480D01*
X92500882Y-49161866D01*
X90406130Y-47067115D01*
X90392593Y-47059723D01*
X90382891Y-47066511D01*
X90279880Y-47187122D01*
X90275747Y-47192527D01*
X90080723Y-47478422D01*
X90077202Y-47484235D01*
X89914194Y-47789520D01*
X89911308Y-47795710D01*
X89782230Y-48116803D01*
X89780039Y-48123238D01*
X89686387Y-48456414D01*
X89684904Y-48463049D01*
X89627785Y-48804382D01*
X89627026Y-48811154D01*
X89607104Y-49156658D01*
X89607080Y-49163453D01*
X89327672Y-49163453D01*
X89327672Y-48170774D01*
X89329172Y-48151389D01*
X89331477Y-48136588D01*
X89331477Y-48136585D01*
X89332858Y-48127716D01*
X89330613Y-48110547D01*
X89329780Y-48086607D01*
X89345382Y-47828676D01*
X89347216Y-47813572D01*
X89360186Y-47742798D01*
X89398712Y-47532567D01*
X89402351Y-47517799D01*
X89411583Y-47488175D01*
X89487347Y-47245038D01*
X89492742Y-47230816D01*
X89609988Y-46970306D01*
X89617057Y-46956837D01*
X89764854Y-46712351D01*
X89773497Y-46699829D01*
X89778314Y-46693681D01*
X90754995Y-46693681D01*
X90755029Y-46694520D01*
X90760084Y-46702647D01*
X92856862Y-48799426D01*
X92870803Y-48807038D01*
X92872638Y-48806907D01*
X92879252Y-48802656D01*
X94977102Y-46704805D01*
X94984716Y-46690861D01*
X94984648Y-46689907D01*
X94980694Y-46683928D01*
X94706336Y-46474923D01*
X94700712Y-46471101D01*
X94404371Y-46292337D01*
X94398364Y-46289144D01*
X94084461Y-46143434D01*
X94078138Y-46140905D01*
X93750326Y-46029947D01*
X93743768Y-46028117D01*
X93405904Y-45953213D01*
X93399175Y-45952099D01*
X93055187Y-45914122D01*
X93048407Y-45913743D01*
X92702308Y-45913140D01*
X92695535Y-45913495D01*
X92351398Y-45950272D01*
X92344688Y-45951359D01*
X92006556Y-46025084D01*
X91999981Y-46026895D01*
X91671789Y-46136706D01*
X91665467Y-46139209D01*
X91351060Y-46283820D01*
X91345017Y-46287006D01*
X91048078Y-46464720D01*
X91042418Y-46468538D01*
X90766405Y-46677287D01*
X90762813Y-46680321D01*
X90754995Y-46693681D01*
X89778314Y-46693681D01*
X89949688Y-46474939D01*
X89959778Y-46463551D01*
X90161777Y-46261552D01*
X90173165Y-46251462D01*
X90398055Y-46075271D01*
X90410577Y-46066628D01*
X90655063Y-45918831D01*
X90668532Y-45911762D01*
X90929045Y-45794515D01*
X90943264Y-45789121D01*
X91216031Y-45704124D01*
X91230793Y-45700486D01*
X91441024Y-45661960D01*
X91511798Y-45648990D01*
X91526902Y-45647156D01*
X91777601Y-45631991D01*
X91804311Y-45633248D01*
X91804531Y-45633251D01*
X91813402Y-45634632D01*
X91822304Y-45633468D01*
X91822307Y-45633468D01*
X91845015Y-45630498D01*
X91861353Y-45629434D01*
X108848265Y-45629434D01*
X108867649Y-45630934D01*
G37*
%TD.AperFunction*%
%TD*%
M02*
