%TF.GenerationSoftware,KiCad,Pcbnew,(6.0.0)*%
%TF.CreationDate,2022-03-16T01:45:40-04:00*%
%TF.ProjectId,JTAG_ISP-BOTH,4a544147-5f49-4535-902d-424f54482e6b,v1.0.0*%
%TF.SameCoordinates,Original*%
%TF.FileFunction,Copper,L1,Top*%
%TF.FilePolarity,Positive*%
%FSLAX46Y46*%
G04 Gerber Fmt 4.6, Leading zero omitted, Abs format (unit mm)*
G04 Created by KiCad (PCBNEW (6.0.0)) date 2022-03-16 01:45:40*
%MOMM*%
%LPD*%
G01*
G04 APERTURE LIST*
%ADD10C,0.190500*%
%TA.AperFunction,NonConductor*%
%ADD11C,0.190500*%
%TD*%
%TA.AperFunction,EtchedComponent*%
%ADD12C,0.508000*%
%TD*%
%TA.AperFunction,ComponentPad*%
%ADD13R,1.700000X1.700000*%
%TD*%
%TA.AperFunction,ComponentPad*%
%ADD14O,1.700000X1.700000*%
%TD*%
%TA.AperFunction,ComponentPad*%
%ADD15C,1.600000*%
%TD*%
%TA.AperFunction,ComponentPad*%
%ADD16O,1.600000X1.600000*%
%TD*%
%TA.AperFunction,ComponentPad*%
%ADD17R,1.800000X1.800000*%
%TD*%
%TA.AperFunction,ComponentPad*%
%ADD18C,1.800000*%
%TD*%
%TA.AperFunction,ComponentPad*%
%ADD19C,3.200001*%
%TD*%
%TA.AperFunction,ComponentPad*%
%ADD20C,1.700000*%
%TD*%
%TA.AperFunction,ViaPad*%
%ADD21C,1.200000*%
%TD*%
%TA.AperFunction,Conductor*%
%ADD22C,0.508000*%
%TD*%
%TA.AperFunction,Conductor*%
%ADD23C,0.250000*%
%TD*%
G04 APERTURE END LIST*
D10*
D11*
X182667624Y-96553956D02*
X183320767Y-96553956D01*
X182994196Y-97696956D02*
X182994196Y-96553956D01*
X183701767Y-97588099D02*
X183756196Y-97642527D01*
X183701767Y-97696956D01*
X183647339Y-97642527D01*
X183701767Y-97588099D01*
X183701767Y-97696956D01*
X184246053Y-97696956D02*
X184246053Y-96553956D01*
X184518196Y-96553956D01*
X184681482Y-96608385D01*
X184790339Y-96717242D01*
X184844767Y-96826099D01*
X184899196Y-97043813D01*
X184899196Y-97207099D01*
X184844767Y-97424813D01*
X184790339Y-97533670D01*
X184681482Y-97642527D01*
X184518196Y-97696956D01*
X184246053Y-97696956D01*
X185389053Y-97588099D02*
X185443482Y-97642527D01*
X185389053Y-97696956D01*
X185334624Y-97642527D01*
X185389053Y-97588099D01*
X185389053Y-97696956D01*
X178558267Y-98503043D02*
X178612696Y-98448615D01*
X178721553Y-98394186D01*
X178993696Y-98394186D01*
X179102553Y-98448615D01*
X179156982Y-98503043D01*
X179211410Y-98611900D01*
X179211410Y-98720757D01*
X179156982Y-98884043D01*
X178503839Y-99537186D01*
X179211410Y-99537186D01*
X179918982Y-98394186D02*
X180027839Y-98394186D01*
X180136696Y-98448615D01*
X180191124Y-98503043D01*
X180245553Y-98611900D01*
X180299982Y-98829615D01*
X180299982Y-99101757D01*
X180245553Y-99319472D01*
X180191124Y-99428329D01*
X180136696Y-99482757D01*
X180027839Y-99537186D01*
X179918982Y-99537186D01*
X179810124Y-99482757D01*
X179755696Y-99428329D01*
X179701267Y-99319472D01*
X179646839Y-99101757D01*
X179646839Y-98829615D01*
X179701267Y-98611900D01*
X179755696Y-98503043D01*
X179810124Y-98448615D01*
X179918982Y-98394186D01*
X180735410Y-98503043D02*
X180789839Y-98448615D01*
X180898696Y-98394186D01*
X181170839Y-98394186D01*
X181279696Y-98448615D01*
X181334124Y-98503043D01*
X181388553Y-98611900D01*
X181388553Y-98720757D01*
X181334124Y-98884043D01*
X180680982Y-99537186D01*
X181388553Y-99537186D01*
X181823982Y-98503043D02*
X181878410Y-98448615D01*
X181987267Y-98394186D01*
X182259410Y-98394186D01*
X182368267Y-98448615D01*
X182422696Y-98503043D01*
X182477124Y-98611900D01*
X182477124Y-98720757D01*
X182422696Y-98884043D01*
X181769553Y-99537186D01*
X182477124Y-99537186D01*
X182966982Y-99101757D02*
X183837839Y-99101757D01*
X184599839Y-98394186D02*
X184708696Y-98394186D01*
X184817553Y-98448615D01*
X184871982Y-98503043D01*
X184926410Y-98611900D01*
X184980839Y-98829615D01*
X184980839Y-99101757D01*
X184926410Y-99319472D01*
X184871982Y-99428329D01*
X184817553Y-99482757D01*
X184708696Y-99537186D01*
X184599839Y-99537186D01*
X184490982Y-99482757D01*
X184436553Y-99428329D01*
X184382124Y-99319472D01*
X184327696Y-99101757D01*
X184327696Y-98829615D01*
X184382124Y-98611900D01*
X184436553Y-98503043D01*
X184490982Y-98448615D01*
X184599839Y-98394186D01*
X185361839Y-98394186D02*
X186069410Y-98394186D01*
X185688410Y-98829615D01*
X185851696Y-98829615D01*
X185960553Y-98884043D01*
X186014982Y-98938472D01*
X186069410Y-99047329D01*
X186069410Y-99319472D01*
X186014982Y-99428329D01*
X185960553Y-99482757D01*
X185851696Y-99537186D01*
X185525124Y-99537186D01*
X185416267Y-99482757D01*
X185361839Y-99428329D01*
X186559267Y-99101757D02*
X187430124Y-99101757D01*
X188573124Y-99537186D02*
X187919982Y-99537186D01*
X188246553Y-99537186D02*
X188246553Y-98394186D01*
X188137696Y-98557472D01*
X188028839Y-98666329D01*
X187919982Y-98720757D01*
X188954124Y-98394186D02*
X189661696Y-98394186D01*
X189280696Y-98829615D01*
X189443982Y-98829615D01*
X189552839Y-98884043D01*
X189607267Y-98938472D01*
X189661696Y-99047329D01*
X189661696Y-99319472D01*
X189607267Y-99428329D01*
X189552839Y-99482757D01*
X189443982Y-99537186D01*
X189117410Y-99537186D01*
X189008553Y-99482757D01*
X188954124Y-99428329D01*
D12*
%TO.C,REF\u002A\u002A*%
X181974980Y-75445005D02*
X180736984Y-74856995D01*
X180736984Y-76033005D02*
X181974989Y-75445005D01*
X180819982Y-75920000D02*
X181259982Y-75260000D01*
X180736984Y-76033005D02*
X180736984Y-74856995D01*
%TD*%
D13*
%TO.P,J1,1,Pin_1*%
%TO.N,MISO*%
X157724991Y-70056566D03*
D14*
%TO.P,J1,2,Pin_2*%
%TO.N,SCLK*%
X155184991Y-70056566D03*
%TO.P,J1,3,Pin_3*%
%TO.N,RESET*%
X157724991Y-67516566D03*
%TO.P,J1,4,Pin_4*%
%TO.N,GND*%
X155184991Y-67516566D03*
%TO.P,J1,5,Pin_5*%
%TO.N,MOSI*%
X157724991Y-64976566D03*
%TO.P,J1,6,Pin_6*%
%TO.N,+5V*%
X155184991Y-64976566D03*
%TD*%
D15*
%TO.P,R1,1*%
%TO.N,Net-(D1-Pad1)*%
X160000000Y-97211567D03*
D16*
%TO.P,R1,2*%
%TO.N,GND*%
X160000000Y-87051567D03*
%TD*%
D17*
%TO.P,D1,1,K*%
%TO.N,Net-(D1-Pad1)*%
X157724989Y-104831567D03*
D18*
%TO.P,D1,2,A*%
%TO.N,MISO*%
X155184989Y-104831567D03*
%TD*%
D15*
%TO.P,C1,1*%
%TO.N,+5V*%
X150593988Y-77983999D03*
%TO.P,C1,2*%
%TO.N,GND*%
X150593988Y-80483999D03*
%TD*%
D19*
%TO.P,REF\u002A\u002A,*%
%TO.N,*%
X163943978Y-103333995D03*
%TD*%
%TO.P,REF\u002A\u002A,*%
%TO.N,*%
X148965979Y-65297572D03*
%TD*%
D20*
%TO.P,J3,1,Pin_1*%
%TO.N,SCLK*%
X165635999Y-75439766D03*
D14*
%TO.P,J3,2,Pin_2*%
%TO.N,unconnected-(J3-Pad2)*%
X165635999Y-77979766D03*
%TO.P,J3,3,Pin_3*%
%TO.N,RESET*%
X165635999Y-80519766D03*
%TO.P,J3,4,Pin_4*%
%TO.N,unconnected-(J3-Pad4)*%
X165635999Y-83059766D03*
%TO.P,J3,5,Pin_5*%
%TO.N,MOSI*%
X165635999Y-85599766D03*
%TO.P,J3,6,Pin_6*%
%TO.N,unconnected-(J3-Pad6)*%
X165635999Y-88139766D03*
%TO.P,J3,7,Pin_7*%
%TO.N,unconnected-(J3-Pad7)*%
X165635999Y-90679766D03*
%TO.P,J3,8,Pin_8*%
%TO.N,unconnected-(J3-Pad8)*%
X165635999Y-93219766D03*
%TD*%
D19*
%TO.P,REF\u002A\u002A,*%
%TO.N,*%
X148965979Y-103333995D03*
%TD*%
%TO.P,REF\u002A\u002A,*%
%TO.N,*%
X163943978Y-65297572D03*
%TD*%
D13*
%TO.P,J2,1,Pin_1*%
%TO.N,unconnected-(J2-Pad1)*%
X147273983Y-75439766D03*
D14*
%TO.P,J2,2,Pin_2*%
%TO.N,+5V*%
X147273983Y-77979766D03*
%TO.P,J2,3,Pin_3*%
%TO.N,unconnected-(J2-Pad3)*%
X147273983Y-80519766D03*
%TO.P,J2,4,Pin_4*%
%TO.N,GND*%
X147273983Y-83059766D03*
%TO.P,J2,5,Pin_5*%
%TO.N,unconnected-(J2-Pad5)*%
X147273983Y-85599766D03*
%TO.P,J2,6,Pin_6*%
%TO.N,MISO*%
X147273983Y-88139766D03*
%TO.P,J2,7,Pin_7*%
%TO.N,unconnected-(J2-Pad7)*%
X147273983Y-90679766D03*
%TO.P,J2,8,Pin_8*%
%TO.N,SCLK*%
X147273983Y-93219766D03*
%TD*%
D13*
%TO.P,JTAG1,1,#MCLR*%
%TO.N,N/C*%
X184164973Y-75408199D03*
D14*
%TO.P,JTAG1,2,VDD*%
%TO.N,+5V*%
X184164973Y-77948199D03*
%TO.P,JTAG1,3,GND*%
%TO.N,GND*%
X184164973Y-80488199D03*
%TO.P,JTAG1,4,TDO*%
%TO.N,N/C*%
X184164973Y-83028199D03*
%TO.P,JTAG1,5,TCK*%
X184164973Y-85568199D03*
%TO.P,JTAG1,6,#RESET*%
X184164973Y-88108199D03*
%TO.P,JTAG1,7,TDI*%
X184164973Y-90648199D03*
%TO.P,JTAG1,8,TMS*%
X184164973Y-93188199D03*
%TD*%
D15*
%TO.P,C1,1*%
%TO.N,+5V*%
X175109982Y-72350000D03*
%TO.P,C1,2*%
%TO.N,GND*%
X175109982Y-69850000D03*
%TD*%
D19*
%TO.P,REF\u002A\u002A,*%
%TO.N,*%
X176675972Y-103302432D03*
%TD*%
%TO.P,REF\u002A\u002A,*%
%TO.N,*%
X191653970Y-103302432D03*
%TD*%
D13*
%TO.P,J1,1,Pin_1*%
%TO.N,N/C*%
X174983971Y-75408192D03*
D14*
%TO.P,J1,2,Pin_2*%
%TO.N,+5V*%
X174983971Y-77948192D03*
%TO.P,J1,3,Pin_3*%
%TO.N,N/C*%
X174983971Y-80488192D03*
%TO.P,J1,4,Pin_4*%
%TO.N,GND*%
X174983971Y-83028192D03*
%TO.P,J1,5,Pin_5*%
%TO.N,N/C*%
X174983971Y-85568192D03*
%TO.P,J1,6,Pin_6*%
X174983971Y-88108192D03*
%TO.P,J1,7,Pin_7*%
X174983971Y-90648192D03*
%TO.P,J1,8,Pin_8*%
X174983971Y-93188192D03*
%TD*%
D20*
%TO.P,J2,1,Pin_1*%
%TO.N,N/C*%
X193345971Y-75408192D03*
D14*
%TO.P,J2,2,Pin_2*%
X193345971Y-77948192D03*
%TO.P,J2,3,Pin_3*%
X193345971Y-80488192D03*
%TO.P,J2,4,Pin_4*%
X193345971Y-83028192D03*
%TO.P,J2,5,Pin_5*%
X193345971Y-85568192D03*
%TO.P,J2,6,Pin_6*%
X193345971Y-88108192D03*
%TO.P,J2,7,Pin_7*%
X193345971Y-90648192D03*
%TO.P,J2,8,Pin_8*%
X193345971Y-93188192D03*
%TD*%
D19*
%TO.P,REF\u002A\u002A,*%
%TO.N,*%
X191653970Y-65266012D03*
%TD*%
%TO.P,REF\u002A\u002A,*%
%TO.N,*%
X176675972Y-65266012D03*
%TD*%
D21*
%TO.N,GND*%
X157393988Y-80533999D03*
%TO.N,MISO*%
X153493988Y-75733999D03*
%TO.N,RESET*%
X159593988Y-80533999D03*
%TO.N,MOSI*%
X160993988Y-81881266D03*
%TO.N,SCLK*%
X155200000Y-72781567D03*
%TO.N,MISO*%
X153493988Y-86933999D03*
%TO.N,GND*%
X151743988Y-90583999D03*
X162800000Y-83131567D03*
%TO.N,Net-(D1-Pad1)*%
X160000000Y-100031567D03*
%TO.N,GND*%
X190709982Y-78000000D03*
X191009982Y-83100000D03*
%TO.N,*%
X187743731Y-90648199D03*
X180078210Y-85568192D03*
X186727731Y-85568199D03*
X188251732Y-93188192D03*
X187235731Y-88108199D03*
X180078210Y-83028192D03*
%TO.N,GND*%
X178103970Y-90602432D03*
%TO.N,+5V*%
X180078210Y-77948192D03*
%TD*%
D22*
%TO.N,RESET*%
X159593988Y-68133999D02*
X158976555Y-67516566D01*
X158976555Y-67516566D02*
X157724991Y-67516566D01*
X159593988Y-80533999D02*
X159593988Y-68133999D01*
%TO.N,+5V*%
X153405001Y-64976566D02*
X152550000Y-65831567D01*
X155184991Y-64976566D02*
X153405001Y-64976566D01*
X152550000Y-65831567D02*
X152550000Y-73877987D01*
%TO.N,SCLK*%
X155184991Y-70056566D02*
X155184991Y-72766569D01*
D23*
X155184991Y-72766558D02*
X155200000Y-72781567D01*
D22*
%TO.N,+5V*%
X150593988Y-75833999D02*
X150593988Y-77983999D01*
X152550000Y-73877987D02*
X150593988Y-75833999D01*
%TO.N,MISO*%
X154100000Y-104831567D02*
X155184989Y-104831567D01*
X153493988Y-104225555D02*
X154100000Y-104831567D01*
X153493988Y-86933999D02*
X153493988Y-104225555D01*
%TO.N,Net-(D1-Pad1)*%
X160000000Y-97211567D02*
X160000000Y-100031567D01*
%TO.N,MOSI*%
X160955499Y-65895510D02*
X160036555Y-64976566D01*
X160036555Y-64976566D02*
X157724991Y-64976566D01*
X160955499Y-81842777D02*
X160955499Y-65895510D01*
X160993988Y-81881266D02*
X160955499Y-81842777D01*
%TO.N,MISO*%
X153493988Y-75733999D02*
X154593988Y-74633999D01*
X154593988Y-74633999D02*
X157093988Y-74633999D01*
X157093988Y-74633999D02*
X157743988Y-73983999D01*
X157724991Y-73965002D02*
X157724991Y-70056566D01*
X157743988Y-73983999D02*
X157724991Y-73965002D01*
%TO.N,*%
X189294462Y-87415520D02*
X188601783Y-88108199D01*
X190121790Y-80488192D02*
X189309982Y-81300000D01*
X189218174Y-75408192D02*
X193345971Y-75408192D01*
X193345971Y-80488192D02*
X190121790Y-80488192D01*
X186727731Y-85568199D02*
X187841783Y-85568199D01*
X189309982Y-81300000D02*
X189309982Y-85863838D01*
X188294462Y-76331904D02*
X189218174Y-75408192D01*
X187841783Y-85568199D02*
X188294462Y-85115520D01*
X188294462Y-85115520D02*
X188294462Y-76331904D01*
X189309982Y-85863838D02*
X189294462Y-85879358D01*
X189294462Y-85879358D02*
X189294462Y-87415520D01*
X188601783Y-88108199D02*
X187235731Y-88108199D01*
X188251732Y-90648192D02*
X189361790Y-90648192D01*
X190309982Y-86300000D02*
X191041790Y-85568192D01*
X191041790Y-85568192D02*
X193345971Y-85568192D01*
X190309982Y-89700000D02*
X190309982Y-86300000D01*
X189361790Y-90648192D02*
X190309982Y-89700000D01*
X188251732Y-93188192D02*
X188321790Y-93188192D01*
X190861790Y-90648192D02*
X193345971Y-90648192D01*
X188321790Y-93188192D02*
X190861790Y-90648192D01*
X178503970Y-83552432D02*
X179028210Y-83028192D01*
%TO.N,+5V*%
X174983971Y-77948192D02*
X180078210Y-77948192D01*
%TO.N,*%
X180078210Y-92428192D02*
X180078210Y-85568192D01*
X177748210Y-88108192D02*
X178503970Y-87352432D01*
X178503970Y-87352432D02*
X178503970Y-83552432D01*
X174983971Y-93188192D02*
X179318210Y-93188192D01*
X179028210Y-83028192D02*
X180078210Y-83028192D01*
X174983971Y-88108192D02*
X177748210Y-88108192D01*
X179318210Y-93188192D02*
X180078210Y-92428192D01*
%TD*%
%TA.AperFunction,Conductor*%
%TO.N,GND*%
G36*
X192674027Y-61725512D02*
G01*
X192688828Y-61727817D01*
X192688831Y-61727817D01*
X192697700Y-61729198D01*
X192714869Y-61726953D01*
X192738809Y-61726120D01*
X192996740Y-61741722D01*
X193011844Y-61743556D01*
X193082618Y-61756526D01*
X193292849Y-61795052D01*
X193307611Y-61798690D01*
X193580378Y-61883687D01*
X193594597Y-61889081D01*
X193855110Y-62006328D01*
X193868579Y-62013397D01*
X194113065Y-62161194D01*
X194125587Y-62169837D01*
X194350477Y-62346028D01*
X194361865Y-62356118D01*
X194563864Y-62558117D01*
X194573954Y-62569505D01*
X194750145Y-62794395D01*
X194758788Y-62806917D01*
X194906585Y-63051403D01*
X194913654Y-63064872D01*
X195006038Y-63270141D01*
X195030900Y-63325382D01*
X195036295Y-63339604D01*
X195095117Y-63528369D01*
X195121291Y-63612365D01*
X195124930Y-63627133D01*
X195140176Y-63710325D01*
X195176426Y-63908138D01*
X195178260Y-63923242D01*
X195193425Y-64173941D01*
X195192168Y-64200651D01*
X195192165Y-64200871D01*
X195190784Y-64209742D01*
X195191948Y-64218644D01*
X195191948Y-64218647D01*
X195194906Y-64241263D01*
X195195970Y-64257601D01*
X195195970Y-104303104D01*
X195194470Y-104322488D01*
X195190784Y-104346162D01*
X195192424Y-104358702D01*
X195193029Y-104363329D01*
X195193862Y-104387271D01*
X195178260Y-104645202D01*
X195176426Y-104660306D01*
X195171539Y-104686974D01*
X195136961Y-104875665D01*
X195124932Y-104941305D01*
X195121292Y-104956073D01*
X195046187Y-105197095D01*
X195036296Y-105228836D01*
X195030901Y-105243059D01*
X194954666Y-105412448D01*
X194913656Y-105503568D01*
X194906585Y-105517041D01*
X194758788Y-105761527D01*
X194750145Y-105774049D01*
X194573954Y-105998939D01*
X194563864Y-106010327D01*
X194361865Y-106212326D01*
X194350477Y-106222416D01*
X194125587Y-106398607D01*
X194113065Y-106407250D01*
X193868579Y-106555047D01*
X193855110Y-106562116D01*
X193594600Y-106679362D01*
X193580378Y-106684757D01*
X193307611Y-106769754D01*
X193292849Y-106773392D01*
X193082618Y-106811918D01*
X193011844Y-106824888D01*
X192996740Y-106826722D01*
X192746041Y-106841887D01*
X192719331Y-106840630D01*
X192719111Y-106840627D01*
X192710240Y-106839246D01*
X192701338Y-106840410D01*
X192701335Y-106840410D01*
X192678719Y-106843368D01*
X192662381Y-106844432D01*
X187864278Y-106844432D01*
X187844894Y-106842932D01*
X187830093Y-106840627D01*
X187830089Y-106840627D01*
X187821220Y-106839246D01*
X187812318Y-106840410D01*
X187812314Y-106840410D01*
X187812218Y-106840423D01*
X187781781Y-106840694D01*
X187719576Y-106833686D01*
X187692069Y-106827408D01*
X187614879Y-106800398D01*
X187589460Y-106788156D01*
X187520213Y-106744645D01*
X187498154Y-106727053D01*
X187440330Y-106669229D01*
X187422738Y-106647170D01*
X187379227Y-106577923D01*
X187366985Y-106552502D01*
X187339976Y-106475315D01*
X187333697Y-106447808D01*
X187327429Y-106392181D01*
X187326646Y-106376535D01*
X187326755Y-106367577D01*
X187328137Y-106358703D01*
X187324015Y-106327181D01*
X187322951Y-106310844D01*
X187322951Y-104755650D01*
X187324697Y-104734746D01*
X187327215Y-104719778D01*
X187328022Y-104714982D01*
X187328175Y-104702443D01*
X187327484Y-104697618D01*
X187327426Y-104696732D01*
X187326474Y-104686974D01*
X187310767Y-104387271D01*
X187309961Y-104371889D01*
X187309313Y-104367793D01*
X187279919Y-104182211D01*
X187258180Y-104044957D01*
X187172509Y-103725228D01*
X187138730Y-103637229D01*
X187055071Y-103419291D01*
X187053887Y-103416206D01*
X186984640Y-103280301D01*
X189540659Y-103280301D01*
X189557208Y-103567315D01*
X189558033Y-103571520D01*
X189558034Y-103571528D01*
X189587583Y-103722138D01*
X189612556Y-103849427D01*
X189613943Y-103853477D01*
X189613944Y-103853482D01*
X189679501Y-104044957D01*
X189705680Y-104121418D01*
X189707607Y-104125249D01*
X189829594Y-104367793D01*
X189834855Y-104378254D01*
X189997691Y-104615182D01*
X190000578Y-104618355D01*
X190000579Y-104618356D01*
X190088502Y-104714982D01*
X190191176Y-104827820D01*
X190194471Y-104830575D01*
X190194472Y-104830576D01*
X190344573Y-104956079D01*
X190411729Y-105012230D01*
X190655268Y-105165003D01*
X190917288Y-105283309D01*
X190921407Y-105284529D01*
X191188827Y-105363743D01*
X191188832Y-105363744D01*
X191192940Y-105364961D01*
X191197174Y-105365609D01*
X191197179Y-105365610D01*
X191445781Y-105403651D01*
X191477123Y-105408447D01*
X191623455Y-105410746D01*
X191760287Y-105412896D01*
X191760293Y-105412896D01*
X191764578Y-105412963D01*
X191768830Y-105412448D01*
X191768838Y-105412448D01*
X192045726Y-105378940D01*
X192045731Y-105378939D01*
X192049987Y-105378424D01*
X192328067Y-105305471D01*
X192593674Y-105195453D01*
X192841892Y-105050406D01*
X193068129Y-104873014D01*
X193109255Y-104830576D01*
X193225983Y-104710121D01*
X193268197Y-104666560D01*
X193270730Y-104663112D01*
X193270734Y-104663107D01*
X193435857Y-104438318D01*
X193438395Y-104434863D01*
X193460309Y-104394503D01*
X193573524Y-104185987D01*
X193573525Y-104185985D01*
X193575574Y-104182211D01*
X193677195Y-103913280D01*
X193719533Y-103728420D01*
X193740419Y-103637229D01*
X193740420Y-103637225D01*
X193741377Y-103633045D01*
X193762312Y-103398476D01*
X193766713Y-103349158D01*
X193766713Y-103349156D01*
X193766933Y-103346692D01*
X193767397Y-103302432D01*
X193765597Y-103276030D01*
X193748135Y-103019884D01*
X193748134Y-103019878D01*
X193747843Y-103015607D01*
X193743306Y-102993696D01*
X193690413Y-102738287D01*
X193689544Y-102734090D01*
X193593577Y-102463089D01*
X193461720Y-102207620D01*
X193448458Y-102188749D01*
X193298874Y-101975914D01*
X193296411Y-101972409D01*
X193100710Y-101761810D01*
X192878238Y-101579719D01*
X192633112Y-101429505D01*
X192615018Y-101421562D01*
X192373800Y-101315675D01*
X192369868Y-101313949D01*
X192343933Y-101306561D01*
X192097504Y-101236364D01*
X192097505Y-101236364D01*
X192093376Y-101235188D01*
X191880674Y-101204917D01*
X191813006Y-101195286D01*
X191813004Y-101195286D01*
X191808754Y-101194681D01*
X191804465Y-101194659D01*
X191804458Y-101194658D01*
X191525553Y-101193197D01*
X191525546Y-101193197D01*
X191521267Y-101193175D01*
X191517023Y-101193734D01*
X191517019Y-101193734D01*
X191391630Y-101210242D01*
X191236236Y-101230700D01*
X191232096Y-101231833D01*
X191232094Y-101231833D01*
X191155281Y-101252847D01*
X190958934Y-101306561D01*
X190954986Y-101308245D01*
X190698446Y-101417669D01*
X190698442Y-101417671D01*
X190694494Y-101419355D01*
X190569930Y-101493905D01*
X190451491Y-101564789D01*
X190451487Y-101564792D01*
X190447809Y-101566993D01*
X190223442Y-101746745D01*
X190025547Y-101955283D01*
X189857784Y-102188749D01*
X189723258Y-102442824D01*
X189624459Y-102712805D01*
X189563215Y-102993696D01*
X189540659Y-103280301D01*
X186984640Y-103280301D01*
X186903613Y-103121276D01*
X186723333Y-102843670D01*
X186515023Y-102586429D01*
X186280965Y-102352371D01*
X186023724Y-102144061D01*
X185746118Y-101963781D01*
X185451188Y-101813507D01*
X185142166Y-101694885D01*
X184822437Y-101609214D01*
X184622077Y-101577480D01*
X184498753Y-101557947D01*
X184498745Y-101557946D01*
X184495505Y-101557433D01*
X184196743Y-101541775D01*
X184182429Y-101540201D01*
X184182391Y-101540195D01*
X184177501Y-101539372D01*
X184164962Y-101539219D01*
X184164951Y-101539219D01*
X184160510Y-101539855D01*
X184160102Y-101539884D01*
X184149479Y-101540921D01*
X183834408Y-101557433D01*
X183831168Y-101557946D01*
X183831160Y-101557947D01*
X183707836Y-101577480D01*
X183507476Y-101609214D01*
X183187747Y-101694885D01*
X182878725Y-101813507D01*
X182583795Y-101963781D01*
X182306189Y-102144061D01*
X182048948Y-102352371D01*
X181814890Y-102586429D01*
X181606580Y-102843670D01*
X181426300Y-103121276D01*
X181276026Y-103416206D01*
X181274842Y-103419291D01*
X181191184Y-103637229D01*
X181157404Y-103725228D01*
X181071733Y-104044957D01*
X181049994Y-104182211D01*
X181020601Y-104367793D01*
X181019952Y-104371889D01*
X181019146Y-104387271D01*
X181003893Y-104678313D01*
X181003185Y-104685138D01*
X181003159Y-104687295D01*
X181001776Y-104696173D01*
X181002941Y-104705080D01*
X181005898Y-104727694D01*
X181006962Y-104744032D01*
X181006962Y-106303105D01*
X181005462Y-106322489D01*
X181003157Y-106337290D01*
X181003157Y-106337294D01*
X181001776Y-106346163D01*
X181002940Y-106355065D01*
X181002940Y-106355069D01*
X181002953Y-106355165D01*
X181003224Y-106385602D01*
X180996216Y-106447807D01*
X180989937Y-106475317D01*
X180962928Y-106552503D01*
X180950686Y-106577923D01*
X180907175Y-106647170D01*
X180889583Y-106669229D01*
X180831759Y-106727053D01*
X180809700Y-106744645D01*
X180740453Y-106788156D01*
X180715032Y-106800398D01*
X180637845Y-106827407D01*
X180610338Y-106833686D01*
X180590210Y-106835954D01*
X180554706Y-106839954D01*
X180539065Y-106840737D01*
X180530107Y-106840628D01*
X180521233Y-106839246D01*
X180489712Y-106843368D01*
X180473374Y-106844432D01*
X175675300Y-106844432D01*
X175655915Y-106842932D01*
X175641114Y-106840627D01*
X175641111Y-106840627D01*
X175632242Y-106839246D01*
X175615073Y-106841491D01*
X175591133Y-106842324D01*
X175333202Y-106826722D01*
X175318098Y-106824888D01*
X175247324Y-106811918D01*
X175037093Y-106773392D01*
X175022331Y-106769754D01*
X174749564Y-106684757D01*
X174735342Y-106679362D01*
X174474832Y-106562116D01*
X174461363Y-106555047D01*
X174216877Y-106407250D01*
X174204355Y-106398607D01*
X173979465Y-106222416D01*
X173968077Y-106212326D01*
X173766078Y-106010327D01*
X173755988Y-105998939D01*
X173579797Y-105774049D01*
X173571154Y-105761527D01*
X173423357Y-105517041D01*
X173416286Y-105503568D01*
X173375277Y-105412448D01*
X173299041Y-105243059D01*
X173293646Y-105228836D01*
X173283755Y-105197095D01*
X173208650Y-104956073D01*
X173205010Y-104941305D01*
X173192982Y-104875665D01*
X173158403Y-104686974D01*
X173153516Y-104660306D01*
X173151682Y-104645202D01*
X173136517Y-104394503D01*
X173137774Y-104367793D01*
X173137777Y-104367573D01*
X173139158Y-104358702D01*
X173137519Y-104346162D01*
X173135036Y-104327181D01*
X173133972Y-104310843D01*
X173133972Y-103280301D01*
X174562661Y-103280301D01*
X174579210Y-103567315D01*
X174580035Y-103571520D01*
X174580036Y-103571528D01*
X174609585Y-103722138D01*
X174634558Y-103849427D01*
X174635945Y-103853477D01*
X174635946Y-103853482D01*
X174701503Y-104044957D01*
X174727682Y-104121418D01*
X174729609Y-104125249D01*
X174851596Y-104367793D01*
X174856857Y-104378254D01*
X175019693Y-104615182D01*
X175022580Y-104618355D01*
X175022581Y-104618356D01*
X175110504Y-104714982D01*
X175213178Y-104827820D01*
X175216473Y-104830575D01*
X175216474Y-104830576D01*
X175366575Y-104956079D01*
X175433731Y-105012230D01*
X175677270Y-105165003D01*
X175939290Y-105283309D01*
X175943409Y-105284529D01*
X176210829Y-105363743D01*
X176210834Y-105363744D01*
X176214942Y-105364961D01*
X176219176Y-105365609D01*
X176219181Y-105365610D01*
X176467783Y-105403651D01*
X176499125Y-105408447D01*
X176645457Y-105410746D01*
X176782289Y-105412896D01*
X176782295Y-105412896D01*
X176786580Y-105412963D01*
X176790832Y-105412448D01*
X176790840Y-105412448D01*
X177067728Y-105378940D01*
X177067733Y-105378939D01*
X177071989Y-105378424D01*
X177350069Y-105305471D01*
X177615676Y-105195453D01*
X177863894Y-105050406D01*
X178090131Y-104873014D01*
X178131257Y-104830576D01*
X178247985Y-104710121D01*
X178290199Y-104666560D01*
X178292732Y-104663112D01*
X178292736Y-104663107D01*
X178457859Y-104438318D01*
X178460397Y-104434863D01*
X178482311Y-104394503D01*
X178595526Y-104185987D01*
X178595527Y-104185985D01*
X178597576Y-104182211D01*
X178699197Y-103913280D01*
X178741535Y-103728420D01*
X178762421Y-103637229D01*
X178762422Y-103637225D01*
X178763379Y-103633045D01*
X178784314Y-103398476D01*
X178788715Y-103349158D01*
X178788715Y-103349156D01*
X178788935Y-103346692D01*
X178789399Y-103302432D01*
X178787599Y-103276030D01*
X178770137Y-103019884D01*
X178770136Y-103019878D01*
X178769845Y-103015607D01*
X178765308Y-102993696D01*
X178712415Y-102738287D01*
X178711546Y-102734090D01*
X178615579Y-102463089D01*
X178483722Y-102207620D01*
X178470460Y-102188749D01*
X178320876Y-101975914D01*
X178318413Y-101972409D01*
X178122712Y-101761810D01*
X177900240Y-101579719D01*
X177655114Y-101429505D01*
X177637020Y-101421562D01*
X177395802Y-101315675D01*
X177391870Y-101313949D01*
X177365935Y-101306561D01*
X177119506Y-101236364D01*
X177119507Y-101236364D01*
X177115378Y-101235188D01*
X176902676Y-101204917D01*
X176835008Y-101195286D01*
X176835006Y-101195286D01*
X176830756Y-101194681D01*
X176826467Y-101194659D01*
X176826460Y-101194658D01*
X176547555Y-101193197D01*
X176547548Y-101193197D01*
X176543269Y-101193175D01*
X176539025Y-101193734D01*
X176539021Y-101193734D01*
X176413632Y-101210242D01*
X176258238Y-101230700D01*
X176254098Y-101231833D01*
X176254096Y-101231833D01*
X176177283Y-101252847D01*
X175980936Y-101306561D01*
X175976988Y-101308245D01*
X175720448Y-101417669D01*
X175720444Y-101417671D01*
X175716496Y-101419355D01*
X175591932Y-101493905D01*
X175473493Y-101564789D01*
X175473489Y-101564792D01*
X175469811Y-101566993D01*
X175245444Y-101746745D01*
X175047549Y-101955283D01*
X174879786Y-102188749D01*
X174745260Y-102442824D01*
X174646461Y-102712805D01*
X174585217Y-102993696D01*
X174562661Y-103280301D01*
X173133972Y-103280301D01*
X173133972Y-100883980D01*
X177587304Y-100883980D01*
X190632661Y-100883980D01*
X190632661Y-95316020D01*
X177587304Y-95316020D01*
X177587304Y-100883980D01*
X173133972Y-100883980D01*
X173133972Y-93154887D01*
X173621222Y-93154887D01*
X173621519Y-93160040D01*
X173621519Y-93160043D01*
X173627434Y-93262623D01*
X173634081Y-93377907D01*
X173635218Y-93382953D01*
X173635219Y-93382959D01*
X173649894Y-93448075D01*
X173683193Y-93595831D01*
X173741559Y-93739571D01*
X173756814Y-93777138D01*
X173767237Y-93802808D01*
X173808787Y-93870611D01*
X173875250Y-93979069D01*
X173883958Y-93993280D01*
X174030221Y-94162130D01*
X174133929Y-94248230D01*
X174195186Y-94299086D01*
X174202097Y-94304824D01*
X174394971Y-94417530D01*
X174399796Y-94419372D01*
X174399797Y-94419373D01*
X174472583Y-94447167D01*
X174603663Y-94497222D01*
X174608731Y-94498253D01*
X174608734Y-94498254D01*
X174715988Y-94520075D01*
X174822568Y-94541759D01*
X174827743Y-94541949D01*
X174827745Y-94541949D01*
X175040644Y-94549756D01*
X175040648Y-94549756D01*
X175045808Y-94549945D01*
X175050928Y-94549289D01*
X175050930Y-94549289D01*
X175262259Y-94522217D01*
X175262260Y-94522217D01*
X175267387Y-94521560D01*
X175272337Y-94520075D01*
X175476400Y-94458853D01*
X175476405Y-94458851D01*
X175481355Y-94457366D01*
X175681965Y-94359088D01*
X175863831Y-94229365D01*
X175890919Y-94202372D01*
X176018406Y-94075329D01*
X176022067Y-94071681D01*
X176025083Y-94067484D01*
X176071300Y-94003166D01*
X176127295Y-93959518D01*
X176173623Y-93950692D01*
X179250834Y-93950692D01*
X179269784Y-93952125D01*
X179284183Y-93954316D01*
X179284189Y-93954316D01*
X179291418Y-93955416D01*
X179298710Y-93954823D01*
X179298713Y-93954823D01*
X179344393Y-93951107D01*
X179354608Y-93950692D01*
X179362735Y-93950692D01*
X179366371Y-93950268D01*
X179366373Y-93950268D01*
X179369825Y-93949865D01*
X179391134Y-93947381D01*
X179395454Y-93946954D01*
X179468636Y-93941001D01*
X179475598Y-93938745D01*
X179481586Y-93937549D01*
X179487543Y-93936141D01*
X179494817Y-93935293D01*
X179501699Y-93932795D01*
X179501703Y-93932794D01*
X179563817Y-93910247D01*
X179567921Y-93908837D01*
X179637785Y-93886205D01*
X179644048Y-93882405D01*
X179649590Y-93879867D01*
X179655066Y-93877125D01*
X179661951Y-93874626D01*
X179723342Y-93834377D01*
X179727010Y-93832062D01*
X179789791Y-93793965D01*
X179793996Y-93790251D01*
X179793999Y-93790249D01*
X179798215Y-93786525D01*
X179798241Y-93786554D01*
X179801172Y-93783954D01*
X179804526Y-93781150D01*
X179810645Y-93777138D01*
X179864199Y-93720605D01*
X179866576Y-93718164D01*
X180429846Y-93154894D01*
X182802224Y-93154894D01*
X182802521Y-93160043D01*
X182802521Y-93160050D01*
X182807983Y-93254782D01*
X182815083Y-93377914D01*
X182816220Y-93382959D01*
X182816221Y-93382966D01*
X182832127Y-93453544D01*
X182864195Y-93595838D01*
X182924688Y-93744816D01*
X182943137Y-93790249D01*
X182948239Y-93802815D01*
X182967580Y-93834377D01*
X183041753Y-93955416D01*
X183064960Y-93993287D01*
X183211223Y-94162137D01*
X183383099Y-94304831D01*
X183575973Y-94417537D01*
X183784665Y-94497229D01*
X183789733Y-94498260D01*
X183789736Y-94498261D01*
X183896956Y-94520075D01*
X184003570Y-94541766D01*
X184008745Y-94541956D01*
X184008747Y-94541956D01*
X184221646Y-94549763D01*
X184221650Y-94549763D01*
X184226810Y-94549952D01*
X184231930Y-94549296D01*
X184231932Y-94549296D01*
X184443261Y-94522224D01*
X184443262Y-94522224D01*
X184448389Y-94521567D01*
X184453362Y-94520075D01*
X184657402Y-94458860D01*
X184657407Y-94458858D01*
X184662357Y-94457373D01*
X184862967Y-94359095D01*
X185044833Y-94229372D01*
X185203069Y-94071688D01*
X185213943Y-94056556D01*
X185330408Y-93894476D01*
X185333426Y-93890276D01*
X185338571Y-93879867D01*
X185430109Y-93694652D01*
X185430112Y-93694645D01*
X185432403Y-93690010D01*
X185464873Y-93583139D01*
X185495838Y-93481222D01*
X185495840Y-93481215D01*
X185497343Y-93476268D01*
X185526502Y-93254789D01*
X185526706Y-93246455D01*
X185528047Y-93191564D01*
X185528047Y-93191557D01*
X185528129Y-93188199D01*
X185509825Y-92965560D01*
X185455404Y-92748901D01*
X185366327Y-92544039D01*
X185289765Y-92425692D01*
X185247795Y-92360816D01*
X185247790Y-92360809D01*
X185244987Y-92356476D01*
X185094643Y-92191250D01*
X185090592Y-92188051D01*
X185090588Y-92188047D01*
X184923387Y-92055999D01*
X184923383Y-92055997D01*
X184919332Y-92052797D01*
X184878026Y-92029995D01*
X184828057Y-91979563D01*
X184813285Y-91910120D01*
X184838401Y-91843715D01*
X184865753Y-91817108D01*
X184909576Y-91785849D01*
X185044833Y-91689372D01*
X185071921Y-91662379D01*
X185199408Y-91535336D01*
X185203069Y-91531688D01*
X185213938Y-91516563D01*
X185330408Y-91354476D01*
X185333426Y-91350276D01*
X185432403Y-91150010D01*
X185497343Y-90936268D01*
X185526502Y-90714789D01*
X185528129Y-90648199D01*
X185509825Y-90425560D01*
X185455404Y-90208901D01*
X185366327Y-90004039D01*
X185289765Y-89885692D01*
X185247795Y-89820816D01*
X185247790Y-89820809D01*
X185244987Y-89816476D01*
X185094643Y-89651250D01*
X185090592Y-89648051D01*
X185090588Y-89648047D01*
X184923387Y-89515999D01*
X184923383Y-89515997D01*
X184919332Y-89512797D01*
X184878026Y-89489995D01*
X184828057Y-89439563D01*
X184813285Y-89370120D01*
X184838401Y-89303715D01*
X184865753Y-89277108D01*
X184909576Y-89245849D01*
X185044833Y-89149372D01*
X185071921Y-89122379D01*
X185199408Y-88995336D01*
X185203069Y-88991688D01*
X185213938Y-88976563D01*
X185330408Y-88814476D01*
X185333426Y-88810276D01*
X185338571Y-88799867D01*
X185430109Y-88614652D01*
X185430112Y-88614645D01*
X185432403Y-88610010D01*
X185497343Y-88396268D01*
X185526502Y-88174789D01*
X185528129Y-88108199D01*
X185509825Y-87885560D01*
X185455404Y-87668901D01*
X185366327Y-87464039D01*
X185290235Y-87346419D01*
X185247795Y-87280816D01*
X185247790Y-87280809D01*
X185244987Y-87276476D01*
X185094643Y-87111250D01*
X185090592Y-87108051D01*
X185090588Y-87108047D01*
X184923387Y-86975999D01*
X184923383Y-86975997D01*
X184919332Y-86972797D01*
X184878026Y-86949995D01*
X184828057Y-86899563D01*
X184813285Y-86830120D01*
X184838401Y-86763715D01*
X184865753Y-86737108D01*
X184909576Y-86705849D01*
X185044833Y-86609372D01*
X185071921Y-86582379D01*
X185199408Y-86455336D01*
X185203069Y-86451688D01*
X185213938Y-86436563D01*
X185330408Y-86274476D01*
X185333426Y-86270276D01*
X185338360Y-86260294D01*
X185430109Y-86074652D01*
X185430112Y-86074645D01*
X185432403Y-86070010D01*
X185457644Y-85986933D01*
X185496585Y-85927569D01*
X185561439Y-85898682D01*
X185631615Y-85909444D01*
X185684833Y-85956437D01*
X185692628Y-85970811D01*
X185740500Y-86074652D01*
X185763629Y-86124823D01*
X185881210Y-86291196D01*
X186027141Y-86433356D01*
X186031937Y-86436561D01*
X186031940Y-86436563D01*
X186060036Y-86455336D01*
X186196534Y-86546541D01*
X186201837Y-86548819D01*
X186201840Y-86548821D01*
X186342760Y-86609365D01*
X186383718Y-86626962D01*
X186456548Y-86643442D01*
X186576786Y-86670649D01*
X186576791Y-86670650D01*
X186582423Y-86671924D01*
X186588194Y-86672151D01*
X186588196Y-86672151D01*
X186651201Y-86674626D01*
X186785994Y-86679922D01*
X186987614Y-86650689D01*
X186993078Y-86648834D01*
X186993083Y-86648833D01*
X187175058Y-86587061D01*
X187175063Y-86587059D01*
X187180530Y-86585203D01*
X187358282Y-86485657D01*
X187509579Y-86359825D01*
X187574742Y-86331644D01*
X187590147Y-86330699D01*
X187774407Y-86330699D01*
X187793357Y-86332132D01*
X187807756Y-86334323D01*
X187807762Y-86334323D01*
X187814991Y-86335423D01*
X187822283Y-86334830D01*
X187822286Y-86334830D01*
X187867966Y-86331114D01*
X187878181Y-86330699D01*
X187886308Y-86330699D01*
X187889944Y-86330275D01*
X187889946Y-86330275D01*
X187893398Y-86329872D01*
X187914707Y-86327388D01*
X187919027Y-86326961D01*
X187992209Y-86321008D01*
X187999171Y-86318752D01*
X188005159Y-86317556D01*
X188011116Y-86316148D01*
X188018390Y-86315300D01*
X188025272Y-86312802D01*
X188025276Y-86312801D01*
X188087390Y-86290254D01*
X188091494Y-86288844D01*
X188161358Y-86266212D01*
X188167621Y-86262412D01*
X188173163Y-86259874D01*
X188178639Y-86257132D01*
X188185524Y-86254633D01*
X188246915Y-86214384D01*
X188250583Y-86212069D01*
X188313364Y-86173972D01*
X188317569Y-86170258D01*
X188317572Y-86170256D01*
X188321788Y-86166532D01*
X188321814Y-86166561D01*
X188324783Y-86163929D01*
X188325178Y-86163599D01*
X188390280Y-86135274D01*
X188460361Y-86146642D01*
X188513170Y-86194094D01*
X188531962Y-86260294D01*
X188531962Y-87047492D01*
X188511960Y-87115613D01*
X188495057Y-87136587D01*
X188322850Y-87308794D01*
X188260538Y-87342820D01*
X188233755Y-87345699D01*
X188093321Y-87345699D01*
X188025200Y-87325697D01*
X188007792Y-87312223D01*
X187917679Y-87228923D01*
X187913434Y-87224999D01*
X187773309Y-87136587D01*
X187746019Y-87119368D01*
X187746014Y-87119366D01*
X187741135Y-87116287D01*
X187551911Y-87040794D01*
X187352097Y-87001048D01*
X187346323Y-87000972D01*
X187346319Y-87000972D01*
X187243183Y-86999623D01*
X187148386Y-86998382D01*
X187142689Y-86999361D01*
X187142688Y-86999361D01*
X186953298Y-87031904D01*
X186947601Y-87032883D01*
X186756465Y-87103397D01*
X186581380Y-87207562D01*
X186428209Y-87341889D01*
X186424642Y-87346414D01*
X186424637Y-87346419D01*
X186366098Y-87420676D01*
X186302082Y-87501880D01*
X186207223Y-87682177D01*
X186146809Y-87876742D01*
X186122863Y-88079058D01*
X186136188Y-88282350D01*
X186186336Y-88479809D01*
X186271629Y-88664823D01*
X186389210Y-88831196D01*
X186535141Y-88973356D01*
X186539937Y-88976561D01*
X186539940Y-88976563D01*
X186568036Y-88995336D01*
X186704534Y-89086541D01*
X186709837Y-89088819D01*
X186709840Y-89088821D01*
X186850760Y-89149365D01*
X186891718Y-89166962D01*
X186964548Y-89183442D01*
X187084786Y-89210649D01*
X187084791Y-89210650D01*
X187090423Y-89211924D01*
X187096194Y-89212151D01*
X187096196Y-89212151D01*
X187159201Y-89214626D01*
X187293994Y-89219922D01*
X187495614Y-89190689D01*
X187501078Y-89188834D01*
X187501083Y-89188833D01*
X187683058Y-89127061D01*
X187683063Y-89127059D01*
X187688530Y-89125203D01*
X187866282Y-89025657D01*
X188017579Y-88899825D01*
X188082742Y-88871644D01*
X188098147Y-88870699D01*
X188534407Y-88870699D01*
X188553357Y-88872132D01*
X188567756Y-88874323D01*
X188567762Y-88874323D01*
X188574991Y-88875423D01*
X188582283Y-88874830D01*
X188582286Y-88874830D01*
X188627966Y-88871114D01*
X188638181Y-88870699D01*
X188646308Y-88870699D01*
X188649944Y-88870275D01*
X188649946Y-88870275D01*
X188653398Y-88869872D01*
X188674707Y-88867388D01*
X188679027Y-88866961D01*
X188752209Y-88861008D01*
X188759171Y-88858752D01*
X188765159Y-88857556D01*
X188771116Y-88856148D01*
X188778390Y-88855300D01*
X188785272Y-88852802D01*
X188785276Y-88852801D01*
X188847390Y-88830254D01*
X188851494Y-88828844D01*
X188921358Y-88806212D01*
X188927621Y-88802412D01*
X188933163Y-88799874D01*
X188938639Y-88797132D01*
X188945524Y-88794633D01*
X189006915Y-88754384D01*
X189010583Y-88752069D01*
X189073364Y-88713972D01*
X189077569Y-88710258D01*
X189077572Y-88710256D01*
X189081788Y-88706532D01*
X189081814Y-88706561D01*
X189084745Y-88703961D01*
X189088099Y-88701157D01*
X189094218Y-88697145D01*
X189147778Y-88640606D01*
X189150149Y-88638171D01*
X189332387Y-88455933D01*
X189394699Y-88421907D01*
X189465514Y-88426972D01*
X189522350Y-88469519D01*
X189547161Y-88536039D01*
X189547482Y-88545028D01*
X189547482Y-89331972D01*
X189527480Y-89400093D01*
X189510577Y-89421067D01*
X189082857Y-89848787D01*
X189020545Y-89882813D01*
X188993762Y-89885692D01*
X188601315Y-89885692D01*
X188533194Y-89865690D01*
X188515786Y-89852217D01*
X188425674Y-89768918D01*
X188425671Y-89768916D01*
X188421434Y-89764999D01*
X188303238Y-89690423D01*
X188254019Y-89659368D01*
X188254014Y-89659366D01*
X188249135Y-89656287D01*
X188059911Y-89580794D01*
X187860097Y-89541048D01*
X187854323Y-89540972D01*
X187854319Y-89540972D01*
X187751183Y-89539623D01*
X187656386Y-89538382D01*
X187650689Y-89539361D01*
X187650688Y-89539361D01*
X187461298Y-89571904D01*
X187455601Y-89572883D01*
X187264465Y-89643397D01*
X187259504Y-89646349D01*
X187259503Y-89646349D01*
X187191152Y-89687014D01*
X187089380Y-89747562D01*
X186936209Y-89881889D01*
X186932642Y-89886414D01*
X186932637Y-89886419D01*
X186866280Y-89970593D01*
X186810082Y-90041880D01*
X186715223Y-90222177D01*
X186654809Y-90416742D01*
X186630863Y-90619058D01*
X186644188Y-90822350D01*
X186694336Y-91019809D01*
X186779629Y-91204823D01*
X186897210Y-91371196D01*
X186901344Y-91375223D01*
X187013366Y-91484350D01*
X187043141Y-91513356D01*
X187047937Y-91516561D01*
X187047940Y-91516563D01*
X187115880Y-91561959D01*
X187212534Y-91626541D01*
X187217837Y-91628819D01*
X187217840Y-91628821D01*
X187358760Y-91689365D01*
X187399718Y-91706962D01*
X187472548Y-91723442D01*
X187592786Y-91750649D01*
X187592791Y-91750650D01*
X187598423Y-91751924D01*
X187604194Y-91752151D01*
X187604196Y-91752151D01*
X187667201Y-91754626D01*
X187801994Y-91759922D01*
X188003614Y-91730689D01*
X188009078Y-91728834D01*
X188009083Y-91728833D01*
X188191058Y-91667061D01*
X188191063Y-91667059D01*
X188196530Y-91665203D01*
X188374282Y-91565657D01*
X188525587Y-91439818D01*
X188590751Y-91411637D01*
X188606156Y-91410692D01*
X188716762Y-91410692D01*
X188784883Y-91430694D01*
X188831376Y-91484350D01*
X188841480Y-91554624D01*
X188811986Y-91619204D01*
X188805857Y-91625787D01*
X188388419Y-92043225D01*
X188326107Y-92077251D01*
X188297676Y-92080119D01*
X188229667Y-92079229D01*
X188164387Y-92078375D01*
X188158690Y-92079354D01*
X188158689Y-92079354D01*
X187969299Y-92111897D01*
X187963602Y-92112876D01*
X187772466Y-92183390D01*
X187767505Y-92186342D01*
X187767504Y-92186342D01*
X187759255Y-92191250D01*
X187597381Y-92287555D01*
X187444210Y-92421882D01*
X187440643Y-92426407D01*
X187440638Y-92426412D01*
X187354063Y-92536232D01*
X187318083Y-92581873D01*
X187315394Y-92586984D01*
X187315392Y-92586987D01*
X187275216Y-92663349D01*
X187223224Y-92762170D01*
X187162810Y-92956735D01*
X187138864Y-93159051D01*
X187152189Y-93362343D01*
X187202337Y-93559802D01*
X187287630Y-93744816D01*
X187405211Y-93911189D01*
X187551142Y-94053349D01*
X187555938Y-94056554D01*
X187555941Y-94056556D01*
X187623881Y-94101952D01*
X187720535Y-94166534D01*
X187725838Y-94168812D01*
X187725841Y-94168814D01*
X187902412Y-94244675D01*
X187907719Y-94246955D01*
X187980549Y-94263435D01*
X188100787Y-94290642D01*
X188100792Y-94290643D01*
X188106424Y-94291917D01*
X188112195Y-94292144D01*
X188112197Y-94292144D01*
X188175202Y-94294619D01*
X188309995Y-94299915D01*
X188511615Y-94270682D01*
X188517079Y-94268827D01*
X188517084Y-94268826D01*
X188699059Y-94207054D01*
X188699064Y-94207052D01*
X188704531Y-94205196D01*
X188882283Y-94105650D01*
X189038918Y-93975378D01*
X189169190Y-93818743D01*
X189268736Y-93640991D01*
X189270592Y-93635524D01*
X189270594Y-93635519D01*
X189332366Y-93453544D01*
X189332367Y-93453539D01*
X189334222Y-93448075D01*
X189335050Y-93442367D01*
X189335051Y-93442361D01*
X189361111Y-93262623D01*
X189390681Y-93198077D01*
X189396712Y-93191608D01*
X191140723Y-91447597D01*
X191203035Y-91413571D01*
X191229818Y-91410692D01*
X192151513Y-91410692D01*
X192219634Y-91430694D01*
X192246750Y-91454195D01*
X192313871Y-91531681D01*
X192392221Y-91622130D01*
X192539581Y-91744471D01*
X192558193Y-91759922D01*
X192564097Y-91764824D01*
X192634566Y-91806003D01*
X192637416Y-91807668D01*
X192686140Y-91859306D01*
X192699211Y-91929089D01*
X192672480Y-91994861D01*
X192632026Y-92028219D01*
X192619578Y-92034699D01*
X192615445Y-92037802D01*
X192615442Y-92037804D01*
X192466998Y-92149259D01*
X192440936Y-92168827D01*
X192286600Y-92330330D01*
X192283686Y-92334602D01*
X192283685Y-92334603D01*
X192227536Y-92416915D01*
X192160714Y-92514872D01*
X192123820Y-92594354D01*
X192091794Y-92663349D01*
X192066659Y-92717497D01*
X192006960Y-92932762D01*
X191983222Y-93154887D01*
X191983519Y-93160040D01*
X191983519Y-93160043D01*
X191989434Y-93262623D01*
X191996081Y-93377907D01*
X191997218Y-93382953D01*
X191997219Y-93382959D01*
X192011894Y-93448075D01*
X192045193Y-93595831D01*
X192103559Y-93739571D01*
X192118814Y-93777138D01*
X192129237Y-93802808D01*
X192170787Y-93870611D01*
X192237250Y-93979069D01*
X192245958Y-93993280D01*
X192392221Y-94162130D01*
X192495929Y-94248230D01*
X192557186Y-94299086D01*
X192564097Y-94304824D01*
X192756971Y-94417530D01*
X192761796Y-94419372D01*
X192761797Y-94419373D01*
X192834583Y-94447167D01*
X192965663Y-94497222D01*
X192970731Y-94498253D01*
X192970734Y-94498254D01*
X193077988Y-94520075D01*
X193184568Y-94541759D01*
X193189743Y-94541949D01*
X193189745Y-94541949D01*
X193402644Y-94549756D01*
X193402648Y-94549756D01*
X193407808Y-94549945D01*
X193412928Y-94549289D01*
X193412930Y-94549289D01*
X193624259Y-94522217D01*
X193624260Y-94522217D01*
X193629387Y-94521560D01*
X193634337Y-94520075D01*
X193838400Y-94458853D01*
X193838405Y-94458851D01*
X193843355Y-94457366D01*
X194043965Y-94359088D01*
X194225831Y-94229365D01*
X194252919Y-94202372D01*
X194380406Y-94075329D01*
X194384067Y-94071681D01*
X194394936Y-94056556D01*
X194511406Y-93894469D01*
X194514424Y-93890269D01*
X194542048Y-93834377D01*
X194611107Y-93694645D01*
X194611108Y-93694643D01*
X194613401Y-93690003D01*
X194678341Y-93476261D01*
X194707500Y-93254782D01*
X194707582Y-93251432D01*
X194709045Y-93191557D01*
X194709045Y-93191553D01*
X194709127Y-93188192D01*
X194690823Y-92965553D01*
X194636402Y-92748894D01*
X194547325Y-92544032D01*
X194471233Y-92426412D01*
X194428793Y-92360809D01*
X194428791Y-92360806D01*
X194425985Y-92356469D01*
X194275641Y-92191243D01*
X194271590Y-92188044D01*
X194271586Y-92188040D01*
X194104385Y-92055992D01*
X194104381Y-92055990D01*
X194100330Y-92052790D01*
X194059024Y-92029988D01*
X194009055Y-91979556D01*
X193994283Y-91910113D01*
X194019399Y-91843708D01*
X194046751Y-91817101D01*
X194116372Y-91767441D01*
X194225831Y-91689365D01*
X194252912Y-91662379D01*
X194380406Y-91535329D01*
X194384067Y-91531681D01*
X194400129Y-91509329D01*
X194511406Y-91354469D01*
X194514424Y-91350269D01*
X194586308Y-91204823D01*
X194611107Y-91154645D01*
X194611108Y-91154643D01*
X194613401Y-91150003D01*
X194678341Y-90936261D01*
X194707500Y-90714782D01*
X194709127Y-90648192D01*
X194690823Y-90425553D01*
X194636402Y-90208894D01*
X194547325Y-90004032D01*
X194471238Y-89886419D01*
X194428793Y-89820809D01*
X194428791Y-89820806D01*
X194425985Y-89816469D01*
X194275641Y-89651243D01*
X194271590Y-89648044D01*
X194271586Y-89648040D01*
X194104385Y-89515992D01*
X194104381Y-89515990D01*
X194100330Y-89512790D01*
X194059024Y-89489988D01*
X194009055Y-89439556D01*
X193994283Y-89370113D01*
X194019399Y-89303708D01*
X194046751Y-89277101D01*
X194116372Y-89227441D01*
X194225831Y-89149365D01*
X194252912Y-89122379D01*
X194380406Y-88995329D01*
X194384067Y-88991681D01*
X194400129Y-88969329D01*
X194511406Y-88814469D01*
X194514424Y-88810269D01*
X194519562Y-88799874D01*
X194611107Y-88614645D01*
X194611108Y-88614643D01*
X194613401Y-88610003D01*
X194678341Y-88396261D01*
X194707500Y-88174782D01*
X194709127Y-88108192D01*
X194690823Y-87885553D01*
X194636402Y-87668894D01*
X194547325Y-87464032D01*
X194470772Y-87345699D01*
X194428793Y-87280809D01*
X194428791Y-87280806D01*
X194425985Y-87276469D01*
X194275641Y-87111243D01*
X194271590Y-87108044D01*
X194271586Y-87108040D01*
X194104385Y-86975992D01*
X194104381Y-86975990D01*
X194100330Y-86972790D01*
X194059024Y-86949988D01*
X194009055Y-86899556D01*
X193994283Y-86830113D01*
X194019399Y-86763708D01*
X194046751Y-86737101D01*
X194116372Y-86687441D01*
X194225831Y-86609365D01*
X194252912Y-86582379D01*
X194380406Y-86455329D01*
X194384067Y-86451681D01*
X194399210Y-86430608D01*
X194511406Y-86274469D01*
X194514424Y-86270269D01*
X194519562Y-86259874D01*
X194611107Y-86074645D01*
X194611108Y-86074643D01*
X194613401Y-86070003D01*
X194662183Y-85909444D01*
X194676836Y-85861215D01*
X194676836Y-85861213D01*
X194678341Y-85856261D01*
X194707500Y-85634782D01*
X194707614Y-85630129D01*
X194709045Y-85571557D01*
X194709045Y-85571553D01*
X194709127Y-85568192D01*
X194690823Y-85345553D01*
X194636402Y-85128894D01*
X194547325Y-84924032D01*
X194482148Y-84823283D01*
X194428793Y-84740809D01*
X194428791Y-84740806D01*
X194425985Y-84736469D01*
X194275641Y-84571243D01*
X194271590Y-84568044D01*
X194271586Y-84568040D01*
X194104385Y-84435992D01*
X194104381Y-84435990D01*
X194100330Y-84432790D01*
X194059024Y-84409988D01*
X194009055Y-84359556D01*
X193994283Y-84290113D01*
X194019399Y-84223708D01*
X194046751Y-84197101D01*
X194116372Y-84147441D01*
X194225831Y-84069365D01*
X194252919Y-84042372D01*
X194355452Y-83940196D01*
X194384067Y-83911681D01*
X194440399Y-83833287D01*
X194511406Y-83734469D01*
X194514424Y-83730269D01*
X194552269Y-83653696D01*
X194611107Y-83534645D01*
X194611108Y-83534643D01*
X194613401Y-83530003D01*
X194678341Y-83316261D01*
X194707500Y-83094782D01*
X194707614Y-83090129D01*
X194709045Y-83031557D01*
X194709045Y-83031553D01*
X194709127Y-83028192D01*
X194690823Y-82805553D01*
X194636402Y-82588894D01*
X194547325Y-82384032D01*
X194482148Y-82283283D01*
X194428793Y-82200809D01*
X194428791Y-82200806D01*
X194425985Y-82196469D01*
X194275641Y-82031243D01*
X194271590Y-82028044D01*
X194271586Y-82028040D01*
X194104385Y-81895992D01*
X194104381Y-81895990D01*
X194100330Y-81892790D01*
X194059024Y-81869988D01*
X194009055Y-81819556D01*
X193994283Y-81750113D01*
X194019399Y-81683708D01*
X194046751Y-81657101D01*
X194104600Y-81615838D01*
X194225831Y-81529365D01*
X194384067Y-81371681D01*
X194443565Y-81288881D01*
X194511406Y-81194469D01*
X194514424Y-81190269D01*
X194516840Y-81185382D01*
X194611107Y-80994645D01*
X194611108Y-80994643D01*
X194613401Y-80990003D01*
X194678341Y-80776261D01*
X194707500Y-80554782D01*
X194709127Y-80488192D01*
X194690823Y-80265553D01*
X194636402Y-80048894D01*
X194547325Y-79844032D01*
X194482346Y-79743590D01*
X194428793Y-79660809D01*
X194428791Y-79660806D01*
X194425985Y-79656469D01*
X194275641Y-79491243D01*
X194271590Y-79488044D01*
X194271586Y-79488040D01*
X194104385Y-79355992D01*
X194104381Y-79355990D01*
X194100330Y-79352790D01*
X194059024Y-79329988D01*
X194009055Y-79279556D01*
X193994283Y-79210113D01*
X194019399Y-79143708D01*
X194046751Y-79117101D01*
X194116372Y-79067441D01*
X194225831Y-78989365D01*
X194252919Y-78962372D01*
X194380406Y-78835329D01*
X194384067Y-78831681D01*
X194394936Y-78816556D01*
X194511406Y-78654469D01*
X194514424Y-78650269D01*
X194552269Y-78573696D01*
X194611107Y-78454645D01*
X194611108Y-78454643D01*
X194613401Y-78450003D01*
X194678341Y-78236261D01*
X194707500Y-78014782D01*
X194707614Y-78010129D01*
X194709045Y-77951557D01*
X194709045Y-77951553D01*
X194709127Y-77948192D01*
X194690823Y-77725553D01*
X194636402Y-77508894D01*
X194547325Y-77304032D01*
X194479614Y-77199367D01*
X194428793Y-77120809D01*
X194428791Y-77120806D01*
X194425985Y-77116469D01*
X194275641Y-76951243D01*
X194271590Y-76948044D01*
X194271586Y-76948040D01*
X194104385Y-76815992D01*
X194104381Y-76815990D01*
X194100330Y-76812790D01*
X194059024Y-76789988D01*
X194009055Y-76739556D01*
X193994283Y-76670113D01*
X194019399Y-76603708D01*
X194046751Y-76577101D01*
X194092571Y-76544418D01*
X194225831Y-76449365D01*
X194287879Y-76387534D01*
X194369371Y-76306326D01*
X194384067Y-76291681D01*
X194419322Y-76242619D01*
X194511406Y-76114469D01*
X194514424Y-76110269D01*
X194557464Y-76023185D01*
X194611107Y-75914645D01*
X194611108Y-75914643D01*
X194613401Y-75910003D01*
X194655801Y-75770450D01*
X194676836Y-75701215D01*
X194676836Y-75701213D01*
X194678341Y-75696261D01*
X194707500Y-75474782D01*
X194709127Y-75408192D01*
X194690823Y-75185553D01*
X194636402Y-74968894D01*
X194547325Y-74764032D01*
X194481017Y-74661536D01*
X194428793Y-74580809D01*
X194428791Y-74580806D01*
X194425985Y-74576469D01*
X194275641Y-74411243D01*
X194271590Y-74408044D01*
X194271586Y-74408040D01*
X194104385Y-74275992D01*
X194104381Y-74275990D01*
X194100330Y-74272790D01*
X193904760Y-74164830D01*
X193899891Y-74163106D01*
X193899887Y-74163104D01*
X193699058Y-74091987D01*
X193699054Y-74091986D01*
X193694183Y-74090261D01*
X193689090Y-74089354D01*
X193689087Y-74089353D01*
X193479344Y-74051992D01*
X193479338Y-74051991D01*
X193474255Y-74051086D01*
X193400423Y-74050184D01*
X193256052Y-74048420D01*
X193256050Y-74048420D01*
X193250882Y-74048357D01*
X193030062Y-74082147D01*
X192817727Y-74151549D01*
X192787414Y-74167329D01*
X192653718Y-74236927D01*
X192619578Y-74254699D01*
X192615445Y-74257802D01*
X192615442Y-74257804D01*
X192485334Y-74355492D01*
X192440936Y-74388827D01*
X192286600Y-74550330D01*
X192283686Y-74554602D01*
X192259063Y-74590697D01*
X192204151Y-74635699D01*
X192154975Y-74645692D01*
X189285550Y-74645692D01*
X189266600Y-74644259D01*
X189252201Y-74642068D01*
X189252195Y-74642068D01*
X189244966Y-74640968D01*
X189237674Y-74641561D01*
X189237671Y-74641561D01*
X189191991Y-74645277D01*
X189181776Y-74645692D01*
X189173649Y-74645692D01*
X189170013Y-74646116D01*
X189170011Y-74646116D01*
X189166559Y-74646519D01*
X189145250Y-74649003D01*
X189140930Y-74649430D01*
X189067748Y-74655383D01*
X189060786Y-74657639D01*
X189054798Y-74658835D01*
X189048841Y-74660243D01*
X189041567Y-74661091D01*
X189034685Y-74663589D01*
X189034681Y-74663590D01*
X188972567Y-74686137D01*
X188968463Y-74687547D01*
X188898599Y-74710179D01*
X188892336Y-74713979D01*
X188886794Y-74716517D01*
X188881318Y-74719259D01*
X188874433Y-74721758D01*
X188868309Y-74725773D01*
X188813042Y-74762007D01*
X188809374Y-74764322D01*
X188746593Y-74802419D01*
X188742388Y-74806133D01*
X188742385Y-74806135D01*
X188738169Y-74809859D01*
X188738143Y-74809830D01*
X188735212Y-74812430D01*
X188731858Y-74815234D01*
X188725739Y-74819246D01*
X188720707Y-74824558D01*
X188672186Y-74875778D01*
X188669808Y-74878220D01*
X187802934Y-75745094D01*
X187788521Y-75757481D01*
X187770898Y-75770450D01*
X187766154Y-75776033D01*
X187766155Y-75776033D01*
X187736483Y-75810959D01*
X187729553Y-75818475D01*
X187723809Y-75824219D01*
X187721535Y-75827093D01*
X187721529Y-75827100D01*
X187706090Y-75846615D01*
X187703299Y-75850019D01*
X187660517Y-75900376D01*
X187660514Y-75900380D01*
X187655778Y-75905955D01*
X187652450Y-75912472D01*
X187649073Y-75917536D01*
X187645846Y-75922760D01*
X187641302Y-75928504D01*
X187638203Y-75935135D01*
X187610230Y-75994986D01*
X187608299Y-75998937D01*
X187591346Y-76032138D01*
X187574919Y-76064308D01*
X187573178Y-76071423D01*
X187571041Y-76077169D01*
X187569117Y-76082952D01*
X187566018Y-76089583D01*
X187553948Y-76147616D01*
X187551070Y-76161451D01*
X187550101Y-76165733D01*
X187532658Y-76237016D01*
X187531962Y-76248234D01*
X187531923Y-76248232D01*
X187531690Y-76252133D01*
X187531301Y-76256492D01*
X187529810Y-76263660D01*
X187530008Y-76270977D01*
X187531916Y-76341481D01*
X187531962Y-76344890D01*
X187531962Y-84536348D01*
X187511960Y-84604469D01*
X187458304Y-84650962D01*
X187388030Y-84661066D01*
X187338727Y-84642910D01*
X187238019Y-84579368D01*
X187238014Y-84579366D01*
X187233135Y-84576287D01*
X187043911Y-84500794D01*
X186844097Y-84461048D01*
X186838323Y-84460972D01*
X186838319Y-84460972D01*
X186735183Y-84459623D01*
X186640386Y-84458382D01*
X186634689Y-84459361D01*
X186634688Y-84459361D01*
X186445339Y-84491897D01*
X186439601Y-84492883D01*
X186248465Y-84563397D01*
X186073380Y-84667562D01*
X185920209Y-84801889D01*
X185916642Y-84806414D01*
X185916637Y-84806419D01*
X185884739Y-84846882D01*
X185794082Y-84961880D01*
X185791393Y-84966991D01*
X185791391Y-84966994D01*
X185751939Y-85041981D01*
X185699223Y-85142177D01*
X185697512Y-85147689D01*
X185695532Y-85152467D01*
X185650982Y-85207747D01*
X185583618Y-85230165D01*
X185514827Y-85212604D01*
X185466451Y-85160641D01*
X185458354Y-85138806D01*
X185458331Y-85138814D01*
X185458036Y-85137948D01*
X185456920Y-85134938D01*
X185456663Y-85133915D01*
X185455404Y-85128901D01*
X185366327Y-84924039D01*
X185298612Y-84819367D01*
X185247795Y-84740816D01*
X185247790Y-84740809D01*
X185244987Y-84736476D01*
X185094643Y-84571250D01*
X185090592Y-84568051D01*
X185090588Y-84568047D01*
X184923387Y-84435999D01*
X184923383Y-84435997D01*
X184919332Y-84432797D01*
X184878026Y-84409995D01*
X184828057Y-84359563D01*
X184813285Y-84290120D01*
X184838401Y-84223715D01*
X184865753Y-84197108D01*
X184909576Y-84165849D01*
X185044833Y-84069372D01*
X185203069Y-83911688D01*
X185262567Y-83828888D01*
X185330408Y-83734476D01*
X185333426Y-83730276D01*
X185366583Y-83663189D01*
X185430109Y-83534652D01*
X185430112Y-83534645D01*
X185432403Y-83530010D01*
X185497343Y-83316268D01*
X185526502Y-83094789D01*
X185527135Y-83068874D01*
X185528047Y-83031564D01*
X185528047Y-83031557D01*
X185528129Y-83028199D01*
X185509825Y-82805560D01*
X185455404Y-82588901D01*
X185366327Y-82384039D01*
X185316855Y-82307567D01*
X185247795Y-82200816D01*
X185247790Y-82200809D01*
X185244987Y-82196476D01*
X185094643Y-82031250D01*
X185090592Y-82028051D01*
X185090588Y-82028047D01*
X184923387Y-81895999D01*
X184923383Y-81895997D01*
X184919332Y-81892797D01*
X184914802Y-81890296D01*
X184882243Y-81872323D01*
X184877542Y-81869728D01*
X184827571Y-81819296D01*
X184812799Y-81749853D01*
X184837915Y-81683447D01*
X184865267Y-81656840D01*
X185040301Y-81531991D01*
X185048173Y-81525338D01*
X185199025Y-81375011D01*
X185205703Y-81367164D01*
X185329976Y-81194219D01*
X185335286Y-81185382D01*
X185429643Y-80994466D01*
X185433442Y-80984871D01*
X185495350Y-80781109D01*
X185497528Y-80771036D01*
X185498959Y-80760161D01*
X185496748Y-80745977D01*
X185483590Y-80742199D01*
X182848198Y-80742199D01*
X182834667Y-80746172D01*
X182833230Y-80756165D01*
X182863538Y-80890645D01*
X182866618Y-80900474D01*
X182946743Y-81097802D01*
X182951386Y-81106993D01*
X183062667Y-81288587D01*
X183068750Y-81296898D01*
X183208186Y-81457866D01*
X183215553Y-81465082D01*
X183379407Y-81601115D01*
X183387854Y-81607030D01*
X183456942Y-81647402D01*
X183505666Y-81699041D01*
X183518737Y-81768824D01*
X183492006Y-81834595D01*
X183451557Y-81867951D01*
X183438580Y-81874706D01*
X183434447Y-81877809D01*
X183434444Y-81877811D01*
X183264073Y-82005729D01*
X183259938Y-82008834D01*
X183238517Y-82031250D01*
X183142845Y-82131365D01*
X183105602Y-82170337D01*
X183102688Y-82174609D01*
X183102687Y-82174610D01*
X183043154Y-82261882D01*
X182979716Y-82354879D01*
X182963979Y-82388782D01*
X182887844Y-82552802D01*
X182885661Y-82557504D01*
X182825962Y-82772769D01*
X182802224Y-82994894D01*
X182802521Y-83000043D01*
X182802521Y-83000050D01*
X182811111Y-83149032D01*
X182815083Y-83217914D01*
X182816220Y-83222959D01*
X182816221Y-83222966D01*
X182832127Y-83293544D01*
X182864195Y-83435838D01*
X182902431Y-83530003D01*
X182946201Y-83637795D01*
X182948239Y-83642815D01*
X182950938Y-83647219D01*
X183062076Y-83828580D01*
X183064960Y-83833287D01*
X183211223Y-84002137D01*
X183383099Y-84144831D01*
X183453568Y-84186010D01*
X183456418Y-84187675D01*
X183505142Y-84239313D01*
X183518213Y-84309096D01*
X183491482Y-84374868D01*
X183451028Y-84408226D01*
X183443183Y-84412310D01*
X183438580Y-84414706D01*
X183434447Y-84417809D01*
X183434444Y-84417811D01*
X183264073Y-84545729D01*
X183259938Y-84548834D01*
X183238517Y-84571250D01*
X183129816Y-84684999D01*
X183105602Y-84710337D01*
X182979716Y-84894879D01*
X182944925Y-84969830D01*
X182887844Y-85092802D01*
X182885661Y-85097504D01*
X182825962Y-85312769D01*
X182802224Y-85534894D01*
X182802521Y-85540043D01*
X182802521Y-85540050D01*
X182804144Y-85568192D01*
X182815083Y-85757914D01*
X182816220Y-85762959D01*
X182816221Y-85762966D01*
X182832127Y-85833544D01*
X182864195Y-85975838D01*
X182902431Y-86070003D01*
X182937816Y-86157145D01*
X182948239Y-86182815D01*
X182989789Y-86250618D01*
X183058342Y-86362487D01*
X183064960Y-86373287D01*
X183211223Y-86542137D01*
X183314931Y-86628237D01*
X183376188Y-86679093D01*
X183383099Y-86684831D01*
X183453568Y-86726010D01*
X183456418Y-86727675D01*
X183505142Y-86779313D01*
X183518213Y-86849096D01*
X183491482Y-86914868D01*
X183451028Y-86948226D01*
X183443183Y-86952310D01*
X183438580Y-86954706D01*
X183434447Y-86957809D01*
X183434444Y-86957811D01*
X183264073Y-87085729D01*
X183259938Y-87088834D01*
X183238517Y-87111250D01*
X183129816Y-87224999D01*
X183105602Y-87250337D01*
X182979716Y-87434879D01*
X182939865Y-87520732D01*
X182887844Y-87632802D01*
X182885661Y-87637504D01*
X182825962Y-87852769D01*
X182802224Y-88074894D01*
X182802521Y-88080043D01*
X182802521Y-88080050D01*
X182807983Y-88174782D01*
X182815083Y-88297914D01*
X182816220Y-88302959D01*
X182816221Y-88302966D01*
X182836091Y-88391131D01*
X182864195Y-88515838D01*
X182922561Y-88659578D01*
X182943137Y-88710249D01*
X182948239Y-88722815D01*
X182989784Y-88790611D01*
X183056711Y-88899825D01*
X183064960Y-88913287D01*
X183211223Y-89082137D01*
X183314931Y-89168237D01*
X183376188Y-89219093D01*
X183383099Y-89224831D01*
X183453568Y-89266010D01*
X183456418Y-89267675D01*
X183505142Y-89319313D01*
X183518213Y-89389096D01*
X183491482Y-89454868D01*
X183451028Y-89488226D01*
X183443183Y-89492310D01*
X183438580Y-89494706D01*
X183434447Y-89497809D01*
X183434444Y-89497811D01*
X183264073Y-89625729D01*
X183259938Y-89628834D01*
X183238517Y-89651250D01*
X183126715Y-89768244D01*
X183105602Y-89790337D01*
X183102688Y-89794609D01*
X183102687Y-89794610D01*
X183090801Y-89812034D01*
X182979716Y-89974879D01*
X182932689Y-90076191D01*
X182887844Y-90172802D01*
X182885661Y-90177504D01*
X182825962Y-90392769D01*
X182802224Y-90614894D01*
X182802521Y-90620043D01*
X182802521Y-90620050D01*
X182807983Y-90714782D01*
X182815083Y-90837914D01*
X182816220Y-90842959D01*
X182816221Y-90842966D01*
X182836091Y-90931131D01*
X182864195Y-91055838D01*
X182948239Y-91262815D01*
X182950938Y-91267219D01*
X183053990Y-91435385D01*
X183064960Y-91453287D01*
X183211223Y-91622137D01*
X183314931Y-91708237D01*
X183376188Y-91759093D01*
X183383099Y-91764831D01*
X183453568Y-91806010D01*
X183456418Y-91807675D01*
X183505142Y-91859313D01*
X183518213Y-91929096D01*
X183491482Y-91994868D01*
X183451028Y-92028226D01*
X183443183Y-92032310D01*
X183438580Y-92034706D01*
X183434447Y-92037809D01*
X183434444Y-92037811D01*
X183264073Y-92165729D01*
X183259938Y-92168834D01*
X183238517Y-92191250D01*
X183142845Y-92291365D01*
X183105602Y-92330337D01*
X183102688Y-92334609D01*
X183102687Y-92334610D01*
X183045750Y-92418077D01*
X182979716Y-92514879D01*
X182963979Y-92548782D01*
X182887844Y-92712802D01*
X182885661Y-92717504D01*
X182825962Y-92932769D01*
X182802224Y-93154894D01*
X180429846Y-93154894D01*
X180569738Y-93015002D01*
X180584151Y-93002615D01*
X180595875Y-92993987D01*
X180601774Y-92989646D01*
X180636189Y-92949137D01*
X180643119Y-92941621D01*
X180648863Y-92935877D01*
X180651137Y-92933003D01*
X180651143Y-92932996D01*
X180666582Y-92913481D01*
X180669373Y-92910077D01*
X180712155Y-92859720D01*
X180712158Y-92859716D01*
X180716894Y-92854141D01*
X180720222Y-92847624D01*
X180723599Y-92842560D01*
X180726826Y-92837336D01*
X180731370Y-92831592D01*
X180762442Y-92765110D01*
X180764373Y-92761159D01*
X180786668Y-92717497D01*
X180797753Y-92695788D01*
X180799494Y-92688673D01*
X180801631Y-92682927D01*
X180803555Y-92677144D01*
X180806654Y-92670513D01*
X180821604Y-92598635D01*
X180822573Y-92594354D01*
X180838680Y-92528531D01*
X180840014Y-92523080D01*
X180840710Y-92511862D01*
X180840749Y-92511864D01*
X180840982Y-92507963D01*
X180841371Y-92503604D01*
X180842862Y-92496436D01*
X180840756Y-92418615D01*
X180840710Y-92415206D01*
X180840710Y-86430608D01*
X180860712Y-86362487D01*
X180869836Y-86350039D01*
X180882486Y-86334830D01*
X180995668Y-86198743D01*
X181095214Y-86020991D01*
X181097070Y-86015524D01*
X181097072Y-86015519D01*
X181158844Y-85833544D01*
X181158845Y-85833539D01*
X181160700Y-85828075D01*
X181189933Y-85626455D01*
X181191459Y-85568192D01*
X181172818Y-85365318D01*
X181159444Y-85317899D01*
X181119085Y-85174798D01*
X181119084Y-85174796D01*
X181117517Y-85169239D01*
X181114915Y-85163961D01*
X181029966Y-84991702D01*
X181027411Y-84986521D01*
X181021979Y-84979246D01*
X180908968Y-84827907D01*
X180908968Y-84827906D01*
X180905515Y-84823283D01*
X180807468Y-84732649D01*
X180760153Y-84688911D01*
X180760150Y-84688909D01*
X180755913Y-84684992D01*
X180689217Y-84642910D01*
X180588498Y-84579361D01*
X180588493Y-84579359D01*
X180583614Y-84576280D01*
X180479470Y-84534731D01*
X180399759Y-84502929D01*
X180394390Y-84500787D01*
X180194576Y-84461041D01*
X180188802Y-84460965D01*
X180188798Y-84460965D01*
X180085662Y-84459616D01*
X179990865Y-84458375D01*
X179985168Y-84459354D01*
X179985167Y-84459354D01*
X179968750Y-84462175D01*
X179790080Y-84492876D01*
X179598944Y-84563390D01*
X179593983Y-84566342D01*
X179593982Y-84566342D01*
X179580875Y-84574140D01*
X179465284Y-84642910D01*
X179456893Y-84647902D01*
X179388123Y-84665542D01*
X179320733Y-84643202D01*
X179276119Y-84587974D01*
X179266470Y-84539617D01*
X179266470Y-84054810D01*
X179286472Y-83986689D01*
X179340128Y-83940196D01*
X179410402Y-83930092D01*
X179462471Y-83950044D01*
X179547013Y-84006534D01*
X179552316Y-84008812D01*
X179552319Y-84008814D01*
X179728890Y-84084675D01*
X179734197Y-84086955D01*
X179807027Y-84103435D01*
X179927265Y-84130642D01*
X179927270Y-84130643D01*
X179932902Y-84131917D01*
X179938673Y-84132144D01*
X179938675Y-84132144D01*
X180001680Y-84134619D01*
X180136473Y-84139915D01*
X180338093Y-84110682D01*
X180343557Y-84108827D01*
X180343562Y-84108826D01*
X180525537Y-84047054D01*
X180525542Y-84047052D01*
X180531009Y-84045196D01*
X180708761Y-83945650D01*
X180865396Y-83815378D01*
X180995668Y-83658743D01*
X181095214Y-83480991D01*
X181097070Y-83475524D01*
X181097072Y-83475519D01*
X181158844Y-83293544D01*
X181158845Y-83293539D01*
X181160700Y-83288075D01*
X181189933Y-83086455D01*
X181191459Y-83028192D01*
X181172818Y-82825318D01*
X181158399Y-82774192D01*
X181119085Y-82634798D01*
X181119084Y-82634796D01*
X181117517Y-82629239D01*
X181100173Y-82594067D01*
X181029966Y-82451702D01*
X181027411Y-82446521D01*
X181021979Y-82439246D01*
X180908968Y-82287907D01*
X180908968Y-82287906D01*
X180905515Y-82283283D01*
X180811600Y-82196469D01*
X180760153Y-82148911D01*
X180760150Y-82148909D01*
X180755913Y-82144992D01*
X180709885Y-82115951D01*
X180588498Y-82039361D01*
X180588493Y-82039359D01*
X180583614Y-82036280D01*
X180394390Y-81960787D01*
X180194576Y-81921041D01*
X180188802Y-81920965D01*
X180188798Y-81920965D01*
X180085662Y-81919616D01*
X179990865Y-81918375D01*
X179985168Y-81919354D01*
X179985167Y-81919354D01*
X179795777Y-81951897D01*
X179790080Y-81952876D01*
X179598944Y-82023390D01*
X179593983Y-82026342D01*
X179593982Y-82026342D01*
X179585733Y-82031250D01*
X179423859Y-82127555D01*
X179340329Y-82200809D01*
X179301998Y-82234424D01*
X179237594Y-82264301D01*
X179218921Y-82265692D01*
X179095578Y-82265692D01*
X179076630Y-82264259D01*
X179069243Y-82263135D01*
X179062234Y-82262069D01*
X179062232Y-82262069D01*
X179055002Y-82260969D01*
X179047710Y-82261562D01*
X179047707Y-82261562D01*
X179002035Y-82265277D01*
X178991821Y-82265692D01*
X178983685Y-82265692D01*
X178980050Y-82266116D01*
X178980047Y-82266116D01*
X178962045Y-82268215D01*
X178955294Y-82269002D01*
X178950923Y-82269435D01*
X178939911Y-82270330D01*
X178885082Y-82274789D01*
X178885079Y-82274790D01*
X178877783Y-82275383D01*
X178870821Y-82277638D01*
X178864817Y-82278838D01*
X178858870Y-82280244D01*
X178851603Y-82281091D01*
X178782598Y-82306139D01*
X178778437Y-82307567D01*
X178715597Y-82327924D01*
X178715592Y-82327926D01*
X178708635Y-82330180D01*
X178702383Y-82333974D01*
X178696808Y-82336526D01*
X178691345Y-82339262D01*
X178684469Y-82341758D01*
X178670983Y-82350600D01*
X178623073Y-82382011D01*
X178619369Y-82384348D01*
X178556629Y-82422420D01*
X178548204Y-82429860D01*
X178548179Y-82429832D01*
X178545254Y-82432426D01*
X178541900Y-82435231D01*
X178535775Y-82439246D01*
X178530740Y-82444561D01*
X178530739Y-82444562D01*
X178482222Y-82495778D01*
X178479844Y-82498220D01*
X178012442Y-82965622D01*
X177998029Y-82978009D01*
X177980406Y-82990978D01*
X177975662Y-82996561D01*
X177975663Y-82996561D01*
X177945991Y-83031487D01*
X177939061Y-83039003D01*
X177933317Y-83044747D01*
X177931043Y-83047621D01*
X177931037Y-83047628D01*
X177915598Y-83067143D01*
X177912807Y-83070547D01*
X177870025Y-83120904D01*
X177870022Y-83120908D01*
X177865286Y-83126483D01*
X177861958Y-83133000D01*
X177858581Y-83138064D01*
X177855354Y-83143288D01*
X177850810Y-83149032D01*
X177847711Y-83155663D01*
X177819738Y-83215514D01*
X177817807Y-83219465D01*
X177800821Y-83252730D01*
X177784427Y-83284836D01*
X177782686Y-83291951D01*
X177780549Y-83297697D01*
X177778625Y-83303480D01*
X177775526Y-83310111D01*
X177773217Y-83321215D01*
X177760578Y-83381979D01*
X177759609Y-83386261D01*
X177742166Y-83457544D01*
X177741470Y-83468762D01*
X177741431Y-83468760D01*
X177741198Y-83472661D01*
X177740809Y-83477020D01*
X177739318Y-83484188D01*
X177739516Y-83491505D01*
X177741424Y-83562009D01*
X177741470Y-83565418D01*
X177741470Y-86984404D01*
X177721468Y-87052525D01*
X177704565Y-87073499D01*
X177469277Y-87308787D01*
X177406965Y-87342813D01*
X177380182Y-87345692D01*
X176177322Y-87345692D01*
X176109201Y-87325690D01*
X176071529Y-87288131D01*
X176063985Y-87276469D01*
X175913641Y-87111243D01*
X175909590Y-87108044D01*
X175909586Y-87108040D01*
X175742385Y-86975992D01*
X175742381Y-86975990D01*
X175738330Y-86972790D01*
X175697024Y-86949988D01*
X175647055Y-86899556D01*
X175632283Y-86830113D01*
X175657399Y-86763708D01*
X175684751Y-86737101D01*
X175754372Y-86687441D01*
X175863831Y-86609365D01*
X175890912Y-86582379D01*
X176018406Y-86455329D01*
X176022067Y-86451681D01*
X176037210Y-86430608D01*
X176149406Y-86274469D01*
X176152424Y-86270269D01*
X176157562Y-86259874D01*
X176249107Y-86074645D01*
X176249108Y-86074643D01*
X176251401Y-86070003D01*
X176300183Y-85909444D01*
X176314836Y-85861215D01*
X176314836Y-85861213D01*
X176316341Y-85856261D01*
X176345500Y-85634782D01*
X176345614Y-85630129D01*
X176347045Y-85571557D01*
X176347045Y-85571553D01*
X176347127Y-85568192D01*
X176328823Y-85345553D01*
X176274402Y-85128894D01*
X176185325Y-84924032D01*
X176120148Y-84823283D01*
X176066793Y-84740809D01*
X176066791Y-84740806D01*
X176063985Y-84736469D01*
X175913641Y-84571243D01*
X175909590Y-84568044D01*
X175909586Y-84568040D01*
X175742385Y-84435992D01*
X175742381Y-84435990D01*
X175738330Y-84432790D01*
X175696540Y-84409721D01*
X175646569Y-84359289D01*
X175631797Y-84289846D01*
X175656913Y-84223440D01*
X175684265Y-84196833D01*
X175859299Y-84071984D01*
X175867171Y-84065331D01*
X176018023Y-83915004D01*
X176024701Y-83907157D01*
X176148974Y-83734212D01*
X176154284Y-83725375D01*
X176248641Y-83534459D01*
X176252440Y-83524864D01*
X176314348Y-83321102D01*
X176316526Y-83311029D01*
X176317957Y-83300154D01*
X176315746Y-83285970D01*
X176302588Y-83282192D01*
X173667196Y-83282192D01*
X173653665Y-83286165D01*
X173652228Y-83296158D01*
X173682536Y-83430638D01*
X173685616Y-83440467D01*
X173765741Y-83637795D01*
X173770384Y-83646986D01*
X173881665Y-83828580D01*
X173887748Y-83836891D01*
X174027184Y-83997859D01*
X174034551Y-84005075D01*
X174198405Y-84141108D01*
X174206852Y-84147023D01*
X174275940Y-84187395D01*
X174324664Y-84239034D01*
X174337735Y-84308817D01*
X174311004Y-84374588D01*
X174270555Y-84407944D01*
X174257578Y-84414699D01*
X174253445Y-84417802D01*
X174253442Y-84417804D01*
X174083071Y-84545722D01*
X174078936Y-84548827D01*
X174075364Y-84552565D01*
X173948814Y-84684992D01*
X173924600Y-84710330D01*
X173921686Y-84714602D01*
X173921685Y-84714603D01*
X173858498Y-84807232D01*
X173798714Y-84894872D01*
X173704659Y-85097497D01*
X173644960Y-85312762D01*
X173621222Y-85534887D01*
X173621519Y-85540040D01*
X173621519Y-85540043D01*
X173626982Y-85634782D01*
X173634081Y-85757907D01*
X173635218Y-85762953D01*
X173635219Y-85762959D01*
X173649894Y-85828075D01*
X173683193Y-85975831D01*
X173767237Y-86182808D01*
X173785855Y-86213190D01*
X173872988Y-86355378D01*
X173883958Y-86373280D01*
X174030221Y-86542130D01*
X174177581Y-86664471D01*
X174196193Y-86679922D01*
X174202097Y-86684824D01*
X174272566Y-86726003D01*
X174275416Y-86727668D01*
X174324140Y-86779306D01*
X174337211Y-86849089D01*
X174310480Y-86914861D01*
X174270026Y-86948219D01*
X174257578Y-86954699D01*
X174253445Y-86957802D01*
X174253442Y-86957804D01*
X174099351Y-87073499D01*
X174078936Y-87088827D01*
X173924600Y-87250330D01*
X173921686Y-87254602D01*
X173921685Y-87254603D01*
X173836527Y-87379441D01*
X173798714Y-87434872D01*
X173704659Y-87637497D01*
X173644960Y-87852762D01*
X173621222Y-88074887D01*
X173621519Y-88080040D01*
X173621519Y-88080043D01*
X173630790Y-88240838D01*
X173634081Y-88297907D01*
X173635218Y-88302953D01*
X173635219Y-88302959D01*
X173635221Y-88302966D01*
X173683193Y-88515831D01*
X173733861Y-88640613D01*
X173756814Y-88697138D01*
X173767237Y-88722808D01*
X173786587Y-88754384D01*
X173863269Y-88879518D01*
X173883958Y-88913280D01*
X174030221Y-89082130D01*
X174177581Y-89204471D01*
X174196193Y-89219922D01*
X174202097Y-89224824D01*
X174272566Y-89266003D01*
X174275416Y-89267668D01*
X174324140Y-89319306D01*
X174337211Y-89389089D01*
X174310480Y-89454861D01*
X174270026Y-89488219D01*
X174257578Y-89494699D01*
X174253445Y-89497802D01*
X174253442Y-89497804D01*
X174150781Y-89574884D01*
X174078936Y-89628827D01*
X173924600Y-89790330D01*
X173921686Y-89794602D01*
X173921685Y-89794603D01*
X173836527Y-89919441D01*
X173798714Y-89974872D01*
X173704659Y-90177497D01*
X173644960Y-90392762D01*
X173621222Y-90614887D01*
X173621519Y-90620040D01*
X173621519Y-90620043D01*
X173632851Y-90816582D01*
X173634081Y-90837907D01*
X173635218Y-90842953D01*
X173635219Y-90842959D01*
X173635221Y-90842966D01*
X173683193Y-91055831D01*
X173767237Y-91262808D01*
X173769936Y-91267212D01*
X173875709Y-91439818D01*
X173883958Y-91453280D01*
X174030221Y-91622130D01*
X174177581Y-91744471D01*
X174196193Y-91759922D01*
X174202097Y-91764824D01*
X174272566Y-91806003D01*
X174275416Y-91807668D01*
X174324140Y-91859306D01*
X174337211Y-91929089D01*
X174310480Y-91994861D01*
X174270026Y-92028219D01*
X174257578Y-92034699D01*
X174253445Y-92037802D01*
X174253442Y-92037804D01*
X174104998Y-92149259D01*
X174078936Y-92168827D01*
X173924600Y-92330330D01*
X173921686Y-92334602D01*
X173921685Y-92334603D01*
X173865536Y-92416915D01*
X173798714Y-92514872D01*
X173761820Y-92594354D01*
X173729794Y-92663349D01*
X173704659Y-92717497D01*
X173644960Y-92932762D01*
X173621222Y-93154887D01*
X173133972Y-93154887D01*
X173133972Y-80454887D01*
X173621222Y-80454887D01*
X173621519Y-80460040D01*
X173621519Y-80460043D01*
X173626982Y-80554782D01*
X173634081Y-80677907D01*
X173635218Y-80682953D01*
X173635219Y-80682959D01*
X173648570Y-80742199D01*
X173683193Y-80895831D01*
X173767237Y-81102808D01*
X173883958Y-81293280D01*
X174030221Y-81462130D01*
X174202097Y-81604824D01*
X174274961Y-81647402D01*
X174275926Y-81647966D01*
X174324650Y-81699604D01*
X174337721Y-81769387D01*
X174310990Y-81835159D01*
X174270533Y-81868519D01*
X174262428Y-81872738D01*
X174253709Y-81878228D01*
X174083404Y-82006097D01*
X174075697Y-82012940D01*
X173928561Y-82166909D01*
X173922075Y-82174919D01*
X173802069Y-82350841D01*
X173796971Y-82359815D01*
X173707309Y-82552975D01*
X173703746Y-82562662D01*
X173648360Y-82762375D01*
X173649883Y-82770799D01*
X173662263Y-82774192D01*
X176302315Y-82774192D01*
X176315846Y-82770219D01*
X176317151Y-82761139D01*
X176275185Y-82594067D01*
X176271865Y-82584316D01*
X176186943Y-82389006D01*
X176182076Y-82379931D01*
X176066397Y-82201118D01*
X176060107Y-82192949D01*
X175916777Y-82035432D01*
X175909244Y-82028407D01*
X175742110Y-81896414D01*
X175733527Y-81890712D01*
X175696573Y-81870312D01*
X175646602Y-81819879D01*
X175631830Y-81750437D01*
X175656946Y-81684031D01*
X175684298Y-81657424D01*
X175707768Y-81640683D01*
X175863831Y-81529365D01*
X176022067Y-81371681D01*
X176081565Y-81288881D01*
X176149406Y-81194469D01*
X176152424Y-81190269D01*
X176154840Y-81185382D01*
X176249107Y-80994645D01*
X176249108Y-80994643D01*
X176251401Y-80990003D01*
X176316341Y-80776261D01*
X176345500Y-80554782D01*
X176347127Y-80488192D01*
X176328823Y-80265553D01*
X176274402Y-80048894D01*
X176185325Y-79844032D01*
X176120346Y-79743590D01*
X176066793Y-79660809D01*
X176066791Y-79660806D01*
X176063985Y-79656469D01*
X175913641Y-79491243D01*
X175909590Y-79488044D01*
X175909586Y-79488040D01*
X175742385Y-79355992D01*
X175742381Y-79355990D01*
X175738330Y-79352790D01*
X175697024Y-79329988D01*
X175647055Y-79279556D01*
X175632283Y-79210113D01*
X175657399Y-79143708D01*
X175684751Y-79117101D01*
X175754372Y-79067441D01*
X175863831Y-78989365D01*
X175890919Y-78962372D01*
X176018406Y-78835329D01*
X176022067Y-78831681D01*
X176025083Y-78827484D01*
X176071300Y-78763166D01*
X176127295Y-78719518D01*
X176173623Y-78710692D01*
X179221012Y-78710692D01*
X179289133Y-78730694D01*
X179308934Y-78746438D01*
X179315958Y-78753280D01*
X179377620Y-78813349D01*
X179382416Y-78816554D01*
X179382419Y-78816556D01*
X179450359Y-78861952D01*
X179547013Y-78926534D01*
X179552316Y-78928812D01*
X179552319Y-78928814D01*
X179728890Y-79004675D01*
X179734197Y-79006955D01*
X179807027Y-79023435D01*
X179927265Y-79050642D01*
X179927270Y-79050643D01*
X179932902Y-79051917D01*
X179938673Y-79052144D01*
X179938675Y-79052144D01*
X180001680Y-79054619D01*
X180136473Y-79059915D01*
X180338093Y-79030682D01*
X180343557Y-79028827D01*
X180343562Y-79028826D01*
X180525537Y-78967054D01*
X180525542Y-78967052D01*
X180531009Y-78965196D01*
X180708761Y-78865650D01*
X180865396Y-78735378D01*
X180995668Y-78578743D01*
X181095214Y-78400991D01*
X181097070Y-78395524D01*
X181097072Y-78395519D01*
X181158844Y-78213544D01*
X181158845Y-78213539D01*
X181160700Y-78208075D01*
X181189933Y-78006455D01*
X181191459Y-77948192D01*
X181172818Y-77745318D01*
X181159444Y-77697899D01*
X181119085Y-77554798D01*
X181119084Y-77554796D01*
X181117517Y-77549239D01*
X181100100Y-77513919D01*
X181029966Y-77371702D01*
X181027411Y-77366521D01*
X180958979Y-77274879D01*
X180908968Y-77207907D01*
X180908968Y-77207906D01*
X180905515Y-77203283D01*
X180807460Y-77112642D01*
X180760153Y-77068911D01*
X180760150Y-77068909D01*
X180755913Y-77064992D01*
X180702568Y-77031334D01*
X180655631Y-76978068D01*
X180644942Y-76907881D01*
X180673897Y-76843057D01*
X180733301Y-76804177D01*
X180763946Y-76800611D01*
X180763859Y-76799011D01*
X180771163Y-76798616D01*
X180778473Y-76799069D01*
X180785688Y-76797829D01*
X180791160Y-76797533D01*
X180796607Y-76797056D01*
X180803925Y-76797266D01*
X180876514Y-76782292D01*
X180880570Y-76781526D01*
X180953593Y-76768978D01*
X180960327Y-76766113D01*
X180967081Y-76764125D01*
X180967079Y-76764119D01*
X180972456Y-76762500D01*
X180977948Y-76761367D01*
X180984772Y-76758630D01*
X180986571Y-76757909D01*
X180986584Y-76757904D01*
X180988380Y-76757183D01*
X180990139Y-76756348D01*
X180990154Y-76756341D01*
X181046855Y-76729411D01*
X181051577Y-76727286D01*
X181110355Y-76702275D01*
X181110354Y-76702275D01*
X181117093Y-76699408D01*
X181122989Y-76695070D01*
X181129349Y-76691442D01*
X181129436Y-76691594D01*
X181140866Y-76684759D01*
X181171703Y-76670113D01*
X181329982Y-76594937D01*
X182271796Y-76147616D01*
X182280402Y-76143914D01*
X182284749Y-76142233D01*
X182332712Y-76123683D01*
X182390633Y-76083959D01*
X182395024Y-76081080D01*
X182448522Y-76047578D01*
X182448521Y-76047578D01*
X182454726Y-76043693D01*
X182459871Y-76038484D01*
X182465580Y-76033909D01*
X182465679Y-76034033D01*
X182467799Y-76032260D01*
X182467692Y-76032138D01*
X182473209Y-76027326D01*
X182479247Y-76023185D01*
X182526449Y-75971231D01*
X182530061Y-75967418D01*
X182574440Y-75922485D01*
X182579588Y-75917273D01*
X182582044Y-75913240D01*
X182638870Y-75872492D01*
X182709774Y-75868879D01*
X182771376Y-75904175D01*
X182804117Y-75967171D01*
X182806473Y-75991425D01*
X182806473Y-76306333D01*
X182813228Y-76368515D01*
X182864358Y-76504904D01*
X182951712Y-76621460D01*
X183068268Y-76708814D01*
X183076677Y-76711966D01*
X183076678Y-76711967D01*
X183185424Y-76752734D01*
X183242189Y-76795375D01*
X183266889Y-76861937D01*
X183251682Y-76931286D01*
X183232289Y-76957767D01*
X183142845Y-77051365D01*
X183105602Y-77090337D01*
X183102688Y-77094609D01*
X183102687Y-77094610D01*
X183090382Y-77112649D01*
X182979716Y-77274879D01*
X182963979Y-77308782D01*
X182887844Y-77472802D01*
X182885661Y-77477504D01*
X182825962Y-77692769D01*
X182802224Y-77914894D01*
X182802521Y-77920043D01*
X182802521Y-77920050D01*
X182807983Y-78014782D01*
X182815083Y-78137914D01*
X182816220Y-78142959D01*
X182816221Y-78142966D01*
X182832127Y-78213544D01*
X182864195Y-78355838D01*
X182948239Y-78562815D01*
X183064960Y-78753287D01*
X183211223Y-78922137D01*
X183383099Y-79064831D01*
X183456406Y-79107668D01*
X183456928Y-79107973D01*
X183505652Y-79159611D01*
X183518723Y-79229394D01*
X183491992Y-79295166D01*
X183451535Y-79328526D01*
X183443430Y-79332745D01*
X183434711Y-79338235D01*
X183264406Y-79466104D01*
X183256699Y-79472947D01*
X183109563Y-79626916D01*
X183103077Y-79634926D01*
X182983071Y-79810848D01*
X182977973Y-79819822D01*
X182888311Y-80012982D01*
X182884748Y-80022669D01*
X182829362Y-80222382D01*
X182830885Y-80230806D01*
X182843265Y-80234199D01*
X185483317Y-80234199D01*
X185496848Y-80230226D01*
X185498153Y-80221146D01*
X185456187Y-80054074D01*
X185452867Y-80044323D01*
X185367945Y-79849013D01*
X185363078Y-79839938D01*
X185247399Y-79661125D01*
X185241109Y-79652956D01*
X185097779Y-79495439D01*
X185090246Y-79488414D01*
X184923112Y-79356421D01*
X184914529Y-79350719D01*
X184877575Y-79330319D01*
X184827604Y-79279886D01*
X184812832Y-79210444D01*
X184837948Y-79144038D01*
X184865300Y-79117431D01*
X184888770Y-79100690D01*
X185044833Y-78989372D01*
X185203069Y-78831688D01*
X185213943Y-78816556D01*
X185330408Y-78654476D01*
X185333426Y-78650276D01*
X185366583Y-78583189D01*
X185430109Y-78454652D01*
X185430112Y-78454645D01*
X185432403Y-78450010D01*
X185497343Y-78236268D01*
X185526502Y-78014789D01*
X185528129Y-77948199D01*
X185509825Y-77725560D01*
X185455404Y-77508901D01*
X185366327Y-77304039D01*
X185244987Y-77116476D01*
X185241505Y-77112649D01*
X185097771Y-76954687D01*
X185066719Y-76890841D01*
X185075114Y-76820342D01*
X185120290Y-76765574D01*
X185146734Y-76751905D01*
X185253270Y-76711966D01*
X185261678Y-76708814D01*
X185378234Y-76621460D01*
X185465588Y-76504904D01*
X185516718Y-76368515D01*
X185523473Y-76306333D01*
X185523473Y-74510065D01*
X185516718Y-74447883D01*
X185465588Y-74311494D01*
X185378234Y-74194938D01*
X185261678Y-74107584D01*
X185125289Y-74056454D01*
X185063107Y-74049699D01*
X183266839Y-74049699D01*
X183204657Y-74056454D01*
X183068268Y-74107584D01*
X182951712Y-74194938D01*
X182864358Y-74311494D01*
X182813228Y-74447883D01*
X182806473Y-74510065D01*
X182806473Y-74904492D01*
X182786471Y-74972613D01*
X182732815Y-75019106D01*
X182662541Y-75029210D01*
X182597961Y-74999716D01*
X182577456Y-74977042D01*
X182568374Y-74964146D01*
X182546857Y-74933593D01*
X182541371Y-74928732D01*
X182536498Y-74923283D01*
X182536616Y-74923177D01*
X182534728Y-74921152D01*
X182534611Y-74921266D01*
X182529507Y-74916017D01*
X182525044Y-74910209D01*
X182518024Y-74904492D01*
X182470613Y-74865885D01*
X182466612Y-74862487D01*
X182419348Y-74820607D01*
X182419349Y-74820607D01*
X182413869Y-74815752D01*
X182407418Y-74812286D01*
X182401418Y-74808102D01*
X182401508Y-74807972D01*
X182396365Y-74804543D01*
X182396261Y-74804697D01*
X182391613Y-74801555D01*
X182387260Y-74798011D01*
X182377426Y-74792570D01*
X182322270Y-74766373D01*
X182316775Y-74763594D01*
X182257338Y-74731665D01*
X182250266Y-74729778D01*
X182250257Y-74729774D01*
X182249892Y-74729677D01*
X182228330Y-74721754D01*
X181616863Y-74431326D01*
X181097403Y-74184598D01*
X181088199Y-74179751D01*
X181059540Y-74163104D01*
X181049230Y-74157115D01*
X181049228Y-74157114D01*
X181042899Y-74153438D01*
X181035892Y-74151316D01*
X181035888Y-74151314D01*
X180972015Y-74131969D01*
X180968042Y-74130694D01*
X180915847Y-74112970D01*
X180904810Y-74109222D01*
X180904808Y-74109222D01*
X180897883Y-74106870D01*
X180890599Y-74106174D01*
X180885237Y-74105024D01*
X180879844Y-74104054D01*
X180872841Y-74101933D01*
X180798935Y-74097348D01*
X180794754Y-74097019D01*
X180728292Y-74090670D01*
X180728288Y-74090670D01*
X180721001Y-74089974D01*
X180713747Y-74090973D01*
X180708302Y-74091087D01*
X180702805Y-74091385D01*
X180695495Y-74090931D01*
X180688279Y-74092171D01*
X180688277Y-74092171D01*
X180622504Y-74103473D01*
X180618362Y-74104114D01*
X180544977Y-74114224D01*
X180538147Y-74116866D01*
X180532834Y-74118239D01*
X180527589Y-74119783D01*
X180520375Y-74121022D01*
X180513645Y-74123886D01*
X180513644Y-74123886D01*
X180452221Y-74150022D01*
X180448341Y-74151597D01*
X180379252Y-74178317D01*
X180373213Y-74182459D01*
X180368369Y-74185012D01*
X180363611Y-74187726D01*
X180356875Y-74190592D01*
X180350982Y-74194928D01*
X180350978Y-74194931D01*
X180297209Y-74234500D01*
X180293793Y-74236927D01*
X180245144Y-74270293D01*
X180232717Y-74278816D01*
X180227792Y-74284237D01*
X180223689Y-74287816D01*
X180219667Y-74291566D01*
X180213764Y-74295910D01*
X180209020Y-74301494D01*
X180165821Y-74352343D01*
X180163054Y-74355492D01*
X180118158Y-74404908D01*
X180118154Y-74404913D01*
X180113233Y-74410330D01*
X180109689Y-74416736D01*
X180106503Y-74421185D01*
X180103460Y-74425746D01*
X180098720Y-74431326D01*
X180095394Y-74437840D01*
X180095391Y-74437844D01*
X180065038Y-74497287D01*
X180063072Y-74500986D01*
X180027207Y-74565804D01*
X180025233Y-74572846D01*
X180023154Y-74577915D01*
X180021242Y-74583056D01*
X180017913Y-74589575D01*
X180016174Y-74596681D01*
X180016172Y-74596687D01*
X180005192Y-74641561D01*
X180001956Y-74654790D01*
X180000305Y-74661536D01*
X179999253Y-74665546D01*
X179979256Y-74736898D01*
X179978955Y-74744211D01*
X179977852Y-74751171D01*
X179977858Y-74751172D01*
X179977014Y-74756717D01*
X179975680Y-74762170D01*
X179974984Y-74773388D01*
X179974984Y-74838126D01*
X179974877Y-74843307D01*
X179971950Y-74914433D01*
X179973340Y-74921622D01*
X179973888Y-74928923D01*
X179973714Y-74928936D01*
X179974984Y-74942196D01*
X179974984Y-75995911D01*
X179974552Y-76006332D01*
X179970221Y-76058518D01*
X179971309Y-76065749D01*
X179971309Y-76065753D01*
X179981244Y-76131787D01*
X179981796Y-76135928D01*
X179990374Y-76209496D01*
X179992869Y-76216371D01*
X179994125Y-76221684D01*
X179995567Y-76226988D01*
X179996656Y-76234227D01*
X179999381Y-76241021D01*
X180024230Y-76302973D01*
X180025723Y-76306882D01*
X180051000Y-76376520D01*
X180055015Y-76382643D01*
X180057464Y-76387534D01*
X180060080Y-76392352D01*
X180062804Y-76399143D01*
X180067014Y-76405121D01*
X180067019Y-76405130D01*
X180105453Y-76459702D01*
X180107809Y-76463168D01*
X180144410Y-76518995D01*
X180144416Y-76519002D01*
X180148425Y-76525117D01*
X180153738Y-76530150D01*
X180157253Y-76534353D01*
X180160899Y-76538430D01*
X180165116Y-76544418D01*
X180202000Y-76577101D01*
X180220572Y-76593558D01*
X180223625Y-76596355D01*
X180251938Y-76623176D01*
X180287635Y-76684543D01*
X180284488Y-76755470D01*
X180243494Y-76813436D01*
X180177669Y-76840037D01*
X180163635Y-76840636D01*
X180134430Y-76840254D01*
X179990865Y-76838375D01*
X179985168Y-76839354D01*
X179985167Y-76839354D01*
X179795777Y-76871897D01*
X179790080Y-76872876D01*
X179598944Y-76943390D01*
X179593983Y-76946342D01*
X179593982Y-76946342D01*
X179574779Y-76957767D01*
X179423859Y-77047555D01*
X179301998Y-77154424D01*
X179237594Y-77184301D01*
X179218921Y-77185692D01*
X176177322Y-77185692D01*
X176109201Y-77165690D01*
X176071529Y-77128131D01*
X176063985Y-77116469D01*
X176044095Y-77094610D01*
X175916769Y-76954680D01*
X175885717Y-76890834D01*
X175894112Y-76820335D01*
X175939288Y-76765567D01*
X175965732Y-76751898D01*
X176072268Y-76711959D01*
X176080676Y-76708807D01*
X176197232Y-76621453D01*
X176284586Y-76504897D01*
X176335716Y-76368508D01*
X176342471Y-76306326D01*
X176342471Y-74510058D01*
X176335716Y-74447876D01*
X176284586Y-74311487D01*
X176197232Y-74194931D01*
X176080676Y-74107577D01*
X175944287Y-74056447D01*
X175882105Y-74049692D01*
X174085837Y-74049692D01*
X174023655Y-74056447D01*
X173887266Y-74107577D01*
X173770710Y-74194931D01*
X173683356Y-74311487D01*
X173632226Y-74447876D01*
X173625471Y-74510058D01*
X173625471Y-76306326D01*
X173632226Y-76368508D01*
X173683356Y-76504897D01*
X173770710Y-76621453D01*
X173887266Y-76708807D01*
X173895675Y-76711959D01*
X173895676Y-76711960D01*
X174004422Y-76752727D01*
X174061187Y-76795368D01*
X174085887Y-76861930D01*
X174070680Y-76931279D01*
X174051287Y-76957760D01*
X173948814Y-77064992D01*
X173924600Y-77090330D01*
X173798714Y-77274872D01*
X173704659Y-77477497D01*
X173644960Y-77692762D01*
X173621222Y-77914887D01*
X173621519Y-77920040D01*
X173621519Y-77920043D01*
X173633783Y-78132739D01*
X173634081Y-78137907D01*
X173635218Y-78142953D01*
X173635219Y-78142959D01*
X173649894Y-78208075D01*
X173683193Y-78355831D01*
X173767237Y-78562808D01*
X173817990Y-78645630D01*
X173875250Y-78739069D01*
X173883958Y-78753280D01*
X174030221Y-78922130D01*
X174133929Y-79008230D01*
X174195186Y-79059086D01*
X174202097Y-79064824D01*
X174272566Y-79106003D01*
X174275416Y-79107668D01*
X174324140Y-79159306D01*
X174337211Y-79229089D01*
X174310480Y-79294861D01*
X174270026Y-79328219D01*
X174257578Y-79334699D01*
X174253445Y-79337802D01*
X174253442Y-79337804D01*
X174083071Y-79465722D01*
X174078936Y-79468827D01*
X173924600Y-79630330D01*
X173921686Y-79634602D01*
X173921685Y-79634603D01*
X173866365Y-79715699D01*
X173798714Y-79814872D01*
X173704659Y-80017497D01*
X173644960Y-80232762D01*
X173621222Y-80454887D01*
X173133972Y-80454887D01*
X173133972Y-72350000D01*
X173796484Y-72350000D01*
X173816439Y-72578087D01*
X173875698Y-72799243D01*
X173878021Y-72804224D01*
X173878021Y-72804225D01*
X173970133Y-73001762D01*
X173970136Y-73001767D01*
X173972459Y-73006749D01*
X174103784Y-73194300D01*
X174265682Y-73356198D01*
X174270190Y-73359355D01*
X174270193Y-73359357D01*
X174348371Y-73414098D01*
X174453233Y-73487523D01*
X174458215Y-73489846D01*
X174458220Y-73489849D01*
X174655757Y-73581961D01*
X174660739Y-73584284D01*
X174666047Y-73585706D01*
X174666049Y-73585707D01*
X174876580Y-73642119D01*
X174876582Y-73642119D01*
X174881895Y-73643543D01*
X175109982Y-73663498D01*
X175338069Y-73643543D01*
X175343382Y-73642119D01*
X175343384Y-73642119D01*
X175553915Y-73585707D01*
X175553917Y-73585706D01*
X175559225Y-73584284D01*
X175564207Y-73581961D01*
X175761744Y-73489849D01*
X175761749Y-73489846D01*
X175766731Y-73487523D01*
X175871593Y-73414098D01*
X175949771Y-73359357D01*
X175949774Y-73359355D01*
X175954282Y-73356198D01*
X176116180Y-73194300D01*
X176247505Y-73006749D01*
X176249828Y-73001767D01*
X176249831Y-73001762D01*
X176341943Y-72804225D01*
X176341943Y-72804224D01*
X176344266Y-72799243D01*
X176403525Y-72578087D01*
X176423480Y-72350000D01*
X176403525Y-72121913D01*
X176344266Y-71900757D01*
X176341943Y-71895775D01*
X176249831Y-71698238D01*
X176249828Y-71698233D01*
X176247505Y-71693251D01*
X176116180Y-71505700D01*
X175954282Y-71343802D01*
X175949774Y-71340645D01*
X175949771Y-71340643D01*
X175771235Y-71215631D01*
X175766731Y-71212477D01*
X175761747Y-71210153D01*
X175759454Y-71208829D01*
X175710461Y-71157447D01*
X175697025Y-71087733D01*
X175723411Y-71021822D01*
X175759454Y-70990591D01*
X175770984Y-70983934D01*
X175823030Y-70947491D01*
X175831406Y-70937012D01*
X175824338Y-70923566D01*
X175122794Y-70222022D01*
X175108850Y-70214408D01*
X175107017Y-70214539D01*
X175100402Y-70218790D01*
X174394905Y-70924287D01*
X174388475Y-70936062D01*
X174397771Y-70948077D01*
X174448980Y-70983934D01*
X174460510Y-70990591D01*
X174509503Y-71041973D01*
X174522940Y-71111687D01*
X174496553Y-71177598D01*
X174460510Y-71208829D01*
X174458217Y-71210153D01*
X174453233Y-71212477D01*
X174448729Y-71215631D01*
X174270193Y-71340643D01*
X174270190Y-71340645D01*
X174265682Y-71343802D01*
X174103784Y-71505700D01*
X173972459Y-71693251D01*
X173970136Y-71698233D01*
X173970133Y-71698238D01*
X173878021Y-71895775D01*
X173875698Y-71900757D01*
X173816439Y-72121913D01*
X173796484Y-72350000D01*
X173133972Y-72350000D01*
X173133972Y-69855475D01*
X173797465Y-69855475D01*
X173816454Y-70072519D01*
X173818357Y-70083312D01*
X173874746Y-70293761D01*
X173878492Y-70304053D01*
X173970568Y-70501511D01*
X173976051Y-70511006D01*
X174012491Y-70563048D01*
X174022970Y-70571424D01*
X174036416Y-70564356D01*
X174737960Y-69862812D01*
X174744338Y-69851132D01*
X175474390Y-69851132D01*
X175474521Y-69852965D01*
X175478772Y-69859580D01*
X176184269Y-70565077D01*
X176196044Y-70571507D01*
X176208059Y-70562211D01*
X176243913Y-70511006D01*
X176249396Y-70501511D01*
X176341472Y-70304053D01*
X176345218Y-70293761D01*
X176401607Y-70083312D01*
X176403510Y-70072519D01*
X176422499Y-69855475D01*
X176422499Y-69844525D01*
X176403510Y-69627481D01*
X176401607Y-69616688D01*
X176345218Y-69406239D01*
X176341472Y-69395947D01*
X176249396Y-69198489D01*
X176243913Y-69188994D01*
X176207473Y-69136952D01*
X176196994Y-69128576D01*
X176183548Y-69135644D01*
X175482004Y-69837188D01*
X175474390Y-69851132D01*
X174744338Y-69851132D01*
X174745574Y-69848868D01*
X174745443Y-69847035D01*
X174741192Y-69840420D01*
X174035695Y-69134923D01*
X174023920Y-69128493D01*
X174011905Y-69137789D01*
X173976051Y-69188994D01*
X173970568Y-69198489D01*
X173878492Y-69395947D01*
X173874746Y-69406239D01*
X173818357Y-69616688D01*
X173816454Y-69627481D01*
X173797465Y-69844525D01*
X173797465Y-69855475D01*
X173133972Y-69855475D01*
X173133972Y-68762988D01*
X174388558Y-68762988D01*
X174395626Y-68776434D01*
X175097170Y-69477978D01*
X175111114Y-69485592D01*
X175112947Y-69485461D01*
X175119562Y-69481210D01*
X175825059Y-68775713D01*
X175831489Y-68763938D01*
X175822193Y-68751923D01*
X175770988Y-68716069D01*
X175761493Y-68710586D01*
X175564035Y-68618510D01*
X175553743Y-68614764D01*
X175343294Y-68558375D01*
X175332501Y-68556472D01*
X175115457Y-68537483D01*
X175104507Y-68537483D01*
X174887463Y-68556472D01*
X174876670Y-68558375D01*
X174666221Y-68614764D01*
X174655929Y-68618510D01*
X174458471Y-68710586D01*
X174448976Y-68716069D01*
X174396934Y-68752509D01*
X174388558Y-68762988D01*
X173133972Y-68762988D01*
X173133972Y-65243881D01*
X174562661Y-65243881D01*
X174579210Y-65530895D01*
X174580035Y-65535100D01*
X174580036Y-65535108D01*
X174611982Y-65697933D01*
X174634558Y-65813007D01*
X174635945Y-65817057D01*
X174635946Y-65817062D01*
X174726293Y-66080942D01*
X174727682Y-66084998D01*
X174856857Y-66341834D01*
X175019693Y-66578762D01*
X175213178Y-66791400D01*
X175216473Y-66794155D01*
X175216474Y-66794156D01*
X175267230Y-66836594D01*
X175433731Y-66975810D01*
X175677270Y-67128583D01*
X175939290Y-67246889D01*
X175943409Y-67248109D01*
X176210829Y-67327323D01*
X176210834Y-67327324D01*
X176214942Y-67328541D01*
X176219176Y-67329189D01*
X176219181Y-67329190D01*
X176467783Y-67367231D01*
X176499125Y-67372027D01*
X176645457Y-67374326D01*
X176782289Y-67376476D01*
X176782295Y-67376476D01*
X176786580Y-67376543D01*
X176790832Y-67376028D01*
X176790840Y-67376028D01*
X177067728Y-67342520D01*
X177067733Y-67342519D01*
X177071989Y-67342004D01*
X177350069Y-67269051D01*
X177615676Y-67159033D01*
X177863894Y-67013986D01*
X178090131Y-66836594D01*
X178131257Y-66794156D01*
X178287216Y-66633218D01*
X178290199Y-66630140D01*
X178292732Y-66626692D01*
X178292736Y-66626687D01*
X178457859Y-66401898D01*
X178460397Y-66398443D01*
X178597576Y-66145791D01*
X178699197Y-65876860D01*
X178763379Y-65596625D01*
X178788935Y-65310272D01*
X178789399Y-65266012D01*
X178787890Y-65243881D01*
X189540659Y-65243881D01*
X189557208Y-65530895D01*
X189558033Y-65535100D01*
X189558034Y-65535108D01*
X189589980Y-65697933D01*
X189612556Y-65813007D01*
X189613943Y-65817057D01*
X189613944Y-65817062D01*
X189704291Y-66080942D01*
X189705680Y-66084998D01*
X189834855Y-66341834D01*
X189997691Y-66578762D01*
X190191176Y-66791400D01*
X190194471Y-66794155D01*
X190194472Y-66794156D01*
X190245228Y-66836594D01*
X190411729Y-66975810D01*
X190655268Y-67128583D01*
X190917288Y-67246889D01*
X190921407Y-67248109D01*
X191188827Y-67327323D01*
X191188832Y-67327324D01*
X191192940Y-67328541D01*
X191197174Y-67329189D01*
X191197179Y-67329190D01*
X191445781Y-67367231D01*
X191477123Y-67372027D01*
X191623455Y-67374326D01*
X191760287Y-67376476D01*
X191760293Y-67376476D01*
X191764578Y-67376543D01*
X191768830Y-67376028D01*
X191768838Y-67376028D01*
X192045726Y-67342520D01*
X192045731Y-67342519D01*
X192049987Y-67342004D01*
X192328067Y-67269051D01*
X192593674Y-67159033D01*
X192841892Y-67013986D01*
X193068129Y-66836594D01*
X193109255Y-66794156D01*
X193265214Y-66633218D01*
X193268197Y-66630140D01*
X193270730Y-66626692D01*
X193270734Y-66626687D01*
X193435857Y-66401898D01*
X193438395Y-66398443D01*
X193575574Y-66145791D01*
X193677195Y-65876860D01*
X193741377Y-65596625D01*
X193766933Y-65310272D01*
X193767397Y-65266012D01*
X193747843Y-64979187D01*
X193743306Y-64957276D01*
X193690413Y-64701867D01*
X193689544Y-64697670D01*
X193593577Y-64426669D01*
X193497882Y-64241263D01*
X193463685Y-64175007D01*
X193463685Y-64175006D01*
X193461720Y-64171200D01*
X193448458Y-64152329D01*
X193298874Y-63939494D01*
X193296411Y-63935989D01*
X193100710Y-63725390D01*
X192878238Y-63543299D01*
X192633112Y-63393085D01*
X192615018Y-63385142D01*
X192373800Y-63279255D01*
X192369868Y-63277529D01*
X192343933Y-63270141D01*
X192097504Y-63199944D01*
X192097505Y-63199944D01*
X192093376Y-63198768D01*
X191880674Y-63168497D01*
X191813006Y-63158866D01*
X191813004Y-63158866D01*
X191808754Y-63158261D01*
X191804465Y-63158239D01*
X191804458Y-63158238D01*
X191525553Y-63156777D01*
X191525546Y-63156777D01*
X191521267Y-63156755D01*
X191517023Y-63157314D01*
X191517019Y-63157314D01*
X191391630Y-63173822D01*
X191236236Y-63194280D01*
X191232096Y-63195413D01*
X191232094Y-63195413D01*
X191155281Y-63216427D01*
X190958934Y-63270141D01*
X190954986Y-63271825D01*
X190698446Y-63381249D01*
X190698442Y-63381251D01*
X190694494Y-63382935D01*
X190569930Y-63457485D01*
X190451491Y-63528369D01*
X190451487Y-63528372D01*
X190447809Y-63530573D01*
X190223442Y-63710325D01*
X190106342Y-63833723D01*
X190035725Y-63908138D01*
X190025547Y-63918863D01*
X189857784Y-64152329D01*
X189723258Y-64406404D01*
X189624459Y-64676385D01*
X189563215Y-64957276D01*
X189540659Y-65243881D01*
X178787890Y-65243881D01*
X178769845Y-64979187D01*
X178765308Y-64957276D01*
X178712415Y-64701867D01*
X178711546Y-64697670D01*
X178615579Y-64426669D01*
X178519884Y-64241263D01*
X178485687Y-64175007D01*
X178485687Y-64175006D01*
X178483722Y-64171200D01*
X178470460Y-64152329D01*
X178320876Y-63939494D01*
X178318413Y-63935989D01*
X178122712Y-63725390D01*
X177900240Y-63543299D01*
X177655114Y-63393085D01*
X177637020Y-63385142D01*
X177395802Y-63279255D01*
X177391870Y-63277529D01*
X177365935Y-63270141D01*
X177119506Y-63199944D01*
X177119507Y-63199944D01*
X177115378Y-63198768D01*
X176902676Y-63168497D01*
X176835008Y-63158866D01*
X176835006Y-63158866D01*
X176830756Y-63158261D01*
X176826467Y-63158239D01*
X176826460Y-63158238D01*
X176547555Y-63156777D01*
X176547548Y-63156777D01*
X176543269Y-63156755D01*
X176539025Y-63157314D01*
X176539021Y-63157314D01*
X176413632Y-63173822D01*
X176258238Y-63194280D01*
X176254098Y-63195413D01*
X176254096Y-63195413D01*
X176177283Y-63216427D01*
X175980936Y-63270141D01*
X175976988Y-63271825D01*
X175720448Y-63381249D01*
X175720444Y-63381251D01*
X175716496Y-63382935D01*
X175591932Y-63457485D01*
X175473493Y-63528369D01*
X175473489Y-63528372D01*
X175469811Y-63530573D01*
X175245444Y-63710325D01*
X175128344Y-63833723D01*
X175057727Y-63908138D01*
X175047549Y-63918863D01*
X174879786Y-64152329D01*
X174745260Y-64406404D01*
X174646461Y-64676385D01*
X174585217Y-64957276D01*
X174562661Y-65243881D01*
X173133972Y-65243881D01*
X173133972Y-64265340D01*
X173135472Y-64245955D01*
X173137777Y-64231154D01*
X173137777Y-64231151D01*
X173139158Y-64222282D01*
X173136913Y-64205113D01*
X173136080Y-64181173D01*
X173151682Y-63923242D01*
X173153516Y-63908138D01*
X173189766Y-63710325D01*
X173205012Y-63627133D01*
X173208651Y-63612365D01*
X173234826Y-63528369D01*
X173293647Y-63339604D01*
X173299042Y-63325382D01*
X173323904Y-63270141D01*
X173416288Y-63064872D01*
X173423357Y-63051403D01*
X173571154Y-62806917D01*
X173579797Y-62794395D01*
X173755988Y-62569505D01*
X173766078Y-62558117D01*
X173968077Y-62356118D01*
X173979465Y-62346028D01*
X174204355Y-62169837D01*
X174216877Y-62161194D01*
X174461363Y-62013397D01*
X174474832Y-62006328D01*
X174735345Y-61889081D01*
X174749564Y-61883687D01*
X175022331Y-61798690D01*
X175037093Y-61795052D01*
X175247324Y-61756526D01*
X175318098Y-61743556D01*
X175333202Y-61741722D01*
X175583901Y-61726557D01*
X175610611Y-61727814D01*
X175610831Y-61727817D01*
X175619702Y-61729198D01*
X175628604Y-61728034D01*
X175628607Y-61728034D01*
X175651223Y-61725076D01*
X175667561Y-61724012D01*
X192654642Y-61724012D01*
X192674027Y-61725512D01*
G37*
%TD.AperFunction*%
%TA.AperFunction,Conductor*%
G36*
X192219634Y-81270694D02*
G01*
X192246750Y-81294195D01*
X192317031Y-81375329D01*
X192392221Y-81462130D01*
X192564097Y-81604824D01*
X192634566Y-81646003D01*
X192637416Y-81647668D01*
X192686140Y-81699306D01*
X192699211Y-81769089D01*
X192672480Y-81834861D01*
X192632026Y-81868219D01*
X192619578Y-81874699D01*
X192615445Y-81877802D01*
X192615442Y-81877804D01*
X192506420Y-81959660D01*
X192440936Y-82008827D01*
X192437364Y-82012565D01*
X192310814Y-82144992D01*
X192286600Y-82170330D01*
X192283686Y-82174602D01*
X192283685Y-82174603D01*
X192219117Y-82269256D01*
X192160714Y-82354872D01*
X192066659Y-82557497D01*
X192006960Y-82772762D01*
X191983222Y-82994887D01*
X191983519Y-83000040D01*
X191983519Y-83000043D01*
X191991477Y-83138064D01*
X191996081Y-83217907D01*
X191997218Y-83222953D01*
X191997219Y-83222959D01*
X192011164Y-83284836D01*
X192045193Y-83435831D01*
X192129237Y-83642808D01*
X192179834Y-83725375D01*
X192237250Y-83819069D01*
X192245958Y-83833280D01*
X192392221Y-84002130D01*
X192495929Y-84088230D01*
X192557186Y-84139086D01*
X192564097Y-84144824D01*
X192634566Y-84186003D01*
X192637416Y-84187668D01*
X192686140Y-84239306D01*
X192699211Y-84309089D01*
X192672480Y-84374861D01*
X192632026Y-84408219D01*
X192619578Y-84414699D01*
X192615445Y-84417802D01*
X192615442Y-84417804D01*
X192445071Y-84545722D01*
X192440936Y-84548827D01*
X192286600Y-84710330D01*
X192274555Y-84727988D01*
X192259063Y-84750697D01*
X192204151Y-84795699D01*
X192154975Y-84805692D01*
X191109166Y-84805692D01*
X191090216Y-84804259D01*
X191075817Y-84802068D01*
X191075811Y-84802068D01*
X191068582Y-84800968D01*
X191061290Y-84801561D01*
X191061287Y-84801561D01*
X191015607Y-84805277D01*
X191005392Y-84805692D01*
X190997265Y-84805692D01*
X190993629Y-84806116D01*
X190993627Y-84806116D01*
X190991029Y-84806419D01*
X190968866Y-84809003D01*
X190964546Y-84809430D01*
X190891364Y-84815383D01*
X190884402Y-84817639D01*
X190878414Y-84818835D01*
X190872457Y-84820243D01*
X190865183Y-84821091D01*
X190858301Y-84823589D01*
X190858297Y-84823590D01*
X190796183Y-84846137D01*
X190792079Y-84847547D01*
X190722215Y-84870179D01*
X190715952Y-84873979D01*
X190710410Y-84876517D01*
X190704934Y-84879259D01*
X190698049Y-84881758D01*
X190691925Y-84885773D01*
X190636658Y-84922007D01*
X190632990Y-84924322D01*
X190570209Y-84962419D01*
X190566004Y-84966133D01*
X190566001Y-84966135D01*
X190561785Y-84969859D01*
X190561759Y-84969830D01*
X190558828Y-84972430D01*
X190555474Y-84975234D01*
X190549355Y-84979246D01*
X190544323Y-84984558D01*
X190495802Y-85035778D01*
X190493424Y-85038220D01*
X190287577Y-85244067D01*
X190225265Y-85278093D01*
X190154450Y-85273028D01*
X190097614Y-85230481D01*
X190072803Y-85163961D01*
X190072482Y-85154972D01*
X190072482Y-81668028D01*
X190092484Y-81599907D01*
X190109387Y-81578933D01*
X190400723Y-81287597D01*
X190463035Y-81253571D01*
X190489818Y-81250692D01*
X192151513Y-81250692D01*
X192219634Y-81270694D01*
G37*
%TD.AperFunction*%
%TA.AperFunction,Conductor*%
G36*
X192219634Y-76190694D02*
G01*
X192246750Y-76214195D01*
X192387361Y-76376520D01*
X192392221Y-76382130D01*
X192564097Y-76524824D01*
X192634566Y-76566003D01*
X192637416Y-76567668D01*
X192686140Y-76619306D01*
X192699211Y-76689089D01*
X192672480Y-76754861D01*
X192632026Y-76788219D01*
X192619578Y-76794699D01*
X192615445Y-76797802D01*
X192615442Y-76797804D01*
X192468833Y-76907881D01*
X192440936Y-76928827D01*
X192437364Y-76932565D01*
X192310814Y-77064992D01*
X192286600Y-77090330D01*
X192160714Y-77274872D01*
X192066659Y-77477497D01*
X192006960Y-77692762D01*
X191983222Y-77914887D01*
X191983519Y-77920040D01*
X191983519Y-77920043D01*
X191995783Y-78132739D01*
X191996081Y-78137907D01*
X191997218Y-78142953D01*
X191997219Y-78142959D01*
X192011894Y-78208075D01*
X192045193Y-78355831D01*
X192129237Y-78562808D01*
X192179990Y-78645630D01*
X192237250Y-78739069D01*
X192245958Y-78753280D01*
X192392221Y-78922130D01*
X192495929Y-79008230D01*
X192557186Y-79059086D01*
X192564097Y-79064824D01*
X192634566Y-79106003D01*
X192637416Y-79107668D01*
X192686140Y-79159306D01*
X192699211Y-79229089D01*
X192672480Y-79294861D01*
X192632026Y-79328219D01*
X192619578Y-79334699D01*
X192615445Y-79337802D01*
X192615442Y-79337804D01*
X192445071Y-79465722D01*
X192440936Y-79468827D01*
X192286600Y-79630330D01*
X192283686Y-79634602D01*
X192259063Y-79670697D01*
X192204151Y-79715699D01*
X192154975Y-79725692D01*
X190189166Y-79725692D01*
X190170216Y-79724259D01*
X190155817Y-79722068D01*
X190155811Y-79722068D01*
X190148582Y-79720968D01*
X190141290Y-79721561D01*
X190141287Y-79721561D01*
X190095607Y-79725277D01*
X190085392Y-79725692D01*
X190077265Y-79725692D01*
X190073629Y-79726116D01*
X190073627Y-79726116D01*
X190070175Y-79726519D01*
X190048866Y-79729003D01*
X190044546Y-79729430D01*
X189971364Y-79735383D01*
X189964402Y-79737639D01*
X189958414Y-79738835D01*
X189952457Y-79740243D01*
X189945183Y-79741091D01*
X189938301Y-79743589D01*
X189938297Y-79743590D01*
X189876183Y-79766137D01*
X189872079Y-79767547D01*
X189802215Y-79790179D01*
X189795952Y-79793979D01*
X189790410Y-79796517D01*
X189784934Y-79799259D01*
X189778049Y-79801758D01*
X189771925Y-79805773D01*
X189716658Y-79842007D01*
X189712990Y-79844322D01*
X189650209Y-79882419D01*
X189646004Y-79886133D01*
X189646001Y-79886135D01*
X189641785Y-79889859D01*
X189641759Y-79889830D01*
X189638828Y-79892430D01*
X189635474Y-79895234D01*
X189629355Y-79899246D01*
X189624323Y-79904558D01*
X189575802Y-79955778D01*
X189573424Y-79958220D01*
X189272057Y-80259587D01*
X189209745Y-80293613D01*
X189138930Y-80288548D01*
X189082094Y-80246001D01*
X189057283Y-80179481D01*
X189056962Y-80170492D01*
X189056962Y-76699932D01*
X189076964Y-76631811D01*
X189093867Y-76610837D01*
X189497107Y-76207597D01*
X189559419Y-76173571D01*
X189586202Y-76170692D01*
X192151513Y-76170692D01*
X192219634Y-76190694D01*
G37*
%TD.AperFunction*%
%TA.AperFunction,Conductor*%
G36*
X179281153Y-87831042D02*
G01*
X179313502Y-87894241D01*
X179315710Y-87917726D01*
X179315710Y-92060164D01*
X179295708Y-92128285D01*
X179278805Y-92149259D01*
X179039277Y-92388787D01*
X178976965Y-92422813D01*
X178950182Y-92425692D01*
X176177322Y-92425692D01*
X176109201Y-92405690D01*
X176071529Y-92368131D01*
X176063985Y-92356469D01*
X175913641Y-92191243D01*
X175909590Y-92188044D01*
X175909586Y-92188040D01*
X175742385Y-92055992D01*
X175742381Y-92055990D01*
X175738330Y-92052790D01*
X175697024Y-92029988D01*
X175647055Y-91979556D01*
X175632283Y-91910113D01*
X175657399Y-91843708D01*
X175684751Y-91817101D01*
X175754372Y-91767441D01*
X175863831Y-91689365D01*
X175890912Y-91662379D01*
X176018406Y-91535329D01*
X176022067Y-91531681D01*
X176038129Y-91509329D01*
X176149406Y-91354469D01*
X176152424Y-91350269D01*
X176224308Y-91204823D01*
X176249107Y-91154645D01*
X176249108Y-91154643D01*
X176251401Y-91150003D01*
X176316341Y-90936261D01*
X176345500Y-90714782D01*
X176347127Y-90648192D01*
X176328823Y-90425553D01*
X176274402Y-90208894D01*
X176185325Y-90004032D01*
X176109238Y-89886419D01*
X176066793Y-89820809D01*
X176066791Y-89820806D01*
X176063985Y-89816469D01*
X175913641Y-89651243D01*
X175909590Y-89648044D01*
X175909586Y-89648040D01*
X175742385Y-89515992D01*
X175742381Y-89515990D01*
X175738330Y-89512790D01*
X175697024Y-89489988D01*
X175647055Y-89439556D01*
X175632283Y-89370113D01*
X175657399Y-89303708D01*
X175684751Y-89277101D01*
X175754372Y-89227441D01*
X175863831Y-89149365D01*
X175890912Y-89122379D01*
X176018406Y-88995329D01*
X176022067Y-88991681D01*
X176025083Y-88987484D01*
X176071300Y-88923166D01*
X176127295Y-88879518D01*
X176173623Y-88870692D01*
X177680834Y-88870692D01*
X177699784Y-88872125D01*
X177714183Y-88874316D01*
X177714189Y-88874316D01*
X177721418Y-88875416D01*
X177728710Y-88874823D01*
X177728713Y-88874823D01*
X177774393Y-88871107D01*
X177784608Y-88870692D01*
X177792735Y-88870692D01*
X177796371Y-88870268D01*
X177796373Y-88870268D01*
X177799825Y-88869865D01*
X177821134Y-88867381D01*
X177825454Y-88866954D01*
X177898636Y-88861001D01*
X177905598Y-88858745D01*
X177911586Y-88857549D01*
X177917543Y-88856141D01*
X177924817Y-88855293D01*
X177931699Y-88852795D01*
X177931703Y-88852794D01*
X177993817Y-88830247D01*
X177997921Y-88828837D01*
X178067785Y-88806205D01*
X178074048Y-88802405D01*
X178079590Y-88799867D01*
X178085066Y-88797125D01*
X178091951Y-88794626D01*
X178153342Y-88754377D01*
X178157010Y-88752062D01*
X178219791Y-88713965D01*
X178223996Y-88710251D01*
X178223999Y-88710249D01*
X178228215Y-88706525D01*
X178228241Y-88706554D01*
X178231172Y-88703954D01*
X178234526Y-88701150D01*
X178240645Y-88697138D01*
X178294199Y-88640605D01*
X178296576Y-88638164D01*
X178995498Y-87939242D01*
X179009911Y-87926855D01*
X179021635Y-87918227D01*
X179027534Y-87913886D01*
X179061949Y-87873377D01*
X179068879Y-87865861D01*
X179074623Y-87860117D01*
X179076897Y-87857243D01*
X179076903Y-87857236D01*
X179090895Y-87839550D01*
X179148846Y-87798536D01*
X179219772Y-87795365D01*
X179281153Y-87831042D01*
G37*
%TD.AperFunction*%
%TD*%
%TA.AperFunction,Conductor*%
%TO.N,GND*%
G36*
X164964045Y-61758979D02*
G01*
X164978846Y-61761284D01*
X164978849Y-61761284D01*
X164987718Y-61762665D01*
X165004887Y-61760420D01*
X165028827Y-61759587D01*
X165286758Y-61775189D01*
X165301862Y-61777023D01*
X165372636Y-61789993D01*
X165582867Y-61828519D01*
X165597629Y-61832157D01*
X165870396Y-61917154D01*
X165884615Y-61922548D01*
X166145128Y-62039795D01*
X166158597Y-62046864D01*
X166403083Y-62194661D01*
X166415605Y-62203304D01*
X166640495Y-62379495D01*
X166651883Y-62389585D01*
X166853882Y-62591584D01*
X166863972Y-62602972D01*
X167040163Y-62827862D01*
X167048806Y-62840384D01*
X167196603Y-63084870D01*
X167203672Y-63098339D01*
X167320918Y-63358849D01*
X167326313Y-63373071D01*
X167402485Y-63617514D01*
X167411309Y-63645832D01*
X167414948Y-63660600D01*
X167432605Y-63756950D01*
X167466444Y-63941605D01*
X167468278Y-63956709D01*
X167483443Y-64207408D01*
X167482186Y-64234118D01*
X167482183Y-64234338D01*
X167480802Y-64243209D01*
X167481966Y-64252111D01*
X167481966Y-64252114D01*
X167484924Y-64274730D01*
X167485988Y-64291068D01*
X167485988Y-104334671D01*
X167484488Y-104354056D01*
X167482210Y-104368688D01*
X167480802Y-104377729D01*
X167482267Y-104388931D01*
X167483047Y-104394896D01*
X167483880Y-104418838D01*
X167468278Y-104676769D01*
X167466444Y-104691873D01*
X167414950Y-104972872D01*
X167411310Y-104987640D01*
X167345656Y-105198333D01*
X167326314Y-105260403D01*
X167320919Y-105274626D01*
X167235009Y-105465512D01*
X167203674Y-105535135D01*
X167196603Y-105548608D01*
X167048806Y-105793094D01*
X167040163Y-105805616D01*
X166863972Y-106030506D01*
X166853882Y-106041894D01*
X166651883Y-106243893D01*
X166640495Y-106253983D01*
X166415605Y-106430174D01*
X166403083Y-106438817D01*
X166158597Y-106586614D01*
X166145128Y-106593683D01*
X165884618Y-106710929D01*
X165870396Y-106716324D01*
X165597629Y-106801321D01*
X165582867Y-106804959D01*
X165372636Y-106843485D01*
X165301862Y-106856455D01*
X165286758Y-106858289D01*
X165036059Y-106873454D01*
X165009349Y-106872197D01*
X165009129Y-106872194D01*
X165000258Y-106870813D01*
X164991356Y-106871977D01*
X164991353Y-106871977D01*
X164968737Y-106874935D01*
X164952399Y-106875999D01*
X147965318Y-106875999D01*
X147945933Y-106874499D01*
X147931132Y-106872194D01*
X147931129Y-106872194D01*
X147922260Y-106870813D01*
X147905091Y-106873058D01*
X147881151Y-106873891D01*
X147623220Y-106858289D01*
X147608116Y-106856455D01*
X147537342Y-106843485D01*
X147327111Y-106804959D01*
X147312349Y-106801321D01*
X147039582Y-106716324D01*
X147025360Y-106710929D01*
X146764850Y-106593683D01*
X146751381Y-106586614D01*
X146506895Y-106438817D01*
X146494373Y-106430174D01*
X146269483Y-106253983D01*
X146258095Y-106243893D01*
X146056096Y-106041894D01*
X146046006Y-106030506D01*
X145869815Y-105805616D01*
X145861172Y-105793094D01*
X145713375Y-105548608D01*
X145706304Y-105535135D01*
X145674970Y-105465512D01*
X145589059Y-105274626D01*
X145583664Y-105260403D01*
X145564322Y-105198333D01*
X145498668Y-104987640D01*
X145495028Y-104972872D01*
X145443534Y-104691873D01*
X145441700Y-104676769D01*
X145426535Y-104426070D01*
X145427792Y-104399360D01*
X145427795Y-104399140D01*
X145429176Y-104390269D01*
X145427537Y-104377729D01*
X145425054Y-104358748D01*
X145423990Y-104342410D01*
X145423990Y-103311864D01*
X146852668Y-103311864D01*
X146869217Y-103598878D01*
X146870042Y-103603083D01*
X146870043Y-103603091D01*
X146886086Y-103684862D01*
X146924565Y-103880990D01*
X146925952Y-103885040D01*
X146925953Y-103885045D01*
X146954777Y-103969232D01*
X147017689Y-104152981D01*
X147029834Y-104177129D01*
X147141605Y-104399360D01*
X147146864Y-104409817D01*
X147309700Y-104646745D01*
X147503185Y-104859383D01*
X147506480Y-104862138D01*
X147506481Y-104862139D01*
X147656587Y-104987646D01*
X147723738Y-105043793D01*
X147967277Y-105196566D01*
X148229297Y-105314872D01*
X148279815Y-105329836D01*
X148500836Y-105395306D01*
X148500841Y-105395307D01*
X148504949Y-105396524D01*
X148509183Y-105397172D01*
X148509188Y-105397173D01*
X148676206Y-105422730D01*
X148789132Y-105440010D01*
X148935464Y-105442309D01*
X149072296Y-105444459D01*
X149072302Y-105444459D01*
X149076587Y-105444526D01*
X149080839Y-105444011D01*
X149080847Y-105444011D01*
X149357735Y-105410503D01*
X149357740Y-105410502D01*
X149361996Y-105409987D01*
X149553015Y-105359874D01*
X149635933Y-105338121D01*
X149635934Y-105338121D01*
X149640076Y-105337034D01*
X149905683Y-105227016D01*
X150153901Y-105081969D01*
X150380138Y-104904577D01*
X150421264Y-104862139D01*
X150556077Y-104723022D01*
X150580206Y-104698123D01*
X150582739Y-104694675D01*
X150582743Y-104694670D01*
X150747866Y-104469881D01*
X150750404Y-104466426D01*
X150791754Y-104390269D01*
X150885533Y-104217550D01*
X150885534Y-104217548D01*
X150887583Y-104213774D01*
X150989204Y-103944843D01*
X151029868Y-103767293D01*
X151052428Y-103668792D01*
X151052429Y-103668788D01*
X151053386Y-103664608D01*
X151054014Y-103657578D01*
X151078722Y-103380721D01*
X151078722Y-103380719D01*
X151078942Y-103378255D01*
X151079406Y-103333995D01*
X151059852Y-103047170D01*
X151055315Y-103025259D01*
X151002422Y-102769850D01*
X151001553Y-102765653D01*
X150905586Y-102494652D01*
X150773729Y-102239183D01*
X150760467Y-102220312D01*
X150610883Y-102007477D01*
X150608420Y-102003972D01*
X150412719Y-101793373D01*
X150190247Y-101611282D01*
X149945121Y-101461068D01*
X149927027Y-101453125D01*
X149685809Y-101347238D01*
X149681877Y-101345512D01*
X149655942Y-101338124D01*
X149409513Y-101267927D01*
X149409514Y-101267927D01*
X149405385Y-101266751D01*
X149192683Y-101236480D01*
X149125015Y-101226849D01*
X149125013Y-101226849D01*
X149120763Y-101226244D01*
X149116474Y-101226222D01*
X149116467Y-101226221D01*
X148837562Y-101224760D01*
X148837555Y-101224760D01*
X148833276Y-101224738D01*
X148829032Y-101225297D01*
X148829028Y-101225297D01*
X148703639Y-101241805D01*
X148548245Y-101262263D01*
X148544105Y-101263396D01*
X148544103Y-101263396D01*
X148467290Y-101284410D01*
X148270943Y-101338124D01*
X148266995Y-101339808D01*
X148010455Y-101449232D01*
X148010451Y-101449234D01*
X148006503Y-101450918D01*
X147881939Y-101525468D01*
X147763500Y-101596352D01*
X147763496Y-101596355D01*
X147759818Y-101598556D01*
X147535451Y-101778308D01*
X147337556Y-101986846D01*
X147169793Y-102220312D01*
X147035267Y-102474387D01*
X146936468Y-102744368D01*
X146875224Y-103025259D01*
X146852668Y-103311864D01*
X145423990Y-103311864D01*
X145423990Y-93186461D01*
X145911234Y-93186461D01*
X145911531Y-93191614D01*
X145911531Y-93191617D01*
X145916994Y-93286356D01*
X145924093Y-93409481D01*
X145925230Y-93414527D01*
X145925231Y-93414533D01*
X145945102Y-93502705D01*
X145973205Y-93627405D01*
X146057249Y-93834382D01*
X146173970Y-94024854D01*
X146320233Y-94193704D01*
X146492109Y-94336398D01*
X146684983Y-94449104D01*
X146893675Y-94528796D01*
X146898743Y-94529827D01*
X146898746Y-94529828D01*
X147006000Y-94551649D01*
X147112580Y-94573333D01*
X147117755Y-94573523D01*
X147117757Y-94573523D01*
X147330656Y-94581330D01*
X147330660Y-94581330D01*
X147335820Y-94581519D01*
X147340940Y-94580863D01*
X147340942Y-94580863D01*
X147552271Y-94553791D01*
X147552272Y-94553791D01*
X147557399Y-94553134D01*
X147562349Y-94551649D01*
X147766412Y-94490427D01*
X147766417Y-94490425D01*
X147771367Y-94488940D01*
X147971977Y-94390662D01*
X148153843Y-94260939D01*
X148312079Y-94103255D01*
X148371577Y-94020455D01*
X148439418Y-93926043D01*
X148442436Y-93921843D01*
X148541413Y-93721577D01*
X148606353Y-93507835D01*
X148635512Y-93286356D01*
X148637139Y-93219766D01*
X148618835Y-92997127D01*
X148564414Y-92780468D01*
X148475337Y-92575606D01*
X148353997Y-92388043D01*
X148203653Y-92222817D01*
X148199602Y-92219618D01*
X148199598Y-92219614D01*
X148032397Y-92087566D01*
X148032393Y-92087564D01*
X148028342Y-92084364D01*
X147987036Y-92061562D01*
X147937067Y-92011130D01*
X147922295Y-91941687D01*
X147947411Y-91875282D01*
X147974763Y-91848675D01*
X148018586Y-91817416D01*
X148153843Y-91720939D01*
X148312079Y-91563255D01*
X148371577Y-91480455D01*
X148439418Y-91386043D01*
X148442436Y-91381843D01*
X148541413Y-91181577D01*
X148606353Y-90967835D01*
X148635512Y-90746356D01*
X148637139Y-90679766D01*
X148618835Y-90457127D01*
X148564414Y-90240468D01*
X148475337Y-90035606D01*
X148353997Y-89848043D01*
X148203653Y-89682817D01*
X148199602Y-89679618D01*
X148199598Y-89679614D01*
X148032397Y-89547566D01*
X148032393Y-89547564D01*
X148028342Y-89544364D01*
X147987036Y-89521562D01*
X147937067Y-89471130D01*
X147922295Y-89401687D01*
X147947411Y-89335282D01*
X147974763Y-89308675D01*
X148018586Y-89277416D01*
X148153843Y-89180939D01*
X148312079Y-89023255D01*
X148371577Y-88940455D01*
X148439418Y-88846043D01*
X148442436Y-88841843D01*
X148541413Y-88641577D01*
X148606353Y-88427835D01*
X148635512Y-88206356D01*
X148637139Y-88139766D01*
X148618835Y-87917127D01*
X148564414Y-87700468D01*
X148475337Y-87495606D01*
X148401406Y-87381326D01*
X148356805Y-87312383D01*
X148356803Y-87312380D01*
X148353997Y-87308043D01*
X148203653Y-87142817D01*
X148199602Y-87139618D01*
X148199598Y-87139614D01*
X148032397Y-87007566D01*
X148032393Y-87007564D01*
X148028342Y-87004364D01*
X147987036Y-86981562D01*
X147937067Y-86931130D01*
X147931478Y-86904858D01*
X152381120Y-86904858D01*
X152394445Y-87108150D01*
X152444593Y-87305609D01*
X152529886Y-87490623D01*
X152647467Y-87656996D01*
X152651601Y-87661023D01*
X152693410Y-87701752D01*
X152728247Y-87763614D01*
X152731488Y-87792006D01*
X152731488Y-104158179D01*
X152730055Y-104177129D01*
X152727864Y-104191528D01*
X152727864Y-104191534D01*
X152726764Y-104198763D01*
X152727357Y-104206055D01*
X152727357Y-104206058D01*
X152731073Y-104251738D01*
X152731488Y-104261953D01*
X152731488Y-104270080D01*
X152734799Y-104298479D01*
X152735226Y-104302799D01*
X152741179Y-104375981D01*
X152743435Y-104382943D01*
X152744631Y-104388931D01*
X152746039Y-104394888D01*
X152746887Y-104402162D01*
X152749385Y-104409044D01*
X152749386Y-104409048D01*
X152771933Y-104471162D01*
X152773343Y-104475266D01*
X152795975Y-104545130D01*
X152799775Y-104551393D01*
X152802313Y-104556935D01*
X152805055Y-104562411D01*
X152807554Y-104569296D01*
X152811569Y-104575420D01*
X152847803Y-104630687D01*
X152850118Y-104634355D01*
X152888215Y-104697136D01*
X152891929Y-104701341D01*
X152891931Y-104701344D01*
X152895655Y-104705560D01*
X152895626Y-104705586D01*
X152898226Y-104708517D01*
X152901030Y-104711871D01*
X152905042Y-104717990D01*
X152910354Y-104723022D01*
X152961574Y-104771543D01*
X152964016Y-104773921D01*
X153513190Y-105323095D01*
X153525577Y-105337508D01*
X153538546Y-105355131D01*
X153544129Y-105359874D01*
X153579055Y-105389546D01*
X153586571Y-105396476D01*
X153592315Y-105402220D01*
X153595189Y-105404494D01*
X153595196Y-105404500D01*
X153614711Y-105419939D01*
X153618115Y-105422730D01*
X153668472Y-105465512D01*
X153668476Y-105465515D01*
X153674051Y-105470251D01*
X153680566Y-105473578D01*
X153685636Y-105476959D01*
X153690858Y-105480184D01*
X153696600Y-105484727D01*
X153763112Y-105515813D01*
X153767006Y-105517716D01*
X153832404Y-105551110D01*
X153839521Y-105552851D01*
X153845239Y-105554978D01*
X153851045Y-105556909D01*
X153857679Y-105560010D01*
X153864847Y-105561501D01*
X153864850Y-105561502D01*
X153909867Y-105570866D01*
X153929539Y-105574958D01*
X153933790Y-105575919D01*
X153947143Y-105579187D01*
X153948493Y-105579517D01*
X154009906Y-105615139D01*
X154025972Y-105636069D01*
X154041790Y-105661881D01*
X154041794Y-105661886D01*
X154044490Y-105666286D01*
X154196136Y-105841351D01*
X154374338Y-105989297D01*
X154574311Y-106106151D01*
X154790683Y-106188776D01*
X154795749Y-106189807D01*
X154795750Y-106189807D01*
X154848835Y-106200607D01*
X155017645Y-106234952D01*
X155147078Y-106239698D01*
X155243938Y-106243250D01*
X155243942Y-106243250D01*
X155249102Y-106243439D01*
X155254222Y-106242783D01*
X155254224Y-106242783D01*
X155328155Y-106233312D01*
X155478836Y-106214009D01*
X155483784Y-106212524D01*
X155483791Y-106212523D01*
X155695736Y-106148936D01*
X155700679Y-106147453D01*
X155781225Y-106107994D01*
X155904038Y-106047829D01*
X155904041Y-106047827D01*
X155908673Y-106045558D01*
X156097232Y-105911061D01*
X156142298Y-105866152D01*
X156204670Y-105832236D01*
X156275476Y-105837424D01*
X156332238Y-105880070D01*
X156349220Y-105911174D01*
X156374374Y-105978272D01*
X156461728Y-106094828D01*
X156578284Y-106182182D01*
X156714673Y-106233312D01*
X156776855Y-106240067D01*
X158673123Y-106240067D01*
X158735305Y-106233312D01*
X158871694Y-106182182D01*
X158988250Y-106094828D01*
X159075604Y-105978272D01*
X159126734Y-105841883D01*
X159133489Y-105779701D01*
X159133489Y-103883433D01*
X159126734Y-103821251D01*
X159075604Y-103684862D01*
X158988250Y-103568306D01*
X158871694Y-103480952D01*
X158735305Y-103429822D01*
X158673123Y-103423067D01*
X156776855Y-103423067D01*
X156714673Y-103429822D01*
X156578284Y-103480952D01*
X156461728Y-103568306D01*
X156374374Y-103684862D01*
X156371222Y-103693270D01*
X156371221Y-103693272D01*
X156350527Y-103748473D01*
X156307886Y-103805238D01*
X156241324Y-103829938D01*
X156171975Y-103814731D01*
X156149156Y-103798233D01*
X156148876Y-103797925D01*
X156016362Y-103693272D01*
X155971166Y-103657578D01*
X155971161Y-103657575D01*
X155967112Y-103654377D01*
X155962596Y-103651884D01*
X155962593Y-103651882D01*
X155768868Y-103544940D01*
X155768864Y-103544938D01*
X155764344Y-103542443D01*
X155759475Y-103540719D01*
X155759471Y-103540717D01*
X155550892Y-103466855D01*
X155550888Y-103466854D01*
X155546017Y-103465129D01*
X155540924Y-103464222D01*
X155540921Y-103464221D01*
X155323084Y-103425418D01*
X155323078Y-103425417D01*
X155317995Y-103424512D01*
X155245085Y-103423621D01*
X155091570Y-103421746D01*
X155091568Y-103421746D01*
X155086400Y-103421683D01*
X154857453Y-103456717D01*
X154637303Y-103528673D01*
X154440666Y-103631035D01*
X154371008Y-103644747D01*
X154304993Y-103618622D01*
X154263582Y-103560953D01*
X154256488Y-103519271D01*
X154256488Y-103311864D01*
X161830667Y-103311864D01*
X161847216Y-103598878D01*
X161848041Y-103603083D01*
X161848042Y-103603091D01*
X161864085Y-103684862D01*
X161902564Y-103880990D01*
X161903951Y-103885040D01*
X161903952Y-103885045D01*
X161932776Y-103969232D01*
X161995688Y-104152981D01*
X162007833Y-104177129D01*
X162119604Y-104399360D01*
X162124863Y-104409817D01*
X162287699Y-104646745D01*
X162481184Y-104859383D01*
X162484479Y-104862138D01*
X162484480Y-104862139D01*
X162634586Y-104987646D01*
X162701737Y-105043793D01*
X162945276Y-105196566D01*
X163207296Y-105314872D01*
X163257814Y-105329836D01*
X163478835Y-105395306D01*
X163478840Y-105395307D01*
X163482948Y-105396524D01*
X163487182Y-105397172D01*
X163487187Y-105397173D01*
X163654205Y-105422730D01*
X163767131Y-105440010D01*
X163913463Y-105442309D01*
X164050295Y-105444459D01*
X164050301Y-105444459D01*
X164054586Y-105444526D01*
X164058838Y-105444011D01*
X164058846Y-105444011D01*
X164335734Y-105410503D01*
X164335739Y-105410502D01*
X164339995Y-105409987D01*
X164531014Y-105359874D01*
X164613932Y-105338121D01*
X164613933Y-105338121D01*
X164618075Y-105337034D01*
X164883682Y-105227016D01*
X165131900Y-105081969D01*
X165358137Y-104904577D01*
X165399263Y-104862139D01*
X165534076Y-104723022D01*
X165558205Y-104698123D01*
X165560738Y-104694675D01*
X165560742Y-104694670D01*
X165725865Y-104469881D01*
X165728403Y-104466426D01*
X165769753Y-104390269D01*
X165863532Y-104217550D01*
X165863533Y-104217548D01*
X165865582Y-104213774D01*
X165967203Y-103944843D01*
X166007867Y-103767293D01*
X166030427Y-103668792D01*
X166030428Y-103668788D01*
X166031385Y-103664608D01*
X166032013Y-103657578D01*
X166056721Y-103380721D01*
X166056721Y-103380719D01*
X166056941Y-103378255D01*
X166057405Y-103333995D01*
X166037851Y-103047170D01*
X166033314Y-103025259D01*
X165980421Y-102769850D01*
X165979552Y-102765653D01*
X165883585Y-102494652D01*
X165751728Y-102239183D01*
X165738466Y-102220312D01*
X165588882Y-102007477D01*
X165586419Y-102003972D01*
X165390718Y-101793373D01*
X165168246Y-101611282D01*
X164923120Y-101461068D01*
X164905026Y-101453125D01*
X164663808Y-101347238D01*
X164659876Y-101345512D01*
X164633941Y-101338124D01*
X164387512Y-101267927D01*
X164387513Y-101267927D01*
X164383384Y-101266751D01*
X164170682Y-101236480D01*
X164103014Y-101226849D01*
X164103012Y-101226849D01*
X164098762Y-101226244D01*
X164094473Y-101226222D01*
X164094466Y-101226221D01*
X163815561Y-101224760D01*
X163815554Y-101224760D01*
X163811275Y-101224738D01*
X163807031Y-101225297D01*
X163807027Y-101225297D01*
X163681638Y-101241805D01*
X163526244Y-101262263D01*
X163522104Y-101263396D01*
X163522102Y-101263396D01*
X163445289Y-101284410D01*
X163248942Y-101338124D01*
X163244994Y-101339808D01*
X162988454Y-101449232D01*
X162988450Y-101449234D01*
X162984502Y-101450918D01*
X162859938Y-101525468D01*
X162741499Y-101596352D01*
X162741495Y-101596355D01*
X162737817Y-101598556D01*
X162513450Y-101778308D01*
X162315555Y-101986846D01*
X162147792Y-102220312D01*
X162013266Y-102474387D01*
X161914467Y-102744368D01*
X161853223Y-103025259D01*
X161830667Y-103311864D01*
X154256488Y-103311864D01*
X154256488Y-97211567D01*
X158686502Y-97211567D01*
X158706457Y-97439654D01*
X158765716Y-97660810D01*
X158768039Y-97665791D01*
X158768039Y-97665792D01*
X158860151Y-97863329D01*
X158860154Y-97863334D01*
X158862477Y-97868316D01*
X158993802Y-98055867D01*
X159155700Y-98217765D01*
X159160212Y-98220924D01*
X159160214Y-98220926D01*
X159183772Y-98237422D01*
X159228100Y-98292879D01*
X159237500Y-98340634D01*
X159237500Y-99168684D01*
X159217498Y-99236805D01*
X159200293Y-99256781D01*
X159200796Y-99257259D01*
X159196815Y-99261453D01*
X159192478Y-99265257D01*
X159188911Y-99269782D01*
X159188906Y-99269787D01*
X159102331Y-99379607D01*
X159066351Y-99425248D01*
X158971492Y-99605545D01*
X158911078Y-99800110D01*
X158887132Y-100002426D01*
X158900457Y-100205718D01*
X158950605Y-100403177D01*
X159035898Y-100588191D01*
X159153479Y-100754564D01*
X159299410Y-100896724D01*
X159304206Y-100899929D01*
X159304209Y-100899931D01*
X159372149Y-100945327D01*
X159468803Y-101009909D01*
X159474106Y-101012187D01*
X159474109Y-101012189D01*
X159563115Y-101050429D01*
X159655987Y-101090330D01*
X159728817Y-101106810D01*
X159849055Y-101134017D01*
X159849060Y-101134018D01*
X159854692Y-101135292D01*
X159860463Y-101135519D01*
X159860465Y-101135519D01*
X159923470Y-101137994D01*
X160058263Y-101143290D01*
X160259883Y-101114057D01*
X160265347Y-101112202D01*
X160265352Y-101112201D01*
X160447327Y-101050429D01*
X160447332Y-101050427D01*
X160452799Y-101048571D01*
X160630551Y-100949025D01*
X160787186Y-100818753D01*
X160917458Y-100662118D01*
X161017004Y-100484366D01*
X161018860Y-100478899D01*
X161018862Y-100478894D01*
X161080634Y-100296919D01*
X161080635Y-100296914D01*
X161082490Y-100291450D01*
X161111723Y-100089830D01*
X161113249Y-100031567D01*
X161094608Y-99828693D01*
X161039307Y-99632614D01*
X161028680Y-99611063D01*
X160951756Y-99455077D01*
X160949201Y-99449896D01*
X160930796Y-99425248D01*
X160830758Y-99291282D01*
X160830758Y-99291281D01*
X160827305Y-99286658D01*
X160802971Y-99264164D01*
X160766526Y-99203236D01*
X160762500Y-99171639D01*
X160762500Y-98340634D01*
X160782502Y-98272513D01*
X160816228Y-98237422D01*
X160839786Y-98220926D01*
X160839788Y-98220924D01*
X160844300Y-98217765D01*
X161006198Y-98055867D01*
X161137523Y-97868316D01*
X161139846Y-97863334D01*
X161139849Y-97863329D01*
X161231961Y-97665792D01*
X161231961Y-97665791D01*
X161234284Y-97660810D01*
X161293543Y-97439654D01*
X161313498Y-97211567D01*
X161293543Y-96983480D01*
X161234284Y-96762324D01*
X161231961Y-96757342D01*
X161139849Y-96559805D01*
X161139846Y-96559800D01*
X161137523Y-96554818D01*
X161006198Y-96367267D01*
X160844300Y-96205369D01*
X160839792Y-96202212D01*
X160839789Y-96202210D01*
X160761611Y-96147469D01*
X160656749Y-96074044D01*
X160651767Y-96071721D01*
X160651762Y-96071718D01*
X160454225Y-95979606D01*
X160454224Y-95979606D01*
X160449243Y-95977283D01*
X160443935Y-95975861D01*
X160443933Y-95975860D01*
X160233402Y-95919448D01*
X160233400Y-95919448D01*
X160228087Y-95918024D01*
X160000000Y-95898069D01*
X159771913Y-95918024D01*
X159766600Y-95919448D01*
X159766598Y-95919448D01*
X159556067Y-95975860D01*
X159556065Y-95975861D01*
X159550757Y-95977283D01*
X159545776Y-95979606D01*
X159545775Y-95979606D01*
X159348238Y-96071718D01*
X159348233Y-96071721D01*
X159343251Y-96074044D01*
X159238389Y-96147469D01*
X159160211Y-96202210D01*
X159160208Y-96202212D01*
X159155700Y-96205369D01*
X158993802Y-96367267D01*
X158862477Y-96554818D01*
X158860154Y-96559800D01*
X158860151Y-96559805D01*
X158768039Y-96757342D01*
X158765716Y-96762324D01*
X158706457Y-96983480D01*
X158686502Y-97211567D01*
X154256488Y-97211567D01*
X154256488Y-93186461D01*
X164273250Y-93186461D01*
X164273547Y-93191614D01*
X164273547Y-93191617D01*
X164279010Y-93286356D01*
X164286109Y-93409481D01*
X164287246Y-93414527D01*
X164287247Y-93414533D01*
X164307118Y-93502705D01*
X164335221Y-93627405D01*
X164419265Y-93834382D01*
X164535986Y-94024854D01*
X164682249Y-94193704D01*
X164854125Y-94336398D01*
X165046999Y-94449104D01*
X165255691Y-94528796D01*
X165260759Y-94529827D01*
X165260762Y-94529828D01*
X165368016Y-94551649D01*
X165474596Y-94573333D01*
X165479771Y-94573523D01*
X165479773Y-94573523D01*
X165692672Y-94581330D01*
X165692676Y-94581330D01*
X165697836Y-94581519D01*
X165702956Y-94580863D01*
X165702958Y-94580863D01*
X165914287Y-94553791D01*
X165914288Y-94553791D01*
X165919415Y-94553134D01*
X165924365Y-94551649D01*
X166128428Y-94490427D01*
X166128433Y-94490425D01*
X166133383Y-94488940D01*
X166333993Y-94390662D01*
X166515859Y-94260939D01*
X166674095Y-94103255D01*
X166733593Y-94020455D01*
X166801434Y-93926043D01*
X166804452Y-93921843D01*
X166903429Y-93721577D01*
X166968369Y-93507835D01*
X166997528Y-93286356D01*
X166999155Y-93219766D01*
X166980851Y-92997127D01*
X166926430Y-92780468D01*
X166837353Y-92575606D01*
X166716013Y-92388043D01*
X166565669Y-92222817D01*
X166561618Y-92219618D01*
X166561614Y-92219614D01*
X166394413Y-92087566D01*
X166394409Y-92087564D01*
X166390358Y-92084364D01*
X166349052Y-92061562D01*
X166299083Y-92011130D01*
X166284311Y-91941687D01*
X166309427Y-91875282D01*
X166336779Y-91848675D01*
X166380602Y-91817416D01*
X166515859Y-91720939D01*
X166674095Y-91563255D01*
X166733593Y-91480455D01*
X166801434Y-91386043D01*
X166804452Y-91381843D01*
X166903429Y-91181577D01*
X166968369Y-90967835D01*
X166997528Y-90746356D01*
X166999155Y-90679766D01*
X166980851Y-90457127D01*
X166926430Y-90240468D01*
X166837353Y-90035606D01*
X166716013Y-89848043D01*
X166565669Y-89682817D01*
X166561618Y-89679618D01*
X166561614Y-89679614D01*
X166394413Y-89547566D01*
X166394409Y-89547564D01*
X166390358Y-89544364D01*
X166349052Y-89521562D01*
X166299083Y-89471130D01*
X166284311Y-89401687D01*
X166309427Y-89335282D01*
X166336779Y-89308675D01*
X166380602Y-89277416D01*
X166515859Y-89180939D01*
X166674095Y-89023255D01*
X166733593Y-88940455D01*
X166801434Y-88846043D01*
X166804452Y-88841843D01*
X166903429Y-88641577D01*
X166968369Y-88427835D01*
X166997528Y-88206356D01*
X166999155Y-88139766D01*
X166980851Y-87917127D01*
X166926430Y-87700468D01*
X166837353Y-87495606D01*
X166763422Y-87381326D01*
X166718821Y-87312383D01*
X166718819Y-87312380D01*
X166716013Y-87308043D01*
X166565669Y-87142817D01*
X166561618Y-87139618D01*
X166561614Y-87139614D01*
X166394413Y-87007566D01*
X166394409Y-87007564D01*
X166390358Y-87004364D01*
X166349052Y-86981562D01*
X166299083Y-86931130D01*
X166284311Y-86861687D01*
X166309427Y-86795282D01*
X166336779Y-86768675D01*
X166397217Y-86725565D01*
X166515859Y-86640939D01*
X166674095Y-86483255D01*
X166733593Y-86400455D01*
X166801434Y-86306043D01*
X166804452Y-86301843D01*
X166848806Y-86212100D01*
X166901135Y-86106219D01*
X166901136Y-86106217D01*
X166903429Y-86101577D01*
X166968369Y-85887835D01*
X166997528Y-85666356D01*
X166999155Y-85599766D01*
X166980851Y-85377127D01*
X166926430Y-85160468D01*
X166837353Y-84955606D01*
X166716013Y-84768043D01*
X166565669Y-84602817D01*
X166561618Y-84599618D01*
X166561614Y-84599614D01*
X166394413Y-84467566D01*
X166394409Y-84467564D01*
X166390358Y-84464364D01*
X166349052Y-84441562D01*
X166299083Y-84391130D01*
X166284311Y-84321687D01*
X166309427Y-84255282D01*
X166336779Y-84228675D01*
X166380602Y-84197416D01*
X166515859Y-84100939D01*
X166674095Y-83943255D01*
X166733593Y-83860455D01*
X166801434Y-83766043D01*
X166804452Y-83761843D01*
X166903429Y-83561577D01*
X166968369Y-83347835D01*
X166997528Y-83126356D01*
X166999155Y-83059766D01*
X166980851Y-82837127D01*
X166926430Y-82620468D01*
X166837353Y-82415606D01*
X166732078Y-82252876D01*
X166718821Y-82232383D01*
X166718819Y-82232380D01*
X166716013Y-82228043D01*
X166565669Y-82062817D01*
X166561618Y-82059618D01*
X166561614Y-82059614D01*
X166394413Y-81927566D01*
X166394409Y-81927564D01*
X166390358Y-81924364D01*
X166349052Y-81901562D01*
X166299083Y-81851130D01*
X166284311Y-81781687D01*
X166309427Y-81715282D01*
X166336779Y-81688675D01*
X166402303Y-81641937D01*
X166515859Y-81560939D01*
X166674095Y-81403255D01*
X166733593Y-81320455D01*
X166801434Y-81226043D01*
X166804452Y-81221843D01*
X166816061Y-81198355D01*
X166901135Y-81026219D01*
X166901136Y-81026217D01*
X166903429Y-81021577D01*
X166954711Y-80852789D01*
X166966864Y-80812789D01*
X166966864Y-80812787D01*
X166968369Y-80807835D01*
X166997528Y-80586356D01*
X166999155Y-80519766D01*
X166980851Y-80297127D01*
X166926430Y-80080468D01*
X166837353Y-79875606D01*
X166769649Y-79770951D01*
X166718821Y-79692383D01*
X166718819Y-79692380D01*
X166716013Y-79688043D01*
X166565669Y-79522817D01*
X166561618Y-79519618D01*
X166561614Y-79519614D01*
X166394413Y-79387566D01*
X166394409Y-79387564D01*
X166390358Y-79384364D01*
X166349052Y-79361562D01*
X166299083Y-79311130D01*
X166284311Y-79241687D01*
X166309427Y-79175282D01*
X166336779Y-79148675D01*
X166380602Y-79117416D01*
X166515859Y-79020939D01*
X166674095Y-78863255D01*
X166733593Y-78780455D01*
X166801434Y-78686043D01*
X166804452Y-78681843D01*
X166822535Y-78645256D01*
X166901135Y-78486219D01*
X166901136Y-78486217D01*
X166903429Y-78481577D01*
X166968369Y-78267835D01*
X166997528Y-78046356D01*
X166999155Y-77979766D01*
X166980851Y-77757127D01*
X166926430Y-77540468D01*
X166837353Y-77335606D01*
X166716013Y-77148043D01*
X166565669Y-76982817D01*
X166561618Y-76979618D01*
X166561614Y-76979614D01*
X166394413Y-76847566D01*
X166394409Y-76847564D01*
X166390358Y-76844364D01*
X166349052Y-76821562D01*
X166299083Y-76771130D01*
X166284311Y-76701687D01*
X166309427Y-76635282D01*
X166336779Y-76608675D01*
X166380602Y-76577416D01*
X166515859Y-76480939D01*
X166674095Y-76323255D01*
X166733593Y-76240455D01*
X166801434Y-76146043D01*
X166804452Y-76141843D01*
X166874876Y-75999351D01*
X166901135Y-75946219D01*
X166901136Y-75946217D01*
X166903429Y-75941577D01*
X166961535Y-75750329D01*
X166966864Y-75732789D01*
X166966864Y-75732787D01*
X166968369Y-75727835D01*
X166997528Y-75506356D01*
X166999155Y-75439766D01*
X166980851Y-75217127D01*
X166926430Y-75000468D01*
X166837353Y-74795606D01*
X166750067Y-74660682D01*
X166718821Y-74612383D01*
X166718819Y-74612380D01*
X166716013Y-74608043D01*
X166565669Y-74442817D01*
X166561618Y-74439618D01*
X166561614Y-74439614D01*
X166394413Y-74307566D01*
X166394409Y-74307564D01*
X166390358Y-74304364D01*
X166366733Y-74291322D01*
X166336723Y-74274756D01*
X166194788Y-74196404D01*
X166189919Y-74194680D01*
X166189915Y-74194678D01*
X165989086Y-74123561D01*
X165989082Y-74123560D01*
X165984211Y-74121835D01*
X165979118Y-74120928D01*
X165979115Y-74120927D01*
X165769372Y-74083566D01*
X165769366Y-74083565D01*
X165764283Y-74082660D01*
X165690451Y-74081758D01*
X165546080Y-74079994D01*
X165546078Y-74079994D01*
X165540910Y-74079931D01*
X165320090Y-74113721D01*
X165107755Y-74183123D01*
X164909606Y-74286273D01*
X164905473Y-74289376D01*
X164905470Y-74289378D01*
X164759558Y-74398932D01*
X164730964Y-74420401D01*
X164576628Y-74581904D01*
X164573714Y-74586176D01*
X164573713Y-74586177D01*
X164547120Y-74625161D01*
X164450742Y-74766446D01*
X164356687Y-74969071D01*
X164296988Y-75184336D01*
X164273250Y-75406461D01*
X164273547Y-75411614D01*
X164273547Y-75411617D01*
X164283226Y-75579480D01*
X164286109Y-75629481D01*
X164287246Y-75634527D01*
X164287247Y-75634533D01*
X164307118Y-75722705D01*
X164335221Y-75847405D01*
X164419265Y-76054382D01*
X164421964Y-76058786D01*
X164509742Y-76202027D01*
X164535986Y-76244854D01*
X164682249Y-76413704D01*
X164854125Y-76556398D01*
X164920405Y-76595129D01*
X164927444Y-76599242D01*
X164976168Y-76650880D01*
X164989239Y-76720663D01*
X164962508Y-76786435D01*
X164922054Y-76819793D01*
X164909606Y-76826273D01*
X164905473Y-76829376D01*
X164905470Y-76829378D01*
X164735099Y-76957296D01*
X164730964Y-76960401D01*
X164576628Y-77121904D01*
X164450742Y-77306446D01*
X164356687Y-77509071D01*
X164296988Y-77724336D01*
X164273250Y-77946461D01*
X164273547Y-77951614D01*
X164273547Y-77951617D01*
X164279010Y-78046356D01*
X164286109Y-78169481D01*
X164287246Y-78174527D01*
X164287247Y-78174533D01*
X164296908Y-78217401D01*
X164335221Y-78387405D01*
X164419265Y-78594382D01*
X164535986Y-78784854D01*
X164682249Y-78953704D01*
X164854125Y-79096398D01*
X164897120Y-79121522D01*
X164927444Y-79139242D01*
X164976168Y-79190880D01*
X164989239Y-79260663D01*
X164962508Y-79326435D01*
X164922054Y-79359793D01*
X164909606Y-79366273D01*
X164905473Y-79369376D01*
X164905470Y-79369378D01*
X164850790Y-79410433D01*
X164730964Y-79500401D01*
X164576628Y-79661904D01*
X164573714Y-79666176D01*
X164573713Y-79666177D01*
X164507955Y-79762575D01*
X164450742Y-79846446D01*
X164356687Y-80049071D01*
X164296988Y-80264336D01*
X164273250Y-80486461D01*
X164273547Y-80491614D01*
X164273547Y-80491617D01*
X164279010Y-80586356D01*
X164286109Y-80709481D01*
X164287246Y-80714527D01*
X164287247Y-80714533D01*
X164307118Y-80802705D01*
X164335221Y-80927405D01*
X164419265Y-81134382D01*
X164535986Y-81324854D01*
X164682249Y-81493704D01*
X164854125Y-81636398D01*
X164916475Y-81672832D01*
X164927444Y-81679242D01*
X164976168Y-81730880D01*
X164989239Y-81800663D01*
X164962508Y-81866435D01*
X164922054Y-81899793D01*
X164909606Y-81906273D01*
X164905473Y-81909376D01*
X164905470Y-81909378D01*
X164735099Y-82037296D01*
X164730964Y-82040401D01*
X164576628Y-82201904D01*
X164573714Y-82206176D01*
X164573713Y-82206177D01*
X164561403Y-82224223D01*
X164450742Y-82386446D01*
X164356687Y-82589071D01*
X164296988Y-82804336D01*
X164273250Y-83026461D01*
X164273547Y-83031614D01*
X164273547Y-83031617D01*
X164279010Y-83126356D01*
X164286109Y-83249481D01*
X164287246Y-83254527D01*
X164287247Y-83254533D01*
X164300596Y-83313766D01*
X164335221Y-83467405D01*
X164419265Y-83674382D01*
X164535986Y-83864854D01*
X164682249Y-84033704D01*
X164854125Y-84176398D01*
X164924594Y-84217577D01*
X164927444Y-84219242D01*
X164976168Y-84270880D01*
X164989239Y-84340663D01*
X164962508Y-84406435D01*
X164922054Y-84439793D01*
X164909606Y-84446273D01*
X164905473Y-84449376D01*
X164905470Y-84449378D01*
X164881246Y-84467566D01*
X164730964Y-84580401D01*
X164576628Y-84741904D01*
X164450742Y-84926446D01*
X164356687Y-85129071D01*
X164296988Y-85344336D01*
X164273250Y-85566461D01*
X164273547Y-85571614D01*
X164273547Y-85571617D01*
X164279010Y-85666356D01*
X164286109Y-85789481D01*
X164287246Y-85794527D01*
X164287247Y-85794533D01*
X164303233Y-85865467D01*
X164335221Y-86007405D01*
X164373460Y-86101577D01*
X164402145Y-86172219D01*
X164419265Y-86214382D01*
X164421964Y-86218786D01*
X164533046Y-86400056D01*
X164535986Y-86404854D01*
X164682249Y-86573704D01*
X164854125Y-86716398D01*
X164889174Y-86736879D01*
X164927444Y-86759242D01*
X164976168Y-86810880D01*
X164989239Y-86880663D01*
X164962508Y-86946435D01*
X164922054Y-86979793D01*
X164909606Y-86986273D01*
X164905473Y-86989376D01*
X164905470Y-86989378D01*
X164735099Y-87117296D01*
X164730964Y-87120401D01*
X164576628Y-87281904D01*
X164573714Y-87286176D01*
X164573713Y-87286177D01*
X164548129Y-87323682D01*
X164450742Y-87466446D01*
X164435002Y-87500356D01*
X164360423Y-87661023D01*
X164356687Y-87669071D01*
X164296988Y-87884336D01*
X164273250Y-88106461D01*
X164273547Y-88111614D01*
X164273547Y-88111617D01*
X164279010Y-88206356D01*
X164286109Y-88329481D01*
X164287246Y-88334527D01*
X164287247Y-88334533D01*
X164307118Y-88422705D01*
X164335221Y-88547405D01*
X164419265Y-88754382D01*
X164535986Y-88944854D01*
X164682249Y-89113704D01*
X164854125Y-89256398D01*
X164924594Y-89297577D01*
X164927444Y-89299242D01*
X164976168Y-89350880D01*
X164989239Y-89420663D01*
X164962508Y-89486435D01*
X164922054Y-89519793D01*
X164909606Y-89526273D01*
X164905473Y-89529376D01*
X164905470Y-89529378D01*
X164881246Y-89547566D01*
X164730964Y-89660401D01*
X164576628Y-89821904D01*
X164450742Y-90006446D01*
X164356687Y-90209071D01*
X164296988Y-90424336D01*
X164273250Y-90646461D01*
X164273547Y-90651614D01*
X164273547Y-90651617D01*
X164279010Y-90746356D01*
X164286109Y-90869481D01*
X164287246Y-90874527D01*
X164287247Y-90874533D01*
X164307118Y-90962705D01*
X164335221Y-91087405D01*
X164419265Y-91294382D01*
X164535986Y-91484854D01*
X164682249Y-91653704D01*
X164854125Y-91796398D01*
X164924594Y-91837577D01*
X164927444Y-91839242D01*
X164976168Y-91890880D01*
X164989239Y-91960663D01*
X164962508Y-92026435D01*
X164922054Y-92059793D01*
X164909606Y-92066273D01*
X164905473Y-92069376D01*
X164905470Y-92069378D01*
X164881246Y-92087566D01*
X164730964Y-92200401D01*
X164576628Y-92361904D01*
X164450742Y-92546446D01*
X164356687Y-92749071D01*
X164296988Y-92964336D01*
X164273250Y-93186461D01*
X154256488Y-93186461D01*
X154256488Y-87796415D01*
X154276490Y-87728294D01*
X154285614Y-87715846D01*
X154288336Y-87712574D01*
X154411446Y-87564550D01*
X154510992Y-87386798D01*
X154512848Y-87381331D01*
X154512850Y-87381326D01*
X154534316Y-87318089D01*
X158717273Y-87318089D01*
X158764764Y-87495328D01*
X158768510Y-87505620D01*
X158860586Y-87703078D01*
X158866069Y-87712574D01*
X158991028Y-87891034D01*
X158998084Y-87899442D01*
X159152125Y-88053483D01*
X159160533Y-88060539D01*
X159338993Y-88185498D01*
X159348489Y-88190981D01*
X159545947Y-88283057D01*
X159556239Y-88286803D01*
X159728503Y-88332961D01*
X159742599Y-88332625D01*
X159746000Y-88324683D01*
X159746000Y-88319534D01*
X160254000Y-88319534D01*
X160257973Y-88333065D01*
X160266522Y-88334294D01*
X160443761Y-88286803D01*
X160454053Y-88283057D01*
X160651511Y-88190981D01*
X160661007Y-88185498D01*
X160839467Y-88060539D01*
X160847875Y-88053483D01*
X161001916Y-87899442D01*
X161008972Y-87891034D01*
X161133931Y-87712574D01*
X161139414Y-87703078D01*
X161231490Y-87505620D01*
X161235236Y-87495328D01*
X161281394Y-87323064D01*
X161281058Y-87308968D01*
X161273116Y-87305567D01*
X160272115Y-87305567D01*
X160256876Y-87310042D01*
X160255671Y-87311432D01*
X160254000Y-87319115D01*
X160254000Y-88319534D01*
X159746000Y-88319534D01*
X159746000Y-87323682D01*
X159741525Y-87308443D01*
X159740135Y-87307238D01*
X159732452Y-87305567D01*
X158732033Y-87305567D01*
X158718502Y-87309540D01*
X158717273Y-87318089D01*
X154534316Y-87318089D01*
X154574622Y-87199351D01*
X154574623Y-87199346D01*
X154576478Y-87193882D01*
X154605711Y-86992262D01*
X154607237Y-86933999D01*
X154594701Y-86797567D01*
X154593093Y-86780070D01*
X158718606Y-86780070D01*
X158718942Y-86794166D01*
X158726884Y-86797567D01*
X159727885Y-86797567D01*
X159743124Y-86793092D01*
X159744329Y-86791702D01*
X159746000Y-86784019D01*
X159746000Y-86779452D01*
X160254000Y-86779452D01*
X160258475Y-86794691D01*
X160259865Y-86795896D01*
X160267548Y-86797567D01*
X161267967Y-86797567D01*
X161281498Y-86793594D01*
X161282727Y-86785045D01*
X161235236Y-86607806D01*
X161231490Y-86597514D01*
X161139414Y-86400056D01*
X161133931Y-86390560D01*
X161008972Y-86212100D01*
X161001916Y-86203692D01*
X160847875Y-86049651D01*
X160839467Y-86042595D01*
X160661007Y-85917636D01*
X160651511Y-85912153D01*
X160454053Y-85820077D01*
X160443761Y-85816331D01*
X160271497Y-85770173D01*
X160257401Y-85770509D01*
X160254000Y-85778451D01*
X160254000Y-86779452D01*
X159746000Y-86779452D01*
X159746000Y-85783600D01*
X159742027Y-85770069D01*
X159733478Y-85768840D01*
X159556239Y-85816331D01*
X159545947Y-85820077D01*
X159348489Y-85912153D01*
X159338993Y-85917636D01*
X159160533Y-86042595D01*
X159152125Y-86049651D01*
X158998084Y-86203692D01*
X158991028Y-86212100D01*
X158866069Y-86390560D01*
X158860586Y-86400056D01*
X158768510Y-86597514D01*
X158764764Y-86607806D01*
X158718606Y-86780070D01*
X154593093Y-86780070D01*
X154589125Y-86736879D01*
X154589124Y-86736876D01*
X154588596Y-86731125D01*
X154585179Y-86719008D01*
X154534863Y-86540605D01*
X154534862Y-86540603D01*
X154533295Y-86535046D01*
X154522668Y-86513495D01*
X154445744Y-86357509D01*
X154443189Y-86352328D01*
X154424784Y-86327680D01*
X154324746Y-86193714D01*
X154324746Y-86193713D01*
X154321293Y-86189090D01*
X154171691Y-86050799D01*
X154094923Y-86002362D01*
X154004276Y-85945168D01*
X154004271Y-85945166D01*
X153999392Y-85942087D01*
X153810168Y-85866594D01*
X153610354Y-85826848D01*
X153604580Y-85826772D01*
X153604576Y-85826772D01*
X153501440Y-85825423D01*
X153406643Y-85824182D01*
X153400946Y-85825161D01*
X153400945Y-85825161D01*
X153211555Y-85857704D01*
X153205858Y-85858683D01*
X153014722Y-85929197D01*
X153009761Y-85932149D01*
X153009760Y-85932149D01*
X152883267Y-86007405D01*
X152839637Y-86033362D01*
X152686466Y-86167689D01*
X152682899Y-86172214D01*
X152682894Y-86172219D01*
X152651455Y-86212100D01*
X152560339Y-86327680D01*
X152465480Y-86507977D01*
X152405066Y-86702542D01*
X152381120Y-86904858D01*
X147931478Y-86904858D01*
X147922295Y-86861687D01*
X147947411Y-86795282D01*
X147974763Y-86768675D01*
X148035201Y-86725565D01*
X148153843Y-86640939D01*
X148312079Y-86483255D01*
X148371577Y-86400455D01*
X148439418Y-86306043D01*
X148442436Y-86301843D01*
X148486790Y-86212100D01*
X148539119Y-86106219D01*
X148539120Y-86106217D01*
X148541413Y-86101577D01*
X148606353Y-85887835D01*
X148635512Y-85666356D01*
X148637139Y-85599766D01*
X148618835Y-85377127D01*
X148564414Y-85160468D01*
X148475337Y-84955606D01*
X148353997Y-84768043D01*
X148203653Y-84602817D01*
X148199602Y-84599618D01*
X148199598Y-84599614D01*
X148032397Y-84467566D01*
X148032393Y-84467564D01*
X148028342Y-84464364D01*
X147986552Y-84441295D01*
X147936581Y-84390863D01*
X147921809Y-84321420D01*
X147946925Y-84255014D01*
X147974277Y-84228407D01*
X148149311Y-84103558D01*
X148157183Y-84096905D01*
X148308035Y-83946578D01*
X148314713Y-83938731D01*
X148438986Y-83765786D01*
X148444296Y-83756949D01*
X148538653Y-83566033D01*
X148542452Y-83556438D01*
X148604360Y-83352676D01*
X148606538Y-83342603D01*
X148607969Y-83331728D01*
X148605758Y-83317544D01*
X148592600Y-83313766D01*
X145957208Y-83313766D01*
X145943677Y-83317739D01*
X145942240Y-83327732D01*
X145972548Y-83462212D01*
X145975628Y-83472041D01*
X146055753Y-83669369D01*
X146060396Y-83678560D01*
X146171677Y-83860154D01*
X146177760Y-83868465D01*
X146317196Y-84029433D01*
X146324563Y-84036649D01*
X146488417Y-84172682D01*
X146496864Y-84178597D01*
X146565952Y-84218969D01*
X146614676Y-84270608D01*
X146627747Y-84340391D01*
X146601016Y-84406162D01*
X146560567Y-84439518D01*
X146547590Y-84446273D01*
X146543457Y-84449376D01*
X146543454Y-84449378D01*
X146519230Y-84467566D01*
X146368948Y-84580401D01*
X146214612Y-84741904D01*
X146088726Y-84926446D01*
X145994671Y-85129071D01*
X145934972Y-85344336D01*
X145911234Y-85566461D01*
X145911531Y-85571614D01*
X145911531Y-85571617D01*
X145916994Y-85666356D01*
X145924093Y-85789481D01*
X145925230Y-85794527D01*
X145925231Y-85794533D01*
X145941217Y-85865467D01*
X145973205Y-86007405D01*
X146011444Y-86101577D01*
X146040129Y-86172219D01*
X146057249Y-86214382D01*
X146059948Y-86218786D01*
X146171030Y-86400056D01*
X146173970Y-86404854D01*
X146320233Y-86573704D01*
X146492109Y-86716398D01*
X146527158Y-86736879D01*
X146565428Y-86759242D01*
X146614152Y-86810880D01*
X146627223Y-86880663D01*
X146600492Y-86946435D01*
X146560038Y-86979793D01*
X146547590Y-86986273D01*
X146543457Y-86989376D01*
X146543454Y-86989378D01*
X146373083Y-87117296D01*
X146368948Y-87120401D01*
X146214612Y-87281904D01*
X146211698Y-87286176D01*
X146211697Y-87286177D01*
X146186113Y-87323682D01*
X146088726Y-87466446D01*
X146072986Y-87500356D01*
X145998407Y-87661023D01*
X145994671Y-87669071D01*
X145934972Y-87884336D01*
X145911234Y-88106461D01*
X145911531Y-88111614D01*
X145911531Y-88111617D01*
X145916994Y-88206356D01*
X145924093Y-88329481D01*
X145925230Y-88334527D01*
X145925231Y-88334533D01*
X145945102Y-88422705D01*
X145973205Y-88547405D01*
X146057249Y-88754382D01*
X146173970Y-88944854D01*
X146320233Y-89113704D01*
X146492109Y-89256398D01*
X146562578Y-89297577D01*
X146565428Y-89299242D01*
X146614152Y-89350880D01*
X146627223Y-89420663D01*
X146600492Y-89486435D01*
X146560038Y-89519793D01*
X146547590Y-89526273D01*
X146543457Y-89529376D01*
X146543454Y-89529378D01*
X146519230Y-89547566D01*
X146368948Y-89660401D01*
X146214612Y-89821904D01*
X146088726Y-90006446D01*
X145994671Y-90209071D01*
X145934972Y-90424336D01*
X145911234Y-90646461D01*
X145911531Y-90651614D01*
X145911531Y-90651617D01*
X145916994Y-90746356D01*
X145924093Y-90869481D01*
X145925230Y-90874527D01*
X145925231Y-90874533D01*
X145945102Y-90962705D01*
X145973205Y-91087405D01*
X146057249Y-91294382D01*
X146173970Y-91484854D01*
X146320233Y-91653704D01*
X146492109Y-91796398D01*
X146562578Y-91837577D01*
X146565428Y-91839242D01*
X146614152Y-91890880D01*
X146627223Y-91960663D01*
X146600492Y-92026435D01*
X146560038Y-92059793D01*
X146547590Y-92066273D01*
X146543457Y-92069376D01*
X146543454Y-92069378D01*
X146519230Y-92087566D01*
X146368948Y-92200401D01*
X146214612Y-92361904D01*
X146088726Y-92546446D01*
X145994671Y-92749071D01*
X145934972Y-92964336D01*
X145911234Y-93186461D01*
X145423990Y-93186461D01*
X145423990Y-80486461D01*
X145911234Y-80486461D01*
X145911531Y-80491614D01*
X145911531Y-80491617D01*
X145916994Y-80586356D01*
X145924093Y-80709481D01*
X145925230Y-80714527D01*
X145925231Y-80714533D01*
X145945102Y-80802705D01*
X145973205Y-80927405D01*
X146057249Y-81134382D01*
X146173970Y-81324854D01*
X146320233Y-81493704D01*
X146492109Y-81636398D01*
X146554459Y-81672832D01*
X146565938Y-81679540D01*
X146614662Y-81731178D01*
X146627733Y-81800961D01*
X146601002Y-81866733D01*
X146560545Y-81900093D01*
X146552440Y-81904312D01*
X146543721Y-81909802D01*
X146373416Y-82037671D01*
X146365709Y-82044514D01*
X146218573Y-82198483D01*
X146212087Y-82206493D01*
X146092081Y-82382415D01*
X146086983Y-82391389D01*
X145997321Y-82584549D01*
X145993758Y-82594236D01*
X145938372Y-82793949D01*
X145939895Y-82802373D01*
X145952275Y-82805766D01*
X148592327Y-82805766D01*
X148605858Y-82801793D01*
X148607163Y-82792713D01*
X148565197Y-82625641D01*
X148561877Y-82615890D01*
X148476955Y-82420580D01*
X148472088Y-82411505D01*
X148356409Y-82232692D01*
X148350119Y-82224523D01*
X148206789Y-82067006D01*
X148199256Y-82059981D01*
X148032122Y-81927988D01*
X148023539Y-81922286D01*
X147986585Y-81901886D01*
X147936614Y-81851453D01*
X147921842Y-81782011D01*
X147946958Y-81715605D01*
X147974310Y-81688998D01*
X148040287Y-81641937D01*
X148141054Y-81570061D01*
X149872481Y-81570061D01*
X149881777Y-81582076D01*
X149932982Y-81617930D01*
X149942477Y-81623413D01*
X150139935Y-81715489D01*
X150150227Y-81719235D01*
X150360676Y-81775624D01*
X150371469Y-81777527D01*
X150588513Y-81796516D01*
X150599463Y-81796516D01*
X150816507Y-81777527D01*
X150827300Y-81775624D01*
X151037749Y-81719235D01*
X151048041Y-81715489D01*
X151245499Y-81623413D01*
X151254994Y-81617930D01*
X151307036Y-81581490D01*
X151315412Y-81571011D01*
X151308344Y-81557565D01*
X150606800Y-80856021D01*
X150592856Y-80848407D01*
X150591023Y-80848538D01*
X150584408Y-80852789D01*
X149878911Y-81558286D01*
X149872481Y-81570061D01*
X148141054Y-81570061D01*
X148153843Y-81560939D01*
X148312079Y-81403255D01*
X148371577Y-81320455D01*
X148439418Y-81226043D01*
X148442436Y-81221843D01*
X148454045Y-81198355D01*
X148539119Y-81026219D01*
X148539120Y-81026217D01*
X148541413Y-81021577D01*
X148592695Y-80852789D01*
X148604848Y-80812789D01*
X148604848Y-80812787D01*
X148606353Y-80807835D01*
X148635512Y-80586356D01*
X148637139Y-80519766D01*
X148634649Y-80489474D01*
X149281471Y-80489474D01*
X149300460Y-80706518D01*
X149302363Y-80717311D01*
X149358752Y-80927760D01*
X149362498Y-80938052D01*
X149454574Y-81135510D01*
X149460057Y-81145005D01*
X149496497Y-81197047D01*
X149506976Y-81205423D01*
X149520422Y-81198355D01*
X150221966Y-80496811D01*
X150228344Y-80485131D01*
X150958396Y-80485131D01*
X150958527Y-80486964D01*
X150962778Y-80493579D01*
X151668275Y-81199076D01*
X151680050Y-81205506D01*
X151692065Y-81196210D01*
X151727919Y-81145005D01*
X151733402Y-81135510D01*
X151825478Y-80938052D01*
X151829224Y-80927760D01*
X151885613Y-80717311D01*
X151887516Y-80706518D01*
X151906505Y-80489474D01*
X151906505Y-80478524D01*
X151887516Y-80261480D01*
X151885613Y-80250687D01*
X151829224Y-80040238D01*
X151825478Y-80029946D01*
X151733402Y-79832488D01*
X151727919Y-79822993D01*
X151691479Y-79770951D01*
X151681000Y-79762575D01*
X151667554Y-79769643D01*
X150966010Y-80471187D01*
X150958396Y-80485131D01*
X150228344Y-80485131D01*
X150229580Y-80482867D01*
X150229449Y-80481034D01*
X150225198Y-80474419D01*
X149519701Y-79768922D01*
X149507926Y-79762492D01*
X149495911Y-79771788D01*
X149460057Y-79822993D01*
X149454574Y-79832488D01*
X149362498Y-80029946D01*
X149358752Y-80040238D01*
X149302363Y-80250687D01*
X149300460Y-80261480D01*
X149281471Y-80478524D01*
X149281471Y-80489474D01*
X148634649Y-80489474D01*
X148618835Y-80297127D01*
X148564414Y-80080468D01*
X148475337Y-79875606D01*
X148407633Y-79770951D01*
X148356805Y-79692383D01*
X148356803Y-79692380D01*
X148353997Y-79688043D01*
X148203653Y-79522817D01*
X148199602Y-79519618D01*
X148199598Y-79519614D01*
X148032397Y-79387566D01*
X148032393Y-79387564D01*
X148028342Y-79384364D01*
X147987036Y-79361562D01*
X147937067Y-79311130D01*
X147922295Y-79241687D01*
X147947411Y-79175282D01*
X147974763Y-79148675D01*
X148018586Y-79117416D01*
X148153843Y-79020939D01*
X148312079Y-78863255D01*
X148371577Y-78780455D01*
X148439418Y-78686043D01*
X148442436Y-78681843D01*
X148460519Y-78645256D01*
X148539119Y-78486219D01*
X148539120Y-78486217D01*
X148541413Y-78481577D01*
X148606353Y-78267835D01*
X148635512Y-78046356D01*
X148637036Y-77983999D01*
X149280490Y-77983999D01*
X149300445Y-78212086D01*
X149301869Y-78217399D01*
X149301869Y-78217401D01*
X149346071Y-78382362D01*
X149359704Y-78433242D01*
X149362027Y-78438223D01*
X149362027Y-78438224D01*
X149454139Y-78635761D01*
X149454142Y-78635766D01*
X149456465Y-78640748D01*
X149459622Y-78645256D01*
X149560102Y-78788756D01*
X149587790Y-78828299D01*
X149749688Y-78990197D01*
X149754196Y-78993354D01*
X149754199Y-78993356D01*
X149857864Y-79065943D01*
X149937239Y-79121522D01*
X149942223Y-79123846D01*
X149944516Y-79125170D01*
X149993509Y-79176552D01*
X150006945Y-79246266D01*
X149980559Y-79312177D01*
X149944516Y-79343408D01*
X149932986Y-79350065D01*
X149880940Y-79386508D01*
X149872564Y-79396987D01*
X149879632Y-79410433D01*
X150581176Y-80111977D01*
X150595120Y-80119591D01*
X150596953Y-80119460D01*
X150603568Y-80115209D01*
X151309065Y-79409712D01*
X151315495Y-79397937D01*
X151306199Y-79385922D01*
X151254990Y-79350065D01*
X151243460Y-79343408D01*
X151194467Y-79292026D01*
X151181030Y-79222312D01*
X151207417Y-79156401D01*
X151243460Y-79125170D01*
X151245753Y-79123846D01*
X151250737Y-79121522D01*
X151330112Y-79065943D01*
X151433777Y-78993356D01*
X151433780Y-78993354D01*
X151438288Y-78990197D01*
X151600186Y-78828299D01*
X151627875Y-78788756D01*
X151728354Y-78645256D01*
X151731511Y-78640748D01*
X151733834Y-78635766D01*
X151733837Y-78635761D01*
X151825949Y-78438224D01*
X151825949Y-78438223D01*
X151828272Y-78433242D01*
X151841906Y-78382362D01*
X151886107Y-78217401D01*
X151886107Y-78217399D01*
X151887531Y-78212086D01*
X151907486Y-77983999D01*
X151887531Y-77755912D01*
X151828272Y-77534756D01*
X151814106Y-77504376D01*
X151733837Y-77332237D01*
X151733834Y-77332232D01*
X151731511Y-77327250D01*
X151658086Y-77222388D01*
X151603345Y-77144210D01*
X151603343Y-77144207D01*
X151600186Y-77139699D01*
X151438288Y-76977801D01*
X151418777Y-76964139D01*
X151410216Y-76958144D01*
X151365888Y-76902687D01*
X151356488Y-76854932D01*
X151356488Y-76202027D01*
X151376490Y-76133906D01*
X151393393Y-76112932D01*
X152225089Y-75281236D01*
X152287401Y-75247210D01*
X152358216Y-75252275D01*
X152415052Y-75294822D01*
X152439863Y-75361342D01*
X152434516Y-75407695D01*
X152406781Y-75497015D01*
X152406778Y-75497027D01*
X152405066Y-75502542D01*
X152381120Y-75704858D01*
X152394445Y-75908150D01*
X152444593Y-76105609D01*
X152529886Y-76290623D01*
X152647467Y-76456996D01*
X152793398Y-76599156D01*
X152798194Y-76602361D01*
X152798197Y-76602363D01*
X152898082Y-76669104D01*
X152962791Y-76712341D01*
X152968094Y-76714619D01*
X152968097Y-76714621D01*
X153144668Y-76790482D01*
X153149975Y-76792762D01*
X153222805Y-76809242D01*
X153343043Y-76836449D01*
X153343048Y-76836450D01*
X153348680Y-76837724D01*
X153354451Y-76837951D01*
X153354453Y-76837951D01*
X153417458Y-76840426D01*
X153552251Y-76845722D01*
X153753871Y-76816489D01*
X153759335Y-76814634D01*
X153759340Y-76814633D01*
X153941315Y-76752861D01*
X153941320Y-76752859D01*
X153946787Y-76751003D01*
X153972856Y-76736404D01*
X154034847Y-76701687D01*
X154124539Y-76651457D01*
X154281174Y-76521185D01*
X154411446Y-76364550D01*
X154480943Y-76240455D01*
X154508168Y-76191841D01*
X154508169Y-76191839D01*
X154510992Y-76186798D01*
X154512848Y-76181331D01*
X154512850Y-76181326D01*
X154574622Y-75999351D01*
X154574623Y-75999346D01*
X154576478Y-75993882D01*
X154605711Y-75792262D01*
X154606860Y-75748399D01*
X154628639Y-75680825D01*
X154643722Y-75662603D01*
X154872921Y-75433404D01*
X154935233Y-75399378D01*
X154962016Y-75396499D01*
X157026612Y-75396499D01*
X157045562Y-75397932D01*
X157059961Y-75400123D01*
X157059967Y-75400123D01*
X157067196Y-75401223D01*
X157074488Y-75400630D01*
X157074491Y-75400630D01*
X157120171Y-75396914D01*
X157130386Y-75396499D01*
X157138513Y-75396499D01*
X157142149Y-75396075D01*
X157142151Y-75396075D01*
X157145603Y-75395672D01*
X157166912Y-75393188D01*
X157171232Y-75392761D01*
X157244414Y-75386808D01*
X157251376Y-75384552D01*
X157257364Y-75383356D01*
X157263321Y-75381948D01*
X157270595Y-75381100D01*
X157277477Y-75378602D01*
X157277481Y-75378601D01*
X157339595Y-75356054D01*
X157343699Y-75354644D01*
X157413563Y-75332012D01*
X157419826Y-75328212D01*
X157425368Y-75325674D01*
X157430844Y-75322932D01*
X157437729Y-75320433D01*
X157499120Y-75280184D01*
X157502788Y-75277869D01*
X157565569Y-75239772D01*
X157569774Y-75236058D01*
X157569777Y-75236056D01*
X157573993Y-75232332D01*
X157574019Y-75232361D01*
X157576950Y-75229761D01*
X157580304Y-75226957D01*
X157586423Y-75222945D01*
X157639977Y-75166412D01*
X157642354Y-75163971D01*
X158263380Y-74542945D01*
X158269067Y-74537599D01*
X158315390Y-74496688D01*
X158352844Y-74443691D01*
X158356900Y-74438271D01*
X158397148Y-74387399D01*
X158401214Y-74378699D01*
X158412463Y-74359333D01*
X158418008Y-74351487D01*
X158442256Y-74291319D01*
X158444963Y-74285093D01*
X158472432Y-74226319D01*
X158474388Y-74216917D01*
X158480880Y-74195482D01*
X158481733Y-74193366D01*
X158481735Y-74193360D01*
X158484470Y-74186572D01*
X158494226Y-74122446D01*
X158495433Y-74115739D01*
X158507150Y-74059406D01*
X158507150Y-74059405D01*
X158508640Y-74052242D01*
X158508380Y-74042646D01*
X158509768Y-74020283D01*
X158510112Y-74018025D01*
X158510112Y-74018020D01*
X158511212Y-74010791D01*
X158509441Y-73989008D01*
X158505954Y-73946144D01*
X158505585Y-73939339D01*
X158504028Y-73881818D01*
X158503830Y-73874504D01*
X158501369Y-73865224D01*
X158497576Y-73843151D01*
X158496797Y-73833573D01*
X158493622Y-73823773D01*
X158487491Y-73784947D01*
X158487491Y-71541066D01*
X158507493Y-71472945D01*
X158561149Y-71426452D01*
X158613491Y-71415066D01*
X158623125Y-71415066D01*
X158670625Y-71409906D01*
X158685307Y-71408311D01*
X158685480Y-71409906D01*
X158747239Y-71413129D01*
X158804884Y-71454574D01*
X158830971Y-71520604D01*
X158831488Y-71532011D01*
X158831488Y-79671116D01*
X158811486Y-79739237D01*
X158794281Y-79759213D01*
X158794784Y-79759691D01*
X158790803Y-79763885D01*
X158786466Y-79767689D01*
X158782899Y-79772214D01*
X158782894Y-79772219D01*
X158704819Y-79871258D01*
X158660339Y-79927680D01*
X158565480Y-80107977D01*
X158505066Y-80302542D01*
X158481120Y-80504858D01*
X158494445Y-80708150D01*
X158544593Y-80905609D01*
X158629886Y-81090623D01*
X158747467Y-81256996D01*
X158893398Y-81399156D01*
X158898194Y-81402361D01*
X158898197Y-81402363D01*
X159017851Y-81482313D01*
X159062791Y-81512341D01*
X159068094Y-81514619D01*
X159068097Y-81514621D01*
X159168052Y-81557565D01*
X159249975Y-81592762D01*
X159322805Y-81609242D01*
X159443043Y-81636449D01*
X159443048Y-81636450D01*
X159448680Y-81637724D01*
X159454451Y-81637951D01*
X159454453Y-81637951D01*
X159517458Y-81640426D01*
X159652251Y-81645722D01*
X159729372Y-81634540D01*
X159747465Y-81631917D01*
X159817751Y-81641937D01*
X159871462Y-81688367D01*
X159891545Y-81756464D01*
X159890672Y-81771420D01*
X159881120Y-81852125D01*
X159894445Y-82055417D01*
X159944593Y-82252876D01*
X160029886Y-82437890D01*
X160147467Y-82604263D01*
X160293398Y-82746423D01*
X160298194Y-82749628D01*
X160298197Y-82749630D01*
X160375901Y-82801550D01*
X160462791Y-82859608D01*
X160468094Y-82861886D01*
X160468097Y-82861888D01*
X160557103Y-82900128D01*
X160649975Y-82940029D01*
X160722805Y-82956509D01*
X160843043Y-82983716D01*
X160843048Y-82983717D01*
X160848680Y-82984991D01*
X160854451Y-82985218D01*
X160854453Y-82985218D01*
X160917458Y-82987693D01*
X161052251Y-82992989D01*
X161253871Y-82963756D01*
X161259335Y-82961901D01*
X161259340Y-82961900D01*
X161441315Y-82900128D01*
X161441320Y-82900126D01*
X161446787Y-82898270D01*
X161624539Y-82798724D01*
X161781174Y-82668452D01*
X161911446Y-82511817D01*
X162010992Y-82334065D01*
X162012848Y-82328598D01*
X162012850Y-82328593D01*
X162074622Y-82146618D01*
X162074623Y-82146613D01*
X162076478Y-82141149D01*
X162105711Y-81939529D01*
X162107237Y-81881266D01*
X162091986Y-81715282D01*
X162089125Y-81684146D01*
X162089124Y-81684143D01*
X162088596Y-81678392D01*
X162079148Y-81644893D01*
X162034863Y-81487872D01*
X162034862Y-81487870D01*
X162033295Y-81482313D01*
X161993869Y-81402363D01*
X161945744Y-81304776D01*
X161943189Y-81299595D01*
X161821293Y-81136357D01*
X161758470Y-81078284D01*
X161722025Y-81017355D01*
X161717999Y-80985759D01*
X161717999Y-66062501D01*
X161738001Y-65994380D01*
X161791657Y-65947887D01*
X161861931Y-65937783D01*
X161926511Y-65967277D01*
X161963206Y-66021687D01*
X161988584Y-66095808D01*
X161995688Y-66116558D01*
X162011231Y-66147462D01*
X162118471Y-66360684D01*
X162124863Y-66373394D01*
X162287699Y-66610322D01*
X162290586Y-66613495D01*
X162290587Y-66613496D01*
X162454671Y-66793823D01*
X162481184Y-66822960D01*
X162484479Y-66825715D01*
X162484480Y-66825716D01*
X162635105Y-66951657D01*
X162701737Y-67007370D01*
X162945276Y-67160143D01*
X163207296Y-67278449D01*
X163276541Y-67298960D01*
X163478835Y-67358883D01*
X163478840Y-67358884D01*
X163482948Y-67360101D01*
X163487182Y-67360749D01*
X163487187Y-67360750D01*
X163735789Y-67398791D01*
X163767131Y-67403587D01*
X163913463Y-67405886D01*
X164050295Y-67408036D01*
X164050301Y-67408036D01*
X164054586Y-67408103D01*
X164058838Y-67407588D01*
X164058846Y-67407588D01*
X164335734Y-67374080D01*
X164335739Y-67374079D01*
X164339995Y-67373564D01*
X164436580Y-67348225D01*
X164613932Y-67301698D01*
X164613933Y-67301698D01*
X164618075Y-67300611D01*
X164883682Y-67190593D01*
X165131900Y-67045546D01*
X165358137Y-66868154D01*
X165362739Y-66863406D01*
X165488096Y-66734047D01*
X165558205Y-66661700D01*
X165560738Y-66658252D01*
X165560742Y-66658247D01*
X165725865Y-66433458D01*
X165728403Y-66430003D01*
X165753182Y-66384366D01*
X165863532Y-66181127D01*
X165863533Y-66181125D01*
X165865582Y-66177351D01*
X165952777Y-65946597D01*
X165965685Y-65912438D01*
X165965686Y-65912434D01*
X165967203Y-65908420D01*
X165998759Y-65770640D01*
X166030427Y-65632369D01*
X166030428Y-65632365D01*
X166031385Y-65628185D01*
X166034688Y-65591182D01*
X166056721Y-65344298D01*
X166056721Y-65344296D01*
X166056941Y-65341832D01*
X166057405Y-65297572D01*
X166054264Y-65251498D01*
X166038143Y-65015024D01*
X166038142Y-65015018D01*
X166037851Y-65010747D01*
X166033314Y-64988836D01*
X165980421Y-64733427D01*
X165979552Y-64729230D01*
X165883585Y-64458229D01*
X165788874Y-64274730D01*
X165753693Y-64206567D01*
X165753693Y-64206566D01*
X165751728Y-64202760D01*
X165745617Y-64194064D01*
X165669074Y-64085155D01*
X165586419Y-63967549D01*
X165455049Y-63826178D01*
X165393639Y-63760093D01*
X165393636Y-63760091D01*
X165390718Y-63756950D01*
X165168246Y-63574859D01*
X164923120Y-63424645D01*
X164905026Y-63416702D01*
X164663808Y-63310815D01*
X164659876Y-63309089D01*
X164633941Y-63301701D01*
X164387512Y-63231504D01*
X164387513Y-63231504D01*
X164383384Y-63230328D01*
X164170682Y-63200057D01*
X164103014Y-63190426D01*
X164103012Y-63190426D01*
X164098762Y-63189821D01*
X164094473Y-63189799D01*
X164094466Y-63189798D01*
X163815561Y-63188337D01*
X163815554Y-63188337D01*
X163811275Y-63188315D01*
X163807031Y-63188874D01*
X163807027Y-63188874D01*
X163681638Y-63205382D01*
X163526244Y-63225840D01*
X163522104Y-63226973D01*
X163522102Y-63226973D01*
X163445289Y-63247987D01*
X163248942Y-63301701D01*
X163244994Y-63303385D01*
X162988454Y-63412809D01*
X162988450Y-63412811D01*
X162984502Y-63414495D01*
X162859938Y-63489045D01*
X162741499Y-63559929D01*
X162741495Y-63559932D01*
X162737817Y-63562133D01*
X162513450Y-63741885D01*
X162315555Y-63950423D01*
X162294577Y-63979617D01*
X162175850Y-64144843D01*
X162147792Y-64183889D01*
X162145783Y-64187684D01*
X162145782Y-64187685D01*
X162132849Y-64212112D01*
X162013266Y-64437964D01*
X161914467Y-64707945D01*
X161853223Y-64988836D01*
X161830667Y-65275441D01*
X161834851Y-65348009D01*
X161839219Y-65423759D01*
X161823172Y-65492918D01*
X161772281Y-65542423D01*
X161702705Y-65556555D01*
X161636534Y-65530828D01*
X161608056Y-65500097D01*
X161601684Y-65490378D01*
X161599369Y-65486710D01*
X161561272Y-65423929D01*
X161557556Y-65419722D01*
X161557553Y-65419718D01*
X161553831Y-65415505D01*
X161553859Y-65415480D01*
X161551267Y-65412555D01*
X161548457Y-65409195D01*
X161544445Y-65403075D01*
X161487915Y-65349523D01*
X161485473Y-65347146D01*
X160623365Y-64485038D01*
X160610978Y-64470625D01*
X160602350Y-64458901D01*
X160598009Y-64453002D01*
X160557500Y-64418587D01*
X160549984Y-64411657D01*
X160544240Y-64405913D01*
X160541366Y-64403639D01*
X160541359Y-64403633D01*
X160521844Y-64388194D01*
X160518440Y-64385403D01*
X160468083Y-64342621D01*
X160468079Y-64342618D01*
X160462504Y-64337882D01*
X160455987Y-64334554D01*
X160450923Y-64331177D01*
X160445699Y-64327950D01*
X160439955Y-64323406D01*
X160396820Y-64303246D01*
X160373473Y-64292334D01*
X160369522Y-64290403D01*
X160336257Y-64273417D01*
X160304151Y-64257023D01*
X160297036Y-64255282D01*
X160291290Y-64253145D01*
X160285507Y-64251221D01*
X160278876Y-64248122D01*
X160206998Y-64233172D01*
X160202726Y-64232205D01*
X160131443Y-64214762D01*
X160125844Y-64214415D01*
X160125840Y-64214414D01*
X160120225Y-64214066D01*
X160120227Y-64214027D01*
X160116326Y-64213794D01*
X160111967Y-64213405D01*
X160104799Y-64211914D01*
X160097482Y-64212112D01*
X160026978Y-64214020D01*
X160023569Y-64214066D01*
X158918342Y-64214066D01*
X158850221Y-64194064D01*
X158812549Y-64156505D01*
X158805005Y-64144843D01*
X158654661Y-63979617D01*
X158650610Y-63976418D01*
X158650606Y-63976414D01*
X158483405Y-63844366D01*
X158483401Y-63844364D01*
X158479350Y-63841164D01*
X158283780Y-63733204D01*
X158278911Y-63731480D01*
X158278907Y-63731478D01*
X158078078Y-63660361D01*
X158078074Y-63660360D01*
X158073203Y-63658635D01*
X158068110Y-63657728D01*
X158068107Y-63657727D01*
X157858364Y-63620366D01*
X157858358Y-63620365D01*
X157853275Y-63619460D01*
X157779443Y-63618558D01*
X157635072Y-63616794D01*
X157635070Y-63616794D01*
X157629902Y-63616731D01*
X157409082Y-63650521D01*
X157196747Y-63719923D01*
X156998598Y-63823073D01*
X156994465Y-63826176D01*
X156994462Y-63826178D01*
X156828983Y-63950423D01*
X156819956Y-63957201D01*
X156665620Y-64118704D01*
X156558192Y-64276187D01*
X156503284Y-64321187D01*
X156432759Y-64329358D01*
X156369012Y-64298104D01*
X156348315Y-64273620D01*
X156267813Y-64149183D01*
X156267811Y-64149180D01*
X156265005Y-64144843D01*
X156114661Y-63979617D01*
X156110610Y-63976418D01*
X156110606Y-63976414D01*
X155943405Y-63844366D01*
X155943401Y-63844364D01*
X155939350Y-63841164D01*
X155743780Y-63733204D01*
X155738911Y-63731480D01*
X155738907Y-63731478D01*
X155538078Y-63660361D01*
X155538074Y-63660360D01*
X155533203Y-63658635D01*
X155528110Y-63657728D01*
X155528107Y-63657727D01*
X155318364Y-63620366D01*
X155318358Y-63620365D01*
X155313275Y-63619460D01*
X155239443Y-63618558D01*
X155095072Y-63616794D01*
X155095070Y-63616794D01*
X155089902Y-63616731D01*
X154869082Y-63650521D01*
X154656747Y-63719923D01*
X154458598Y-63823073D01*
X154454465Y-63826176D01*
X154454462Y-63826178D01*
X154288983Y-63950423D01*
X154279956Y-63957201D01*
X154125620Y-64118704D01*
X154122706Y-64122976D01*
X154098083Y-64159071D01*
X154043171Y-64204073D01*
X153993995Y-64214066D01*
X153472377Y-64214066D01*
X153453427Y-64212633D01*
X153439028Y-64210442D01*
X153439022Y-64210442D01*
X153431793Y-64209342D01*
X153424501Y-64209935D01*
X153424498Y-64209935D01*
X153378818Y-64213651D01*
X153368603Y-64214066D01*
X153360476Y-64214066D01*
X153356840Y-64214490D01*
X153356838Y-64214490D01*
X153353386Y-64214893D01*
X153332077Y-64217377D01*
X153327757Y-64217804D01*
X153254575Y-64223757D01*
X153247613Y-64226013D01*
X153241625Y-64227209D01*
X153235668Y-64228617D01*
X153228394Y-64229465D01*
X153221512Y-64231963D01*
X153221508Y-64231964D01*
X153159394Y-64254511D01*
X153155290Y-64255921D01*
X153085426Y-64278553D01*
X153079163Y-64282353D01*
X153073621Y-64284891D01*
X153068145Y-64287633D01*
X153061260Y-64290132D01*
X153055136Y-64294147D01*
X152999869Y-64330381D01*
X152996201Y-64332696D01*
X152933420Y-64370793D01*
X152929215Y-64374507D01*
X152929212Y-64374509D01*
X152924996Y-64378233D01*
X152924970Y-64378204D01*
X152922039Y-64380804D01*
X152918685Y-64383608D01*
X152912566Y-64387620D01*
X152883231Y-64418587D01*
X152859013Y-64444152D01*
X152856635Y-64446594D01*
X152058472Y-65244757D01*
X152044059Y-65257144D01*
X152026436Y-65270113D01*
X152021692Y-65275696D01*
X152021693Y-65275696D01*
X151992021Y-65310622D01*
X151985091Y-65318138D01*
X151979347Y-65323882D01*
X151977073Y-65326756D01*
X151977067Y-65326763D01*
X151961628Y-65346278D01*
X151958837Y-65349682D01*
X151916055Y-65400039D01*
X151916052Y-65400043D01*
X151911316Y-65405618D01*
X151907988Y-65412135D01*
X151904611Y-65417199D01*
X151901384Y-65422423D01*
X151896840Y-65428167D01*
X151893741Y-65434798D01*
X151865768Y-65494649D01*
X151863837Y-65498600D01*
X151830457Y-65563971D01*
X151828716Y-65571086D01*
X151826579Y-65576832D01*
X151824655Y-65582615D01*
X151821556Y-65589246D01*
X151809367Y-65647851D01*
X151806608Y-65661114D01*
X151805639Y-65665396D01*
X151788196Y-65736679D01*
X151787849Y-65742278D01*
X151787848Y-65742282D01*
X151787500Y-65747892D01*
X151787500Y-65747897D01*
X151787461Y-65747895D01*
X151787228Y-65751796D01*
X151786839Y-65756155D01*
X151785348Y-65763323D01*
X151785546Y-65770640D01*
X151787454Y-65841144D01*
X151787500Y-65844553D01*
X151787500Y-73509959D01*
X151767498Y-73578080D01*
X151750595Y-73599054D01*
X150102460Y-75247189D01*
X150088047Y-75259576D01*
X150070424Y-75272545D01*
X150051498Y-75294822D01*
X150036009Y-75313054D01*
X150029079Y-75320570D01*
X150023335Y-75326314D01*
X150021061Y-75329188D01*
X150021055Y-75329195D01*
X150005616Y-75348710D01*
X150002825Y-75352114D01*
X149960043Y-75402471D01*
X149960040Y-75402475D01*
X149955304Y-75408050D01*
X149951976Y-75414567D01*
X149948599Y-75419631D01*
X149945372Y-75424855D01*
X149940828Y-75430599D01*
X149937729Y-75437230D01*
X149909756Y-75497081D01*
X149907825Y-75501032D01*
X149904125Y-75508279D01*
X149874445Y-75566403D01*
X149872704Y-75573518D01*
X149870567Y-75579264D01*
X149868643Y-75585047D01*
X149865544Y-75591678D01*
X149856631Y-75634533D01*
X149850596Y-75663546D01*
X149849627Y-75667828D01*
X149832184Y-75739111D01*
X149831488Y-75750329D01*
X149831449Y-75750327D01*
X149831216Y-75754228D01*
X149830827Y-75758587D01*
X149829336Y-75765755D01*
X149829534Y-75773072D01*
X149831442Y-75843576D01*
X149831488Y-75846985D01*
X149831488Y-76854932D01*
X149811486Y-76923053D01*
X149777760Y-76958144D01*
X149769199Y-76964139D01*
X149749688Y-76977801D01*
X149587790Y-77139699D01*
X149584633Y-77144207D01*
X149584631Y-77144210D01*
X149529890Y-77222388D01*
X149456465Y-77327250D01*
X149454142Y-77332232D01*
X149454139Y-77332237D01*
X149373870Y-77504376D01*
X149359704Y-77534756D01*
X149300445Y-77755912D01*
X149280490Y-77983999D01*
X148637036Y-77983999D01*
X148637139Y-77979766D01*
X148618835Y-77757127D01*
X148564414Y-77540468D01*
X148475337Y-77335606D01*
X148353997Y-77148043D01*
X148350515Y-77144216D01*
X148206781Y-76986254D01*
X148175729Y-76922408D01*
X148184124Y-76851909D01*
X148229300Y-76797141D01*
X148255744Y-76783472D01*
X148362280Y-76743533D01*
X148370688Y-76740381D01*
X148487244Y-76653027D01*
X148574598Y-76536471D01*
X148625728Y-76400082D01*
X148632483Y-76337900D01*
X148632483Y-74541632D01*
X148625728Y-74479450D01*
X148574598Y-74343061D01*
X148487244Y-74226505D01*
X148370688Y-74139151D01*
X148234299Y-74088021D01*
X148172117Y-74081266D01*
X146375849Y-74081266D01*
X146313667Y-74088021D01*
X146177278Y-74139151D01*
X146060722Y-74226505D01*
X145973368Y-74343061D01*
X145922238Y-74479450D01*
X145915483Y-74541632D01*
X145915483Y-76337900D01*
X145922238Y-76400082D01*
X145973368Y-76536471D01*
X146060722Y-76653027D01*
X146177278Y-76740381D01*
X146185687Y-76743533D01*
X146185688Y-76743534D01*
X146294434Y-76784301D01*
X146351199Y-76826942D01*
X146375899Y-76893504D01*
X146360692Y-76962853D01*
X146341299Y-76989334D01*
X146214612Y-77121904D01*
X146088726Y-77306446D01*
X145994671Y-77509071D01*
X145934972Y-77724336D01*
X145911234Y-77946461D01*
X145911531Y-77951614D01*
X145911531Y-77951617D01*
X145916994Y-78046356D01*
X145924093Y-78169481D01*
X145925230Y-78174527D01*
X145925231Y-78174533D01*
X145934892Y-78217401D01*
X145973205Y-78387405D01*
X146057249Y-78594382D01*
X146173970Y-78784854D01*
X146320233Y-78953704D01*
X146492109Y-79096398D01*
X146535104Y-79121522D01*
X146565428Y-79139242D01*
X146614152Y-79190880D01*
X146627223Y-79260663D01*
X146600492Y-79326435D01*
X146560038Y-79359793D01*
X146547590Y-79366273D01*
X146543457Y-79369376D01*
X146543454Y-79369378D01*
X146488774Y-79410433D01*
X146368948Y-79500401D01*
X146214612Y-79661904D01*
X146211698Y-79666176D01*
X146211697Y-79666177D01*
X146145939Y-79762575D01*
X146088726Y-79846446D01*
X145994671Y-80049071D01*
X145934972Y-80264336D01*
X145911234Y-80486461D01*
X145423990Y-80486461D01*
X145423990Y-65275441D01*
X146852668Y-65275441D01*
X146869217Y-65562455D01*
X146870042Y-65566660D01*
X146870043Y-65566668D01*
X146883729Y-65636423D01*
X146924565Y-65844567D01*
X146925952Y-65848617D01*
X146925953Y-65848622D01*
X147015615Y-66110500D01*
X147017689Y-66116558D01*
X147033232Y-66147462D01*
X147140472Y-66360684D01*
X147146864Y-66373394D01*
X147309700Y-66610322D01*
X147312587Y-66613495D01*
X147312588Y-66613496D01*
X147476672Y-66793823D01*
X147503185Y-66822960D01*
X147506480Y-66825715D01*
X147506481Y-66825716D01*
X147657106Y-66951657D01*
X147723738Y-67007370D01*
X147967277Y-67160143D01*
X148229297Y-67278449D01*
X148298542Y-67298960D01*
X148500836Y-67358883D01*
X148500841Y-67358884D01*
X148504949Y-67360101D01*
X148509183Y-67360749D01*
X148509188Y-67360750D01*
X148757790Y-67398791D01*
X148789132Y-67403587D01*
X148935464Y-67405886D01*
X149072296Y-67408036D01*
X149072302Y-67408036D01*
X149076587Y-67408103D01*
X149080839Y-67407588D01*
X149080847Y-67407588D01*
X149357735Y-67374080D01*
X149357740Y-67374079D01*
X149361996Y-67373564D01*
X149458581Y-67348225D01*
X149635933Y-67301698D01*
X149635934Y-67301698D01*
X149640076Y-67300611D01*
X149905683Y-67190593D01*
X150153901Y-67045546D01*
X150380138Y-66868154D01*
X150384740Y-66863406D01*
X150510097Y-66734047D01*
X150580206Y-66661700D01*
X150582739Y-66658252D01*
X150582743Y-66658247D01*
X150747866Y-66433458D01*
X150750404Y-66430003D01*
X150775183Y-66384366D01*
X150885533Y-66181127D01*
X150885534Y-66181125D01*
X150887583Y-66177351D01*
X150974778Y-65946597D01*
X150987686Y-65912438D01*
X150987687Y-65912434D01*
X150989204Y-65908420D01*
X151020760Y-65770640D01*
X151052428Y-65632369D01*
X151052429Y-65632365D01*
X151053386Y-65628185D01*
X151056689Y-65591182D01*
X151078722Y-65344298D01*
X151078722Y-65344296D01*
X151078942Y-65341832D01*
X151079406Y-65297572D01*
X151076265Y-65251498D01*
X151060144Y-65015024D01*
X151060143Y-65015018D01*
X151059852Y-65010747D01*
X151055315Y-64988836D01*
X151002422Y-64733427D01*
X151001553Y-64729230D01*
X150905586Y-64458229D01*
X150810875Y-64274730D01*
X150775694Y-64206567D01*
X150775694Y-64206566D01*
X150773729Y-64202760D01*
X150767618Y-64194064D01*
X150691075Y-64085155D01*
X150608420Y-63967549D01*
X150477050Y-63826178D01*
X150415640Y-63760093D01*
X150415637Y-63760091D01*
X150412719Y-63756950D01*
X150190247Y-63574859D01*
X149945121Y-63424645D01*
X149927027Y-63416702D01*
X149685809Y-63310815D01*
X149681877Y-63309089D01*
X149655942Y-63301701D01*
X149409513Y-63231504D01*
X149409514Y-63231504D01*
X149405385Y-63230328D01*
X149192683Y-63200057D01*
X149125015Y-63190426D01*
X149125013Y-63190426D01*
X149120763Y-63189821D01*
X149116474Y-63189799D01*
X149116467Y-63189798D01*
X148837562Y-63188337D01*
X148837555Y-63188337D01*
X148833276Y-63188315D01*
X148829032Y-63188874D01*
X148829028Y-63188874D01*
X148703639Y-63205382D01*
X148548245Y-63225840D01*
X148544105Y-63226973D01*
X148544103Y-63226973D01*
X148467290Y-63247987D01*
X148270943Y-63301701D01*
X148266995Y-63303385D01*
X148010455Y-63412809D01*
X148010451Y-63412811D01*
X148006503Y-63414495D01*
X147881939Y-63489045D01*
X147763500Y-63559929D01*
X147763496Y-63559932D01*
X147759818Y-63562133D01*
X147535451Y-63741885D01*
X147337556Y-63950423D01*
X147316578Y-63979617D01*
X147197851Y-64144843D01*
X147169793Y-64183889D01*
X147167784Y-64187684D01*
X147167783Y-64187685D01*
X147154850Y-64212112D01*
X147035267Y-64437964D01*
X146936468Y-64707945D01*
X146875224Y-64988836D01*
X146852668Y-65275441D01*
X145423990Y-65275441D01*
X145423990Y-64298807D01*
X145425490Y-64279422D01*
X145427795Y-64264621D01*
X145427795Y-64264618D01*
X145429176Y-64255749D01*
X145426931Y-64238580D01*
X145426098Y-64214640D01*
X145441700Y-63956709D01*
X145443534Y-63941605D01*
X145477373Y-63756950D01*
X145495030Y-63660600D01*
X145498669Y-63645832D01*
X145507494Y-63617514D01*
X145583665Y-63373071D01*
X145589060Y-63358849D01*
X145706306Y-63098339D01*
X145713375Y-63084870D01*
X145861172Y-62840384D01*
X145869815Y-62827862D01*
X146046006Y-62602972D01*
X146056096Y-62591584D01*
X146258095Y-62389585D01*
X146269483Y-62379495D01*
X146494373Y-62203304D01*
X146506895Y-62194661D01*
X146751381Y-62046864D01*
X146764850Y-62039795D01*
X147025363Y-61922548D01*
X147039582Y-61917154D01*
X147312349Y-61832157D01*
X147327111Y-61828519D01*
X147537342Y-61789993D01*
X147608116Y-61777023D01*
X147623220Y-61775189D01*
X147873919Y-61760024D01*
X147900629Y-61761281D01*
X147900849Y-61761284D01*
X147909720Y-61762665D01*
X147918622Y-61761501D01*
X147918625Y-61761501D01*
X147941241Y-61758543D01*
X147957579Y-61757479D01*
X164944660Y-61757479D01*
X164964045Y-61758979D01*
G37*
%TD.AperFunction*%
%TA.AperFunction,Conductor*%
G36*
X154058654Y-65759068D02*
G01*
X154085770Y-65782569D01*
X154227851Y-65946591D01*
X154231241Y-65950504D01*
X154403117Y-66093198D01*
X154432726Y-66110500D01*
X154476946Y-66136340D01*
X154525670Y-66187978D01*
X154538741Y-66257761D01*
X154512010Y-66323533D01*
X154471553Y-66356893D01*
X154463448Y-66361112D01*
X154454729Y-66366602D01*
X154284424Y-66494471D01*
X154276717Y-66501314D01*
X154129581Y-66655283D01*
X154123095Y-66663293D01*
X154003089Y-66839215D01*
X153997991Y-66848189D01*
X153908329Y-67041349D01*
X153904766Y-67051036D01*
X153849380Y-67250749D01*
X153850903Y-67259173D01*
X153863283Y-67262566D01*
X155312991Y-67262566D01*
X155381112Y-67282568D01*
X155427605Y-67336224D01*
X155438991Y-67388566D01*
X155438991Y-67644566D01*
X155418989Y-67712687D01*
X155365333Y-67759180D01*
X155312991Y-67770566D01*
X153868216Y-67770566D01*
X153854685Y-67774539D01*
X153853248Y-67784532D01*
X153883556Y-67919012D01*
X153886636Y-67928841D01*
X153966761Y-68126169D01*
X153971404Y-68135360D01*
X154082685Y-68316954D01*
X154088768Y-68325265D01*
X154228204Y-68486233D01*
X154235571Y-68493449D01*
X154399425Y-68629482D01*
X154407872Y-68635397D01*
X154476960Y-68675769D01*
X154525684Y-68727408D01*
X154538755Y-68797191D01*
X154512024Y-68862962D01*
X154471575Y-68896318D01*
X154458598Y-68903073D01*
X154454465Y-68906176D01*
X154454462Y-68906178D01*
X154284091Y-69034096D01*
X154279956Y-69037201D01*
X154240516Y-69078473D01*
X154186271Y-69135237D01*
X154125620Y-69198704D01*
X153999734Y-69383246D01*
X153905679Y-69585871D01*
X153845980Y-69801136D01*
X153822242Y-70023261D01*
X153835101Y-70246281D01*
X153836238Y-70251327D01*
X153836239Y-70251333D01*
X153860295Y-70358074D01*
X153884213Y-70464205D01*
X153968257Y-70671182D01*
X154084978Y-70861654D01*
X154231241Y-71030504D01*
X154376978Y-71151497D01*
X154416611Y-71210397D01*
X154422491Y-71248439D01*
X154422491Y-71934129D01*
X154402489Y-72002250D01*
X154392358Y-72015163D01*
X154392478Y-72015257D01*
X154266351Y-72175248D01*
X154171492Y-72355545D01*
X154111078Y-72550110D01*
X154087132Y-72752426D01*
X154100457Y-72955718D01*
X154150605Y-73153177D01*
X154235898Y-73338191D01*
X154353479Y-73504564D01*
X154499410Y-73646724D01*
X154504210Y-73649931D01*
X154505329Y-73650679D01*
X154505739Y-73651169D01*
X154508701Y-73653568D01*
X154508230Y-73654150D01*
X154550857Y-73705156D01*
X154559704Y-73775600D01*
X154529063Y-73839644D01*
X154468661Y-73876955D01*
X154457970Y-73878839D01*
X154458035Y-73879162D01*
X154450855Y-73880597D01*
X154443562Y-73881190D01*
X154436600Y-73883445D01*
X154430612Y-73884642D01*
X154424655Y-73886050D01*
X154417381Y-73886898D01*
X154410499Y-73889396D01*
X154410495Y-73889397D01*
X154348381Y-73911944D01*
X154344277Y-73913354D01*
X154274413Y-73935986D01*
X154268150Y-73939786D01*
X154262608Y-73942324D01*
X154257132Y-73945066D01*
X154250247Y-73947565D01*
X154244123Y-73951580D01*
X154188856Y-73987814D01*
X154185188Y-73990129D01*
X154122407Y-74028226D01*
X154118202Y-74031940D01*
X154118199Y-74031942D01*
X154113983Y-74035666D01*
X154113957Y-74035637D01*
X154111026Y-74038237D01*
X154107672Y-74041041D01*
X154101553Y-74045053D01*
X154061657Y-74087168D01*
X154048000Y-74101585D01*
X154045622Y-74104027D01*
X153561522Y-74588127D01*
X153499210Y-74622153D01*
X153470779Y-74625021D01*
X153439929Y-74624618D01*
X153406643Y-74624182D01*
X153400946Y-74625161D01*
X153400945Y-74625161D01*
X153211555Y-74657704D01*
X153205858Y-74658683D01*
X153179012Y-74668587D01*
X153108179Y-74673398D01*
X153045989Y-74639150D01*
X153012187Y-74576716D01*
X153017506Y-74505919D01*
X153060723Y-74448891D01*
X153067663Y-74443784D01*
X153067665Y-74443782D01*
X153073564Y-74439441D01*
X153107979Y-74398932D01*
X153114909Y-74391416D01*
X153120653Y-74385672D01*
X153122927Y-74382798D01*
X153122933Y-74382791D01*
X153138372Y-74363276D01*
X153141163Y-74359872D01*
X153183945Y-74309515D01*
X153183948Y-74309511D01*
X153188684Y-74303936D01*
X153192012Y-74297419D01*
X153195389Y-74292355D01*
X153198616Y-74287131D01*
X153203160Y-74281387D01*
X153234242Y-74214883D01*
X153236147Y-74210986D01*
X153269543Y-74145583D01*
X153271284Y-74138469D01*
X153273416Y-74132735D01*
X153275344Y-74126939D01*
X153278444Y-74120307D01*
X153293395Y-74048427D01*
X153294365Y-74044143D01*
X153296446Y-74035637D01*
X153311804Y-73972875D01*
X153312500Y-73961657D01*
X153312537Y-73961659D01*
X153312773Y-73957760D01*
X153313163Y-73953389D01*
X153314652Y-73946230D01*
X153312546Y-73868410D01*
X153312500Y-73865001D01*
X153312500Y-66199595D01*
X153332502Y-66131474D01*
X153349405Y-66110500D01*
X153683934Y-65775971D01*
X153746246Y-65741945D01*
X153773029Y-65739066D01*
X153990533Y-65739066D01*
X154058654Y-65759068D01*
G37*
%TD.AperFunction*%
%TD*%
M02*
