%TF.GenerationSoftware,KiCad,Pcbnew,(6.0.0)*%
%TF.CreationDate,2022-03-14T07:54:04-04:00*%
%TF.ProjectId,JTAG_ISP-HDR,4a544147-5f49-4535-902d-4844522e6b69,v1.0.0*%
%TF.SameCoordinates,PX8924e3cPY3981160*%
%TF.FileFunction,Copper,L2,Bot*%
%TF.FilePolarity,Positive*%
%FSLAX46Y46*%
G04 Gerber Fmt 4.6, Leading zero omitted, Abs format (unit mm)*
G04 Created by KiCad (PCBNEW (6.0.0)) date 2022-03-14 07:54:04*
%MOMM*%
%LPD*%
G01*
G04 APERTURE LIST*
%TA.AperFunction,ComponentPad*%
%ADD10C,3.200001*%
%TD*%
%TA.AperFunction,ComponentPad*%
%ADD11C,1.600000*%
%TD*%
%TA.AperFunction,ComponentPad*%
%ADD12R,1.700000X1.700000*%
%TD*%
%TA.AperFunction,ComponentPad*%
%ADD13O,1.700000X1.700000*%
%TD*%
%TA.AperFunction,ComponentPad*%
%ADD14C,1.700000*%
%TD*%
%TA.AperFunction,ViaPad*%
%ADD15C,1.200000*%
%TD*%
%TA.AperFunction,Conductor*%
%ADD16C,0.508000*%
%TD*%
%TA.AperFunction,Conductor*%
%ADD17C,0.250000*%
%TD*%
G04 APERTURE END LIST*
D10*
%TO.P,REF\u002A\u002A,*%
%TO.N,*%
X5065990Y-5066012D03*
%TD*%
%TO.P,REF\u002A\u002A,*%
%TO.N,*%
X20043988Y-43102432D03*
%TD*%
D11*
%TO.P,C1,1*%
%TO.N,+5V*%
X3500000Y-12150000D03*
%TO.P,C1,2*%
%TO.N,GND*%
X3500000Y-9650000D03*
%TD*%
D10*
%TO.P,REF\u002A\u002A,*%
%TO.N,*%
X5065990Y-43102432D03*
%TD*%
D12*
%TO.P,JTAG1,1,#MCLR*%
%TO.N,unconnected-(JTAG1-Pad1)*%
X12554989Y-15208192D03*
D13*
%TO.P,JTAG1,2,VDD*%
%TO.N,+5V*%
X12554989Y-17748192D03*
%TO.P,JTAG1,3,GND*%
%TO.N,GND*%
X12554989Y-20288192D03*
%TO.P,JTAG1,4,TDO*%
%TO.N,Net-(J1-Pad6)*%
X12554989Y-22828192D03*
%TO.P,JTAG1,5,TCK*%
%TO.N,Net-(J1-Pad8)*%
X12554989Y-25368192D03*
%TO.P,JTAG1,6,#RESET*%
%TO.N,Net-(J2-Pad3)*%
X12554989Y-27908192D03*
%TO.P,JTAG1,7,TDI*%
%TO.N,Net-(J2-Pad5)*%
X12554989Y-30448192D03*
%TO.P,JTAG1,8,TMS*%
%TO.N,Net-(J2-Pad7)*%
X12554989Y-32988192D03*
%TD*%
D10*
%TO.P,REF\u002A\u002A,*%
%TO.N,*%
X20043988Y-5066012D03*
%TD*%
D14*
%TO.P,J2,1,Pin_1*%
%TO.N,Net-(J1-Pad8)*%
X21735989Y-15208192D03*
D13*
%TO.P,J2,2,Pin_2*%
%TO.N,unconnected-(J2-Pad2)*%
X21735989Y-17748192D03*
%TO.P,J2,3,Pin_3*%
%TO.N,Net-(J2-Pad3)*%
X21735989Y-20288192D03*
%TO.P,J2,4,Pin_4*%
%TO.N,unconnected-(J2-Pad4)*%
X21735989Y-22828192D03*
%TO.P,J2,5,Pin_5*%
%TO.N,Net-(J2-Pad5)*%
X21735989Y-25368192D03*
%TO.P,J2,6,Pin_6*%
%TO.N,unconnected-(J2-Pad6)*%
X21735989Y-27908192D03*
%TO.P,J2,7,Pin_7*%
%TO.N,Net-(J2-Pad7)*%
X21735989Y-30448192D03*
%TO.P,J2,8,Pin_8*%
%TO.N,unconnected-(J2-Pad8)*%
X21735989Y-32988192D03*
%TD*%
D12*
%TO.P,J1,1,Pin_1*%
%TO.N,unconnected-(J1-Pad1)*%
X3373989Y-15208192D03*
D13*
%TO.P,J1,2,Pin_2*%
%TO.N,+5V*%
X3373989Y-17748192D03*
%TO.P,J1,3,Pin_3*%
%TO.N,unconnected-(J1-Pad3)*%
X3373989Y-20288192D03*
%TO.P,J1,4,Pin_4*%
%TO.N,GND*%
X3373989Y-22828192D03*
%TO.P,J1,5,Pin_5*%
%TO.N,unconnected-(J1-Pad5)*%
X3373989Y-25368192D03*
%TO.P,J1,6,Pin_6*%
%TO.N,Net-(J1-Pad6)*%
X3373989Y-27908192D03*
%TO.P,J1,7,Pin_7*%
%TO.N,unconnected-(J1-Pad7)*%
X3373989Y-30448192D03*
%TO.P,J1,8,Pin_8*%
%TO.N,Net-(J1-Pad8)*%
X3373989Y-32988192D03*
%TD*%
D15*
%TO.N,+5V*%
X8468228Y-17748192D03*
%TO.N,GND*%
X6493988Y-30402432D03*
%TO.N,Net-(J1-Pad6)*%
X8468228Y-22828192D03*
%TO.N,Net-(J1-Pad8)*%
X8468228Y-25368192D03*
X16641750Y-25368192D03*
%TO.N,Net-(J2-Pad3)*%
X16641750Y-27908192D03*
%TO.N,Net-(J2-Pad5)*%
X16641750Y-30448192D03*
%TO.N,Net-(J2-Pad7)*%
X16641750Y-32988192D03*
%TD*%
D16*
%TO.N,+5V*%
X12554989Y-17748192D02*
X8468228Y-17748192D01*
X7550000Y-12150000D02*
X8468228Y-13068228D01*
X3500000Y-12150000D02*
X7550000Y-12150000D01*
X8468228Y-13068228D02*
X8468228Y-17748192D01*
D17*
%TO.N,Net-(J1-Pad6)*%
X12554989Y-22828192D02*
X8468228Y-22828192D01*
%TO.N,Net-(J1-Pad8)*%
X12554989Y-25368192D02*
X16641750Y-25368192D01*
X12554989Y-25368192D02*
X8468228Y-25368192D01*
%TO.N,Net-(J2-Pad3)*%
X16588228Y-27908192D02*
X16641750Y-27908192D01*
X12554989Y-27908192D02*
X16588228Y-27908192D01*
%TO.N,Net-(J2-Pad5)*%
X12554989Y-30448192D02*
X16641750Y-30448192D01*
%TO.N,Net-(J2-Pad7)*%
X12554989Y-32988192D02*
X16641750Y-32988192D01*
%TD*%
%TA.AperFunction,Conductor*%
%TO.N,GND*%
G36*
X21064045Y-1525512D02*
G01*
X21078846Y-1527817D01*
X21078849Y-1527817D01*
X21087718Y-1529198D01*
X21104887Y-1526953D01*
X21128827Y-1526120D01*
X21386758Y-1541722D01*
X21401862Y-1543556D01*
X21472636Y-1556526D01*
X21682867Y-1595052D01*
X21697629Y-1598690D01*
X21970396Y-1683687D01*
X21984615Y-1689081D01*
X22245128Y-1806328D01*
X22258597Y-1813397D01*
X22503083Y-1961194D01*
X22515605Y-1969837D01*
X22740495Y-2146028D01*
X22751883Y-2156118D01*
X22953882Y-2358117D01*
X22963972Y-2369505D01*
X23140163Y-2594395D01*
X23148806Y-2606917D01*
X23296603Y-2851403D01*
X23303672Y-2864872D01*
X23396056Y-3070141D01*
X23420918Y-3125382D01*
X23426313Y-3139604D01*
X23485135Y-3328369D01*
X23511309Y-3412365D01*
X23514948Y-3427133D01*
X23530194Y-3510325D01*
X23566444Y-3708138D01*
X23568278Y-3723242D01*
X23583443Y-3973941D01*
X23582186Y-4000651D01*
X23582183Y-4000871D01*
X23580802Y-4009742D01*
X23581966Y-4018644D01*
X23581966Y-4018647D01*
X23584924Y-4041263D01*
X23585988Y-4057601D01*
X23585988Y-44103104D01*
X23584488Y-44122488D01*
X23580802Y-44146162D01*
X23582442Y-44158702D01*
X23583047Y-44163329D01*
X23583880Y-44187271D01*
X23568278Y-44445202D01*
X23566444Y-44460306D01*
X23526979Y-44675665D01*
X23514950Y-44741305D01*
X23511310Y-44756073D01*
X23436205Y-44997095D01*
X23426314Y-45028836D01*
X23420919Y-45043059D01*
X23344684Y-45212448D01*
X23303674Y-45303568D01*
X23296603Y-45317041D01*
X23148806Y-45561527D01*
X23140163Y-45574049D01*
X22963972Y-45798939D01*
X22953882Y-45810327D01*
X22751883Y-46012326D01*
X22740495Y-46022416D01*
X22515605Y-46198607D01*
X22503083Y-46207250D01*
X22258597Y-46355047D01*
X22245128Y-46362116D01*
X21984618Y-46479362D01*
X21970396Y-46484757D01*
X21697629Y-46569754D01*
X21682867Y-46573392D01*
X21472636Y-46611918D01*
X21401862Y-46624888D01*
X21386758Y-46626722D01*
X21136059Y-46641887D01*
X21109349Y-46640630D01*
X21109129Y-46640627D01*
X21100258Y-46639246D01*
X21091356Y-46640410D01*
X21091353Y-46640410D01*
X21068737Y-46643368D01*
X21052399Y-46644432D01*
X4065318Y-46644432D01*
X4045933Y-46642932D01*
X4031132Y-46640627D01*
X4031129Y-46640627D01*
X4022260Y-46639246D01*
X4005091Y-46641491D01*
X3981151Y-46642324D01*
X3723220Y-46626722D01*
X3708116Y-46624888D01*
X3637342Y-46611918D01*
X3427111Y-46573392D01*
X3412349Y-46569754D01*
X3139582Y-46484757D01*
X3125360Y-46479362D01*
X2864850Y-46362116D01*
X2851381Y-46355047D01*
X2606895Y-46207250D01*
X2594373Y-46198607D01*
X2369483Y-46022416D01*
X2358095Y-46012326D01*
X2156096Y-45810327D01*
X2146006Y-45798939D01*
X1969815Y-45574049D01*
X1961172Y-45561527D01*
X1813375Y-45317041D01*
X1806304Y-45303568D01*
X1765295Y-45212448D01*
X1689059Y-45043059D01*
X1683664Y-45028836D01*
X1673773Y-44997095D01*
X1598668Y-44756073D01*
X1595028Y-44741305D01*
X1583000Y-44675665D01*
X1543534Y-44460306D01*
X1541700Y-44445202D01*
X1526535Y-44194503D01*
X1527792Y-44167793D01*
X1527795Y-44167573D01*
X1529176Y-44158702D01*
X1527537Y-44146162D01*
X1525054Y-44127181D01*
X1523990Y-44110843D01*
X1523990Y-43080301D01*
X2952679Y-43080301D01*
X2969228Y-43367315D01*
X2970053Y-43371520D01*
X2970054Y-43371528D01*
X3002000Y-43534353D01*
X3024576Y-43649427D01*
X3025963Y-43653477D01*
X3025964Y-43653482D01*
X3116311Y-43917362D01*
X3117700Y-43921418D01*
X3119627Y-43925249D01*
X3241614Y-44167793D01*
X3246875Y-44178254D01*
X3409711Y-44415182D01*
X3412598Y-44418355D01*
X3412599Y-44418356D01*
X3453319Y-44463107D01*
X3603196Y-44627820D01*
X3606491Y-44630575D01*
X3606492Y-44630576D01*
X3756593Y-44756079D01*
X3823749Y-44812230D01*
X4067288Y-44965003D01*
X4329308Y-45083309D01*
X4333427Y-45084529D01*
X4600847Y-45163743D01*
X4600852Y-45163744D01*
X4604960Y-45164961D01*
X4609194Y-45165609D01*
X4609199Y-45165610D01*
X4857801Y-45203651D01*
X4889143Y-45208447D01*
X5035475Y-45210746D01*
X5172307Y-45212896D01*
X5172313Y-45212896D01*
X5176598Y-45212963D01*
X5180850Y-45212448D01*
X5180858Y-45212448D01*
X5457746Y-45178940D01*
X5457751Y-45178939D01*
X5462007Y-45178424D01*
X5740087Y-45105471D01*
X6005694Y-44995453D01*
X6253912Y-44850406D01*
X6480149Y-44673014D01*
X6521275Y-44630576D01*
X6677234Y-44469638D01*
X6680217Y-44466560D01*
X6682750Y-44463112D01*
X6682754Y-44463107D01*
X6847877Y-44238318D01*
X6850415Y-44234863D01*
X6872329Y-44194503D01*
X6985544Y-43985987D01*
X6985545Y-43985985D01*
X6987594Y-43982211D01*
X7089215Y-43713280D01*
X7153397Y-43433045D01*
X7178953Y-43146692D01*
X7179417Y-43102432D01*
X7177908Y-43080301D01*
X17930677Y-43080301D01*
X17947226Y-43367315D01*
X17948051Y-43371520D01*
X17948052Y-43371528D01*
X17979998Y-43534353D01*
X18002574Y-43649427D01*
X18003961Y-43653477D01*
X18003962Y-43653482D01*
X18094309Y-43917362D01*
X18095698Y-43921418D01*
X18097625Y-43925249D01*
X18219612Y-44167793D01*
X18224873Y-44178254D01*
X18387709Y-44415182D01*
X18390596Y-44418355D01*
X18390597Y-44418356D01*
X18431317Y-44463107D01*
X18581194Y-44627820D01*
X18584489Y-44630575D01*
X18584490Y-44630576D01*
X18734591Y-44756079D01*
X18801747Y-44812230D01*
X19045286Y-44965003D01*
X19307306Y-45083309D01*
X19311425Y-45084529D01*
X19578845Y-45163743D01*
X19578850Y-45163744D01*
X19582958Y-45164961D01*
X19587192Y-45165609D01*
X19587197Y-45165610D01*
X19835799Y-45203651D01*
X19867141Y-45208447D01*
X20013473Y-45210746D01*
X20150305Y-45212896D01*
X20150311Y-45212896D01*
X20154596Y-45212963D01*
X20158848Y-45212448D01*
X20158856Y-45212448D01*
X20435744Y-45178940D01*
X20435749Y-45178939D01*
X20440005Y-45178424D01*
X20718085Y-45105471D01*
X20983692Y-44995453D01*
X21231910Y-44850406D01*
X21458147Y-44673014D01*
X21499273Y-44630576D01*
X21655232Y-44469638D01*
X21658215Y-44466560D01*
X21660748Y-44463112D01*
X21660752Y-44463107D01*
X21825875Y-44238318D01*
X21828413Y-44234863D01*
X21850327Y-44194503D01*
X21963542Y-43985987D01*
X21963543Y-43985985D01*
X21965592Y-43982211D01*
X22067213Y-43713280D01*
X22131395Y-43433045D01*
X22156951Y-43146692D01*
X22157415Y-43102432D01*
X22137861Y-42815607D01*
X22133324Y-42793696D01*
X22080431Y-42538287D01*
X22079562Y-42534090D01*
X21983595Y-42263089D01*
X21851738Y-42007620D01*
X21838476Y-41988749D01*
X21688892Y-41775914D01*
X21686429Y-41772409D01*
X21490728Y-41561810D01*
X21268256Y-41379719D01*
X21023130Y-41229505D01*
X21005036Y-41221562D01*
X20763818Y-41115675D01*
X20759886Y-41113949D01*
X20733951Y-41106561D01*
X20487522Y-41036364D01*
X20487523Y-41036364D01*
X20483394Y-41035188D01*
X20270692Y-41004917D01*
X20203024Y-40995286D01*
X20203022Y-40995286D01*
X20198772Y-40994681D01*
X20194483Y-40994659D01*
X20194476Y-40994658D01*
X19915571Y-40993197D01*
X19915564Y-40993197D01*
X19911285Y-40993175D01*
X19907041Y-40993734D01*
X19907037Y-40993734D01*
X19781648Y-41010242D01*
X19626254Y-41030700D01*
X19622114Y-41031833D01*
X19622112Y-41031833D01*
X19545299Y-41052847D01*
X19348952Y-41106561D01*
X19345004Y-41108245D01*
X19088464Y-41217669D01*
X19088460Y-41217671D01*
X19084512Y-41219355D01*
X18959948Y-41293905D01*
X18841509Y-41364789D01*
X18841505Y-41364792D01*
X18837827Y-41366993D01*
X18613460Y-41546745D01*
X18415565Y-41755283D01*
X18247802Y-41988749D01*
X18113276Y-42242824D01*
X18014477Y-42512805D01*
X17953233Y-42793696D01*
X17930677Y-43080301D01*
X7177908Y-43080301D01*
X7159863Y-42815607D01*
X7155326Y-42793696D01*
X7102433Y-42538287D01*
X7101564Y-42534090D01*
X7005597Y-42263089D01*
X6873740Y-42007620D01*
X6860478Y-41988749D01*
X6710894Y-41775914D01*
X6708431Y-41772409D01*
X6512730Y-41561810D01*
X6290258Y-41379719D01*
X6045132Y-41229505D01*
X6027038Y-41221562D01*
X5785820Y-41115675D01*
X5781888Y-41113949D01*
X5755953Y-41106561D01*
X5509524Y-41036364D01*
X5509525Y-41036364D01*
X5505396Y-41035188D01*
X5292694Y-41004917D01*
X5225026Y-40995286D01*
X5225024Y-40995286D01*
X5220774Y-40994681D01*
X5216485Y-40994659D01*
X5216478Y-40994658D01*
X4937573Y-40993197D01*
X4937566Y-40993197D01*
X4933287Y-40993175D01*
X4929043Y-40993734D01*
X4929039Y-40993734D01*
X4803650Y-41010242D01*
X4648256Y-41030700D01*
X4644116Y-41031833D01*
X4644114Y-41031833D01*
X4567301Y-41052847D01*
X4370954Y-41106561D01*
X4367006Y-41108245D01*
X4110466Y-41217669D01*
X4110462Y-41217671D01*
X4106514Y-41219355D01*
X3981950Y-41293905D01*
X3863511Y-41364789D01*
X3863507Y-41364792D01*
X3859829Y-41366993D01*
X3635462Y-41546745D01*
X3437567Y-41755283D01*
X3269804Y-41988749D01*
X3135278Y-42242824D01*
X3036479Y-42512805D01*
X2975235Y-42793696D01*
X2952679Y-43080301D01*
X1523990Y-43080301D01*
X1523990Y-32954887D01*
X2011240Y-32954887D01*
X2011537Y-32960040D01*
X2011537Y-32960043D01*
X2017000Y-33054782D01*
X2024099Y-33177907D01*
X2025236Y-33182953D01*
X2025237Y-33182959D01*
X2039912Y-33248075D01*
X2073211Y-33395831D01*
X2157255Y-33602808D01*
X2176805Y-33634710D01*
X2265268Y-33779069D01*
X2273976Y-33793280D01*
X2420239Y-33962130D01*
X2523947Y-34048230D01*
X2585204Y-34099086D01*
X2592115Y-34104824D01*
X2784989Y-34217530D01*
X2993681Y-34297222D01*
X2998749Y-34298253D01*
X2998752Y-34298254D01*
X3106006Y-34320075D01*
X3212586Y-34341759D01*
X3217761Y-34341949D01*
X3217763Y-34341949D01*
X3430662Y-34349756D01*
X3430666Y-34349756D01*
X3435826Y-34349945D01*
X3440946Y-34349289D01*
X3440948Y-34349289D01*
X3652277Y-34322217D01*
X3652278Y-34322217D01*
X3657405Y-34321560D01*
X3662355Y-34320075D01*
X3866418Y-34258853D01*
X3866423Y-34258851D01*
X3871373Y-34257366D01*
X4071983Y-34159088D01*
X4253849Y-34029365D01*
X4280937Y-34002372D01*
X4408424Y-33875329D01*
X4412085Y-33871681D01*
X4422954Y-33856556D01*
X4539424Y-33694469D01*
X4542442Y-33690269D01*
X4546134Y-33682800D01*
X4639125Y-33494645D01*
X4639126Y-33494643D01*
X4641419Y-33490003D01*
X4706359Y-33276261D01*
X4735518Y-33054782D01*
X4735632Y-33050129D01*
X4737063Y-32991557D01*
X4737063Y-32991553D01*
X4737145Y-32988192D01*
X4718841Y-32765553D01*
X4664420Y-32548894D01*
X4575343Y-32344032D01*
X4454003Y-32156469D01*
X4303659Y-31991243D01*
X4299608Y-31988044D01*
X4299604Y-31988040D01*
X4132403Y-31855992D01*
X4132399Y-31855990D01*
X4128348Y-31852790D01*
X4087042Y-31829988D01*
X4037073Y-31779556D01*
X4022301Y-31710113D01*
X4047417Y-31643708D01*
X4074769Y-31617101D01*
X4118592Y-31585842D01*
X4253849Y-31489365D01*
X4280937Y-31462372D01*
X4408424Y-31335329D01*
X4412085Y-31331681D01*
X4422954Y-31316556D01*
X4539424Y-31154469D01*
X4542442Y-31150269D01*
X4546134Y-31142800D01*
X4639125Y-30954645D01*
X4639126Y-30954643D01*
X4641419Y-30950003D01*
X4706359Y-30736261D01*
X4735518Y-30514782D01*
X4735632Y-30510129D01*
X4737063Y-30451557D01*
X4737063Y-30451553D01*
X4737145Y-30448192D01*
X4718841Y-30225553D01*
X4664420Y-30008894D01*
X4575343Y-29804032D01*
X4454003Y-29616469D01*
X4303659Y-29451243D01*
X4299608Y-29448044D01*
X4299604Y-29448040D01*
X4132403Y-29315992D01*
X4132399Y-29315990D01*
X4128348Y-29312790D01*
X4087042Y-29289988D01*
X4037073Y-29239556D01*
X4022301Y-29170113D01*
X4047417Y-29103708D01*
X4074769Y-29077101D01*
X4118592Y-29045842D01*
X4253849Y-28949365D01*
X4280937Y-28922372D01*
X4408424Y-28795329D01*
X4412085Y-28791681D01*
X4422954Y-28776556D01*
X4539424Y-28614469D01*
X4542442Y-28610269D01*
X4546134Y-28602800D01*
X4639125Y-28414645D01*
X4639126Y-28414643D01*
X4641419Y-28410003D01*
X4706359Y-28196261D01*
X4735518Y-27974782D01*
X4735632Y-27970129D01*
X4737063Y-27911557D01*
X4737063Y-27911553D01*
X4737145Y-27908192D01*
X4718841Y-27685553D01*
X4664420Y-27468894D01*
X4575343Y-27264032D01*
X4454003Y-27076469D01*
X4303659Y-26911243D01*
X4299608Y-26908044D01*
X4299604Y-26908040D01*
X4132403Y-26775992D01*
X4132399Y-26775990D01*
X4128348Y-26772790D01*
X4087042Y-26749988D01*
X4037073Y-26699556D01*
X4022301Y-26630113D01*
X4047417Y-26563708D01*
X4074769Y-26537101D01*
X4118592Y-26505842D01*
X4253849Y-26409365D01*
X4280937Y-26382372D01*
X4408424Y-26255329D01*
X4412085Y-26251681D01*
X4422954Y-26236556D01*
X4539424Y-26074469D01*
X4542442Y-26070269D01*
X4546134Y-26062800D01*
X4639125Y-25874645D01*
X4639126Y-25874643D01*
X4641419Y-25870003D01*
X4706359Y-25656261D01*
X4735518Y-25434782D01*
X4735632Y-25430129D01*
X4737063Y-25371557D01*
X4737063Y-25371553D01*
X4737145Y-25368192D01*
X4734749Y-25339051D01*
X7355360Y-25339051D01*
X7368685Y-25542343D01*
X7418833Y-25739802D01*
X7504126Y-25924816D01*
X7621707Y-26091189D01*
X7767638Y-26233349D01*
X7772434Y-26236554D01*
X7772437Y-26236556D01*
X7800533Y-26255329D01*
X7937031Y-26346534D01*
X7942334Y-26348812D01*
X7942337Y-26348814D01*
X8083273Y-26409365D01*
X8124215Y-26426955D01*
X8197045Y-26443435D01*
X8317283Y-26470642D01*
X8317288Y-26470643D01*
X8322920Y-26471917D01*
X8328691Y-26472144D01*
X8328693Y-26472144D01*
X8391698Y-26474619D01*
X8526491Y-26479915D01*
X8728111Y-26450682D01*
X8733575Y-26448827D01*
X8733580Y-26448826D01*
X8915555Y-26387054D01*
X8915560Y-26387052D01*
X8921027Y-26385196D01*
X9098779Y-26285650D01*
X9255414Y-26155378D01*
X9305450Y-26095216D01*
X9345449Y-26047123D01*
X9404387Y-26007539D01*
X9442323Y-26001692D01*
X11279263Y-26001692D01*
X11347384Y-26021694D01*
X11386696Y-26061857D01*
X11454976Y-26173280D01*
X11601239Y-26342130D01*
X11704947Y-26428230D01*
X11766204Y-26479086D01*
X11773115Y-26484824D01*
X11843584Y-26526003D01*
X11846434Y-26527668D01*
X11895158Y-26579306D01*
X11908229Y-26649089D01*
X11881498Y-26714861D01*
X11841044Y-26748219D01*
X11828596Y-26754699D01*
X11824463Y-26757802D01*
X11824460Y-26757804D01*
X11715438Y-26839660D01*
X11649954Y-26888827D01*
X11646382Y-26892565D01*
X11519832Y-27024992D01*
X11495618Y-27050330D01*
X11369732Y-27234872D01*
X11275677Y-27437497D01*
X11215978Y-27652762D01*
X11192240Y-27874887D01*
X11192537Y-27880040D01*
X11192537Y-27880043D01*
X11198000Y-27974782D01*
X11205099Y-28097907D01*
X11206236Y-28102953D01*
X11206237Y-28102959D01*
X11220912Y-28168075D01*
X11254211Y-28315831D01*
X11338255Y-28522808D01*
X11357805Y-28554710D01*
X11446268Y-28699069D01*
X11454976Y-28713280D01*
X11601239Y-28882130D01*
X11704947Y-28968230D01*
X11766204Y-29019086D01*
X11773115Y-29024824D01*
X11843584Y-29066003D01*
X11846434Y-29067668D01*
X11895158Y-29119306D01*
X11908229Y-29189089D01*
X11881498Y-29254861D01*
X11841044Y-29288219D01*
X11828596Y-29294699D01*
X11824463Y-29297802D01*
X11824460Y-29297804D01*
X11715438Y-29379660D01*
X11649954Y-29428827D01*
X11646382Y-29432565D01*
X11519832Y-29564992D01*
X11495618Y-29590330D01*
X11369732Y-29774872D01*
X11275677Y-29977497D01*
X11215978Y-30192762D01*
X11192240Y-30414887D01*
X11192537Y-30420040D01*
X11192537Y-30420043D01*
X11198000Y-30514782D01*
X11205099Y-30637907D01*
X11206236Y-30642953D01*
X11206237Y-30642959D01*
X11220912Y-30708075D01*
X11254211Y-30855831D01*
X11338255Y-31062808D01*
X11357805Y-31094710D01*
X11446268Y-31239069D01*
X11454976Y-31253280D01*
X11601239Y-31422130D01*
X11704947Y-31508230D01*
X11766204Y-31559086D01*
X11773115Y-31564824D01*
X11843584Y-31606003D01*
X11846434Y-31607668D01*
X11895158Y-31659306D01*
X11908229Y-31729089D01*
X11881498Y-31794861D01*
X11841044Y-31828219D01*
X11828596Y-31834699D01*
X11824463Y-31837802D01*
X11824460Y-31837804D01*
X11715438Y-31919660D01*
X11649954Y-31968827D01*
X11646382Y-31972565D01*
X11519832Y-32104992D01*
X11495618Y-32130330D01*
X11369732Y-32314872D01*
X11275677Y-32517497D01*
X11215978Y-32732762D01*
X11192240Y-32954887D01*
X11192537Y-32960040D01*
X11192537Y-32960043D01*
X11198000Y-33054782D01*
X11205099Y-33177907D01*
X11206236Y-33182953D01*
X11206237Y-33182959D01*
X11220912Y-33248075D01*
X11254211Y-33395831D01*
X11338255Y-33602808D01*
X11357805Y-33634710D01*
X11446268Y-33779069D01*
X11454976Y-33793280D01*
X11601239Y-33962130D01*
X11704947Y-34048230D01*
X11766204Y-34099086D01*
X11773115Y-34104824D01*
X11965989Y-34217530D01*
X12174681Y-34297222D01*
X12179749Y-34298253D01*
X12179752Y-34298254D01*
X12287006Y-34320075D01*
X12393586Y-34341759D01*
X12398761Y-34341949D01*
X12398763Y-34341949D01*
X12611662Y-34349756D01*
X12611666Y-34349756D01*
X12616826Y-34349945D01*
X12621946Y-34349289D01*
X12621948Y-34349289D01*
X12833277Y-34322217D01*
X12833278Y-34322217D01*
X12838405Y-34321560D01*
X12843355Y-34320075D01*
X13047418Y-34258853D01*
X13047423Y-34258851D01*
X13052373Y-34257366D01*
X13252983Y-34159088D01*
X13434849Y-34029365D01*
X13461937Y-34002372D01*
X13589424Y-33875329D01*
X13593085Y-33871681D01*
X13603954Y-33856556D01*
X13720424Y-33694469D01*
X13723442Y-33690269D01*
X13725735Y-33685629D01*
X13727435Y-33682800D01*
X13779663Y-33634710D01*
X13835440Y-33621692D01*
X15666736Y-33621692D01*
X15734857Y-33641694D01*
X15769632Y-33674971D01*
X15791895Y-33706472D01*
X15795229Y-33711189D01*
X15941160Y-33853349D01*
X15945956Y-33856554D01*
X15945959Y-33856556D01*
X15974055Y-33875329D01*
X16110553Y-33966534D01*
X16115856Y-33968812D01*
X16115859Y-33968814D01*
X16256795Y-34029365D01*
X16297737Y-34046955D01*
X16370567Y-34063435D01*
X16490805Y-34090642D01*
X16490810Y-34090643D01*
X16496442Y-34091917D01*
X16502213Y-34092144D01*
X16502215Y-34092144D01*
X16565220Y-34094619D01*
X16700013Y-34099915D01*
X16901633Y-34070682D01*
X16907097Y-34068827D01*
X16907102Y-34068826D01*
X17089077Y-34007054D01*
X17089082Y-34007052D01*
X17094549Y-34005196D01*
X17272301Y-33905650D01*
X17428936Y-33775378D01*
X17559208Y-33618743D01*
X17658754Y-33440991D01*
X17660610Y-33435524D01*
X17660612Y-33435519D01*
X17722384Y-33253544D01*
X17722385Y-33253539D01*
X17724240Y-33248075D01*
X17753473Y-33046455D01*
X17754999Y-32988192D01*
X17751939Y-32954887D01*
X20373240Y-32954887D01*
X20373537Y-32960040D01*
X20373537Y-32960043D01*
X20379000Y-33054782D01*
X20386099Y-33177907D01*
X20387236Y-33182953D01*
X20387237Y-33182959D01*
X20401912Y-33248075D01*
X20435211Y-33395831D01*
X20519255Y-33602808D01*
X20538805Y-33634710D01*
X20627268Y-33779069D01*
X20635976Y-33793280D01*
X20782239Y-33962130D01*
X20885947Y-34048230D01*
X20947204Y-34099086D01*
X20954115Y-34104824D01*
X21146989Y-34217530D01*
X21355681Y-34297222D01*
X21360749Y-34298253D01*
X21360752Y-34298254D01*
X21468006Y-34320075D01*
X21574586Y-34341759D01*
X21579761Y-34341949D01*
X21579763Y-34341949D01*
X21792662Y-34349756D01*
X21792666Y-34349756D01*
X21797826Y-34349945D01*
X21802946Y-34349289D01*
X21802948Y-34349289D01*
X22014277Y-34322217D01*
X22014278Y-34322217D01*
X22019405Y-34321560D01*
X22024355Y-34320075D01*
X22228418Y-34258853D01*
X22228423Y-34258851D01*
X22233373Y-34257366D01*
X22433983Y-34159088D01*
X22615849Y-34029365D01*
X22642937Y-34002372D01*
X22770424Y-33875329D01*
X22774085Y-33871681D01*
X22784954Y-33856556D01*
X22901424Y-33694469D01*
X22904442Y-33690269D01*
X22908134Y-33682800D01*
X23001125Y-33494645D01*
X23001126Y-33494643D01*
X23003419Y-33490003D01*
X23068359Y-33276261D01*
X23097518Y-33054782D01*
X23097632Y-33050129D01*
X23099063Y-32991557D01*
X23099063Y-32991553D01*
X23099145Y-32988192D01*
X23080841Y-32765553D01*
X23026420Y-32548894D01*
X22937343Y-32344032D01*
X22816003Y-32156469D01*
X22665659Y-31991243D01*
X22661608Y-31988044D01*
X22661604Y-31988040D01*
X22494403Y-31855992D01*
X22494399Y-31855990D01*
X22490348Y-31852790D01*
X22449042Y-31829988D01*
X22399073Y-31779556D01*
X22384301Y-31710113D01*
X22409417Y-31643708D01*
X22436769Y-31617101D01*
X22480592Y-31585842D01*
X22615849Y-31489365D01*
X22642937Y-31462372D01*
X22770424Y-31335329D01*
X22774085Y-31331681D01*
X22784954Y-31316556D01*
X22901424Y-31154469D01*
X22904442Y-31150269D01*
X22908134Y-31142800D01*
X23001125Y-30954645D01*
X23001126Y-30954643D01*
X23003419Y-30950003D01*
X23068359Y-30736261D01*
X23097518Y-30514782D01*
X23097632Y-30510129D01*
X23099063Y-30451557D01*
X23099063Y-30451553D01*
X23099145Y-30448192D01*
X23080841Y-30225553D01*
X23026420Y-30008894D01*
X22937343Y-29804032D01*
X22816003Y-29616469D01*
X22665659Y-29451243D01*
X22661608Y-29448044D01*
X22661604Y-29448040D01*
X22494403Y-29315992D01*
X22494399Y-29315990D01*
X22490348Y-29312790D01*
X22449042Y-29289988D01*
X22399073Y-29239556D01*
X22384301Y-29170113D01*
X22409417Y-29103708D01*
X22436769Y-29077101D01*
X22480592Y-29045842D01*
X22615849Y-28949365D01*
X22642937Y-28922372D01*
X22770424Y-28795329D01*
X22774085Y-28791681D01*
X22784954Y-28776556D01*
X22901424Y-28614469D01*
X22904442Y-28610269D01*
X22908134Y-28602800D01*
X23001125Y-28414645D01*
X23001126Y-28414643D01*
X23003419Y-28410003D01*
X23068359Y-28196261D01*
X23097518Y-27974782D01*
X23097632Y-27970129D01*
X23099063Y-27911557D01*
X23099063Y-27911553D01*
X23099145Y-27908192D01*
X23080841Y-27685553D01*
X23026420Y-27468894D01*
X22937343Y-27264032D01*
X22816003Y-27076469D01*
X22665659Y-26911243D01*
X22661608Y-26908044D01*
X22661604Y-26908040D01*
X22494403Y-26775992D01*
X22494399Y-26775990D01*
X22490348Y-26772790D01*
X22449042Y-26749988D01*
X22399073Y-26699556D01*
X22384301Y-26630113D01*
X22409417Y-26563708D01*
X22436769Y-26537101D01*
X22480592Y-26505842D01*
X22615849Y-26409365D01*
X22642937Y-26382372D01*
X22770424Y-26255329D01*
X22774085Y-26251681D01*
X22784954Y-26236556D01*
X22901424Y-26074469D01*
X22904442Y-26070269D01*
X22908134Y-26062800D01*
X23001125Y-25874645D01*
X23001126Y-25874643D01*
X23003419Y-25870003D01*
X23068359Y-25656261D01*
X23097518Y-25434782D01*
X23097632Y-25430129D01*
X23099063Y-25371557D01*
X23099063Y-25371553D01*
X23099145Y-25368192D01*
X23080841Y-25145553D01*
X23026420Y-24928894D01*
X22937343Y-24724032D01*
X22816003Y-24536469D01*
X22665659Y-24371243D01*
X22661608Y-24368044D01*
X22661604Y-24368040D01*
X22494403Y-24235992D01*
X22494399Y-24235990D01*
X22490348Y-24232790D01*
X22449042Y-24209988D01*
X22399073Y-24159556D01*
X22384301Y-24090113D01*
X22409417Y-24023708D01*
X22436769Y-23997101D01*
X22480592Y-23965842D01*
X22615849Y-23869365D01*
X22642937Y-23842372D01*
X22770424Y-23715329D01*
X22774085Y-23711681D01*
X22784954Y-23696556D01*
X22901424Y-23534469D01*
X22904442Y-23530269D01*
X22908600Y-23521857D01*
X23001125Y-23334645D01*
X23001126Y-23334643D01*
X23003419Y-23330003D01*
X23068359Y-23116261D01*
X23097518Y-22894782D01*
X23099145Y-22828192D01*
X23080841Y-22605553D01*
X23026420Y-22388894D01*
X22937343Y-22184032D01*
X22816003Y-21996469D01*
X22665659Y-21831243D01*
X22661608Y-21828044D01*
X22661604Y-21828040D01*
X22494403Y-21695992D01*
X22494399Y-21695990D01*
X22490348Y-21692790D01*
X22449042Y-21669988D01*
X22399073Y-21619556D01*
X22384301Y-21550113D01*
X22409417Y-21483708D01*
X22436769Y-21457101D01*
X22480592Y-21425842D01*
X22615849Y-21329365D01*
X22774085Y-21171681D01*
X22833583Y-21088881D01*
X22901424Y-20994469D01*
X22904442Y-20990269D01*
X23003419Y-20790003D01*
X23068359Y-20576261D01*
X23097518Y-20354782D01*
X23099145Y-20288192D01*
X23080841Y-20065553D01*
X23026420Y-19848894D01*
X22937343Y-19644032D01*
X22816003Y-19456469D01*
X22665659Y-19291243D01*
X22661608Y-19288044D01*
X22661604Y-19288040D01*
X22494403Y-19155992D01*
X22494399Y-19155990D01*
X22490348Y-19152790D01*
X22449042Y-19129988D01*
X22399073Y-19079556D01*
X22384301Y-19010113D01*
X22409417Y-18943708D01*
X22436769Y-18917101D01*
X22480592Y-18885842D01*
X22615849Y-18789365D01*
X22642937Y-18762372D01*
X22770424Y-18635329D01*
X22774085Y-18631681D01*
X22784954Y-18616556D01*
X22901424Y-18454469D01*
X22904442Y-18450269D01*
X23003419Y-18250003D01*
X23068359Y-18036261D01*
X23097518Y-17814782D01*
X23099145Y-17748192D01*
X23080841Y-17525553D01*
X23026420Y-17308894D01*
X22937343Y-17104032D01*
X22861251Y-16986412D01*
X22818811Y-16920809D01*
X22818809Y-16920806D01*
X22816003Y-16916469D01*
X22665659Y-16751243D01*
X22661608Y-16748044D01*
X22661604Y-16748040D01*
X22494403Y-16615992D01*
X22494399Y-16615990D01*
X22490348Y-16612790D01*
X22449042Y-16589988D01*
X22399073Y-16539556D01*
X22384301Y-16470113D01*
X22409417Y-16403708D01*
X22436769Y-16377101D01*
X22480592Y-16345842D01*
X22615849Y-16249365D01*
X22774085Y-16091681D01*
X22833583Y-16008881D01*
X22901424Y-15914469D01*
X22904442Y-15910269D01*
X23003419Y-15710003D01*
X23068359Y-15496261D01*
X23097518Y-15274782D01*
X23099145Y-15208192D01*
X23080841Y-14985553D01*
X23026420Y-14768894D01*
X22937343Y-14564032D01*
X22816003Y-14376469D01*
X22665659Y-14211243D01*
X22661608Y-14208044D01*
X22661604Y-14208040D01*
X22494403Y-14075992D01*
X22494399Y-14075990D01*
X22490348Y-14072790D01*
X22294778Y-13964830D01*
X22289909Y-13963106D01*
X22289905Y-13963104D01*
X22089076Y-13891987D01*
X22089072Y-13891986D01*
X22084201Y-13890261D01*
X22079108Y-13889354D01*
X22079105Y-13889353D01*
X21869362Y-13851992D01*
X21869356Y-13851991D01*
X21864273Y-13851086D01*
X21790441Y-13850184D01*
X21646070Y-13848420D01*
X21646068Y-13848420D01*
X21640900Y-13848357D01*
X21420080Y-13882147D01*
X21207745Y-13951549D01*
X21009596Y-14054699D01*
X21005463Y-14057802D01*
X21005460Y-14057804D01*
X20835089Y-14185722D01*
X20830954Y-14188827D01*
X20676618Y-14350330D01*
X20550732Y-14534872D01*
X20456677Y-14737497D01*
X20396978Y-14952762D01*
X20373240Y-15174887D01*
X20373537Y-15180040D01*
X20373537Y-15180043D01*
X20379000Y-15274782D01*
X20386099Y-15397907D01*
X20387236Y-15402953D01*
X20387237Y-15402959D01*
X20407108Y-15491131D01*
X20435211Y-15615831D01*
X20519255Y-15822808D01*
X20635976Y-16013280D01*
X20782239Y-16182130D01*
X20954115Y-16324824D01*
X21024584Y-16366003D01*
X21027434Y-16367668D01*
X21076158Y-16419306D01*
X21089229Y-16489089D01*
X21062498Y-16554861D01*
X21022044Y-16588219D01*
X21009596Y-16594699D01*
X21005463Y-16597802D01*
X21005460Y-16597804D01*
X20881556Y-16690834D01*
X20830954Y-16728827D01*
X20676618Y-16890330D01*
X20673704Y-16894602D01*
X20673703Y-16894603D01*
X20641099Y-16942399D01*
X20550732Y-17074872D01*
X20456677Y-17277497D01*
X20396978Y-17492762D01*
X20373240Y-17714887D01*
X20373537Y-17720040D01*
X20373537Y-17720043D01*
X20379000Y-17814782D01*
X20386099Y-17937907D01*
X20387236Y-17942953D01*
X20387237Y-17942959D01*
X20407108Y-18031131D01*
X20435211Y-18155831D01*
X20519255Y-18362808D01*
X20521954Y-18367212D01*
X20627727Y-18539818D01*
X20635976Y-18553280D01*
X20782239Y-18722130D01*
X20885947Y-18808230D01*
X20947204Y-18859086D01*
X20954115Y-18864824D01*
X21024584Y-18906003D01*
X21027434Y-18907668D01*
X21076158Y-18959306D01*
X21089229Y-19029089D01*
X21062498Y-19094861D01*
X21022044Y-19128219D01*
X21009596Y-19134699D01*
X21005463Y-19137802D01*
X21005460Y-19137804D01*
X20981236Y-19155992D01*
X20830954Y-19268827D01*
X20676618Y-19430330D01*
X20673704Y-19434602D01*
X20673703Y-19434603D01*
X20661393Y-19452649D01*
X20550732Y-19614872D01*
X20456677Y-19817497D01*
X20396978Y-20032762D01*
X20373240Y-20254887D01*
X20373537Y-20260040D01*
X20373537Y-20260043D01*
X20379000Y-20354782D01*
X20386099Y-20477907D01*
X20387236Y-20482953D01*
X20387237Y-20482959D01*
X20400586Y-20542192D01*
X20435211Y-20695831D01*
X20519255Y-20902808D01*
X20635976Y-21093280D01*
X20782239Y-21262130D01*
X20954115Y-21404824D01*
X21024584Y-21446003D01*
X21027434Y-21447668D01*
X21076158Y-21499306D01*
X21089229Y-21569089D01*
X21062498Y-21634861D01*
X21022044Y-21668219D01*
X21009596Y-21674699D01*
X21005463Y-21677802D01*
X21005460Y-21677804D01*
X20896438Y-21759660D01*
X20830954Y-21808827D01*
X20827382Y-21812565D01*
X20700832Y-21944992D01*
X20676618Y-21970330D01*
X20673704Y-21974602D01*
X20673703Y-21974603D01*
X20661393Y-21992649D01*
X20550732Y-22154872D01*
X20456677Y-22357497D01*
X20396978Y-22572762D01*
X20373240Y-22794887D01*
X20373537Y-22800040D01*
X20373537Y-22800043D01*
X20379000Y-22894782D01*
X20386099Y-23017907D01*
X20387236Y-23022953D01*
X20387237Y-23022959D01*
X20400586Y-23082192D01*
X20435211Y-23235831D01*
X20519255Y-23442808D01*
X20521954Y-23447212D01*
X20633280Y-23628880D01*
X20635976Y-23633280D01*
X20782239Y-23802130D01*
X20885947Y-23888230D01*
X20947204Y-23939086D01*
X20954115Y-23944824D01*
X21024584Y-23986003D01*
X21027434Y-23987668D01*
X21076158Y-24039306D01*
X21089229Y-24109089D01*
X21062498Y-24174861D01*
X21022044Y-24208219D01*
X21009596Y-24214699D01*
X21005463Y-24217802D01*
X21005460Y-24217804D01*
X20896438Y-24299660D01*
X20830954Y-24348827D01*
X20827382Y-24352565D01*
X20700832Y-24484992D01*
X20676618Y-24510330D01*
X20550732Y-24694872D01*
X20456677Y-24897497D01*
X20396978Y-25112762D01*
X20373240Y-25334887D01*
X20373537Y-25340040D01*
X20373537Y-25340043D01*
X20379000Y-25434782D01*
X20386099Y-25557907D01*
X20387236Y-25562953D01*
X20387237Y-25562959D01*
X20401912Y-25628075D01*
X20435211Y-25775831D01*
X20519255Y-25982808D01*
X20534410Y-26007539D01*
X20633280Y-26168880D01*
X20635976Y-26173280D01*
X20782239Y-26342130D01*
X20885947Y-26428230D01*
X20947204Y-26479086D01*
X20954115Y-26484824D01*
X21024584Y-26526003D01*
X21027434Y-26527668D01*
X21076158Y-26579306D01*
X21089229Y-26649089D01*
X21062498Y-26714861D01*
X21022044Y-26748219D01*
X21009596Y-26754699D01*
X21005463Y-26757802D01*
X21005460Y-26757804D01*
X20896438Y-26839660D01*
X20830954Y-26888827D01*
X20827382Y-26892565D01*
X20700832Y-27024992D01*
X20676618Y-27050330D01*
X20550732Y-27234872D01*
X20456677Y-27437497D01*
X20396978Y-27652762D01*
X20373240Y-27874887D01*
X20373537Y-27880040D01*
X20373537Y-27880043D01*
X20379000Y-27974782D01*
X20386099Y-28097907D01*
X20387236Y-28102953D01*
X20387237Y-28102959D01*
X20401912Y-28168075D01*
X20435211Y-28315831D01*
X20519255Y-28522808D01*
X20538805Y-28554710D01*
X20627268Y-28699069D01*
X20635976Y-28713280D01*
X20782239Y-28882130D01*
X20885947Y-28968230D01*
X20947204Y-29019086D01*
X20954115Y-29024824D01*
X21024584Y-29066003D01*
X21027434Y-29067668D01*
X21076158Y-29119306D01*
X21089229Y-29189089D01*
X21062498Y-29254861D01*
X21022044Y-29288219D01*
X21009596Y-29294699D01*
X21005463Y-29297802D01*
X21005460Y-29297804D01*
X20896438Y-29379660D01*
X20830954Y-29428827D01*
X20827382Y-29432565D01*
X20700832Y-29564992D01*
X20676618Y-29590330D01*
X20550732Y-29774872D01*
X20456677Y-29977497D01*
X20396978Y-30192762D01*
X20373240Y-30414887D01*
X20373537Y-30420040D01*
X20373537Y-30420043D01*
X20379000Y-30514782D01*
X20386099Y-30637907D01*
X20387236Y-30642953D01*
X20387237Y-30642959D01*
X20401912Y-30708075D01*
X20435211Y-30855831D01*
X20519255Y-31062808D01*
X20538805Y-31094710D01*
X20627268Y-31239069D01*
X20635976Y-31253280D01*
X20782239Y-31422130D01*
X20885947Y-31508230D01*
X20947204Y-31559086D01*
X20954115Y-31564824D01*
X21024584Y-31606003D01*
X21027434Y-31607668D01*
X21076158Y-31659306D01*
X21089229Y-31729089D01*
X21062498Y-31794861D01*
X21022044Y-31828219D01*
X21009596Y-31834699D01*
X21005463Y-31837802D01*
X21005460Y-31837804D01*
X20896438Y-31919660D01*
X20830954Y-31968827D01*
X20827382Y-31972565D01*
X20700832Y-32104992D01*
X20676618Y-32130330D01*
X20550732Y-32314872D01*
X20456677Y-32517497D01*
X20396978Y-32732762D01*
X20373240Y-32954887D01*
X17751939Y-32954887D01*
X17736358Y-32785318D01*
X17722984Y-32737899D01*
X17682625Y-32594798D01*
X17682624Y-32594796D01*
X17681057Y-32589239D01*
X17661162Y-32548894D01*
X17593506Y-32411702D01*
X17590951Y-32406521D01*
X17469055Y-32243283D01*
X17351486Y-32134603D01*
X17323693Y-32108911D01*
X17323690Y-32108909D01*
X17319453Y-32104992D01*
X17273425Y-32075951D01*
X17152038Y-31999361D01*
X17152033Y-31999359D01*
X17147154Y-31996280D01*
X16957930Y-31920787D01*
X16758116Y-31881041D01*
X16752342Y-31880965D01*
X16752338Y-31880965D01*
X16649202Y-31879616D01*
X16554405Y-31878375D01*
X16548708Y-31879354D01*
X16548707Y-31879354D01*
X16359317Y-31911897D01*
X16353620Y-31912876D01*
X16162484Y-31983390D01*
X15987399Y-32087555D01*
X15834228Y-32221882D01*
X15830656Y-32226413D01*
X15767364Y-32306698D01*
X15709482Y-32347811D01*
X15668414Y-32354692D01*
X13831794Y-32354692D01*
X13763673Y-32334690D01*
X13726002Y-32297132D01*
X13637811Y-32160809D01*
X13637809Y-32160806D01*
X13635003Y-32156469D01*
X13484659Y-31991243D01*
X13480608Y-31988044D01*
X13480604Y-31988040D01*
X13313403Y-31855992D01*
X13313399Y-31855990D01*
X13309348Y-31852790D01*
X13268042Y-31829988D01*
X13218073Y-31779556D01*
X13203301Y-31710113D01*
X13228417Y-31643708D01*
X13255769Y-31617101D01*
X13299592Y-31585842D01*
X13434849Y-31489365D01*
X13461937Y-31462372D01*
X13589424Y-31335329D01*
X13593085Y-31331681D01*
X13603954Y-31316556D01*
X13720424Y-31154469D01*
X13723442Y-31150269D01*
X13725735Y-31145629D01*
X13727435Y-31142800D01*
X13779663Y-31094710D01*
X13835440Y-31081692D01*
X15666736Y-31081692D01*
X15734857Y-31101694D01*
X15769632Y-31134971D01*
X15791895Y-31166472D01*
X15795229Y-31171189D01*
X15941160Y-31313349D01*
X15945956Y-31316554D01*
X15945959Y-31316556D01*
X15974055Y-31335329D01*
X16110553Y-31426534D01*
X16115856Y-31428812D01*
X16115859Y-31428814D01*
X16256795Y-31489365D01*
X16297737Y-31506955D01*
X16370567Y-31523435D01*
X16490805Y-31550642D01*
X16490810Y-31550643D01*
X16496442Y-31551917D01*
X16502213Y-31552144D01*
X16502215Y-31552144D01*
X16565220Y-31554619D01*
X16700013Y-31559915D01*
X16901633Y-31530682D01*
X16907097Y-31528827D01*
X16907102Y-31528826D01*
X17089077Y-31467054D01*
X17089082Y-31467052D01*
X17094549Y-31465196D01*
X17272301Y-31365650D01*
X17428936Y-31235378D01*
X17559208Y-31078743D01*
X17658754Y-30900991D01*
X17660610Y-30895524D01*
X17660612Y-30895519D01*
X17722384Y-30713544D01*
X17722385Y-30713539D01*
X17724240Y-30708075D01*
X17753473Y-30506455D01*
X17754999Y-30448192D01*
X17736358Y-30245318D01*
X17722984Y-30197899D01*
X17682625Y-30054798D01*
X17682624Y-30054796D01*
X17681057Y-30049239D01*
X17661162Y-30008894D01*
X17593506Y-29871702D01*
X17590951Y-29866521D01*
X17469055Y-29703283D01*
X17351486Y-29594603D01*
X17323693Y-29568911D01*
X17323690Y-29568909D01*
X17319453Y-29564992D01*
X17273425Y-29535951D01*
X17152038Y-29459361D01*
X17152033Y-29459359D01*
X17147154Y-29456280D01*
X16957930Y-29380787D01*
X16758116Y-29341041D01*
X16752342Y-29340965D01*
X16752338Y-29340965D01*
X16649202Y-29339616D01*
X16554405Y-29338375D01*
X16548708Y-29339354D01*
X16548707Y-29339354D01*
X16359317Y-29371897D01*
X16353620Y-29372876D01*
X16162484Y-29443390D01*
X15987399Y-29547555D01*
X15834228Y-29681882D01*
X15830656Y-29686413D01*
X15767364Y-29766698D01*
X15709482Y-29807811D01*
X15668414Y-29814692D01*
X13831794Y-29814692D01*
X13763673Y-29794690D01*
X13726002Y-29757132D01*
X13637811Y-29620809D01*
X13637809Y-29620806D01*
X13635003Y-29616469D01*
X13484659Y-29451243D01*
X13480608Y-29448044D01*
X13480604Y-29448040D01*
X13313403Y-29315992D01*
X13313399Y-29315990D01*
X13309348Y-29312790D01*
X13268042Y-29289988D01*
X13218073Y-29239556D01*
X13203301Y-29170113D01*
X13228417Y-29103708D01*
X13255769Y-29077101D01*
X13299592Y-29045842D01*
X13434849Y-28949365D01*
X13461937Y-28922372D01*
X13589424Y-28795329D01*
X13593085Y-28791681D01*
X13603954Y-28776556D01*
X13720424Y-28614469D01*
X13723442Y-28610269D01*
X13725735Y-28605629D01*
X13727435Y-28602800D01*
X13779663Y-28554710D01*
X13835440Y-28541692D01*
X15666736Y-28541692D01*
X15734857Y-28561694D01*
X15769632Y-28594971D01*
X15791895Y-28626472D01*
X15795229Y-28631189D01*
X15941160Y-28773349D01*
X15945956Y-28776554D01*
X15945959Y-28776556D01*
X15974055Y-28795329D01*
X16110553Y-28886534D01*
X16115856Y-28888812D01*
X16115859Y-28888814D01*
X16256795Y-28949365D01*
X16297737Y-28966955D01*
X16370567Y-28983435D01*
X16490805Y-29010642D01*
X16490810Y-29010643D01*
X16496442Y-29011917D01*
X16502213Y-29012144D01*
X16502215Y-29012144D01*
X16565220Y-29014619D01*
X16700013Y-29019915D01*
X16901633Y-28990682D01*
X16907097Y-28988827D01*
X16907102Y-28988826D01*
X17089077Y-28927054D01*
X17089082Y-28927052D01*
X17094549Y-28925196D01*
X17272301Y-28825650D01*
X17428936Y-28695378D01*
X17559208Y-28538743D01*
X17658754Y-28360991D01*
X17660610Y-28355524D01*
X17660612Y-28355519D01*
X17722384Y-28173544D01*
X17722385Y-28173539D01*
X17724240Y-28168075D01*
X17753473Y-27966455D01*
X17754999Y-27908192D01*
X17736358Y-27705318D01*
X17722984Y-27657899D01*
X17682625Y-27514798D01*
X17682624Y-27514796D01*
X17681057Y-27509239D01*
X17661162Y-27468894D01*
X17593506Y-27331702D01*
X17590951Y-27326521D01*
X17469055Y-27163283D01*
X17351486Y-27054603D01*
X17323693Y-27028911D01*
X17323690Y-27028909D01*
X17319453Y-27024992D01*
X17273425Y-26995951D01*
X17152038Y-26919361D01*
X17152033Y-26919359D01*
X17147154Y-26916280D01*
X16957930Y-26840787D01*
X16758116Y-26801041D01*
X16752342Y-26800965D01*
X16752338Y-26800965D01*
X16649202Y-26799616D01*
X16554405Y-26798375D01*
X16548708Y-26799354D01*
X16548707Y-26799354D01*
X16359317Y-26831897D01*
X16353620Y-26832876D01*
X16162484Y-26903390D01*
X15987399Y-27007555D01*
X15834228Y-27141882D01*
X15830656Y-27146413D01*
X15767364Y-27226698D01*
X15709482Y-27267811D01*
X15668414Y-27274692D01*
X13831794Y-27274692D01*
X13763673Y-27254690D01*
X13726002Y-27217132D01*
X13637811Y-27080809D01*
X13637809Y-27080806D01*
X13635003Y-27076469D01*
X13484659Y-26911243D01*
X13480608Y-26908044D01*
X13480604Y-26908040D01*
X13313403Y-26775992D01*
X13313399Y-26775990D01*
X13309348Y-26772790D01*
X13268042Y-26749988D01*
X13218073Y-26699556D01*
X13203301Y-26630113D01*
X13228417Y-26563708D01*
X13255769Y-26537101D01*
X13299592Y-26505842D01*
X13434849Y-26409365D01*
X13461937Y-26382372D01*
X13589424Y-26255329D01*
X13593085Y-26251681D01*
X13603954Y-26236556D01*
X13720424Y-26074469D01*
X13723442Y-26070269D01*
X13725735Y-26065629D01*
X13727435Y-26062800D01*
X13779663Y-26014710D01*
X13835440Y-26001692D01*
X15666736Y-26001692D01*
X15734857Y-26021694D01*
X15769632Y-26054971D01*
X15791895Y-26086472D01*
X15795229Y-26091189D01*
X15941160Y-26233349D01*
X15945956Y-26236554D01*
X15945959Y-26236556D01*
X15974055Y-26255329D01*
X16110553Y-26346534D01*
X16115856Y-26348812D01*
X16115859Y-26348814D01*
X16256795Y-26409365D01*
X16297737Y-26426955D01*
X16370567Y-26443435D01*
X16490805Y-26470642D01*
X16490810Y-26470643D01*
X16496442Y-26471917D01*
X16502213Y-26472144D01*
X16502215Y-26472144D01*
X16565220Y-26474619D01*
X16700013Y-26479915D01*
X16901633Y-26450682D01*
X16907097Y-26448827D01*
X16907102Y-26448826D01*
X17089077Y-26387054D01*
X17089082Y-26387052D01*
X17094549Y-26385196D01*
X17272301Y-26285650D01*
X17428936Y-26155378D01*
X17559208Y-25998743D01*
X17658754Y-25820991D01*
X17660610Y-25815524D01*
X17660612Y-25815519D01*
X17722384Y-25633544D01*
X17722385Y-25633539D01*
X17724240Y-25628075D01*
X17753473Y-25426455D01*
X17754999Y-25368192D01*
X17736358Y-25165318D01*
X17722984Y-25117899D01*
X17682625Y-24974798D01*
X17682624Y-24974796D01*
X17681057Y-24969239D01*
X17670430Y-24947688D01*
X17593506Y-24791702D01*
X17590951Y-24786521D01*
X17572546Y-24761873D01*
X17472508Y-24627907D01*
X17472508Y-24627906D01*
X17469055Y-24623283D01*
X17351486Y-24514603D01*
X17323693Y-24488911D01*
X17323690Y-24488909D01*
X17319453Y-24484992D01*
X17273425Y-24455951D01*
X17152038Y-24379361D01*
X17152033Y-24379359D01*
X17147154Y-24376280D01*
X16957930Y-24300787D01*
X16758116Y-24261041D01*
X16752342Y-24260965D01*
X16752338Y-24260965D01*
X16649202Y-24259616D01*
X16554405Y-24258375D01*
X16548708Y-24259354D01*
X16548707Y-24259354D01*
X16359317Y-24291897D01*
X16353620Y-24292876D01*
X16162484Y-24363390D01*
X15987399Y-24467555D01*
X15834228Y-24601882D01*
X15830657Y-24606412D01*
X15830656Y-24606413D01*
X15767364Y-24686698D01*
X15709482Y-24727811D01*
X15668414Y-24734692D01*
X13831794Y-24734692D01*
X13763673Y-24714690D01*
X13726002Y-24677132D01*
X13637811Y-24540809D01*
X13637809Y-24540806D01*
X13635003Y-24536469D01*
X13484659Y-24371243D01*
X13480608Y-24368044D01*
X13480604Y-24368040D01*
X13313403Y-24235992D01*
X13313399Y-24235990D01*
X13309348Y-24232790D01*
X13268042Y-24209988D01*
X13218073Y-24159556D01*
X13203301Y-24090113D01*
X13228417Y-24023708D01*
X13255769Y-23997101D01*
X13299592Y-23965842D01*
X13434849Y-23869365D01*
X13461937Y-23842372D01*
X13589424Y-23715329D01*
X13593085Y-23711681D01*
X13603954Y-23696556D01*
X13720424Y-23534469D01*
X13723442Y-23530269D01*
X13727600Y-23521857D01*
X13820125Y-23334645D01*
X13820126Y-23334643D01*
X13822419Y-23330003D01*
X13887359Y-23116261D01*
X13916518Y-22894782D01*
X13918145Y-22828192D01*
X13899841Y-22605553D01*
X13845420Y-22388894D01*
X13756343Y-22184032D01*
X13635003Y-21996469D01*
X13484659Y-21831243D01*
X13480608Y-21828044D01*
X13480604Y-21828040D01*
X13313403Y-21695992D01*
X13313399Y-21695990D01*
X13309348Y-21692790D01*
X13267558Y-21669721D01*
X13217587Y-21619289D01*
X13202815Y-21549846D01*
X13227931Y-21483440D01*
X13255283Y-21456833D01*
X13430317Y-21331984D01*
X13438189Y-21325331D01*
X13589041Y-21175004D01*
X13595719Y-21167157D01*
X13719992Y-20994212D01*
X13725302Y-20985375D01*
X13819659Y-20794459D01*
X13823458Y-20784864D01*
X13885366Y-20581102D01*
X13887544Y-20571029D01*
X13888975Y-20560154D01*
X13886764Y-20545970D01*
X13873606Y-20542192D01*
X11238214Y-20542192D01*
X11224683Y-20546165D01*
X11223246Y-20556158D01*
X11253554Y-20690638D01*
X11256634Y-20700467D01*
X11336759Y-20897795D01*
X11341402Y-20906986D01*
X11452683Y-21088580D01*
X11458766Y-21096891D01*
X11598202Y-21257859D01*
X11605569Y-21265075D01*
X11769423Y-21401108D01*
X11777870Y-21407023D01*
X11846958Y-21447395D01*
X11895682Y-21499034D01*
X11908753Y-21568817D01*
X11882022Y-21634588D01*
X11841573Y-21667944D01*
X11828596Y-21674699D01*
X11824463Y-21677802D01*
X11824460Y-21677804D01*
X11715438Y-21759660D01*
X11649954Y-21808827D01*
X11646382Y-21812565D01*
X11519832Y-21944992D01*
X11495618Y-21970330D01*
X11492704Y-21974602D01*
X11492703Y-21974603D01*
X11380084Y-22139696D01*
X11325173Y-22184699D01*
X11275996Y-22194692D01*
X9441891Y-22194692D01*
X9373770Y-22174690D01*
X9340933Y-22144081D01*
X9298986Y-22087907D01*
X9298985Y-22087906D01*
X9295533Y-22083283D01*
X9201618Y-21996469D01*
X9150171Y-21948911D01*
X9150168Y-21948909D01*
X9145931Y-21944992D01*
X9099903Y-21915951D01*
X8978516Y-21839361D01*
X8978511Y-21839359D01*
X8973632Y-21836280D01*
X8784408Y-21760787D01*
X8584594Y-21721041D01*
X8578820Y-21720965D01*
X8578816Y-21720965D01*
X8475680Y-21719616D01*
X8380883Y-21718375D01*
X8375186Y-21719354D01*
X8375185Y-21719354D01*
X8185795Y-21751897D01*
X8180098Y-21752876D01*
X7988962Y-21823390D01*
X7813877Y-21927555D01*
X7660706Y-22061882D01*
X7657139Y-22066407D01*
X7657134Y-22066412D01*
X7599362Y-22139696D01*
X7534579Y-22221873D01*
X7439720Y-22402170D01*
X7379306Y-22596735D01*
X7355360Y-22799051D01*
X7368685Y-23002343D01*
X7418833Y-23199802D01*
X7504126Y-23384816D01*
X7621707Y-23551189D01*
X7767638Y-23693349D01*
X7772434Y-23696554D01*
X7772437Y-23696556D01*
X7800533Y-23715329D01*
X7937031Y-23806534D01*
X7942334Y-23808812D01*
X7942337Y-23808814D01*
X8083273Y-23869365D01*
X8124215Y-23886955D01*
X8197045Y-23903435D01*
X8317283Y-23930642D01*
X8317288Y-23930643D01*
X8322920Y-23931917D01*
X8328691Y-23932144D01*
X8328693Y-23932144D01*
X8391698Y-23934619D01*
X8526491Y-23939915D01*
X8728111Y-23910682D01*
X8733575Y-23908827D01*
X8733580Y-23908826D01*
X8915555Y-23847054D01*
X8915560Y-23847052D01*
X8921027Y-23845196D01*
X9098779Y-23745650D01*
X9255414Y-23615378D01*
X9305450Y-23555216D01*
X9345449Y-23507123D01*
X9404387Y-23467539D01*
X9442323Y-23461692D01*
X11279263Y-23461692D01*
X11347384Y-23481694D01*
X11386696Y-23521857D01*
X11454976Y-23633280D01*
X11601239Y-23802130D01*
X11704947Y-23888230D01*
X11766204Y-23939086D01*
X11773115Y-23944824D01*
X11843584Y-23986003D01*
X11846434Y-23987668D01*
X11895158Y-24039306D01*
X11908229Y-24109089D01*
X11881498Y-24174861D01*
X11841044Y-24208219D01*
X11828596Y-24214699D01*
X11824463Y-24217802D01*
X11824460Y-24217804D01*
X11715438Y-24299660D01*
X11649954Y-24348827D01*
X11646382Y-24352565D01*
X11519832Y-24484992D01*
X11495618Y-24510330D01*
X11492704Y-24514602D01*
X11492703Y-24514603D01*
X11380084Y-24679696D01*
X11325173Y-24724699D01*
X11275996Y-24734692D01*
X9441891Y-24734692D01*
X9373770Y-24714690D01*
X9340933Y-24684081D01*
X9298986Y-24627907D01*
X9298985Y-24627906D01*
X9295533Y-24623283D01*
X9177964Y-24514603D01*
X9150171Y-24488911D01*
X9150168Y-24488909D01*
X9145931Y-24484992D01*
X9099903Y-24455951D01*
X8978516Y-24379361D01*
X8978511Y-24379359D01*
X8973632Y-24376280D01*
X8784408Y-24300787D01*
X8584594Y-24261041D01*
X8578820Y-24260965D01*
X8578816Y-24260965D01*
X8475680Y-24259616D01*
X8380883Y-24258375D01*
X8375186Y-24259354D01*
X8375185Y-24259354D01*
X8185795Y-24291897D01*
X8180098Y-24292876D01*
X7988962Y-24363390D01*
X7813877Y-24467555D01*
X7660706Y-24601882D01*
X7657139Y-24606407D01*
X7657134Y-24606412D01*
X7599362Y-24679696D01*
X7534579Y-24761873D01*
X7439720Y-24942170D01*
X7379306Y-25136735D01*
X7355360Y-25339051D01*
X4734749Y-25339051D01*
X4718841Y-25145553D01*
X4664420Y-24928894D01*
X4575343Y-24724032D01*
X4454003Y-24536469D01*
X4303659Y-24371243D01*
X4299608Y-24368044D01*
X4299604Y-24368040D01*
X4132403Y-24235992D01*
X4132399Y-24235990D01*
X4128348Y-24232790D01*
X4086558Y-24209721D01*
X4036587Y-24159289D01*
X4021815Y-24089846D01*
X4046931Y-24023440D01*
X4074283Y-23996833D01*
X4249317Y-23871984D01*
X4257189Y-23865331D01*
X4408041Y-23715004D01*
X4414719Y-23707157D01*
X4538992Y-23534212D01*
X4544302Y-23525375D01*
X4638659Y-23334459D01*
X4642458Y-23324864D01*
X4704366Y-23121102D01*
X4706544Y-23111029D01*
X4707975Y-23100154D01*
X4705764Y-23085970D01*
X4692606Y-23082192D01*
X2057214Y-23082192D01*
X2043683Y-23086165D01*
X2042246Y-23096158D01*
X2072554Y-23230638D01*
X2075634Y-23240467D01*
X2155759Y-23437795D01*
X2160402Y-23446986D01*
X2271683Y-23628580D01*
X2277766Y-23636891D01*
X2417202Y-23797859D01*
X2424569Y-23805075D01*
X2588423Y-23941108D01*
X2596870Y-23947023D01*
X2665958Y-23987395D01*
X2714682Y-24039034D01*
X2727753Y-24108817D01*
X2701022Y-24174588D01*
X2660573Y-24207944D01*
X2647596Y-24214699D01*
X2643463Y-24217802D01*
X2643460Y-24217804D01*
X2534438Y-24299660D01*
X2468954Y-24348827D01*
X2465382Y-24352565D01*
X2338832Y-24484992D01*
X2314618Y-24510330D01*
X2188732Y-24694872D01*
X2094677Y-24897497D01*
X2034978Y-25112762D01*
X2011240Y-25334887D01*
X2011537Y-25340040D01*
X2011537Y-25340043D01*
X2017000Y-25434782D01*
X2024099Y-25557907D01*
X2025236Y-25562953D01*
X2025237Y-25562959D01*
X2039912Y-25628075D01*
X2073211Y-25775831D01*
X2157255Y-25982808D01*
X2172410Y-26007539D01*
X2271280Y-26168880D01*
X2273976Y-26173280D01*
X2420239Y-26342130D01*
X2523947Y-26428230D01*
X2585204Y-26479086D01*
X2592115Y-26484824D01*
X2662584Y-26526003D01*
X2665434Y-26527668D01*
X2714158Y-26579306D01*
X2727229Y-26649089D01*
X2700498Y-26714861D01*
X2660044Y-26748219D01*
X2647596Y-26754699D01*
X2643463Y-26757802D01*
X2643460Y-26757804D01*
X2534438Y-26839660D01*
X2468954Y-26888827D01*
X2465382Y-26892565D01*
X2338832Y-27024992D01*
X2314618Y-27050330D01*
X2188732Y-27234872D01*
X2094677Y-27437497D01*
X2034978Y-27652762D01*
X2011240Y-27874887D01*
X2011537Y-27880040D01*
X2011537Y-27880043D01*
X2017000Y-27974782D01*
X2024099Y-28097907D01*
X2025236Y-28102953D01*
X2025237Y-28102959D01*
X2039912Y-28168075D01*
X2073211Y-28315831D01*
X2157255Y-28522808D01*
X2176805Y-28554710D01*
X2265268Y-28699069D01*
X2273976Y-28713280D01*
X2420239Y-28882130D01*
X2523947Y-28968230D01*
X2585204Y-29019086D01*
X2592115Y-29024824D01*
X2662584Y-29066003D01*
X2665434Y-29067668D01*
X2714158Y-29119306D01*
X2727229Y-29189089D01*
X2700498Y-29254861D01*
X2660044Y-29288219D01*
X2647596Y-29294699D01*
X2643463Y-29297802D01*
X2643460Y-29297804D01*
X2534438Y-29379660D01*
X2468954Y-29428827D01*
X2465382Y-29432565D01*
X2338832Y-29564992D01*
X2314618Y-29590330D01*
X2188732Y-29774872D01*
X2094677Y-29977497D01*
X2034978Y-30192762D01*
X2011240Y-30414887D01*
X2011537Y-30420040D01*
X2011537Y-30420043D01*
X2017000Y-30514782D01*
X2024099Y-30637907D01*
X2025236Y-30642953D01*
X2025237Y-30642959D01*
X2039912Y-30708075D01*
X2073211Y-30855831D01*
X2157255Y-31062808D01*
X2176805Y-31094710D01*
X2265268Y-31239069D01*
X2273976Y-31253280D01*
X2420239Y-31422130D01*
X2523947Y-31508230D01*
X2585204Y-31559086D01*
X2592115Y-31564824D01*
X2662584Y-31606003D01*
X2665434Y-31607668D01*
X2714158Y-31659306D01*
X2727229Y-31729089D01*
X2700498Y-31794861D01*
X2660044Y-31828219D01*
X2647596Y-31834699D01*
X2643463Y-31837802D01*
X2643460Y-31837804D01*
X2534438Y-31919660D01*
X2468954Y-31968827D01*
X2465382Y-31972565D01*
X2338832Y-32104992D01*
X2314618Y-32130330D01*
X2188732Y-32314872D01*
X2094677Y-32517497D01*
X2034978Y-32732762D01*
X2011240Y-32954887D01*
X1523990Y-32954887D01*
X1523990Y-20254887D01*
X2011240Y-20254887D01*
X2011537Y-20260040D01*
X2011537Y-20260043D01*
X2017000Y-20354782D01*
X2024099Y-20477907D01*
X2025236Y-20482953D01*
X2025237Y-20482959D01*
X2038586Y-20542192D01*
X2073211Y-20695831D01*
X2157255Y-20902808D01*
X2273976Y-21093280D01*
X2420239Y-21262130D01*
X2592115Y-21404824D01*
X2664967Y-21447395D01*
X2665944Y-21447966D01*
X2714668Y-21499604D01*
X2727739Y-21569387D01*
X2701008Y-21635159D01*
X2660551Y-21668519D01*
X2652446Y-21672738D01*
X2643727Y-21678228D01*
X2473422Y-21806097D01*
X2465715Y-21812940D01*
X2318579Y-21966909D01*
X2312093Y-21974919D01*
X2192087Y-22150841D01*
X2186989Y-22159815D01*
X2097327Y-22352975D01*
X2093764Y-22362662D01*
X2038378Y-22562375D01*
X2039901Y-22570799D01*
X2052281Y-22574192D01*
X4692333Y-22574192D01*
X4705864Y-22570219D01*
X4707169Y-22561139D01*
X4665203Y-22394067D01*
X4661883Y-22384316D01*
X4576961Y-22189006D01*
X4572094Y-22179931D01*
X4456415Y-22001118D01*
X4450125Y-21992949D01*
X4306795Y-21835432D01*
X4299262Y-21828407D01*
X4132128Y-21696414D01*
X4123545Y-21690712D01*
X4086591Y-21670312D01*
X4036620Y-21619879D01*
X4021848Y-21550437D01*
X4046964Y-21484031D01*
X4074316Y-21457424D01*
X4097786Y-21440683D01*
X4253849Y-21329365D01*
X4412085Y-21171681D01*
X4471583Y-21088881D01*
X4539424Y-20994469D01*
X4542442Y-20990269D01*
X4641419Y-20790003D01*
X4706359Y-20576261D01*
X4735518Y-20354782D01*
X4737145Y-20288192D01*
X4718841Y-20065553D01*
X4664420Y-19848894D01*
X4575343Y-19644032D01*
X4454003Y-19456469D01*
X4303659Y-19291243D01*
X4299608Y-19288044D01*
X4299604Y-19288040D01*
X4132403Y-19155992D01*
X4132399Y-19155990D01*
X4128348Y-19152790D01*
X4087042Y-19129988D01*
X4037073Y-19079556D01*
X4022301Y-19010113D01*
X4047417Y-18943708D01*
X4074769Y-18917101D01*
X4118592Y-18885842D01*
X4253849Y-18789365D01*
X4280937Y-18762372D01*
X4408424Y-18635329D01*
X4412085Y-18631681D01*
X4422954Y-18616556D01*
X4539424Y-18454469D01*
X4542442Y-18450269D01*
X4641419Y-18250003D01*
X4706359Y-18036261D01*
X4735518Y-17814782D01*
X4737145Y-17748192D01*
X4718841Y-17525553D01*
X4664420Y-17308894D01*
X4575343Y-17104032D01*
X4499251Y-16986412D01*
X4456811Y-16920809D01*
X4456809Y-16920806D01*
X4454003Y-16916469D01*
X4450521Y-16912642D01*
X4306787Y-16754680D01*
X4275735Y-16690834D01*
X4284130Y-16620335D01*
X4329306Y-16565567D01*
X4355750Y-16551898D01*
X4462286Y-16511959D01*
X4470694Y-16508807D01*
X4587250Y-16421453D01*
X4674604Y-16304897D01*
X4725734Y-16168508D01*
X4732489Y-16106326D01*
X4732489Y-14310058D01*
X4725734Y-14247876D01*
X4674604Y-14111487D01*
X4587250Y-13994931D01*
X4470694Y-13907577D01*
X4334305Y-13856447D01*
X4272123Y-13849692D01*
X2475855Y-13849692D01*
X2413673Y-13856447D01*
X2277284Y-13907577D01*
X2160728Y-13994931D01*
X2073374Y-14111487D01*
X2022244Y-14247876D01*
X2015489Y-14310058D01*
X2015489Y-16106326D01*
X2022244Y-16168508D01*
X2073374Y-16304897D01*
X2160728Y-16421453D01*
X2277284Y-16508807D01*
X2285693Y-16511959D01*
X2285694Y-16511960D01*
X2394440Y-16552727D01*
X2451205Y-16595368D01*
X2475905Y-16661930D01*
X2460698Y-16731279D01*
X2441305Y-16757760D01*
X2314618Y-16890330D01*
X2311704Y-16894602D01*
X2311703Y-16894603D01*
X2279099Y-16942399D01*
X2188732Y-17074872D01*
X2094677Y-17277497D01*
X2034978Y-17492762D01*
X2011240Y-17714887D01*
X2011537Y-17720040D01*
X2011537Y-17720043D01*
X2017000Y-17814782D01*
X2024099Y-17937907D01*
X2025236Y-17942953D01*
X2025237Y-17942959D01*
X2045108Y-18031131D01*
X2073211Y-18155831D01*
X2157255Y-18362808D01*
X2159954Y-18367212D01*
X2265727Y-18539818D01*
X2273976Y-18553280D01*
X2420239Y-18722130D01*
X2523947Y-18808230D01*
X2585204Y-18859086D01*
X2592115Y-18864824D01*
X2662584Y-18906003D01*
X2665434Y-18907668D01*
X2714158Y-18959306D01*
X2727229Y-19029089D01*
X2700498Y-19094861D01*
X2660044Y-19128219D01*
X2647596Y-19134699D01*
X2643463Y-19137802D01*
X2643460Y-19137804D01*
X2619236Y-19155992D01*
X2468954Y-19268827D01*
X2314618Y-19430330D01*
X2311704Y-19434602D01*
X2311703Y-19434603D01*
X2299393Y-19452649D01*
X2188732Y-19614872D01*
X2094677Y-19817497D01*
X2034978Y-20032762D01*
X2011240Y-20254887D01*
X1523990Y-20254887D01*
X1523990Y-12150000D01*
X2186502Y-12150000D01*
X2206457Y-12378087D01*
X2207881Y-12383400D01*
X2207881Y-12383402D01*
X2263893Y-12592438D01*
X2265716Y-12599243D01*
X2268039Y-12604224D01*
X2268039Y-12604225D01*
X2360151Y-12801762D01*
X2360154Y-12801767D01*
X2362477Y-12806749D01*
X2417091Y-12884746D01*
X2474146Y-12966228D01*
X2493802Y-12994300D01*
X2655700Y-13156198D01*
X2660208Y-13159355D01*
X2660211Y-13159357D01*
X2738389Y-13214098D01*
X2843251Y-13287523D01*
X2848233Y-13289846D01*
X2848238Y-13289849D01*
X3045775Y-13381961D01*
X3050757Y-13384284D01*
X3056065Y-13385706D01*
X3056067Y-13385707D01*
X3266598Y-13442119D01*
X3266600Y-13442119D01*
X3271913Y-13443543D01*
X3500000Y-13463498D01*
X3728087Y-13443543D01*
X3733400Y-13442119D01*
X3733402Y-13442119D01*
X3943933Y-13385707D01*
X3943935Y-13385706D01*
X3949243Y-13384284D01*
X3954225Y-13381961D01*
X4151762Y-13289849D01*
X4151767Y-13289846D01*
X4156749Y-13287523D01*
X4261611Y-13214098D01*
X4339789Y-13159357D01*
X4339792Y-13159355D01*
X4344300Y-13156198D01*
X4506198Y-12994300D01*
X4509359Y-12989786D01*
X4525855Y-12966228D01*
X4581312Y-12921900D01*
X4629067Y-12912500D01*
X7181972Y-12912500D01*
X7250093Y-12932502D01*
X7271067Y-12949405D01*
X7668823Y-13347161D01*
X7702849Y-13409473D01*
X7705728Y-13436256D01*
X7705728Y-16885309D01*
X7685726Y-16953430D01*
X7668521Y-16973406D01*
X7669024Y-16973884D01*
X7665043Y-16978078D01*
X7660706Y-16981882D01*
X7657139Y-16986407D01*
X7657134Y-16986412D01*
X7590772Y-17070593D01*
X7534579Y-17141873D01*
X7439720Y-17322170D01*
X7379306Y-17516735D01*
X7355360Y-17719051D01*
X7368685Y-17922343D01*
X7418833Y-18119802D01*
X7504126Y-18304816D01*
X7621707Y-18471189D01*
X7767638Y-18613349D01*
X7772434Y-18616554D01*
X7772437Y-18616556D01*
X7800533Y-18635329D01*
X7937031Y-18726534D01*
X7942334Y-18728812D01*
X7942337Y-18728814D01*
X8083273Y-18789365D01*
X8124215Y-18806955D01*
X8197045Y-18823435D01*
X8317283Y-18850642D01*
X8317288Y-18850643D01*
X8322920Y-18851917D01*
X8328691Y-18852144D01*
X8328693Y-18852144D01*
X8391698Y-18854619D01*
X8526491Y-18859915D01*
X8728111Y-18830682D01*
X8733575Y-18828827D01*
X8733580Y-18828826D01*
X8915555Y-18767054D01*
X8915560Y-18767052D01*
X8921027Y-18765196D01*
X9098779Y-18665650D01*
X9250076Y-18539818D01*
X9315239Y-18511637D01*
X9330644Y-18510692D01*
X11360531Y-18510692D01*
X11428652Y-18530694D01*
X11455768Y-18554195D01*
X11552314Y-18665650D01*
X11601239Y-18722130D01*
X11704947Y-18808230D01*
X11766204Y-18859086D01*
X11773115Y-18864824D01*
X11846434Y-18907668D01*
X11846944Y-18907966D01*
X11895668Y-18959604D01*
X11908739Y-19029387D01*
X11882008Y-19095159D01*
X11841551Y-19128519D01*
X11833446Y-19132738D01*
X11824727Y-19138228D01*
X11654422Y-19266097D01*
X11646715Y-19272940D01*
X11499579Y-19426909D01*
X11493093Y-19434919D01*
X11373087Y-19610841D01*
X11367989Y-19619815D01*
X11278327Y-19812975D01*
X11274764Y-19822662D01*
X11219378Y-20022375D01*
X11220901Y-20030799D01*
X11233281Y-20034192D01*
X13873333Y-20034192D01*
X13886864Y-20030219D01*
X13888169Y-20021139D01*
X13846203Y-19854067D01*
X13842883Y-19844316D01*
X13757961Y-19649006D01*
X13753094Y-19639931D01*
X13637415Y-19461118D01*
X13631125Y-19452949D01*
X13487795Y-19295432D01*
X13480262Y-19288407D01*
X13313128Y-19156414D01*
X13304545Y-19150712D01*
X13267591Y-19130312D01*
X13217620Y-19079879D01*
X13202848Y-19010437D01*
X13227964Y-18944031D01*
X13255316Y-18917424D01*
X13278786Y-18900683D01*
X13434849Y-18789365D01*
X13461937Y-18762372D01*
X13589424Y-18635329D01*
X13593085Y-18631681D01*
X13603954Y-18616556D01*
X13720424Y-18454469D01*
X13723442Y-18450269D01*
X13822419Y-18250003D01*
X13887359Y-18036261D01*
X13916518Y-17814782D01*
X13918145Y-17748192D01*
X13899841Y-17525553D01*
X13845420Y-17308894D01*
X13756343Y-17104032D01*
X13680251Y-16986412D01*
X13637811Y-16920809D01*
X13637809Y-16920806D01*
X13635003Y-16916469D01*
X13631521Y-16912642D01*
X13487787Y-16754680D01*
X13456735Y-16690834D01*
X13465130Y-16620335D01*
X13510306Y-16565567D01*
X13536750Y-16551898D01*
X13643286Y-16511959D01*
X13651694Y-16508807D01*
X13768250Y-16421453D01*
X13855604Y-16304897D01*
X13906734Y-16168508D01*
X13913489Y-16106326D01*
X13913489Y-14310058D01*
X13906734Y-14247876D01*
X13855604Y-14111487D01*
X13768250Y-13994931D01*
X13651694Y-13907577D01*
X13515305Y-13856447D01*
X13453123Y-13849692D01*
X11656855Y-13849692D01*
X11594673Y-13856447D01*
X11458284Y-13907577D01*
X11341728Y-13994931D01*
X11254374Y-14111487D01*
X11203244Y-14247876D01*
X11196489Y-14310058D01*
X11196489Y-16106326D01*
X11203244Y-16168508D01*
X11254374Y-16304897D01*
X11341728Y-16421453D01*
X11458284Y-16508807D01*
X11466693Y-16511959D01*
X11466694Y-16511960D01*
X11575440Y-16552727D01*
X11632205Y-16595368D01*
X11656905Y-16661930D01*
X11641698Y-16731279D01*
X11622305Y-16757760D01*
X11495618Y-16890330D01*
X11492704Y-16894602D01*
X11468081Y-16930697D01*
X11413169Y-16975699D01*
X11363993Y-16985692D01*
X9356728Y-16985692D01*
X9288607Y-16965690D01*
X9242114Y-16912034D01*
X9230728Y-16859692D01*
X9230728Y-13135596D01*
X9232161Y-13116645D01*
X9234351Y-13102252D01*
X9234351Y-13102250D01*
X9235451Y-13095020D01*
X9231143Y-13042053D01*
X9230728Y-13031839D01*
X9230728Y-13023703D01*
X9227418Y-12995312D01*
X9226985Y-12990937D01*
X9221631Y-12925100D01*
X9221630Y-12925097D01*
X9221037Y-12917801D01*
X9218782Y-12910839D01*
X9217582Y-12904835D01*
X9216176Y-12898888D01*
X9215329Y-12891621D01*
X9190281Y-12822615D01*
X9188853Y-12818455D01*
X9168496Y-12755615D01*
X9168494Y-12755610D01*
X9166240Y-12748653D01*
X9162446Y-12742401D01*
X9159894Y-12736826D01*
X9157158Y-12731363D01*
X9154662Y-12724487D01*
X9114409Y-12663091D01*
X9112062Y-12659372D01*
X9078598Y-12604225D01*
X9074000Y-12596647D01*
X9066560Y-12588222D01*
X9066588Y-12588197D01*
X9063994Y-12585272D01*
X9061189Y-12581918D01*
X9057174Y-12575793D01*
X9000641Y-12522239D01*
X8998200Y-12519862D01*
X8136810Y-11658472D01*
X8124423Y-11644059D01*
X8115795Y-11632335D01*
X8111454Y-11626436D01*
X8070945Y-11592021D01*
X8063429Y-11585091D01*
X8057685Y-11579347D01*
X8054811Y-11577073D01*
X8054804Y-11577067D01*
X8035289Y-11561628D01*
X8031885Y-11558837D01*
X7981528Y-11516055D01*
X7981524Y-11516052D01*
X7975949Y-11511316D01*
X7969432Y-11507988D01*
X7964368Y-11504611D01*
X7959144Y-11501384D01*
X7953400Y-11496840D01*
X7927109Y-11484552D01*
X7886918Y-11465768D01*
X7882967Y-11463837D01*
X7824117Y-11433787D01*
X7817596Y-11430457D01*
X7810481Y-11428716D01*
X7804735Y-11426579D01*
X7798952Y-11424655D01*
X7792321Y-11421556D01*
X7720443Y-11406606D01*
X7716171Y-11405639D01*
X7644888Y-11388196D01*
X7639289Y-11387849D01*
X7639285Y-11387848D01*
X7633670Y-11387500D01*
X7633672Y-11387461D01*
X7629771Y-11387228D01*
X7625412Y-11386839D01*
X7618244Y-11385348D01*
X7610927Y-11385546D01*
X7540423Y-11387454D01*
X7537014Y-11387500D01*
X4629067Y-11387500D01*
X4560946Y-11367498D01*
X4525855Y-11333772D01*
X4509359Y-11310214D01*
X4509357Y-11310212D01*
X4506198Y-11305700D01*
X4344300Y-11143802D01*
X4339792Y-11140645D01*
X4339789Y-11140643D01*
X4161253Y-11015631D01*
X4156749Y-11012477D01*
X4151765Y-11010153D01*
X4149472Y-11008829D01*
X4100479Y-10957447D01*
X4087043Y-10887733D01*
X4113429Y-10821822D01*
X4149472Y-10790591D01*
X4161002Y-10783934D01*
X4213048Y-10747491D01*
X4221424Y-10737012D01*
X4214356Y-10723566D01*
X3512812Y-10022022D01*
X3498868Y-10014408D01*
X3497035Y-10014539D01*
X3490420Y-10018790D01*
X2784923Y-10724287D01*
X2778493Y-10736062D01*
X2787789Y-10748077D01*
X2838998Y-10783934D01*
X2850528Y-10790591D01*
X2899521Y-10841973D01*
X2912958Y-10911687D01*
X2886571Y-10977598D01*
X2850528Y-11008829D01*
X2848235Y-11010153D01*
X2843251Y-11012477D01*
X2838747Y-11015631D01*
X2660211Y-11140643D01*
X2660208Y-11140645D01*
X2655700Y-11143802D01*
X2493802Y-11305700D01*
X2490645Y-11310208D01*
X2490643Y-11310211D01*
X2450530Y-11367498D01*
X2362477Y-11493251D01*
X2360154Y-11498233D01*
X2360151Y-11498238D01*
X2268039Y-11695775D01*
X2265716Y-11700757D01*
X2206457Y-11921913D01*
X2186502Y-12150000D01*
X1523990Y-12150000D01*
X1523990Y-9655475D01*
X2187483Y-9655475D01*
X2206472Y-9872519D01*
X2208375Y-9883312D01*
X2264764Y-10093761D01*
X2268510Y-10104053D01*
X2360586Y-10301511D01*
X2366069Y-10311006D01*
X2402509Y-10363048D01*
X2412988Y-10371424D01*
X2426434Y-10364356D01*
X3127978Y-9662812D01*
X3134356Y-9651132D01*
X3864408Y-9651132D01*
X3864539Y-9652965D01*
X3868790Y-9659580D01*
X4574287Y-10365077D01*
X4586062Y-10371507D01*
X4598077Y-10362211D01*
X4633931Y-10311006D01*
X4639414Y-10301511D01*
X4731490Y-10104053D01*
X4735236Y-10093761D01*
X4791625Y-9883312D01*
X4793528Y-9872519D01*
X4812517Y-9655475D01*
X4812517Y-9644525D01*
X4793528Y-9427481D01*
X4791625Y-9416688D01*
X4735236Y-9206239D01*
X4731490Y-9195947D01*
X4639414Y-8998489D01*
X4633931Y-8988994D01*
X4597491Y-8936952D01*
X4587012Y-8928576D01*
X4573566Y-8935644D01*
X3872022Y-9637188D01*
X3864408Y-9651132D01*
X3134356Y-9651132D01*
X3135592Y-9648868D01*
X3135461Y-9647035D01*
X3131210Y-9640420D01*
X2425713Y-8934923D01*
X2413938Y-8928493D01*
X2401923Y-8937789D01*
X2366069Y-8988994D01*
X2360586Y-8998489D01*
X2268510Y-9195947D01*
X2264764Y-9206239D01*
X2208375Y-9416688D01*
X2206472Y-9427481D01*
X2187483Y-9644525D01*
X2187483Y-9655475D01*
X1523990Y-9655475D01*
X1523990Y-8562988D01*
X2778576Y-8562988D01*
X2785644Y-8576434D01*
X3487188Y-9277978D01*
X3501132Y-9285592D01*
X3502965Y-9285461D01*
X3509580Y-9281210D01*
X4215077Y-8575713D01*
X4221507Y-8563938D01*
X4212211Y-8551923D01*
X4161006Y-8516069D01*
X4151511Y-8510586D01*
X3954053Y-8418510D01*
X3943761Y-8414764D01*
X3733312Y-8358375D01*
X3722519Y-8356472D01*
X3505475Y-8337483D01*
X3494525Y-8337483D01*
X3277481Y-8356472D01*
X3266688Y-8358375D01*
X3056239Y-8414764D01*
X3045947Y-8418510D01*
X2848489Y-8510586D01*
X2838994Y-8516069D01*
X2786952Y-8552509D01*
X2778576Y-8562988D01*
X1523990Y-8562988D01*
X1523990Y-5043881D01*
X2952679Y-5043881D01*
X2969228Y-5330895D01*
X2970053Y-5335100D01*
X2970054Y-5335108D01*
X3002000Y-5497933D01*
X3024576Y-5613007D01*
X3025963Y-5617057D01*
X3025964Y-5617062D01*
X3116311Y-5880942D01*
X3117700Y-5884998D01*
X3246875Y-6141834D01*
X3409711Y-6378762D01*
X3603196Y-6591400D01*
X3606491Y-6594155D01*
X3606492Y-6594156D01*
X3657248Y-6636594D01*
X3823749Y-6775810D01*
X4067288Y-6928583D01*
X4329308Y-7046889D01*
X4333427Y-7048109D01*
X4600847Y-7127323D01*
X4600852Y-7127324D01*
X4604960Y-7128541D01*
X4609194Y-7129189D01*
X4609199Y-7129190D01*
X4857801Y-7167231D01*
X4889143Y-7172027D01*
X5035475Y-7174326D01*
X5172307Y-7176476D01*
X5172313Y-7176476D01*
X5176598Y-7176543D01*
X5180850Y-7176028D01*
X5180858Y-7176028D01*
X5457746Y-7142520D01*
X5457751Y-7142519D01*
X5462007Y-7142004D01*
X5740087Y-7069051D01*
X6005694Y-6959033D01*
X6253912Y-6813986D01*
X6480149Y-6636594D01*
X6521275Y-6594156D01*
X6677234Y-6433218D01*
X6680217Y-6430140D01*
X6682750Y-6426692D01*
X6682754Y-6426687D01*
X6847877Y-6201898D01*
X6850415Y-6198443D01*
X6987594Y-5945791D01*
X7089215Y-5676860D01*
X7153397Y-5396625D01*
X7178953Y-5110272D01*
X7179417Y-5066012D01*
X7177908Y-5043881D01*
X17930677Y-5043881D01*
X17947226Y-5330895D01*
X17948051Y-5335100D01*
X17948052Y-5335108D01*
X17979998Y-5497933D01*
X18002574Y-5613007D01*
X18003961Y-5617057D01*
X18003962Y-5617062D01*
X18094309Y-5880942D01*
X18095698Y-5884998D01*
X18224873Y-6141834D01*
X18387709Y-6378762D01*
X18581194Y-6591400D01*
X18584489Y-6594155D01*
X18584490Y-6594156D01*
X18635246Y-6636594D01*
X18801747Y-6775810D01*
X19045286Y-6928583D01*
X19307306Y-7046889D01*
X19311425Y-7048109D01*
X19578845Y-7127323D01*
X19578850Y-7127324D01*
X19582958Y-7128541D01*
X19587192Y-7129189D01*
X19587197Y-7129190D01*
X19835799Y-7167231D01*
X19867141Y-7172027D01*
X20013473Y-7174326D01*
X20150305Y-7176476D01*
X20150311Y-7176476D01*
X20154596Y-7176543D01*
X20158848Y-7176028D01*
X20158856Y-7176028D01*
X20435744Y-7142520D01*
X20435749Y-7142519D01*
X20440005Y-7142004D01*
X20718085Y-7069051D01*
X20983692Y-6959033D01*
X21231910Y-6813986D01*
X21458147Y-6636594D01*
X21499273Y-6594156D01*
X21655232Y-6433218D01*
X21658215Y-6430140D01*
X21660748Y-6426692D01*
X21660752Y-6426687D01*
X21825875Y-6201898D01*
X21828413Y-6198443D01*
X21965592Y-5945791D01*
X22067213Y-5676860D01*
X22131395Y-5396625D01*
X22156951Y-5110272D01*
X22157415Y-5066012D01*
X22137861Y-4779187D01*
X22133324Y-4757276D01*
X22080431Y-4501867D01*
X22079562Y-4497670D01*
X21983595Y-4226669D01*
X21887900Y-4041263D01*
X21853703Y-3975007D01*
X21853703Y-3975006D01*
X21851738Y-3971200D01*
X21838476Y-3952329D01*
X21688892Y-3739494D01*
X21686429Y-3735989D01*
X21490728Y-3525390D01*
X21268256Y-3343299D01*
X21023130Y-3193085D01*
X21005036Y-3185142D01*
X20763818Y-3079255D01*
X20759886Y-3077529D01*
X20733951Y-3070141D01*
X20487522Y-2999944D01*
X20487523Y-2999944D01*
X20483394Y-2998768D01*
X20270692Y-2968497D01*
X20203024Y-2958866D01*
X20203022Y-2958866D01*
X20198772Y-2958261D01*
X20194483Y-2958239D01*
X20194476Y-2958238D01*
X19915571Y-2956777D01*
X19915564Y-2956777D01*
X19911285Y-2956755D01*
X19907041Y-2957314D01*
X19907037Y-2957314D01*
X19781648Y-2973822D01*
X19626254Y-2994280D01*
X19622114Y-2995413D01*
X19622112Y-2995413D01*
X19545299Y-3016427D01*
X19348952Y-3070141D01*
X19345004Y-3071825D01*
X19088464Y-3181249D01*
X19088460Y-3181251D01*
X19084512Y-3182935D01*
X18959948Y-3257485D01*
X18841509Y-3328369D01*
X18841505Y-3328372D01*
X18837827Y-3330573D01*
X18613460Y-3510325D01*
X18496360Y-3633723D01*
X18425743Y-3708138D01*
X18415565Y-3718863D01*
X18247802Y-3952329D01*
X18113276Y-4206404D01*
X18014477Y-4476385D01*
X17953233Y-4757276D01*
X17930677Y-5043881D01*
X7177908Y-5043881D01*
X7159863Y-4779187D01*
X7155326Y-4757276D01*
X7102433Y-4501867D01*
X7101564Y-4497670D01*
X7005597Y-4226669D01*
X6909902Y-4041263D01*
X6875705Y-3975007D01*
X6875705Y-3975006D01*
X6873740Y-3971200D01*
X6860478Y-3952329D01*
X6710894Y-3739494D01*
X6708431Y-3735989D01*
X6512730Y-3525390D01*
X6290258Y-3343299D01*
X6045132Y-3193085D01*
X6027038Y-3185142D01*
X5785820Y-3079255D01*
X5781888Y-3077529D01*
X5755953Y-3070141D01*
X5509524Y-2999944D01*
X5509525Y-2999944D01*
X5505396Y-2998768D01*
X5292694Y-2968497D01*
X5225026Y-2958866D01*
X5225024Y-2958866D01*
X5220774Y-2958261D01*
X5216485Y-2958239D01*
X5216478Y-2958238D01*
X4937573Y-2956777D01*
X4937566Y-2956777D01*
X4933287Y-2956755D01*
X4929043Y-2957314D01*
X4929039Y-2957314D01*
X4803650Y-2973822D01*
X4648256Y-2994280D01*
X4644116Y-2995413D01*
X4644114Y-2995413D01*
X4567301Y-3016427D01*
X4370954Y-3070141D01*
X4367006Y-3071825D01*
X4110466Y-3181249D01*
X4110462Y-3181251D01*
X4106514Y-3182935D01*
X3981950Y-3257485D01*
X3863511Y-3328369D01*
X3863507Y-3328372D01*
X3859829Y-3330573D01*
X3635462Y-3510325D01*
X3518362Y-3633723D01*
X3447745Y-3708138D01*
X3437567Y-3718863D01*
X3269804Y-3952329D01*
X3135278Y-4206404D01*
X3036479Y-4476385D01*
X2975235Y-4757276D01*
X2952679Y-5043881D01*
X1523990Y-5043881D01*
X1523990Y-4065340D01*
X1525490Y-4045955D01*
X1527795Y-4031154D01*
X1527795Y-4031151D01*
X1529176Y-4022282D01*
X1526931Y-4005113D01*
X1526098Y-3981173D01*
X1541700Y-3723242D01*
X1543534Y-3708138D01*
X1579784Y-3510325D01*
X1595030Y-3427133D01*
X1598669Y-3412365D01*
X1624844Y-3328369D01*
X1683665Y-3139604D01*
X1689060Y-3125382D01*
X1713922Y-3070141D01*
X1806306Y-2864872D01*
X1813375Y-2851403D01*
X1961172Y-2606917D01*
X1969815Y-2594395D01*
X2146006Y-2369505D01*
X2156096Y-2358117D01*
X2358095Y-2156118D01*
X2369483Y-2146028D01*
X2594373Y-1969837D01*
X2606895Y-1961194D01*
X2851381Y-1813397D01*
X2864850Y-1806328D01*
X3125363Y-1689081D01*
X3139582Y-1683687D01*
X3412349Y-1598690D01*
X3427111Y-1595052D01*
X3637342Y-1556526D01*
X3708116Y-1543556D01*
X3723220Y-1541722D01*
X3973919Y-1526557D01*
X4000629Y-1527814D01*
X4000849Y-1527817D01*
X4009720Y-1529198D01*
X4018622Y-1528034D01*
X4018625Y-1528034D01*
X4041241Y-1525076D01*
X4057579Y-1524012D01*
X21044660Y-1524012D01*
X21064045Y-1525512D01*
G37*
%TD.AperFunction*%
%TD*%
M02*
