M48
; DRILL file {KiCad (6.0.0)} date Sun Mar 13 16:01:18 2022
; FORMAT={-:-/ absolute / inch / decimal}
; #@! TF.CreationDate,2022-03-13T16:01:18-04:00
; #@! TF.GenerationSoftware,Kicad,Pcbnew,(6.0.0)
; #@! TF.FileFunction,Plated,1,2,PTH
FMAT,2
INCH
; #@! TA.AperFunction,Plated,PTH,ViaDrill
T1C0.0236
; #@! TA.AperFunction,Plated,PTH,ComponentDrill
T2C0.0315
; #@! TA.AperFunction,Plated,PTH,ComponentDrill
T3C0.0394
; #@! TA.AperFunction,Plated,PTH,ComponentDrill
T4C0.1260
%
G90
G05
T1
X0.2557Y-1.1773
X0.3334Y-0.6791
X0.3334Y-0.8791
X0.3334Y-0.9791
X0.6552Y-0.9791
X0.6552Y-1.0791
X0.6552Y-1.1791
X0.6552Y-1.2791
T2
X0.1376Y-0.3131
X0.1376Y-0.4115
T3
X0.1328Y-0.5791
X0.1328Y-0.6791
X0.1328Y-0.7791
X0.1328Y-0.8791
X0.1328Y-0.9791
X0.1328Y-1.0791
X0.1328Y-1.1791
X0.1328Y-1.2791
X0.4943Y-0.5791
X0.4943Y-0.6791
X0.4943Y-0.7791
X0.4943Y-0.8791
X0.4943Y-0.9791
X0.4943Y-1.0791
X0.4943Y-1.1791
X0.4943Y-1.2791
X0.8557Y-0.5791
X0.8557Y-0.6791
X0.8557Y-0.7791
X0.8557Y-0.8791
X0.8557Y-0.9791
X0.8557Y-1.0791
X0.8557Y-1.1791
X0.8557Y-1.2791
T4
X0.7891Y-0.1994
T0
M30
