%TF.GenerationSoftware,KiCad,Pcbnew,(6.0.0)*%
%TF.CreationDate,2022-03-13T16:01:23-04:00*%
%TF.ProjectId,JTAG_ISP-HDR,4a544147-5f49-4535-902d-4844522e6b69,v1.0.0*%
%TF.SameCoordinates,PX8924e3cPY39fb298*%
%TF.FileFunction,Copper,L1,Top*%
%TF.FilePolarity,Positive*%
%FSLAX46Y46*%
G04 Gerber Fmt 4.6, Leading zero omitted, Abs format (unit mm)*
G04 Created by KiCad (PCBNEW (6.0.0)) date 2022-03-13 16:01:23*
%MOMM*%
%LPD*%
G01*
G04 APERTURE LIST*
%TA.AperFunction,NonConductor*%
%ADD10C,0.508000*%
%TD*%
%ADD11C,0.190500*%
%TA.AperFunction,NonConductor*%
%ADD12C,0.190500*%
%TD*%
%TA.AperFunction,ComponentPad*%
%ADD13C,3.200001*%
%TD*%
%TA.AperFunction,ComponentPad*%
%ADD14C,1.600000*%
%TD*%
%TA.AperFunction,ComponentPad*%
%ADD15R,1.700000X1.700000*%
%TD*%
%TA.AperFunction,ComponentPad*%
%ADD16O,1.700000X1.700000*%
%TD*%
%TA.AperFunction,ComponentPad*%
%ADD17C,1.700000*%
%TD*%
%TA.AperFunction,ViaPad*%
%ADD18C,1.200000*%
%TD*%
%TA.AperFunction,Conductor*%
%ADD19C,0.508000*%
%TD*%
%TA.AperFunction,Conductor*%
%ADD20C,0.250000*%
%TD*%
G04 APERTURE END LIST*
D10*
X16668988Y-15652408D02*
X15318988Y-14702408D01*
X16768988Y-14152408D02*
X15518988Y-15052408D01*
X16668988Y-13952408D02*
X16068988Y-15302408D01*
X16818986Y-13327403D02*
X16818986Y-16027413D01*
X14818990Y-14677403D02*
X16818986Y-16027413D01*
X16568988Y-13777408D02*
X16568988Y-15627408D01*
X16568988Y-13802408D02*
X15318988Y-14702408D01*
X16818986Y-13327403D02*
X14818981Y-14677403D01*
X16668988Y-13952408D02*
X15418988Y-14852408D01*
D11*
D12*
X16800713Y-36664185D02*
X15929856Y-36664185D01*
X16365284Y-38188185D02*
X16365284Y-36664185D01*
X15421856Y-38188185D02*
X15421856Y-36664185D01*
X15421856Y-37389899D02*
X14550999Y-37389899D01*
X14550999Y-38188185D02*
X14550999Y-36664185D01*
X13534999Y-36664185D02*
X13244713Y-36664185D01*
X13099570Y-36736757D01*
X12954427Y-36881899D01*
X12881856Y-37172185D01*
X12881856Y-37680185D01*
X12954427Y-37970471D01*
X13099570Y-38115614D01*
X13244713Y-38188185D01*
X13534999Y-38188185D01*
X13680141Y-38115614D01*
X13825284Y-37970471D01*
X13897856Y-37680185D01*
X13897856Y-37172185D01*
X13825284Y-36881899D01*
X13680141Y-36736757D01*
X13534999Y-36664185D01*
X12228713Y-38188185D02*
X12228713Y-36664185D01*
X11720713Y-37752757D01*
X11212713Y-36664185D01*
X11212713Y-38188185D01*
X10559570Y-37752757D02*
X9833856Y-37752757D01*
X10704713Y-38188185D02*
X10196713Y-36664185D01*
X9688713Y-38188185D01*
X9253284Y-38115614D02*
X9035570Y-38188185D01*
X8672713Y-38188185D01*
X8527570Y-38115614D01*
X8454999Y-38043042D01*
X8382427Y-37897899D01*
X8382427Y-37752757D01*
X8454999Y-37607614D01*
X8527570Y-37535042D01*
X8672713Y-37462471D01*
X8962999Y-37389899D01*
X9108141Y-37317328D01*
X9180713Y-37244757D01*
X9253284Y-37099614D01*
X9253284Y-36954471D01*
X9180713Y-36809328D01*
X9108141Y-36736757D01*
X8962999Y-36664185D01*
X8600141Y-36664185D01*
X8382427Y-36736757D01*
X19159284Y-40641825D02*
X19159284Y-39117825D01*
X18796427Y-39117825D01*
X18578713Y-39190397D01*
X18433570Y-39335539D01*
X18360999Y-39480682D01*
X18288427Y-39770968D01*
X18288427Y-39988682D01*
X18360999Y-40278968D01*
X18433570Y-40424111D01*
X18578713Y-40569254D01*
X18796427Y-40641825D01*
X19159284Y-40641825D01*
X17635284Y-39843539D02*
X17127284Y-39843539D01*
X16909570Y-40641825D02*
X17635284Y-40641825D01*
X17635284Y-39117825D01*
X16909570Y-39117825D01*
X16328999Y-40569254D02*
X16111284Y-40641825D01*
X15748427Y-40641825D01*
X15603284Y-40569254D01*
X15530713Y-40496682D01*
X15458141Y-40351539D01*
X15458141Y-40206397D01*
X15530713Y-40061254D01*
X15603284Y-39988682D01*
X15748427Y-39916111D01*
X16038713Y-39843539D01*
X16183856Y-39770968D01*
X16256427Y-39698397D01*
X16328999Y-39553254D01*
X16328999Y-39408111D01*
X16256427Y-39262968D01*
X16183856Y-39190397D01*
X16038713Y-39117825D01*
X15675856Y-39117825D01*
X15458141Y-39190397D01*
X13934141Y-40641825D02*
X14442141Y-39916111D01*
X14804999Y-40641825D02*
X14804999Y-39117825D01*
X14224427Y-39117825D01*
X14079284Y-39190397D01*
X14006713Y-39262968D01*
X13934141Y-39408111D01*
X13934141Y-39625825D01*
X14006713Y-39770968D01*
X14079284Y-39843539D01*
X14224427Y-39916111D01*
X14804999Y-39916111D01*
X12990713Y-39117825D02*
X12700427Y-39117825D01*
X12555284Y-39190397D01*
X12410141Y-39335539D01*
X12337570Y-39625825D01*
X12337570Y-40133825D01*
X12410141Y-40424111D01*
X12555284Y-40569254D01*
X12700427Y-40641825D01*
X12990713Y-40641825D01*
X13135856Y-40569254D01*
X13280999Y-40424111D01*
X13353570Y-40133825D01*
X13353570Y-39625825D01*
X13280999Y-39335539D01*
X13135856Y-39190397D01*
X12990713Y-39117825D01*
X11756999Y-40569254D02*
X11539284Y-40641825D01*
X11176427Y-40641825D01*
X11031284Y-40569254D01*
X10958713Y-40496682D01*
X10886141Y-40351539D01*
X10886141Y-40206397D01*
X10958713Y-40061254D01*
X11031284Y-39988682D01*
X11176427Y-39916111D01*
X11466713Y-39843539D01*
X11611856Y-39770968D01*
X11684427Y-39698397D01*
X11756999Y-39553254D01*
X11756999Y-39408111D01*
X11684427Y-39262968D01*
X11611856Y-39190397D01*
X11466713Y-39117825D01*
X11103856Y-39117825D01*
X10886141Y-39190397D01*
X10232999Y-40641825D02*
X10232999Y-39117825D01*
X9507284Y-39843539D02*
X8999284Y-39843539D01*
X8781570Y-40641825D02*
X9507284Y-40641825D01*
X9507284Y-39117825D01*
X8781570Y-39117825D01*
X7257570Y-40641825D02*
X7765570Y-39916111D01*
X8128427Y-40641825D02*
X8128427Y-39117825D01*
X7547856Y-39117825D01*
X7402713Y-39190397D01*
X7330141Y-39262968D01*
X7257570Y-39408111D01*
X7257570Y-39625825D01*
X7330141Y-39770968D01*
X7402713Y-39843539D01*
X7547856Y-39916111D01*
X8128427Y-39916111D01*
X6676999Y-40569254D02*
X6459284Y-40641825D01*
X6096427Y-40641825D01*
X5951284Y-40569254D01*
X5878713Y-40496682D01*
X5806141Y-40351539D01*
X5806141Y-40206397D01*
X5878713Y-40061254D01*
X5951284Y-39988682D01*
X6096427Y-39916111D01*
X6386713Y-39843539D01*
X6531856Y-39770968D01*
X6604427Y-39698397D01*
X6676999Y-39553254D01*
X6676999Y-39408111D01*
X6604427Y-39262968D01*
X6531856Y-39190397D01*
X6386713Y-39117825D01*
X6023856Y-39117825D01*
X5806141Y-39190397D01*
X19921284Y-41716608D02*
X19848713Y-41644037D01*
X19703570Y-41571465D01*
X19340713Y-41571465D01*
X19195570Y-41644037D01*
X19122999Y-41716608D01*
X19050427Y-41861751D01*
X19050427Y-42006894D01*
X19122999Y-42224608D01*
X19993856Y-43095465D01*
X19050427Y-43095465D01*
X18106999Y-41571465D02*
X17961856Y-41571465D01*
X17816713Y-41644037D01*
X17744141Y-41716608D01*
X17671570Y-41861751D01*
X17598999Y-42152037D01*
X17598999Y-42514894D01*
X17671570Y-42805179D01*
X17744141Y-42950322D01*
X17816713Y-43022894D01*
X17961856Y-43095465D01*
X18106999Y-43095465D01*
X18252141Y-43022894D01*
X18324713Y-42950322D01*
X18397284Y-42805179D01*
X18469856Y-42514894D01*
X18469856Y-42152037D01*
X18397284Y-41861751D01*
X18324713Y-41716608D01*
X18252141Y-41644037D01*
X18106999Y-41571465D01*
X17018427Y-41716608D02*
X16945856Y-41644037D01*
X16800713Y-41571465D01*
X16437856Y-41571465D01*
X16292713Y-41644037D01*
X16220141Y-41716608D01*
X16147570Y-41861751D01*
X16147570Y-42006894D01*
X16220141Y-42224608D01*
X17090999Y-43095465D01*
X16147570Y-43095465D01*
X15566999Y-41716608D02*
X15494427Y-41644037D01*
X15349284Y-41571465D01*
X14986427Y-41571465D01*
X14841284Y-41644037D01*
X14768713Y-41716608D01*
X14696141Y-41861751D01*
X14696141Y-42006894D01*
X14768713Y-42224608D01*
X15639570Y-43095465D01*
X14696141Y-43095465D01*
X14042999Y-42514894D02*
X12881856Y-42514894D01*
X11865856Y-41571465D02*
X11720713Y-41571465D01*
X11575570Y-41644037D01*
X11502999Y-41716608D01*
X11430427Y-41861751D01*
X11357856Y-42152037D01*
X11357856Y-42514894D01*
X11430427Y-42805179D01*
X11502999Y-42950322D01*
X11575570Y-43022894D01*
X11720713Y-43095465D01*
X11865856Y-43095465D01*
X12010999Y-43022894D01*
X12083570Y-42950322D01*
X12156141Y-42805179D01*
X12228713Y-42514894D01*
X12228713Y-42152037D01*
X12156141Y-41861751D01*
X12083570Y-41716608D01*
X12010999Y-41644037D01*
X11865856Y-41571465D01*
X10849856Y-41571465D02*
X9906427Y-41571465D01*
X10414427Y-42152037D01*
X10196713Y-42152037D01*
X10051570Y-42224608D01*
X9978999Y-42297179D01*
X9906427Y-42442322D01*
X9906427Y-42805179D01*
X9978999Y-42950322D01*
X10051570Y-43022894D01*
X10196713Y-43095465D01*
X10632141Y-43095465D01*
X10777284Y-43022894D01*
X10849856Y-42950322D01*
X9253284Y-42514894D02*
X8092141Y-42514894D01*
X6568141Y-43095465D02*
X7438999Y-43095465D01*
X7003570Y-43095465D02*
X7003570Y-41571465D01*
X7148713Y-41789179D01*
X7293856Y-41934322D01*
X7438999Y-42006894D01*
X6060141Y-41571465D02*
X5116713Y-41571465D01*
X5624713Y-42152037D01*
X5406999Y-42152037D01*
X5261856Y-42224608D01*
X5189284Y-42297179D01*
X5116713Y-42442322D01*
X5116713Y-42805179D01*
X5189284Y-42950322D01*
X5261856Y-43022894D01*
X5406999Y-43095465D01*
X5842427Y-43095465D01*
X5987570Y-43022894D01*
X6060141Y-42950322D01*
D13*
%TO.P,REF\u002A\u002A,*%
%TO.N,*%
X20043988Y-5065988D03*
%TD*%
D14*
%TO.P,C1,1*%
%TO.N,+5V*%
X3493988Y-10452408D03*
%TO.P,C1,2*%
%TO.N,GND*%
X3493988Y-7952408D03*
%TD*%
D15*
%TO.P,JTAG1,1,#MCLR*%
%TO.N,unconnected-(JTAG1-Pad1)*%
X12554989Y-14708168D03*
D16*
%TO.P,JTAG1,2,VDD*%
%TO.N,+5V*%
X12554989Y-17248168D03*
%TO.P,JTAG1,3,GND*%
%TO.N,GND*%
X12554989Y-19788168D03*
%TO.P,JTAG1,4,TDO*%
%TO.N,Net-(J1-Pad6)*%
X12554989Y-22328168D03*
%TO.P,JTAG1,5,TCK*%
%TO.N,Net-(J1-Pad8)*%
X12554989Y-24868168D03*
%TO.P,JTAG1,6,#RESET*%
%TO.N,Net-(J2-Pad3)*%
X12554989Y-27408168D03*
%TO.P,JTAG1,7,TDI*%
%TO.N,Net-(J2-Pad5)*%
X12554989Y-29948168D03*
%TO.P,JTAG1,8,TMS*%
%TO.N,Net-(J2-Pad7)*%
X12554989Y-32488168D03*
%TD*%
D17*
%TO.P,J2,1,Pin_1*%
%TO.N,Net-(J1-Pad8)*%
X21735989Y-14708168D03*
D16*
%TO.P,J2,2,Pin_2*%
%TO.N,unconnected-(J2-Pad2)*%
X21735989Y-17248168D03*
%TO.P,J2,3,Pin_3*%
%TO.N,Net-(J2-Pad3)*%
X21735989Y-19788168D03*
%TO.P,J2,4,Pin_4*%
%TO.N,unconnected-(J2-Pad4)*%
X21735989Y-22328168D03*
%TO.P,J2,5,Pin_5*%
%TO.N,Net-(J2-Pad5)*%
X21735989Y-24868168D03*
%TO.P,J2,6,Pin_6*%
%TO.N,unconnected-(J2-Pad6)*%
X21735989Y-27408168D03*
%TO.P,J2,7,Pin_7*%
%TO.N,Net-(J2-Pad7)*%
X21735989Y-29948168D03*
%TO.P,J2,8,Pin_8*%
%TO.N,unconnected-(J2-Pad8)*%
X21735989Y-32488168D03*
%TD*%
D15*
%TO.P,J1,1,Pin_1*%
%TO.N,unconnected-(J1-Pad1)*%
X3373989Y-14708168D03*
D16*
%TO.P,J1,2,Pin_2*%
%TO.N,+5V*%
X3373989Y-17248168D03*
%TO.P,J1,3,Pin_3*%
%TO.N,unconnected-(J1-Pad3)*%
X3373989Y-19788168D03*
%TO.P,J1,4,Pin_4*%
%TO.N,GND*%
X3373989Y-22328168D03*
%TO.P,J1,5,Pin_5*%
%TO.N,unconnected-(J1-Pad5)*%
X3373989Y-24868168D03*
%TO.P,J1,6,Pin_6*%
%TO.N,Net-(J1-Pad6)*%
X3373989Y-27408168D03*
%TO.P,J1,7,Pin_7*%
%TO.N,unconnected-(J1-Pad7)*%
X3373989Y-29948168D03*
%TO.P,J1,8,Pin_8*%
%TO.N,Net-(J1-Pad8)*%
X3373989Y-32488168D03*
%TD*%
D18*
%TO.N,+5V*%
X8468228Y-17248168D03*
%TO.N,GND*%
X6493988Y-29902408D03*
%TO.N,Net-(J1-Pad6)*%
X8468228Y-22328168D03*
%TO.N,Net-(J1-Pad8)*%
X8468228Y-24868168D03*
X16641750Y-24868168D03*
%TO.N,Net-(J2-Pad3)*%
X16641750Y-27408168D03*
%TO.N,Net-(J2-Pad5)*%
X16641750Y-29948168D03*
%TO.N,Net-(J2-Pad7)*%
X16641750Y-32488168D03*
%TD*%
D19*
%TO.N,+5V*%
X3373989Y-17248168D02*
X8468228Y-17248168D01*
D20*
%TO.N,Net-(J1-Pad6)*%
X6893988Y-26652408D02*
X6893988Y-22852408D01*
X6893988Y-22852408D02*
X7418228Y-22328168D01*
X7418228Y-22328168D02*
X8468228Y-22328168D01*
X3373989Y-27408168D02*
X6138228Y-27408168D01*
X6138228Y-27408168D02*
X6893988Y-26652408D01*
%TO.N,Net-(J1-Pad8)*%
X3373989Y-32488168D02*
X7708228Y-32488168D01*
X16641750Y-24868168D02*
X16757510Y-24752408D01*
X16757510Y-24752408D02*
X17743988Y-24752408D01*
X18193988Y-15252408D02*
X18743988Y-14702408D01*
X7708228Y-32488168D02*
X8468228Y-31728168D01*
X17743988Y-24752408D02*
X18193988Y-24302408D01*
X8468228Y-31728168D02*
X8468228Y-24868168D01*
X18743988Y-14702408D02*
X18749748Y-14708168D01*
X18749748Y-14708168D02*
X21735989Y-14708168D01*
X18193988Y-24302408D02*
X18193988Y-15252408D01*
%TO.N,Net-(J2-Pad3)*%
X16641750Y-27408168D02*
X16697510Y-27352408D01*
X19458228Y-19788168D02*
X21735989Y-19788168D01*
X18743988Y-20502408D02*
X19458228Y-19788168D01*
X18193988Y-27352408D02*
X18743988Y-26802408D01*
X16697510Y-27352408D02*
X18193988Y-27352408D01*
X18743988Y-26802408D02*
X18743988Y-20502408D01*
%TO.N,Net-(J2-Pad5)*%
X19443988Y-25402408D02*
X19978228Y-24868168D01*
X19978228Y-24868168D02*
X21735989Y-24868168D01*
X16641750Y-29948168D02*
X18548228Y-29948168D01*
X18548228Y-29948168D02*
X19443988Y-29052408D01*
X19443988Y-29052408D02*
X19443988Y-25402408D01*
%TO.N,Net-(J2-Pad7)*%
X16641750Y-32488168D02*
X18658228Y-32488168D01*
X18658228Y-32488168D02*
X19393988Y-31752408D01*
X20198228Y-29948168D02*
X21735989Y-29948168D01*
X19393988Y-31752408D02*
X19393988Y-30752408D01*
X19393988Y-30752408D02*
X20198228Y-29948168D01*
%TD*%
%TA.AperFunction,Conductor*%
%TO.N,GND*%
G36*
X21064045Y-1525488D02*
G01*
X21078846Y-1527793D01*
X21078849Y-1527793D01*
X21087718Y-1529174D01*
X21104887Y-1526929D01*
X21128827Y-1526096D01*
X21386758Y-1541698D01*
X21401862Y-1543532D01*
X21472636Y-1556502D01*
X21682867Y-1595028D01*
X21697629Y-1598666D01*
X21970396Y-1683663D01*
X21984615Y-1689057D01*
X22245128Y-1806304D01*
X22258597Y-1813373D01*
X22503083Y-1961170D01*
X22515605Y-1969813D01*
X22740495Y-2146004D01*
X22751883Y-2156094D01*
X22953882Y-2358093D01*
X22963972Y-2369481D01*
X23140163Y-2594371D01*
X23148806Y-2606893D01*
X23296603Y-2851379D01*
X23303672Y-2864848D01*
X23396056Y-3070117D01*
X23420918Y-3125358D01*
X23426313Y-3139580D01*
X23485135Y-3328345D01*
X23511309Y-3412341D01*
X23514948Y-3427109D01*
X23530194Y-3510301D01*
X23566444Y-3708114D01*
X23568278Y-3723218D01*
X23583443Y-3973917D01*
X23582186Y-4000627D01*
X23582183Y-4000847D01*
X23580802Y-4009718D01*
X23581966Y-4018620D01*
X23581966Y-4018623D01*
X23584924Y-4041239D01*
X23585988Y-4057577D01*
X23585988Y-43103080D01*
X23584488Y-43122464D01*
X23580802Y-43146138D01*
X23582442Y-43158678D01*
X23583047Y-43163305D01*
X23583880Y-43187247D01*
X23568278Y-43445178D01*
X23566444Y-43460282D01*
X23514950Y-43741281D01*
X23511309Y-43756055D01*
X23426314Y-44028812D01*
X23420918Y-44043038D01*
X23303674Y-44303544D01*
X23296603Y-44317017D01*
X23148806Y-44561503D01*
X23140163Y-44574025D01*
X22963972Y-44798915D01*
X22953882Y-44810303D01*
X22751883Y-45012302D01*
X22740495Y-45022392D01*
X22515605Y-45198583D01*
X22503083Y-45207226D01*
X22258597Y-45355023D01*
X22245128Y-45362092D01*
X21984618Y-45479338D01*
X21970396Y-45484733D01*
X21697629Y-45569730D01*
X21682867Y-45573368D01*
X21472636Y-45611894D01*
X21401862Y-45624864D01*
X21386758Y-45626698D01*
X21136059Y-45641863D01*
X21109349Y-45640606D01*
X21109129Y-45640603D01*
X21100258Y-45639222D01*
X21091356Y-45640386D01*
X21091353Y-45640386D01*
X21068737Y-45643344D01*
X21052399Y-45644408D01*
X4065318Y-45644408D01*
X4045933Y-45642908D01*
X4031132Y-45640603D01*
X4031129Y-45640603D01*
X4022260Y-45639222D01*
X4005091Y-45641467D01*
X3981151Y-45642300D01*
X3723220Y-45626698D01*
X3708116Y-45624864D01*
X3637342Y-45611894D01*
X3427111Y-45573368D01*
X3412349Y-45569730D01*
X3139582Y-45484733D01*
X3125360Y-45479338D01*
X2864850Y-45362092D01*
X2851381Y-45355023D01*
X2606895Y-45207226D01*
X2594373Y-45198583D01*
X2369483Y-45022392D01*
X2358095Y-45012302D01*
X2156096Y-44810303D01*
X2146006Y-44798915D01*
X1971838Y-44576607D01*
X4073178Y-44576607D01*
X20964821Y-44576607D01*
X20964821Y-35328187D01*
X4073178Y-35328187D01*
X4073178Y-44576607D01*
X1971838Y-44576607D01*
X1969815Y-44574025D01*
X1961172Y-44561503D01*
X1813375Y-44317017D01*
X1806304Y-44303544D01*
X1689060Y-44043038D01*
X1683664Y-44028812D01*
X1598669Y-43756055D01*
X1595028Y-43741281D01*
X1543534Y-43460282D01*
X1541700Y-43445178D01*
X1526535Y-43194479D01*
X1527792Y-43167769D01*
X1527795Y-43167549D01*
X1529176Y-43158678D01*
X1527537Y-43146138D01*
X1525054Y-43127157D01*
X1523990Y-43110819D01*
X1523990Y-32454863D01*
X2011240Y-32454863D01*
X2011537Y-32460016D01*
X2011537Y-32460019D01*
X2017000Y-32554758D01*
X2024099Y-32677883D01*
X2025236Y-32682929D01*
X2025237Y-32682935D01*
X2045108Y-32771107D01*
X2073211Y-32895807D01*
X2131577Y-33039547D01*
X2150651Y-33086519D01*
X2157255Y-33102784D01*
X2172410Y-33127515D01*
X2265268Y-33279045D01*
X2273976Y-33293256D01*
X2420239Y-33462106D01*
X2523947Y-33548206D01*
X2585204Y-33599062D01*
X2592115Y-33604800D01*
X2784989Y-33717506D01*
X2993681Y-33797198D01*
X2998749Y-33798229D01*
X2998752Y-33798230D01*
X3106006Y-33820051D01*
X3212586Y-33841735D01*
X3217761Y-33841925D01*
X3217763Y-33841925D01*
X3430662Y-33849732D01*
X3430666Y-33849732D01*
X3435826Y-33849921D01*
X3440946Y-33849265D01*
X3440948Y-33849265D01*
X3652277Y-33822193D01*
X3652278Y-33822193D01*
X3657405Y-33821536D01*
X3662355Y-33820051D01*
X3866418Y-33758829D01*
X3866423Y-33758827D01*
X3871373Y-33757342D01*
X4071983Y-33659064D01*
X4253849Y-33529341D01*
X4280937Y-33502348D01*
X4408424Y-33375305D01*
X4412085Y-33371657D01*
X4422954Y-33356532D01*
X4539424Y-33194445D01*
X4542442Y-33190245D01*
X4544735Y-33185605D01*
X4546435Y-33182776D01*
X4598663Y-33134686D01*
X4654440Y-33121668D01*
X7629461Y-33121668D01*
X7640644Y-33122195D01*
X7648137Y-33123870D01*
X7656063Y-33123621D01*
X7656064Y-33123621D01*
X7716214Y-33121730D01*
X7720173Y-33121668D01*
X7748084Y-33121668D01*
X7752019Y-33121171D01*
X7752084Y-33121163D01*
X7763921Y-33120230D01*
X7796179Y-33119216D01*
X7800198Y-33119090D01*
X7808117Y-33118841D01*
X7827571Y-33113189D01*
X7846928Y-33109181D01*
X7859158Y-33107636D01*
X7859159Y-33107636D01*
X7867025Y-33106642D01*
X7874396Y-33103723D01*
X7874398Y-33103723D01*
X7908140Y-33090364D01*
X7919370Y-33086519D01*
X7954211Y-33076397D01*
X7954212Y-33076397D01*
X7961821Y-33074186D01*
X7968640Y-33070153D01*
X7968645Y-33070151D01*
X7979256Y-33063875D01*
X7997004Y-33055180D01*
X8015845Y-33047720D01*
X8027095Y-33039547D01*
X8051615Y-33021732D01*
X8061535Y-33015216D01*
X8092763Y-32996748D01*
X8092766Y-32996746D01*
X8099590Y-32992710D01*
X8113911Y-32978389D01*
X8128945Y-32965548D01*
X8138922Y-32958299D01*
X8145335Y-32953640D01*
X8173526Y-32919563D01*
X8181516Y-32910784D01*
X8637437Y-32454863D01*
X11192240Y-32454863D01*
X11192537Y-32460016D01*
X11192537Y-32460019D01*
X11198000Y-32554758D01*
X11205099Y-32677883D01*
X11206236Y-32682929D01*
X11206237Y-32682935D01*
X11226108Y-32771107D01*
X11254211Y-32895807D01*
X11312577Y-33039547D01*
X11331651Y-33086519D01*
X11338255Y-33102784D01*
X11353410Y-33127515D01*
X11446268Y-33279045D01*
X11454976Y-33293256D01*
X11601239Y-33462106D01*
X11704947Y-33548206D01*
X11766204Y-33599062D01*
X11773115Y-33604800D01*
X11965989Y-33717506D01*
X12174681Y-33797198D01*
X12179749Y-33798229D01*
X12179752Y-33798230D01*
X12287006Y-33820051D01*
X12393586Y-33841735D01*
X12398761Y-33841925D01*
X12398763Y-33841925D01*
X12611662Y-33849732D01*
X12611666Y-33849732D01*
X12616826Y-33849921D01*
X12621946Y-33849265D01*
X12621948Y-33849265D01*
X12833277Y-33822193D01*
X12833278Y-33822193D01*
X12838405Y-33821536D01*
X12843355Y-33820051D01*
X13047418Y-33758829D01*
X13047423Y-33758827D01*
X13052373Y-33757342D01*
X13252983Y-33659064D01*
X13434849Y-33529341D01*
X13461937Y-33502348D01*
X13589424Y-33375305D01*
X13593085Y-33371657D01*
X13603954Y-33356532D01*
X13720424Y-33194445D01*
X13723442Y-33190245D01*
X13727134Y-33182776D01*
X13820125Y-32994621D01*
X13820126Y-32994619D01*
X13822419Y-32989979D01*
X13887359Y-32776237D01*
X13916518Y-32554758D01*
X13918145Y-32488168D01*
X13899841Y-32265529D01*
X13845420Y-32048870D01*
X13756343Y-31844008D01*
X13662076Y-31698293D01*
X13637811Y-31660785D01*
X13637809Y-31660782D01*
X13635003Y-31656445D01*
X13484659Y-31491219D01*
X13480608Y-31488020D01*
X13480604Y-31488016D01*
X13313403Y-31355968D01*
X13313399Y-31355966D01*
X13309348Y-31352766D01*
X13268042Y-31329964D01*
X13218073Y-31279532D01*
X13203301Y-31210089D01*
X13228417Y-31143684D01*
X13255769Y-31117077D01*
X13299592Y-31085818D01*
X13434849Y-30989341D01*
X13461937Y-30962348D01*
X13589424Y-30835305D01*
X13593085Y-30831657D01*
X13603954Y-30816532D01*
X13720424Y-30654445D01*
X13723442Y-30650245D01*
X13734882Y-30627099D01*
X13820125Y-30454621D01*
X13820126Y-30454619D01*
X13822419Y-30449979D01*
X13887359Y-30236237D01*
X13916518Y-30014758D01*
X13918145Y-29948168D01*
X13899841Y-29725529D01*
X13845420Y-29508870D01*
X13756343Y-29304008D01*
X13661316Y-29157118D01*
X13637811Y-29120785D01*
X13637809Y-29120782D01*
X13635003Y-29116445D01*
X13484659Y-28951219D01*
X13480608Y-28948020D01*
X13480604Y-28948016D01*
X13313403Y-28815968D01*
X13313399Y-28815966D01*
X13309348Y-28812766D01*
X13268042Y-28789964D01*
X13218073Y-28739532D01*
X13203301Y-28670089D01*
X13228417Y-28603684D01*
X13255769Y-28577077D01*
X13299592Y-28545818D01*
X13434849Y-28449341D01*
X13461937Y-28422348D01*
X13589424Y-28295305D01*
X13593085Y-28291657D01*
X13603954Y-28276532D01*
X13720424Y-28114445D01*
X13723442Y-28110245D01*
X13727134Y-28102776D01*
X13820125Y-27914621D01*
X13820126Y-27914619D01*
X13822419Y-27909979D01*
X13887359Y-27696237D01*
X13916518Y-27474758D01*
X13918145Y-27408168D01*
X13899841Y-27185529D01*
X13845420Y-26968870D01*
X13756343Y-26764008D01*
X13664819Y-26622533D01*
X13637811Y-26580785D01*
X13637809Y-26580782D01*
X13635003Y-26576445D01*
X13484659Y-26411219D01*
X13480608Y-26408020D01*
X13480604Y-26408016D01*
X13313403Y-26275968D01*
X13313399Y-26275966D01*
X13309348Y-26272766D01*
X13268042Y-26249964D01*
X13218073Y-26199532D01*
X13203301Y-26130089D01*
X13228417Y-26063684D01*
X13255769Y-26037077D01*
X13299592Y-26005818D01*
X13434849Y-25909341D01*
X13461937Y-25882348D01*
X13546551Y-25798029D01*
X13593085Y-25751657D01*
X13603954Y-25736532D01*
X13720424Y-25574445D01*
X13723442Y-25570245D01*
X13727600Y-25561833D01*
X13820125Y-25374621D01*
X13820126Y-25374619D01*
X13822419Y-25369979D01*
X13887359Y-25156237D01*
X13916518Y-24934758D01*
X13916632Y-24930105D01*
X13918063Y-24871533D01*
X13918063Y-24871529D01*
X13918145Y-24868168D01*
X13899841Y-24645529D01*
X13845420Y-24428870D01*
X13756343Y-24224008D01*
X13674859Y-24098053D01*
X13637811Y-24040785D01*
X13637809Y-24040782D01*
X13635003Y-24036445D01*
X13484659Y-23871219D01*
X13480608Y-23868020D01*
X13480604Y-23868016D01*
X13313403Y-23735968D01*
X13313399Y-23735966D01*
X13309348Y-23732766D01*
X13268042Y-23709964D01*
X13218073Y-23659532D01*
X13203301Y-23590089D01*
X13228417Y-23523684D01*
X13255769Y-23497077D01*
X13299592Y-23465818D01*
X13434849Y-23369341D01*
X13461937Y-23342348D01*
X13589424Y-23215305D01*
X13593085Y-23211657D01*
X13603954Y-23196532D01*
X13720424Y-23034445D01*
X13723442Y-23030245D01*
X13761287Y-22953672D01*
X13820125Y-22834621D01*
X13820126Y-22834619D01*
X13822419Y-22829979D01*
X13887359Y-22616237D01*
X13916518Y-22394758D01*
X13916632Y-22390105D01*
X13918063Y-22331533D01*
X13918063Y-22331529D01*
X13918145Y-22328168D01*
X13899841Y-22105529D01*
X13845420Y-21888870D01*
X13756343Y-21684008D01*
X13635003Y-21496445D01*
X13484659Y-21331219D01*
X13480608Y-21328020D01*
X13480604Y-21328016D01*
X13313403Y-21195968D01*
X13313399Y-21195966D01*
X13309348Y-21192766D01*
X13267558Y-21169697D01*
X13217587Y-21119265D01*
X13202815Y-21049822D01*
X13227931Y-20983416D01*
X13255283Y-20956809D01*
X13430317Y-20831960D01*
X13438189Y-20825307D01*
X13589041Y-20674980D01*
X13595719Y-20667133D01*
X13719992Y-20494188D01*
X13725302Y-20485351D01*
X13819659Y-20294435D01*
X13823458Y-20284840D01*
X13885366Y-20081078D01*
X13887544Y-20071005D01*
X13888975Y-20060130D01*
X13886764Y-20045946D01*
X13873606Y-20042168D01*
X11238214Y-20042168D01*
X11224683Y-20046141D01*
X11223246Y-20056134D01*
X11253554Y-20190614D01*
X11256634Y-20200443D01*
X11336759Y-20397771D01*
X11341402Y-20406962D01*
X11452683Y-20588556D01*
X11458766Y-20596867D01*
X11598202Y-20757835D01*
X11605569Y-20765051D01*
X11769423Y-20901084D01*
X11777870Y-20906999D01*
X11846958Y-20947371D01*
X11895682Y-20999010D01*
X11908753Y-21068793D01*
X11882022Y-21134564D01*
X11841573Y-21167920D01*
X11828596Y-21174675D01*
X11824463Y-21177778D01*
X11824460Y-21177780D01*
X11715438Y-21259636D01*
X11649954Y-21308803D01*
X11646382Y-21312541D01*
X11519832Y-21444968D01*
X11495618Y-21470306D01*
X11492704Y-21474578D01*
X11492703Y-21474579D01*
X11480393Y-21492625D01*
X11369732Y-21654848D01*
X11275677Y-21857473D01*
X11215978Y-22072738D01*
X11192240Y-22294863D01*
X11192537Y-22300016D01*
X11192537Y-22300019D01*
X11202747Y-22477087D01*
X11205099Y-22517883D01*
X11206236Y-22522929D01*
X11206237Y-22522935D01*
X11220438Y-22585946D01*
X11254211Y-22735807D01*
X11338255Y-22942784D01*
X11388852Y-23025351D01*
X11446268Y-23119045D01*
X11454976Y-23133256D01*
X11601239Y-23302106D01*
X11704947Y-23388206D01*
X11766204Y-23439062D01*
X11773115Y-23444800D01*
X11843584Y-23485979D01*
X11846434Y-23487644D01*
X11895158Y-23539282D01*
X11908229Y-23609065D01*
X11881498Y-23674837D01*
X11841044Y-23708195D01*
X11828596Y-23714675D01*
X11824463Y-23717778D01*
X11824460Y-23717780D01*
X11715438Y-23799636D01*
X11649954Y-23848803D01*
X11646382Y-23852541D01*
X11519832Y-23984968D01*
X11495618Y-24010306D01*
X11369732Y-24194848D01*
X11335703Y-24268157D01*
X11282998Y-24381702D01*
X11275677Y-24397473D01*
X11215978Y-24612738D01*
X11192240Y-24834863D01*
X11192537Y-24840016D01*
X11192537Y-24840019D01*
X11198000Y-24934758D01*
X11205099Y-25057883D01*
X11206236Y-25062929D01*
X11206237Y-25062935D01*
X11220912Y-25128051D01*
X11254211Y-25275807D01*
X11297770Y-25383081D01*
X11334709Y-25474050D01*
X11338255Y-25482784D01*
X11386696Y-25561833D01*
X11452280Y-25668856D01*
X11454976Y-25673256D01*
X11601239Y-25842106D01*
X11704947Y-25928206D01*
X11766204Y-25979062D01*
X11773115Y-25984800D01*
X11843584Y-26025979D01*
X11846434Y-26027644D01*
X11895158Y-26079282D01*
X11908229Y-26149065D01*
X11881498Y-26214837D01*
X11841044Y-26248195D01*
X11828596Y-26254675D01*
X11824463Y-26257778D01*
X11824460Y-26257780D01*
X11717866Y-26337813D01*
X11649954Y-26388803D01*
X11646382Y-26392541D01*
X11519832Y-26524968D01*
X11495618Y-26550306D01*
X11369732Y-26734848D01*
X11328943Y-26822720D01*
X11295667Y-26894409D01*
X11275677Y-26937473D01*
X11215978Y-27152738D01*
X11192240Y-27374863D01*
X11192537Y-27380016D01*
X11192537Y-27380019D01*
X11198000Y-27474758D01*
X11205099Y-27597883D01*
X11206236Y-27602929D01*
X11206237Y-27602935D01*
X11212745Y-27631812D01*
X11254211Y-27815807D01*
X11309009Y-27950759D01*
X11331651Y-28006519D01*
X11338255Y-28022784D01*
X11357805Y-28054686D01*
X11446268Y-28199045D01*
X11454976Y-28213256D01*
X11601239Y-28382106D01*
X11704947Y-28468206D01*
X11766204Y-28519062D01*
X11773115Y-28524800D01*
X11843584Y-28565979D01*
X11846434Y-28567644D01*
X11895158Y-28619282D01*
X11908229Y-28689065D01*
X11881498Y-28754837D01*
X11841044Y-28788195D01*
X11828596Y-28794675D01*
X11824463Y-28797778D01*
X11824460Y-28797780D01*
X11715438Y-28879636D01*
X11649954Y-28928803D01*
X11646382Y-28932541D01*
X11519832Y-29064968D01*
X11495618Y-29090306D01*
X11492704Y-29094578D01*
X11492703Y-29094579D01*
X11461638Y-29140119D01*
X11369732Y-29274848D01*
X11275677Y-29477473D01*
X11215978Y-29692738D01*
X11192240Y-29914863D01*
X11192537Y-29920016D01*
X11192537Y-29920019D01*
X11198000Y-30014758D01*
X11205099Y-30137883D01*
X11206236Y-30142929D01*
X11206237Y-30142935D01*
X11226108Y-30231107D01*
X11254211Y-30355807D01*
X11292450Y-30449979D01*
X11327389Y-30536023D01*
X11338255Y-30562784D01*
X11374666Y-30622202D01*
X11452280Y-30748856D01*
X11454976Y-30753256D01*
X11601239Y-30922106D01*
X11704947Y-31008206D01*
X11766204Y-31059062D01*
X11773115Y-31064800D01*
X11843584Y-31105979D01*
X11846434Y-31107644D01*
X11895158Y-31159282D01*
X11908229Y-31229065D01*
X11881498Y-31294837D01*
X11841044Y-31328195D01*
X11828596Y-31334675D01*
X11824463Y-31337778D01*
X11824460Y-31337780D01*
X11654089Y-31465698D01*
X11649954Y-31468803D01*
X11646382Y-31472541D01*
X11519832Y-31604968D01*
X11495618Y-31630306D01*
X11369732Y-31814848D01*
X11330912Y-31898478D01*
X11280453Y-32007185D01*
X11275677Y-32017473D01*
X11215978Y-32232738D01*
X11192240Y-32454863D01*
X8637437Y-32454863D01*
X8860475Y-32231825D01*
X8868765Y-32224281D01*
X8875246Y-32220168D01*
X8921887Y-32170500D01*
X8924641Y-32167659D01*
X8944362Y-32147938D01*
X8946840Y-32144743D01*
X8954546Y-32135721D01*
X8962051Y-32127729D01*
X8984814Y-32103489D01*
X8994574Y-32085736D01*
X9005427Y-32069213D01*
X9006628Y-32067664D01*
X9017841Y-32053209D01*
X9035404Y-32012625D01*
X9040611Y-32001995D01*
X9061923Y-31963228D01*
X9063894Y-31955551D01*
X9063896Y-31955546D01*
X9066960Y-31943610D01*
X9073366Y-31924898D01*
X9078261Y-31913587D01*
X9081409Y-31906313D01*
X9082649Y-31898485D01*
X9082651Y-31898478D01*
X9088327Y-31862644D01*
X9090733Y-31851024D01*
X9099756Y-31815879D01*
X9099756Y-31815878D01*
X9101728Y-31808198D01*
X9101728Y-31787944D01*
X9103279Y-31768233D01*
X9105208Y-31756054D01*
X9106448Y-31748225D01*
X9102287Y-31704206D01*
X9101728Y-31692349D01*
X9101728Y-25842263D01*
X9121730Y-25774142D01*
X9147159Y-25745389D01*
X9250976Y-25659045D01*
X9255414Y-25655354D01*
X9385686Y-25498719D01*
X9468738Y-25350419D01*
X9482408Y-25326010D01*
X9482409Y-25326008D01*
X9485232Y-25320967D01*
X9487088Y-25315500D01*
X9487090Y-25315495D01*
X9548862Y-25133520D01*
X9548863Y-25133515D01*
X9550718Y-25128051D01*
X9579951Y-24926431D01*
X9581477Y-24868168D01*
X9562836Y-24665294D01*
X9549462Y-24617875D01*
X9509103Y-24474774D01*
X9509102Y-24474772D01*
X9507535Y-24469215D01*
X9496908Y-24447664D01*
X9419984Y-24291678D01*
X9417429Y-24286497D01*
X9412534Y-24279941D01*
X9298986Y-24127883D01*
X9298986Y-24127882D01*
X9295533Y-24123259D01*
X9175438Y-24012244D01*
X9150171Y-23988887D01*
X9150168Y-23988885D01*
X9145931Y-23984968D01*
X9042517Y-23919719D01*
X8978516Y-23879337D01*
X8978511Y-23879335D01*
X8973632Y-23876256D01*
X8784408Y-23800763D01*
X8584594Y-23761017D01*
X8578820Y-23760941D01*
X8578816Y-23760941D01*
X8475680Y-23759592D01*
X8380883Y-23758351D01*
X8375186Y-23759330D01*
X8375185Y-23759330D01*
X8185795Y-23791873D01*
X8180098Y-23792852D01*
X7988962Y-23863366D01*
X7813877Y-23967531D01*
X7736563Y-24035333D01*
X7672162Y-24065209D01*
X7601829Y-24055523D01*
X7547897Y-24009350D01*
X7527488Y-23940600D01*
X7527488Y-23258029D01*
X7547490Y-23189908D01*
X7601146Y-23143415D01*
X7671420Y-23133311D01*
X7736000Y-23162805D01*
X7741409Y-23167775D01*
X7763498Y-23189293D01*
X7763504Y-23189298D01*
X7767638Y-23193325D01*
X7772434Y-23196530D01*
X7772437Y-23196532D01*
X7800533Y-23215305D01*
X7937031Y-23306510D01*
X7942334Y-23308788D01*
X7942337Y-23308790D01*
X8083273Y-23369341D01*
X8124215Y-23386931D01*
X8197045Y-23403411D01*
X8317283Y-23430618D01*
X8317288Y-23430619D01*
X8322920Y-23431893D01*
X8328691Y-23432120D01*
X8328693Y-23432120D01*
X8391698Y-23434595D01*
X8526491Y-23439891D01*
X8728111Y-23410658D01*
X8733575Y-23408803D01*
X8733580Y-23408802D01*
X8915555Y-23347030D01*
X8915560Y-23347028D01*
X8921027Y-23345172D01*
X9098779Y-23245626D01*
X9255414Y-23115354D01*
X9385686Y-22958719D01*
X9485232Y-22780967D01*
X9487088Y-22775500D01*
X9487090Y-22775495D01*
X9548862Y-22593520D01*
X9548863Y-22593515D01*
X9550718Y-22588051D01*
X9579951Y-22386431D01*
X9581477Y-22328168D01*
X9562836Y-22125294D01*
X9548417Y-22074168D01*
X9509103Y-21934774D01*
X9509102Y-21934772D01*
X9507535Y-21929215D01*
X9495861Y-21905541D01*
X9419984Y-21751678D01*
X9417429Y-21746497D01*
X9404971Y-21729813D01*
X9298986Y-21587883D01*
X9298986Y-21587882D01*
X9295533Y-21583259D01*
X9201618Y-21496445D01*
X9150171Y-21448887D01*
X9150168Y-21448885D01*
X9145931Y-21444968D01*
X9099903Y-21415927D01*
X8978516Y-21339337D01*
X8978511Y-21339335D01*
X8973632Y-21336256D01*
X8784408Y-21260763D01*
X8584594Y-21221017D01*
X8578820Y-21220941D01*
X8578816Y-21220941D01*
X8475680Y-21219592D01*
X8380883Y-21218351D01*
X8375186Y-21219330D01*
X8375185Y-21219330D01*
X8185795Y-21251873D01*
X8180098Y-21252852D01*
X7988962Y-21323366D01*
X7813877Y-21427531D01*
X7660706Y-21561858D01*
X7657134Y-21566389D01*
X7593988Y-21646489D01*
X7536107Y-21687602D01*
X7484262Y-21693795D01*
X7478319Y-21692467D01*
X7410261Y-21694606D01*
X7406303Y-21694668D01*
X7378372Y-21694668D01*
X7374457Y-21695163D01*
X7374453Y-21695163D01*
X7374395Y-21695171D01*
X7374366Y-21695174D01*
X7362524Y-21696107D01*
X7318338Y-21697495D01*
X7300972Y-21702540D01*
X7298886Y-21703146D01*
X7279534Y-21707154D01*
X7272463Y-21708048D01*
X7259431Y-21709694D01*
X7252062Y-21712611D01*
X7252060Y-21712612D01*
X7218325Y-21725968D01*
X7207097Y-21729813D01*
X7164635Y-21742150D01*
X7157813Y-21746184D01*
X7157807Y-21746187D01*
X7147196Y-21752462D01*
X7129446Y-21761158D01*
X7117984Y-21765696D01*
X7117979Y-21765699D01*
X7110611Y-21768616D01*
X7104196Y-21773277D01*
X7074853Y-21794595D01*
X7064935Y-21801111D01*
X7046247Y-21812163D01*
X7026865Y-21823626D01*
X7012541Y-21837950D01*
X6997509Y-21850789D01*
X6981121Y-21862696D01*
X6952940Y-21896761D01*
X6944950Y-21905541D01*
X6501735Y-22348756D01*
X6493449Y-22356296D01*
X6486970Y-22360408D01*
X6481545Y-22366185D01*
X6440345Y-22410059D01*
X6437590Y-22412901D01*
X6417853Y-22432638D01*
X6415373Y-22435835D01*
X6407670Y-22444855D01*
X6377402Y-22477087D01*
X6373583Y-22484033D01*
X6373581Y-22484036D01*
X6367640Y-22494842D01*
X6356789Y-22511361D01*
X6344374Y-22527367D01*
X6341229Y-22534636D01*
X6341226Y-22534640D01*
X6326814Y-22567945D01*
X6321597Y-22578595D01*
X6300293Y-22617348D01*
X6298322Y-22625023D01*
X6298322Y-22625024D01*
X6295255Y-22636970D01*
X6288851Y-22655674D01*
X6280807Y-22674263D01*
X6279568Y-22682086D01*
X6279565Y-22682096D01*
X6273889Y-22717932D01*
X6271483Y-22729552D01*
X6262460Y-22764697D01*
X6260488Y-22772378D01*
X6260488Y-22792632D01*
X6258937Y-22812342D01*
X6255768Y-22832351D01*
X6256514Y-22840243D01*
X6259929Y-22876369D01*
X6260488Y-22888227D01*
X6260488Y-26337813D01*
X6240486Y-26405934D01*
X6223583Y-26426909D01*
X5912727Y-26737764D01*
X5850415Y-26771789D01*
X5823632Y-26774668D01*
X4650794Y-26774668D01*
X4582673Y-26754666D01*
X4545002Y-26717108D01*
X4456811Y-26580785D01*
X4456809Y-26580782D01*
X4454003Y-26576445D01*
X4303659Y-26411219D01*
X4299608Y-26408020D01*
X4299604Y-26408016D01*
X4132403Y-26275968D01*
X4132399Y-26275966D01*
X4128348Y-26272766D01*
X4087042Y-26249964D01*
X4037073Y-26199532D01*
X4022301Y-26130089D01*
X4047417Y-26063684D01*
X4074769Y-26037077D01*
X4118592Y-26005818D01*
X4253849Y-25909341D01*
X4280937Y-25882348D01*
X4365551Y-25798029D01*
X4412085Y-25751657D01*
X4422954Y-25736532D01*
X4539424Y-25574445D01*
X4542442Y-25570245D01*
X4546600Y-25561833D01*
X4639125Y-25374621D01*
X4639126Y-25374619D01*
X4641419Y-25369979D01*
X4706359Y-25156237D01*
X4735518Y-24934758D01*
X4735632Y-24930105D01*
X4737063Y-24871533D01*
X4737063Y-24871529D01*
X4737145Y-24868168D01*
X4718841Y-24645529D01*
X4664420Y-24428870D01*
X4575343Y-24224008D01*
X4493859Y-24098053D01*
X4456811Y-24040785D01*
X4456809Y-24040782D01*
X4454003Y-24036445D01*
X4303659Y-23871219D01*
X4299608Y-23868020D01*
X4299604Y-23868016D01*
X4132403Y-23735968D01*
X4132399Y-23735966D01*
X4128348Y-23732766D01*
X4086558Y-23709697D01*
X4036587Y-23659265D01*
X4021815Y-23589822D01*
X4046931Y-23523416D01*
X4074283Y-23496809D01*
X4249317Y-23371960D01*
X4257189Y-23365307D01*
X4408041Y-23214980D01*
X4414719Y-23207133D01*
X4538992Y-23034188D01*
X4544302Y-23025351D01*
X4638659Y-22834435D01*
X4642458Y-22824840D01*
X4704366Y-22621078D01*
X4706544Y-22611005D01*
X4707975Y-22600130D01*
X4705764Y-22585946D01*
X4692606Y-22582168D01*
X2057214Y-22582168D01*
X2043683Y-22586141D01*
X2042246Y-22596134D01*
X2072554Y-22730614D01*
X2075634Y-22740443D01*
X2155759Y-22937771D01*
X2160402Y-22946962D01*
X2271683Y-23128556D01*
X2277766Y-23136867D01*
X2417202Y-23297835D01*
X2424569Y-23305051D01*
X2588423Y-23441084D01*
X2596870Y-23446999D01*
X2665958Y-23487371D01*
X2714682Y-23539010D01*
X2727753Y-23608793D01*
X2701022Y-23674564D01*
X2660573Y-23707920D01*
X2647596Y-23714675D01*
X2643463Y-23717778D01*
X2643460Y-23717780D01*
X2534438Y-23799636D01*
X2468954Y-23848803D01*
X2465382Y-23852541D01*
X2338832Y-23984968D01*
X2314618Y-24010306D01*
X2188732Y-24194848D01*
X2154703Y-24268157D01*
X2101998Y-24381702D01*
X2094677Y-24397473D01*
X2034978Y-24612738D01*
X2011240Y-24834863D01*
X2011537Y-24840016D01*
X2011537Y-24840019D01*
X2017000Y-24934758D01*
X2024099Y-25057883D01*
X2025236Y-25062929D01*
X2025237Y-25062935D01*
X2039912Y-25128051D01*
X2073211Y-25275807D01*
X2116770Y-25383081D01*
X2153709Y-25474050D01*
X2157255Y-25482784D01*
X2205696Y-25561833D01*
X2271280Y-25668856D01*
X2273976Y-25673256D01*
X2420239Y-25842106D01*
X2523947Y-25928206D01*
X2585204Y-25979062D01*
X2592115Y-25984800D01*
X2662584Y-26025979D01*
X2665434Y-26027644D01*
X2714158Y-26079282D01*
X2727229Y-26149065D01*
X2700498Y-26214837D01*
X2660044Y-26248195D01*
X2647596Y-26254675D01*
X2643463Y-26257778D01*
X2643460Y-26257780D01*
X2536866Y-26337813D01*
X2468954Y-26388803D01*
X2465382Y-26392541D01*
X2338832Y-26524968D01*
X2314618Y-26550306D01*
X2188732Y-26734848D01*
X2147943Y-26822720D01*
X2114667Y-26894409D01*
X2094677Y-26937473D01*
X2034978Y-27152738D01*
X2011240Y-27374863D01*
X2011537Y-27380016D01*
X2011537Y-27380019D01*
X2017000Y-27474758D01*
X2024099Y-27597883D01*
X2025236Y-27602929D01*
X2025237Y-27602935D01*
X2031745Y-27631812D01*
X2073211Y-27815807D01*
X2128009Y-27950759D01*
X2150651Y-28006519D01*
X2157255Y-28022784D01*
X2176805Y-28054686D01*
X2265268Y-28199045D01*
X2273976Y-28213256D01*
X2420239Y-28382106D01*
X2523947Y-28468206D01*
X2585204Y-28519062D01*
X2592115Y-28524800D01*
X2662584Y-28565979D01*
X2665434Y-28567644D01*
X2714158Y-28619282D01*
X2727229Y-28689065D01*
X2700498Y-28754837D01*
X2660044Y-28788195D01*
X2647596Y-28794675D01*
X2643463Y-28797778D01*
X2643460Y-28797780D01*
X2534438Y-28879636D01*
X2468954Y-28928803D01*
X2465382Y-28932541D01*
X2338832Y-29064968D01*
X2314618Y-29090306D01*
X2311704Y-29094578D01*
X2311703Y-29094579D01*
X2280638Y-29140119D01*
X2188732Y-29274848D01*
X2094677Y-29477473D01*
X2034978Y-29692738D01*
X2011240Y-29914863D01*
X2011537Y-29920016D01*
X2011537Y-29920019D01*
X2017000Y-30014758D01*
X2024099Y-30137883D01*
X2025236Y-30142929D01*
X2025237Y-30142935D01*
X2045108Y-30231107D01*
X2073211Y-30355807D01*
X2111450Y-30449979D01*
X2146389Y-30536023D01*
X2157255Y-30562784D01*
X2193666Y-30622202D01*
X2271280Y-30748856D01*
X2273976Y-30753256D01*
X2420239Y-30922106D01*
X2523947Y-31008206D01*
X2585204Y-31059062D01*
X2592115Y-31064800D01*
X2662584Y-31105979D01*
X2665434Y-31107644D01*
X2714158Y-31159282D01*
X2727229Y-31229065D01*
X2700498Y-31294837D01*
X2660044Y-31328195D01*
X2647596Y-31334675D01*
X2643463Y-31337778D01*
X2643460Y-31337780D01*
X2473089Y-31465698D01*
X2468954Y-31468803D01*
X2465382Y-31472541D01*
X2338832Y-31604968D01*
X2314618Y-31630306D01*
X2188732Y-31814848D01*
X2149912Y-31898478D01*
X2099453Y-32007185D01*
X2094677Y-32017473D01*
X2034978Y-32232738D01*
X2011240Y-32454863D01*
X1523990Y-32454863D01*
X1523990Y-19754863D01*
X2011240Y-19754863D01*
X2011537Y-19760016D01*
X2011537Y-19760019D01*
X2017000Y-19854758D01*
X2024099Y-19977883D01*
X2025236Y-19982929D01*
X2025237Y-19982935D01*
X2038586Y-20042168D01*
X2073211Y-20195807D01*
X2157255Y-20402784D01*
X2181084Y-20441670D01*
X2271280Y-20588856D01*
X2273976Y-20593256D01*
X2420239Y-20762106D01*
X2592115Y-20904800D01*
X2664967Y-20947371D01*
X2665944Y-20947942D01*
X2714668Y-20999580D01*
X2727739Y-21069363D01*
X2701008Y-21135135D01*
X2660551Y-21168495D01*
X2652446Y-21172714D01*
X2643727Y-21178204D01*
X2473422Y-21306073D01*
X2465715Y-21312916D01*
X2318579Y-21466885D01*
X2312093Y-21474895D01*
X2192087Y-21650817D01*
X2186989Y-21659791D01*
X2097327Y-21852951D01*
X2093764Y-21862638D01*
X2038378Y-22062351D01*
X2039901Y-22070775D01*
X2052281Y-22074168D01*
X4692333Y-22074168D01*
X4705864Y-22070195D01*
X4707169Y-22061115D01*
X4665203Y-21894043D01*
X4661883Y-21884292D01*
X4576961Y-21688982D01*
X4572094Y-21679907D01*
X4456415Y-21501094D01*
X4450125Y-21492925D01*
X4306795Y-21335408D01*
X4299262Y-21328383D01*
X4132128Y-21196390D01*
X4123545Y-21190688D01*
X4086591Y-21170288D01*
X4036620Y-21119855D01*
X4021848Y-21050413D01*
X4046964Y-20984007D01*
X4074316Y-20957400D01*
X4097786Y-20940659D01*
X4253849Y-20829341D01*
X4412085Y-20671657D01*
X4471583Y-20588857D01*
X4539424Y-20494445D01*
X4542442Y-20490245D01*
X4546600Y-20481833D01*
X4639125Y-20294621D01*
X4639126Y-20294619D01*
X4641419Y-20289979D01*
X4706359Y-20076237D01*
X4735518Y-19854758D01*
X4737145Y-19788168D01*
X4718841Y-19565529D01*
X4664420Y-19348870D01*
X4575343Y-19144008D01*
X4454003Y-18956445D01*
X4303659Y-18791219D01*
X4299608Y-18788020D01*
X4299604Y-18788016D01*
X4132403Y-18655968D01*
X4132399Y-18655966D01*
X4128348Y-18652766D01*
X4087042Y-18629964D01*
X4037073Y-18579532D01*
X4022301Y-18510089D01*
X4047417Y-18443684D01*
X4074769Y-18417077D01*
X4118592Y-18385818D01*
X4253849Y-18289341D01*
X4280937Y-18262348D01*
X4408424Y-18135305D01*
X4412085Y-18131657D01*
X4415101Y-18127460D01*
X4461318Y-18063142D01*
X4517313Y-18019494D01*
X4563641Y-18010668D01*
X7611030Y-18010668D01*
X7679151Y-18030670D01*
X7698952Y-18046414D01*
X7705976Y-18053256D01*
X7767638Y-18113325D01*
X7772434Y-18116530D01*
X7772437Y-18116532D01*
X7800533Y-18135305D01*
X7937031Y-18226510D01*
X7942334Y-18228788D01*
X7942337Y-18228790D01*
X8083273Y-18289341D01*
X8124215Y-18306931D01*
X8197045Y-18323411D01*
X8317283Y-18350618D01*
X8317288Y-18350619D01*
X8322920Y-18351893D01*
X8328691Y-18352120D01*
X8328693Y-18352120D01*
X8391698Y-18354595D01*
X8526491Y-18359891D01*
X8728111Y-18330658D01*
X8733575Y-18328803D01*
X8733580Y-18328802D01*
X8915555Y-18267030D01*
X8915560Y-18267028D01*
X8921027Y-18265172D01*
X9098779Y-18165626D01*
X9255414Y-18035354D01*
X9385686Y-17878719D01*
X9485232Y-17700967D01*
X9487088Y-17695500D01*
X9487090Y-17695495D01*
X9548862Y-17513520D01*
X9548863Y-17513515D01*
X9550718Y-17508051D01*
X9579951Y-17306431D01*
X9581477Y-17248168D01*
X9578417Y-17214863D01*
X11192240Y-17214863D01*
X11192537Y-17220016D01*
X11192537Y-17220019D01*
X11198000Y-17314758D01*
X11205099Y-17437883D01*
X11206236Y-17442929D01*
X11206237Y-17442935D01*
X11220912Y-17508051D01*
X11254211Y-17655807D01*
X11338255Y-17862784D01*
X11389008Y-17945606D01*
X11446268Y-18039045D01*
X11454976Y-18053256D01*
X11601239Y-18222106D01*
X11704947Y-18308206D01*
X11766204Y-18359062D01*
X11773115Y-18364800D01*
X11846434Y-18407644D01*
X11846944Y-18407942D01*
X11895668Y-18459580D01*
X11908739Y-18529363D01*
X11882008Y-18595135D01*
X11841551Y-18628495D01*
X11833446Y-18632714D01*
X11824727Y-18638204D01*
X11654422Y-18766073D01*
X11646715Y-18772916D01*
X11499579Y-18926885D01*
X11493093Y-18934895D01*
X11373087Y-19110817D01*
X11367989Y-19119791D01*
X11278327Y-19312951D01*
X11274764Y-19322638D01*
X11219378Y-19522351D01*
X11220901Y-19530775D01*
X11233281Y-19534168D01*
X13873333Y-19534168D01*
X13886864Y-19530195D01*
X13888169Y-19521115D01*
X13846203Y-19354043D01*
X13842883Y-19344292D01*
X13757961Y-19148982D01*
X13753094Y-19139907D01*
X13637415Y-18961094D01*
X13631125Y-18952925D01*
X13487795Y-18795408D01*
X13480262Y-18788383D01*
X13313128Y-18656390D01*
X13304545Y-18650688D01*
X13267591Y-18630288D01*
X13217620Y-18579855D01*
X13202848Y-18510413D01*
X13227964Y-18444007D01*
X13255316Y-18417400D01*
X13278786Y-18400659D01*
X13434849Y-18289341D01*
X13461937Y-18262348D01*
X13589424Y-18135305D01*
X13593085Y-18131657D01*
X13603954Y-18116532D01*
X13720424Y-17954445D01*
X13723442Y-17950245D01*
X13761287Y-17873672D01*
X13820125Y-17754621D01*
X13820126Y-17754619D01*
X13822419Y-17749979D01*
X13887359Y-17536237D01*
X13916518Y-17314758D01*
X13916632Y-17310105D01*
X13918063Y-17251533D01*
X13918063Y-17251529D01*
X13918145Y-17248168D01*
X13899841Y-17025529D01*
X13845420Y-16808870D01*
X13756343Y-16604008D01*
X13688632Y-16499343D01*
X13637811Y-16420785D01*
X13637809Y-16420782D01*
X13635003Y-16416445D01*
X13631521Y-16412618D01*
X13487787Y-16254656D01*
X13456735Y-16190810D01*
X13465130Y-16120311D01*
X13510306Y-16065543D01*
X13536750Y-16051874D01*
X13643286Y-16011935D01*
X13651694Y-16008783D01*
X13768250Y-15921429D01*
X13855604Y-15804873D01*
X13906734Y-15668484D01*
X13913489Y-15606302D01*
X13913489Y-15103732D01*
X13933491Y-15035611D01*
X13987147Y-14989118D01*
X14057421Y-14979014D01*
X14122001Y-15008508D01*
X14148090Y-15039842D01*
X14156308Y-15053811D01*
X14157982Y-15056745D01*
X14195037Y-15123787D01*
X14199956Y-15129206D01*
X14200678Y-15130215D01*
X14201148Y-15130938D01*
X14202235Y-15132415D01*
X14202691Y-15132965D01*
X14203529Y-15134072D01*
X14207241Y-15140382D01*
X14260631Y-15196116D01*
X14262891Y-15198540D01*
X14314463Y-15255355D01*
X14318909Y-15258775D01*
X14323372Y-15262208D01*
X14323359Y-15262224D01*
X14325666Y-15264007D01*
X14330157Y-15268695D01*
X14336305Y-15272677D01*
X14398955Y-15313255D01*
X14400944Y-15314570D01*
X16307670Y-16601622D01*
X16331828Y-16617929D01*
X16347985Y-16630889D01*
X16359423Y-16641724D01*
X16410650Y-16671479D01*
X16417846Y-16675991D01*
X16429539Y-16683884D01*
X16432780Y-16685562D01*
X16432787Y-16685566D01*
X16449518Y-16694227D01*
X16454876Y-16697168D01*
X16494457Y-16720158D01*
X16513071Y-16730970D01*
X16520072Y-16733090D01*
X16520851Y-16733429D01*
X16540234Y-16741303D01*
X16541059Y-16741615D01*
X16547559Y-16744980D01*
X16591803Y-16756069D01*
X16612830Y-16761339D01*
X16618720Y-16762968D01*
X16676125Y-16780354D01*
X16676127Y-16780354D01*
X16683129Y-16782475D01*
X16690437Y-16782928D01*
X16691286Y-16783081D01*
X16711970Y-16786287D01*
X16712811Y-16786397D01*
X16719915Y-16788177D01*
X16787234Y-16789081D01*
X16793331Y-16789312D01*
X16860475Y-16793477D01*
X16867696Y-16792236D01*
X16868567Y-16792189D01*
X16889438Y-16790550D01*
X16890266Y-16790465D01*
X16897586Y-16790563D01*
X16963302Y-16775957D01*
X16969285Y-16774780D01*
X17035595Y-16763386D01*
X17042327Y-16760521D01*
X17043144Y-16760281D01*
X17063072Y-16753887D01*
X17063892Y-16753602D01*
X17071041Y-16752013D01*
X17077630Y-16748824D01*
X17077637Y-16748821D01*
X17131619Y-16722689D01*
X17137187Y-16720158D01*
X17192357Y-16696684D01*
X17192364Y-16696680D01*
X17199095Y-16693816D01*
X17204994Y-16689475D01*
X17205760Y-16689038D01*
X17223676Y-16678234D01*
X17224384Y-16677783D01*
X17230974Y-16674593D01*
X17283206Y-16632100D01*
X17287975Y-16628408D01*
X17342206Y-16588498D01*
X17346950Y-16582914D01*
X17348554Y-16581418D01*
X17412015Y-16549587D01*
X17482611Y-16557119D01*
X17537929Y-16601622D01*
X17560488Y-16673567D01*
X17560488Y-23919719D01*
X17540486Y-23987840D01*
X17486830Y-24034333D01*
X17416556Y-24044437D01*
X17348961Y-24012245D01*
X17319453Y-23984968D01*
X17216039Y-23919719D01*
X17152038Y-23879337D01*
X17152033Y-23879335D01*
X17147154Y-23876256D01*
X16957930Y-23800763D01*
X16758116Y-23761017D01*
X16752342Y-23760941D01*
X16752338Y-23760941D01*
X16649202Y-23759592D01*
X16554405Y-23758351D01*
X16548708Y-23759330D01*
X16548707Y-23759330D01*
X16359317Y-23791873D01*
X16353620Y-23792852D01*
X16162484Y-23863366D01*
X15987399Y-23967531D01*
X15834228Y-24101858D01*
X15830661Y-24106383D01*
X15830656Y-24106388D01*
X15772884Y-24179672D01*
X15708101Y-24261849D01*
X15705412Y-24266960D01*
X15705410Y-24266963D01*
X15666397Y-24341115D01*
X15613242Y-24442146D01*
X15552828Y-24636711D01*
X15528882Y-24839027D01*
X15542207Y-25042319D01*
X15592355Y-25239778D01*
X15677648Y-25424792D01*
X15795229Y-25591165D01*
X15941160Y-25733325D01*
X15945956Y-25736530D01*
X15945959Y-25736532D01*
X16019434Y-25785626D01*
X16110553Y-25846510D01*
X16115856Y-25848788D01*
X16115859Y-25848790D01*
X16256795Y-25909341D01*
X16297737Y-25926931D01*
X16370567Y-25943411D01*
X16490805Y-25970618D01*
X16490810Y-25970619D01*
X16496442Y-25971893D01*
X16502213Y-25972120D01*
X16502215Y-25972120D01*
X16565220Y-25974595D01*
X16700013Y-25979891D01*
X16901633Y-25950658D01*
X16907097Y-25948803D01*
X16907102Y-25948802D01*
X17089077Y-25887030D01*
X17089082Y-25887028D01*
X17094549Y-25885172D01*
X17272301Y-25785626D01*
X17428936Y-25655354D01*
X17559208Y-25498719D01*
X17562024Y-25493691D01*
X17562030Y-25493682D01*
X17585232Y-25452251D01*
X17635969Y-25402590D01*
X17691207Y-25387880D01*
X17740506Y-25386330D01*
X17751975Y-25385970D01*
X17755933Y-25385908D01*
X17783844Y-25385908D01*
X17787779Y-25385411D01*
X17787844Y-25385403D01*
X17799681Y-25384470D01*
X17831939Y-25383456D01*
X17835958Y-25383330D01*
X17843877Y-25383081D01*
X17863331Y-25377429D01*
X17882688Y-25373421D01*
X17894918Y-25371876D01*
X17894919Y-25371876D01*
X17902785Y-25370882D01*
X17938104Y-25356898D01*
X18008804Y-25350419D01*
X18071784Y-25383191D01*
X18107048Y-25444810D01*
X18110488Y-25474050D01*
X18110488Y-26487813D01*
X18090486Y-26555934D01*
X18073583Y-26576908D01*
X17968488Y-26682003D01*
X17906176Y-26716029D01*
X17879393Y-26718908D01*
X17573775Y-26718908D01*
X17505654Y-26698906D01*
X17476685Y-26671901D01*
X17476376Y-26672179D01*
X17473208Y-26668660D01*
X17472817Y-26668296D01*
X17472512Y-26667887D01*
X17472505Y-26667880D01*
X17469055Y-26663259D01*
X17351486Y-26554579D01*
X17323693Y-26528887D01*
X17323690Y-26528885D01*
X17319453Y-26524968D01*
X17260566Y-26487813D01*
X17152038Y-26419337D01*
X17152033Y-26419335D01*
X17147154Y-26416256D01*
X16957930Y-26340763D01*
X16758116Y-26301017D01*
X16752342Y-26300941D01*
X16752338Y-26300941D01*
X16649202Y-26299592D01*
X16554405Y-26298351D01*
X16548708Y-26299330D01*
X16548707Y-26299330D01*
X16359317Y-26331873D01*
X16353620Y-26332852D01*
X16162484Y-26403366D01*
X15987399Y-26507531D01*
X15834228Y-26641858D01*
X15830661Y-26646383D01*
X15830656Y-26646388D01*
X15769071Y-26724509D01*
X15708101Y-26801849D01*
X15705412Y-26806960D01*
X15705410Y-26806963D01*
X15683219Y-26849142D01*
X15613242Y-26982146D01*
X15552828Y-27176711D01*
X15528882Y-27379027D01*
X15542207Y-27582319D01*
X15592355Y-27779778D01*
X15677648Y-27964792D01*
X15795229Y-28131165D01*
X15941160Y-28273325D01*
X15945956Y-28276530D01*
X15945959Y-28276532D01*
X15974055Y-28295305D01*
X16110553Y-28386510D01*
X16115856Y-28388788D01*
X16115859Y-28388790D01*
X16256795Y-28449341D01*
X16297737Y-28466931D01*
X16370567Y-28483411D01*
X16490805Y-28510618D01*
X16490810Y-28510619D01*
X16496442Y-28511893D01*
X16502213Y-28512120D01*
X16502215Y-28512120D01*
X16565220Y-28514595D01*
X16700013Y-28519891D01*
X16901633Y-28490658D01*
X16907097Y-28488803D01*
X16907102Y-28488802D01*
X17089077Y-28427030D01*
X17089082Y-28427028D01*
X17094549Y-28425172D01*
X17272301Y-28325626D01*
X17428936Y-28195354D01*
X17559208Y-28038719D01*
X17559379Y-28038861D01*
X17612381Y-27995731D01*
X17661154Y-27985908D01*
X18115221Y-27985908D01*
X18126404Y-27986435D01*
X18133897Y-27988110D01*
X18141823Y-27987861D01*
X18141824Y-27987861D01*
X18201974Y-27985970D01*
X18205933Y-27985908D01*
X18233844Y-27985908D01*
X18237779Y-27985411D01*
X18237844Y-27985403D01*
X18249681Y-27984470D01*
X18281939Y-27983456D01*
X18285958Y-27983330D01*
X18293877Y-27983081D01*
X18313331Y-27977429D01*
X18332688Y-27973421D01*
X18344918Y-27971876D01*
X18344919Y-27971876D01*
X18352785Y-27970882D01*
X18360156Y-27967963D01*
X18360158Y-27967963D01*
X18393900Y-27954604D01*
X18405130Y-27950759D01*
X18439971Y-27940637D01*
X18439972Y-27940637D01*
X18447581Y-27938426D01*
X18454400Y-27934393D01*
X18454405Y-27934391D01*
X18465016Y-27928115D01*
X18482764Y-27919420D01*
X18501605Y-27911960D01*
X18511151Y-27905025D01*
X18537375Y-27885972D01*
X18547295Y-27879456D01*
X18578523Y-27860988D01*
X18578526Y-27860986D01*
X18585350Y-27856950D01*
X18595393Y-27846907D01*
X18657705Y-27812881D01*
X18728520Y-27817946D01*
X18785356Y-27860493D01*
X18810167Y-27927013D01*
X18810488Y-27936002D01*
X18810488Y-28737813D01*
X18790486Y-28805934D01*
X18773583Y-28826909D01*
X18322727Y-29277764D01*
X18260415Y-29311789D01*
X18233632Y-29314668D01*
X17615413Y-29314668D01*
X17547292Y-29294666D01*
X17514455Y-29264057D01*
X17472508Y-29207883D01*
X17472507Y-29207882D01*
X17469055Y-29203259D01*
X17349208Y-29092473D01*
X17323693Y-29068887D01*
X17323690Y-29068885D01*
X17319453Y-29064968D01*
X17242777Y-29016589D01*
X17152038Y-28959337D01*
X17152033Y-28959335D01*
X17147154Y-28956256D01*
X16957930Y-28880763D01*
X16758116Y-28841017D01*
X16752342Y-28840941D01*
X16752338Y-28840941D01*
X16649202Y-28839592D01*
X16554405Y-28838351D01*
X16548708Y-28839330D01*
X16548707Y-28839330D01*
X16359317Y-28871873D01*
X16353620Y-28872852D01*
X16162484Y-28943366D01*
X16157523Y-28946318D01*
X16157522Y-28946318D01*
X16039408Y-29016589D01*
X15987399Y-29047531D01*
X15834228Y-29181858D01*
X15830661Y-29186383D01*
X15830656Y-29186388D01*
X15772884Y-29259672D01*
X15708101Y-29341849D01*
X15613242Y-29522146D01*
X15552828Y-29716711D01*
X15528882Y-29919027D01*
X15542207Y-30122319D01*
X15592355Y-30319778D01*
X15677648Y-30504792D01*
X15795229Y-30671165D01*
X15799363Y-30675192D01*
X15909295Y-30782283D01*
X15941160Y-30813325D01*
X15945956Y-30816530D01*
X15945959Y-30816532D01*
X15974055Y-30835305D01*
X16110553Y-30926510D01*
X16115856Y-30928788D01*
X16115859Y-30928790D01*
X16292430Y-31004651D01*
X16297737Y-31006931D01*
X16370567Y-31023411D01*
X16490805Y-31050618D01*
X16490810Y-31050619D01*
X16496442Y-31051893D01*
X16502213Y-31052120D01*
X16502215Y-31052120D01*
X16565220Y-31054595D01*
X16700013Y-31059891D01*
X16901633Y-31030658D01*
X16907097Y-31028803D01*
X16907102Y-31028802D01*
X17089077Y-30967030D01*
X17089082Y-30967028D01*
X17094549Y-30965172D01*
X17272301Y-30865626D01*
X17428936Y-30735354D01*
X17479612Y-30674423D01*
X17518971Y-30627099D01*
X17577909Y-30587515D01*
X17615845Y-30581668D01*
X18469461Y-30581668D01*
X18480644Y-30582195D01*
X18488137Y-30583870D01*
X18496063Y-30583621D01*
X18496064Y-30583621D01*
X18556214Y-30581730D01*
X18560173Y-30581668D01*
X18588084Y-30581668D01*
X18592019Y-30581171D01*
X18592084Y-30581163D01*
X18603926Y-30580230D01*
X18609777Y-30580046D01*
X18628511Y-30579458D01*
X18697226Y-30597312D01*
X18745380Y-30649482D01*
X18755611Y-30716545D01*
X18757257Y-30716597D01*
X18757008Y-30724522D01*
X18755768Y-30732351D01*
X18756514Y-30740243D01*
X18759929Y-30776369D01*
X18760488Y-30788227D01*
X18760488Y-31437813D01*
X18740486Y-31505934D01*
X18723583Y-31526909D01*
X18432727Y-31817764D01*
X18370415Y-31851789D01*
X18343632Y-31854668D01*
X17615413Y-31854668D01*
X17547292Y-31834666D01*
X17514455Y-31804057D01*
X17472508Y-31747883D01*
X17472507Y-31747882D01*
X17469055Y-31743259D01*
X17351486Y-31634579D01*
X17323693Y-31608887D01*
X17323690Y-31608885D01*
X17319453Y-31604968D01*
X17273425Y-31575927D01*
X17152038Y-31499337D01*
X17152033Y-31499335D01*
X17147154Y-31496256D01*
X16957930Y-31420763D01*
X16758116Y-31381017D01*
X16752342Y-31380941D01*
X16752338Y-31380941D01*
X16649202Y-31379592D01*
X16554405Y-31378351D01*
X16548708Y-31379330D01*
X16548707Y-31379330D01*
X16359317Y-31411873D01*
X16353620Y-31412852D01*
X16162484Y-31483366D01*
X16157523Y-31486318D01*
X16157522Y-31486318D01*
X16151327Y-31490004D01*
X15987399Y-31587531D01*
X15834228Y-31721858D01*
X15830661Y-31726383D01*
X15830656Y-31726388D01*
X15760920Y-31814848D01*
X15708101Y-31881849D01*
X15705412Y-31886960D01*
X15705410Y-31886963D01*
X15680662Y-31934001D01*
X15613242Y-32062146D01*
X15552828Y-32256711D01*
X15528882Y-32459027D01*
X15542207Y-32662319D01*
X15592355Y-32859778D01*
X15677648Y-33044792D01*
X15795229Y-33211165D01*
X15941160Y-33353325D01*
X15945956Y-33356530D01*
X15945959Y-33356532D01*
X15974055Y-33375305D01*
X16110553Y-33466510D01*
X16115856Y-33468788D01*
X16115859Y-33468790D01*
X16256795Y-33529341D01*
X16297737Y-33546931D01*
X16370567Y-33563411D01*
X16490805Y-33590618D01*
X16490810Y-33590619D01*
X16496442Y-33591893D01*
X16502213Y-33592120D01*
X16502215Y-33592120D01*
X16565220Y-33594595D01*
X16700013Y-33599891D01*
X16901633Y-33570658D01*
X16907097Y-33568803D01*
X16907102Y-33568802D01*
X17089077Y-33507030D01*
X17089082Y-33507028D01*
X17094549Y-33505172D01*
X17272301Y-33405626D01*
X17428936Y-33275354D01*
X17478972Y-33215192D01*
X17518971Y-33167099D01*
X17577909Y-33127515D01*
X17615845Y-33121668D01*
X18579461Y-33121668D01*
X18590644Y-33122195D01*
X18598137Y-33123870D01*
X18606063Y-33123621D01*
X18606064Y-33123621D01*
X18666214Y-33121730D01*
X18670173Y-33121668D01*
X18698084Y-33121668D01*
X18702019Y-33121171D01*
X18702084Y-33121163D01*
X18713921Y-33120230D01*
X18746179Y-33119216D01*
X18750198Y-33119090D01*
X18758117Y-33118841D01*
X18777571Y-33113189D01*
X18796928Y-33109181D01*
X18809158Y-33107636D01*
X18809159Y-33107636D01*
X18817025Y-33106642D01*
X18824396Y-33103723D01*
X18824398Y-33103723D01*
X18858140Y-33090364D01*
X18869370Y-33086519D01*
X18904211Y-33076397D01*
X18904212Y-33076397D01*
X18911821Y-33074186D01*
X18918640Y-33070153D01*
X18918645Y-33070151D01*
X18929256Y-33063875D01*
X18947004Y-33055180D01*
X18965845Y-33047720D01*
X18977095Y-33039547D01*
X19001615Y-33021732D01*
X19011535Y-33015216D01*
X19042763Y-32996748D01*
X19042766Y-32996746D01*
X19049590Y-32992710D01*
X19063911Y-32978389D01*
X19078945Y-32965548D01*
X19088921Y-32958300D01*
X19088922Y-32958299D01*
X19095335Y-32953640D01*
X19123516Y-32919575D01*
X19131506Y-32910794D01*
X19786246Y-32256055D01*
X19794525Y-32248521D01*
X19801006Y-32244408D01*
X19847632Y-32194756D01*
X19850386Y-32191915D01*
X19870123Y-32172178D01*
X19872603Y-32168981D01*
X19880308Y-32159959D01*
X19888965Y-32150740D01*
X19910574Y-32127729D01*
X19914393Y-32120783D01*
X19914395Y-32120780D01*
X19920336Y-32109974D01*
X19931187Y-32093455D01*
X19938746Y-32083709D01*
X19943602Y-32077449D01*
X19946747Y-32070180D01*
X19946750Y-32070176D01*
X19961162Y-32036871D01*
X19966379Y-32026221D01*
X19987683Y-31987468D01*
X19992721Y-31967845D01*
X19999125Y-31949142D01*
X20004021Y-31937828D01*
X20004021Y-31937827D01*
X20007169Y-31930553D01*
X20008408Y-31922730D01*
X20008411Y-31922720D01*
X20014087Y-31886884D01*
X20016493Y-31875264D01*
X20025516Y-31840119D01*
X20025516Y-31840118D01*
X20027488Y-31832438D01*
X20027488Y-31812184D01*
X20029039Y-31792473D01*
X20030968Y-31780294D01*
X20032208Y-31772465D01*
X20028047Y-31728446D01*
X20027488Y-31716589D01*
X20027488Y-31067003D01*
X20047490Y-30998882D01*
X20064393Y-30977907D01*
X20391139Y-30651162D01*
X20453451Y-30617137D01*
X20524267Y-30622202D01*
X20581102Y-30664749D01*
X20587667Y-30674423D01*
X20635976Y-30753256D01*
X20782239Y-30922106D01*
X20885947Y-31008206D01*
X20947204Y-31059062D01*
X20954115Y-31064800D01*
X21024584Y-31105979D01*
X21027434Y-31107644D01*
X21076158Y-31159282D01*
X21089229Y-31229065D01*
X21062498Y-31294837D01*
X21022044Y-31328195D01*
X21009596Y-31334675D01*
X21005463Y-31337778D01*
X21005460Y-31337780D01*
X20835089Y-31465698D01*
X20830954Y-31468803D01*
X20827382Y-31472541D01*
X20700832Y-31604968D01*
X20676618Y-31630306D01*
X20550732Y-31814848D01*
X20511912Y-31898478D01*
X20461453Y-32007185D01*
X20456677Y-32017473D01*
X20396978Y-32232738D01*
X20373240Y-32454863D01*
X20373537Y-32460016D01*
X20373537Y-32460019D01*
X20379000Y-32554758D01*
X20386099Y-32677883D01*
X20387236Y-32682929D01*
X20387237Y-32682935D01*
X20407108Y-32771107D01*
X20435211Y-32895807D01*
X20493577Y-33039547D01*
X20512651Y-33086519D01*
X20519255Y-33102784D01*
X20534410Y-33127515D01*
X20627268Y-33279045D01*
X20635976Y-33293256D01*
X20782239Y-33462106D01*
X20885947Y-33548206D01*
X20947204Y-33599062D01*
X20954115Y-33604800D01*
X21146989Y-33717506D01*
X21355681Y-33797198D01*
X21360749Y-33798229D01*
X21360752Y-33798230D01*
X21468006Y-33820051D01*
X21574586Y-33841735D01*
X21579761Y-33841925D01*
X21579763Y-33841925D01*
X21792662Y-33849732D01*
X21792666Y-33849732D01*
X21797826Y-33849921D01*
X21802946Y-33849265D01*
X21802948Y-33849265D01*
X22014277Y-33822193D01*
X22014278Y-33822193D01*
X22019405Y-33821536D01*
X22024355Y-33820051D01*
X22228418Y-33758829D01*
X22228423Y-33758827D01*
X22233373Y-33757342D01*
X22433983Y-33659064D01*
X22615849Y-33529341D01*
X22642937Y-33502348D01*
X22770424Y-33375305D01*
X22774085Y-33371657D01*
X22784954Y-33356532D01*
X22901424Y-33194445D01*
X22904442Y-33190245D01*
X22908134Y-33182776D01*
X23001125Y-32994621D01*
X23001126Y-32994619D01*
X23003419Y-32989979D01*
X23068359Y-32776237D01*
X23097518Y-32554758D01*
X23099145Y-32488168D01*
X23080841Y-32265529D01*
X23026420Y-32048870D01*
X22937343Y-31844008D01*
X22843076Y-31698293D01*
X22818811Y-31660785D01*
X22818809Y-31660782D01*
X22816003Y-31656445D01*
X22665659Y-31491219D01*
X22661608Y-31488020D01*
X22661604Y-31488016D01*
X22494403Y-31355968D01*
X22494399Y-31355966D01*
X22490348Y-31352766D01*
X22449042Y-31329964D01*
X22399073Y-31279532D01*
X22384301Y-31210089D01*
X22409417Y-31143684D01*
X22436769Y-31117077D01*
X22480592Y-31085818D01*
X22615849Y-30989341D01*
X22642937Y-30962348D01*
X22770424Y-30835305D01*
X22774085Y-30831657D01*
X22784954Y-30816532D01*
X22901424Y-30654445D01*
X22904442Y-30650245D01*
X22915882Y-30627099D01*
X23001125Y-30454621D01*
X23001126Y-30454619D01*
X23003419Y-30449979D01*
X23068359Y-30236237D01*
X23097518Y-30014758D01*
X23099145Y-29948168D01*
X23080841Y-29725529D01*
X23026420Y-29508870D01*
X22937343Y-29304008D01*
X22842316Y-29157118D01*
X22818811Y-29120785D01*
X22818809Y-29120782D01*
X22816003Y-29116445D01*
X22665659Y-28951219D01*
X22661608Y-28948020D01*
X22661604Y-28948016D01*
X22494403Y-28815968D01*
X22494399Y-28815966D01*
X22490348Y-28812766D01*
X22449042Y-28789964D01*
X22399073Y-28739532D01*
X22384301Y-28670089D01*
X22409417Y-28603684D01*
X22436769Y-28577077D01*
X22480592Y-28545818D01*
X22615849Y-28449341D01*
X22642937Y-28422348D01*
X22770424Y-28295305D01*
X22774085Y-28291657D01*
X22784954Y-28276532D01*
X22901424Y-28114445D01*
X22904442Y-28110245D01*
X22908134Y-28102776D01*
X23001125Y-27914621D01*
X23001126Y-27914619D01*
X23003419Y-27909979D01*
X23068359Y-27696237D01*
X23097518Y-27474758D01*
X23099145Y-27408168D01*
X23080841Y-27185529D01*
X23026420Y-26968870D01*
X22937343Y-26764008D01*
X22845819Y-26622533D01*
X22818811Y-26580785D01*
X22818809Y-26580782D01*
X22816003Y-26576445D01*
X22665659Y-26411219D01*
X22661608Y-26408020D01*
X22661604Y-26408016D01*
X22494403Y-26275968D01*
X22494399Y-26275966D01*
X22490348Y-26272766D01*
X22449042Y-26249964D01*
X22399073Y-26199532D01*
X22384301Y-26130089D01*
X22409417Y-26063684D01*
X22436769Y-26037077D01*
X22480592Y-26005818D01*
X22615849Y-25909341D01*
X22642937Y-25882348D01*
X22727551Y-25798029D01*
X22774085Y-25751657D01*
X22784954Y-25736532D01*
X22901424Y-25574445D01*
X22904442Y-25570245D01*
X22908600Y-25561833D01*
X23001125Y-25374621D01*
X23001126Y-25374619D01*
X23003419Y-25369979D01*
X23068359Y-25156237D01*
X23097518Y-24934758D01*
X23097632Y-24930105D01*
X23099063Y-24871533D01*
X23099063Y-24871529D01*
X23099145Y-24868168D01*
X23080841Y-24645529D01*
X23026420Y-24428870D01*
X22937343Y-24224008D01*
X22855859Y-24098053D01*
X22818811Y-24040785D01*
X22818809Y-24040782D01*
X22816003Y-24036445D01*
X22665659Y-23871219D01*
X22661608Y-23868020D01*
X22661604Y-23868016D01*
X22494403Y-23735968D01*
X22494399Y-23735966D01*
X22490348Y-23732766D01*
X22449042Y-23709964D01*
X22399073Y-23659532D01*
X22384301Y-23590089D01*
X22409417Y-23523684D01*
X22436769Y-23497077D01*
X22480592Y-23465818D01*
X22615849Y-23369341D01*
X22642937Y-23342348D01*
X22770424Y-23215305D01*
X22774085Y-23211657D01*
X22784954Y-23196532D01*
X22901424Y-23034445D01*
X22904442Y-23030245D01*
X22942287Y-22953672D01*
X23001125Y-22834621D01*
X23001126Y-22834619D01*
X23003419Y-22829979D01*
X23068359Y-22616237D01*
X23097518Y-22394758D01*
X23097632Y-22390105D01*
X23099063Y-22331533D01*
X23099063Y-22331529D01*
X23099145Y-22328168D01*
X23080841Y-22105529D01*
X23026420Y-21888870D01*
X22937343Y-21684008D01*
X22816003Y-21496445D01*
X22665659Y-21331219D01*
X22661608Y-21328020D01*
X22661604Y-21328016D01*
X22494403Y-21195968D01*
X22494399Y-21195966D01*
X22490348Y-21192766D01*
X22449042Y-21169964D01*
X22399073Y-21119532D01*
X22384301Y-21050089D01*
X22409417Y-20983684D01*
X22436769Y-20957077D01*
X22480592Y-20925818D01*
X22615849Y-20829341D01*
X22774085Y-20671657D01*
X22833583Y-20588857D01*
X22901424Y-20494445D01*
X22904442Y-20490245D01*
X22908600Y-20481833D01*
X23001125Y-20294621D01*
X23001126Y-20294619D01*
X23003419Y-20289979D01*
X23068359Y-20076237D01*
X23097518Y-19854758D01*
X23099145Y-19788168D01*
X23080841Y-19565529D01*
X23026420Y-19348870D01*
X22937343Y-19144008D01*
X22816003Y-18956445D01*
X22665659Y-18791219D01*
X22661608Y-18788020D01*
X22661604Y-18788016D01*
X22494403Y-18655968D01*
X22494399Y-18655966D01*
X22490348Y-18652766D01*
X22449042Y-18629964D01*
X22399073Y-18579532D01*
X22384301Y-18510089D01*
X22409417Y-18443684D01*
X22436769Y-18417077D01*
X22480592Y-18385818D01*
X22615849Y-18289341D01*
X22642937Y-18262348D01*
X22770424Y-18135305D01*
X22774085Y-18131657D01*
X22784954Y-18116532D01*
X22901424Y-17954445D01*
X22904442Y-17950245D01*
X22942287Y-17873672D01*
X23001125Y-17754621D01*
X23001126Y-17754619D01*
X23003419Y-17749979D01*
X23068359Y-17536237D01*
X23097518Y-17314758D01*
X23097632Y-17310105D01*
X23099063Y-17251533D01*
X23099063Y-17251529D01*
X23099145Y-17248168D01*
X23080841Y-17025529D01*
X23026420Y-16808870D01*
X22937343Y-16604008D01*
X22869632Y-16499343D01*
X22818811Y-16420785D01*
X22818809Y-16420782D01*
X22816003Y-16416445D01*
X22665659Y-16251219D01*
X22661608Y-16248020D01*
X22661604Y-16248016D01*
X22494403Y-16115968D01*
X22494399Y-16115966D01*
X22490348Y-16112766D01*
X22449042Y-16089964D01*
X22399073Y-16039532D01*
X22384301Y-15970089D01*
X22409417Y-15903684D01*
X22436769Y-15877077D01*
X22480592Y-15845818D01*
X22615849Y-15749341D01*
X22774085Y-15591657D01*
X22829304Y-15514812D01*
X22901424Y-15414445D01*
X22904442Y-15410245D01*
X22908600Y-15401833D01*
X23001125Y-15214621D01*
X23001126Y-15214619D01*
X23003419Y-15209979D01*
X23068359Y-14996237D01*
X23097518Y-14774758D01*
X23099145Y-14708168D01*
X23080841Y-14485529D01*
X23026420Y-14268870D01*
X22937343Y-14064008D01*
X22816003Y-13876445D01*
X22665659Y-13711219D01*
X22661608Y-13708020D01*
X22661604Y-13708016D01*
X22494403Y-13575968D01*
X22494399Y-13575966D01*
X22490348Y-13572766D01*
X22294778Y-13464806D01*
X22289909Y-13463082D01*
X22289905Y-13463080D01*
X22089076Y-13391963D01*
X22089072Y-13391962D01*
X22084201Y-13390237D01*
X22079108Y-13389330D01*
X22079105Y-13389329D01*
X21869362Y-13351968D01*
X21869356Y-13351967D01*
X21864273Y-13351062D01*
X21790441Y-13350160D01*
X21646070Y-13348396D01*
X21646068Y-13348396D01*
X21640900Y-13348333D01*
X21420080Y-13382123D01*
X21207745Y-13451525D01*
X21009596Y-13554675D01*
X21005463Y-13557778D01*
X21005460Y-13557780D01*
X20835089Y-13685698D01*
X20830954Y-13688803D01*
X20676618Y-13850306D01*
X20673704Y-13854578D01*
X20673703Y-13854579D01*
X20561084Y-14019672D01*
X20506173Y-14064675D01*
X20456996Y-14074668D01*
X18853602Y-14074668D01*
X18826118Y-14071633D01*
X18812843Y-14068666D01*
X18811819Y-14068437D01*
X18811818Y-14068437D01*
X18804079Y-14066707D01*
X18796156Y-14066956D01*
X18796155Y-14066956D01*
X18796071Y-14066959D01*
X18795847Y-14066966D01*
X18772179Y-14065476D01*
X18764045Y-14064188D01*
X18756153Y-14064934D01*
X18756150Y-14064934D01*
X18708124Y-14069474D01*
X18700224Y-14069971D01*
X18653796Y-14071430D01*
X18644098Y-14071735D01*
X18636189Y-14074033D01*
X18612895Y-14078476D01*
X18612586Y-14078505D01*
X18612585Y-14078505D01*
X18604696Y-14079251D01*
X18597238Y-14081936D01*
X18551856Y-14098274D01*
X18544334Y-14100719D01*
X18490394Y-14116390D01*
X18483568Y-14120427D01*
X18483307Y-14120581D01*
X18461846Y-14130680D01*
X18454099Y-14133469D01*
X18427550Y-14151512D01*
X18407649Y-14165037D01*
X18400964Y-14169279D01*
X18352625Y-14197866D01*
X18346803Y-14203688D01*
X18328535Y-14218803D01*
X18321717Y-14223436D01*
X18316473Y-14229384D01*
X18316472Y-14229385D01*
X18284577Y-14265563D01*
X18279158Y-14271333D01*
X17801735Y-14748756D01*
X17793447Y-14756297D01*
X17786970Y-14760408D01*
X17785147Y-14762349D01*
X17722059Y-14789433D01*
X17652034Y-14777724D01*
X17599457Y-14730015D01*
X17580986Y-14664338D01*
X17580986Y-13400806D01*
X17582689Y-13380160D01*
X17584070Y-13371846D01*
X17585270Y-13364622D01*
X17584716Y-13356423D01*
X17581273Y-13305524D01*
X17580986Y-13297022D01*
X17580986Y-13282914D01*
X17578381Y-13260572D01*
X17577822Y-13254501D01*
X17573774Y-13194645D01*
X17573280Y-13187340D01*
X17571117Y-13180339D01*
X17570961Y-13179500D01*
X17566642Y-13159023D01*
X17566444Y-13158184D01*
X17565596Y-13150912D01*
X17542641Y-13087670D01*
X17540697Y-13081882D01*
X17522987Y-13024562D01*
X17522986Y-13024560D01*
X17520827Y-13017572D01*
X17517116Y-13011264D01*
X17516764Y-13010467D01*
X17507836Y-12991503D01*
X17507466Y-12990764D01*
X17504970Y-12983888D01*
X17468068Y-12927603D01*
X17464841Y-12922410D01*
X17434438Y-12870734D01*
X17430726Y-12864424D01*
X17425661Y-12859137D01*
X17425146Y-12858456D01*
X17412084Y-12842042D01*
X17411562Y-12841417D01*
X17407545Y-12835291D01*
X17358672Y-12788993D01*
X17354375Y-12784720D01*
X17307810Y-12736110D01*
X17301668Y-12732132D01*
X17300998Y-12731578D01*
X17284555Y-12718644D01*
X17283865Y-12718128D01*
X17278549Y-12713092D01*
X17220358Y-12679292D01*
X17215154Y-12676098D01*
X17182289Y-12654811D01*
X17158674Y-12639516D01*
X17151781Y-12637058D01*
X17150976Y-12636660D01*
X17132008Y-12627860D01*
X17131225Y-12627520D01*
X17124901Y-12623846D01*
X17060492Y-12604339D01*
X17054686Y-12602425D01*
X17031893Y-12594295D01*
X16991314Y-12579821D01*
X16984038Y-12579014D01*
X16983201Y-12578821D01*
X16962705Y-12574617D01*
X16961848Y-12574463D01*
X16954843Y-12572341D01*
X16947537Y-12571888D01*
X16947533Y-12571887D01*
X16887695Y-12568175D01*
X16881604Y-12567649D01*
X16828412Y-12561748D01*
X16814711Y-12560228D01*
X16807441Y-12561116D01*
X16806633Y-12561121D01*
X16785636Y-12561748D01*
X16784811Y-12561793D01*
X16777497Y-12561339D01*
X16711164Y-12572737D01*
X16705157Y-12573620D01*
X16638337Y-12581787D01*
X16631469Y-12584323D01*
X16630649Y-12584522D01*
X16610426Y-12589944D01*
X16609586Y-12590191D01*
X16602377Y-12591430D01*
X16540446Y-12617782D01*
X16534777Y-12620033D01*
X16513584Y-12627860D01*
X16471654Y-12643345D01*
X16461966Y-12649044D01*
X16460458Y-12650062D01*
X16451952Y-12654518D01*
X16445611Y-12658135D01*
X16438877Y-12661000D01*
X16414014Y-12679297D01*
X16381365Y-12703324D01*
X16377184Y-12706271D01*
X16133535Y-12870734D01*
X14445479Y-14010169D01*
X14429887Y-14019144D01*
X14413592Y-14027032D01*
X14413586Y-14027036D01*
X14407002Y-14030223D01*
X14401329Y-14034838D01*
X14401320Y-14034844D01*
X14368651Y-14061423D01*
X14359634Y-14068115D01*
X14355789Y-14070710D01*
X14341861Y-14082677D01*
X14331247Y-14091796D01*
X14328654Y-14093964D01*
X14269169Y-14142359D01*
X14264706Y-14148161D01*
X14263831Y-14149060D01*
X14263203Y-14149650D01*
X14261954Y-14150968D01*
X14261496Y-14151512D01*
X14260540Y-14152548D01*
X14254989Y-14157318D01*
X14250683Y-14163238D01*
X14250682Y-14163239D01*
X14209571Y-14219759D01*
X14207562Y-14222445D01*
X14160829Y-14283196D01*
X14157818Y-14289875D01*
X14157191Y-14290921D01*
X14156697Y-14291667D01*
X14155789Y-14293230D01*
X14155478Y-14293846D01*
X14154775Y-14295094D01*
X14150470Y-14301013D01*
X14148573Y-14305541D01*
X14098433Y-14354395D01*
X14028868Y-14368584D01*
X13962676Y-14342911D01*
X13920871Y-14285527D01*
X13913489Y-14243032D01*
X13913489Y-13810034D01*
X13906734Y-13747852D01*
X13855604Y-13611463D01*
X13768250Y-13494907D01*
X13651694Y-13407553D01*
X13515305Y-13356423D01*
X13453123Y-13349668D01*
X11656855Y-13349668D01*
X11594673Y-13356423D01*
X11458284Y-13407553D01*
X11341728Y-13494907D01*
X11254374Y-13611463D01*
X11203244Y-13747852D01*
X11196489Y-13810034D01*
X11196489Y-15606302D01*
X11203244Y-15668484D01*
X11254374Y-15804873D01*
X11341728Y-15921429D01*
X11458284Y-16008783D01*
X11466693Y-16011935D01*
X11466694Y-16011936D01*
X11575440Y-16052703D01*
X11632205Y-16095344D01*
X11656905Y-16161906D01*
X11641698Y-16231255D01*
X11622305Y-16257736D01*
X11519832Y-16364968D01*
X11495618Y-16390306D01*
X11369732Y-16574848D01*
X11353992Y-16608758D01*
X11290760Y-16744980D01*
X11275677Y-16777473D01*
X11215978Y-16992738D01*
X11192240Y-17214863D01*
X9578417Y-17214863D01*
X9562836Y-17045294D01*
X9549462Y-16997875D01*
X9509103Y-16854774D01*
X9509102Y-16854772D01*
X9507535Y-16849215D01*
X9487640Y-16808870D01*
X9419984Y-16671678D01*
X9417429Y-16666497D01*
X9381162Y-16617929D01*
X9298986Y-16507883D01*
X9298986Y-16507882D01*
X9295533Y-16503259D01*
X9177964Y-16394579D01*
X9150171Y-16368887D01*
X9150168Y-16368885D01*
X9145931Y-16364968D01*
X9099903Y-16335927D01*
X8978516Y-16259337D01*
X8978511Y-16259335D01*
X8973632Y-16256256D01*
X8784408Y-16180763D01*
X8584594Y-16141017D01*
X8578820Y-16140941D01*
X8578816Y-16140941D01*
X8475680Y-16139592D01*
X8380883Y-16138351D01*
X8375186Y-16139330D01*
X8375185Y-16139330D01*
X8243800Y-16161906D01*
X8180098Y-16172852D01*
X7988962Y-16243366D01*
X7813877Y-16347531D01*
X7712501Y-16436435D01*
X7692016Y-16454400D01*
X7627612Y-16484277D01*
X7608939Y-16485668D01*
X4567340Y-16485668D01*
X4499219Y-16465666D01*
X4461547Y-16428107D01*
X4454003Y-16416445D01*
X4450521Y-16412618D01*
X4306787Y-16254656D01*
X4275735Y-16190810D01*
X4284130Y-16120311D01*
X4329306Y-16065543D01*
X4355750Y-16051874D01*
X4462286Y-16011935D01*
X4470694Y-16008783D01*
X4587250Y-15921429D01*
X4674604Y-15804873D01*
X4725734Y-15668484D01*
X4732489Y-15606302D01*
X4732489Y-13810034D01*
X4725734Y-13747852D01*
X4674604Y-13611463D01*
X4587250Y-13494907D01*
X4470694Y-13407553D01*
X4334305Y-13356423D01*
X4272123Y-13349668D01*
X2475855Y-13349668D01*
X2413673Y-13356423D01*
X2277284Y-13407553D01*
X2160728Y-13494907D01*
X2073374Y-13611463D01*
X2022244Y-13747852D01*
X2015489Y-13810034D01*
X2015489Y-15606302D01*
X2022244Y-15668484D01*
X2073374Y-15804873D01*
X2160728Y-15921429D01*
X2277284Y-16008783D01*
X2285693Y-16011935D01*
X2285694Y-16011936D01*
X2394440Y-16052703D01*
X2451205Y-16095344D01*
X2475905Y-16161906D01*
X2460698Y-16231255D01*
X2441305Y-16257736D01*
X2338832Y-16364968D01*
X2314618Y-16390306D01*
X2188732Y-16574848D01*
X2172992Y-16608758D01*
X2109760Y-16744980D01*
X2094677Y-16777473D01*
X2034978Y-16992738D01*
X2011240Y-17214863D01*
X2011537Y-17220016D01*
X2011537Y-17220019D01*
X2017000Y-17314758D01*
X2024099Y-17437883D01*
X2025236Y-17442929D01*
X2025237Y-17442935D01*
X2039912Y-17508051D01*
X2073211Y-17655807D01*
X2157255Y-17862784D01*
X2208008Y-17945606D01*
X2265268Y-18039045D01*
X2273976Y-18053256D01*
X2420239Y-18222106D01*
X2523947Y-18308206D01*
X2585204Y-18359062D01*
X2592115Y-18364800D01*
X2662584Y-18405979D01*
X2665434Y-18407644D01*
X2714158Y-18459282D01*
X2727229Y-18529065D01*
X2700498Y-18594837D01*
X2660044Y-18628195D01*
X2647596Y-18634675D01*
X2643463Y-18637778D01*
X2643460Y-18637780D01*
X2619236Y-18655968D01*
X2468954Y-18768803D01*
X2314618Y-18930306D01*
X2311704Y-18934578D01*
X2311703Y-18934579D01*
X2299393Y-18952625D01*
X2188732Y-19114848D01*
X2154704Y-19188156D01*
X2097781Y-19310787D01*
X2094677Y-19317473D01*
X2034978Y-19532738D01*
X2011240Y-19754863D01*
X1523990Y-19754863D01*
X1523990Y-10452408D01*
X2180490Y-10452408D01*
X2200445Y-10680495D01*
X2259704Y-10901651D01*
X2262027Y-10906632D01*
X2262027Y-10906633D01*
X2354139Y-11104170D01*
X2354142Y-11104175D01*
X2356465Y-11109157D01*
X2487790Y-11296708D01*
X2649688Y-11458606D01*
X2654196Y-11461763D01*
X2654199Y-11461765D01*
X2732377Y-11516506D01*
X2837239Y-11589931D01*
X2842221Y-11592254D01*
X2842226Y-11592257D01*
X3039763Y-11684369D01*
X3044745Y-11686692D01*
X3050053Y-11688114D01*
X3050055Y-11688115D01*
X3260586Y-11744527D01*
X3260588Y-11744527D01*
X3265901Y-11745951D01*
X3493988Y-11765906D01*
X3722075Y-11745951D01*
X3727388Y-11744527D01*
X3727390Y-11744527D01*
X3937921Y-11688115D01*
X3937923Y-11688114D01*
X3943231Y-11686692D01*
X3948213Y-11684369D01*
X4145750Y-11592257D01*
X4145755Y-11592254D01*
X4150737Y-11589931D01*
X4255599Y-11516506D01*
X4333777Y-11461765D01*
X4333780Y-11461763D01*
X4338288Y-11458606D01*
X4500186Y-11296708D01*
X4631511Y-11109157D01*
X4633834Y-11104175D01*
X4633837Y-11104170D01*
X4725949Y-10906633D01*
X4725949Y-10906632D01*
X4728272Y-10901651D01*
X4787531Y-10680495D01*
X4807486Y-10452408D01*
X4787531Y-10224321D01*
X4728272Y-10003165D01*
X4725949Y-9998183D01*
X4633837Y-9800646D01*
X4633834Y-9800641D01*
X4631511Y-9795659D01*
X4500186Y-9608108D01*
X4338288Y-9446210D01*
X4333780Y-9443053D01*
X4333777Y-9443051D01*
X4155241Y-9318039D01*
X4150737Y-9314885D01*
X4145753Y-9312561D01*
X4143460Y-9311237D01*
X4094467Y-9259855D01*
X4081031Y-9190141D01*
X4107417Y-9124230D01*
X4143460Y-9092999D01*
X4154990Y-9086342D01*
X4207036Y-9049899D01*
X4215412Y-9039420D01*
X4208344Y-9025974D01*
X3506800Y-8324430D01*
X3492856Y-8316816D01*
X3491023Y-8316947D01*
X3484408Y-8321198D01*
X2778911Y-9026695D01*
X2772481Y-9038470D01*
X2781777Y-9050485D01*
X2832986Y-9086342D01*
X2844516Y-9092999D01*
X2893509Y-9144381D01*
X2906946Y-9214095D01*
X2880559Y-9280006D01*
X2844516Y-9311237D01*
X2842223Y-9312561D01*
X2837239Y-9314885D01*
X2832735Y-9318039D01*
X2654199Y-9443051D01*
X2654196Y-9443053D01*
X2649688Y-9446210D01*
X2487790Y-9608108D01*
X2356465Y-9795659D01*
X2354142Y-9800641D01*
X2354139Y-9800646D01*
X2262027Y-9998183D01*
X2259704Y-10003165D01*
X2200445Y-10224321D01*
X2180490Y-10452408D01*
X1523990Y-10452408D01*
X1523990Y-7957883D01*
X2181471Y-7957883D01*
X2200460Y-8174927D01*
X2202363Y-8185720D01*
X2258752Y-8396169D01*
X2262498Y-8406461D01*
X2354574Y-8603919D01*
X2360057Y-8613414D01*
X2396497Y-8665456D01*
X2406976Y-8673832D01*
X2420422Y-8666764D01*
X3121966Y-7965220D01*
X3128344Y-7953540D01*
X3858396Y-7953540D01*
X3858527Y-7955373D01*
X3862778Y-7961988D01*
X4568275Y-8667485D01*
X4580050Y-8673915D01*
X4592065Y-8664619D01*
X4627919Y-8613414D01*
X4633402Y-8603919D01*
X4725478Y-8406461D01*
X4729224Y-8396169D01*
X4785613Y-8185720D01*
X4787516Y-8174927D01*
X4806505Y-7957883D01*
X4806505Y-7946933D01*
X4787516Y-7729889D01*
X4785613Y-7719096D01*
X4729224Y-7508647D01*
X4725478Y-7498355D01*
X4633402Y-7300897D01*
X4627919Y-7291402D01*
X4591479Y-7239360D01*
X4581000Y-7230984D01*
X4567554Y-7238052D01*
X3866010Y-7939596D01*
X3858396Y-7953540D01*
X3128344Y-7953540D01*
X3129580Y-7951276D01*
X3129449Y-7949443D01*
X3125198Y-7942828D01*
X2419701Y-7237331D01*
X2407926Y-7230901D01*
X2395911Y-7240197D01*
X2360057Y-7291402D01*
X2354574Y-7300897D01*
X2262498Y-7498355D01*
X2258752Y-7508647D01*
X2202363Y-7719096D01*
X2200460Y-7729889D01*
X2181471Y-7946933D01*
X2181471Y-7957883D01*
X1523990Y-7957883D01*
X1523990Y-6865396D01*
X2772564Y-6865396D01*
X2779632Y-6878842D01*
X3481176Y-7580386D01*
X3495120Y-7588000D01*
X3496953Y-7587869D01*
X3503568Y-7583618D01*
X4209065Y-6878121D01*
X4215495Y-6866346D01*
X4206199Y-6854331D01*
X4154994Y-6818477D01*
X4145499Y-6812994D01*
X3948041Y-6720918D01*
X3937749Y-6717172D01*
X3727300Y-6660783D01*
X3716507Y-6658880D01*
X3499463Y-6639891D01*
X3488513Y-6639891D01*
X3271469Y-6658880D01*
X3260676Y-6660783D01*
X3050227Y-6717172D01*
X3039935Y-6720918D01*
X2842477Y-6812994D01*
X2832982Y-6818477D01*
X2780940Y-6854917D01*
X2772564Y-6865396D01*
X1523990Y-6865396D01*
X1523990Y-5043857D01*
X17930677Y-5043857D01*
X17947226Y-5330871D01*
X17948051Y-5335076D01*
X17948052Y-5335084D01*
X17979998Y-5497909D01*
X18002574Y-5612983D01*
X18003961Y-5617033D01*
X18003962Y-5617038D01*
X18094309Y-5880918D01*
X18095698Y-5884974D01*
X18224873Y-6141810D01*
X18387709Y-6378738D01*
X18581194Y-6591376D01*
X18584489Y-6594131D01*
X18584490Y-6594132D01*
X18639218Y-6639891D01*
X18801747Y-6775786D01*
X19045286Y-6928559D01*
X19307306Y-7046865D01*
X19311425Y-7048085D01*
X19578845Y-7127299D01*
X19578850Y-7127300D01*
X19582958Y-7128517D01*
X19587192Y-7129165D01*
X19587197Y-7129166D01*
X19835799Y-7167207D01*
X19867141Y-7172003D01*
X20013473Y-7174302D01*
X20150305Y-7176452D01*
X20150311Y-7176452D01*
X20154596Y-7176519D01*
X20158848Y-7176004D01*
X20158856Y-7176004D01*
X20435744Y-7142496D01*
X20435749Y-7142495D01*
X20440005Y-7141980D01*
X20718085Y-7069027D01*
X20983692Y-6959009D01*
X21231910Y-6813962D01*
X21458147Y-6636570D01*
X21499273Y-6594132D01*
X21655232Y-6433194D01*
X21658215Y-6430116D01*
X21660748Y-6426668D01*
X21660752Y-6426663D01*
X21825875Y-6201874D01*
X21828413Y-6198419D01*
X21965592Y-5945767D01*
X22067213Y-5676836D01*
X22131395Y-5396601D01*
X22156951Y-5110248D01*
X22157415Y-5065988D01*
X22137861Y-4779163D01*
X22133324Y-4757252D01*
X22080431Y-4501843D01*
X22079562Y-4497646D01*
X21983595Y-4226645D01*
X21887900Y-4041239D01*
X21853703Y-3974983D01*
X21853703Y-3974982D01*
X21851738Y-3971176D01*
X21838476Y-3952305D01*
X21688892Y-3739470D01*
X21686429Y-3735965D01*
X21490728Y-3525366D01*
X21268256Y-3343275D01*
X21023130Y-3193061D01*
X21005036Y-3185118D01*
X20763818Y-3079231D01*
X20759886Y-3077505D01*
X20733951Y-3070117D01*
X20487522Y-2999920D01*
X20487523Y-2999920D01*
X20483394Y-2998744D01*
X20270692Y-2968473D01*
X20203024Y-2958842D01*
X20203022Y-2958842D01*
X20198772Y-2958237D01*
X20194483Y-2958215D01*
X20194476Y-2958214D01*
X19915571Y-2956753D01*
X19915564Y-2956753D01*
X19911285Y-2956731D01*
X19907041Y-2957290D01*
X19907037Y-2957290D01*
X19781648Y-2973798D01*
X19626254Y-2994256D01*
X19622114Y-2995389D01*
X19622112Y-2995389D01*
X19545299Y-3016403D01*
X19348952Y-3070117D01*
X19345004Y-3071801D01*
X19088464Y-3181225D01*
X19088460Y-3181227D01*
X19084512Y-3182911D01*
X18959948Y-3257461D01*
X18841509Y-3328345D01*
X18841505Y-3328348D01*
X18837827Y-3330549D01*
X18613460Y-3510301D01*
X18496360Y-3633699D01*
X18425743Y-3708114D01*
X18415565Y-3718839D01*
X18247802Y-3952305D01*
X18113276Y-4206380D01*
X18014477Y-4476361D01*
X17953233Y-4757252D01*
X17930677Y-5043857D01*
X1523990Y-5043857D01*
X1523990Y-4065316D01*
X1525490Y-4045931D01*
X1527795Y-4031130D01*
X1527795Y-4031127D01*
X1529176Y-4022258D01*
X1526931Y-4005089D01*
X1526098Y-3981149D01*
X1541700Y-3723218D01*
X1543534Y-3708114D01*
X1579784Y-3510301D01*
X1595030Y-3427109D01*
X1598669Y-3412341D01*
X1624844Y-3328345D01*
X1683665Y-3139580D01*
X1689060Y-3125358D01*
X1713922Y-3070117D01*
X1806306Y-2864848D01*
X1813375Y-2851379D01*
X1961172Y-2606893D01*
X1969815Y-2594371D01*
X2146006Y-2369481D01*
X2156096Y-2358093D01*
X2358095Y-2156094D01*
X2369483Y-2146004D01*
X2594373Y-1969813D01*
X2606895Y-1961170D01*
X2851381Y-1813373D01*
X2864850Y-1806304D01*
X3125363Y-1689057D01*
X3139582Y-1683663D01*
X3412349Y-1598666D01*
X3427111Y-1595028D01*
X3637342Y-1556502D01*
X3708116Y-1543532D01*
X3723220Y-1541698D01*
X3973919Y-1526533D01*
X4000629Y-1527790D01*
X4000849Y-1527793D01*
X4009720Y-1529174D01*
X4018622Y-1528010D01*
X4018625Y-1528010D01*
X4041241Y-1525052D01*
X4057579Y-1523988D01*
X21044660Y-1523988D01*
X21064045Y-1525488D01*
G37*
%TD.AperFunction*%
%TA.AperFunction,Conductor*%
G36*
X7736000Y-25702805D02*
G01*
X7741409Y-25707775D01*
X7763498Y-25729293D01*
X7763504Y-25729298D01*
X7767638Y-25733325D01*
X7772435Y-25736531D01*
X7772436Y-25736531D01*
X7773519Y-25737254D01*
X7778728Y-25740735D01*
X7824256Y-25795210D01*
X7834728Y-25845501D01*
X7834728Y-31413573D01*
X7814726Y-31481694D01*
X7797823Y-31502668D01*
X7482728Y-31817763D01*
X7420416Y-31851789D01*
X7393633Y-31854668D01*
X4650794Y-31854668D01*
X4582673Y-31834666D01*
X4545002Y-31797108D01*
X4456811Y-31660785D01*
X4456809Y-31660782D01*
X4454003Y-31656445D01*
X4303659Y-31491219D01*
X4299608Y-31488020D01*
X4299604Y-31488016D01*
X4132403Y-31355968D01*
X4132399Y-31355966D01*
X4128348Y-31352766D01*
X4087042Y-31329964D01*
X4037073Y-31279532D01*
X4022301Y-31210089D01*
X4047417Y-31143684D01*
X4074769Y-31117077D01*
X4118592Y-31085818D01*
X4253849Y-30989341D01*
X4280937Y-30962348D01*
X4408424Y-30835305D01*
X4412085Y-30831657D01*
X4422954Y-30816532D01*
X4539424Y-30654445D01*
X4542442Y-30650245D01*
X4553882Y-30627099D01*
X4639125Y-30454621D01*
X4639126Y-30454619D01*
X4641419Y-30449979D01*
X4706359Y-30236237D01*
X4735518Y-30014758D01*
X4737145Y-29948168D01*
X4718841Y-29725529D01*
X4664420Y-29508870D01*
X4575343Y-29304008D01*
X4480316Y-29157118D01*
X4456811Y-29120785D01*
X4456809Y-29120782D01*
X4454003Y-29116445D01*
X4303659Y-28951219D01*
X4299608Y-28948020D01*
X4299604Y-28948016D01*
X4132403Y-28815968D01*
X4132399Y-28815966D01*
X4128348Y-28812766D01*
X4087042Y-28789964D01*
X4037073Y-28739532D01*
X4022301Y-28670089D01*
X4047417Y-28603684D01*
X4074769Y-28577077D01*
X4118592Y-28545818D01*
X4253849Y-28449341D01*
X4280937Y-28422348D01*
X4408424Y-28295305D01*
X4412085Y-28291657D01*
X4422954Y-28276532D01*
X4539424Y-28114445D01*
X4542442Y-28110245D01*
X4544735Y-28105605D01*
X4546435Y-28102776D01*
X4598663Y-28054686D01*
X4654440Y-28041668D01*
X6059461Y-28041668D01*
X6070644Y-28042195D01*
X6078137Y-28043870D01*
X6086063Y-28043621D01*
X6086064Y-28043621D01*
X6146214Y-28041730D01*
X6150173Y-28041668D01*
X6178084Y-28041668D01*
X6182019Y-28041171D01*
X6182084Y-28041163D01*
X6193921Y-28040230D01*
X6226179Y-28039216D01*
X6230198Y-28039090D01*
X6238117Y-28038841D01*
X6257571Y-28033189D01*
X6276928Y-28029181D01*
X6289158Y-28027636D01*
X6289159Y-28027636D01*
X6297025Y-28026642D01*
X6304396Y-28023723D01*
X6304398Y-28023723D01*
X6338140Y-28010364D01*
X6349370Y-28006519D01*
X6384211Y-27996397D01*
X6384212Y-27996397D01*
X6391821Y-27994186D01*
X6398640Y-27990153D01*
X6398645Y-27990151D01*
X6409256Y-27983875D01*
X6427004Y-27975180D01*
X6445845Y-27967720D01*
X6457095Y-27959547D01*
X6481615Y-27941732D01*
X6491535Y-27935216D01*
X6522763Y-27916748D01*
X6522766Y-27916746D01*
X6529590Y-27912710D01*
X6543911Y-27898389D01*
X6558945Y-27885548D01*
X6568921Y-27878300D01*
X6575335Y-27873640D01*
X6603516Y-27839575D01*
X6611506Y-27830794D01*
X7286246Y-27156055D01*
X7294525Y-27148521D01*
X7301006Y-27144408D01*
X7347632Y-27094756D01*
X7350386Y-27091915D01*
X7370123Y-27072178D01*
X7372603Y-27068981D01*
X7380308Y-27059959D01*
X7405147Y-27033508D01*
X7410574Y-27027729D01*
X7414393Y-27020783D01*
X7414395Y-27020780D01*
X7420336Y-27009974D01*
X7431187Y-26993455D01*
X7438746Y-26983709D01*
X7443602Y-26977449D01*
X7446747Y-26970180D01*
X7446750Y-26970176D01*
X7461162Y-26936871D01*
X7466379Y-26926221D01*
X7487683Y-26887468D01*
X7492721Y-26867845D01*
X7499125Y-26849142D01*
X7504021Y-26837828D01*
X7504021Y-26837827D01*
X7507169Y-26830553D01*
X7508408Y-26822730D01*
X7508411Y-26822720D01*
X7514087Y-26786884D01*
X7516493Y-26775264D01*
X7525516Y-26740119D01*
X7525516Y-26740118D01*
X7527488Y-26732438D01*
X7527488Y-26712184D01*
X7529039Y-26692473D01*
X7530968Y-26680294D01*
X7532208Y-26672465D01*
X7528047Y-26628446D01*
X7527488Y-26616589D01*
X7527488Y-25798029D01*
X7547490Y-25729908D01*
X7601146Y-25683415D01*
X7671420Y-25673311D01*
X7736000Y-25702805D01*
G37*
%TD.AperFunction*%
%TD*%
M02*
